<?xml version="1.0" encoding="UTF-8"?>
<svg xmlns="http://www.w3.org/2000/svg" xmlns:xlink="http://www.w3.org/1999/xlink" width="1024pt" height="1116pt" viewBox="0 0 1024 1116" version="1.1">
<defs>
<linearGradient id="linear0" gradientUnits="userSpaceOnUse" x1="435.95" y1="677.87" x2="343.82" y2="230.38" gradientTransform="matrix(2.315537,0,0,2.314149,-420.037052,-519.768382)">
<stop offset="0" style="stop-color:rgb(54.901961%,21.176471%,6.666667%);stop-opacity:1;"/>
<stop offset="1" style="stop-color:rgb(92.54902%,3.137255%,10.196078%);stop-opacity:1;"/>
</linearGradient>
<linearGradient id="linear1" gradientUnits="userSpaceOnUse" x1="409.12" y1="347.11" x2="452.54" y2="233.98" gradientTransform="matrix(2.315537,0,0,2.314149,-420.037052,-519.768382)">
<stop offset="0" style="stop-color:rgb(43.921569%,24.705882%,2.352941%);stop-opacity:1;"/>
<stop offset="1" style="stop-color:rgb(38.431373%,11.764706%,0%);stop-opacity:1;"/>
</linearGradient>
<linearGradient id="linear2" gradientUnits="userSpaceOnUse" x1="351.64" y1="288.23" x2="158.59" y2="201.36" gradientTransform="matrix(2.315537,0,0,2.314149,-420.037052,-519.768382)">
<stop offset="0" style="stop-color:rgb(21.960784%,50.980392%,16.862745%);stop-opacity:1;"/>
<stop offset="1" style="stop-color:rgb(0%,80.784314%,0.784314%);stop-opacity:0;"/>
</linearGradient>
</defs>
<g id="surface1">
<path style=" stroke:none;fill-rule:nonzero;fill:url(#linear0);" d="M 516.019531 1084.699219 C 990.867188 1300.675781 1262.757812 226.777344 729.132812 270.398438 C 607.867188 300.226562 455.644531 325.792969 295.800781 274.269531 C -266.410156 217.917969 75.699219 1284.394531 516.007812 1084.707031 Z M 516.019531 1084.699219 "/>
<path style=" stroke:none;fill-rule:nonzero;fill:url(#linear1);" d="M 568.210938 95.703125 C 549.316406 40.015625 547.367188 18.199219 556.515625 18.558594 C 610.960938 7.992188 632.839844 42.992188 657.097656 74.664062 C 623.421875 75.917969 610.976562 89.289062 598.621094 102.714844 C 557.800781 177.59375 553.9375 233.777344 537.804688 293.234375 L 474.648438 297.910156 C 521.566406 252.148438 543.894531 159.773438 568.210938 95.703125 Z M 568.210938 95.703125 "/>
<path style=" stroke:none;fill-rule:nonzero;fill:url(#linear2);" d="M 529.609375 192.710938 C 488.824219 30.714844 330.019531 -20.320312 203.304688 11.542969 C -11.558594 65.578125 369.726562 231.167969 529.609375 192.710938 Z M 529.609375 192.710938 "/>
<path style="fill:none;stroke-width:1;stroke-linecap:butt;stroke-linejoin:miter;stroke:rgb(23.137255%,68.235294%,15.686275%);stroke-opacity:1;stroke-miterlimit:4;" d="M 390.929952 294.240762 C 329.959354 252.010732 299.830006 248.920029 255.570567 245.76012 " transform="matrix(2.315537,0,0,2.314149,-420.037052,-519.768382)"/>
</g>
</svg>
