<?xml version="1.0" encoding="UTF-8"?>
<svg xmlns="http://www.w3.org/2000/svg" xmlns:xlink="http://www.w3.org/1999/xlink" width="1024pt" height="1022pt" viewBox="0 0 1024 1022" version="1.1">
<defs>
<radialGradient id="radial0" gradientUnits="userSpaceOnUse" cx="342.38" cy="595.88" fx="342.38" fy="595.88" r="221" gradientTransform="matrix(3.055652,-0.887694,0.777532,2.678226,-827.155517,-165.629527)">
<stop offset="0" style="stop-color:rgb(0%,0%,0%);stop-opacity:0.396078;"/>
<stop offset="1" style="stop-color:rgb(0%,0%,0%);stop-opacity:0;"/>
</radialGradient>
<linearGradient id="linear0" gradientUnits="userSpaceOnUse" x1="292.68" y1="-226.81" x2="292.68" y2="-30.125" gradientTransform="matrix(2.322101,0,0,2.322833,-150.123815,534.274783)">
<stop offset="0" style="stop-color:rgb(100%,100%,100%);stop-opacity:0.843137;"/>
<stop offset="1" style="stop-color:rgb(93.333333%,93.333333%,92.54902%);stop-opacity:0;"/>
</linearGradient>
</defs>
<g id="surface1">
<path style=" stroke:none;fill-rule:nonzero;fill:rgb(44.705882%,62.352941%,81.176471%);fill-opacity:1;" d="M 673.574219 27.433594 C 407.652344 -62.824219 118.386719 79.402344 27.511719 345.359375 C -63.359375 611.292969 78.351562 900.878906 343.859375 992.347656 Z M 673.574219 27.433594 "/>
<path style=" stroke:none;fill-rule:nonzero;fill:rgb(92.941176%,83.137255%,0%);fill-opacity:1;" d="M 680.164062 29.6875 C 945.679688 121.136719 1087.390625 410.722656 996.515625 676.679688 C 905.644531 942.613281 616.378906 1084.839844 350.449219 994.601562 Z M 680.164062 29.6875 "/>
<path style=" stroke:none;fill-rule:nonzero;fill:rgb(93.333333%,93.333333%,92.54902%);fill-opacity:1;" d="M 677.160156 38.480469 C 876.84375 107.640625 965.214844 378.890625 874.375 644.738281 C 783.539062 910.558594 547.675781 1070.949219 347.445312 1003.394531 Z M 677.160156 38.480469 "/>
<path style=" stroke:none;fill-rule:nonzero;fill:rgb(93.333333%,93.333333%,92.54902%);fill-opacity:1;" d="M 670.570312 36.226562 C 470.347656 -31.347656 234.484375 129.039062 143.644531 394.886719 C 52.808594 660.710938 141.179688 931.960938 340.855469 1001.140625 Z M 670.570312 36.226562 "/>
<path style=" stroke:none;fill-rule:nonzero;fill:rgb(93.72549%,16.078431%,16.078431%);fill-opacity:1;" d="M 681.957031 573.988281 C 590.910156 840.441406 439.363281 1029.863281 343.46875 997.078125 C 247.578125 964.289062 243.648438 721.707031 334.699219 455.253906 C 425.746094 188.800781 577.292969 -0.625 673.1875 32.164062 C 769.078125 64.949219 773.007812 307.535156 681.957031 573.988281 Z M 681.957031 573.988281 "/>
<path style=" stroke:none;fill-rule:nonzero;fill:url(#radial0);" d="M 1020.214844 510.722656 C 1020.214844 792.308594 792.015625 1020.582031 510.515625 1020.582031 C 229.015625 1020.582031 0.8125 792.308594 0.8125 510.722656 C 0.8125 229.132812 229.015625 0.859375 510.515625 0.859375 C 792.015625 0.859375 1020.214844 229.132812 1020.214844 510.722656 Z M 1020.214844 510.722656 "/>
<path style=" stroke:none;fill-rule:nonzero;fill:rgb(30.588235%,60.392157%,2.352941%);fill-opacity:1;" d="M 514.207031 0.324219 C 470.574219 0.324219 428.21875 5.832031 387.789062 16.144531 C 430.285156 32.566406 411.523438 43.320312 412.242188 65.621094 C 460.378906 85.226562 479.910156 94.957031 505.753906 127.476562 C 609.714844 110.054688 662.65625 129.265625 739.566406 159.371094 C 762.949219 141.902344 784.171875 125.410156 811.804688 132.097656 C 822.046875 125.992188 822.417969 117.511719 827.316406 107.894531 C 740.890625 40.488281 632.214844 0.324219 514.207031 0.324219 Z M 514.207031 0.324219 "/>
<path style=" stroke:none;fill-rule:nonzero;fill:url(#linear0);" d="M 529.507812 7.433594 C 294.90625 7.433594 102.449219 189.125 85.335938 419.433594 C 85.335938 419.441406 298.808594 366.597656 476.75 236.765625 C 719.574219 59.628906 973.679688 419.441406 973.679688 419.441406 C 956.566406 189.125 764.109375 7.441406 529.507812 7.441406 Z M 529.507812 7.433594 "/>
</g>
</svg>
