<?xml version="1.0" encoding="UTF-8" standalone="no"?>
<!-- Created with Inkscape (http://www.inkscape.org/) -->

<svg
   xmlns:dc="http://purl.org/dc/elements/1.1/"
   xmlns:cc="http://creativecommons.org/ns#"
   xmlns:rdf="http://www.w3.org/1999/02/22-rdf-syntax-ns#"
   xmlns:svg="http://www.w3.org/2000/svg"
   xmlns="http://www.w3.org/2000/svg"
   xmlns:sodipodi="http://sodipodi.sourceforge.net/DTD/sodipodi-0.dtd"
   xmlns:inkscape="http://www.inkscape.org/namespaces/inkscape"
   id="svg2"
   style="enable-background:new"
   sodipodi:docname="bird.svg"
   viewBox="0 0 641.47781 487.16086"
   sodipodi:version="0.32"
   version="1.0"
   inkscape:output_extension="org.inkscape.output.svg.inkscape"
   inkscape:version="0.91 r13725"
   width="641.47778"
   height="487.16086">
  <defs
     id="defs4">
    <radialGradient
       id="radialGradient3176"
       gradientUnits="userSpaceOnUse"
       cy="95.303001"
       cx="646.5"
       gradientTransform="matrix(1.1121,-0.0068446,0.01337,0.77957,-73.77,25.432)"
       r="8.3338003"
       inkscape:collect="always">
      <stop
         id="stop3172"
         style="stop-color:#ffd700"
         offset="0" />
      <stop
         id="stop3178"
         style="stop-color:#ff2c00"
         offset=".76389" />
      <stop
         id="stop3184"
         style="stop-color:#ff3700"
         offset=".76389" />
      <stop
         id="stop3180"
         style="stop-color:#000000"
         offset="1" />
    </radialGradient>
    <linearGradient
       id="linearGradient3203"
       y2="140.8"
       gradientUnits="userSpaceOnUse"
       x2="727.73999"
       y1="125.62"
       x1="706.04999"
       inkscape:collect="always">
      <stop
         id="stop3199"
         style="stop-color:#4f4f4f"
         offset="0" />
      <stop
         id="stop3201"
         style="stop-color:#000000"
         offset="1" />
    </linearGradient>
    <linearGradient
       id="linearGradient3698"
       y2="258.26999"
       gradientUnits="userSpaceOnUse"
       x2="658.04999"
       gradientTransform="matrix(0.56973,0,0,1.049,312.57,-2.0501)"
       y1="139.33"
       x1="653.59003"
       inkscape:collect="always">
      <stop
         id="stop3694"
         style="stop-color:#77c7aa;stop-opacity:0"
         offset="0" />
      <stop
         id="stop3702"
         style="stop-color:#77c7aa;stop-opacity:.74902"
         offset=".40968" />
      <stop
         id="stop3700"
         style="stop-color:#77c7aa;stop-opacity:.49804"
         offset=".60911" />
      <stop
         id="stop3696"
         style="stop-color:#f56edf;stop-opacity:.15929"
         offset="1" />
    </linearGradient>
    <linearGradient
       id="linearGradient3712"
       y2="191.64999"
       gradientUnits="userSpaceOnUse"
       x2="634.63"
       gradientTransform="matrix(0.99648,0.30127,-0.2894,0.95721,102.62,-180.97)"
       y1="199.07001"
       x1="621.42999"
       inkscape:collect="always">
      <stop
         id="stop3708"
         style="stop-color:#9f9f9f"
         offset="0" />
      <stop
         id="stop3710"
         style="stop-color:#9f9f9f;stop-opacity:0"
         offset="1" />
    </linearGradient>
  </defs>
  <sodipodi:namedview
     id="base"
     bordercolor="#666666"
     inkscape:pageshadow="2"
     guidetolerance="10"
     pagecolor="#ffffff"
     gridtolerance="10000"
     inkscape:window-height="994"
     inkscape:zoom="0.70710678"
     objecttolerance="10"
     showgrid="false"
     borderopacity="1.0"
     inkscape:current-layer="layer10"
     inkscape:cx="53.726299"
     inkscape:cy="173.09901"
     showguides="true"
     inkscape:window-y="34"
     inkscape:window-x="75"
     inkscape:window-width="1400"
     inkscape:guide-bbox="true"
     inkscape:pageopacity="0.0"
     inkscape:document-units="px"
     fit-margin-top="0"
     fit-margin-left="0"
     fit-margin-right="0"
     fit-margin-bottom="0"
     inkscape:window-maximized="0" />
  <g
     id="layer10"
     inkscape:label="shadow"
     inkscape:groupmode="layer"
     transform="translate(-87.172952,-49.196965)">
    <path
       id="path3267"
       style="fill:#000000;fill-opacity:0.26263003;fill-rule:evenodd"
       d="m 527.68,534.95 18.74,0 -8.67,-6.72 -9.72,0.18 -2.65,3.88 2.3,2.66 z"
       inkscape:connector-curvature="0" />
  </g>
  <g
     id="layer6"
     inkscape:label="feet"
     inkscape:groupmode="layer"
     transform="translate(-87.172952,-49.196965)">
    <path
       id="path3733"
       style="fill:#ff6262;fill-rule:evenodd"
       d="m 531.56,477.94 c -1.52,0.07 -2.25,2.37 -2.25,2.37 0,0 -1,32.55 -7.06,15.13 -6.06,-17.43 -11.13,-11.6 -11.13,-11.6 l -0.56,0.57 c 0.05,0.08 0.11,0.16 0.16,0.25 5.71,10.71 11.78,27.12 11.78,27.12 L 510,510.34 c 0,0 -5.01,0.03 -4.66,8.6 l 4.32,-0.72 1.78,1.78 c 0,0 -5.72,4.99 -2.5,6.06 3.21,1.07 5,1.1 5,1.1 l 1.78,8.18 c 16.78,0 13.94,-3.18 13.94,-3.18 0,0 10.34,-1.09 9.62,-0.38 -0.71,0.72 2.16,2.88 2.16,2.88 0,0 28.21,1.4 29.28,0.68 1.07,-0.71 0,-2.12 0,-2.12 l 59.28,-2.88 3.22,-1.4 11.44,0 c 0,-6.43 -9.66,-10.38 -9.66,-10.38 l -20.34,0.38 c 16.78,-2.5 -15,-4.28 -15,-4.28 l -42.88,3.18 -24.19,-39.59 c -0.38,-0.21 -0.71,-0.33 -1.03,-0.31 z"
       inkscape:connector-curvature="0" />
  </g>
  <g
     id="layer14"
     inkscape:label="toes"
     inkscape:groupmode="layer"
     transform="translate(-87.172952,-49.196965)">
    <path
       id="path3721"
       style="fill:#161616;fill-rule:evenodd;stroke:#000000;stroke-width:1px"
       d="m 510,510.34 c 0,0 -5.01,0.03 -4.66,8.6 l 4.32,-0.72 0.37,0.37 c 4.3,-4.8 1.79,-7.44 0.97,-8.12 l -1,-0.13 z"
       inkscape:connector-curvature="0" />
    <path
       id="path3723"
       style="fill:#161616;fill-rule:evenodd;stroke:#000000;stroke-width:1px"
       d="m 515,522.59 c -0.46,0.03 -0.75,0.16 -0.75,0.16 0,0 -1.22,4.07 -1.28,4.28 0.59,0.08 0.97,0.13 0.97,0.13 l 1.78,8.18 c 1.73,0 3.19,-0.03 4.53,-0.09 0.05,-11.66 -3.63,-12.75 -5.25,-12.66 z"
       inkscape:connector-curvature="0" />
    <path
       id="path3719"
       style="fill:#161616;fill-rule:evenodd;stroke:#000000;stroke-width:1px"
       d="m 568.78,525.75 c -0.87,0.05 -1.53,0.75 -1.53,0.75 -3.67,-1 -4.35,3.57 -4,8.97 3.99,0.08 7.13,0.1 7.47,-0.13 1.07,-0.71 0,-2.12 0,-2.12 l 1.69,-0.1 c -0.77,-6.17 -2.41,-7.44 -3.63,-7.37 z"
       inkscape:connector-curvature="0" />
    <path
       id="path3715"
       style="fill:#161616;fill-rule:evenodd;stroke:#000000;stroke-width:1px"
       d="m 635,518.56 -6.09,0.13 c -1.39,0.74 -6.31,3.7 -0.66,6.31 2.32,1.07 4.25,2.51 5.78,3.94 l 10.63,0 c 0,-6.43 -9.66,-10.38 -9.66,-10.38 z"
       inkscape:connector-curvature="0" />
    <path
       id="path3717"
       style="fill:#161616;fill-rule:evenodd;stroke:#000000;stroke-width:1px"
       d="m 601.94,514.81 c -0.19,0.21 -3.59,4.19 0.31,4.19 3.83,0 13.82,-0.43 14.72,-0.47 0.35,-0.07 0.69,-0.15 0.97,-0.22 l 1.56,-0.72 c 0.76,-1.5 -13.09,-2.49 -17.56,-2.78 z"
       inkscape:connector-curvature="0" />
  </g>
  <g
     id="layer15"
     inkscape:label="clawlines"
     inkscape:groupmode="layer"
     transform="translate(-87.172952,-49.196965)">
    <path
       id="path3790"
       style="opacity:0.53684004;fill:#ffffff"
       d="m 622.57,518.18 c -0.74,0.61 -1.44,1.27 -2.13,1.93 -0.69,0.67 -1.34,1.39 -1.92,2.17 -0.5,0.61 -0.78,1.31 -0.97,2.07 -0.18,1.06 -0.23,2.15 -0.15,3.22 0.08,1.03 0.54,1.95 1.07,2.81 0.35,0.56 0.85,0.86 1.48,0.98 0.4,0.05 0.2,0.03 0.59,0.06 l -2.99,2.13 c -0.42,-0.05 -0.21,-0.02 -0.63,-0.1 -0.68,-0.21 -1.24,-0.61 -1.61,-1.24 -0.53,-0.93 -1.02,-1.89 -1.11,-2.97 -0.11,-1.09 -0.07,-2.21 0.06,-3.3 0.16,-0.8 0.39,-1.57 0.91,-2.21 0.57,-0.81 1.23,-1.54 1.92,-2.25 l 2.04,-1.92 3.44,-1.38 z"
       inkscape:connector-curvature="0" />
    <path
       id="path3792"
       style="opacity:0.53684004;fill:#ffffff"
       d="m 610.14,520.21 c -1.14,0.59 -0.9,0.47 2.62,-1.51 0.12,-0.07 -0.23,0.14 -0.35,0.22 -0.34,0.23 -0.64,0.48 -0.94,0.76 -0.49,0.49 -0.95,1.01 -1.36,1.56 -0.47,0.64 -0.83,1.34 -1.17,2.05 -0.32,0.68 -0.56,1.39 -0.69,2.13 -0.1,0.56 -0.11,1.13 -0.11,1.69 -0.01,0.57 -0.02,1.13 0.06,1.69 0.01,0.09 0.03,0.18 0.04,0.27 l -3.26,1.72 c -0.01,-0.09 -0.03,-0.18 -0.04,-0.27 -0.09,-0.57 -0.1,-1.15 -0.09,-1.73 0,-0.59 0.01,-1.18 0.1,-1.77 0.13,-0.76 0.33,-1.5 0.66,-2.21 0.33,-0.73 0.68,-1.44 1.13,-2.1 0.38,-0.59 0.87,-1.11 1.35,-1.64 1.39,-1.39 3.2,-2.34 4.97,-3.16 l -2.92,2.3 z"
       inkscape:connector-curvature="0" />
    <path
       id="path3794"
       style="opacity:0.53684004;fill:#ffffff"
       d="m 605.81,518.94 c -0.53,0.5 -1.06,0.99 -1.55,1.52 -0.44,0.49 -0.75,1.07 -1.07,1.64 -0.26,0.5 -0.49,1.02 -0.65,1.56 -0.12,0.48 -0.14,0.97 -0.15,1.46 -0.03,0.5 0.02,0.98 0.1,1.47 0.03,0.25 0.09,0.49 0.16,0.74 l -3.25,1.75 c -0.06,-0.25 -0.15,-0.5 -0.17,-0.76 -0.09,-0.51 -0.17,-1.01 -0.13,-1.53 0.01,-0.51 0.01,-1.03 0.12,-1.54 0.13,-0.58 0.36,-1.12 0.62,-1.65 0.33,-0.58 0.61,-1.19 1.04,-1.71 0.46,-0.56 0.99,-1.03 1.51,-1.53 l 3.42,-1.42 z"
       inkscape:connector-curvature="0" />
    <path
       id="path3796"
       style="opacity:0.53684004;fill:#ffffff"
       d="m 599.86,514.65 c -0.36,0.44 -0.61,0.93 -0.87,1.43 -0.17,0.34 -0.33,0.71 -0.21,1.1 0.04,0.16 0.12,0.25 0.25,0.34 l -3.15,1.96 c -0.15,-0.15 -0.29,-0.3 -0.35,-0.51 -0.17,-0.47 -0.11,-0.93 0.1,-1.38 0.25,-0.49 0.48,-1.01 0.83,-1.44 l 3.4,-1.5 z"
       inkscape:connector-curvature="0" />
    <path
       id="path3798"
       style="opacity:0.53684004;fill:#ffffff"
       d="m 593.36,515.4 c -0.37,0.6 -0.53,1.28 -0.63,1.97 -0.08,0.58 -0.09,1.16 -0.09,1.74 0.01,0.24 0.04,0.47 0.2,0.65 l -3.18,1.9 c -0.2,-0.27 -0.29,-0.55 -0.31,-0.88 0.01,-0.6 0.02,-1.2 0.09,-1.79 0.1,-0.72 0.24,-1.42 0.52,-2.09 l 3.4,-1.5 z"
       inkscape:connector-curvature="0" />
    <path
       id="path3800"
       style="opacity:0.53684004;fill:#ffffff"
       d="m 583.89,517.71 c -1.15,0.77 0.11,-0.08 2.76,-1.56 0.08,-0.05 -0.15,0.1 -0.22,0.16 -0.2,0.15 -0.35,0.29 -0.5,0.49 -0.25,0.4 -0.27,0.86 -0.29,1.32 0,0.31 -0.01,0.16 0.02,0.44 l -3.28,1.72 c -0.05,-0.33 -0.03,-0.16 -0.03,-0.5 0.01,-0.5 0.02,-1.01 0.2,-1.49 0.16,-0.32 0.35,-0.59 0.67,-0.78 3.26,-1.96 2.18,-1.47 3.59,-2.1 l -2.92,2.3 z"
       inkscape:connector-curvature="0" />
    <path
       id="path3804"
       style="opacity:0.53684004;fill:#ffffff"
       d="m 560.87,527 c 5.53,-3.32 2.75,-1.63 1.57,-0.72 -0.47,0.38 -0.92,0.78 -1.34,1.21 -0.44,0.46 -0.86,0.94 -1.23,1.46 -0.32,0.45 -0.42,0.97 -0.46,1.5 -0.03,0.56 -0.05,1.11 0.03,1.67 0.05,0.37 0.14,0.69 0.46,0.9 l -3.13,1.97 c -0.35,-0.31 -0.54,-0.68 -0.58,-1.15 -0.1,-0.57 -0.11,-1.15 -0.07,-1.74 0.03,-0.58 0.08,-1.16 0.38,-1.67 0.34,-0.55 0.77,-1.04 1.2,-1.52 0.4,-0.46 0.85,-0.87 1.33,-1.25 1.35,-1.27 3.28,-1.94 4.74,-2.98 l -2.9,2.32 z"
       inkscape:connector-curvature="0" />
    <path
       id="path3806"
       style="opacity:0.53684004;fill:#ffffff"
       d="m 557.08,525.42 c -0.52,0.33 -1.02,0.69 -1.47,1.11 -0.51,0.54 -1.02,1.08 -1.54,1.62 -0.45,0.47 -0.89,0.95 -1.3,1.45 -0.31,0.39 -0.48,0.82 -0.57,1.3 -0.06,0.49 -0.06,0.98 -0.06,1.47 l 0,0.25 -3.29,1.67 0,-0.25 c 0,-0.5 -0.01,-1.01 0.04,-1.51 0.06,-0.52 0.17,-1.03 0.5,-1.46 0.36,-0.56 0.87,-1.01 1.3,-1.52 0.52,-0.53 1.03,-1.06 1.53,-1.61 0.42,-0.45 0.9,-0.82 1.4,-1.18 l 3.46,-1.34 z"
       inkscape:connector-curvature="0" />
    <path
       id="path3810"
       style="opacity:0.53684004;fill:#ffffff"
       d="m 522.47,522.33 c 0.27,0.83 0.73,1.58 1.16,2.34 0.37,0.48 0.59,0.99 0.69,1.58 0.07,0.61 0.08,1.22 0.08,1.83 0,0.6 -0.01,1.21 -0.01,1.82 l 0,1.7 0,0.52 -3.28,1.67 0,-0.51 0,-1.71 c 0,-0.61 0.01,-1.21 0.01,-1.82 0,-0.59 0.01,-1.19 -0.05,-1.78 -0.09,-0.55 -0.29,-1.02 -0.62,-1.48 -0.41,-0.77 -0.84,-1.53 -1.18,-2.34 l 3.2,-1.82 z"
       inkscape:connector-curvature="0" />
    <path
       id="path3812"
       style="opacity:0.53684004;fill:#ffffff"
       d="m 517.65,511.59 c -0.01,0.67 -0.01,1.33 -0.08,2 -0.05,0.6 -0.14,1.19 -0.35,1.75 -0.19,0.46 -0.48,0.87 -0.78,1.27 -0.27,0.36 -0.61,0.66 -0.96,0.93 -0.32,0.25 -0.62,0.53 -0.92,0.79 -0.16,0.17 -0.09,0.08 -0.22,0.27 l -3.37,1.53 c 0.09,-0.26 0.04,-0.14 0.16,-0.38 0.27,-0.31 0.6,-0.57 0.92,-0.82 0.33,-0.3 0.73,-0.51 0.99,-0.88 0.34,-0.33 0.58,-0.75 0.83,-1.16 0.23,-0.54 0.38,-1.08 0.41,-1.67 0.09,-0.65 0.11,-1.3 0.07,-1.95 l 3.3,-1.68 z"
       inkscape:connector-curvature="0" />
    <path
       id="path3814"
       style="opacity:0.53684004;fill:#ffffff"
       d="m 522.4,512.59 c -0.02,0.63 -0.01,1.27 -0.01,1.91 -0.02,0.5 -0.12,1 -0.25,1.48 -0.12,0.5 -0.24,0.99 -0.47,1.45 -0.26,0.4 -0.64,0.7 -0.99,1.02 -0.22,0.21 -0.11,0.11 -0.32,0.31 l -3.42,1.42 c 0.2,-0.23 0.09,-0.12 0.33,-0.32 0.3,-0.34 0.68,-0.62 1.02,-0.93 0.29,-0.4 0.41,-0.89 0.52,-1.35 0.11,-0.47 0.23,-0.94 0.3,-1.41 0,-0.63 0.01,-1.27 -0.01,-1.9 l 3.3,-1.68 z"
       inkscape:connector-curvature="0" />
    <path
       id="path3816"
       style="opacity:0.53684004;fill:#ffffff"
       d="m 516.24,488.01 c 0.98,0.24 1.93,0.6 2.92,0.85 0.93,0.29 1.87,0.56 2.83,0.72 0.72,0.09 1.45,0.09 2.18,0.1 l 2.36,0 c 1.04,0.01 2.07,-0.16 3.08,-0.42 0.89,-0.24 1.79,-0.45 2.62,-0.85 2.97,-1.78 -10.62,6.25 1.09,-0.61 0.91,-0.54 -1.84,1.06 -2.77,1.58 -0.2,0.12 0.4,-0.25 0.6,-0.38 0.48,-0.31 0.92,-0.67 1.38,-1.02 0.32,-0.23 0.63,-0.48 0.94,-0.72 l 3.42,-1.38 c -0.3,0.27 -0.63,0.49 -0.94,0.75 -0.46,0.34 -0.9,0.71 -1.39,1.03 -1.22,0.91 -3.01,1.79 -4.08,2.43 -0.91,0.53 3.64,-2.11 2.73,-1.59 -3.93,2.24 -2.25,1.44 -3.85,2.19 -0.85,0.33 -1.74,0.54 -2.62,0.76 -1.04,0.23 -2.1,0.4 -3.17,0.38 -0.79,0 -1.58,0.01 -2.37,0 -0.74,0 -1.48,-0.04 -2.21,-0.15 -0.95,-0.21 -1.88,-0.5 -2.82,-0.77 -0.99,-0.28 -1.97,-0.62 -2.99,-0.81 l 3.06,-2.09 z"
       inkscape:connector-curvature="0" />
    <path
       id="path3256"
       style="opacity:0.53684004;fill:#ffffff"
       d="m 517.32,496.22 c 0.22,0.38 0.48,0.73 0.75,1.07 0.45,0.57 1,1.04 1.58,1.46 0.48,0.36 1,0.62 1.58,0.79 0.5,0.14 1.03,0.18 1.55,0.2 0.88,0.02 1.76,-0.07 2.63,-0.18 1.35,-0.18 2.69,-0.43 4.03,-0.71 1.35,-0.31 2.71,-0.64 4.05,-1.02 0.66,-0.18 1.31,-0.41 1.93,-0.69 0.74,-0.33 1.5,-0.63 2.24,-0.96 0.44,-0.17 0.88,-0.35 1.3,-0.57 -0.33,0.2 -0.67,0.39 -1.01,0.59 -0.03,0.01 0.05,-0.04 0.07,-0.05 0.4,-0.23 0.8,-0.46 1.19,-0.69 0.35,-0.2 -0.7,0.41 -1.06,0.61 -0.03,0.02 0.07,-0.05 0.11,-0.07 0.13,-0.11 0.28,-0.2 0.43,-0.29 0.14,-0.1 0.29,-0.19 0.43,-0.3 l 1.21,-0.48 c -0.14,0.1 -0.27,0.22 -0.43,0.3 -0.13,0.11 -0.29,0.17 -0.42,0.28 -0.07,0.07 -0.03,0.04 -0.11,0.08 -0.39,0.23 -0.79,0.46 -1.18,0.69 -0.34,0.21 0.7,-0.4 1.05,-0.6 0.03,-0.02 -0.05,0.03 -0.08,0.05 -0.4,0.23 -0.8,0.46 -1.21,0.69 -0.41,0.2 -0.84,0.36 -1.26,0.53 -0.76,0.32 -1.52,0.63 -2.26,0.98 -0.61,0.26 -1.25,0.47 -1.9,0.64 -1.33,0.35 -2.68,0.65 -4.02,0.98 -1.35,0.28 -2.7,0.53 -4.07,0.73 -0.89,0.11 -1.78,0.2 -2.68,0.2 -0.53,-0.03 -1.07,-0.07 -1.58,-0.23 -0.57,-0.19 -1.1,-0.47 -1.59,-0.83 -0.58,-0.44 -1.12,-0.93 -1.6,-1.48 -0.28,-0.35 -0.54,-0.7 -0.81,-1.06 l 1.14,-0.66 z"
       inkscape:connector-curvature="0" />
    <path
       id="path3258"
       style="opacity:0.53684004;fill:#ffffff"
       d="m 520.05,503.35 c 0.07,0.48 0.35,0.88 0.62,1.27 0.38,0.49 0.81,0.98 1.32,1.34 0.1,0.07 0.2,0.13 0.3,0.19 0.48,0.25 0.98,0.46 1.51,0.56 0.13,0.02 0.25,0.03 0.37,0.05 1.05,0.12 2.11,0.05 3.16,-0.06 1.28,-0.16 2.54,-0.41 3.8,-0.7 1.45,-0.35 2.87,-0.84 4.25,-1.4 0.52,-0.21 1.03,-0.44 1.53,-0.7 0.11,-0.06 0.45,-0.26 0.34,-0.19 -0.81,0.45 -1.06,0.62 -0.58,0.3 0.22,-0.16 0.12,-0.08 0.3,-0.24 l 1.19,-0.48 c -0.19,0.17 -0.09,0.09 -0.31,0.26 -1.06,0.71 -2.19,1.3 -3.38,1.77 -1.39,0.55 -2.81,1.03 -4.27,1.39 -1.26,0.3 -2.53,0.53 -3.81,0.69 -0.23,0.02 -0.45,0.05 -0.67,0.08 -0.85,0.07 -1.71,0.06 -2.56,-0.01 -0.13,-0.02 -0.26,-0.03 -0.39,-0.05 -0.54,-0.1 -1.04,-0.34 -1.52,-0.6 -0.11,-0.07 -0.21,-0.13 -0.31,-0.2 -0.52,-0.37 -0.93,-0.88 -1.34,-1.37 -0.08,-0.1 -0.16,-0.19 -0.23,-0.29 -0.22,-0.31 -0.37,-0.65 -0.48,-1 l 1.16,-0.61 z"
       inkscape:connector-curvature="0" />
    <path
       id="path3262"
       style="opacity:0.53684004;fill:#ffffff"
       d="m 522.48,509.2 c 0.26,0.25 0.57,0.46 0.88,0.65 0.38,0.24 0.8,0.37 1.25,0.44 0.63,0.06 1.27,0.11 1.9,0.14 1.13,0.06 2.26,0.06 3.39,0.06 1.45,-0.01 2.9,-0.17 4.34,-0.36 0.89,-0.13 1.76,-0.32 2.61,-0.57 l -1.42,1.1 c -0.85,0.22 -1.71,0.38 -2.57,0.5 -1.45,0.17 -2.9,0.32 -4.35,0.34 -1.15,0.01 -2.3,0.01 -3.45,-0.02 -0.65,-0.04 -1.3,-0.07 -1.94,-0.15 -0.46,-0.09 -0.9,-0.24 -1.3,-0.49 -0.32,-0.21 -0.64,-0.42 -0.93,-0.67 l 1.59,-0.97 z"
       inkscape:connector-curvature="0" />
  </g>
  <g
     id="layer8"
     inkscape:label="feathers2"
     inkscape:groupmode="layer"
     transform="translate(-87.172952,-49.196965)">
    <path
       id="path3225"
       style="fill:#c8c6c6;fill-rule:evenodd;stroke:#000000;stroke-width:1px"
       d="m 574.16,378.44 c -0.98,0.74 -1.94,1.52 -2.91,2.37 -26.26,23.24 -50.53,22.22 -50.53,22.22 0,0 -16.66,6.06 -19.69,6.06 -3.03,0 -11.09,-3.03 -11.09,-3.03 -21.72,8.59 -47,7.07 -47,7.06 l -74.22,19.19 -1.22,1.63 c 0,0 7.16,6.05 19.66,7.12 0,0 2.83,11.44 30.68,14.66 0,0 19.31,12.14 78.6,15 0,0 8.41,3.18 14.12,13.69 l 0.56,-0.57 c 0,0 5.07,-5.83 11.13,11.6 6.06,17.42 7.06,-15.13 7.06,-15.13 0,0 0.73,-2.3 2.25,-2.37 0.32,-0.02 0.65,0.1 1.03,0.31 l -4.37,-7.19 c 6.07,-6.07 5.34,-11.78 5.34,-11.78 33.93,-10 68.24,-41.06 68.6,-45.34 0.35,-4.29 4.28,-7.16 4.28,-7.16 0,0 8.28,-4.9 21.53,-14.69 -2.61,-0.93 -7.13,-0.5 -14.41,2.19 -32.85,12.14 -8.56,-5 -8.56,-5 -30.36,13.01 -31.16,-5.66 -30.84,-10.84 z"
       inkscape:connector-curvature="0" />
    <path
       id="path3404"
       style="fill:#424242;fill-rule:evenodd;stroke:#000000;stroke-width:1px"
       d="m 365.66,252.81 -33.32,21.25 -37.18,35.1 c 0,0 -11.95,14.06 -15.16,21.56 0,0 -16.42,23.56 -18.56,27.84 l -11.1,7.5 c 0,0 -37.48,7.88 -52.84,23.6 0,0 -59.3,20.34 -77.16,41.06 0,0 -3.92,3.58 3.22,8.94 0,0 -14.68,8.33 -1.31,14.43 L 268,420 400,294 365.66,252.81 Z"
       inkscape:connector-curvature="0" />
  </g>
  <g
     id="layer7"
     inkscape:label="feathers"
     inkscape:groupmode="layer"
     transform="translate(-87.172952,-49.196965)">
    <path
       id="path3215"
       style="fill:#9f9f9f;fill-rule:evenodd;stroke:#000000;stroke-width:1px"
       d="m 651.03,50 c -14.47,-0.03 -27.54,1.772 -33.19,6.438 -8.21,6.785 -17.11,-0.724 -45.68,48.562 0,0 -17.16,48.92 -25.38,54.28 -0.68,0.45 -1.53,0.96 -2.47,1.5 1.3,6.97 7.68,17.29 27.13,31.38 41.43,30 76.42,29.99 44.28,103.56 -32.14,73.57 -41.44,81.44 -41.44,81.44 0,0 -4.28,27.12 30.72,12.12 0,0 -24.29,17.14 8.56,5 7.31,-2.7 11.83,-3.13 14.44,-2.19 10.36,-7.65 23.78,-18.34 38.78,-32.09 34.29,-31.43 39.3,-56.08 51.44,-93.94 12.14,-37.85 8.94,-76.4 8.94,-76.4 0,0 0.35,-3.58 -5,-18.22 -5.36,-14.65 -31.44,-35.72 -31.44,-35.72 0,0 6.44,-9.28 36.44,5.72 0,0 2.47,-6.79 -1.82,-15 0,0 -16.78,-16.1 -20,-16.1 0,0 -3.21,-7.84 -6.78,-7.84 0,0 12.52,-15.004 1.1,-25.719 0,0 -7.53,-23.576 -28.6,-25.719 C 664.48,50.393 657.61,50.014 651.03,50 Z"
       inkscape:connector-curvature="0" />
    <path
       id="path3690"
       style="fill:url(#linearGradient3698);fill-rule:evenodd"
       d="m 652.41,132.74 c 0,0 -25.92,27.8 -14.24,47.73 11.68,19.93 35.32,35.14 40.45,59.79 5.13,24.65 46.72,8.39 46.72,8.39 0,0 10.54,-87.06 -23.07,-96.5 -33.62,-9.44 -12.25,-1.05 -49.86,-19.41 z"
       inkscape:connector-curvature="0" />
    <path
       id="path3704"
       style="fill:url(#linearGradient3712);fill-rule:evenodd"
       d="m 640.87,132.11 -28.6,15.73 72.36,114.22 40.28,9.22 -57.56,-132.64 -26.48,-6.53 z"
       inkscape:connector-curvature="0" />
  </g>
  <g
     id="layer9"
     inkscape:label="feathers3"
     inkscape:groupmode="layer"
     transform="translate(-87.172952,-49.196965)">
    <path
       id="path3335"
       style="fill:#828282;fill-rule:evenodd;stroke:#000000;stroke-width:1px"
       d="m 267,428.5 -137.84,30.12 c 1.92,1.08 6.3,1.9 16.18,1.04 l -48.559,33.18 4.659,2.16 c -18.343,17.28 -18.658,15.03 3.56,15 l 22.16,-2.5 24.28,-11.78 6.06,-0.72 39.28,-26.06 c 0,0 4.64,-5.72 3.56,1.78 l 48.94,-20 c 0,0 9.43,-0.67 22.03,-1.75 L 267,428.5 Z"
       inkscape:connector-curvature="0" />
    <path
       id="path3314"
       sodipodi:nodetypes="cccccccccccccccccsc"
       style="fill:#828282;fill-rule:evenodd;stroke:#000000;stroke-width:1px"
       d="m 314.66,404.56 c -44.56,-0.02 -138.41,8.32 -139.16,7.94 0,0 -34.46,10.36 -58.47,33.62 -1.34,3.25 0.17,7.07 10.81,9.94 0,0 -1.81,3.49 8.1,3.91 0.03,-0.02 0.31,-0.22 0.31,-0.22 0,0 81.71,-5.54 112.63,-8.87 l 0.4,-0.16 c 0,0 2.66,-0.2 3.41,-0.25 2.13,-0.26 4,-0.5 5.31,-0.72 l 0.97,0.22 c 19.24,-1.51 64.14,-5.33 76.75,-9.25 l 31.78,-6.78 1.22,-1.63 74.22,-19.19 c 0,0 0.27,0.03 0.34,0.04 L 443.5,413 c 0,0 -111.5,5 -106,-5 1.38,-2.5 -7.99,-3.43 -22.84,-3.44 z"
       inkscape:connector-curvature="0" />
    <path
       id="path3304"
       style="fill:#828282;fill-rule:evenodd;stroke:#000000;stroke-width:1px"
       d="m 160.11,431.3 c 0,0 -7.58,-22.22 79.3,-50 l 1.51,0.51 c 0,0 126.27,13.13 118.19,23.23 -8.08,10.1 52.02,9.09 52.02,9.09 l -32.83,7.07 c 0,0 -61.11,9.09 -69.19,11.62 -8.08,2.53 -65.66,2.53 -73.74,2.53 -8.09,0 -38.9,5.05 -58.59,6.56 -19.7,1.52 -16.67,-10.61 -16.67,-10.61 z"
       inkscape:connector-curvature="0" />
    <path
       id="path3296"
       style="fill:#828282;fill-rule:evenodd;stroke:#000000;stroke-width:1px"
       d="m 277.79,361.6 c 0,0 -71.72,24.25 -86.37,55.06 -14.64,30.81 77.79,6.06 77.79,6.06 l 8.58,-61.12 z"
       inkscape:connector-curvature="0" />
    <path
       id="path3283"
       style="fill:#828282;stroke:#000000"
       d="m 303.15,347.23 c -4.65,1.21 -6.22,6.5 -10.72,8.1 -11.98,3.35 -22.5,9.88 -33.48,15.31 -9.96,5.11 -19.94,12.11 -23.4,22.87 -2.78,8.38 -4.19,17.23 -4.36,26 0.24,5.38 4.15,11.87 10.7,11.03 6.66,0.38 13.38,-0.27 19.5,-2.95 16.77,-4.65 33.93,-7.99 51.32,-9.62 13.34,-1.32 26.65,-2.88 39.82,-5.36 9.02,-1.67 18.19,-2.84 27.05,-5.16 4.08,-0.97 9.78,-5.97 2.39,-7.45 -8.56,-4.06 -17.02,-8.44 -24.12,-14.62 -10.07,-6.94 -18.79,-15.58 -29.72,-21.38 -7.78,-5.79 -16.24,-10.7 -23.85,-16.7 -0.44,0.4 -0.7,-0.35 -1.13,-0.07 z m 80.11,57.88 c -0.11,0.27 -1.58,0.62 0,0 z"
       inkscape:connector-curvature="0" />
    <path
       id="path3425"
       style="fill:#828282;fill-rule:evenodd;stroke:#000000;stroke-width:1px"
       d="m 267,428.5 -137.84,30.12 c 1.92,1.08 6.3,1.9 16.18,1.04 l -48.559,33.18 4.659,2.16 c -18.343,17.28 -18.658,15.03 3.56,15 l 22.16,-2.5 24.28,-11.78 6.06,-0.72 39.28,-26.06 c 0,0 4.64,-5.72 3.56,1.78 l 48.94,-20 c 0,0 9.43,-0.67 22.03,-1.75 L 267,428.5 Z"
       inkscape:connector-curvature="0" />
    <path
       id="path3427"
       sodipodi:nodetypes="cccccccccccccccccsc"
       style="fill:#828282;fill-rule:evenodd;stroke:#000000;stroke-width:1px"
       d="m 314.66,404.56 c -44.56,-0.02 -138.41,8.32 -139.16,7.94 0,0 -34.46,10.36 -58.47,33.62 -1.34,3.25 0.17,7.07 10.81,9.94 0,0 -1.81,3.49 8.1,3.91 0.03,-0.02 0.31,-0.22 0.31,-0.22 0,0 81.71,-5.54 112.63,-8.87 l 0.4,-0.16 c 0,0 2.66,-0.2 3.41,-0.25 2.13,-0.26 4,-0.5 5.31,-0.72 l 0.97,0.22 c 19.24,-1.51 64.14,-5.33 76.75,-9.25 l 31.78,-6.78 1.22,-1.63 74.22,-19.19 c 0,0 0.27,0.03 0.34,0.04 L 443.5,413 c 0,0 -111.5,5 -106,-5 1.38,-2.5 -7.99,-3.43 -22.84,-3.44 z"
       inkscape:connector-curvature="0" />
    <path
       id="path3429"
       style="fill:#828282;fill-rule:evenodd;stroke:#000000;stroke-width:1px"
       d="m 160.11,431.3 c 0,0 -7.58,-22.22 79.3,-50 l 1.51,0.51 c 0,0 126.27,13.13 118.19,23.23 -8.08,10.1 52.02,9.09 52.02,9.09 l -32.83,7.07 c 0,0 -61.11,9.09 -69.19,11.62 -8.08,2.53 -65.66,2.53 -73.74,2.53 -8.09,0 -38.9,5.05 -58.59,6.56 -19.7,1.52 -16.67,-10.61 -16.67,-10.61 z"
       inkscape:connector-curvature="0" />
    <path
       id="path3431"
       style="fill:#828282;fill-rule:evenodd;stroke:#000000;stroke-width:1px"
       d="m 277.79,361.6 c 0,0 -71.72,24.25 -86.37,55.06 -14.64,30.81 77.79,6.06 77.79,6.06 l 8.58,-61.12 z"
       inkscape:connector-curvature="0" />
    <path
       id="path3433"
       style="fill:#828282;stroke:#000000"
       d="m 303.15,347.23 c -4.65,1.21 -6.22,6.5 -10.72,8.1 -11.98,3.35 -22.5,9.88 -33.48,15.31 -9.96,5.11 -19.94,12.11 -23.4,22.87 -2.78,8.38 -4.19,17.23 -4.36,26 0.24,5.38 4.15,11.87 10.7,11.03 6.66,0.38 13.38,-0.27 19.5,-2.95 16.77,-4.65 33.93,-7.99 51.32,-9.62 13.34,-1.32 26.65,-2.88 39.82,-5.36 9.02,-1.67 18.19,-2.84 27.05,-5.16 4.08,-0.97 9.78,-5.97 2.39,-7.45 -8.56,-4.06 -17.02,-8.44 -24.12,-14.62 -10.07,-6.94 -18.79,-15.58 -29.72,-21.38 -7.78,-5.79 -16.24,-10.7 -23.85,-16.7 -0.44,0.4 -0.7,-0.35 -1.13,-0.07 z m 80.11,57.88 c -0.11,0.27 -1.58,0.62 0,0 z"
       inkscape:connector-curvature="0" />
    <path
       id="path3435"
       style="fill:#828282;fill-rule:evenodd;stroke:#000000;stroke-width:1px"
       d="m 267,428.5 -137.84,30.12 c 1.92,1.08 6.3,1.9 16.18,1.04 l -48.559,33.18 4.659,2.16 c -18.343,17.28 -18.658,15.03 3.56,15 l 22.16,-2.5 24.28,-11.78 6.06,-0.72 39.28,-26.06 c 0,0 4.64,-5.72 3.56,1.78 l 48.94,-20 c 0,0 9.43,-0.67 22.03,-1.75 L 267,428.5 Z"
       inkscape:connector-curvature="0" />
    <path
       id="path3437"
       sodipodi:nodetypes="cccccccccccccccccsc"
       style="fill:#828282;fill-rule:evenodd;stroke:#000000;stroke-width:1px"
       d="m 314.66,404.56 c -44.56,-0.02 -138.41,8.32 -139.16,7.94 0,0 -34.46,10.36 -58.47,33.62 -1.34,3.25 0.17,7.07 10.81,9.94 0,0 -1.81,3.49 8.1,3.91 0.03,-0.02 0.31,-0.22 0.31,-0.22 0,0 81.71,-5.54 112.63,-8.87 l 0.4,-0.16 c 0,0 2.66,-0.2 3.41,-0.25 2.13,-0.26 4,-0.5 5.31,-0.72 l 0.97,0.22 c 19.24,-1.51 64.14,-5.33 76.75,-9.25 l 31.78,-6.78 1.22,-1.63 74.22,-19.19 c 0,0 0.27,0.03 0.34,0.04 L 443.5,413 c 0,0 -111.5,5 -106,-5 1.38,-2.5 -7.99,-3.43 -22.84,-3.44 z"
       inkscape:connector-curvature="0" />
    <path
       id="path3439"
       style="fill:#828282;fill-rule:evenodd;stroke:#000000;stroke-width:1px"
       d="m 160.11,431.3 c 0,0 -7.58,-22.22 79.3,-50 l 1.51,0.51 c 0,0 126.27,13.13 118.19,23.23 -8.08,10.1 52.02,9.09 52.02,9.09 l -32.83,7.07 c 0,0 -61.11,9.09 -69.19,11.62 -8.08,2.53 -65.66,2.53 -73.74,2.53 -8.09,0 -38.9,5.05 -58.59,6.56 -19.7,1.52 -16.67,-10.61 -16.67,-10.61 z"
       inkscape:connector-curvature="0" />
    <path
       id="path3441"
       style="fill:#828282;fill-rule:evenodd;stroke:#000000;stroke-width:1px"
       d="m 277.79,361.6 c 0,0 -71.72,24.25 -86.37,55.06 -14.64,30.81 77.79,6.06 77.79,6.06 l 8.58,-61.12 z"
       inkscape:connector-curvature="0" />
    <path
       id="path3443"
       style="fill:#828282;stroke:#000000"
       d="m 303.15,347.23 c -4.65,1.21 -6.22,6.5 -10.72,8.1 -11.98,3.35 -22.5,9.88 -33.48,15.31 -9.96,5.11 -19.94,12.11 -23.4,22.87 -2.78,8.38 -4.19,17.23 -4.36,26 0.24,5.38 4.15,11.87 10.7,11.03 6.66,0.38 13.38,-0.27 19.5,-2.95 16.77,-4.65 33.93,-7.99 51.32,-9.62 13.34,-1.32 26.65,-2.88 39.82,-5.36 9.02,-1.67 18.19,-2.84 27.05,-5.16 4.08,-0.97 9.78,-5.97 2.39,-7.45 -8.56,-4.06 -17.02,-8.44 -24.12,-14.62 -10.07,-6.94 -18.79,-15.58 -29.72,-21.38 -7.78,-5.79 -16.24,-10.7 -23.85,-16.7 -0.44,0.4 -0.7,-0.35 -1.13,-0.07 z m 80.11,57.88 c -0.11,0.27 -1.58,0.62 0,0 z"
       inkscape:connector-curvature="0" />
    <path
       id="path3445"
       style="fill:#828282;fill-rule:evenodd;stroke:#000000;stroke-width:1px"
       d="m 267,428.5 -137.84,30.12 c 1.92,1.08 6.3,1.9 16.18,1.04 l -48.559,33.18 4.659,2.16 c -18.343,17.28 -18.658,15.03 3.56,15 l 22.16,-2.5 24.28,-11.78 6.06,-0.72 39.28,-26.06 c 0,0 4.64,-5.72 3.56,1.78 l 48.94,-20 c 0,0 9.43,-0.67 22.03,-1.75 L 267,428.5 Z"
       inkscape:connector-curvature="0" />
    <path
       id="path3447"
       sodipodi:nodetypes="cccccccccccccccccsc"
       style="fill:#828282;fill-rule:evenodd;stroke:#000000;stroke-width:1px"
       d="m 314.66,404.56 c -44.56,-0.02 -138.41,8.32 -139.16,7.94 0,0 -34.46,10.36 -58.47,33.62 -1.34,3.25 0.17,7.07 10.81,9.94 0,0 -1.81,3.49 8.1,3.91 0.03,-0.02 0.31,-0.22 0.31,-0.22 0,0 81.71,-5.54 112.63,-8.87 l 0.4,-0.16 c 0,0 2.66,-0.2 3.41,-0.25 2.13,-0.26 4,-0.5 5.31,-0.72 l 0.97,0.22 c 19.24,-1.51 64.14,-5.33 76.75,-9.25 l 31.78,-6.78 1.22,-1.63 74.22,-19.19 c 0,0 0.27,0.03 0.34,0.04 L 443.5,413 c 0,0 -111.5,5 -106,-5 1.38,-2.5 -7.99,-3.43 -22.84,-3.44 z"
       inkscape:connector-curvature="0" />
    <path
       id="path3449"
       style="fill:#828282;fill-rule:evenodd;stroke:#000000;stroke-width:1px"
       d="m 160.11,431.3 c 0,0 -7.58,-22.22 79.3,-50 l 1.51,0.51 c 0,0 126.27,13.13 118.19,23.23 -8.08,10.1 52.02,9.09 52.02,9.09 l -32.83,7.07 c 0,0 -61.11,9.09 -69.19,11.62 -8.08,2.53 -65.66,2.53 -73.74,2.53 -8.09,0 -38.9,5.05 -58.59,6.56 -19.7,1.52 -16.67,-10.61 -16.67,-10.61 z"
       inkscape:connector-curvature="0" />
    <path
       id="path3451"
       style="fill:#828282;fill-rule:evenodd;stroke:#000000;stroke-width:1px"
       d="m 277.79,361.6 c 0,0 -71.72,24.25 -86.37,55.06 -14.64,30.81 77.79,6.06 77.79,6.06 l 8.58,-61.12 z"
       inkscape:connector-curvature="0" />
    <path
       id="path3453"
       style="fill:#828282;stroke:#000000"
       d="m 303.15,347.23 c -4.65,1.21 -6.22,6.5 -10.72,8.1 -11.98,3.35 -22.5,9.88 -33.48,15.31 -9.96,5.11 -19.94,12.11 -23.4,22.87 -2.78,8.38 -4.19,17.23 -4.36,26 0.24,5.38 4.15,11.87 10.7,11.03 6.66,0.38 13.38,-0.27 19.5,-2.95 16.77,-4.65 33.93,-7.99 51.32,-9.62 13.34,-1.32 26.65,-2.88 39.82,-5.36 9.02,-1.67 18.19,-2.84 27.05,-5.16 4.08,-0.97 9.78,-5.97 2.39,-7.45 -8.56,-4.06 -17.02,-8.44 -24.12,-14.62 -10.07,-6.94 -18.79,-15.58 -29.72,-21.38 -7.78,-5.79 -16.24,-10.7 -23.85,-16.7 -0.44,0.4 -0.7,-0.35 -1.13,-0.07 z m 80.11,57.88 c -0.11,0.27 -1.58,0.62 0,0 z"
       inkscape:connector-curvature="0" />
  </g>
  <g
     id="layer12"
     inkscape:label="feathers4"
     inkscape:groupmode="layer"
     transform="translate(-87.172952,-49.196965)">
    <path
       id="path3393"
       sodipodi:nodetypes="ccccccscccccc"
       style="fill:#5b5b5b;fill-rule:evenodd;stroke:#000000;stroke-width:1px"
       d="m 391.19,232.06 c -3.78,3.09 -15.63,12.84 -18.35,16.16 l -23.96,15.28 c -32.37,30.9 -71.16,74.03 -54.88,90 0,0 12,17 34.5,12.5 0,0 4,12 24.5,19 0,0 -0.5,26.5 26,28 26.5,1.5 33,4 64,0.5 l 70.5,-14.5 54.23,-15.59 5.78,-4.83 13.87,-21.99 -196.19,-124.53 z"
       inkscape:connector-curvature="0" />
    <path
       id="path3420"
       style="fill:#5b5b5b;fill-rule:evenodd;stroke:#000000;stroke-width:1px"
       d="m 391.19,232.06 c -3.78,3.09 -15.63,12.84 -18.35,16.16 l -23.96,15.28 c -1.93,0.81 -3.48,2.08 -4.76,3.5 0,0 -0.06,0.09 -0.09,0.12 -0.01,0.02 -0.02,0.03 -0.03,0.04 -0.04,0.04 -0.03,0.04 -0.09,0.12 -0.98,1.22 -4.58,6.19 0.34,7.72 0,0 -10.5,9.88 1.63,13.88 l 24.65,38.87 0.31,6.84 c 3.82,5.41 7.99,10.49 12.41,15.44 l 99.06,55.38 31.19,-6.41 54.22,-15.59 5.78,-4.85 13.88,-21.97 -196.19,-124.53 z"
       inkscape:connector-curvature="0" />
    <path
       id="path3361"
       style="fill:#c8c6c6;fill-rule:evenodd;stroke:#000000;stroke-width:1px"
       d="m 346.99,285.5 c 0,0 -10.97,14.16 5.98,20.73 0,0 -4.49,14.66 7.98,23.25 0,0 4.48,25.78 11.96,29.32 7.47,3.54 5.98,-7.07 5.98,-7.07 0,0 3.49,13.64 4.98,12.13 0,0 -0.5,13.14 8.48,13.14 0,0 1.49,14.66 22.92,18.2 0.5,-1.52 3,14.16 23.43,14.16 -1.54,1.82 2.1,3.77 5.98,5.24 6.22,0.16 26.66,0.07 44.8,-7.2 0,0 8.04,3.06 11.06,3.06 3.02,0 19.62,-6.13 19.62,-6.13 0,0 23.07,0.96 48.54,-20.88 -1.54,-2.09 -3.47,-3.66 -5.89,-4.43 -14.45,-4.55 -24.42,9.61 -24.42,9.61 -8.48,-8.09 -22.93,1.52 -22.93,1.52 -11.96,-10.62 -21.43,3.53 -21.43,3.53 -3.99,-8.59 -17.95,-2.52 -17.95,-2.52 0.5,-11.12 -16.94,-8.09 -16.94,-8.09 -2.5,-13.15 -13.46,-4.05 -13.46,-4.05 -1.5,-9.6 -10.97,-7.07 -10.97,-7.07 -2.49,-20.22 -27.41,-13.15 -27.41,-13.15 -1,-17.19 -13.96,-12.64 -13.96,-12.64 0,-21.73 -17.94,-14.66 -17.94,-14.66 8.47,-13.65 -19.44,-32.35 -19.44,-32.35 0,-8.59 -8.97,-13.65 -8.97,-13.65 z"
       inkscape:connector-curvature="0" />
    <path
       id="path3376"
       style="fill:#c8c6c6;fill-rule:evenodd;stroke:#000000;stroke-width:1px"
       d="m 553.12,150.56 c -0.52,0.97 -1.02,1.87 -1.53,2.72 0.51,-0.84 1.01,-1.75 1.53,-2.72 z m -8.81,10.22 C 534,166.71 510,177.5 510,177.5 l -40.72,15.34 -40,17.16 -13.22,6.78 -23.22,13.94 c 0,0 -16.78,13.57 -20,17.5 l -21.62,13.81 c 5.58,0.11 14.44,-1.82 28.5,-7.81 0,0 -5.67,10.6 12.72,3.53 0,0 4.95,49.52 38.18,65.78 0.01,0 2.14,18.39 23.35,19.09 0,0 8.47,19.09 31.09,24.04 0,0 8.49,10.59 22.63,4.93 0,0 9.21,10.63 18.4,2.85 0,0 17.68,22.61 41.72,-10.63 0,0 5.56,1.76 17.97,-4.87 6.45,-11.92 16.05,-31.42 29.94,-63.22 32.14,-73.57 -2.85,-73.56 -44.28,-103.56 -19.45,-14.09 -25.83,-24.41 -27.13,-31.38 z"
       inkscape:connector-curvature="0" />
  </g>
  <g
     id="layer3"
     inkscape:label="eye"
     inkscape:groupmode="layer"
     transform="translate(-87.172952,-49.196965)">
    <path
       id="path3156"
       sodipodi:nodetypes="ccccccsc"
       style="fill:#555555;fill-rule:evenodd"
       d="m 655.36,99.153 c -1.31,-13.629 -14.17,-9.727 -14.17,-9.727 0,0 3.53,-6.559 15.56,3.04 0,0 3.88,10.324 -5.85,12.594 -5.09,0.56 -7.78,0.57 -11.5,-3.23 -6.38,-6.814 -0.52,-5.375 -0.52,-5.375 0,0 3.63,7.395 10.02,5.975 6.39,-1.42 2.98,0.41 6.46,-3.277 z"
       inkscape:connector-curvature="0" />
    <ellipse
       id="path3154"
       style="fill:url(#radialGradient3176)"
       transform="matrix(1.0506,0.38829,-0.36983,1.1031,2.8702,-260.13)"
       cx="646.49762"
       cy="95.302536"
       rx="8.3337584"
       ry="5.9346466" />
    <ellipse
       id="path3166"
       style="fill:#000000"
       transform="matrix(1.2649,0,0,1.1606,-171.74,-14.887)"
       cx="647.85712"
       cy="96.517853"
       rx="2.6785715"
       ry="2.7678571" />
    <ellipse
       id="path3168"
       style="fill:#ffffff"
       transform="matrix(1.1499,0,0,1.1243,-97.141,-11.688)"
       cx="648.64423"
       cy="90.25177"
       rx="1.1364216"
       ry="1.2626907" />
  </g>
  <g
     id="layer4"
     inkscape:label="beak"
     inkscape:groupmode="layer"
     transform="translate(-87.172952,-49.196965)">
    <path
       id="path3189"
       sodipodi:nodetypes="ccsccc"
       style="fill:url(#linearGradient3203);fill-rule:evenodd;stroke:#000000;stroke-width:1px"
       d="m 689.77,135.51 c 0,0 9.58,-9.24 36.9,5.29 0,0 5.35,-9.83 -7.9,-20.05 -2.91,-2.24 -7.73,-7.22 -12.69,-9.4 l -3.52,-0.9 c -25.51,-0.5 -12.79,25.06 -12.79,25.06 z"
       inkscape:connector-curvature="0" />
    <path
       id="path3187"
       sodipodi:nodetypes="cscsc"
       style="fill:#cecece;fill-rule:evenodd;stroke:#000000;stroke-width:1px"
       d="m 685.14,111.09 c 0,0 7.57,-9.6 12.88,-8.34 5.3,1.27 7.19,8.34 7.19,8.34 0,0 -4.92,5.8 -10.98,5.05 -6.06,-0.76 -8.84,-4.04 -9.09,-5.05 z"
       inkscape:connector-curvature="0" />
  </g>
  <g
     id="layer5"
     inkscape:label="BlackOutline"
     inkscape:groupmode="layer"
     transform="translate(-87.172952,-49.196965)">
    <path
       id="path2418"
       sodipodi:nodetypes="cccsccccccccccccccccccccccccccccccscssccccccscsscsccccccccccscscccsccc"
       style="fill:none;stroke:#000000;stroke-width:1.60000002"
       d="M 505.36,518.93 C 505,510.36 510,510.36 510,510.36 l 12.5,1.43 c 0,0 -6.07,-16.43 -11.79,-27.15 -5.71,-10.71 -14.28,-13.93 -14.28,-13.93 -59.29,-2.85 -78.57,-15 -78.57,-15 C 390,452.5 387.14,441.07 387.14,441.07 374.64,440 367.5,433.93 367.5,433.93 l -31.79,6.78 c -16.07,5 -86.42,10 -86.42,10 l -48.93,20 c 1.07,-7.5 -3.57,-1.78 -3.57,-1.78 L 157.5,495 151.43,495.71 127.14,507.5 105,510 c -22.218,0.03 -21.912,2.28 -3.57,-15 l -4.644,-2.14 48.574,-33.22 c -20.36,1.79 -17.5,-3.57 -17.5,-3.57 -22.5,-6.07 -4.29,-16.43 -4.29,-16.43 -7.14,-5.35 -3.21,-8.93 -3.21,-8.93 17.85,-20.71 77.14,-41.07 77.14,-41.07 15.36,-15.71 52.86,-23.57 52.86,-23.57 l 11.07,-7.5 c 2.14,-4.28 18.57,-27.86 18.57,-27.86 3.21,-7.5 15.14,-21.57 15.14,-21.57 l 37.22,-35.07 40.5,-25.86 c 3.21,-3.92 20,-17.5 20,-17.5 l 23.21,-13.92 13.22,-6.79 40,-17.14 L 510,177.5 c 0,0 28.57,-12.86 36.79,-18.21 8.21,-5.36 25.35,-54.29 25.35,-54.29 28.57,-49.286 37.5,-41.786 45.72,-48.571 8.21,-6.786 32.14,-7.5 53.21,-5.358 21.07,2.143 28.57,25.715 28.57,25.715 11.43,10.714 -1.07,25.714 -1.07,25.714 3.57,0 6.79,7.86 6.79,7.86 3.21,0 20,16.07 20,16.07 4.28,8.21 1.78,15 1.78,15 -30,-15 -36.43,-5.72 -36.43,-5.72 0,0 26.08,21.08 31.43,35.72 5.36,14.64 5,18.21 5,18.21 0,0 3.22,38.57 -8.93,76.43 -12.14,37.86 -17.14,62.5 -51.42,93.93 -34.29,31.43 -60.36,46.79 -60.36,46.79 0,0 -3.93,2.85 -4.29,7.14 -0.35,4.28 -34.64,35.36 -68.57,45.36 0,0 0.72,5.71 -5.36,11.78 l 28.58,46.79 42.85,-3.22 c 0,0 31.79,1.79 15,4.29 L 635,518.57 c 0,0 9.64,3.93 9.64,10.36 l -11.43,0 -3.21,1.43 -59.29,2.85 c 0,0 1.08,1.43 0,2.15 -1.07,0.71 -29.28,-0.72 -29.28,-0.72 0,0 -2.86,-2.14 -2.14,-2.85 0.71,-0.72 -9.65,0.35 -9.65,0.35 0,0 2.86,3.22 -13.93,3.22 l -1.78,-8.22 c 0,0 -1.79,0 -5,-1.07 -3.22,-1.07 2.5,-6.07 2.5,-6.07 l -1.79,-1.79 -4.28,0.72 z"
       inkscape:connector-curvature="0" />
  </g>
  <metadata
     id="metadata91">
    <rdf:RDF>
      <cc:Work>
        <dc:format>image/svg+xml</dc:format>
        <dc:type
           rdf:resource="http://purl.org/dc/dcmitype/StillImage" />
        <cc:license
           rdf:resource="http://creativecommons.org/publicdomain/zero/1.0/" />
        <dc:publisher>
          <cc:Agent
             rdf:about="http://openclipart.org/">
            <dc:title>Openclipart</dc:title>
          </cc:Agent>
        </dc:publisher>
        <dc:title></dc:title>
        <dc:date>2008-06-14T19:39:46</dc:date>
        <dc:description>A pigeon</dc:description>
        <dc:source>https://openclipart.org/detail/17378/pigeon-by-jondkoon</dc:source>
        <dc:creator>
          <cc:Agent>
            <dc:title>jondkoon</dc:title>
          </cc:Agent>
        </dc:creator>
        <dc:subject>
          <rdf:Bag>
            <rdf:li>animal</rdf:li>
            <rdf:li>bird</rdf:li>
            <rdf:li>city</rdf:li>
            <rdf:li>colour</rdf:li>
            <rdf:li>nature</rdf:li>
            <rdf:li>pigeon</rdf:li>
          </rdf:Bag>
        </dc:subject>
      </cc:Work>
      <cc:License
         rdf:about="http://creativecommons.org/publicdomain/zero/1.0/">
        <cc:permits
           rdf:resource="http://creativecommons.org/ns#Reproduction" />
        <cc:permits
           rdf:resource="http://creativecommons.org/ns#Distribution" />
        <cc:permits
           rdf:resource="http://creativecommons.org/ns#DerivativeWorks" />
      </cc:License>
    </rdf:RDF>
  </metadata>
</svg>
