<?xml version="1.0" encoding="UTF-8"?>
<svg xmlns="http://www.w3.org/2000/svg" xmlns:xlink="http://www.w3.org/1999/xlink" width="1024pt" height="778pt" viewBox="0 0 1024 778" version="1.1">
<defs>
<linearGradient id="linear0" gradientUnits="userSpaceOnUse" x1="653.59003" y1="139.33" x2="658.04999" y2="258.26999" gradientTransform="matrix(0.910146,0,0,1.675815,360.072646,-81.869006)">
<stop offset="0" style="stop-color:rgb(46.666667%,78.039216%,66.666667%);stop-opacity:0;"/>
<stop offset="0.40968" style="stop-color:rgb(46.666667%,78.039216%,66.666667%);stop-opacity:0.74902;"/>
<stop offset="0.60911" style="stop-color:rgb(46.666667%,78.039216%,66.666667%);stop-opacity:0.498039;"/>
<stop offset="1" style="stop-color:rgb(96.078431%,43.137255%,87.45098%);stop-opacity:0.160784;"/>
</linearGradient>
<linearGradient id="linear1" gradientUnits="userSpaceOnUse" x1="621.42999" y1="199.07001" x2="634.63" y2="191.64999" gradientTransform="matrix(1.591881,0.48129,-0.462318,1.529177,24.676718,-367.699962)">
<stop offset="0" style="stop-color:rgb(62.352941%,62.352941%,62.352941%);stop-opacity:1;"/>
<stop offset="1" style="stop-color:rgb(62.352941%,62.352941%,62.352941%);stop-opacity:0;"/>
</linearGradient>
<radialGradient id="radial0" gradientUnits="userSpaceOnUse" cx="646.5" cy="95.303001" fx="646.5" fy="95.303001" r="8.3338" gradientTransform="matrix(1.870523,0.677782,-0.438134,1.382084,-273.510276,-495.103629)">
<stop offset="0" style="stop-color:rgb(100%,84.313725%,0%);stop-opacity:1;"/>
<stop offset="0.76389" style="stop-color:rgb(100%,17.254902%,0%);stop-opacity:1;"/>
<stop offset="0.76389" style="stop-color:rgb(100%,21.568627%,0%);stop-opacity:1;"/>
<stop offset="1" style="stop-color:rgb(0%,0%,0%);stop-opacity:1;"/>
</radialGradient>
<linearGradient id="linear2" gradientUnits="userSpaceOnUse" x1="706.04999" y1="125.62" x2="727.73999" y2="140.8" gradientTransform="matrix(1,0,0,1,0.000000000000014211,0)">
<stop offset="0" style="stop-color:rgb(30.980392%,30.980392%,30.980392%);stop-opacity:1;"/>
<stop offset="1" style="stop-color:rgb(0%,0%,0%);stop-opacity:1;"/>
</linearGradient>
</defs>
<g id="surface1">
<path style=" stroke:none;fill-rule:evenodd;fill:rgb(0%,0%,0%);fill-opacity:0.262745;" d="M 703.710938 776.007812 L 733.648438 776.007812 L 719.796875 765.273438 L 704.269531 765.558594 L 700.039062 771.757812 Z M 703.710938 776.007812 "/>
<path style=" stroke:none;fill-rule:evenodd;fill:rgb(100%,38.431373%,38.431373%);fill-opacity:1;" d="M 709.910156 684.933594 C 707.480469 685.042969 706.316406 688.71875 706.316406 688.71875 C 706.316406 688.71875 704.71875 740.71875 695.039062 712.890625 C 685.355469 685.042969 677.257812 694.359375 677.257812 694.359375 L 676.363281 695.269531 C 676.441406 695.394531 676.539062 695.523438 676.617188 695.667969 C 685.738281 712.777344 695.4375 738.992188 695.4375 738.992188 L 675.46875 736.691406 C 675.46875 736.691406 667.464844 736.742188 668.023438 750.429688 L 674.925781 749.28125 L 677.769531 752.125 C 677.769531 752.125 668.628906 760.097656 673.773438 761.804688 C 678.902344 763.515625 681.761719 763.5625 681.761719 763.5625 L 684.605469 776.632812 C 711.410156 776.632812 706.875 771.550781 706.875 771.550781 C 706.875 771.550781 723.394531 769.808594 722.242188 770.945312 C 721.109375 772.09375 725.691406 775.542969 725.691406 775.542969 C 725.691406 775.542969 770.757812 777.78125 772.46875 776.632812 C 774.175781 775.496094 772.46875 773.246094 772.46875 773.246094 L 867.167969 768.644531 L 872.3125 766.40625 L 890.585938 766.40625 C 890.585938 756.132812 875.15625 749.824219 875.15625 749.824219 L 842.664062 750.429688 C 869.46875 746.4375 818.699219 743.59375 818.699219 743.59375 L 750.199219 748.675781 L 711.554688 685.425781 C 710.949219 685.09375 710.421875 684.902344 709.910156 684.933594 Z M 709.910156 684.933594 "/>
<path style="fill-rule:evenodd;fill:rgb(8.627451%,8.627451%,8.627451%);fill-opacity:1;stroke-width:1;stroke-linecap:butt;stroke-linejoin:miter;stroke:rgb(0%,0%,0%);stroke-opacity:1;stroke-miterlimit:4;" d="M 510.000578 510.339282 C 510.000578 510.339282 504.99032 510.371069 505.339987 518.938952 L 509.660692 518.220072 L 510.029921 518.589293 C 514.331064 513.78942 511.819822 511.151079 511.000673 510.468876 Z M 510.000578 510.339282 " transform="matrix(1.597504,0,0,1.597536,-139.259124,-78.593898)"/>
<path style="fill-rule:evenodd;fill:rgb(8.627451%,8.627451%,8.627451%);fill-opacity:1;stroke-width:1;stroke-linecap:butt;stroke-linejoin:miter;stroke:rgb(0%,0%,0%);stroke-opacity:1;stroke-miterlimit:4;" d="M 515.001055 522.589594 C 514.538908 522.618936 514.250372 522.750975 514.250372 522.750975 C 514.250372 522.750975 513.030207 526.819742 512.969076 527.030026 C 513.56082 527.110717 513.939829 527.159621 513.939829 527.159621 L 515.71995 535.341166 C 517.451167 535.341166 518.910964 535.309379 520.250945 535.250695 C 520.299849 523.589669 516.619791 522.499123 515.001055 522.589594 Z M 515.001055 522.589594 " transform="matrix(1.597504,0,0,1.597536,-139.259124,-78.593898)"/>
<path style="fill-rule:evenodd;fill:rgb(8.627451%,8.627451%,8.627451%);fill-opacity:1;stroke-width:1;stroke-linecap:butt;stroke-linejoin:miter;stroke:rgb(0%,0%,0%);stroke-opacity:1;stroke-miterlimit:4;" d="M 568.778802 525.751201 C 567.910748 525.800105 567.250539 526.499424 567.250539 526.499424 C 563.580262 525.499349 562.90049 530.069375 563.250157 535.47076 C 567.240758 535.549006 570.380422 535.571012 570.720307 535.341166 C 571.788869 534.629621 570.720307 533.221202 570.720307 533.221202 L 572.409955 533.12095 C 571.63971 526.949336 569.998967 525.680291 568.778802 525.751201 Z M 568.778802 525.751201 " transform="matrix(1.597504,0,0,1.597536,-139.259124,-78.593898)"/>
<path style="fill-rule:evenodd;fill:rgb(8.627451%,8.627451%,8.627451%);fill-opacity:1;stroke-width:1;stroke-linecap:butt;stroke-linejoin:miter;stroke:rgb(0%,0%,0%);stroke-opacity:1;stroke-miterlimit:4;" d="M 635.000279 518.559951 L 628.909233 518.689545 C 627.520347 519.430432 622.600563 522.38909 628.249023 525.000534 C 630.569538 526.069074 632.498817 527.50928 634.029526 528.939706 L 644.658902 528.939706 C 644.658902 522.508903 635.000279 518.559951 635.000279 518.559951 Z M 635.000279 518.559951 " transform="matrix(1.597504,0,0,1.597536,-139.259124,-78.593898)"/>
<path style="fill-rule:evenodd;fill:rgb(8.627451%,8.627451%,8.627451%);fill-opacity:1;stroke-width:1;stroke-linecap:butt;stroke-linejoin:miter;stroke:rgb(0%,0%,0%);stroke-opacity:1;stroke-miterlimit:4;" d="M 601.94089 514.809057 C 601.750163 515.019341 598.34886 519.000082 602.248988 519.000082 C 606.080649 519.000082 616.069377 518.569731 616.969219 518.530608 C 617.318885 518.459698 617.661216 518.379008 617.939971 518.310543 L 619.500022 517.589217 C 620.260486 516.090327 606.410754 515.100032 601.94089 514.809057 Z M 601.94089 514.809057 " transform="matrix(1.597504,0,0,1.597536,-139.259124,-78.593898)"/>
<path style=" stroke:none;fill-rule:nonzero;fill:rgb(100%,100%,100%);fill-opacity:0.537255;" d="M 855.300781 749.21875 C 854.117188 750.191406 853 751.246094 851.894531 752.300781 C 850.792969 753.371094 849.753906 754.519531 848.828125 755.765625 C 848.03125 756.742188 847.582031 757.859375 847.28125 759.074219 C 846.992188 760.765625 846.910156 762.507812 847.039062 764.21875 C 847.167969 765.863281 847.902344 767.332031 848.75 768.707031 C 849.308594 769.601562 850.105469 770.082031 851.113281 770.273438 C 851.753906 770.351562 851.433594 770.320312 852.054688 770.367188 L 847.28125 773.769531 C 846.609375 773.691406 846.945312 773.738281 846.273438 773.613281 C 845.1875 773.277344 844.292969 772.636719 843.699219 771.628906 C 842.855469 770.144531 842.070312 768.609375 841.925781 766.886719 C 841.753906 765.144531 841.816406 763.355469 842.023438 761.613281 C 842.277344 760.335938 842.648438 759.105469 843.476562 758.082031 C 844.386719 756.789062 845.441406 755.625 846.542969 754.488281 L 849.804688 751.421875 Z M 855.300781 749.21875 "/>
<path style=" stroke:none;fill-rule:nonzero;fill:rgb(100%,100%,100%);fill-opacity:0.537255;" d="M 835.441406 752.460938 C 833.621094 753.402344 834.003906 753.210938 839.628906 750.046875 C 839.820312 749.9375 839.261719 750.273438 839.066406 750.398438 C 838.523438 750.765625 838.046875 751.167969 837.566406 751.613281 C 836.785156 752.394531 836.050781 753.226562 835.394531 754.105469 C 834.644531 755.128906 834.066406 756.246094 833.523438 757.378906 C 833.011719 758.46875 832.628906 759.601562 832.421875 760.785156 C 832.261719 761.679688 832.246094 762.589844 832.246094 763.484375 C 832.230469 764.394531 832.214844 765.289062 832.34375 766.183594 C 832.359375 766.328125 832.390625 766.46875 832.40625 766.613281 L 827.199219 769.363281 C 827.183594 769.21875 827.152344 769.074219 827.136719 768.929688 C 826.992188 768.019531 826.976562 767.09375 826.992188 766.167969 C 826.992188 765.222656 827.007812 764.28125 827.152344 763.339844 C 827.359375 762.125 827.679688 760.941406 828.207031 759.808594 C 828.730469 758.644531 829.292969 757.507812 830.011719 756.453125 C 830.617188 755.511719 831.398438 754.679688 832.167969 753.835938 C 834.386719 751.613281 837.277344 750.097656 840.105469 748.785156 Z M 835.441406 752.460938 "/>
<path style=" stroke:none;fill-rule:nonzero;fill:rgb(100%,100%,100%);fill-opacity:0.537255;" d="M 828.523438 750.429688 C 827.679688 751.230469 826.832031 752.011719 826.046875 752.859375 C 825.34375 753.640625 824.851562 754.570312 824.339844 755.480469 C 823.925781 756.277344 823.554688 757.109375 823.300781 757.972656 C 823.109375 758.738281 823.078125 759.519531 823.0625 760.304688 C 823.011719 761.101562 823.09375 761.871094 823.222656 762.652344 C 823.269531 763.050781 823.363281 763.433594 823.476562 763.835938 L 818.285156 766.628906 C 818.1875 766.230469 818.046875 765.832031 818.011719 765.417969 C 817.871094 764.601562 817.742188 763.804688 817.804688 762.972656 C 817.820312 762.15625 817.820312 761.328125 817.996094 760.511719 C 818.203125 759.585938 818.570312 758.722656 818.988281 757.875 C 819.515625 756.949219 819.960938 755.976562 820.648438 755.144531 C 821.382812 754.25 822.230469 753.5 823.0625 752.699219 Z M 828.523438 750.429688 "/>
<path style=" stroke:none;fill-rule:nonzero;fill:rgb(100%,100%,100%);fill-opacity:0.537255;" d="M 819.019531 743.578125 C 818.445312 744.28125 818.046875 745.0625 817.628906 745.863281 C 817.359375 746.40625 817.101562 746.996094 817.292969 747.621094 C 817.359375 747.875 817.484375 748.019531 817.695312 748.164062 L 812.660156 751.292969 C 812.421875 751.054688 812.199219 750.816406 812.101562 750.480469 C 811.832031 749.726562 811.925781 748.992188 812.261719 748.273438 C 812.660156 747.492188 813.027344 746.660156 813.589844 745.972656 Z M 819.019531 743.578125 "/>
<path style=" stroke:none;fill-rule:nonzero;fill:rgb(100%,100%,100%);fill-opacity:0.537255;" d="M 808.636719 744.777344 C 808.042969 745.734375 807.789062 746.820312 807.628906 747.921875 C 807.5 748.851562 807.484375 749.777344 807.484375 750.703125 C 807.5 751.085938 807.550781 751.453125 807.804688 751.742188 L 802.726562 754.777344 C 802.40625 754.34375 802.261719 753.898438 802.230469 753.371094 C 802.246094 752.414062 802.261719 751.453125 802.375 750.511719 C 802.535156 749.359375 802.757812 748.242188 803.203125 747.171875 Z M 808.636719 744.777344 "/>
<path style=" stroke:none;fill-rule:nonzero;fill:rgb(100%,100%,100%);fill-opacity:0.537255;" d="M 793.507812 748.464844 C 791.671875 749.695312 793.683594 748.339844 797.917969 745.972656 C 798.042969 745.894531 797.675781 746.132812 797.566406 746.230469 C 797.246094 746.46875 797.007812 746.691406 796.765625 747.011719 C 796.367188 747.652344 796.335938 748.386719 796.304688 749.121094 C 796.304688 749.617188 796.285156 749.378906 796.335938 749.824219 L 791.09375 752.570312 C 791.015625 752.042969 791.046875 752.316406 791.046875 751.773438 C 791.0625 750.972656 791.078125 750.160156 791.367188 749.394531 C 791.621094 748.882812 791.925781 748.449219 792.4375 748.148438 C 797.644531 745.015625 795.917969 745.796875 798.171875 744.792969 Z M 793.507812 748.464844 "/>
<path style=" stroke:none;fill-rule:nonzero;fill:rgb(100%,100%,100%);fill-opacity:0.537255;" d="M 756.734375 763.308594 C 765.566406 758.003906 761.125 760.703125 759.242188 762.15625 C 758.488281 762.765625 757.769531 763.402344 757.101562 764.089844 C 756.398438 764.824219 755.726562 765.59375 755.136719 766.421875 C 754.625 767.140625 754.464844 767.972656 754.402344 768.820312 C 754.351562 769.714844 754.320312 770.59375 754.449219 771.488281 C 754.527344 772.078125 754.671875 772.589844 755.183594 772.925781 L 750.183594 776.070312 C 749.625 775.578125 749.320312 774.984375 749.257812 774.234375 C 749.097656 773.324219 749.082031 772.398438 749.144531 771.453125 C 749.191406 770.527344 749.273438 769.601562 749.75 768.785156 C 750.292969 767.910156 750.980469 767.125 751.667969 766.359375 C 752.308594 765.625 753.027344 764.96875 753.792969 764.363281 C 755.949219 762.332031 759.035156 761.261719 761.367188 759.601562 Z M 756.734375 763.308594 "/>
<path style=" stroke:none;fill-rule:nonzero;fill:rgb(100%,100%,100%);fill-opacity:0.537255;" d="M 750.679688 760.785156 C 749.847656 761.3125 749.050781 761.886719 748.328125 762.558594 C 747.515625 763.417969 746.699219 764.28125 745.871094 765.144531 C 745.152344 765.894531 744.449219 766.664062 743.792969 767.460938 C 743.296875 768.085938 743.027344 768.769531 742.882812 769.539062 C 742.785156 770.320312 742.785156 771.101562 742.785156 771.886719 L 742.785156 772.285156 L 737.53125 774.953125 L 737.53125 774.554688 C 737.53125 773.753906 737.515625 772.941406 737.59375 772.140625 C 737.691406 771.3125 737.867188 770.496094 738.394531 769.808594 C 738.96875 768.914062 739.785156 768.195312 740.46875 767.382812 C 741.300781 766.535156 742.117188 765.6875 742.914062 764.808594 C 743.585938 764.089844 744.351562 763.5 745.152344 762.925781 Z M 750.679688 760.785156 "/>
<path style=" stroke:none;fill-rule:nonzero;fill:rgb(100%,100%,100%);fill-opacity:0.537255;" d="M 695.390625 755.847656 C 695.820312 757.171875 696.554688 758.371094 697.242188 759.585938 C 697.832031 760.351562 698.183594 761.167969 698.34375 762.109375 C 698.457031 763.082031 698.472656 764.058594 698.472656 765.03125 C 698.472656 765.992188 698.457031 766.964844 698.457031 767.941406 L 698.457031 771.488281 L 693.214844 774.15625 L 693.214844 770.609375 C 693.214844 769.632812 693.230469 768.675781 693.230469 767.699219 C 693.230469 766.757812 693.246094 765.800781 693.152344 764.855469 C 693.007812 763.976562 692.6875 763.226562 692.160156 762.492188 C 691.507812 761.261719 690.820312 760.046875 690.277344 758.753906 Z M 695.390625 755.847656 "/>
<path style=" stroke:none;fill-rule:nonzero;fill:rgb(100%,100%,100%);fill-opacity:0.537255;" d="M 687.6875 738.691406 C 687.671875 739.761719 687.671875 740.8125 687.5625 741.882812 C 687.480469 742.84375 687.335938 743.785156 687 744.679688 C 686.699219 745.414062 686.234375 746.070312 685.753906 746.710938 C 685.324219 747.285156 684.78125 747.761719 684.222656 748.195312 C 683.710938 748.59375 683.230469 749.042969 682.753906 749.457031 C 682.496094 749.726562 682.609375 749.585938 682.402344 749.886719 L 677.015625 752.332031 C 677.160156 751.917969 677.082031 752.109375 677.273438 751.726562 C 677.703125 751.230469 678.230469 750.816406 678.742188 750.414062 C 679.269531 749.9375 679.910156 749.601562 680.324219 749.007812 C 680.867188 748.480469 681.25 747.8125 681.648438 747.15625 C 682.019531 746.292969 682.257812 745.429688 682.304688 744.488281 C 682.449219 743.449219 682.480469 742.410156 682.417969 741.375 Z M 687.6875 738.691406 "/>
<path style=" stroke:none;fill-rule:nonzero;fill:rgb(100%,100%,100%);fill-opacity:0.537255;" d="M 695.277344 740.285156 C 695.246094 741.292969 695.261719 742.316406 695.261719 743.339844 C 695.230469 744.136719 695.070312 744.9375 694.863281 745.703125 C 694.667969 746.5 694.476562 747.285156 694.109375 748.019531 C 693.695312 748.65625 693.089844 749.136719 692.527344 749.648438 C 692.175781 749.984375 692.351562 749.824219 692.019531 750.144531 L 686.554688 752.414062 C 686.875 752.042969 686.699219 752.21875 687.082031 751.902344 C 687.5625 751.359375 688.167969 750.910156 688.710938 750.414062 C 689.175781 749.777344 689.367188 748.992188 689.542969 748.257812 C 689.71875 747.507812 689.910156 746.757812 690.019531 746.007812 C 690.019531 745 690.035156 743.976562 690.003906 742.972656 Z M 695.277344 740.285156 "/>
<path style=" stroke:none;fill-rule:nonzero;fill:rgb(100%,100%,100%);fill-opacity:0.537255;" d="M 685.4375 701.019531 C 687 701.402344 688.519531 701.976562 690.101562 702.378906 C 691.585938 702.839844 693.089844 703.273438 694.621094 703.527344 C 695.773438 703.671875 696.9375 703.671875 698.105469 703.6875 L 701.875 703.6875 C 703.535156 703.703125 705.179688 703.433594 706.792969 703.015625 C 708.214844 702.632812 709.65625 702.296875 710.980469 701.660156 C 715.726562 698.816406 694.015625 711.644531 712.722656 700.683594 C 714.175781 699.820312 709.78125 702.378906 708.296875 703.207031 C 707.976562 703.398438 708.933594 702.808594 709.253906 702.601562 C 710.023438 702.105469 710.726562 701.53125 711.460938 700.972656 C 711.972656 700.605469 712.464844 700.203125 712.960938 699.820312 L 718.425781 697.617188 C 717.945312 698.046875 717.417969 698.398438 716.921875 698.816406 C 716.1875 699.359375 715.484375 699.949219 714.703125 700.460938 C 712.753906 701.914062 709.894531 703.320312 708.183594 704.34375 C 706.730469 705.1875 714 700.972656 712.546875 701.800781 C 706.269531 705.378906 708.953125 704.101562 706.394531 705.300781 C 705.039062 705.828125 703.617188 706.164062 702.210938 706.515625 C 700.546875 706.882812 698.855469 707.152344 697.144531 707.121094 C 695.882812 707.121094 694.621094 707.136719 693.359375 707.121094 C 692.175781 707.121094 690.996094 707.058594 689.828125 706.882812 C 688.3125 706.546875 686.824219 706.082031 685.324219 705.652344 C 683.742188 705.207031 682.175781 704.660156 680.546875 704.359375 Z M 685.4375 701.019531 "/>
<path style=" stroke:none;fill-rule:nonzero;fill:rgb(100%,100%,100%);fill-opacity:0.537255;" d="M 687.160156 714.136719 C 687.511719 714.742188 687.929688 715.300781 688.359375 715.84375 C 689.078125 716.753906 689.957031 717.507812 690.882812 718.175781 C 691.652344 718.753906 692.480469 719.167969 693.40625 719.4375 C 694.207031 719.664062 695.054688 719.726562 695.882812 719.757812 C 697.289062 719.789062 698.695312 719.648438 700.085938 719.472656 C 702.242188 719.183594 704.382812 718.785156 706.523438 718.335938 C 708.679688 717.839844 710.851562 717.3125 712.992188 716.707031 C 714.046875 716.417969 715.085938 716.050781 716.078125 715.605469 C 717.257812 715.078125 718.472656 714.597656 719.65625 714.070312 C 720.359375 713.800781 721.0625 713.511719 721.730469 713.160156 C 721.203125 713.480469 720.660156 713.785156 720.117188 714.101562 C 720.070312 714.121094 720.199219 714.039062 720.230469 714.023438 C 720.867188 713.65625 721.507812 713.289062 722.132812 712.921875 C 722.691406 712.601562 721.011719 713.578125 720.4375 713.894531 C 720.390625 713.925781 720.550781 713.816406 720.613281 713.785156 C 720.820312 713.609375 721.0625 713.464844 721.300781 713.320312 C 721.523438 713.160156 721.761719 713.015625 721.988281 712.839844 L 723.921875 712.074219 C 723.695312 712.234375 723.488281 712.425781 723.234375 712.554688 C 723.027344 712.730469 722.769531 712.824219 722.5625 713 C 722.449219 713.113281 722.515625 713.066406 722.386719 713.128906 C 721.761719 713.496094 721.125 713.863281 720.5 714.230469 C 719.957031 714.566406 721.621094 713.59375 722.179688 713.273438 C 722.226562 713.242188 722.097656 713.320312 722.050781 713.351562 C 721.410156 713.71875 720.773438 714.085938 720.117188 714.453125 C 719.464844 714.773438 718.777344 715.03125 718.105469 715.300781 C 716.890625 715.8125 715.675781 716.308594 714.496094 716.867188 C 713.519531 717.28125 712.496094 717.617188 711.460938 717.890625 C 709.335938 718.449219 707.179688 718.929688 705.039062 719.457031 C 702.882812 719.902344 700.722656 720.300781 698.535156 720.621094 C 697.113281 720.796875 695.691406 720.941406 694.253906 720.941406 C 693.40625 720.894531 692.546875 720.828125 691.730469 720.574219 C 690.820312 720.269531 689.972656 719.824219 689.191406 719.246094 C 688.265625 718.542969 687.402344 717.761719 686.632812 716.882812 C 686.1875 716.324219 685.773438 715.765625 685.339844 715.191406 Z M 687.160156 714.136719 "/>
<path style=" stroke:none;fill-rule:nonzero;fill:rgb(100%,100%,100%);fill-opacity:0.537255;" d="M 691.523438 725.527344 C 691.632812 726.292969 692.082031 726.929688 692.511719 727.554688 C 693.121094 728.335938 693.808594 729.121094 694.621094 729.695312 C 694.78125 729.808594 694.941406 729.902344 695.101562 730 C 695.867188 730.398438 696.667969 730.734375 697.511719 730.894531 C 697.722656 730.925781 697.914062 730.941406 698.105469 730.972656 C 699.78125 731.164062 701.476562 731.054688 703.152344 730.878906 C 705.199219 730.621094 707.210938 730.222656 709.222656 729.757812 C 711.539062 729.199219 713.808594 728.417969 716.011719 727.523438 C 716.84375 727.1875 717.65625 726.820312 718.457031 726.40625 C 718.632812 726.308594 719.175781 725.988281 719 726.101562 C 717.707031 726.820312 717.304688 727.089844 718.074219 726.582031 C 718.425781 726.324219 718.265625 726.453125 718.550781 726.195312 L 720.453125 725.429688 C 720.148438 725.703125 720.308594 725.574219 719.957031 725.84375 C 718.265625 726.980469 716.460938 727.921875 714.558594 728.671875 C 712.339844 729.550781 710.070312 730.320312 707.738281 730.894531 C 705.722656 731.371094 703.695312 731.738281 701.652344 731.996094 C 701.285156 732.027344 700.933594 732.074219 700.582031 732.125 C 699.222656 732.234375 697.847656 732.21875 696.492188 732.109375 C 696.285156 732.074219 696.074219 732.058594 695.867188 732.027344 C 695.003906 731.867188 694.207031 731.484375 693.441406 731.070312 C 693.265625 730.957031 693.105469 730.863281 692.945312 730.75 C 692.113281 730.160156 691.457031 729.34375 690.804688 728.5625 C 690.675781 728.402344 690.546875 728.257812 690.4375 728.097656 C 690.085938 727.601562 689.84375 727.058594 689.667969 726.5 Z M 691.523438 725.527344 "/>
<path style=" stroke:none;fill-rule:nonzero;fill:rgb(100%,100%,100%);fill-opacity:0.537255;" d="M 695.40625 734.871094 C 695.820312 735.269531 696.316406 735.605469 696.808594 735.910156 C 697.417969 736.292969 698.089844 736.5 698.808594 736.613281 C 699.8125 736.707031 700.835938 736.789062 701.84375 736.835938 C 703.648438 736.933594 705.453125 736.933594 707.257812 736.933594 C 709.574219 736.917969 711.890625 736.660156 714.191406 736.355469 C 715.613281 736.148438 717.003906 735.847656 718.359375 735.445312 L 716.09375 737.203125 C 714.734375 737.554688 713.359375 737.8125 711.988281 738.003906 C 709.671875 738.273438 707.355469 738.515625 705.039062 738.546875 C 703.199219 738.5625 701.363281 738.5625 699.527344 738.515625 C 698.488281 738.449219 697.449219 738.402344 696.425781 738.273438 C 695.691406 738.128906 694.988281 737.890625 694.351562 737.492188 C 693.839844 737.15625 693.328125 736.820312 692.863281 736.421875 Z M 695.40625 734.871094 "/>
<path style="fill-rule:evenodd;fill:rgb(78.431373%,77.647059%,77.647059%);fill-opacity:1;stroke-width:1;stroke-linecap:butt;stroke-linejoin:miter;stroke:rgb(0%,0%,0%);stroke-opacity:1;stroke-miterlimit:4;" d="M 574.160733 378.439367 C 573.1802 379.180255 572.219228 379.960264 571.25092 380.811184 C 544.989246 404.050099 520.720427 403.030462 520.720427 403.030462 C 520.720427 403.030462 504.061136 409.089599 501.029062 409.089599 C 497.999433 409.089599 489.939984 406.060031 489.939984 406.060031 C 468.219086 414.64992 442.94039 413.129023 442.94039 413.119242 L 368.720595 432.308952 L 367.50043 433.939882 C 367.50043 433.939882 374.660037 439.989238 387.160008 441.060223 C 387.160008 441.060223 389.989128 452.501183 417.840196 455.719029 C 417.840196 455.719029 437.150107 467.859309 496.439382 470.72016 C 496.439382 470.72016 504.850942 473.898883 510.560534 484.410678 L 511.120489 483.840953 C 511.120489 483.840953 516.189432 478.009218 522.251135 495.440849 C 528.310393 512.860255 529.310489 480.310124 529.310489 480.310124 C 529.310489 480.310124 530.039165 478.009218 531.560092 477.940753 C 531.880416 477.921191 532.210521 478.041005 532.58953 478.248844 L 528.21992 471.060039 C 534.288959 464.991122 533.560283 459.2792 533.560283 459.2792 C 567.49017 449.280891 601.799067 418.219871 602.16096 413.94082 C 602.510626 409.649543 606.440097 406.778911 606.440097 406.778911 C 606.440097 406.778911 614.719615 401.878786 627.970268 392.090763 C 625.361217 391.159152 620.840003 391.589503 613.56058 394.279192 C 580.709035 406.419471 604.999861 389.278815 604.999861 389.278815 C 574.639997 402.289575 573.840409 383.620687 574.160733 378.439367 Z M 574.160733 378.439367 " transform="matrix(1.597504,0,0,1.597536,-139.259124,-78.593898)"/>
<path style="fill-rule:evenodd;fill:rgb(25.882353%,25.882353%,25.882353%);fill-opacity:1;stroke-width:1;stroke-linecap:butt;stroke-linejoin:miter;stroke:rgb(0%,0%,0%);stroke-opacity:1;stroke-miterlimit:4;" d="M 365.659179 252.808874 L 332.340597 274.059864 L 295.16101 309.160308 C 295.16101 309.160308 283.211215 323.220047 280.00064 330.71939 C 280.00064 330.71939 263.58098 354.281068 261.438967 358.560119 L 250.340108 366.059461 C 250.340108 366.059461 212.85976 373.940251 197.498881 389.660262 C 197.498881 389.660262 138.199825 409.999203 120.33993 430.719591 C 120.33993 430.719591 116.420241 434.299322 123.560287 439.659139 C 123.560287 439.659139 108.879179 447.989841 122.249648 454.090545 L 267.999495 419.999956 L 399.999863 294.000242 Z M 365.659179 252.808874 " transform="matrix(1.597504,0,0,1.597536,-139.259124,-78.593898)"/>
<path style="fill-rule:evenodd;fill:rgb(62.352941%,62.352941%,62.352941%);fill-opacity:1;stroke-width:1;stroke-linecap:butt;stroke-linejoin:miter;stroke:rgb(0%,0%,0%);stroke-opacity:1;stroke-miterlimit:4;" d="M 651.031148 49.99897 C 636.56033 49.969628 623.490623 51.77172 617.839717 56.437108 C 609.63111 63.22246 600.730505 55.713337 572.160543 105.00067 C 572.160543 105.00067 554.999981 153.918781 546.779148 159.281044 C 546.099377 159.730955 545.250885 160.239551 544.309475 160.779934 C 545.610332 167.751119 551.989914 178.069745 571.439202 192.158827 C 612.871028 222.161087 647.859696 222.148862 615.719711 295.719198 C 583.579725 369.289534 574.280549 377.160542 574.280549 377.160542 C 574.280549 377.160542 569.998967 404.279945 604.999861 389.278815 C 604.999861 389.278815 580.709035 406.419471 613.56058 394.279192 C 620.869346 391.579722 625.39056 391.149372 627.999611 392.090763 C 638.360012 384.43982 651.779386 373.749527 666.780817 360.000325 C 701.070152 328.570084 706.08041 303.920305 718.220932 266.059261 C 730.35901 228.210443 727.16066 189.659861 727.16066 189.659861 C 727.16066 189.659861 727.510327 186.080129 722.160183 171.440884 C 716.800259 156.789413 690.719531 135.719366 690.719531 135.719366 C 690.719531 135.719366 697.160243 126.439938 727.16066 141.441068 C 727.16066 141.441068 729.630334 134.650826 725.338971 126.439938 C 725.338971 126.439938 708.559864 110.340925 705.339508 110.340925 C 705.339508 110.340925 702.128932 102.499259 698.55891 102.499259 C 698.55891 102.499259 711.080887 87.495683 699.659259 76.780939 C 699.659259 76.780939 692.130424 53.204591 671.059954 51.06262 C 664.479864 50.392643 657.608793 50.013641 651.031148 49.99897 Z M 651.031148 49.99897 " transform="matrix(1.597504,0,0,1.597536,-139.259124,-78.593898)"/>
<path style=" stroke:none;fill-rule:evenodd;fill:url(#linear0);" d="M 902.96875 133.464844 C 902.96875 133.464844 861.5625 177.875 880.21875 209.714844 C 898.878906 241.550781 936.644531 265.851562 944.839844 305.230469 C 953.035156 344.609375 1019.472656 318.632812 1019.472656 318.632812 C 1019.472656 318.632812 1036.3125 179.550781 982.621094 164.472656 C 928.910156 149.390625 963.050781 162.792969 902.96875 133.464844 Z M 902.96875 133.464844 "/>
<path style=" stroke:none;fill-rule:evenodd;fill:url(#linear1);" d="M 884.53125 132.457031 L 838.84375 157.585938 L 954.441406 340.054688 L 1018.789062 354.785156 L 926.835938 142.886719 Z M 884.53125 132.457031 "/>
<path style="fill-rule:evenodd;fill:rgb(50.980392%,50.980392%,50.980392%);fill-opacity:1;stroke-width:1;stroke-linecap:butt;stroke-linejoin:miter;stroke:rgb(0%,0%,0%);stroke-opacity:1;stroke-miterlimit:4;" d="M 266.999399 428.499374 L 129.159843 458.619003 C 131.079341 459.699769 135.461178 460.518902 145.339871 459.660647 L 96.780226 492.839186 L 101.440817 495.000718 C 83.096768 512.280749 82.781335 510.03119 105.001059 509.999403 L 127.159652 507.500437 L 151.440697 495.719599 L 157.499955 495.000718 L 196.779986 468.940075 C 196.779986 468.940075 201.421016 463.220817 200.340228 470.72016 L 249.278882 450.721098 C 249.278882 450.721098 258.7101 450.051121 271.310324 448.970355 Z M 266.999399 428.499374 " transform="matrix(1.597504,0,0,1.597536,-139.259124,-78.593898)"/>
<path style="fill-rule:evenodd;fill:rgb(50.980392%,50.980392%,50.980392%);fill-opacity:1;stroke-width:1;stroke-linecap:butt;stroke-linejoin:miter;stroke:rgb(0%,0%,0%);stroke-opacity:1;stroke-miterlimit:4;" d="M 314.659203 404.56114 C 270.09994 404.539134 176.24991 412.879615 175.499227 412.500614 C 175.499227 412.500614 141.041172 422.860808 117.029101 446.119284 C 115.68912 449.368918 117.200267 453.190721 127.839423 456.058908 C 127.839423 456.058908 126.02996 459.550614 135.940441 459.971184 C 135.969784 459.949177 136.250984 459.751118 136.250984 459.751118 C 136.250984 459.751118 217.960491 454.210358 248.880311 450.880034 L 249.278882 450.721098 C 249.278882 450.721098 251.939283 450.520594 252.689966 450.469245 C 254.819753 450.210057 256.690347 449.97043 258.000986 449.750364 L 258.969293 449.97043 C 278.210738 448.459314 323.109887 444.639955 335.719892 440.720344 L 367.50043 433.939882 L 368.720595 432.308952 L 442.94039 413.119242 C 442.94039 413.119242 443.209365 413.15103 443.280276 413.16081 L 443.500346 412.999429 C 443.500346 412.999429 332.000711 417.999806 337.500013 407.999052 C 338.879118 405.500086 329.509031 404.570921 314.659203 404.56114 Z M 314.659203 404.56114 " transform="matrix(1.597504,0,0,1.597536,-139.259124,-78.593898)"/>
<path style="fill-rule:evenodd;fill:rgb(50.980392%,50.980392%,50.980392%);fill-opacity:1;stroke-width:1;stroke-linecap:butt;stroke-linejoin:miter;stroke:rgb(0%,0%,0%);stroke-opacity:1;stroke-miterlimit:4;" d="M 160.109006 431.299096 C 160.109006 431.299096 152.528821 409.079818 239.40997 381.300219 L 240.921117 381.808814 C 240.921117 381.808814 367.189887 394.939388 359.110877 405.040394 C 351.029421 415.138954 411.13051 414.129098 411.13051 414.129098 L 378.300972 421.200536 C 378.300972 421.200536 317.190007 430.28924 309.110996 432.819993 C 301.029541 435.350746 243.449475 435.350746 235.370465 435.350746 C 227.279228 435.350746 196.469443 440.400027 176.780523 441.911143 C 157.079377 443.429595 160.109006 431.299096 160.109006 431.299096 Z M 160.109006 431.299096 " transform="matrix(1.597504,0,0,1.597536,-139.259124,-78.593898)"/>
<path style="fill-rule:evenodd;fill:rgb(50.980392%,50.980392%,50.980392%);fill-opacity:1;stroke-width:1;stroke-linecap:butt;stroke-linejoin:miter;stroke:rgb(0%,0%,0%);stroke-opacity:1;stroke-miterlimit:4;" d="M 277.79016 361.599468 C 277.79016 361.599468 206.069381 385.850684 191.420062 416.659851 C 176.780523 447.469019 269.209879 422.718988 269.209879 422.718988 Z M 277.79016 361.599468 " transform="matrix(1.597504,0,0,1.597536,-139.259124,-78.593898)"/>
<path style="fill-rule:nonzero;fill:rgb(50.980392%,50.980392%,50.980392%);fill-opacity:1;stroke-width:1;stroke-linecap:butt;stroke-linejoin:miter;stroke:rgb(0%,0%,0%);stroke-opacity:1;stroke-miterlimit:4;" d="M 303.149547 347.229192 C 298.501182 348.439552 296.928905 353.730904 292.429698 355.330047 C 280.45056 358.679932 269.931219 365.210987 258.949732 370.639269 C 248.990346 375.749678 239.008954 382.750206 235.548966 393.508963 C 232.771195 401.891012 231.360302 410.74009 231.189137 419.510922 C 231.431214 424.8903 235.341122 431.379787 241.889424 430.541093 C 248.550206 430.920095 255.269674 430.269679 261.390062 427.58977 C 278.159388 422.939053 295.31995 419.598948 312.710362 417.970464 C 326.049043 416.650071 339.360826 415.090051 352.530787 412.610646 C 361.551207 410.940594 370.720786 409.769357 379.579822 407.448888 C 383.660896 406.4806 389.360706 401.480223 381.968803 400.000894 C 373.410529 395.939464 364.950065 391.56016 357.849143 385.381211 C 347.779722 378.439367 339.060064 369.800575 328.129926 364.000627 C 320.349232 358.210459 311.891213 353.300554 304.27924 347.300102 C 303.8391 347.70111 303.579906 346.950442 303.149547 347.229192 Z M 383.25988 405.108859 C 383.149845 405.380273 381.680267 405.729932 383.25988 405.108859 Z M 383.25988 405.108859 " transform="matrix(1.597504,0,0,1.597536,-139.259124,-78.593898)"/>
<path style="fill-rule:evenodd;fill:rgb(50.980392%,50.980392%,50.980392%);fill-opacity:1;stroke-width:1;stroke-linecap:butt;stroke-linejoin:miter;stroke:rgb(0%,0%,0%);stroke-opacity:1;stroke-miterlimit:4;" d="M 266.999399 428.499374 L 129.159843 458.619003 C 131.079341 459.699769 135.461178 460.518902 145.339871 459.660647 L 96.780226 492.839186 L 101.440817 495.000718 C 83.096768 512.280749 82.781335 510.03119 105.001059 509.999403 L 127.159652 507.500437 L 151.440697 495.719599 L 157.499955 495.000718 L 196.779986 468.940075 C 196.779986 468.940075 201.421016 463.220817 200.340228 470.72016 L 249.278882 450.721098 C 249.278882 450.721098 258.7101 450.051121 271.310324 448.970355 Z M 266.999399 428.499374 " transform="matrix(1.597504,0,0,1.597536,-139.259124,-78.593898)"/>
<path style="fill-rule:evenodd;fill:rgb(50.980392%,50.980392%,50.980392%);fill-opacity:1;stroke-width:1;stroke-linecap:butt;stroke-linejoin:miter;stroke:rgb(0%,0%,0%);stroke-opacity:1;stroke-miterlimit:4;" d="M 314.659203 404.56114 C 270.09994 404.539134 176.24991 412.879615 175.499227 412.500614 C 175.499227 412.500614 141.041172 422.860808 117.029101 446.119284 C 115.68912 449.368918 117.200267 453.190721 127.839423 456.058908 C 127.839423 456.058908 126.02996 459.550614 135.940441 459.971184 C 135.969784 459.949177 136.250984 459.751118 136.250984 459.751118 C 136.250984 459.751118 217.960491 454.210358 248.880311 450.880034 L 249.278882 450.721098 C 249.278882 450.721098 251.939283 450.520594 252.689966 450.469245 C 254.819753 450.210057 256.690347 449.97043 258.000986 449.750364 L 258.969293 449.97043 C 278.210738 448.459314 323.109887 444.639955 335.719892 440.720344 L 367.50043 433.939882 L 368.720595 432.308952 L 442.94039 413.119242 C 442.94039 413.119242 443.209365 413.15103 443.280276 413.16081 L 443.500346 412.999429 C 443.500346 412.999429 332.000711 417.999806 337.500013 407.999052 C 338.879118 405.500086 329.509031 404.570921 314.659203 404.56114 Z M 314.659203 404.56114 " transform="matrix(1.597504,0,0,1.597536,-139.259124,-78.593898)"/>
<path style="fill-rule:evenodd;fill:rgb(50.980392%,50.980392%,50.980392%);fill-opacity:1;stroke-width:1;stroke-linecap:butt;stroke-linejoin:miter;stroke:rgb(0%,0%,0%);stroke-opacity:1;stroke-miterlimit:4;" d="M 160.109006 431.299096 C 160.109006 431.299096 152.528821 409.079818 239.40997 381.300219 L 240.921117 381.808814 C 240.921117 381.808814 367.189887 394.939388 359.110877 405.040394 C 351.029421 415.138954 411.13051 414.129098 411.13051 414.129098 L 378.300972 421.200536 C 378.300972 421.200536 317.190007 430.28924 309.110996 432.819993 C 301.029541 435.350746 243.449475 435.350746 235.370465 435.350746 C 227.279228 435.350746 196.469443 440.400027 176.780523 441.911143 C 157.079377 443.429595 160.109006 431.299096 160.109006 431.299096 Z M 160.109006 431.299096 " transform="matrix(1.597504,0,0,1.597536,-139.259124,-78.593898)"/>
<path style="fill-rule:evenodd;fill:rgb(50.980392%,50.980392%,50.980392%);fill-opacity:1;stroke-width:1;stroke-linecap:butt;stroke-linejoin:miter;stroke:rgb(0%,0%,0%);stroke-opacity:1;stroke-miterlimit:4;" d="M 277.79016 361.599468 C 277.79016 361.599468 206.069381 385.850684 191.420062 416.659851 C 176.780523 447.469019 269.209879 422.718988 269.209879 422.718988 Z M 277.79016 361.599468 " transform="matrix(1.597504,0,0,1.597536,-139.259124,-78.593898)"/>
<path style="fill-rule:nonzero;fill:rgb(50.980392%,50.980392%,50.980392%);fill-opacity:1;stroke-width:1;stroke-linecap:butt;stroke-linejoin:miter;stroke:rgb(0%,0%,0%);stroke-opacity:1;stroke-miterlimit:4;" d="M 303.149547 347.229192 C 298.501182 348.439552 296.928905 353.730904 292.429698 355.330047 C 280.45056 358.679932 269.931219 365.210987 258.949732 370.639269 C 248.990346 375.749678 239.008954 382.750206 235.548966 393.508963 C 232.771195 401.891012 231.360302 410.74009 231.189137 419.510922 C 231.431214 424.8903 235.341122 431.379787 241.889424 430.541093 C 248.550206 430.920095 255.269674 430.269679 261.390062 427.58977 C 278.159388 422.939053 295.31995 419.598948 312.710362 417.970464 C 326.049043 416.650071 339.360826 415.090051 352.530787 412.610646 C 361.551207 410.940594 370.720786 409.769357 379.579822 407.448888 C 383.660896 406.4806 389.360706 401.480223 381.968803 400.000894 C 373.410529 395.939464 364.950065 391.56016 357.849143 385.381211 C 347.779722 378.439367 339.060064 369.800575 328.129926 364.000627 C 320.349232 358.210459 311.891213 353.300554 304.27924 347.300102 C 303.8391 347.70111 303.579906 346.950442 303.149547 347.229192 Z M 383.25988 405.108859 C 383.149845 405.380273 381.680267 405.729932 383.25988 405.108859 Z M 383.25988 405.108859 " transform="matrix(1.597504,0,0,1.597536,-139.259124,-78.593898)"/>
<path style="fill-rule:evenodd;fill:rgb(50.980392%,50.980392%,50.980392%);fill-opacity:1;stroke-width:1;stroke-linecap:butt;stroke-linejoin:miter;stroke:rgb(0%,0%,0%);stroke-opacity:1;stroke-miterlimit:4;" d="M 266.999399 428.499374 L 129.159843 458.619003 C 131.079341 459.699769 135.461178 460.518902 145.339871 459.660647 L 96.780226 492.839186 L 101.440817 495.000718 C 83.096768 512.280749 82.781335 510.03119 105.001059 509.999403 L 127.159652 507.500437 L 151.440697 495.719599 L 157.499955 495.000718 L 196.779986 468.940075 C 196.779986 468.940075 201.421016 463.220817 200.340228 470.72016 L 249.278882 450.721098 C 249.278882 450.721098 258.7101 450.051121 271.310324 448.970355 Z M 266.999399 428.499374 " transform="matrix(1.597504,0,0,1.597536,-139.259124,-78.593898)"/>
<path style="fill-rule:evenodd;fill:rgb(50.980392%,50.980392%,50.980392%);fill-opacity:1;stroke-width:1;stroke-linecap:butt;stroke-linejoin:miter;stroke:rgb(0%,0%,0%);stroke-opacity:1;stroke-miterlimit:4;" d="M 314.659203 404.56114 C 270.09994 404.539134 176.24991 412.879615 175.499227 412.500614 C 175.499227 412.500614 141.041172 422.860808 117.029101 446.119284 C 115.68912 449.368918 117.200267 453.190721 127.839423 456.058908 C 127.839423 456.058908 126.02996 459.550614 135.940441 459.971184 C 135.969784 459.949177 136.250984 459.751118 136.250984 459.751118 C 136.250984 459.751118 217.960491 454.210358 248.880311 450.880034 L 249.278882 450.721098 C 249.278882 450.721098 251.939283 450.520594 252.689966 450.469245 C 254.819753 450.210057 256.690347 449.97043 258.000986 449.750364 L 258.969293 449.97043 C 278.210738 448.459314 323.109887 444.639955 335.719892 440.720344 L 367.50043 433.939882 L 368.720595 432.308952 L 442.94039 413.119242 C 442.94039 413.119242 443.209365 413.15103 443.280276 413.16081 L 443.500346 412.999429 C 443.500346 412.999429 332.000711 417.999806 337.500013 407.999052 C 338.879118 405.500086 329.509031 404.570921 314.659203 404.56114 Z M 314.659203 404.56114 " transform="matrix(1.597504,0,0,1.597536,-139.259124,-78.593898)"/>
<path style="fill-rule:evenodd;fill:rgb(50.980392%,50.980392%,50.980392%);fill-opacity:1;stroke-width:1;stroke-linecap:butt;stroke-linejoin:miter;stroke:rgb(0%,0%,0%);stroke-opacity:1;stroke-miterlimit:4;" d="M 160.109006 431.299096 C 160.109006 431.299096 152.528821 409.079818 239.40997 381.300219 L 240.921117 381.808814 C 240.921117 381.808814 367.189887 394.939388 359.110877 405.040394 C 351.029421 415.138954 411.13051 414.129098 411.13051 414.129098 L 378.300972 421.200536 C 378.300972 421.200536 317.190007 430.28924 309.110996 432.819993 C 301.029541 435.350746 243.449475 435.350746 235.370465 435.350746 C 227.279228 435.350746 196.469443 440.400027 176.780523 441.911143 C 157.079377 443.429595 160.109006 431.299096 160.109006 431.299096 Z M 160.109006 431.299096 " transform="matrix(1.597504,0,0,1.597536,-139.259124,-78.593898)"/>
<path style="fill-rule:evenodd;fill:rgb(50.980392%,50.980392%,50.980392%);fill-opacity:1;stroke-width:1;stroke-linecap:butt;stroke-linejoin:miter;stroke:rgb(0%,0%,0%);stroke-opacity:1;stroke-miterlimit:4;" d="M 277.79016 361.599468 C 277.79016 361.599468 206.069381 385.850684 191.420062 416.659851 C 176.780523 447.469019 269.209879 422.718988 269.209879 422.718988 Z M 277.79016 361.599468 " transform="matrix(1.597504,0,0,1.597536,-139.259124,-78.593898)"/>
<path style="fill-rule:nonzero;fill:rgb(50.980392%,50.980392%,50.980392%);fill-opacity:1;stroke-width:1;stroke-linecap:butt;stroke-linejoin:miter;stroke:rgb(0%,0%,0%);stroke-opacity:1;stroke-miterlimit:4;" d="M 303.149547 347.229192 C 298.501182 348.439552 296.928905 353.730904 292.429698 355.330047 C 280.45056 358.679932 269.931219 365.210987 258.949732 370.639269 C 248.990346 375.749678 239.008954 382.750206 235.548966 393.508963 C 232.771195 401.891012 231.360302 410.74009 231.189137 419.510922 C 231.431214 424.8903 235.341122 431.379787 241.889424 430.541093 C 248.550206 430.920095 255.269674 430.269679 261.390062 427.58977 C 278.159388 422.939053 295.31995 419.598948 312.710362 417.970464 C 326.049043 416.650071 339.360826 415.090051 352.530787 412.610646 C 361.551207 410.940594 370.720786 409.769357 379.579822 407.448888 C 383.660896 406.4806 389.360706 401.480223 381.968803 400.000894 C 373.410529 395.939464 364.950065 391.56016 357.849143 385.381211 C 347.779722 378.439367 339.060064 369.800575 328.129926 364.000627 C 320.349232 358.210459 311.891213 353.300554 304.27924 347.300102 C 303.8391 347.70111 303.579906 346.950442 303.149547 347.229192 Z M 383.25988 405.108859 C 383.149845 405.380273 381.680267 405.729932 383.25988 405.108859 Z M 383.25988 405.108859 " transform="matrix(1.597504,0,0,1.597536,-139.259124,-78.593898)"/>
<path style="fill-rule:evenodd;fill:rgb(50.980392%,50.980392%,50.980392%);fill-opacity:1;stroke-width:1;stroke-linecap:butt;stroke-linejoin:miter;stroke:rgb(0%,0%,0%);stroke-opacity:1;stroke-miterlimit:4;" d="M 266.999399 428.499374 L 129.159843 458.619003 C 131.079341 459.699769 135.461178 460.518902 145.339871 459.660647 L 96.780226 492.839186 L 101.440817 495.000718 C 83.096768 512.280749 82.781335 510.03119 105.001059 509.999403 L 127.159652 507.500437 L 151.440697 495.719599 L 157.499955 495.000718 L 196.779986 468.940075 C 196.779986 468.940075 201.421016 463.220817 200.340228 470.72016 L 249.278882 450.721098 C 249.278882 450.721098 258.7101 450.051121 271.310324 448.970355 Z M 266.999399 428.499374 " transform="matrix(1.597504,0,0,1.597536,-139.259124,-78.593898)"/>
<path style="fill-rule:evenodd;fill:rgb(50.980392%,50.980392%,50.980392%);fill-opacity:1;stroke-width:1;stroke-linecap:butt;stroke-linejoin:miter;stroke:rgb(0%,0%,0%);stroke-opacity:1;stroke-miterlimit:4;" d="M 314.659203 404.56114 C 270.09994 404.539134 176.24991 412.879615 175.499227 412.500614 C 175.499227 412.500614 141.041172 422.860808 117.029101 446.119284 C 115.68912 449.368918 117.200267 453.190721 127.839423 456.058908 C 127.839423 456.058908 126.02996 459.550614 135.940441 459.971184 C 135.969784 459.949177 136.250984 459.751118 136.250984 459.751118 C 136.250984 459.751118 217.960491 454.210358 248.880311 450.880034 L 249.278882 450.721098 C 249.278882 450.721098 251.939283 450.520594 252.689966 450.469245 C 254.819753 450.210057 256.690347 449.97043 258.000986 449.750364 L 258.969293 449.97043 C 278.210738 448.459314 323.109887 444.639955 335.719892 440.720344 L 367.50043 433.939882 L 368.720595 432.308952 L 442.94039 413.119242 C 442.94039 413.119242 443.209365 413.15103 443.280276 413.16081 L 443.500346 412.999429 C 443.500346 412.999429 332.000711 417.999806 337.500013 407.999052 C 338.879118 405.500086 329.509031 404.570921 314.659203 404.56114 Z M 314.659203 404.56114 " transform="matrix(1.597504,0,0,1.597536,-139.259124,-78.593898)"/>
<path style="fill-rule:evenodd;fill:rgb(50.980392%,50.980392%,50.980392%);fill-opacity:1;stroke-width:1;stroke-linecap:butt;stroke-linejoin:miter;stroke:rgb(0%,0%,0%);stroke-opacity:1;stroke-miterlimit:4;" d="M 160.109006 431.299096 C 160.109006 431.299096 152.528821 409.079818 239.40997 381.300219 L 240.921117 381.808814 C 240.921117 381.808814 367.189887 394.939388 359.110877 405.040394 C 351.029421 415.138954 411.13051 414.129098 411.13051 414.129098 L 378.300972 421.200536 C 378.300972 421.200536 317.190007 430.28924 309.110996 432.819993 C 301.029541 435.350746 243.449475 435.350746 235.370465 435.350746 C 227.279228 435.350746 196.469443 440.400027 176.780523 441.911143 C 157.079377 443.429595 160.109006 431.299096 160.109006 431.299096 Z M 160.109006 431.299096 " transform="matrix(1.597504,0,0,1.597536,-139.259124,-78.593898)"/>
<path style="fill-rule:evenodd;fill:rgb(50.980392%,50.980392%,50.980392%);fill-opacity:1;stroke-width:1;stroke-linecap:butt;stroke-linejoin:miter;stroke:rgb(0%,0%,0%);stroke-opacity:1;stroke-miterlimit:4;" d="M 277.79016 361.599468 C 277.79016 361.599468 206.069381 385.850684 191.420062 416.659851 C 176.780523 447.469019 269.209879 422.718988 269.209879 422.718988 Z M 277.79016 361.599468 " transform="matrix(1.597504,0,0,1.597536,-139.259124,-78.593898)"/>
<path style="fill-rule:nonzero;fill:rgb(50.980392%,50.980392%,50.980392%);fill-opacity:1;stroke-width:1;stroke-linecap:butt;stroke-linejoin:miter;stroke:rgb(0%,0%,0%);stroke-opacity:1;stroke-miterlimit:4;" d="M 303.149547 347.229192 C 298.501182 348.439552 296.928905 353.730904 292.429698 355.330047 C 280.45056 358.679932 269.931219 365.210987 258.949732 370.639269 C 248.990346 375.749678 239.008954 382.750206 235.548966 393.508963 C 232.771195 401.891012 231.360302 410.74009 231.189137 419.510922 C 231.431214 424.8903 235.341122 431.379787 241.889424 430.541093 C 248.550206 430.920095 255.269674 430.269679 261.390062 427.58977 C 278.159388 422.939053 295.31995 419.598948 312.710362 417.970464 C 326.049043 416.650071 339.360826 415.090051 352.530787 412.610646 C 361.551207 410.940594 370.720786 409.769357 379.579822 407.448888 C 383.660896 406.4806 389.360706 401.480223 381.968803 400.000894 C 373.410529 395.939464 364.950065 391.56016 357.849143 385.381211 C 347.779722 378.439367 339.060064 369.800575 328.129926 364.000627 C 320.349232 358.210459 311.891213 353.300554 304.27924 347.300102 C 303.8391 347.70111 303.579906 346.950442 303.149547 347.229192 Z M 383.25988 405.108859 C 383.149845 405.380273 381.680267 405.729932 383.25988 405.108859 Z M 383.25988 405.108859 " transform="matrix(1.597504,0,0,1.597536,-139.259124,-78.593898)"/>
<path style="fill-rule:evenodd;fill:rgb(35.686275%,35.686275%,35.686275%);fill-opacity:1;stroke-width:1;stroke-linecap:butt;stroke-linejoin:miter;stroke:rgb(0%,0%,0%);stroke-opacity:1;stroke-miterlimit:4;" d="M 391.189732 232.059144 C 387.40942 235.149841 375.559879 244.901187 372.840793 248.219286 L 348.880072 263.499166 C 316.510235 294.398805 277.719248 337.529194 293.99953 353.501058 C 293.99953 353.501058 306.000675 370.499894 328.499154 366.000777 C 328.499154 366.000777 332.499536 377.999236 353.000269 384.999764 C 353.000269 384.999764 352.498999 411.500538 379.000305 412.999429 C 405.499165 414.500764 412.001008 416.99973 442.999076 413.500689 L 513.499689 399.000819 L 567.729802 383.410402 L 573.510305 378.581187 L 587.379598 356.58931 Z M 391.189732 232.059144 " transform="matrix(1.597504,0,0,1.597536,-139.259124,-78.593898)"/>
<path style="fill-rule:evenodd;fill:rgb(35.686275%,35.686275%,35.686275%);fill-opacity:1;stroke-width:1;stroke-linecap:butt;stroke-linejoin:miter;stroke:rgb(0%,0%,0%);stroke-opacity:1;stroke-miterlimit:4;" d="M 391.189732 232.059144 C 387.40942 235.149841 375.559879 244.901187 372.840793 248.219286 L 348.880072 263.499166 C 346.950792 264.310963 345.400522 265.580007 344.119226 267.000652 C 344.119226 267.000652 344.060541 267.091124 344.031198 267.120466 C 344.018972 267.140027 344.009191 267.149808 343.999411 267.159588 C 343.960287 267.201156 343.970068 267.201156 343.908937 267.279402 C 342.930849 268.499543 339.329038 273.470577 344.248823 274.99881 C 344.248823 274.99881 333.749044 284.87975 345.879786 288.880051 L 370.530059 327.750951 L 370.840602 334.590097 C 374.660037 339.998818 378.829139 345.079885 383.250099 350.028914 L 482.310895 405.409615 L 513.499689 399.000819 L 567.720021 383.410402 L 573.500524 378.559181 L 587.379598 356.58931 Z M 391.189732 232.059144 " transform="matrix(1.597504,0,0,1.597536,-139.259124,-78.593898)"/>
<path style="fill-rule:evenodd;fill:rgb(78.431373%,77.647059%,77.647059%);fill-opacity:1;stroke-width:1;stroke-linecap:butt;stroke-linejoin:miter;stroke:rgb(0%,0%,0%);stroke-opacity:1;stroke-miterlimit:4;" d="M 346.989916 285.500824 C 346.989916 285.500824 336.020654 299.660815 352.970927 306.230992 C 352.970927 306.230992 348.479056 320.889798 360.949683 329.479688 C 360.949683 329.479688 365.429328 355.259137 372.909259 358.799746 C 380.379409 362.340355 378.89027 351.730753 378.89027 351.730753 C 378.89027 351.730753 382.3796 365.369923 383.871185 363.858807 C 383.871185 363.858807 383.369915 376.999161 392.351212 376.999161 C 392.351212 376.999161 393.840351 391.660413 415.270269 395.201022 C 415.769094 393.680125 418.270555 409.361013 438.700377 409.361013 C 437.159888 411.180221 440.800822 413.129023 444.678943 414.601017 C 450.899585 414.759953 471.339188 414.669481 489.480283 407.399985 C 489.480283 407.399985 497.52017 410.458895 500.540018 410.458895 C 503.559866 410.458895 520.160471 404.328849 520.160471 404.328849 C 520.160471 404.328849 543.231132 405.289801 568.700555 383.449525 C 567.160066 381.358903 565.230786 379.789102 562.810017 379.018873 C 548.361206 374.470853 538.389595 388.630844 538.389595 388.630844 C 529.909568 380.53977 515.460757 390.149296 515.460757 390.149296 C 503.50118 379.529914 494.030839 393.680125 494.030839 393.680125 C 490.040238 385.090235 476.080471 391.159152 476.080471 391.159152 C 476.579297 380.040955 459.13998 383.070523 459.13998 383.070523 C 456.640964 369.920388 445.679038 379.018873 445.679038 379.018873 C 444.180117 369.419128 434.709776 371.949881 434.709776 371.949881 C 432.220541 351.730753 407.298848 358.799746 407.298848 358.799746 C 406.301198 341.610186 393.339081 346.160651 393.339081 346.160651 C 393.339081 324.430408 375.400939 331.4994 375.400939 331.4994 C 383.871185 317.85045 355.958987 299.149774 355.958987 299.149774 C 355.958987 290.559885 346.989916 285.500824 346.989916 285.500824 Z M 346.989916 285.500824 " transform="matrix(1.597504,0,0,1.597536,-139.259124,-78.593898)"/>
<path style="fill-rule:evenodd;fill:rgb(78.431373%,77.647059%,77.647059%);fill-opacity:1;stroke-width:1;stroke-linecap:butt;stroke-linejoin:miter;stroke:rgb(0%,0%,0%);stroke-opacity:1;stroke-miterlimit:4;" d="M 553.119606 150.559115 C 552.601219 151.529848 552.099949 152.429672 551.588898 153.280591 C 552.099949 152.439452 552.601219 151.529848 553.119606 150.559115 Z M 544.309475 160.779934 C 534.000423 166.709476 510.000578 177.50002 510.000578 177.50002 L 469.280312 192.84103 L 429.27894 209.998802 L 416.060075 216.779264 L 392.840256 230.71919 C 392.840256 230.71919 376.061149 244.289894 372.840793 248.219286 L 351.220148 262.029617 C 356.800143 262.13965 365.659179 260.210409 379.7192 254.219738 C 379.7192 254.219738 374.051177 264.819559 392.43924 257.750566 C 392.43924 257.750566 397.390812 307.27019 430.618921 323.530584 C 430.631148 323.530584 432.760935 341.920723 453.970783 342.620042 C 453.970783 342.620042 462.441028 361.7095 485.059323 366.660974 C 485.059323 366.660974 493.549131 377.251014 507.689844 371.590441 C 507.689844 371.590441 516.900992 382.219603 526.090133 374.439066 C 526.090133 374.439066 543.769081 397.049572 567.810494 363.809903 C 567.810494 363.809903 573.370927 365.570427 585.780424 358.93912 C 592.230917 347.018907 601.830855 327.521105 615.719711 295.719198 C 647.859696 222.148862 612.871028 222.161087 571.439202 192.158827 C 551.989914 178.069745 545.610332 167.751119 544.309475 160.779934 Z M 544.309475 160.779934 " transform="matrix(1.597504,0,0,1.597536,-139.259124,-78.593898)"/>
<path style=" stroke:none;fill-rule:evenodd;fill:rgb(33.333333%,33.333333%,33.333333%);fill-opacity:1;" d="M 907.679688 79.804688 C 905.589844 58.035156 885.042969 64.265625 885.042969 64.265625 C 885.042969 64.265625 890.683594 53.789062 909.902344 69.125 C 909.902344 69.125 916.101562 85.617188 900.554688 89.242188 C 892.425781 90.136719 888.128906 90.152344 882.183594 84.082031 C 871.992188 73.199219 881.355469 75.496094 881.355469 75.496094 C 881.355469 75.496094 887.152344 87.308594 897.359375 85.042969 C 907.570312 82.773438 902.121094 85.695312 907.679688 79.804688 Z M 907.679688 79.804688 "/>
<path style=" stroke:none;fill-rule:nonzero;fill:url(#radial0);" d="M 908.050781 79.980469 C 909.984375 74.207031 905.292969 67.210938 897.566406 64.355469 C 889.84375 61.5 882.011719 63.867188 880.074219 69.644531 C 878.140625 75.417969 882.832031 82.414062 890.554688 85.269531 C 898.28125 88.125 906.113281 85.757812 908.050781 79.980469 Z M 908.050781 79.980469 "/>
<path style=" stroke:none;fill-rule:nonzero;fill:rgb(0%,0%,0%);fill-opacity:1;" d="M 900.910156 76.578125 C 900.910156 73.742188 898.488281 71.445312 895.5 71.445312 C 892.511719 71.445312 890.085938 73.742188 890.085938 76.578125 C 890.085938 79.410156 892.511719 81.710938 895.5 81.710938 C 898.488281 81.710938 900.910156 79.410156 900.910156 76.578125 Z M 900.910156 76.578125 "/>
<path style=" stroke:none;fill-rule:nonzero;fill:rgb(100%,100%,100%);fill-opacity:1;" d="M 899.183594 64.835938 C 899.183594 63.582031 898.25 62.566406 897.097656 62.566406 C 895.945312 62.566406 895.011719 63.582031 895.011719 64.835938 C 895.011719 66.089844 895.945312 67.105469 897.097656 67.105469 C 898.25 67.105469 899.183594 66.089844 899.183594 64.835938 Z M 899.183594 64.835938 "/>
<path style="fill-rule:evenodd;fill:url(#linear2);stroke-width:1;stroke-linecap:butt;stroke-linejoin:miter;stroke:rgb(0%,0%,0%);stroke-opacity:1;stroke-miterlimit:4;" d="M 689.770785 135.509081 C 689.770785 135.509081 699.351161 126.271221 726.669171 140.800433 C 726.669171 140.800433 732.019315 130.970842 718.771107 120.750023 C 715.858849 118.510245 711.039318 113.52943 706.08041 111.350781 L 702.559291 110.450958 C 677.050745 109.949698 689.770785 135.509081 689.770785 135.509081 Z M 689.770785 135.509081 " transform="matrix(1.597504,0,0,1.597536,-139.259124,-78.593898)"/>
<path style="fill-rule:evenodd;fill:rgb(80.784314%,80.784314%,80.784314%);fill-opacity:1;stroke-width:1;stroke-linecap:butt;stroke-linejoin:miter;stroke:rgb(0%,0%,0%);stroke-opacity:1;stroke-miterlimit:4;" d="M 685.139537 111.089148 C 685.139537 111.089148 692.709941 101.489403 698.020961 102.751111 C 703.319755 104.020156 705.209911 111.089148 705.209911 111.089148 C 705.209911 111.089148 700.290126 116.889096 694.230868 116.140873 C 688.169165 115.380425 685.388949 112.099004 685.139537 111.089148 Z M 685.139537 111.089148 " transform="matrix(1.597504,0,0,1.597536,-139.259124,-78.593898)"/>
<path style="fill:none;stroke-width:1.6;stroke-linecap:butt;stroke-linejoin:miter;stroke:rgb(0%,0%,0%);stroke-opacity:1;stroke-miterlimit:4;" d="M 505.359548 518.929172 C 505.000101 510.358844 510.000578 510.358844 510.000578 510.358844 L 522.500548 511.789269 C 522.500548 511.789269 516.429064 495.360158 510.709692 484.640524 C 505.000101 473.930671 496.429601 470.710379 496.429601 470.710379 C 437.140326 467.859309 417.859758 455.709249 417.859758 455.709249 C 389.998909 452.501183 387.140446 441.070004 387.140446 441.070004 C 374.640476 439.999018 367.50043 433.930101 367.50043 433.930101 L 335.710111 440.710563 C 319.640118 445.71094 249.291108 450.708872 249.291108 450.708872 L 200.35979 470.710379 C 201.430797 463.211036 196.789767 468.930294 196.789767 468.930294 L 157.499955 495.000718 L 151.430916 495.709818 L 127.14009 507.500437 L 105.001059 509.999403 C 82.781335 510.03119 83.086988 512.280749 101.431036 495.000718 L 96.785116 492.861193 L 145.359432 459.641085 C 125.000522 461.430951 127.858985 456.071134 127.858985 456.071134 C 105.360506 449.999772 123.570068 439.639578 123.570068 439.639578 C 116.430022 434.289542 120.359492 430.70981 120.359492 430.70981 C 138.209606 409.999203 197.498881 389.6407 197.498881 389.6407 C 212.85976 373.93047 250.35967 366.069242 250.35967 366.069242 L 261.429186 358.569899 C 263.571199 354.290848 280.00064 330.709609 280.00064 330.709609 C 283.211215 323.210267 295.139003 309.140747 295.139003 309.140747 L 332.360158 274.069644 L 372.860355 248.209505 C 376.07093 244.289894 392.859818 230.709409 392.859818 230.709409 L 416.069856 216.789045 L 429.291166 209.998802 L 469.290093 192.860591 L 510.000578 177.50002 C 510.000578 177.50002 538.570541 164.640861 546.788929 159.290824 C 554.999981 153.931007 572.140981 105.00067 572.140981 105.00067 C 600.710944 55.713337 609.640891 63.215125 617.859279 56.429772 C 626.070331 49.641975 649.999265 48.927985 671.069735 51.069955 C 692.140204 53.214371 699.639697 76.78583 699.639697 76.78583 C 711.071106 87.500573 698.571136 102.499259 698.571136 102.499259 C 702.141159 102.499259 705.359069 110.360487 705.359069 110.360487 C 708.569645 110.360487 725.360978 126.430157 725.360978 126.430157 C 729.640115 134.641045 727.141099 141.428843 727.141099 141.428843 C 697.140681 126.430157 690.70975 135.709585 690.70975 135.709585 C 690.70975 135.709585 716.790478 156.789413 722.140622 171.431103 C 727.500546 186.070348 727.141099 189.640299 727.141099 189.640299 C 727.141099 189.640299 730.35901 228.210443 718.211151 266.069042 C 706.070629 303.930085 701.070152 328.570084 666.790598 360.000325 C 632.498817 391.430566 606.430316 406.791137 606.430316 406.791137 C 606.430316 406.791137 602.500846 409.639762 602.138953 413.931039 C 601.789286 418.21009 567.499951 449.290672 533.570064 459.288981 C 533.570064 459.288981 534.288959 465.000902 528.210139 471.069819 L 556.789883 517.860631 L 599.639937 514.64034 C 599.639937 514.64034 631.430256 516.430206 614.638923 518.929172 L 635.000279 518.569731 C 635.000279 518.569731 644.63934 522.499123 644.63934 528.929925 L 633.210377 528.929925 L 629.999802 530.360351 L 570.710526 533.208976 C 570.710526 533.208976 571.788869 534.639402 570.710526 535.360728 C 569.63952 536.069827 541.429004 534.639402 541.429004 534.639402 C 541.429004 534.639402 538.570541 532.499876 539.289436 531.790776 C 540.000995 531.069451 529.640594 532.140436 529.640594 532.140436 C 529.640594 532.140436 532.499057 535.360728 515.710169 535.360728 L 513.930048 527.140059 C 513.930048 527.140059 512.140146 527.140059 508.929571 526.069074 C 505.709215 525.000534 511.431032 520.000157 511.431032 520.000157 L 509.64113 518.210291 Z M 505.359548 518.929172 " transform="matrix(1.597504,0,0,1.597536,-139.259124,-78.593898)"/>
</g>
</svg>
