<?xml version="1.0" encoding="UTF-8"?>
<svg xmlns="http://www.w3.org/2000/svg" xmlns:xlink="http://www.w3.org/1999/xlink" width="1024pt" height="935pt" viewBox="0 0 1024 935" version="1.1">
<g id="surface1">
<path style=" stroke:none;fill-rule:evenodd;fill:rgb(0%,0%,39.607843%);fill-opacity:0.411765;" d="M 280.898438 909.242188 C 387.648438 906.007812 274.339844 906.449219 233.519531 913.980469 C 192.699219 921.53125 -8.363281 930.585938 114.113281 929.078125 C 236.574219 927.570312 991.390625 944.160156 947.421875 927.570312 C 903.464844 910.96875 777.851562 910.96875 777.851562 910.96875 Z M 280.898438 909.242188 "/>
<path style="fill-rule:evenodd;fill:rgb(100%,100%,97.647059%);fill-opacity:1;stroke-width:2.56;stroke-linecap:butt;stroke-linejoin:miter;stroke:rgb(0%,0%,0%);stroke-opacity:1;stroke-miterlimit:4;" d="M 496.970033 276.529341 L 593.819257 171.320179 C 593.819257 171.320179 643.920306 284.870643 662.290537 343.31992 C 680.660767 401.769197 700.69008 470.230351 700.69008 470.230351 L 491.960391 513.649087 Z M 496.970033 276.529341 " transform="matrix(1.688151,0,0,1.688229,-172.737695,-50.981651)"/>
<path style="fill:none;stroke-width:6.75;stroke-linecap:butt;stroke-linejoin:miter;stroke:rgb(0%,0%,0%);stroke-opacity:1;stroke-miterlimit:4;" d="M 497.629501 67.788534 L 484.268913 553.728987 " transform="matrix(1.688151,0,0,1.688229,-172.737695,-50.981651)"/>
<path style="fill:none;stroke-width:6.875;stroke-linecap:butt;stroke-linejoin:miter;stroke:rgb(0%,0%,0%);stroke-opacity:1;stroke-miterlimit:4;" d="M 362.369164 109.539009 L 338.989292 547.049004 " transform="matrix(1.688151,0,0,1.688229,-172.737695,-50.981651)"/>
<path style="fill-rule:evenodd;fill:rgb(100%,100%,97.647059%);fill-opacity:1;stroke-width:2.56;stroke-linecap:butt;stroke-linejoin:miter;stroke:rgb(0%,0%,0%);stroke-opacity:1;stroke-miterlimit:4;" d="M 208.740911 513.649087 C 208.740911 513.649087 258.83039 436.830434 287.219905 390.079805 C 315.609419 343.31992 337.320954 303.240019 337.320954 303.240019 L 337.320954 510.310252 C 337.320954 510.310252 297.239189 511.980826 267.179023 515.319661 C 237.118856 518.66081 208.740911 513.649087 208.740911 513.649087 Z M 208.740911 513.649087 " transform="matrix(1.688151,0,0,1.688229,-172.737695,-50.981651)"/>
<path style="fill:none;stroke-width:7;stroke-linecap:butt;stroke-linejoin:miter;stroke:rgb(0%,0%,0%);stroke-opacity:1;stroke-miterlimit:4;" d="M 214.900573 530.371027 L 106.268855 512.661088 " transform="matrix(1.688151,0,0,1.688229,-172.737695,-50.981651)"/>
<path style="fill-rule:evenodd;fill:rgb(14.509804%,23.137255%,34.901961%);fill-opacity:1;stroke-width:2.75;stroke-linecap:butt;stroke-linejoin:miter;stroke:rgb(0%,0%,0%);stroke-opacity:1;stroke-miterlimit:4;" d="M 197.999683 528.089605 C 197.999683 528.089605 383.999711 540.089049 443.99972 538.089913 C 503.99973 536.090777 557.999738 532.090191 581.999741 534.089327 C 605.999745 536.090777 694.00053 516.090161 673.998984 528.089605 C 653.999752 540.089049 701.99976 538.089913 635.99975 544.089635 C 569.99974 550.089357 473.999725 558.090528 425.999718 554.089943 C 377.99971 550.089357 283.998925 542.090499 253.99892 538.089913 C 223.998916 534.089327 197.999683 528.089605 197.999683 528.089605 Z M 197.999683 528.089605 " transform="matrix(1.688151,0,0,1.688229,-172.737695,-50.981651)"/>
<path style="fill-rule:evenodd;fill:rgb(84.313725%,90.588235%,100%);fill-opacity:1;stroke-width:2.75;stroke-linecap:butt;stroke-linejoin:miter;stroke:rgb(0%,0%,0%);stroke-opacity:1;stroke-miterlimit:4;" d="M 193.998911 526.090469 L 238.00046 576.089694 C 238.00046 576.089694 370.000481 572.089108 439.998949 576.089694 C 509.999731 580.09028 601.998973 574.090558 613.998975 572.089108 C 625.998977 570.089972 667.998983 550.089357 673.998984 546.091085 C 679.998985 542.090499 677.999756 528.089605 677.999756 528.089605 C 677.999756 528.089605 667.998983 538.089913 613.998975 542.090499 C 559.998967 546.091085 457.998951 552.090807 412.000487 548.090221 C 365.999709 544.089635 299.999699 542.090499 265.998922 536.090777 C 232.00046 530.091055 193.998911 526.090469 193.998911 526.090469 Z M 193.998911 526.090469 " transform="matrix(1.688151,0,0,1.688229,-172.737695,-50.981651)"/>
<path style=" stroke:none;fill-rule:evenodd;fill:rgb(0%,0%,0%);fill-opacity:0.298039;" d="M 952.230469 870.707031 C 952.230469 870.707031 917.265625 892.6875 890.191406 905.0625 C 863.128906 917.421875 837.179688 918.789062 573.257812 921.539062 C 523.625 921.539062 524.753906 918.789062 506.710938 917.421875 C 545.0625 916.054688 740.179688 917.421875 867.636719 898.191406 C 930.789062 881.699219 952.230469 870.707031 952.230469 870.707031 Z M 952.230469 870.707031 "/>
<path style=" stroke:none;fill-rule:evenodd;fill:rgb(0%,0%,0%);fill-opacity:0.2;" d="M 176.710938 853.757812 L 230.527344 915.5625 L 338.164062 913.570312 C 338.164062 913.570312 294.324219 923.53125 242.496094 897.617188 C 190.671875 871.703125 176.710938 853.757812 176.710938 853.757812 Z M 176.710938 853.757812 "/>
<path style="fill-rule:evenodd;fill:rgb(100%,100%,97.647059%);fill-opacity:1;stroke-width:2.56;stroke-linecap:butt;stroke-linejoin:miter;stroke:rgb(0%,0%,0%);stroke-opacity:1;stroke-miterlimit:4;" d="M 327.299356 306.578854 C 327.299356 306.578854 242.130812 390.079805 213.750553 413.460904 C 185.361039 436.830434 111.880117 508.639677 111.880117 508.639677 C 111.880117 508.639677 177.010092 493.609136 210.409249 490.270301 C 243.79915 486.929153 260.501042 483.590318 260.501042 483.590318 Z M 327.299356 306.578854 " transform="matrix(1.688151,0,0,1.688229,-172.737695,-50.981651)"/>
<path style="fill-rule:evenodd;fill:rgb(100%,100%,97.647059%);fill-opacity:1;stroke-width:2.56;stroke-linecap:butt;stroke-linejoin:miter;stroke:rgb(0%,0%,0%);stroke-opacity:1;stroke-miterlimit:4;" d="M 203.728955 371.710428 C 203.728955 371.710428 258.83039 283.200069 285.549253 244.799998 C 312.270429 206.390671 352.34988 142.929671 352.34988 142.929671 C 352.34988 142.929671 338.989292 204.720097 335.650302 236.44944 C 332.308998 268.181097 332.308998 313.261151 332.308998 313.261151 C 332.308998 313.261151 300.580493 319.941135 268.849675 333.301102 C 237.118856 346.661069 203.728955 371.710428 203.728955 371.710428 Z M 203.728955 371.710428 " transform="matrix(1.688151,0,0,1.688229,-172.737695,-50.981651)"/>
<path style="fill-rule:evenodd;fill:rgb(98.039216%,98.039216%,95.294118%);fill-opacity:1;stroke-width:2.56;stroke-linecap:butt;stroke-linejoin:miter;stroke:rgb(0%,0%,0%);stroke-opacity:1;stroke-miterlimit:4;" d="M 357.359522 319.941135 L 459.220702 226.430622 C 459.220702 226.430622 469.239987 269.849357 472.578977 308.249429 C 475.920281 346.661069 485.939565 503.630268 485.939565 503.630268 L 342.330596 511.980826 Z M 357.359522 319.941135 " transform="matrix(1.688151,0,0,1.688229,-172.737695,-50.981651)"/>
<path style=" stroke:none;fill-rule:evenodd;fill:rgb(0%,0%,0%);fill-opacity:0.0431373;" d="M 409.320312 810.523438 L 433.242188 491.566406 L 600.6875 336.078125 L 624.609375 475.609375 L 648.53125 798.550781 Z M 409.320312 810.523438 "/>
<path style="fill-rule:evenodd;fill:rgb(100%,100%,97.647059%);fill-opacity:1;stroke-width:2.56;stroke-linecap:butt;stroke-linejoin:miter;stroke:rgb(0%,0%,0%);stroke-opacity:1;stroke-miterlimit:4;" d="M 365.710468 147.93908 C 365.710468 147.93908 389.081085 194.698965 387.410433 204.720097 C 385.739781 214.738915 382.400791 264.839948 374.0591 291.550627 C 365.710468 318.270561 355.68887 326.621118 355.68887 326.621118 Z M 365.710468 147.93908 " transform="matrix(1.688151,0,0,1.688229,-172.737695,-50.981651)"/>
<path style="fill-rule:evenodd;fill:rgb(100%,100%,97.647059%);fill-opacity:1;stroke-width:2.56;stroke-linecap:butt;stroke-linejoin:miter;stroke:rgb(0%,0%,0%);stroke-opacity:1;stroke-miterlimit:4;" d="M 500.970805 91.167319 C 500.970805 91.167319 524.350678 141.259097 544.37999 152.950803 C 564.420873 164.640196 582.791103 174.659014 582.791103 174.659014 L 522.680026 289.880052 C 522.680026 289.880052 505.980447 236.44944 502.639143 213.070655 C 499.300153 189.689556 499.300153 172.990754 499.300153 172.990754 Z M 500.970805 91.167319 " transform="matrix(1.688151,0,0,1.688229,-172.737695,-50.981651)"/>
<path style="fill:none;stroke-width:1;stroke-linecap:butt;stroke-linejoin:miter;stroke:rgb(0%,0%,0%);stroke-opacity:1;stroke-miterlimit:4;" d="M 106.870475 508.639677 C 110.209465 496.950285 205.399607 370.039854 205.399607 370.039854 " transform="matrix(1.688151,0,0,1.688229,-172.737695,-50.981651)"/>
<path style="fill:none;stroke-width:1;stroke-linecap:butt;stroke-linejoin:miter;stroke:rgb(0%,0%,0%);stroke-opacity:1;stroke-miterlimit:4;" d="M 365.710468 137.920262 L 489.280869 209.729506 L 382.400791 233.110605 " transform="matrix(1.688151,0,0,1.688229,-172.737695,-50.981651)"/>
<path style="fill:none;stroke-width:1;stroke-linecap:butt;stroke-linejoin:miter;stroke:rgb(0%,0%,0%);stroke-opacity:1;stroke-miterlimit:4;" d="M 385.739781 211.40008 L 494.290511 77.809666 " transform="matrix(1.688151,0,0,1.688229,-172.737695,-50.981651)"/>
<path style=" stroke:none;fill-rule:evenodd;fill:rgb(0%,0%,0%);fill-opacity:0.0862745;" d="M 137.933594 776.789062 L 262.753906 768.046875 L 373.160156 505.679688 C 373.160156 505.679688 291.554688 689.339844 253.148438 719.949219 C 214.742188 750.554688 137.933594 776.789062 137.933594 776.789062 Z M 137.933594 776.789062 "/>
<path style=" stroke:none;fill-rule:evenodd;fill:rgb(0%,0%,0%);fill-opacity:0.0862745;" d="M 217.96875 818.488281 L 389.382812 810.523438 L 393.367188 511.503906 C 393.367188 511.503906 369.460938 655.035156 341.539062 702.878906 C 313.636719 750.707031 217.96875 818.488281 217.96875 818.488281 Z M 217.96875 818.488281 "/>
<path style=" stroke:none;fill-rule:evenodd;fill:rgb(0%,0%,0%);fill-opacity:0.0862745;" d="M 293.714844 503.535156 C 293.714844 503.535156 309.652344 491.566406 341.539062 483.597656 C 373.445312 475.609375 385.398438 475.609375 385.398438 475.609375 C 385.398438 475.609375 385.398438 407.84375 389.382812 356.015625 C 393.367188 304.1875 397.367188 292.21875 397.367188 292.21875 C 397.367188 292.21875 365.460938 344.046875 345.542969 399.859375 C 325.605469 455.691406 293.714844 503.535156 293.714844 503.535156 Z M 293.714844 503.535156 "/>
<path style=" stroke:none;fill-rule:evenodd;fill:rgb(0%,0%,0%);fill-opacity:0.0862745;" d="M 660.484375 814.507812 L 1007.332031 738.753906 L 951.519531 543.394531 L 831.914062 244.375 C 831.914062 244.375 772.101562 531.441406 740.214844 615.160156 C 708.324219 698.878906 660.484375 814.507812 660.484375 814.507812 Z M 660.484375 814.507812 "/>
<path style=" stroke:none;fill-rule:evenodd;fill:rgb(0%,0%,0%);fill-opacity:0.0862745;" d="M 704.339844 431.765625 C 704.339844 431.765625 720.277344 383.921875 720.277344 316.140625 C 720.277344 248.359375 692.371094 212.484375 724.277344 220.453125 C 756.167969 228.4375 807.992188 248.359375 807.992188 248.359375 Z M 704.339844 431.765625 "/>
<path style=" stroke:none;fill-rule:evenodd;fill:rgb(0%,0%,0%);fill-opacity:0.282353;" d="M 225.9375 639.082031 C 225.9375 639.082031 281.746094 587.253906 313.636719 571.300781 C 345.542969 555.363281 341.539062 555.363281 341.539062 555.363281 L 309.652344 639.082031 C 309.652344 639.082031 293.714844 627.128906 265.792969 631.113281 C 237.886719 635.097656 225.9375 639.082031 225.9375 639.082031 Z M 225.9375 639.082031 "/>
<path style="fill:none;stroke-width:1;stroke-linecap:butt;stroke-linejoin:miter;stroke:rgb(0%,0%,0%);stroke-opacity:0.486275;stroke-miterlimit:4;" d="M 238.521093 408.749977 L 110.989257 510.300997 " transform="matrix(1.688151,0,0,1.688229,-172.737695,-50.981651)"/>
<path style=" stroke:none;fill-rule:evenodd;fill:rgb(0%,0%,0%);fill-opacity:0.160784;" d="M 186.0625 810.523438 C 186.0625 810.523438 325.605469 670.972656 353.507812 611.175781 C 381.414062 551.378906 393.367188 463.65625 393.367188 463.65625 L 393.367188 806.539062 L 237.886719 818.488281 Z M 186.0625 810.523438 "/>
<path style=" stroke:none;fill-rule:evenodd;fill:rgb(100%,100%,97.647059%);fill-opacity:0.756863;" d="M 405.335938 806.539062 C 405.335938 806.539062 449.195312 778.632812 457.160156 750.707031 C 465.128906 722.800781 429.257812 495.546875 429.257812 495.546875 C 429.257812 495.546875 453.179688 611.175781 473.113281 635.097656 C 493.035156 659.019531 512.972656 623.128906 512.972656 623.128906 L 536.894531 543.394531 C 536.894531 543.394531 532.910156 479.613281 520.957031 443.71875 C 508.988281 407.84375 429.257812 495.546875 429.257812 495.546875 Z M 405.335938 806.539062 "/>
<path style=" stroke:none;fill-rule:evenodd;fill:rgb(0%,0%,0%);fill-opacity:0.172549;" d="M 429.257812 491.566406 L 564.796875 367.96875 C 564.796875 367.96875 576.765625 360 560.816406 407.84375 C 544.863281 455.691406 501.019531 503.535156 477.097656 499.53125 Z M 429.257812 491.566406 "/>
<path style=" stroke:none;fill-rule:evenodd;fill:rgb(0%,0%,0%);fill-opacity:0.0862745;" d="M 433.242188 810.523438 L 644.53125 798.550781 L 624.609375 471.625 L 608.65625 360 C 608.65625 360 568.78125 419.796875 532.910156 531.441406 C 497.035156 643.066406 481.082031 682.941406 477.097656 718.816406 C 473.113281 754.707031 433.242188 810.523438 433.242188 810.523438 Z M 433.242188 810.523438 "/>
<path style=" stroke:none;fill-rule:evenodd;fill:rgb(0%,0%,0%);fill-opacity:0.0823529;" d="M 660.484375 774.628906 L 744.199219 563.332031 L 811.976562 292.21875 C 811.976562 292.21875 780.089844 379.9375 764.136719 439.734375 C 748.199219 499.53125 736.230469 571.300781 736.230469 571.300781 C 736.230469 571.300781 712.308594 591.238281 692.371094 647.050781 C 672.453125 702.878906 660.484375 774.628906 660.484375 774.628906 Z M 660.484375 774.628906 "/>
<path style=" stroke:none;fill-rule:evenodd;fill:rgb(0%,0%,0%);fill-opacity:0.0313725;" d="M 652.195312 737.488281 L 729.292969 543.644531 L 791.71875 294.953125 C 791.71875 294.953125 762.347656 375.414062 747.660156 430.28125 C 732.972656 485.132812 721.949219 550.972656 721.949219 550.972656 C 721.949219 550.972656 699.917969 569.257812 681.566406 620.460938 C 663.199219 671.664062 652.195312 737.488281 652.195312 737.488281 Z M 652.195312 737.488281 "/>
<path style=" stroke:none;fill-rule:evenodd;fill:rgb(0%,0%,0%);fill-opacity:0.0823529;" d="M 760.152344 794.566406 L 1007.332031 738.753906 L 931.582031 495.546875 C 931.582031 495.546875 959.488281 603.207031 939.550781 655.035156 C 919.613281 706.863281 760.152344 794.566406 760.152344 794.566406 Z M 760.152344 794.566406 "/>
<path style=" stroke:none;fill-rule:evenodd;fill:rgb(0%,0%,0%);fill-opacity:0.0823529;" d="M 512.972656 802.535156 L 644.53125 798.550781 L 632.578125 615.160156 C 632.578125 615.160156 640.546875 750.707031 620.609375 762.675781 C 600.6875 774.628906 512.972656 802.535156 512.972656 802.535156 Z M 512.972656 802.535156 "/>
<path style=" stroke:none;fill-rule:evenodd;fill:rgb(0%,0%,0%);fill-opacity:0.176471;" d="M 433.242188 495.546875 C 433.242188 495.546875 449.195312 387.90625 453.179688 340.0625 C 457.160156 292.21875 453.179688 236.40625 453.179688 236.40625 C 453.179688 236.40625 457.160156 288.234375 461.144531 320.125 C 465.128906 352.03125 469.113281 379.9375 469.113281 379.9375 C 469.113281 379.9375 469.113281 415.8125 457.160156 443.71875 C 445.210938 471.625 433.242188 495.546875 433.242188 495.546875 Z M 433.242188 495.546875 "/>
<path style="fill:none;stroke-width:4.6;stroke-linecap:butt;stroke-linejoin:miter;stroke:rgb(0%,0%,0%);stroke-opacity:1;stroke-miterlimit:4;" d="M 484.120822 512.661088 L 706.109286 467.789276 " transform="matrix(1.688151,0,0,1.688229,-172.737695,-50.981651)"/>
<path style="fill:none;stroke-width:3.7;stroke-linecap:butt;stroke-linejoin:miter;stroke:rgb(0%,0%,0%);stroke-opacity:1;stroke-miterlimit:4;" d="M 342.430095 510.300997 L 481.760621 503.209154 " transform="matrix(1.688151,0,0,1.688229,-172.737695,-50.981651)"/>
<path style="fill:none;stroke-width:3.1;stroke-linecap:butt;stroke-linejoin:miter;stroke:rgb(0%,0%,0%);stroke-opacity:1;stroke-miterlimit:4;" d="M 337.709693 507.940905 L 200.730112 517.378956 " transform="matrix(1.688151,0,0,1.688229,-172.737695,-50.981651)"/>
<path style=" stroke:none;fill-rule:evenodd;fill:rgb(0%,0%,0%);fill-opacity:0.172549;" d="M 712.308594 443.71875 C 712.308594 443.71875 728.261719 391.890625 772.101562 344.046875 C 815.960938 296.203125 843.867188 284.25 843.867188 284.25 C 843.867188 284.25 823.945312 244.375 811.976562 252.359375 C 800.027344 260.328125 712.308594 443.71875 712.308594 443.71875 Z M 712.308594 443.71875 "/>
<path style="fill:none;stroke-width:1.4;stroke-linecap:butt;stroke-linejoin:miter;stroke:rgb(0%,0%,0%);stroke-opacity:1;stroke-miterlimit:4;" d="M 495.931082 75.766568 L 498.288969 30.89707 " transform="matrix(1.688151,0,0,1.688229,-172.737695,-50.981651)"/>
<path style=" stroke:none;fill-rule:evenodd;fill:rgb(46.666667%,60%,92.156863%);fill-opacity:1;" d="M 809.816406 21.113281 C 809.816406 21.113281 769.960938 9.152344 742.054688 13.140625 C 714.148438 17.125 674.273438 5.164062 674.273438 5.164062 L 670.292969 76.929688 C 670.292969 76.929688 670.292969 49.023438 694.210938 49.023438 C 718.132812 49.023438 706.164062 64.96875 746.039062 45.035156 C 785.894531 25.101562 809.816406 21.113281 809.816406 21.113281 Z M 809.816406 21.113281 "/>
<path style=" stroke:none;fill-rule:evenodd;fill:rgb(0%,0%,0%);fill-opacity:0.211765;" d="M 690.835938 3.007812 L 710.773438 46.867188 C 710.773438 46.867188 722.726562 58.828125 730.691406 42.878906 C 738.679688 26.933594 730.691406 50.851562 718.742188 34.90625 C 706.773438 18.957031 690.835938 3.007812 690.835938 3.007812 Z M 690.835938 3.007812 "/>
<path style=" stroke:none;fill-rule:evenodd;fill:rgb(100%,100%,100%);fill-opacity:0.490196;" d="M 722.117188 13.140625 L 752.335938 13.140625 C 752.335938 13.140625 770.464844 37.0625 749.3125 37.0625 C 728.160156 37.0625 722.117188 13.140625 722.117188 13.140625 Z M 722.117188 13.140625 "/>
</g>
</svg>
