<?xml version="1.0" encoding="UTF-8"?>
<svg xmlns="http://www.w3.org/2000/svg" xmlns:xlink="http://www.w3.org/1999/xlink" width="479pt" height="200pt" viewBox="0 0 479 200" version="1.1">
<defs>
<linearGradient id="linear0" gradientUnits="userSpaceOnUse" x1="-57.143" y1="-307.64" x2="-58.571" y2="-257.96" gradientTransform="matrix(0.21171,0,0,0.22598,-188.99,179.3)">
<stop offset="0" style="stop-color:rgb(72.941176%,74.117647%,71.372549%);stop-opacity:1;"/>
<stop offset="1" style="stop-color:rgb(72.941176%,74.117647%,71.372549%);stop-opacity:0;"/>
</linearGradient>
<linearGradient id="linear1" gradientUnits="userSpaceOnUse" x1="-62.857" y1="-367.64" x2="-57.143" y2="-287.64" gradientTransform="matrix(0.20698,0,0,0.22609,-189.76,179.36)">
<stop offset="0" style="stop-color:rgb(72.941176%,74.117647%,71.372549%);stop-opacity:1;"/>
<stop offset="1" style="stop-color:rgb(72.941176%,74.117647%,71.372549%);stop-opacity:0;"/>
</linearGradient>
<linearGradient id="linear2" gradientUnits="userSpaceOnUse" x1="1311.4" y1="-154.5" x2="1317.1" y2="-77.352" >
<stop offset="0" style="stop-color:rgb(44.705882%,62.352941%,81.176471%);stop-opacity:1;"/>
<stop offset="1" style="stop-color:rgb(44.705882%,62.352941%,81.176471%);stop-opacity:0;"/>
</linearGradient>
<linearGradient id="linear3" gradientUnits="userSpaceOnUse" x1="1311.4" y1="-154.5" x2="1317.1" y2="-77.352" >
<stop offset="0" style="stop-color:rgb(44.705882%,62.352941%,81.176471%);stop-opacity:1;"/>
<stop offset="1" style="stop-color:rgb(44.705882%,62.352941%,81.176471%);stop-opacity:0;"/>
</linearGradient>
<linearGradient id="linear4" gradientUnits="userSpaceOnUse" x1="1311.4" y1="-154.5" x2="1317.1" y2="-77.352" >
<stop offset="0" style="stop-color:rgb(44.705882%,62.352941%,81.176471%);stop-opacity:1;"/>
<stop offset="1" style="stop-color:rgb(44.705882%,62.352941%,81.176471%);stop-opacity:0;"/>
</linearGradient>
<linearGradient id="linear5" gradientUnits="userSpaceOnUse" x1="1311.4" y1="-154.5" x2="1317.1" y2="-77.352" >
<stop offset="0" style="stop-color:rgb(44.705882%,62.352941%,81.176471%);stop-opacity:1;"/>
<stop offset="1" style="stop-color:rgb(44.705882%,62.352941%,81.176471%);stop-opacity:0;"/>
</linearGradient>
<linearGradient id="linear6" gradientUnits="userSpaceOnUse" x1="1311.4" y1="-154.5" x2="1317.1" y2="-77.352" >
<stop offset="0" style="stop-color:rgb(44.705882%,62.352941%,81.176471%);stop-opacity:1;"/>
<stop offset="1" style="stop-color:rgb(44.705882%,62.352941%,81.176471%);stop-opacity:0;"/>
</linearGradient>
<linearGradient id="linear7" gradientUnits="userSpaceOnUse" x1="1311.4" y1="-154.5" x2="1317.1" y2="-77.352" >
<stop offset="0" style="stop-color:rgb(44.705882%,62.352941%,81.176471%);stop-opacity:1;"/>
<stop offset="1" style="stop-color:rgb(44.705882%,62.352941%,81.176471%);stop-opacity:0;"/>
</linearGradient>
<linearGradient id="linear8" gradientUnits="userSpaceOnUse" x1="1311.4" y1="-154.5" x2="1317.1" y2="-77.352" >
<stop offset="0" style="stop-color:rgb(44.705882%,62.352941%,81.176471%);stop-opacity:1;"/>
<stop offset="1" style="stop-color:rgb(44.705882%,62.352941%,81.176471%);stop-opacity:0;"/>
</linearGradient>
<linearGradient id="linear9" gradientUnits="userSpaceOnUse" x1="14.286" y1="-581.92" x2="14.857" y2="-426.74" gradientTransform="matrix(0.22558,0,0,0.22558,-190.12,178.28)">
<stop offset="0" style="stop-color:rgb(44.705882%,62.352941%,81.176471%);stop-opacity:1;"/>
<stop offset="1" style="stop-color:rgb(44.705882%,62.352941%,81.176471%);stop-opacity:0;"/>
</linearGradient>
<linearGradient id="linear10" gradientUnits="userSpaceOnUse" x1="14.286" y1="-581.92" x2="14.857" y2="-426.74" gradientTransform="matrix(0.22558,0,0,0.22558,-189.92,216.24)">
<stop offset="0" style="stop-color:rgb(44.705882%,62.352941%,81.176471%);stop-opacity:1;"/>
<stop offset="1" style="stop-color:rgb(44.705882%,62.352941%,81.176471%);stop-opacity:0;"/>
</linearGradient>
<linearGradient id="linear11" gradientUnits="userSpaceOnUse" x1="-265.71" y1="-570.49" x2="-257.14" y2="-447.64" gradientTransform="matrix(-0.22558,0,0,0.22558,189.22,179.18)">
<stop offset="0" style="stop-color:rgb(88.627451%,36.862745%,8.235294%);stop-opacity:1;"/>
<stop offset="1" style="stop-color:rgb(44.705882%,62.352941%,81.176471%);stop-opacity:0;"/>
</linearGradient>
<filter id="alpha" filterUnits="objectBoundingBox" x="0%" y="0%" width="100%" height="100%">
  <feColorMatrix type="matrix" in="SourceGraphic" values="0 0 0 0 1 0 0 0 0 1 0 0 0 0 1 0 0 0 1 0"/>
</filter>
<mask id="mask0">
  <g filter="url(#alpha)">
<rect x="0" y="0" width="479" height="200" style="fill:rgb(0%,0%,0%);fill-opacity:0.337255;stroke:none;"/>
  </g>
</mask>
<clipPath id="clip1">
  <rect width="479" height="200"/>
</clipPath>
<g id="surface6" clip-path="url(#clip1)">
<path style="fill-rule:evenodd;fill:rgb(72.941176%,74.117647%,71.372549%);fill-opacity:1;stroke-width:0.22558;stroke-linecap:butt;stroke-linejoin:miter;stroke:rgb(0%,0%,0%);stroke-opacity:1;stroke-miterlimit:4;" d="M 279.250267 77.430875 L 281.188876 82.586461 L 281.188876 94.83357 L 277.9694 96.121891 L 226.40009 96.764898 L 223.180615 92.899937 L 223.829126 88.387359 L 258.629466 87.742047 L 257.990187 77.430875 Z M 279.250267 77.430875 " transform="matrix(1.69258,0,0,1.694915,-16.805622,-57.676271)"/>
</g>
<linearGradient id="linear12" gradientUnits="userSpaceOnUse" x1="60.144" y1="-212.17" x2="297.02" y2="-71.169" gradientTransform="matrix(1,0.000000000000000028,0,1,0.000000000000227374,-0.000000000000227374)">
<stop offset="0" style="stop-color:rgb(53.333333%,54.117647%,52.156863%);stop-opacity:1;"/>
<stop offset="1" style="stop-color:rgb(53.333333%,54.117647%,52.156863%);stop-opacity:0;"/>
</linearGradient>
<linearGradient id="linear13" gradientUnits="userSpaceOnUse" x1="79.27" y1="-215.89" x2="313.03" y2="-24.49" gradientTransform="matrix(1,-0.000000000000000028,-0.000000000000000028,1,0,-0.000000000000113687)">
<stop offset="0" style="stop-color:rgb(53.333333%,54.117647%,52.156863%);stop-opacity:1;"/>
<stop offset="1" style="stop-color:rgb(53.333333%,54.117647%,52.156863%);stop-opacity:0;"/>
</linearGradient>
<linearGradient id="linear14" gradientUnits="userSpaceOnUse" x1="414.29" y1="-196.21" x2="411.43" y2="-396.21" gradientTransform="matrix(-0.22558,0,0,0.22558,189.22,179.18)">
<stop offset="0" style="stop-color:rgb(92.941176%,83.137255%,0%);stop-opacity:1;"/>
<stop offset="1" style="stop-color:rgb(92.941176%,83.137255%,0%);stop-opacity:0;"/>
</linearGradient>
<linearGradient id="linear15" gradientUnits="userSpaceOnUse" x1="748.57" y1="-296.21" x2="731.43" y2="-464.78" gradientTransform="matrix(-0.22558,0,0,0.22558,189.22,179.18)">
<stop offset="0" style="stop-color:rgb(92.941176%,83.137255%,0%);stop-opacity:1;"/>
<stop offset="1" style="stop-color:rgb(92.941176%,83.137255%,0%);stop-opacity:0;"/>
</linearGradient>
<linearGradient id="linear16" gradientUnits="userSpaceOnUse" x1="-282.86" y1="-293.35" x2="-274.39" y2="-200.16" gradientTransform="matrix(-0.381812,0,0,0.382339,303.464272,246.018644)">
<stop offset="0" style="stop-color:rgb(91.372549%,72.54902%,43.137255%);stop-opacity:1;"/>
<stop offset="1" style="stop-color:rgb(91.372549%,72.54902%,43.137255%);stop-opacity:0;"/>
</linearGradient>
</defs>
<g id="surface1">
<path style="fill-rule:nonzero;fill:rgb(18.039216%,20.392157%,21.176471%);fill-opacity:1;stroke-width:1.805;stroke-linecap:butt;stroke-linejoin:miter;stroke:rgb(80.784314%,63.137255%,91.372549%);stroke-opacity:1;stroke-miterlimit:4;" d="M 248.367951 -145.743745 C 250.902706 -104.412068 229.861882 -66.961357 199.121741 -58.120232 C 168.3816 -49.279107 137.418847 -71.762432 126.651903 -110.734018 C 115.884959 -149.705604 128.655405 -193.176362 156.509323 -212.443914 C 184.377999 -231.71363 218.76081 -220.859977 236.974382 -187.034479 " transform="matrix(-0.2591,0.0432525,0.0380052,0.294864,322.99664,179.950847)"/>
<path style="fill-rule:nonzero;fill:rgb(18.039216%,20.392157%,21.176471%);fill-opacity:1;stroke-width:1.805;stroke-linecap:butt;stroke-linejoin:miter;stroke:rgb(80.784314%,63.137255%,91.372549%);stroke-opacity:1;stroke-miterlimit:4;" d="M 248.3764 -145.750754 C 250.899872 -104.405254 229.858121 -66.971313 199.12254 -58.120269 C 168.383828 -49.286066 137.408295 -71.751439 126.653815 -110.73018 C 115.882472 -149.705785 128.651073 -193.162918 156.506411 -212.437352 C 184.378612 -231.714921 218.760969 -220.859371 236.964306 -187.04641 " transform="matrix(-0.223894,0.0416881,0.0416307,0.224203,132.666074,129.120339)"/>
<path style="fill-rule:nonzero;fill:rgb(18.039216%,20.392157%,21.176471%);fill-opacity:1;stroke-width:1.805;stroke-linecap:butt;stroke-linejoin:miter;stroke:rgb(80.784314%,63.137255%,91.372549%);stroke-opacity:1;stroke-miterlimit:4;" d="M 248.370296 -145.744894 C 250.910633 -104.40253 229.852018 -66.965454 199.116437 -58.11441 C 168.377725 -49.280206 137.415924 -71.765556 126.644581 -110.741161 C 115.893233 -149.703061 128.641838 -193.173899 156.517171 -212.434628 C 184.372509 -231.709062 218.754866 -220.853511 236.975067 -187.043686 " transform="matrix(-0.223894,0.0416881,0.0416307,0.224203,121.320714,131.30678)"/>
<path style="fill-rule:evenodd;fill:rgb(93.72549%,16.078431%,16.078431%);fill-opacity:1;stroke-width:0.22558;stroke-linecap:butt;stroke-linejoin:miter;stroke:rgb(0%,0%,0%);stroke-opacity:1;stroke-miterlimit:4;" d="M 193.729912 130.411031 C 7.459581 89.161734 11.329876 90.450055 11.329876 90.450055 L 11.124476 39.115445 L 12.610743 37.409977 L 16.028695 34.413883 L 21.763747 34.257164 L 34.129303 34.780328 L 58.865032 35.828961 L 108.329566 37.923922 L 157.801023 40.016578 L 182.529829 41.065211 L 194.900001 41.588375 L 201.080471 41.851109 L 208.55104 47.589781 L 209.841138 53.068023 L 212.419026 64.024508 L 214.999223 74.980992 L 217.570188 85.939781 L 216.930908 138.790875 L 207.909452 137.820602 L 198.881073 136.859547 L 196.310108 133.63068 Z M 193.729912 130.411031 " transform="matrix(1.69258,0,0,1.694915,-16.805622,-57.676271)"/>
<path style="fill-rule:nonzero;fill:rgb(18.039216%,20.392157%,21.176471%);fill-opacity:1;stroke-width:2.472;stroke-linecap:butt;stroke-linejoin:miter;stroke:rgb(80.784314%,63.137255%,91.372549%);stroke-opacity:1;stroke-miterlimit:4;" d="M -299.242551 -316.131403 C -293.738371 -290.528305 -299.283474 -262.759262 -313.442927 -244.982171 C -327.602379 -227.20508 -347.787783 -222.679073 -365.159712 -233.386195 C -382.521411 -244.0831 -393.88785 -268.061739 -394.276621 -294.80911 " transform="matrix(0.381812,0,0,-0.382339,391.816922,36.232203)"/>
<path style="fill-rule:nonzero;fill:rgb(18.039216%,20.392157%,21.176471%);fill-opacity:1;stroke-width:2.1251;stroke-linecap:butt;stroke-linejoin:miter;stroke:rgb(80.784314%,63.137255%,91.372549%);stroke-opacity:1;stroke-miterlimit:4;" d="M -297.296624 -301.742277 C -295.248933 -266.125473 -312.907254 -234.261605 -337.889082 -228.511914 C -362.858864 -222.750196 -386.78071 -245.027238 -392.863556 -279.705808 " transform="matrix(0.324298,0,0,-0.324746,176.080739,15.444068)"/>
<path style="fill-rule:evenodd;fill:rgb(82.745098%,84.313725%,81.176471%);fill-opacity:1;stroke-width:0.22558;stroke-linecap:butt;stroke-linejoin:miter;stroke:rgb(0%,0%,0%);stroke-opacity:1;stroke-miterlimit:4;" d="M 180.18965 46.624117 L 178.899552 122.681109 L 213.060614 129.120406 L 213.060614 82.715523 L 204.680745 48.55775 Z M 180.18965 46.624117 " transform="matrix(1.69258,0,0,1.694915,-16.805622,-57.676271)"/>
<path style="fill:none;stroke-width:1.3535;stroke-linecap:butt;stroke-linejoin:miter;stroke:rgb(0%,0%,0%);stroke-opacity:1;stroke-miterlimit:4;" d="M 266.559301 47.718844 L 291.050395 48.364156 L 289.760297 78.656969 L 282.02894 82.52193 " transform="matrix(1.69258,0,0,1.694915,-16.805622,-57.676271)"/>
<path style="fill-rule:nonzero;fill:rgb(33.333333%,34.117647%,32.54902%);fill-opacity:1;stroke-width:0.40717;stroke-linecap:butt;stroke-linejoin:miter;stroke:rgb(80.784314%,63.137255%,91.372549%);stroke-opacity:1;stroke-miterlimit:4;" d="M -292.718984 50.747203 L -288.20941 50.747203 L -288.20941 73.305484 L -292.718984 73.305484 Z M -292.718984 50.747203 " transform="matrix(-1.69258,0,0,1.694915,-16.805622,-57.676271)"/>
<path style="fill:none;stroke-width:0.22558;stroke-linecap:butt;stroke-linejoin:miter;stroke:rgb(0%,0%,0%);stroke-opacity:1;stroke-miterlimit:4;" d="M 191.788995 47.267125 L 190.510436 125.250836 " transform="matrix(1.69258,0,0,1.694915,-16.805622,-57.676271)"/>
<path style="fill:none;stroke-width:0.22558;stroke-linecap:butt;stroke-linejoin:miter;stroke:rgb(0%,0%,0%);stroke-opacity:1;stroke-miterlimit:4;" d="M 209.199551 92.383688 L 194.369191 90.450055 L 195.659289 76.271617 L 193.079093 65.315133 L 198.239486 64.66982 L 197.590975 61.447867 L 203.399878 61.447867 L 205.970843 64.024508 L 208.55104 64.024508 " transform="matrix(1.69258,0,0,1.694915,-16.805622,-57.676271)"/>
<path style="fill:none;stroke-width:0.22558;stroke-linecap:butt;stroke-linejoin:miter;stroke:rgb(0%,0%,0%);stroke-opacity:1;stroke-miterlimit:4;" d="M 209.199551 91.738375 L 209.199551 79.49357 L 195.659289 78.848258 " transform="matrix(1.69258,0,0,1.694915,-16.805622,-57.676271)"/>
<path style="fill:none;stroke-width:0.22558;stroke-linecap:butt;stroke-linejoin:miter;stroke:rgb(0%,0%,0%);stroke-opacity:1;stroke-miterlimit:4;" d="M 209.841138 79.49357 Z M 209.841138 79.49357 " transform="matrix(1.69258,0,0,1.694915,-16.805622,-57.676271)"/>
<path style="fill:none;stroke-width:0.22558;stroke-linecap:butt;stroke-linejoin:miter;stroke:rgb(0%,0%,0%);stroke-opacity:1;stroke-miterlimit:4;" d="M 209.199551 91.738375 Z M 209.199551 91.738375 " transform="matrix(1.69258,0,0,1.694915,-16.805622,-57.676271)"/>
<path style="fill:none;stroke-width:0.22558;stroke-linecap:butt;stroke-linejoin:miter;stroke:rgb(0%,0%,0%);stroke-opacity:1;stroke-miterlimit:4;" d="M 208.55104 91.738375 L 213.060614 91.095367 L 213.709125 91.095367 " transform="matrix(1.69258,0,0,1.694915,-16.805622,-57.676271)"/>
<path style="fill-rule:evenodd;fill:rgb(18.039216%,20.392157%,21.176471%);fill-opacity:1;stroke-width:0.22558;stroke-linecap:butt;stroke-linejoin:miter;stroke:rgb(0%,0%,0%);stroke-opacity:1;stroke-miterlimit:4;" d="M 209.199551 79.49357 L 212.419026 78.848258 " transform="matrix(1.69258,0,0,1.694915,-16.805622,-57.676271)"/>
<path style="fill-rule:evenodd;fill:rgb(18.039216%,20.392157%,21.176471%);fill-opacity:1;stroke-width:0.22558;stroke-linecap:butt;stroke-linejoin:miter;stroke:rgb(0%,0%,0%);stroke-opacity:1;stroke-miterlimit:4;" d="M 199.529584 78.202945 L 198.881073 70.470719 L 196.949388 64.024508 " transform="matrix(1.69258,0,0,1.694915,-16.805622,-57.676271)"/>
<path style="fill-rule:evenodd;fill:rgb(33.333333%,34.117647%,32.54902%);fill-opacity:1;stroke-width:0.22558;stroke-linecap:butt;stroke-linejoin:miter;stroke:rgb(0%,0%,0%);stroke-opacity:1;stroke-miterlimit:4;" d="M 195.02001 90.450055 L 195.659289 94.962633 L 209.841138 95.605641 L 209.199551 91.095367 " transform="matrix(1.69258,0,0,1.694915,-16.805622,-57.676271)"/>
<path style="fill-rule:nonzero;fill:rgb(18.039216%,20.392157%,21.176471%);fill-opacity:1;stroke-width:1.805;stroke-linecap:butt;stroke-linejoin:miter;stroke:rgb(80.784314%,63.137255%,91.372549%);stroke-opacity:1;stroke-miterlimit:4;" d="M 248.36979 -145.74982 C 250.910126 -104.407456 229.851511 -66.97038 199.11593 -58.119336 C 168.377218 -49.285132 137.418549 -71.753641 126.647206 -110.729246 C 115.892726 -149.707987 128.644463 -193.161985 156.516665 -212.439554 C 184.372003 -231.713988 218.75436 -220.858437 236.97456 -187.048612 " transform="matrix(-0.223894,0.0416881,0.0416307,0.224203,111.562993,132.171186)"/>
<path style="fill-rule:nonzero;fill:url(#linear0);stroke-width:0.4823;stroke-linecap:butt;stroke-linejoin:miter;stroke:rgb(10.980392%,7.058824%,13.72549%);stroke-opacity:1;stroke-miterlimit:4;" d="M -211.968992 107.200523 L -190.798919 107.200523 L -190.798919 115.594195 L -211.968992 115.594195 Z M -211.968992 107.200523 " transform="matrix(-1.69258,0,0,1.694915,-16.805622,-57.676271)"/>
<path style="fill-rule:nonzero;fill:url(#linear1);stroke-width:0.47699;stroke-linecap:butt;stroke-linejoin:miter;stroke:rgb(10.980392%,7.058824%,13.72549%);stroke-opacity:1;stroke-miterlimit:4;" d="M -212.239013 98.173062 L -190.951239 98.173062 L -190.951239 107.216656 L -212.239013 107.216656 Z M -212.239013 98.173062 " transform="matrix(-1.69258,0,0,1.694915,-16.805622,-57.676271)"/>
<path style="fill-rule:evenodd;fill:rgb(93.333333%,93.333333%,92.54902%);fill-opacity:1;stroke-width:0.90232;stroke-linecap:butt;stroke-linejoin:miter;stroke:rgb(0%,0%,0%);stroke-opacity:1;stroke-miterlimit:4;" d="M 173.429905 52.231422 L 172.779086 80.588297 L 19.388951 61.897281 L 20.032846 40.629625 L 173.432213 52.231422 Z M 173.429905 52.231422 " transform="matrix(1.69258,0,0,1.694915,-16.805622,-57.676271)"/>
<path style="fill-rule:nonzero;fill:rgb(82.745098%,84.313725%,81.176471%);fill-opacity:1;stroke-width:1.3535;stroke-linecap:butt;stroke-linejoin:miter;stroke:rgb(10.980392%,7.058824%,13.72549%);stroke-opacity:1;stroke-miterlimit:4;" d="M -190.50582 47.075836 L -182.12826 47.075836 C -181.059717 47.075836 -180.194266 47.940094 -180.194266 49.009469 L -180.194266 121.837594 C -180.194266 122.906969 -181.059717 123.771227 -182.12826 123.771227 L -190.50582 123.771227 C -191.574363 123.771227 -192.439814 122.906969 -192.439814 121.837594 L -192.439814 49.009469 C -192.439814 47.940094 -191.574363 47.075836 -190.50582 47.075836 Z M -190.50582 47.075836 " transform="matrix(-1.69258,0,0,1.694915,-16.805622,-57.676271)"/>
<path style="fill-rule:evenodd;fill:rgb(64.313725%,0%,0%);fill-opacity:1;stroke-width:0.22558;stroke-linecap:butt;stroke-linejoin:miter;stroke:rgb(0%,0%,0%);stroke-opacity:1;stroke-miterlimit:4;" d="M 216.930908 138.790875 L 217.570188 83.360836 L 207.909452 47.267125 L 200.168863 41.466227 L 20.999843 34.377008 L 262.049727 42.111539 L 268.490986 47.912437 L 283.309806 84.006148 L 282.670527 130.411031 Z M 216.930908 138.790875 " transform="matrix(1.69258,0,0,1.694915,-16.805622,-57.676271)"/>
<path style="fill-rule:evenodd;fill:rgb(82.745098%,84.313725%,81.176471%);fill-opacity:1;stroke-width:0.22558;stroke-linecap:butt;stroke-linejoin:miter;stroke:rgb(0%,0%,0%);stroke-opacity:1;stroke-miterlimit:4;" d="M 217.570188 130.860445 L 286.540822 123.130523 L 286.540822 130.219742 L 214.999223 138.599586 L 213.709125 130.860445 Z M 217.570188 130.860445 " transform="matrix(1.69258,0,0,1.694915,-16.805622,-57.676271)"/>
<path style="fill-rule:nonzero;fill:rgb(18.039216%,20.392157%,21.176471%);fill-opacity:1;stroke-width:1.805;stroke-linecap:butt;stroke-linejoin:miter;stroke:rgb(80.784314%,63.137255%,91.372549%);stroke-opacity:1;stroke-miterlimit:4;" d="M 248.369724 -145.753211 C 250.906382 -104.408565 229.863656 -66.970823 199.125417 -58.11673 C 168.385276 -49.275605 137.407764 -71.756765 126.655579 -110.730516 C 115.886733 -149.71507 128.644323 -193.170695 156.512999 -212.440411 C 184.381675 -231.710128 218.749727 -220.85431 236.976156 -187.043945 " transform="matrix(-0.2591,0.0432525,0.0380052,0.294864,312.231834,181.035593)"/>
<path style="fill-rule:evenodd;fill:url(#linear2);stroke-width:4;stroke-linecap:butt;stroke-linejoin:miter;stroke:rgb(0%,0%,0%);stroke-opacity:1;stroke-miterlimit:4;" d="M 991.427541 -147.067213 L 994.29217 -21.350484 L 1674.303959 -104.208076 L 1671.398407 -198.498177 Z M 991.427541 -147.067213 " transform="matrix(-0.381812,0,0,0.382339,655.808548,85.877966)"/>
<path style="fill-rule:evenodd;fill:url(#linear3);stroke-width:4;stroke-linecap:butt;stroke-linejoin:miter;stroke:rgb(0%,0%,0%);stroke-opacity:1;stroke-miterlimit:4;" d="M 1097.101662 -155.63904 L 1105.695549 -35.643674 " transform="matrix(-0.381812,0,0,0.382339,655.808548,85.877966)"/>
<path style="fill-rule:evenodd;fill:url(#linear4);stroke-width:4;stroke-linecap:butt;stroke-linejoin:miter;stroke:rgb(0%,0%,0%);stroke-opacity:1;stroke-miterlimit:4;" d="M 1188.595868 -161.350186 L 1194.304665 -47.065966 " transform="matrix(-0.381812,0,0,0.382339,655.808548,85.877966)"/>
<path style="fill-rule:evenodd;fill:url(#linear5);stroke-width:4;stroke-linecap:butt;stroke-linejoin:miter;stroke:rgb(0%,0%,0%);stroke-opacity:1;stroke-miterlimit:4;" d="M 1279.997997 -169.922014 L 1282.90355 -55.637793 " transform="matrix(-0.381812,0,0,0.382339,655.808548,85.877966)"/>
<path style="fill-rule:evenodd;fill:url(#linear6);stroke-width:4;stroke-linecap:butt;stroke-linejoin:miter;stroke:rgb(0%,0%,0%);stroke-opacity:1;stroke-miterlimit:4;" d="M 1354.30443 -175.643376 L 1357.097443 -64.209621 " transform="matrix(-0.381812,0,0,0.382339,655.808548,85.877966)"/>
<path style="fill-rule:evenodd;fill:url(#linear7);stroke-width:4;stroke-linecap:butt;stroke-linejoin:miter;stroke:rgb(0%,0%,0%);stroke-opacity:1;stroke-miterlimit:4;" d="M 1431.403875 -184.204987 L 1434.299197 -75.642129 " transform="matrix(-0.381812,0,0,0.382339,655.808548,85.877966)"/>
<path style="fill-rule:evenodd;fill:url(#linear8);stroke-width:4;stroke-linecap:butt;stroke-linejoin:miter;stroke:rgb(0%,0%,0%);stroke-opacity:1;stroke-miterlimit:4;" d="M 1505.700076 -187.065668 L 1511.398642 -84.213957 " transform="matrix(-0.381812,0,0,0.382339,655.808548,85.877966)"/>
<path style="fill:none;stroke-width:4;stroke-linecap:butt;stroke-linejoin:miter;stroke:rgb(0%,0%,0%);stroke-opacity:1;stroke-miterlimit:4;" d="M 1582.90183 -192.776814 L 1582.90183 -89.925103 " transform="matrix(-0.381812,0,0,0.382339,655.808548,85.877966)"/>
<path style="fill:none;stroke-width:4;stroke-linecap:butt;stroke-linejoin:miter;stroke:rgb(0%,0%,0%);stroke-opacity:1;stroke-miterlimit:4;" d="M 1631.395908 -198.498177 L 1631.395908 -101.347395 " transform="matrix(-0.381812,0,0,0.382339,655.808548,85.877966)"/>
<path style="fill:none;stroke-width:0.22558;stroke-linecap:butt;stroke-linejoin:miter;stroke:rgb(0%,0%,0%);stroke-opacity:1;stroke-miterlimit:4;" d="M 188.311038 52.102359 C 188.101022 52.102359 187.879466 52.102359 188.311038 52.102359 Z M 188.311038 52.102359 " transform="matrix(1.69258,0,0,1.694915,-16.805622,-57.676271)"/>
<path style="fill-rule:nonzero;fill:url(#linear9);stroke-width:0.67787;stroke-linecap:butt;stroke-linejoin:miter;stroke:rgb(16.470588%,11.372549%,19.607843%);stroke-opacity:1;stroke-miterlimit:4;" d="M -188.375658 50.233258 L -185.153874 50.233258 C -184.085332 50.233258 -183.219881 51.097516 -183.219881 52.166891 L -183.219881 79.880758 C -183.219881 80.947828 -184.085332 81.814391 -185.153874 81.814391 L -188.375658 81.814391 C -189.444201 81.814391 -190.309651 80.947828 -190.309651 79.880758 L -190.309651 52.166891 C -190.309651 51.097516 -189.444201 50.233258 -188.375658 50.233258 Z M -188.375658 50.233258 " transform="matrix(-1.69258,0,0,1.694915,-16.805622,-57.676271)"/>
<path style="fill-rule:nonzero;fill:url(#linear10);stroke-width:0.67787;stroke-linecap:butt;stroke-linejoin:miter;stroke:rgb(16.470588%,11.372549%,19.607843%);stroke-opacity:1;stroke-miterlimit:4;" d="M -188.186413 88.193766 L -184.964629 88.193766 C -183.896086 88.193766 -183.030636 89.060328 -183.030636 90.127398 L -183.030636 117.841266 C -183.030636 118.908336 -183.896086 119.774898 -184.964629 119.774898 L -188.186413 119.774898 C -189.254956 119.774898 -190.120406 118.908336 -190.120406 117.841266 L -190.120406 90.127398 C -190.120406 89.060328 -189.254956 88.193766 -188.186413 88.193766 Z M -188.186413 88.193766 " transform="matrix(-1.69258,0,0,1.694915,-16.805622,-57.676271)"/>
<path style="fill-rule:evenodd;fill:rgb(93.333333%,93.333333%,92.54902%);fill-opacity:1;stroke-width:0.22558;stroke-linecap:butt;stroke-linejoin:miter;stroke:rgb(0%,0%,0%);stroke-opacity:1;stroke-miterlimit:4;" d="M 212.419026 47.912437 L 222.088993 84.649156 L 222.088993 93.029 L 225.950056 98.184586 L 239.970354 97.700602 L 253.990652 97.218922 L 268.01095 96.734938 L 278.23942 96.492945 L 282.02894 91.738375 L 282.02894 83.360836 L 267.200888 47.912437 Z M 212.419026 47.912437 " transform="matrix(1.69258,0,0,1.694915,-16.805622,-57.676271)"/>
<path style="fill-rule:evenodd;fill:url(#linear11);stroke-width:1.3535;stroke-linecap:butt;stroke-linejoin:miter;stroke:rgb(0%,0%,0%);stroke-opacity:1;stroke-miterlimit:4;" d="M 212.419026 47.589781 L 222.088993 84.3265 L 222.088993 92.706344 L 225.950056 97.86193 L 253.990652 96.893961 L 268.01095 96.412281 L 278.23942 96.170289 L 282.02894 91.418023 L 282.02894 83.03818 L 267.200888 47.589781 Z M 212.419026 47.589781 " transform="matrix(1.69258,0,0,1.694915,-16.805622,-57.676271)"/>
<use xlink:href="#surface6" mask="url(#mask0)"/>
<path style="fill:none;stroke-width:0.22558;stroke-linecap:butt;stroke-linejoin:miter;stroke:rgb(0%,0%,0%);stroke-opacity:1;stroke-miterlimit:4;" d="M 259.529535 78.656969 L 264.689928 84.455562 L 264.689928 95.412047 " transform="matrix(1.69258,0,0,1.694915,-16.805622,-57.676271)"/>
<path style="fill:none;stroke-width:6;stroke-linecap:butt;stroke-linejoin:miter;stroke:rgb(0%,0%,0%);stroke-opacity:1;stroke-miterlimit:4;" d="M -106.013235 -581.791348 L -172.083858 -578.930666 L -168.595149 -444.376475 L -147.744742 -427.202171 " transform="matrix(-0.381812,0,0,0.382339,303.464272,246.781356)"/>
<path style="fill-rule:nonzero;fill:rgb(33.333333%,34.117647%,32.54902%);fill-opacity:1;stroke-width:2.4313;stroke-linecap:butt;stroke-linejoin:miter;stroke:rgb(80.784314%,63.137255%,91.372549%);stroke-opacity:1;stroke-miterlimit:4;" d="M -182.826217 -565.321996 L -146.312427 -565.321996 L -146.312427 -465.943969 L -182.826217 -465.943969 Z M -182.826217 -565.321996 " transform="matrix(-0.381812,0,0,0.382339,303.464272,246.781356)"/>
<path style="fill-rule:nonzero;fill:url(#linear12);stroke-width:1.805;stroke-linecap:butt;stroke-linejoin:miter;stroke:rgb(80.784314%,63.137255%,91.372549%);stroke-opacity:1;stroke-miterlimit:4;" d="M 248.365983 -145.745386 C 250.906632 -104.404368 229.856718 -66.964172 199.131351 -58.122985 C 168.380436 -49.27805 137.420324 -71.750766 126.63894 -110.736368 C 115.886396 -149.703269 128.640069 -193.173097 156.504965 -212.441629 C 184.36986 -231.71016 218.765955 -220.863581 236.95782 -187.046931 " transform="matrix(-0.149676,0.0249864,0.0219544,0.170339,287.909466,166.120339)"/>
<path style="fill-rule:nonzero;fill:url(#linear13);stroke-width:1.805;stroke-linecap:butt;stroke-linejoin:miter;stroke:rgb(80.784314%,63.137255%,91.372549%);stroke-opacity:1;stroke-miterlimit:4;" d="M 248.383789 -145.74891 C 250.918697 -104.404489 229.867793 -66.95483 199.111393 -58.130799 C 168.388932 -49.283507 137.408503 -71.764858 126.640947 -110.720878 C 115.896699 -149.710805 128.665301 -193.161471 156.499922 -212.443257 C 184.368482 -231.701781 218.753001 -220.854428 236.974718 -187.040178 " transform="matrix(-0.131908,0.024561,0.0245272,0.13209,90.334661,121.967797)"/>
<path style="fill-rule:evenodd;fill:url(#linear14);stroke-width:0.22558;stroke-linecap:butt;stroke-linejoin:miter;stroke:rgb(0%,0%,0%);stroke-opacity:1;stroke-miterlimit:4;" d="M 152.670633 121.390484 L 55.994044 100.120523 C 59.508927 97.571539 63.690784 97.917242 67.598004 98.892125 C 70.554383 99.63193 74.186967 101.47107 77.263355 101.47107 C 84.399283 101.47107 95.592443 93.374703 101.110555 98.892125 C 103.480735 101.259039 105.299335 102.049547 108.851144 102.759391 C 111.830602 103.360914 121.189006 102.899977 123.019145 105.340641 C 125.359324 108.449664 127.42025 112.429859 132.049833 112.429859 C 135.490864 112.429859 140.339694 111.600172 143.649177 112.429859 C 147.069437 113.280289 147.939504 115.589586 150.090437 118.230758 C 150.948963 119.279391 151.809798 120.330328 152.670633 121.390484 Z M 152.670633 121.390484 " transform="matrix(1.69258,0,0,1.694915,-16.805622,-57.676271)"/>
<path style="fill-rule:evenodd;fill:url(#linear15);stroke-width:0.22558;stroke-linecap:butt;stroke-linejoin:miter;stroke:rgb(0%,0%,0%);stroke-opacity:1;stroke-miterlimit:4;" d="M 38.398859 96.702672 L 10.042086 90.256461 C 12.788448 89.212437 17.256481 88.258297 20.35364 89.032672 C 22.197626 89.493609 25.430949 91.609312 28.087305 91.609312 C 31.239853 91.609312 34.12238 91.464117 35.820971 93.542945 C 36.681805 94.596187 37.540332 95.64943 38.398859 96.702672 Z M 38.398859 96.702672 " transform="matrix(1.69258,0,0,1.694915,-16.805622,-57.676271)"/>
<path style="fill:none;stroke-width:0.22558;stroke-linecap:butt;stroke-linejoin:miter;stroke:rgb(0%,0%,0%);stroke-opacity:1;stroke-miterlimit:4;" d="M 156.349374 151.549625 Z M 156.349374 151.549625 " transform="matrix(1.69258,0,0,1.694915,-16.805622,-57.676271)"/>
<path style=" stroke:none;fill-rule:evenodd;fill:url(#linear16);" d="M 358.117188 143.390625 L 419.523438 150.917969 L 458.335938 137.441406 L 456.796875 125.476562 L 358.761719 131.339844 Z M 358.117188 143.390625 "/>
<path style=" stroke:none;fill-rule:evenodd;fill:rgb(18.039216%,20.392157%,21.176471%);fill-opacity:1;" d="M 358.320312 131.679688 L 382.320312 130.578125 L 382.320312 145.882812 L 358.320312 142.59375 Z M 358.320312 131.679688 "/>
<path style=" stroke:none;fill-rule:evenodd;fill:rgb(18.039216%,20.392157%,21.176471%);fill-opacity:1;" d="M 459.128906 125.121094 L 458.03125 138.238281 L 446.03125 141.511719 L 446.03125 126.222656 Z M 459.128906 125.121094 "/>
<path style="fill:none;stroke-width:1.3535;stroke-linecap:butt;stroke-linejoin:miter;stroke:rgb(76.470588%,65.882353%,65.882353%);stroke-opacity:1;stroke-miterlimit:4;" d="M 274.029869 110.749742 L 235.359234 113.330992 " transform="matrix(1.69258,0,0,1.694915,-16.805622,-57.676271)"/>
<path style="fill:none;stroke-width:1.3535;stroke-linecap:butt;stroke-linejoin:miter;stroke:rgb(76.470588%,65.882353%,65.882353%);stroke-opacity:1;stroke-miterlimit:4;" d="M 274.290658 108.689352 L 235.620023 111.270602 " transform="matrix(1.69258,0,0,1.694915,-16.805622,-57.676271)"/>
<path style="fill:none;stroke-width:1.3535;stroke-linecap:butt;stroke-linejoin:miter;stroke:rgb(76.470588%,65.882353%,65.882353%);stroke-opacity:1;stroke-miterlimit:4;" d="M 273.579835 112.750211 L 234.9092 115.329156 " transform="matrix(1.69258,0,0,1.694915,-16.805622,-57.676271)"/>
<path style="fill:none;stroke-width:1.3535;stroke-linecap:butt;stroke-linejoin:miter;stroke:rgb(76.470588%,65.882353%,65.882353%);stroke-opacity:1;stroke-miterlimit:4;" d="M 273.709076 114.879742 L 235.040748 117.460992 " transform="matrix(1.69258,0,0,1.694915,-16.805622,-57.676271)"/>
<path style="fill:none;stroke-width:1.3535;stroke-linecap:butt;stroke-linejoin:miter;stroke:rgb(76.470588%,65.882353%,65.882353%);stroke-opacity:1;stroke-miterlimit:4;" d="M 273.900629 116.880211 L 235.229993 119.449938 " transform="matrix(1.69258,0,0,1.694915,-16.805622,-57.676271)"/>
<path style="fill-rule:nonzero;fill:rgb(93.333333%,93.333333%,92.54902%);fill-opacity:1;stroke-width:6;stroke-linecap:butt;stroke-linejoin:miter;stroke:rgb(76.470588%,65.882353%,65.882353%);stroke-opacity:1;stroke-miterlimit:4;" d="M 954.230613 -169.02412 C 954.864924 -160.462509 949.606283 -152.718236 941.922939 -150.889443 C 934.239595 -149.060651 926.494865 -153.709258 923.80416 -161.770249 C 921.113455 -169.831241 924.295239 -178.821953 931.262427 -182.816691 C 938.229614 -186.801211 946.823501 -184.553533 951.376215 -177.55508 " transform="matrix(-0.381812,0,0,0.382339,729.672717,202.323729)"/>
<path style="fill-rule:nonzero;fill:rgb(93.333333%,93.333333%,92.54902%);fill-opacity:1;stroke-width:6;stroke-linecap:butt;stroke-linejoin:miter;stroke:rgb(76.470588%,65.882353%,65.882353%);stroke-opacity:1;stroke-miterlimit:4;" d="M 951.376871 -197.35664 C 951.960028 -190.235587 947.172005 -183.778621 940.184356 -182.25633 C 933.196708 -180.734038 926.157905 -184.606175 923.712739 -191.328776 C 921.267574 -198.051377 924.173126 -205.540232 930.506002 -208.860666 C 936.838879 -212.1811 944.655224 -210.31144 948.788474 -204.477694 " transform="matrix(-0.381812,0,0,0.382339,811.915155,207.781356)"/>
<path style="fill-rule:evenodd;fill:rgb(18.039216%,20.392157%,21.176471%);fill-opacity:1;stroke-width:0.22558;stroke-linecap:butt;stroke-linejoin:miter;stroke:rgb(0%,0%,0%);stroke-opacity:1;stroke-miterlimit:4;" d="M 204.680745 47.654312 L 180.840469 45.72068 L 177.609454 50.876266 L 206.619354 52.166891 Z M 204.680745 47.654312 " transform="matrix(1.69258,0,0,1.694915,-16.805622,-57.676271)"/>
<path style="fill-rule:evenodd;fill:rgb(33.333333%,34.117647%,32.54902%);fill-opacity:1;stroke-width:0.22558;stroke-linecap:butt;stroke-linejoin:miter;stroke:rgb(0%,0%,0%);stroke-opacity:1;stroke-miterlimit:4;" d="M 212.419026 138.140953 L 212.419026 131.04943 L 195.02001 127.829781 L 194.369191 130.411031 L 198.239486 136.859547 Z M 212.419026 138.140953 " transform="matrix(1.69258,0,0,1.694915,-16.805622,-57.676271)"/>
<path style="fill:none;stroke-width:0.45116;stroke-linecap:butt;stroke-linejoin:miter;stroke:rgb(0%,0%,0%);stroke-opacity:1;stroke-miterlimit:4;" d="M 193.729912 120.740563 L 213.060614 124.610133 " transform="matrix(1.69258,0,0,1.694915,-16.805622,-57.676271)"/>
</g>
</svg>
