<?xml version="1.0" encoding="UTF-8" standalone="no"?>
<!-- Created with Inkscape (http://www.inkscape.org/) -->

<svg
   xmlns:dc="http://purl.org/dc/elements/1.1/"
   xmlns:cc="http://creativecommons.org/ns#"
   xmlns:rdf="http://www.w3.org/1999/02/22-rdf-syntax-ns#"
   xmlns:svg="http://www.w3.org/2000/svg"
   xmlns="http://www.w3.org/2000/svg"
   xmlns:sodipodi="http://sodipodi.sourceforge.net/DTD/sodipodi-0.dtd"
   xmlns:inkscape="http://www.inkscape.org/namespaces/inkscape"
   id="svg2"
   xml:space="preserve"
   viewBox="0 0 818.16016 691.8182"
   version="1.1"
   inkscape:version="0.48.4 r9939"
   width="100%"
   height="100%"
   sodipodi:docname="carrot.svg"><sodipodi:namedview
     pagecolor="#ffffff"
     bordercolor="#666666"
     borderopacity="1"
     objecttolerance="10"
     gridtolerance="10"
     guidetolerance="10"
     inkscape:pageopacity="0"
     inkscape:pageshadow="2"
     inkscape:window-width="1362"
     inkscape:window-height="668"
     id="namedview3265"
     showgrid="false"
     fit-margin-top="0"
     fit-margin-left="0"
     fit-margin-right="0"
     fit-margin-bottom="0"
     inkscape:zoom="0.21239879"
     inkscape:cx="-445.30781"
     inkscape:cy="-221.85313"
     inkscape:window-x="0"
     inkscape:window-y="18"
     inkscape:window-maximized="0"
     inkscape:current-layer="svg2" /><defs
     id="defs6"><linearGradient
       id="linearGradient44"
       y2="4.3066001"
       gradientUnits="userSpaceOnUse"
       x2="34.57"
       gradientTransform="matrix(0.95456,-1.1338,-1.1338,-0.95456,0.03404,56.588)"
       y1="4.3066001"
       x1="26.922001"><stop
         id="stop46"
         style="stop-color:#fa9600"
         offset="0" /><stop
         id="stop48"
         style="stop-color:#d47200"
         offset="1" /></linearGradient><clipPath
       id="clipPath56"><path
         id="path58"
         d="m 1,0.61505 h 48 v 41 H 1 v -41 z"
         inkscape:connector-curvature="0" /></clipPath><mask
       id="mask60"><g
         id="g62"><g
           id="g64"
           clip-path="url(#clipPath56)"><path
             id="path66"
             style="fill:#000000;fill-opacity:0.10940001"
             d="m 1,0.61505 h 48 v 41 H 1 v -41 z"
             inkscape:connector-curvature="0" /></g></g></mask><clipPath
       id="clipPath72"><path
         id="path74"
         d="m 1,0.61505 h 48 v 41 H 1 v -41 z"
         inkscape:connector-curvature="0" /></clipPath><clipPath
       id="clipPath76"><path
         id="path78"
         d="M 1,1 H 49 V 42 H 1 V 1 z"
         inkscape:connector-curvature="0" /></clipPath><clipPath
       id="clipPath112"><path
         id="path114"
         d="m 0,-0.38495 h 49 v 39 H 0 v -39 z"
         inkscape:connector-curvature="0" /></clipPath><mask
       id="mask116"><g
         id="g118"><g
           id="g120"
           clip-path="url(#clipPath112)"><path
             id="path122"
             style="fill:#000000;fill-opacity:0.23049999"
             d="m 0,-0.38495 h 49 v 39 H 0 v -39 z"
             inkscape:connector-curvature="0" /></g></g></mask><clipPath
       id="clipPath128"><path
         id="path130"
         d="m 0,-0.38495 h 49 v 39 H 0 v -39 z"
         inkscape:connector-curvature="0" /></clipPath><clipPath
       id="clipPath132"><path
         id="path134"
         d="M 0,0 H 49 V 39 H 0 V 0 z"
         inkscape:connector-curvature="0" /></clipPath><clipPath
       id="clipPath156"><path
         id="path158"
         d="m 16,15.615 h 24 v 24 H 16 v -24 z"
         inkscape:connector-curvature="0" /></clipPath><mask
       id="mask160"><g
         id="g162"><g
           id="g164"
           clip-path="url(#clipPath156)"><path
             id="path166"
             style="fill:#000000;fill-opacity:0.26950001"
             d="m 16,15.615 h 24 v 24 H 16 v -24 z"
             inkscape:connector-curvature="0" /></g></g></mask><clipPath
       id="clipPath172"><path
         id="path174"
         d="m 16,15.615 h 24 v 24 H 16 v -24 z"
         inkscape:connector-curvature="0" /></clipPath><clipPath
       id="clipPath176"><path
         id="path178"
         d="M 16,16 H 40 V 40 H 16 V 16 z"
         inkscape:connector-curvature="0" /></clipPath></defs><g
     id="g10"
     transform="matrix(12.219702,0,0,-12.219702,0.01443314,691.82762)"><g
       id="g12"><path
         id="path14"
         style="fill:#5f6e06;fill-rule:evenodd"
         d="m 61.098,40.209 c -0.789,-0.395 -1.16,0.101 -1.11,1.484 l 0.371,2.223 c -2.421,-3.508 -3.632,-4.445 -3.632,-2.817 l 0.074,3.485 c -0.348,0.097 -0.789,0.148 -1.336,0.148 -1.086,-0.101 -2.051,-0.543 -2.887,-1.336 -0.148,-0.148 -1.383,-1.828 -3.707,-5.039 -1.828,-2.519 -3.383,-3.902 -4.668,-4.148 -1.336,-0.25 -1.879,0.047 -1.633,0.887 l 0.817,1.41 c 0.941,0.05 2.152,0.965 3.633,2.742 1.234,1.48 2.371,3.187 3.41,5.113 0.886,1.68 2.445,3.262 4.668,4.742 2.32,1.582 4.347,2.348 6.074,2.301 3.758,0 5.312,-0.422 4.672,-1.262 -0.297,-0.347 -0.594,-0.519 -0.891,-0.519 l -0.445,0.074 1.262,-0.519 c 0.789,-0.59 1.183,-1.457 1.183,-2.594 -0.051,-1.133 -0.492,-1.578 -1.332,-1.332 l -1.336,0.742 c -0.789,-3.266 -1.851,-5.191 -3.187,-5.785 z"
         inkscape:connector-curvature="0" /><path
         id="path16"
         style="fill:#8fa309;fill-rule:evenodd"
         d="m 62.508,46.955 c -0.645,-1.137 -1.656,-1.559 -3.039,-1.262 -1.188,0.25 -2.297,0.719 -3.336,1.41 l -1.11,1.035 0.372,-1.628 c 0.097,-1.188 -0.325,-2 -1.262,-2.446 -0.938,-0.445 -1.754,-0.32 -2.445,0.371 l -0.817,1.11 c -0.988,-3.262 -2.816,-6.473 -5.484,-9.633 -1.68,-1.977 -3.582,-3.508 -5.707,-4.594 l -2.594,-0.965 0.816,3.782 3.188,1.183 c 2.422,1.285 4.297,3.235 5.633,5.856 1.433,2.714 2.074,4.398 1.925,5.039 -0.593,0.343 -1.113,0.691 -1.554,1.035 -0.594,0.445 -0.867,1.187 -0.817,2.226 0,0.985 0.297,1.454 0.887,1.407 l 1.113,-0.075 c -0.097,0.594 -0.121,1.235 -0.074,1.926 0.098,1.434 0.543,2.473 1.332,3.114 1.238,0.988 1.633,0.343 1.188,-1.926 l 1.925,1.554 c 1.532,0.989 2.817,1.336 3.856,1.039 1.035,-0.296 1.062,-0.89 0.074,-1.781 l -1.777,-1.258 2.594,0.52 c 1.828,0.246 3.039,0.074 3.628,-0.52 0.942,-1.035 -0.246,-1.972 -3.554,-2.816 l 4.297,-1.555 c 1.089,-0.297 1.332,-1.011 0.742,-2.148 z"
         inkscape:connector-curvature="0" /><path
         id="path18"
         style="fill:#6f8007;fill-rule:evenodd"
         d="m 60.73,53.623 0.293,-0.149 c 0.942,-1.035 -0.246,-1.972 -3.554,-2.816 1.976,0.742 3.062,1.73 3.261,2.965 z"
         inkscape:connector-curvature="0" /><path
         id="path20"
         style="fill:#6f8007;fill-rule:evenodd"
         d="m 48.574,41.693 c 0.789,1.531 1.606,3.68 2.446,6.445 l 1.187,-1.48 c 0.887,-0.988 1.508,-1.457 1.852,-1.406 0.593,0.097 0.914,1.062 0.964,2.886 l 0.372,-1.628 c 0.097,-1.188 -0.325,-2 -1.262,-2.446 -0.938,-0.445 -1.754,-0.32 -2.445,0.371 l -0.817,1.11 c -0.988,-3.262 -2.816,-6.473 -5.484,-9.633 l -0.223,-0.223 -0.297,0.668 c 1.731,2.024 2.965,3.805 3.707,5.336 z"
         inkscape:connector-curvature="0" /><path
         id="path22"
         style="fill:#6f8007;fill-rule:evenodd"
         d="m 61.766,49.103 c 1.086,-0.297 1.332,-1.011 0.742,-2.148 -0.645,-1.137 -1.656,-1.559 -3.039,-1.262 -1.188,0.25 -2.297,0.719 -3.336,1.41 l -1.11,1.035 2.075,-0.519 c 1.582,-0.246 2.718,-0.246 3.406,0 1.09,0.445 0.078,1.457 -3.035,3.039 l 4.297,-1.555 z"
         inkscape:connector-curvature="0" /><path
         id="path24"
         style="fill:#6f8007;fill-rule:evenodd"
         d="M 53.539,55.033 52.578,53.4 C 52.18,52.709 51.887,51.994 51.688,51.252 51.59,50.857 51.539,50.56 51.539,50.361 l 0.742,0.52 c 0.641,0.445 1.235,0.765 1.778,0.965 0.941,0.394 2,0.593 3.187,0.593 l -1.41,-0.519 c -0.59,-0.25 -1.356,-0.696 -2.297,-1.336 l -1.184,-0.817 1.704,0.297 c 0.839,0.149 1.629,-0.097 2.371,-0.738 -0.742,0.148 -1.606,0.121 -2.594,-0.074 -0.691,-0.149 -1.281,-0.496 -1.777,-1.039 -0.395,-0.543 -0.645,-1.11 -0.743,-1.703 -0.097,-0.497 -0.296,-0.567 -0.589,-0.223 -0.297,0.348 -0.52,0.793 -0.668,1.336 -0.102,0.445 -0.395,0.836 -0.891,1.183 l -0.742,0.372 1.187,-0.52 c 0.887,-0.395 1.43,-0.863 1.629,-1.406 -0.297,1.086 -0.394,2.074 -0.297,2.965 0.051,0.937 0.914,2.543 2.594,4.816 z"
         inkscape:connector-curvature="0" /><path
         id="path26"
         style="fill:#d0db88;fill-rule:evenodd"
         d="m 49.391,45.396 c -0.246,-1.035 -0.645,-2.05 -1.188,-3.039 -1.086,-1.926 -1.777,-2.886 -2.074,-2.886 -0.098,0 0.176,0.515 0.816,1.554 0.743,1.188 1.188,2 1.332,2.446 0.84,2.175 1.211,2.816 1.114,1.925 z"
         inkscape:connector-curvature="0" /><path
         id="path28"
         style="fill:#d0db88;fill-rule:evenodd"
         d="m 49.91,55.549 c 0.246,-0.543 0.219,-1.086 -0.074,-1.629 -0.297,-0.543 -0.547,-0.617 -0.742,-0.223 -0.149,0.348 -0.074,0.793 0.222,1.336 0.297,0.59 0.493,0.766 0.594,0.516 z"
         inkscape:connector-curvature="0" /><path
         id="path30"
         style="fill:#d0db88;fill-rule:evenodd"
         d="m 47.535,50.51 c 0.645,-0.293 0.719,-0.715 0.223,-1.258 -0.446,-0.594 -0.817,-0.641 -1.11,-0.149 -0.199,0.446 -0.175,0.817 0.075,1.114 0.199,0.293 0.468,0.394 0.812,0.293 z"
         inkscape:connector-curvature="0" /><path
         id="path32"
         style="fill:#d0db88;fill-rule:evenodd"
         d="m 55.836,56.291 c 0.793,-0.098 0.84,-0.469 0.148,-1.11 -0.738,-0.593 -1.281,-0.718 -1.629,-0.371 -0.296,0.344 -0.222,0.692 0.223,1.036 0.395,0.398 0.817,0.542 1.258,0.445 z"
         inkscape:connector-curvature="0" /><g
         id="g34"><g
           id="g36"><g
             id="g42"><path
               id="path50"
               style="fill:url(#linearGradient44);fill-rule:evenodd"
               d="m 45.535,38.951 c 4.051,-3.707 4.078,-7.734 0.074,-12.082 -1.332,-1.383 -4.297,-3.481 -8.89,-6.297 -1.731,-1.086 -5.684,-3.41 -11.86,-6.969 C 22.191,12.021 18.66,10.123 14.262,7.896 9.816,5.674 7.297,4.388 6.703,4.045 5.766,3.451 4.234,2.388 2.109,0.857 0.527,-0.229 -0.164,-0.276 0.031,0.709 0.18,1.4 1.316,2.834 3.441,5.01 6.062,7.576 7.914,9.404 9,10.49 c 5.434,5.336 9.34,9.66 11.711,12.969 3.359,4.894 5.309,7.683 5.851,8.375 2.372,3.215 4.227,5.187 5.559,5.929 5.981,3.508 10.449,3.903 13.414,1.188 z"
               inkscape:connector-curvature="0" /></g></g></g><g
         id="g52"><g
           id="g68"
           mask="url(#mask60)"><g
             id="g80"><g
               id="g82"
               clip-path="url(#clipPath72)"><g
                 id="g84"
                 transform="translate(0,-0.38495)"><g
                   id="g88"><g
                     id="g90"
                     clip-path="url(#clipPath76)"><g
                       id="g92"><path
                         id="path94"
                         style="fill:#000000;fill-rule:evenodd"
                         d="M 4.324,2.785 2.473,1.453 C 2.621,2.289 2.273,2.859 1.434,3.156 1.926,3.797 2.473,4.391 3.062,4.934 3.805,4.637 4.227,3.922 4.324,2.785 z"
                         inkscape:connector-curvature="0" /><path
                         id="path96"
                         style="fill:#000000;fill-rule:evenodd"
                         d="M 17.293,9.824 14.477,8.418 c 0.593,1.582 0.492,2.84 -0.297,3.777 -0.692,0.84 -1.582,1.211 -2.668,1.114 l 2.668,2.742 c 2.074,0 3.308,-0.715 3.707,-2.149 0.343,-1.086 0.148,-2.445 -0.594,-4.078 z"
                         inkscape:connector-curvature="0" /><path
                         id="path98"
                         style="fill:#000000;fill-rule:evenodd"
                         d="M 10.328,6.344 7.66,4.934 C 7.707,5.578 7.535,6.145 7.141,6.641 6.746,7.133 6.25,7.453 5.656,7.602 L 8.473,10.27 C 9.512,10.223 10.18,9.727 10.477,8.789 10.723,8.047 10.672,7.23 10.328,6.344 z"
                         inkscape:connector-curvature="0" /><path
                         id="path100"
                         style="fill:#000000;fill-rule:evenodd"
                         d="m 25.594,14.348 -3.856,-2.153 c 0.793,1.731 0.571,3.41 -0.664,5.039 -1.039,1.336 -2.25,2.153 -3.633,2.45 l 1.926,2.296 c 0.543,0 1.262,-0.125 2.149,-0.371 1.336,-0.347 2.422,-1.308 3.261,-2.89 0.789,-1.485 1.063,-2.942 0.817,-4.371 z"
                         inkscape:connector-curvature="0" /><path
                         id="path102"
                         style="fill:#000000;fill-rule:evenodd"
                         d="m 45.602,27.242 -0.887,-0.816 c 0.543,1.629 0.836,2.937 0.887,3.926 0.05,1.679 -0.743,3.929 -2.372,6.746 -1.531,2.468 -4.199,3.382 -8.003,2.742 4.347,1.926 7.781,1.754 10.3,-0.52 4.051,-3.707 4.078,-7.73 0.075,-12.078 z"
                         inkscape:connector-curvature="0" /><path
                         id="path104"
                         style="fill:#000000;fill-rule:evenodd"
                         d="m 33.152,18.793 -4.593,-2.668 c 0.738,2.422 0.589,4.77 -0.446,7.039 -0.394,0.891 -1.234,1.559 -2.519,2 -1.235,0.496 -2.473,0.645 -3.707,0.445 l 2.074,3.039 c 2.473,0.743 4.746,0.223 6.82,-1.554 2.418,-2.028 3.211,-4.793 2.371,-8.301 z"
                         inkscape:connector-curvature="0" /><path
                         id="path106"
                         style="fill:#000000;fill-rule:evenodd"
                         d="m 37.078,21.164 c 0.445,1.731 0.422,3.582 -0.074,5.559 -0.492,2.074 -1.899,3.629 -4.223,4.668 -1.976,0.839 -4.051,1.136 -6.226,0.89 l 1.929,2.446 c 3.903,1.628 7.063,1.48 9.485,-0.446 1.383,-1.187 2.347,-2.914 2.89,-5.187 0.395,-1.778 0.469,-3.582 0.223,-5.41 l -4.004,-2.52 z"
                         inkscape:connector-curvature="0" /></g></g></g></g></g></g></g></g><g
         id="g108"><g
           id="g124"
           mask="url(#mask116)"><g
             id="g136"><g
               id="g138"
               clip-path="url(#clipPath128)"><g
                 id="g140"
                 transform="translate(0,-0.38495)"><g
                   id="g144"><g
                     id="g146"
                     clip-path="url(#clipPath132)"><g
                       id="g148"><path
                         id="path150"
                         style="fill:#000000;fill-rule:evenodd"
                         d="m 43.312,28.977 c 1.68,1.878 2.817,3.461 3.411,4.746 0.593,1.531 0.593,2.988 0,4.371 2.863,-3.36 2.492,-6.969 -1.114,-10.821 -1.332,-1.382 -4.297,-3.484 -8.89,-6.3 C 34.988,19.887 31.035,17.566 24.859,14.008 22.191,12.426 18.66,10.523 14.262,8.301 9.816,6.078 7.297,4.793 6.703,4.449 5.812,3.902 4.383,2.891 2.406,1.41 0.875,0.324 0.082,0.102 0.035,0.742 0.332,0.445 1.812,1.535 4.48,4.004 c 1.731,1.582 4.399,3.359 8.004,5.336 2.075,1.137 5.461,2.937 10.153,5.41 10.226,5.582 17.117,10.324 20.675,14.227 z"
                         inkscape:connector-curvature="0" /></g></g></g></g></g></g></g></g><g
         id="g152"><g
           id="g168"
           mask="url(#mask160)"><g
             id="g180"><g
               id="g182"
               clip-path="url(#clipPath172)"><g
                 id="g184"
                 transform="translate(0,-0.38495)"><g
                   id="g188"><g
                     id="g190"
                     clip-path="url(#clipPath176)"><g
                       id="g192"><path
                         id="path194"
                         style="fill:#ffffff;fill-rule:evenodd"
                         d="m 38.637,39.094 c 1.285,-0.297 0.715,-1.41 -1.703,-3.336 -0.793,-0.641 -2.77,-2.028 -5.93,-4.149 -0.988,-0.691 -2.789,-2.57 -5.41,-5.632 -3.211,-3.805 -4.989,-5.879 -5.336,-6.227 -1.086,-1.184 -2.149,-2.098 -3.188,-2.742 -0.988,-0.59 -1.285,-0.59 -0.886,0 3.011,2.867 5.011,5.215 6,7.043 1.878,3.308 4.671,6.89 8.375,10.742 1.73,1.781 3.484,3.016 5.261,3.707 1.188,0.492 2.125,0.691 2.817,0.594 z"
                         inkscape:connector-curvature="0" /></g></g></g></g></g></g></g></g></g></g><metadata
     id="metadata3263"><rdf:RDF><cc:Work><dc:format>image/svg+xml</dc:format><dc:type
           rdf:resource="http://purl.org/dc/dcmitype/StillImage" /><cc:license
           rdf:resource="http://creativecommons.org/licenses/publicdomain/" /><dc:publisher><cc:Agent
             rdf:about="http://openclipart.org/"><dc:title>Openclipart</dc:title></cc:Agent></dc:publisher></cc:Work><cc:License
         rdf:about="http://creativecommons.org/licenses/publicdomain/"><cc:permits
           rdf:resource="http://creativecommons.org/ns#Reproduction" /><cc:permits
           rdf:resource="http://creativecommons.org/ns#Distribution" /><cc:permits
           rdf:resource="http://creativecommons.org/ns#DerivativeWorks" /></cc:License></rdf:RDF></metadata></svg>