<?xml version="1.0" encoding="UTF-8"?>
<svg xmlns="http://www.w3.org/2000/svg" xmlns:xlink="http://www.w3.org/1999/xlink" width="1024pt" height="1024pt" viewBox="0 0 1024 1024" version="1.1">
<defs>
<linearGradient id="linear0" gradientUnits="userSpaceOnUse" x1="326.40701" y1="305.98901" x2="342.31" y2="305.98901" gradientTransform="matrix(1.77612,0,0,1.77612,-90.948286,-245.813504)">
<stop offset="0" style="stop-color:rgb(78.039216%,32.941176%,40%);stop-opacity:0.384314;"/>
<stop offset="0.445489" style="stop-color:rgb(47.45098%,100%,60.784314%);stop-opacity:1;"/>
</linearGradient>
</defs>
<g id="surface1">
<path style=" stroke:none;fill-rule:nonzero;fill:rgb(87.058824%,82.352941%,82.352941%);fill-opacity:1;" d="M 463.613281 277.71875 C 445.582031 277.121094 442.894531 276.800781 436.472656 278.9375 C 434.3125 279.660156 431.304688 281.746094 430.511719 285.871094 C 429.71875 289.976562 431.144531 296.113281 427.53125 299.449219 C 424.902344 301.871094 422.28125 310.113281 422.28125 314.128906 C 422.28125 319.140625 426.660156 325.566406 425.921875 325.070312 C 424.527344 324.136719 423.148438 329.960938 423.503906 332.796875 C 423.914062 336.074219 426.347656 338.5 423.503906 337.261719 C 416.667969 334.28125 403.113281 328.898438 390.914062 322.800781 C 386.101562 320.394531 376.742188 317.496094 374.40625 313.15625 C 372.128906 308.929688 370.289062 306.390625 365.578125 294.390625 C 362.214844 285.832031 357.167969 273.179688 353.667969 258.128906 C 348.71875 236.835938 344.878906 211.441406 336.015625 192.113281 C 328.800781 176.378906 324.472656 167.488281 318.957031 152.613281 C 316.1875 145.132812 317.597656 141.195312 314.566406 134.519531 C 312.523438 130.007812 305.964844 123.039062 303.679688 117.667969 C 301.128906 111.667969 302.625 110.722656 302.667969 103.429688 C 302.707031 96.355469 303.695312 84.949219 301.332031 80.960938 C 298.867188 76.808594 291.5625 70.359375 286.109375 70.359375 C 283.734375 70.359375 284.722656 73.351562 283.484375 71.71875 C 281.628906 69.28125 282.148438 65.429688 280.464844 63.082031 C 277.457031 58.878906 272.351562 56.53125 269.234375 54.625 C 267.316406 53.453125 265.359375 48.246094 262.4375 46.40625 C 259.800781 44.742188 256.164062 46.371094 254.851562 46.40625 C 250.824219 46.511719 250.628906 56.476562 247.335938 60.496094 C 246.460938 61.566406 244.34375 59.167969 242.324219 58.964844 C 240.03125 58.730469 237.773438 60.632812 236.121094 61.050781 C 232.648438 61.921875 230.433594 72.175781 230.023438 75.363281 C 229.566406 78.96875 231.117188 80.691406 232.488281 86.160156 C 233.003906 88.238281 232.40625 88.390625 228.535156 90.441406 C 226.917969 91.300781 225.21875 96.699219 226.070312 98.484375 C 227.902344 102.332031 232.40625 106.800781 234.960938 109.890625 C 237.992188 113.5625 247.019531 117.753906 246.566406 120.699219 C 245.824219 125.484375 249.863281 130.886719 252.398438 135.125 C 256.921875 142.691406 264.75 147.289062 268.453125 155.03125 C 269.445312 157.101562 269.679688 159.078125 270.550781 161.167969 C 273.089844 167.246094 269.113281 172.496094 270.890625 177.339844 C 273.089844 183.324219 278.902344 188.140625 278.902344 194.359375 C 278.902344 255.164062 287.816406 297.519531 306.335938 348.457031 C 317.738281 379.808594 343.175781 431.789062 365.578125 464.789062 C 368.046875 468.425781 371.253906 470.949219 373.605469 474.097656 C 375.234375 476.273438 372.839844 479.234375 372.167969 481.675781 C 371.277344 484.910156 371.628906 487.664062 370.953125 490.742188 C 369.058594 499.34375 368.992188 507.117188 368.070312 513.972656 C 365.136719 535.878906 364.691406 552.546875 368.328125 582.921875 C 370.953125 604.847656 382.523438 632.703125 393.421875 650.988281 C 397.054688 657.085938 398.664062 658.105469 400.316406 661.222656 C 401.453125 663.371094 403.289062 662.984375 403.050781 664.550781 C 401.339844 675.699219 400.765625 681.671875 400.902344 690.320312 C 401.203125 709.410156 404.617188 725.851562 400.734375 744.234375 C 394.566406 773.429688 388.355469 801.144531 384.3125 826.835938 C 379.925781 854.730469 377.632812 877.054688 375.753906 899.003906 C 375.582031 901.019531 374.40625 911.214844 374.40625 919.636719 C 374.40625 924.503906 374.808594 927.941406 374.40625 930.636719 C 373.605469 936.027344 376.496094 933.394531 374.132812 935.503906 C 372.433594 937.023438 369.492188 937.003906 367.144531 937.878906 C 362.699219 939.535156 358.558594 941.636719 356.164062 944.019531 C 350.140625 950.011719 346.882812 955.84375 346.941406 956.28125 C 347.992188 964.679688 346.894531 972.023438 352.980469 974.871094 C 356.125 976.339844 363.875 982.507812 369.804688 976.410156 C 371.339844 974.832031 374.125 979.402344 375.785156 978.269531 C 377.066406 977.390625 378.691406 977.761719 380.09375 977.917969 C 381.996094 978.125 383.675781 975.59375 385.726562 976.332031 C 390.125 977.917969 394.136719 978.421875 397.882812 977.917969 C 404.347656 977.046875 409.53125 972.378906 412.117188 970.492188 C 416.710938 967.140625 419.84375 959.617188 422.28125 954.476562 C 424.097656 950.648438 423.503906 947.550781 423.503906 942.398438 C 423.503906 935.183594 422.28125 931.976562 423.503906 923.359375 C 424.550781 915.988281 425.257812 906.292969 426.660156 900.695312 C 430.019531 887.234375 430.847656 876.855469 432.089844 878.664062 C 433.496094 880.71875 436.914062 886.152344 440.304688 886.714844 C 441.359375 886.894531 456.949219 891.820312 460.371094 892.542969 C 462.371094 892.964844 453.960938 893.847656 455.996094 894.867188 C 463.613281 898.679688 476.542969 903.265625 481.898438 907.089844 C 483.628906 908.328125 473.738281 906.617188 475.867188 907.425781 C 481.636719 909.605469 487.609375 914.886719 492.15625 918.550781 C 496.4375 922 499.507812 923.886719 498.261719 924.34375 C 494.367188 925.757812 484.066406 923.457031 478.277344 925.476562 C 471.566406 927.816406 466.386719 929.667969 462.355469 933.15625 C 458.425781 936.558594 454.367188 943.238281 453.929688 947.28125 C 453.597656 950.375 453.621094 953.023438 454.875 955.328125 C 455.996094 957.390625 458.371094 959.429688 460.371094 961.453125 C 462.371094 963.472656 472.195312 963.421875 479.664062 961.453125 C 484.148438 960.269531 483.792969 961.453125 488.847656 961.453125 C 494.617188 961.453125 500.789062 958.449219 505.015625 961.453125 C 506.242188 962.328125 505.574219 964.601562 506.714844 965.804688 C 509.011719 968.226562 510.992188 971.960938 514.59375 973.21875 C 518.441406 974.5625 525.089844 971.769531 528.992188 973.910156 C 533.277344 976.261719 538.640625 977.652344 543.945312 978.03125 C 554.714844 978.792969 567.75 975.355469 579.371094 975.785156 C 593.460938 976.304688 612.558594 975.832031 626.910156 975.828125 C 639.910156 975.828125 645.894531 976.390625 658.257812 975.929688 C 683.863281 974.976562 707.832031 977.003906 725.359375 973.910156 C 733.449219 972.476562 741.304688 972.378906 746.539062 970.492188 C 752.316406 968.402344 755.5 963.15625 756.882812 960.488281 C 758.984375 956.441406 766.5 946.804688 767.578125 938.691406 C 767.957031 935.863281 768.886719 935.277344 769.636719 933.105469 C 770.558594 930.445312 770.910156 925.6875 773.085938 925.09375 C 775.058594 924.554688 776.078125 924.328125 777.558594 924.34375 C 778.773438 924.351562 780.511719 924.75 781.59375 923.359375 C 785.921875 917.800781 787.816406 907.179688 791.644531 900.695312 C 793.46875 897.605469 796.15625 893.535156 796.496094 891.03125 C 797.515625 883.542969 798.023438 878.746094 798.042969 870.621094 C 798.074219 858.792969 792.621094 845.246094 790.6875 832.835938 C 789.96875 828.238281 794.394531 823.175781 793.4375 818.554688 C 789.292969 798.488281 782.980469 778.332031 775.195312 759.304688 C 771.761719 750.914062 765.238281 745.765625 759.863281 738.199219 C 753.371094 729.050781 746.941406 722.113281 742.121094 712.722656 C 740.542969 709.660156 737.75 707.484375 735.644531 704.375 C 731.320312 697.996094 727.171875 690.769531 723.316406 685.488281 C 718.796875 679.304688 717.027344 673.480469 715.167969 667.761719 C 714.457031 665.582031 714.480469 663.152344 713.238281 661.109375 C 702.195312 642.925781 694.003906 631.109375 692.21875 629.140625 C 676.035156 611.285156 660.226562 595.449219 646.269531 582.488281 C 641.472656 578.03125 611.289062 551.273438 603.183594 541.847656 C 598.9375 536.910156 593.410156 530.90625 588.8125 526.980469 C 583.683594 522.59375 584.546875 513.277344 578.96875 511.109375 C 574.1875 509.246094 572.6875 508.507812 569.789062 504.5 C 566.335938 499.730469 566.125 493.28125 564.855469 488.539062 C 563.023438 481.679688 565.28125 473.972656 572.6875 457.539062 C 576.636719 448.777344 582.378906 433.789062 588.8125 422.300781 C 604.554688 394.203125 612.769531 368.171875 612.769531 344.550781 C 612.769531 329.789062 611.417969 317.691406 610.089844 308.976562 C 609.339844 304.074219 609.695312 301.28125 609.441406 299.449219 C 608.609375 293.484375 612.738281 284.199219 614.121094 273.464844 C 614.753906 268.585938 615.230469 264.210938 615.078125 260.867188 C 615.019531 259.621094 615.710938 257.363281 615.078125 256.941406 C 613.179688 255.675781 613.664062 247.746094 611.914062 247.207031 C 603.066406 244.46875 595.558594 250.527344 584.011719 260.804688 C 582.113281 262.496094 579.082031 265.867188 576.671875 269.433594 C 574.792969 272.214844 573.371094 275.816406 572.6875 274.285156 C 569.441406 267.023438 567.511719 267.703125 564.855469 264.582031 C 564.050781 263.632812 564.800781 272.234375 564.207031 270.273438 C 562.492188 264.582031 564.375 260.683594 563.855469 258.128906 C 562.644531 252.207031 562.96875 251.652344 560.917969 245.621094 C 559.085938 240.230469 558.496094 238.574219 557.964844 235.402344 C 556.382812 225.945312 558.695312 210.265625 553.289062 213.8125 C 550.113281 215.894531 551.164062 212.320312 548.890625 223.015625 C 547.738281 228.429688 547.589844 233.933594 546.121094 238.453125 C 543.871094 245.375 544.414062 250.019531 543.671875 255.175781 C 543.15625 258.761719 545.257812 257.042969 543.671875 260.378906 C 542.683594 262.445312 536.832031 258.128906 535.554688 259.824219 C 534.132812 261.714844 529.570312 259.054688 525.519531 258.941406 C 514.933594 258.644531 502.394531 257.582031 492.949219 260.257812 C 481.113281 263.613281 473.257812 274.785156 461.945312 276.859375 "/>
<path style=" stroke:none;fill-rule:nonzero;fill:rgb(100%,100%,100%);fill-opacity:1;" d="M 474.367188 759.074219 C 471.117188 766.664062 442.046875 834.304688 446.625 841.171875 C 447.136719 841.9375 447.101562 841.289062 454.910156 843.425781 C 458.457031 844.398438 471.644531 852.183594 475.714844 854.769531 C 477.132812 855.664062 475.15625 850.355469 476.585938 851.515625 C 483.335938 857 480.695312 855.765625 487.460938 859.972656 C 497.425781 866.164062 515.910156 875.34375 518.339844 877.042969 C 519.960938 878.179688 529.707031 882.199219 536.855469 891.015625 C 538.535156 893.085938 543.617188 897.113281 545.394531 899.253906 C 549.9375 904.710938 551.941406 910.019531 553.882812 914.929688 C 554.546875 916.601562 550.644531 901.808594 551.5 903.007812 C 553.625 905.996094 556.867188 912.066406 561.074219 916.503906 C 563.796875 919.378906 565.554688 924.097656 566.304688 923.347656 C 567.652344 922 596.449219 922.273438 595.929688 921.3125 C 594.351562 918.382812 593.535156 919.96875 588.757812 917.867188 C 587.925781 917.503906 580.078125 914.914062 579.316406 914.195312 C 574.242188 909.429688 574.347656 910.070312 568.214844 904.6875 C 564.769531 901.664062 559.710938 893.386719 556.453125 890.347656 C 546.644531 881.199219 540.59375 866.085938 539.296875 859.164062 C 538.214844 853.398438 530.886719 840.957031 528.941406 829.421875 C 527.722656 822.183594 528.367188 817.777344 528.050781 813.65625 C 527.910156 811.855469 528.667969 807.429688 527.1875 807.34375 C 522.875 807.082031 517.035156 791.789062 510.683594 787.542969 C 504.761719 783.582031 503.902344 784.335938 497.90625 780.046875 C 491.332031 775.34375 484.6875 770.980469 481.523438 767.53125 C 478.550781 764.289062 475.714844 755.917969 474.367188 759.074219 Z M 474.367188 759.074219 "/>
<path style=" stroke:none;fill-rule:nonzero;fill:rgb(66.666667%,66.666667%,66.666667%);fill-opacity:1;" d="M 247.070312 60.90625 C 239.996094 63.984375 229.660156 96.472656 230.097656 98.109375 C 230.824219 100.84375 270.3125 159.09375 277.582031 155.460938 C 284.5 152 306.441406 91.746094 302.496094 81.222656 C 301.617188 78.878906 298.882812 77.542969 297.480469 75.539062 C 295.984375 73.398438 294.261719 71.5 291.460938 71.191406 C 287.992188 70.804688 282.699219 78.011719 281.597656 74.703125 C 280.171875 70.421875 263.710938 46.980469 262.535156 46.445312 C 260.574219 45.554688 256.351562 45.390625 254.34375 46.109375 C 247.949219 48.394531 252.078125 58.726562 247.070312 60.90625 Z M 247.070312 60.90625 "/>
<path style=" stroke:none;fill-rule:nonzero;fill:rgb(66.666667%,66.666667%,66.666667%);fill-opacity:1;" d="M 540.199219 946.863281 C 531.746094 947.667969 523.289062 953.703125 522.210938 962.320312 C 521.816406 965.480469 524.011719 972.871094 528.25 972.871094 C 530.246094 972.871094 527.21875 970.257812 527.1875 966.375 C 527.164062 962.921875 528.964844 958.675781 529.757812 956.929688 C 531.15625 953.863281 534.035156 951.683594 536.816406 949.621094 C 537.054688 949.445312 542.441406 946.648438 540.199219 946.863281 Z M 540.199219 946.863281 "/>
<path style=" stroke:none;fill-rule:nonzero;fill:rgb(66.666667%,66.666667%,66.666667%);fill-opacity:1;" d="M 484.261719 932.203125 C 477.46875 932.203125 467 939.035156 464.804688 945.179688 C 462.34375 952.070312 464.398438 959.28125 474.019531 961.953125 C 477.132812 962.816406 479.984375 962.039062 479.183594 960.785156 C 478.417969 959.585938 474.121094 957.984375 472.234375 955.644531 C 469.925781 952.777344 469.242188 948.71875 470.074219 945.605469 C 471.546875 940.082031 484.460938 932.203125 484.261719 932.203125 Z M 484.261719 932.203125 "/>
<path style=" stroke:none;fill-rule:nonzero;fill:url(#linear0);" d="M 498.304688 288.789062 C 497.40625 292.277344 491.507812 290.136719 489.65625 294.347656 C 483.796875 307.652344 509.355469 310.824219 516.078125 304.101562 C 520.546875 299.632812 508.058594 291.207031 505.347656 289.851562 C 503.222656 288.789062 498.894531 286.488281 498.304688 288.789062 Z M 498.304688 288.789062 "/>
<path style=" stroke:none;fill-rule:nonzero;fill:rgb(92.941176%,65.098039%,61.960784%);fill-opacity:1;" d="M 567.40625 286.328125 C 567.40625 282.902344 574.042969 273.148438 575.550781 270.882812 C 582.5 260.457031 593.566406 250.710938 605.652344 247.691406 C 606.425781 247.496094 609.976562 245.753906 610.605469 247.011719 C 612.40625 250.613281 614.148438 255.402344 614.46875 261.160156 C 615.296875 276.160156 610.667969 296.585938 603.574219 311.082031 C 598.820312 320.800781 593.21875 327.929688 585.535156 329.210938 C 581.535156 329.875 578.175781 329.175781 575.441406 327.570312 C 572.058594 325.582031 569.632812 322.207031 568.132812 318.3125 C 566.539062 314.175781 565.992188 309.449219 566.46875 305.191406 C 566.503906 304.847656 567.40625 286.800781 567.40625 286.328125 Z M 567.40625 286.328125 "/>
<path style=" stroke:none;fill-rule:nonzero;fill:rgb(66.666667%,66.666667%,66.666667%);fill-opacity:1;" d="M 601.542969 610.78125 C 569.132812 607.363281 573.265625 667.820312 557.308594 682.78125 C 543.484375 695.742188 528.285156 708.496094 511.128906 717.074219 C 509.703125 717.789062 490.292969 729.324219 493.007812 731.496094 C 515.511719 749.5 575.90625 699.691406 583.613281 678.496094 C 586.917969 669.410156 577.699219 650.335938 582.445312 644.003906 C 588.246094 636.273438 604.148438 638.753906 606.21875 625.296875 C 606.9375 620.632812 607.257812 611.382812 601.542969 610.78125 Z M 601.542969 610.78125 "/>
<path style=" stroke:none;fill-rule:nonzero;fill:rgb(66.666667%,66.666667%,66.666667%);fill-opacity:1;" d="M 645.441406 612.007812 C 630.140625 618.390625 649.539062 653.164062 642.902344 668.644531 C 631.636719 694.933594 589.535156 693.820312 576.121094 715.617188 C 561.28125 739.734375 624.28125 711.152344 627.191406 709.890625 C 661.632812 694.964844 663.472656 674.660156 657.308594 642.289062 C 655.8125 634.453125 654.511719 608.226562 645.441406 612.007812 Z M 645.441406 612.007812 "/>
<path style=" stroke:none;fill-rule:nonzero;fill:rgb(66.666667%,66.666667%,66.666667%);fill-opacity:1;" d="M 692.425781 708.265625 C 679.269531 701.984375 692.433594 724.480469 688.667969 726.632812 C 688.132812 726.9375 687.253906 726.914062 686.683594 726.914062 C 682.609375 726.914062 641.523438 725.660156 664.414062 739.964844 C 689.597656 755.707031 719.375 721.128906 692.425781 708.265625 Z M 692.425781 708.265625 "/>
<path style=" stroke:none;fill-rule:nonzero;fill:rgb(66.666667%,66.666667%,66.666667%);fill-opacity:1;" d="M 720.382812 742.617188 C 717.371094 739.121094 715.949219 752.371094 713.570312 754.433594 C 710.921875 756.730469 694.378906 754.121094 699.949219 762.640625 C 703.667969 768.332031 729.539062 771.597656 731.882812 763.90625 C 734.695312 754.664062 725.398438 748.445312 720.382812 742.617188 Z M 720.382812 742.617188 "/>
<path style=" stroke:none;fill-rule:nonzero;fill:rgb(66.666667%,66.666667%,66.666667%);fill-opacity:1;" d="M 431.648438 723.898438 C 428.144531 724.320312 411.265625 734.921875 417.574219 736.863281 C 434.359375 742.027344 451.875 727.671875 461.59375 750.34375 C 461.890625 751.039062 464.078125 757.785156 465.003906 757.167969 C 493.65625 738.066406 446.109375 722.152344 431.648438 723.898438 Z M 431.648438 723.898438 "/>
<path style=" stroke:none;fill-rule:nonzero;fill:rgb(66.666667%,66.666667%,66.666667%);fill-opacity:1;" d="M 405.894531 744.730469 C 401.632812 745.074219 406.632812 758.492188 411.007812 759.324219 C 412.996094 759.703125 415.359375 759.585938 417.382812 759.585938 C 442.972656 759.585938 440.636719 747.769531 416.949219 744.730469 C 413.355469 744.273438 409.160156 744.46875 405.894531 744.730469 Z M 405.894531 744.730469 "/>
<path style=" stroke:none;fill-rule:nonzero;fill:rgb(66.666667%,66.666667%,66.666667%);fill-opacity:1;" d="M 443.789062 757.40625 C 444.636719 757.234375 424.917969 765.300781 427.4375 771.351562 C 429.148438 775.457031 465.824219 769.527344 467.046875 767.085938 C 469.511719 762.152344 439.703125 758.230469 443.789062 757.40625 Z M 443.789062 757.40625 "/>
<path style=" stroke:none;fill-rule:nonzero;fill:rgb(66.666667%,66.666667%,66.666667%);fill-opacity:1;" d="M 404.875 683.167969 C 407.441406 690.667969 421.222656 678.417969 427.40625 682.351562 C 433.71875 686.367188 428.078125 697.730469 433.503906 700.199219 C 441.011719 703.609375 454.25 701.386719 462.355469 701.386719 C 498.3125 701.386719 443.117188 686.480469 439.15625 683.835938 C 428.015625 676.410156 434.136719 647.277344 411.640625 656.921875 C 403.492188 660.414062 402.539062 676.347656 404.875 683.167969 Z M 404.875 683.167969 "/>
<path style=" stroke:none;fill-rule:nonzero;fill:rgb(66.666667%,66.666667%,66.666667%);fill-opacity:1;" d="M 420.640625 623.160156 C 419.308594 621.121094 421.34375 628.980469 421.753906 629.703125 C 425.71875 636.699219 432.027344 643.230469 440.640625 642.195312 C 451.683594 640.871094 464.324219 627.132812 472.914062 621.078125 C 477.898438 617.566406 493.652344 611.226562 487.640625 610.222656 C 476.996094 608.449219 426.949219 632.839844 420.640625 623.160156 Z M 420.640625 623.160156 "/>
<path style=" stroke:none;fill-rule:nonzero;fill:rgb(66.666667%,66.666667%,66.666667%);fill-opacity:1;" d="M 558.128906 958.527344 C 544.53125 959.917969 560.523438 971.320312 560.355469 971.820312 C 557.289062 981.015625 569.785156 966.910156 577.890625 967.644531 C 585.414062 968.328125 613.105469 979.191406 619.640625 972.65625 C 620.078125 972.21875 607.535156 965.585938 606.28125 964.582031 C 602.535156 961.585938 601.675781 954.28125 596.679688 953.03125 C 595.480469 952.734375 594.15625 952.410156 592.921875 952.335938 C 583.226562 951.765625 586.546875 961.980469 578.449219 963.332031 C 571.480469 964.492188 566.523438 957.671875 558.128906 958.527344 Z M 558.128906 958.527344 "/>
<path style=" stroke:none;fill-rule:nonzero;fill:rgb(66.666667%,66.666667%,66.666667%);fill-opacity:1;" d="M 450.234375 850.597656 C 452.460938 851.6875 451.816406 851.3125 450.449219 853.546875 C 449.257812 855.488281 445.59375 860.429688 447.015625 863.09375 C 447.480469 863.964844 453.527344 867.199219 451.84375 869.097656 C 450.078125 871.082031 442.230469 883.621094 442.40625 883.898438 C 445.863281 889.429688 472.40625 898.53125 477.902344 894.40625 C 480.941406 892.128906 470.605469 884.453125 471.253906 881.21875 C 472.472656 875.117188 487.417969 878.308594 484.445312 867.597656 C 482.324219 859.957031 472.375 862.523438 469.109375 857.625 C 468.179688 856.230469 473.941406 855.496094 473.292969 853.871094 C 471.847656 850.261719 448.5625 849.785156 450.234375 850.597656 Z M 450.234375 850.597656 "/>
<path style=" stroke:none;fill-rule:nonzero;fill:rgb(66.666667%,66.666667%,66.666667%);fill-opacity:1;" d="M 510.839844 877.613281 C 509.207031 877.632812 516.707031 888.875 514.582031 891.003906 C 513.035156 892.550781 500.984375 891.296875 500.933594 891.664062 C 500.589844 894.089844 506.742188 902.0625 504.824219 903.472656 C 499.582031 907.335938 488.21875 904.160156 483.765625 908.609375 C 483.425781 908.949219 488.050781 911.675781 488.460938 911.984375 C 491.011719 913.898438 493.511719 918.878906 496.605469 919.910156 C 500.082031 921.066406 505.449219 914.8125 512.527344 917.339844 C 512.601562 917.367188 513.679688 917.75 513.773438 917.5625 C 515.394531 914.3125 510.140625 909.707031 515.09375 907.4375 C 517.507812 906.332031 525.167969 908.292969 526.539062 906.921875 C 529.917969 903.542969 517.023438 900.265625 517.808594 895.550781 C 518.042969 894.132812 520.808594 893.949219 521.84375 893.792969 C 539.65625 891.050781 519.902344 877.519531 510.839844 877.613281 Z M 510.839844 877.613281 "/>
<path style=" stroke:none;fill-rule:nonzero;fill:rgb(66.666667%,66.666667%,66.666667%);fill-opacity:1;" d="M 542.15625 899.28125 C 540.859375 898.40625 545.683594 907.332031 545.007812 909.589844 C 544.445312 911.460938 534.261719 908.792969 532.914062 911.257812 C 532.386719 912.230469 539.683594 915.664062 539.25 915.980469 C 535.5625 918.683594 527.582031 916.359375 524.679688 919.261719 C 524.652344 919.289062 532.945312 920.222656 533.722656 920.242188 C 540.300781 920.394531 548.511719 918.453125 554.910156 920.585938 C 555.066406 920.640625 547.054688 921.484375 543.222656 917.648438 C 542.414062 916.84375 552.15625 915.796875 552.546875 915.40625 C 554.253906 913.699219 546.851562 914.933594 545.8125 912.757812 C 543.535156 907.976562 549.613281 904.316406 542.15625 899.28125 Z M 542.15625 899.28125 "/>
<path style=" stroke:none;fill-rule:nonzero;fill:rgb(66.666667%,66.666667%,66.666667%);fill-opacity:1;" d="M 412.820312 840.765625 C 404.761719 834.941406 386.398438 871.035156 430.136719 852.664062 C 433.414062 851.285156 440.859375 849.320312 441.210938 844.773438 C 441.800781 837.042969 416.9375 843.742188 412.820312 840.765625 Z M 412.820312 840.765625 "/>
<path style=" stroke:none;fill-rule:nonzero;fill:rgb(66.666667%,66.666667%,66.666667%);fill-opacity:1;" d="M 388.730469 830.988281 C 389.820312 833.4375 388.070312 873.363281 395.855469 869.039062 C 402.121094 865.554688 391.578125 846.753906 391.734375 840.292969 C 391.8125 837.035156 387.402344 828.011719 388.730469 830.988281 Z M 388.730469 830.988281 "/>
<path style=" stroke:none;fill-rule:nonzero;fill:rgb(66.666667%,66.666667%,66.666667%);fill-opacity:1;" d="M 393.265625 811.199219 C 384.996094 812.757812 429.53125 842.863281 433.433594 831.929688 C 436.054688 824.601562 399.304688 810.0625 393.265625 811.199219 Z M 393.265625 811.199219 "/>
<path style=" stroke:none;fill-rule:nonzero;fill:rgb(66.666667%,66.666667%,66.666667%);fill-opacity:1;" d="M 429.480469 801.578125 C 427.875 798.066406 420.75 810.230469 427.941406 815.398438 C 432.882812 818.953125 439.113281 813.019531 443.101562 810.59375 C 444.800781 809.558594 449.84375 807.59375 450.113281 805.183594 C 450.792969 799.078125 430.667969 804.183594 429.480469 801.578125 Z M 429.480469 801.578125 "/>
<path style=" stroke:none;fill-rule:nonzero;fill:rgb(66.666667%,66.666667%,66.666667%);fill-opacity:1;" d="M 397.867188 777.578125 C 402.695312 804.191406 416.453125 786.222656 432.527344 785.304688 C 434.234375 785.207031 449.238281 786.058594 448.519531 783.664062 C 447.3125 779.644531 434.554688 779.753906 431.429688 779.5625 C 422.476562 779.015625 410.820312 782.261719 402.308594 779.972656 C 401.011719 779.621094 397.714844 776.742188 397.867188 777.578125 Z M 397.867188 777.578125 "/>
<path style=" stroke:none;fill-rule:nonzero;fill:rgb(66.666667%,66.666667%,66.666667%);fill-opacity:1;" d="M 687.554688 800.953125 C 697.167969 800.140625 666.320312 800.660156 656.714844 801.574219 C 640.398438 803.128906 590.777344 822.851562 597.15625 844.542969 C 600.6875 856.546875 615.625 832.808594 621.03125 828.714844 C 638.25 815.671875 660.894531 816.398438 681.59375 816.398438 C 685.410156 816.398438 705.101562 813.972656 698.546875 808.730469 C 697.246094 807.6875 681.925781 801.425781 687.554688 800.953125 Z M 687.554688 800.953125 "/>
<path style=" stroke:none;fill-rule:nonzero;fill:rgb(66.666667%,66.666667%,66.666667%);fill-opacity:1;" d="M 664.605469 758.179688 C 657.859375 749.898438 658.25 772.078125 654.65625 774.101562 C 653.164062 774.9375 620.671875 779.460938 623.976562 781.5625 C 634.441406 788.21875 679.550781 786.765625 677.207031 768.792969 C 676.398438 762.609375 668.042969 762.40625 664.605469 758.179688 Z M 664.605469 758.179688 "/>
<path style=" stroke:none;fill-rule:nonzero;fill:rgb(66.666667%,66.666667%,66.666667%);fill-opacity:1;" d="M 694.453125 789.023438 C 690.421875 790.632812 694.523438 791.976562 697.4375 794.332031 C 708.394531 803.179688 742.351562 795.507812 754.8125 788.027344 C 757.09375 786.660156 739.582031 786.148438 737.234375 786.039062 C 723.105469 785.382812 707.722656 783.726562 694.453125 789.023438 Z M 694.453125 789.023438 "/>
<path style=" stroke:none;fill-rule:nonzero;fill:rgb(66.666667%,66.666667%,66.666667%);fill-opacity:1;" d="M 598.160156 876.089844 C 596.378906 877.328125 602.640625 867.648438 604.175781 866.332031 C 613.265625 858.539062 627.382812 859.0625 638.4375 861.113281 C 642.324219 861.832031 654.1875 862.246094 650.238281 862.246094 C 644.757812 862.246094 601.398438 873.839844 598.160156 876.089844 Z M 598.160156 876.089844 "/>
<path style=" stroke:none;fill-rule:nonzero;fill:rgb(66.666667%,66.666667%,66.666667%);fill-opacity:1;" d="M 620.171875 882.441406 C 608.132812 856.636719 715.679688 891.71875 673.835938 883.804688 C 664.695312 882.074219 654.765625 881.535156 645.472656 881.535156 C 633.261719 881.535156 624.824219 892.414062 620.171875 882.441406 Z M 620.171875 882.441406 "/>
<path style=" stroke:none;fill-rule:nonzero;fill:rgb(66.666667%,66.666667%,66.666667%);fill-opacity:1;" d="M 603.605469 894.242188 C 590.335938 909.726562 654.894531 903.089844 665.441406 903.089844 C 679.570312 903.089844 692.964844 906.777344 705.605469 912.394531 C 705.796875 912.480469 708.089844 913.328125 708.328125 912.847656 C 713.851562 901.796875 679.789062 898.035156 647.972656 895.449219 C 628.773438 893.886719 608.5 888.535156 603.605469 894.242188 Z M 603.605469 894.242188 "/>
<path style=" stroke:none;fill-rule:nonzero;fill:rgb(66.666667%,66.666667%,66.666667%);fill-opacity:1;" d="M 682.515625 854.941406 C 665.164062 844.722656 704.410156 890.71875 717.941406 870.421875 C 725.667969 858.828125 685.617188 856.769531 682.515625 854.941406 Z M 682.515625 854.941406 "/>
<path style=" stroke:none;fill-rule:nonzero;fill:rgb(66.666667%,66.666667%,66.666667%);fill-opacity:1;" d="M 639.507812 854.863281 C 637.367188 854.242188 653.808594 866.710938 657.460938 867.707031 C 661.875 868.910156 669.542969 858.273438 672.621094 855.578125 C 672.90625 855.332031 679.46875 850.25 679.324219 850.152344 C 670.828125 844.492188 649.835938 857.855469 639.507812 854.863281 Z M 639.507812 854.863281 "/>
<path style=" stroke:none;fill-rule:nonzero;fill:rgb(66.666667%,66.666667%,66.666667%);fill-opacity:1;" d="M 667.835938 827.8125 C 666.730469 824.476562 663.570312 835.855469 663.683594 837.226562 C 663.894531 839.753906 712.640625 839.730469 715.390625 831.484375 C 715.523438 831.078125 704.582031 829.949219 703.582031 829.886719 C 693.742188 829.292969 683.9375 827.492188 674.058594 827.492188 C 672.1875 827.492188 668.335938 829.324219 667.835938 827.8125 Z M 667.835938 827.8125 "/>
<path style=" stroke:none;fill-rule:nonzero;fill:rgb(66.666667%,66.666667%,66.666667%);fill-opacity:1;" d="M 662.410156 827.492188 C 655.957031 816.382812 627.144531 836.054688 620.597656 843.292969 C 617.164062 847.085938 601.117188 848.714844 606.234375 848.714844 C 616.332031 848.714844 668.082031 837.265625 662.410156 827.492188 Z M 662.410156 827.492188 "/>
<path style=" stroke:none;fill-rule:nonzero;fill:rgb(66.666667%,66.666667%,66.666667%);fill-opacity:1;" d="M 564.238281 730.96875 C 540.089844 721.832031 533.738281 752.730469 511.199219 754.984375 C 510.417969 755.0625 508.058594 754.984375 508.84375 754.984375 C 515.238281 754.984375 521.605469 755.117188 527.996094 755.277344 C 535.757812 755.472656 575.613281 735.273438 564.238281 730.96875 Z M 564.238281 730.96875 "/>
<path style=" stroke:none;fill-rule:nonzero;fill:rgb(66.666667%,66.666667%,66.666667%);fill-opacity:1;" d="M 552.304688 754.542969 C 519.722656 769.171875 510.214844 775.601562 514.148438 780.324219 C 527.644531 796.519531 534.078125 773.296875 541.550781 765.589844 C 542.730469 764.371094 555.710938 753.011719 552.304688 754.542969 Z M 552.304688 754.542969 "/>
<path style=" stroke:none;fill-rule:nonzero;fill:rgb(66.666667%,66.666667%,66.666667%);fill-opacity:1;" d="M 547.148438 780.765625 C 544.289062 782.984375 555.046875 767.328125 556.578125 766.179688 C 568.441406 757.28125 580.828125 757.914062 594.878906 755.570312 C 601.765625 754.425781 622.191406 750.5625 615.210938 750.5625 C 605.441406 750.5625 555.371094 774.386719 547.148438 780.765625 Z M 547.148438 780.765625 "/>
<path style=" stroke:none;fill-rule:nonzero;fill:rgb(66.666667%,66.666667%,66.666667%);fill-opacity:1;" d="M 575.582031 738.484375 C 585.199219 745.9375 598.292969 735.753906 609.023438 731.410156 C 625.460938 724.757812 651.269531 710.03125 633.480469 736.714844 C 626.601562 747.03125 571.046875 734.96875 575.582031 738.484375 Z M 575.582031 738.484375 "/>
<path style=" stroke:none;fill-rule:nonzero;fill:rgb(66.666667%,66.666667%,66.666667%);fill-opacity:1;" d="M 554.050781 787.15625 C 551.207031 797.238281 531.042969 794.015625 528.304688 799.496094 C 528.25 799.601562 528.21875 799.769531 528.304688 799.855469 C 541.089844 812.636719 552.164062 802.410156 553.515625 788.230469 C 553.625 787.097656 555.015625 783.742188 554.050781 787.15625 Z M 554.050781 787.15625 "/>
<path style=" stroke:none;fill-rule:nonzero;fill:rgb(66.666667%,66.666667%,66.666667%);fill-opacity:1;" d="M 561.652344 802 C 574.816406 792.59375 579.738281 785.121094 597.324219 782.867188 C 600.40625 782.472656 606.621094 782.152344 606.621094 782.152344 C 606.621094 782.152344 577.796875 790.269531 565.675781 798.601562 C 564.667969 799.292969 559.175781 803.769531 561.652344 802 Z M 561.652344 802 "/>
<path style=" stroke:none;fill-rule:nonzero;fill:rgb(66.666667%,66.666667%,66.666667%);fill-opacity:1;" d="M 677.433594 676.125 C 678.0625 674.3125 673.191406 686.035156 671.128906 686.941406 C 662.007812 690.957031 658.53125 689.699219 672.53125 694.257812 C 678.050781 696.054688 688.855469 698.78125 694.320312 695.503906 C 695.003906 695.09375 675.015625 683.113281 677.433594 676.125 Z M 677.433594 676.125 "/>
<path style=" stroke:none;fill-rule:nonzero;fill:rgb(66.666667%,66.666667%,66.666667%);fill-opacity:1;" d="M 680.625 648.34375 C 678.457031 647.164062 678.914062 647.449219 678.914062 650.207031 C 678.914062 673.796875 701.59375 668.308594 703.503906 687.410156 C 703.511719 687.460938 703.667969 690.367188 703.972656 690.367188 C 704.425781 690.367188 704.648438 690.382812 705.21875 690.054688 C 737.714844 671.484375 668.261719 627.503906 666.773438 617.679688 C 666.578125 616.394531 666.367188 611.96875 664.125 612.386719 C 651.578125 614.738281 684.265625 650.324219 680.625 648.34375 Z M 680.625 648.34375 "/>
<path style=" stroke:none;fill-rule:nonzero;fill:rgb(66.666667%,66.666667%,66.666667%);fill-opacity:1;" d="M 732.714844 714.1875 C 729.773438 711.039062 729.109375 706.550781 725.585938 703.757812 C 703.273438 686.058594 733.707031 741.089844 746 733.324219 C 754.722656 727.816406 736.125 717.832031 732.714844 714.1875 Z M 732.714844 714.1875 "/>
<path style=" stroke:none;fill-rule:nonzero;fill:rgb(66.666667%,66.666667%,66.666667%);fill-opacity:1;" d="M 329.070312 195.375 C 313.253906 189.5625 310.597656 213.78125 296.457031 220.207031 C 295.832031 220.492188 280.304688 228.523438 282.21875 229.480469 C 296.832031 236.789062 342.75 200.402344 329.070312 195.375 Z M 329.070312 195.375 "/>
<path style=" stroke:none;fill-rule:nonzero;fill:rgb(66.666667%,66.666667%,66.666667%);fill-opacity:1;" d="M 353.183594 259.992188 C 337.953125 291.246094 284.757812 264.539062 290.601562 297.660156 C 291.078125 300.355469 293.898438 314.90625 296.878906 316.394531 C 300.183594 318.046875 308.882812 299.667969 311.351562 302.132812 C 314.671875 305.457031 305.492188 315.398438 310.480469 319.140625 C 316.320312 323.523438 326.585938 298.121094 327.492188 305.359375 C 328.253906 311.453125 316.097656 321.980469 322.152344 322.992188 C 328.835938 324.105469 336.25 310.253906 343.382812 308.21875 C 343.820312 308.089844 344.066406 325.007812 352.695312 312.066406 C 358.777344 302.941406 357.671875 250.777344 353.183594 259.992188 Z M 353.183594 259.992188 "/>
<path style=" stroke:none;fill-rule:nonzero;fill:rgb(66.666667%,66.666667%,66.666667%);fill-opacity:1;" d="M 385.214844 337.042969 C 360.644531 326.957031 363.300781 362.351562 349.011719 371.878906 C 334.714844 381.410156 340.9375 359.261719 329.863281 364.796875 C 307.144531 376.160156 330.792969 398.222656 346.921875 399.230469 C 372.296875 400.820312 351.964844 384.640625 362.6875 379.28125 C 369.449219 375.898438 382.148438 367.363281 389.71875 366.730469 C 397.753906 366.0625 393.597656 381.625 398.246094 379.761719 C 409.902344 375.101562 414.621094 352.578125 411.925781 341.789062 C 405.207031 314.933594 391.703125 366.988281 384.730469 348.066406 C 383.082031 343.582031 388.757812 338.5 385.214844 337.042969 Z M 385.214844 337.042969 "/>
<path style=" stroke:none;fill-rule:nonzero;fill:rgb(66.666667%,66.666667%,66.666667%);fill-opacity:1;" d="M 419.5625 343.734375 C 416.46875 337.890625 420.667969 380.597656 417.128906 387.890625 C 413.695312 394.96875 382.574219 432.023438 393.246094 439.644531 C 397.914062 442.976562 411.1875 412.507812 415.65625 407.351562 C 427.433594 393.761719 420.574219 386.691406 427.007812 373.292969 C 428.433594 370.328125 432.199219 368.285156 434.527344 366.070312 C 444.675781 356.40625 425.257812 354.488281 419.5625 343.734375 Z M 419.5625 343.734375 "/>
<path style=" stroke:none;fill-rule:nonzero;fill:rgb(66.666667%,66.666667%,66.666667%);fill-opacity:1;" d="M 436.328125 402.851562 C 436.460938 415.285156 425.398438 429.703125 429.453125 442.3125 C 434.496094 458.003906 449.960938 455.140625 456.957031 465.632812 C 464.058594 476.285156 452.402344 494.136719 468.617188 501.507812 C 477.910156 505.730469 546.988281 496.933594 533.191406 509.578125 C 523.933594 518.066406 502.964844 516.152344 491.335938 517.652344 C 454.386719 522.417969 443.800781 500.75 443.800781 468.324219 C 443.800781 459.605469 423.671875 463.277344 421.378906 454.871094 C 419.253906 447.070312 420.484375 437.761719 420.484375 429.757812 C 420.484375 425.890625 436.214844 392.078125 436.328125 402.851562 Z M 436.328125 402.851562 "/>
<path style=" stroke:none;fill-rule:nonzero;fill:rgb(66.666667%,66.666667%,66.666667%);fill-opacity:1;" d="M 523.273438 317.113281 C 517.996094 317.78125 523.769531 334.222656 522.933594 340.078125 C 515.398438 392.824219 560.9375 374.867188 537.636719 363.832031 C 530.507812 360.453125 528.953125 354.9375 528.136719 347.316406 C 527.441406 340.835938 531.027344 316.136719 523.273438 317.113281 Z M 523.273438 317.113281 "/>
<path style=" stroke:none;fill-rule:nonzero;fill:rgb(66.666667%,66.666667%,66.666667%);fill-opacity:1;" d="M 582.214844 548.453125 C 581.804688 541.398438 575.027344 581.355469 574.269531 585.292969 C 572.308594 595.5 541.535156 610.386719 565.242188 614.902344 C 594.503906 620.476562 583.25 566.113281 582.214844 548.453125 Z M 582.214844 548.453125 "/>
<path style=" stroke:none;fill-rule:nonzero;fill:rgb(66.666667%,66.666667%,66.666667%);fill-opacity:1;" d="M 601.175781 548.277344 C 591.566406 572.144531 604.023438 574.046875 616.164062 591.789062 C 619.863281 597.199219 618 621.125 624.105469 618.875 C 656.625 606.894531 617.1875 578.445312 606.773438 566.875 C 602.992188 562.671875 603.644531 542.140625 601.175781 548.277344 Z M 601.175781 548.277344 "/>
<path style=" stroke:none;fill-rule:nonzero;fill:rgb(66.666667%,66.666667%,66.666667%);fill-opacity:1;" d="M 548.132812 619.316406 C 549.617188 614.265625 536.027344 632.472656 534.40625 638.554688 C 528.992188 658.859375 520.609375 671.160156 506.953125 689.785156 C 505.832031 691.316406 501.371094 697.222656 503.277344 699.515625 C 515.207031 713.828125 548.890625 641.636719 548.890625 626.015625 C 548.890625 623.359375 547.507812 621.449219 548.132812 619.316406 Z M 548.132812 619.316406 "/>
<path style=" stroke:none;fill-rule:nonzero;fill:rgb(66.666667%,66.666667%,66.666667%);fill-opacity:1;" d="M 453.992188 654.226562 C 461.140625 659.515625 470.769531 663.65625 479.285156 665.359375 C 492.140625 667.929688 493.011719 634.257812 465.234375 646.335938 C 461.203125 648.089844 450.675781 651.773438 453.992188 654.226562 Z M 453.992188 654.226562 "/>
<path style=" stroke:none;fill-rule:nonzero;fill:rgb(66.666667%,66.666667%,66.666667%);fill-opacity:1;" d="M 486.199219 632.390625 C 485.582031 633.027344 510.828125 656.5 497.871094 660.820312 C 495.96875 661.453125 516.410156 640.601562 511.707031 631.203125 C 507.15625 622.101562 490.910156 627.5625 486.199219 632.390625 Z M 486.199219 632.390625 "/>
<path style=" stroke:none;fill-rule:nonzero;fill:rgb(66.666667%,66.666667%,66.666667%);fill-opacity:1;" d="M 513.546875 558.785156 C 501.398438 564.8125 518.691406 580.023438 514.734375 589.914062 C 511.960938 596.851562 498.453125 603.570312 497.871094 609.371094 C 497.382812 614.277344 506.261719 614 509.332031 613.261719 C 526.148438 609.226562 530.9375 550.160156 513.546875 558.785156 Z M 513.546875 558.785156 "/>
<path style=" stroke:none;fill-rule:nonzero;fill:rgb(66.666667%,66.666667%,66.666667%);fill-opacity:1;" d="M 454.421875 540.738281 C 467.949219 556.425781 479.613281 542.496094 495.28125 548.628906 C 496.429688 549.078125 510.746094 559.078125 511.925781 555.546875 C 517.195312 539.730469 475.167969 544.78125 468.691406 544.085938 C 465.863281 543.785156 452.769531 538.816406 454.421875 540.738281 Z M 454.421875 540.738281 "/>
<path style=" stroke:none;fill-rule:nonzero;fill:rgb(66.666667%,66.666667%,66.666667%);fill-opacity:1;" d="M 500.035156 524.957031 C 495.355469 551.085938 526.90625 547.960938 541.539062 558.136719 C 547.300781 562.148438 550.320312 585.207031 557.535156 572.839844 C 571.617188 548.699219 538.042969 552.332031 526.625 544.519531 C 507.550781 531.46875 500.089844 524.652344 500.035156 524.957031 Z M 500.035156 524.957031 "/>
<path style=" stroke:none;fill-rule:nonzero;fill:rgb(66.666667%,66.666667%,66.666667%);fill-opacity:1;" d="M 571.15625 524.847656 C 563.984375 533.128906 571.535156 540.148438 567.695312 550.574219 C 567.667969 550.644531 565.710938 555.847656 565.96875 555.976562 C 573.304688 559.644531 580.730469 513.789062 571.15625 524.847656 Z M 571.15625 524.847656 "/>
<path style=" stroke:none;fill-rule:nonzero;fill:rgb(66.666667%,66.666667%,66.666667%);fill-opacity:1;" d="M 556.132812 511.230469 C 551.800781 516.78125 523.378906 530.675781 521.003906 523.550781 C 520.546875 522.183594 523.929688 522.972656 525.324219 523.335938 C 564.339844 533.449219 559.335938 507.125 556.132812 511.230469 Z M 556.132812 511.230469 "/>
<path style=" stroke:none;fill-rule:nonzero;fill:rgb(66.666667%,66.666667%,66.666667%);fill-opacity:1;" d="M 412.269531 511.015625 C 388.132812 552.726562 469.785156 563.480469 460.042969 551.652344 C 455.128906 545.6875 444.105469 550.070312 439.941406 545.386719 C 428.25 532.230469 423.710938 491.242188 412.269531 511.015625 Z M 412.269531 511.015625 "/>
<path style=" stroke:none;fill-rule:nonzero;fill:rgb(66.666667%,66.666667%,66.666667%);fill-opacity:1;" d="M 402.433594 551.332031 C 407.644531 538.886719 399.492188 583.71875 416.164062 576.082031 C 430.390625 569.558594 399.269531 558.882812 402.433594 551.332031 Z M 402.433594 551.332031 "/>
<path style=" stroke:none;fill-rule:nonzero;fill:rgb(66.666667%,66.666667%,66.666667%);fill-opacity:1;" d="M 410.109375 583 C 402.496094 590.664062 436.894531 635.605469 451.398438 604.183594 C 455.914062 594.394531 435.980469 603.378906 432.589844 602.019531 C 424.523438 598.792969 422.886719 570.136719 410.109375 583 Z M 410.109375 583 "/>
<path style=" stroke:none;fill-rule:nonzero;fill:rgb(66.666667%,66.666667%,66.666667%);fill-opacity:1;" d="M 448.914062 572.296875 C 440.105469 582.636719 486.09375 587.871094 482.742188 571.109375 C 482.320312 569 474.585938 571.054688 473.664062 571.539062 C 461.902344 577.730469 457.496094 562.21875 448.914062 572.296875 Z M 448.914062 572.296875 "/>
<path style=" stroke:none;fill-rule:nonzero;fill:rgb(66.666667%,66.666667%,66.666667%);fill-opacity:1;" d="M 497.980469 562.464844 C 492.855469 560.972656 494.75 574.304688 493.335938 579.324219 C 490.863281 588.082031 484.121094 595.535156 474.527344 595.535156 C 470.023438 595.535156 483.65625 595.230469 487.929688 593.804688 C 498.351562 590.332031 513.359375 566.9375 497.980469 562.464844 Z M 497.980469 562.464844 "/>
<path style=" stroke:none;fill-rule:nonzero;fill:rgb(66.666667%,66.666667%,66.666667%);fill-opacity:1;" d="M 633.511719 936.648438 C 627.648438 938.261719 645.832031 938.371094 651.148438 941.324219 C 665.257812 949.164062 671.839844 964.75 691.484375 951.652344 C 697.433594 947.6875 676.6875 953.722656 670.050781 951.066406 C 656.667969 945.714844 650.148438 932.078125 633.511719 936.648438 Z M 633.511719 936.648438 "/>
<path style=" stroke:none;fill-rule:nonzero;fill:rgb(66.666667%,66.666667%,66.666667%);fill-opacity:1;" d="M 668.785156 935.28125 C 664.859375 937.882812 697.648438 932.242188 700.449219 933.140625 C 707.316406 935.339844 719.898438 964.125 723.445312 946.390625 C 725.585938 935.671875 691.507812 907.199219 683.300781 915.410156 C 681.753906 916.957031 696.222656 928.703125 695.773438 928.851562 C 687.996094 931.445312 679.453125 923.933594 671.21875 927.097656 C 664.863281 929.542969 670.664062 934.039062 668.785156 935.28125 Z M 668.785156 935.28125 "/>
<path style=" stroke:none;fill-rule:nonzero;fill:rgb(66.666667%,66.666667%,66.666667%);fill-opacity:1;" d="M 612.546875 909.820312 C 609.34375 906.808594 603.472656 918.417969 608.847656 920.722656 C 618.789062 924.984375 630.117188 915.824219 639.996094 920.59375 C 644.539062 922.785156 658.652344 938.171875 661.019531 932.792969 C 672.402344 906.921875 621.785156 918.507812 612.546875 909.820312 Z M 612.546875 909.820312 "/>
<path style=" stroke:none;fill-rule:nonzero;fill:rgb(66.666667%,66.666667%,66.666667%);fill-opacity:1;" d="M 694.425781 889.566406 C 693.925781 888.859375 749.09375 925.757812 737.0625 933.777344 C 735.847656 934.585938 736.9375 930.863281 736.9375 929.402344 C 736.9375 922.058594 737.214844 916.214844 731.351562 910.820312 C 720.472656 900.8125 703.582031 902.433594 694.425781 889.566406 Z M 694.425781 889.566406 "/>
<path style=" stroke:none;fill-rule:nonzero;fill:rgb(66.666667%,66.666667%,66.666667%);fill-opacity:1;" d="M 758.5 897.035156 C 756.675781 898.050781 736.015625 940.21875 754.066406 929.527344 C 759.898438 926.070312 759.773438 896.324219 758.5 897.035156 Z M 758.5 897.035156 "/>
<path style=" stroke:none;fill-rule:nonzero;fill:rgb(66.666667%,66.666667%,66.666667%);fill-opacity:1;" d="M 725.765625 881.914062 C 732.152344 886.933594 749.8125 901.589844 749.8125 910.820312 C 749.8125 915.773438 746.007812 916.636719 748.234375 910.699219 C 749.175781 908.191406 750.234375 905.902344 750.90625 903.289062 C 751.5 900.996094 752.011719 898.144531 750.542969 896.125 C 746.921875 891.144531 724.621094 881.011719 725.765625 881.914062 Z M 725.765625 881.914062 "/>
<path style=" stroke:none;fill-rule:nonzero;fill:rgb(66.666667%,66.666667%,66.666667%);fill-opacity:1;" d="M 741.613281 852.457031 C 741.882812 859.574219 753.460938 892.046875 757.34375 891.023438 C 771.78125 887.226562 751.917969 864.6875 749.207031 860.171875 C 748.59375 859.148438 741.546875 850.652344 741.613281 852.457031 Z M 741.613281 852.457031 "/>
<path style=" stroke:none;fill-rule:nonzero;fill:rgb(66.666667%,66.666667%,66.666667%);fill-opacity:1;" d="M 765.421875 831.933594 C 763.757812 829.667969 762.6875 835.777344 762.6875 837.820312 C 762.6875 841.289062 791.136719 874.683594 774.714844 877.417969 C 774.445312 877.464844 780.59375 858.660156 780.664062 856.285156 C 781.027344 844.667969 770.9375 839.441406 765.421875 831.933594 Z M 765.421875 831.933594 "/>
<path style=" stroke:none;fill-rule:nonzero;fill:rgb(66.666667%,66.666667%,66.666667%);fill-opacity:1;" d="M 714.894531 825.796875 C 711.246094 828.792969 724.367188 829.117188 727.101562 832.964844 C 730.96875 838.410156 736.511719 867.125 742.769531 840.007812 C 744.964844 830.496094 720.492188 821.203125 714.894531 825.796875 Z M 714.894531 825.796875 "/>
<path style=" stroke:none;fill-rule:nonzero;fill:rgb(66.666667%,66.666667%,66.666667%);fill-opacity:1;" d="M 748.652344 802.445312 C 746.085938 802.882812 751.957031 802.253906 753.613281 804.886719 C 756.585938 809.605469 755.972656 820.128906 754.835938 825.433594 C 754.730469 825.917969 753.960938 827.175781 754.3125 826.828125 C 764.433594 816.707031 770.300781 798.769531 748.652344 802.445312 Z M 748.652344 802.445312 "/>
<path style=" stroke:none;fill-rule:nonzero;fill:rgb(66.666667%,66.666667%,66.666667%);fill-opacity:1;" d="M 744.90625 749.417969 C 740.917969 749.019531 748.324219 750.25 749.785156 751.074219 C 758.652344 756.09375 764.300781 772.640625 767.023438 781.898438 C 767.1875 782.445312 767.523438 784.003906 767.71875 783.464844 C 775.558594 761.910156 767.550781 751.699219 744.90625 749.417969 Z M 744.90625 749.417969 "/>
<path style=" stroke:none;fill-rule:nonzero;fill:rgb(66.666667%,66.666667%,66.666667%);fill-opacity:1;" d="M 247.132812 60.054688 C 245.054688 60.695312 239.015625 57.941406 235.148438 61.535156 C 231.273438 65.132812 230.058594 73.460938 230.082031 75.101562 C 230.132812 78.136719 235.332031 84.71875 233.898438 86.152344 C 231.402344 88.644531 228.03125 88.246094 226.011719 93.625 C 225.472656 95.070312 226.070312 99.988281 230.082031 105.835938 C 233.175781 110.335938 243.316406 113.542969 245.914062 119.898438 C 249.324219 128.230469 246.683594 128.921875 250.332031 132.617188 C 255.375 137.726562 263.292969 148.003906 265.320312 149.851562 C 266.980469 151.359375 267.628906 153.777344 269.625 157.902344 C 272.253906 163.351562 269.722656 174.300781 271.902344 176.148438 C 275.777344 179.425781 279.160156 178.203125 282.054688 174.285156 C 285.363281 169.804688 286.445312 161.074219 289.765625 154.464844 C 292.84375 148.335938 298.863281 146.5 301.277344 139.851562 C 303.15625 134.679688 301.839844 121.449219 302.964844 116.644531 C 304.15625 111.574219 302.113281 114.535156 302.964844 109.96875 C 304.703125 100.695312 301.277344 90.265625 301.277344 86.152344 C 301.277344 80.378906 299.945312 77.339844 296.539062 73.980469 C 295.316406 72.769531 289.765625 71.527344 287.304688 70.351562 C 284.066406 68.796875 283.59375 74.898438 283.152344 71.527344 C 281.59375 59.59375 270.78125 57.5 269.117188 55.125 C 266.125 50.839844 265.601562 46.699219 258.375 45.253906 C 251.902344 43.957031 250.707031 58.953125 247.132812 60.054688 Z M 247.132812 60.054688 "/>
<path style=" stroke:none;fill-rule:nonzero;fill:rgb(66.666667%,66.666667%,66.666667%);fill-opacity:1;" d="M 298.246094 187.503906 C 295.289062 190.175781 279.253906 198.867188 289.667969 203.285156 C 307.941406 211.039062 303.625 182.640625 298.246094 187.503906 Z M 298.246094 187.503906 "/>
<path style=" stroke:none;fill-rule:nonzero;fill:rgb(66.666667%,66.666667%,66.666667%);fill-opacity:1;" d="M 288.710938 243.46875 C 294.429688 235.015625 294.773438 255.515625 296.203125 262.660156 C 296.511719 264.203125 309.46875 264.972656 304.824219 269.230469 C 293.359375 279.742188 285.316406 248.492188 288.710938 243.46875 Z M 288.710938 243.46875 "/>
<path style=" stroke:none;fill-rule:nonzero;fill:rgb(66.666667%,66.666667%,66.666667%);fill-opacity:1;" d="M 336.640625 220.273438 C 335.261719 219.164062 335.746094 226.460938 335.617188 228.179688 C 335.203125 233.492188 321.457031 241.519531 326.789062 241.519531 C 337.257812 241.519531 344.265625 226.394531 336.640625 220.273438 Z M 336.640625 220.273438 "/>
<path style=" stroke:none;fill-rule:nonzero;fill:rgb(66.666667%,66.666667%,66.666667%);fill-opacity:1;" d="M 395.796875 892.636719 C 390.359375 892.109375 375.867188 903.777344 376.140625 903.867188 C 381.085938 905.515625 422.976562 895.28125 395.796875 892.636719 Z M 395.796875 892.636719 "/>
<path style=" stroke:none;fill-rule:nonzero;fill:rgb(66.666667%,66.666667%,66.666667%);fill-opacity:1;" d="M 399.652344 911.449219 C 396.558594 909.625 372.902344 907.730469 379.535156 917.679688 C 380.800781 919.574219 394.246094 916.777344 396.851562 917.429688 C 399.011719 917.96875 408.835938 927.464844 411.300781 922.535156 C 413.039062 919.0625 402.015625 912.839844 399.652344 911.449219 Z M 399.652344 911.449219 "/>
<path style=" stroke:none;fill-rule:nonzero;fill:rgb(66.666667%,66.666667%,66.666667%);fill-opacity:1;" d="M 374.078125 932.714844 C 370.222656 926.5 410.195312 926.957031 411.058594 931.261719 C 411.417969 933.054688 394.742188 929.417969 393.621094 929.765625 C 388.679688 931.292969 387.351562 937.683594 382.414062 938.339844 C 380.417969 938.609375 375.140625 934.429688 374.078125 932.714844 Z M 374.078125 932.714844 "/>
<path style=" stroke:none;fill-rule:nonzero;fill:rgb(66.666667%,66.666667%,66.666667%);fill-opacity:1;" d="M 388.480469 949.457031 C 382.65625 948.832031 376.800781 957.347656 375.699219 964.582031 C 374.699219 971.128906 377.820312 976.40625 384.257812 976.988281 C 387.425781 977.28125 383.671875 975.527344 381.59375 972.226562 C 380.183594 969.988281 379.671875 966.785156 380.179688 965.066406 C 381.242188 961.441406 382.878906 958 384.847656 954.777344 C 385.914062 953.035156 390.511719 949.675781 388.480469 949.457031 Z M 388.480469 949.457031 "/>
<path style=" stroke:none;fill-rule:nonzero;fill:rgb(66.666667%,66.666667%,66.666667%);fill-opacity:1;" d="M 372.066406 946.214844 C 366.136719 943.835938 353.691406 976.679688 367.070312 977.023438 C 374.347656 977.207031 367.902344 975.601562 366.425781 970.480469 C 365.328125 966.679688 366.027344 961.195312 366.648438 958.285156 C 367.332031 955.105469 369.046875 952.128906 370.894531 949.425781 C 371.359375 948.746094 373.617188 946.839844 372.066406 946.214844 Z M 372.066406 946.214844 "/>
<path style=" stroke:none;fill-rule:nonzero;fill:rgb(66.666667%,66.666667%,66.666667%);fill-opacity:1;" d="M 495.222656 404.105469 C 490.507812 399.015625 534.53125 402.554688 541.78125 402.191406 C 551.804688 401.6875 564.542969 394.550781 571.117188 386.882812 C 580.097656 376.40625 562.300781 397.507812 558.785156 400.703125 C 541.871094 416.078125 509.945312 419.996094 495.222656 404.105469 Z M 495.222656 404.105469 "/>
<path style=" stroke:none;fill-rule:nonzero;fill:rgb(66.666667%,66.666667%,66.666667%);fill-opacity:1;" d="M 466.53125 434.703125 C 430.867188 451.375 516.40625 521.699219 540.746094 485.195312 C 551.066406 469.707031 490.128906 484.085938 482.308594 475.140625 C 475.0625 466.863281 475.167969 430.664062 466.53125 434.703125 Z M 466.53125 434.703125 "/>
<path style=" stroke:none;fill-rule:nonzero;fill:rgb(66.666667%,66.666667%,66.666667%);fill-opacity:1;" d="M 606.929688 353.980469 C 603.15625 367.015625 559.101562 395.050781 577.765625 413.714844 C 577.902344 413.851562 578.355469 410.761719 578.394531 410.421875 C 580.777344 390.175781 595.472656 391 601.597656 376.714844 C 603.65625 371.910156 607.46875 352.117188 606.929688 353.980469 Z M 606.929688 353.980469 "/>
<path style=" stroke:none;fill-rule:nonzero;fill:rgb(66.666667%,66.666667%,66.666667%);fill-opacity:1;" d="M 778.28125 780.894531 C 773.648438 784.488281 779.742188 797.136719 778.742188 803.007812 C 778.117188 806.675781 778.074219 810.652344 779.164062 814.238281 C 781.964844 823.4375 792.226562 832.234375 793.363281 818.613281 C 793.953125 811.503906 790.96875 805.691406 788.945312 799.054688 C 788.34375 797.070312 780.164062 779.433594 778.28125 780.894531 Z M 778.28125 780.894531 "/>
<path style=" stroke:none;fill-rule:nonzero;fill:rgb(66.666667%,66.666667%,66.666667%);fill-opacity:1;" d="M 790.632812 852.207031 C 789.378906 854 793.203125 859.378906 793.4375 867.804688 C 793.742188 878.675781 790.960938 892.96875 793.753906 893.898438 C 802.273438 896.738281 795.597656 845.109375 790.632812 852.207031 Z M 790.632812 852.207031 "/>
<path style=" stroke:none;fill-rule:nonzero;fill:rgb(66.666667%,66.666667%,66.666667%);fill-opacity:1;" d="M 768.152344 896.886719 C 766.988281 895.6875 772.597656 901.652344 773.003906 902.3125 C 776.175781 907.417969 778.285156 910.957031 778.285156 917.003906 C 778.285156 918.042969 779.496094 923.199219 781.625 922.398438 C 785.75 920.851562 783.449219 918.207031 783.890625 916.164062 C 785.453125 908.941406 770.792969 899.589844 768.152344 896.886719 Z M 768.152344 896.886719 "/>
<path style=" stroke:none;fill-rule:nonzero;fill:rgb(66.666667%,66.666667%,66.666667%);fill-opacity:1;" d="M 609.464844 298.339844 C 609.292969 297.992188 608.105469 301.304688 607.449219 302.402344 C 605.296875 305.988281 603.777344 309.964844 601.695312 313.609375 C 599.660156 317.171875 597.40625 320.867188 594.816406 324.105469 C 593.621094 325.601562 590.5 326.734375 592.355469 327.199219 C 597.753906 328.546875 601.519531 324.894531 605.238281 319.273438 C 609.828125 312.332031 612.054688 303.597656 609.464844 298.339844 Z M 609.464844 298.339844 "/>
<path style=" stroke:none;fill-rule:nonzero;fill:rgb(100%,82.745098%,80.784314%);fill-opacity:1;" d="M 609.574219 246.664062 C 606.304688 246.707031 603.191406 246.460938 600.308594 248.023438 C 599.230469 248.605469 596.132812 251.832031 595.074219 252.425781 C 588.554688 256.074219 584.707031 260.808594 580.128906 265.753906 C 575.011719 271.285156 569.429688 277.25 567.285156 285.585938 C 566.652344 288.058594 567.289062 290.601562 567.117188 293.332031 C 566.855469 297.378906 564.402344 308.957031 568.367188 311.222656 C 590.804688 324.046875 604.238281 288.480469 608.101562 272.390625 C 608.511719 270.671875 611.941406 246.632812 609.574219 246.664062 Z M 609.574219 246.664062 "/>
<path style=" stroke:none;fill-rule:nonzero;fill:rgb(0%,0%,0%);fill-opacity:1;" d="M 446.695312 284.132812 C 445.679688 283.308594 444.445312 286.738281 443.15625 287.542969 C 441.617188 288.503906 439.632812 289.542969 438.46875 290.9375 C 436.992188 292.714844 435.9375 293.984375 437.550781 294.03125 C 441.601562 294.15625 452.929688 289.179688 446.695312 284.132812 Z M 446.695312 284.132812 "/>
<path style=" stroke:none;fill-rule:nonzero;fill:rgb(0%,0%,0%);fill-opacity:1;" d="M 431.136719 294.523438 C 432.542969 295.28125 427.558594 297.6875 429.03125 298.300781 C 430.351562 298.847656 435.933594 296.359375 436.390625 294.988281 C 436.886719 293.496094 429.753906 293.78125 431.136719 294.523438 Z M 431.136719 294.523438 "/>
<path style=" stroke:none;fill-rule:nonzero;fill:rgb(92.941176%,65.098039%,61.960784%);fill-opacity:1;" d="M 432.882812 282.132812 C 430.824219 284.085938 430.941406 287.570312 430.628906 289.957031 C 430.1875 293.328125 430.433594 295.25 433.070312 294.523438 C 434.136719 294.230469 435.921875 293.90625 437.710938 292.445312 C 438.757812 291.589844 439.609375 289.804688 441.433594 288.445312 C 443.449219 286.945312 446.398438 285.835938 446.523438 284.1875 C 446.914062 279.132812 434.976562 280.140625 432.882812 282.132812 Z M 432.882812 282.132812 "/>
<path style=" stroke:none;fill-rule:nonzero;fill:rgb(0%,0%,0%);fill-opacity:1;" d="M 497.582031 286.617188 C 497.316406 287.179688 493.273438 289.4375 493.671875 290.230469 C 494.074219 291.042969 500.457031 289.984375 501.652344 290.210938 C 504.578125 290.769531 509.570312 294.382812 512.042969 294.382812 C 513.59375 294.382812 510.660156 291.542969 509.5625 290.445312 C 507.1875 288.070312 505.203125 285.859375 501.617188 285.859375 C 501.15625 285.859375 497.859375 286.027344 497.582031 286.617188 Z M 497.582031 286.617188 "/>
<path style=" stroke:none;fill-rule:nonzero;fill:rgb(0%,0%,0%);fill-opacity:1;" d="M 514.609375 298.660156 C 514.707031 300.972656 514.128906 304.546875 515.191406 305.203125 C 515.726562 305.53125 516.355469 306.125 518.339844 304.535156 C 519.882812 303.300781 514.59375 298.367188 514.609375 298.660156 Z M 514.609375 298.660156 "/>
<path style=" stroke:none;fill-rule:nonzero;fill:rgb(0%,0%,0%);fill-opacity:1;" d="M 489.828125 293.011719 C 489.667969 293.65625 482.25 301.738281 483.558594 302.390625 C 484.882812 303.054688 487.007812 303.117188 488.566406 303.457031 C 489.519531 303.667969 490.167969 304.714844 490.574219 303.902344 C 490.945312 303.160156 488.882812 299.421875 489.066406 297.972656 C 489.246094 296.515625 490.1875 291.585938 489.828125 293.011719 Z M 489.828125 293.011719 "/>
<path style="fill:none;stroke-width:1;stroke-linecap:butt;stroke-linejoin:round;stroke:rgb(0%,0%,0%);stroke-opacity:1;stroke-miterlimit:4;" d="M 370.212685 300.099553 C 370.212685 297.436181 373.617228 292.395346 377.978473 287.726197 C 379.313459 286.296641 380.736417 284.900074 382.181368 283.617873 C 382.421093 283.406738 382.660819 283.197803 382.900545 282.991067 C 388.365847 278.299924 393.936717 275.410022 395.828129 278.561643 C 396.837616 280.24632 397.361053 282.731548 397.460022 285.696227 C 397.493012 286.68592 397.482015 287.728396 397.424833 288.812659 C 397.006963 296.668619 394.268814 306.721697 390.167088 314.496282 C 386.459039 321.525298 381.638137 326.693693 376.41256 326.693693 " transform="matrix(1.77612,0,0,1.77612,-90.948286,-245.813504)"/>
<path style="fill:none;stroke-width:1;stroke-linecap:butt;stroke-linejoin:round;stroke:rgb(0%,0%,0%);stroke-opacity:1;stroke-miterlimit:4;" d="M 357.274104 285.529079 C 357.274104 281.911203 357.476441 278.339512 358.153831 274.781017 C 358.595894 272.460738 358.976375 270.125064 359.41184 267.804784 C 359.724143 266.131104 360.269574 257.852875 363.370611 258.627035 C 364.417485 258.890953 364.53185 265.875983 364.690201 266.986638 C 365.88223 275.322049 368.838112 283.008662 368.838112 291.498025 " transform="matrix(1.77612,0,0,1.77612,-90.948286,-245.813504)"/>
<path style="fill:none;stroke-width:1;stroke-linecap:butt;stroke-linejoin:round;stroke:rgb(0%,0%,0%);stroke-opacity:1;stroke-miterlimit:4;" d="M 368.637975 287.36111 C 369.588079 288.309016 373.612829 291.247303 373.612829 292.822014 " transform="matrix(1.77612,0,0,1.77612,-90.948286,-245.813504)"/>
<path style="fill:none;stroke-width:1;stroke-linecap:butt;stroke-linejoin:round;stroke:rgb(0%,0%,0%);stroke-opacity:1;stroke-miterlimit:4;" d="M 343.473391 310.515518 C 342.270364 306.90424 338.883416 302.224094 335.87915 299.82024 C 331.942372 296.670818 323.336445 306.220252 323.336445 309.25311 " transform="matrix(1.77612,0,0,1.77612,-90.948286,-245.813504)"/>
<path style="fill:none;stroke-width:1;stroke-linecap:butt;stroke-linejoin:round;stroke:rgb(0%,0%,0%);stroke-opacity:1;stroke-miterlimit:4;" d="M 323.336445 308.782456 C 323.800501 308.782456 324.755005 308.938608 325.955832 309.173935 C 327.955011 309.567613 328.960099 310.808027 331.170412 311.318269 C 332.890278 311.716345 335.718599 311.575589 336.323412 311.448029 C 338.337986 311.02356 341.489607 310.179023 343.044524 310.179023 " transform="matrix(1.77612,0,0,1.77612,-90.948286,-245.813504)"/>
<path style="fill:none;stroke-width:1;stroke-linecap:butt;stroke-linejoin:round;stroke:rgb(0%,0%,0%);stroke-opacity:1;stroke-miterlimit:4;" d="M 326.754184 308.052283 C 324.675829 298.852541 340.055652 300.090756 341.249881 308.45036 C 341.520397 310.343971 339.316682 310.649676 337.801353 310.649676 C 337.018396 310.649676 335.769184 310.695862 334.388013 310.676068 C 333.103612 310.656274 331.702647 310.579298 330.453435 310.357167 C 328.581816 310.022871 327.048892 309.354279 326.754184 308.052283 Z M 326.754184 308.052283 " transform="matrix(1.77612,0,0,1.77612,-90.948286,-245.813504)"/>
<path style="fill:none;stroke-width:1;stroke-linecap:butt;stroke-linejoin:round;stroke:rgb(0%,0%,0%);stroke-opacity:1;stroke-miterlimit:4;" d="M 291.560715 306.990013 C 283.629978 318.886118 295.187389 327.747166 305.539573 331.200093 C 308.345901 332.134803 315.306739 333.320235 317.42908 331.200093 " transform="matrix(1.77612,0,0,1.77612,-90.948286,-245.813504)"/>
<path style="fill:none;stroke-width:1;stroke-linecap:butt;stroke-linejoin:round;stroke:rgb(0%,0%,0%);stroke-opacity:1;stroke-miterlimit:4;" d="M 357.274104 284.990246 C 348.17553 284.990246 334.845471 281.574707 326.035007 285.979939 C 321.249294 288.372796 317.358702 293.338853 312.069345 294.660643 C 307.829062 295.720713 300.127054 293.523596 296.34203 295.415008 C 292.088551 297.541748 295.264365 305.226161 291.393567 307.16156 " transform="matrix(1.77612,0,0,1.77612,-90.948286,-245.813504)"/>
<path style="fill:none;stroke-width:1;stroke-linecap:butt;stroke-linejoin:round;stroke:rgb(0%,0%,0%);stroke-opacity:1;stroke-miterlimit:4;" d="M 290.801951 321.10303 C 283.082348 334.584842 315.163784 348.066655 328.372881 348.066655 " transform="matrix(1.77612,0,0,1.77612,-90.948286,-245.813504)"/>
<path style="fill:none;stroke-width:1;stroke-linecap:butt;stroke-linejoin:round;stroke:rgb(0%,0%,0%);stroke-opacity:1;stroke-miterlimit:4;" d="M 394.398573 304.223273 C 394.398573 316.548244 398.234182 336.163952 394.647096 348.123837 C 389.368736 365.722771 376.678677 387.372846 370.344644 404.732054 C 367.20402 413.333582 370.846089 426.096218 377.604589 426.096218 " transform="matrix(1.77612,0,0,1.77612,-90.948286,-245.813504)"/>
<path style="fill:none;stroke-width:1;stroke-linecap:butt;stroke-linejoin:round;stroke:rgb(0%,0%,0%);stroke-opacity:1;stroke-miterlimit:4;" d="M 356.442762 671.887475 C 348.157936 673.54576 344.44109 686.172038 352.547772 688.197609 C 360.412529 690.163798 370.96925 687.832522 379.08253 687.832522 C 399.894666 687.832522 420.709001 687.832522 441.521137 687.832522 C 449.192354 687.832522 456.808588 687.262899 464.317056 685.897123 C 464.961456 685.77836 470.611501 685.13616 470.611501 684.52255 " transform="matrix(1.77612,0,0,1.77612,-90.948286,-245.813504)"/>
<path style="fill:none;stroke-width:1;stroke-linecap:butt;stroke-linejoin:round;stroke:rgb(0%,0%,0%);stroke-opacity:1;stroke-miterlimit:4;" d="M 350.852099 664.847461 C 340.783626 664.847461 329.666079 677.506729 339.281493 685.52104 C 341.592975 687.445442 346.552434 686.493138 349.382955 686.493138 " transform="matrix(1.77612,0,0,1.77612,-90.948286,-245.813504)"/>
<path style="fill:none;stroke-width:1;stroke-linecap:butt;stroke-linejoin:round;stroke:rgb(0%,0%,0%);stroke-opacity:1;stroke-miterlimit:4;" d="M 417.680542 570.538554 C 384.217935 570.538554 368.816119 607.649827 383.122676 636.26294 C 386.311685 642.638759 388.944267 649.33348 391.603241 655.979816 C 392.859051 659.122639 398.871984 662.491993 396.479127 664.88485 C 395.979882 665.384095 364.001815 664.88485 360.436722 664.88485 C 359.592184 664.88485 350.260483 664.504368 350.260483 664.966224 " transform="matrix(1.77612,0,0,1.77612,-90.948286,-245.813504)"/>
<path style="fill:none;stroke-width:1;stroke-linecap:butt;stroke-linejoin:round;stroke:rgb(0%,0%,0%);stroke-opacity:1;stroke-miterlimit:4;" d="M 377.375861 426.096218 C 379.902876 426.940756 380.830987 432.166333 381.987828 434.092935 C 383.20405 436.118505 385.473745 437.530467 387.114436 439.171157 C 390.950044 443.008965 393.993899 447.603338 397.88449 451.49393 C 399.305249 452.914688 403.613711 457.099988 405.731653 457.099988 " transform="matrix(1.77612,0,0,1.77612,-90.948286,-245.813504)"/>
<path style="fill:none;stroke-width:1;stroke-linecap:butt;stroke-linejoin:round;stroke:rgb(0%,0%,0%);stroke-opacity:1;stroke-miterlimit:4;" d="M 405.188422 457.099988 C 409.31654 460.102056 413.204932 464.542477 417.055936 467.962415 C 425.534302 475.499474 433.029574 483.388423 440.192749 492.143904 C 440.942716 493.061019 453.089544 510.028749 453.089544 510.679746 " transform="matrix(1.77612,0,0,1.77612,-90.948286,-245.813504)"/>
<path style="fill:none;stroke-width:1;stroke-linecap:butt;stroke-linejoin:round;stroke:rgb(0%,0%,0%);stroke-opacity:1;stroke-miterlimit:4;" d="M 453.089544 510.679746 C 453.089544 522.795783 481.663069 555.563405 488.595315 567.120816 C 489.947895 569.372916 497.289215 593.63578 497.711484 596.602658 C 498.589011 602.74755 495.301033 604.80611 496.354505 609.015603 C 498.580214 617.918438 503.117405 632.922177 498.487843 642.181302 C 495.866257 647.426672 493.264465 652.812799 491.505012 658.086761 C 491.247692 658.86312 486.952426 658.077964 486.268438 659.445939 C 484.157094 663.670827 477.944024 684.804063 469.931912 684.804063 " transform="matrix(1.77612,0,0,1.77612,-90.948286,-245.813504)"/>
<path style="fill:none;stroke-width:1;stroke-linecap:butt;stroke-linejoin:round;stroke:rgb(0%,0%,0%);stroke-opacity:1;stroke-miterlimit:4;" d="M 324.757204 663.875363 C 320.253003 662.645945 313.641857 671.278264 316.355814 675.621915 C 319.956095 681.381926 329.88821 679.380547 335.597637 679.380547 " transform="matrix(1.77612,0,0,1.77612,-90.948286,-245.813504)"/>
<path style="fill:none;stroke-width:1;stroke-linecap:butt;stroke-linejoin:round;stroke:rgb(0%,0%,0%);stroke-opacity:1;stroke-miterlimit:4;" d="M 322.445722 679.332162 C 319.766954 680.227284 313.421925 681.977941 310.213122 679.686252 C 304.596066 675.674698 306.197169 669.428638 310.074565 665.106981 C 311.616286 663.389314 314.055328 662.346838 315.72241 661.304362 C 320.061663 658.592604 326.677208 659.239203 331.533299 658.997278 C 344.551056 658.346281 357.599603 658.454047 370.654748 658.454047 C 373.329117 658.454047 383.971612 655.590537 387.5499 658.260507 " transform="matrix(1.77612,0,0,1.77612,-90.948286,-245.813504)"/>
<path style="fill:none;stroke-width:1;stroke-linecap:butt;stroke-linejoin:round;stroke:rgb(0%,0%,0%);stroke-opacity:1;stroke-miterlimit:4;" d="M 325.406003 546.299883 C 325.406003 561.24864 337.526438 582.751361 347.548725 592.773648 C 349.050858 594.275781 348.584603 603.29518 349.268591 605.575871 C 352.083716 614.960356 354.258841 624.375632 359.585586 632.900184 C 364.375698 640.564804 369.464918 646.610726 376.401563 652.39273 C 377.597992 653.38902 388.079936 656.77157 387.338766 657.684286 " transform="matrix(1.77612,0,0,1.77612,-90.948286,-245.813504)"/>
<path style="fill:none;stroke-width:1;stroke-linecap:butt;stroke-linejoin:round;stroke:rgb(0%,0%,0%);stroke-opacity:1;stroke-miterlimit:4;" d="M 270.434077 673.156481 C 267.394621 675.05669 262.842035 683.343716 266.59187 686.468946 C 275.697042 694.058788 287.467786 683.737394 289.464766 674.750985 C 290.654596 669.397848 288.820366 663.642236 289.277824 658.157139 C 289.944217 650.162622 292.47783 641.594084 294.05694 633.691938 C 296.1155 623.407933 302.592489 614.260974 303.901082 603.787827 C 304.659846 597.719911 306.775589 590.44677 308.96391 584.757138 C 309.355388 583.736655 311.695461 578.638638 311.191818 579.518365 " transform="matrix(1.77612,0,0,1.77612,-90.948286,-245.813504)"/>
<path style="fill:none;stroke-width:1;stroke-linecap:butt;stroke-linejoin:round;stroke:rgb(0%,0%,0%);stroke-opacity:1;stroke-miterlimit:4;" d="M 261.223338 671.493797 C 256.954464 673.323629 255.381952 685.556229 259.598043 688.087643 C 262.292206 689.701941 266.662249 689.15871 268.349125 688.087643 " transform="matrix(1.77612,0,0,1.77612,-90.948286,-245.813504)"/>
<path style="fill:none;stroke-width:1;stroke-linecap:butt;stroke-linejoin:round;stroke:rgb(0%,0%,0%);stroke-opacity:1;stroke-miterlimit:4;" d="M 261.973305 665.401689 C 258.727113 665.401689 253.272807 668.480733 250.176169 671.8061 C 246.107433 676.178342 245.128737 681.483094 248.75761 685.837742 C 252.872532 690.777407 254.924494 689.748127 259.844366 688.081045 " transform="matrix(1.77612,0,0,1.77612,-90.948286,-245.813504)"/>
<path style="fill:none;stroke-width:1;stroke-linecap:butt;stroke-linejoin:round;stroke:rgb(0%,0%,0%);stroke-opacity:1;stroke-miterlimit:4;" d="M 273.258 430.844544 C 273.258 449.730078 274.234497 465.358423 278.641928 482.985948 C 282.200422 497.224326 276.622955 514.024907 276.622955 528.060948 C 276.622955 537.170518 278.853062 549.409717 276.622955 558.336744 C 268.30074 591.621206 261.821552 630.529321 261.821552 665.88114 " transform="matrix(1.77612,0,0,1.77612,-90.948286,-245.813504)"/>
<path style="fill:none;stroke-width:1;stroke-linecap:butt;stroke-linejoin:round;stroke:rgb(0%,0%,0%);stroke-opacity:1;stroke-miterlimit:4;" d="M 310.916903 580.000015 C 320.136439 565.865006 332.46361 522.813378 341.766721 504.209356 C 344.047412 499.645774 347.720272 495.412089 349.490722 490.690155 C 349.94598 489.478332 350.541995 483.351035 351.421722 483.351035 " transform="matrix(1.77612,0,0,1.77612,-90.948286,-245.813504)"/>
<path style="fill:none;stroke-width:1;stroke-linecap:butt;stroke-linejoin:round;stroke:rgb(0%,0%,0%);stroke-opacity:1;stroke-miterlimit:4;" d="M 264.029666 396.000766 C 255.988964 424.147624 253.338787 460.150441 264.251797 487.428568 C 266.686441 493.520676 276.255669 512.551365 278.100896 512.551365 " transform="matrix(1.77612,0,0,1.77612,-90.948286,-245.813504)"/>
<path style="fill:none;stroke-width:1;stroke-linecap:butt;stroke-linejoin:round;stroke:rgb(0%,0%,0%);stroke-opacity:1;stroke-miterlimit:4;" d="M 229.080322 217.139121 C 229.080322 225.258999 237.668654 239.503975 240.721306 247.43911 C 248.924758 268.768085 249.599948 293.004557 261.042994 313.029337 C 265.358054 320.579592 290.980095 325.952523 290.980095 330.505109 " transform="matrix(1.77612,0,0,1.77612,-90.948286,-245.813504)"/>
<path style="fill:none;stroke-width:1;stroke-linecap:butt;stroke-linejoin:round;stroke:rgb(0%,0%,0%);stroke-opacity:1;stroke-miterlimit:4;" d="M 208.204406 247.82399 C 208.204406 289.870531 218.30147 330.672257 238.803502 367.576795 C 241.009416 371.544362 257.799002 405.32367 261.524644 405.32367 " transform="matrix(1.77612,0,0,1.77612,-90.948286,-245.813504)"/>
<path style="fill:none;stroke-width:1;stroke-linecap:butt;stroke-linejoin:round;stroke:rgb(0%,0%,0%);stroke-opacity:1;stroke-miterlimit:4;" d="M 300.23702 338.581001 C 300.23702 341.563275 301.10795 366.156036 299.926916 367.337069 " transform="matrix(1.77612,0,0,1.77612,-90.948286,-245.813504)"/>
<path style="fill:none;stroke-width:1;stroke-linecap:butt;stroke-linejoin:round;stroke:rgb(0%,0%,0%);stroke-opacity:1;stroke-miterlimit:4;" d="M 370.212685 658.267105 C 368.389452 655.718097 363.342019 650.114238 361.688133 646.663509 C 361.28126 645.810174 363.355215 653.952045 363.056108 653.054724 C 356.713278 634.024035 331.126426 629.409868 319.538225 617.823867 C 319.027984 617.311426 319.670184 619.774661 319.023585 619.451362 C 314.4666 617.172869 307.463975 612.000076 302.047058 612.000076 " transform="matrix(1.77612,0,0,1.77612,-90.948286,-245.813504)"/>
<path style="fill:none;stroke-width:1;stroke-linecap:butt;stroke-linejoin:round;stroke:rgb(0%,0%,0%);stroke-opacity:1;stroke-miterlimit:4;" d="M 333.917359 658.821333 C 329.837626 658.821333 324.51308 651.183106 319.357881 649.322483 C 318.52434 649.021177 323.488198 649.23671 322.648059 648.957397 C 317.486262 647.235332 314.334641 644.527973 308.348101 642.511199 C 307.101088 642.09113 310.587005 641.264186 310.463844 641.202606 C 307.112085 639.526726 294.452817 638.42047 294.452817 632.196403 " transform="matrix(1.77612,0,0,1.77612,-90.948286,-245.813504)"/>
<path style="fill:none;stroke-width:1;stroke-linecap:butt;stroke-linejoin:round;stroke:rgb(0%,0%,0%);stroke-opacity:1;stroke-miterlimit:4;" d="M 318.286814 565.07985 C 320.677471 569.861164 328.636799 575.603581 333.066223 578.372521 C 334.091105 579.012522 336.846849 581.159055 338.733863 581.805654 " transform="matrix(1.77612,0,0,1.77612,-90.948286,-245.813504)"/>
<path style="fill:none;stroke-width:1;stroke-linecap:butt;stroke-linejoin:round;stroke:rgb(0%,0%,0%);stroke-opacity:1;stroke-miterlimit:4;" d="M 294.452817 297.253637 C 295.831788 297.253637 297.945332 296.340921 299.322104 296.43989 C 302.150426 296.640028 304.675242 299.593711 302.750839 302.160313 C 302.163622 302.94327 300.68788 302.938871 299.062585 303.638254 C 297.329523 304.383823 295.433712 305.819977 294.452817 306.165269 C 293.37955 306.543552 291.468344 306.858054 290.980095 308.083074 " transform="matrix(1.77612,0,0,1.77612,-90.948286,-245.813504)"/>
<path style="fill:none;stroke-width:1;stroke-linecap:butt;stroke-linejoin:round;stroke:rgb(0%,0%,0%);stroke-opacity:1;stroke-miterlimit:4;" d="M 302.546303 298.0168 C 302.546303 300.697768 297.201963 300.765946 297.201963 304.467397 " transform="matrix(1.77612,0,0,1.77612,-90.948286,-245.813504)"/>
<path style="fill:none;stroke-width:1;stroke-linecap:butt;stroke-linejoin:round;stroke:rgb(0%,0%,0%);stroke-opacity:1;stroke-miterlimit:4;" d="M 293.287179 304.795095 C 294.265875 303.818598 295.928558 303.954956 297.201963 303.954956 " transform="matrix(1.77612,0,0,1.77612,-90.948286,-245.813504)"/>
<path style="fill-rule:nonzero;fill:rgb(0%,0%,0%);fill-opacity:1;stroke-width:1;stroke-linecap:butt;stroke-linejoin:round;stroke:rgb(0%,0%,0%);stroke-opacity:1;stroke-miterlimit:4;" d="M 334.295641 304.375025 C 333.860177 304.984236 331.612475 306.536954 331.713643 308.45036 C 331.779623 309.708369 332.483404 309.180533 332.646154 310.12404 C 332.8177 311.102736 335.742792 305.608842 335.494269 304.03853 C 335.448083 303.737224 334.759697 303.724028 334.295641 304.375025 Z M 334.295641 304.375025 " transform="matrix(1.77612,0,0,1.77612,-90.948286,-245.813504)"/>
<path style=" stroke:none;fill-rule:nonzero;fill:rgb(100%,100%,100%);fill-opacity:1;" d="M 507.890625 298.90625 C 504.519531 298.105469 504.746094 304.335938 505.734375 304.5 C 508.003906 304.878906 515.894531 302.378906 511.511719 299.09375 C 510.625 298.429688 508.898438 299.148438 507.890625 298.90625 Z M 507.890625 298.90625 "/>
<path style=" stroke:none;fill-rule:nonzero;fill:rgb(100%,100%,100%);fill-opacity:1;" d="M 497.769531 292.089844 C 495.585938 291.484375 496.355469 294.589844 497.613281 295.125 C 499.605469 295.980469 500.339844 292.804688 497.769531 292.089844 Z M 497.769531 292.089844 "/>
<path style=" stroke:none;fill-rule:nonzero;fill:rgb(100%,100%,100%);fill-opacity:1;" d="M 496.828125 295.617188 C 495.175781 295.820312 489.941406 298.175781 493.085938 300.691406 C 495.074219 302.28125 498.191406 295.453125 496.828125 295.617188 Z M 496.828125 295.617188 "/>
<path style=" stroke:none;fill-rule:nonzero;fill:rgb(100%,100%,100%);fill-opacity:1;" d="M 495.417969 300.359375 C 494.183594 300.023438 494.25 303.253906 495.164062 303.433594 C 496.746094 303.75 496.945312 300.773438 495.417969 300.359375 Z M 495.417969 300.359375 "/>
<path style=" stroke:none;fill-rule:nonzero;fill:rgb(0%,0%,0%);fill-opacity:1;" d="M 437.726562 316.117188 C 438.105469 317.667969 440.164062 317.449219 439.484375 316.089844 C 439.203125 315.527344 437.53125 315.324219 437.726562 316.117188 Z M 437.726562 316.117188 "/>
<path style=" stroke:none;fill-rule:nonzero;fill:rgb(0%,0%,0%);fill-opacity:1;" d="M 442.910156 319.347656 C 441.941406 318.691406 442.628906 322.660156 444.042969 321.117188 C 445.132812 319.925781 443.320312 319.625 442.910156 319.347656 Z M 442.910156 319.347656 "/>
<path style=" stroke:none;fill-rule:nonzero;fill:rgb(0%,0%,0%);fill-opacity:1;" d="M 448.121094 322.6875 C 446.382812 323.367188 448.421875 324.523438 449.171875 324.019531 C 450.300781 323.269531 449.109375 322.300781 448.121094 322.6875 Z M 448.121094 322.6875 "/>
<path style=" stroke:none;fill-rule:nonzero;fill:rgb(0%,0%,0%);fill-opacity:1;" d="M 453.75 326.050781 C 453.324219 327.265625 455.636719 327.894531 455.894531 327.003906 C 456.273438 325.71875 454.105469 325.03125 453.75 326.050781 Z M 453.75 326.050781 "/>
<path style=" stroke:none;fill-rule:nonzero;fill:rgb(0%,0%,0%);fill-opacity:1;" d="M 437.558594 322.46875 C 437.71875 323.253906 438.351562 324.074219 439.03125 322.945312 C 439.636719 321.933594 437.433594 321.863281 437.558594 322.46875 Z M 437.558594 322.46875 "/>
<path style=" stroke:none;fill-rule:nonzero;fill:rgb(0%,0%,0%);fill-opacity:1;" d="M 441.238281 325.175781 C 439.589844 325.875 441.234375 327.457031 442.609375 327.164062 C 444.1875 326.824219 442.726562 324.539062 441.238281 325.175781 Z M 441.238281 325.175781 "/>
<path style=" stroke:none;fill-rule:nonzero;fill:rgb(0%,0%,0%);fill-opacity:1;" d="M 445.8125 327.542969 C 444.578125 328.664062 446.488281 330.089844 447.460938 329.3125 C 448.65625 328.359375 446.710938 326.722656 445.8125 327.542969 Z M 445.8125 327.542969 "/>
<path style=" stroke:none;fill-rule:nonzero;fill:rgb(0%,0%,0%);fill-opacity:1;" d="M 449.890625 329.46875 C 448.3125 329.972656 450.550781 331.699219 451.363281 331.023438 C 452.410156 330.148438 450.210938 329.367188 449.890625 329.46875 Z M 449.890625 329.46875 "/>
<path style=" stroke:none;fill-rule:nonzero;fill:rgb(0%,0%,0%);fill-opacity:1;" d="M 452.933594 320.9375 C 452.398438 322.261719 454.285156 323.125 454.78125 322.03125 C 455.433594 320.601562 453.445312 319.671875 452.933594 320.9375 Z M 452.933594 320.9375 "/>
<path style=" stroke:none;fill-rule:nonzero;fill:rgb(0%,0%,0%);fill-opacity:1;" d="M 458.003906 330.921875 C 458.660156 332.339844 460.941406 331.933594 460.152344 330.625 C 459.789062 330.015625 457.507812 329.847656 458.003906 330.921875 Z M 458.003906 330.921875 "/>
<path style=" stroke:none;fill-rule:nonzero;fill:rgb(0%,0%,0%);fill-opacity:1;" d="M 439.824219 311.09375 C 438.023438 311.441406 439.796875 313.746094 441.097656 313 C 442.125 312.414062 440.523438 310.957031 439.824219 311.09375 Z M 439.824219 311.09375 "/>
<path style=" stroke:none;fill-rule:nonzero;fill:rgb(0%,0%,0%);fill-opacity:1;" d="M 462.3125 324.246094 C 462.3125 326.644531 465.488281 325.523438 464.671875 323.894531 C 464.332031 323.21875 462.3125 323.371094 462.3125 324.246094 Z M 462.3125 324.246094 "/>
<path style="fill:none;stroke-width:1;stroke-linecap:butt;stroke-linejoin:round;stroke:rgb(0%,0%,0%);stroke-opacity:1;stroke-miterlimit:4;" d="M 194.465273 164.931737 C 188.190622 170.713741 187.42526 191.38732 199.376348 189.146216 C 210.995339 186.968892 201.927555 158.056672 194.465273 164.931737 Z M 194.465273 164.931737 " transform="matrix(1.77612,0,0,1.77612,-90.948286,-245.813504)"/>
<path style="fill:none;stroke-width:1;stroke-linecap:butt;stroke-linejoin:round;stroke:rgb(0%,0%,0%);stroke-opacity:1;stroke-miterlimit:4;" d="M 212.919741 178.011075 C 211.855272 178.290388 211.578158 178.294786 210.971146 178.596093 C 204.731684 181.716923 199.110231 198.156817 209.315061 199.687542 C 216.98188 200.837784 221.274946 190.41962 220.795495 184.204351 C 220.634945 182.123797 217.942981 179.961869 216.256105 178.969977 C 215.365382 178.446539 213.058298 177.973686 212.919741 178.011075 Z M 212.919741 178.011075 " transform="matrix(1.77612,0,0,1.77612,-90.948286,-245.813504)"/>
<path style="fill:none;stroke-width:1;stroke-linecap:butt;stroke-linejoin:round;stroke:rgb(0%,0%,0%);stroke-opacity:1;stroke-miterlimit:4;" d="M 190.25798 172.486391 C 186.505945 169.486522 181.623462 174.716498 180.882292 178.145233 C 179.032667 186.700576 190.649458 196.129047 197.462942 189.315563 " transform="matrix(1.77612,0,0,1.77612,-90.948286,-245.813504)"/>
<path style="fill:none;stroke-width:1;stroke-linecap:butt;stroke-linejoin:round;stroke:rgb(0%,0%,0%);stroke-opacity:1;stroke-miterlimit:4;" d="M 182.474598 186.922707 C 178.414659 189.304567 177.257818 192.082304 179.806826 196.425955 C 180.688752 197.932487 188.261 204.369887 189.074748 205.124253 C 190.308564 206.267898 189.697154 206.901301 191.568773 205.711471 C 192.916954 204.853737 193.172075 202.628028 193.25345 201.196273 C 193.567952 195.517637 191.175095 193.621826 186.959005 190.514191 C 186.292612 190.023743 182.965045 186.634596 182.474598 186.922707 Z M 182.474598 186.922707 " transform="matrix(1.77612,0,0,1.77612,-90.948286,-245.813504)"/>
<path style="fill:none;stroke-width:1;stroke-linecap:butt;stroke-linejoin:round;stroke:rgb(0%,0%,0%);stroke-opacity:1;stroke-miterlimit:4;" d="M 229.080322 217.488813 C 229.080322 211.816774 222.67811 208.00096 221.800583 202.729197 C 221.202369 199.14431 221.446493 195.436262 221.446493 191.807389 C 221.446493 191.108007 221.538864 184.331911 220.832883 183.977821 " transform="matrix(1.77612,0,0,1.77612,-90.948286,-245.813504)"/>
<path style="fill:none;stroke-width:1;stroke-linecap:butt;stroke-linejoin:round;stroke:rgb(0%,0%,0%);stroke-opacity:1;stroke-miterlimit:4;" d="M 202.321233 169.150027 C 205.074778 170.181506 208.527705 172.990034 209.776917 175.605022 C 210.170595 176.425367 210.628053 178.246401 210.628053 178.67087 " transform="matrix(1.77612,0,0,1.77612,-90.948286,-245.813504)"/>
<path style="fill:none;stroke-width:1;stroke-linecap:butt;stroke-linejoin:round;stroke:rgb(0%,0%,0%);stroke-opacity:1;stroke-miterlimit:4;" d="M 189.661965 205.905011 C 189.661965 213.980902 197.731259 218.595069 201.918758 224.577211 C 204.645911 228.472201 203.003021 233.616403 203.961924 237.933662 C 204.813059 241.767072 208.204406 244.73395 208.204406 248.701518 " transform="matrix(1.77612,0,0,1.77612,-90.948286,-245.813504)"/>
<path style="fill:none;stroke-width:1;stroke-linecap:butt;stroke-linejoin:round;stroke:rgb(0%,0%,0%);stroke-opacity:1;stroke-miterlimit:4;" d="M 307.279233 323.93575 C 318.335199 331.873084 325.947035 338.767943 333.046429 350.402329 " transform="matrix(1.77612,0,0,1.77612,-90.948286,-245.813504)"/>
<path style="fill:none;stroke-width:1;stroke-linecap:butt;stroke-linejoin:round;stroke:rgb(0%,0%,0%);stroke-opacity:1;stroke-miterlimit:4;" d="M 304.35854 324.276644 C 314.715123 329.72875 319.034582 340.503204 325.34882 349.837105 " transform="matrix(1.77612,0,0,1.77612,-90.948286,-245.813504)"/>
<path style="fill:none;stroke-width:1;stroke-linecap:butt;stroke-linejoin:round;stroke:rgb(0%,0%,0%);stroke-opacity:1;stroke-miterlimit:4;" d="M 309.962399 321.417532 C 319.014788 321.417532 328.803947 328.351978 335.978119 333.018929 " transform="matrix(1.77612,0,0,1.77612,-90.948286,-245.813504)"/>
<path style="fill:none;stroke-width:1;stroke-linecap:butt;stroke-linejoin:round;stroke:rgb(0%,0%,0%);stroke-opacity:1;stroke-miterlimit:4;" d="M 307.831261 321.916777 C 322.164209 327.582217 335.949528 337.481342 346.63161 348.449336 " transform="matrix(1.77612,0,0,1.77612,-90.948286,-245.813504)"/>
<path style="fill:none;stroke-width:1;stroke-linecap:butt;stroke-linejoin:round;stroke:rgb(0%,0%,0%);stroke-opacity:1;stroke-miterlimit:4;" d="M 307.444182 322.497397 C 317.745782 328.677477 326.391297 337.661686 334.23626 346.641497 " transform="matrix(1.77612,0,0,1.77612,-90.948286,-245.813504)"/>
<path style="fill:none;stroke-width:1;stroke-linecap:butt;stroke-linejoin:round;stroke:rgb(100%,100%,100%);stroke-opacity:1;stroke-miterlimit:4;" d="M 309.47855 321.518701 C 317.066193 321.518701 330.020169 329.077753 335.597637 333.489582 " transform="matrix(1.77612,0,0,1.77612,-90.948286,-245.813504)"/>
<path style="fill:none;stroke-width:1;stroke-linecap:butt;stroke-linejoin:round;stroke:rgb(100%,100%,100%);stroke-opacity:1;stroke-miterlimit:4;" d="M 308.70439 322.09932 C 321.286682 325.244343 338.03448 339.253992 346.844944 348.066655 " transform="matrix(1.77612,0,0,1.77612,-90.948286,-245.813504)"/>
<path style="fill:none;stroke-width:1;stroke-linecap:butt;stroke-linejoin:round;stroke:rgb(100%,100%,100%);stroke-opacity:1;stroke-miterlimit:4;" d="M 309.02769 323.456299 C 317.923927 326.632112 328.586215 339.577291 334.594749 346.353387 " transform="matrix(1.77612,0,0,1.77612,-90.948286,-245.813504)"/>
<path style="fill:none;stroke-width:1;stroke-linecap:butt;stroke-linejoin:round;stroke:rgb(100%,100%,100%);stroke-opacity:1;stroke-miterlimit:4;" d="M 305.988234 324.025922 C 312.487215 328.965587 321.966271 342.462795 325.909646 349.56219 " transform="matrix(1.77612,0,0,1.77612,-90.948286,-245.813504)"/>
<path style="fill:none;stroke-width:1;stroke-linecap:butt;stroke-linejoin:round;stroke:rgb(100%,100%,100%);stroke-opacity:1;stroke-miterlimit:4;" d="M 309.322398 324.736301 C 319.375476 332.01604 326.965318 341.741419 333.862376 351.94405 " transform="matrix(1.77612,0,0,1.77612,-90.948286,-245.813504)"/>
</g>
</svg>
