<?xml version="1.0" encoding="UTF-8"?>
<svg xmlns="http://www.w3.org/2000/svg" xmlns:xlink="http://www.w3.org/1999/xlink" width="1024pt" height="1024pt" viewBox="0 0 1024 1024" version="1.1">
<g id="surface1">
<path style="fill-rule:nonzero;fill:rgb(47.058824%,40.392157%,12.941176%);fill-opacity:1;stroke-width:0.5;stroke-linecap:butt;stroke-linejoin:miter;stroke:rgb(0%,0%,0%);stroke-opacity:1;stroke-miterlimit:4;" d="M 86.334991 17.797089 L 112.606049 17.797089 L 112.606049 32.309723 L 86.334991 32.309723 Z M 86.334991 17.797089 " transform="matrix(5.12,0,0,5.12,0,0)"/>
<path style="fill-rule:nonzero;fill:rgb(47.058824%,40.392157%,12.941176%);fill-opacity:1;stroke-width:0.5;stroke-linecap:butt;stroke-linejoin:miter;stroke:rgb(0%,0%,0%);stroke-opacity:1;stroke-miterlimit:4;" d="M 87.483978 168.370056 L 113.755035 168.370056 L 113.755035 182.88269 L 87.483978 182.88269 Z M 87.483978 168.370056 " transform="matrix(5.12,0,0,5.12,0,0)"/>
<path style="fill-rule:nonzero;fill:rgb(78.431373%,67.058824%,21.568627%);fill-opacity:1;stroke-width:0.5;stroke-linecap:butt;stroke-linejoin:miter;stroke:rgb(0%,0%,0%);stroke-opacity:1;stroke-miterlimit:4;" d="M 91.525269 32.415009 L 108.155823 32.415009 L 108.155823 169.174957 L 91.525269 169.174957 Z M 91.525269 32.415009 " transform="matrix(5.12,0,0,5.12,0,0)"/>
<path style="fill-rule:nonzero;fill:rgb(31.372549%,26.666667%,8.627451%);fill-opacity:1;stroke-width:0.5;stroke-linecap:butt;stroke-linejoin:miter;stroke:rgb(0%,0%,0%);stroke-opacity:1;stroke-miterlimit:4;" d="M 10.785675 164.050293 C 13.934326 159.459686 22.87674 157.928467 27.265167 161.353302 C 31.056976 164.313507 28.463745 175.735474 28.463745 175.735474 L 13.482666 176.934052 C 13.482666 176.934052 8.304596 167.668915 10.785675 164.04953 Z M 10.785675 164.050293 " transform="matrix(5.12,0,0,5.12,0,0)"/>
<path style="fill-rule:nonzero;fill:rgb(83.137255%,39.215686%,0%);fill-opacity:1;stroke-width:1;stroke-linecap:butt;stroke-linejoin:miter;stroke:rgb(0%,0%,0%);stroke-opacity:1;stroke-miterlimit:4;" d="M 48.877716 65.660858 L 48.001099 61.271667 C 48.001099 61.271667 44.51828 64.026642 43.410492 65.894318 C 38.632202 73.953247 37.661743 83.744812 35.415649 92.842102 C 33.901215 98.975372 32.517242 105.164337 31.729126 111.431885 C 29.808807 126.711273 32.290649 142.472839 29.218292 157.563019 C 28.894043 159.153748 27.560425 162.141418 27.560425 162.141418 L 9.602356 164.257812 C 9.602356 164.257812 6.725311 160.784912 6.1203 158.677673 C 1.123047 141.277313 3.248596 122.254944 6.044006 104.368591 C 7.027435 98.075867 10.04715 92.273712 11.899567 86.179352 C 13.175964 81.980896 14.083099 77.667999 15.522766 73.521423 C 17.405701 68.099213 19.176483 62.553406 22.064209 57.593536 C 26.065826 50.717926 30.957031 44.225311 36.781311 38.806915 C 40.013885 35.798645 43.683624 33.081055 47.770691 31.410217 C 55.924225 28.078461 73.750305 26.587677 73.750305 26.587677 L 91.516876 32.103729 L 95.711517 168.893433 L 54.870605 169.193268 C 54.870605 169.193268 48.325348 166.000366 46.645355 163.009644 C 44.309235 158.852386 45.378113 153.538513 45.249176 148.771667 C 44.499207 121.052551 48.878479 65.661621 48.878479 65.661621 Z M 48.877716 65.660858 " transform="matrix(5.12,0,0,5.12,0,0)"/>
<path style="fill-rule:nonzero;fill:rgb(31.372549%,26.666667%,8.627451%);fill-opacity:1;stroke-width:0.5;stroke-linecap:butt;stroke-linejoin:miter;stroke:rgb(0%,0%,0%);stroke-opacity:1;stroke-miterlimit:4;" d="M 189.510345 163.749695 C 186.361694 159.159851 177.419281 157.628632 173.030853 161.053467 C 169.239044 164.012909 171.832275 175.435638 171.832275 175.435638 L 186.813354 176.634216 C 186.813354 176.634216 191.991425 167.368317 189.510345 163.749695 Z M 189.510345 163.749695 " transform="matrix(5.12,0,0,5.12,0,0)"/>
<path style="fill-rule:nonzero;fill:rgb(83.137255%,39.215686%,0%);fill-opacity:1;stroke-width:1;stroke-linecap:butt;stroke-linejoin:miter;stroke:rgb(0%,0%,0%);stroke-opacity:1;stroke-miterlimit:4;" d="M 151.210022 65.599823 L 152.087402 61.210632 L 156.677246 65.833282 C 156.677246 65.833282 162.426758 83.683777 164.672852 92.781067 C 166.187286 98.914337 167.570496 105.103302 168.358612 111.37085 C 170.279694 126.650238 167.797089 142.411804 170.870209 157.501984 C 171.193695 159.092712 172.528076 162.080383 172.528076 162.080383 L 190.486145 164.196777 C 190.486145 164.196777 193.36319 160.723877 193.968201 158.616638 C 198.965454 141.216278 196.839905 122.193146 194.044495 104.307556 C 193.061066 98.014069 190.041351 92.212677 188.188934 86.118317 C 186.911774 81.919861 186.004639 77.606964 184.565735 73.460388 C 182.6828 68.038177 180.911255 62.492371 178.024292 57.532501 C 174.022675 50.656891 169.13147 44.164276 163.30719 38.74588 C 160.074615 35.73761 156.404877 33.02002 152.317047 31.349182 C 144.164276 28.017426 126.338196 26.526642 126.338196 26.526642 L 108.571625 32.041931 L 104.376984 168.832397 L 145.217896 169.132233 C 145.217896 169.132233 151.76239 165.938568 153.443146 162.948608 C 155.779266 158.791351 154.710388 153.477478 154.839325 148.710632 C 155.589294 120.991516 151.210022 65.600586 151.210022 65.600586 Z M 151.210022 65.599823 " transform="matrix(5.12,0,0,5.12,0,0)"/>
<path style="fill-rule:nonzero;fill:rgb(31.372549%,26.666667%,8.627451%);fill-opacity:1;stroke-width:0.5;stroke-linecap:butt;stroke-linejoin:miter;stroke:rgb(0%,0%,0%);stroke-opacity:1;stroke-miterlimit:4;" d="M 78.552246 16.789246 L 89.926147 16.895294 L 91.938782 32.148743 L 74.102783 26.004791 L 74.560547 22.764587 L 75.922394 18.978119 Z M 78.552246 16.789246 " transform="matrix(5.12,0,0,5.12,0,0)"/>
<path style="fill-rule:nonzero;fill:rgb(31.372549%,26.666667%,8.627451%);fill-opacity:1;stroke-width:0.5;stroke-linecap:butt;stroke-linejoin:miter;stroke:rgb(0%,0%,0%);stroke-opacity:1;stroke-miterlimit:4;" d="M 121.73996 16.896057 L 110.366058 17.002106 L 108.353424 32.255554 L 126.189423 26.111603 L 125.731659 22.871399 L 124.369049 19.08493 Z M 121.73996 16.896057 " transform="matrix(5.12,0,0,5.12,0,0)"/>
<path style="fill-rule:nonzero;fill:rgb(31.372549%,26.666667%,8.627451%);fill-opacity:1;stroke-width:0.53149;stroke-linecap:butt;stroke-linejoin:miter;stroke:rgb(0%,0%,0%);stroke-opacity:1;stroke-miterlimit:4;" d="M 55.744934 169.450378 L 95.863342 169.450378 L 95.863342 182.901001 L 55.744934 182.901001 Z M 55.744934 169.450378 " transform="matrix(5.12,0,0,5.12,0,0)"/>
<path style="fill-rule:nonzero;fill:rgb(31.372549%,26.666667%,8.627451%);fill-opacity:1;stroke-width:0.53726;stroke-linecap:butt;stroke-linejoin:miter;stroke:rgb(0%,0%,0%);stroke-opacity:1;stroke-miterlimit:4;" d="M 104.180145 169.409943 L 145.191193 169.409943 L 145.191193 182.855988 L 104.180145 182.855988 Z M 104.180145 169.409943 " transform="matrix(5.12,0,0,5.12,0,0)"/>
</g>
</svg>
