<?xml version="1.0" encoding="UTF-8" standalone="no"?>
<!-- Created with Inkscape (http://www.inkscape.org/) -->

<svg
   xmlns:dc="http://purl.org/dc/elements/1.1/"
   xmlns:cc="http://creativecommons.org/ns#"
   xmlns:rdf="http://www.w3.org/1999/02/22-rdf-syntax-ns#"
   xmlns:svg="http://www.w3.org/2000/svg"
   xmlns="http://www.w3.org/2000/svg"
   xmlns:xlink="http://www.w3.org/1999/xlink"
   xmlns:sodipodi="http://sodipodi.sourceforge.net/DTD/sodipodi-0.dtd"
   xmlns:inkscape="http://www.inkscape.org/namespaces/inkscape"
   width="29.718697mm"
   height="32.000103mm"
   viewBox="0 0 105.30247 113.38619"
   id="svg2"
   version="1.1"
   inkscape:version="0.91 r13725"
   sodipodi:docname="Hund.svg">
  <title
     id="title4136">dog - coloured</title>
  <defs
     id="defs4">
    <pattern
       inkscape:collect="always"
       xlink:href="#Polkadots-med"
       id="pattern6341"
       patternTransform="matrix(2.9208707,0,0,2.8769478,19.907509,925.13732)" />
    <pattern
       inkscape:stockid="Polka dots, medium"
       id="Polkadots-med"
       patternTransform="translate(0,0) scale(10,10)"
       height="10"
       width="10"
       patternUnits="userSpaceOnUse"
       inkscape:collect="always">
      <circle
         id="circle5353"
         r="0.15"
         cy="0.810"
         cx="2.567"
         style="fill:black;stroke:none" />
      <circle
         id="circle5355"
         r="0.15"
         cy="2.33"
         cx="3.048"
         style="fill:black;stroke:none" />
      <circle
         id="circle5357"
         r="0.15"
         cy="2.415"
         cx="4.418"
         style="fill:black;stroke:none" />
      <circle
         id="circle5359"
         r="0.15"
         cy="3.029"
         cx="1.844"
         style="fill:black;stroke:none" />
      <circle
         id="circle5361"
         r="0.15"
         cy="1.363"
         cx="6.08"
         style="fill:black;stroke:none" />
      <circle
         id="circle5363"
         r="0.15"
         cy="4.413"
         cx="5.819"
         style="fill:black;stroke:none" />
      <circle
         id="circle5365"
         r="0.15"
         cy="4.048"
         cx="4.305"
         style="fill:black;stroke:none" />
      <circle
         id="circle5367"
         r="0.15"
         cy="3.045"
         cx="5.541"
         style="fill:black;stroke:none" />
      <circle
         id="circle5369"
         r="0.15"
         cy="5.527"
         cx="4.785"
         style="fill:black;stroke:none" />
      <circle
         id="circle5371"
         r="0.15"
         cy="5.184"
         cx="2.667"
         style="fill:black;stroke:none" />
      <circle
         id="circle5373"
         r="0.15"
         cy="1.448"
         cx="7.965"
         style="fill:black;stroke:none" />
      <circle
         id="circle5375"
         r="0.15"
         cy="5.049"
         cx="7.047"
         style="fill:black;stroke:none" />
      <circle
         id="circle5377"
         r="0.15"
         cy="0.895"
         cx="4.340"
         style="fill:black;stroke:none" />
      <circle
         id="circle5379"
         r="0.15"
         cy="0.340"
         cx="7.125"
         style="fill:black;stroke:none" />
      <circle
         id="circle5381"
         r="0.15"
         cy="1.049"
         cx="9.553"
         style="fill:black;stroke:none" />
      <circle
         id="circle5383"
         r="0.15"
         cy="2.689"
         cx="7.006"
         style="fill:black;stroke:none" />
      <circle
         id="circle5385"
         r="0.15"
         cy="2.689"
         cx="8.909"
         style="fill:black;stroke:none" />
      <circle
         id="circle5387"
         r="0.15"
         cy="4.407"
         cx="9.315"
         style="fill:black;stroke:none" />
      <circle
         id="circle5389"
         r="0.15"
         cy="3.870"
         cx="7.820"
         style="fill:black;stroke:none" />
      <circle
         id="circle5391"
         r="0.15"
         cy="5.948"
         cx="8.270"
         style="fill:black;stroke:none" />
      <circle
         id="circle5393"
         r="0.15"
         cy="7.428"
         cx="7.973"
         style="fill:black;stroke:none" />
      <circle
         id="circle5395"
         r="0.15"
         cy="8.072"
         cx="9.342"
         style="fill:black;stroke:none" />
      <circle
         id="circle5397"
         r="0.15"
         cy="9.315"
         cx="8.206"
         style="fill:black;stroke:none" />
      <circle
         id="circle5399"
         r="0.15"
         cy="9.475"
         cx="9.682"
         style="fill:black;stroke:none" />
      <circle
         id="circle5401"
         r="0.15"
         cy="6.186"
         cx="9.688"
         style="fill:black;stroke:none" />
      <circle
         id="circle5403"
         r="0.15"
         cy="6.296"
         cx="3.379"
         style="fill:black;stroke:none" />
      <circle
         id="circle5405"
         r="0.15"
         cy="8.204"
         cx="2.871"
         style="fill:black;stroke:none" />
      <circle
         id="circle5407"
         r="0.15"
         cy="8.719"
         cx="4.59"
         style="fill:black;stroke:none" />
      <circle
         id="circle5409"
         r="0.15"
         cy="9.671"
         cx="3.181"
         style="fill:black;stroke:none" />
      <circle
         id="circle5411"
         r="0.15"
         cy="7.315"
         cx="5.734"
         style="fill:black;stroke:none" />
      <circle
         id="circle5413"
         r="0.15"
         cy="6.513"
         cx="6.707"
         style="fill:black;stroke:none" />
      <circle
         id="circle5415"
         r="0.15"
         cy="9.670"
         cx="5.730"
         style="fill:black;stroke:none" />
      <circle
         id="circle5417"
         r="0.15"
         cy="8.373"
         cx="6.535"
         style="fill:black;stroke:none" />
      <circle
         id="circle5419"
         r="0.15"
         cy="7.154"
         cx="4.37"
         style="fill:black;stroke:none" />
      <circle
         id="circle5421"
         r="0.15"
         cy="7.25"
         cx="0.622"
         style="fill:black;stroke:none" />
      <circle
         id="circle5423"
         r="0.15"
         cy="5.679"
         cx="0.831"
         style="fill:black;stroke:none" />
      <circle
         id="circle5425"
         r="0.15"
         cy="8.519"
         cx="1.257"
         style="fill:black;stroke:none" />
      <circle
         id="circle5427"
         r="0.15"
         cy="6.877"
         cx="1.989"
         style="fill:black;stroke:none" />
      <circle
         id="circle5429"
         r="0.15"
         cy="3.181"
         cx="0.374"
         style="fill:black;stroke:none" />
      <circle
         id="circle5431"
         r="0.15"
         cy="1.664"
         cx="1.166"
         style="fill:black;stroke:none" />
      <circle
         id="circle5433"
         r="0.15"
         cy="0.093"
         cx="1.151"
         style="fill:black;stroke:none" />
      <circle
         id="circle5435"
         r="0.15"
         cy="10.093"
         cx="1.151"
         style="fill:black;stroke:none" />
      <circle
         id="circle5437"
         r="0.15"
         cy="4.451"
         cx="1.302"
         style="fill:black;stroke:none" />
      <circle
         id="circle5439"
         r="0.15"
         cy="3.763"
         cx="3.047"
         style="fill:black;stroke:none" />
    </pattern>
    <pattern
       inkscape:collect="always"
       xlink:href="#Polkadots-large"
       id="pattern6080"
       patternTransform="matrix(0.92238022,0,0,1.0980717,73.111574,957.46528)" />
    <pattern
       inkscape:collect="always"
       xlink:href="#Polkadots-large"
       id="pattern5896"
       patternTransform="matrix(0.62179239,-0.26336826,0.43643224,1.0303832,72.430315,980.3957)" />
    <pattern
       inkscape:isstock="true"
       inkscape:stockid="Polka dots, large"
       id="Polkadots-large"
       patternTransform="translate(0,0) scale(10,10)"
       height="10"
       width="10"
       patternUnits="userSpaceOnUse"
       inkscape:collect="always">
      <circle
         id="circle5531"
         r="0.45"
         cy="0.810"
         cx="2.567"
         style="fill:black;stroke:none" />
      <circle
         id="circle5533"
         r="0.45"
         cy="2.33"
         cx="3.048"
         style="fill:black;stroke:none" />
      <circle
         id="circle5535"
         r="0.45"
         cy="2.415"
         cx="4.418"
         style="fill:black;stroke:none" />
      <circle
         id="circle5537"
         r="0.45"
         cy="3.029"
         cx="1.844"
         style="fill:black;stroke:none" />
      <circle
         id="circle5539"
         r="0.45"
         cy="1.363"
         cx="6.08"
         style="fill:black;stroke:none" />
      <circle
         id="circle5541"
         r="0.45"
         cy="4.413"
         cx="5.819"
         style="fill:black;stroke:none" />
      <circle
         id="circle5543"
         r="0.45"
         cy="4.048"
         cx="4.305"
         style="fill:black;stroke:none" />
      <circle
         id="circle5545"
         r="0.45"
         cy="3.045"
         cx="5.541"
         style="fill:black;stroke:none" />
      <circle
         id="circle5547"
         r="0.45"
         cy="5.527"
         cx="4.785"
         style="fill:black;stroke:none" />
      <circle
         id="circle5549"
         r="0.45"
         cy="5.184"
         cx="2.667"
         style="fill:black;stroke:none" />
      <circle
         id="circle5551"
         r="0.45"
         cy="1.448"
         cx="7.965"
         style="fill:black;stroke:none" />
      <circle
         id="circle5553"
         r="0.45"
         cy="5.049"
         cx="7.047"
         style="fill:black;stroke:none" />
      <circle
         id="circle5555"
         r="0.45"
         cy="0.895"
         cx="4.340"
         style="fill:black;stroke:none" />
      <circle
         id="circle5557"
         r="0.45"
         cy="0.340"
         cx="7.125"
         style="fill:black;stroke:none" />
      <circle
         id="circle5559"
         r="0.45"
         cy="1.049"
         cx="9.553"
         style="fill:black;stroke:none" />
      <circle
         id="circle5561"
         r="0.45"
         cy="2.689"
         cx="7.006"
         style="fill:black;stroke:none" />
      <circle
         id="circle5563"
         r="0.45"
         cy="2.689"
         cx="8.909"
         style="fill:black;stroke:none" />
      <circle
         id="circle5565"
         r="0.45"
         cy="4.407"
         cx="9.315"
         style="fill:black;stroke:none" />
      <circle
         id="circle5567"
         r="0.45"
         cy="3.870"
         cx="7.820"
         style="fill:black;stroke:none" />
      <circle
         id="circle5569"
         r="0.45"
         cy="5.948"
         cx="8.270"
         style="fill:black;stroke:none" />
      <circle
         id="circle5571"
         r="0.45"
         cy="7.428"
         cx="7.973"
         style="fill:black;stroke:none" />
      <circle
         id="circle5573"
         r="0.45"
         cy="8.072"
         cx="9.342"
         style="fill:black;stroke:none" />
      <circle
         id="circle5575"
         r="0.45"
         cy="9.315"
         cx="8.206"
         style="fill:black;stroke:none" />
      <circle
         id="circle5577"
         r="0.45"
         cy="9.475"
         cx="9.682"
         style="fill:black;stroke:none" />
      <circle
         id="circle5579"
         r="0.45"
         cy="6.186"
         cx="9.688"
         style="fill:black;stroke:none" />
      <circle
         id="circle5581"
         r="0.45"
         cy="6.296"
         cx="3.379"
         style="fill:black;stroke:none" />
      <circle
         id="circle5583"
         r="0.45"
         cy="8.204"
         cx="2.871"
         style="fill:black;stroke:none" />
      <circle
         id="circle5585"
         r="0.45"
         cy="8.719"
         cx="4.59"
         style="fill:black;stroke:none" />
      <circle
         id="circle5587"
         r="0.45"
         cy="9.671"
         cx="3.181"
         style="fill:black;stroke:none" />
      <circle
         id="circle5589"
         r="0.45"
         cy="7.315"
         cx="5.734"
         style="fill:black;stroke:none" />
      <circle
         id="circle5591"
         r="0.45"
         cy="6.513"
         cx="6.707"
         style="fill:black;stroke:none" />
      <circle
         id="circle5593"
         r="0.45"
         cy="9.670"
         cx="5.730"
         style="fill:black;stroke:none" />
      <circle
         id="circle5595"
         r="0.45"
         cy="8.373"
         cx="6.535"
         style="fill:black;stroke:none" />
      <circle
         id="circle5597"
         r="0.45"
         cy="7.154"
         cx="4.37"
         style="fill:black;stroke:none" />
      <circle
         id="circle5599"
         r="0.45"
         cy="7.25"
         cx="0.622"
         style="fill:black;stroke:none" />
      <circle
         id="circle5601"
         r="0.45"
         cy="5.679"
         cx="0.831"
         style="fill:black;stroke:none" />
      <circle
         id="circle5603"
         r="0.45"
         cy="8.519"
         cx="1.257"
         style="fill:black;stroke:none" />
      <circle
         id="circle5605"
         r="0.45"
         cy="6.877"
         cx="1.989"
         style="fill:black;stroke:none" />
      <circle
         id="circle5607"
         r="0.45"
         cy="3.181"
         cx="0.374"
         style="fill:black;stroke:none" />
      <circle
         id="circle5609"
         r="0.45"
         cy="1.664"
         cx="1.166"
         style="fill:black;stroke:none" />
      <circle
         id="circle5611"
         r="0.45"
         cy="0.093"
         cx="1.151"
         style="fill:black;stroke:none" />
      <circle
         id="circle5613"
         r="0.45"
         cy="10.093"
         cx="1.151"
         style="fill:black;stroke:none" />
      <circle
         id="circle5615"
         r="0.45"
         cy="4.451"
         cx="1.302"
         style="fill:black;stroke:none" />
      <circle
         id="circle5617"
         r="0.45"
         cy="3.763"
         cx="3.047"
         style="fill:black;stroke:none" />
    </pattern>
  </defs>
  <sodipodi:namedview
     id="base"
     pagecolor="#ffffff"
     bordercolor="#666666"
     borderopacity="1.0"
     inkscape:pageopacity="0.0"
     inkscape:pageshadow="2"
     inkscape:zoom="0.98994949"
     inkscape:cx="22.560173"
     inkscape:cy="70.050148"
     inkscape:document-units="mm"
     inkscape:current-layer="layer1"
     showgrid="false"
     inkscape:window-width="1659"
     inkscape:window-height="1230"
     inkscape:window-x="831"
     inkscape:window-y="70"
     inkscape:window-maximized="0"
     inkscape:snap-global="false"
     fit-margin-left="1"
     fit-margin-top="1"
     fit-margin-right="1"
     fit-margin-bottom="1" />
  <metadata
     id="metadata7">
    <rdf:RDF>
      <cc:Work
         rdf:about="">
        <dc:format>image/svg+xml</dc:format>
        <dc:type
           rdf:resource="http://purl.org/dc/dcmitype/StillImage" />
        <dc:title>dog - coloured</dc:title>
        <dc:date>2015-02-10</dc:date>
        <dc:creator>
          <cc:Agent>
            <dc:title>Frank Tremmel</dc:title>
          </cc:Agent>
        </dc:creator>
        <dc:subject>
          <rdf:Bag>
            <rdf:li>dog</rdf:li>
            <rdf:li>animal</rdf:li>
            <rdf:li>puppy</rdf:li>
            <rdf:li>hund</rdf:li>
            <rdf:li>tier</rdf:li>
            <rdf:li>line art</rdf:li>
            <rdf:li>outline</rdf:li>
            <rdf:li></rdf:li>
          </rdf:Bag>
        </dc:subject>
        <dc:description>coloured line art dog</dc:description>
        <cc:license
           rdf:resource="http://creativecommons.org/publicdomain/zero/1.0/" />
      </cc:Work>
      <cc:License
         rdf:about="http://creativecommons.org/publicdomain/zero/1.0/">
        <cc:permits
           rdf:resource="http://creativecommons.org/ns#Reproduction" />
        <cc:permits
           rdf:resource="http://creativecommons.org/ns#Distribution" />
        <cc:permits
           rdf:resource="http://creativecommons.org/ns#DerivativeWorks" />
      </cc:License>
    </rdf:RDF>
  </metadata>
  <g
     inkscape:label="Ebene 1"
     inkscape:groupmode="layer"
     id="layer1"
     transform="translate(-2.5264731,-943.55371)">
    <path
       style="fill:#7f5900;fill-opacity:1;fill-rule:evenodd;stroke:#ff006d;stroke-width:0.35433069;stroke-linecap:butt;stroke-linejoin:round;stroke-miterlimit:4;stroke-dasharray:none;stroke-opacity:1"
       d="m 81.792285,1038.5743 c -0.254441,0.4108 6.742054,4.2935 8.235535,3.7334 0.624973,-0.6566 0.363286,-2.052 -0.768653,-4.1726 2.342556,1.2184 2.928197,2.9883 4.61191,2.4157 l -2.196152,-2.6353 c 2.196151,-0.2033 7.576697,1.1435 7.576703,-2.4158 0,0 -5.567413,0.086 -4.94132,0.2197 0.249124,0.053 4.314774,-3.9701 5.270733,-5.6002 l -4.831514,0.7686 c 2.487758,-2.4522 5.345163,-3.7703 5.709983,-7.467 -1.459528,1.4963 -3.994173,3.225 -5.160948,2.0863 2.162773,-1.8634 4.554487,-5.145 5.051128,-7.4667 -1.845948,0.6934 -2.580996,0.9323 -4.392284,1.2078 2.02139,-2.3483 4.078844,-3.5382 5.490364,-5.6 -1.35429,0.9687 -2.598773,0.3539 -4.502097,1.2077 1.926336,-1.6878 2.915794,-1.9037 5.270737,-5.2705 l -4.721704,1.5372 c 2.026527,-1.8892 5.206424,-3.053 5.600174,-7.9061 -1.98937,0.018 -3.02467,0.902 -4.721716,3.8433 1.582977,-2.6203 3.100096,-4.2157 4.502096,-8.56504 -3.694081,2.54354 -4.156839,3.88694 -5.600166,6.14914 1.418277,-3.0544 2.950406,-5.14494 2.964796,-7.35701 l -3.623631,4.39231 -0.658845,-4.72174 c -4.037682,6.61524 -5.567765,11.70614 -6.259015,18.00824 l -1.647101,-6.2588 c -0.703961,-1.4437 -0.794578,-1.9278 -1.207878,5.9294 0.480511,2.756 2.147695,3.4325 1.317676,9.3337 -0.67549,1.6104 -0.509532,2.6719 -2.745172,4.2824 -2.754006,0.164 -4.319322,-2.0493 -6.478627,-3.0746 z"
       id="path4180-7"
       inkscape:connector-curvature="0"
       sodipodi:nodetypes="ccccccscccccccccccccccccccccccc" />
    <path
       style="color:#000000;font-style:normal;font-variant:normal;font-weight:normal;font-stretch:normal;font-size:medium;line-height:normal;font-family:sans-serif;text-indent:0;text-align:start;text-decoration:none;text-decoration-line:none;text-decoration-style:solid;text-decoration-color:#000000;letter-spacing:normal;word-spacing:normal;text-transform:none;direction:ltr;block-progression:tb;writing-mode:lr-tb;baseline-shift:baseline;text-anchor:start;white-space:normal;clip-rule:nonzero;display:inline;overflow:visible;visibility:visible;opacity:1;isolation:auto;mix-blend-mode:normal;color-interpolation:sRGB;color-interpolation-filters:linearRGB;solid-color:#000000;solid-opacity:1;fill:#000000;fill-opacity:1;fill-rule:evenodd;stroke:none;stroke-width:1.0629921;stroke-linecap:butt;stroke-linejoin:round;stroke-miterlimit:4;stroke-dasharray:none;stroke-dashoffset:0;stroke-opacity:1;color-rendering:auto;image-rendering:auto;shape-rendering:auto;text-rendering:auto;enable-background:accumulate"
       d="m 96.046853,995.80553 c -0.87013,0.68437 -1.076856,1.37787 -1.736227,2.02551 -2.407054,3.29316 -4.0945,9.23066 -4.829899,13.25306 -0.64687,-1.321 -0.623852,-3.9687 -1.504704,-4.9622 -1.83571,0.465 -1.618791,2.9963 -1.952294,4.4943 -0.06107,1.8884 -0.383778,4.1766 0.593499,5.9386 1.493817,2.5488 0.925654,5.4858 0.17274,8.1832 -0.185733,2.5062 -2.226051,3.152 -3.866174,1.4783 -1.058375,-0.6623 -2.003854,-1.6622 -3.234493,-1.9694 -0.783446,0.063 -0.642082,0.9883 -0.449569,1.505 l 2.703059,12.6786 c 0.06347,-1.1678 -0.332517,2.0337 0.620687,1.9351 2.516455,1.3714 5.50084,3.0612 8.353512,3.523 0.666352,0.2646 -0.0555,-2.7474 -0.416096,-3.8644 2.243413,1.494 4.129291,1.8327 5.397096,1.1891 -0.75124,-0.7485 -2.586007,-1.9482 -2.910722,-2.5197 -0.932837,-1.0069 2.05697,0.3044 3.377684,0.14 1.504138,-0.2422 3.364033,-0.039 3.998308,-4.748 -2.072195,0.6912 -2.76959,0.4245 -3.267855,0.6803 -0.838341,0.2115 -1.742175,0.476 -0.721962,-0.4439 0.743299,-1.2168 3.995597,-2.7581 4.315817,-4.7591 -0.56576,-0.4927 -3.703012,0.4446 -4.348683,0.4606 2.758991,-1.6866 4.257933,-3.9479 4.895983,-6.6799 0.11905,-0.5971 -0.71545,-1.007 -1.11519,-0.5479 -0.804502,0.844 -2.920024,2.4743 -3.392346,2.3285 1.857041,-2.1869 4.142316,-4.7197 4.613736,-7.7045 -0.16329,-0.7962 -1.22041,-0.5622 -1.539872,0 -0.607775,0.8145 -3.01517,1.7132 -1.404733,0.2789 1.279732,-1.505 3.042715,-2.4421 4.037945,-4.1498 0.15943,-0.7314 -0.50533,-1.4957 -0.90054,-0.9038 -0.5706,0.4426 -3.164253,1.8941 -1.79361,0.5268 1.53441,-1.3152 2.77741,-2.5235 3.73664,-4.1178 0.16392,-0.7346 -0.31558,-0.9432 -0.88909,-0.4842 -0.75578,0.6247 -2.726854,1.7018 -2.39684,1.1965 0.36795,-0.5635 2.21076,-2.1699 2.91675,-2.9444 0.74163,-1.1462 1.42643,-3.0797 1.08671,-4.2667 -0.40779,-0.5691 -2.66268,0.6939 -2.91188,1.1788 0.57138,-1.3917 2.58824,-4.47808 2.61723,-6.0004 -0.23341,-0.70543 -0.91538,-0.29227 -1.39361,0.13206 l -2.05919,1.82713 c 0.44427,-1.31785 1.29534,-2.40876 1.04863,-3.82081 -0.35723,-0.65291 -1.18086,-0.24591 -1.4149,0.29515 l -3.271086,4.02667 c 0.156144,-1.24352 0.531613,-2.48698 0.553363,-3.73095 0.06521,-1.14253 -0.09491,-1.4654 -1.317824,-0.65732 z m -0.09264,3.90468 c -0.129512,1.10969 -0.10905,1.89029 -0.100773,3.00029 0.238992,0.691 0.445353,0.4597 0.675028,-0.1193 0.859756,-1.0397 1.719511,-2.0793 2.579267,-3.11902 -0.647178,1.96892 -1.606661,3.83012 -2.352995,5.74872 -0.04512,0.7273 0.917562,-0.3561 1.18542,-1.0036 0.847412,-1.0874 3.122314,-3.6025 4.079534,-3.9761 -1.37828,2.1795 -3.322608,5.628 -4.274162,7.4329 -0.136713,0.744 0.425346,0.5366 0.731628,-0.1305 0.789422,-0.9137 2.896544,-3.035 3.905584,-3.5642 0.54862,0.2543 0.20684,1.638 -0.91272,2.8827 -1.571619,1.7474 -4.302911,3.5939 -4.987436,4.9257 -0.124886,0.7325 0.720001,0.2864 1.505273,-0.045 0.765422,-0.096 1.720224,-0.5682 2.969053,-1.1346 -0.59424,0.9332 -4.5173,3.9563 -5.295979,4.6395 1.87985,0.625 2.114291,-0.3037 3.861294,-0.4441 -0.863326,1.1456 -3.304247,3.2721 -4.073222,4.4689 -0.133635,0.966 1.188017,0.9045 1.803479,0.8428 0.895837,0.1057 3.147568,-1.9812 2.130688,-0.418 -0.929707,2.0023 -2.986857,4.0659 -4.593696,5.5732 -0.359997,1.0536 1.201644,2.0837 4.520106,0.1233 0.28434,0.5098 -3.600954,2.9642 -3.991858,3.5419 -0.419698,0.8883 -1.590916,1.2602 -1.362986,2.3743 0.431492,0.7774 4.037455,-0.4704 4.694974,-0.4908 -0.47729,0.7466 -2.406435,1.5896 -3.037746,2.4181 -1.471312,1.3108 -1.639452,1.7897 -2.331946,2.6565 0.655452,0.2194 1.91907,0.1549 2.988507,0.1505 0.817612,-0.1984 1.205787,-0.2486 2.437155,-0.3881 0.405128,3.2878 -6.148037,1.3611 -7.475852,1.9654 -0.583853,0.6977 1.849111,2.2963 2.184432,2.8363 -0.428961,0.6944 -3.663051,-3.0496 -4.55012,-3.5081 -0.755854,-0.1624 -0.446249,1.6237 0.16151,2.0064 0.559237,0.6881 0.404727,1.3763 0.963964,2.0644 -2.381062,-0.6652 -4.689043,-1.6717 -6.792948,-2.9714 l -2.498113,-11.7291 c 1.716351,1.1333 3.604494,2.6591 5.797242,2.2437 1.628044,-0.9754 2.286252,-2.8526 2.55126,-4.6366 0.561091,-1.8404 0.566483,-3.8675 0.22946,-5.7526 -0.46694,-1.7471 -2.265616,-3.6177 -1.758301,-5.5157 0.08818,-1.0397 -0.588213,-4.2837 0.372461,-4.3152 -0.07786,2.7211 1.168474,5.406 1.75648,6.9452 0.397053,0.7138 1.584342,0.1811 1.344116,-0.5627 0.160882,-5.2881 1.860931,-10.1507 4.349388,-14.9276 0.463176,-0.82989 0.728974,-0.9845 0.613553,-0.0876 z"
       id="path4180"
       inkscape:connector-curvature="0"
       sodipodi:nodetypes="ccccccccccccccccccccccccccccccccccccccsccccccccccccccccscccccccccccccccccccccccccccccccccc" />
    <path
       style="fill:#df9444;fill-opacity:1;fill-rule:evenodd;stroke:#ff006d;stroke-width:0.35433069;stroke-linecap:butt;stroke-linejoin:round;stroke-miterlimit:4;stroke-dasharray:none;stroke-opacity:1"
       d="m 22.303442,979.34835 c -0.824202,3.26085 -2.027184,6.71215 -5.051128,8.67478 2.928189,0.35334 2.23274,0.45917 4.39229,0 -3.293783,2.33829 -3.229683,2.64735 -3.953063,3.84324 2.415758,-0.4683 2.854987,-0.26342 4.611901,-0.98827 -3.110652,4.54064 -4.659324,6.09304 -7.466889,7.90612 0.188018,0.69258 2.090961,0.93856 4.172674,0.54905 l -1.647106,1.26273 c -1.262481,1.8162 -1.158097,2.3876 -0.1098,2.4707 l 2.415758,-0.7687 c -1.773942,3.0341 -2.581638,4.0303 -3.074608,5.9296 l 2.745188,-1.7569 c -1.331192,3.8131 -1.406101,4.1153 -0.988276,4.7218 1.343246,-0.7755 1.584626,-0.5401 3.294222,-1.5374 0.591062,0.7687 -0.08949,0.8785 -0.658846,1.6471 -1.720313,1.9605 -2.232747,2.7937 -3.95306,4.2276 1.606221,-0.3209 2.09132,-0.4858 4.611899,-1.9766 l -2.525564,4.557 c -1.472414,4.4738 -1.732722,7.7355 -1.756913,10.7611 -0.252708,3.1275 -1.616933,4.9583 -3.623639,6.0394 l -4.7217006,1.8667 c -3.592253,2.7279 -1.996535,3.3197 -0.76865,4.0629 -0.03849,1.5118 0.904265,3.2604 3.7334376,2.0863 3.234862,3.8588 7.814398,1.6304 7.357082,0 5.642827,0.3727 3.753972,-3.0591 4.172671,-5.1609 1.31208,0.5506 2.455524,-0.5007 3.184413,-5.4904 l 0.878456,1.2079 c -0.251849,-1.2255 0.126832,-1.2515 -0.878456,-4.3923 1.986099,0.8296 1.869353,0.7805 2.854985,1.7569 -0.410356,-1.4331 -0.322951,-1.8926 -0.439233,-3.9531 l 2.745186,1.6472 c 0.7772,3.0174 1.429383,3.5278 0.658839,5.71 -1.929263,3.8649 -1.953749,5.0631 -2.525563,7.0275 -0.392836,1.7261 -3.025801,3.1723 -5.709977,4.6119 -2.526989,1.7685 -0.06693,3.231 0.988272,4.1728 1.126957,3.4401 3.858946,2.0713 5.490355,1.2078 4.106043,1.5627 5.76345,0.4729 6.368814,-1.7568 2.265649,0.2159 3.996083,-0.1033 3.074601,-3.0746 0.24373,-2.0395 0.0086,-4.2838 2.19615,-5.4904 0.03812,-1.8449 1.558231,-1.8391 3.623637,-2.5256 1.914653,0.8683 2.798224,0.1725 3.733436,0.4393 2.985438,1.3128 2.119725,1.1045 3.074597,2.0863 -0.327039,0.771 -0.173191,1.1445 -0.768642,1.6471 0,0 -1.779272,1.1722 -2.525564,0.9882 -6.436848,-1.5871 -4.148706,3.6831 -3.184413,3.9531 0.744263,1.6959 1.663859,3.4804 3.843259,2.306 1.09967,0.6552 2.06466,1.7888 2.929857,1.9383 2.071079,0.3576 3.570326,-1.2887 4.97625,-2.3776 4.373299,-0.1309 7.856368,-0.3272 11.529754,-1.4276 6.916262,0.8021 7.193081,-0.8037 9.992456,-3.1843 2.731082,-1.5314 4.183778,-4.5459 4.282472,-7.2473 0.264637,-2.1229 -0.119085,-4.0262 1.098075,-4.5021 0.0366,-1.3865 -1.134665,-4.9597 -0.329415,-3.2941 0.339584,1.589 -1.042624,-1.624 -2.415759,-4.063 1.61847,0.1242 0.692839,0.9178 3.074598,0.2196 -1.503497,-0.9714 -2.736676,-1.2587 -5.38055,-3.1843 0.344667,-1.1695 1.48898,-0.7352 3.184405,-0.8784 -1.871805,-2.7206 -7.266011,-2.3131 -11.968979,-8.3452 l 1.427487,-1.5373 -1.427483,-2.9648 1.75691,-0.7686 c -3.607343,-3.2617 -5.010054,-3.7613 -7.796306,-5.3807 0.862413,-1.2926 -0.665029,-1.9585 0.768645,-1.5373 -1.903325,-1.0483 -2.049735,-0.8548 -3.953061,-1.31771 1.382673,-0.78748 2.347208,-0.88656 5.05114,-0.65882 -1.712294,-1.8679 -2.270803,-2.62075 -4.831515,-3.07461 0.623689,-0.60376 -0.04646,-0.23 2.086335,-1.20788 -2.932628,-0.86256 -5.468653,-0.28393 -7.576697,-6.36881 -0.739171,-4.56818 -3.004057,-7.61064 -5.160939,-10.76111 l -10.54149,-8.56496 z"
       id="path4178-8"
       inkscape:connector-curvature="0"
       sodipodi:nodetypes="cccccccccccccccccccccccccccccccccccccccccccsccscccccccccccccccccccccccc" />
    <path
       style="color:#000000;font-style:normal;font-variant:normal;font-weight:normal;font-stretch:normal;font-size:medium;line-height:normal;font-family:sans-serif;text-indent:0;text-align:start;text-decoration:none;text-decoration-line:none;text-decoration-style:solid;text-decoration-color:#000000;letter-spacing:normal;word-spacing:normal;text-transform:none;direction:ltr;block-progression:tb;writing-mode:lr-tb;baseline-shift:baseline;text-anchor:start;white-space:normal;clip-rule:nonzero;display:inline;overflow:visible;visibility:visible;opacity:1;isolation:auto;mix-blend-mode:normal;color-interpolation:sRGB;color-interpolation-filters:linearRGB;solid-color:#000000;solid-opacity:1;fill:#000000;fill-opacity:1;fill-rule:evenodd;stroke:none;stroke-width:1.77165353;stroke-linecap:butt;stroke-linejoin:round;stroke-miterlimit:4;stroke-dasharray:none;stroke-dashoffset:0;stroke-opacity:1;color-rendering:auto;image-rendering:auto;shape-rendering:auto;text-rendering:auto;enable-background:accumulate"
       d="m 41.081078,968.57016 c -3.893166,1.76287 -7.609748,4.03289 -11.436226,5.9869 -2.6744,1.54229 -5.587355,2.7762 -8.122879,4.4988 -0.740467,3.02132 -1.051942,7.19337 -4.485718,8.26483 -0.621447,0.74863 -2.653955,1.26901 -1.474363,1.86371 1.16973,0.26114 3.140212,-0.276 3.416721,0.004 0.276508,0.27937 -1.529186,1.91878 -2.476625,2.96138 -0.725343,1.01482 1.196536,0.17529 2.355431,-0.0981 1.840078,-0.64404 1.953211,0.609 0.262336,2.40038 -1.174144,2.07894 -4.021816,2.52295 -5.222338,4.4226 -0.220139,2.20284 4.657083,0.6511 2.155867,3.06994 -0.03918,0.5305 -1.302308,2.1875 -1.06046,2.4616 0.241848,0.2741 1.988665,-0.8346 2.259379,-0.5648 0.541426,0.5397 0.03431,1.3229 -0.82182,2.4262 -0.27113,0.5953 -0.774132,2.6675 -0.117425,2.9477 0.553322,0.236 1.401248,-0.8727 2.199103,-1.6838 -0.294778,1.1572 -0.929869,2.5792 -0.897101,3.6651 0.56364,1.1328 1.658798,0.2272 3.142775,-0.6709 -0.06893,0.4996 -2.00076,2.6371 -3.298242,3.722 -1.049312,1.3329 -1.331554,1.3207 0.213474,2.0064 1.72663,-0.6432 2.555655,-1.5113 2.905891,-1.574 0.350236,0.369 -1.864652,2.8888 -2.633982,4.241 -1.486015,3.9006 -1.688095,8.7758 -2.33415,12.5802 -0.896154,3.5409 -4.386459,3.3023 -7.1227656,4.7138 -2.937446,1.2382 -3.133489,5.1866 -0.942556,5.6624 0.355259,1.9102 3.1765036,2.475 4.6754996,2.4618 0.835337,1.6754 5.975759,3.6354 7.597439,-0.6706 3.533024,0.6443 4.383595,-2.1575 4.747044,-4.1597 0.07626,-0.4201 0.475856,-0.3739 0.900145,-0.7475 0.42429,-0.3735 0.795631,-1.6715 1.125961,-1.907 0.261388,-1.3673 0.779515,-2.0017 0.873545,-2.7459 0.318966,-0.1442 0.560462,0.7859 1.067013,0.3707 -0.52764,-3.2381 -1.133443,-3.8649 -0.884885,-4.1683 0.669717,0.1745 1.558814,1.3674 2.724641,1.5037 -0.208811,-2.2586 -1.607177,-9.2595 -0.486543,-8.8752 1.214211,3.5971 2.085093,7.4449 1.73186,11.256 -1.942234,3.864 -1.600217,8.7604 -6.249918,10.2384 -3.732421,0.372 -3.239269,6.4586 -1.024322,6.1825 0.945072,3.3383 4.881248,2.7935 7.114676,1.9337 1.000729,0.6061 1.454528,0.3793 2.669441,0.8465 1.587457,-0.1168 2.977492,-0.9946 3.733594,-2.3153 0.571973,-0.999 1.80903,-0.8387 3.1225,-1.0364 0.614452,-0.9931 0.335455,-1.7104 0.324783,-2.9708 -0.01562,-1.844 0.310822,-3.9977 2.216504,-5 0.288521,-2.5818 1.817732,-3.0383 3.839078,-2.6227 0.866988,0.1784 2.507202,0.4744 3.006331,0.7522 0.902749,0.3558 1.237047,0.5671 1.399808,0.8753 0.416826,0.7893 -0.829248,0.401 -1.753697,0.8957 -0.464129,0.2484 -0.859389,0.6318 -1.507442,0.6931 -0.849534,0.08 -1.977059,0.3748 -2.523998,0.4362 -2.240585,1.2269 -2.583574,3.8739 -0.041,4.9064 -0.442106,2.8168 3.117529,3.834 4.78568,3.1698 2.076006,1.712 4.982097,1.7538 6.596697,0.3273 0.677227,-0.5983 1.104801,-1.2251 1.705529,-1.3969 0.600728,-0.1718 1.37461,0.1119 2.123292,0.09 3.459254,0.4598 5.804807,-0.4645 8.604684,-1.1854 1.085246,-0.2794 2.962231,0.033 4.182356,0.3672 2.167804,-0.5947 3.323278,-1.6858 4.851259,-2.9358 1.433398,-1.1726 2.98806,-2.6356 4.366313,-3.9413 1.082456,-0.8823 1.230681,-2.0534 1.268211,-3.1905 0.744432,0.454 1.25229,0.6372 2.343751,0.5906 1.950557,0.609 3.05817,1.8948 3.244256,0.9194 -0.02697,-0.6598 -3.231227,-1.5863 -4.056235,-2.1179 -0.592072,-0.5702 -1.367187,-1.5219 -1.311055,-1.6883 0.09537,-0.2827 -0.119996,-3.0327 0.07413,-3.1823 0.324168,-0.1444 0.821708,0.1 0.973426,-0.176 0.22211,-1.7521 -0.418739,-4.0456 -0.508411,-5.1167 0.04386,-0.6644 -2.578054,-2.0653 -0.422008,-2.1142 1.289396,0.1469 0.661877,-1.3465 -0.361144,-1.9609 -0.963056,-0.8009 -3.393009,-1.3548 -3.092107,-2.0695 0.112739,-0.2679 1.787813,0.3238 2.393647,-0.041 0.165182,-2.2389 -2.044235,-2.8819 -4.011383,-3.6244 -1.562957,-0.4733 -4.22457,-1.2812 -5.138129,-2.2081 -0.310723,-0.3152 -2.012536,-1.6361 -1.827006,-2.1958 0.18553,-0.5597 2.148597,1.8379 2.798819,0.9437 -1.250892,-1.2373 -2.497737,-2.727 -2.080544,-3.0629 0.299127,-1.5189 -0.497721,-1.5653 -1.208594,-2.667 0.363326,-0.7115 1.080159,-0.4293 1.832911,-0.7171 -0.112112,-0.9482 -2.097262,-2.2839 -2.981452,-3.3365 -0.86035,-1.1371 -4.540694,-2.3031 -4.394376,-2.882 0.0448,-0.1773 1.503963,0.193 2.172103,0.01 -1.220109,-1.5243 -4.188059,-2.64106 -5.169332,-3.10044 2.839407,0.54994 3.374781,0.75214 5.207977,0.20016 -1.157176,-0.56301 -2.369614,-2.65007 -3.685215,-3.22902 -1.110681,-0.0976 -0.652535,-0.45542 0.875805,-1.60894 -1.132324,-0.82811 -3.574231,-0.8497 -5.024078,-1.8452 -4.256104,-2.4412 -3.188951,-8.32563 -6.144813,-11.82842 -1.228882,-2.28264 -2.794886,-4.30474 -4.961162,-5.74519 -2.872367,-2.25299 -5.614254,-4.71902 -8.563796,-6.84625 -0.104168,-0.0311 -0.217516,-0.0428 -0.322398,-0.0448 z m -0.105692,2.39243 9.843526,7.99636 c 2.471957,3.26116 4.409512,6.93117 5.169582,10.96904 0.245137,2.65825 5.974811,5.06032 6.285503,5.85723 -1.326116,0.552 -1.522426,0.59334 -0.565619,1.0602 0.957605,0.0951 4.390592,1.40957 4.470954,2.01535 -4.937883,-0.77251 -5.331471,-0.0985 -4.911551,1.14573 0.576104,1.3022 4.596028,1.6388 3.275594,3.1736 1.100472,1.2081 1.617439,1.5126 3.527044,2.3949 4.039262,2.0234 4.55534,3.3955 2.112683,2.0669 -0.401162,-0.2183 -1.141356,-0.3054 -1.455384,0.06 0.527759,0.5943 1.408412,1.2838 2.093527,2.3172 0.542027,0.8176 0.961664,1.9522 0.98733,2.7144 -1.026166,-0.5419 -1.200002,-0.5748 -1.630565,-0.1855 0.713727,1.4474 1.384226,4.5236 4.213182,6.4339 1.335529,0.9018 4.180775,0.8444 5.3251,1.1421 1.934801,0.5033 2.684504,0.8946 2.477713,1.3049 -0.254163,0.5043 -3.09541,-0.3315 -4.102211,-0.3697 -0.469532,-0.019 -0.579775,0.2896 -0.174757,0.8988 1.563875,2.5916 4.864154,2.0192 5.68782,3.8628 -1.022824,-0.8213 -1.846024,-0.8304 -1.766704,-0.3173 0.242622,1.5694 3.38678,5.334 2.387514,7.4307 -1.76467,0.256 -0.788864,1.1957 -0.78273,1.9501 0.0095,1.1583 0.0884,2.3434 -0.06158,3.0238 -1.065834,4.8355 -2.54801,5.2951 -5.992869,7.4264 -2.388197,2.6443 -6.037321,2.1642 -8.948236,1.8234 -4.276017,1.8869 -6.971813,0.9749 -10.76031,1.6122 -1.835244,1.9963 -5.6804,3.306 -6.882866,0.7322 -0.07901,-0.03 0.348645,-1.2993 0.539112,-1.655 0.451253,-0.8425 1.596914,-1.3878 1.20826,-1.852 -0.23006,-0.2747 -1.475445,0.6251 -2.126087,1.2188 -0.474854,0.5085 -1.03881,1.8063 -0.808751,1.9501 -0.693627,0.5048 -1.197043,0.4159 -1.620915,0.1684 -0.423871,-0.2473 -1.078781,-0.8081 -0.716602,-1.4026 -0.712868,-0.8002 1.166616,-1.8097 0.886637,-2.3949 -0.325397,-0.4473 -1.967906,1.0893 -1.811946,1.6074 -1.099874,-2.4525 0.312982,-3.6099 3.023041,-2.6881 0.913206,-0.4374 1.406403,-1.0647 3.643521,-1.2741 0.09621,-0.3523 0.800762,-0.6196 2.453392,-0.8032 0.24846,-0.027 2.187024,0.8695 2.760936,1.1082 0.679667,0.2826 3.881383,0.2124 4.233444,0.1898 0.805272,-0.052 2.758567,-0.1855 2.735726,-0.9219 -0.04317,-1.3917 -1.855467,-0.5895 -2.643355,-0.4657 -0.760011,0.1193 -2.597627,0.059 -2.756256,-0.017 -0.576356,-0.2765 -3.598648,-1.0554 -3.740881,-1.0882 -0.633283,-0.1467 -2.772778,-0.4276 -2.737612,-0.4091 -0.20506,-0.6064 -1.049011,-1.6392 -2.25018,-1.7144 0.183789,-0.9934 2.558935,-1.0893 1.402563,-1.9041 -0.658956,-0.015 -1.816258,0.5858 -3.076854,0.7736 -0.168612,0.025 0.796758,-0.8453 1.208894,-1.7823 0.821669,-0.8109 0.165787,-2.7463 -0.408494,-2.4569 -0.405016,0.5819 -0.360208,1.8718 -1.058658,2.5019 -1.082773,0.9588 -1.646023,1.5881 -1.729858,1.5635 -1.276766,-0.3807 -1.165524,-1.3696 -2.179513,-0.6545 -1.830251,0.8102 -3.273412,2.5213 -4.319696,4.2626 -1.072835,1.7856 -1.724403,3.6169 -1.621447,5.6854 1.271924,2.723 -2.192752,0.8021 -3.002242,2.282 -0.340382,1.1012 -2.164269,1.8514 -2.916072,1.9592 -0.89814,0.1289 -0.857982,0.012 -1.800261,-0.2624 -0.437722,-0.1273 -0.695774,-0.3251 -0.750743,-0.9636 0.178352,-1.6662 1.36724,-2.3605 1.197273,-2.3864 -0.402901,-0.647 -1.582317,0.925 -1.870079,1.6189 -0.481875,0.9706 -0.460322,1.4753 -0.635356,1.506 -0.496477,0.078 -0.656928,0.3812 -1.080137,0.7495 -0.557142,-0.097 -1.230443,-0.064 -2.136466,-0.5654 -0.272496,-0.1509 -0.41372,-0.4771 -0.301894,-1.2246 0.0089,-0.059 -0.3336,-0.3649 -0.118557,-0.7495 0.275667,-0.4932 1.089049,-1.0931 1.157327,-1.359 0.152328,-0.5933 -0.489753,-0.2525 -0.780512,-0.2151 -0.867714,0.1119 -2.034701,1.5935 -1.924891,1.4769 -0.801322,-1.2715 0.254386,-2.069 0.389952,-2.3205 0.626792,-0.3127 1.424606,-0.6659 1.997981,-1.0022 2.198611,-1.2903 4.525876,-2.4284 5.424901,-5.5299 0.393599,-3.4231 2.293965,-6.2584 1.181768,-10.0023 -0.172901,-0.8882 -0.08247,-2.7805 -0.300894,-4.0569 -0.43646,-2.5505 -2.185279,-4.1162 -2.691344,-4.5427 -0.306269,-2.0491 -0.905956,-3.3447 -1.440359,-3.2485 -0.313256,1.3792 -0.278895,2.4771 -0.920843,3.0931 -0.770139,1.5325 -0.153133,2.9781 0.456844,4.4348 0.217643,0.7007 0.523082,3.9961 0.707894,3.6534 -0.356719,0.1655 -1.25038,-3.1392 -2.230623,-2.2724 -0.816638,0.7221 1.160289,1.5891 0.540521,1.7383 -0.364553,0.087 -1.456703,-0.9452 -1.8085,-0.549 -0.326074,0.7258 1.033731,2.5025 1.183833,3.1787 0.06621,0.2984 -0.48444,0.1486 -1.46038,0.062 -0.644033,0.8136 0.507479,1.8297 0.06253,2.8396 -0.408769,0.9278 -0.344078,2.136 -1.048196,2.3687 -0.606057,0.4395 -0.29702,-2.9808 -0.817481,-2.9434 -0.675753,-0.2731 -0.705745,2.9889 -0.849539,3.7312 -0.815769,1.2436 0.06957,4.1489 -1.921711,4.3163 -1.38366,0.087 -2.200468,0.2282 -2.38682,0.8853 -1.512826,2.5019 -4.54281,1.1948 -5.138425,0.5016 -0.867189,-1.1285 0.152556,-3.2151 -0.03976,-3.3018 -0.831355,-0.3751 -1.989671,2.8446 -1.605698,2.7465 -1.528771,0.2851 -2.9267166,0.3726 -2.4508106,-2.3056 0.125285,-0.8604 1.7306336,-1.5125 1.0137496,-1.6801 -0.8485726,-0.1985 -2.0447996,1.0926 -1.7761326,1.0777 -2.632079,-0.3565 2.6779236,-3.1303 3.6856416,-2.9065 2.899123,-0.8827 5.239061,-2.0954 6.044557,-5.2659 0.865671,-3.6911 0.333258,-7.3822 1.668883,-11.0111 0.492907,-2.4747 2.386015,-5.3825 2.913124,-7.8012 -0.776993,-0.6145 -2.434178,1.6429 -3.65028,1.6335 2.510877,-2.6492 4.237065,-4.2584 2.911985,-5.5286 -0.971716,0.4344 -1.760723,1.6221 -2.4596,0.9877 -0.576806,-0.5237 0.962172,-4.5255 0.464424,-4.9477 -0.641634,-0.048 -1.322019,1.1365 -2.603947,1.9849 1.105567,-2.8172 2.758606,-3.7439 3.11443,-5.9618 -0.757944,-0.085 -2.931536,2.3462 -3.078019,1.3642 0.191938,-0.5129 2.937082,-3.64108 2.624932,-4.49297 -1.414497,0.92976 -2.468074,0.98507 -3.789117,0.91387 0.296742,-0.41919 6.471854,-4.73024 7.273154,-8.57176 -0.393166,0.26178 -3.512491,1.083 -3.696806,0.56046 -0.237081,-0.15315 0.791897,-1.14832 1.880774,-1.85168 0.805698,-1.02613 1.447607,-1.73633 0.816834,-2.28474 -0.79167,0.36398 -1.773848,0.92006 -3.856433,1.32183 1.49354,-0.44571 4.959108,-4.82983 4.427737,-6.40921 0.117278,-1.85974 2.502255,-1.99501 3.759136,-2.9879 4.70954,-2.52119 9.419118,-5.04244 14.128632,-7.5636 z"
       id="path4178"
       inkscape:connector-curvature="0"
       sodipodi:nodetypes="ccccccccccccccsccccccccccccsscccccccccccscscscsssccccccscscccccccccccscccccccccsccccccccccccccccccccscsccssssccscssccccssccscccccssssssscccccccccsccsscccsccssssccsccscccccsscscsccccccsccscccccccsccccccccccccccc" />
    <path
       style="fill:#df9444;fill-opacity:1;fill-rule:evenodd;stroke:#ff006d;stroke-width:0.35433069;stroke-linecap:butt;stroke-linejoin:miter;stroke-miterlimit:4;stroke-dasharray:none;stroke-opacity:1"
       d="m 38.005871,974.51684 c 3.660238,-0.29283 8.104315,2.1578 10.980715,-0.87847 0,0 4.551565,-7.34455 4.392288,-11.41994 -0.13939,-3.56634 -4.611901,-9.66302 -4.611901,-9.66302 -1.97992,-1.48735 -2.342403,-4.36105 -6.149201,-4.28249 -2.201181,-0.85173 -6.197067,0.65373 -7.027664,0.76865 -0.941332,0.19054 -0.661865,-0.93779 -4.282478,-0.98826 -2.840525,2.07292 -5.797994,4.24409 -8.015925,4.94132 -1.409975,0.59148 -1.312264,1.35609 -0.988263,2.52555 0.63352,0.61968 3.873956,0.72358 4.062868,1.64713 -0.424619,0.75181 -2.585933,2.24683 -5.34714,3.28559 -1.866353,0.70212 -4.126057,1.01686 -5.8532,1.43612 -0.216673,0.59151 -0.181566,-0.18016 0.658845,2.52555 -0.285021,0.30377 -0.294814,1.03195 -0.475539,1.30791 -1.581174,2.41443 0.344446,3.39591 1.573615,5.06091 2.53138,0.54322 1.911864,4.30398 3.184404,6.25901 0.83623,1.2847 2.583789,3.87877 5.929587,4.17268 1.187634,-0.66433 2.861973,-1.33846 3.643552,0.0596 1.235218,-0.3271 2.902697,-2.19554 4.028316,-2.63986 0.775094,-0.30595 0.592435,1.3057 1.442133,0.60375 0.766756,-0.63343 1.903325,-2.69695 2.854988,-4.72171 z"
       id="path4168-0"
       inkscape:connector-curvature="0"
       sodipodi:nodetypes="ccscccccccsccscsccsscc" />
    <path
       style="fill:#660000;fill-opacity:1;fill-rule:evenodd;stroke:#ff006d;stroke-width:0.35433069;stroke-linecap:butt;stroke-linejoin:round;stroke-miterlimit:4;stroke-dasharray:none;stroke-opacity:1"
       d="m 19.979934,969.63112 c 1.449348,-0.16368 1.576629,0.42812 2.073686,0.80861 l 5.279892,2.63993 c 2.371021,0.44442 4.523008,0.86424 6.503371,-1.48857 1.739547,-1.38815 2.095869,-0.50893 2.817982,1.15525 -0.178142,1.36496 -2.071408,1.65484 -3.420297,1.73095 -2.555104,1.65232 -2.626607,1.88544 -3.882273,2.79523 l -1.552907,0.31059 c -1.049239,-0.99171 -1.9522,-0.81319 -2.795243,-0.1553 -3.491126,-0.9897 -4.379603,-4.36711 -5.024211,-7.79669 z"
       id="path4172-3"
       inkscape:connector-curvature="0"
       sodipodi:nodetypes="cccccccccc" />
    <path
       style="color:#000000;font-style:normal;font-variant:normal;font-weight:normal;font-stretch:normal;font-size:medium;line-height:normal;font-family:sans-serif;text-indent:0;text-align:start;text-decoration:none;text-decoration-line:none;text-decoration-style:solid;text-decoration-color:#000000;letter-spacing:normal;word-spacing:normal;text-transform:none;direction:ltr;block-progression:tb;writing-mode:lr-tb;baseline-shift:baseline;text-anchor:start;white-space:normal;clip-rule:nonzero;display:inline;overflow:visible;visibility:visible;opacity:1;isolation:auto;mix-blend-mode:normal;color-interpolation:sRGB;color-interpolation-filters:linearRGB;solid-color:#000000;solid-opacity:1;fill:#000000;fill-opacity:1;fill-rule:evenodd;stroke:none;stroke-width:1.16929138;stroke-linecap:butt;stroke-linejoin:round;stroke-miterlimit:4;stroke-dasharray:none;stroke-dashoffset:0;stroke-opacity:1;color-rendering:auto;image-rendering:auto;shape-rendering:auto;text-rendering:auto;enable-background:accumulate"
       d="m 19.339929,969.12874 c -0.147578,0.37167 0.118052,0.46861 0.335153,0.94169 0.459569,2.38466 0.799368,5.09633 2.722375,6.75164 0.755864,0.63169 1.66131,1.14108 2.636536,1.31385 0.592857,-0.0858 1.073147,-0.82297 1.726413,-0.44572 0.428673,0.20466 0.767642,0.77223 1.314121,0.56249 0.542717,-0.12665 1.10725,-0.18183 1.63479,-0.35857 1.264559,-0.93422 2.49098,-1.92498 3.830854,-2.75425 1.986303,-0.626 2.908351,-0.75895 3.719677,-1.77128 0.361721,-0.45837 0.41726,-0.50252 0.03173,-1.20364 -0.333213,-0.89458 -0.47569,-1.67012 -1.555244,-1.74638 -0.976493,-0.0465 -1.923064,0.23371 -2.526535,0.93008 -1.100645,1.13951 -2.781074,1.42505 -4.295574,1.22465 -0.642321,-0.0889 -1.320627,-0.10453 -1.881704,-0.46397 -1.591709,-0.78748 -3.170848,-1.6037 -4.770456,-2.37311 -0.731932,-0.23346 -1.271018,-0.42607 -2.015251,-0.6085 l -0.401865,-0.29007 c -0.39141,-0.006 -0.198431,0.36438 -0.505004,0.29109 z m 1.439536,0.97846 c 0.961291,0.2961 2.167329,1.59761 3.075529,2.01969 1.103598,0.54121 2.250227,0.86605 3.363491,1.38435 1.995883,0.41387 4.083574,0.26398 5.720147,-0.63246 0.498909,-0.25271 1.647174,-0.84136 1.701914,-0.96716 0.341834,-0.34919 1.113117,-0.77426 1.251117,0.0593 0.504493,0.54953 0.362348,1.31985 -0.402342,1.46149 -0.78807,0.31588 -1.628912,0.64647 -2.454589,0.76836 -1.385981,0.81541 -2.695269,1.40355 -3.964747,2.3876 -0.413153,0.0825 -0.826293,0.16493 -1.239446,0.24741 -0.598477,-0.4584 -1.412963,-0.92912 -2.160485,-0.51531 -0.601096,0.57471 -1.528888,0.46927 -2.12033,0.11364 -1.432986,-0.91488 -1.88272,-2.97514 -2.199608,-4.57635 -0.07581,-0.33068 -0.865302,-1.24472 -0.939466,-1.57578 -0.284231,-0.46541 0.04786,-0.31451 0.368815,-0.17473 z"
       id="path4172"
       inkscape:connector-curvature="0"
       sodipodi:nodetypes="ccccccccccccccccccccccccccccccccc" />
    <path
       style="color:#000000;font-style:normal;font-variant:normal;font-weight:normal;font-stretch:normal;font-size:medium;line-height:normal;font-family:sans-serif;text-indent:0;text-align:start;text-decoration:none;text-decoration-line:none;text-decoration-style:solid;text-decoration-color:#000000;letter-spacing:normal;word-spacing:normal;text-transform:none;direction:ltr;block-progression:tb;writing-mode:lr-tb;baseline-shift:baseline;text-anchor:start;white-space:normal;clip-rule:nonzero;display:inline;overflow:visible;visibility:visible;opacity:1;isolation:auto;mix-blend-mode:normal;color-interpolation:sRGB;color-interpolation-filters:linearRGB;solid-color:#000000;solid-opacity:1;fill:#000000;fill-opacity:1;fill-rule:evenodd;stroke:none;stroke-width:1px;stroke-linecap:butt;stroke-linejoin:miter;stroke-miterlimit:4;stroke-dasharray:none;stroke-dashoffset:0;stroke-opacity:1;color-rendering:auto;image-rendering:auto;shape-rendering:auto;text-rendering:auto;enable-background:accumulate"
       d="m 45.391287,1021.601 c -0.460389,1.2666 -0.726666,2.3004 -0.760006,3.9164 0.300615,1.2414 0.637953,2.4772 0.915591,3.7222 -0.05902,0.6637 -0.140256,1.3239 -0.09697,2.0047 0.01252,0.1969 -0.246186,-1.0402 -0.770935,-1.801 -0.348112,-0.5046 -0.490617,-0.6316 -0.527671,-1.0809 -0.127758,-1.549 -1.426908,-1.661 -1.2059,-0.4892 -0.110858,-0.053 0.239529,1.2188 0.827863,2.3321 0.598707,1.133 1.435542,2.1081 1.318374,2.0027 -0.52494,-0.4725 -1.052239,-0.9733 -1.492895,-0.4342 l 0.965286,3.6209 c -0.123611,0.065 -1.402691,-0.607 -1.062542,-0.1668 0.608787,0.7876 1.24928,2.6962 0.633689,2.6375 -0.199369,-0.3996 -1.29166,-2.7791 -1.491028,-3.1786 -0.587764,-0.7044 -0.691589,-0.3718 -0.556614,0.4725 0.54037,2.0178 0.952584,3.3619 2.512586,4.8698 0.537214,0.5943 0.996783,0.3345 1.378707,0.1912 l -0.421197,-2.7873 c 0.433129,0.1585 0.618652,0.069 0.855964,0.032 0.171089,-1.8009 -0.566593,-2.3901 -0.953606,-3.4469 0.574086,0.4227 0.371717,0.1856 0.945802,0.6083 0.767357,0.1533 0.171866,-1.8766 0.13746,-3.8586 -0.0059,0.065 1.130709,1.4108 1.168145,0.4642 -0.156101,-0.3507 -0.847117,-1.1097 -0.959034,-2.301 -0.422446,-0.9726 -0.797123,-1.8376 -0.721922,-3.3077 0.228603,-0.6284 -0.435671,-1.7556 0.192345,-1.9851 0.376768,-0.1377 1.15133,-0.2548 0.945049,-1.5006 -0.385126,-1.6718 -1.391415,-1.1953 -1.77654,-0.5368 z"
       id="path4258"
       inkscape:connector-curvature="0"
       sodipodi:nodetypes="ccccsscscccscccccccccccccscc" />
    <path
       style="color:#000000;font-style:normal;font-variant:normal;font-weight:normal;font-stretch:normal;font-size:medium;line-height:normal;font-family:sans-serif;text-indent:0;text-align:start;text-decoration:none;text-decoration-line:none;text-decoration-style:solid;text-decoration-color:#000000;letter-spacing:normal;word-spacing:normal;text-transform:none;direction:ltr;block-progression:tb;writing-mode:lr-tb;baseline-shift:baseline;text-anchor:start;white-space:normal;clip-rule:nonzero;display:inline;overflow:visible;visibility:visible;opacity:1;isolation:auto;mix-blend-mode:normal;color-interpolation:sRGB;color-interpolation-filters:linearRGB;solid-color:#000000;solid-opacity:1;fill:#000000;fill-opacity:1;fill-rule:evenodd;stroke:none;stroke-width:1px;stroke-linecap:butt;stroke-linejoin:round;stroke-miterlimit:4;stroke-dasharray:none;stroke-dashoffset:0;stroke-opacity:1;color-rendering:auto;image-rendering:auto;shape-rendering:auto;text-rendering:auto;enable-background:accumulate"
       d="m 24.480636,1014.8477 c -1.482927,0.9611 -2.38108,2.6151 -2.664036,4.3314 -0.0318,0.485 -0.299539,1.0214 -0.06446,1.4838 0.266819,0.4314 0.845868,0.2788 1.162663,0 1.327928,-0.8006 2.165462,-1.4329 3.207716,-2.578 -1.341853,2.512 0.403517,4.7987 1.639665,7.2899 0.696722,1.1899 2.232111,2.7991 3.572634,3.783 0.253618,0.3828 1.028322,0.6303 1.297551,0.3229 l -0.109727,-0.6106 c -0.870767,-0.9844 -2.643689,-1.8381 -3.396263,-2.9388 -1.462344,-2.0342 -2.089904,-3.4755 -2.264988,-5.9178 -0.08192,-0.997 0.388519,-2.8956 0.344306,-3.8907 -0.123797,-0.5201 -0.549775,-0.5938 -0.788955,-0.1238 -0.879538,1.1831 -1.969348,2.209 -3.218784,2.9939 0.245247,-1.2373 0.620913,-2.5477 1.705113,-3.2392 0.2733,-0.5327 0.352486,-1.5314 -0.422428,-0.8995 z"
       id="path4263"
       inkscape:connector-curvature="0"
       sodipodi:nodetypes="ccccccccccccccccc" />
    <path
       style="color:#000000;font-style:normal;font-variant:normal;font-weight:normal;font-stretch:normal;font-size:medium;line-height:normal;font-family:sans-serif;text-indent:0;text-align:start;text-decoration:none;text-decoration-line:none;text-decoration-style:solid;text-decoration-color:#000000;letter-spacing:normal;word-spacing:normal;text-transform:none;direction:ltr;block-progression:tb;writing-mode:lr-tb;baseline-shift:baseline;text-anchor:start;white-space:normal;clip-rule:nonzero;display:inline;overflow:visible;visibility:visible;opacity:1;isolation:auto;mix-blend-mode:normal;color-interpolation:sRGB;color-interpolation-filters:linearRGB;solid-color:#000000;solid-opacity:1;fill:#000000;fill-opacity:1;fill-rule:evenodd;stroke:none;stroke-width:0.99921262;stroke-linecap:butt;stroke-linejoin:miter;stroke-miterlimit:4;stroke-dasharray:none;stroke-dashoffset:0;stroke-opacity:1;color-rendering:auto;image-rendering:auto;shape-rendering:auto;text-rendering:auto;enable-background:accumulate"
       d="m 35.449752,988.07706 c 0.268662,1.79513 0.634147,5.13798 0.241885,5.34735 -0.878585,-1.50566 -2.246152,-4.53526 -2.270699,-3.76347 -0.164807,1.42367 0.210314,2.38164 -0.217284,3.95893 -0.437222,-1.80061 -0.692433,-3.09777 -1.036506,-2.83572 -0.09845,1.55031 0.226304,3.13588 -1.03035,4.58968 -0.182251,-1.03213 0.541256,-6.09261 -0.300316,-5.08676 -1.028239,2.54983 -2.496315,5.75226 -4.730466,6.99568 l 2.391338,-6.5578 c 0.04981,-1.28731 -0.238486,-1.0531 -0.598617,-0.49567 l -2.418065,3.53282 c -1.020657,-0.48458 0.179774,-3.12028 -0.83326,-3.49413 -1.362857,1.31612 -1.639933,2.59088 -3.476763,2.95905 l -0.551322,1.2714 3.577881,-2.11931 c -0.290673,0.83827 -0.34056,1.63276 0.498658,2.2656 0.671014,0.33085 1.083062,-0.0289 1.446988,-0.51693 l -1.435696,4.40761 c -0.383257,1.64781 0.544112,0.67435 1.127333,0.38918 1.343731,-1.53628 2.608762,-3.38734 4.044423,-4.5559 0.316769,1.14825 0.284131,1.46619 0.6009,1.79447 0.401139,0.98548 0.996391,0.21148 1.39753,-0.20928 l 0.529679,-1.64804 c 0.231938,0.31512 0.08588,1.15278 0.824696,1.39975 0.435625,-0.35107 0.763033,-0.29394 0.833215,-1.27456 -0.05403,-0.48201 -0.203945,-1.69331 0.07934,-2.25172 l 1.17844,2.16129 c 0.555696,0.46457 1.044274,0.42577 1.393508,-0.6581 l -0.323945,-3.34984 c 1.680977,3.04986 3.881404,2.72332 5.949833,3.25475 0.439143,-0.18236 0.980633,-0.31821 0.31914,-1.00087 -3.943008,0.52303 -5.076178,-2.12032 -7.211491,-4.50946 z"
       id="path4268"
       inkscape:connector-curvature="0"
       sodipodi:nodetypes="cccccccccccccccccccccccccccccccc" />
    <path
       style="fill:#000000;fill-opacity:1;fill-rule:evenodd;stroke:#000000;stroke-width:0.29055119;stroke-linecap:butt;stroke-linejoin:miter;stroke-miterlimit:4;stroke-dasharray:none;stroke-opacity:1"
       d="m 16.817695,965.52191 c -0.62573,-0.44631 -1.59894,-0.75687 -1.776898,-1.58164 -0.320354,-1.48472 0.07916,-2.77068 1.913349,-2.53888 l 2.808359,0.35491 c 0.838228,0.10589 1.673374,0.0328 2.525565,0.0588 1.253264,0.0382 2.527584,1.31931 0.658843,3.01579 -0.300624,0.27292 -1.077583,0.62703 -1.647108,1.31769 -1.597909,1.93781 -2.474088,0.80555 -4.48211,-0.62668 z"
       id="path4273"
       inkscape:connector-curvature="0"
       sodipodi:nodetypes="ssssssss" />
    <path
       style="color:#000000;font-style:normal;font-variant:normal;font-weight:normal;font-stretch:normal;font-size:medium;line-height:normal;font-family:sans-serif;text-indent:0;text-align:start;text-decoration:none;text-decoration-line:none;text-decoration-style:solid;text-decoration-color:#000000;letter-spacing:normal;word-spacing:normal;text-transform:none;direction:ltr;block-progression:tb;writing-mode:lr-tb;baseline-shift:baseline;text-anchor:start;white-space:normal;clip-rule:nonzero;display:inline;overflow:visible;visibility:visible;opacity:1;isolation:auto;mix-blend-mode:normal;color-interpolation:sRGB;color-interpolation-filters:linearRGB;solid-color:#000000;solid-opacity:1;fill:#000000;fill-opacity:1;fill-rule:evenodd;stroke:none;stroke-width:1.77165353;stroke-linecap:butt;stroke-linejoin:miter;stroke-miterlimit:4;stroke-dasharray:none;stroke-dashoffset:0;stroke-opacity:1;color-rendering:auto;image-rendering:auto;shape-rendering:auto;text-rendering:auto;enable-background:accumulate"
       d="m 30.540962,947.09737 c -2.663702,1.78323 -4.856584,4.15725 -7.877478,5.36069 -1.680247,0.79903 -1.783719,1.94305 -1.166334,3.46865 1.070708,0.57995 1.645706,0.37753 2.311078,0.26449 0.647886,-0.21143 2.020566,0.418 1.962587,0.95484 -0.03654,0.33829 -1.082794,1.36406 -1.728673,1.60848 -2.656361,1.59228 -5.639574,1.77341 -8.691627,2.40777 -0.989329,1.02619 -1.658164,1.89555 -0.180287,3.98836 -1.397427,1.37255 -1.775662,3.30773 -0.550881,4.7287 0.881177,0.85414 1.374611,2.28049 2.696627,2.45554 1.426073,1.30392 1.192262,3.54233 2.336572,5.05552 1.07414,2.22149 3.140653,3.94766 5.628066,4.27254 1.177425,0.26993 2.037262,-0.94778 3.203835,-1.0878 0.405672,0.37077 0.531403,1.37583 0.482966,1.94438 0.769575,0.0852 1.46308,-0.81192 1.899787,-1.52847 1.111933,-0.28673 1.914452,-1.18526 2.960095,-1.57329 0.82141,-0.36641 0.2478,1.99994 0.154012,2.03305 1.678086,-0.11167 2.015561,-2.22274 2.26753,-2.44212 1.679946,-0.77246 1.854495,-4.9689 3.996988,-4.1101 2.975714,0.37777 6.6193,2.40484 9.158654,0.26368 1.218321,-1.0597 1.705859,-2.70478 2.523136,-4.05749 1.566367,-3.29562 3.474325,-7.02329 2.286203,-10.74561 -1.017914,-3.02344 -2.739982,-5.79086 -4.620097,-8.33821 -1.538766,-1.37103 -2.462767,-3.56116 -4.616192,-4.15135 -1.854519,-0.38903 -3.057394,-0.64446 -4.964817,-0.26747 -1.414833,-0.0954 -4.41881,1.1352 -5.526975,0.36434 -1.360682,-0.82734 -2.38053,-0.87454 -3.944807,-0.86912 z m 0.648549,1.64677 c 1.966331,-0.35019 3.394579,2.17565 5.304445,1.5442 1.988912,-0.52699 4.074526,-1.83933 6.114793,-1.22367 2.080658,-0.33594 3.404457,2.08534 4.469062,3.55238 0.518811,0.70331 1.187962,0.99628 1.127218,1.14655 1.796286,2.69921 3.716604,5.53558 4.216041,8.80148 -0.236042,3.58798 -2.042691,6.84568 -3.727105,9.94479 -0.983534,2.16803 -3.734094,2.04552 -5.704817,1.67829 -1.83743,-0.30878 -3.704482,-0.63401 -5.571169,-0.40321 -0.469257,1.60142 -0.530733,2.31197 -1.800209,3.21725 -0.148472,0.12804 -0.627836,1.94674 -0.779526,2.05334 0.01491,0.051 -0.259373,-1.38605 -1.064592,-1.0818 -0.664555,0.37471 -1.476389,1.13709 -2.238684,1.28718 -0.3341,0.0658 -1.393527,1.2724 -1.752708,1.32214 -0.472796,0.0654 -0.255239,-1.02878 -0.779206,-0.95796 -0.96044,0.12981 -2.463674,1.1542 -3.35382,0.94173 -1.906472,-0.16811 -3.542933,-1.64118 -4.215746,-3.48459 -1.300827,-1.8588 -1.000569,-4.96452 -3.37156,-5.98602 -1.096405,-0.97501 -3.691435,-2.55013 -2.742435,-4.23002 0.826954,-0.82822 1.258872,-2.26944 0.597775,-3.39824 -0.193044,-0.53096 -0.215286,-1.33873 0.457483,-1.63228 0.98078,-0.42794 2.944398,-0.19551 3.914865,-0.002 2.222041,-0.91861 4.261653,-2.20252 6.367266,-3.34961 0.849209,-1.17586 0.405002,-2.37385 -1.101502,-2.84366 -0.470777,-0.19674 -1.842594,0.21339 -2.559264,-0.0895 -0.620031,-0.26207 -0.694455,-1.22354 0.06079,-1.56818 2.786596,-1.05126 5.780477,-3.50794 8.132604,-5.2385 z"
       id="path4168"
       inkscape:connector-curvature="0"
       sodipodi:nodetypes="ccccscccccccccccccccccccccccccccccccccccccccccccsccsccc" />
    <path
       style="fill:#000000;fill-opacity:1;fill-rule:evenodd;stroke:#000000;stroke-width:0.29055119;stroke-linecap:butt;stroke-linejoin:miter;stroke-miterlimit:4;stroke-dasharray:none;stroke-opacity:1"
       d="m 32.916969,958.24021 c 0.757705,-0.47442 0.979838,-1.1531 1.552908,-1.63055 1.999329,-1.66571 2.714432,-0.61778 3.494043,0.0389 1.566542,1.31946 1.313649,1.9588 0.970567,2.63994 -0.519728,1.03186 -1.176467,1.2662 -1.750328,1.477 -1.126751,0.41393 -2.155682,-0.0387 -2.753104,-0.15702 -0.369021,-0.073 -0.823331,-0.3486 -1.358796,-0.58234 -0.837056,-0.36539 -1.132745,-1.17387 -0.15529,-1.78589 z"
       id="path4275"
       inkscape:connector-curvature="0"
       sodipodi:nodetypes="ssssssss" />
    <path
       style="fill:#000000;fill-opacity:1;fill-rule:evenodd;stroke:#000000;stroke-width:0.35433069;stroke-linecap:butt;stroke-linejoin:miter;stroke-miterlimit:4;stroke-dasharray:none;stroke-opacity:1"
       d="m 25.451973,955.80542 c -0.666368,0 -2.051184,-0.0953 -2.950524,0.23294 -1.517024,0.55367 -1.148715,2.49523 -0.155291,3.41639 1.053345,0.97671 2.994849,-0.53493 3.571687,-1.2035 0.828343,-0.96005 0.49149,-2.44583 -0.465872,-2.44583 z"
       id="path4277"
       inkscape:connector-curvature="0"
       sodipodi:nodetypes="sssss" />
    <path
       style="fill:#7f5900;fill-opacity:1;fill-rule:evenodd;stroke:none;stroke-width:0.35433072;stroke-linecap:butt;stroke-linejoin:round;stroke-miterlimit:4;stroke-dasharray:none;stroke-opacity:1"
       d="m 47.229665,953.21425 c 2.122938,1.36736 3.916455,1.80975 7.247272,1.97653 -1.383005,0.99335 -2.979579,2.26764 -2.196134,2.74517 1.224983,-0.47821 2.458851,-1.37787 4.502095,-0.2196 l -1.098075,1.86672 c 1.676826,0.31345 2.025554,0.10921 3.513833,0.98826 l -2.525575,2.30595 c 2.277984,1.04123 4.096057,2.0248 4.941326,2.74518 1.458873,1.24331 2.194109,2.01525 2.765161,3.06129 0.09605,0.35914 1.09869,1.57921 -0.45921,1.11138 l -2.196151,0.10983 c 1.472451,2.68177 3.021792,4.11771 3.591478,7.6665 0.489058,3.04652 -0.05172,4.40826 -0.29726,6.49861 -1.417884,-4.97104 -2.675921,-6.1995 -3.61146,-8.15238 -0.101585,1.7585 -0.385994,1.68557 -0.671022,5.18759 0.514811,2.68673 2.574106,4.76595 3.501652,6.83355 -2.001516,-0.42778 -3.413979,-1.38062 -4.81933,-3.10011 0.642678,2.31403 1.970971,3.3519 3.62363,5.16094 -2.303306,-0.67994 -2.845007,-0.18962 -4.941319,-2.52556 l 1.317681,3.0746 c -4.14562,-2.00547 -5.739045,-4.67188 -6.698236,-8.12573 -1.347548,1.63113 -0.280421,2.25223 -0.32943,3.62364 -1.84251,-2.03734 -3.921882,-3.06916 -4.062858,-6.80804 l -1.098068,2.52555 c -0.956964,-1.59649 -2.567989,-1.62437 -0.988272,-6.03939 l -2.525566,2.52557 c -1.091189,-1.51009 1.149888,-4.01985 2.854988,-6.36882 -2.697741,1.99147 -3.049352,1.04758 -4.941326,1.42749 2.210994,-1.60679 4.233479,-3.28816 5.380551,-5.16093 0.731989,-1.46431 0.873953,-2.28289 1.317691,-4.61191 l -3.733442,3.73345 c 0.739761,-2.35284 0.009,-2.04948 2.30595,-6.47863 -2.655763,-3.67788 -1.2702,-6.86146 0.329426,-7.5767 z"
       id="path4170-9"
       inkscape:connector-curvature="0"
       sodipodi:nodetypes="cccccccscccsccccccccccccccccccccc" />
    <path
       style="color:#000000;font-style:normal;font-variant:normal;font-weight:normal;font-stretch:normal;font-size:medium;line-height:normal;font-family:sans-serif;text-indent:0;text-align:start;text-decoration:none;text-decoration-line:none;text-decoration-style:solid;text-decoration-color:#000000;letter-spacing:normal;word-spacing:normal;text-transform:none;direction:ltr;block-progression:tb;writing-mode:lr-tb;baseline-shift:baseline;text-anchor:start;white-space:normal;clip-rule:nonzero;display:inline;overflow:visible;visibility:visible;opacity:1;isolation:auto;mix-blend-mode:normal;color-interpolation:sRGB;color-interpolation-filters:linearRGB;solid-color:#000000;solid-opacity:1;fill:#000000;fill-opacity:1;fill-rule:evenodd;stroke:none;stroke-width:1.0629921;stroke-linecap:butt;stroke-linejoin:round;stroke-miterlimit:4;stroke-dasharray:none;stroke-dashoffset:0;stroke-opacity:1;color-rendering:auto;image-rendering:auto;shape-rendering:auto;text-rendering:auto;enable-background:accumulate"
       d="m 47.05493,952.08913 c -0.423723,0.63571 -0.581302,2.20714 0.630206,2.49626 1.30907,0.85268 3.640597,0.781 5.206737,1.06665 -1.304236,0.74087 -1.969065,1.605 -2.176346,3.14475 0.708664,-6.1e-4 3.129354,-0.33276 5.254965,-0.36703 -0.656129,0.14353 -2.756307,1.85087 -2.088295,1.93572 1.02771,0.32854 4.131487,0.0694 4.317681,0.7897 -0.537239,0.59175 -1.984149,1.4991 -2.362845,2.20621 0.907475,0.39021 1.27994,0.61219 1.802925,0.98801 2.400884,1.12803 4.868789,2.54945 6.239838,4.89709 0.195475,0.13958 -0.996589,0.2741 -1.479867,0.10847 -0.473927,-0.26818 -1.095621,-0.60832 -1.748513,-0.67106 0.360903,1.24735 1.745167,3.0095 2.270255,4.20637 1.339485,2.57552 2.942977,6.65762 2.115219,9.56057 -0.437025,-2.16083 -0.939566,-3.85241 -2.025196,-5.78566 -0.511792,-0.47192 -0.837234,-1.99631 -2.200759,-2.03084 -0.497818,1.93502 -0.429711,5.02225 -0.533514,6.84196 0.361344,1.91614 1.939882,4.40694 3.711482,6.24083 -1.653022,-0.53909 -3.187098,-1.80445 -4.081663,-3.31667 -0.612494,-0.78485 -0.957636,-1.0173 -1.680085,-1.01316 0.174546,1.13559 2.06897,4.48442 2.05381,4.76824 -1.32404,-0.83737 -0.934648,-0.49734 -2.046473,-1.5733 -0.644195,-0.33538 -1.743978,-1.56328 -1.248336,-1.06289 l 0.547802,3.33222 c -2.239335,-1.71116 -2.672153,-2.85825 -3.42049,-5.48932 -0.396547,-0.61661 -1.18144,-2.35722 -1.727804,-2.27037 -0.658438,0.74486 -0.584535,4.03951 -1.549689,2.29277 -1.165146,-1.4098 -0.890064,-2.1182 -1.624052,-3.51616 -0.185802,-0.93017 -0.119811,-1.44664 -0.914385,-2.03852 -1.159226,1.22938 -1.041073,1.94779 -1.539095,2.91268 -1.260353,-1.69076 0.01193,-4.16436 0.482897,-5.95999 -0.03121,-0.74431 -0.772693,-0.29922 -1.009569,0.35536 l -2.523905,2.52489 c 0.615943,-1.56645 2.705158,-3.88756 3.515388,-5.33251 0.172555,-0.71756 -0.07263,-1.67106 -0.482421,-1.10814 -1.093466,0.61919 -3.313508,1.7696 -3.561159,1.41037 2.116203,-1.37738 4.229623,-2.70787 4.82033,-5.34865 0.450063,-1.56653 0.85857,-3.44977 1.041639,-5.06368 -0.134354,-0.69479 -0.631973,-0.14227 -0.839028,0.47887 l -2.426947,2.80574 c 0.280419,-1.38199 0.400295,-2.08298 0.763128,-3.2732 0.251218,-0.57669 1.024988,-1.35818 0.512156,-2.0979 -0.441718,0.21256 -1.95201,2.56297 -2.717148,4.89376 -0.443654,1.35148 -0.437046,2.65946 -0.444601,3.57031 0.826697,0.0481 1.118619,-0.41749 1.644647,-1.02062 0.675299,-0.92665 1.331898,-1.31867 2.000104,-2.25078 -0.193826,1.66088 -1.347233,3.65364 -2.801521,4.56576 -1.402913,1.1435 -3.043023,1.99206 -4.411852,3.16272 -0.380694,0.60839 0.673743,1.2366 1.257777,0.93356 0.948779,0.0972 1.671197,0.62877 3.613846,-0.72278 -1.033596,1.32471 -3.605581,5.3245 -1.821656,7.42713 0.340186,-0.71146 0.680768,-1.65763 0.892155,-2.16643 0.407394,-0.52077 0.771228,-1.28506 1.27455,-1.59702 -1.046923,1.54319 0.365611,5.21883 1.710668,6.36167 0.0021,-0.79992 0.24004,-1.21764 0.694655,-1.63897 0.466626,0.62905 0.604833,1.69053 1.318583,2.56146 0.780806,1.11347 3.247429,3.13029 4.245537,4.04673 -0.628289,-1.38218 -0.803596,-3.44265 -0.629285,-4.24599 0.339183,0.6387 0.687272,1.86417 0.890434,2.66865 0.852038,2.75517 1.671531,3.00365 3.605004,4.27444 1.040699,0.42749 3.622063,2.19234 3.161638,1.77187 -0.284411,-0.55853 -0.723159,-1.91879 -1.011816,-3.33782 1.066911,0.6022 3.360099,1.67897 4.618182,1.69657 0.625192,-0.19276 -0.841059,-1.05224 -1.345325,-1.34132 -0.553522,-0.66615 -2.010449,-2.873 -0.27441,-1.54543 0.624598,0.30732 2.828951,1.75761 3.330137,0.83085 0.101646,-0.88858 -1.608773,-2.24716 -1.735561,-3.12835 -0.595579,-2.01818 -1.823152,-2.37995 -2.220979,-4.79487 0.02551,-0.80517 -0.351389,-2.72413 0.164651,-3.51038 0.569416,1.8342 2.017015,6.73374 3.057589,8.395 0.25457,0.56573 0.807189,-0.64909 0.844694,-1.26829 0.419693,-2.21736 1.035862,-4.34468 0.613063,-6.65362 -0.336371,-2.72065 -1.727473,-4.99681 -3.107746,-7.32793 0.98949,0.12799 1.452885,0.28507 2.332616,-0.13115 -0.922289,-4.07249 -3.683368,-6.49605 -6.676811,-7.07568 -1.325052,-0.24225 -0.08199,-0.7828 0.284962,-1.27305 0.399461,-0.38396 0.962607,-0.65534 2.244907,-1.0256 -1.070862,-1.6779 -5.011362,-1.83367 -4.729774,-2.16801 -0.01922,-0.69323 1.035024,-0.65654 2.559589,-1.46735 -0.986106,-0.91302 -4.988191,-0.6265 -5.333623,-0.82413 0.369694,-0.51999 1.396001,-0.97038 2.279197,-1.84611 -0.686689,-0.78638 -3.838554,-1.00541 -4.879361,-1.23938 -1.868138,-0.41996 -2.723419,-0.37324 -4.493738,-1.60405 z"
       id="path4170"
       inkscape:connector-curvature="0"
       sodipodi:nodetypes="ccccccccccccccccccccccccccccccccccccccccccsccccccccccccccccccccccccccccccccccccccscc" />
    <path
       sodipodi:nodetypes="cccccccccc"
       inkscape:connector-curvature="0"
       id="path4172-3-5"
       d="m 20.373803,969.56118 c 1.449343,-0.16369 1.576619,0.42811 2.073683,0.80862 l 5.279889,2.63985 c 2.371022,0.44447 4.523009,0.86433 6.503371,-1.48847 1.739548,-1.38825 2.095869,-0.50903 2.817983,1.15519 -0.178143,1.365 -2.071408,1.65487 -3.420297,1.731 -2.555104,1.65229 -2.626607,1.88546 -3.882274,2.79518 l -1.552907,0.31066 c -1.049238,-0.99175 -1.952199,-0.8133 -2.795242,-0.15533 -3.491124,-0.98978 -4.379597,-4.36717 -5.024206,-7.7967 z"
       style="fill:url(#pattern5896);fill-opacity:1;fill-rule:evenodd;stroke:none;stroke-width:0.35433072;stroke-linecap:butt;stroke-linejoin:round;stroke-miterlimit:4;stroke-dasharray:none;stroke-opacity:1" />
    <path
       style="fill:#d10000;fill-opacity:1;fill-rule:evenodd;stroke:#ff006d;stroke-width:0.35433069;stroke-linecap:butt;stroke-linejoin:miter;stroke-miterlimit:4;stroke-dasharray:none;stroke-opacity:1"
       d="m 21.193715,970.60226 c -5.946524,1.65938 -4.836236,7.26697 -4.814013,10.17155 -0.01783,3.04255 2.048643,1.74538 3.338746,0.85409 l 2.678764,-0.65998 c 0.379504,0 0.744496,-1.92916 1.397627,-2.52348 1.615002,-1.4696 2.049357,-3.9298 4.270486,-5.51282 -2.687447,0.68178 -4.801973,-0.53989 -6.87161,-2.32936 z"
       id="path4174-8"
       inkscape:connector-curvature="0"
       sodipodi:nodetypes="ccccscc" />
    <path
       style="fill:#b00000;fill-opacity:1;fill-rule:evenodd;stroke:#ff006d;stroke-width:0.35433069;stroke-linecap:butt;stroke-linejoin:round;stroke-miterlimit:4;stroke-dasharray:none;stroke-opacity:1"
       d="m 27.224554,972.93828 c -0.504681,0.38448 -0.264512,0.31938 -2.006604,3.50624 -0.07072,0.26234 -1.108275,0.9945 1.317216,0.20077 0.494934,1.06281 1.595707,0.5621 2.510154,0.0976 l 3.957153,-3.68815 c -2.169607,0.33635 -4.02228,0.68332 -5.777919,-0.11647 z"
       id="path4176-4"
       inkscape:connector-curvature="0"
       sodipodi:nodetypes="ccccccc" />
    <path
       style="color:#000000;font-style:normal;font-variant:normal;font-weight:normal;font-stretch:normal;font-size:medium;line-height:normal;font-family:sans-serif;text-indent:0;text-align:start;text-decoration:none;text-decoration-line:none;text-decoration-style:solid;text-decoration-color:#000000;letter-spacing:normal;word-spacing:normal;text-transform:none;direction:ltr;block-progression:tb;writing-mode:lr-tb;baseline-shift:baseline;text-anchor:start;white-space:normal;clip-rule:nonzero;display:inline;overflow:visible;visibility:visible;opacity:1;isolation:auto;mix-blend-mode:normal;color-interpolation:sRGB;color-interpolation-filters:linearRGB;solid-color:#000000;solid-opacity:1;fill:#000000;fill-opacity:1;fill-rule:evenodd;stroke:none;stroke-width:1.0629921;stroke-linecap:butt;stroke-linejoin:miter;stroke-miterlimit:4;stroke-dasharray:none;stroke-dashoffset:0;stroke-opacity:1;color-rendering:auto;image-rendering:auto;shape-rendering:auto;text-rendering:auto;enable-background:accumulate"
       d="m 21.507428,969.71279 c -1.921113,0.45582 -3.766156,1.5654 -4.729601,3.33642 -1.154407,2.05699 -1.053737,4.5008 -0.927184,6.77853 0.06105,0.9968 -0.104401,2.18886 0.701393,2.94249 0.765843,0.67559 1.884927,0.3669 2.65905,-0.12491 0.410834,-0.21906 0.740335,-0.59821 1.222633,-0.64854 l 2.272322,-0.55968 c -0.286124,0.11056 0.779261,-0.25956 0.766248,-0.62933 0.633292,-1.09735 1.057979,-2.30155 1.635785,-3.4277 0.427125,0.0471 0.891419,-0.33247 1.251458,-0.15373 0.561762,0.45918 1.322938,0.52231 2.022121,0.21644 0.353478,-0.14537 0.741952,-0.10024 1.06449,-0.30052 1.372667,-1.24413 2.361789,-2.69636 3.731258,-3.94387 0.343355,-0.34046 0.309427,-0.56901 -0.173203,-0.59861 -0.386808,0.0156 -1.033497,0.11043 -1.41993,0.15093 -1.346488,0.0938 -2.032508,0.2414 -3.088807,0.0301 l -1.585365,-0.24165 c -1.947828,-0.47507 -2.564399,-0.6093 -3.872843,-1.48609 -0.727144,-0.45824 -0.880867,-0.77963 -1.529825,-1.34039 z m -0.194565,1.47004 c 0.376025,0.31256 0.77082,0.61626 1.1818,0.89596 -0.481774,0.18049 -3.549195,4.22685 -2.726306,4.48699 0.56424,0.32534 1.995932,-3.23474 4.66955,-3.6631 0.404086,0.11254 1.318335,0.51703 1.859172,0.62213 -0.556105,0.69626 -0.454667,1.17251 -1.005765,1.87256 -0.05967,0.19871 -0.475769,0.74934 -0.795073,1.37053 -0.519674,0.83234 -1.24868,1.37698 -1.602841,2.29359 -0.25646,0.37349 -0.02465,1.23895 -0.527762,1.34411 -0.839421,0.21592 -2.023538,0.78241 -2.853956,1.01846 -0.628081,0.399 -1.207478,0.34206 -1.962803,0.44061 -0.477714,-0.33664 -0.703894,-1.09861 -0.754238,-1.63098 -0.06423,-2.09737 -0.218452,-4.70479 0.701393,-6.66805 0.658461,-1.42997 2.349899,-1.94789 3.816829,-2.38281 z m 6.848192,2.44287 c 0.994773,0.30099 3.045648,-0.0358 4.074188,-0.14062 l -3.220356,2.8977 c -0.406229,0.17558 -1.230225,0.68298 -1.694199,0.56253 -0.413192,-0.13138 -0.367909,-0.57475 -0.84709,-0.55682 -0.188682,-0.15869 -0.486096,-0.27188 -0.770345,-0.28674 0.03811,-0.28822 0.343163,-0.54058 0.401659,-0.71166 0.256455,-0.32179 0.318074,-0.54679 0.574538,-0.86857 0.234411,-0.2929 0.566249,-0.31366 0.567725,-0.31538 0.386532,-0.42486 0.570342,-0.605 0.913868,-0.58043 z"
       id="path4174"
       inkscape:connector-curvature="0"
       sodipodi:nodetypes="ccccccccccccccccccccccccccccccccccccccccccccc" />
    <path
       style="color:#000000;display:inline;overflow:visible;visibility:visible;opacity:1;fill:#561800;fill-opacity:1;fill-rule:evenodd;stroke:#000000;stroke-width:0.70866138;stroke-linecap:round;stroke-linejoin:round;stroke-miterlimit:4;stroke-dasharray:none;stroke-dashoffset:0;stroke-opacity:1;marker:none;enable-background:accumulate"
       d="m 37.609365,958.40416 a 1.8232716,1.9216255 0 0 1 -1.823271,1.92162 1.8232716,1.9216255 0 0 1 -1.823272,-1.92162 1.8232716,1.9216255 0 0 1 1.823272,-1.92163 1.8232716,1.9216255 0 0 1 1.823271,1.92163 z"
       id="path4344"
       inkscape:connector-curvature="0" />
    <path
       inkscape:connector-curvature="0"
       style="color:#000000;display:inline;overflow:visible;visibility:visible;opacity:1;fill:#642501;fill-opacity:1;fill-rule:evenodd;stroke:#000000;stroke-width:0.70866138;stroke-linecap:round;stroke-linejoin:round;stroke-miterlimit:4;stroke-dasharray:none;stroke-dashoffset:0;stroke-opacity:1;marker:none;enable-background:accumulate"
       d="m 23.739379,957.67843 a 0.90594509,1.2508305 0 0 1 -0.905945,1.25082 0.90594509,1.2508305 0 0 1 -0.905946,-1.25082 0.90594509,1.2508305 0 0 1 0.905946,-1.25083 0.90594509,1.2508305 0 0 1 0.905945,1.25083 z"
       id="path4344-2" />
    <path
       style="fill:url(#pattern6080);fill-opacity:1;fill-rule:evenodd;stroke:none;stroke-width:0.35433072;stroke-linecap:butt;stroke-linejoin:round;stroke-miterlimit:4;stroke-dasharray:none;stroke-opacity:1"
       d="m 27.173954,973.02404 c -0.504677,0.38448 -0.264502,0.31938 -2.006595,3.50624 -0.07072,0.26234 -1.108283,0.9945 1.317208,0.20077 0.494937,1.06281 1.595705,0.5621 2.510153,0.0977 l 3.801867,-3.68815 c -2.16961,0.33634 -3.866987,0.68332 -5.622633,-0.11647 z"
       id="path4176-4-6"
       inkscape:connector-curvature="0"
       sodipodi:nodetypes="ccccccc" />
    <path
       style="fill:url(#pattern6341);fill-opacity:1;fill-rule:evenodd;stroke:none;stroke-width:0.29055119;stroke-linecap:butt;stroke-linejoin:miter;stroke-miterlimit:4;stroke-dasharray:none;stroke-opacity:1"
       d="m 22.03605,1013.2838 -3.846206,8.0125 -2.484653,12.2679 c -2.043072,1.6511 -4.551327,2.9534 -7.7645376,3.727 0,0 -1.242327,2.0188 -1.242327,2.7952 0,0.7765 2.57562,2.8673 2.57562,2.8673 1.1228686,0.5376 2.1670306,1.0276 2.7042666,0.3938 l 2.950525,2.0188 c 1.607176,0.2839 3.184657,0.2707 4.503433,-2.3294 1.844404,-0.2412 3.673229,-0.5525 4.658723,-4.6586 l 2.639944,-3.7271 0.621163,-2.4846 -0.776454,-2.64 c 0.656426,-0.6277 1.876981,0.2959 3.105815,1.2424 l -0.465872,-4.0376 c 1.089155,0.731 2.446197,2.2658 3.261108,2.174 -0.856906,-2.5299 -1.010402,-4.5323 -2.914463,-7.8476 l -1.278389,3.4995 c -0.370964,0.3193 -1.231809,-1.8108 -1.86349,-2.7952 -0.251872,-1.9878 0.07502,-3.3968 0.229035,-4.9787 -1.114777,1.5972 -2.865185,2.3539 -4.111305,3.4258 -0.04846,-0.7959 0.07557,-1.7069 0.465872,-2.7953 l 1.552909,-2.174 c -1.018522,0.063 -1.785574,-0.4607 -2.520717,-1.9561 z"
       id="path6082"
       inkscape:connector-curvature="0"
       sodipodi:nodetypes="ccccsccccccccccccccccccc" />
    <path
       inkscape:connector-curvature="0"
       style="color:#000000;display:inline;overflow:visible;visibility:visible;opacity:1;fill:#000000;fill-opacity:1;fill-rule:evenodd;stroke:none;stroke-width:0.70866144;stroke-linecap:round;stroke-linejoin:round;stroke-miterlimit:4;stroke-dasharray:none;stroke-dashoffset:0;stroke-opacity:1;marker:none;enable-background:accumulate"
       d="m 36.554749,958.34785 a 0.78010339,0.822185 0 0 1 -0.780102,0.82219 0.78010339,0.822185 0 0 1 -0.780104,-0.82219 0.78010339,0.822185 0 0 1 0.780104,-0.82218 0.78010339,0.822185 0 0 1 0.780102,0.82218 z"
       id="path4344-7" />
    <path
       inkscape:connector-curvature="0"
       style="color:#000000;display:inline;overflow:visible;visibility:visible;opacity:1;fill:#000000;fill-opacity:1;fill-rule:evenodd;stroke:none;stroke-width:0.70866144;stroke-linecap:round;stroke-linejoin:round;stroke-miterlimit:4;stroke-dasharray:none;stroke-dashoffset:0;stroke-opacity:1;marker:none;enable-background:accumulate"
       d="m 22.883757,957.69038 a 0.78010339,0.822185 0 0 1 -0.780102,0.82218 0.78010339,0.822185 0 0 1 -0.780104,-0.82218 0.78010339,0.822185 0 0 1 0.780104,-0.82219 0.78010339,0.822185 0 0 1 0.780102,0.82219 z"
       id="path4344-7-6" />
  </g>
</svg>
