<?xml version="1.0" encoding="utf-8"?>
<!DOCTYPE svg PUBLIC "-//W3C//DTD SVG 1.1//EN" "http://www.w3.org/Graphics/SVG/1.1/DTD/svg11.dtd">
<svg version="1.1" id="Layer_1" xmlns="http://www.w3.org/2000/svg" xmlns:xlink="http://www.w3.org/1999/xlink" x="0px" y="0px"
	 viewBox="-21.9157 -35.555 1931.8314 3134.1099" enable-background="new -21.9157 -35.555 1931.8314 3134.1099"
	 xml:space="preserve">
<g>
	<g id="_x23_693f21ff">
		<path fill="#693F21" stroke="#693F21" stroke-width="0.0938" d="M675.55,12.37c37.8-11.9,78.14-14.5,117.43-10.41
			c38.24,3.99,75.8,14.7,110.25,31.81c29.48,14.5,56.98,32.89,82.22,53.89c20.04,16.83,38.8,35.33,54.77,56.1
			c11.1901,14.6,20.78,30.5,27.65,47.59c-17.9399-0.82-35.91-0.71-53.85-0.14c-11.21,0.8-22.52,0.87-33.62,2.79
			c-12.73-37.92-39.8-69.98-72.53-92.42c-30.93,8.87-58.61,27.38-80.21,51.06c-20.11,22.07-35.84,48.03-47.11,75.63
			c-0.06-0.7-0.18-2.1-0.24-2.8c-25.32,2.21-50.31,9.82-72.24,22.74c0.18,0.45,0.55,1.33,0.74,1.78
			c-27.43-17.21-57.8-30.3-89.8-35.93c-25.62-4.53-52.27-3.73-77.36,3.29c-2.71,1.21-6.91,0.88-8.39,3.81
			c-6.25,15.98-9.97,32.89-11.82,49.92c-3.63,33.17,1.86,67.81,18.5,96.98c6.66,11.78,14.95,22.61,24.43,32.25
			c-49.21,49.94-87.48,110.24-114.13,174.98c-0.62,1.63-1.05,3.32-1.45,5.03c1.23-1.3,2.43-2.63,3.44-4.11
			c30.04-47.63,63.96-93.18,104.41-132.54c6.92-6.75,13.56-13.83,21.06-19.97c2.29-1.83,4.23-4.05,5.89-6.46
			c1.3799,1.09,2.73,2.2,4.15,3.25c5.59,1.46,11.28-0.39,16.47-2.45c13.02-5.49,24.84-13.36,36.47-21.3
			c34.36-24.21,66.38-51.54,97.77-79.43c0.92-0.96,2.27-1.02,3.53-1.01c18.6,0.39,37.03-5.64,52.54-15.74
			c1.34-0.81,2.76-1.8,4.44-1.52c40.87,4.55,81.9,8.77,123.08,8.86c13.33-0.11,26.76-0.46,39.87-3.06c5.8-1.32,12.14-2.91,16.1-7.71
			c8.41-24.66,12.31-51.19,8.51-77.12c62.91-8.71,127.16-5.97,189.49,5.79c40.66,7.84,80.67,19.41,118.88,35.42
			c44.13,18.45,86.25,42.66,121.97,74.68c0.41-0.08,1.22-0.25,1.63-0.34l0.29-0.06c4.8199,5.13,8.65,11.09,13.63,16.08
			c16.39,17.57,31.09,36.68,44.27,56.77c3.6399,4.94,8.7799,8.49,12.95,12.97c37.96,37.28,67.46,82.66,88.78,131.27
			c6.3099,14.6299,11.97,29.53,17.86,44.33c31.27,81.14,40.9399,169.94,31.22,256.18c-9.5599,86.9-37.58,171.01-76.29,249.13
			c-5.1399,10.23-10.23,20.5-15.8899,30.4501c9.7799-20.4601,17.09-41.9901,23.6499-63.66c5.2201-18.21,10.4-36.53,13.7201-55.18
			c-27.2401,71.0999-66.29,138.4799-119.4,193.42c-5.42,5.61-11.01,11.03-16.5701,16.5c-0.9199,0.76-1.74,1.8-2.9399,2.0699
			c-1.09,0.17-1.76,0.79-2.03,1.86c-2.74,3.8-6.91,6.42-10.34,9.6101c-9.2001,7.5499-18.47,15.12-28.5701,21.4399
			c20.12-32.85,40.75-65.48,57.8501-100.04c16.4099-32.99,29.4299-68.0699,34.38-104.72c5.3999-38.41,1.35-77.78-9.53-114.89
			c-10.04-34.41-25.0601-67.9-47.79-95.86c-18.04-22.25-41.52-40.39-68.46-50.45c-18.89-7.2401-39.11-10.23-59.2001-11.5
			c-24.6699-1.48-49.3999-0.42-74.0499,1.0099c-61.28,3.81-122.65,9.72-184.12,6.65c-12.99-0.47-25.92-2.03-38.92-2.18
			c-45.97-1.2-91.86-5.87-137.09-14.2c-53.13-9.84-105.48-24.4-155.51-44.9c-1.43-0.56-2.87-1.0699-4.31-1.5699
			c92.57,41.89,191.49,70.89,292.86,80.3c49.4999,4.62,99.48,4.62,148.9-0.87c37.7001-4.13,75.05-11.66,111.17-23.26
			c-80.13,30.53-166.54,42.98-252.07,40.43c-96.14-2.79-191.13-23.5-281.75-55.1c-30.67-10.59-60.74-22.8-90.56-35.56
			c-9.71,26.12-23.82,50.55-41.31,72.23c-20.37,25.48-44.18,47.99-64.16,73.8c-14.08,17.81-26.08,37.15-36.74,57.16
			c-3.43-1.03-7.07-1.52-10.12-3.52c-8.9-5.29-18.67-9.04-28.77-11.26c-9.69-2.32-20.31-2.64-29.55,1.53
			c-7.54,3.32-13.47,9.73-16.85,17.1801c-4.57,9.9-5.35,21.18-3.89,31.89c2.74,19.45,13.18,38.02,29.3,49.46
			c13.71,9.83,31.19,13.36,47.8,12.0699c14.71,33.0801,31.54,65.17,49.3,96.7001c4.99,8.63,9.82,17.36,15.26,25.72
			c5.75,8.24,11.81,16.28,17.72,24.42c1.75,2.35,3.09,4.97,4.4,7.6c-4.45-0.8201-8.15-3.6-11.96-5.84
			c-8-5.0901-16.19-9.91-23.91-15.4c-28.24-25.34-56.4-51.1-80.34-80.66c-29.29-35.84-49.79-78.3-62.3-122.74
			c-10.86-38.19-16.33-77.77-18.16-117.39c-2.33-51.85,1.53-103.86,9.76-155.06c6.8-42.31,16.82-84.06,29.52-124.97
			c-19.27-26.09-34.07-55.38-44.33-86.13c-13.32-39.89-20.43-81.77-22.15-123.76c-1.46-40.05,1.97-80.76,14.69-118.96
			c18.58-56.79,57.18-106.03,105.66-140.52c20.98-14.79,44.75-26.45,70.32-30.33c15.65-2.45,31.74-1.75,47.2,1.65
			c1.43,0.38,3.14,0.65,4.1-0.79C610.24,41.11,641.83,23.01,675.55,12.37z"/>
	</g>
	<g id="_x23_ffc7d8ff">
		<path fill="#FFC7D8" stroke="#FFC7D8" stroke-width="0.0938" d="M827.66,152.64c21.6-23.68,49.28-42.19,80.21-51.06
			c32.73,22.44,59.8,54.5,72.53,92.42c2.81,8.46,4.87,17.18,6.12,26.01c3.8,25.93-0.1,52.46-8.51,77.12
			c-28.52-23.49-66.52-33.57-103.06-31.78c-28.94,1.42-57.05,10.03-83.23,22.12c-3.89-8.38-5.73-17.52-7.41-26.55
			c-1.86-10.8-3.27-21.69-3.76-32.65C791.82,200.67,807.55,174.71,827.66,152.64z"/>
		<path fill="#FFC7D8" stroke="#FFC7D8" stroke-width="0.0938" d="M541.65,217.35c25.09-7.02,51.74-7.82,77.36-3.29
			c32,5.63,62.37,18.72,89.8,35.93c6.43,6.78,10.4,15.41,14.5,23.7c4.59,10.62,9.42,21.19,12.76,32.29
			c-11.39,2.47-22.94,4.38-34.01,8.13c-31.59,9.54-61.43,26.55-83.58,51.27c-13.86,15.97-25.2,34.58-30.74,55.11
			c-1.42-1.05-2.77-2.16-4.15-3.25c-6.78-5.2-13.2401-10.82-19.22-16.93c-9.48-9.64-17.77-20.47-24.43-32.25
			c-16.64-29.17-22.13-63.81-18.5-96.98c1.85-17.03,5.57-33.94,11.82-49.92C534.74,218.23,538.94,218.56,541.65,217.35z"/>
		<path fill="#FFC7D8" stroke="#FFC7D8" stroke-width="0.0938" d="M527.31,1285.38c24.47-0.97,48.86,2.76,72.65,8.21
			c33.91,7.92,66.86,19.48,99.2599,32.17c5.51,1.84,10.73,5.24,16.7401,4.97c22.33,0.99,44.38,4.9401,66.56,7.46
			c0.12,1.52,0.27,3.0601,0.44,4.6001c2.45,20.51,9.98,40.39,22.04,57.1799c19.16,27,49.25,44.98,81.11,52.8101
			c23.68,5.9199,48.79,6.22,72.59,0.7899c16.59-4.1799,32.72-10.96,46.3-21.5199c15.06-11.28,27.21-26.54,34.25-44.04
			c0.53,0.05,1.59,0.14,2.12,0.1799c24.84,5.7401,49.95,10.4401,74.7,16.6101c16.42,4.1799,32.92,8.5499,48.3501,15.6799
			c4.2799,1.85,7.99,5.03,12.6899,5.88c23.29,5.55,46.4,12.08,68.83,20.52c20.2301,7.71,40.0801,16.9,57.8501,29.38
			c-0.1801,4.2-0.4701,8.42-1.11,12.59c-2.76,17.1901-9.2301,33.49-16.67,49.14c-14.91,29.96-34.26,57.64-56.5601,82.5601
			c-4.35,4.7899-8.9299,9.38-13.59,13.87c-26.01-9.3301-51.78-19.3501-77.2-30.17c-24.73,32.8-46.91,67.87-62.54,105.97
			c-16.58,39.88-24.37,83.78-19.41,126.86c-39.16,18.1901-81.0699,30.0901-123.6799,36.79c-57.2,8.96-115.61,8.9-173.01,1.79
			c-40.95-5.0901-81.58-13.65-120.7-26.9c-18.34-6.63-37.02-13.46-52.96-24.96c9.83-96.54,23.62-192.7101,42.08-287.9801
			c3.12-15.9099,6.37-31.7799,9.84-47.61c-41-5.2899-81.63-13.0499-121.95-22.12c-0.52-2.0299-1.13-4.0299-1.67-6.02
			c-6.96-35.2999-9.5-71.59-6.16-107.45c1.81-17.9301,4.86-35.9301,11.57-52.74C522.09,1294.86,524.52,1290.01,527.31,1285.38z"/>
		<path fill="#FFC7D8" stroke="#FFC7D8" stroke-width="0.0938" d="M583.27,1853.95c13.14,10.41,28.05,18.37,43.03,25.77
			c19.34,9.28,39.48,16.8301,60.03,22.9501c46.63,13.97,95.1,21.4099,143.68,23.64c47.12,1.7999,94.69-1.4801,140.58-12.76
			c32.78-8.3,65.03-20.9701,92.19-41.4401c4.9,22.62,12.85,44.41,19.39,66.58c0.6799-0.09,2.0499-0.2699,2.73-0.37
			c-0.6901,0.6101-1.36,1.25-2.01,1.92c5.21,16.61,10.38,33.29,13.71,50.4c2.09-0.4501,4.1801-0.99,6.28-1.4401
			c-1.13,0.6101-2.24,1.26-3.3,1.9801c-3.33-0.1801-6.74,0.1-9.99-0.7401c-3.87-1.3199-5.4399-5.46-7.62-8.5399
			c0.17,3.63,1.0901,7.41-0.03,10.99c-1.4399,3.97-5.5499,5.85-8.9199,7.91c3.78-0.0901,7.76-0.6001,11.37,0.84
			c3.34,1.46,5.28,4.74,7.39,7.5599c-0.52-5.76,0.46-12.0599,5.22-15.88c2.21,10.41,3.3101,21.0601,3.64,31.7101
			c0.1899,4-0.47,8.1899,1.1,12.02c-2.49,2.9099-6.59,2.85-9.95,4.0699c-6.49,2.29-12.7201,5.39-18.4301,9.2401
			c-6.03-1.1201-8.5499-7.0402-11.35-11.7301c0.34,4.5599,1.74,9.25,0.48,13.7999c-1.36,4.52-5.76,7.04-9.6799,9.0901
			c-1.02,0.3101-2.02,0.6599-3,1.0701c1.34,0.1899,2.6799,0.4199,4.0399,0.6899c-11.53,8.75-23.23,17.3201-34.16,26.8301
			c-2.61,0.1099-5.55,0.5698-7.77-1.1001c-1.99-1.78-3.23-4.1799-4.72-6.3301c0.16,3.54,1.37,7.52-0.73,10.74
			c-1.6,2.6602-4.6299,3.8401-7.25,5.22c3.07-0.0798,6.16-0.0798,9.25,0.2202c-22.5099,19.0598-45.42,37.6899-68.8799,55.5798
			c-10.9901,8.28-22.41,15.98-34,23.3901c-3.16,1.9199-6.4,3.7-9.65,5.46c-9.14,4.8699-18.65,9.3301-28.85,11.3999
			c-11.26,2.02-22.6801,3.3901-34.14,3.3301c-3.65-0.04-7.3-0.21-10.92-0.5801c-11.7401-1.25-23.34-3.51-34.9301-5.71
			c-33.33-7.29-62.44-26.05-90.94-43.9399c-32.27-20.1699-63.83-42.6602-100.21-54.9299c-3.67-1.24-7.4-2.24-11.16-3.1101
			c-0.67-5.6799-2.11-11.22-3.03-16.8401c-2.45-14.1799-3.55-28.5399-4.28-42.8999c-2.27-50.05,0.37-100.1801,4.02-150.11
			C581.95,1871.24,583.28,1862.62,583.27,1853.95 M1068.89,1944.77c4.02-0.0601,7.87,1.52,9.84,5.1899
			c-0.16-3.9099,1.3201-7.47,3.89-10.35c-1.83-0.27-3.7-0.38-5.4399-0.9299c-1.8101-0.9601-2.7401-2.92-3.89-4.4701
			C1073.9301,1938.37,1072.64,1942.54,1068.89,1944.77 M1066.3101,1970.3199c-1.6901,0.8-3.3,2.7201-2.6101,4.7101
			c0.6001,3.1799,5.66,3.71,6.8201,0.62C1071.96,1972.8101,1069.1899,1969.9,1066.3101,1970.3199 M1020.25,2045.3199
			c-3.45,0.91-5.26,5.5201-3,8.42c2.22,4.0801,9.36,2.95,9.95-1.77C1028.49,2047.92,1024.16,2044.04,1020.25,2045.3199z"/>
		<path fill="#FFC7D8" stroke="#FFC7D8" stroke-width="0.0938" d="M1238.36,2625.1799c1.96,2.4001,3.9,4.8401,5.78,7.3601
			c4.85,8.0601,10.42,15.6899,16.15,23.1499c1.75,2.48,5.0599,2.3901,7.76,3.02c39.1,6.3201,79.25,6.1699,118.33-0.21
			c20.1899-3.3701,40.21-8.5,58.98-16.77c2.23-1.03,4.46-2.0801,6.67-3.1599c0.71-0.3401,2.13-1.04,2.83-1.3801
			c3.66,2.96,7.8101,5.79,9.8201,10.24c1.23,2.71,0.6399,6-1.12,8.3701c-0.9401,0.78-1.92,1.5-2.88,2.28
			c-31.91,23.5598-72.63,31.53-111.62,31.2998c-21.2301,0.3301-42.38-1.9399-63.3701-4.95
			c10.4,11.9001,22.7301,22.01,35.2201,31.6501c31.48,23.6399,68.5399,41.1299,108.0299,45.21c17.6901,1.3499,36.3,0.25,52.4-7.8901
			c9.9701-5.02,18.7101-14.0999,20.2101-25.5398c1.38-9.4402-2.29-18.5901-6.8501-26.6401c-0.5-1.73-2.75-3.6399-1.33-5.3799
			c12.58,10.6199,24.11,22.46,34.59,35.1599c11.9601,14.6799,22.63,30.6299,29.8101,48.23
			c6.78,16.6001,10.1899,35.26,5.8199,52.9399c-3.84,16.1802-14.26,30.1101-27.01,40.49
			c-16.08,13.1802-34.51,24.8401-55.4099,28.0801c-16.5901,2.72-33.7101-1.5601-48.05-10.01
			c-14.1801-8.24-26.33-19.47-37.6801-31.1899c-15.2799-15.75-29.2699-32.7-45-48.01c-11.22-10.8201-23.61-20.96-38.2699-26.6799
			C1295.63,2778.26,1278.6,2772.7,1263,2764c-16.37-8.8701-30.98-21.1899-41.71-36.45c-10.4501-14.4202-16.63-32.7-13.39-50.55
			C1211.3199,2656.6399,1224.3101,2639.6201,1238.36,2625.1799z"/>
		<path fill="#FFC7D8" stroke="#FFC7D8" stroke-width="0.0938" d="M776.54,2690.79c18.97,3.51,38.51,9.3398,53.01,22.7
			c11.14,10.0601,17.55,24.6301,18.8,39.47c2,22.9299-4.27,46.02-15.34,66.02c-8.3,15.5-19.32,29.27-29.31,43.6699
			c-10.72,15.3101-15.46,33.77-18.99,51.8601c-5.04,26.1799-7.31,52.9199-14.53,78.6599c-4.73,16.6301-11.99,33.1301-24.42,45.5
			c-10.19,10.3101-23.65,16.9502-37.69,20.1802c-15.43,3.5999-31.46,3.72-47.18,2.4199c-15.84-1.4099-31.76-6.78-43.78-17.47
			c-13.16-11.51-20.78-28.1001-24.42-44.9399c-5.1-23.6802-3.9-48.26-0.19-72.05c2.29-12.96,4.73-26.05,9.38-38.3901l0.16,1.49
			c-0.59,9.0801-0.06,18.5901,4.19,26.8501c3.89,8.26,11.89,14.3,20.83,16.0701c10.74,2.4099,21.81-0.1101,31.95-3.8
			c14.09-5.4299,26.7-14.1101,38.05-23.95c24.18-21.6201,42.37-49.3501,55-79.0801c2.8-6.6499,5.63-13.3201,7.37-20.3301
			c-7.6,2.47-14.86,5.8201-22.5,8.1802c-22.99,7.7-46.86,12.75-70.98,15.1499c-17.66,1.8401-35.45,1.7-53.16,0.9199
			c-3.34-0.23-6.68-0.45-9.98-1c-5.41-6.4399-6.22-16.6799-1.29-23.6499c0.33,0.01,0.97,0.02,1.29,0.02
			c3.47,0.04,6.95,0.03,10.44-0.01c52.32-1.1101,103.73-14.4399,152.15-33.74c1.69-0.8101,4.12-1.3901,4.3-3.6301
			c2.95-14.6199,4.56-29.48,5.72-44.3398C776.32,2712.6499,775.45,2701.6599,776.54,2690.79z"/>
	</g>
	<g id="_x23_663300ff">
		<path fill="#663300" stroke="#663300" stroke-width="0.0938" d="M980.4,194c11.1-1.92,22.41-1.99,33.62-2.79
			c17.9399-0.57,35.91-0.68,53.85,0.14c50.5,2.65,100.7,11.27,149.1,25.96c37.9601,11.53,74.9,26.71,109.4501,46.29
			c33.96,19.31,65.5199,43.23,92.0699,71.96c-0.41,0.09-1.22,0.26-1.63,0.34c-35.72-32.02-77.84-56.23-121.97-74.68
			c-38.21-16.01-78.22-27.58-118.88-35.42c-62.33-11.76-126.58-14.5-189.49-5.79C985.27,211.18,983.21,202.46,980.4,194z"/>
		<path fill="#663300" stroke="#663300" stroke-width="0.0938" d="M450.24,575.29c26.65-64.74,64.92-125.04,114.13-174.98
			c5.98,6.11,12.44,11.73,19.22,16.93c-1.66,2.41-3.6,4.63-5.89,6.46c-7.5,6.14-14.14,13.22-21.06,19.97
			c-40.45,39.36-74.37,84.91-104.41,132.54c-1.01,1.48-2.21,2.81-3.44,4.11C449.19,578.61,449.62,576.92,450.24,575.29z"/>
	</g>
	<g id="_x23_ffabc4ff">
		<path fill="#FFABC4" stroke="#FFABC4" stroke-width="0.0938" d="M708.07,248.21c21.93-12.92,46.92-20.53,72.24-22.74
			c0.06,0.7,0.18,2.1,0.24,2.8c0.49,10.96,1.9,21.85,3.76,32.65c1.68,9.03,3.52,18.17,7.41,26.55
			c26.1801-12.09,54.29-20.7,83.23-22.12c36.54-1.79,74.54,8.29,103.06,31.78c-3.96,4.8-10.3,6.39-16.1,7.71
			c-13.11,2.6-26.54,2.95-39.87,3.06c-41.18-0.09-82.21-4.31-123.08-8.86c-1.68-0.28-3.1,0.71-4.44,1.52
			c-15.51,10.1-33.94,16.13-52.54,15.74c-1.26-0.01-2.61,0.05-3.53,1.01c-31.39,27.89-63.41,55.22-97.77,79.43
			c-11.63,7.94-23.45,15.81-36.47,21.3c-5.19,2.06-10.88,3.91-16.47,2.45c5.54-20.53,16.88-39.14,30.74-55.11
			c22.15-24.72,51.99-41.73,83.58-51.27c11.07-3.75,22.62-5.66,34.01-8.13c-3.34-11.1-8.17-21.67-12.76-32.29
			c-4.1-8.29-8.07-16.92-14.5-23.7C708.62,249.54,708.25,248.66,708.07,248.21z"/>
	</g>
	<g id="_x23_ffdec2ff">
		<path fill="#FFDEC2" stroke="#FFDEC2" stroke-width="0.0938" d="M706.08,726.09c1.44,0.5,2.88,1.0099,4.31,1.5699
			c50.03,20.5,102.38,35.06,155.51,44.9c45.23,8.33,91.12,13,137.09,14.2c13,0.15,25.9301,1.71,38.92,2.18
			c61.47,3.07,122.84-2.84,184.12-6.65c24.65-1.43,49.38-2.49,74.0499-1.0099c20.0901,1.27,40.3101,4.2599,59.2001,11.5
			c26.9399,10.06,50.4199,28.2,68.46,50.45c22.73,27.96,37.75,61.45,47.79,95.86c10.88,37.11,14.9299,76.48,9.53,114.89
			c-4.9501,36.65-17.9701,71.73-34.38,104.72c-17.1001,34.5601-37.7301,67.1901-57.8501,100.04c-33.39,22.96-70.1,40.8201-108,54.99
			c-82.4299,30.96-171.21,42.23-258.9199,40.62c-76.29-1.4199-152.4301-13.01-225.5601-34.84c-36.42-11.47-72.22-25.17-106.16-42.74
			c-36.05-18.55-70.53-40.4-101.67-66.42c-8.76-7.48-17.57-14.99-25.5-23.34c-1.31-2.63-2.65-5.25-4.4-7.6
			c-5.91-8.14-11.97-16.1801-17.72-24.42c-5.44-8.36-10.27-17.09-15.26-25.72c-17.76-31.53-34.59-63.62-49.3-96.7001
			c1.34-0.3899,2.67-0.8199,4.03-1.1799c1.25,0.0699,2.49,0.21,3.74,0.38c3.04-4.77,1.99-10.64,1-15.86
			c-1.96-9.27-3.76-18.58-4.9-27.99c-0.52-5.27-1.25-10.64-0.06-15.88c1.39-7.62,5.02-14.54,8.51-21.37
			c1.52-3.66,3.9-7.42,3.26-11.54c-0.17-1.99-2-2.99-3.5-3.91c10.66-20.0099,22.66-39.35,36.74-57.16
			c19.98-25.81,43.79-48.32,64.16-73.8c17.49-21.68,31.6-46.11,41.31-72.23c29.82,12.7599,59.89,24.97,90.56,35.56
			c90.62,31.6,185.61,52.31,281.75,55.1c85.53,2.55,171.94-9.9,252.07-40.43c-36.12,11.6-73.47,19.13-111.17,23.26
			c-49.4199,5.49-99.4,5.49-148.9,0.87C897.57,796.98,798.65,767.98,706.08,726.09 M745.92,968.81c-7.54,3.3-14.64,8.2-22.95,9.32
			c-4.0099,0.66-7.1299-2.2-9.3799-5.1c-1.01,3.24-2.05,6.62-1.48,10.06c0.66,5.17,4.04,9.33,6.56,13.71
			c-6.4-0.6-11.61-4.66-15.85-9.18c-1.34,8.76,2.55,17.12,7.44,24.13c4.01,5.56,5.02,12.48,6.32,19.05
			c1.55,8.26,5.03,16.0699,9.61,23.09c7.64,11.58,18.89,21.92,32.84,24.77c12.93,4.1899,27.35,3.5,39.9399-1.5801
			c19.0601-7.23,33.42-25.09,36.9901-45.09c3.71-20.05-3.29-42.29-19.14-55.43c0.23,0.1,0.69,0.3,0.92,0.4
			c-10.65-10.09-24.91-17.1-39.79-16.96C766.71,960.05,755.92,963.97,745.92,968.81 M1245.98,1013.91
			c-13.15,8.39-22.36,22.48-25.45,37.71c-4.72,20.83,3.34,43.67,19.38,57.59c12.89,11.4301,30.87,16.63,47.9099,14.25
			c5.7101-0.11,11.26-1.9199,16.42-4.27c12.33-5.8899,22.4301-15.98,29.21-27.7699c4.89-8.3501,6.04-18.79,13.13-25.8301
			c6.0701-6.13,11.2001-13.84,11.4301-22.75c-4.8201,4.04-10.77,6.88-17.17,6.74c2.4401-3.39,5.7201-6.1799,7.62-9.96
			c2.16-3.89,1.9601-8.48,1.3101-12.73c-2.27,1.78-4.66,3.97-7.76,3.75c-5.0701-0.33-9.33-3.4501-13.41-6.16
			c-10.3199-7.34-20.52-15.4-32.75-19.31C1279.14,999.45,1259.99,1003.62,1245.98,1013.91 M732.29,1100.04
			c-0.2,1.26-0.4,2.52-0.58,3.7999c-5.12,0.24-10.29,0.41-15.32-0.7c-0.35,1.09-0.69,2.21-1.01,3.33
			c-1.69,0.26-3.36,0.53-5.02,0.8101c-0.24,1.12-0.46,2.25-0.68,3.4c-1.1,0.2-2.19,0.4199-3.28,0.6499
			c-0.62,1.0601-1.17,2.17-1.88,3.1901c-1.93,0.72-4.06,0.48-6.07,0.6899c-0.88,2.89-2.1,5.66-2.96,8.5601
			c-1.09-0.1901-2.16-0.37-3.23-0.53c-0.18,1.53-0.36,3.0701-0.52,4.63c-1.17-0.15-2.32-0.26-3.47-0.37
			c-0.42,2.72-0.96,5.4301-1.65,8.11c-0.61,0.16-1.82,0.5-2.43,0.66c-2.99,9.48-2.75,19.66-2.01,29.46
			c0.63,0.15,1.88,0.4501,2.51,0.59c0.67,2.75,1.21,5.54,1.64,8.3501c0.59,0.1899,1.75,0.5599,2.34,0.75
			c0.22,1.0699,0.44,2.14,0.68,3.24c1.09,0.23,2.19,0.48,3.29,0.74c0.37,1.85,0.69,3.73,1.08,5.6c-0.21,0.9399-0.41,1.9-0.59,2.88
			c2.51,0.11,5.03,0.23,7.55,0.35c0.19,1.48,0.39,2.98,0.6,4.49c1.14,0.1801,2.29,0.38,3.4399,0.5901
			c0.19,1.1299,0.39,2.2799,0.6,3.4399c1.47,0.15,2.95,0.3199,4.45,0.5c0.13,1.52,0.27,3.0601,0.42,4.61
			c5.49,0.71,11.32-0.95,16.56,1.3201c0.15,1.23,0.32,2.48,0.5,3.74c1.15-0.04,2.31-0.0601,3.47-0.0701
			c0.19-1.25,0.38-2.48,0.58-3.7c5.14-0.3,10.34-0.38,15.41,0.73c0.28-1.13,0.57-2.24,0.87-3.34c1.67-0.3201,3.37-0.53,5.06-0.8201
			c0.2-1.12,0.41-2.22,0.62-3.3099c1.37-0.3101,2.77-0.5601,4.12-1c0.41-1.3,0.67-2.63,0.99-3.92c2.07,0.38,4.19,0.52,6.31,0.49
			c0.2-1.25,0.42-2.49,0.64-3.71c1.45-0.1901,2.91-0.36,4.38-0.51c0.71-2.87,1.23-5.78,1.61-8.6901c1.16,0.12,2.32,0.28,3.5,0.4501
			c0.14-1.4301,0.29-2.8301,0.46-4.22c1.11-0.2201,2.24-0.4301,3.37-0.62c0.81-5.41,3.11-10.5601,2.52-16.13
			c1.13,0.01,2.27,0.0199,3.4301,0.0499c0.11-1.45,0.24-2.89,0.39-4.3099c-1.16-0.17-2.32-0.3301-3.47-0.48
			c1.2-5.53-1-10.9801-0.69-16.54c-1.18-0.22-2.36-0.4301-3.52-0.63c-0.22-1.4301-0.42-2.85-0.61-4.25
			c-0.6-0.1901-1.78-0.5601-2.38-0.74c-0.2-1.14-0.39-2.26-0.58-3.36c-1.12-0.2201-2.24-0.4301-3.34-0.62
			c-0.38-1.9401-0.72-3.86-1.1-5.78c0.22-0.5701,0.67-1.71,0.9-2.28c-1.69-0.4-3.38-0.74-5.07-0.99c0.12-1.14,0.26-2.25,0.41-3.35
			c-2.38-0.54-4.76-1.0601-7.13-1.5801c-0.27-1.1599-0.53-2.2999-0.77-3.4299c-1.48-0.21-2.94-0.42-4.39-0.6
			c-0.18-1.52-0.34-3.03-0.5-4.52c-5.43-0.64-11.16,0.87-16.35-1.27c-0.22-1.1899-0.48-2.36-0.76-3.51
			C734.52,1100.14,733.41,1100.03,732.29,1100.04 M1307.88,1125.72c-5.25,0.3201-10.49,2-15.72,0.73
			c-0.1801,1.41-0.3301,2.8301-0.4701,4.27c-1.46,0.15-2.8999,0.3101-4.3199,0.49c-0.1899,0.5701-0.5599,1.7101-0.75,2.28
			c-2.26,0.51-3.74,1.95-4.15,4.26c-2.35,0.6801-4.78,0.98-7.2,0.8c-0.55,2.35-1.09,4.71-1.61,7.08c-1.4,0.28-2.77,0.58-4.13,0.89
			c-0.3201,1.35-0.62,2.7-0.91,4.08c-0.53,0.2101-1.6,0.63-2.13,0.85c-1.01,2.02-2.01,4.05-3.02,6.0801
			c-0.5399,0.21-1.62,0.64-2.1599,0.85c-0.2301,1.6899-0.2001,3.47-0.92,5.0699c-3.1801,6.0701-0.12,13.16-2.03,19.5801
			c0.29,1.86,0.59,3.73,0.9501,5.61c0.58,0.21,1.74,0.61,2.3199,0.8099c0.5699,2.3501,1.15,4.7201,1.72,7.1001
			c0.5801,0.1899,1.74,0.5699,2.3201,0.76c-0.01,2.84,0.6499,5.8099,3.97,6.25c0.58,2.36,1.12,4.73,1.6799,7.12
			c2.0901,0.47,4.1801,1.0099,6.26,1.6c0.3301,1,0.6801,2.02,1.05,3.0499c0.99,0.3401,2,0.7101,3.02,1.0801
			c0.1899,1.0399,0.4,2.1,0.63,3.1699c2.6899,0.05,4.76,1.4601,5.2,4.2301c4.84,1.8099,10.09,2.09,15.21,2.4399
			c0.17,1.21,0.3501,2.4301,0.54,3.67c2.54,0.6799,4.27-1.1001,5.98-2.64c5.23-0.2101,10.4301-2.2001,15.64-0.6901
			c0.09-1.47,0.2001-2.9199,0.3301-4.35c1.4399-0.1799,2.8999-0.35,4.38-0.5c0.23-0.5599,0.6799-1.6799,0.8999-2.24
			c2.12-0.58,3.5601-2,4.04-4.17c2.3101-0.7699,4.73-1.26,7.1801-0.9199c0.2799-1.27,0.5399-2.55,1.0199-3.74
			c1.27-0.55,2.65-0.78,4.02-1.0901c0.6-2.0699,1.16-4.14,1.7101-6.2c0.5499-0.2,1.6699-0.61,2.22-0.8101
			c0.6799-1.33,1.38-2.6499,2.09-3.96c1-0.35,2.01-0.6799,3.05-1c0.2-2.86-0.04-5.87,1.35-8.47c1.2-2.4401,0.92-5.21,1.0599-7.83
			c0.67-0.15,2.03-0.4701,2.7001-0.63c-0.04-1.14-0.0601-2.27-0.0601-3.38c-0.71-0.16-2.13-0.4601-2.84-0.62
			c1.5699-5.37-0.23-10.7301-0.23-16.15c-2.8-0.39-3.88-2.55-4.1801-5.1c-0.58-0.2201-1.72-0.67-2.2899-0.89
			c-0.3101-1.3101-0.5901-2.61-0.8601-3.89c-1.0499-0.35-2.08-0.7001-3.1-1.02c-0.5699-2.41-1.12-4.8199-1.6599-7.21
			c-1.02-0.38-2.03-0.74-3.02-1.0901c-0.37-1-0.7101-1.99-1.05-2.97c-2.11-0.53-4.2-1.0699-6.26-1.64
			c-0.25-1.15-0.47-2.2899-0.6699-3.4099c-1.3201-0.3201-2.6101-0.6101-3.89-0.91c-0.73-1.29-0.8201-3.23-2.39-3.76
			c-4.59-1.23-9.36-1.6901-14.0801-1.84c-0.22-1.27-0.4199-2.53-0.6-3.77C1311.21,1122.4399,1309.53,1124.1801,1307.88,1125.72
			 M899.67,1189.9301c4.55,3.49,9.61,6.2799,14.25,9.6799c0.35,1.28,0.87,2.6,1.85,3.58c10.09,11.25,19.44,23.39,31.65,32.4801
			c8.38,6.45,18.31,10.49,28.32,13.6599c19.44,5.63,40.26,8.9301,60.27,4.38c18.35-3.76,35.12-13.1899,49.3199-25.2
			c8.88-1.87,18-3.8,25.9301-8.41c-10.5601,2.04-20.9301,5.0701-31.61,6.5701c-7.7001-1.5-15.8-0.3201-23.29-3
			c-34.27-12.5-70.81-20.0701-107.4-18.29c-8.33,0.27-16.47-1.9-24.04-5.2c-4.15-1.3201-8-4.02-12.49-3.87
			C908.17,1194.2,904.13,1191.59,899.67,1189.9301z"/>
		<path fill="#FFDEC2" stroke="#FFDEC2" stroke-width="0.0938" d="M29.5,1076.5601c3.22-6.8101,9.8-12.42,17.59-12.67
			c10.63-0.42,20.27,5.36,28.31,11.75c12.45,10.1899,22.16,23.58,28.41,38.38c4.61,10.87,8.17,22.16,13.1,32.9
			c8.24,18.5599,20.34,35.1899,34.23,49.9099c7.99,8.7101,16.84,16.6801,26.84,23.01c19.41,12.53,41.02,21.2001,62.91,28.3301
			c44.2,14.0699,90.11,21.9299,136.07,27.61c22.6,3.0699,45.44,3.78,67.99,7.24c25.5,3.4,50.12,11.0499,75.12,16.86
			c-6.71,16.8099-9.76,34.8099-11.57,52.74c-3.34,35.86-0.8,72.15,6.16,107.45l0.14,0.7001c-42.31-6.36-84.12-16.15-124.73-29.63
			c-42.56-13.92-83.81-31.4401-125.08-48.73c-39.43-16.5901-78.95-32.99-119.01-48.02c-7.63-2.6801-15.05-6.0601-22.94-7.96
			c-31.6-7.91-63.59-14.92-94-26.8c-7.45-2.73-14.46-6.85-19.87-12.71C4.16,1281.58-0.18,1274.7,0.28,1267.1
			c0.38-6.08,4.79-11.01,9.81-13.99c9.17-5.54,19.97-7.01,30.34-8.78c5.3-1.1599,11.41-2.45,14.72-7.1899
			c2.91-5.23,1.68-11.5601,0.39-17.09c-3.36-12.7201-9.55-24.4301-15.68-35.99c-12.05-21.2201-15.7-46.03-16.33-70.0901
			C23.38,1101.34,23.9,1088.13,29.5,1076.5601z"/>
		<path fill="#FFDEC2" stroke="#FFDEC2" stroke-width="0.0938" d="M799.14,1321.3c6.48,2.86,12.39,6.84,18.96,9.5299
			c53.62,24.7201,112.7401,33.3201,170.86,40.14c9.65,1.39,19.57,1.3401,28.99,4.0901c8.17,2.4099,13.73,9.4199,21.3,12.95
			c-7.04,17.5-19.19,32.76-34.25,44.04c-13.58,10.5599-29.71,17.34-46.3,21.5199c-23.8,5.4301-48.91,5.13-72.59-0.7899
			c-31.86-7.8301-61.95-25.8101-81.11-52.8101c-12.06-16.7899-19.59-36.6699-22.04-57.1799
			C789.41,1336.51,794.99,1329.3,799.14,1321.3z"/>
		<path fill="#FFDEC2" stroke="#FFDEC2" stroke-width="0.0938" d="M1302.6801,1488.85c24.4399,7.52,48.86,15.0601,73.2899,22.59
			c15.01,4.8201,30.3201,8.75,45,14.54c16.97,6.54,33.48,14.24,49.6801,22.51c34.6699,16.38,70.08,31.3,106.49,43.37
			c30.4399,9.92,61.71,18.2001,93.76,20.47c16.7999,1.15,33.89,0.13,50.09-4.73c18.58-4.99,36.7-12.1899,52.84-22.75
			c11.02-7.08,20.8301-15.8099,31.38-23.53c11.75-8.6599,25.39-14.7699,39.73-17.5599c8.54-1.59,17.52-2.15,25.9901,0.1799
			c5.9299,1.6101,11.6399,5.3,14.2999,11.02c3.12,6.5701,2.28,14.2201,0.38,21.02c-3.46,11.87-10.02,22.52-16.88,32.6901
			c-9.8099,14.24-21.22,27.6599-35.3099,37.84c-15.2201,10.21-32.4501,18.24-44.5601,32.41c-2.96,3.72-5.89,8.6-4.16,13.5
			c1.8501,4.9299,5.91,8.5599,9.75,11.99c6.92,5.7899,13.88,11.84,18.6101,19.64c2.73,4.5599,4.61,10.0699,3.33,15.4199
			c-1.33,5.42-5.7001,9.51-10.47,12.0701c-9.11,4.83-19.9,6.02-29.9701,4.14c-33.7899-5.52-66.1799-16.9501-98.9099-26.6001
			c-64.62-12.9099-130.04-21.21-195.15-31.1799c-41.03-6.37-81.9301-14.1801-121.8101-25.87
			c-45.0199-13.0601-88.59-30.8-130.63-51.48c22.3-24.92,41.65-52.6001,56.5601-82.5601
			C1293.45,1522.34,1299.92,1506.04,1302.6801,1488.85z"/>
	</g>
	<g id="_x23_f0c8a1ff">
		<path fill="#F0C8A1" stroke="#F0C8A1" stroke-width="0.0938" d="M423.98,921.97c9.24-4.17,19.86-3.85,29.55-1.53
			c-5.26,1.9-11.04,1.69-16.19,3.93c-7.17,2.83-13.47,7.95-17.33,14.65c-6.1,10.46-7.19,23.16-5.18,34.93
			c2.63,14.86,9.83,28.97,20.78,39.42c9.66,9.72,22.77,15.72,36.33,17.38c4.13,0.41,8.29,0.24,12.43,0.64
			c-1.36,0.36-2.69,0.79-4.03,1.1799c-16.61,1.29-34.09-2.24-47.8-12.0699c-16.12-11.44-26.56-30.01-29.3-49.46
			c-1.46-10.71-0.68-21.99,3.89-31.89C410.51,931.7,416.44,925.29,423.98,921.97z"/>
		<path fill="#F0C8A1" stroke="#F0C8A1" stroke-width="0.0938" d="M800.35,1319.51c73.13,21.83,149.27,33.42,225.5601,34.84
			c0.08,7.5801,1.88,15.24,5.87,21.74c2.52,4.53,6.14,8.28,9.59,12.1c-0.53-0.0399-1.59-0.1299-2.12-0.1799
			c-7.5699-3.53-13.13-10.54-21.3-12.95c-9.42-2.75-19.34-2.7001-28.99-4.0901c-58.12-6.8199-117.2401-15.4199-170.86-40.14
			c-6.5699-2.6899-12.48-6.6699-18.96-9.5299l-0.29-0.4401C799.23,1320.52,799.97,1319.85,800.35,1319.51z"/>
	</g>
	<g id="_x23_fcdfc5ff">
		<path fill="#FCDFC5" stroke="#FCDFC5" stroke-width="0.0938" d="M437.34,924.37c5.15-2.24,10.93-2.03,16.19-3.93
			c10.1,2.22,19.87,5.97,28.77,11.26c3.05,2,6.69,2.49,10.12,3.52c1.5,0.92,3.33,1.92,3.5,3.91c0.64,4.12-1.74,7.88-3.26,11.54
			c-3.49,6.83-7.12,13.75-8.51,21.37c-1.19,5.2401-0.46,10.61,0.06,15.88c1.14,9.41,2.94,18.72,4.9,27.99
			c0.99,5.22,2.04,11.09-1,15.86c-1.25-0.17-2.49-0.3101-3.74-0.38c-4.14-0.4-8.3-0.23-12.43-0.64
			c-13.56-1.66-26.67-7.66-36.33-17.38c-10.95-10.45-18.15-24.56-20.78-39.42c-2.01-11.77-0.92-24.47,5.18-34.93
			C423.87,932.32,430.17,927.2,437.34,924.37z"/>
	</g>
	<g id="_x23_000000ff">
		<path stroke="#000000" stroke-width="0.0938" d="M745.92,968.81c10-4.84,20.79-8.76,32.03-8.81c14.88-0.14,29.14,6.87,39.79,16.96
			c-0.23-0.1-0.69-0.3-0.92-0.4c-7.34-4.75-15.01-9.31-23.68-11.1c-20.35-4.93-43.01,2.09-57,17.67c-9.1,10-14.83,23.24-15.02,36.83
			c-0.27,15.2599,4.95,30.58,14.52,42.47c6.04,7.47,14.08,13.5499,23.39,16.23c-13.95-2.85-25.2-13.1901-32.84-24.77
			c-4.58-7.02-8.06-14.83-9.61-23.09c-1.3-6.5701-2.31-13.4901-6.32-19.05c-4.89-7.01-8.78-15.37-7.44-24.13
			c4.24,4.52,9.45,8.58,15.85,9.18c-2.52-4.38-5.9-8.54-6.56-13.71c-0.57-3.44,0.47-6.82,1.48-10.06
			c2.25,2.9,5.37,5.7599,9.3799,5.1C731.28,977.01,738.38,972.11,745.92,968.81z"/>
		<path stroke="#000000" stroke-width="0.0938" d="M771.83,973.31c10.82-3.55,22.98-3.48,33.38,1.41
			c13.15,5.89,22.61,18.92,24.5,33.16c2.36,15.96-4.5,32.76-17.12,42.75c-11.08,9.0599-26.57,12.62-40.4,8.63
			c-11.97-3.2-22.19-12.04-27.29-23.3c-7.71-16.35-3.98-36.98,8.38-50.02c-0.03,6.92,5.6299,13.51,12.75,13.51
			c8,0.42,14.7599-7.57,13.5-15.37C779.1,979.34,775.67,975.72,771.83,973.31 M810.35,1001.52c-4.6,8.62-7.86,18.64-15.94,24.84
			c-7.43,5.87-17.58,5.6901-26.45,4.17c-1.85-0.1-4.96-1.35-5.43,1.34c0.02,2.29,1.3,4.34,2.62,6.14
			c6.4,8.25,17.55,12.63,27.84,10.49c6.7-1.4399,13.15-4.61,17.98-9.53c8.7401-8.9299,10.3-23.61,4.57-34.53
			C814.54,1002.76,812.54,999.94,810.35,1001.52 M758.1,1004.17c-5.45,2.17-5.68,10.51-0.74,13.39c4.03,2.92,10.36,0.31,11.11-4.63
			C769.92,1007.26,763.5,1001.57,758.1,1004.17z"/>
		<path stroke="#000000" stroke-width="0.0938" d="M1245.98,1013.91c14.01-10.29,33.16-14.46,49.87-8.74
			c12.23,3.91,22.4301,11.97,32.75,19.31c4.0801,2.71,8.34,5.8301,13.41,6.16c3.1,0.22,5.49-1.97,7.76-3.75
			c0.65,4.25,0.85,8.84-1.3101,12.73c-1.8999,3.78-5.1799,6.5699-7.62,9.96c6.4,0.14,12.35-2.7,17.17-6.74
			c-0.23,8.91-5.36,16.62-11.4301,22.75c-7.09,7.04-8.24,17.48-13.13,25.8301c-6.7799,11.7899-16.88,21.88-29.21,27.7699
			c-5.16,2.3501-10.71,4.16-16.42,4.27c15.79-2.2,29.13-13.1499,37.3401-26.4199c8.97-14.29,12.6899-32.36,7.65-48.7101
			c-4.4601-15.3999-15.53-28.71-29.8701-35.8699c-11.9099-6.1-25.9299-7.96-39-5.12C1257.65,1008.6,1251.79,1011.3,1245.98,1013.91z
			"/>
		<path stroke="#000000" stroke-width="0.0938" d="M1258.03,1014.59c12.0599-4.07,25.88-3.32,36.9399,3.23
			c14.91,8.43,23.4,26.36,21.01,43.2499c-2.0499,18.2201-15.83,34.4-33.49,39.3101c-16.5,5.02-35.77-0.83-46.23-14.65
			c-11.1-13.88-12.03-34.36-3.27-49.65c1.77-3.2699,4.09-6.2,6.4401-9.0699c0.0099,6.51,4.7999,12.91,11.48,13.59
			c7.8199,1.24,15.24-5.88,14.9099-13.65C1265.95,1021.65,1262.39,1017.18,1258.03,1014.59 M1296.73,1042.61
			c-2.65,3.66-3.72,8.22-6.0599,12.09c-4.04,7.91-10.4401,15.6001-19.62,17.3c-7.38,1.88-14.8201-0.58-22.2101-0.37
			c-0.01,1.83-0.0399,3.8099,1.04,5.42c3.21,5.49,8.6801,9.4399,14.59,11.63c12,4.3199,26.02-0.67,34.15-10.1001
			c7.4-8.9399,8.4401-22.35,3.26-32.6C1300.86,1044.25,1299.05,1041.42,1296.73,1042.61 M1244.3101,1045.41
			c-5.39,2.13-5.7401,10.3099-0.9501,13.2999c4.03,3.12,10.59,0.4601,11.3101-4.59
			C1256.03,1048.5,1249.6801,1042.85,1244.3101,1045.41z"/>
	</g>
	<g id="_x23_ffffffff">
		<path fill="#FFFFFF" stroke="#FFFFFF" stroke-width="0.0938" d="M736.14,983.13c13.99-15.58,36.65-22.6,57-17.67
			c8.67,1.79,16.34,6.35,23.68,11.1c15.85,13.14,22.85,35.38,19.14,55.43c-3.57,20-17.93,37.86-36.9901,45.09
			c-12.59,5.0801-27.0099,5.77-39.9399,1.5801c-9.3101-2.6801-17.35-8.76-23.39-16.23c-9.57-11.89-14.79-27.2101-14.52-42.47
			C721.31,1006.37,727.04,993.13,736.14,983.13 M771.83,973.31c3.84,2.41,7.27,6.03,7.7,10.77c1.2599,7.8-5.5,15.79-13.5,15.37
			c-7.1201,0-12.78-6.59-12.75-13.51c-12.36,13.04-16.09,33.67-8.38,50.02c5.1,11.26,15.3199,20.1001,27.29,23.3
			c13.83,3.99,29.32,0.4299,40.4-8.63c12.62-9.99,19.48-26.79,17.12-42.75c-1.89-14.24-11.35-27.27-24.5-33.16
			C794.81,969.83,782.65,969.76,771.83,973.31z"/>
		<path fill="#FFFFFF" stroke="#FFFFFF" stroke-width="0.0938" d="M758.1,1004.17c5.4-2.6,11.82,3.09,10.37,8.76
			c-0.75,4.94-7.08,7.55-11.11,4.63C752.42,1014.68,752.65,1006.34,758.1,1004.17z"/>
		<path fill="#FFFFFF" stroke="#FFFFFF" stroke-width="0.0938" d="M1263.9399,1007.34c13.0701-2.84,27.0901-0.98,39,5.12
			c14.3401,7.16,25.41,20.47,29.8701,35.8699c5.0399,16.3501,1.3199,34.42-7.65,48.7101c-8.2101,13.27-21.55,24.22-37.3401,26.4199
			c-17.0399,2.38-35.0199-2.8199-47.9099-14.25c-16.04-13.9199-24.1-36.76-19.38-57.59c3.09-15.23,12.2999-29.32,25.45-37.71
			C1251.79,1011.3,1257.65,1008.6,1263.9399,1007.34 M1258.03,1014.59c4.36,2.59,7.9199,7.06,7.7899,12.3599
			c0.3301,7.77-7.09,14.89-14.9099,13.65c-6.6801-0.6799-11.4701-7.08-11.48-13.59c-2.3501,2.87-4.67,5.8-6.4401,9.0699
			c-8.76,15.29-7.83,35.77,3.27,49.65c10.46,13.8201,29.73,19.67,46.23,14.65c17.66-4.91,31.4401-21.09,33.49-39.3101
			c2.39-16.8899-6.1-34.8199-21.01-43.2499C1283.91,1011.27,1270.09,1010.52,1258.03,1014.59z"/>
		<path fill="#FFFFFF" stroke="#FFFFFF" stroke-width="0.0938" d="M1244.3101,1045.41c5.37-2.5601,11.72,3.09,10.36,8.71
			c-0.7201,5.05-7.28,7.71-11.3101,4.59C1238.5699,1055.72,1238.92,1047.54,1244.3101,1045.41z"/>
		<path fill="#FFFFFF" stroke="#FFFFFF" stroke-width="0.0938" d="M582.35,1851.14c-2.21-9.04-1.39-19.55,4.01-27.34
			c15.94,11.5,34.62,18.33,52.96,24.96c39.12,13.25,79.75,21.8099,120.7,26.9c57.4,7.11,115.81,7.1699,173.01-1.79
			c42.61-6.7,84.52-18.6,123.6799-36.79c4.48-2.0299,8.8501-4.3099,13.3-6.3999c6.58,8.2799,8.25,19.5199,6.5,29.74l-1.11,1
			c-3.98,3.8199-8.24,7.34-12.62,10.6899c-27.16,20.47-59.41,33.14-92.19,41.4401c-45.89,11.2799-93.46,14.5599-140.58,12.76
			c-48.58-2.2301-97.05-9.67-143.68-23.64c-20.55-6.12-40.69-13.67-60.03-22.9501c-14.98-7.4-29.89-15.36-43.03-25.77
			C582.95,1852.99,582.64,1852.05,582.35,1851.14z"/>
		<path fill="#FFFFFF" stroke="#FFFFFF" stroke-width="0.0938" d="M1068.89,1944.77c3.75-2.23,5.04-6.4,4.4-10.5601
			c1.1499,1.55,2.08,3.51,3.89,4.4701c1.74,0.5499,3.61,0.6599,5.4399,0.9299c-2.5699,2.88-4.05,6.4401-3.89,10.35
			C1076.76,1946.29,1072.91,1944.71,1068.89,1944.77z"/>
		<path fill="#FFFFFF" stroke="#FFFFFF" stroke-width="0.0938" d="M1066.3101,1970.3199c2.8799-0.4199,5.6499,2.4901,4.21,5.3301
			c-1.16,3.09-6.22,2.5599-6.8201-0.62C1063.01,1973.04,1064.62,1971.12,1066.3101,1970.3199z"/>
		<path fill="#FFFFFF" stroke="#FFFFFF" stroke-width="0.0938" d="M1081.97,1981.9c2.1801,3.08,3.75,7.22,7.62,8.5399
			c3.25,0.8401,6.66,0.5601,9.99,0.7401c-0.8999,0.6499-1.76,1.37-2.58,2.1399c-4.76,3.8201-5.74,10.12-5.22,15.88
			c-2.11-2.8199-4.05-6.1-7.39-7.5599c-3.61-1.4401-7.59-0.9301-11.37-0.84c3.37-2.0601,7.48-3.9401,8.9199-7.91
			C1083.0601,1989.3101,1082.14,1985.53,1081.97,1981.9z"/>
		<path fill="#FFFFFF" stroke="#FFFFFF" stroke-width="0.0938" d="M1119.3101,2004.46c2.0499-1.47,5.21,0.1901,5.3099,2.67
			c0.3199,2.35-2.33,4.54-4.5599,3.61C1117.28,2010.03,1116.8101,2005.8199,1119.3101,2004.46z"/>
		<path fill="#FFFFFF" stroke="#FFFFFF" stroke-width="0.0938" d="M1165.36,2025.45c2-1.61,5.27-0.0399,5.47,2.4701
			c0.4501,2.6599-2.7999,4.84-5.11,3.49C1163.42,2030.3,1163.22,2026.78,1165.36,2025.45z"/>
		<path fill="#FFFFFF" stroke="#FFFFFF" stroke-width="0.0938" d="M1062.01,2038.63c2.8,4.6899,5.3199,10.61,11.35,11.7301
			c4.22,0.73,8.39-0.5601,12.52-1.26c-4.04,2.77-8.14,5.9199-10.11,10.5798c-2.25,4.46-1.65,9.5801-0.9401,14.3501
			c-2.13-3.4199-3.9399-7.3201-7.4399-9.54c-4.26-2.9399-9.6901-2.3999-14.58-2.97c3.9199-2.05,8.3199-4.5701,9.6799-9.0901
			C1063.75,2047.88,1062.35,2043.1899,1062.01,2038.63z"/>
		<path fill="#FFFFFF" stroke="#FFFFFF" stroke-width="0.0938" d="M1020.25,2045.3199c3.91-1.2799,8.24,2.6001,6.95,6.65
			c-0.59,4.72-7.73,5.8501-9.95,1.77C1014.99,2050.8401,1016.8,2046.23,1020.25,2045.3199z"/>
		<path fill="#FFFFFF" stroke="#FFFFFF" stroke-width="0.0938" d="M1164.1801,2052.9399c1.7699,3.3201,3.0399,7.4399,6.63,9.28
			c3.6,1.6599,7.6299,0.3601,11.1599-0.8401c-3.0699,2.4102-6.63,4.75-7.97,8.6201c-1.28,3.21-0.52,6.6899-0.26,10.04
			c-1.34-3.01-2.9-6.23-5.92-7.8501c-3.61-1.96-7.88-1.26-11.71-0.51c3.27-1.6499,7.13-3.1899,8.75-6.75
			C1166.48,2061.02,1164.73,2056.8799,1164.1801,2052.9399z"/>
		<path fill="#FFFFFF" stroke="#FFFFFF" stroke-width="0.0938" d="M1093.3101,2062.3701c2.0499-1.29,5.87-0.3701,5.7799,2.5198
			c0.3301,3.27-3.76,5.28-6.3099,3.4102C1091.35,2066.6599,1091.36,2063.5701,1093.3101,2062.3701z"/>
		<path fill="#FFFFFF" stroke="#FFFFFF" stroke-width="0.0938" d="M1007.2,2082.6799c1.49,2.1501,2.73,4.55,4.72,6.3301
			c2.22,1.6699,5.16,1.21,7.77,1.1001c0.61-0.04,1.85-0.1301,2.46-0.1702c-1.91,2.1201-4.14,4.05-5.5,6.6101
			c-1.19,2.9399-0.87,6.21-0.9301,9.3398c-1.96-2.7698-4.06-5.6399-7.25-7.0298c-3.09-0.3-6.18-0.3-9.25-0.2202
			c2.6201-1.3799,5.65-2.5598,7.25-5.22C1008.57,2090.2,1007.36,2086.22,1007.2,2082.6799z"/>
		<path fill="#FFFFFF" stroke="#FFFFFF" stroke-width="0.0938" d="M1101.14,2095.02c1.75,2.0901,3.21,4.74,5.84,5.8799
			c2.6,0.4402,5.27,0.1902,7.92,0.1101c-2.26,1.98-4.62,4.1001-5.66,7.01c-0.73,2.52-0.5,5.1899-0.52,7.8101
			c-1.9099-2.54-3.86-5.3901-6.99-6.46c-2.51-0.6101-5.11-0.53-7.65-0.6101c2.3-1.48,5.2001-2.6599,6.28-5.3801
			C1101.35,2100.7,1101.04,2097.78,1101.14,2095.02z"/>
		<path fill="#FFFFFF" stroke="#FFFFFF" stroke-width="0.0938" d="M1213.28,2098.2c1.84-1.52,4.95-0.52,5.63,1.76
			c1.25,2.8401-2.2001,6.01-4.9401,4.6001C1211.4,2103.5901,1210.99,2099.6799,1213.28,2098.2z"/>
		<path fill="#FFFFFF" stroke="#FFFFFF" stroke-width="0.0938" d="M1173.16,2106.02c0.2999-2.3201-0.41-4.5601-0.8401-6.78
			c1.2301,2.27,2.15,5.1699,4.76,6.27c1.9601,0.6299,4.01-0.0601,5.99-0.3201c-3.88,2.53-5.8899,7.1401-4.3899,11.6802
			c-1.0701-2.01-2.0801-4.3301-4.25-5.3301c-2.3201-1.1101-4.92-0.6501-7.27,0.01
			C1169.47,2110.1599,1172.5601,2108.96,1173.16,2106.02z"/>
		<path fill="#FFFFFF" stroke="#FFFFFF" stroke-width="0.0938" d="M1061.2,2143.02c1.29,1.9199,2.16,4.6799,4.7301,5.26
			c1.9399,0.52,3.97,0.0901,5.95-0.03c-3.0699,2.73-5.24,6.3101-5.13,10.5601c-1.92-3.5601-5.84-4.5701-9.55-4.99
			c1.5801-1.3801,3.75-2.53,4.13-4.78C1061.66,2147.04,1061.3101,2144.99,1061.2,2143.02z"/>
		<path fill="#FFFFFF" stroke="#FFFFFF" stroke-width="0.0938" d="M1123.28,2145.3101c3.01-1.4001,6.36,3.29,3.59,5.55
			c-2.23,2.9299-7.17-0.53-5.64-3.6201C1121.71,2146.3601,1122.39,2145.72,1123.28,2145.3101z"/>
		<path fill="#FFFFFF" stroke="#FFFFFF" stroke-width="0.0938" d="M1142.16,2145.8101c2.0599,2.6399,4.1799,5.8799,7.89,6.1099
			c2.0299-0.24,4.0499-0.5498,6.09-0.8198c-1.48,1.49-2.96,2.98-4.35,4.5698c-2.52,3.2002-2.39,7.4402-2.0601,11.29
			c-1.35-2.1799-2.54-4.6299-4.74-6.05c-2.7-1.5498-5.91-1.6499-8.9-2.03c1.92-1.6099,4.2101-2.99,5.4301-5.24
			C1142.23,2151.0801,1142.0601,2148.3999,1142.16,2145.8101z"/>
		<path fill="#FFFFFF" stroke="#FFFFFF" stroke-width="0.0938" d="M1016.25,2151.4299c4.08-0.3999,6.23,4.75,4.05,7.8401
			c-2.13,3.22-8.34,1.8501-8.32-2.23C1011.36,2154.28,1013.65,2151.8101,1016.25,2151.4299z"/>
		<path fill="#FFFFFF" stroke="#FFFFFF" stroke-width="0.0938" d="M1105.29,2220.28c22.14-9.3701,44.2999-19.03,64.86-31.5801
			l0.25,0.45c36.78,65.79,74.27,131.1802,111.85,196.52c38.4,66.0901,78.28,131.3101,119.42,195.73
			c7.89,12.05,15.39,24.3701,23.87,36.02c6.1599,8.46,13.24,16.1802,19.8199,24.3101c-18.77,8.27-38.79,13.3999-58.98,16.77
			c-39.08,6.3799-79.23,6.53-118.33,0.21c-2.7001-0.6299-6.01-0.54-7.76-3.02c-5.73-7.46-11.3-15.0898-16.15-23.1499
			c-2.4501-7.6201-6.92-14.3401-10.24-21.5601c-10.3-20.74-20.65-41.49-32.48-61.4099c-8.37-13.74-17.7301-26.8401-27.17-39.8501
			c-60.75-83.49-126.16-163.4399-192.53-242.49c-2.5699-2.98-4.97-6.1099-7.73-8.8999
			C1018.84,2249.9099,1062.91,2237.22,1105.29,2220.28z"/>
		<path fill="#FFFFFF" stroke="#FFFFFF" stroke-width="0.0938" d="M598.01,2256.8201c69.32,11.55,139.59,18.0598,209.89,17.27
			c-11.55,64.3499-21.9301,128.95-29.79,193.8699c-8.55,69.3201-9.41,139.52-3.34,209.0901c0.47,3.51-0.18,7.3899,1.84,10.55
			c0.05,1.02,0.02,2.0898-0.07,3.1899c-1.09,10.8699-0.22,21.8599-1.12,32.78c-1.16,14.8599-2.77,29.72-5.72,44.3398
			c-0.18,2.24-2.61,2.8201-4.3,3.6301c-48.42,19.3-99.83,32.6299-152.15,33.74c0.35-22.4299-0.05-44.8601-0.42-67.27
			c-0.37-9.3401,0.16-18.6799-0.55-27.99c-0.7401-12.6799-0.23-25.3901-1.1801-38.05c-1.86-55.6899-4.59-111.3499-8.21-166.95
			c-2.27-31.3101-4.08-62.6499-4.83-94.04c-0.06-10.6799-0.97-21.3301-0.71-32C597.21,2338.26,597.09,2297.53,598.01,2256.8201z"/>
		<path fill="#FFFFFF" stroke="#FFFFFF" stroke-width="0.0938" d="M1349.0601,2689.3799c38.99,0.2302,79.71-7.74,111.62-31.2998
			c5.4399,6.71,11.1,13.29,17.3199,19.2998c4.04,4.9702,7.28,10.5701,11.54,15.3901c1.7799,2.1299,2.12,5.23,4.36,7.0701
			c0.2,0.3398,0.6,1.03,0.7999,1.3799c4.5601,8.05,8.2301,17.2,6.8501,26.6401c-1.5,11.4399-10.24,20.5198-20.2101,25.5398
			c-16.1,8.1401-34.71,9.24-52.4,7.8901c-39.49-4.0801-76.5499-21.5701-108.0299-45.21c-12.49-9.6401-24.8201-19.75-35.2201-31.6501
			C1306.6801,2687.4399,1327.83,2689.71,1349.0601,2689.3799z"/>
		<path fill="#FFFFFF" stroke="#FFFFFF" stroke-width="0.0938" d="M736.93,2813.8501c7.64-2.3601,14.9-5.7102,22.5-8.1802
			c-1.74,7.01-4.57,13.6802-7.37,20.3301c-12.63,29.73-30.82,57.46-55,79.0801c-11.35,9.8398-23.96,18.52-38.05,23.95
			c-10.14,3.6899-21.21,6.21-31.95,3.8c-8.94-1.77-16.94-7.8101-20.83-16.0701c-4.25-8.26-4.78-17.77-4.19-26.8501
			c6-19.47,8.98-39.74,10.75-59.99c17.71,0.78,35.5,0.9202,53.16-0.9199C690.07,2826.6001,713.94,2821.55,736.93,2813.8501z"/>
	</g>
	<g id="_x23_a88063ff">
		<path fill="#A88063" stroke="#A88063" stroke-width="0.0938" d="M810.35,1001.52c2.19-1.58,4.19,1.24,5.19,2.92
			c5.73,10.92,4.17,25.6-4.57,34.53c-4.83,4.92-11.28,8.0901-17.98,9.53c-10.29,2.14-21.44-2.24-27.84-10.49
			c-1.32-1.8-2.6-3.85-2.62-6.14c0.47-2.6899,3.58-1.4399,5.43-1.34c8.87,1.52,19.02,1.7,26.45-4.17
			C802.49,1020.16,805.75,1010.14,810.35,1001.52z"/>
		<path fill="#A88063" stroke="#A88063" stroke-width="0.0938" d="M1296.73,1042.61c2.3201-1.1899,4.13,1.64,5.15,3.37
			c5.1801,10.25,4.14,23.66-3.26,32.6c-8.13,9.4301-22.15,14.42-34.15,10.1001c-5.9099-2.1901-11.38-6.14-14.59-11.63
			c-1.08-1.6101-1.05-3.5901-1.04-5.42c7.39-0.21,14.8301,2.25,22.2101,0.37c9.1799-1.7,15.58-9.39,19.62-17.3
			C1293.01,1050.83,1294.08,1046.27,1296.73,1042.61z"/>
	</g>
	<g id="_x23_ffd7bcff">
		<path fill="#FFD7BC" stroke="#FFD7BC" stroke-width="0.0938" d="M732.29,1100.04c1.12-0.01,2.23,0.1,3.34,0.3199
			c0.28,1.15,0.54,2.3201,0.76,3.51c5.19,2.14,10.92,0.63,16.35,1.27c0.16,1.49,0.32,3,0.5,4.52c1.45,0.1799,2.91,0.39,4.39,0.6
			c0.24,1.13,0.5,2.27,0.77,3.4299c2.37,0.52,4.75,1.04,7.13,1.5801c-0.15,1.1-0.29,2.21-0.41,3.35c1.69,0.25,3.38,0.59,5.07,0.99
			c-0.23,0.5701-0.68,1.71-0.9,2.28c0.38,1.92,0.72,3.84,1.1,5.78c1.1,0.1899,2.22,0.3999,3.34,0.62c0.19,1.1,0.38,2.22,0.58,3.36
			c0.6,0.1799,1.78,0.5499,2.38,0.74c0.19,1.4,0.39,2.8199,0.61,4.25c1.16,0.2,2.34,0.41,3.52,0.63
			c-0.31,5.5599,1.89,11.01,0.69,16.54c1.15,0.1499,2.31,0.3099,3.47,0.48c-0.15,1.4199-0.28,2.86-0.39,4.3099
			c-1.16-0.03-2.3-0.0399-3.4301-0.0499c0.59,5.5699-1.71,10.72-2.52,16.13c-1.13,0.1899-2.26,0.3999-3.37,0.62
			c-0.17,1.3899-0.32,2.7899-0.46,4.22c-1.18-0.17-2.34-0.3301-3.5-0.4501c-0.38,2.91-0.9,5.8201-1.61,8.6901
			c-1.47,0.15-2.93,0.3199-4.38,0.51c-0.22,1.22-0.44,2.46-0.64,3.71c-2.12,0.03-4.24-0.11-6.31-0.49
			c-0.32,1.29-0.58,2.62-0.99,3.92c-1.35,0.4399-2.75,0.6899-4.12,1c-0.21,1.09-0.42,2.1899-0.62,3.3099
			c-1.69,0.29-3.39,0.5-5.06,0.8201c-0.3,1.1-0.59,2.21-0.87,3.34c-5.07-1.11-10.27-1.03-15.41-0.73c-0.2,1.22-0.39,2.45-0.58,3.7
			c-1.16,0.01-2.3199,0.03-3.47,0.0701c-0.18-1.26-0.35-2.51-0.5-3.74c-5.24-2.27-11.07-0.6101-16.56-1.3201
			c-0.15-1.5499-0.29-3.09-0.42-4.61c-1.5-0.1801-2.98-0.35-4.45-0.5c-0.21-1.16-0.41-2.3101-0.6-3.4399
			c-1.15-0.2101-2.3-0.41-3.4399-0.5901c-0.21-1.51-0.41-3.01-0.6-4.49c-2.52-0.12-5.04-0.24-7.55-0.35
			c0.18-0.98,0.38-1.9401,0.59-2.88c-0.39-1.87-0.71-3.75-1.08-5.6c-1.1-0.26-2.2-0.51-3.29-0.74c-0.24-1.1-0.46-2.17-0.68-3.24
			c-0.59-0.1901-1.75-0.5601-2.34-0.75c-0.43-2.8101-0.97-5.6001-1.64-8.3501c-0.63-0.1399-1.88-0.4399-2.51-0.59
			c-0.74-9.7999-0.98-19.98,2.01-29.46c0.61-0.16,1.82-0.5,2.43-0.66c0.69-2.6799,1.23-5.39,1.65-8.11c1.15,0.11,2.3,0.22,3.47,0.37
			c0.16-1.5599,0.34-3.1,0.52-4.63c1.07,0.16,2.14,0.34,3.23,0.53c0.86-2.9,2.08-5.67,2.96-8.5601c2.01-0.21,4.14,0.03,6.07-0.6899
			c0.71-1.02,1.26-2.13,1.88-3.1901c1.09-0.23,2.18-0.45,3.28-0.6499c0.22-1.15,0.44-2.28,0.68-3.4c1.66-0.28,3.33-0.55,5.02-0.8101
			c0.32-1.12,0.66-2.24,1.01-3.33c5.03,1.11,10.2,0.9399,15.32,0.7C731.89,1102.5601,732.09,1101.3,732.29,1100.04z"/>
		<path fill="#FFD7BC" stroke="#FFD7BC" stroke-width="0.0938" d="M1307.88,1125.72c1.65-1.5399,3.33-3.28,5.84-2.6899
			c0.1801,1.24,0.38,2.5,0.6,3.77c4.7201,0.1499,9.4901,0.61,14.0801,1.84c1.5699,0.53,1.66,2.47,2.39,3.76
			c1.2799,0.2999,2.5699,0.59,3.89,0.91c0.2,1.12,0.4199,2.2599,0.6699,3.4099c2.0601,0.5701,4.15,1.11,6.26,1.64
			c0.34,0.98,0.6801,1.97,1.05,2.97c0.99,0.3501,2,0.7101,3.02,1.0901c0.5399,2.39,1.09,4.7999,1.6599,7.21
			c1.02,0.3199,2.05,0.67,3.1,1.02c0.27,1.28,0.55,2.58,0.8601,3.89c0.5699,0.22,1.71,0.6699,2.2899,0.89
			c0.3,2.5499,1.38,4.71,4.1801,5.1c0,5.4199,1.7999,10.78,0.23,16.15c0.71,0.1599,2.13,0.46,2.84,0.62
			c0,1.11,0.02,2.24,0.0601,3.38c-0.67,0.1599-2.03,0.48-2.7001,0.63c-0.1399,2.62,0.14,5.3899-1.0599,7.83
			c-1.39,2.6-1.15,5.61-1.35,8.47c-1.04,0.3201-2.05,0.65-3.05,1c-0.71,1.3101-1.41,2.63-2.09,3.96
			c-0.55,0.2001-1.67,0.6101-2.22,0.8101c-0.55,2.0599-1.1101,4.13-1.7101,6.2c-1.37,0.3101-2.75,0.54-4.02,1.0901
			c-0.48,1.1899-0.74,2.47-1.0199,3.74c-2.4501-0.3401-4.87,0.15-7.1801,0.9199c-0.48,2.17-1.92,3.5901-4.04,4.17
			c-0.22,0.5601-0.6699,1.6801-0.8999,2.24c-1.4801,0.15-2.9401,0.3201-4.38,0.5c-0.13,1.4301-0.2401,2.88-0.3301,4.35
			c-5.21-1.51-10.41,0.48-15.64,0.6901c-1.71,1.5399-3.4399,3.3199-5.98,2.64c-0.1899-1.24-0.37-2.4601-0.54-3.67
			c-5.12-0.35-10.37-0.63-15.21-2.4399c-0.4399-2.77-2.51-4.1801-5.2-4.2301c-0.23-1.0699-0.4401-2.13-0.63-3.1699
			c-1.02-0.37-2.03-0.74-3.02-1.0801c-0.37-1.0299-0.72-2.0499-1.05-3.0499c-2.08-0.5901-4.1699-1.13-6.26-1.6
			c-0.5599-2.39-1.1-4.76-1.6799-7.12c-3.3201-0.4401-3.98-3.41-3.97-6.25c-0.5801-0.1901-1.74-0.5701-2.3201-0.76
			c-0.5699-2.38-1.15-4.75-1.72-7.1001c-0.58-0.2-1.74-0.6-2.3199-0.8099c-0.3601-1.88-0.66-3.75-0.9501-5.61
			c1.91-6.42-1.15-13.51,2.03-19.5801c0.72-1.6,0.6899-3.38,0.92-5.0699c0.5399-0.21,1.62-0.64,2.1599-0.85
			c1.01-2.03,2.01-4.0601,3.02-6.0801c0.53-0.22,1.6-0.6399,2.13-0.85c0.29-1.38,0.59-2.73,0.91-4.08
			c1.36-0.3101,2.73-0.61,4.13-0.89c0.52-2.37,1.0599-4.73,1.61-7.08c2.4199,0.1799,4.85-0.12,7.2-0.8
			c0.41-2.3101,1.89-3.75,4.15-4.26c0.1901-0.5699,0.5601-1.71,0.75-2.28c1.42-0.1799,2.86-0.34,4.3199-0.49
			c0.14-1.4399,0.29-2.86,0.4701-4.27C1297.39,1127.72,1302.63,1126.04,1307.88,1125.72z"/>
	</g>
	<g id="_x23_de3c6fff">
		<path fill="#DE3C6F" stroke="#DE3C6F" stroke-width="0.0938" d="M899.67,1189.9301c4.46,1.6599,8.5,4.2699,12.76,6.38
			c14.82,8.5599,30.44,15.7599,46.66,21.23c19.17,6.52,39.29,9.6899,59.36,11.87c8.17,0.97,16.44,0.9,24.58,2.1699
			c-23.92,0.8201-48.22,0.3501-71.4301-6.12c-20.48-5.4299-39.7599-14.6599-57.68-25.85
			C909.28,1196.21,904.22,1193.42,899.67,1189.9301z"/>
		<path fill="#DE3C6F" stroke="#DE3C6F" stroke-width="0.0938" d="M1079.65,1226.67c10.6799-1.5,21.0499-4.53,31.61-6.5701
			c-7.9301,4.61-17.05,6.54-25.9301,8.41c-11.7,1.67-23.58,3.12-35.3999,2.04C1059.9,1229.87,1069.85,1228.6899,1079.65,1226.67z"/>
	</g>
	<g id="_x23_fcb3c9ff">
		<path fill="#FCB3C9" stroke="#FCB3C9" stroke-width="0.0938" d="M912.43,1196.3101c4.49-0.15,8.34,2.5499,12.49,3.87
			c7.57,3.2999,15.71,5.47,24.04,5.2c36.59-1.78,73.13,5.79,107.4,18.29c7.49,2.6799,15.59,1.5,23.29,3
			c-9.8,2.0199-19.75,3.2-29.72,3.88c11.8199,1.08,23.7-0.37,35.3999-2.04c-14.2,12.01-30.97,21.4399-49.3199,25.2
			c-20.01,4.55-40.83,1.25-60.27-4.38c-10.01-3.1699-19.94-7.21-28.32-13.6599c-12.21-9.0901-21.56-21.2301-31.65-32.4801
			c-0.98-0.98-1.5-2.2999-1.85-3.58c17.92,11.1901,37.2,20.42,57.68,25.85c23.21,6.4701,47.51,6.9401,71.4301,6.12
			c-8.14-1.2699-16.41-1.2-24.58-2.1699c-20.07-2.1801-40.19-5.35-59.36-11.87C942.87,1212.0699,927.25,1204.87,912.43,1196.3101z"
			/>
	</g>
	<g id="_x23_5f432fb1">
		<path opacity="0.69" fill="#5F432F" stroke="#5F432F" stroke-width="0.0938" enable-background="new    " d="M1431.74,1227.6899
			c0.27-1.0699,0.9401-1.6899,2.03-1.86C1434.08,1227.48,1433.4,1228.1,1431.74,1227.6899z"/>
	</g>
	<g id="_x23_80636c80">
		<path opacity="0.5" fill="#80636C" stroke="#80636C" stroke-width="0.0938" enable-background="new    " d="M582.35,1851.14
			c0.29,0.91,0.6,1.85,0.92,2.8099c0.01,8.67-1.32,17.29-1.77,25.9501c-3.65,49.9299-6.29,100.0599-4.02,150.11
			c0.73,14.36,1.83,28.72,4.28,42.8999c0.92,5.6201,2.36,11.1602,3.03,16.8401c3.66,39.6299,3.18,79.49,2.93,119.25
			c-0.18,15.3-0.35,30.6101-0.6,45.9199c-49.64-8.71-98.74-20.2998-147.22-34.02c9.86-38.6899,17.79-77.8198,26.68-116.73
			c9.06-39.47,19.89-78.6899,35.47-116.1299c14.02-34,31.72-66.4301,52.06-97.04C563,1877.34,572.84,1864.35,582.35,1851.14z"/>
		<path opacity="0.5" fill="#80636C" stroke="#80636C" stroke-width="0.0938" enable-background="new    " d="M1062.78,1872.11
			c4.38-3.35,8.64-6.87,12.62-10.6899c1.6699,2.9399,4.64,4.7699,7,7.12c26.38,24.2799,53.0499,48.3999,76.98,75.1499
			c19.59,21.7001,35.24,46.4801,50.84,71.0901c20.3201,32.15,41.25,63.9099,62.77,95.28c-27.46,28.6299-59.0599,53.23-93.26,73.3
			c-26.87-48.29-53.46-96.77-77.99-146.3101c-1.5699-3.8301-0.91-8.02-1.1-12.02c-0.33-10.65-1.4301-21.3-3.64-31.7101
			c0.8199-0.7699,1.6801-1.49,2.58-2.1399c1.0601-0.7201,2.17-1.37,3.3-1.9801c-2.1,0.4501-4.1901,0.99-6.28,1.4401
			c-3.33-17.11-8.5-33.79-13.71-50.4c0.65-0.67,1.3199-1.3099,2.01-1.92c-0.6801,0.1001-2.05,0.28-2.73,0.37
			C1075.63,1916.52,1067.6801,1894.73,1062.78,1872.11 M1119.3101,2004.46c-2.5,1.36-2.03,5.5701,0.75,6.28
			c2.23,0.9301,4.8799-1.26,4.5599-3.61C1124.52,2004.65,1121.36,2002.99,1119.3101,2004.46 M1165.36,2025.45
			c-2.14,1.3301-1.9399,4.8501,0.36,5.9601c2.3101,1.35,5.5601-0.8301,5.11-3.49C1170.63,2025.41,1167.36,2023.84,1165.36,2025.45
			 M1164.1801,2052.9399c0.5499,3.9399,2.2999,8.0801,0.6799,11.99c-1.62,3.5601-5.48,5.1001-8.75,6.75
			c3.83-0.75,8.1-1.45,11.71,0.51c3.02,1.6201,4.5801,4.8401,5.92,7.8501c-0.26-3.3501-1.02-6.8301,0.26-10.04
			c1.34-3.8701,4.9-6.21,7.97-8.6201c-3.53,1.2002-7.5599,2.5-11.1599,0.8401
			C1167.22,2060.3799,1165.95,2056.26,1164.1801,2052.9399 M1213.28,2098.2c-2.29,1.48-1.88,5.3901,0.6899,6.3601
			c2.74,1.4099,6.1901-1.76,4.9401-4.6001C1218.23,2097.6799,1215.12,2096.6799,1213.28,2098.2 M1173.16,2106.02
			c-0.6,2.9399-3.6901,4.1399-6,5.53c2.35-0.6602,4.95-1.1201,7.27-0.01c2.1699,1,3.1799,3.3201,4.25,5.3301
			c-1.5-4.54,0.5099-9.1501,4.3899-11.6802c-1.98,0.26-4.0299,0.95-5.99,0.3201c-2.61-1.1001-3.5299-4-4.76-6.27
			C1172.75,2101.46,1173.46,2103.7,1173.16,2106.02z"/>
		<path opacity="0.5" fill="#80636C" stroke="#80636C" stroke-width="0.0938" enable-background="new    " d="M867.09,2194.6899
			c10.2-2.0698,19.71-6.53,28.85-11.3999c22.08,25.7,44.05,51.5,65.93,77.3699c-47.2,8.2102-95.05,12.49-142.94,13.3701
			c4.5-25.3701,9.27-50.6899,14.02-76.01C844.41,2198.0801,855.83,2196.71,867.09,2194.6899z"/>
	</g>
	<g id="_x23_e9dde9ff">
		<path fill="#E9DDE9" stroke="#E9DDE9" stroke-width="0.0938" d="M1101.74,2037.05c24.53,49.54,51.12,98.02,77.99,146.3101
			l0.14,0.24c-3.28,1.6399-6.4399,3.49-9.47,5.5498l-0.25-0.45c-6.13-11.01-12.03-22.1499-18.36-33.03
			c1.39-1.5898,2.87-3.0798,4.35-4.5698c-2.04,0.27-4.0601,0.5798-6.09,0.8198c-8.28-14.22-15.64-28.9399-23.67-43.2998
			c-11.64-22.4402-23.91-44.5701-34.59-67.5001C1095.15,2039.9,1099.25,2039.96,1101.74,2037.05z"/>
		<path fill="#E9DDE9" stroke="#E9DDE9" stroke-width="0.0938" d="M584.79,2089.75c3.76,0.8701,7.4901,1.8701,11.16,3.1101
			c1.24,9.3298,1.23,18.7698,2.01,28.1499c-0.25,13.6899,1.21,27.3101,0.93,41c-0.07,22,0.48,44.03-0.74,66.01
			c-0.02,9.5901-0.11,19.1899-0.14,28.8c-3.32-0.5901-6.65-1.1401-9.98-1.6602c-0.32,2.01-0.66,4.0701-0.91,6.1401
			c-0.06-2.1501-0.04-4.28,0-6.3801c0.25-15.3098,0.42-30.6199,0.6-45.9199C587.97,2169.24,588.45,2129.3799,584.79,2089.75z"/>
		<path fill="#E9DDE9" stroke="#E9DDE9" stroke-width="0.0938" d="M895.94,2183.29c3.25-1.76,6.49-3.54,9.65-5.46
			c22.74,26.75,45.84,53.2,68.15,80.2998c-3.88,0.9502-7.78,1.8401-11.66,2.78l-0.21-0.25
			C939.99,2234.79,918.02,2208.99,895.94,2183.29z"/>
		<path fill="#E9DDE9" stroke="#E9DDE9" stroke-width="0.0938" d="M822.03,2197.4399c3.62,0.3701,7.27,0.54,10.92,0.5801
			c-4.75,25.3201-9.52,50.6399-14.02,76.01c-3.68,0.02-7.36,0.05-11.03,0.0601C812.51,2248.52,817.08,2222.9399,822.03,2197.4399z"
			/>
	</g>
	<g id="_x23_ffe3ecff">
		<path fill="#FFE3EC" stroke="#FFE3EC" stroke-width="0.0938" d="M1073.36,2050.3601c5.71-3.8501,11.9401-6.9501,18.4301-9.2401
			c10.6799,22.9301,22.95,45.0599,34.59,67.5001c8.03,14.3599,15.39,29.0798,23.67,43.2998c-3.7101-0.23-5.8301-3.47-7.89-6.1099
			c-0.1,2.5898,0.0699,5.27-0.64,7.8298c-1.22,2.25-3.51,3.6301-5.4301,5.24c2.99,0.3801,6.2001,0.4802,8.9,2.03
			c2.2,1.4202,3.39,3.8701,4.74,6.05c-0.33-3.8499-0.46-8.0898,2.0601-11.29c6.33,10.8801,12.23,22.02,18.36,33.03
			c-20.5601,12.55-42.72,22.21-64.86,31.5801c-42.38,16.9399-86.45,29.6299-131.3,38.05l-0.25-0.2002
			c-22.31-27.0999-45.41-53.5498-68.15-80.2998c11.59-7.4102,23.0099-15.1101,34-23.3901c23.46-17.8899,46.37-36.52,68.8799-55.5798
			c3.19,1.3899,5.29,4.26,7.25,7.0298c0.0601-3.1299-0.2599-6.3999,0.9301-9.3398c1.36-2.5601,3.59-4.49,5.5-6.6101
			c-0.61,0.04-1.85,0.1301-2.46,0.1702c10.93-9.51,22.6299-18.0801,34.16-26.8301c-1.36-0.27-2.7-0.5-4.0399-0.6899
			c0.98-0.4102,1.98-0.76,3-1.0701c4.8899,0.5701,10.3199,0.03,14.58,2.97c3.5,2.22,5.3099,6.1201,7.4399,9.54
			c-0.71-4.77-1.3099-9.8901,0.9401-14.3501c1.97-4.6599,6.0699-7.8098,10.11-10.5798
			C1081.75,2049.8,1077.58,2051.0901,1073.36,2050.3601 M1093.3101,2062.3701c-1.9501,1.2-1.9601,4.2898-0.53,5.9299
			c2.5499,1.8699,6.64-0.1401,6.3099-3.4102C1099.1801,2062,1095.36,2061.0801,1093.3101,2062.3701 M1101.14,2095.02
			c-0.1,2.76,0.21,5.6799-0.78,8.3599c-1.08,2.7202-3.98,3.9001-6.28,5.3801c2.54,0.0801,5.14,0,7.65,0.6101
			c3.13,1.0698,5.0801,3.9199,6.99,6.46c0.02-2.6201-0.21-5.29,0.52-7.8101c1.04-2.9099,3.4-5.03,5.66-7.01
			c-2.65,0.0801-5.3201,0.3301-7.92-0.1101C1104.35,2099.76,1102.89,2097.1101,1101.14,2095.02 M1061.2,2143.02
			c0.1101,1.97,0.4601,4.02,0.13,6.02c-0.38,2.25-2.5499,3.3999-4.13,4.78c3.7101,0.4199,7.63,1.4299,9.55,4.99
			c-0.11-4.25,2.0601-7.8301,5.13-10.5601c-1.98,0.1201-4.01,0.55-5.95,0.03C1063.36,2147.7,1062.49,2144.9399,1061.2,2143.02
			 M1123.28,2145.3101c-0.89,0.4099-1.5701,1.05-2.05,1.9299c-1.53,3.0901,3.41,6.55,5.64,3.6201
			C1129.64,2148.6001,1126.29,2143.9099,1123.28,2145.3101 M1016.25,2151.4299c-2.6,0.3801-4.89,2.8501-4.27,5.6101
			c-0.02,4.0801,6.19,5.45,8.32,2.23C1022.48,2156.1799,1020.33,2151.03,1016.25,2151.4299z"/>
		<path fill="#FFE3EC" stroke="#FFE3EC" stroke-width="0.0938" d="M595.95,2092.8601c36.38,12.2698,67.94,34.76,100.21,54.9299
			c28.5,17.8899,57.61,36.6499,90.94,43.9399c11.59,2.2,23.19,4.46,34.9301,5.71c-4.95,25.5-9.52,51.0801-14.13,76.6501
			c-70.3,0.7898-140.57-5.72-209.89-17.27c0.03-9.6101,0.12-19.21,0.14-28.8c1.22-21.98,0.67-44.01,0.74-66.01
			c0.28-13.6899-1.18-27.3101-0.93-41C597.18,2111.6299,597.19,2102.1899,595.95,2092.8601z"/>
	</g>
	<g id="_x23_d2f2faff">
		<path fill="#D2F2FA" stroke="#D2F2FA" stroke-width="0.0938" d="M1170.4,2189.1499c3.03-2.0598,6.1899-3.9099,9.47-5.5498
			c21.6,38.8098,43.58,77.4099,65.59,115.99c22.49,39.3899,44.92,78.8198,68.0801,117.8298
			c44.4299,74.78,90.34,148.7002,138.49,221.1501c-2.2101,1.0798-4.4401,2.1299-6.67,3.1599
			c-6.58-8.1299-13.66-15.8501-19.8199-24.3101c-8.48-11.6499-15.98-23.97-23.87-36.02c-41.14-64.4199-81.02-129.6399-119.42-195.73
			C1244.67,2320.3301,1207.1801,2254.9399,1170.4,2189.1499z"/>
		<path fill="#D2F2FA" stroke="#D2F2FA" stroke-width="0.0938" d="M588.03,2255.1599c3.33,0.52,6.66,1.0701,9.98,1.6602
			c-0.92,40.71-0.8,81.4399-0.66,122.1599c-0.2599,10.6699,0.65,21.3201,0.71,32c0.75,31.3901,2.56,62.73,4.83,94.04
			c3.62,55.6001,6.35,111.26,8.21,166.95c0.95,12.6599,0.44,25.3701,1.1801,38.05c0.71,9.3101,0.18,18.6499,0.55,27.99
			c0.37,22.4099,0.77,44.8401,0.42,67.27c-3.49,0.04-6.97,0.05-10.44,0.01c-0.73-110.8801-5.27-221.73-12.99-332.3501
			c-4.29-70.46-3.86-141.0999-2.7-211.6399C587.37,2259.23,587.71,2257.1699,588.03,2255.1599z"/>
		<path fill="#D2F2FA" stroke="#D2F2FA" stroke-width="0.0938" d="M973.74,2258.1299l0.25,0.2002c2.76,2.79,5.16,5.9199,7.73,8.8999
			c66.37,79.05,131.78,159,192.53,242.49c9.4399,13.01,18.8,26.1101,27.17,39.8501c11.83,19.9199,22.1799,40.6699,32.48,61.4099
			c3.3199,7.22,7.7899,13.9399,10.24,21.5601c-1.88-2.52-3.8201-4.96-5.78-7.3601c-5.74-8.5-10.66-17.54-16.28-26.1199
			c-41.59-65.28-88.5299-126.95-136.4199-187.7c-40.29-50.8801-81.67-100.8901-123.58-150.4502
			C965.96,2259.97,969.86,2259.0801,973.74,2258.1299z"/>
		<path fill="#D2F2FA" stroke="#D2F2FA" stroke-width="0.0938" d="M807.9,2274.0901c3.67-0.01,7.35-0.04,11.03-0.0601
			c-10.88,60.79-20.69,121.77-28.51,183.03c-9.49,76.4199-16.78,153.45-13.81,230.54c-2.02-3.1602-1.37-7.04-1.84-10.55
			c-6.07-69.5701-5.21-139.77,3.34-209.0901C785.97,2403.04,796.35,2338.4399,807.9,2274.0901z"/>
		<path fill="#D2F2FA" stroke="#D2F2FA" stroke-width="0.0938" d="M1460.6801,2658.0801c0.96-0.78,1.9399-1.5,2.88-2.28
			c4.72,7.25,9.87,14.23,14.4399,21.5798C1471.78,2671.3701,1466.12,2664.79,1460.6801,2658.0801z"/>
		<path fill="#D2F2FA" stroke="#D2F2FA" stroke-width="0.0938" d="M602.81,2828.9199c3.3,0.55,6.64,0.77,9.98,1
			c-1.77,20.25-4.75,40.52-10.75,59.99l-0.16-1.49C602.86,2868.6101,602.66,2848.75,602.81,2828.9199z"/>
	</g>
</g>
</svg>
