<?xml version="1.0" encoding="UTF-8"?>
<svg xmlns="http://www.w3.org/2000/svg" xmlns:xlink="http://www.w3.org/1999/xlink" width="1024pt" height="1316pt" viewBox="0 0 1024 1316" version="1.1">
<g id="surface1">
<path style="fill-rule:nonzero;fill:rgb(0%,0%,0%);fill-opacity:1;stroke-width:0.0938;stroke-linecap:butt;stroke-linejoin:miter;stroke:rgb(0%,0%,0%);stroke-opacity:1;stroke-miterlimit:4;" d="M 677.517587 -34.161518 C 718.998931 -36.403938 760.6087 -36.334206 802.097383 -34.201888 C 806.768391 -20.453761 809.839589 -6.202831 812.94014 7.956346 C 815.816865 22.218285 819.530188 36.307731 822.337197 50.599031 C 829.980332 87.718242 836.607073 125.046648 844.657499 162.088788 C 824.369984 166.636019 803.587115 169.917073 784.279302 177.958223 C 779.538577 180.05751 774.757489 182.178818 770.497442 185.147914 C 763.030433 190.968664 758.730023 200.6063 749.630179 204.316753 C 745.267391 206.338969 740.420257 204.217661 737.037169 201.318296 C 729.680239 195.046126 725.056932 185.959002 716.698285 180.787856 C 701.639511 171.029108 683.487524 167.876507 665.948309 165.946044 C 658.140056 164.958792 650.240071 165.186337 642.417141 164.345888 C 651.447268 111.137037 660.55812 57.939195 669.768042 4.748694 C 671.987964 -8.283768 674.017082 -21.400642 677.517587 -34.161518 Z M 677.517587 -34.161518 " transform="matrix(1.064579,0,0,1.064349,-257.782523,38.176199)"/>
<path style="fill-rule:nonzero;fill:rgb(94.509804%,35.294118%,14.509804%);fill-opacity:1;stroke-width:0.0938;stroke-linecap:butt;stroke-linejoin:miter;stroke:rgb(94.509804%,35.294118%,14.509804%);stroke-opacity:1;stroke-miterlimit:4;" d="M 663.908183 7.515936 C 665.786861 6.447942 668.417743 6.657137 669.768042 4.748694 C 660.55812 57.939195 651.447268 111.137037 642.417141 164.345888 C 650.240071 165.186337 658.140056 164.958792 665.948309 165.946044 C 683.487524 167.876507 701.639511 171.029108 716.698285 180.787856 C 725.056932 185.959002 729.680239 195.046126 737.037169 201.318296 C 740.420257 204.217661 745.267391 206.338969 749.630179 204.316753 C 758.730023 200.6063 763.030433 190.968664 770.497442 185.147914 C 774.757489 182.178818 779.538577 180.05751 784.279302 177.958223 C 803.587115 169.917073 824.369984 166.636019 844.657499 162.088788 C 836.607073 125.046648 829.980332 87.718242 822.337197 50.599031 C 819.530188 36.307731 815.820534 22.218285 812.94014 7.956346 C 815.728802 8.16921 818.598188 8.727063 820.81811 10.576784 C 836.797876 23.436752 854.968209 33.199171 873.3587 42.135821 L 873.648574 42.719364 C 882.829142 60.119224 890.079662 78.418254 898.02001 96.397986 C 905.237507 112.395875 908.598578 130.015939 908.690311 147.536912 C 908.708657 153.70632 909.090263 160.059232 906.929051 165.957054 C 905.138436 171.157561 903.729428 177.38936 907.079492 182.27791 C 910.579996 187.258211 915.698658 190.957654 918.630422 196.389376 C 921.367714 201.909179 921.686942 208.849305 918.769855 214.369108 C 916.480217 218.868629 914.319004 223.518623 913.658532 228.568656 C 912.407303 237.336483 910.007586 245.876764 908.569224 254.6189 C 907.050137 263.698683 905.578751 272.807827 903.127664 281.685756 C 901.817727 286.416492 898.64012 290.398531 897.528325 295.198999 C 895.708356 303.027284 895.778073 311.138166 894.189269 319.006822 C 892.237206 329.246351 889.298103 339.306046 888.167961 349.707059 C 887.639583 355.505789 885.680182 361.018253 883.698764 366.457315 C 882.31911 370.127397 881.779724 374.047045 881.919157 377.959352 C 870.599392 376.97577 859.239265 376.586741 847.908491 377.42719 C 823.889307 377.42719 799.870123 376.946409 775.847269 376.898698 C 759.496905 376.946409 743.179564 376.116971 726.840207 376.208723 C 701.199196 375.926127 675.547177 376.227073 649.928181 375.20679 C 641.848401 375.078338 633.970431 372.586352 625.857627 373.217606 C 618.786902 373.8562 612.068428 371.199061 605.089435 370.777001 C 604.828915 366.956446 604.64912 363.13589 604.348238 359.319005 C 603.988648 354.327693 602.928222 349.358402 600.510159 344.935953 C 597.897623 340.168516 597.358237 334.689083 596.037292 329.506927 C 594.679654 322.849398 592.368 316.368033 591.846961 309.55636 C 591.410315 304.366864 591.736882 299.148007 591.318583 293.958511 C 590.280173 283.418035 586.779669 273.37669 584.60011 263.067429 C 582.908566 255.437328 583.348881 247.568672 582.427889 239.846819 C 581.888503 229.566919 572.418061 222.02857 573.280344 211.447723 C 573.188612 205.905899 575.547967 200.745763 578.920046 196.477458 C 580.747353 193.537722 584.049716 190.616336 583.007637 186.795781 C 580.677637 172.48613 581.74907 157.926914 582.468251 143.529182 C 584.310235 119.688328 587.069543 95.876835 591.777244 72.417669 C 593.50915 62.398345 598.759907 53.358933 605.089435 45.548998 C 609.499924 40.175997 615.11761 35.889341 621.289359 32.736741 C 626.319958 30.219064 631.966998 29.275853 636.990258 26.717806 C 642.850117 23.847802 647.099157 18.728037 652.36826 14.999233 C 656.107269 12.356774 659.868293 9.688625 663.908183 7.515936 Z M 663.908183 7.515936 " transform="matrix(1.064579,0,0,1.064349,-257.782523,38.176199)"/>
<path style="fill-rule:nonzero;fill:rgb(0%,0%,0%);fill-opacity:1;stroke-width:0.0938;stroke-linecap:butt;stroke-linejoin:miter;stroke:rgb(0%,0%,0%);stroke-opacity:1;stroke-miterlimit:4;" d="M 873.648574 42.719364 C 879.200212 42.836807 884.428953 44.899393 889.569631 46.807836 C 900.29864 50.826576 910.429555 56.258297 921.147556 60.299058 C 926.490045 63.04795 933.707542 65.30872 935.208283 71.925878 C 937.637354 81.908502 937.299779 92.298505 937.178692 102.486653 C 936.72737 111.658188 936.576929 120.888445 935.12022 129.979238 C 932.408613 145.21742 929.388786 160.40789 925.580061 175.418526 C 923.690376 182.527475 921.819037 189.717166 918.630422 196.389376 C 915.698658 190.957654 910.579996 187.258211 907.079492 182.27791 C 903.729428 177.38936 905.138436 171.157561 906.929051 165.957054 C 909.090263 160.059232 908.708657 153.70632 908.690311 147.536912 C 908.598578 130.015939 905.237507 112.395875 898.02001 96.397986 C 890.079662 78.418254 882.829142 60.119224 873.648574 42.719364 Z M 873.648574 42.719364 " transform="matrix(1.064579,0,0,1.064349,-257.782523,38.176199)"/>
<path style="fill-rule:nonzero;fill:rgb(0%,0%,0%);fill-opacity:1;stroke-width:0.0938;stroke-linecap:butt;stroke-linejoin:miter;stroke:rgb(0%,0%,0%);stroke-opacity:1;stroke-miterlimit:4;" d="M 559.590216 60.247677 C 574.190329 53.858064 589.20874 47.758387 605.089435 45.548998 C 598.759907 53.358933 593.50915 62.398345 591.777244 72.417669 C 587.069543 95.876835 584.310235 119.688328 582.468251 143.529182 C 581.74907 157.926914 580.677637 172.48613 583.007637 186.795781 C 584.049716 190.616336 580.747353 193.537722 578.920046 196.477458 C 575.547967 200.745763 573.188612 205.905899 573.280344 211.447723 C 568.238737 207.069315 566.077524 200.529228 563.798894 194.477263 C 557.990405 177.576534 554.350468 160.037212 550.897664 142.53826 C 546.428467 118.87724 542.707805 95.058406 540.476875 71.0891 C 546.09823 66.306983 553.000168 63.407618 559.590216 60.247677 Z M 559.590216 60.247677 " transform="matrix(1.064579,0,0,1.064349,-257.782523,38.176199)"/>
<path style="fill-rule:nonzero;fill:rgb(97.254902%,57.647059%,12.156863%);fill-opacity:1;stroke-width:0.0938;stroke-linecap:butt;stroke-linejoin:miter;stroke:rgb(97.254902%,57.647059%,12.156863%);stroke-opacity:1;stroke-miterlimit:4;" d="M 604.348238 359.319005 C 604.64912 363.13589 604.828915 366.956446 605.089435 370.777001 C 612.068428 371.199061 618.786902 373.8562 625.857627 373.217606 C 633.970431 372.586352 641.848401 375.078338 649.928181 375.20679 C 675.547177 376.227073 701.199196 375.926127 726.840207 376.208723 C 743.179564 376.116971 759.496905 376.946409 775.847269 376.898698 C 799.870123 376.946409 823.889307 377.42719 847.908491 377.42719 C 859.239265 376.586741 870.599392 376.97577 881.919157 377.959352 C 881.779724 374.047045 882.31911 370.127397 883.698764 366.457315 C 882.517252 371.786274 882.627331 377.269377 884.109725 382.528604 C 883.838197 393.538851 881.497189 404.416975 881.717346 415.456582 C 881.728354 424.716199 881.577913 433.975817 881.699 443.246444 C 870.76818 443.275805 859.837359 442.688592 848.917547 443.385907 C 834.588962 444.237366 820.24937 443.268465 805.909777 443.176713 C 787.218405 443.176713 768.58941 440.978333 749.887029 441.315981 C 738.229689 440.695737 726.587026 442.057338 714.929686 441.396723 C 703.25033 441.326991 691.600329 440.688397 679.928311 440.148895 C 655.747678 439.969061 631.578053 439.135952 607.39742 439.176323 C 609.147672 431.116823 609.118318 422.767386 609.918223 414.568422 C 610.857562 405.98777 608.857798 397.418128 606.208569 389.307246 C 604.938994 384.859107 603.280474 380.245813 604.069372 375.548108 C 604.938994 370.178778 604.528033 364.728706 604.348238 359.319005 Z M 604.348238 359.319005 " transform="matrix(1.064579,0,0,1.064349,-257.782523,38.176199)"/>
<path style="fill-rule:nonzero;fill:rgb(94.509804%,35.294118%,14.509804%);fill-opacity:1;stroke-width:0.0938;stroke-linecap:butt;stroke-linejoin:miter;stroke:rgb(94.509804%,35.294118%,14.509804%);stroke-opacity:1;stroke-miterlimit:4;" d="M 607.39742 439.176323 C 631.578053 439.135952 655.747678 439.969061 679.928311 440.148895 C 691.600329 440.688397 703.25033 441.326991 714.929686 441.396723 C 726.587026 442.057338 738.229689 440.695737 749.887029 441.315981 C 768.58941 440.978333 787.218405 443.176713 805.909777 443.176713 C 820.24937 443.268465 834.588962 444.237366 848.917547 443.385907 C 859.837359 442.688592 870.76818 443.275805 881.699 443.246444 C 883.298811 453.126306 889.760434 461.079374 895.627632 468.815907 C 904.28716 479.785783 911.247807 491.955775 918.579052 503.828491 C 938.268472 537.075766 956.967183 570.906583 975.827343 604.627298 C 984.54925 620.959164 993.139062 637.346081 1001.589441 653.82842 C 1007.959332 666.097505 1013.089002 678.957473 1019.000231 691.446763 C 1021.64946 696.937206 1025.538909 701.697302 1028.378941 707.095993 C 1034.29017 717.096967 1038.788722 727.846638 1044.54951 737.939364 C 1049.106771 744.637264 1052.618283 751.959078 1056.408661 759.115738 C 1066.378127 778.556164 1075.99901 798.169083 1085.528161 817.826043 C 1088.639721 824.538623 1091.109154 831.51912 1094.169344 838.24638 C 1099.049502 849.968623 1105.507455 860.916478 1111.007724 872.348784 C 1120.089221 891.958033 1129.020277 911.648024 1138.219192 931.216903 C 1142.049933 939.478258 1146.067807 947.658871 1149.348154 956.166121 C 1154.547541 969.716065 1161.69899 982.388859 1167.999164 995.436001 C 1179.748237 1020.85866 1191.798191 1046.167547 1202.248334 1072.159069 C 1203.147311 1074.188625 1203.609642 1076.375993 1203.767421 1078.607403 C 1178.148426 1096.616497 1145.278909 1099.057101 1119.197583 1116.126654 C 1118.427032 1121.675818 1123.189773 1126.087257 1122.360513 1131.717163 C 1103.379266 1141.207995 1083.348602 1148.449068 1063.09778 1154.706558 C 1050.387353 1158.457382 1037.368706 1161.088831 1024.75735 1165.166292 C 1013.228435 1168.707921 1002.407693 1174.407559 990.55955 1176.895875 C 979.859895 1179.208026 968.697909 1176.778432 958.078979 1179.648436 C 950.678017 1181.567889 945.350205 1187.898781 937.857511 1189.568668 C 933.549763 1190.398107 929.197983 1189.256712 924.890234 1189.396175 C 918.27817 1189.847595 912.458673 1193.488316 905.967696 1194.479238 C 900.29864 1195.528882 894.607569 1193.969097 888.927505 1194.288394 C 878.547078 1195.048101 868.269392 1196.717989 857.958682 1198.006187 C 835.407214 1201.268891 812.558534 1200.277968 789.867633 1199.966011 C 781.43927 1199.786177 773.007237 1199.668735 764.589882 1199.349438 C 750.907093 1199.096202 737.249988 1199.797188 723.578207 1199.936651 C 700.34792 1200.226587 676.908484 1201.419364 653.898355 1197.518067 C 642.978543 1195.767437 632.00736 1193.818624 620.91876 1193.928726 C 608.58994 1193.789263 596.217087 1194.728804 583.917621 1193.63879 C 570.117415 1192.32857 557.887665 1185.267332 544.626844 1181.876176 C 537.629505 1180.008104 530.199189 1179.886992 523.488054 1176.947256 C 509.77958 1171.298999 494.90794 1177.11608 480.770159 1174.616754 C 476.319308 1173.317545 472.41885 1170.506262 467.857921 1169.53736 C 463.939117 1168.62718 459.800156 1168.829034 455.987761 1167.507804 C 452.046942 1165.177302 450.359068 1160.318113 446.187083 1158.288558 C 440.107066 1155.348822 433.50968 1153.708295 427.216844 1151.319072 C 414.359646 1146.558975 400.728226 1143.887155 388.329689 1137.919602 C 382.800067 1135.328524 378.697798 1130.348222 372.907656 1128.278296 C 365.998379 1126.718511 358.799229 1129.467402 351.930314 1127.448857 C 342.239715 1124.626564 332.739918 1120.736277 324.296878 1115.157752 C 320.069853 1112.636406 319.387365 1107.388188 316.71979 1103.637364 C 313.266986 1098.767165 308.240057 1095.398029 303.348891 1092.157347 C 295.199393 1087.008222 286.609581 1082.607793 277.917029 1078.478951 C 267.907201 1073.777575 257.108475 1070.687366 247.770127 1064.639071 C 244.669576 1062.646216 241.789181 1059.346812 242.236835 1055.416154 C 242.456993 1049.268766 248.599387 1045.459221 249.630458 1039.546719 C 250.867009 1035.058208 245.696977 1031.417487 247.700411 1026.998708 C 256.609451 1007.8996 268.527311 990.407988 278.019769 971.617167 C 287.559928 953.707166 296.619409 935.5476 306.089852 917.619248 C 313.30001 905.867645 319.398373 893.506808 325.716894 881.267084 C 332.857335 868.557589 339.498754 855.569168 346.019085 842.529366 C 352.41833 829.507915 359.599134 816.886502 366.658852 804.217378 C 394.527123 754.469414 422.237615 704.618688 450.509509 655.087259 C 474.209465 619.146144 497.259956 582.779299 522.020337 547.54651 C 543.837947 516.398523 566.778359 486.006572 591.458016 457.045953 C 596.749135 451.0784 601.779734 444.8466 607.39742 439.176323 Z M 607.39742 439.176323 " transform="matrix(1.064579,0,0,1.064349,-257.782523,38.176199)"/>
</g>
</svg>
