<?xml version="1.0" encoding="UTF-8" standalone="no"?>
<svg
   xmlns:dc="http://purl.org/dc/elements/1.1/"
   xmlns:cc="http://creativecommons.org/ns#"
   xmlns:rdf="http://www.w3.org/1999/02/22-rdf-syntax-ns#"
   xmlns:svg="http://www.w3.org/2000/svg"
   xmlns="http://www.w3.org/2000/svg"
   xmlns:sodipodi="http://sodipodi.sourceforge.net/DTD/sodipodi-0.dtd"
   xmlns:inkscape="http://www.inkscape.org/namespaces/inkscape"
   version="1.1"
   id="Layer_1"
   x="0px"
   y="0px"
   viewBox="242.1451 -35.8681 2031.5553 2611.6456"
   enable-background="new 242.1451 -35.8681 1053.8549 2023.1056"
   xml:space="preserve"
   inkscape:version="0.91 r13725"
   sodipodi:docname="dress.svg"
   width="2031.5552"
   height="2611.6455"><metadata
     id="metadata23"><rdf:RDF><cc:Work
         rdf:about=""><dc:format>image/svg+xml</dc:format><dc:type
           rdf:resource="http://purl.org/dc/dcmitype/StillImage" /><dc:title></dc:title></cc:Work></rdf:RDF></metadata><defs
     id="defs21" /><sodipodi:namedview
     pagecolor="#ffffff"
     bordercolor="#666666"
     borderopacity="1"
     objecttolerance="10"
     gridtolerance="10"
     guidetolerance="10"
     inkscape:pageopacity="0"
     inkscape:pageshadow="2"
     inkscape:window-width="1855"
     inkscape:window-height="1056"
     id="namedview19"
     showgrid="false"
     fit-margin-top="0"
     fit-margin-left="0"
     fit-margin-right="0"
     fit-margin-bottom="0"
     inkscape:zoom="0.32994264"
     inkscape:cx="714.92881"
     inkscape:cy="1136.352"
     inkscape:window-x="65"
     inkscape:window-y="24"
     inkscape:window-maximized="1"
     inkscape:current-layer="Layer_1" /><g
     id="g4158"
     transform="matrix(2.1125235,0,0,2.1125235,-269.39212,39.904102)"><path
       d="m 677.51866,-34.162431 c 41.48,-2.24 83.09,-2.17 124.58,-0.04 4.67,13.75 7.74,27.9999996 10.84,42.1599996 2.8799,14.2600004 6.59,28.3500004 9.4,42.6400004 7.64,37.12 14.27,74.450001 22.32,111.490001 -20.29,4.55 -41.07,7.83 -60.38,15.87 -4.74,2.1 -9.52,4.22 -13.78,7.19 -7.47,5.82 -11.77,15.46 -20.8701,19.17 -4.36,2.02 -9.21,-0.1 -12.59,-3 -7.36,-6.27 -11.98,-15.36 -20.34,-20.53 -15.06,-9.76 -33.21,-12.91 -50.75,-14.84 -7.81,-0.99 -15.71,-0.76 -23.53,-1.6 9.03,-53.21 18.14,-106.410001 27.35,-159.6000014 2.2201,-13.03 4.2501,-26.1499996 7.7501,-38.9099996 z"
       id="path5"
       inkscape:connector-curvature="0"
       style="stroke:#000000;stroke-width:0.0938" /><path
       d="m 663.90866,7.5175686 c 1.88,-1.07 4.51,-0.86 5.86,-2.77 -9.21,53.1900004 -18.32,106.3900014 -27.35,159.6000014 7.82,0.84 15.72,0.61 23.53,1.6 17.54,1.93 35.69,5.08 50.75,14.84 8.36,5.17 12.98,14.26 20.34,20.53 3.38,2.9 8.23,5.02 12.59,3 9.1,-3.71 13.4,-13.35 20.8701,-19.17 4.2599,-2.97 9.04,-5.09 13.78,-7.19 19.31,-8.04 40.09,-11.32 60.38,-15.87 -8.05,-37.04 -14.68,-74.370001 -22.32,-111.490001 -2.81,-14.29 -6.52,-28.38 -9.4,-42.6400004 2.79,0.21 5.66,0.77 7.8799,2.6200004 15.98,12.86 34.15,22.62 52.54,31.56 l 0.29,0.58 c 9.18,17.4 16.43,35.7 24.37,53.68 7.22,16.000001 10.58,33.620001 10.67,51.140001 0.02,6.17 0.4,12.52 -1.76,18.42 -1.79,5.2 -3.2,11.43 0.15,16.32 3.5,4.98 8.62,8.68 11.55,14.11 2.7401,5.52 3.0601,12.46 0.14,17.98 -2.29,4.5 -4.45,9.15 -5.11,14.2 -1.25,8.77 -3.65,17.31 -5.09,26.05 -1.52,9.08 -2.99,18.19 -5.44,27.07 -1.31,4.73 -4.49,8.71 -5.6,13.51 -1.82,7.83 -1.75,15.94 -3.34,23.81 -1.95,10.24 -4.89,20.3 -6.02,30.7 -0.53,5.8 -2.49,11.31 -4.47,16.75 -1.38,3.67 -1.92,7.59 -1.78,11.5 -11.32,-0.98 -22.68,-1.37 -34.01,-0.53 -24.02,0 -48.04,-0.48 -72.06,-0.53 -16.35,0.05 -32.67,-0.78 -49.01,-0.69 -25.64,-0.28 -51.29,0.02 -76.91,-1 -8.08,-0.13 -15.96,-2.62 -24.07,-1.99 -7.07,0.64 -13.79,-2.02 -20.77,-2.44 -0.26,-3.82 -0.44,-7.64 -0.74,-11.46 -0.36,-4.99 -1.42,-9.96 -3.84,-14.38 -2.61,-4.77 -3.15,-10.25 -4.47,-15.43 -1.36,-6.66 -3.67,-13.14 -4.19,-19.95 -0.44,-5.19 -0.11,-10.41 -0.53,-15.6 -1.04,-10.54 -4.54,-20.58 -6.72,-30.89 -1.69,-7.63 -1.25,-15.5 -2.17,-23.22 -0.54,-10.28 -10.01,-17.82 -9.15,-28.4 -0.09,-5.54 2.27,-10.7 5.64,-14.97 1.83,-2.94 5.13,-5.86 4.09,-9.68 -2.33,-14.31 -1.2599,-28.87 -0.54,-43.27 1.84,-23.84 4.6,-47.650001 9.31,-71.110001 1.73,-10.02 6.98,-19.06 13.31,-26.87 4.41,-5.37 10.03,-9.66 16.2,-12.81 5.03,-2.52 10.68,-3.46 15.7,-6.02 5.86,-2.87 10.11,-7.99 15.38,-11.72 3.74,-2.64 7.5,-5.3100004 11.54,-7.4800004 z"
       id="path7"
       inkscape:connector-curvature="0"
       style="fill:#f15a25;stroke:#f15a25;stroke-width:0.0938" /><path
       d="m 873.64866,42.717569 c 5.55,0.12 10.78,2.18 15.92,4.09 10.73,4.02 20.86,9.45 31.58,13.49 5.34,2.75 12.56,5.01 14.06,11.63 2.43,9.98 2.09,20.37 1.97,30.560001 -0.45,9.17 -0.6,18.4 -2.06,27.49 -2.71,15.24 -5.73,30.43 -9.54,45.44 -1.89,7.11 -3.76,14.3 -6.95,20.97 -2.93,-5.43 -8.05,-9.13 -11.55,-14.11 -3.35,-4.89 -1.94,-11.12 -0.15,-16.32 2.16,-5.9 1.78,-12.25 1.76,-18.42 -0.09,-17.52 -3.45,-35.14 -10.67,-51.140001 -7.94,-17.98 -15.19,-36.28 -24.37,-53.68 z"
       id="path9"
       inkscape:connector-curvature="0"
       style="stroke:#000000;stroke-width:0.0938" /><path
       d="m 559.58866,60.247569 c 14.6,-6.39 29.62,-12.49 45.5,-14.7 -6.33,7.81 -11.58,16.85 -13.31,26.87 -4.71,23.46 -7.47,47.270001 -9.31,71.110001 -0.72,14.4 -1.79,28.96 0.54,43.27 1.04,3.82 -2.2599,6.74 -4.09,9.68 -3.37,4.27 -5.73,9.43 -5.64,14.97 -5.04,-4.38 -7.2,-10.92 -9.48,-16.97 -5.81,-16.9 -9.45,-34.44 -12.9,-51.94 -4.47,-23.66 -8.19,-47.480001 -10.42,-71.450001 5.62,-4.78 12.52,-7.68 19.11,-10.84 z"
       id="path11"
       inkscape:connector-curvature="0"
       style="stroke:#000000;stroke-width:0.0938" /><path
       d="m 604.34866,359.31757 c 0.3,3.82 0.48,7.64 0.74,11.46 6.98,0.42 13.7,3.08 20.77,2.44 8.11,-0.63 15.99,1.86 24.07,1.99 25.62,1.02 51.27,0.72 76.91,1 16.34,-0.09 32.66,0.74 49.01,0.69 24.02,0.05 48.04,0.53 72.06,0.53 11.33,-0.84 22.69,-0.45 34.01,0.53 -0.14,-3.91 0.4,-7.83 1.78,-11.5 -1.18,5.33 -1.07,10.81 0.41,16.07 -0.27,11.01 -2.61,21.89 -2.39,32.93 0.01,9.26 -0.14,18.52 -0.02,27.79 -10.93,0.03 -21.86,-0.56 -32.78,0.14 -14.33,0.85 -28.67,-0.12 -43.01,-0.21 -18.69,0 -37.32,-2.2 -56.02,-1.86 -11.66,-0.62 -23.3,0.74 -34.96,0.08 -11.68,-0.07 -23.33,-0.71 -35,-1.25 -24.18,-0.18 -48.35,-1.01 -72.53,-0.97 1.75,-8.06 1.72,-16.41 2.52,-24.61 0.94,-8.58 -1.06,-17.15 -3.71,-25.26 -1.27,-4.45 -2.93,-9.06 -2.14,-13.76 0.87,-5.37 0.46,-10.82 0.28,-16.23 z"
       id="path13"
       inkscape:connector-curvature="0"
       style="fill:#f8931f;stroke:#f8931f;stroke-width:0.0938" /><path
       d="m 607.39866,439.17757 c 24.18,-0.04 48.35,0.79 72.53,0.97 11.67,0.54 23.32,1.18 35,1.25 11.66,0.66 23.3,-0.7 34.96,-0.08 18.7,-0.34 37.33,1.86 56.02,1.86 14.34,0.09 28.68,1.06 43.01,0.21 10.92,-0.7 21.85,-0.11 32.78,-0.14 1.6,9.88 8.06,17.83 13.93,25.57 8.66,10.97 15.6201,23.14 22.95,35.01 19.69,33.25 38.39,67.08 57.25,100.8 8.72,16.33 17.31,32.72 25.76014,49.2 6.37,12.27 11.5,25.13 17.4099,37.62 2.65,5.49 6.54,10.25 9.38,15.65 5.91,10 10.41,20.75 16.17,30.84 4.5599,6.7 8.0699,14.02 11.86,21.18 9.97,19.44 19.59,39.05 29.12,58.71 3.11,6.71 5.58,13.69 8.64,20.42 4.88,11.72 11.34,22.67 16.84,34.1 9.0801,19.61 18.01,39.3 27.2101,58.87 3.83,8.2599 7.85,16.44 11.1299,24.95 5.2001,13.5499 12.3501,26.22 18.65,39.27 11.75,25.41993 23.8,50.73003 34.25,76.72003 0.9,2.03 1.36,4.22 1.52,6.45 -25.62,18.01 -58.49,20.4501 -84.5699,37.52 -0.77,5.55 3.99,9.96 3.1599,15.59 -18.98,9.49 -39.01,16.7301 -59.26,22.99 -12.71,3.75 -25.73,6.38 -38.34,10.4601 -11.53,3.5399 -22.35,9.24 -34.20004,11.73 -10.7001,2.3099 -21.86,-0.12 -32.48,2.75 -7.4,1.92 -12.73,8.25 -20.22,9.92 -4.31,0.83 -8.66,-0.3101 -12.97,-0.17 -6.61,0.45 -12.43,4.09 -18.92,5.08 -5.67,1.05 -11.36,-0.51 -17.04,-0.1899 -10.38,0.76 -20.66,2.4299 -30.97,3.72 -22.55,3.26 -45.4,2.27 -68.09,1.96 -8.43,-0.1799 -16.86,-0.2999 -25.28,-0.62 -13.68,-0.25 -27.34,0.4501 -41.01,0.5901 -23.23,0.2899 -46.67,1.48 -69.68,-2.42 -10.92,-1.75 -21.89,-3.7 -32.98,-3.59 -12.33,-0.14 -24.7,0.7999 -37,-0.29 -13.8,-1.3099 -26.03,-8.37 -39.29,-11.76 -7,-1.87 -14.43,-1.99 -21.14,-4.9299 -13.71,-5.65 -28.58,0.1699 -42.72,-2.3301 -4.45,-1.2999 -8.35,-4.11 -12.91,-5.08 -3.92,-0.91 -8.06,-0.71 -11.87,-2.03 -3.94,-2.33 -5.63,-7.1899 -9.8,-9.22 -6.08,-2.9401 -12.68,-4.5801 -18.97,-6.97 -12.86,-4.76 -26.49,-7.4301 -38.89,-13.4 -5.53,-2.59 -9.63,-7.5701 -15.42,-9.64 -6.91,-1.5601 -14.11,1.1899 -20.98,-0.83 -9.69,-2.8201 -19.19,-6.7101 -27.63,-12.29 -4.23,-2.52 -4.91,-7.77 -7.58,-11.52 -3.45,-4.87 -8.48,-8.24 -13.37,-11.48 -8.15,-5.15 -16.74,-9.55 -25.43,-13.6801 -10.01,-4.7 -20.81,-7.7899 -30.15,-13.84 -3.1,-1.99 -5.98,-5.29 -5.53,-9.22 0.22,-6.15 6.36,-9.9601 7.39,-15.87 1.24,-4.49 -3.93,-8.13 -1.93,-12.55 8.91,-19.1 20.83,-36.59003 30.32,-55.38003 9.54,-17.91 18.6,-36.0699 28.07,-54 7.21,-11.75 13.31,-24.11 19.63,-36.35 7.14,-12.71 13.78,-25.7 20.3,-38.74 6.4,-13.02 13.58,-25.64 20.64,-38.31 27.87,-49.75 55.58,-99.6 83.85,-149.13 23.7,-35.94 46.75,-72.31 71.51,-107.54 21.82,-31.15 44.76,-61.54 69.44,-90.5 5.29,-5.9702 10.32,-12.2002 15.94,-17.8702 z"
       id="path15"
       inkscape:connector-curvature="0"
       style="fill:#f15a25;stroke:#f15a25;stroke-width:0.0938" /></g></svg>