<?xml version="1.0" encoding="UTF-8"?>
<svg xmlns="http://www.w3.org/2000/svg" xmlns:xlink="http://www.w3.org/1999/xlink" width="1024pt" height="1470pt" viewBox="0 0 1024 1470" version="1.1">
<defs>
<radialGradient id="radial0" gradientUnits="userSpaceOnUse" cx="240.04" cy="581.16" fx="240.04" fy="581.16" r="109.41" gradientTransform="matrix(4.434613,2.026206,-3.513123,7.681326,1130.911175,-3978.810433)">
<stop offset="0" style="stop-color:rgb(76.078431%,64.313725%,57.254902%);stop-opacity:1;"/>
<stop offset="0.07684" style="stop-color:rgb(76.470588%,67.45098%,61.176471%);stop-opacity:0.792157;"/>
<stop offset="0.21355" style="stop-color:rgb(70.588235%,61.960784%,56.470588%);stop-opacity:0.635294;"/>
<stop offset="0.39379" style="stop-color:rgb(83.137255%,73.72549%,66.27451%);stop-opacity:0.384314;"/>
<stop offset="1" style="stop-color:rgb(94.117647%,85.882353%,80%);stop-opacity:0;"/>
</radialGradient>
</defs>
<g id="surface1">
<path style=" stroke:none;fill-rule:nonzero;fill:rgb(98.431373%,91.372549%,84.705882%);fill-opacity:1;" d="M 1.925781 433.3125 C 122.089844 433.3125 18.238281 830.1875 69.472656 1075.269531 C 85.527344 1152.0625 87.484375 1401.394531 87.484375 1401.394531 C 54.144531 1432.050781 20.808594 1492.058594 -12.527344 1490.867188 C -12.527344 1490.867188 24.601562 1150.3125 23.164062 990.777344 C 21.382812 793.792969 1.925781 433.316406 1.925781 433.316406 Z M 1.925781 433.3125 "/>
<path style=" stroke:none;fill-rule:nonzero;fill:rgb(100%,91.764706%,83.921569%);fill-opacity:1;" d="M 10.339844 431.019531 C 10.339844 431.019531 123.375 210.023438 211.777344 111.449219 C 273.066406 43.113281 361.679688 -0.226562 452.902344 10.148438 C 644.511719 31.9375 787.890625 96.101562 815.101562 398.292969 C 840.511719 680.449219 661.652344 929.542969 627.089844 1000.132812 C 595.21875 1065.222656 616.824219 1129.226562 585.875 1183.824219 C 524.976562 1291.25 437.816406 1411.769531 317.359375 1439.125 C 234.550781 1457.929688 75.042969 1360.574219 75.042969 1360.574219 C 70.929688 1293.675781 85.769531 1271.71875 73.738281 1139.179688 C 73.738281 1139.179688 37.394531 1068.710938 30.125 986.859375 C 17.035156 839.457031 47.066406 467.726562 10.34375 431.023438 Z M 10.339844 431.019531 "/>
<path style=" stroke:none;fill-rule:nonzero;fill:url(#radial0);" d="M 428.699219 155.554688 C 483.699219 142.777344 488.324219 282.964844 478.285156 360.636719 C 314.152344 387.734375 301.207031 420.890625 300.988281 430.492188 L 376.46875 445.503906 C 568.527344 353.074219 583.746094 556.671875 588.796875 624.761719 C 595.8125 719.394531 564.128906 864.554688 448.347656 905.683594 L 331.816406 915.5 C 317.175781 950.476562 302.53125 994.492188 287.890625 1006.550781 C 294.707031 1017.90625 209.191406 1104.898438 146.683594 1052.375 C 102.175781 1014.980469 69.859375 955.929688 114.132812 875.230469 C 146.367188 815.292969 197.984375 768.660156 214.292969 702.355469 C 218.894531 680.523438 198.257812 595.59375 149.757812 520.980469 L 269.597656 433.167969 C 318.949219 323.929688 337.75 286.625 363.207031 234.105469 Z M 428.699219 155.554688 "/>
<path style=" stroke:none;fill-rule:nonzero;fill:rgb(0%,0%,0%);fill-opacity:1;" d="M 386.820312 5.394531 C 305.980469 7.707031 261.800781 49.277344 207.214844 110.140625 C 117.511719 210.160156 0.0078125 428.519531 0.0078125 428.519531 C -0.367188 453.363281 11.375 444.289062 21.46875 439.832031 C 21.46875 439.832031 139.03125 221.085938 226.136719 123.953125 C 286.332031 56.832031 362.480469 16.171875 451.378906 26.28125 C 546.6875 37.121094 625.726562 67.4375 687.507812 122.707031 C 749.28125 177.972656 784.910156 256.339844 798.4375 406.535156 C 811.011719 546.179688 771.355469 673.0625 725.738281 778.871094 C 680.121094 884.679688 630.472656 957.152344 612.609375 993.636719 C 596.089844 1027.375 588.585938 1067.238281 586.136719 1098.199219 C 583.683594 1129.164062 583.777344 1154.390625 569.105469 1180.269531 C 508.472656 1287.230469 432.523438 1401.925781 315.214844 1428.5625 C 276.851562 1437.273438 219.050781 1423.414062 169.246094 1401.613281 C 151.796875 1393.972656 96.003906 1363.117188 90.121094 1345.480469 C 85.214844 1330.78125 86.621094 1317.679688 88.09375 1300.445312 C 99.953125 1161.871094 75.757812 1137.988281 75.757812 1137.988281 C 78.023438 1227.238281 75.976562 1339.445312 50.625 1371.753906 C 50.625 1371.753906 24.996094 1421.445312 13.546875 1451.535156 C 9.523438 1462.121094 24.949219 1467.003906 27.53125 1469.726562 C 31.320312 1473.71875 92.027344 1400.992188 98.710938 1402.699219 C 112.984375 1406.335938 138.277344 1421.96875 160.28125 1431.601562 C 210.941406 1453.777344 274.3125 1464.453125 318.757812 1454.359375 C 442.371094 1426.289062 530.011719 1297.453125 591.167969 1189.546875 C 607.445312 1160.832031 609.777344 1130.078125 612.230469 1099.117188 C 614.679688 1068.15625 622.953125 1042.617188 638.304688 1011.265625 C 655.003906 977.152344 710.460938 896.308594 756.558594 789.382812 C 802.660156 682.453125 843.023438 542.96875 830.1875 400.457031 C 816.5 248.453125 773.316406 149.324219 708.699219 91.519531 C 644.082031 33.707031 596.917969 15.300781 463.449219 0.269531 C 451.753906 -1.046875 398.359375 5.054688 386.8125 5.386719 Z M 386.820312 5.394531 "/>
<path style=" stroke:none;fill-rule:nonzero;fill:rgb(0%,0%,0%);fill-opacity:1;" d="M 510.003906 106.410156 C 504.796875 106.257812 499.542969 106.570312 494.316406 107.414062 C 465.46875 112.066406 434.792969 139.351562 410.578125 165.121094 C 386.523438 190.722656 369.332031 215.0625 369.101562 215.386719 C 369.101562 215.386719 368.960938 215.601562 368.960938 215.601562 C 334.203125 258.839844 316.550781 310.886719 298.1875 357.4375 C 279.792969 404.0625 260.722656 444.832031 224.261719 466.695312 L 143.242188 515.3125 L 139.660156 517.460938 L 141.882812 520.96875 C 141.882812 520.96875 160.207031 549.472656 177.984375 585.835938 C 195.761719 622.203125 212.710938 666.652344 210.722656 696.742188 C 208.855469 724.949219 183.105469 763.285156 155.992188 801.421875 C 128.878906 839.554688 100.582031 877.476562 95.03125 909.246094 C 89.058594 943.445312 87.828125 975.761719 96.609375 1002.96875 C 105.386719 1030.175781 124.570312 1052.042969 157.855469 1064.1875 C 194.242188 1077.460938 229.46875 1075.046875 259.789062 1051.296875 C 289.636719 1027.921875 314.652344 984.484375 333.574219 916.476562 C 352.523438 918.300781 376.292969 916.890625 397.324219 915.046875 C 408.472656 914.070312 418.785156 913.03125 426.984375 912.324219 C 435.179688 911.617188 441.6875 911.347656 443.457031 911.609375 C 456.207031 913.492188 472.007812 905.015625 490.019531 890.988281 C 508.03125 876.960938 527.902344 856.824219 546.464844 833.421875 C 583.589844 786.621094 615.628906 726.914062 614.804688 676.121094 C 614.03125 628.597656 607.523438 574.199219 590.664062 525.695312 C 573.804688 477.1875 546.480469 434.367188 503.84375 411.066406 C 486.136719 401.386719 459.859375 407.9375 437.011719 413.640625 C 409.566406 420.492188 389.417969 431.992188 389.417969 431.992188 C 390.351562 438.257812 385.507812 448.128906 402.75 444.203125 C 402.75 444.203125 420.820312 437.902344 442.648438 431.265625 C 464.476562 424.628906 483.457031 435.535156 496.703125 442.773438 C 536.945312 464.765625 539.53125 488.375 555.984375 535.707031 C 572.4375 583.042969 576.476562 625.292969 577.238281 672.171875 C 578.003906 719.382812 562.601562 777.574219 526.171875 823.5 C 507.960938 846.460938 500.691406 858.78125 483.367188 872.269531 C 466.046875 885.761719 450.628906 893.265625 442.964844 892.132812 C 438.898438 891.53125 427.207031 894.515625 418.898438 895.234375 C 410.585938 895.949219 405.222656 899.4375 394.152344 900.410156 C 372.011719 902.347656 349.15625 910.457031 331.066406 908.242188 L 327.554688 907.8125 L 326.625 911.179688 C 307.851562 980.152344 280.5625 1020.40625 252.390625 1042.472656 C 224.222656 1064.535156 197.585938 1063.402344 163.035156 1050.796875 C 131.710938 1039.371094 116.566406 1024.015625 108.441406 998.828125 C 100.3125 973.636719 101.222656 944.128906 107.078125 910.609375 C 111.984375 882.515625 135.496094 844.277344 162.65625 806.074219 C 189.816406 767.871094 216.675781 729.671875 218.816406 697.246094 C 221.03125 663.722656 203.300781 619.09375 185.292969 582.257812 C 168.972656 548.875 162.09375 524.914062 159.09375 520.179688 L 228.484375 473.640625 C 267.671875 450.140625 287.210938 407.335938 305.707031 360.445312 C 324.203125 313.554688 341.710938 262.300781 375.40625 220.46875 L 375.476562 220.398438 L 375.550781 220.253906 C 375.550781 220.253906 392.746094 196.015625 416.523438 170.707031 C 440.300781 145.402344 470.980469 125.132812 495.605469 121.160156 C 533.0625 115.121094 564.554688 140.492188 594.410156 166.554688 C 680.71875 241.894531 708.882812 301.703125 717.855469 364.082031 C 726.828125 426.46875 713.890625 491.90625 708.71875 561.277344 C 703.519531 630.996094 676.566406 680.8125 645.324219 725.542969 C 629.699219 747.910156 616.117188 769.960938 604.839844 784.949219 C 599.199219 792.445312 594.554688 798.957031 591.300781 804.640625 C 588.042969 810.324219 584.269531 820.078125 584.792969 825.015625 C 590.84375 882.394531 568.140625 939.90625 537.871094 987.863281 C 507.601562 1035.816406 475.839844 1069.125 475.839844 1069.125 C 474.65625 1073.601562 473.820312 1077.792969 481.710938 1074.710938 C 481.710938 1074.710938 514.015625 1040.917969 544.75 992.230469 C 575.480469 943.539062 604.9375 879.835938 598.546875 819.246094 C 598.382812 817.691406 599.488281 813.824219 602.414062 808.722656 C 605.339844 803.617188 609.816406 797.214844 615.378906 789.820312 C 626.507812 775.03125 641.898438 756.121094 657.714844 733.472656 C 689.351562 688.175781 722.914062 628.015625 728.273438 556.121094 C 733.390625 487.472656 747.402344 425.570312 738.160156 361.304688 C 728.914062 297.035156 696.085938 230.871094 608.789062 154.667969 C 582.011719 131.292969 546.472656 107.480469 510.003906 106.414062 Z M 510.003906 106.410156 "/>
<path style=" stroke:none;fill-rule:nonzero;fill:rgb(0%,0%,0%);fill-opacity:1;" d="M 370.683594 1151.679688 C 356.746094 1194.105469 339.125 1232.046875 305.640625 1254.210938 C 272.152344 1276.375 222.125 1283.476562 141.742188 1262.445312 C 132.390625 1261.800781 137.246094 1266.480469 139.664062 1270.25 C 221.285156 1291.601562 283.988281 1291.667969 319.921875 1267.882812 C 355.855469 1244.101562 364.296875 1197.171875 378.417969 1154.1875 C 376.929688 1143.523438 373.632812 1149.160156 370.679688 1151.679688 Z M 370.683594 1151.679688 "/>
</g>
</svg>
