<?xml version="1.0" encoding="UTF-8" standalone="no"?>
<!-- Created with Inkscape (http://www.inkscape.org/) -->
<svg xmlns:inkscape="http://www.inkscape.org/namespaces/inkscape" xmlns:rdf="http://www.w3.org/1999/02/22-rdf-syntax-ns#" xmlns="http://www.w3.org/2000/svg" xmlns:sodipodi="http://sodipodi.sourceforge.net/DTD/sodipodi-0.dtd" xmlns:ns1="http://sozi.baierouge.fr" xmlns:cc="http://creativecommons.org/ns#" xmlns:xlink="http://www.w3.org/1999/xlink" xmlns:dc="http://purl.org/dc/elements/1.1/" id="svg2" sodipodi:docname="Ohr-hoeren2.svg" viewBox="0 0 446.72 641.51" version="1.1" inkscape:version="0.48.5 r10040">
  <title id="title3910">Ohr hören</title>
  <defs id="defs4">
    <radialGradient id="radialGradient3823" gradientUnits="userSpaceOnUse" cy="581.16" cx="240.04" gradientTransform="matrix(1.9346 .88436 -1.5326 3.3526 666.34 -1510.7)" r="109.41" inkscape:collect="always">
      <stop id="stop3805" style="stop-color:#c2a492" offset="0"/>
      <stop id="stop3815" style="stop-color:#c3ac9c;stop-opacity:.79245" offset=".076840"/>
      <stop id="stop3813" style="stop-color:#b49e90;stop-opacity:.63679" offset=".21355"/>
      <stop id="stop3811" style="stop-color:#d4bca9;stop-opacity:.38365" offset=".39379"/>
      <stop id="stop3807" style="stop-color:#f0dbcc;stop-opacity:0" offset="1"/>
    </radialGradient>
  </defs>
  <sodipodi:namedview id="base" bordercolor="#666666" inkscape:pageshadow="2" inkscape:window-y="198" fit-margin-left="0" pagecolor="#ffffff" fit-margin-top="0" inkscape:window-maximized="0" inkscape:zoom="0.35" inkscape:window-x="219" inkscape:window-height="959" showgrid="false" borderopacity="1.0" inkscape:current-layer="layer2" inkscape:cx="-57.899229" inkscape:cy="320.41816" fit-margin-right="0" fit-margin-bottom="0" inkscape:window-width="1745" inkscape:pageopacity="0.0" inkscape:document-units="px"/>
  <g id="layer2" inkscape:label="Ebene2" inkscape:groupmode="layer" transform="translate(-172.98 -225.94)">
    <path id="path3768" sodipodi:nodetypes="csccsc" style="fill:#fbe9d8" inkscape:connector-curvature="0" d="m173.82 415.02c52.422 0 7.1164 173.22 29.468 280.19 7.0027 33.516 7.8571 142.34 7.8571 142.34-14.544 13.381-29.087 39.572-43.631 39.052 0 0 16.199-148.64 15.571-218.27-0.77607-85.977-9.2647-243.31-9.2647-243.31z"/>
    <path id="path2997-9" sodipodi:nodetypes="cssssssccsc" style="fill:#ffead6" inkscape:connector-curvature="0" d="m177.49 414.02s49.312-96.457 87.878-139.48c26.737-29.827 65.394-48.742 105.19-44.214 83.59 9.5098 146.14 37.515 158.01 169.41 11.086 123.15-66.942 231.87-82.02 262.68-13.903 28.409-4.4781 56.344-17.98 80.173-26.567 46.888-64.59 99.49-117.14 111.43-36.125 8.2069-105.71-34.286-105.71-34.286-1.7949-29.197 4.6788-38.781-0.57034-96.629 0 0-15.855-30.757-19.026-66.483-5.7097-64.334 7.3904-226.58-8.6286-242.6z"/>
    <path id="path3793" sodipodi:nodetypes="ccccscccscccccc" style="fill:url(#radialGradient3823)" inkscape:connector-curvature="0" d="m360 293.79c23.994-5.5778 26.012 55.61 21.632 89.51-71.603 11.827-77.25 26.298-77.346 30.49l32.929 6.5511c83.785-40.342 90.425 48.52 92.627 78.24 3.0606 41.303-10.76 104.66-61.27 122.61l-50.837 4.2857c-6.3877 15.266-12.775 34.477-19.163 39.74 2.9733 4.9555-34.332 42.924-61.602 20-19.416-16.322-33.514-42.094-14.199-77.316 14.061-26.161 36.58-46.514 43.694-75.454 2.0074-9.528-6.9942-46.598-28.153-79.163l52.28-38.326c21.529-47.679 29.732-63.961 40.837-86.883z"/>
    <path id="path2997" sodipodi:nodetypes="ssccssssssssssssccsssssssssssss" style="block-progression:tb;text-indent:0;color:#000000;text-transform:none;fill:#000000" inkscape:connector-curvature="0" d="m341.73 228.25c-35.266 1.0107-54.54 19.154-78.353 45.719-39.132 43.654-90.393 138.96-90.393 138.96-0.16414 10.843 4.9587 6.8822 9.3616 4.9375 0 0 51.286-95.475 89.286-137.87 26.26-29.295 59.481-47.042 98.263-42.629 41.578 4.7302 76.059 17.963 103.01 42.085 26.949 24.122 42.492 58.326 48.393 123.88 5.4868 60.949-11.813 116.33-31.714 162.51-19.901 46.182-41.56 77.813-49.353 93.737-7.2066 14.726-10.48 32.124-11.549 45.638-1.0694 13.514-1.0281 24.525-7.4286 35.821-26.451 46.684-59.585 96.744-110.76 108.37-16.737 3.8023-41.952-2.2478-63.679-11.763-7.6123-3.334-31.952-16.802-34.519-24.5-2.1393-6.4153-1.527-12.134-0.88365-19.656 5.1726-60.482-5.3827-70.906-5.3827-70.906 0.98894 38.954 0.0959 87.928-10.964 102.03 0 0-11.18 21.688-16.174 34.822-1.7563 4.6191 4.9734 6.7516 6.0998 7.939 1.653 1.7424 28.136-29.999 31.052-29.255 6.2263 1.5883 17.261 8.4101 26.861 12.615 22.1 9.679 49.746 14.338 69.134 9.933 53.927-12.251 92.161-68.483 118.84-115.58 7.1011-12.533 8.1181-25.956 9.1875-39.469s4.6791-24.661 11.375-38.344c7.2862-14.889 31.478-50.174 51.589-96.844s37.72-107.55 32.121-169.75c-5.9726-66.345-24.811-109.61-53-134.84-28.189-25.232-48.765-33.266-106.99-39.826-5.1028-0.57493-28.395 2.0878-33.433 2.2321z"/>
    <path id="path3767" sodipodi:nodetypes="sssccsccccssssssscsssssssssccssssssssscccsssssssccscccssssssssssccscsssssss" style="block-progression:tb;text-indent:0;color:#000000;text-transform:none;fill:#000000" inkscape:connector-curvature="0" d="m395.47 272.34c-2.2727-0.0666-4.5648 0.0697-6.8438 0.4375-12.586 2.0312-25.967 13.94-36.531 25.188-10.494 11.173-17.994 21.797-18.094 21.938-0.00066 0.00093-0.0625 0.0937-0.0625 0.0937-15.162 18.872-22.864 41.588-30.875 61.906-8.0232 20.35-16.344 38.144-32.25 47.688l-35.344 21.219-1.5625 0.9375 0.96875 1.5312s7.9951 12.441 15.75 28.312c7.7549 15.872 15.149 35.273 14.281 48.406-0.81307 12.312-12.047 29.043-23.875 45.688-11.828 16.644-24.173 33.195-26.594 47.062-2.6055 14.926-3.1423 29.032 0.6875 40.906 3.8298 11.875 12.198 21.419 26.719 26.719 15.873 5.7939 31.241 4.7409 44.469-5.625 13.02-10.203 23.934-29.161 32.188-58.844 8.2663 0.79647 18.636 0.17957 27.812-0.625 4.8628-0.42634 9.3614-0.87905 12.938-1.1875 3.5761-0.30845 6.4144-0.42687 7.1875-0.3125 5.5607 0.82263 12.455-2.878 20.312-9 7.8577-6.122 16.527-14.911 24.625-25.125 16.195-20.428 30.172-46.487 29.812-68.656-0.33602-20.742-3.1763-44.486-10.531-65.656-7.3549-21.171-19.274-39.861-37.875-50.031-7.7246-4.2234-19.188-1.3643-29.156 1.125-11.973 2.9899-20.763 8.0089-20.763 8.0089 0.40733 2.7341-1.7051 7.043 5.817 5.3304 0 0 7.8835-2.7508 17.406-5.6473 9.5228-2.8965 17.802 1.8628 23.58 5.0223 17.556 9.599 18.684 19.903 25.862 40.562 7.1774 20.66 8.9408 39.101 9.2723 59.562 0.33382 20.606-6.3848 46.004-22.277 66.049-7.946 10.022-11.117 15.398-18.674 21.286-7.557 5.8878-14.283 9.1641-17.625 8.6696-1.7745-0.26252-6.8744 1.0399-10.5 1.3527-3.6256 0.31272-5.9655 1.8356-10.795 2.2589-9.6583 0.84677-19.63 4.3859-27.522 3.4196l-1.5312-0.1875-0.40625 1.4688c-8.1892 30.104-20.095 47.674-32.384 57.304-12.289 9.6297-23.909 9.1357-38.982 3.6339-13.665-4.9877-20.271-11.689-23.817-22.683-3.5458-10.994-3.1476-23.874-0.59375-38.504 2.1403-12.262 12.397-28.951 24.246-45.625s23.565-33.346 24.5-47.5c0.96621-14.631-6.7692-34.109-14.625-50.188-7.1192-14.57-10.121-25.028-11.429-27.094l30.272-20.312c17.095-10.257 25.619-28.94 33.688-49.406 8.0689-20.466 15.706-42.836 30.406-61.094l0.0312-0.0312 0.0312-0.0625s7.5019-10.58 17.875-21.625 23.757-19.891 34.5-21.625c16.34-2.6371 30.078 8.4373 43.103 19.812 37.652 32.883 49.938 58.987 53.853 86.214 3.9146 27.228-1.7304 55.789-3.9866 86.067-2.2675 30.43-14.026 52.172-27.656 71.696-6.8153 9.7624-12.74 19.386-17.661 25.929-2.4603 3.2712-4.4856 6.1132-5.9062 8.5938s-3.0664 6.7385-2.8393 8.8929c2.6402 25.044-7.2646 50.146-20.469 71.076s-27.062 35.469-27.062 35.469c-0.51566 1.954-0.87988 3.7818 2.5625 2.4375 0 0 14.093-14.749 27.5-36s26.257-49.055 23.469-75.5c-0.0715-0.67845 0.41176-2.3662 1.6875-4.5938s3.2291-5.0228 5.6562-8.25c4.8544-6.4543 11.568-14.709 18.469-24.594 13.801-19.769 28.443-46.028 30.781-77.406 2.2328-29.963 8.3453-56.981 4.3125-85.031s-18.355-56.929-56.438-90.188c-11.682-10.202-27.185-20.596-43.094-21.062z"/>
    <path id="path3769" sodipodi:nodetypes="csccscc" style="block-progression:tb;text-indent:0;color:#000000;text-transform:none;fill:#000000" inkscape:connector-curvature="0" d="m334.69 728.56c-6.0803 18.516-13.767 35.076-28.375 44.75-14.608 9.6737-36.433 12.773-71.5 3.5938-4.0792-0.28099-1.9618 1.7617-0.90625 3.4062 35.607 9.3206 62.961 9.3487 78.637-1.032s19.359-30.863 25.519-49.624c-0.64841-4.6538-2.0873-2.1939-3.375-1.0938z"/>
  </g>
  <metadata>
    <rdf:RDF>
      <cc:Work>
        <dc:format>image/svg+xml</dc:format>
        <dc:type rdf:resource="http://purl.org/dc/dcmitype/StillImage"/>
        <cc:license rdf:resource="http://creativecommons.org/licenses/publicdomain/"/>
        <dc:publisher>
          <cc:Agent rdf:about="http://openclipart.org/">
            <dc:title>Openclipart</dc:title>
          </cc:Agent>
        </dc:publisher>
      </cc:Work>
      <cc:License rdf:about="http://creativecommons.org/licenses/publicdomain/">
        <cc:permits rdf:resource="http://creativecommons.org/ns#Reproduction"/>
        <cc:permits rdf:resource="http://creativecommons.org/ns#Distribution"/>
        <cc:permits rdf:resource="http://creativecommons.org/ns#DerivativeWorks"/>
      </cc:License>
    </rdf:RDF>
  </metadata>
</svg>
