<?xml version="1.0" encoding="UTF-8"?>
<svg xmlns="http://www.w3.org/2000/svg" xmlns:xlink="http://www.w3.org/1999/xlink" width="1024pt" height="1315pt" viewBox="0 0 1024 1315" version="1.1">
<defs>
<linearGradient id="linear0" gradientUnits="userSpaceOnUse" x1="180" y1="286.65" x2="107.14" y2="975.22" gradientTransform="matrix(1.608821,0,0,1.608614,184.167725,-335.802736)">
<stop offset="0" style="stop-color:rgb(93.333333%,93.333333%,93.333333%);stop-opacity:1;"/>
<stop offset="1" style="stop-color:rgb(66.666667%,66.666667%,66.666667%);stop-opacity:1;"/>
</linearGradient>
<radialGradient id="radial0" gradientUnits="userSpaceOnUse" cx="354.72" cy="417.9" fx="354.72" fy="417.9" r="132.14" gradientTransform="matrix(-0.0608746,3.078082,-1.64325,-0.0324634,1225.748849,-558.887525)">
<stop offset="0" style="stop-color:rgb(92.941176%,77.647059%,23.921569%);stop-opacity:1;"/>
<stop offset="0.52256" style="stop-color:rgb(93.72549%,64.705882%,7.058824%);stop-opacity:1;"/>
<stop offset="1" style="stop-color:rgb(95.686275%,28.235294%,0%);stop-opacity:1;"/>
</radialGradient>
<linearGradient id="linear1" gradientUnits="userSpaceOnUse" x1="214.29" y1="420.22" x2="208.58" y2="545.32" gradientTransform="matrix(1.608821,0,0,1.608614,184.167725,-335.802736)">
<stop offset="0" style="stop-color:rgb(93.333333%,93.333333%,93.333333%);stop-opacity:0.772549;"/>
<stop offset="1" style="stop-color:rgb(93.333333%,93.333333%,93.333333%);stop-opacity:0;"/>
</linearGradient>
<linearGradient id="linear2" gradientUnits="userSpaceOnUse" x1="214.29" y1="420.22" x2="208.58" y2="545.32" gradientTransform="matrix(1.608821,0,0,1.608614,184.167725,-335.802736)">
<stop offset="0" style="stop-color:rgb(93.333333%,93.333333%,93.333333%);stop-opacity:1;"/>
<stop offset="1" style="stop-color:rgb(93.333333%,93.333333%,93.333333%);stop-opacity:0;"/>
</linearGradient>
<linearGradient id="linear3" gradientUnits="userSpaceOnUse" x1="167.66" y1="642.36" x2="38.571" y2="1009" gradientTransform="matrix(1.608821,0,0,1.608614,186.466086,-335.802736)">
<stop offset="0" style="stop-color:rgb(93.333333%,93.333333%,93.333333%);stop-opacity:1;"/>
<stop offset="1" style="stop-color:rgb(93.333333%,93.333333%,93.333333%);stop-opacity:0;"/>
</linearGradient>
<linearGradient id="linear4" gradientUnits="userSpaceOnUse" x1="305" y1="649.7" x2="325.09" y2="649.7" gradientTransform="matrix(1.608821,0,0,1.608614,184.167725,-335.802736)">
<stop offset="0" style="stop-color:rgb(93.333333%,93.333333%,93.333333%);stop-opacity:0.843137;"/>
<stop offset="1" style="stop-color:rgb(93.333333%,93.333333%,93.333333%);stop-opacity:0;"/>
</linearGradient>
<linearGradient id="linear5" gradientUnits="userSpaceOnUse" x1="290.94" y1="629.86" x2="321.05" y2="629.86" gradientTransform="matrix(1.608821,0,0,1.608614,184.167725,-335.802736)">
<stop offset="0" style="stop-color:rgb(93.333333%,93.333333%,93.333333%);stop-opacity:1;"/>
<stop offset="1" style="stop-color:rgb(93.333333%,93.333333%,93.333333%);stop-opacity:0;"/>
</linearGradient>
<linearGradient id="linear6" gradientUnits="userSpaceOnUse" x1="305" y1="649.7" x2="325.09" y2="649.7" gradientTransform="matrix(1.823277,0,0,1.856018,-381.525829,-337.978225)">
<stop offset="0" style="stop-color:rgb(93.333333%,93.333333%,93.333333%);stop-opacity:0.843137;"/>
<stop offset="1" style="stop-color:rgb(93.333333%,93.333333%,93.333333%);stop-opacity:0;"/>
</linearGradient>
<linearGradient id="linear7" gradientUnits="userSpaceOnUse" x1="290.94" y1="629.86" x2="321.05" y2="629.86" gradientTransform="matrix(1.823277,0,0,1.856018,-381.525829,-337.978225)">
<stop offset="0" style="stop-color:rgb(93.333333%,93.333333%,93.333333%);stop-opacity:1;"/>
<stop offset="1" style="stop-color:rgb(93.333333%,93.333333%,93.333333%);stop-opacity:0;"/>
</linearGradient>
<linearGradient id="linear8" gradientUnits="userSpaceOnUse" x1="308.07" y1="430.74" x2="381.12" y2="430.74" gradientTransform="matrix(1.608821,0,0,1.608614,184.167725,-335.802736)">
<stop offset="0" style="stop-color:rgb(93.333333%,93.333333%,93.333333%);stop-opacity:1;"/>
<stop offset="1" style="stop-color:rgb(93.333333%,93.333333%,93.333333%);stop-opacity:0;"/>
</linearGradient>
</defs>
<g id="surface1">
<path style=" stroke:none;fill-rule:nonzero;fill:url(#linear0);" d="M 122.113281 433.242188 C 122.113281 433.242188 386.425781 394.175781 347.347656 302.253906 C 308.277344 210.335938 301.382812 178.164062 301.382812 178.164062 C 301.382812 178.164062 264.609375 -3.386719 351.945312 1.214844 C 439.285156 5.8125 503.636719 15.003906 505.933594 70.15625 C 508.230469 125.308594 510.53125 152.882812 515.125 166.671875 C 519.722656 180.460938 574.882812 212.632812 574.882812 212.632812 C 574.882812 212.632812 655.324219 265.484375 664.515625 258.589844 C 673.710938 251.695312 751.851562 210.332031 751.851562 210.332031 C 751.851562 210.332031 843.785156 166.671875 839.191406 249.398438 C 834.605469 332.113281 827.703125 366.585938 827.703125 366.585938 C 827.703125 366.585938 744.964844 646.953125 882.863281 649.238281 C 1020.761719 651.535156 1023.058594 722.773438 1023.058594 722.773438 C 1023.058594 722.773438 1046.042969 897.421875 864.476562 895.121094 C 682.90625 892.835938 613.953125 922.707031 593.277344 957.179688 C 572.589844 991.652344 522.023438 1062.898438 522.023438 1062.898438 C 522.023438 1062.898438 478.355469 1138.734375 476.058594 1209.972656 C 473.757812 1281.167969 23.289062 1444.28125 193.355469 1115.738281 C 363.441406 787.132812 209.449219 764.144531 209.449219 764.144531 C 209.449219 764.144531 -27.269531 791.722656 2.605469 695.203125 C 32.480469 598.6875 129.011719 617.074219 129.011719 617.074219 C 129.011719 617.074219 184.171875 637.753906 170.378906 600.984375 C 156.589844 564.230469 16.386719 442.425781 122.117188 433.238281 Z M 122.113281 433.242188 "/>
<path style=" stroke:none;fill-rule:nonzero;fill:url(#radial0);" d="M 730.023438 552.730469 C 730.023438 672.664062 634.84375 769.890625 517.433594 769.890625 C 400.023438 769.890625 304.84375 672.664062 304.84375 552.730469 C 304.84375 432.792969 400.023438 335.566406 517.433594 335.566406 C 634.84375 335.566406 730.023438 432.792969 730.023438 552.730469 Z M 730.023438 552.730469 "/>
<path style=" stroke:none;fill-rule:nonzero;fill:url(#linear1);" d="M 515.988281 348.226562 C 460.058594 348.226562 413.019531 378.03125 399.675781 418.402344 C 420.65625 386.445312 466.253906 364.3125 519.164062 364.3125 C 562.117188 364.3125 600.25 378.917969 624.316406 401.511719 C 604.988281 369.996094 563.773438 348.226562 515.988281 348.226562 Z M 515.988281 348.226562 "/>
<path style=" stroke:none;fill-rule:nonzero;fill:url(#linear2);" d="M 519.703125 395.3125 C 496.894531 395.3125 475.429688 399.820312 456.707031 407.777344 L 455.351562 421.753906 L 438.105469 436.683594 C 438.105469 436.683594 428.925781 453.898438 424.332031 441.257812 C 422.882812 437.277344 419.25 435.828125 414.980469 435.679688 C 397.808594 453.128906 387.578125 474.984375 387.578125 498.714844 C 387.578125 512.421875 390.996094 525.507812 397.183594 537.472656 C 463.992188 541.941406 554.625 544.324219 643.476562 535.011719 C 648.878906 523.726562 651.871094 511.480469 651.871094 498.71875 C 651.871094 489.191406 650.179688 479.980469 647.097656 471.21875 L 646.140625 471.171875 L 633.472656 458.503906 L 623.113281 475.746094 L 615.070312 458.503906 L 601.296875 465.390625 L 593.25 457.347656 L 592.09375 439 L 576.007812 441.261719 L 579.476562 417.132812 L 556.5 411.398438 L 555.242188 399.132812 C 543.933594 396.65625 532.027344 395.304688 519.703125 395.304688 Z M 519.703125 395.3125 "/>
<path style=" stroke:none;fill-rule:nonzero;fill:url(#linear3);" d="M 158.886719 513.675781 C 158.886719 513.675781 126.710938 474.605469 170.378906 460.820312 C 214.046875 447.035156 248.519531 458.519531 248.519531 458.519531 C 248.519531 458.519531 280.695312 488.394531 273.800781 499.882812 C 266.90625 511.375 250.816406 561.929688 262.308594 587.207031 C 273.800781 612.496094 328.960938 702.113281 328.960938 702.113281 C 328.960938 702.113281 466.859375 938.804688 662.210938 759.5625 C 850.925781 654.753906 696.46875 507.621094 754.144531 495.28125 C 820.453125 518.679688 777.128906 665.328125 795.515625 697.5 C 813.902344 729.671875 813.902344 775.632812 829.988281 787.125 C 846.078125 798.613281 820.796875 872.148438 765.636719 867.554688 C 710.476562 862.957031 597.851562 853.765625 590.96875 888.238281 C 584.074219 922.707031 545.003906 993.945312 528.914062 1014.625 C 512.824219 1035.308594 450.773438 1214.5625 413.996094 1228.347656 C 377.234375 1242.148438 296.792969 1297.277344 266.917969 1285.855469 C 237.039062 1274.273438 239.335938 1216.878906 285.304688 1205.390625 C 331.269531 1193.890625 372.632812 1182.40625 393.324219 1145.632812 C 414.007812 1108.863281 432.394531 1056.011719 434.691406 1028.433594 C 436.992188 1000.855469 443.886719 954.898438 427.796875 929.617188 C 411.710938 904.339844 384.128906 918.128906 377.234375 945.703125 C 370.339844 973.28125 365.742188 1021.539062 347.355469 1049.117188 C 328.96875 1076.703125 289.898438 1124.960938 273.808594 1127.261719 C 257.71875 1129.558594 211.753906 1152.539062 218.648438 1129.558594 C 225.542969 1106.578125 241.632812 1079.003906 260.019531 1056.023438 C 278.40625 1033.042969 289.894531 1012.359375 294.492188 996.273438 C 318.871094 942.597656 311.132812 941.050781 317.476562 897.460938 C 317.476562 897.460938 305.984375 800.941406 301.386719 782.558594 C 296.792969 764.171875 296.792969 743.484375 276.109375 722.8125 C 255.421875 702.128906 257.71875 699.828125 214.050781 711.3125 C 170.382812 722.800781 161.191406 738.890625 131.3125 718.207031 C 101.433594 697.523438 57.765625 667.648438 87.644531 644.671875 C 117.519531 621.691406 151.996094 630.882812 168.085938 635.476562 C 184.171875 640.074219 195.664062 651.5625 211.753906 637.777344 C 227.839844 623.988281 237.035156 610.199219 225.542969 589.519531 L 158.890625 513.683594 Z M 158.886719 513.675781 "/>
<path style=" stroke:none;fill-rule:nonzero;fill:rgb(93.333333%,93.333333%,93.333333%);fill-opacity:1;" d="M 386.414062 350.511719 C 386.414062 350.511719 443.871094 267.78125 542.699219 306.851562 L 503.625 260.890625 L 531.207031 240.207031 L 471.449219 231.015625 C 471.449219 231.015625 423.183594 237.910156 462.257812 219.527344 L 501.328125 201.140625 L 457.679688 182.738281 L 482.957031 157.46875 C 482.957031 157.46875 499.042969 139.082031 473.761719 136.785156 C 448.480469 134.488281 407.109375 106.910156 393.320312 106.910156 C 379.53125 106.910156 312.878906 171.257812 312.878906 171.257812 L 363.445312 180.449219 C 363.445312 180.449219 342.757812 189.640625 340.460938 196.535156 C 338.164062 203.429688 374.9375 299.945312 374.9375 299.945312 C 374.9375 299.945312 388.726562 302.242188 386.425781 350.503906 Z M 386.414062 350.511719 "/>
<path style=" stroke:none;fill-rule:nonzero;fill:rgb(99.215686%,79.215686%,0.392157%);fill-opacity:1;" d="M 711.636719 684.863281 C 711.636719 703.902344 697.746094 719.332031 680.609375 719.332031 C 663.460938 719.347656 649.574219 703.917969 649.574219 684.867188 C 649.574219 665.832031 663.464844 650.398438 680.601562 650.398438 C 697.738281 650.398438 711.628906 665.832031 711.628906 684.867188 Z M 711.636719 684.863281 "/>
<path style=" stroke:none;fill-rule:nonzero;fill:rgb(66.666667%,66.666667%,66.666667%);fill-opacity:1;" d="M 720.828125 686.589844 C 720.828125 707.214844 705.394531 723.933594 686.355469 723.933594 C 667.296875 723.949219 651.871094 707.234375 651.871094 686.597656 C 651.871094 665.972656 667.304688 649.253906 686.34375 649.253906 C 705.382812 649.253906 720.820312 665.972656 720.820312 686.597656 Z M 720.828125 686.589844 "/>
<path style=" stroke:none;fill-rule:nonzero;fill:url(#linear4);" d="M 675.117188 699.292969 C 674.96875 700.210938 674.863281 701.144531 674.863281 702.105469 C 674.863281 711.625 682.304688 719.351562 691.503906 719.351562 C 698.738281 719.351562 704.886719 714.550781 707.191406 707.886719 C 696.164062 705.695312 685.136719 702.546875 675.113281 699.292969 Z M 675.117188 699.292969 "/>
<path style=" stroke:none;fill-rule:nonzero;fill:url(#linear5);" d="M 675.46875 661.28125 C 670.097656 661.375 664.519531 662.257812 659.332031 663.441406 C 655.628906 668.503906 653.117188 674.589844 652.242188 681.289062 C 669.585938 683.558594 690.402344 693.503906 690.402344 693.503906 C 690.402344 693.503906 711.058594 678.542969 693.820312 665.90625 C 688.972656 662.351562 682.417969 661.15625 675.46875 661.28125 Z M 675.46875 661.28125 "/>
<path style=" stroke:none;fill-rule:nonzero;fill:rgb(66.666667%,66.666667%,66.666667%);fill-opacity:1;" d="M 226.699219 841.738281 C 226.699219 865.539062 209.207031 884.828125 187.628906 884.828125 C 166.03125 884.84375 148.542969 865.558594 148.542969 841.746094 C 148.542969 817.949219 166.035156 798.65625 187.617188 798.65625 C 209.195312 798.65625 226.6875 817.949219 226.6875 841.746094 Z M 226.699219 841.738281 "/>
<path style=" stroke:none;fill-rule:nonzero;fill:url(#linear6);" d="M 174.875 856.355469 C 174.710938 857.417969 174.589844 858.496094 174.589844 859.605469 C 174.589844 870.589844 183.023438 879.5 193.453125 879.5 C 201.648438 879.5 208.617188 873.964844 211.230469 866.277344 C 198.730469 863.746094 186.234375 860.113281 174.875 856.355469 Z M 174.875 856.355469 "/>
<path style=" stroke:none;fill-rule:nonzero;fill:url(#linear7);" d="M 175.273438 812.507812 C 169.1875 812.617188 162.867188 813.636719 156.984375 815 C 152.789062 820.839844 149.941406 827.863281 148.949219 835.589844 C 168.605469 838.210938 192.195312 849.683594 192.195312 849.683594 C 192.195312 849.683594 215.605469 832.425781 196.070312 817.839844 C 190.578125 813.738281 183.148438 812.363281 175.273438 812.503906 Z M 175.273438 812.507812 "/>
<path style=" stroke:none;fill-rule:nonzero;fill:url(#linear8);" d="M 680.601562 345.910156 C 680.601562 345.910156 715.078125 483.792969 774.832031 359.699219 C 834.589844 235.605469 751.847656 352.804688 751.847656 352.804688 C 751.847656 352.804688 735.761719 396.46875 680.601562 345.910156 Z M 680.601562 345.910156 "/>
</g>
</svg>
