<?xml version="1.0" encoding="UTF-8" standalone="no"?>
<!-- Created with Inkscape (http://www.inkscape.org/) -->

<svg
   xmlns:dc="http://purl.org/dc/elements/1.1/"
   xmlns:cc="http://creativecommons.org/ns#"
   xmlns:rdf="http://www.w3.org/1999/02/22-rdf-syntax-ns#"
   xmlns:svg="http://www.w3.org/2000/svg"
   xmlns="http://www.w3.org/2000/svg"
   xmlns:sodipodi="http://sodipodi.sourceforge.net/DTD/sodipodi-0.dtd"
   xmlns:inkscape="http://www.inkscape.org/namespaces/inkscape"
   id="svg2"
   sodipodi:docname="elephant.svg"
   inkscape:export-filename="F:\Mis Documentos (1)\Vector\My OCALs\Elephant.png"
   viewBox="0 0 900 817"
   inkscape:export-xdpi="90"
   version="1.1"
   inkscape:export-ydpi="90"
   inkscape:version="0.91 r13725">
  <defs
     id="defs13" />
  <sodipodi:namedview
     id="base"
     bordercolor="#666666"
     inkscape:pageshadow="2"
     inkscape:window-y="24"
     fit-margin-left="0"
     pagecolor="#ffffff"
     fit-margin-top="0"
     inkscape:window-maximized="1"
     inkscape:zoom="0.62668299"
     inkscape:window-x="65"
     inkscape:window-height="1056"
     showgrid="false"
     borderopacity="1.0"
     inkscape:current-layer="layer2"
     inkscape:cx="-237.74804"
     inkscape:cy="280.84375"
     fit-margin-right="0"
     fit-margin-bottom="0"
     inkscape:window-width="1855"
     inkscape:pageopacity="0.0"
     inkscape:document-units="px" />
  <g
     id="layer2"
     inkscape:label="Elephant"
     inkscape:groupmode="layer">
    <path
       id="path2999"
       sodipodi:nodetypes="csccccccccsscccsscccscsccscccccccccccccccccccccccccccccccccccccccccc"
       style="fill-opacity:1;color:#000000;stroke:#666666;stroke-width:3;fill:#bebebe"
       inkscape:connector-curvature="0"
       d="m780.81 434.5s33.63-93.973 29.901-142.73c-3.8264-50.035-86.194-180.88-137.09-180.53 0 0-31.613-30.046-59.802-31.593-35.596-1.9543-61.221 15.674-85.753 9.5908 0 0-93.087-28.208-118.47-24.259 0 0-33.286-24.259-67.7 5.0775 0 0-27.08 14.104-37.235 20.31-6.5463 0-66.206 18.617-70.521 21.438 0 0-45.133-5.0775-67.136 21.438 0 0-29.337 35.542-35.348 48.68 0 0-21.542 14.361-22.34 50.265 0 0-11.968 57.445-25.531 69.413 0 0-19.148 37.499-24.733 100.53 2.3783 60.226 18.922 108.44 50.535 142.32 32.788 35.141 90.263 47.053 120.21 2.0925 10.355-26.964-7.7386-45.035-24.12-46.101s-33.619 10.045-32.745 24.334c0.61651 10.073 12.13 5.9238 12.13 5.9238 3.385-6.77 10.437-1.6925 10.437-1.6925 5.6417 0.56417 7.6162-3.1029 7.6162-3.1029 8.6737 11.615-0.33962 16.837-12.374 15.804-12.035-1.0333-27.091-8.3219-32.759-13.829-38.183-37.098-29.149-105.18-21.438-122.14 13.119 6.5539 17.315-10.167 20.25-16.77 23.055 9.3618 47.568-22.662 63.03-21.941 33.71 1.5718 83.774-29.521 83.774-29.521 4.4522 12.943 15.171 125.78 15.171 125.78-2.8208 10.719-45.697 119.6-45.697 119.6-28.772 29.901-38.363 128.63-38.363 128.63-1.6925 7.8983-24.259 31.029-24.259 31.029-19.746 7.3342-6.77 22.567-6.77 22.567 41.748 29.337 94.78 20.874 94.78 20.874 15.797-12.412 3.9492-24.823 3.9492-24.823-0.56417-37.799 5.0775-60.93 5.0775-60.93 3.385-38.363 38.363-101.55 38.363-101.55 1.1283 10.155 29.901 129.76 29.901 129.76 3.9492 7.3342-16.925 26.516-16.925 26.516-34.414 16.925-0.56417 29.901-0.56417 29.901 23.695 6.2058 90.831 3.9492 90.831 3.9492 10.155 0 9.0267-18.617 9.0267-18.617-3.9492-7.8983-10.155-20.874-10.155-20.874 2.8208-21.438-10.719-95.344-10.719-95.344-7.8983-18.053-10.719-46.262-10.719-46.262l-6.2058-81.804c15.797-18.053 34.414-84.625 34.414-84.625 24.259 23.695 113.96 38.927 113.96 38.927 11.283 19.182 50.211 17.489 50.211 17.489 0.56416 28.208 31.029 18.617 31.029 18.617 1.6925 16.361 11.283 56.981 11.283 56.981 6.77 22.567-9.0267 90.267-9.0267 90.267-12.976 21.438-14.104 53.596-14.104 53.596-2.2567 17.489-25.952 50.211-25.952 50.211-15.232 16.361 3.385 22.002 3.385 22.002 27.644 7.3342 82.932 1.6925 82.932 1.6925 27.644-1.1283 1.1283-50.775 1.1283-50.775 5.5314-11.847 11.849-56.981 9.5908-56.981 1.6925-12.976 21.438-96.472 21.438-96.472 10.719 17.489 39.492 120.17 39.492 120.17 2.2567 13.54-3.9492 33.85-3.9492 33.85-31.029 15.797-10.155 34.414-10.155 34.414 79.547 16.361 99.293-18.053 99.293-18.053 11.847-18.617 0-33.286 0-33.286-5.0775-14.104-14.104-24.259-14.104-24.259 3.385-31.593-25.387-67.136-25.387-67.136-14.104-21.438-27.644-89.702-27.644-89.702-2.2567-27.08-15.232-84.061-15.232-84.061 3.385-9.5908 7.8983-24.259 7.8983-24.259z" />
    <path
       id="path3831"
       sodipodi:nodetypes="sscssccsssssscssccssssscsscscs"
       style="fill:#666666"
       inkscape:connector-curvature="0"
       d="m225.44 774.99c-3.187-1.3053-11.171-5.2462-13.395-6.6116l-1.1546-0.70894 0.72162-2.376c0.73548-2.4217 3.4717-1.538 4.4678-2.4774 1.0175-0.95965 1.1972-1.0284 1.9769-0.7566 0.47173 0.16445 1.3254 0.29851 1.8971 0.29792 1.1115-0.001 2.9156-0.92153 2.9156-1.4874 0-0.18832 0.39737 0.25754 0.88304 0.99077 1.8411 2.7796 6.0209 6.0656 10.196 8.0157 3.6728 1.7156 5.5648 2.131 9.7042 2.1308 3.0767-0.00012 3.8845-0.101 5.4844-0.68478 1.0319-0.37655 2.3629-1.0057 2.9577-1.3982l1.0814-0.71354 1.2654 1.1664c1.8355 1.6919 4.1402 3.1497 6.1085 3.864 2.2389 0.81243 5.5392 0.88303 7.3132 0.15643 0.69454-0.28446 1.2956-0.4793 1.3356-0.43297 0.04 0.0464 0.34894 0.63181 0.6864 1.301 0.71353 1.415 2.5704 3.285 4.2202 4.2498 0.63504 0.37138 2.1256 0.96369 3.3124 1.3162 2.7948 0.83023 6.6879 0.64906 8.5224-0.2121 1.3863-0.65077 1.1045-0.85007 0.28321-3.7663-0.39946-1.4184-0.69451-2.258-0.65569-2.6495 0.32088-0.17984 2.0664 0.23858 3.0405 0.87504 2.1593 1.4109 3.8155 3.3366 4.9756 5.7854l0.87373 3.9386-2.2381 0.18878c-4.2124 0.35531-15.802-0.40631-26.442-1.4646-10.641-1.0582-26.082-2.6987-40.337-8.537z" />
    <g
       id="g2995">
      <path
         id="path3028"
         d="m58.443 402.62c-17.269-4.3759-0.47928-25.715 3.5903-29.022z"
         sodipodi:nodetypes="ccc"
         style="color:#000000;stroke:#aaaaaa;stroke-width:2;fill:#ffffff"
         inkscape:connector-curvature="0" />
      <path
         id="path3025"
         d="m137.23 406.99c1.0701-33.9 14.602-45.272 29.196-38.927-9.5368 24.242-17.936 43.18-29.196 38.927z"
         sodipodi:nodetypes="ccc"
         style="color:#000000;stroke:#aaaaaa;stroke-width:2;fill:#ffffff"
         inkscape:connector-curvature="0" />
    </g>
    <path
       id="path3060"
       sodipodi:nodetypes="sccsssssccscscssccccssscsscccssssssccsscccccsssssccscsssscsssccsscscsscssccccccsccccsccsscccsscsscccsccssccccsccccccccscscscssccccscccsccsscccscccsscsscccscsscscsccccsscccsccsccsccscsssscsssccsscsscscccsscccssscccssssccccsscccsccccscccsscccccssssccsscsccccccsccccscccsscsssccssscscccsccscccccsccsscsscccscccssccccccssscccsssscccccccccccccccssssscscsssssccsssscccssssssccccccccscscccscscccccssccssccccssssccssccsccsscssscccsscscccsscccsscssssscccccssccssssscssccccsscccscccscccccsssssscccccccccccsccsccccscssscccsscscccsccscccsscsssccsscccccscccsccccccscccsscssssccssscscccsccccscsscccccccsccccssscccsscsccsssccsccccssccssscsccssccsscccccccccsscccssccccsscsscsccccssccscccscssccsscccscccscccccscscsscccsscccsscccccssccscccscccscccssccsccsscccscc"
       style="block-progression:tb;text-indent:0;color:#000000;text-transform:none;fill:#333333"
       inkscape:connector-curvature="0"
       d="m378.41 52.562c-11.437 0.06664-24.825 3.7299-38.125 14.938-0.3964 0.20623-26.123 13.605-36.719 20.031-1.2468 0.1075-2.451 0.26483-4.3125 0.6875-2.3345 0.53007-5.2468 1.2859-8.5625 2.1875-6.6313 1.8031-14.871 4.2393-23.031 6.75-8.1598 2.5107-16.22 5.0942-22.562 7.25-3.1713 1.0779-5.9204 2.0443-8.0312 2.8438-1.5784 0.59778-2.4418 1.0378-3.4062 1.5312-2.3544-0.26841-46.182-4.9302-68.969 22.531 0 0-7.3774 8.9239-15.5 19.5-7.9075 10.296-16.37 21.829-19.906 29.188-0.97066 0.6914-5.7832 4.2234-11 11.906-5.7287 8.4368-11.459 21.489-11.938 39.844-0.0598 0.28598-2.9949 14.223-7.5938 29.781-2.3231 7.859-5.0764 16.074-8.0312 22.969-2.9549 6.8947-6.2753 12.495-8.9375 14.844l-0.40625 0.375-0.28125 0.5s-13.222 26.03-21 70.906c-1.0696 1.3972-2.5581 3.1328-4.1562 5.0312-2.309 2.7427-4.8224 5.7964-6.6562 9.0938-1.8339 3.2974-3.1247 7.0317-2.0312 10.844 1.0182 3.55 4.101 6.4176 8.9062 8.4062 2.7196 59.667 19.394 107.86 51.219 141.97 16.875 18.086 40.024 30.211 63.125 32.031 23.101 1.8207 46.251-6.9936 61.781-30.312l0.1875-0.28125 0.125-0.3125c5.4674-14.237 3.4562-26.652-2.3438-35.469-5.7999-8.817-15.191-14.088-24.406-14.688-8.9326-0.58129-17.903 2.0818-24.75 6.9375-6.8471 4.8557-11.67 12.171-11.156 20.562 0.18967 3.0991 1.343 5.6522 3.1562 7.25s4.008 2.17 5.9062 2.3125c3.7964 0.2849 7.0625-1 7.0625-1l1.125-0.40625 0.53125-1.0625c0.59283-1.1857 1.0869-1.5015 1.5312-1.6875 0.44436-0.18601 1.0274-0.22775 1.7188-0.0937 1.3826 0.2676 2.75 1.1875 2.75 1.1875l0.65625 0.46875 0.8125 0.0625c3.0974 0.30975 5.4633-0.51154 7.1875-1.5312 0.66064 1.292 1.0858 2.4236 1.1562 3.2188 0.11677 1.3177-0.19168 1.9861-0.96875 2.75-1.5542 1.5278-6.0692 2.7869-11.594 2.3125-11.049-0.94871-26.193-8.421-30.906-13-18.349-17.827-25.511-43.344-27.031-66.656-1.3944-21.383 2.1159-40.536 5.3438-49.438 2.6384 0.7394 5.1627 0.75702 7.375 0.0312 3.0928-1.0144 5.4012-3.2204 7.1562-5.625 2.8263-3.8722 4.4119-8.2132 5.6562-11.438 11.991 3.3188 23.86-2.4655 34.156-8.8125 5.5653-3.4306 10.784-7.0662 15.438-9.7188 4.6538-2.6526 8.7034-4.1929 11.5-4.0625 17.843 0.832 38.986-6.7748 55.906-14.438 13.278-6.0133 21.994-11.041 25.969-13.406 0.34492 1.5634 0.62496 2.4948 1.0312 4.9375 0.70991 4.2682 1.4684 9.7274 2.2812 15.906 1.6257 12.358 3.3832 27.662 5 42.562 3.131 28.856 5.6514 54.914 5.8125 56.594-0.0947 0.60959-0.19324 1.2137-0.28125 1.8125-0.9862 3.1393-3.8238 11.023-7.75 21.438-4.4103 11.699-10.028 26.318-15.562 40.594-10.993 28.358-21.512 55.041-21.656 55.406-15.099 16.204-24.286 48.099-30.25 76.375-5.9687 28.299-8.3551 52.57-8.4062 53.094-0.1998 0.93239-1.7339 3.9052-4 7.0625s-5.2026 6.7186-8.0938 10.062c-5.5998 6.4769-10.695 11.686-11.031 12.031-4.9072 1.9544-8.2267 4.5078-10.125 7.5-1.9998 3.1522-2.2878 6.6362-1.8125 9.5312 0.9506 5.79 4.6875 9.9688 4.6875 9.9688l0.25 0.3125 0.3125 0.21875c42.948 30.18 96.969 21.375 96.969 21.375l0.78125-0.125 0.625-0.46875c8.5668-6.7311 10.153-14.481 8.9688-20.062-0.92117-4.3426-2.8812-6.9059-3.875-8.0938-0.45265-36.915 4.9688-59.25 4.9688-59.25l0.0625-0.21875 0.0312-0.25c1.6256-18.424 11.076-43.722 20.188-64.188 5.8-13.028 10.488-22.252 13.812-28.594 0.01 0.0464 0.0215 0.0471 0.0312 0.0937 0.89989 4.2667 2.1326 9.7653 3.5625 16.094 2.8597 12.657 6.5506 28.566 10.219 44.156 7.3364 31.18 14.531 61.094 14.531 61.094l0.0937 0.375 0.1875 0.34375c0.20546 0.38157 0.19129 2.0319-1.0312 4.5s-3.3455 5.4317-5.625 8.1875c-4.4316 5.3576-9.1958 9.7789-9.4688 10.031-8.5381 4.2784-13.403 8.4107-15.5 12.938-2.1455 4.6315-0.72347 9.3673 1.7812 12.594 5.0094 6.4528 13.906 9.5625 13.906 9.5625l0.15625 0.0312 0.1875 0.0625c12.605 3.3014 35.179 4.1939 55 4.4062 19.708 0.21115 36.371-0.36859 36.562-0.375 0.0425 0 0.0826 0.00054 0.125 0 3.399-0.0436 6.2494-1.8242 7.9688-4.0938 1.7408-2.2979 2.6397-5.0113 3.1875-7.5938 1.0956-5.165 0.75-10.094 0.75-10.094l-0.0312-0.625-0.28125-0.53125c-3.8006-7.6011-9.4434-19.416-9.8125-20.188 1.3119-12.035-1.3742-34.782-4.3438-55.5-3.0421-21.224-6.4375-39.75-6.4375-39.75l-0.05-0.32-0.15-0.31c-7.53-17.21-10.46-45.18-10.47-45.28v-0.0625l-6.0938-80.312c1.2582-1.4462 2.4223-2.8896 3.4688-4.3125l-0.38-0.29c7.2596-11.041 14.1-28.578 19.75-44.688 5.3008-15.113 8.6292-26.379 10.062-31.344 14.334 11.332 40.204 19.778 63.719 26.031 24.53 6.5231 45.148 10.098 46.938 10.406 6.6929 10.002 19.477 14.228 30.531 16.188 8.9525 1.5865 15.521 1.6351 18.656 1.5938 0.61658 6.0615 2.6241 10.706 5.6562 13.875 3.5184 3.6769 8.0886 5.3396 12.375 5.9688 5.7356 0.84192 10.232 0.0633 13.25-0.625 2.387 18.248 10.844 54.062 10.844 54.062l0.0312 0.0937 0.0312 0.0937c2.9632 9.8773 0.98938 32.63-2.0938 52.25-3.0474 19.393-6.8483 35.835-6.9375 36.219-13.109 22.189-14.194 53.307-14.219 54.125-0.00008 0.002-0.0312 0.0606-0.0312 0.0625-1.0124 7.6639-7.2595 20.222-13.375 30.438-6.1309 10.241-12 18.344-12 18.344l0.0312 0.0312c-3.8805 4.2482-5.9679 8.0833-6.4688 11.656-0.51341 3.6624 0.73519 6.8452 2.5 9.0625 3.5296 4.4346 8.875 5.875 8.875 5.875l0.0625 0.0312h0.0625c14.486 3.8431 35.292 4.1845 52.688 3.6875 17.218-0.49195 30.846-1.8779 31.125-1.9062 0.003-0.00029 0.1875 0 0.1875 0v-0.0312c7.7104-0.38883 12.745-4.8267 14.406-10.531 1.6759-5.7549 0.77579-12.439-0.875-18.969-3.0462-12.05-8.5599-22.677-9.4688-24.406 2.9687-7.2032 5.5453-20.135 7.4375-32.281 1.003-6.4383 1.7543-12.499 2.125-17.031 0.18533-2.2663 0.28789-4.1299 0.25-5.5938-0.0189-0.73191-0.0568-1.3557-0.21875-2.0625-0.0176-0.0768-0.10432-0.19983-0.125-0.28125 0.9312-6.4564 6.1187-29.955 11.156-51.969 4.1439-18.108 6.6911-28.984 8.0938-34.938 2.0512 4.8093 4.3857 10.697 6.9375 18.031 4.1837 12.025 8.7712 26.468 13.031 40.375 8.4802 27.683 15.589 53.074 15.656 53.312 0.96931 6.0728 0.0698 14.242-1.1562 20.781-1.1206 5.9767-2.2253 9.6199-2.4688 10.438-7.3021 3.9187-11.993 8.0987-14.625 12.438-2.7908 4.6003-3.2303 9.3278-2.4375 13.25 1.57 7.86 7.52 12.95 7.52 12.95l0.59375 0.53125 0.78125 0.15625c40.228 8.2739 65.739 3.7564 81.281-3.0938 7.7709-3.4251 13.047-7.4293 16.375-10.625 3.2025-3.0748 4.6386-5.4699 4.75-5.6562h0.0312l0.0625-0.125c6.2784-9.9438 6.379-19.25 4.75-25.844-1.524-6.1688-4.3408-9.8779-4.75-10.406-4.9303-13.369-12.438-22.31-13.656-23.719 1.3537-16.411-5.0711-33.094-11.812-45.875-6.78-12.854-13.851-21.628-14.125-21.969-0.0211-0.0321-0.0414-0.0926-0.0625-0.125-6.4736-9.9156-13.55-32.291-18.656-51.875-5.1226-19.648-8.4688-36.656-8.4688-36.656-2.3463-27.435-14.739-81.896-15.062-83.312 0.27499-0.78908 0.55948-1.6965 0.84375-2.5312 3.2028-9.4053 6.8125-21 6.8125-21 0.071-0.19855 8.4331-23.597 16.375-53.188 7.9757-29.716 15.553-65.446 13.625-90.656-2.03-26.45-23.8-71.44-51.44-110.65-13.82-19.61-29.1-37.65-44.31-50.88-14.76-12.844-29.428-21.286-43.094-21.688-1.1234-1.0504-8.1272-7.5343-18.875-14.781-11.645-7.8517-26.906-16.078-42-16.906-18.33-1.0064-34.007 3.0408-47.906 6.4375-13.836 3.3813-25.799 6.0389-37.125 3.2812 0 0-0.15505-0.03089-0.15625-0.03125-0.23549-0.07133-23.32-7.0468-49.719-13.594-13.267-3.2902-27.332-6.4841-39.75-8.5938-11.819-2.008-21.905-3.075-29.031-2.2188-1.3833-0.95901-8.9605-6.0391-21.094-8.3438-3.3242-0.63142-6.9367-1.0224-10.781-1zm0.0312 5.9688c3.4169 0.000365 6.6689 0.33881 9.6562 0.90625 11.95 2.2697 19.719 7.9688 19.719 7.9688l1 0.71875 1.2188-0.1875c5.5358-0.86112 16.105 0.05633 28.281 2.125s26.134 5.2005 39.312 8.4688c26.357 6.5365 49.562 13.562 49.562 13.562l0.0625 0.03125h0.0937c13.16 3.2635 26.21 0.18943 40.156-3.2188s28.891-7.2292 46.156-6.2812c13.094 0.71891 27.728 8.3169 38.938 15.875 11.209 7.5581 18.969 14.906 18.969 14.906l0.875 0.84375 1.1875-0.0312c11.434-0.0784 25.704 7.5465 40.375 20.312s29.761 30.496 43.375 49.812c27.228 38.633 48.54 84.072 50.344 107.66 1.801 23.551-5.5618 59.165-13.469 88.625-7.907 29.46-16.281 52.875-16.281 52.875v0.0625l-0.0312 0.0625s-3.5728 11.509-6.7188 20.75c0 0-10.021 28.377-20.469 59.719-5.2237 15.671-10.568 32.086-14.812 46.094-2.3194 7.6539-4.301 14.504-5.7812 20.219l-0.8125-1.3438-1.6562 7.0625s-4.9427 20.897-10.094 43.406c-5.151 22.509-10.473 46.222-11.406 53.375l-0.4375 3.375h0.84375c-0.009 1.0581-0.045 2.258-0.1875 4-0.35166 4.3002-1.1082 10.268-2.0938 16.594-1.971 12.652-5.1356 27.128-7.4688 32.125l-0.625 1.375 0.6875 1.3125s6.5172 12.235 9.5625 24.281c1.5226 6.0229 2.0648 11.973 0.9375 15.844-1.1273 3.8712-3.098 6.0053-9.0938 6.25h-0.0937-0.0937s-13.715 1.416-30.875 1.9062c-2.3187 0.0662-4.7062 0.0996-7.125 0.125 0.0891-2.5707-0.5776-5.1082-1.7188-7.375-1.9457-3.8649-5.2506-7.002-8.8438-8.5312-1.7966-0.76463-3.7186-1.1197-5.5312-0.875-1.8126 0.24472-3.5203 1.089-4.9062 2.625-2.3087 2.5587-3.6685 6.8889-3.625 13.438-3.8043-0.29876-7.4684-0.6613-10.875-1.1875 0.52625-1.9805 1-4.469 1-7.0938 0-2.9294-0.61828-6.0382-2.5-8.6562-1.5481-2.1539-3.9704-3.9146-7.4375-4.9375 2.0114-2.8815 6.4733-9.3858 11.125-17.156 6.2807-10.492 12.982-22.982 14.25-32.812v-0.15625-0.125s1.3599-31.789 13.688-52.156l0.25-0.40625 0.0937-0.46875s3.971-17.003 7.0938-36.875c3.1088-19.783 5.6395-42.032 1.9062-54.75h0.0312s-8.5914-36.694-10.875-53.906c-0.4039-1.5054-0.89148-5.3266-1.3125-6.1562-2.0664-8.1189-1.0055-19.249 1.1875-29.062 2.7573-12.339 6.9062-26.938 6.9062-26.938-5.3442 3.6999-15.162 9.1634-24.469 12.031-8.8462 2.6667-19.336 4.4154-29.344 5.5312-3.7628 1.8682-35.919 2.8691-38.094 2.9688-2.8039 0.12843-22.992-4.0756-46.562-10.344-24.447-6.5012-51.784-16.134-63.562-26.5 0.55596-1.363 1.1381-2.9956 1.875-5.0625 1.3888-3.8954 3.071-8.9599 4.9375-14.812 3.7329-11.705 8.2147-26.554 12.531-41.125 8.6331-29.143 16.625-57.25 16.625-57.25l-5.7812-1.6562s-7.9733 28.119-16.594 57.219c-4.3102 14.55-8.7905 29.337-12.5 40.969-1.8548 5.8159-3.6187 10.799-4.8438 14.625-0.79856 2.4939-1.4815 4.9027-2.4062 7.3438 0 0-4.6579 16.549-11.25 35.344-6.5921 18.794-15.483 40.003-22.562 48.094l-0.8125 0.96875v0.0625c-8.5685 9.2167-21.888 19.842-35.219 31.219-12.618 10.768-25.279 22.261-29.749 27.537l-9.0325 13.526s-8.8071 15.906-18.031 36.625c-9.215 20.698-18.945 46.132-20.719 66.062-0.002 0.0198 0.002 0.0427 0 0.0625-0.29575 1.2456-5.6159 24.144-5.0625 61.219v1.1875l0.8125 0.84375s2.3968 2.5848 3.1875 6.3125c0.76471 3.6051 0.31187 8.1327-6.25 13.562-2.2201 0.32923-47.528 6.678-86.062-16.781 1.621-0.20105 3.017-0.64378 4.1875-1.3125 2.4035-1.3732 3.7946-3.698 4.25-6.2812 0.88939-5.0446-1.3563-11.233-5.2188-15.938 1.8421-1.9296 5.388-5.6539 9.875-10.844 2.9621-3.426 5.9964-7.0989 8.4375-10.5s4.3536-6.2957 5-9.3125l0.0312-0.15625 0.0312-0.1875s2.3885-24.515 8.3438-52.75c5.9552-28.235 15.83-60.212 29.188-74.094l0.40625-0.40625 0.21875-0.5625s10.737-27.211 21.812-55.781c5.5377-14.285 11.14-28.925 15.562-40.656 3.3028-8.7614 5.8824-15.706 6.8247-18.48 0.94237-2.7738 1.2611-3.8628 1.6128-5.0202 0.20172-0.58779 0.0752-1.249 0.0313-1.7812 5.2438-32.848 20.281-82 20.281-82l-5.75-1.75s-10.009 32.493-16.625 62.812c-1.0407-10.333-2.3281-23.014-3.7812-36.406-1.6195-14.926-3.3636-30.249-5-42.688-0.81818-6.2194-1.6153-11.714-2.3438-16.094-0.48116-2.8928-0.8989-5.2234-1.3438-7.0938l5.1875-3.5c1.2333 3.737 2.1809 5.9838 2.3125 6.2812 0.0467 0.18972 0.16731 0.31431 0.21875 0.5 0.96839 3.4957 2.7106 6.3254 5.1562 8.1562 2.5755 1.9281 5.6886 2.7562 8.9062 2.875 6.4353 0.23755 13.537-2.1282 20.375-5.1875 13.677-6.1186 26.281-15.438 26.281-15.438l0.15625-0.0937 0.15625-0.15625c37.013-35.438 77.125-50 77.125-50l0.0937-0.0312 0.0937-0.0625c44.407-19.69 48.469-81.906 48.469-81.906l0.0937-1.2188-0.8125-0.9375-5.1562-6.0312c3.456-2.9412 6.0931-6.3289 8.125-9.9375 0.039-0.0693 0.11769-0.11805 0.15625-0.1875l-0.1-0.04c0.2511-0.41664 0.46598-0.87487 0.5-1.2188 0.0803-0.81199-0.10302-1.193-0.21875-1.5-0.23145-0.61392-0.44983-0.91119-0.6875-1.25-0.47535-0.67762-1.0553-1.3644-1.8438-2.25-1.5769-1.7711-3.8777-4.1629-6.6875-7.0312-5.6196-5.7368-13.307-13.386-21.062-21.344-7.7551-7.9574-15.585-16.238-21.469-23.188-2.9417-3.4746-5.3834-6.6232-7.0625-9.1562-1.0387-1.4666-2.1216-3.6497-2.875-4.8438-4.3-6.82-9.79-13.946-10.59-14.902 1.1083-5.838 0.81156-10.368-0.71875-13.781-1.618-3.6091-4.5766-5.8231-7.7812-6.8438-1.6023-0.51035-3.287-0.7798-4.9375-0.84375-4.9514-0.19184-9.8241 1.4015-12.906 3.4375-4.8581 3.209-15.636 7.3005-26.594 10.594-10.958 3.2933-22.273 5.8845-28.375 6.5625l0.4375 4c6.6608-0.74008 17.971-3.3757 29.094-6.7188 11.123-3.343 21.894-7.2877 27.656-11.094 2.8457-1.8798 9.6944-3.6257 14.406-2.125 2.3559 0.75036 4.197 2.0982 5.3438 4.6562s1.5502 6.5102 0.3125 12.312l-0.1875 0.9375 0.59375 0.75s5.6284 6.793 7.25 11.469c1.6216 4.6758 2.9782 6.8886 4.875 9.75s4.4696 6.1394 7.5 9.7188c6.0607 7.1586 13.953 15.5 21.75 23.5 7.7968 8.0003 15.492 15.657 21.062 21.344 2.7855 2.8436 5.035 5.2022 6.4688 6.8125 0.30902 0.34709 0.39933 0.47956 0.625 0.75-2.0434 3.2929-4.5514 6.2895-8.125 8.8125l-2.6875 1.9062 2.125 2.5 6.3125 7.3438c-0.30497 3.3755-5.7598 58.255-44.531 75.625-0.0651 0.0292-0.12218 0.0648-0.1875 0.0937-0.55738 0.203-41.134 15.074-78.781 51 0 0-12.305 9.0318-25.156 14.781-6.4258 2.8747-13.009 4.8301-17.719 4.6562-2.3548-0.0869-4.158-0.65947-5.5312-1.6875s-2.4551-2.5599-3.125-5.2812l-0.0625-0.28125-0.125-0.25s-18.313-40.4-11.031-70.625 7.5543-43.119 7.5625-52.188c0.144-0.36591 2.3402-5.9551 4.6875-13.688 2.3331-7.6855 4.6719-17.003 4.8438-24.625 1.6605-1.519 18.081-16.788 25.844-34.531l-3.6875-1.5937c-7.6276 17.435-25.438 33.719-25.438 33.719l-0.65625 0.59375v0.90625c0 6.8983-2.346 16.559-4.7188 24.375-2.3727 7.816-4.75 13.812-4.75 13.812l-0.125 0.34375v0.375c0 8.4621-0.28094 20.479-6.0938 42.656-5.8128 22.177-0.72289 53.669 3.75 70.125l-5.25 3.5625-0.0312-0.0937-3.18 1.95s-12.367 7.6658-28.906 15.156c-16.54 7.4905-37.29 14.646-53.156 13.906-4.9346-0.23009-9.7383 1.9872-14.75 4.8438s-10.247 6.4976-15.625 9.8125c-9.5432 5.8827-19.136 10.461-28.219 8.5625l7.875-16.375c4.699-1.3305 8.5112-4.4456 11.5-8.3125 3.522-4.5567 5.9978-10.192 7.8125-15.688 2.6422-8.0012 3.8034-15.654 4.25-19.25l0.4375 0.28125c3.051-4.4302 7.4886-7.7047 14.781-9.2188 7.2927-1.5141 17.427-1.2145 31.562 1.7188l0.40625-1.9375c-7.1464-1.483-13.312-2.3324-18.656-2.5938-5.3442-0.26135-9.8667 0.044-13.719 0.84375-6.5242 1.3545-11.108 4.1816-14.375 7.9375 0.908-5.0298 2.7755-10.555 5.4062-14.5 1.3858-2.0779 2.9775-3.6932 4.625-4.6562 1.6475-0.96304 3.3062-1.3262 5.3125-0.9375 5.1146 0.99083 10.172 1.9206 14.875 2 4.703 0.0793 9.1589-0.71035 12.719-3.3438l-2.375-3.2188c-2.5714 1.9022-6.028 2.6337-10.25 2.5625s-9.1094-0.95375-14.188-1.9375c-2.945-0.57052-5.7696 0.0606-8.125 1.4375s-4.2833 3.4416-5.9062 5.875c-3.2459 4.8669-5.266 11.2-6.1875 16.906l-0.0312 0.0625v0.0625s-0.89216 10.204-4.3438 20.656c-1.7258 5.226-4.0898 10.492-7.1875 14.5-2.4546 3.1757-5.2966 5.5353-8.6875 6.6875l-0.625-0.375c-3.5878-2.0975-7.0857-3.0402-10.312-3.0312-3.2268 0.009-6.1566 0.97424-8.625 2.6875-4.9369 3.4265-8.108 9.1573-10.438 15.125-4.4348 11.361-5.6677 23.796-5.7812 25-4.016 10.152-7.5546 30.369-6.0625 53.25 1.581 24.243 9.0096 51.323 28.844 70.594 6.6238 6.4356 21.574 13.538 34.594 14.656 6.5101 0.55898 12.52-0.27145 16.312-4 1.8964-1.8643 2.9754-4.6666 2.7188-7.5625-0.25663-2.8959-1.6181-5.8415-4-9.0312l-2.8125-3.7812-2.2188 4.1562s-0.0994 0.23742-0.78125 0.71875c-0.6179 0.43616-1.6708 0.85404-3.4375 0.78125-0.86279-0.52538-2.1834-1.2432-4.1562-1.625-1.4948-0.28932-3.3263-0.29727-5.1562 0.46875-1.4139 0.59185-2.6269 1.7759-3.6562 3.25-0.79595 0.21896-2.2581 0.5565-3.8438 0.4375-1.0571-0.0793-1.8561-0.35526-2.375-0.8125-0.51888-0.45724-1.0377-1.1562-1.1562-3.0938-0.36096-5.8976 3.0076-11.307 8.6562-15.312 5.6486-4.0058 13.458-6.3597 20.906-5.875 7.1657 0.46631 15.028 4.774 19.781 12 4.7172 7.171 6.5608 17.16 1.8125 29.75-14.402 21.407-34.876 29.047-56.094 27.375-21.319-1.6803-43.275-13.101-59.188-30.156-30.962-33.184-47.327-80.522-49.719-140.16 0.91497-10.275 2.2043-19.831 3.6875-28.656 0.23329-0.34201 0.3538-0.88031 4.0625-22.688 3.609-21.982 16.11-46.917 16.469-47.625 3.855-3.6803 7.0083-9.4673 9.9688-16.375 3.1038-7.2422 5.8857-15.627 8.25-23.625 4.7286-15.997 7.75-30.469 7.75-30.469l0.0625-0.25v-0.28125c0.3858-17.361 5.7328-29.335 10.938-37 5.2046-7.665 10.062-10.844 10.062-10.844l0.71875-0.46875 0.34375-0.78125c2.6632-5.8203 11.514-18.208 19.562-28.688 8.0405-10.469 15.361-19.295 15.375-19.312 0.00001-0.00002 0-0.0312 0-0.0312 20.601-24.8 64.469-20.344 64.469-20.344l1.0938 0.125 0.90625-0.59375c-0.15323 0.10017 1.403-0.67884 3.4062-1.4375s4.6816-1.7171 7.8125-2.7812c6.2617-2.1283 14.325-4.7225 22.438-7.2188 8.1128-2.4962 16.282-4.9117 22.812-6.6875 3.2654-0.8879 6.1457-1.5947 8.3438-2.0938 2.198-0.49909 3.9552-0.75 4.0625-0.75h0.84375l0.71875-0.4375c9.8559-6.023 37.062-20.188 37.062-20.188l0.28125-0.15625 0.28125-0.25c12.41-10.546 24.36-13.758 34.61-13.757zm-153.47 175.5c-0.40787 0.009-0.81889 0.0212-1.25 0.0625-3.4489 0.33056-7.6567 1.744-12.688 4.9062l1.0625 1.7188c9.6842-6.0872 15.384-5.3012 18.781-3.25 3.3972 2.0512 4.5625 5.5312 4.5625 5.5312l1.9062-0.625s-1.3595-4.1628-5.4375-6.625c-1.7841-1.0772-4.0824-1.7787-6.9375-1.7188zm-3.3438 7.1562c-2.878 0.0675-6.3832 1.2125-11.125 4.0938l1.06 1.72c6.1031-3.7084 9.5429-4.2379 12.312-3.5938 2.5998 0.60463 4.8352 2.4065 8.0312 4.0938-1.0375 0.57767-2.4188 0.75256-4.2188 0.65625-2.3203-0.12415-5.0819-0.71844-7.875-1.0312-2.7931-0.31281-5.736-0.39066-8.2812 1.1562s-4.1474 4.6202-4.5 9.1875l4 0.3125c0.15954-2.0666 0.53257-3.4492 1.0312-4.4062 0.95334 1.7707 2.0118 3.1145 3.2188 4.0625 1.7454 1.3708 3.885 1.8117 5.7188 1.3125 3.01-0.81938 5.036-3.4904 5.9375-6.6562 0.18913 0.0142 0.37372 0.0524 0.5625 0.0625 2.8053 0.1501 5.8101-0.22251 8.0312-2.4062l-2.625-2.6562 0.5-1.0625c-3.2963-1.6481-5.71-3.8068-9.0938-4.5938-0.84594-0.19674-1.7282-0.27249-2.6875-0.25zm-64.5 128.12c1.6212-0.13408 3.4468 0.20157 5.5938 1.125l-7.3125 14.719-1.375 2.5625c-1.6335 3.6754-3.3676 9.2176-5.9688 12.781-1.3006 1.7818-2.7121 2.9536-4.1875 3.4375-1.1712 0.38412-2.5157 0.42714-4.4062-0.25 0.64841-4.583 2.1141-12.92 5-20.312 2.1085-5.4016 4.9964-10.117 8.25-12.375 1.3682-0.94959 2.785-1.5534 4.4062-1.6875zm-98.875 13.5c-0.68517 4.8864-1.293 9.9612-1.8125 15.219-2.2321-1.2363-3.0863-2.4784-3.4062-3.5938-0.43071-1.5016 0.04454-3.633 1.5-6.25 0.95689-1.7205 2.2877-3.5556 3.7188-5.375zm713.97 86.875c3.8141 17.646 11.308 53.821 12.938 73.375v0.15625l0.0312 0.1875s3.4203 17.125 8.5938 36.969 11.887 42.209 19.5 53.781l0.0937 0.125 0.0625 0.125s7.0288 8.6542 13.656 21.219c6.6274 12.565 12.678 28.936 11.094 43.719l-0.125 1.3125 0.875 1s8.6821 9.8115 13.531 23.281l0.15625 0.46875 0.3125 0.40625s2.5491 3.1021 3.875 8.4688c1.3259 5.3666 1.4265 12.687-4.0625 21.312l-0.0312 0.0625-0.0312 0.0625s-0.95277 1.6918-3.8125 4.4375-7.516 6.3354-14.625 9.4688c-7.3454 3.2376-17.377 5.9881-30.75 6.7812-0.492-1.3249-1.2861-2.5947-2.2812-3.7188-1.6541-1.8684-3.81-3.3733-6.0938-4.0938-1.1419-0.36023-2.3532-0.50724-3.5-0.375s-2.2381 0.52824-3.1875 1.3125c-1.5876 1.3114-2.6323 3.5328-3 6.75-4.3876-0.28471-9.0319-0.7489-13.969-1.4375 0.009-2.8782-0.25596-7.0086-1.5938-10.688-1.1575-3.1832-3.2097-6.0844-6.6562-7.1562-0.86165-0.26795-1.8031-0.41806-2.8125-0.4375-2.2647-0.0436-4.9172 0.57307-8.0312 2 0.27515-1.302 0.77897-2.6789 1.6562-4.125 2.0222-3.3333 6.045-7.1581 13.469-10.938l1.125-0.5625 0.375-1.2188s1.6054-5.2494 2.9062-12.188c1.3009-6.9381 2.3666-15.581 1.125-23.031v-0.15625l-0.0625-0.15625s-7.2041-25.696-15.75-53.594c-4.27-13.94-8.87-28.43-13.1-40.58-3.6092-10.374-6.799-18.879-9.5625-24.25 1.4027-6.2133 3.9507-15.369 7.125-25.844 4.2177-13.918 9.5366-30.297 14.75-45.938 6.5841-19.752 11.945-35.277 15.781-46.281zm-354.38 63.32l5.6875 74.906v0.0625 0.0312s2.67 27.95 10.812 46.812c0.0876 0.47918 3.3611 18.378 6.3438 39.188 3.0227 21.089 5.5525 45.245 4.2812 54.906l-0.125 0.875 0.40625 0.8125s5.8659 12.325 9.8438 20.312c0.0304 0.76492 0.16306 4.2536-0.625 7.9688-0.43949 2.0719-1.19 3.9946-2.0938 5.1875-0.90372 1.1929-1.6904 1.7188-3.3125 1.7188h-0.0312-0.0625s-11.672 0.39316-26.938 0.40625c-0.76492-1.4827-1.9926-3.1483-3.5312-4.75-2.0395-2.1231-4.6311-4.1066-7.5625-5.2188-1.4657-0.55608-3.0408-0.89118-4.625-0.875-1.5842 0.0162-3.1859 0.38061-4.75 1.1875-2.8468 1.4686-5.4666 4.3766-7.6875 9.125-3.2567-0.1379-6.4758-0.29706-9.5938-0.5-0.41922-5.8106-2.1153-9.9994-4.5625-12.75-2.8683-3.2239-6.7462-4.407-10.469-4.0625-3.7226 0.34447-7.339 2.184-9.875 4.9688-1.7737 1.9476-2.9874 4.4066-3.3438 7.125-0.75524-0.40038-1.5825-0.87882-2.4375-1.4062 0.55827-1.1743 1.139-2.6367 1.5625-4.25 1.0052-3.8293 1.0541-8.7579-2.375-12.844 1.9081-1.3602 4.3083-2.8196 7.3438-4.3125l0.40625-0.1875 0.3125-0.28125s5.328-4.8998 10.219-10.812c2.4454-2.9564 4.7943-6.1526 6.375-9.3438 1.4663-2.9602 2.4526-6.2054 1.1875-9.2812h0.0312s-7.1993-29.902-14.531-61.062c-3.666-15.58-7.3663-31.469-10.219-44.094-1.4262-6.3124-2.6417-11.813-3.5312-16.031-0.61573-2.9194-0.98952-4.9571-1.25-6.4375 7.869-13.52 22.149-26.915 36.75-39.375 11.488-9.8032 23.121-18.977 31.969-27.719zm-204.9 211.28c3.4321 4.2993 5.3472 9.9976 4.625 14.094-0.37594 2.1323-1.3812 3.8073-3.25 4.875-1.4506 0.82872-3.5068 1.3011-6.25 1.1562-0.75831-0.4981-1.5298-0.97727-2.2812-1.5-0.2792-0.35647-2.6208-3.3921-3.1875-6.8438-0.30043-1.8299-0.12076-3.5459 1-5.3125s3.3568-3.7281 7.875-5.4062l0.65625-0.25 0.46875-0.46875s0.3195-0.31872 0.34375-0.34375zm26.531 0.625c-1.5572 0.007-3.1602 0.30694-4.75 0.9375-4.2394 1.681-8.3369 5.7176-11.812 12.875l-0.15625 0.3125 0.0625 0.34375c0.4706 2.1282 2.0775 4.3442 4.3125 6.4375s5.142 4.0334 8.375 5.375c6.4661 2.6833 14.417 2.8873 20.156-3.375l0.125-0.15625 0.0625-0.15625c1.3424-3.5135 0.80233-7.6274-0.90625-11.344-1.7086-3.7164-4.6075-7.0799-8.1562-9.1562-1.7744-1.0382-3.7372-1.7637-5.7812-2-0.51101-0.0591-1.0122-0.0961-1.5312-0.0937zm-0.3125 2c2.3236-0.0822 4.5675 0.60866 6.625 1.8125 3.1353 1.8344 5.7704 4.927 7.3125 8.2812 1.5106 3.2858 1.9113 6.7772 0.90625 9.5938-5.0937 5.3944-11.83 5.2066-17.75 2.75-2.9924-1.2418-5.7299-3.0787-7.7812-5-1.9385-1.8156-3.1569-3.7056-3.5625-5.125 3.2836-6.5914 7.0066-10.09 10.562-11.5 0.90774-0.35992 1.7944-0.60264 2.6875-0.71875 0.33489-0.0435 0.66806-0.082 1-0.0937zm521.19 11.656c0.84352 0.0159 1.6095 0.13486 2.2812 0.34375 2.6869 0.83556 4.3384 3.0869 5.375 5.9375 1.1661 3.2068 1.4162 6.989 1.4375 9.7188-3.808-0.56785-7.7647-1.2586-11.906-2.0938-0.70679-0.69582-4.165-4.1894-5.1562-9.0938-0.16494-0.81601-0.24793-1.6426-0.25-2.5 3.4005-1.7183 6.0976-2.3524 8.2188-2.3125zm-409.16 4.56c3.056 3.5219 2.9509 7.6215 2.0312 11.125-0.3591 1.368-0.83733 2.6153-1.3125 3.6562-1.4866-1.0458-2.9083-2.2145-3.9062-3.5-1.656-2.1332-2.2491-3.8447-1.0625-6.4062 0.62021-1.3389 1.9575-3.0135 4.25-4.875zm-73.844 1.2812c-0.83248 0.0364-1.6252 0.28609-2.3438 0.65625-1.9161 0.98708-3.4197 2.7949-4.5 4.3438s-1.7188 2.875-1.7188 2.875l-0.125 0.25 0.0312 0.28125c0.355 4.1496 3.6545 7.0156 7.3438 8.3438 3.6892 1.3282 7.9199 1.2891 10.625-0.875l0.5-0.40625-0.17-0.59c-1.6154-6.8654-3.4351-10.82-5.5-12.969-1.0324-1.0746-2.1709-1.7062-3.3125-1.875-0.2854-0.0422-0.56626-0.0434-0.84375-0.0312zm0.0625 2c0.16428-0.003 0.33738 0.007 0.5 0.0312 0.65046 0.0961 1.3561 0.41722 2.1562 1.25 1.5278 1.5901 3.2564 5.1772 4.7812 11.312-1.9689 1.1773-5.2 1.3343-8.125 0.28125-3.0996-1.1159-5.6124-3.3718-6-6.4062 0.10893-0.21616 0.55192-1.0741 1.4375-2.3438 0.98913-1.4182 2.375-3.0104 3.75-3.7188 0.51564-0.26563 1.0072-0.39731 1.5-0.40625zm337.06 2.8125c3.4952 0.87407 5.6588 2.4656 7.0312 4.375 1.559 2.1691 2.125 4.8444 2.125 7.5 0 2.4694-0.48673 4.8716-1 6.75-2.2177-0.38724-4.3179-0.83428-6.25-1.3438 0 0-0.0906-0.0303-0.0937-0.0312-0.15324-0.0544-3.9123-1.417-5.8438-3.8438-0.9855-1.2382-1.53-2.503-1.25-4.5 0.27995-1.997 1.5832-4.9145 5.125-8.7188l0.125-0.15625 0.0312-0.0312zm178.03 0.95c0.62859 0.009 1.3043 0.12428 2 0.34375 1.8551 0.58524 3.7936 1.9214 5.2188 3.5312 0.69577 0.78593 1.2575 1.6242 1.6562 2.4688-4.3088 0.1828-8.9346 0.17131-13.938-0.0937 0.34195-2.7737 1.2291-4.4434 2.2812-5.3125 0.80006-0.66088 1.7336-0.95183 2.7812-0.9375zm-421.91 0.125c2.7786 0.023 5.4883 1.0671 7.625 3.4688 2.0472 2.301 3.6015 5.9541 4.0312 11.281-9.314-0.66123-17.584-1.6495-23.062-3.0625-0.0502-0.0213-0.56889-0.24096-1.25-0.5625 0.15122-2.5815 1.239-4.8849 2.9375-6.75 2.1917-2.4066 5.3426-4.0174 8.5312-4.3125 0.39858-0.0369 0.79056-0.0658 1.1875-0.0625zm274.81 4.9062c1.0817 0.0383 2.2221 0.32182 3.375 0.8125 3.0744 1.3085 6.1152 4.1914 7.8438 7.625 1.0276 2.0412 1.5637 4.2512 1.4688 6.4688-6.8393 0.0347-13.896-0.10463-20.594-0.5625-0.0603-6.3482 1.2661-10.256 3.0938-12.281 1.3584-1.5054 3.0096-2.1264 4.8125-2.0625zm-239.06 2.1562c1.2972-0.01 2.6006 0.26652 3.875 0.75 2.5487 0.96697 4.9633 2.7925 6.8438 4.75 1.087 1.1316 1.9686 2.301 2.625 3.3438-2.3013-0.004-4.6775-0.005-7.0938-0.0312-5.3929-0.0578-11.005-0.19462-16.562-0.40625 1.9998-4.0093 4.2288-6.298 6.4375-7.4375 1.2867-0.66377 2.5778-0.95913 3.875-0.96875z" />
  </g>
  <metadata
     id="metadata11">
    <rdf:RDF>
      <cc:Work>
        <dc:format>image/svg+xml</dc:format>
        <dc:type
           rdf:resource="http://purl.org/dc/dcmitype/StillImage" />
        <cc:license
           rdf:resource="http://creativecommons.org/licenses/publicdomain/" />
        <dc:publisher>
          <cc:Agent
             rdf:about="http://openclipart.org/">
            <dc:title>Openclipart</dc:title>
          </cc:Agent>
        </dc:publisher>
        <dc:title>Elephant</dc:title>
        <dc:date>2012-08-18T12:30:00</dc:date>
        <dc:description />
        <dc:source>https://openclipart.org/detail/171806/elephant-by-solvera-171806</dc:source>
        <dc:creator>
          <cc:Agent>
            <dc:title>SOlvera</dc:title>
          </cc:Agent>
        </dc:creator>
        <dc:subject>
          <rdf:Bag>
            <rdf:li>Elephant Animals mammals</rdf:li>
          </rdf:Bag>
        </dc:subject>
      </cc:Work>
      <cc:License
         rdf:about="http://creativecommons.org/licenses/publicdomain/">
        <cc:permits
           rdf:resource="http://creativecommons.org/ns#Reproduction" />
        <cc:permits
           rdf:resource="http://creativecommons.org/ns#Distribution" />
        <cc:permits
           rdf:resource="http://creativecommons.org/ns#DerivativeWorks" />
      </cc:License>
    </rdf:RDF>
  </metadata>
</svg>
