<?xml version="1.0" encoding="UTF-8"?>
<svg xmlns="http://www.w3.org/2000/svg" xmlns:xlink="http://www.w3.org/1999/xlink" width="1024pt" height="930pt" viewBox="0 0 1024 930" version="1.1">
<g id="surface1">
<path style="fill-rule:nonzero;fill:rgb(74.509804%,74.509804%,74.509804%);fill-opacity:1;stroke-width:3;stroke-linecap:butt;stroke-linejoin:miter;stroke:rgb(40%,40%,40%);stroke-opacity:1;stroke-miterlimit:4;" d="M 780.80864 434.501382 C 780.80864 434.501382 814.440536 340.526478 810.712051 291.770027 C 806.884003 241.733581 724.517441 110.889357 673.619843 111.239382 C 673.619843 111.239382 642.006683 81.195552 613.819885 79.647891 C 578.224182 77.691868 552.598572 95.320098 528.064728 89.239268 C 528.064728 89.239268 434.97963 61.031355 409.594345 64.977718 C 409.594345 64.977718 376.309204 40.719598 341.894531 70.056515 C 341.894531 70.056515 314.816666 84.160471 304.661179 90.36484 C 298.114014 90.36484 238.454819 108.984808 234.139252 111.805599 C 234.139252 111.805599 189.006042 106.726802 167.002487 133.242927 C 167.002487 133.242927 137.665558 168.784211 131.65741 181.923883 C 131.65741 181.923883 110.113907 196.281779 109.317398 232.186815 C 109.317398 232.186815 97.349167 289.632128 83.784485 301.601617 C 83.784485 301.601617 64.637375 339.098925 59.051514 402.130914 C 61.43074 462.355838 77.975464 510.570094 109.588623 544.450475 C 142.375946 579.59026 199.851608 591.504843 229.796219 546.543763 C 240.150833 519.578096 222.057724 501.507187 205.677795 500.443385 C 189.294434 499.376151 172.059631 510.487735 172.931671 524.776999 C 173.549652 534.848803 185.061264 530.699975 185.061264 530.699975 C 188.446426 523.929389 195.498276 529.008186 195.498276 529.008186 C 201.139069 529.570972 203.116608 525.902571 203.116608 525.902571 C 211.78894 537.518603 202.776718 542.741528 190.739822 541.708611 C 178.70636 540.675693 163.651657 533.386933 157.983398 527.879183 C 119.799042 490.779944 128.831863 422.700042 136.542892 405.737546 C 149.664688 412.29194 153.860092 395.573089 156.795502 388.970653 C 179.849625 398.332111 204.362869 366.308237 219.822693 367.028877 C 253.533554 368.600559 303.596878 337.506653 303.596878 337.506653 C 308.049774 350.450722 318.768311 463.285807 318.768311 463.285807 C 315.949631 474.006187 273.072052 582.888046 273.072052 582.888046 C 244.301605 612.787748 234.709167 711.518876 234.709167 711.518876 C 233.016586 719.415033 210.449982 742.547581 210.449982 742.547581 C 190.70549 749.880952 203.679657 765.113911 203.679657 765.113911 C 245.427704 794.450827 298.46077 785.988453 298.46077 785.988453 C 314.25705 773.576285 302.408981 761.164117 302.408981 761.164117 C 301.845932 723.364827 307.486725 700.235711 307.486725 700.235711 C 310.871887 661.870203 345.849609 598.683791 345.849609 598.683791 C 346.979141 608.837954 375.749588 728.443624 375.749588 728.443624 C 379.701233 735.776995 358.827209 754.959749 358.827209 754.959749 C 324.412537 771.884497 358.260727 784.862882 358.260727 784.862882 C 381.956863 791.067251 449.093628 788.809245 449.093628 788.809245 C 459.249115 788.809245 458.119583 770.192708 458.119583 770.192708 C 454.171371 762.296552 447.964096 749.318166 447.964096 749.318166 C 450.786209 727.880838 437.24556 653.974047 437.24556 653.974047 C 429.345703 635.923727 426.527023 607.712382 426.527023 607.712382 L 420.319748 525.909434 C 436.116028 507.855683 454.734421 441.285694 454.734421 441.285694 C 478.993607 464.981027 568.693542 480.210555 568.693542 480.210555 C 579.978561 499.393309 618.904495 497.70152 618.904495 497.70152 C 619.470978 525.909434 649.934006 516.318057 649.934006 516.318057 C 651.626587 532.680019 661.219025 573.300101 661.219025 573.300101 C 667.985916 595.866431 652.189636 663.565423 652.189636 663.565423 C 639.215469 685.002751 638.085938 717.160459 638.085938 717.160459 C 635.830307 734.651424 612.134171 767.371917 612.134171 767.371917 C 596.904373 783.733879 615.519333 789.375462 615.519333 789.375462 C 643.163681 796.708833 698.452377 791.067251 698.452377 791.067251 C 726.096725 789.938248 699.581909 740.293007 699.581909 740.293007 C 705.112839 728.443624 711.429977 683.310963 709.170914 683.310963 C 710.863495 670.336009 730.607986 586.83784 730.607986 586.83784 C 741.326523 604.328805 770.100403 707.009728 770.100403 707.009728 C 772.356033 720.547467 766.152191 740.859224 766.152191 740.859224 C 735.122681 756.654969 755.996704 775.271505 755.996704 775.271505 C 835.544586 791.633468 855.289078 757.221186 855.289078 757.221186 C 867.137146 738.601218 855.289078 723.934476 855.289078 723.934476 C 850.211334 709.830519 841.185379 699.676357 841.185379 699.676357 C 844.570541 668.081435 815.800095 632.54015 815.800095 632.54015 C 801.696396 611.099391 788.155746 542.837613 788.155746 542.837613 C 785.896683 515.755271 772.922516 458.776659 772.922516 458.776659 C 776.307678 449.185282 780.822372 434.51854 780.822372 434.51854 Z M 780.80864 434.501382 " transform="matrix(1.137778,0,0,1.138311,0,0)"/>
<path style=" stroke:none;fill-rule:nonzero;fill:rgb(40%,40%,40%);fill-opacity:1;" d="M 256.5 882.179688 C 252.875 880.695312 243.789062 876.207031 241.261719 874.652344 L 239.945312 873.847656 L 240.765625 871.140625 C 241.605469 868.386719 244.71875 869.390625 245.851562 868.320312 C 247.007812 867.230469 247.214844 867.152344 248.101562 867.460938 C 248.636719 867.648438 249.609375 867.800781 250.257812 867.800781 C 251.523438 867.796875 253.574219 866.75 253.574219 866.105469 C 253.574219 865.890625 254.027344 866.398438 254.582031 867.234375 C 256.675781 870.398438 261.429688 874.140625 266.179688 876.359375 C 270.359375 878.3125 272.511719 878.785156 277.222656 878.785156 C 280.722656 878.785156 281.640625 878.667969 283.460938 878.003906 C 284.636719 877.574219 286.152344 876.859375 286.828125 876.414062 L 288.058594 875.601562 L 289.496094 876.929688 C 291.585938 878.855469 294.207031 880.515625 296.449219 881.328125 C 298.996094 882.25 302.75 882.332031 304.769531 881.503906 C 305.558594 881.179688 306.242188 880.960938 306.289062 881.011719 C 306.335938 881.066406 306.683594 881.730469 307.070312 882.492188 C 307.882812 884.105469 309.992188 886.234375 311.871094 887.332031 C 312.59375 887.753906 314.289062 888.429688 315.640625 888.828125 C 318.820312 889.773438 323.25 889.566406 325.335938 888.585938 C 326.914062 887.847656 326.59375 887.621094 325.660156 884.300781 C 325.203125 882.6875 324.867188 881.730469 324.914062 881.285156 C 325.277344 881.078125 327.265625 881.554688 328.371094 882.28125 C 330.828125 883.886719 332.714844 886.078125 334.035156 888.867188 L 335.027344 893.347656 L 332.480469 893.5625 C 327.6875 893.96875 314.5 893.101562 302.394531 891.898438 C 290.289062 890.691406 272.71875 888.824219 256.5 882.179688 Z M 256.5 882.179688 "/>
<path style="fill-rule:nonzero;fill:rgb(100%,100%,100%);fill-opacity:1;stroke-width:2;stroke-linecap:butt;stroke-linejoin:miter;stroke:rgb(66.666667%,66.666667%,66.666667%);stroke-opacity:1;stroke-miterlimit:4;" d="M 58.443832 402.621636 C 41.174698 398.242889 57.963181 376.905078 62.034988 373.596997 Z M 58.443832 402.621636 " transform="matrix(1.137778,0,0,1.138311,0,0)"/>
<path style="fill-rule:nonzero;fill:rgb(100%,100%,100%);fill-opacity:1;stroke-width:2;stroke-linecap:butt;stroke-linejoin:miter;stroke:rgb(66.666667%,66.666667%,66.666667%);stroke-opacity:1;stroke-miterlimit:4;" d="M 137.229538 406.990087 C 138.300705 373.089117 151.831055 361.71673 166.425705 368.061794 C 156.888199 392.306187 148.490524 411.241864 137.229538 406.990087 Z M 137.229538 406.990087 " transform="matrix(1.137778,0,0,1.138311,0,0)"/>
<path style=" stroke:none;fill-rule:nonzero;fill:rgb(20%,20%,20%);fill-opacity:1;" d="M 430.546875 59.832031 C 417.535156 59.90625 402.300781 64.078125 387.167969 76.835938 C 386.71875 77.070312 357.445312 92.324219 345.390625 99.636719 C 343.972656 99.761719 342.601562 99.9375 340.484375 100.421875 C 337.828125 101.023438 334.515625 101.882812 330.742188 102.910156 C 323.195312 104.960938 313.820312 107.734375 304.539062 110.59375 C 295.253906 113.453125 286.082031 116.390625 278.867188 118.847656 C 275.257812 120.074219 272.132812 121.171875 269.730469 122.082031 C 267.933594 122.765625 266.949219 123.265625 265.855469 123.828125 C 263.175781 123.519531 213.308594 118.214844 187.382812 149.472656 C 187.382812 149.472656 178.988281 159.632812 169.746094 171.671875 C 160.75 183.390625 151.121094 196.519531 147.097656 204.894531 C 145.992188 205.683594 140.519531 209.703125 134.582031 218.449219 C 128.066406 228.050781 121.546875 242.910156 121 263.804688 C 120.933594 264.128906 117.59375 279.992188 112.359375 297.703125 C 109.714844 306.648438 106.585938 316 103.222656 323.847656 C 99.859375 331.699219 96.082031 338.074219 93.054688 340.746094 L 92.589844 341.171875 L 92.269531 341.742188 C 92.269531 341.742188 77.226562 371.371094 68.378906 422.457031 C 67.160156 424.046875 65.46875 426.023438 63.648438 428.183594 C 61.023438 431.304688 58.160156 434.78125 56.074219 438.535156 C 53.988281 442.289062 52.519531 446.539062 53.765625 450.878906 C 54.921875 454.917969 58.429688 458.183594 63.898438 460.445312 C 66.992188 528.367188 85.964844 583.226562 122.171875 622.054688 C 141.375 642.640625 167.710938 656.441406 193.996094 658.515625 C 220.28125 660.585938 246.621094 650.554688 264.289062 624.007812 L 264.503906 623.691406 L 264.644531 623.332031 C 270.863281 607.128906 268.578125 592.996094 261.976562 582.960938 C 255.378906 572.921875 244.695312 566.921875 234.210938 566.238281 C 224.046875 565.578125 213.839844 568.609375 206.050781 574.136719 C 198.257812 579.664062 192.769531 587.992188 193.355469 597.542969 C 193.570312 601.070312 194.882812 603.976562 196.945312 605.796875 C 199.011719 607.613281 201.507812 608.265625 203.667969 608.425781 C 207.988281 608.753906 211.703125 607.289062 211.703125 607.289062 L 212.984375 606.828125 L 213.585938 605.617188 C 214.261719 604.269531 214.824219 603.910156 215.328125 603.695312 C 215.835938 603.484375 216.5 603.4375 217.285156 603.589844 C 218.859375 603.894531 220.414062 604.941406 220.414062 604.941406 L 221.160156 605.476562 L 222.085938 605.546875 C 225.609375 605.898438 228.300781 604.964844 230.261719 603.804688 C 231.015625 605.273438 231.5 606.5625 231.578125 607.46875 C 231.710938 608.96875 231.359375 609.726562 230.476562 610.597656 C 228.707031 612.335938 223.570312 613.769531 217.285156 613.230469 C 204.714844 612.148438 187.484375 603.644531 182.121094 598.433594 C 161.242188 578.140625 153.09375 549.09375 151.363281 522.558594 C 149.777344 498.214844 153.773438 476.414062 157.445312 466.28125 C 160.445312 467.121094 163.320312 467.144531 165.835938 466.316406 C 169.355469 465.160156 171.980469 462.652344 173.976562 459.914062 C 177.195312 455.503906 179 450.5625 180.414062 446.894531 C 194.058594 450.671875 207.5625 444.085938 219.277344 436.863281 C 225.609375 432.957031 231.546875 428.820312 236.839844 425.800781 C 242.136719 422.78125 246.742188 421.027344 249.925781 421.175781 C 270.226562 422.121094 294.28125 413.464844 313.535156 404.738281 C 328.640625 397.894531 338.558594 392.171875 343.082031 389.480469 C 343.472656 391.257812 343.792969 392.320312 344.253906 395.101562 C 345.0625 399.957031 345.925781 406.171875 346.851562 413.207031 C 348.699219 427.273438 350.699219 444.695312 352.539062 461.65625 C 356.101562 494.5 358.96875 524.164062 359.152344 526.078125 C 359.042969 526.769531 358.933594 527.457031 358.832031 528.140625 C 357.710938 531.714844 354.480469 540.6875 350.015625 552.542969 C 344.996094 565.859375 338.605469 582.5 332.308594 598.75 C 319.800781 631.03125 307.832031 661.40625 307.667969 661.820312 C 290.488281 680.265625 280.035156 716.570312 273.25 748.757812 C 266.460938 780.972656 263.746094 808.601562 263.6875 809.195312 C 263.457031 810.257812 261.714844 813.640625 259.136719 817.234375 C 256.558594 820.828125 253.214844 824.882812 249.925781 828.691406 C 243.554688 836.0625 237.757812 841.992188 237.375 842.382812 C 231.792969 844.609375 228.015625 847.515625 225.855469 850.921875 C 223.578125 854.511719 223.253906 858.476562 223.792969 861.769531 C 224.875 868.363281 229.125 873.117188 229.125 873.117188 L 229.410156 873.476562 L 229.765625 873.722656 C 278.632812 908.078125 340.09375 898.054688 340.09375 898.054688 L 340.984375 897.914062 L 341.695312 897.378906 C 351.441406 889.71875 353.246094 880.894531 351.898438 874.542969 C 350.851562 869.597656 348.621094 866.679688 347.492188 865.328125 C 346.976562 823.308594 353.144531 797.882812 353.144531 797.882812 L 353.214844 797.636719 L 353.25 797.351562 C 355.101562 776.378906 365.851562 747.582031 376.21875 724.285156 C 382.820312 709.453125 388.152344 698.953125 391.9375 691.734375 C 391.945312 691.789062 391.960938 691.789062 391.972656 691.84375 C 392.996094 696.699219 394.398438 702.957031 396.023438 710.164062 C 399.277344 724.570312 403.476562 742.679688 407.652344 760.425781 C 416 795.917969 424.183594 829.96875 424.183594 829.96875 L 424.292969 830.398438 L 424.503906 830.789062 C 424.738281 831.222656 424.722656 833.101562 423.332031 835.910156 C 421.941406 838.71875 419.523438 842.09375 416.929688 845.230469 C 411.890625 851.328125 406.46875 856.363281 406.15625 856.648438 C 396.441406 861.519531 390.90625 866.222656 388.523438 871.375 C 386.082031 876.648438 387.699219 882.039062 390.546875 885.710938 C 396.25 893.058594 406.371094 896.597656 406.371094 896.597656 L 406.546875 896.632812 L 406.761719 896.703125 C 421.101562 900.460938 446.789062 901.476562 469.339844 901.71875 C 491.761719 901.960938 510.722656 901.300781 510.9375 901.292969 C 510.988281 901.292969 511.03125 901.292969 511.082031 901.292969 C 514.949219 901.242188 518.191406 899.214844 520.148438 896.632812 C 522.128906 894.015625 523.152344 890.929688 523.773438 887.988281 C 525.019531 882.109375 524.628906 876.5 524.628906 876.5 L 524.59375 875.785156 L 524.273438 875.183594 C 519.949219 866.53125 513.527344 853.082031 513.109375 852.203125 C 514.601562 838.503906 511.542969 812.609375 508.164062 789.027344 C 504.703125 764.867188 500.839844 743.777344 500.839844 743.777344 L 500.785156 743.414062 L 500.613281 743.0625 C 492.046875 723.46875 488.710938 691.632812 488.703125 691.519531 L 488.703125 691.445312 L 481.769531 600.027344 C 483.199219 598.378906 484.523438 596.738281 485.714844 595.117188 L 485.28125 594.789062 C 493.542969 582.21875 501.324219 562.257812 507.753906 543.917969 C 513.785156 526.714844 517.570312 513.890625 519.203125 508.238281 C 535.511719 521.140625 564.945312 530.753906 591.699219 537.871094 C 619.609375 545.296875 643.066406 549.367188 645.105469 549.714844 C 652.71875 561.101562 667.265625 565.910156 679.84375 568.144531 C 690.027344 569.949219 697.5 570.003906 701.070312 569.957031 C 701.769531 576.855469 704.054688 582.144531 707.503906 585.75 C 711.507812 589.9375 716.707031 591.828125 721.585938 592.546875 C 728.109375 593.503906 733.226562 592.617188 736.660156 591.835938 C 739.375 612.605469 748.996094 653.375 748.996094 653.375 L 749.03125 653.480469 L 749.070312 653.585938 C 752.441406 664.832031 750.195312 690.730469 746.6875 713.0625 C 743.21875 735.140625 738.894531 753.855469 738.792969 754.292969 C 723.878906 779.550781 722.644531 814.972656 722.613281 815.902344 C 722.613281 815.90625 722.578125 815.972656 722.578125 815.972656 C 721.425781 824.699219 714.320312 838.992188 707.363281 850.621094 C 700.386719 862.28125 693.707031 871.503906 693.707031 871.503906 L 693.742188 871.539062 C 689.328125 876.375 686.953125 880.742188 686.382812 884.808594 C 685.800781 888.976562 687.21875 892.597656 689.226562 895.125 C 693.246094 900.171875 699.324219 901.8125 699.324219 901.8125 L 699.398438 901.847656 L 699.46875 901.847656 C 715.949219 906.222656 739.621094 906.609375 759.414062 906.042969 C 779.003906 905.484375 794.511719 903.90625 794.828125 903.875 C 794.832031 903.875 795.042969 903.875 795.042969 903.875 L 795.042969 903.839844 C 803.816406 903.394531 809.542969 898.34375 811.433594 891.851562 C 813.339844 885.300781 812.316406 877.691406 810.4375 870.257812 C 806.972656 856.542969 800.699219 844.445312 799.664062 842.476562 C 803.042969 834.277344 805.972656 819.558594 808.125 805.730469 C 809.265625 798.402344 810.121094 791.503906 810.542969 786.34375 C 810.753906 783.765625 810.871094 781.644531 810.828125 779.976562 C 810.808594 779.144531 810.765625 778.433594 810.578125 777.628906 C 810.558594 777.542969 810.460938 777.402344 810.4375 777.308594 C 811.496094 769.960938 817.398438 743.210938 823.128906 718.152344 C 827.84375 697.539062 830.742188 685.160156 832.339844 678.382812 C 834.671875 683.855469 837.328125 690.558594 840.234375 698.90625 C 844.992188 712.59375 850.210938 729.035156 855.058594 744.867188 C 864.707031 776.378906 872.796875 805.28125 872.871094 805.550781 C 873.976562 812.464844 872.953125 821.761719 871.558594 829.207031 C 870.28125 836.011719 869.023438 840.15625 868.746094 841.089844 C 860.441406 845.550781 855.101562 850.308594 852.109375 855.246094 C 848.933594 860.484375 848.433594 865.863281 849.335938 870.328125 C 851.121094 879.277344 857.890625 885.070312 857.890625 885.070312 L 858.566406 885.675781 L 859.453125 885.851562 C 905.226562 895.269531 934.25 890.128906 951.933594 882.332031 C 960.777344 878.433594 966.777344 873.875 970.566406 870.238281 C 974.210938 866.738281 975.84375 864.011719 975.96875 863.796875 L 976.003906 863.796875 L 976.078125 863.65625 C 983.21875 852.335938 983.335938 841.742188 981.480469 834.238281 C 979.746094 827.214844 976.542969 822.992188 976.078125 822.390625 C 970.46875 807.175781 961.925781 796.996094 960.539062 795.394531 C 962.078125 776.710938 954.769531 757.722656 947.101562 743.171875 C 939.386719 728.539062 931.339844 718.554688 931.027344 718.164062 C 931.003906 718.128906 930.980469 718.058594 930.957031 718.023438 C 923.59375 706.734375 915.539062 681.265625 909.730469 658.972656 C 903.902344 636.605469 900.09375 617.246094 900.09375 617.246094 C 897.425781 586.015625 883.324219 524.023438 882.957031 522.410156 C 883.269531 521.515625 883.59375 520.480469 883.917969 519.53125 C 887.5625 508.824219 891.667969 495.625 891.667969 495.625 C 891.75 495.398438 901.265625 468.765625 910.300781 435.082031 C 919.375 401.253906 927.996094 360.582031 925.804688 331.886719 C 923.492188 301.777344 898.722656 250.566406 867.277344 205.933594 C 851.550781 183.609375 834.167969 163.074219 816.859375 148.015625 C 800.066406 133.394531 783.378906 123.785156 767.828125 123.328125 C 766.550781 122.132812 758.582031 114.75 746.355469 106.503906 C 733.105469 97.566406 715.742188 88.199219 698.566406 87.257812 C 677.710938 86.113281 659.875 90.71875 644.0625 94.585938 C 628.320312 98.433594 614.707031 101.460938 601.820312 98.320312 C 601.820312 98.320312 601.644531 98.285156 601.644531 98.285156 C 601.375 98.203125 575.109375 90.265625 545.074219 82.8125 C 529.980469 79.066406 513.976562 75.429688 499.847656 73.027344 C 486.398438 70.742188 474.925781 69.527344 466.816406 70.503906 C 465.242188 69.410156 456.621094 63.628906 442.816406 61.003906 C 439.035156 60.285156 434.921875 59.839844 430.550781 59.867188 Z M 430.582031 66.625 C 434.46875 66.625 438.167969 67.011719 441.570312 67.65625 C 455.164062 70.242188 464.003906 76.730469 464.003906 76.730469 L 465.140625 77.546875 L 466.527344 77.332031 C 472.828125 76.351562 484.851562 77.398438 498.707031 79.753906 C 512.558594 82.105469 528.441406 85.671875 543.433594 89.394531 C 573.421875 96.832031 599.824219 104.832031 599.824219 104.832031 L 599.894531 104.867188 L 600.003906 104.867188 C 614.976562 108.582031 629.824219 105.082031 645.691406 101.203125 C 661.558594 97.324219 678.5625 92.972656 698.207031 94.050781 C 713.105469 94.871094 729.753906 103.519531 742.507812 112.121094 C 755.261719 120.726562 764.09375 129.089844 764.09375 129.089844 L 765.085938 130.050781 L 766.4375 130.015625 C 779.449219 129.925781 795.683594 138.605469 812.375 153.136719 C 829.070312 167.667969 846.238281 187.851562 861.726562 209.839844 C 892.707031 253.816406 916.957031 305.539062 919.007812 332.390625 C 921.058594 359.195312 912.679688 399.738281 903.683594 433.273438 C 894.6875 466.804688 885.160156 493.460938 885.160156 493.460938 L 885.160156 493.53125 L 885.125 493.601562 C 885.125 493.601562 881.058594 506.703125 877.480469 517.222656 C 877.480469 517.222656 866.078125 549.523438 854.191406 585.199219 C 848.246094 603.039062 842.164062 621.722656 837.335938 637.671875 C 834.699219 646.382812 832.445312 654.179688 830.757812 660.683594 L 829.835938 659.15625 L 827.949219 667.195312 C 827.949219 667.195312 822.328125 690.984375 816.464844 716.605469 C 810.605469 742.226562 804.550781 769.21875 803.488281 777.363281 L 802.992188 781.203125 L 803.949219 781.203125 C 803.941406 782.410156 803.898438 783.773438 803.738281 785.757812 C 803.335938 790.652344 802.476562 797.445312 801.355469 804.644531 C 799.113281 819.046875 795.511719 835.527344 792.855469 841.214844 L 792.144531 842.78125 L 792.929688 844.273438 C 792.929688 844.273438 800.34375 858.199219 803.808594 871.914062 C 805.539062 878.769531 806.15625 885.542969 804.875 889.949219 C 803.59375 894.355469 801.351562 896.785156 794.527344 897.0625 L 794.316406 897.0625 C 794.316406 897.0625 778.710938 898.675781 759.1875 899.234375 C 756.546875 899.308594 753.832031 899.347656 751.078125 899.375 C 751.179688 896.449219 750.421875 893.558594 749.125 890.980469 C 746.910156 886.582031 743.148438 883.007812 739.0625 881.269531 C 737.015625 880.398438 734.832031 879.996094 732.769531 880.273438 C 730.707031 880.550781 728.761719 881.511719 727.1875 883.261719 C 724.558594 886.171875 723.011719 891.101562 723.0625 898.558594 C 718.734375 898.21875 714.5625 897.804688 710.6875 897.207031 C 711.289062 894.953125 711.824219 892.117188 711.824219 889.128906 C 711.824219 885.796875 711.121094 882.257812 708.980469 879.277344 C 707.21875 876.824219 704.464844 874.820312 700.519531 873.65625 C 702.808594 870.375 707.882812 862.972656 713.175781 854.128906 C 720.324219 842.183594 727.949219 827.96875 729.390625 816.777344 L 729.390625 816.457031 C 729.390625 816.457031 730.9375 780.273438 744.964844 757.089844 L 745.25 756.625 L 745.355469 756.09375 C 745.355469 756.09375 749.875 736.738281 753.425781 714.117188 C 756.964844 691.597656 759.84375 666.269531 755.59375 651.792969 L 755.632812 651.792969 C 755.632812 651.792969 745.855469 610.023438 743.257812 590.433594 C 742.796875 588.71875 742.242188 584.367188 741.765625 583.425781 C 739.414062 574.183594 740.621094 561.511719 743.117188 550.34375 C 746.253906 536.296875 750.972656 519.679688 750.972656 519.679688 C 744.894531 523.890625 733.722656 530.109375 723.132812 533.375 C 713.066406 536.410156 701.132812 538.402344 689.746094 539.671875 C 685.464844 541.796875 648.878906 542.9375 646.402344 543.050781 C 643.214844 543.195312 620.242188 538.410156 593.425781 531.273438 C 565.609375 523.875 534.507812 512.910156 521.105469 501.109375 C 521.738281 499.558594 522.402344 497.699219 523.238281 495.347656 C 524.820312 490.914062 526.734375 485.148438 528.859375 478.488281 C 533.105469 465.164062 538.203125 448.261719 543.117188 431.671875 C 552.9375 398.5 562.03125 366.503906 562.03125 366.503906 L 555.453125 364.621094 C 555.453125 364.621094 546.382812 396.628906 536.574219 429.753906 C 531.667969 446.316406 526.570312 463.148438 522.351562 476.386719 C 520.242188 483.007812 518.234375 488.679688 516.839844 493.035156 C 515.929688 495.875 515.152344 498.617188 514.101562 501.394531 C 514.101562 501.394531 508.800781 520.234375 501.300781 541.628906 C 493.800781 563.023438 483.6875 587.164062 475.632812 596.375 L 474.707031 597.476562 L 474.707031 597.546875 C 464.957031 608.039062 449.804688 620.132812 434.636719 633.085938 C 420.277344 645.34375 405.875 658.425781 400.789062 664.429688 L 390.511719 679.828125 C 390.511719 679.828125 380.492188 697.933594 369.996094 721.519531 C 359.511719 745.078125 348.441406 774.03125 346.421875 796.71875 C 346.417969 796.738281 346.425781 796.765625 346.421875 796.789062 C 346.085938 798.207031 340.03125 824.273438 340.660156 866.476562 L 340.660156 867.828125 L 341.585938 868.785156 C 341.585938 868.785156 344.3125 871.730469 345.214844 875.972656 C 346.082031 880.074219 345.566406 885.230469 338.101562 891.410156 C 335.574219 891.785156 284.027344 899.011719 240.183594 872.308594 C 242.027344 872.078125 243.613281 871.574219 244.945312 870.8125 C 247.679688 869.25 249.265625 866.605469 249.78125 863.664062 C 250.792969 857.921875 248.238281 850.878906 243.84375 845.523438 C 245.941406 843.324219 249.976562 839.085938 255.082031 833.179688 C 258.449219 829.277344 261.902344 825.097656 264.679688 821.226562 C 267.457031 817.355469 269.632812 814.058594 270.367188 810.625 L 270.40625 810.449219 L 270.441406 810.234375 C 270.441406 810.234375 273.15625 782.328125 279.933594 750.1875 C 286.710938 718.046875 297.945312 681.648438 313.144531 665.847656 L 313.605469 665.382812 L 313.855469 664.742188 C 313.855469 664.742188 326.070312 633.769531 338.671875 601.246094 C 344.972656 584.988281 351.347656 568.320312 356.378906 554.96875 C 360.136719 544.996094 363.070312 537.089844 364.140625 533.933594 C 365.214844 530.773438 365.578125 529.535156 365.976562 528.21875 C 366.207031 527.546875 366.0625 526.796875 366.011719 526.191406 C 371.980469 488.796875 389.089844 432.847656 389.089844 432.847656 L 382.546875 430.855469 C 382.546875 430.855469 371.15625 467.84375 363.628906 502.355469 C 362.445312 490.59375 360.980469 476.160156 359.328125 460.914062 C 357.484375 443.925781 355.5 426.480469 353.640625 412.324219 C 352.707031 405.242188 351.800781 398.988281 350.972656 394.003906 C 350.425781 390.710938 349.949219 388.054688 349.445312 385.925781 L 355.347656 381.941406 C 356.75 386.195312 357.828125 388.753906 357.976562 389.09375 C 358.03125 389.308594 358.167969 389.449219 358.226562 389.664062 C 359.328125 393.640625 361.308594 396.863281 364.09375 398.945312 C 367.023438 401.140625 370.566406 402.085938 374.226562 402.21875 C 381.546875 402.488281 389.628906 399.796875 397.40625 396.3125 C 412.96875 389.347656 427.308594 378.742188 427.308594 378.742188 L 427.488281 378.632812 L 427.664062 378.457031 C 469.777344 338.117188 515.417969 321.542969 515.417969 321.542969 L 515.523438 321.503906 L 515.628906 321.433594 C 566.15625 299.019531 570.777344 228.199219 570.777344 228.199219 L 570.882812 226.8125 L 569.957031 225.746094 L 564.09375 218.878906 C 568.023438 215.53125 571.023438 211.675781 573.335938 207.566406 C 573.382812 207.488281 573.472656 207.433594 573.515625 207.355469 L 573.402344 207.308594 C 573.6875 206.835938 573.929688 206.3125 573.96875 205.921875 C 574.0625 204.996094 573.851562 204.5625 573.722656 204.214844 C 573.457031 203.515625 573.210938 203.175781 572.9375 202.792969 C 572.398438 202.019531 571.738281 201.238281 570.839844 200.230469 C 569.046875 198.214844 566.429688 195.492188 563.230469 192.226562 C 556.839844 185.695312 548.089844 176.988281 539.269531 167.929688 C 530.445312 158.871094 521.535156 149.445312 514.839844 141.535156 C 511.492188 137.578125 508.714844 133.996094 506.804688 131.113281 C 505.625 129.441406 504.390625 126.957031 503.535156 125.597656 C 498.640625 117.835938 492.394531 109.722656 491.484375 108.636719 C 492.746094 101.992188 492.410156 96.832031 490.667969 92.949219 C 488.828125 88.839844 485.460938 86.320312 481.8125 85.160156 C 479.992188 84.578125 478.074219 84.269531 476.195312 84.199219 C 470.5625 83.980469 465.019531 85.792969 461.511719 88.109375 C 455.984375 91.761719 443.722656 96.421875 431.253906 100.171875 C 418.785156 103.917969 405.914062 106.867188 398.96875 107.640625 L 399.46875 112.195312 C 407.046875 111.351562 419.914062 108.351562 432.570312 104.546875 C 445.226562 100.738281 457.480469 96.25 464.035156 91.917969 C 467.273438 89.777344 475.066406 87.789062 480.425781 89.496094 C 483.109375 90.351562 485.203125 91.886719 486.507812 94.796875 C 487.8125 97.710938 488.269531 102.207031 486.863281 108.8125 L 486.648438 109.878906 L 487.324219 110.734375 C 487.324219 110.734375 493.730469 118.464844 495.574219 123.789062 C 497.417969 129.113281 498.960938 131.628906 501.121094 134.886719 C 503.277344 138.144531 506.207031 141.875 509.652344 145.949219 C 516.550781 154.097656 525.53125 163.59375 534.402344 172.699219 C 543.273438 181.808594 552.027344 190.523438 558.363281 196.996094 C 561.535156 200.234375 564.09375 202.917969 565.726562 204.753906 C 566.078125 205.148438 566.179688 205.296875 566.4375 205.605469 C 564.109375 209.355469 561.257812 212.765625 557.191406 215.636719 L 554.132812 217.808594 L 556.550781 220.652344 L 563.734375 229.011719 C 563.386719 232.855469 557.179688 295.324219 513.066406 315.097656 C 512.992188 315.128906 512.929688 315.171875 512.855469 315.203125 C 512.21875 315.433594 466.050781 332.363281 423.21875 373.257812 C 423.21875 373.257812 409.21875 383.539062 394.597656 390.082031 C 387.285156 393.355469 379.796875 395.582031 374.4375 395.382812 C 371.757812 395.285156 369.707031 394.632812 368.144531 393.460938 C 366.582031 392.292969 365.351562 390.546875 364.585938 387.449219 L 364.515625 387.128906 L 364.375 386.847656 C 364.375 386.847656 343.539062 340.859375 351.824219 306.453125 C 360.109375 272.046875 360.417969 257.371094 360.429688 247.046875 C 360.589844 246.628906 363.089844 240.269531 365.761719 231.464844 C 368.414062 222.714844 371.078125 212.109375 371.273438 203.433594 C 373.160156 201.707031 391.84375 184.324219 400.675781 164.128906 L 396.480469 162.3125 C 387.804688 182.160156 367.539062 200.695312 367.539062 200.695312 L 366.792969 201.371094 L 366.792969 202.402344 C 366.792969 210.253906 364.121094 221.253906 361.421875 230.148438 C 358.722656 239.046875 356.019531 245.871094 356.019531 245.871094 L 355.875 246.261719 L 355.875 246.691406 C 355.875 256.324219 355.558594 270 348.941406 295.246094 C 342.328125 320.492188 348.121094 356.339844 353.210938 375.070312 L 347.234375 379.125 L 347.199219 379.019531 L 343.582031 381.238281 C 343.582031 381.238281 329.511719 389.964844 310.695312 398.492188 C 291.875 407.015625 268.265625 415.164062 250.214844 414.320312 C 244.601562 414.058594 239.132812 416.582031 233.433594 419.832031 C 227.730469 423.085938 221.773438 427.230469 215.65625 431.003906 C 204.796875 437.699219 193.882812 442.910156 183.546875 440.75 L 192.507812 422.109375 C 197.855469 420.597656 202.191406 417.050781 205.59375 412.648438 C 209.597656 407.460938 212.414062 401.046875 214.480469 394.789062 C 217.488281 385.683594 218.808594 376.972656 219.316406 372.878906 L 219.8125 373.199219 C 223.285156 368.15625 228.335938 364.425781 236.632812 362.703125 C 244.929688 360.980469 256.460938 361.320312 272.542969 364.660156 L 273.003906 362.457031 C 264.875 360.765625 257.859375 359.800781 251.777344 359.503906 C 245.699219 359.207031 240.550781 359.550781 236.167969 360.464844 C 228.746094 362.003906 223.53125 365.222656 219.8125 369.5 C 220.847656 363.773438 222.972656 357.484375 225.964844 352.992188 C 227.539062 350.628906 229.351562 348.789062 231.226562 347.691406 C 233.101562 346.597656 234.988281 346.183594 237.269531 346.625 C 243.089844 347.753906 248.84375 348.8125 254.195312 348.902344 C 259.546875 348.992188 264.617188 348.09375 268.667969 345.097656 L 265.964844 341.433594 C 263.039062 343.597656 259.105469 344.429688 254.300781 344.347656 C 249.5 344.269531 243.9375 343.261719 238.160156 342.144531 C 234.808594 341.492188 231.59375 342.210938 228.914062 343.78125 C 226.234375 345.347656 224.042969 347.695312 222.195312 350.46875 C 218.503906 356.007812 216.203125 363.214844 215.15625 369.710938 L 215.121094 369.78125 L 215.121094 369.855469 C 215.121094 369.855469 214.105469 381.46875 210.175781 393.367188 C 208.214844 399.316406 205.523438 405.308594 202 409.871094 C 199.207031 413.488281 195.972656 416.171875 192.113281 417.484375 L 191.402344 417.058594 C 187.320312 414.671875 183.34375 413.597656 179.671875 413.605469 C 176 413.617188 172.667969 414.714844 169.859375 416.667969 C 164.242188 420.566406 160.632812 427.089844 157.980469 433.882812 C 152.9375 446.816406 151.535156 460.972656 151.402344 462.339844 C 146.835938 473.898438 142.808594 496.910156 144.507812 522.957031 C 146.304688 550.550781 154.757812 581.378906 177.324219 603.3125 C 184.859375 610.640625 201.871094 618.726562 216.683594 619.996094 C 224.089844 620.632812 230.929688 619.6875 235.242188 615.445312 C 237.402344 613.320312 238.628906 610.132812 238.335938 606.835938 C 238.046875 603.539062 236.496094 600.1875 233.785156 596.554688 L 230.585938 592.25 L 228.0625 596.980469 C 228.0625 596.980469 227.949219 597.253906 227.171875 597.800781 C 226.46875 598.296875 225.273438 598.773438 223.261719 598.691406 C 222.28125 598.089844 220.777344 597.273438 218.53125 596.839844 C 216.832031 596.511719 214.75 596.5 212.667969 597.375 C 211.058594 598.046875 209.675781 599.394531 208.507812 601.074219 C 207.601562 601.320312 205.9375 601.707031 204.132812 601.570312 C 202.929688 601.480469 202.019531 601.167969 201.429688 600.644531 C 200.839844 600.125 200.25 599.328125 200.117188 597.125 C 199.703125 590.410156 203.539062 584.253906 209.964844 579.695312 C 216.390625 575.136719 225.277344 572.457031 233.75 573.007812 C 241.902344 573.539062 250.847656 578.441406 256.257812 586.667969 C 261.625 594.828125 263.722656 606.199219 258.320312 620.53125 C 241.933594 644.898438 218.636719 653.597656 194.496094 651.691406 C 170.242188 649.78125 145.257812 636.78125 127.152344 617.367188 C 91.925781 579.59375 73.304688 525.707031 70.585938 457.820312 C 71.625 446.125 73.09375 435.246094 74.78125 425.199219 C 75.046875 424.8125 75.183594 424.199219 79.402344 399.375 C 83.507812 374.351562 97.730469 345.96875 98.140625 345.164062 C 102.527344 340.972656 106.113281 334.386719 109.484375 326.523438 C 113.015625 318.277344 116.179688 308.734375 118.871094 299.628906 C 124.25 281.421875 127.6875 264.945312 127.6875 264.945312 L 127.757812 264.664062 L 127.757812 264.34375 C 128.199219 244.582031 134.28125 230.949219 140.203125 222.226562 C 146.125 213.5 151.652344 209.882812 151.652344 209.882812 L 152.46875 209.347656 L 152.859375 208.457031 C 155.890625 201.832031 165.960938 187.730469 175.117188 175.800781 C 184.265625 163.886719 192.59375 153.839844 192.609375 153.820312 C 192.609375 153.820312 192.609375 153.785156 192.609375 153.785156 C 216.050781 125.554688 265.960938 130.625 265.960938 130.625 L 267.207031 130.769531 L 268.238281 130.09375 C 268.0625 130.207031 269.835938 129.320312 272.113281 128.457031 C 274.394531 127.59375 277.441406 126.5 281.003906 125.289062 C 288.128906 122.867188 297.300781 119.914062 306.53125 117.074219 C 315.761719 114.230469 325.058594 111.480469 332.488281 109.460938 C 336.203125 108.449219 339.480469 107.644531 341.980469 107.078125 C 344.480469 106.507812 346.480469 106.222656 346.601562 106.222656 L 347.5625 106.222656 L 348.378906 105.726562 C 359.59375 98.871094 390.546875 82.746094 390.546875 82.746094 L 390.867188 82.566406 L 391.1875 82.28125 C 405.308594 70.277344 418.90625 66.621094 430.566406 66.621094 Z M 255.96875 266.398438 C 255.503906 266.410156 255.035156 266.425781 254.546875 266.472656 C 250.621094 266.847656 245.832031 268.457031 240.109375 272.054688 L 241.316406 274.011719 C 252.335938 267.082031 258.820312 267.976562 262.6875 270.3125 C 266.550781 272.648438 267.878906 276.609375 267.878906 276.609375 L 270.046875 275.898438 C 270.046875 275.898438 268.5 271.160156 263.859375 268.355469 C 261.828125 267.128906 259.214844 266.332031 255.964844 266.398438 Z M 252.164062 274.546875 C 248.886719 274.621094 244.898438 275.925781 239.503906 279.207031 L 240.710938 281.164062 C 247.65625 276.941406 251.570312 276.339844 254.71875 277.074219 C 257.675781 277.761719 260.21875 279.8125 263.855469 281.734375 C 262.675781 282.390625 261.105469 282.589844 259.058594 282.480469 C 256.417969 282.339844 253.273438 281.660156 250.097656 281.304688 C 246.917969 280.949219 243.570312 280.863281 240.675781 282.621094 C 237.777344 284.382812 235.957031 287.882812 235.554688 293.082031 L 240.105469 293.4375 C 240.289062 291.082031 240.710938 289.511719 241.277344 288.421875 C 242.363281 290.4375 243.566406 291.964844 244.941406 293.042969 C 246.925781 294.605469 249.363281 295.105469 251.449219 294.539062 C 254.871094 293.605469 257.179688 290.566406 258.203125 286.960938 C 258.417969 286.976562 258.628906 287.023438 258.84375 287.035156 C 262.035156 287.203125 265.453125 286.78125 267.980469 284.292969 L 264.996094 281.269531 L 265.5625 280.0625 C 261.8125 278.183594 259.066406 275.726562 255.21875 274.832031 C 254.253906 274.609375 253.25 274.523438 252.160156 274.546875 Z M 178.777344 420.386719 C 180.621094 420.234375 182.699219 420.617188 185.140625 421.667969 L 176.820312 438.421875 L 175.257812 441.339844 C 173.398438 445.523438 171.425781 451.832031 168.464844 455.886719 C 166.984375 457.914062 165.378906 459.25 163.699219 459.800781 C 162.367188 460.238281 160.839844 460.285156 158.6875 459.515625 C 159.425781 454.296875 161.09375 444.808594 164.375 436.394531 C 166.773438 430.246094 170.0625 424.878906 173.761719 422.308594 C 175.320312 421.226562 176.929688 420.539062 178.777344 420.386719 Z M 66.277344 435.753906 C 65.5 441.316406 64.808594 447.09375 64.214844 453.078125 C 61.675781 451.671875 60.703125 450.257812 60.339844 448.988281 C 59.851562 447.277344 60.390625 444.851562 62.046875 441.871094 C 63.136719 439.914062 64.648438 437.824219 66.277344 435.753906 Z M 878.617188 534.644531 C 882.957031 554.730469 891.484375 595.910156 893.339844 618.167969 L 893.339844 618.34375 L 893.375 618.558594 C 893.375 618.558594 897.265625 638.050781 903.152344 660.640625 C 909.039062 683.230469 916.675781 708.6875 925.339844 721.859375 L 925.445312 722.003906 L 925.515625 722.144531 C 925.515625 722.144531 933.511719 731.996094 941.054688 746.300781 C 948.59375 760.601562 955.476562 779.238281 953.675781 796.066406 L 953.535156 797.558594 L 954.527344 798.695312 C 954.527344 798.695312 964.40625 809.867188 969.925781 825.199219 L 970.101562 825.730469 L 970.457031 826.195312 C 970.457031 826.195312 973.359375 829.726562 974.867188 835.835938 C 976.375 841.941406 976.488281 850.277344 970.246094 860.09375 L 970.207031 860.164062 L 970.171875 860.238281 C 970.171875 860.238281 969.089844 862.164062 965.835938 865.289062 C 962.582031 868.414062 957.285156 872.5 949.195312 876.066406 C 940.839844 879.75 929.425781 882.882812 914.207031 883.785156 C 913.648438 882.277344 912.746094 880.832031 911.613281 879.550781 C 909.730469 877.425781 907.277344 875.710938 904.679688 874.890625 C 903.378906 874.480469 902.003906 874.316406 900.699219 874.464844 C 899.394531 874.617188 898.152344 875.066406 897.070312 875.960938 C 895.265625 877.453125 894.078125 879.980469 893.65625 883.644531 C 888.664062 883.320312 883.382812 882.789062 877.765625 882.007812 C 877.773438 878.730469 877.472656 874.027344 875.949219 869.839844 C 874.632812 866.214844 872.300781 862.914062 868.378906 861.695312 C 867.398438 861.390625 866.324219 861.21875 865.175781 861.195312 C 862.601562 861.148438 859.582031 861.847656 856.039062 863.472656 C 856.351562 861.992188 856.925781 860.421875 857.925781 858.777344 C 860.226562 854.984375 864.800781 850.628906 873.25 846.328125 L 874.527344 845.6875 L 874.957031 844.296875 C 874.957031 844.296875 876.78125 838.324219 878.261719 830.425781 C 879.742188 822.527344 880.953125 812.6875 879.542969 804.207031 L 879.542969 804.03125 L 879.472656 803.851562 C 879.472656 803.851562 871.273438 774.601562 861.550781 742.847656 C 856.691406 726.976562 851.460938 710.484375 846.644531 696.652344 C 842.539062 684.84375 838.910156 675.164062 835.765625 669.050781 C 837.363281 661.976562 840.261719 651.554688 843.871094 639.632812 C 848.671875 623.789062 854.722656 605.144531 860.65625 587.339844 C 868.144531 564.855469 874.246094 547.183594 878.609375 534.65625 Z M 475.410156 606.722656 L 481.882812 691.988281 L 481.882812 692.09375 C 481.882812 692.09375 484.921875 723.910156 494.183594 745.382812 C 494.285156 745.925781 498.007812 766.300781 501.402344 789.988281 C 504.839844 813.996094 507.71875 841.492188 506.273438 852.488281 L 506.132812 853.484375 L 506.59375 854.410156 C 506.59375 854.410156 513.265625 868.441406 517.792969 877.53125 C 517.828125 878.402344 517.980469 882.375 517.082031 886.601562 C 516.582031 888.960938 515.726562 891.148438 514.699219 892.507812 C 513.671875 893.867188 512.777344 894.464844 510.929688 894.464844 L 510.824219 894.464844 C 510.824219 894.464844 497.542969 894.910156 480.175781 894.925781 C 479.304688 893.238281 477.90625 891.34375 476.15625 889.519531 C 473.835938 887.101562 470.886719 884.84375 467.554688 883.578125 C 465.886719 882.945312 464.09375 882.566406 462.289062 882.582031 C 460.488281 882.601562 458.664062 883.015625 456.886719 883.933594 C 453.648438 885.605469 450.667969 888.917969 448.140625 894.320312 C 444.433594 894.164062 440.773438 893.984375 437.222656 893.753906 C 436.746094 887.140625 434.816406 882.371094 432.03125 879.238281 C 428.769531 875.570312 424.355469 874.222656 420.121094 874.613281 C 415.886719 875.007812 411.769531 877.101562 408.886719 880.269531 C 406.867188 882.488281 405.488281 885.289062 405.082031 888.382812 C 404.222656 887.925781 403.28125 887.382812 402.308594 886.78125 C 402.941406 885.445312 403.605469 883.78125 404.085938 881.941406 C 405.230469 877.585938 405.285156 871.972656 401.382812 867.324219 C 403.554688 865.773438 406.285156 864.113281 409.738281 862.414062 L 410.203125 862.199219 L 410.558594 861.878906 C 410.558594 861.878906 416.621094 856.300781 422.183594 849.574219 C 424.964844 846.207031 427.640625 842.570312 429.4375 838.9375 C 431.105469 835.566406 432.226562 831.871094 430.789062 828.371094 L 430.824219 828.371094 C 430.824219 828.371094 422.632812 794.332031 414.289062 758.863281 C 410.121094 741.128906 405.910156 723.042969 402.664062 708.671875 C 401.042969 701.484375 399.660156 695.226562 398.644531 690.421875 C 397.945312 687.101562 397.519531 684.78125 397.222656 683.09375 C 406.175781 667.707031 422.425781 652.457031 439.039062 638.273438 C 452.109375 627.117188 465.34375 616.671875 475.410156 606.722656 Z M 242.28125 847.222656 C 246.1875 852.117188 248.363281 858.605469 247.542969 863.269531 C 247.117188 865.695312 245.972656 867.601562 243.84375 868.816406 C 242.195312 869.761719 239.855469 870.296875 236.734375 870.132812 C 235.871094 869.566406 234.992188 869.019531 234.140625 868.425781 C 233.820312 868.019531 231.15625 864.5625 230.511719 860.636719 C 230.171875 858.550781 230.375 856.597656 231.648438 854.589844 C 232.925781 852.578125 235.46875 850.34375 240.609375 848.433594 L 241.355469 848.148438 L 241.890625 847.617188 C 241.890625 847.617188 242.253906 847.253906 242.28125 847.222656 Z M 272.46875 847.9375 C 270.695312 847.945312 268.871094 848.285156 267.0625 849.003906 C 262.238281 850.917969 257.578125 855.511719 253.625 863.660156 L 253.445312 864.015625 L 253.515625 864.40625 C 254.050781 866.828125 255.878906 869.351562 258.421875 871.734375 C 260.964844 874.117188 264.273438 876.324219 267.953125 877.851562 C 275.308594 880.90625 284.355469 881.136719 290.886719 874.011719 L 291.027344 873.832031 L 291.097656 873.65625 C 292.625 869.65625 292.011719 864.972656 290.066406 860.742188 C 288.125 856.511719 284.824219 852.683594 280.789062 850.320312 C 278.769531 849.136719 276.535156 848.3125 274.210938 848.042969 C 273.628906 847.976562 273.058594 847.933594 272.46875 847.9375 Z M 272.113281 850.210938 C 274.753906 850.117188 277.308594 850.90625 279.648438 852.277344 C 283.21875 854.363281 286.214844 857.882812 287.96875 861.703125 C 289.6875 865.441406 290.144531 869.417969 289 872.621094 C 283.207031 878.761719 275.539062 878.550781 268.804688 875.753906 C 265.402344 874.339844 262.285156 872.25 259.953125 870.0625 C 257.746094 867.996094 256.359375 865.84375 255.898438 864.226562 C 259.632812 856.726562 263.871094 852.742188 267.914062 851.136719 C 268.949219 850.726562 269.957031 850.453125 270.972656 850.320312 C 271.355469 850.269531 271.734375 850.226562 272.113281 850.210938 Z M 865.109375 863.480469 C 866.070312 863.5 866.941406 863.632812 867.707031 863.871094 C 870.761719 864.824219 872.640625 867.386719 873.820312 870.628906 C 875.148438 874.28125 875.433594 878.585938 875.457031 881.695312 C 871.125 881.046875 866.621094 880.261719 861.910156 879.308594 C 861.105469 878.519531 857.171875 874.542969 856.042969 868.957031 C 855.855469 868.03125 855.761719 867.089844 855.757812 866.113281 C 859.628906 864.15625 862.695312 863.433594 865.109375 863.480469 Z M 399.578125 868.671875 C 403.054688 872.679688 402.933594 877.347656 401.886719 881.335938 C 401.480469 882.890625 400.9375 884.3125 400.394531 885.496094 C 398.703125 884.304688 397.085938 882.976562 395.949219 881.511719 C 394.066406 879.085938 393.390625 877.136719 394.742188 874.21875 C 395.449219 872.695312 396.96875 870.789062 399.578125 868.671875 Z M 315.558594 870.128906 C 314.613281 870.171875 313.710938 870.457031 312.890625 870.875 C 310.710938 872 309 874.058594 307.773438 875.820312 C 306.542969 877.585938 305.816406 879.09375 305.816406 879.09375 L 305.675781 879.378906 L 305.710938 879.699219 C 306.113281 884.421875 309.867188 887.683594 314.066406 889.195312 C 318.261719 890.707031 323.078125 890.664062 326.15625 888.199219 L 326.722656 887.738281 L 326.53125 887.066406 C 324.691406 879.25 322.621094 874.75 320.273438 872.304688 C 319.097656 871.082031 317.800781 870.363281 316.503906 870.167969 C 316.179688 870.121094 315.859375 870.121094 315.542969 870.132812 Z M 315.628906 872.40625 C 315.816406 872.402344 316.015625 872.414062 316.199219 872.441406 C 316.9375 872.550781 317.742188 872.917969 318.652344 873.863281 C 320.390625 875.675781 322.359375 879.757812 324.09375 886.742188 C 321.851562 888.082031 318.175781 888.261719 314.847656 887.0625 C 311.320312 885.792969 308.460938 883.222656 308.019531 879.769531 C 308.144531 879.523438 308.648438 878.546875 309.65625 877.101562 C 310.78125 875.488281 312.359375 873.675781 313.921875 872.867188 C 314.511719 872.566406 315.070312 872.414062 315.628906 872.40625 Z M 699.128906 875.609375 C 703.105469 876.601562 705.566406 878.414062 707.128906 880.585938 C 708.902344 883.058594 709.546875 886.101562 709.546875 889.125 C 709.546875 891.9375 708.992188 894.671875 708.410156 896.808594 C 705.886719 896.367188 703.496094 895.859375 701.296875 895.277344 C 701.296875 895.277344 701.195312 895.246094 701.191406 895.242188 C 701.015625 895.183594 696.742188 893.628906 694.542969 890.867188 C 693.421875 889.457031 692.800781 888.019531 693.121094 885.746094 C 693.4375 883.472656 694.921875 880.152344 698.953125 875.820312 L 699.09375 875.644531 Z M 901.6875 876.6875 C 902.402344 876.699219 903.171875 876.832031 903.964844 877.082031 C 906.074219 877.746094 908.28125 879.269531 909.902344 881.101562 C 910.691406 881.996094 911.332031 882.949219 911.785156 883.910156 C 906.882812 884.117188 901.621094 884.105469 895.925781 883.804688 C 896.316406 880.644531 897.324219 878.746094 898.523438 877.757812 C 899.433594 877.003906 900.496094 876.671875 901.6875 876.6875 Z M 421.648438 876.832031 C 424.808594 876.859375 427.894531 878.046875 430.324219 880.78125 C 432.652344 883.398438 434.421875 887.558594 434.910156 893.621094 C 424.3125 892.867188 414.902344 891.742188 408.671875 890.136719 C 408.613281 890.109375 408.023438 889.859375 407.25 889.496094 C 407.421875 886.554688 408.660156 883.933594 410.589844 881.8125 C 413.085938 879.070312 416.667969 877.238281 420.296875 876.902344 C 420.75 876.859375 421.195312 876.828125 421.648438 876.832031 Z M 734.320312 882.417969 C 735.550781 882.460938 736.847656 882.78125 738.160156 883.339844 C 741.660156 884.832031 745.117188 888.113281 747.085938 892.019531 C 748.253906 894.34375 748.863281 896.859375 748.757812 899.382812 C 740.976562 899.421875 732.945312 899.265625 725.324219 898.742188 C 725.257812 891.519531 726.765625 887.070312 728.84375 884.765625 C 730.390625 883.050781 732.269531 882.34375 734.320312 882.417969 Z M 462.324219 884.871094 C 463.800781 884.859375 465.28125 885.175781 466.734375 885.722656 C 469.632812 886.824219 472.378906 888.902344 474.519531 891.132812 C 475.757812 892.417969 476.757812 893.75 477.507812 894.9375 C 474.886719 894.933594 472.183594 894.933594 469.433594 894.902344 C 463.300781 894.835938 456.914062 894.679688 450.589844 894.441406 C 452.867188 889.875 455.402344 887.269531 457.914062 885.972656 C 459.378906 885.21875 460.847656 884.882812 462.324219 884.871094 Z M 462.324219 884.871094 "/>
</g>
</svg>
