<?xml version="1.0" encoding="UTF-8" standalone="no"?>
<svg
   xmlns:dc="http://purl.org/dc/elements/1.1/"
   xmlns:cc="http://creativecommons.org/ns#"
   xmlns:rdf="http://www.w3.org/1999/02/22-rdf-syntax-ns#"
   xmlns:svg="http://www.w3.org/2000/svg"
   xmlns="http://www.w3.org/2000/svg"
   xmlns:sodipodi="http://sodipodi.sourceforge.net/DTD/sodipodi-0.dtd"
   xmlns:inkscape="http://www.inkscape.org/namespaces/inkscape"
   id="svg2"
   sodipodi:docname="fingers.alt.svg"
   viewBox="0 0 442.70219 399.46906"
   version="1.0"
   inkscape:version="0.48.4 r9939"
   width="100%"
   height="100%">
  <defs
     id="defs3969" />
  <sodipodi:namedview
     id="namedview21"
     fit-margin-left="0"
     inkscape:zoom="0.62412995"
     borderopacity="1"
     inkscape:current-layer="layer1"
     inkscape:cx="447.42399"
     inkscape:cy="71.590486"
     inkscape:window-maximized="0"
     showgrid="false"
     fit-margin-right="0"
     bordercolor="#666666"
     inkscape:window-x="0"
     guidetolerance="10"
     objecttolerance="10"
     inkscape:window-y="18"
     fit-margin-bottom="0"
     inkscape:window-width="1362"
     inkscape:pageopacity="0"
     inkscape:pageshadow="2"
     pagecolor="#ffffff"
     gridtolerance="10"
     inkscape:window-height="668"
     fit-margin-top="0" />
  <g
     id="layer1"
     transform="translate(-22.519113,-12.405933)">
    <g
       id="g4187">
      <path
         d="m 288.98234,397.5216 c -29.88665,10.73007 -21.10171,-0.0174 -54.12546,12.29007 -47.75,-7.18 -72.77554,4.89591 -114.88123,-8.05844 C 67.674309,358.99335 50.262,344.54 47.102,326.92 38.049,297.62 14.674,267.51 29.137,249.63 c 15.892,-19.279 61.061,16.905 74.148,42.939 10.936,29.99 40.668,58.246 50.812,52.017 12.687,-8.5003 -0.34023,-48.506 8.6158,-95.003 4.996,-27.176 -6.892,-67.38 -5.3576,-78.123 4.676,-58.523 -4.4947,-53.657 -2.3032,-78.207 0.0854,-12.023 -1.8487,-36.593 9.448,-49.395 7.0606,-7.161 23.465,-9.8688 32.105,-1.1947 10.12,15.19 10.81,25.91 12.38,41.702 0.63,7.912 1.43,15.541 0,28.498 0.10627,18.687 3.9919,39.294 7.2659,57.766 2.8461,20.936 0.30735,46.79 5.1361,65.568 2.0463,8.0438 20.673,8.1884 21.697,-0.10921 4.1171,-31.196 -1.617,-65.143 -1.9662,-82.246 1.6638,-17.065 1.3755,-59.824 1.3667,-60.977 3.0584,-19.798 -0.10781,-39.64 5.1676,-57.731 3.4503,-10.413 10.221,-20.427 25.766,-20.734 11.164,-0.06077 20.3,9.1505 21.708,23.165 1.618,22.171 3.9584,44.021 4.9564,53.775 -1.2991,25.825 -0.65377,46.652 1.1022,63.714 1.2624,19.394 -6.9544,59.104 -2.726,83.765 1.8116,8.4948 16.679,10.44 17.808,3.1109 5.7361,-29.401 4.1128,-34.142 8.3187,-73.3 4.2981,-25.994 13.432,-40.511 15.798,-73.976 2.5487,-21.415 5.9426,-41.664 16.468,-48.323 8.9224,-5.2736 13.83,-3.333 18,-1.5 18.603,10.024 14.84,35.008 13.636,55.817 -2.687,21.341 -6.4042,54.796 -6.5028,75.216 -3.1739,25.334 -16.154,58.053 -16.704,80.905 0.3574,6.3863 12.463,10.738 15.382,6.2114 13.254,-16.842 17.226,-48.607 21.491,-57.826 4.453,-9.6254 12.565,-39.409 16.573,-46.177 7.5904,-12.818 11.4,-30.429 22.749,-36.006 7.33,-2.7016 19.157,1.767 21.605,12.401 0.93229,14.417 -2.6666,36.263 -6.6346,46.637 -7.0937,18.547 -10.151,42.324 -14.67,53.84 -3.9273,10.007 -14.178,39.786 -20.291,65.515 -17.448,69.919 -30.18242,46.80487 -30.048,61.58703 -38.06958,21.23773 -25.71882,13.98523 -46.38859,23.35626 z"
         inkscape:connector-curvature="0"
         style="fill:#f9bf9f;fill-rule:evenodd;stroke:#000000;stroke-width:4"
         sodipodi:nodetypes="ccccccccccccccccccccccccccccccccccssccsscccc"
         id="pathContourMain" />
      <path
         d="m 168.39,177.75 c 10.94,-3.3083 22.789,-4.0953 33.809,-2.6933"
         inkscape:connector-curvature="0"
         style="fill:none;stroke:#000000;stroke-width:4;stroke-linecap:round;stroke-opacity:0.50196013"
         sodipodi:nodetypes="cc"
         id="pathIndexMilieu" />
      <path
         d="m 165.49,106.25 c 11.464,-2.7766 23.174,-2.1898 34.501,-0.4986"
         inkscape:connector-curvature="0"
         style="fill:none;stroke:#000000;stroke-width:4;stroke-linecap:round;stroke-opacity:0.50196013"
         sodipodi:nodetypes="cc"
         id="pathIndexHaut" />
      <path
         d="m 252.73,90.584 c 10.229,-2.6635 26.017,-3.004 35.406,-0.10084"
         inkscape:connector-curvature="0"
         style="fill:none;stroke:#000000;stroke-width:4;stroke-linecap:round;stroke-opacity:0.50196013"
         sodipodi:nodetypes="cc"
         id="pathMajeurHaut" />
      <path
         d="m 252.83,161.86 c 11.756,-3.8848 27.708,-4.4802 39.015,-0.80112"
         inkscape:connector-curvature="0"
         style="fill:none;stroke:#000000;stroke-width:4;stroke-linecap:round;stroke-opacity:0.50196013"
         sodipodi:nodetypes="cc"
         id="pathMajeurMilieu" />
      <path
         d="m 349.07,111.34 c 9.5415,2.1294 21.308,0.3588 28.906,4.3025"
         inkscape:connector-curvature="0"
         style="fill:none;stroke:#000000;stroke-width:4;stroke-linecap:round;stroke-opacity:0.50196013"
         sodipodi:nodetypes="cc"
         id="pathAnnulaireHaut" />
      <path
         d="m 334.73,172.43 c 7.98,1.96 26.849,3.0228 34.809,7.0028"
         inkscape:connector-curvature="0"
         style="fill:none;stroke:#000000;stroke-width:4;stroke-linecap:round;stroke-opacity:0.50196013"
         sodipodi:nodetypes="cc"
         id="pathAnnulaireMilieu" />
      <path
         d="m 410.56,213.27 c 6.3616,1.6851 17.637,8.2056 23.004,12.807"
         inkscape:connector-curvature="0"
         style="fill:none;stroke:#000000;stroke-width:4;stroke-linecap:round;stroke-opacity:0.50196013"
         sodipodi:nodetypes="cc"
         id="pathAuriculaireMilieu" />
      <path
         d="m 426.31,168.78 c 7.0169,1.6633 13.355,4.0704 19.199,9.2017"
         inkscape:connector-curvature="0"
         style="fill:none;stroke:#000000;stroke-width:4;stroke-linecap:round;stroke-opacity:0.50196013"
         sodipodi:nodetypes="cc"
         id="pathAuriculaireMilieu-1" />
      <path
         d="m 67.366,326.51 c 10.94,-3.3083 20.523,-17.974 31.26,-21.953"
         inkscape:connector-curvature="0"
         style="fill:none;stroke:#000000;stroke-width:4;stroke-linecap:round;stroke-opacity:0.50196013"
         sodipodi:nodetypes="cc"
         id="pathIndexMilieu-1" />
    </g>
  </g>
  <metadata
     id="metadata3967">
    <rdf:RDF>
      <cc:Work>
        <dc:format>image/svg+xml</dc:format>
        <dc:type
           rdf:resource="http://purl.org/dc/dcmitype/StillImage" />
        <cc:license
           rdf:resource="http://creativecommons.org/licenses/publicdomain/" />
        <dc:publisher>
          <cc:Agent
             rdf:about="http://openclipart.org/">
            <dc:title>Openclipart</dc:title>
          </cc:Agent>
        </dc:publisher>
        <dc:title></dc:title>
      </cc:Work>
      <cc:License
         rdf:about="http://creativecommons.org/licenses/publicdomain/">
        <cc:permits
           rdf:resource="http://creativecommons.org/ns#Reproduction" />
        <cc:permits
           rdf:resource="http://creativecommons.org/ns#Distribution" />
        <cc:permits
           rdf:resource="http://creativecommons.org/ns#DerivativeWorks" />
      </cc:License>
    </rdf:RDF>
  </metadata>
</svg>
