<?xml version="1.0" encoding="UTF-8"?>
<svg xmlns="http://www.w3.org/2000/svg" xmlns:xlink="http://www.w3.org/1999/xlink" width="1023pt" height="922pt" viewBox="0 0 1023 922" version="1.1">
<g id="surface1">
<path style="fill-rule:evenodd;fill:rgb(97.647059%,74.901961%,62.352941%);fill-opacity:1;stroke-width:4;stroke-linecap:butt;stroke-linejoin:miter;stroke:rgb(0%,0%,0%);stroke-opacity:1;stroke-miterlimit:4;" d="M 288.98303 397.521443 C 259.095235 408.251487 267.88138 397.504519 234.857128 409.811913 C 187.107446 402.630907 162.081837 414.708131 119.975069 401.752533 C 67.674815 358.993137 50.26172 344.539733 47.101553 326.919782 C 38.049521 297.620329 14.673431 267.5102 29.13636 249.629613 C 45.028646 230.351075 90.197355 266.535357 103.28512 292.568408 C 114.220381 322.558374 143.95237 350.815286 154.096742 344.585429 C 166.784829 336.086015 153.756339 296.080213 162.713532 249.582225 C 167.709509 222.40678 155.820778 182.202962 157.355135 171.459378 C 162.031031 112.936633 152.86045 117.802386 155.051905 93.253602 C 155.136583 81.230536 153.202547 56.65975 164.500229 43.858164 C 171.560644 36.697467 187.964383 33.98957 196.604882 42.663304 C 206.725545 57.852918 207.414821 68.572807 208.984743 84.364928 C 209.614744 92.277066 210.415794 99.906568 208.984743 112.863858 C 209.091437 131.550044 212.976444 152.157145 216.250078 170.630085 C 219.096938 191.565518 216.558305 217.419171 221.38662 236.196749 C 223.434123 244.240897 242.059802 244.386447 243.0844 236.088433 C 247.201424 204.89176 241.467059 170.944878 241.118187 153.842812 C 242.781254 136.776287 242.493351 94.018583 242.484883 92.864342 C 245.543437 73.067917 242.376496 53.225798 247.651908 35.133656 C 251.101672 24.72179 257.872491 14.707646 273.417599 14.399623 C 284.58149 14.338695 293.7182 23.550624 295.125541 37.565687 C 296.744576 59.736599 299.085064 81.585948 300.082566 91.339457 C 298.783612 117.164338 299.428855 137.991456 301.185068 155.054596 C 302.446763 174.44822 294.229652 214.157847 298.45845 238.818332 C 300.27055 247.314361 315.138238 249.25897 316.266143 241.930722 C 322.002201 212.529723 320.379779 207.787518 324.584867 168.629625 C 328.883101 142.6355 338.018117 128.119477 340.384008 94.653247 C 342.932803 73.238854 346.32668 52.990549 356.852102 46.330813 C 365.77373 41.057182 370.681642 42.998407 374.851166 44.831315 C 393.454828 54.855613 389.691757 79.839354 388.487642 100.647855 C 385.799976 121.989473 382.08263 155.443856 381.984404 175.864789 C 378.810689 201.197172 365.831311 233.917037 365.280907 256.768309 C 365.638246 263.155562 377.743752 267.506815 380.663434 262.979549 C 393.917167 246.138118 397.888545 214.372786 402.152908 205.154087 C 406.606948 195.529203 414.719059 165.745714 418.726002 158.977663 C 426.316499 146.159152 430.12699 128.547663 441.475478 122.971086 C 448.805168 120.269958 460.632931 124.737989 463.080113 135.371565 C 464.013259 149.789427 460.414463 171.635392 456.446472 182.010024 C 449.352185 200.555738 446.295325 224.332772 441.775236 235.849799 C 437.84789 245.857174 427.598517 275.635585 421.484797 301.363998 C 404.037831 371.283607 391.302324 348.170009 391.437808 362.951745 C 353.366773 384.188432 365.717843 376.936344 345.048049 386.307362 Z M 288.98303 397.521443 " transform="matrix(2.306544,0,0,2.308064,-50.997251,-28.633682)"/>
<path style="fill:none;stroke-width:4;stroke-linecap:round;stroke-linejoin:miter;stroke:rgb(0%,0%,0%);stroke-opacity:0.501961;stroke-miterlimit:4;" d="M 168.390316 177.750163 C 179.330658 174.441451 191.178744 173.654468 202.198683 175.057497 " transform="matrix(2.306544,0,0,2.308064,-50.997251,-28.633682)"/>
<path style="fill:none;stroke-width:4;stroke-linecap:round;stroke-linejoin:miter;stroke:rgb(0%,0%,0%);stroke-opacity:0.501961;stroke-miterlimit:4;" d="M 165.489263 106.249818 C 176.954606 103.474223 188.66382 104.059806 199.990292 105.752242 " transform="matrix(2.306544,0,0,2.308064,-50.997251,-28.633682)"/>
<path style="fill:none;stroke-width:4;stroke-linecap:round;stroke-linejoin:miter;stroke:rgb(0%,0%,0%);stroke-opacity:0.501961;stroke-miterlimit:4;" d="M 252.729175 90.58463 C 262.958226 87.920736 278.747205 87.580556 288.136254 90.483084 " transform="matrix(2.306544,0,0,2.308064,-50.997251,-28.633682)"/>
<path style="fill:none;stroke-width:4;stroke-linecap:round;stroke-linejoin:miter;stroke:rgb(0%,0%,0%);stroke-opacity:0.501961;stroke-miterlimit:4;" d="M 252.830788 161.859881 C 264.585729 157.97574 280.537289 157.380003 291.845132 161.059359 " transform="matrix(2.306544,0,0,2.308064,-50.997251,-28.633682)"/>
<path style="fill:none;stroke-width:4;stroke-linecap:round;stroke-linejoin:miter;stroke:rgb(0%,0%,0%);stroke-opacity:0.501961;stroke-miterlimit:4;" d="M 349.070233 111.340666 C 358.611702 113.46975 370.378497 111.699462 377.975768 115.642838 " transform="matrix(2.306544,0,0,2.308064,-50.997251,-28.633682)"/>
<path style="fill:none;stroke-width:4;stroke-linecap:round;stroke-linejoin:miter;stroke:rgb(0%,0%,0%);stroke-opacity:0.501961;stroke-miterlimit:4;" d="M 334.72924 172.430837 C 342.709254 174.390677 361.578804 175.453527 369.538495 179.432444 " transform="matrix(2.306544,0,0,2.308064,-50.997251,-28.633682)"/>
<path style="fill:none;stroke-width:4;stroke-linecap:round;stroke-linejoin:miter;stroke:rgb(0%,0%,0%);stroke-opacity:0.501961;stroke-miterlimit:4;" d="M 410.559697 213.269318 C 416.922369 214.954984 428.196341 221.47594 433.563205 226.077674 " transform="matrix(2.306544,0,0,2.308064,-50.997251,-28.633682)"/>
<path style="fill:none;stroke-width:4;stroke-linecap:round;stroke-linejoin:miter;stroke:rgb(0%,0%,0%);stroke-opacity:0.501961;stroke-miterlimit:4;" d="M 426.309725 168.780252 C 433.326108 170.443917 439.665071 172.850561 445.509517 177.982027 " transform="matrix(2.306544,0,0,2.308064,-50.997251,-28.633682)"/>
<path style="fill:none;stroke-width:4;stroke-linecap:round;stroke-linejoin:miter;stroke:rgb(0%,0%,0%);stroke-opacity:0.501961;stroke-miterlimit:4;" d="M 67.366589 326.510212 C 78.305237 323.2015 87.889045 308.536542 98.62616 304.557625 " transform="matrix(2.306544,0,0,2.308064,-50.997251,-28.633682)"/>
</g>
</svg>
