<?xml version="1.0" encoding="UTF-8"?>
<svg xmlns="http://www.w3.org/2000/svg" xmlns:xlink="http://www.w3.org/1999/xlink" width="1024pt" height="1972pt" viewBox="0 0 1024 1972" version="1.1">
<g id="surface1">
<path style="fill-rule:nonzero;fill:rgb(100%,83.529412%,46.666667%);fill-opacity:1;stroke-width:2;stroke-linecap:round;stroke-linejoin:round;stroke:rgb(0%,0%,0%);stroke-opacity:1;stroke-miterlimit:4;" d="M 425.440356 586.529905 C 423.952554 597.509044 418.367646 616.102925 406.571152 612.902375 L 407.093383 644.188731 L 357.072176 644.645793 L 358.289604 613.883966 C 346.427554 611.005177 336.708873 558.209081 345.387537 546.934131 C 349.588718 542.664137 380.108487 550.34894 376.13731 537.038524 C 367.828282 509.188848 364.0497 491.31522 362.51523 478.751006 C 356.429573 454.014767 377.752522 456.669289 379.752185 470.697364 C 386.146736 483.157785 390.889038 526.060868 394.765769 526.706613 C 401.266989 530.8439 411.504568 484.209807 412.825701 475.246118 C 417.099476 455.720689 435.321633 459.749734 432.052319 476.647703 C 433.821237 483.866918 415.013515 539.586286 416.393168 559.925753 C 424.813679 567.348849 424.831087 574.258907 425.441097 586.532129 Z M 425.440356 586.529905 " transform="matrix(10.546699,0,0,10.537741,-3547.381865,-4834.676595)"/>
<path style="fill-rule:nonzero;fill:rgb(100%,83.529412%,46.666667%);fill-opacity:1;stroke-width:1;stroke-linecap:round;stroke-linejoin:round;stroke:rgb(0%,0%,0%);stroke-opacity:1;stroke-miterlimit:4;" d="M 381.310359 609.13022 C 378.522905 589.234099 386.00229 577.646656 399.328809 569.056995 " transform="matrix(10.546699,0,0,10.537741,-3547.381865,-4834.676595)"/>
<path style="fill-rule:nonzero;fill:rgb(100%,83.529412%,46.666667%);fill-opacity:1;stroke-width:2;stroke-linecap:round;stroke-linejoin:round;stroke:rgb(0%,0%,0%);stroke-opacity:1;stroke-miterlimit:4;" d="M 356.22994 537.790286 C 354.74436 527.666333 333.344372 526.814113 338.01408 543.770651 C 339.996335 549.95193 341.018204 554.21414 344.70271 563.799849 C 346.745707 568.268163 349.670201 571.170677 352.148761 574.327115 C 355.464372 578.933697 363.785992 576.626513 363.838956 572.316114 L 361.692994 560.912163 Z M 356.22994 537.790286 " transform="matrix(10.546699,0,0,10.537741,-3547.381865,-4834.676595)"/>
<path style="fill-rule:nonzero;fill:rgb(100%,83.529412%,46.666667%);fill-opacity:1;stroke-width:2;stroke-linecap:round;stroke-linejoin:round;stroke:rgb(0%,0%,0%);stroke-opacity:1;stroke-miterlimit:4;" d="M 373.490229 526.010083 C 372.828366 517.653587 353.766936 515.399412 353.556192 530.626304 L 358.842947 553.060177 L 363.870438 574.396434 C 366.162699 580.312298 376.897323 578.74242 377.852894 573.732526 L 375.947677 550.943159 Z M 373.490229 526.010083 " transform="matrix(10.546699,0,0,10.537741,-3547.381865,-4834.676595)"/>
<path style="fill-rule:nonzero;fill:rgb(100%,83.529412%,46.666667%);fill-opacity:1;stroke-width:2;stroke-linecap:round;stroke-linejoin:round;stroke:rgb(0%,0%,0%);stroke-opacity:1;stroke-miterlimit:4;" d="M 423.979962 570.92009 C 420.852132 560.923284 410.961966 558.123451 395.649858 543.642021 C 388.615296 536.987739 390.19236 521.132526 382.418896 516.517788 C 361.820774 519.609355 371.982055 544.120213 377.832894 553.985794 L 389.370494 575.534086 " transform="matrix(10.546699,0,0,10.537741,-3547.381865,-4834.676595)"/>
</g>
</svg>
