<?xml version="1.0" encoding="UTF-8"?>
<svg xmlns="http://www.w3.org/2000/svg" xmlns:xlink="http://www.w3.org/1999/xlink" width="1024pt" height="624pt" viewBox="0 0 1024 624" version="1.1">
<g id="surface1">
<path style=" stroke:none;fill-rule:nonzero;fill:rgb(87.45098%,50.588235%,2.352941%);fill-opacity:1;" d="M 55.257812 319.949219 C 52.414062 379.761719 66.089844 500.3125 115.25 534.625 C 164.410156 568.9375 172.8125 532.039062 196.351562 513.167969 C 204.273438 506.796875 212.660156 500.183594 218.554688 491.324219 C 218.554688 491.324219 211.9375 492.523438 222.152344 484.960938 C 230.167969 467.675781 228.625 442.347656 201.792969 398.84375 C 201.792969 398.84375 213.414062 347.671875 182.015625 325.796875 C 172.703125 323.933594 173.503906 321.066406 173.503906 321.066406 C 173.503906 321.066406 58.101562 260.144531 55.257812 319.960938 Z M 55.257812 319.949219 "/>
<path style=" stroke:none;fill-rule:nonzero;fill:rgb(87.45098%,50.588235%,2.352941%);fill-opacity:1;" d="M 173.503906 321.066406 C 173.503906 321.066406 172.703125 323.933594 182.015625 325.796875 C 179.46875 323.984375 176.640625 322.425781 173.503906 321.066406 Z M 173.503906 321.066406 "/>
<path style=" stroke:none;fill-rule:nonzero;fill:rgb(100%,100%,100%);fill-opacity:1;" d="M 241.285156 325.410156 C 207.492188 328.371094 190.519531 327.503906 182.011719 325.800781 C 213.410156 347.675781 201.785156 398.851562 201.785156 398.851562 C 228.621094 442.347656 230.164062 467.679688 222.148438 484.964844 C 228.414062 480.332031 241.007812 472.375 265.414062 458.832031 C 264.464844 450.742188 263.613281 441.964844 262.773438 432.394531 C 256.480469 360.605469 248.03125 341.179688 241.285156 325.433594 Z M 241.285156 325.410156 "/>
<path style=" stroke:none;fill-rule:nonzero;fill:rgb(87.45098%,50.588235%,2.352941%);fill-opacity:1;" d="M 222.148438 484.949219 C 211.933594 492.507812 218.550781 491.3125 218.550781 491.3125 C 219.886719 489.328125 221.109375 487.222656 222.148438 484.945312 Z M 222.148438 484.949219 "/>
<path style=" stroke:none;fill-rule:nonzero;fill:rgb(87.45098%,50.588235%,2.352941%);fill-opacity:1;" d="M 241.285156 325.410156 C 248.03125 341.160156 256.480469 360.585938 262.773438 432.394531 C 263.617188 441.964844 264.46875 450.742188 265.414062 458.832031 C 277.761719 567.257812 298.484375 548.550781 351.171875 561.402344 C 407.773438 575.199219 451.980469 513.359375 475.519531 494.484375 L 499.058594 475.640625 C 499.058594 475.640625 460.191406 284.59375 437.980469 247.570312 C 415.769531 210.550781 424.136719 202.964844 402.179688 188.578125 C 380.21875 174.191406 229.210938 157.691406 229.96875 253.640625 C 230.308594 299.570312 235.0625 310.925781 241.261719 325.378906 Z M 241.285156 325.410156 "/>
<path style=" stroke:none;fill-rule:nonzero;fill:rgb(100%,100%,100%);fill-opacity:1;" d="M 476.601562 133.503906 C 476.601562 133.503906 478.875 200.214844 402.183594 188.578125 C 424.140625 202.964844 415.769531 210.550781 437.984375 247.570312 C 460.203125 284.59375 499.0625 475.640625 499.0625 475.640625 C 499.0625 475.640625 557.773438 445.105469 584.3125 446.367188 C 579.039062 437.738281 579.304688 427.042969 583.164062 415.25 C 564.878906 403.730469 553.367188 380.648438 554.796875 339.21875 C 557.628906 256.746094 633.371094 269.820312 673.707031 288.828125 C 674.011719 288.121094 674.253906 287.433594 674.46875 286.808594 C 682.304688 261.859375 656.171875 251.304688 656.171875 251.304688 C 547.445312 214.152344 520.300781 196.863281 487.46875 159.335938 C 480.355469 151.222656 477.085938 142.472656 476.789062 133.511719 L 476.535156 133.5 Z M 476.601562 133.503906 "/>
<path style=" stroke:none;fill-rule:nonzero;fill:rgb(87.45098%,50.588235%,2.352941%);fill-opacity:1;" d="M 547.3125 48.9375 C 513.089844 66.09375 475.597656 101.117188 476.785156 133.511719 C 477.082031 142.480469 480.355469 151.222656 487.464844 159.335938 C 520.296875 196.859375 547.441406 214.152344 656.167969 251.304688 C 656.167969 251.304688 682.300781 261.859375 674.464844 286.808594 C 674.25 287.433594 674.011719 288.121094 673.703125 288.828125 C 682.398438 292.902344 689.472656 297.292969 693.769531 301.039062 C 718.074219 322.1875 731.726562 314.761719 731.726562 314.761719 L 748.625 379.597656 C 710.609375 367.144531 745.210938 395.40625 684.417969 413.839844 C 648.742188 424.660156 609.117188 431.609375 583.171875 415.25 C 579.3125 427.042969 579.042969 437.738281 584.316406 446.367188 L 617.558594 447.953125 C 675.667969 457.402344 758.296875 428.003906 758.296875 428.003906 L 765.183594 423.003906 L 859.25 376.878906 C 859.25 376.878906 812.328125 383.964844 797.132812 367.242188 C 781.960938 350.550781 744.042969 279.476562 748.375 245.015625 C 752.671875 210.585938 773.972656 154.3125 811.039062 130.761719 C 811.039062 130.761719 687.867188 116.910156 669.09375 92.03125 C 650.300781 67.167969 590.964844 27.023438 547.308594 48.929688 Z M 547.3125 48.9375 "/>
<path style=" stroke:none;fill-rule:nonzero;fill:rgb(87.45098%,50.588235%,2.352941%);fill-opacity:1;" d="M 673.691406 288.824219 C 633.359375 269.816406 557.613281 256.742188 554.78125 339.214844 C 553.355469 380.644531 564.863281 403.726562 583.148438 415.246094 C 597.773438 370.625 663.847656 310.617188 673.707031 288.824219 Z M 673.691406 288.824219 "/>
<path style=" stroke:none;fill-rule:nonzero;fill:rgb(87.45098%,50.588235%,2.352941%);fill-opacity:1;" d="M 583.175781 415.246094 C 609.121094 431.605469 648.753906 424.65625 684.425781 413.835938 C 745.21875 395.402344 710.617188 367.140625 748.628906 379.59375 L 731.730469 314.757812 C 731.730469 314.757812 718.078125 322.183594 693.773438 301.035156 C 689.476562 297.289062 682.402344 292.902344 673.707031 288.824219 C 663.804688 310.617188 597.730469 370.625 583.148438 415.246094 Z M 583.175781 415.246094 "/>
<path style=" stroke:none;fill-rule:nonzero;fill:rgb(87.45098%,50.588235%,2.352941%);fill-opacity:1;" d="M 617.558594 447.929688 C 617.558594 447.929688 609.910156 524.246094 641.828125 553.015625 C 673.773438 581.757812 754.191406 598.320312 763.949219 533.511719 C 773.683594 468.699219 751.40625 433.003906 758.296875 427.984375 C 758.296875 428.027344 675.660156 457.414062 617.546875 447.96875 Z M 617.558594 447.929688 "/>
<path style=" stroke:none;fill-rule:nonzero;fill:rgb(87.45098%,50.588235%,2.352941%);fill-opacity:1;" d="M 984.640625 254.5625 C 985.351562 221.140625 960.441406 179.273438 869.941406 152.222656 C 869.941406 152.222656 780.683594 233.242188 847.21875 322.339844 C 847.21875 322.339844 870.730469 360.089844 900.273438 354.839844 C 906.734375 353.699219 912.011719 352.042969 916.65625 349.78125 L 916.6875 349.785156 C 933.28125 341.683594 941.953125 325.792969 968.273438 296.796875 C 976.871094 287.253906 984.246094 272.089844 984.625 254.5625 Z M 984.429688 254.644531 C 981.402344 256.011719 956.757812 267 943.765625 270.644531 Z M 853.164062 213.066406 C 853.957031 196.410156 865.574219 183.441406 879.089844 184.085938 C 892.605469 184.726562 902.910156 198.738281 902.117188 215.398438 C 901.328125 232.027344 889.738281 244.996094 876.222656 244.355469 C 862.65625 243.710938 852.332031 229.695312 853.132812 213.066406 Z M 853.164062 213.066406 "/>
<path style=" stroke:none;fill-rule:nonzero;fill:rgb(100%,100%,100%);fill-opacity:1;" d="M 854.765625 219.613281 C 854.457031 226.132812 859.269531 231.65625 865.488281 231.949219 C 868.59375 232.097656 871.398438 230.929688 873.546875 228.972656 C 864.839844 228.351562 858.160156 221.40625 858.542969 213.320312 C 858.574219 212.566406 858.671875 211.8125 858.859375 211.097656 C 856.539062 213.132812 854.980469 216.175781 854.8125 219.613281 Z M 854.765625 219.613281 "/>
<path style=" stroke:none;fill-rule:nonzero;fill:rgb(10.588235%,9.019608%,10.588235%);fill-opacity:1;" d="M 858.855469 211.101562 C 860.933594 209.261719 863.679688 208.214844 866.601562 208.351562 C 872.84375 208.652344 877.660156 214.171875 877.351562 220.695312 C 877.195312 223.980469 875.757812 226.910156 873.542969 228.976562 C 873.695312 229.015625 873.875 229.023438 874.023438 229.035156 C 882.984375 229.460938 890.542969 223.105469 890.933594 214.867188 C 891.328125 206.597656 884.40625 199.554688 875.449219 199.128906 C 867.359375 198.738281 860.363281 203.941406 858.886719 211.101562 Z M 858.855469 211.101562 "/>
<path style=" stroke:none;fill-rule:nonzero;fill:rgb(10.588235%,9.019608%,10.588235%);fill-opacity:1;" d="M 866.605469 208.351562 C 863.683594 208.214844 860.941406 209.261719 858.859375 211.101562 C 858.671875 211.820312 858.574219 212.570312 858.542969 213.324219 C 858.152344 221.410156 864.835938 228.355469 873.546875 228.976562 C 875.761719 226.910156 877.203125 223.980469 877.355469 220.695312 C 877.652344 214.171875 872.847656 208.652344 866.613281 208.351562 Z M 866.605469 208.351562 "/>
<path style=" stroke:none;fill-rule:nonzero;fill:rgb(100%,100%,100%);fill-opacity:1;" d="M 865.46875 231.957031 C 859.253906 231.660156 854.441406 226.136719 854.75 219.617188 C 854.914062 216.179688 856.476562 213.136719 858.84375 211.101562 C 860.335938 203.941406 867.324219 198.738281 875.441406 199.128906 C 884.398438 199.554688 891.316406 206.597656 890.925781 214.867188 C 890.535156 223.105469 882.972656 229.460938 874.015625 229.035156 C 873.867188 229.027344 873.6875 229.019531 873.535156 228.976562 C 871.34375 230.933594 868.5625 232.101562 865.445312 231.957031 Z M 879.082031 184.085938 C 865.566406 183.441406 853.949219 196.410156 853.15625 213.066406 C 852.363281 229.695312 862.707031 243.710938 876.21875 244.351562 C 889.730469 244.992188 901.324219 232.023438 902.113281 215.394531 C 902.871094 198.738281 892.589844 184.726562 879.0625 184.085938 Z M 879.082031 184.085938 "/>
<path style=" stroke:none;fill-rule:nonzero;fill:rgb(100%,100%,100%);fill-opacity:1;" d="M 900.277344 354.839844 C 870.734375 360.089844 847.222656 322.339844 847.222656 322.339844 C 780.6875 233.242188 869.945312 152.222656 869.945312 152.222656 L 811.046875 130.757812 C 773.980469 154.308594 752.679688 210.585938 748.382812 245.011719 C 744.054688 279.472656 781.972656 350.542969 797.140625 367.238281 C 812.335938 383.960938 859.257812 376.875 859.257812 376.875 L 916.65625 349.78125 C 912.023438 352.042969 906.753906 353.699219 900.308594 354.839844 Z M 900.277344 354.839844 "/>
<path style=" stroke:none;fill-rule:nonzero;fill:rgb(100%,100%,100%);fill-opacity:1;" d="M 984.429688 254.644531 L 943.765625 270.644531 C 956.785156 267 981.4375 256.011719 984.429688 254.644531 Z M 984.429688 254.644531 "/>
<path style="fill:none;stroke-width:1;stroke-linecap:butt;stroke-linejoin:miter;stroke:rgb(0%,0%,0%);stroke-opacity:1;stroke-miterlimit:4;" d="M 138.390347 98.487856 C 137.475426 101.284906 137.410538 103.821615 138.661949 105.868214 L 146.551403 106.244366 C 146.551403 106.244366 144.736393 124.344126 152.30975 131.167668 C 159.891449 137.984726 178.974083 141.913011 181.289658 126.541742 C 183.59967 111.169546 178.313152 102.704277 179.94833 101.512821 L 181.582581 100.326923 L 203.90498 89.387019 C 203.90498 89.387019 192.770199 91.067658 189.16428 87.101387 C 185.563923 83.141602 176.565811 66.285181 177.593822 58.111754 C 178.614418 49.945738 183.668266 36.598833 192.464298 31.013071 C 192.464298 31.013071 163.235035 27.727764 158.78001 21.826998 C 154.319424 15.932717 140.236874 6.410332 129.881676 11.606971 C 121.761406 15.676082 112.864334 23.982923 113.145206 31.666241 C 113.215656 33.793445 113.993385 35.866912 115.679546 37.791216 C 123.470741 46.691006 129.912266 50.792543 155.713589 59.604317 C 155.713589 59.604317 161.915028 62.107672 160.05645 68.025115 C 160.004539 68.173352 159.947994 68.336413 159.874763 68.504107 " transform="matrix(4.213992,0,0,4.216216,0,0)"/>
<path style="fill:none;stroke-width:1;stroke-linecap:butt;stroke-linejoin:miter;stroke:rgb(0%,0%,0%);stroke-opacity:1;stroke-miterlimit:4;" d="M 217.529606 82.961864 C 221.468307 81.04034 223.526184 77.271409 229.772118 70.394131 C 231.824432 68.130734 233.572701 64.53413 233.656128 60.377003 C 233.824837 52.45002 227.912613 42.519982 206.436539 36.104092 C 206.436539 36.104092 185.256168 55.320262 201.045273 76.452399 C 201.045273 76.452399 206.623787 85.405924 213.635399 84.160732 C 215.167683 83.890199 216.420948 83.497371 217.523117 82.960938 " transform="matrix(4.213992,0,0,4.216216,0,0)"/>
<path style="fill:none;stroke-width:1;stroke-linecap:butt;stroke-linejoin:miter;stroke:rgb(0%,0%,0%);stroke-opacity:1;stroke-miterlimit:4;" d="M 95.440052 44.726863 C 95.440052 44.726863 54.393757 37.401167 54.573589 60.158353 C 54.657944 71.060271 55.785141 73.752629 57.258099 77.179688 C 58.858978 80.915264 60.864017 85.522661 62.357368 102.554187 C 62.557594 104.824069 62.759674 106.905874 62.984001 108.824619 C 65.914158 134.540991 70.831741 130.104067 83.334732 133.152194 C 96.766548 136.423603 107.257084 121.757387 112.843014 117.280624 L 118.428944 112.811273 C 118.428944 112.811273 109.205578 67.498873 103.934818 58.717673 C 98.664059 49.9374 100.644997 48.140024 95.435417 44.727789 Z M 95.440052 44.726863 " transform="matrix(4.213992,0,0,4.216216,0,0)"/>
<path style="fill:none;stroke-width:1;stroke-linecap:butt;stroke-linejoin:miter;stroke:rgb(0%,0%,0%);stroke-opacity:1;stroke-miterlimit:4;" d="M 41.17329 76.150366 C 41.17329 76.150366 13.787773 61.697241 13.112938 75.883539 C 12.438103 90.070763 15.68343 118.662936 27.349365 126.801157 C 39.015301 134.939378 41.009216 126.187826 46.595146 121.711989 C 48.475044 120.200896 50.465252 118.632362 51.864052 116.5311 C 52.180149 116.057667 52.470291 115.554587 52.717793 115.02186 C 54.619938 110.922175 54.253784 104.914864 47.886417 94.59663 C 47.886417 94.59663 50.644157 82.459711 43.193161 77.271409 C 42.588776 76.844301 41.917648 76.474634 41.17329 76.152219 Z M 41.17329 76.150366 " transform="matrix(4.213992,0,0,4.216216,0,0)"/>
<path style="fill:none;stroke-width:1;stroke-linecap:butt;stroke-linejoin:miter;stroke:rgb(0%,0%,0%);stroke-opacity:1;stroke-miterlimit:4;" d="M 202.459831 50.534981 C 202.271656 54.479016 204.726276 57.803235 207.932671 57.955178 C 211.139065 58.107121 213.890316 55.0312 214.077564 51.087164 C 214.265739 47.135717 211.820389 43.813351 208.613068 43.659555 C 205.405746 43.506686 202.643372 46.58446 202.453342 50.534981 Z M 202.459831 50.534981 " transform="matrix(4.213992,0,0,4.216216,0,0)"/>
<path style="fill:none;stroke-width:1;stroke-linecap:butt;stroke-linejoin:miter;stroke:rgb(0%,0%,0%);stroke-opacity:1;stroke-miterlimit:4;" d="M 173.640289 74.654097 C 173.640289 74.654097 170.399597 76.41534 164.632908 71.399364 C 163.613239 70.510867 161.933567 69.470428 159.871056 68.50318 C 150.300076 63.994917 132.325172 60.89398 131.653118 80.454803 C 131.314774 90.281075 134.045631 95.755659 138.384785 98.487856 C 144.541729 102.367964 153.946781 100.719752 162.411884 98.153395 C 176.839268 93.781325 168.628155 87.078225 177.647587 90.031851 " transform="matrix(4.213992,0,0,4.216216,0,0)"/>
<path style="fill:none;stroke-width:1;stroke-linecap:butt;stroke-linejoin:miter;stroke:rgb(0%,0%,0%);stroke-opacity:1;stroke-miterlimit:4;" d="M 203.810429 50.06896 C 203.765934 50.239433 203.74276 50.417318 203.735344 50.596129 C 203.642647 52.513947 205.228695 54.161233 207.295841 54.308544 C 207.331993 54.317808 207.374634 54.319661 207.409859 54.322441 C 209.536331 54.423427 211.330021 52.916041 211.422718 50.962089 C 211.516342 49.000726 209.873749 47.330278 207.748203 47.229292 C 205.828445 47.136644 204.16824 48.370718 203.817844 50.06896 Z M 203.810429 50.06896 " transform="matrix(4.213992,0,0,4.216216,0,0)"/>
<path style="fill:none;stroke-width:1;stroke-linecap:butt;stroke-linejoin:miter;stroke:rgb(0%,0%,0%);stroke-opacity:1;stroke-miterlimit:4;" d="M 206.440247 36.104092 L 192.459663 31.013071 " transform="matrix(4.213992,0,0,4.216216,0,0)"/>
<path style="fill:none;stroke-width:1;stroke-linecap:butt;stroke-linejoin:miter;stroke:rgb(0%,0%,0%);stroke-opacity:1;stroke-miterlimit:4;" d="M 113.099785 31.664388 C 113.099785 31.664388 113.639282 47.486854 95.440052 44.726863 " transform="matrix(4.213992,0,0,4.216216,0,0)"/>
<path style="fill:none;stroke-width:1;stroke-linecap:butt;stroke-linejoin:miter;stroke:rgb(0%,0%,0%);stroke-opacity:1;stroke-miterlimit:4;" d="M 217.529606 82.961864 L 217.520336 82.960938 L 203.900345 89.387019 " transform="matrix(4.213992,0,0,4.216216,0,0)"/>
<path style="fill:none;stroke-width:1;stroke-linecap:butt;stroke-linejoin:miter;stroke:rgb(0%,0%,0%);stroke-opacity:1;stroke-miterlimit:4;" d="M 118.429871 112.810347 C 118.429871 112.810347 132.362251 105.568034 138.660095 105.867288 " transform="matrix(4.213992,0,0,4.216216,0,0)"/>
<path style="fill:none;stroke-width:1;stroke-linecap:butt;stroke-linejoin:miter;stroke:rgb(0%,0%,0%);stroke-opacity:1;stroke-miterlimit:4;" d="M 41.17329 76.150366 C 41.17329 76.150366 40.983261 76.830404 43.193161 77.272336 C 45.212105 77.676282 49.239796 77.881961 57.259026 77.179688 C 57.864338 77.123172 58.490971 77.066657 59.147266 77.004582 " transform="matrix(4.213992,0,0,4.216216,0,0)"/>
<path style="fill:none;stroke-width:1;stroke-linecap:butt;stroke-linejoin:miter;stroke:rgb(0%,0%,0%);stroke-opacity:1;stroke-miterlimit:4;" d="M 51.864052 116.530173 C 51.864052 116.530173 50.293762 116.813677 52.717793 115.020933 C 54.204655 113.922125 57.193211 112.034881 62.984928 108.822766 C 63.610634 108.472556 64.260441 108.109375 64.951962 107.733223 " transform="matrix(4.213992,0,0,4.216216,0,0)"/>
<path style="fill:none;stroke-width:2;stroke-linecap:butt;stroke-linejoin:miter;stroke:rgb(0%,0%,0%);stroke-opacity:1;stroke-miterlimit:4;" d="M 233.609779 60.396459 C 232.891376 60.720728 227.043114 63.326923 223.960007 64.191331 " transform="matrix(4.213992,0,0,4.216216,0,0)"/>
<path style="fill:none;stroke-width:2;stroke-linecap:butt;stroke-linejoin:miter;stroke:rgb(0%,0%,0%);stroke-opacity:1;stroke-miterlimit:4;" d="M 233.609779 60.396459 L 233.659836 60.377003 L 233.690426 60.364032 " transform="matrix(4.213992,0,0,4.216216,0,0)"/>
<path style="fill:none;stroke-width:2;stroke-linecap:butt;stroke-linejoin:miter;stroke:rgb(0%,0%,0%);stroke-opacity:1;stroke-miterlimit:4;" d="M 179.950184 101.510041 C 179.950184 101.510041 160.341957 108.482747 146.553257 106.24066 " transform="matrix(4.213992,0,0,4.216216,0,0)"/>
</g>
</svg>
