<?xml version="1.0" encoding="UTF-8"?>
<svg xmlns="http://www.w3.org/2000/svg" xmlns:xlink="http://www.w3.org/1999/xlink" width="1024pt" height="2824pt" viewBox="0 0 1024 2824" version="1.1">
<g id="surface1">
<path style="fill-rule:nonzero;fill:rgb(100%,90.196078%,83.529412%);fill-opacity:1;stroke-width:10.301299;stroke-linecap:butt;stroke-linejoin:miter;stroke:rgb(87.058824%,66.666667%,52.941176%);stroke-opacity:1;stroke-miterlimit:4;" d="M 39.705431 2488.62364 C 77.942008 2862.880068 159.306303 3238.335317 381.207996 3508.304572 C 607.715216 3783.915936 1114.965718 3740.074818 1174.863058 3320.717236 C 1218.148883 3017.691145 927.495815 2599.042652 948.79446 2151.877537 C 968.022404 1748.186242 1222.514698 1544.289846 1304.730734 1281.304357 C 1409.092057 947.466031 1179.667494 656.030239 1179.667494 656.030239 C 1141.191205 -84.70814 815.239304 -30.929567 693.863545 49.972956 C 525.514481 1.8722 491.842628 165.406609 491.842628 165.406609 C 304.255418 88.44744 275.398202 357.804531 275.398202 357.804531 C 145.530526 348.18336 121.482846 607.91928 121.482846 607.91928 C -46.866219 742.595275 49.334704 1103.343293 49.334704 1103.343293 C -8.38483 1598.767306 -7.390281 2027.542006 39.715632 2488.62364 Z M 39.705431 2488.62364 " transform="matrix(0.765894,0,0,0.765727,0.0000138858,0)"/>
<path style="fill:none;stroke-width:2;stroke-linecap:butt;stroke-linejoin:miter;stroke:rgb(87.058824%,66.666667%,52.941176%);stroke-opacity:1;stroke-miterlimit:4;" d="M 317.620022 380.890376 C 388.279784 299.670073 306.389993 295.700425 306.389993 295.700425 " transform="matrix(3.94485,0,0,3.94399,-1115.291585,-698.309727)"/>
<path style="fill:none;stroke-width:2;stroke-linecap:butt;stroke-linejoin:miter;stroke:rgb(87.058824%,66.666667%,52.941176%);stroke-opacity:1;stroke-miterlimit:4;" d="M 511.759594 305.609689 C 493.930773 291.083036 465.537348 304.289444 465.537348 304.289444 " transform="matrix(3.94485,0,0,3.94399,-1115.291585,-698.309727)"/>
<path style="fill:none;stroke-width:2;stroke-linecap:butt;stroke-linejoin:miter;stroke:rgb(87.058824%,66.666667%,52.941176%);stroke-opacity:1;stroke-miterlimit:4;" d="M 472.799585 312.209921 C 425.250451 257.410359 369.790489 304.950061 369.790489 304.950061 " transform="matrix(3.94485,0,0,3.94399,-1115.291585,-698.309727)"/>
<path style="fill:none;stroke-width:2;stroke-linecap:butt;stroke-linejoin:miter;stroke:rgb(87.058824%,66.666667%,52.941176%);stroke-opacity:1;stroke-miterlimit:4;" d="M 375.070316 313.530166 C 358.491146 315.005908 359.6596 333.059486 349.316804 341.923845 " transform="matrix(3.94485,0,0,3.94399,-1115.291585,-698.309727)"/>
<path style="fill:none;stroke-width:2;stroke-linecap:butt;stroke-linejoin:miter;stroke:rgb(87.058824%,66.666667%,52.941176%);stroke-opacity:1;stroke-miterlimit:4;" d="M 335.449833 246.179861 C 397.52146 242.218136 360.542871 312.212893 360.542871 312.212893 C 363.184765 312.87351 361.863818 320.796959 361.863818 320.796959 " transform="matrix(3.94485,0,0,3.94399,-1115.291585,-698.309727)"/>
<path style="fill:none;stroke-width:2;stroke-linecap:butt;stroke-linejoin:miter;stroke:rgb(87.058824%,66.666667%,52.941176%);stroke-opacity:1;stroke-miterlimit:4;" d="M 378.369712 209.200135 C 412.707397 233.632089 386.953886 271.271442 386.953886 271.271442 C 392.897156 275.233167 390.256253 288.439575 390.256253 288.439575 " transform="matrix(3.94485,0,0,3.94399,-1115.291585,-698.309727)"/>
<path style="fill:none;stroke-width:2;stroke-linecap:butt;stroke-linejoin:miter;stroke:rgb(87.058824%,66.666667%,52.941176%);stroke-opacity:1;stroke-miterlimit:4;" d="M 417.990194 186.750033 C 454.30831 206.559645 428.554798 245.520234 428.554798 245.520234 C 431.196692 247.501096 428.554798 257.406397 428.554798 257.406397 " transform="matrix(3.94485,0,0,3.94399,-1115.291585,-698.309727)"/>
<path style="fill:none;stroke-width:2;stroke-linecap:butt;stroke-linejoin:miter;stroke:rgb(87.058824%,66.666667%,52.941176%);stroke-opacity:1;stroke-miterlimit:4;" d="M 421.289591 257.410359 C 435.817035 257.410359 433.176132 284.483793 433.176132 284.483793 " transform="matrix(3.94485,0,0,3.94399,-1115.291585,-698.309727)"/>
</g>
</svg>
