<?xml version="1.0" encoding="UTF-8" standalone="no"?>
<!-- Created with Inkscape (http://www.inkscape.org/) -->

<svg
   xmlns:dc="http://purl.org/dc/elements/1.1/"
   xmlns:cc="http://creativecommons.org/ns#"
   xmlns:rdf="http://www.w3.org/1999/02/22-rdf-syntax-ns#"
   xmlns:svg="http://www.w3.org/2000/svg"
   xmlns="http://www.w3.org/2000/svg"
   xmlns:sodipodi="http://sodipodi.sourceforge.net/DTD/sodipodi-0.dtd"
   xmlns:inkscape="http://www.inkscape.org/namespaces/inkscape"
   id="svg9294"
   sodipodi:docname="frenchfries.svg"
   viewBox="0 0 500 500"
   version="1.1"
   inkscape:version="0.91 r13725">
  <defs
     id="defs9296">
    <linearGradient
       id="linearGradient25326"
       y2="184.4"
       gradientUnits="userSpaceOnUse"
       x2="282.76"
       gradientTransform="matrix(2.88125,0,0,2.88125,-482,392.75)"
       y1="104.37"
       x1="245.23"
       inkscape:collect="always">
      <stop
         id="stop25322"
         style="stop-color:#cccccc"
         offset="0" />
      <stop
         id="stop25324"
         style="stop-color:#808080"
         offset="1" />
    </linearGradient>
    <filter
       id="filter25705"
       inkscape:collect="always"
       color-interpolation-filters="sRGB">
      <feGaussianBlur
         id="feGaussianBlur25707"
         stdDeviation="2.1290943"
         inkscape:collect="always" />
    </filter>
    <filter
       id="filter25682"
       inkscape:collect="always"
       color-interpolation-filters="sRGB">
      <feGaussianBlur
         id="feGaussianBlur25684"
         stdDeviation="3.0817451"
         inkscape:collect="always" />
    </filter>
    <filter
       id="filter25678"
       inkscape:collect="always"
       color-interpolation-filters="sRGB">
      <feGaussianBlur
         id="feGaussianBlur25680"
         stdDeviation="3.0817451"
         inkscape:collect="always" />
    </filter>
    <filter
       id="filter25670"
       inkscape:collect="always"
       color-interpolation-filters="sRGB">
      <feGaussianBlur
         id="feGaussianBlur25672"
         stdDeviation="3.0817451"
         inkscape:collect="always" />
    </filter>
    <filter
       id="filter25666"
       inkscape:collect="always"
       color-interpolation-filters="sRGB">
      <feGaussianBlur
         id="feGaussianBlur25668"
         stdDeviation="3.0817451"
         inkscape:collect="always" />
    </filter>
    <filter
       id="filter25622"
       inkscape:collect="always"
       color-interpolation-filters="sRGB">
      <feGaussianBlur
         id="feGaussianBlur25624"
         stdDeviation="1.9852151"
         inkscape:collect="always" />
    </filter>
    <filter
       id="filter25586"
       inkscape:collect="always"
       color-interpolation-filters="sRGB">
      <feGaussianBlur
         id="feGaussianBlur25588"
         stdDeviation="1.8150568"
         inkscape:collect="always" />
    </filter>
    <filter
       id="filter25598"
       inkscape:collect="always"
       color-interpolation-filters="sRGB">
      <feGaussianBlur
         id="feGaussianBlur25600"
         stdDeviation="2.2142605"
         inkscape:collect="always" />
    </filter>
    <filter
       id="filter25500"
       inkscape:collect="always"
       color-interpolation-filters="sRGB">
      <feGaussianBlur
         id="feGaussianBlur25502"
         stdDeviation="1.7075197"
         inkscape:collect="always" />
    </filter>
    <filter
       id="filter25488"
       inkscape:collect="always"
       color-interpolation-filters="sRGB">
      <feGaussianBlur
         id="feGaussianBlur25490"
         stdDeviation="1.9756463"
         inkscape:collect="always" />
    </filter>
    <filter
       id="filter25610"
       inkscape:collect="always"
       color-interpolation-filters="sRGB">
      <feGaussianBlur
         id="feGaussianBlur25612"
         stdDeviation="2.1878655"
         inkscape:collect="always" />
    </filter>
    <filter
       id="filter25476"
       inkscape:collect="always"
       color-interpolation-filters="sRGB">
      <feGaussianBlur
         id="feGaussianBlur25478"
         stdDeviation="1.8703984"
         inkscape:collect="always" />
    </filter>
    <filter
       id="filter25674"
       inkscape:collect="always"
       color-interpolation-filters="sRGB">
      <feGaussianBlur
         id="feGaussianBlur25676"
         stdDeviation="3.0817451"
         inkscape:collect="always" />
    </filter>
    <filter
       id="filter25452"
       inkscape:collect="always"
       color-interpolation-filters="sRGB">
      <feGaussianBlur
         id="feGaussianBlur25454"
         stdDeviation="1.6152692"
         inkscape:collect="always" />
    </filter>
    <filter
       id="filter25464"
       inkscape:collect="always"
       color-interpolation-filters="sRGB">
      <feGaussianBlur
         id="feGaussianBlur25466"
         stdDeviation="2.1878655"
         inkscape:collect="always" />
    </filter>
    <filter
       id="filter25799"
       inkscape:collect="always"
       color-interpolation-filters="sRGB">
      <feGaussianBlur
         id="feGaussianBlur25801"
         stdDeviation="2.6187566"
         inkscape:collect="always" />
    </filter>
    <filter
       id="filter25748"
       inkscape:collect="always"
       color-interpolation-filters="sRGB">
      <feGaussianBlur
         id="feGaussianBlur25750"
         stdDeviation="2.7954182"
         inkscape:collect="always" />
    </filter>
    <filter
       id="filter25772"
       inkscape:collect="always"
       color-interpolation-filters="sRGB">
      <feGaussianBlur
         id="feGaussianBlur25774"
         stdDeviation="2.0032066"
         inkscape:collect="always" />
    </filter>
    <filter
       id="filter25847"
       color-interpolation-filters="sRGB"
       inkscape:collect="always">
      <feGaussianBlur
         id="feGaussianBlur25849"
         stdDeviation="2.1838664"
         inkscape:collect="always" />
    </filter>
    <linearGradient
       id="linearGradient25294"
       y2="135.47"
       gradientUnits="userSpaceOnUse"
       x2="317.5"
       gradientTransform="matrix(2.88125,0,0,2.88125,-482,392.75)"
       y1="135.47"
       x1="180.59"
       inkscape:collect="always">
      <stop
         id="stop25290"
         style="stop-color:#cccccc"
         offset="0" />
      <stop
         id="stop25296"
         style="stop-color:#ffffff;stop-opacity:.98431"
         offset=".5" />
      <stop
         id="stop25292"
         style="stop-color:#cccccc;stop-opacity:.99043"
         offset="1" />
    </linearGradient>
    <linearGradient
       id="linearGradient24516"
       y2="118.13"
       gradientUnits="userSpaceOnUse"
       x2="212.59"
       gradientTransform="matrix(2.88125,0,0,2.88125,-482,392.75)"
       y1="125.07"
       x1="202.17"
       inkscape:collect="always">
      <stop
         id="stop24512"
         style="stop-color:#cccccc"
         offset="0" />
      <stop
         id="stop24514"
         style="stop-color:#999999"
         offset="1" />
    </linearGradient>
    <linearGradient
       id="linearGradient24506"
       y2="173.8"
       gradientUnits="userSpaceOnUse"
       x2="216.19"
       gradientTransform="matrix(2.88125,0,0,2.88125,-479.1125,395.6375)"
       y1="198.68"
       x1="195.52"
       inkscape:collect="always">
      <stop
         id="stop24502"
         style="stop-color:#800000"
         offset="0" />
      <stop
         id="stop24504"
         style="stop-color:#aa0000"
         offset="1" />
    </linearGradient>
  </defs>
  <sodipodi:namedview
     id="base"
     bordercolor="#666666"
     inkscape:pageshadow="2"
     inkscape:window-width="1855"
     pagecolor="#ffffff"
     inkscape:showpageshadow="false"
     inkscape:window-maximized="1"
     inkscape:zoom="0.54414063"
     inkscape:window-x="65"
     inkscape:window-height="1056"
     showgrid="false"
     borderopacity="1.0"
     inkscape:current-layer="layer1"
     inkscape:cx="408.80833"
     inkscape:cy="266.54985"
     inkscape:window-y="24"
     borderlayer="true"
     inkscape:pageopacity="0.0"
     inkscape:document-units="px" />
  <g
     id="layer1"
     inkscape:label="Ebene 1"
     inkscape:groupmode="layer"
     transform="translate(0 -552.36)">
    <g
       id="g4518">
      <path
         id="path25318"
         sodipodi:nodetypes="ccccaac"
         style="fill:#890000"
         inkscape:connector-curvature="0"
         d="m 97.50125,707.2625 53.5075,161.5375 218.075,0 53.56875,-161.425 c 0,0 -46.635,-50.17375 -77.79875,-60.6875 C 290.64125,628.4 227.2575,629.89625 173.22875,648.70675 143.09625,659.197 97.51,707.263 97.51,707.263 Z" />
      <path
         id="path25316"
         d="m 97.50125,710.1375 53.5075,161.5375 218.075,0 53.56875,-161.425 c 0,0 -46.635,-50.17375 -77.79875,-60.6875 -54.2125,-18.2875 -117.59625,-16.79125 -171.625,2.01913 C 143.09625,662.07188 97.51,710.13788 97.51,710.13788 Z"
         sodipodi:nodetypes="ccccaac"
         style="fill:url(#linearGradient25326)"
         inkscape:connector-curvature="0" />
      <g
         id="g25697"
         style="opacity:0.5;fill:#000000;filter:url(#filter25705)"
         transform="matrix(0.3601625,0,0,-0.3601625,-482,1455.2125)">
        <path
           id="path25699"
           d="m 2084.3,2393.9 -15.417,-710.61 47.654,-7.0079 15.417,728.83 z"
           style="fill:#000000"
           inkscape:connector-curvature="0" />
        <path
           id="path25701"
           style="fill:#000000"
           d="m 260.87,69.511 -4.2048,-1.752 -2.1024,93.906 4.38,-3.1536 z"
           sodipodi:nodetypes="ccccc"
           transform="matrix(8,0,0,-8,0,2950)"
           inkscape:connector-curvature="0" />
        <path
           id="path25703"
           style="fill:#000000"
           d="m 256.53,67.847 4.4238,1.7958 5.475,-1.4454 -3.5478,-1.0512 z"
           sodipodi:nodetypes="ccccc"
           transform="matrix(8,0,0,-8,0,2950)"
           inkscape:connector-curvature="0" />
      </g>
      <g
         id="g25692"
         transform="matrix(0.3601625,0,0,-0.3601625,-482,1455.2125)">
        <path
           id="path25686"
           style="fill:#f7d333"
           inkscape:connector-curvature="0"
           d="m 2084.3,2393.9 -15.417,-710.61 47.654,-7.0079 15.417,728.83 z" />
        <path
           id="path25688"
           style="fill:#efb319"
           d="m 260.87,69.511 -4.2048,-1.752 -2.1024,93.906 4.38,-3.1536 z"
           sodipodi:nodetypes="ccccc"
           inkscape:connector-curvature="0"
           transform="matrix(8,0,0,-8,0,2950)" />
        <path
           id="path25690"
           style="fill:#fcec3d"
           d="m 256.53,67.847 4.4238,1.7958 5.475,-1.4454 -3.5478,-1.0512 z"
           sodipodi:nodetypes="ccccc"
           inkscape:connector-curvature="0"
           transform="matrix(8,0,0,-8,0,2950)" />
      </g>
      <g
         id="g25658"
         style="opacity:0.5;fill:#000000;filter:url(#filter25682)"
         transform="matrix(0.3597875,0.01623625,0.01623625,-0.3597875,-513.5875,1422)">
        <path
           id="path25660"
           style="fill:#000000"
           d="m 251.48,75.145 4.2121,-1.7344 -0.99107,92.17 -5.1907,1.1362 z"
           sodipodi:nodetypes="ccccc"
           transform="matrix(8,0,0,-8,0,2950)"
           inkscape:connector-curvature="0" />
        <path
           id="path25662"
           style="fill:#000000"
           d="m 244.93,74.416 6.5373,0.59816 -1.219,91.804 -5.9464,-6.6897 z"
           sodipodi:nodetypes="ccccc"
           transform="matrix(8,0,0,-8,0,2950)"
           inkscape:connector-curvature="0" />
        <path
           id="path25664"
           style="fill:#000000"
           d="m 244.93,74.46 6.7013,0.70079 4.2048,-1.7082 -5.8254,-0.4818 z"
           sodipodi:nodetypes="ccccc"
           transform="matrix(8,0,0,-8,0,2950)"
           inkscape:connector-curvature="0" />
      </g>
      <g
         id="g25558"
         transform="matrix(0.3597875,0.01623625,0.01623625,-0.3597875,-513.5875,1422)">
        <path
           id="path25554"
           style="fill:#efb319"
           d="m 251.48,75.145 4.2121,-1.7344 -0.99107,92.17 -5.1907,1.1362 z"
           sodipodi:nodetypes="ccccc"
           inkscape:connector-curvature="0"
           transform="matrix(8,0,0,-8,0,2950)" />
        <path
           id="path25552"
           style="fill:#f7d333"
           d="m 244.93,74.416 6.5373,0.59816 -1.219,91.804 -5.9464,-6.6897 z"
           sodipodi:nodetypes="ccccc"
           inkscape:connector-curvature="0"
           transform="matrix(8,0,0,-8,0,2950)" />
        <path
           id="path25556"
           style="fill:#fcec3d"
           d="m 244.93,74.46 6.7013,0.70079 4.2048,-1.7082 -5.8254,-0.4818 z"
           sodipodi:nodetypes="ccccc"
           inkscape:connector-curvature="0"
           transform="matrix(8,0,0,-8,0,2950)" />
      </g>
      <g
         id="g25650"
         style="opacity:0.5;fill:#000000;filter:url(#filter25678)"
         transform="matrix(0.3584,0.03548125,0.03548125,-0.3584,-540.65,1390.6875)">
        <path
           id="path25652"
           style="fill:#000000"
           inkscape:connector-curvature="0"
           d="m 229.69,77.22 10.162,80.416 7.0079,1.5768 -11.038,-82.694 -6.8328,-2.1024 z"
           transform="matrix(8,0,0,-8,0,2950)" />
        <path
           id="path25654"
           style="fill:#000000"
           d="m 235.64,76.519 3.1536,-2.2776 11.914,87.074 -4.918,-1.6068 z"
           sodipodi:nodetypes="ccccc"
           inkscape:connector-curvature="0"
           transform="matrix(8,0,0,-8,0,2950)" />
        <path
           id="path25656"
           style="fill:#000000"
           d="m 228.91,74.551 6.7602,2.0086 3.0992,-2.1612 -5.5519,-1.9992 z"
           sodipodi:nodetypes="ccccc"
           inkscape:connector-curvature="0"
           transform="matrix(8,0,0,-8,0,2950)" />
      </g>
      <g
         id="g25512"
         transform="matrix(0.3584,0.03548125,0.03548125,-0.3584,-540.65,1390.6875)">
        <path
           id="path25514"
           d="m 229.69,77.22 10.162,80.416 7.0079,1.5768 -11.038,-82.694 -6.8328,-2.1024 z"
           style="fill:#f7d333"
           transform="matrix(8,0,0,-8,0,2950)"
           inkscape:connector-curvature="0" />
        <path
           id="path25516"
           style="fill:#efb319"
           d="m 235.64,76.519 3.1536,-2.2776 11.914,87.074 -4.918,-1.6068 z"
           sodipodi:nodetypes="ccccc"
           transform="matrix(8,0,0,-8,0,2950)"
           inkscape:connector-curvature="0" />
        <path
           id="path25518"
           style="fill:#fcec3d"
           d="m 228.91,74.551 6.7602,2.0086 3.0992,-2.1612 -5.5519,-1.9992 z"
           sodipodi:nodetypes="ccccc"
           transform="matrix(8,0,0,-8,0,2950)"
           inkscape:connector-curvature="0" />
      </g>
      <g
         id="g25634"
         style="opacity:0.5;fill:#000000;filter:url(#filter25670)"
         transform="matrix(0.3435125,0.1082225,0.1082225,-0.3435125,-657.475,1209.3125)">
        <path
           id="path25636"
           style="fill:#000000"
           inkscape:connector-curvature="0"
           d="m 213.58,131.88 -15.362,-39.147 6.442,-5.4509 28.741,64.42 z"
           transform="matrix(8,0,0,-8,0,2950)" />
        <path
           id="path25638"
           sodipodi:nodetypes="ccccc"
           style="fill:#000000"
           inkscape:connector-curvature="0"
           d="m 1633.3,2247.8 15.857,19.821 238.4,-573.32 -79.825,36.16 z" />
        <path
           id="path25640"
           style="fill:#000000"
           d="m 198.23,92.945 2.1939,-4.8635 5.9528,-2.7765 -1.7221,3.6625 z"
           sodipodi:nodetypes="ccccc"
           inkscape:connector-curvature="0"
           transform="matrix(8,0,0,-8,0,2950)" />
      </g>
      <g
         id="g25367"
         transform="matrix(0.3435125,0.1082225,0.1082225,-0.3435125,-657.475,1209.3125)">
        <path
           id="path25369"
           d="m 213.58,131.88 -15.362,-39.147 6.442,-5.4509 28.741,64.42 z"
           style="fill:#f7d333"
           transform="matrix(8,0,0,-8,0,2950)"
           inkscape:connector-curvature="0" />
        <path
           id="path25371"
           d="m 1633.3,2247.8 15.857,19.821 238.4,-573.32 -79.825,36.16 z"
           sodipodi:nodetypes="ccccc"
           style="fill:#efb319"
           inkscape:connector-curvature="0" />
        <path
           id="path25373"
           style="fill:#fcec3d"
           d="m 198.23,92.945 2.1939,-4.8635 5.9528,-2.7765 -1.7221,3.6625 z"
           sodipodi:nodetypes="ccccc"
           transform="matrix(8,0,0,-8,0,2950)"
           inkscape:connector-curvature="0" />
      </g>
      <g
         id="g25626"
         style="opacity:0.5;fill:#000000;filter:url(#filter25666)"
         transform="matrix(0.3601625,0,0,-0.3601625,-482,1455.2125)">
        <path
           id="path25628"
           d="m 213.58,131.88 -15.362,-39.147 6.442,-5.4509 28.741,64.42 z"
           style="fill:#000000"
           transform="matrix(8,0,0,-8,0,2950)"
           inkscape:connector-curvature="0" />
        <path
           id="path25630"
           d="m 1633.3,2247.8 15.857,19.821 238.4,-573.32 -79.825,36.16 z"
           sodipodi:nodetypes="ccccc"
           style="fill:#000000"
           inkscape:connector-curvature="0" />
        <path
           id="path25632"
           d="m 198.68,92.287 1.752,-4.2048 5.256,-2.1024 -1.0512,4.5552 z"
           style="fill:#000000"
           transform="matrix(8,0,0,-8,0,2950)"
           inkscape:connector-curvature="0" />
      </g>
      <g
         id="g25338"
         transform="matrix(0.3601625,0,0,-0.3601625,-482,1455.2125)">
        <path
           id="path25332"
           style="fill:#f7d333"
           inkscape:connector-curvature="0"
           d="m 213.58,131.88 -15.362,-39.147 6.442,-5.4509 28.741,64.42 z"
           transform="matrix(8,0,0,-8,0,2950)" />
        <path
           id="path25334"
           sodipodi:nodetypes="ccccc"
           style="fill:#efb319"
           inkscape:connector-curvature="0"
           d="m 1633.3,2247.8 15.857,19.821 238.4,-573.32 -79.825,36.16 z" />
        <path
           id="path25336"
           style="fill:#fcec3d"
           inkscape:connector-curvature="0"
           d="m 198.68,92.287 1.752,-4.2048 5.256,-2.1024 -1.0512,4.5552 z"
           transform="matrix(8,0,0,-8,0,2950)" />
      </g>
      <g
         id="g25614"
         style="opacity:0.5;fill:#000000;filter:url(#filter25622)"
         transform="matrix(0.36,-0.0105235,-0.0105235,-0.36,-460.1875,1472.2875)">
        <path
           id="path25616"
           d="m 266.83,74.241 6.6576,79.891 5.0808,-0.876 -6.6576,-77.263 z"
           style="fill:#000000"
           transform="matrix(8,0,0,-8,0,2950)"
           inkscape:connector-curvature="0" />
        <path
           id="path25618"
           style="fill:#000000"
           d="m 271.73,76.168 4.9056,-2.1024 6.4824,79.19 -4.7304,0.5256 z"
           sodipodi:nodetypes="ccccc"
           transform="matrix(8,0,0,-8,0,2950)"
           inkscape:connector-curvature="0" />
        <path
           id="path25620"
           style="fill:#000000"
           d="m 266.83,74.416 5.256,1.752 4.7304,-1.9272 -5.6064,-0.87599 z"
           sodipodi:nodetypes="ccccc"
           transform="matrix(8,0,0,-8,0,2950)"
           inkscape:connector-curvature="0" />
      </g>
      <g
         id="g25569"
         transform="matrix(0.36,-0.0105235,-0.0105235,-0.36,-460.1875,1472.2875)">
        <path
           id="path25563"
           style="fill:#f7d333"
           inkscape:connector-curvature="0"
           d="m 266.83,74.241 6.6576,79.891 5.0808,-0.876 -6.6576,-77.263 z"
           transform="matrix(8,0,0,-8,0,2950)" />
        <path
           id="path25565"
           style="fill:#efb319"
           d="m 271.73,76.168 4.9056,-2.1024 6.4824,79.19 -4.7304,0.5256 z"
           sodipodi:nodetypes="ccccc"
           inkscape:connector-curvature="0"
           transform="matrix(8,0,0,-8,0,2950)" />
        <path
           id="path25567"
           style="fill:#fcec3d"
           d="m 266.83,74.416 5.256,1.752 4.7304,-1.9272 -5.6064,-0.87599 z"
           sodipodi:nodetypes="ccccc"
           inkscape:connector-curvature="0"
           transform="matrix(8,0,0,-8,0,2950)" />
      </g>
      <g
         id="g25574"
         style="opacity:0.5;fill:#000000;filter:url(#filter25586)"
         transform="matrix(0.3601625,0,0,-0.3601625,-482,1455.2125)">
        <path
           id="path25576"
           d="m 284,78.446 -6.8327,1.5768 1.9272,71.306 7.1831,-4.9056 z"
           style="fill:#000000"
           transform="matrix(8,0,0,-8,0,2950)"
           inkscape:connector-curvature="0" />
        <path
           id="path25578"
           d="m 277.16,79.848 -3.8544,-1.5768 2.4528,75.861 3.504,-1.9272 z"
           style="fill:#000000"
           transform="matrix(8,0,0,-8,0,2950)"
           inkscape:connector-curvature="0" />
        <path
           id="path25580"
           style="fill:#000000"
           d="m 273.13,78.534 6.3072,-2.0148 4.818,2.19 -6.9203,1.314 z"
           sodipodi:nodetypes="ccccc"
           transform="matrix(8,0,0,-8,0,2950)"
           inkscape:connector-curvature="0" />
      </g>
      <g
         id="g25528"
         transform="matrix(0.3601625,0,0,-0.3601625,-482,1455.2125)">
        <path
           id="path25522"
           style="fill:#f7d333"
           inkscape:connector-curvature="0"
           d="m 284,78.446 -6.8327,1.5768 1.9272,71.306 7.1831,-4.9056 z"
           transform="matrix(8,0,0,-8,0,2950)" />
        <path
           id="path25524"
           style="fill:#efb319"
           inkscape:connector-curvature="0"
           d="m 277.16,79.848 -3.8544,-1.5768 2.4528,75.861 3.504,-1.9272 z"
           transform="matrix(8,0,0,-8,0,2950)" />
        <path
           id="path25526"
           style="fill:#fcec3d"
           d="m 273.13,78.534 6.3072,-2.0148 4.818,2.19 -6.9203,1.314 z"
           sodipodi:nodetypes="ccccc"
           inkscape:connector-curvature="0"
           transform="matrix(8,0,0,-8,0,2950)" />
      </g>
      <g
         id="g25590"
         style="opacity:0.5;fill:#000000;filter:url(#filter25598)"
         transform="matrix(-0.3601625,0,0,-0.3601625,1037.7125,1450.2125)">
        <path
           id="path25592"
           style="fill:#000000"
           inkscape:connector-curvature="0"
           d="m 229.69,77.22 10.162,80.416 7.0079,1.5768 -11.038,-82.694 -6.8328,-2.1024 z"
           transform="matrix(8,0,0,-8,0,2950)" />
        <path
           id="path25594"
           style="fill:#000000"
           d="m 235.64,76.519 3.1536,-2.2776 11.914,87.074 -4.918,-1.6068 z"
           sodipodi:nodetypes="ccccc"
           inkscape:connector-curvature="0"
           transform="matrix(8,0,0,-8,0,2950)" />
        <path
           id="path25596"
           style="fill:#000000"
           d="m 228.91,74.551 6.7602,2.0086 3.0992,-2.1612 -5.5519,-1.9992 z"
           sodipodi:nodetypes="ccccc"
           inkscape:connector-curvature="0"
           transform="matrix(8,0,0,-8,0,2950)" />
      </g>
      <g
         id="g25504"
         transform="matrix(-0.3601625,0,0,-0.3601625,1037.7125,1450.2125)">
        <path
           id="path25506"
           d="m 229.69,77.22 10.162,80.416 7.0079,1.5768 -11.038,-82.694 -6.8328,-2.1024 z"
           style="fill:#f7d333"
           transform="matrix(8,0,0,-8,0,2950)"
           inkscape:connector-curvature="0" />
        <path
           id="path25508"
           style="fill:#efb319"
           d="m 235.64,76.519 3.1536,-2.2776 11.914,87.074 -4.918,-1.6068 z"
           sodipodi:nodetypes="ccccc"
           transform="matrix(8,0,0,-8,0,2950)"
           inkscape:connector-curvature="0" />
        <path
           id="path25510"
           style="fill:#fcec3d"
           d="m 228.91,74.551 6.7602,2.0086 3.0992,-2.1612 -5.5519,-1.9992 z"
           sodipodi:nodetypes="ccccc"
           transform="matrix(8,0,0,-8,0,2950)"
           inkscape:connector-curvature="0" />
      </g>
      <g
         id="g25492"
         style="opacity:0.5;fill:#000000;filter:url(#filter25500)"
         transform="matrix(0.358925,-0.029735,-0.029735,-0.358925,-247.725,1501.275)">
        <path
           id="path25494"
           style="fill:#000000"
           inkscape:connector-curvature="0"
           d="m 1803.8,2277.5 45.589,-25.768 19.822,-483.64 -61.446,57.482 z" />
        <path
           id="path25496"
           style="fill:#000000"
           inkscape:connector-curvature="0"
           d="m 1849.3,2251.7 29.732,13.875 13.875,-525.27 -33.696,39.643 z" />
        <path
           id="path25498"
           style="fill:#000000"
           inkscape:connector-curvature="0"
           d="m 1802.8,2275.4 47.571,-23.786 30.723,13.875 -20.813,23.786 -28.741,6.9375 z" />
      </g>
      <g
         id="g25421"
         transform="matrix(0.358925,-0.029735,-0.029735,-0.358925,-247.725,1501.275)">
        <path
           id="path25423"
           d="m 1803.8,2277.5 45.589,-25.768 19.822,-483.64 -61.446,57.482 z"
           style="fill:#efb319"
           inkscape:connector-curvature="0" />
        <path
           id="path25425"
           d="m 1849.3,2251.7 29.732,13.875 13.875,-525.27 -33.696,39.643 z"
           style="fill:#f7d333"
           inkscape:connector-curvature="0" />
        <path
           id="path25427"
           d="m 1802.8,2275.4 47.571,-23.786 30.723,13.875 -20.813,23.786 -28.741,6.9375 z"
           style="fill:#fcec3d"
           inkscape:connector-curvature="0" />
      </g>
      <g
         id="g25480"
         style="opacity:0.5;fill:#000000;filter:url(#filter25488)"
         transform="matrix(-0.3456625,0.113175,-0.101155,-0.3867375,1171.1375,1306.3)">
        <path
           id="path25482"
           d="m 213.58,131.88 -15.362,-39.147 6.442,-5.4509 28.741,64.42 z"
           style="fill:#000000"
           transform="matrix(8,0,0,-8,0,2950)"
           inkscape:connector-curvature="0" />
        <path
           id="path25484"
           d="m 1633.3,2247.8 15.857,19.821 238.4,-573.32 -79.825,36.16 z"
           sodipodi:nodetypes="ccccc"
           style="fill:#000000"
           inkscape:connector-curvature="0" />
        <path
           id="path25486"
           d="m 198.68,92.287 1.752,-4.2048 5.256,-2.1024 -1.0512,4.5552 z"
           style="fill:#000000"
           transform="matrix(8,0,0,-8,0,2950)"
           inkscape:connector-curvature="0" />
      </g>
      <g
         id="g25351"
         transform="matrix(-0.3456625,0.113175,-0.101155,-0.3867375,1171.1375,1306.3)">
        <path
           id="path25353"
           style="fill:#f7d333"
           inkscape:connector-curvature="0"
           d="m 213.58,131.88 -15.362,-39.147 6.442,-5.4509 28.741,64.42 z"
           transform="matrix(8,0,0,-8,0,2950)" />
        <path
           id="path25355"
           sodipodi:nodetypes="ccccc"
           style="fill:#efb319"
           inkscape:connector-curvature="0"
           d="m 1633.3,2247.8 15.857,19.821 238.4,-573.32 -79.825,36.16 z" />
        <path
           id="path25357"
           style="fill:#fcec3d"
           inkscape:connector-curvature="0"
           d="m 198.68,92.287 1.752,-4.2048 5.256,-2.1024 -1.0512,4.5552 z"
           transform="matrix(8,0,0,-8,0,2950)" />
      </g>
      <g
         id="g25602"
         style="opacity:0.5;fill:#000000;filter:url(#filter25610)"
         transform="matrix(-0.3601625,0,0,-0.3601625,1010.925,1454.5)">
        <path
           id="path25604"
           style="fill:#000000"
           inkscape:connector-curvature="0"
           d="m 213.58,131.88 -15.362,-39.147 6.442,-5.4509 28.741,64.42 z"
           transform="matrix(8,0,0,-8,0,2950)" />
        <path
           id="path25606"
           sodipodi:nodetypes="ccccc"
           style="fill:#000000"
           inkscape:connector-curvature="0"
           d="m 1633.3,2247.8 15.857,19.821 238.4,-573.32 -79.825,36.16 z" />
        <path
           id="path25608"
           style="fill:#000000"
           inkscape:connector-curvature="0"
           d="m 198.68,92.287 1.752,-4.2048 5.256,-2.1024 -1.0512,4.5552 z"
           transform="matrix(8,0,0,-8,0,2950)" />
      </g>
      <g
         id="g25343"
         transform="matrix(-0.3601625,0,0,-0.3601625,1010.925,1454.5)">
        <path
           id="path25345"
           d="m 213.58,131.88 -15.362,-39.147 6.442,-5.4509 28.741,64.42 z"
           style="fill:#f7d333"
           transform="matrix(8,0,0,-8,0,2950)"
           inkscape:connector-curvature="0" />
        <path
           id="path25347"
           d="m 1633.3,2247.8 15.857,19.821 238.4,-573.32 -79.825,36.16 z"
           sodipodi:nodetypes="ccccc"
           style="fill:#efb319"
           inkscape:connector-curvature="0" />
        <path
           id="path25349"
           d="m 198.68,92.287 1.752,-4.2048 5.256,-2.1024 -1.0512,4.5552 z"
           style="fill:#fcec3d"
           transform="matrix(8,0,0,-8,0,2950)"
           inkscape:connector-curvature="0" />
      </g>
      <g
         id="g25468"
         style="opacity:0.5;fill:#000000;filter:url(#filter25476)"
         transform="matrix(-0.3364625,0.138125,-0.1291375,-0.3783125,1202,1329.2875)">
        <path
           id="path25470"
           style="fill:#000000"
           inkscape:connector-curvature="0"
           d="m 213.58,131.88 -15.362,-39.147 6.442,-5.4509 28.741,64.42 z"
           transform="matrix(8,0,0,-8,0,2950)" />
        <path
           id="path25472"
           sodipodi:nodetypes="ccccc"
           style="fill:#000000"
           inkscape:connector-curvature="0"
           d="m 1633.3,2247.8 15.857,19.821 238.4,-573.32 -79.825,36.16 z" />
        <path
           id="path25474"
           style="fill:#000000"
           inkscape:connector-curvature="0"
           d="m 198.68,92.287 1.752,-4.2048 5.256,-2.1024 -1.0512,4.5552 z"
           transform="matrix(8,0,0,-8,0,2950)" />
      </g>
      <g
         id="g25375"
         transform="matrix(-0.3364625,0.138125,-0.1291375,-0.3783125,1202,1329.2875)">
        <path
           id="path25377"
           d="m 213.58,131.88 -15.362,-39.147 6.442,-5.4509 28.741,64.42 z"
           style="fill:#f7d333"
           transform="matrix(8,0,0,-8,0,2950)"
           inkscape:connector-curvature="0" />
        <path
           id="path25379"
           d="m 1633.3,2247.8 15.857,19.821 238.4,-573.32 -79.825,36.16 z"
           sodipodi:nodetypes="ccccc"
           style="fill:#efb319"
           inkscape:connector-curvature="0" />
        <path
           id="path25381"
           d="m 198.68,92.287 1.752,-4.2048 5.256,-2.1024 -1.0512,4.5552 z"
           style="fill:#fcec3d"
           transform="matrix(8,0,0,-8,0,2950)"
           inkscape:connector-curvature="0" />
      </g>
      <g
         id="g25642"
         style="opacity:0.5;fill:#000000;filter:url(#filter25674)"
         transform="matrix(0.3601625,0,0,-0.3601625,-487.7625,1455.2125)">
        <path
           id="path25644"
           d="m 229.69,77.22 10.162,80.416 7.0079,1.5768 -11.038,-82.694 -6.8328,-2.1024 z"
           style="fill:#000000"
           transform="matrix(8,0,0,-8,0,2950)"
           inkscape:connector-curvature="0" />
        <path
           id="path25646"
           style="fill:#000000"
           d="m 235.64,76.519 3.1536,-2.2776 11.914,87.074 -4.918,-1.6068 z"
           sodipodi:nodetypes="ccccc"
           transform="matrix(8,0,0,-8,0,2950)"
           inkscape:connector-curvature="0" />
        <path
           id="path25648"
           style="fill:#000000"
           d="m 228.91,74.551 6.7602,2.0086 3.0992,-2.1612 -5.5519,-1.9992 z"
           sodipodi:nodetypes="ccccc"
           transform="matrix(8,0,0,-8,0,2950)"
           inkscape:connector-curvature="0" />
      </g>
      <g
         id="g25435"
         transform="matrix(0.3601625,0,0,-0.3601625,-487.7625,1455.2125)">
        <path
           id="path25429"
           style="fill:#f7d333"
           inkscape:connector-curvature="0"
           d="m 229.69,77.22 10.162,80.416 7.0079,1.5768 -11.038,-82.694 -6.8328,-2.1024 z"
           transform="matrix(8,0,0,-8,0,2950)" />
        <path
           id="path25431"
           style="fill:#efb319"
           d="m 235.64,76.519 3.1536,-2.2776 11.914,87.074 -4.918,-1.6068 z"
           sodipodi:nodetypes="ccccc"
           inkscape:connector-curvature="0"
           transform="matrix(8,0,0,-8,0,2950)" />
        <path
           id="path25433"
           style="fill:#fcec3d"
           d="m 228.91,74.551 6.7602,2.0086 3.0992,-2.1612 -5.5519,-1.9992 z"
           sodipodi:nodetypes="ccccc"
           inkscape:connector-curvature="0"
           transform="matrix(8,0,0,-8,0,2950)" />
      </g>
      <g
         id="g25440"
         style="opacity:0.5;fill:#000000;filter:url(#filter25452)"
         transform="matrix(0.3601625,0,0,-0.3601625,-487.7625,1449.45)">
        <path
           id="path25442"
           d="m 1803.8,2277.5 45.589,-25.768 19.822,-483.64 -61.446,57.482 z"
           style="fill:#000000"
           inkscape:connector-curvature="0" />
        <path
           id="path25444"
           d="m 1849.3,2251.7 29.732,13.875 13.875,-525.27 -33.696,39.643 z"
           style="fill:#000000"
           inkscape:connector-curvature="0" />
        <path
           id="path25446"
           d="m 1802.8,2275.4 47.571,-23.786 30.723,13.875 -20.813,23.786 -28.741,6.9375 z"
           style="fill:#000000"
           inkscape:connector-curvature="0" />
      </g>
      <g
         id="g25397"
         transform="matrix(0.3601625,0,0,-0.3601625,-487.7625,1449.45)">
        <path
           id="path25391"
           style="fill:#efb319"
           inkscape:connector-curvature="0"
           d="m 1803.8,2277.5 45.589,-25.768 19.822,-483.64 -61.446,57.482 z" />
        <path
           id="path25393"
           style="fill:#f7d333"
           inkscape:connector-curvature="0"
           d="m 1849.3,2251.7 29.732,13.875 13.875,-525.27 -33.696,39.643 z" />
        <path
           id="path25395"
           style="fill:#fcec3d"
           inkscape:connector-curvature="0"
           d="m 1802.8,2275.4 47.571,-23.786 30.723,13.875 -20.813,23.786 -28.741,6.9375 z" />
      </g>
      <g
         id="g25456"
         style="opacity:0.5;fill:#000000;filter:url(#filter25464)"
         transform="matrix(0.3601625,0,0,-0.3601625,-447.025,1475.9125)">
        <path
           id="path25458"
           style="fill:#000000"
           inkscape:connector-curvature="0"
           d="m 213.58,131.88 -15.362,-39.147 6.442,-5.4509 28.741,64.42 z"
           transform="matrix(8,0,0,-8,0,2950)" />
        <path
           id="path25460"
           sodipodi:nodetypes="ccccc"
           style="fill:#000000"
           inkscape:connector-curvature="0"
           d="m 1633.3,2247.8 15.857,19.821 238.4,-573.32 -79.825,36.16 z" />
        <path
           id="path25462"
           style="fill:#000000"
           inkscape:connector-curvature="0"
           d="m 198.68,92.287 1.752,-4.2048 5.256,-2.1024 -1.0512,4.5552 z"
           transform="matrix(8,0,0,-8,0,2950)" />
      </g>
      <g
         id="g25787"
         style="opacity:0.5;fill:#000000;filter:url(#filter25799)"
         transform="matrix(0.198125,0,0,-0.198125,-66.415,1063.4174)">
        <path
           id="path25789"
           d="m 176.91,152.7 11.893,4.4598 8.4241,94.647 -16.848,-5.9464 z"
           style="fill:#000000"
           transform="matrix(8,0,0,-8,0,2950)"
           inkscape:connector-curvature="0" />
        <path
           id="path25791"
           d="m 188.8,156.66 6.9375,-2.4777 9.4152,96.63 -7.9286,1.9821 z"
           style="fill:#000000"
           transform="matrix(8,0,0,-8,0,2950)"
           inkscape:connector-curvature="0" />
        <path
           id="path25793"
           style="fill:#000000"
           d="m 176.95,152.73 11.563,4.7304 7.5335,-3.6792 -9.9863,-3.6792 z"
           sodipodi:nodetypes="ccccc"
           transform="matrix(8,0,0,-8,0,2950)"
           inkscape:connector-curvature="0" />
      </g>
      <g
         id="g25782"
         transform="matrix(0.198125,0,0,-0.198125,-66.415,1063.4174)">
        <path
           id="path25776"
           style="fill:#f7d333"
           inkscape:connector-curvature="0"
           d="m 176.91,152.7 11.893,4.4598 8.4241,94.647 -16.848,-5.9464 z"
           transform="matrix(8,0,0,-8,0,2950)" />
        <path
           id="path25778"
           style="fill:#efb319"
           inkscape:connector-curvature="0"
           d="m 188.8,156.66 6.9375,-2.4777 9.4152,96.63 -7.9286,1.9821 z"
           transform="matrix(8,0,0,-8,0,2950)" />
        <path
           id="path25780"
           style="fill:#fcec3d"
           d="m 176.95,152.73 11.563,4.7304 7.5335,-3.6792 -9.9863,-3.6792 z"
           sodipodi:nodetypes="ccccc"
           inkscape:connector-curvature="0"
           transform="matrix(8,0,0,-8,0,2950)" />
      </g>
      <g
         id="g25383"
         transform="matrix(0.3601625,0,0,-0.3601625,-447.025,1475.9125)">
        <path
           id="path25385"
           d="m 213.58,131.88 -15.362,-39.147 6.442,-5.4509 28.741,64.42 z"
           style="fill:#f7d333"
           transform="matrix(8,0,0,-8,0,2950)"
           inkscape:connector-curvature="0" />
        <path
           id="path25387"
           d="m 1633.3,2247.8 15.857,19.821 238.4,-573.32 -79.825,36.16 z"
           sodipodi:nodetypes="ccccc"
           style="fill:#efb319"
           inkscape:connector-curvature="0" />
        <path
           id="path25389"
           d="m 198.68,92.287 1.752,-4.2048 5.256,-2.1024 -1.0512,4.5552 z"
           style="fill:#fcec3d"
           transform="matrix(8,0,0,-8,0,2950)"
           inkscape:connector-curvature="0" />
      </g>
      <g
         id="g25740"
         style="opacity:0.5;fill:#000000;filter:url(#filter25748)"
         transform="matrix(0.198125,0,0,-0.198125,-66.415,1063.4174)">
        <path
           id="path25742"
           d="m 1724.5,2029.7 3.9643,-947.47 83.25,15.857 -19.822,911.79 z"
           style="fill:#000000"
           inkscape:connector-curvature="0" />
        <path
           id="path25744"
           d="m 1789.9,2011.9 48.052,20.643 23.305,-886.84 -48.981,-49.638 z"
           sodipodi:nodetypes="ccccc"
           style="fill:#000000"
           inkscape:connector-curvature="0" />
        <path
           id="path25746"
           d="m 1724,2032.3 67.276,-22.425 50.457,22.425 -44.851,30.835 z"
           style="fill:#000000"
           inkscape:connector-curvature="0" />
      </g>
      <g
         id="g25735"
         transform="matrix(0.198125,0,0,-0.198125,-66.415,1063.4174)">
        <path
           id="path25709"
           style="fill:#efb319"
           inkscape:connector-curvature="0"
           d="m 1724.5,2029.7 3.9643,-947.47 83.25,15.857 -19.822,911.79 z" />
        <path
           id="path25711"
           sodipodi:nodetypes="ccccc"
           style="fill:#f7d333"
           inkscape:connector-curvature="0"
           d="m 1789.9,2011.9 48.052,20.643 23.305,-886.84 -48.981,-49.638 z" />
        <path
           id="path25713"
           style="fill:#fcec3d"
           inkscape:connector-curvature="0"
           d="m 1724,2032.3 67.276,-22.425 50.457,22.425 -44.851,30.835 z" />
      </g>
      <g
         id="g25760"
         style="opacity:0.5;fill:#000000;filter:url(#filter25772)"
         transform="matrix(-0.3479,0.10608375,-0.09322625,-0.388725,1093.025,1391.0875)">
        <path
           id="path25762"
           d="m 213.58,131.88 -15.362,-39.147 6.442,-5.4509 28.741,64.42 z"
           style="fill:#000000"
           transform="matrix(8,0,0,-8,0,2950)"
           inkscape:connector-curvature="0" />
        <path
           id="path25764"
           d="m 1633.3,2247.8 15.857,19.821 238.4,-573.32 -79.825,36.16 z"
           sodipodi:nodetypes="ccccc"
           style="fill:#000000"
           inkscape:connector-curvature="0" />
        <path
           id="path25766"
           d="m 198.68,92.287 1.752,-4.2048 5.256,-2.1024 -1.0512,4.5552 z"
           style="fill:#000000"
           transform="matrix(8,0,0,-8,0,2950)"
           inkscape:connector-curvature="0" />
      </g>
      <g
         id="g25835"
         style="opacity:0.5;fill:#000000;filter:url(#filter25847)"
         transform="matrix(0.3597875,0.01623625,0.01623625,-0.3597875,-491.8625,1538.3375)">
        <path
           id="path25837"
           style="fill:#000000"
           d="m 251.48,75.145 4.2121,-1.7344 -0.99107,92.17 -5.1907,1.1362 z"
           sodipodi:nodetypes="ccccc"
           inkscape:connector-curvature="0"
           transform="matrix(8,0,0,-8,0,2950)" />
        <path
           id="path25839"
           style="fill:#000000"
           d="m 244.93,74.416 6.5373,0.59816 -1.219,91.804 -5.9464,-6.6897 z"
           sodipodi:nodetypes="ccccc"
           inkscape:connector-curvature="0"
           transform="matrix(8,0,0,-8,0,2950)" />
        <path
           id="path25841"
           style="fill:#000000"
           d="m 244.93,74.46 6.7013,0.70079 4.2048,-1.7082 -5.8254,-0.4818 z"
           sodipodi:nodetypes="ccccc"
           inkscape:connector-curvature="0"
           transform="matrix(8,0,0,-8,0,2950)" />
      </g>
      <g
         id="g25827"
         transform="matrix(0.3597875,0.01623625,0.01623625,-0.3597875,-491.8625,1538.3375)">
        <path
           id="path25829"
           style="fill:#efb319"
           d="m 251.48,75.145 4.2121,-1.7344 -0.99107,92.17 -5.1907,1.1362 z"
           sodipodi:nodetypes="ccccc"
           transform="matrix(8,0,0,-8,0,2950)"
           inkscape:connector-curvature="0" />
        <path
           id="path25831"
           style="fill:#f7d333"
           d="m 244.93,74.416 6.5373,0.59816 -1.219,91.804 -5.9464,-6.6897 z"
           sodipodi:nodetypes="ccccc"
           transform="matrix(8,0,0,-8,0,2950)"
           inkscape:connector-curvature="0" />
        <path
           id="path25833"
           style="fill:#fcec3d"
           d="m 244.93,74.46 6.7013,0.70079 4.2048,-1.7082 -5.8254,-0.4818 z"
           sodipodi:nodetypes="ccccc"
           transform="matrix(8,0,0,-8,0,2950)"
           inkscape:connector-curvature="0" />
      </g>
      <g
         id="g25752"
         transform="matrix(-0.3479,0.10608375,-0.09322625,-0.388725,1093.025,1391.0875)">
        <path
           id="path25754"
           style="fill:#f7d333"
           inkscape:connector-curvature="0"
           d="m 213.58,131.88 -15.362,-39.147 6.442,-5.4509 28.741,64.42 z"
           transform="matrix(8,0,0,-8,0,2950)" />
        <path
           id="path25756"
           sodipodi:nodetypes="ccccc"
           style="fill:#efb319"
           inkscape:connector-curvature="0"
           d="m 1633.3,2247.8 15.857,19.821 238.4,-573.32 -79.825,36.16 z" />
        <path
           id="path25758"
           style="fill:#fcec3d"
           inkscape:connector-curvature="0"
           d="m 198.68,92.287 1.752,-4.2048 5.256,-2.1024 -1.0512,4.5552 z"
           transform="matrix(8,0,0,-8,0,2950)" />
      </g>
      <path
         id="path24481"
         d="m 398.225,720.1375 c 0,0 -17.75875,2.50088 -19.71875,8.1935 -8.17175,23.74 -18.7925,49.035 -37.09625,66.71875 -22.935,22.16 -51.15,39.25375 -85.1775,43.57875 -33.48625,4.25663 -69.36125,-18.8375 -88.14875,-49.88125 -9.26875,-15.31625 -8.62887,-34.18375 -16.8375,-49.88125 -3,-5.7375 -26.475,-12.7 -26.475,-12.7 l 7.83338,54.29375 -4.95213,-37.00625 c 0,0 14.1975,3.35763 17.1975,9.094 8.20838,15.6975 10.392,38.88125 23.23,53.48375 23.96,27.25125 49.8675,38.72625 79.505,39.8875 33.46375,1.31038 67.6275,-16.07625 93.1,-37.81625 18.51,-15.7975 29.645,-38.74625 37.81625,-62.4875 1.78513,-5.186 16.0825,-7.60212 18.72875,-8.0135 l 0.99044,-17.4675 z"
         style="fill:url(#linearGradient25294)"
         inkscape:connector-curvature="0" />
      <path
         id="path24508"
         d="m 97.67375,708.85 5.71113,31.7675 25.7,10.70825 -4.28325,-24.98625 z"
         sodipodi:nodetypes="ccccc"
         style="fill:url(#linearGradient24516)"
         inkscape:connector-curvature="0" />
      <path
         id="path24490"
         d="m 130.675,746.3375 33.8125,270.975 -18.675,-14.5387 -45.43,-277.63755 z"
         sodipodi:nodetypes="ccccc"
         style="fill:url(#linearGradient24506)"
         inkscape:connector-curvature="0" />
      <path
         id="path25314"
         d="m 397.85,719.7375 -0.7572,18.1725 23.725,-13.63 2.01925,-15.39625 z"
         style="fill:#a7a7a7"
         inkscape:connector-curvature="0" />
      <path
         id="path24479"
         d="m 164.025,1016.0463 c 0,0 64.89125,-15.1675 97.93,-15.2913 34.7025,-0.1299 102.9775,15.2913 102.9775,15.2913 L 383.105,993.835 398.24875,737.3975 c 0,0 -17.81375,2.5065 -19.77375,8.19913 -8.17175,23.74 -19.2625,46.675 -37.7725,62.47125 -25.47375,21.74 -59.6125,39.13375 -93.07625,37.82375 -29.6375,-1.16053 -55.6025,-12.59125 -79.5625,-39.84251 -12.83875,-14.60124 -15.0125,-37.80999 -23.22,-53.50749 -2.9995,-5.73638 -17.1625,-9.08626 -17.1625,-9.08626 z"
         sodipodi:nodetypes="cacccsaasscc"
         style="fill:#c41c23"
         inkscape:connector-curvature="0" />
      <path
         id="path25312"
         d="m 383.2125,993.835 37.35,-269.5625 -23.2125,13.375 z"
         sodipodi:nodetypes="cccc"
         style="fill:#aa0000"
         inkscape:connector-curvature="0" />
    </g>
  </g>
  <metadata
     id="metadata228">
    <rdf:RDF>
      <cc:Work>
        <dc:format>image/svg+xml</dc:format>
        <dc:type
           rdf:resource="http://purl.org/dc/dcmitype/StillImage" />
        <cc:license
           rdf:resource="http://creativecommons.org/licenses/publicdomain/" />
        <dc:publisher>
          <cc:Agent
             rdf:about="http://openclipart.org/">
            <dc:title>Openclipart</dc:title>
          </cc:Agent>
        </dc:publisher>
        <dc:title>French Fries</dc:title>
        <dc:date>2011-07-14T11:25:16</dc:date>
        <dc:description />
        <dc:source>https://openclipart.org/detail/149623/french-fries-by-gnokii</dc:source>
        <dc:creator>
          <cc:Agent>
            <dc:title>gnokii</dc:title>
          </cc:Agent>
        </dc:creator>
        <dc:subject>
          <rdf:Bag>
            <rdf:li>fast food</rdf:li>
            <rdf:li>food</rdf:li>
            <rdf:li>fries</rdf:li>
            <rdf:li>frites</rdf:li>
            <rdf:li>fritten</rdf:li>
            <rdf:li>pommes</rdf:li>
            <rdf:li>pommes frittes</rdf:li>
            <rdf:li>potato</rdf:li>
            <rdf:li>potatoes</rdf:li>
          </rdf:Bag>
        </dc:subject>
      </cc:Work>
      <cc:License
         rdf:about="http://creativecommons.org/licenses/publicdomain/">
        <cc:permits
           rdf:resource="http://creativecommons.org/ns#Reproduction" />
        <cc:permits
           rdf:resource="http://creativecommons.org/ns#Distribution" />
        <cc:permits
           rdf:resource="http://creativecommons.org/ns#DerivativeWorks" />
      </cc:License>
    </rdf:RDF>
  </metadata>
</svg>
