<?xml version="1.0" encoding="UTF-8"?>
<svg xmlns="http://www.w3.org/2000/svg" xmlns:xlink="http://www.w3.org/1999/xlink" width="1024pt" height="1034pt" viewBox="0 0 1024 1034" version="1.1">
<defs>
<radialGradient id="radial0" gradientUnits="userSpaceOnUse" cx="368.87" cy="67.736" fx="368.87" fy="67.736" r="173.75" gradientTransform="matrix(3.095026,0,0,2.369213,-557.998739,34.745004)">
<stop offset="0" style="stop-color:rgb(65.098039%,49.411765%,5.098039%);stop-opacity:0.886275;"/>
<stop offset="1" style="stop-color:rgb(29.411765%,58.823529%,21.176471%);stop-opacity:0.34902;"/>
</radialGradient>
<linearGradient id="linear0" gradientUnits="userSpaceOnUse" x1="476.08" y1="120.73" x2="215.72" y2="0.12174" gradientTransform="matrix(3.095026,0,0,2.369213,-557.998739,34.745004)">
<stop offset="0" style="stop-color:rgb(0%,0%,0%);stop-opacity:0.34902;"/>
<stop offset="1" style="stop-color:rgb(100%,100%,100%);stop-opacity:0.0117647;"/>
</linearGradient>
<radialGradient id="radial1" gradientUnits="userSpaceOnUse" cx="253.93" cy="26.283" fx="253.93" fy="26.283" r="24.037" gradientTransform="matrix(0.38856,-0.33523,4.8126,2.9234,228.88,92.104)">
<stop offset="0" style="stop-color:rgb(60%,23.529412%,5.098039%);stop-opacity:0.545098;"/>
<stop offset="1" style="stop-color:rgb(56.862745%,44.313725%,23.529412%);stop-opacity:0.266667;"/>
</radialGradient>
<radialGradient id="radial2" gradientUnits="userSpaceOnUse" cx="428.59" cy="42.363" fx="428.59" fy="42.363" r="162.69" gradientTransform="matrix(1.0899,0,0,0.91752,0,0)">
<stop offset="0" style="stop-color:rgb(60%,23.529412%,5.098039%);stop-opacity:0.545098;"/>
<stop offset="1" style="stop-color:rgb(56.862745%,44.313725%,23.529412%);stop-opacity:0.266667;"/>
</radialGradient>
<radialGradient id="radial3" gradientUnits="userSpaceOnUse" cx="93.082" cy="85.563" fx="93.082" fy="85.563" r="43.404" gradientTransform="matrix(1.4506,-1.2515,1.2891,0.78307,228.88,92.104)">
<stop offset="0" style="stop-color:rgb(60%,23.529412%,5.098039%);stop-opacity:0.545098;"/>
<stop offset="1" style="stop-color:rgb(56.862745%,44.313725%,23.529412%);stop-opacity:0.266667;"/>
</radialGradient>
<radialGradient id="radial4" gradientUnits="userSpaceOnUse" cx="428.59" cy="42.363" fx="428.59" fy="42.363" r="162.69" gradientTransform="matrix(1.0899,0,0,0.91752,0,0)">
<stop offset="0" style="stop-color:rgb(60%,23.529412%,5.098039%);stop-opacity:0.545098;"/>
<stop offset="1" style="stop-color:rgb(56.862745%,44.313725%,23.529412%);stop-opacity:0.266667;"/>
</radialGradient>
<radialGradient id="radial5" gradientUnits="userSpaceOnUse" cx="42.075" cy="147.23" fx="42.075" fy="147.23" r="19.707" gradientTransform="matrix(3.2184,-2.7766,0.58103,0.35295,228.88,92.104)">
<stop offset="0" style="stop-color:rgb(60%,23.529412%,5.098039%);stop-opacity:0.545098;"/>
<stop offset="1" style="stop-color:rgb(56.862745%,44.313725%,23.529412%);stop-opacity:0.266667;"/>
</radialGradient>
<radialGradient id="radial6" gradientUnits="userSpaceOnUse" cx="428.59" cy="42.363" fx="428.59" fy="42.363" r="162.69" gradientTransform="matrix(1.0899,0,0,0.91752,0,0)">
<stop offset="0" style="stop-color:rgb(60%,23.529412%,5.098039%);stop-opacity:0.545098;"/>
<stop offset="1" style="stop-color:rgb(56.862745%,44.313725%,23.529412%);stop-opacity:0.266667;"/>
</radialGradient>
<radialGradient id="radial7" gradientUnits="userSpaceOnUse" cx="17.184" cy="175.22" fx="17.184" fy="175.22" r="17.117" gradientTransform="matrix(3.5818,-3.0901,0.52209,0.31714,228.88,92.104)">
<stop offset="0" style="stop-color:rgb(60%,23.529412%,5.098039%);stop-opacity:0.545098;"/>
<stop offset="1" style="stop-color:rgb(56.862745%,44.313725%,23.529412%);stop-opacity:0.266667;"/>
</radialGradient>
<radialGradient id="radial8" gradientUnits="userSpaceOnUse" cx="428.59" cy="42.363" fx="428.59" fy="42.363" r="162.69" gradientTransform="matrix(1.0899,0,0,0.91752,0,0)">
<stop offset="0" style="stop-color:rgb(60%,23.529412%,5.098039%);stop-opacity:0.545098;"/>
<stop offset="1" style="stop-color:rgb(56.862745%,44.313725%,23.529412%);stop-opacity:0.266667;"/>
</radialGradient>
<radialGradient id="radial9" gradientUnits="userSpaceOnUse" cx="62.223" cy="67.767" fx="62.223" fy="67.767" r="45.731" gradientTransform="matrix(1.091,-0.94126,1.714,1.0412,228.88,92.104)">
<stop offset="0" style="stop-color:rgb(60%,23.529412%,5.098039%);stop-opacity:0.545098;"/>
<stop offset="1" style="stop-color:rgb(56.862745%,44.313725%,23.529412%);stop-opacity:0.266667;"/>
</radialGradient>
<radialGradient id="radial10" gradientUnits="userSpaceOnUse" cx="428.59" cy="42.363" fx="428.59" fy="42.363" r="162.69" gradientTransform="matrix(1.0899,0,0,0.91752,0,0)">
<stop offset="0" style="stop-color:rgb(60%,23.529412%,5.098039%);stop-opacity:0.545098;"/>
<stop offset="1" style="stop-color:rgb(56.862745%,44.313725%,23.529412%);stop-opacity:0.266667;"/>
</radialGradient>
<linearGradient id="linear1" gradientUnits="userSpaceOnUse" x1="191.51" y1="137.64" x2="263.3" y2="85.968" gradientTransform="matrix(3.91531,0,0,1.872785,-557.998739,34.745004)">
<stop offset="0" style="stop-color:rgb(21.568627%,21.176471%,12.54902%);stop-opacity:0.784314;"/>
<stop offset="1" style="stop-color:rgb(42.352941%,21.176471%,12.54902%);stop-opacity:0;"/>
</linearGradient>
</defs>
<g id="surface1">
<path style=" stroke:none;fill-rule:nonzero;fill:rgb(34.509804%,49.803922%,29.019608%);fill-opacity:1;" d="M 545.320312 231.308594 C 496.558594 247.535156 455.761719 219.445312 408.679688 208.03125 C 387.007812 208.316406 365.417969 216.5625 363.816406 228.71875 C 346.914062 238.828125 306.875 248.746094 304.898438 258.980469 C 334.589844 265.777344 344.125 284.386719 320.203125 300.925781 C 303.8125 316.085938 282.195312 332.324219 321.179688 335.546875 C 332.828125 345.238281 315.054688 382.484375 328.332031 382.375 C 355.527344 375.066406 337.839844 403 357.152344 409.386719 C 362.871094 420.351562 353.035156 450.152344 380.019531 430.203125 C 402.746094 413.152344 447.605469 391.253906 472.125 394.527344 C 458.929688 410.226562 435.878906 423.816406 439.046875 443.925781 C 433.464844 458.085938 440.429688 458.382812 454.027344 463.632812 C 451.074219 480.441406 474.617188 524.480469 501.542969 500.09375 C 526.65625 491.863281 522.808594 534.6875 554.316406 529.273438 C 582.460938 516.660156 599.824219 544.78125 619.464844 546.542969 C 631.007812 526.296875 650.023438 535.851562 665.410156 548.222656 C 687.839844 533.226562 732.539062 566.300781 739.828125 549.871094 C 739.582031 532.738281 722.027344 509.730469 745.976562 503.097656 C 726.5 488.101562 709.023438 471.484375 703.90625 450.425781 C 702.199219 430.257812 714.550781 473.972656 728.585938 453.835938 C 749.308594 456.296875 771.957031 483.773438 788.859375 476.707031 C 802.917969 467.261719 814.027344 434.292969 832.066406 456.515625 C 848.429688 467.289062 866.09375 489.589844 875.492188 463.308594 C 886.980469 477.328125 922.710938 485.316406 930.457031 464.230469 C 949.394531 464.878906 988.566406 490.078125 989 468.261719 C 991.925781 447.257812 1004.414062 424.898438 988.703125 407.035156 C 1010.238281 397.207031 974.453125 376.988281 979.464844 360.289062 C 967.625 344.261719 981.632812 336.007812 996.882812 325.800781 C 979.085938 314.246094 944.953125 302.578125 937.367188 291.128906 C 952.78125 279.460938 1001.40625 271.695312 969.957031 254.5 C 960.039062 241.566406 930.863281 223.359375 933.085938 213.746094 C 963.34375 212.917969 976.1875 193.953125 987.457031 180.078125 C 1000.242188 170.128906 1044.996094 160.664062 1010.238281 150.28125 C 958.441406 119.726562 915.125 76.695312 846.804688 65.105469 C 859.917969 39.25 790.863281 30.460938 779.105469 49.367188 C 762.367188 67.882812 768.324219 18.355469 761.878906 8.242188 C 764.207031 -13.90625 739.339844 18.527344 719.425781 12.332031 C 698.648438 7.859375 688.355469 18.605469 675.515625 25.257812 C 658.910156 -0.355469 636.910156 42.597656 623.175781 43.0625 C 615.78125 24.589844 601.179688 26.8125 588.015625 41.738281 C 576.5 50.191406 566.558594 60.578125 558.242188 53.960938 C 553.664062 77.28125 534.726562 75.808594 513.625 63.363281 C 499.78125 78.496094 498.78125 99.65625 497.667969 113.792969 C 465.839844 120.089844 492.0625 157.6875 519.367188 159.144531 C 545.863281 165.417969 574.714844 182.023438 571.273438 203.28125 C 564.554688 217.246094 560.273438 222.890625 545.320312 231.308594 Z M 787.910156 228.75 C 796.121094 209.8125 875.816406 219.285156 835.535156 232.824219 C 820.09375 237.625 801.132812 236.617188 787.910156 228.75 Z M 645.878906 386.8125 C 660.34375 380.886719 682.316406 365.863281 673.265625 388.464844 C 671.53125 398.289062 675.570312 422.328125 661.863281 402.757812 C 656.550781 397.425781 651.214844 392.121094 645.878906 386.8125 Z M 645.878906 386.8125 "/>
<path style=" stroke:none;fill-rule:nonzero;fill:url(#radial0);" d="M 545.320312 231.308594 C 496.558594 247.535156 455.761719 219.445312 408.679688 208.03125 C 387.007812 208.316406 365.417969 216.5625 363.816406 228.71875 C 346.914062 238.828125 306.875 248.746094 304.898438 258.980469 C 334.589844 265.777344 344.125 284.386719 320.203125 300.925781 C 303.8125 316.085938 282.195312 332.324219 321.179688 335.546875 C 332.828125 345.238281 315.054688 382.484375 328.332031 382.375 C 355.527344 375.066406 337.839844 403 357.152344 409.386719 C 362.871094 420.351562 353.035156 450.152344 380.019531 430.203125 C 402.746094 413.152344 447.605469 391.253906 472.125 394.527344 C 458.929688 410.226562 435.878906 423.816406 439.046875 443.925781 C 433.464844 458.085938 440.429688 458.382812 454.027344 463.632812 C 451.074219 480.441406 474.617188 524.480469 501.542969 500.09375 C 526.65625 491.863281 522.808594 534.6875 554.316406 529.273438 C 582.460938 516.660156 599.824219 544.78125 619.464844 546.542969 C 631.007812 526.296875 650.023438 535.851562 665.410156 548.222656 C 687.839844 533.226562 732.539062 566.300781 739.828125 549.871094 C 739.582031 532.738281 722.027344 509.730469 745.976562 503.097656 C 726.5 488.101562 709.023438 471.484375 703.90625 450.425781 C 702.199219 430.257812 714.550781 473.972656 728.585938 453.835938 C 749.308594 456.296875 771.957031 483.773438 788.859375 476.707031 C 802.917969 467.261719 814.027344 434.292969 832.066406 456.515625 C 848.429688 467.289062 866.09375 489.589844 875.492188 463.308594 C 886.980469 477.328125 922.710938 485.316406 930.457031 464.230469 C 949.394531 464.878906 988.566406 490.078125 989 468.261719 C 991.925781 447.257812 1004.414062 424.898438 988.703125 407.035156 C 1010.238281 397.207031 974.453125 376.988281 979.464844 360.289062 C 967.625 344.261719 981.632812 336.007812 996.882812 325.800781 C 979.085938 314.246094 944.953125 302.578125 937.367188 291.128906 C 952.78125 279.460938 1001.40625 271.695312 969.957031 254.5 C 960.039062 241.566406 930.863281 223.359375 933.085938 213.746094 C 963.34375 212.917969 976.1875 193.953125 987.457031 180.078125 C 1000.242188 170.128906 1044.996094 160.664062 1010.238281 150.28125 C 958.441406 119.726562 915.125 76.695312 846.804688 65.105469 C 859.917969 39.25 790.863281 30.460938 779.105469 49.367188 C 762.367188 67.882812 768.324219 18.355469 761.878906 8.242188 C 764.207031 -13.90625 739.339844 18.527344 719.425781 12.332031 C 698.648438 7.859375 688.355469 18.605469 675.515625 25.257812 C 658.910156 -0.355469 636.910156 42.597656 623.175781 43.0625 C 615.78125 24.589844 601.179688 26.8125 588.015625 41.738281 C 576.5 50.191406 566.558594 60.578125 558.242188 53.960938 C 553.664062 77.28125 534.726562 75.808594 513.625 63.363281 C 499.78125 78.496094 498.78125 99.65625 497.667969 113.792969 C 465.839844 120.089844 492.0625 157.6875 519.367188 159.144531 C 545.863281 165.417969 574.714844 182.023438 571.273438 203.28125 C 564.554688 217.246094 560.273438 222.890625 545.320312 231.308594 Z M 787.910156 228.75 C 796.121094 209.8125 875.816406 219.285156 835.535156 232.824219 C 820.09375 237.625 801.132812 236.617188 787.910156 228.75 Z M 645.878906 386.8125 C 660.34375 380.886719 682.316406 365.863281 673.265625 388.464844 C 671.53125 398.289062 675.570312 422.328125 661.863281 402.757812 C 656.550781 397.425781 651.214844 392.121094 645.878906 386.8125 Z M 645.878906 386.8125 "/>
<path style=" stroke:none;fill-rule:nonzero;fill:url(#linear0);" d="M 545.320312 231.308594 C 496.558594 247.535156 455.761719 219.445312 408.679688 208.03125 C 387.007812 208.316406 365.417969 216.5625 363.816406 228.71875 C 346.914062 238.828125 306.875 248.746094 304.898438 258.980469 C 334.589844 265.777344 344.125 284.386719 320.203125 300.925781 C 303.8125 316.085938 282.195312 332.324219 321.179688 335.546875 C 332.828125 345.238281 315.054688 382.484375 328.332031 382.375 C 355.527344 375.066406 337.839844 403 357.152344 409.386719 C 362.871094 420.351562 353.035156 450.152344 380.019531 430.203125 C 402.746094 413.152344 447.605469 391.253906 472.125 394.527344 C 458.929688 410.226562 435.878906 423.816406 439.046875 443.925781 C 433.464844 458.085938 440.429688 458.382812 454.027344 463.632812 C 451.074219 480.441406 474.617188 524.480469 501.542969 500.09375 C 526.65625 491.863281 522.808594 534.6875 554.316406 529.273438 C 582.460938 516.660156 599.824219 544.78125 619.464844 546.542969 C 631.007812 526.296875 650.023438 535.851562 665.410156 548.222656 C 687.839844 533.226562 732.539062 566.300781 739.828125 549.871094 C 739.582031 532.738281 722.027344 509.730469 745.976562 503.097656 C 726.5 488.101562 709.023438 471.484375 703.90625 450.425781 C 702.199219 430.257812 714.550781 473.972656 728.585938 453.835938 C 749.308594 456.296875 771.957031 483.773438 788.859375 476.707031 C 802.917969 467.261719 814.027344 434.292969 832.066406 456.515625 C 848.429688 467.289062 866.09375 489.589844 875.492188 463.308594 C 886.980469 477.328125 922.710938 485.316406 930.457031 464.230469 C 949.394531 464.878906 988.566406 490.078125 989 468.261719 C 991.925781 447.257812 1004.414062 424.898438 988.703125 407.035156 C 1010.238281 397.207031 974.453125 376.988281 979.464844 360.289062 C 967.625 344.261719 981.632812 336.007812 996.882812 325.800781 C 979.085938 314.246094 944.953125 302.578125 937.367188 291.128906 C 952.78125 279.460938 1001.40625 271.695312 969.957031 254.5 C 960.039062 241.566406 930.863281 223.359375 933.085938 213.746094 C 963.34375 212.917969 976.1875 193.953125 987.457031 180.078125 C 1000.242188 170.128906 1044.996094 160.664062 1010.238281 150.28125 C 958.441406 119.726562 915.125 76.695312 846.804688 65.105469 C 859.917969 39.25 790.863281 30.460938 779.105469 49.367188 C 762.367188 67.882812 768.324219 18.355469 761.878906 8.242188 C 764.207031 -13.90625 739.339844 18.527344 719.425781 12.332031 C 698.648438 7.859375 688.355469 18.605469 675.515625 25.257812 C 658.910156 -0.355469 636.910156 42.597656 623.175781 43.0625 C 615.78125 24.589844 601.179688 26.8125 588.015625 41.738281 C 576.5 50.191406 566.558594 60.578125 558.242188 53.960938 C 553.664062 77.28125 534.726562 75.808594 513.625 63.363281 C 499.78125 78.496094 498.78125 99.65625 497.667969 113.792969 C 465.839844 120.089844 492.0625 157.6875 519.367188 159.144531 C 545.863281 165.417969 574.714844 182.023438 571.273438 203.28125 C 564.554688 217.246094 560.273438 222.890625 545.320312 231.308594 Z M 787.910156 228.75 C 796.121094 209.8125 875.816406 219.285156 835.535156 232.824219 C 820.09375 237.625 801.132812 236.617188 787.910156 228.75 Z M 645.878906 386.8125 C 660.34375 380.886719 682.316406 365.863281 673.265625 388.464844 C 671.53125 398.289062 675.570312 422.328125 661.863281 402.757812 C 656.550781 397.425781 651.214844 392.121094 645.878906 386.8125 Z M 645.878906 386.8125 "/>
<path style=" stroke:none;fill-rule:evenodd;fill:rgb(0%,0%,0%);fill-opacity:1;" d="M 387.683594 363.425781 L 767.863281 545.1875 L 845.015625 955.839844 L 369.453125 788.882812 L 401.71875 747.144531 L 335.78125 717.53125 L 173.03125 628.667969 Z M 387.683594 363.425781 "/>
<path style="fill-rule:evenodd;fill:url(#radial1);stroke-width:1.25;stroke-linecap:butt;stroke-linejoin:miter;stroke:url(#radial2);stroke-miterlimit:4;" d="M 416.100326 68.918107 C 415.869613 69.12736 415.780212 69.404439 415.85952 69.667087 C 415.950363 69.929735 416.189728 70.151976 416.530029 70.267425 C 461.520485 86.499655 530.249855 118.519632 559.220184 148.600054 C 559.599418 149.0099 560.369423 149.109475 560.930343 148.839612 C 561.489822 148.559646 561.639786 147.999715 561.260551 147.589869 C 531.72065 116.929312 462.880249 85.019012 417.630241 68.695866 C 417.119789 68.492386 416.469467 68.586189 416.100326 68.918107 Z M 416.100326 68.918107 " transform="matrix(2.708995,0,0,2.706806,-557.998739,34.745004)"/>
<path style="fill-rule:evenodd;fill:url(#radial3);stroke-width:1.25;stroke-linecap:butt;stroke-linejoin:miter;stroke:url(#radial4);stroke-miterlimit:4;" d="M 416.740555 69.189414 C 416.44928 69.547308 416.540123 70.000448 416.959732 70.281857 C 417.379341 70.564708 418.009476 70.596457 418.479553 70.362671 C 459.449837 53.892327 510.590233 43.497524 557.560493 46.190388 C 558.229561 46.233682 558.829414 45.872902 558.889976 45.38657 C 558.950538 44.897352 558.45018 44.467301 557.779671 44.422565 C 510.180717 41.695065 458.600525 52.19233 417.259659 68.812759 C 417.040481 68.897903 416.860237 69.029227 416.740555 69.189414 Z M 416.740555 69.189414 " transform="matrix(2.708995,0,0,2.706806,-557.998739,34.745004)"/>
<path style="fill-rule:evenodd;fill:url(#radial5);stroke-width:1.25;stroke-linecap:butt;stroke-linejoin:miter;stroke:url(#radial6);stroke-miterlimit:4;" d="M 460.560142 13.280005 C 441.40953 29.718601 425.59993 48.207872 416.380066 69.026341 C 416.179634 69.495355 416.550217 69.990346 417.200538 70.130329 C 417.849418 70.271755 418.530022 70.003334 418.730453 69.53432 C 430.870277 42.133774 454.550072 18.821592 482.45047 -1.217592 C 482.939293 -1.559612 482.949386 -2.120986 482.470657 -2.471664 C 482.00058 -2.822343 481.230575 -2.828115 480.740311 -2.487539 C 473.719429 2.556171 466.939354 7.800474 460.560142 13.280005 Z M 460.560142 13.280005 " transform="matrix(2.708995,0,0,2.706806,-557.998739,34.745004)"/>
<path style="fill-rule:evenodd;fill:url(#radial7);stroke-width:1.25;stroke-linecap:butt;stroke-linejoin:miter;stroke:url(#radial8);stroke-miterlimit:4;" d="M 374.820022 97.129687 C 362.929657 108.169565 353.490616 120.570307 347.600227 133.709927 C 347.430076 134.020198 347.509384 134.369434 347.809311 134.610435 C 348.110679 134.860095 348.570663 134.969772 349.01046 134.900502 C 349.450256 134.819688 349.800651 134.570028 349.91024 134.259756 C 361.509331 108.410566 387.209305 85.433188 418.019569 70.07982 C 418.570396 69.794082 418.690079 69.239923 418.299309 68.841621 C 417.899887 68.44332 417.139976 68.35096 416.590591 68.636698 C 400.97998 76.416566 386.700294 86.094138 374.820022 97.129687 Z M 374.820022 97.129687 " transform="matrix(2.708995,0,0,2.706806,-557.998739,34.745004)"/>
<path style="fill-rule:evenodd;fill:url(#radial9);stroke-width:1.25;stroke-linecap:butt;stroke-linejoin:miter;stroke:url(#radial10);stroke-miterlimit:4;" d="M 416.56031 68.733387 C 407.760055 80.732942 407.219322 96.510588 411.200561 112.040017 C 415.170265 127.530481 423.689339 142.790047 433.370628 153.880435 C 433.399467 153.909297 433.409561 153.939603 433.429748 153.969908 C 441.23938 164.399346 446.199707 168.910544 450.560181 176.230055 C 450.829826 176.680309 451.549362 176.87946 452.169403 176.690411 C 452.789444 176.499919 453.070625 175.970294 452.799538 175.52004 C 448.319382 167.97973 443.320122 163.480078 435.520584 153.05064 C 435.51049 153.040538 435.490303 153.040538 435.480209 153.030436 C 425.960419 142.159403 417.490372 126.980652 413.579788 111.69944 C 409.660553 96.415342 410.290687 81.027338 418.690079 69.567512 C 418.949631 69.288989 418.969818 68.929652 418.740547 68.636698 C 418.509834 68.345188 418.070038 68.173456 417.610054 68.19366 C 417.139976 68.213864 416.740555 68.423116 416.56031 68.733387 Z M 416.56031 68.733387 " transform="matrix(2.708995,0,0,2.706806,-557.998739,34.745004)"/>
<path style=" stroke:none;fill-rule:evenodd;fill:rgb(54.509804%,0%,39.607843%);fill-opacity:1;" d="M 903.421875 957.03125 C 903.421875 997.253906 865.632812 1029.871094 819.089844 1029.871094 C 772.523438 1029.871094 734.734375 997.253906 734.734375 957.03125 C 734.734375 916.804688 772.523438 884.164062 819.089844 884.164062 C 865.632812 884.164062 903.421875 916.804688 903.421875 957.03125 Z M 903.421875 957.03125 "/>
<path style=" stroke:none;fill-rule:evenodd;fill:rgb(29.411765%,0.392157%,21.176471%);fill-opacity:1;" d="M 819.199219 881.320312 C 770.816406 881.320312 731.511719 915.34375 731.511719 957.136719 C 731.511719 998.929688 770.816406 1032.875 819.199219 1032.875 C 867.609375 1032.875 906.917969 998.929688 906.917969 957.136719 C 906.917969 915.34375 867.609375 881.320312 819.199219 881.320312 Z M 819.199219 887.167969 C 863.925781 887.167969 900.144531 918.511719 900.144531 957.136719 C 900.144531 995.765625 863.925781 1027.027344 819.199219 1027.027344 C 774.472656 1027.027344 738.28125 995.765625 738.28125 957.136719 C 738.28125 918.511719 774.472656 887.167969 819.199219 887.167969 Z M 819.199219 887.167969 "/>
<path style=" stroke:none;fill-rule:evenodd;fill:rgb(54.509804%,0%,39.607843%);fill-opacity:1;" d="M 902.933594 844.695312 C 902.933594 885.488281 867.015625 918.59375 822.777344 918.59375 C 778.511719 918.59375 742.589844 885.488281 742.589844 844.695312 C 742.589844 803.90625 778.511719 770.800781 822.777344 770.800781 C 867.015625 770.800781 902.933594 803.90625 902.933594 844.695312 Z M 902.933594 844.695312 "/>
<path style=" stroke:none;fill-rule:evenodd;fill:rgb(29.411765%,0.392157%,21.176471%);fill-opacity:1;" d="M 822.882812 767.90625 C 776.886719 767.90625 739.527344 802.417969 739.527344 844.804688 C 739.527344 887.195312 776.886719 921.625 822.882812 921.625 C 868.882812 921.625 906.265625 887.195312 906.265625 844.804688 C 906.265625 802.417969 868.882812 767.90625 822.882812 767.90625 Z M 822.882812 773.832031 C 865.414062 773.832031 899.820312 805.609375 899.820312 844.804688 C 899.820312 883.972656 865.414062 915.695312 822.882812 915.695312 C 780.378906 915.695312 745.949219 883.972656 745.949219 844.804688 C 745.949219 805.609375 780.378906 773.832031 822.882812 773.832031 Z M 822.882812 773.832031 "/>
<path style=" stroke:none;fill-rule:evenodd;fill:rgb(54.509804%,0%,39.607843%);fill-opacity:1;" d="M 794.710938 965.285156 C 794.710938 1001.503906 761.121094 1030.898438 719.753906 1030.898438 C 678.359375 1030.898438 644.769531 1001.503906 644.769531 965.285156 C 644.769531 929.070312 678.359375 899.671875 719.753906 899.671875 C 761.121094 899.671875 794.710938 929.070312 794.710938 965.285156 Z M 794.710938 965.285156 "/>
<path style=" stroke:none;fill-rule:evenodd;fill:rgb(29.411765%,0.392157%,21.176471%);fill-opacity:1;" d="M 719.859375 897.101562 C 676.871094 897.101562 641.921875 927.742188 641.921875 965.394531 C 641.921875 1003.019531 676.871094 1033.605469 719.859375 1033.605469 C 762.878906 1033.605469 797.824219 1003.019531 797.824219 965.394531 C 797.824219 927.742188 762.878906 897.101562 719.859375 897.101562 Z M 719.859375 902.378906 C 759.628906 902.378906 791.785156 930.609375 791.785156 965.394531 C 791.785156 1000.175781 759.628906 1028.328125 719.859375 1028.328125 C 680.121094 1028.328125 647.9375 1000.175781 647.9375 965.394531 C 647.9375 930.609375 680.121094 902.378906 719.859375 902.378906 Z M 719.859375 902.378906 "/>
<path style=" stroke:none;fill-rule:evenodd;fill:rgb(54.509804%,0%,39.607843%);fill-opacity:1;" d="M 880.585938 725.003906 C 880.585938 765.226562 846.074219 797.871094 803.542969 797.871094 C 761.011719 797.871094 726.472656 765.226562 726.472656 725.003906 C 726.472656 684.804688 761.011719 652.160156 803.542969 652.160156 C 846.074219 652.160156 880.585938 684.804688 880.585938 725.003906 Z M 880.585938 725.003906 "/>
<path style=" stroke:none;fill-rule:evenodd;fill:rgb(29.411765%,0.392157%,21.176471%);fill-opacity:1;" d="M 803.648438 649.292969 C 759.464844 649.292969 723.546875 683.316406 723.546875 725.109375 C 723.546875 766.929688 759.464844 800.875 803.648438 800.875 C 847.859375 800.875 883.78125 766.929688 883.78125 725.109375 C 883.78125 683.316406 847.859375 649.292969 803.648438 649.292969 Z M 803.648438 655.140625 C 844.527344 655.140625 877.578125 686.484375 877.578125 725.109375 C 877.578125 763.765625 844.527344 795.027344 803.648438 795.027344 C 762.796875 795.027344 729.722656 763.765625 729.722656 725.109375 C 729.722656 686.484375 762.796875 655.140625 803.648438 655.140625 Z M 803.648438 655.140625 "/>
<path style=" stroke:none;fill-rule:evenodd;fill:rgb(54.509804%,0%,39.607843%);fill-opacity:1;" d="M 803.082031 857.527344 C 803.082031 894.882812 767.648438 925.199219 723.953125 925.199219 C 680.28125 925.199219 644.820312 894.882812 644.820312 857.527344 C 644.820312 820.171875 680.28125 789.855469 723.953125 789.855469 C 767.648438 789.855469 803.082031 820.171875 803.082031 857.527344 Z M 803.082031 857.527344 "/>
<path style=" stroke:none;fill-rule:evenodd;fill:rgb(29.411765%,0.392157%,21.176471%);fill-opacity:1;" d="M 724.085938 787.203125 C 678.683594 787.203125 641.816406 818.820312 641.816406 857.636719 C 641.816406 896.453125 678.683594 928.011719 724.085938 928.011719 C 769.488281 928.011719 806.359375 896.453125 806.359375 857.636719 C 806.359375 818.820312 769.488281 787.203125 724.085938 787.203125 Z M 724.085938 792.644531 C 766.050781 792.644531 800.019531 821.742188 800.019531 857.636719 C 800.019531 893.527344 766.050781 922.570312 724.085938 922.570312 C 682.125 922.570312 648.152344 893.527344 648.152344 857.636719 C 648.152344 821.742188 682.125 792.644531 724.085938 792.644531 Z M 724.085938 792.644531 "/>
<path style=" stroke:none;fill-rule:evenodd;fill:rgb(54.509804%,0%,39.607843%);fill-opacity:1;" d="M 668.308594 913.070312 C 668.308594 951.5625 630.980469 982.824219 585.007812 982.824219 C 539.007812 982.824219 501.707031 951.5625 501.707031 913.070312 C 501.707031 874.554688 539.007812 843.316406 585.007812 843.316406 C 630.980469 843.316406 668.308594 874.554688 668.308594 913.070312 Z M 668.308594 913.070312 "/>
<path style=" stroke:none;fill-rule:evenodd;fill:rgb(29.411765%,0.392157%,21.176471%);fill-opacity:1;" d="M 585.144531 840.582031 C 537.328125 840.582031 498.507812 873.144531 498.507812 913.179688 C 498.507812 953.1875 537.328125 985.695312 585.144531 985.695312 C 632.929688 985.695312 671.75 953.1875 671.75 913.179688 C 671.75 873.144531 632.929688 840.582031 585.144531 840.582031 Z M 585.144531 846.1875 C 629.300781 846.1875 665.058594 876.175781 665.058594 913.179688 C 665.058594 950.15625 629.300781 980.089844 585.144531 980.089844 C 540.960938 980.089844 505.199219 950.15625 505.199219 913.179688 C 505.199219 876.175781 540.960938 846.1875 585.144531 846.1875 Z M 585.144531 846.1875 "/>
<path style=" stroke:none;fill-rule:evenodd;fill:rgb(54.509804%,0%,39.607843%);fill-opacity:1;" d="M 685.320312 813.921875 C 685.320312 854.144531 647.53125 886.789062 600.964844 886.789062 C 554.394531 886.789062 516.605469 854.144531 516.605469 813.921875 C 516.605469 773.699219 554.394531 741.082031 600.964844 741.082031 C 647.53125 741.082031 685.320312 773.699219 685.320312 813.921875 Z M 685.320312 813.921875 "/>
<path style=" stroke:none;fill-rule:evenodd;fill:rgb(29.411765%,0.392157%,21.176471%);fill-opacity:1;" d="M 601.097656 738.210938 C 552.6875 738.210938 513.382812 772.234375 513.382812 814.027344 C 513.382812 855.820312 552.6875 889.792969 601.097656 889.792969 C 649.480469 889.792969 688.789062 855.820312 688.789062 814.027344 C 688.789062 772.234375 649.480469 738.210938 601.097656 738.210938 Z M 601.097656 744.058594 C 645.824219 744.058594 682.015625 775.402344 682.015625 814.027344 C 682.015625 852.65625 645.824219 883.945312 601.097656 883.945312 C 556.375 883.945312 520.152344 852.65625 520.152344 814.027344 C 520.152344 775.402344 556.375 744.058594 601.097656 744.058594 Z M 601.097656 744.058594 "/>
<path style=" stroke:none;fill-rule:evenodd;fill:rgb(54.509804%,0%,39.607843%);fill-opacity:1;" d="M 528.984375 850.707031 C 528.984375 887.492188 493.0625 917.347656 448.828125 917.347656 C 404.5625 917.347656 368.640625 887.492188 368.640625 850.707031 C 368.640625 813.921875 404.5625 784.066406 448.828125 784.066406 C 493.0625 784.066406 528.984375 813.921875 528.984375 850.707031 Z M 528.984375 850.707031 "/>
<path style=" stroke:none;fill-rule:evenodd;fill:rgb(54.509804%,0%,39.607843%);fill-opacity:1;" d="M 809.71875 734.71875 C 809.71875 774.941406 771.929688 807.585938 725.359375 807.585938 C 678.792969 807.585938 641.03125 774.941406 641.03125 734.71875 C 641.03125 694.496094 678.792969 661.878906 725.359375 661.878906 C 771.929688 661.878906 809.71875 694.496094 809.71875 734.71875 Z M 809.71875 734.71875 "/>
<path style=" stroke:none;fill-rule:evenodd;fill:rgb(29.411765%,0.392157%,21.176471%);fill-opacity:1;" d="M 725.496094 659.011719 C 677.085938 659.011719 637.777344 693.035156 637.777344 734.828125 C 637.777344 776.621094 677.085938 810.589844 725.496094 810.589844 C 773.878906 810.589844 813.1875 776.621094 813.1875 734.828125 C 813.1875 693.035156 773.878906 659.011719 725.496094 659.011719 Z M 725.496094 664.855469 C 770.222656 664.855469 806.414062 696.203125 806.414062 734.828125 C 806.414062 773.453125 770.222656 804.746094 725.496094 804.746094 C 680.769531 804.746094 644.550781 773.453125 644.550781 734.828125 C 644.550781 696.203125 680.769531 664.855469 725.496094 664.855469 Z M 725.496094 664.855469 "/>
<path style=" stroke:none;fill-rule:evenodd;fill:rgb(54.509804%,0%,39.607843%);fill-opacity:1;" d="M 850.460938 603.195312 C 850.460938 643.417969 812.671875 676.0625 766.105469 676.0625 C 719.5625 676.0625 681.773438 643.417969 681.773438 603.195312 C 681.773438 562.972656 719.5625 530.355469 766.105469 530.355469 C 812.671875 530.355469 850.460938 562.972656 850.460938 603.195312 Z M 850.460938 603.195312 "/>
<path style=" stroke:none;fill-rule:evenodd;fill:rgb(29.411765%,0.392157%,21.176471%);fill-opacity:1;" d="M 766.238281 527.488281 C 717.855469 527.488281 678.550781 561.511719 678.550781 603.304688 C 678.550781 645.097656 717.855469 679.066406 766.238281 679.066406 C 814.621094 679.066406 853.957031 645.097656 853.957031 603.304688 C 853.957031 561.511719 814.621094 527.488281 766.238281 527.488281 Z M 766.238281 533.332031 C 810.964844 533.332031 847.183594 564.679688 847.183594 603.304688 C 847.183594 641.929688 810.964844 673.222656 766.238281 673.222656 C 721.511719 673.222656 685.320312 641.929688 685.320312 603.304688 C 685.320312 564.679688 721.511719 533.332031 766.238281 533.332031 Z M 766.238281 533.332031 "/>
<path style=" stroke:none;fill-rule:evenodd;fill:rgb(29.411765%,0.392157%,21.176471%);fill-opacity:1;" d="M 448.933594 781.464844 C 402.9375 781.464844 365.578125 812.566406 365.578125 850.816406 C 365.578125 889.035156 402.9375 920.109375 448.933594 920.109375 C 494.933594 920.109375 532.316406 889.035156 532.316406 850.816406 C 532.316406 812.566406 494.933594 781.464844 448.933594 781.464844 Z M 448.933594 786.796875 C 491.464844 786.796875 525.871094 815.464844 525.871094 850.816406 C 525.871094 886.136719 491.464844 914.75 448.933594 914.75 C 406.429688 914.75 372.027344 886.136719 372.027344 850.816406 C 372.027344 815.464844 406.429688 786.796875 448.933594 786.796875 Z M 448.933594 786.796875 "/>
<path style=" stroke:none;fill-rule:evenodd;fill:rgb(54.509804%,0%,39.607843%);fill-opacity:1;" d="M 552.796875 770.71875 C 552.796875 810.945312 515.007812 843.585938 468.4375 843.585938 C 421.871094 843.585938 384.082031 810.945312 384.082031 770.71875 C 384.082031 730.496094 421.871094 697.878906 468.4375 697.878906 C 515.007812 697.878906 552.796875 730.496094 552.796875 770.71875 Z M 552.796875 770.71875 "/>
<path style=" stroke:none;fill-rule:evenodd;fill:rgb(29.411765%,0.392157%,21.176471%);fill-opacity:1;" d="M 468.574219 695.011719 C 420.164062 695.011719 380.859375 729.035156 380.859375 770.828125 C 380.859375 812.621094 420.164062 846.59375 468.574219 846.59375 C 516.957031 846.59375 556.265625 812.621094 556.265625 770.828125 C 556.265625 729.035156 516.957031 695.011719 468.574219 695.011719 Z M 468.574219 700.859375 C 513.300781 700.859375 549.492188 732.203125 549.492188 770.828125 C 549.492188 809.453125 513.300781 840.71875 468.574219 840.71875 C 423.820312 840.71875 387.628906 809.453125 387.628906 770.828125 C 387.628906 732.203125 423.820312 700.859375 468.574219 700.859375 Z M 468.574219 700.859375 "/>
<path style=" stroke:none;fill-rule:evenodd;fill:rgb(54.509804%,0%,39.607843%);fill-opacity:1;" d="M 411.523438 761.734375 C 411.523438 803.660156 374.679688 837.714844 329.277344 837.714844 C 283.847656 837.714844 247.007812 803.660156 247.007812 761.734375 C 247.007812 719.804688 283.847656 685.78125 329.277344 685.78125 C 374.679688 685.78125 411.523438 719.804688 411.523438 761.734375 Z M 411.523438 761.734375 "/>
<path style=" stroke:none;fill-rule:evenodd;fill:rgb(29.411765%,0.392157%,21.176471%);fill-opacity:1;" d="M 329.386719 682.777344 C 282.195312 682.777344 243.863281 718.261719 243.863281 761.84375 C 243.863281 805.421875 282.195312 840.828125 329.386719 840.828125 C 376.578125 840.828125 414.910156 805.421875 414.910156 761.84375 C 414.910156 718.261719 376.578125 682.777344 329.386719 682.777344 Z M 329.386719 688.867188 C 373 688.867188 408.328125 721.566406 408.328125 761.84375 C 408.328125 802.144531 373 834.734375 329.386719 834.734375 C 285.773438 834.734375 250.46875 802.144531 250.46875 761.84375 C 250.46875 721.566406 285.773438 688.867188 329.386719 688.867188 Z M 329.386719 688.867188 "/>
<path style=" stroke:none;fill-rule:evenodd;fill:rgb(54.509804%,0%,39.607843%);fill-opacity:1;" d="M 652.597656 696.28125 C 652.597656 735.9375 616.675781 768.121094 572.4375 768.121094 C 528.171875 768.121094 492.25 735.9375 492.25 696.28125 C 492.25 656.65625 528.171875 624.472656 572.4375 624.472656 C 616.675781 624.472656 652.597656 656.65625 652.597656 696.28125 Z M 652.597656 696.28125 "/>
<path style=" stroke:none;fill-rule:evenodd;fill:rgb(29.411765%,0.392157%,21.176471%);fill-opacity:1;" d="M 572.546875 621.65625 C 526.574219 621.65625 489.191406 655.195312 489.191406 696.390625 C 489.191406 737.617188 526.574219 771.070312 572.546875 771.070312 C 618.542969 771.070312 655.929688 737.617188 655.929688 696.390625 C 655.929688 655.195312 618.542969 621.65625 572.546875 621.65625 Z M 572.546875 627.421875 C 615.078125 627.421875 649.480469 658.304688 649.480469 696.390625 C 649.480469 734.476562 615.078125 765.304688 572.546875 765.304688 C 530.042969 765.304688 495.636719 734.476562 495.636719 696.390625 C 495.636719 658.304688 530.042969 627.421875 572.546875 627.421875 Z M 572.546875 627.421875 "/>
<path style=" stroke:none;fill-rule:evenodd;fill:rgb(54.509804%,0%,39.607843%);fill-opacity:1;" d="M 747.25 612.589844 C 747.25 651.648438 711.789062 683.371094 668.121094 683.371094 C 624.421875 683.371094 588.988281 651.648438 588.988281 612.589844 C 588.988281 573.503906 624.421875 541.804688 668.121094 541.804688 C 711.789062 541.804688 747.25 573.503906 747.25 612.589844 Z M 747.25 612.589844 "/>
<path style=" stroke:none;fill-rule:evenodd;fill:rgb(29.411765%,0.392157%,21.176471%);fill-opacity:1;" d="M 668.253906 539.019531 C 622.824219 539.019531 585.957031 572.09375 585.957031 612.695312 C 585.957031 653.300781 622.824219 686.296875 668.253906 686.296875 C 713.65625 686.296875 750.527344 653.300781 750.527344 612.695312 C 750.527344 572.09375 713.65625 539.019531 668.253906 539.019531 Z M 668.253906 544.703125 C 710.21875 544.703125 744.160156 575.152344 744.160156 612.695312 C 744.160156 650.242188 710.21875 680.609375 668.253906 680.609375 C 626.265625 680.609375 592.320312 650.242188 592.320312 612.695312 C 592.320312 575.152344 626.265625 544.703125 668.253906 544.703125 Z M 668.253906 544.703125 "/>
<path style=" stroke:none;fill-rule:evenodd;fill:rgb(54.509804%,0%,39.607843%);fill-opacity:1;" d="M 824.5625 479.25 C 824.5625 516.605469 788.183594 546.921875 743.347656 546.921875 C 698.515625 546.921875 662.105469 516.605469 662.105469 479.25 C 662.105469 441.898438 698.515625 411.554688 743.347656 411.554688 C 788.183594 411.554688 824.5625 441.898438 824.5625 479.25 Z M 824.5625 479.25 "/>
<path style=" stroke:none;fill-rule:evenodd;fill:rgb(29.411765%,0.392157%,21.176471%);fill-opacity:1;" d="M 743.457031 408.902344 C 696.863281 408.902344 659.015625 440.515625 659.015625 479.359375 C 659.015625 518.175781 696.863281 549.710938 743.457031 549.710938 C 790.050781 549.710938 827.921875 518.175781 827.921875 479.359375 C 827.921875 440.515625 790.050781 408.902344 743.457031 408.902344 Z M 743.457031 414.34375 C 786.53125 414.34375 821.394531 443.46875 821.394531 479.359375 C 821.394531 515.226562 786.53125 544.269531 743.457031 544.269531 C 700.382812 544.269531 665.546875 515.226562 665.546875 479.359375 C 665.546875 443.46875 700.382812 414.34375 743.457031 414.34375 Z M 743.457031 414.34375 "/>
<path style=" stroke:none;fill-rule:evenodd;fill:rgb(54.509804%,0%,39.607843%);fill-opacity:1;" d="M 729.070312 496.980469 C 729.070312 537.175781 694.097656 569.820312 650.972656 569.820312 C 607.871094 569.820312 572.898438 537.175781 572.898438 496.980469 C 572.898438 456.757812 607.871094 424.113281 650.972656 424.113281 C 694.097656 424.113281 729.070312 456.757812 729.070312 496.980469 Z M 729.070312 496.980469 "/>
<path style=" stroke:none;fill-rule:evenodd;fill:rgb(29.411765%,0.392157%,21.176471%);fill-opacity:1;" d="M 651.105469 421.246094 C 606.300781 421.246094 569.917969 455.269531 569.917969 497.089844 C 569.917969 538.882812 606.300781 572.824219 651.105469 572.824219 C 695.914062 572.824219 732.296875 538.882812 732.296875 497.089844 C 732.296875 455.269531 695.914062 421.246094 651.105469 421.246094 Z M 651.105469 427.089844 C 692.527344 427.089844 726.039062 458.4375 726.039062 497.089844 C 726.039062 535.714844 692.527344 566.980469 651.105469 566.980469 C 609.6875 566.980469 576.175781 535.714844 576.175781 497.089844 C 576.175781 458.4375 609.6875 427.089844 651.105469 427.089844 Z M 651.105469 427.089844 "/>
<path style=" stroke:none;fill-rule:evenodd;fill:rgb(54.509804%,0%,39.607843%);fill-opacity:1;" d="M 604.160156 573.960938 C 604.160156 614.1875 566.371094 646.828125 519.800781 646.828125 C 473.234375 646.828125 435.445312 614.1875 435.445312 573.960938 C 435.445312 533.738281 473.234375 501.121094 519.800781 501.121094 C 566.371094 501.121094 604.160156 533.738281 604.160156 573.960938 Z M 604.160156 573.960938 "/>
<path style=" stroke:none;fill-rule:evenodd;fill:rgb(29.411765%,0.392157%,21.176471%);fill-opacity:1;" d="M 519.9375 498.253906 C 471.527344 498.253906 432.21875 532.277344 432.21875 574.070312 C 432.21875 615.863281 471.527344 649.835938 519.9375 649.835938 C 568.320312 649.835938 607.628906 615.863281 607.628906 574.070312 C 607.628906 532.277344 568.320312 498.253906 519.9375 498.253906 Z M 519.9375 504.101562 C 564.664062 504.101562 600.855469 535.445312 600.855469 574.070312 C 600.855469 612.695312 564.664062 643.988281 519.9375 643.988281 C 475.183594 643.988281 438.992188 612.695312 438.992188 574.070312 C 438.992188 535.445312 475.183594 504.101562 519.9375 504.101562 Z M 519.9375 504.101562 "/>
<path style=" stroke:none;fill-rule:evenodd;fill:rgb(54.509804%,0%,39.607843%);fill-opacity:1;" d="M 504.226562 648.777344 C 504.226562 690.679688 470.632812 724.703125 429.238281 724.703125 C 387.847656 724.703125 354.226562 690.679688 354.226562 648.777344 C 354.226562 606.851562 387.847656 572.851562 429.238281 572.851562 C 470.632812 572.851562 504.226562 606.851562 504.226562 648.777344 Z M 504.226562 648.777344 "/>
<path style=" stroke:none;fill-rule:evenodd;fill:rgb(29.411765%,0.392157%,21.176471%);fill-opacity:1;" d="M 429.347656 569.847656 C 386.328125 569.847656 351.382812 605.308594 351.382812 648.886719 C 351.382812 692.4375 386.328125 727.816406 429.347656 727.816406 C 472.367188 727.816406 507.339844 692.4375 507.339844 648.886719 C 507.339844 605.308594 472.367188 569.847656 429.347656 569.847656 Z M 429.347656 575.9375 C 469.117188 575.9375 501.300781 608.609375 501.300781 648.886719 C 501.300781 689.136719 469.117188 721.726562 429.347656 721.726562 C 389.582031 721.726562 357.398438 689.136719 357.398438 648.886719 C 357.398438 608.609375 389.582031 575.9375 429.347656 575.9375 Z M 429.347656 575.9375 "/>
<path style=" stroke:none;fill-rule:evenodd;fill:rgb(54.509804%,0%,39.607843%);fill-opacity:1;" d="M 283.523438 683.996094 C 283.523438 721.917969 249.003906 752.691406 206.472656 752.691406 C 163.9375 752.691406 129.417969 721.917969 129.417969 683.996094 C 129.417969 646.070312 163.9375 615.269531 206.472656 615.269531 C 249.003906 615.269531 283.523438 646.070312 283.523438 683.996094 Z M 283.523438 683.996094 "/>
<path style=" stroke:none;fill-rule:evenodd;fill:rgb(29.411765%,0.392157%,21.176471%);fill-opacity:1;" d="M 206.597656 612.589844 C 162.390625 612.589844 126.480469 644.664062 126.480469 684.101562 C 126.480469 723.511719 162.390625 755.535156 206.597656 755.535156 C 250.804688 755.535156 286.71875 723.511719 286.71875 684.101562 C 286.71875 644.664062 250.804688 612.589844 206.597656 612.589844 Z M 206.597656 618.109375 C 247.457031 618.109375 280.515625 647.667969 280.515625 684.101562 C 280.515625 720.535156 247.457031 750.011719 206.597656 750.011719 C 165.738281 750.011719 132.667969 720.535156 132.667969 684.101562 C 132.667969 647.667969 165.738281 618.109375 206.597656 618.109375 Z M 206.597656 618.109375 "/>
<path style=" stroke:none;fill-rule:evenodd;fill:rgb(54.509804%,0%,39.607843%);fill-opacity:1;" d="M 390.421875 626.933594 C 390.421875 665.992188 354.039062 697.71875 309.203125 697.71875 C 264.363281 697.71875 227.976562 665.992188 227.976562 626.933594 C 227.976562 587.847656 264.363281 556.152344 309.203125 556.152344 C 354.039062 556.152344 390.421875 587.847656 390.421875 626.933594 Z M 390.421875 626.933594 "/>
<path style=" stroke:none;fill-rule:evenodd;fill:rgb(29.411765%,0.392157%,21.176471%);fill-opacity:1;" d="M 309.3125 553.363281 C 262.726562 553.363281 224.875 586.414062 224.875 627.042969 C 224.875 667.644531 262.726562 700.640625 309.3125 700.640625 C 355.933594 700.640625 393.78125 667.644531 393.78125 627.042969 C 393.78125 586.414062 355.933594 553.363281 309.3125 553.363281 Z M 309.3125 559.046875 C 352.386719 559.046875 387.25 589.5 387.25 627.042969 C 387.25 664.558594 352.386719 694.957031 309.3125 694.957031 C 266.253906 694.957031 231.394531 664.558594 231.394531 627.042969 C 231.394531 589.5 266.253906 559.046875 309.3125 559.046875 Z M 309.3125 559.046875 "/>
<path style=" stroke:none;fill-rule:evenodd;fill:rgb(54.509804%,0%,39.607843%);fill-opacity:1;" d="M 293.683594 552.417969 C 293.683594 592.640625 255.90625 625.285156 209.34375 625.285156 C 162.785156 625.285156 124.992188 592.640625 124.992188 552.417969 C 124.992188 512.191406 162.785156 479.574219 209.34375 479.574219 C 255.90625 479.574219 293.683594 512.191406 293.683594 552.417969 Z M 293.683594 552.417969 "/>
<path style=" stroke:none;fill-rule:evenodd;fill:rgb(29.411765%,0.392157%,21.176471%);fill-opacity:1;" d="M 209.46875 476.707031 C 161.078125 476.707031 121.765625 510.730469 121.765625 552.523438 C 121.765625 594.316406 161.078125 628.289062 209.46875 628.289062 C 257.863281 628.289062 297.175781 594.316406 297.175781 552.523438 C 297.175781 510.730469 257.863281 476.707031 209.46875 476.707031 Z M 209.46875 482.554688 C 254.199219 482.554688 290.402344 513.898438 290.402344 552.523438 C 290.402344 591.152344 254.199219 622.441406 209.46875 622.441406 C 164.738281 622.441406 128.539062 591.152344 128.539062 552.523438 C 128.539062 513.898438 164.738281 482.554688 209.46875 482.554688 Z M 209.46875 482.554688 "/>
<path style=" stroke:none;fill-rule:evenodd;fill:rgb(54.509804%,0%,39.607843%);fill-opacity:1;" d="M 463.859375 511.488281 C 463.859375 553.445312 424.660156 587.46875 376.386719 587.46875 C 328.085938 587.46875 288.914062 553.445312 288.914062 511.488281 C 288.914062 469.5625 328.085938 435.535156 376.386719 435.535156 C 424.660156 435.535156 463.859375 469.5625 463.859375 511.488281 Z M 463.859375 511.488281 "/>
<path style=" stroke:none;fill-rule:evenodd;fill:rgb(29.411765%,0.392157%,21.176471%);fill-opacity:1;" d="M 376.496094 432.558594 C 326.324219 432.558594 285.554688 468.019531 285.554688 511.597656 C 285.554688 555.203125 326.324219 590.582031 376.496094 590.582031 C 426.695312 590.582031 467.464844 555.203125 467.464844 511.597656 C 467.464844 468.019531 426.695312 432.558594 376.496094 432.558594 Z M 376.496094 438.648438 C 422.902344 438.648438 460.421875 471.320312 460.421875 511.597656 C 460.421875 551.902344 422.902344 584.492188 376.496094 584.492188 C 330.117188 584.492188 292.570312 551.902344 292.570312 511.597656 C 292.570312 471.320312 330.117188 438.648438 376.496094 438.648438 Z M 376.496094 438.648438 "/>
<path style=" stroke:none;fill-rule:evenodd;fill:rgb(54.509804%,0%,39.607843%);fill-opacity:1;" d="M 740.800781 381.375 C 740.800781 421.597656 703.039062 454.242188 656.46875 454.242188 C 609.902344 454.242188 572.113281 421.597656 572.113281 381.375 C 572.113281 341.148438 609.902344 308.53125 656.46875 308.53125 C 703.039062 308.53125 740.800781 341.148438 740.800781 381.375 Z M 740.800781 381.375 "/>
<path style=" stroke:none;fill-rule:evenodd;fill:rgb(29.411765%,0.392157%,21.176471%);fill-opacity:1;" d="M 656.578125 305.664062 C 608.195312 305.664062 568.890625 339.6875 568.890625 381.480469 C 568.890625 423.273438 608.195312 457.246094 656.578125 457.246094 C 704.988281 457.246094 744.296875 423.273438 744.296875 381.480469 C 744.296875 339.6875 704.988281 305.664062 656.578125 305.664062 Z M 656.578125 311.511719 C 701.332031 311.511719 737.523438 342.855469 737.523438 381.480469 C 737.523438 420.109375 701.332031 451.371094 656.578125 451.371094 C 611.855469 451.371094 575.660156 420.109375 575.660156 381.480469 C 575.660156 342.855469 611.855469 311.511719 656.578125 311.511719 Z M 656.578125 311.511719 "/>
<path style=" stroke:none;fill-rule:evenodd;fill:rgb(54.509804%,0%,39.607843%);fill-opacity:1;" d="M 600.609375 446.605469 C 600.609375 486.832031 562.820312 519.472656 516.253906 519.472656 C 469.710938 519.472656 431.921875 486.832031 431.921875 446.605469 C 431.921875 406.382812 469.710938 373.765625 516.253906 373.765625 C 562.820312 373.765625 600.609375 406.382812 600.609375 446.605469 Z M 600.609375 446.605469 "/>
<path style=" stroke:none;fill-rule:evenodd;fill:rgb(29.411765%,0.392157%,21.176471%);fill-opacity:1;" d="M 516.386719 370.898438 C 468.007812 370.898438 428.671875 404.921875 428.671875 446.714844 C 428.671875 488.507812 468.007812 522.480469 516.386719 522.480469 C 564.769531 522.480469 604.078125 488.507812 604.078125 446.714844 C 604.078125 404.921875 564.769531 370.898438 516.386719 370.898438 Z M 516.386719 376.746094 C 561.113281 376.746094 597.304688 408.089844 597.304688 446.714844 C 597.304688 485.339844 561.113281 516.632812 516.386719 516.632812 C 471.664062 516.632812 435.445312 485.339844 435.445312 446.714844 C 435.445312 408.089844 471.664062 376.746094 516.386719 376.746094 Z M 516.386719 376.746094 "/>
<path style=" stroke:none;fill-rule:evenodd;fill:rgb(54.509804%,0%,39.607843%);fill-opacity:1;" d="M 638.375 326.34375 C 638.375 366.539062 600.585938 399.183594 554.015625 399.183594 C 507.449219 399.183594 469.660156 366.539062 469.660156 326.34375 C 469.660156 286.121094 507.449219 253.480469 554.015625 253.480469 C 600.585938 253.480469 638.375 286.121094 638.375 326.34375 Z M 638.375 326.34375 "/>
<path style=" stroke:none;fill-rule:evenodd;fill:rgb(29.411765%,0.392157%,21.176471%);fill-opacity:1;" d="M 554.152344 250.617188 C 505.742188 250.617188 466.433594 284.632812 466.433594 326.453125 C 466.433594 368.246094 505.742188 402.1875 554.152344 402.1875 C 602.535156 402.1875 641.84375 368.246094 641.84375 326.453125 C 641.84375 284.632812 602.535156 250.617188 554.152344 250.617188 Z M 554.152344 256.46875 C 598.878906 256.46875 635.070312 287.800781 635.070312 326.453125 C 635.070312 365.078125 598.878906 396.34375 554.152344 396.34375 C 509.398438 396.34375 473.207031 365.078125 473.207031 326.453125 C 473.207031 287.800781 509.398438 256.46875 554.152344 256.46875 Z M 554.152344 256.46875 "/>
<path style=" stroke:none;fill-rule:nonzero;fill:rgb(42.352941%,21.176471%,12.54902%);fill-opacity:1;" d="M 259.304688 388.761719 L 259.304688 391.46875 L 378.5 391.46875 L 378.5 388.761719 C 369.15625 383.511719 356.992188 380.535156 349.867188 372.144531 C 338.136719 358.285156 335.480469 326.695312 329.359375 309.183594 C 321.9375 288.015625 312.507812 269.207031 299.859375 250.722656 C 294.441406 242.796875 268.488281 215.011719 271.441406 204.738281 C 273.554688 187.679688 299.046875 174.640625 312.5625 169.71875 C 379.203125 145.445312 433.386719 173.769531 491.167969 198.5625 C 499.972656 201.457031 579.238281 246.148438 588.609375 222.902344 C 592.320312 213.683594 581.59375 212.710938 565.394531 215.644531 C 538.847656 221.851562 498.210938 194.804688 475.726562 185.132812 C 408.246094 153.558594 313.324219 123.132812 256.597656 196.585938 C 211.261719 153.234375 139.742188 111.597656 75.09375 110.007812 C 58.976562 109.613281 -10.621094 111.96875 2.417969 144.875 C 11.34375 167.402344 63.046875 170.898438 83.21875 174.265625 C 156.34375 186.464844 220.160156 193.253906 266.238281 258.84375 C 282.820312 282.4375 312.292969 342.800781 294.035156 371.765625 C 287.964844 381.398438 269.414062 384.648438 259.304688 388.761719 Z M 259.304688 388.761719 "/>
<path style=" stroke:none;fill-rule:nonzero;fill:url(#linear1);" d="M 259.304688 388.761719 L 259.304688 391.46875 L 378.5 391.46875 L 378.5 388.761719 C 369.15625 383.511719 356.992188 380.535156 349.867188 372.144531 C 338.136719 358.285156 335.480469 326.695312 329.359375 309.183594 C 321.9375 288.015625 312.507812 269.207031 299.859375 250.722656 C 294.441406 242.796875 268.488281 215.011719 271.441406 204.738281 C 273.554688 187.679688 299.046875 174.640625 312.5625 169.71875 C 379.203125 145.445312 433.386719 173.769531 491.167969 198.5625 C 499.972656 201.457031 579.238281 246.148438 588.609375 222.902344 C 592.320312 213.683594 581.59375 212.710938 565.394531 215.644531 C 538.847656 221.851562 498.210938 194.804688 475.726562 185.132812 C 408.246094 153.558594 313.324219 123.132812 256.597656 196.585938 C 211.261719 153.234375 139.742188 111.597656 75.09375 110.007812 C 58.976562 109.613281 -10.621094 111.96875 2.417969 144.875 C 11.34375 167.402344 63.046875 170.898438 83.21875 174.265625 C 156.34375 186.464844 220.160156 193.253906 266.238281 258.84375 C 282.820312 282.4375 312.292969 342.800781 294.035156 371.765625 C 287.964844 381.398438 269.414062 384.648438 259.304688 388.761719 Z M 259.304688 388.761719 "/>
<path style=" stroke:none;fill-rule:evenodd;fill:rgb(54.509804%,0%,39.607843%);fill-opacity:1;" d="M 358.183594 442.816406 C 358.183594 483.039062 320.394531 515.65625 273.824219 515.65625 C 227.277344 515.65625 189.488281 483.039062 189.488281 442.816406 C 189.488281 402.59375 227.277344 369.949219 273.824219 369.949219 C 320.394531 369.949219 358.183594 402.59375 358.183594 442.816406 Z M 358.183594 442.816406 "/>
<path style=" stroke:none;fill-rule:evenodd;fill:rgb(29.411765%,0.392157%,21.176471%);fill-opacity:1;" d="M 273.960938 367.082031 C 225.570312 367.082031 186.257812 401.132812 186.257812 442.925781 C 186.257812 484.71875 225.570312 518.664062 273.960938 518.664062 C 322.371094 518.664062 361.679688 484.71875 361.679688 442.925781 C 361.679688 401.132812 322.371094 367.082031 273.960938 367.082031 Z M 273.960938 372.953125 C 318.6875 372.953125 354.90625 404.273438 354.90625 442.925781 C 354.90625 481.550781 318.6875 512.816406 273.960938 512.816406 C 229.234375 512.816406 193.03125 481.550781 193.03125 442.925781 C 193.03125 404.273438 229.234375 372.953125 273.960938 372.953125 Z M 273.960938 372.953125 "/>
<path style=" stroke:none;fill-rule:evenodd;fill:rgb(54.509804%,0%,39.607843%);fill-opacity:1;" d="M 492.144531 369.355469 C 492.144531 409.578125 454.351562 442.195312 407.785156 442.195312 C 361.21875 442.195312 323.425781 409.578125 323.425781 369.355469 C 323.425781 329.132812 361.21875 296.488281 407.785156 296.488281 C 454.351562 296.488281 492.144531 329.132812 492.144531 369.355469 Z M 492.144531 369.355469 "/>
<path style=" stroke:none;fill-rule:evenodd;fill:rgb(29.411765%,0.392157%,21.176471%);fill-opacity:1;" d="M 407.921875 293.644531 C 359.511719 293.644531 320.203125 327.671875 320.203125 369.464844 C 320.203125 411.257812 359.511719 445.199219 407.921875 445.199219 C 456.304688 445.199219 495.609375 411.257812 495.609375 369.464844 C 495.609375 327.671875 456.304688 293.644531 407.921875 293.644531 Z M 407.921875 299.492188 C 452.644531 299.492188 488.839844 330.835938 488.839844 369.464844 C 488.839844 408.089844 452.644531 439.351562 407.921875 439.351562 C 363.195312 439.351562 326.976562 408.089844 326.976562 369.464844 C 326.976562 330.835938 363.195312 299.492188 407.921875 299.492188 Z M 407.921875 299.492188 "/>
<path style=" stroke:none;fill-rule:evenodd;fill:rgb(70.196078%,19.607843%,51.372549%);fill-opacity:1;" d="M 599.164062 658.121094 C 611.425781 670.585938 613.042969 686.234375 602.769531 693.042969 C 592.5 699.851562 574.203125 695.257812 561.941406 682.792969 C 549.671875 670.320312 548.054688 654.671875 558.324219 647.863281 C 568.597656 641.054688 586.894531 645.648438 599.164062 658.121094 Z M 599.164062 658.121094 "/>
<path style=" stroke:none;fill-rule:evenodd;fill:rgb(70.196078%,19.607843%,51.372549%);fill-opacity:1;" d="M 725.835938 587.414062 C 735.894531 601.714844 734.933594 617.414062 723.679688 622.457031 C 712.4375 627.496094 695.136719 619.976562 685.078125 605.679688 C 675.011719 591.371094 675.972656 575.667969 687.21875 570.628906 C 698.46875 565.589844 715.769531 573.105469 725.835938 587.414062 Z M 725.835938 587.414062 "/>
<path style=" stroke:none;fill-rule:evenodd;fill:rgb(70.196078%,19.607843%,51.372549%);fill-opacity:1;" d="M 713.136719 482.121094 C 719.691406 498.328125 715.191406 513.402344 703.085938 515.761719 C 690.992188 518.125 675.851562 506.882812 669.296875 490.675781 C 662.738281 474.460938 667.242188 459.386719 679.335938 457.023438 C 691.4375 454.664062 706.582031 465.902344 713.136719 482.121094 Z M 713.136719 482.121094 "/>
<path style=" stroke:none;fill-rule:evenodd;fill:rgb(70.196078%,19.607843%,51.372549%);fill-opacity:1;" d="M 558.671875 412.113281 C 573.066406 422.042969 577.609375 437.105469 568.804688 445.730469 C 560.003906 454.351562 541.171875 453.289062 526.777344 443.359375 C 512.371094 433.421875 507.828125 418.363281 516.628906 409.742188 C 525.433594 401.117188 544.265625 402.175781 558.671875 412.113281 Z M 558.671875 412.113281 "/>
<path style=" stroke:none;fill-rule:evenodd;fill:rgb(70.196078%,19.607843%,51.372549%);fill-opacity:1;" d="M 599.0625 275.175781 C 613.457031 285.105469 618 300.167969 609.195312 308.792969 C 600.394531 317.414062 581.5625 316.351562 567.167969 306.421875 C 552.761719 296.484375 548.21875 281.425781 557.019531 272.804688 C 565.824219 264.179688 584.65625 265.238281 599.0625 275.175781 Z M 599.0625 275.175781 "/>
<path style=" stroke:none;fill-rule:evenodd;fill:rgb(70.196078%,19.607843%,51.372549%);fill-opacity:1;" d="M 709.089844 338.777344 C 721.070312 351.511719 722.339844 367.191406 711.914062 373.773438 C 701.496094 380.351562 683.304688 375.351562 671.324219 362.617188 C 659.335938 349.875 658.066406 334.195312 668.488281 327.617188 C 678.910156 321.035156 697.097656 326.035156 709.089844 338.777344 Z M 709.089844 338.777344 "/>
<path style=" stroke:none;fill-rule:evenodd;fill:rgb(70.196078%,19.607843%,51.372549%);fill-opacity:1;" d="M 796.007812 443.5625 C 807.183594 455.699219 807.699219 468.746094 797.152344 472.683594 C 786.609375 476.613281 768.972656 469.953125 757.796875 457.816406 C 746.613281 445.667969 746.097656 432.621094 756.640625 428.691406 C 767.1875 424.753906 784.824219 431.417969 796.007812 443.5625 Z M 796.007812 443.5625 "/>
<path style=" stroke:none;fill-rule:evenodd;fill:rgb(70.196078%,19.607843%,51.372549%);fill-opacity:1;" d="M 448.613281 317.238281 C 463.007812 327.167969 467.550781 342.230469 458.746094 350.855469 C 449.945312 359.476562 431.113281 358.414062 416.71875 348.484375 C 402.3125 338.550781 397.769531 323.488281 406.570312 314.867188 C 415.375 306.242188 434.207031 307.304688 448.613281 317.238281 Z M 448.613281 317.238281 "/>
<path style=" stroke:none;fill-rule:evenodd;fill:rgb(70.196078%,19.607843%,51.372549%);fill-opacity:1;" d="M 823.660156 567.023438 C 833.261719 581.628906 831.804688 597.292969 820.402344 601.980469 C 809.003906 606.664062 791.949219 598.601562 782.347656 583.996094 C 772.738281 569.375 774.195312 553.714844 785.59375 549.03125 C 796.996094 544.34375 814.050781 552.402344 823.660156 567.023438 Z M 823.660156 567.023438 "/>
<path style=" stroke:none;fill-rule:evenodd;fill:rgb(70.196078%,19.607843%,51.372549%);fill-opacity:1;" d="M 776.386719 695.042969 C 788.648438 707.503906 790.265625 723.152344 779.992188 729.964844 C 769.722656 736.773438 751.425781 732.179688 739.164062 719.714844 C 726.894531 707.242188 725.277344 691.59375 735.546875 684.785156 C 745.820312 677.976562 764.117188 682.566406 776.386719 695.042969 Z M 776.386719 695.042969 "/>
<path style=" stroke:none;fill-rule:evenodd;fill:rgb(70.196078%,19.607843%,51.372549%);fill-opacity:1;" d="M 858.90625 691.597656 C 868.269531 706.359375 866.558594 722 855.078125 726.496094 C 843.605469 730.992188 826.6875 722.65625 817.324219 707.894531 C 807.953125 693.121094 809.667969 677.484375 821.140625 672.988281 C 832.617188 668.488281 849.539062 676.824219 858.90625 691.597656 Z M 858.90625 691.597656 "/>
<path style=" stroke:none;fill-rule:evenodd;fill:rgb(70.196078%,19.607843%,51.372549%);fill-opacity:1;" d="M 569.855469 538.34375 C 582.113281 550.808594 583.734375 566.457031 573.457031 573.269531 C 563.1875 580.074219 544.890625 575.480469 532.628906 563.015625 C 520.359375 550.542969 518.742188 534.894531 529.011719 528.089844 C 539.289062 521.277344 557.582031 525.871094 569.855469 538.34375 Z M 569.855469 538.34375 "/>
<path style=" stroke:none;fill-rule:evenodd;fill:rgb(70.196078%,19.607843%,51.372549%);fill-opacity:1;" d="M 877.605469 812.929688 C 887.652344 827.234375 886.675781 842.9375 875.417969 847.96875 C 864.167969 852.996094 846.878906 845.460938 836.832031 831.152344 C 826.777344 816.835938 827.757812 801.132812 839.007812 796.105469 C 850.261719 791.074219 867.550781 798.609375 877.605469 812.929688 Z M 877.605469 812.929688 "/>
<path style=" stroke:none;fill-rule:evenodd;fill:rgb(70.196078%,19.607843%,51.372549%);fill-opacity:1;" d="M 411.636719 459.914062 C 426.03125 469.84375 430.574219 484.90625 421.769531 493.53125 C 412.972656 502.152344 394.136719 501.089844 379.742188 491.160156 C 365.335938 481.226562 360.792969 466.164062 369.59375 457.542969 C 378.398438 448.917969 397.230469 449.980469 411.636719 459.914062 Z M 411.636719 459.914062 "/>
<path style=" stroke:none;fill-rule:evenodd;fill:rgb(70.196078%,19.607843%,51.372549%);fill-opacity:1;" d="M 776.332031 827.539062 C 788.59375 840.003906 790.210938 855.652344 779.9375 862.464844 C 769.667969 869.269531 751.371094 864.675781 739.109375 852.210938 C 726.839844 839.738281 725.222656 824.089844 735.492188 817.285156 C 745.769531 810.472656 764.0625 815.066406 776.332031 827.539062 Z M 776.332031 827.539062 "/>
<path style=" stroke:none;fill-rule:evenodd;fill:rgb(70.196078%,19.607843%,51.372549%);fill-opacity:1;" d="M 884.59375 940.757812 C 893.472656 955.816406 891.25 971.390625 879.628906 975.515625 C 868.015625 979.632812 851.378906 970.75 842.5 955.691406 C 833.617188 940.621094 835.839844 925.046875 847.453125 920.929688 C 859.074219 916.804688 875.710938 925.6875 884.59375 940.757812 Z M 884.59375 940.757812 "/>
<path style=" stroke:none;fill-rule:evenodd;fill:rgb(70.196078%,19.607843%,51.372549%);fill-opacity:1;" d="M 301.457031 393.246094 C 315.851562 403.175781 320.394531 418.238281 311.589844 426.863281 C 302.789062 435.484375 283.957031 434.421875 269.5625 424.492188 C 255.15625 414.558594 250.613281 399.496094 259.414062 390.875 C 268.21875 382.25 287.050781 383.308594 301.457031 393.246094 Z M 301.457031 393.246094 "/>
<path style=" stroke:none;fill-rule:evenodd;fill:rgb(70.196078%,19.607843%,51.372549%);fill-opacity:1;" d="M 648.007812 779.871094 C 660.269531 792.335938 661.886719 807.984375 651.613281 814.796875 C 641.339844 821.601562 623.046875 817.007812 610.785156 804.546875 C 598.515625 792.070312 596.898438 776.425781 607.167969 769.617188 C 617.441406 762.804688 635.738281 767.398438 648.007812 779.871094 Z M 648.007812 779.871094 "/>
<path style=" stroke:none;fill-rule:evenodd;fill:rgb(70.196078%,19.607843%,51.372549%);fill-opacity:1;" d="M 468.78125 601.089844 C 481.042969 613.550781 482.660156 629.199219 472.382812 636.011719 C 462.113281 642.820312 443.820312 638.226562 431.558594 625.761719 C 419.289062 613.289062 417.671875 597.640625 427.941406 590.832031 C 438.214844 584.023438 456.511719 588.613281 468.78125 601.089844 Z M 468.78125 601.089844 "/>
</g>
</svg>
