<?xml version="1.0" encoding="UTF-8"?>
<svg xmlns="http://www.w3.org/2000/svg" xmlns:xlink="http://www.w3.org/1999/xlink" width="1024pt" height="1319pt" viewBox="0 0 1024 1319" version="1.1">
<g id="surface1">
<path style="fill-rule:evenodd;fill:rgb(97.647059%,74.901961%,62.352941%);fill-opacity:1;stroke-width:4;stroke-linecap:butt;stroke-linejoin:miter;stroke:rgb(0%,0%,0%);stroke-opacity:1;stroke-miterlimit:4;" d="M 371.290111 581.729655 C 370.600225 550.980609 384.999914 510.729189 385.309349 481.379441 C 367.840679 456.740273 316.870242 443.359793 282.000538 443.359793 C 245.330027 446.960408 178.409347 450.044957 150.739488 468.934648 C 157.043156 515.32471 169.256514 529.70348 167.511507 581.425091 " transform="matrix(2.310163,0,0,2.308634,-51.416328,-28.617822)"/>
<path style="fill-rule:evenodd;fill:rgb(97.647059%,74.901961%,62.352941%);fill-opacity:1;stroke-width:4;stroke-linecap:butt;stroke-linejoin:miter;stroke:rgb(0%,0%,0%);stroke-opacity:1;stroke-miterlimit:4;" d="M 265.749314 518.490476 C 233.459921 514.800184 219.310485 519.480306 193.999429 516.360225 C 146.250153 509.1793 118.020606 452.359638 101.549566 420.979469 C 72.481334 356.589718 50.26124 344.539165 47.102642 326.92018 C 38.049573 297.619501 14.674596 267.510038 29.136848 249.630482 C 45.029601 230.351627 90.198566 266.535436 103.284428 292.568827 C 114.221158 322.558157 143.952222 350.81486 154.097612 344.586541 C 166.784421 336.085842 153.75605 296.079765 162.712738 249.583106 C 167.709343 222.407602 155.820637 182.203559 157.355973 171.459243 C 162.031306 112.937411 152.859874 117.803655 155.051278 93.252472 C 155.137514 81.230683 153.203126 56.659195 164.500018 43.857386 C 171.561209 36.696765 187.964613 33.989536 196.605103 42.662821 C 206.725129 57.85376 207.415015 68.572695 208.984169 84.365992 C 209.614874 92.277869 210.414669 99.905487 208.984169 112.862962 C 209.090696 131.549611 212.97638 152.1567 216.25165 170.628462 C 219.097432 191.565495 216.557702 217.419532 221.386908 236.19755 C 223.432895 244.241404 242.05983 244.385226 243.084514 236.087569 C 247.201851 204.89183 241.466325 170.94487 241.118 153.84195 C 242.781843 136.776255 242.4927 94.017264 242.484245 92.865 C 245.54308 73.066695 242.376028 53.224398 247.65163 35.13334 C 251.102754 24.72066 257.87311 14.707297 273.417538 14.39935 C 284.582539 14.340129 293.718463 23.549784 295.12529 37.56477 C 296.74348 59.735284 299.083683 81.586007 300.083004 91.340491 C 298.782703 117.165764 299.428626 137.992816 301.185469 155.053435 C 302.446879 174.447347 294.230805 214.157321 298.45805 238.818486 C 300.270693 247.314109 315.137071 249.25993 316.266591 241.930108 C 322.002118 212.5296 320.378855 207.788565 324.58581 168.630189 C 328.884074 142.635714 338.016615 128.118198 340.383873 94.653463 C 342.932056 73.239281 346.325689 52.989208 356.851531 46.331116 C 365.774401 41.057096 370.681388 42.99784 374.851143 44.830296 C 393.454405 54.855504 389.692157 79.838152 388.488237 100.648283 C 385.799709 121.989708 382.083115 155.444291 381.985043 175.863566 C 378.811227 201.198154 365.830201 233.91671 365.280659 256.769107 C 365.637438 263.154783 377.74427 267.506654 380.66276 262.980505 C 393.916021 246.138157 397.887941 214.3739 402.154077 205.154093 C 406.606212 195.528202 414.719142 165.745298 418.726571 158.977225 C 426.317013 146.160188 430.126607 128.547971 441.475916 122.971079 C 448.80596 120.270618 460.632102 124.737546 463.080523 135.37188 C 464.012208 149.789567 460.413976 171.635213 456.445438 182.008976 C 449.35212 200.556879 446.294976 224.333119 441.775205 235.848994 C 437.848939 245.85559 427.598714 275.635109 421.484426 301.363937 C 404.037738 371.283204 408.12633 481.154403 370.608679 508.754603 C 336.543843 538.804846 288.00999 521.136792 265.737478 518.492168 Z M 265.749314 518.490476 " transform="matrix(2.310163,0,0,2.308634,-51.416328,-28.617822)"/>
<path style="fill:none;stroke-width:4;stroke-linecap:round;stroke-linejoin:miter;stroke:rgb(0%,0%,0%);stroke-opacity:0.501961;stroke-miterlimit:4;" d="M 214.269917 311.409449 C 269.208892 336.119682 330.449845 323.466771 378.380047 348.838583 " transform="matrix(2.310163,0,0,2.308634,-51.416328,-28.617822)"/>
<path style="fill:none;stroke-width:4;stroke-linecap:round;stroke-linejoin:miter;stroke:rgb(0%,0%,0%);stroke-opacity:0.501961;stroke-miterlimit:4;" d="M 202.129268 332.290645 C 234.49306 360.755467 257.012443 415.153851 256.85519 458.070199 " transform="matrix(2.310163,0,0,2.308634,-51.416328,-28.617822)"/>
<path style="fill:none;stroke-width:4;stroke-linecap:round;stroke-linejoin:miter;stroke:rgb(0%,0%,0%);stroke-opacity:0.501961;stroke-miterlimit:4;" d="M 168.390775 177.750167 C 179.329195 174.442271 191.17901 173.655483 202.198594 175.056474 " transform="matrix(2.310163,0,0,2.308634,-51.416328,-28.617822)"/>
<path style="fill:none;stroke-width:4;stroke-linecap:round;stroke-linejoin:miter;stroke:rgb(0%,0%,0%);stroke-opacity:0.501961;stroke-miterlimit:4;" d="M 165.489193 106.250555 C 176.953483 103.473954 188.664645 104.059392 199.990281 105.75141 " transform="matrix(2.310163,0,0,2.308634,-51.416328,-28.617822)"/>
<path style="fill:none;stroke-width:4;stroke-linecap:round;stroke-linejoin:miter;stroke:rgb(0%,0%,0%);stroke-opacity:0.501961;stroke-miterlimit:4;" d="M 252.729398 90.584159 C 262.959332 87.920923 278.747249 87.580827 288.136807 90.482638 " transform="matrix(2.310163,0,0,2.308634,-51.416328,-28.617822)"/>
<path style="fill:none;stroke-width:4;stroke-linecap:round;stroke-linejoin:miter;stroke:rgb(0%,0%,0%);stroke-opacity:0.501961;stroke-miterlimit:4;" d="M 252.829161 161.860424 C 264.585976 157.97555 280.537911 157.37996 291.844947 161.058408 " transform="matrix(2.310163,0,0,2.308634,-51.416328,-28.617822)"/>
<path style="fill:none;stroke-width:4;stroke-linecap:round;stroke-linejoin:miter;stroke:rgb(0%,0%,0%);stroke-opacity:0.501961;stroke-miterlimit:4;" d="M 349.070017 111.340146 C 358.611756 113.468705 370.378717 111.698854 377.975923 115.642948 " transform="matrix(2.310163,0,0,2.308634,-51.416328,-28.617822)"/>
<path style="fill:none;stroke-width:4;stroke-linecap:round;stroke-linejoin:miter;stroke:rgb(0%,0%,0%);stroke-opacity:0.501961;stroke-miterlimit:4;" d="M 334.729509 172.430462 C 342.710549 174.389819 361.579282 175.452406 369.53834 179.432033 " transform="matrix(2.310163,0,0,2.308634,-51.416328,-28.617822)"/>
<path style="fill:none;stroke-width:4;stroke-linecap:round;stroke-linejoin:miter;stroke:rgb(0%,0%,0%);stroke-opacity:0.501961;stroke-miterlimit:4;" d="M 410.559532 213.270704 C 416.922382 214.954262 428.197292 221.4753 433.564203 226.077589 " transform="matrix(2.310163,0,0,2.308634,-51.416328,-28.617822)"/>
<path style="fill:none;stroke-width:4;stroke-linecap:round;stroke-linejoin:miter;stroke:rgb(0%,0%,0%);stroke-opacity:0.501961;stroke-miterlimit:4;" d="M 426.310249 168.780778 C 433.327477 170.444032 439.664964 172.850082 445.508708 177.981973 " transform="matrix(2.310163,0,0,2.308634,-51.416328,-28.617822)"/>
<path style="fill:none;stroke-width:4;stroke-linecap:round;stroke-linejoin:miter;stroke:rgb(0%,0%,0%);stroke-opacity:0.501961;stroke-miterlimit:4;" d="M 67.366367 326.510711 C 78.306479 323.201124 87.888799 308.536402 98.626003 304.556776 " transform="matrix(2.310163,0,0,2.308634,-51.416328,-28.617822)"/>
</g>
</svg>
