<?xml version="1.0" encoding="UTF-8"?>
<svg xmlns="http://www.w3.org/2000/svg" xmlns:xlink="http://www.w3.org/1999/xlink" width="1024pt" height="1209pt" viewBox="0 0 1024 1209" version="1.1">
<g id="surface1">
<path style=" stroke:none;fill-rule:nonzero;fill:rgb(0%,0%,0%);fill-opacity:1;" d="M 375.304688 19.804688 C 390.910156 7.839844 409.863281 -3.382812 430.445312 0.949219 C 441.027344 2.523438 447.820312 11.582031 455.503906 18.328125 C 473.765625 13.355469 493.457031 13.453125 509.65625 24.578125 C 510.050781 36.441406 511.28125 48.355469 513.25 60.167969 C 532.992188 58.199219 556.574219 53.621094 572.472656 69.128906 C 586.996094 81.386719 586.652344 101.617188 584.535156 118.894531 C 603.097656 129.578125 620.574219 143.015625 631.996094 161.574219 C 626.675781 188.847656 629.925781 216.707031 627.710938 244.273438 C 749.015625 295.667969 836.941406 405.835938 882.234375 527.230469 C 892.917969 559.226562 898.578125 592.652344 906.109375 625.535156 C 913.890625 665.703125 922.652344 707.199219 914.085938 748.058594 C 922.554688 748.601562 931.710938 747.664062 940.277344 750.324219 C 958.640625 767.058594 957.210938 794.035156 962.480469 816.53125 C 967.550781 849.023438 992.757812 876.636719 987.882812 910.851562 C 984.878906 932.707031 986.308594 954.957031 994.628906 975.632812 C 1006.789062 1007.285156 998.617188 1041.546875 1003.488281 1074.28125 C 1004.128906 1087.574219 1016.09375 1095.152344 1024.660156 1103.816406 C 1016.535156 1116.027344 1013.140625 1130.203125 1012.5 1144.773438 C 1002.160156 1148.417969 991.625 1151.46875 981.039062 1153.632812 C 978.234375 1142.953125 976.066406 1131.976562 971.785156 1121.933594 C 912.167969 1118.242188 853.238281 1131.039062 793.914062 1133.648438 C 761.273438 1134.140625 731.835938 1150.1875 699.785156 1153.632812 C 673.644531 1156.144531 647.402344 1157.03125 621.261719 1157.128906 C 581.777344 1157.964844 541.953125 1152.648438 503.15625 1162.101562 C 472.289062 1169.289062 440.832031 1165.597656 409.765625 1163.28125 C 379.882812 1160.328125 353.644531 1176.574219 326.074219 1184.648438 C 293.878906 1194.050781 260.402344 1186.8125 227.90625 1183.808594 C 209.101562 1182.480469 185.027344 1179.230469 175.527344 1199.757812 C 141.953125 1182.382812 108.425781 1209.308594 73.964844 1207.046875 C 68.992188 1178.839844 58.257812 1151.8125 57.964844 1122.964844 C 41.570312 1095.695312 44.820312 1062.761719 33.003906 1033.964844 C 20.546875 1000.6875 20.054688 964.851562 13.015625 930.441406 C 6.8125 903.21875 -4.164062 875.457031 1.644531 847.296875 C 10.210938 821.355469 39.894531 814.613281 63.527344 809.738281 C 45.753906 743.234375 48.804688 673.480469 54.761719 605.597656 C 55.109375 591.714844 62.835938 579.753906 65.101562 566.363281 C 75.441406 462.445312 129.25 364.535156 208.117188 296.75 C 198.074219 278.734375 188.328125 257.761719 195.121094 236.84375 C 198.617188 223.945312 212.597656 219.464844 222.050781 211.835938 C 223.675781 190.324219 217.71875 167.679688 226.382812 147.101562 C 230.664062 136.371094 241.398438 131.054688 250.503906 125.050781 C 251.195312 115.007812 249.324219 104.324219 253.3125 94.921875 C 264.191406 86.703125 277.925781 84.289062 290.875 80.992188 C 302.050781 63.960938 310.417969 43.136719 329.371094 33.09375 C 343.601562 24.875 362.503906 31.371094 375.304688 19.804688 M 384.214844 67.550781 C 373.1875 73.410156 360.878906 68.191406 349.753906 66.566406 C 340.5 79.808594 334.738281 95.019531 326.269531 108.65625 C 319.230469 118.550781 305.644531 117.074219 295.253906 118.996094 C 292.894531 128.691406 290.875 138.488281 289.101562 148.429688 C 279.253906 153.15625 267.785156 157.734375 264.339844 169.15625 C 257.839844 189.242188 262.023438 210.554688 262.417969 231.179688 C 250.703125 238.417969 238.789062 245.113281 226.628906 251.363281 C 226.726562 270.613281 233.324219 289.121094 242.53125 305.859375 C 248.929688 312.40625 257.003906 317.179688 264.386719 322.839844 C 267.390625 322.792969 273.445312 322.691406 276.449219 322.644531 C 279.648438 326.878906 282.996094 331.109375 286.492188 335.492188 C 289.988281 334.703125 296.980469 333.179688 300.472656 332.441406 C 303.082031 334.949219 308.203125 340.019531 310.761719 342.582031 C 318.738281 342.039062 327.007812 341.742188 335.328125 341.695312 C 335.96875 332.980469 336.953125 324.464844 338.578125 316 C 339.761719 309.550781 341.285156 291.777344 352.117188 299.164062 C 352.660156 323.285156 338.675781 347.453125 350.097656 370.933594 C 362.996094 364.730469 374.714844 353.3125 390.125 354.445312 C 410.554688 353.410156 428.328125 368.375 448.707031 366.457031 C 451.613281 362.222656 454.714844 358.039062 457.667969 353.804688 C 446.835938 345.140625 444.820312 323.183594 463.429688 324.167969 C 464.117188 331.503906 464.707031 338.886719 465.101562 346.371094 C 468.746094 342.828125 472.980469 339.527344 476.964844 336.179688 C 470.023438 327.074219 463.625 317.375 460.769531 306.351562 C 475.636719 307.679688 481.300781 321.808594 487.503906 333.179688 C 515.613281 335.046875 543.328125 325.054688 562.777344 304.429688 C 558.246094 292.46875 549.582031 279.128906 557.164062 266.574219 C 563.613281 253.628906 581.433594 263.472656 591.378906 255.449219 C 581.679688 226.257812 584.683594 195.738281 588.769531 165.859375 C 574 163.347656 559.722656 156.554688 551.699219 143.507812 C 540.472656 130.121094 542.789062 111.90625 542.542969 95.808594 C 525.753906 97.972656 508.867188 97.925781 492.328125 94.972656 C 481.152344 92.066406 468.648438 101.125 458.996094 93.25 C 463.773438 86.503906 471.550781 83.945312 479.035156 81.039062 C 477.457031 73.3125 476.03125 65.683594 474.605469 58.101562 C 470.8125 58.742188 463.328125 60.070312 459.589844 60.757812 C 455.699219 70.800781 452.351562 81.089844 448.511719 91.179688 C 450.875 97.726562 452.746094 104.128906 455.109375 110.921875 C 447.527344 108.214844 437.039062 107.96875 434.875 98.664062 C 436.695312 85.863281 441.226562 73.609375 442.605469 60.757812 C 434.777344 53.671875 426.40625 47.371094 418.578125 40.625 C 407.207031 49.734375 397.113281 60.660156 384.214844 67.550781 M 601.472656 279.816406 C 613.53125 305.5625 596.152344 333.078125 575.574219 348.390625 C 551.894531 366.160156 521.863281 369.851562 493.953125 376.398438 C 484.007812 385.703125 476.523438 398.601562 462.9375 403.179688 C 439.601562 412.777344 413.457031 406.871094 392.242188 394.957031 C 375.453125 407.953125 351.429688 414.5 332.523438 402.242188 C 313.078125 392.890625 308.15625 370.589844 295.75 355.132812 C 271.625 356.707031 256.117188 335.789062 236.964844 324.613281 C 179.070312 381.8125 128.363281 451.519531 112.511719 532.988281 C 136.339844 541.75 160.019531 529.984375 183.648438 526.589844 C 208.460938 522.699219 232.929688 530.328125 257.445312 533.429688 C 280.683594 536.925781 302.9375 526.984375 325.582031 523.289062 C 388.648438 511.378906 456.488281 513.789062 513.742188 480.660156 C 528.117188 490.257812 544.019531 499.859375 562.234375 497.644531 C 609.003906 494.835938 649.078125 466.285156 694.8125 458.113281 C 726.371094 448.957031 762.652344 449.449219 789.730469 428.972656 C 755.070312 395.746094 726.8125 356.363281 690.234375 325.15625 C 665.125 302.65625 634.210938 287.445312 601.472656 279.816406 M 646.371094 483.761719 C 616.191406 495.328125 585.324219 509.902344 552.191406 507.292969 C 537.570312 507.242188 524.867188 499.613281 512.558594 493.015625 C 445.457031 528.558594 366.9375 519.84375 295.699219 540.519531 C 254.738281 553.566406 213.484375 526.292969 172.621094 538.894531 C 151.75 545.195312 130.136719 547.363281 108.574219 548.199219 C 107.6875 570.992188 101.878906 593.09375 97.691406 615.441406 C 144.757812 618.640625 190.542969 602.398438 237.507812 600.429688 C 273.59375 595.554688 309.730469 607.863281 345.71875 600.820312 C 375.601562 595.652344 404.203125 584.625 434.480469 580.835938 C 506.210938 570.84375 579.269531 575.914062 650.75 563.359375 C 665.175781 561.046875 677.285156 552.285156 690.285156 546.082031 C 733.113281 524.078125 781.210938 515.167969 828.820312 511.179688 C 821.878906 486.320312 807.894531 464.613281 794.210938 443.101562 C 746.160156 461.363281 693.828125 463.921875 646.371094 483.761719 M 671.820312 567.347656 C 654.492188 574.878906 635.195312 575.519531 616.78125 578.128906 C 541.164062 586.742188 463.429688 579.507812 389.632812 600.820312 C 359.601562 609.191406 328.339844 616.179688 297.125 611.847656 C 245.878906 604.269531 194.875 616.03125 144.363281 623.269531 C 129.890625 625.78125 114.628906 625.535156 101.140625 631.488281 C 90.503906 648.769531 93.3125 670.035156 95.230469 689.28125 C 116.449219 686.625 137.125 680.371094 158.640625 679.4375 C 189.457031 677.910156 216.585938 697.503906 247.355469 696.8125 C 279.402344 695.976562 310.46875 686.96875 341.238281 678.648438 C 373.484375 669.640625 406.761719 665.457031 439.253906 657.53125 C 490.898438 645.765625 543.527344 629.765625 597.039062 638.332031 C 629.730469 644.140625 659.367188 627.109375 690.382812 620.265625 C 738.875 607.8125 789.238281 602.9375 836.84375 586.742188 C 841.71875 581.820312 847.183594 577.636719 853.582031 574.535156 C 848.117188 557.652344 842.851562 540.765625 837.925781 523.832031 C 779.835938 520.140625 721.839844 538.796875 671.820312 567.347656 M 697.371094 628.191406 C 668.425781 633.410156 641.691406 649.703125 611.660156 648.03125 C 588.472656 647.785156 565.335938 642.714844 542.246094 646.0625 C 490.703125 652.363281 441.175781 668.605469 390.125 677.222656 C 342.074219 685.292969 296.140625 704.835938 247.007812 706.214844 C 224.707031 706.414062 204.03125 697.402344 182.960938 691.695312 C 152.585938 683.671875 122.355469 696.171875 92.277344 698.832031 C 94.691406 734.421875 97.300781 770.257812 105.421875 805.160156 C 141.605469 815.054688 179.464844 809.738281 215.355469 801.027344 C 253.164062 791.523438 292.253906 797.628906 330.703125 795.019531 C 351.871094 792.804688 368.265625 774.835938 390.125 775.722656 C 423.058594 776.3125 455.648438 787.882812 488.78125 782.023438 C 507.144531 777.988281 524.03125 768.4375 542.9375 766.171875 C 561.59375 767.109375 578.039062 779.21875 597.140625 778.53125 C 640.117188 780.992188 680.980469 765.878906 722.382812 756.722656 C 771.515625 746.039062 822.023438 749.929688 871.945312 747.269531 C 882.675781 695.335938 866.578125 643.402344 857.125 592.652344 C 804.300781 606.628906 750.691406 616.722656 697.371094 628.191406 M 770.578125 783.746094 C 767.820312 807.964844 769.9375 832.332031 771.269531 856.652344 C 775.304688 926.109375 783.035156 995.371094 794.40625 1064.042969 C 797.261719 1076.941406 796.523438 1091.511719 804.402344 1102.882812 C 818.578125 1105.046875 833.054688 1102.046875 847.476562 1101.453125 C 849.347656 1097.171875 851.414062 1092.988281 853.632812 1088.902344 C 836.992188 1002.902344 829.457031 915.429688 824.191406 828.101562 C 826.0625 827.953125 829.804688 827.609375 831.675781 827.460938 C 836.695312 913.113281 844.375 998.816406 860.128906 1083.191406 C 860.769531 1088.457031 865.199219 1095.792969 871.699219 1094.070312 C 903.648438 1088.902344 936.535156 1093.875 968.09375 1085.851562 C 960.511719 1067.488281 962.382812 1047.699219 964.746094 1028.597656 C 963.269531 998.816406 950.125 970.363281 949.089844 940.679688 C 954.800781 916.460938 943.378906 893.816406 937.570312 870.925781 C 929.101562 841.589844 921.125 812.152344 913.9375 782.566406 C 905.765625 781.433594 897.742188 780.300781 889.863281 779.121094 C 904.09375 836.863281 896.953125 896.96875 906.75 955.351562 C 908.128906 961.554688 907.933594 968.050781 903.503906 973.21875 C 887.007812 910.308594 898.332031 843.753906 882.824219 780.546875 C 845.359375 781.433594 807.648438 777.742188 770.578125 783.746094 M 668.128906 805.800781 C 664.09375 815.597656 667.097656 826.476562 666.996094 836.8125 C 670.492188 906.027344 678.417969 974.941406 687.132812 1043.664062 C 688.167969 1049.125 686.542969 1053.753906 682.257812 1057.59375 C 670 979.472656 662.617188 900.464844 658.921875 821.453125 C 658.972656 814.660156 655.230469 808.753906 651.292969 803.78125 C 627.367188 805.011719 603.785156 810.132812 579.761719 809.097656 C 577.890625 816.53125 576.167969 824.164062 577.496094 831.988281 C 584.488281 889.632812 597.632812 946.980469 595.464844 1005.363281 C 597.53125 1007.1875 601.667969 1010.730469 603.734375 1012.550781 C 601.324219 1045.925781 607.96875 1079.105469 617.570312 1111.003906 C 620.179688 1114.941406 615.894531 1123.359375 611.269531 1119.273438 C 601.914062 1085.851562 594.578125 1051.488281 595.859375 1016.636719 C 593.9375 1014.964844 590.148438 1011.617188 588.226562 1009.941406 C 589.902344 965 582.761719 920.398438 576.167969 876.097656 C 572.226562 851.777344 571.488281 826.476562 560.757812 803.929688 C 538.554688 794.480469 514.234375 803.980469 493.953125 813.726562 C 493.066406 830.167969 507.292969 852.8125 486.863281 863.050781 C 485.632812 855.863281 485.777344 849.21875 485.679688 842.226562 C 481.839844 832.875 478.691406 823.421875 476.226562 813.824219 C 454.566406 811.460938 432.90625 809.691406 411.242188 808.804688 C 431.132812 902.777344 437.238281 999.113281 458.554688 1092.839844 C 459.195312 1110.265625 478.34375 1118.488281 478.246094 1136.40625 C 495.183594 1134.289062 512.3125 1132.566406 529.054688 1128.578125 C 529.59375 1127.003906 530.726562 1123.804688 531.269531 1122.179688 C 516.941406 1046.863281 508.328125 970.511719 493.359375 895.34375 C 496.363281 895.292969 499.464844 895.34375 502.714844 895.441406 C 512.855469 967.65625 525.410156 1039.476562 536.535156 1111.546875 C 545.9375 1113.367188 547.710938 1119.765625 544.3125 1127.742188 C 627.269531 1130.351562 711.355469 1124.542969 791.847656 1103.226562 C 774.566406 1002.015625 761.863281 899.773438 760.585938 797.039062 C 757.140625 792.753906 753.742188 788.621094 750.492188 784.683594 C 722.382812 789.113281 696.09375 800.828125 668.128906 805.800781 M 355.515625 820.714844 C 343.601562 823.03125 331.488281 820.960938 319.675781 821.652344 C 326.566406 859.507812 337.054688 896.769531 340.253906 935.21875 C 347.933594 999.800781 375.699219 1060.546875 378.109375 1126.019531 C 399.722656 1139.113281 425.816406 1134.289062 449.742188 1132.417969 C 456.242188 1133.304688 458.851562 1126.363281 462.589844 1122.425781 C 452.5 1113.910156 451.515625 1100.273438 448.511719 1088.457031 C 437.925781 1041.300781 431.328125 993.402344 424.929688 945.554688 C 417.003906 898.394531 414.9375 849.316406 396.226562 804.765625 C 381.753906 807.917969 369.054688 815.5 355.515625 820.714844 M 237.410156 828.789062 C 242.675781 886.875 254.445312 944.175781 263.796875 1001.671875 C 258.777344 999.261719 254.296875 996.601562 254.492188 990.597656 C 244.5 937.480469 236.472656 884.019531 228.894531 830.511719 C 202.554688 839.078125 174.789062 841.046875 147.367188 841.046875 C 159.476562 946.933594 186.355469 1050.503906 220.523438 1151.273438 C 245.730469 1152.058594 273.988281 1167.613281 297.273438 1151.765625 C 284.964844 1144.722656 285.3125 1129.613281 281.421875 1117.796875 C 273.300781 1080.878906 260.203125 1044.351562 260.105469 1006.25 C 269.261719 1012.453125 268.917969 1023.824219 271.183594 1033.570312 C 276.84375 1065.222656 284.769531 1096.433594 293.1875 1127.496094 C 295.796875 1138.128906 304.214844 1145.855469 311.355469 1153.78125 C 330.554688 1152.109375 347.488281 1141.476562 366.199219 1137.144531 C 374.320312 1109.035156 364.472656 1080.1875 359.007812 1052.574219 C 347.242188 1007.578125 334.589844 962.734375 329.914062 916.363281 C 321.398438 904.054688 319.132812 889.386719 317.605469 874.867188 C 310.566406 857.832031 312.980469 837.894531 300.425781 823.277344 C 279.253906 823.175781 257.988281 823.769531 237.410156 828.789062 M 84.695312 831.59375 C 83.808594 875.75 97.792969 918.527344 108.226562 961.0625 C 121.078125 1005.660156 130.53125 1051.195312 140.226562 1096.53125 C 150.371094 1116.027344 154.355469 1138.277344 159.820312 1159.492188 C 177.101562 1157.574219 194.675781 1156.242188 211.710938 1151.8125 C 176.511719 1051.441406 151.402344 947.425781 138.257812 841.882812 C 122.0625 832.628906 103.058594 828.347656 84.695312 831.59375 M 44.179688 876.6875 C 42.652344 912.964844 64.855469 944.570312 66.824219 980.308594 C 72.929688 1044.84375 96.511719 1105.835938 109.804688 1168.945312 C 123.441406 1166.53125 138.355469 1166.039062 150.171875 1157.574219 C 129.054688 1114.203125 126.738281 1065.46875 114.382812 1019.394531 C 100.402344 963.277344 82.628906 907.894531 75.6875 850.300781 C 71.648438 846.953125 67.808594 843.703125 64.117188 840.503906 C 53.433594 849.761719 43.882812 861.722656 44.179688 876.6875 Z M 44.179688 876.6875 "/>
<path style=" stroke:none;fill-rule:nonzero;fill:rgb(100%,63.529412%,0.392157%);fill-opacity:1;" d="M 384.214844 67.550781 C 397.113281 60.660156 407.207031 49.734375 418.578125 40.625 C 426.40625 47.371094 434.777344 53.671875 442.605469 60.757812 C 441.226562 73.609375 436.695312 85.863281 434.875 98.664062 C 437.039062 107.96875 447.527344 108.214844 455.109375 110.921875 C 452.746094 104.128906 450.875 97.726562 448.511719 91.179688 C 452.351562 81.089844 455.699219 70.800781 459.589844 60.757812 C 463.328125 60.070312 470.8125 58.742188 474.605469 58.101562 C 476.03125 65.683594 477.457031 73.3125 479.035156 81.039062 C 471.550781 83.945312 463.773438 86.503906 458.996094 93.25 C 468.648438 101.125 481.152344 92.066406 492.328125 94.972656 C 508.867188 97.925781 525.753906 97.972656 542.542969 95.808594 C 542.789062 111.90625 540.472656 130.121094 551.699219 143.507812 C 559.722656 156.554688 574 163.347656 588.769531 165.859375 C 584.683594 195.738281 581.679688 226.257812 591.378906 255.449219 C 581.433594 263.472656 563.613281 253.628906 557.164062 266.574219 C 549.582031 279.128906 558.246094 292.46875 562.777344 304.429688 C 543.328125 325.054688 515.613281 335.046875 487.503906 333.179688 C 481.300781 321.808594 475.636719 307.679688 460.769531 306.351562 C 463.625 317.375 470.023438 327.074219 476.964844 336.179688 C 472.980469 339.527344 468.746094 342.828125 465.101562 346.371094 C 464.707031 338.886719 464.117188 331.503906 463.429688 324.167969 C 444.820312 323.183594 446.835938 345.140625 457.667969 353.804688 C 454.714844 358.039062 451.613281 362.222656 448.707031 366.457031 C 428.328125 368.375 410.554688 353.410156 390.125 354.445312 C 374.714844 353.3125 362.996094 364.730469 350.097656 370.933594 C 338.675781 347.453125 352.660156 323.285156 352.117188 299.164062 C 341.285156 291.777344 339.761719 309.550781 338.578125 316 C 336.953125 324.464844 335.96875 332.980469 335.328125 341.695312 C 327.007812 341.742188 318.738281 342.039062 310.761719 342.582031 C 308.203125 340.019531 303.082031 334.949219 300.472656 332.441406 C 296.980469 333.179688 289.988281 334.703125 286.492188 335.492188 C 282.996094 331.109375 279.648438 326.878906 276.449219 322.644531 C 273.445312 322.691406 267.390625 322.792969 264.386719 322.839844 C 257.003906 317.179688 248.929688 312.40625 242.53125 305.859375 C 233.324219 289.121094 226.726562 270.613281 226.628906 251.363281 C 238.789062 245.113281 250.703125 238.417969 262.417969 231.179688 C 262.023438 210.554688 257.839844 189.242188 264.339844 169.15625 C 267.785156 157.734375 279.253906 153.15625 289.101562 148.429688 C 290.875 138.488281 292.894531 128.691406 295.253906 118.996094 C 305.644531 117.074219 319.230469 118.550781 326.269531 108.65625 C 334.738281 95.019531 340.5 79.808594 349.753906 66.566406 C 360.878906 68.191406 373.1875 73.410156 384.214844 67.550781 M 492.226562 156.457031 C 513.300781 155.078125 534.371094 156.210938 554.898438 162.214844 C 541.359375 143.507812 510 143.804688 492.226562 156.457031 Z M 492.226562 156.457031 "/>
<path style=" stroke:none;fill-rule:nonzero;fill:rgb(0%,0%,0%);fill-opacity:1;" d="M 492.226562 156.457031 C 510 143.804688 541.359375 143.507812 554.898438 162.214844 C 534.371094 156.210938 513.300781 155.078125 492.226562 156.457031 Z M 492.226562 156.457031 "/>
<path style=" stroke:none;fill-rule:nonzero;fill:rgb(100%,0%,0%);fill-opacity:1;" d="M 601.472656 279.816406 C 634.210938 287.445312 665.125 302.65625 690.234375 325.15625 C 726.8125 356.363281 755.070312 395.746094 789.730469 428.972656 C 762.652344 449.449219 726.371094 448.957031 694.8125 458.113281 C 649.078125 466.285156 609.003906 494.835938 562.234375 497.644531 C 544.019531 499.859375 528.117188 490.257812 513.742188 480.660156 C 456.488281 513.789062 388.648438 511.378906 325.582031 523.289062 C 302.9375 526.984375 280.683594 536.925781 257.445312 533.429688 C 232.929688 530.328125 208.460938 522.699219 183.648438 526.589844 C 160.019531 529.984375 136.339844 541.75 112.511719 532.988281 C 128.363281 451.519531 179.070312 381.8125 236.964844 324.613281 C 256.117188 335.789062 271.625 356.707031 295.75 355.132812 C 308.15625 370.589844 313.078125 392.890625 332.523438 402.242188 C 351.429688 414.5 375.453125 407.953125 392.242188 394.957031 C 413.457031 406.871094 439.601562 412.777344 462.9375 403.179688 C 476.523438 398.601562 484.007812 385.703125 493.953125 376.398438 C 521.863281 369.851562 551.894531 366.160156 575.574219 348.390625 C 596.152344 333.078125 613.53125 305.5625 601.472656 279.816406 Z M 601.472656 279.816406 "/>
<path style=" stroke:none;fill-rule:nonzero;fill:rgb(99.607843%,96.078431%,0%);fill-opacity:1;" d="M 646.371094 483.761719 C 693.828125 463.921875 746.160156 461.363281 794.210938 443.101562 C 807.894531 464.613281 821.878906 486.320312 828.820312 511.179688 C 781.210938 515.167969 733.113281 524.078125 690.285156 546.082031 C 677.285156 552.285156 665.175781 561.046875 650.75 563.359375 C 579.269531 575.914062 506.210938 570.84375 434.480469 580.835938 C 404.203125 584.625 375.601562 595.652344 345.71875 600.820312 C 309.730469 607.863281 273.59375 595.554688 237.507812 600.429688 C 190.542969 602.398438 144.757812 618.640625 97.691406 615.441406 C 101.878906 593.09375 107.6875 570.992188 108.574219 548.199219 C 130.136719 547.363281 151.75 545.195312 172.621094 538.894531 C 213.484375 526.292969 254.738281 553.566406 295.699219 540.519531 C 366.9375 519.84375 445.457031 528.558594 512.558594 493.015625 C 524.867188 499.613281 537.570312 507.242188 552.191406 507.292969 C 585.324219 509.902344 616.191406 495.328125 646.371094 483.761719 Z M 646.371094 483.761719 "/>
<path style=" stroke:none;fill-rule:nonzero;fill:rgb(100%,63.529412%,0.392157%);fill-opacity:1;" d="M 671.820312 567.347656 C 721.839844 538.796875 779.835938 520.140625 837.925781 523.832031 C 842.851562 540.765625 848.117188 557.652344 853.582031 574.535156 C 847.183594 577.636719 841.71875 581.820312 836.84375 586.742188 C 789.238281 602.9375 738.875 607.8125 690.382812 620.265625 C 659.367188 627.109375 629.730469 644.140625 597.039062 638.332031 C 543.527344 629.765625 490.898438 645.765625 439.253906 657.53125 C 406.761719 665.457031 373.484375 669.640625 341.238281 678.648438 C 310.46875 686.96875 279.402344 695.976562 247.355469 696.8125 C 216.585938 697.503906 189.457031 677.910156 158.640625 679.4375 C 137.125 680.371094 116.449219 686.625 95.230469 689.28125 C 93.3125 670.035156 90.503906 648.769531 101.140625 631.488281 C 114.628906 625.535156 129.890625 625.78125 144.363281 623.269531 C 194.875 616.03125 245.878906 604.269531 297.125 611.847656 C 328.339844 616.179688 359.601562 609.191406 389.632812 600.820312 C 463.429688 579.507812 541.164062 586.742188 616.78125 578.128906 C 635.195312 575.519531 654.492188 574.878906 671.820312 567.347656 Z M 671.820312 567.347656 "/>
<path style=" stroke:none;fill-rule:nonzero;fill:rgb(100%,0%,0%);fill-opacity:1;" d="M 697.371094 628.191406 C 750.691406 616.722656 804.300781 606.628906 857.125 592.652344 C 866.578125 643.402344 882.675781 695.335938 871.945312 747.269531 C 822.023438 749.929688 771.515625 746.039062 722.382812 756.722656 C 680.980469 765.878906 640.117188 780.992188 597.140625 778.53125 C 578.039062 779.21875 561.59375 767.109375 542.9375 766.171875 C 524.03125 768.4375 507.144531 777.988281 488.78125 782.023438 C 455.648438 787.882812 423.058594 776.3125 390.125 775.722656 C 368.265625 774.835938 351.871094 792.804688 330.703125 795.019531 C 292.253906 797.628906 253.164062 791.523438 215.355469 801.027344 C 179.464844 809.738281 141.605469 815.054688 105.421875 805.160156 C 97.300781 770.257812 94.691406 734.421875 92.277344 698.832031 C 122.355469 696.171875 152.585938 683.671875 182.960938 691.695312 C 204.03125 697.402344 224.707031 706.414062 247.007812 706.214844 C 296.140625 704.835938 342.074219 685.292969 390.125 677.222656 C 441.175781 668.605469 490.703125 652.363281 542.246094 646.0625 C 565.335938 642.714844 588.472656 647.785156 611.660156 648.03125 C 641.691406 649.703125 668.425781 633.410156 697.371094 628.191406 Z M 697.371094 628.191406 "/>
<path style=" stroke:none;fill-rule:nonzero;fill:rgb(99.607843%,96.078431%,0%);fill-opacity:1;" d="M 770.578125 783.746094 C 807.648438 777.742188 845.359375 781.433594 882.824219 780.546875 C 898.332031 843.753906 887.007812 910.308594 903.503906 973.21875 C 907.933594 968.050781 908.128906 961.554688 906.75 955.351562 C 896.953125 896.96875 904.09375 836.863281 889.863281 779.121094 C 897.742188 780.300781 905.765625 781.433594 913.9375 782.566406 C 921.125 812.152344 929.101562 841.589844 937.570312 870.925781 C 943.378906 893.816406 954.800781 916.460938 949.089844 940.679688 C 950.125 970.363281 963.269531 998.816406 964.746094 1028.597656 C 962.382812 1047.699219 960.511719 1067.488281 968.09375 1085.851562 C 936.535156 1093.875 903.648438 1088.902344 871.699219 1094.070312 C 865.199219 1095.792969 860.769531 1088.457031 860.128906 1083.191406 C 844.375 998.816406 836.695312 913.113281 831.675781 827.460938 C 829.804688 827.609375 826.0625 827.953125 824.191406 828.101562 C 829.457031 915.429688 836.992188 1002.902344 853.632812 1088.902344 C 851.414062 1092.988281 849.347656 1097.171875 847.476562 1101.453125 C 833.054688 1102.046875 818.578125 1105.046875 804.402344 1102.882812 C 796.523438 1091.511719 797.261719 1076.941406 794.40625 1064.042969 C 783.035156 995.371094 775.304688 926.109375 771.269531 856.652344 C 769.9375 832.332031 767.820312 807.964844 770.578125 783.746094 Z M 770.578125 783.746094 "/>
<path style=" stroke:none;fill-rule:nonzero;fill:rgb(99.607843%,96.078431%,0%);fill-opacity:1;" d="M 668.128906 805.800781 C 696.09375 800.828125 722.382812 789.113281 750.492188 784.683594 C 753.742188 788.621094 757.140625 792.753906 760.585938 797.039062 C 761.863281 899.773438 774.566406 1002.015625 791.847656 1103.226562 C 711.355469 1124.542969 627.269531 1130.351562 544.3125 1127.742188 C 547.710938 1119.765625 545.9375 1113.367188 536.535156 1111.546875 C 525.410156 1039.476562 512.855469 967.65625 502.714844 895.441406 C 499.464844 895.34375 496.363281 895.292969 493.359375 895.34375 C 508.328125 970.511719 516.941406 1046.863281 531.269531 1122.179688 C 530.726562 1123.804688 529.59375 1127.003906 529.054688 1128.578125 C 512.3125 1132.566406 495.183594 1134.289062 478.246094 1136.40625 C 478.34375 1118.488281 459.195312 1110.265625 458.554688 1092.839844 C 437.238281 999.113281 431.132812 902.777344 411.242188 808.804688 C 432.90625 809.691406 454.566406 811.460938 476.226562 813.824219 C 478.691406 823.421875 481.839844 832.875 485.679688 842.226562 C 485.777344 849.21875 485.632812 855.863281 486.863281 863.050781 C 507.292969 852.8125 493.066406 830.167969 493.953125 813.726562 C 514.234375 803.980469 538.554688 794.480469 560.757812 803.929688 C 571.488281 826.476562 572.226562 851.777344 576.167969 876.097656 C 582.761719 920.398438 589.902344 965 588.226562 1009.941406 C 590.148438 1011.617188 593.9375 1014.964844 595.859375 1016.636719 C 594.578125 1051.488281 601.914062 1085.851562 611.269531 1119.273438 C 615.894531 1123.359375 620.179688 1114.941406 617.570312 1111.003906 C 607.96875 1079.105469 601.324219 1045.925781 603.734375 1012.550781 C 601.667969 1010.730469 597.53125 1007.1875 595.464844 1005.363281 C 597.632812 946.980469 584.488281 889.632812 577.496094 831.988281 C 576.167969 824.164062 577.890625 816.53125 579.761719 809.097656 C 603.785156 810.132812 627.367188 805.011719 651.292969 803.78125 C 655.230469 808.753906 658.972656 814.660156 658.921875 821.453125 C 662.617188 900.464844 670 979.472656 682.257812 1057.59375 C 686.542969 1053.753906 688.167969 1049.125 687.132812 1043.664062 C 678.417969 974.941406 670.492188 906.027344 666.996094 836.8125 C 667.097656 826.476562 664.09375 815.597656 668.128906 805.800781 Z M 668.128906 805.800781 "/>
<path style=" stroke:none;fill-rule:nonzero;fill:rgb(99.607843%,96.078431%,0%);fill-opacity:1;" d="M 355.515625 820.714844 C 369.054688 815.5 381.753906 807.917969 396.226562 804.765625 C 414.9375 849.316406 417.003906 898.394531 424.929688 945.554688 C 431.328125 993.402344 437.925781 1041.300781 448.511719 1088.457031 C 451.515625 1100.273438 452.5 1113.910156 462.589844 1122.425781 C 458.851562 1126.363281 456.242188 1133.304688 449.742188 1132.417969 C 425.816406 1134.289062 399.722656 1139.113281 378.109375 1126.019531 C 375.699219 1060.546875 347.933594 999.800781 340.253906 935.21875 C 337.054688 896.769531 326.566406 859.507812 319.675781 821.652344 C 331.488281 820.960938 343.601562 823.03125 355.515625 820.714844 Z M 355.515625 820.714844 "/>
<path style=" stroke:none;fill-rule:nonzero;fill:rgb(99.607843%,96.078431%,0%);fill-opacity:1;" d="M 237.410156 828.789062 C 257.988281 823.769531 279.253906 823.175781 300.425781 823.277344 C 312.980469 837.894531 310.566406 857.832031 317.605469 874.867188 C 319.132812 889.386719 321.398438 904.054688 329.914062 916.363281 C 334.589844 962.734375 347.242188 1007.578125 359.007812 1052.574219 C 364.472656 1080.1875 374.320312 1109.035156 366.199219 1137.144531 C 347.488281 1141.476562 330.554688 1152.109375 311.355469 1153.78125 C 304.214844 1145.855469 295.796875 1138.128906 293.1875 1127.496094 C 284.769531 1096.433594 276.84375 1065.222656 271.183594 1033.570312 C 268.917969 1023.824219 269.261719 1012.453125 260.105469 1006.25 C 260.203125 1044.351562 273.300781 1080.878906 281.421875 1117.796875 C 285.3125 1129.613281 284.964844 1144.722656 297.273438 1151.765625 C 273.988281 1167.613281 245.730469 1152.058594 220.523438 1151.273438 C 186.355469 1050.503906 159.476562 946.933594 147.367188 841.046875 C 174.789062 841.046875 202.554688 839.078125 228.894531 830.511719 C 236.472656 884.019531 244.5 937.480469 254.492188 990.597656 C 254.296875 996.601562 258.777344 999.261719 263.796875 1001.671875 C 254.445312 944.175781 242.675781 886.875 237.410156 828.789062 Z M 237.410156 828.789062 "/>
<path style=" stroke:none;fill-rule:nonzero;fill:rgb(99.607843%,96.078431%,0%);fill-opacity:1;" d="M 84.695312 831.59375 C 103.058594 828.347656 122.0625 832.628906 138.257812 841.882812 C 151.402344 947.425781 176.511719 1051.441406 211.710938 1151.8125 C 194.675781 1156.242188 177.101562 1157.574219 159.820312 1159.492188 C 154.355469 1138.277344 150.371094 1116.027344 140.226562 1096.53125 C 130.53125 1051.195312 121.078125 1005.660156 108.226562 961.0625 C 97.792969 918.527344 83.808594 875.75 84.695312 831.59375 Z M 84.695312 831.59375 "/>
<path style=" stroke:none;fill-rule:nonzero;fill:rgb(99.607843%,96.078431%,0%);fill-opacity:1;" d="M 44.179688 876.6875 C 43.882812 861.722656 53.433594 849.761719 64.117188 840.503906 C 67.808594 843.703125 71.648438 846.953125 75.6875 850.300781 C 82.628906 907.894531 100.402344 963.277344 114.382812 1019.394531 C 126.738281 1065.46875 129.054688 1114.203125 150.171875 1157.574219 C 138.355469 1166.039062 123.441406 1166.53125 109.804688 1168.945312 C 96.511719 1105.835938 72.929688 1044.84375 66.824219 980.308594 C 64.855469 944.570312 42.652344 912.964844 44.179688 876.6875 Z M 44.179688 876.6875 "/>
</g>
</svg>
