<?xml version="1.0" encoding="UTF-8" standalone="no"?>
<!-- Created with Inkscape (http://www.inkscape.org/) -->

<svg
   xmlns:dc="http://purl.org/dc/elements/1.1/"
   xmlns:cc="http://creativecommons.org/ns#"
   xmlns:rdf="http://www.w3.org/1999/02/22-rdf-syntax-ns#"
   xmlns:svg="http://www.w3.org/2000/svg"
   xmlns="http://www.w3.org/2000/svg"
   xmlns:sodipodi="http://sodipodi.sourceforge.net/DTD/sodipodi-0.dtd"
   xmlns:inkscape="http://www.inkscape.org/namespaces/inkscape"
   width="73.425003mm"
   height="86.511894mm"
   viewBox="0 0 260.16733 306.53821"
   id="svg7402"
   version="1.1"
   inkscape:version="0.91 r13725"
   sodipodi:docname="hat.svg">
  <defs
     id="defs7404" />
  <sodipodi:namedview
     id="base"
     pagecolor="#ffffff"
     bordercolor="#666666"
     borderopacity="1.0"
     inkscape:pageopacity="0.0"
     inkscape:pageshadow="2"
     inkscape:zoom="0.35"
     inkscape:cx="1542.2265"
     inkscape:cy="-543.87377"
     inkscape:document-units="px"
     inkscape:current-layer="layer1"
     showgrid="false"
     fit-margin-top="0"
     fit-margin-left="0"
     fit-margin-right="0"
     fit-margin-bottom="0"
     inkscape:window-width="1855"
     inkscape:window-height="1056"
     inkscape:window-x="65"
     inkscape:window-y="24"
     inkscape:window-maximized="1" />
  <metadata
     id="metadata7407">
    <rdf:RDF>
      <cc:Work
         rdf:about="">
        <dc:format>image/svg+xml</dc:format>
        <dc:type
           rdf:resource="http://purl.org/dc/dcmitype/StillImage" />
        <dc:title></dc:title>
      </cc:Work>
    </rdf:RDF>
  </metadata>
  <g
     inkscape:label="Layer 1"
     inkscape:groupmode="layer"
     id="layer1"
     transform="translate(2070.0836,318.04977)">
    <g
       transform="matrix(1.25,0,0,1.25,-5053.5413,-1760.4837)"
       id="g7365">
      <path
         style="opacity:1;fill:#000000"
         inkscape:connector-curvature="0"
         id="path658"
         d="m 2463,1157.97 c 3.17,-2.43 7.02,-4.71 11.2,-3.83 2.15,0.32 3.53,2.16 5.09,3.53 3.71,-1.01 7.71,-0.99 11,1.27 0.08,2.41 0.33,4.83 0.73,7.23 4.01,-0.4 8.8,-1.33 12.03,1.82 2.95,2.49 2.88,6.6 2.45,10.11 3.77,2.17 7.32,4.9 9.64,8.67 -1.08,5.54 -0.42,11.2 -0.87,16.8 24.64,10.44 42.5,32.82 51.7,57.48 2.17,6.5 3.32,13.29 4.85,19.97 1.58,8.16 3.36,16.59 1.62,24.89 1.72,0.11 3.58,-0.08 5.32,0.46 3.73,3.4 3.44,8.88 4.51,13.45 1.03,6.6 6.15,12.21 5.16,19.16 -0.61,4.44 -0.32,8.96 1.37,13.16 2.47,6.43 0.81,13.39 1.8,20.04 0.13,2.7 2.56,4.24 4.3,6 -1.65,2.48 -2.34,5.36 -2.47,8.32 -2.1,0.74 -4.24,1.36 -6.39,1.8 -0.57,-2.17 -1.01,-4.4 -1.88,-6.44 -12.11,-0.75 -24.08,1.85 -36.13,2.38 -6.63,0.1 -12.61,3.36 -19.12,4.06 -5.31,0.51 -10.64,0.69 -15.95,0.71 -8.02,0.17 -16.11,-0.91 -23.99,1.01 -6.27,1.46 -12.66,0.71 -18.97,0.24 -6.07,-0.6 -11.4,2.7 -17,4.34 -6.54,1.91 -13.34,0.44 -19.94,-0.17 -3.82,-0.27 -8.71,-0.93 -10.64,3.24 -6.82,-3.53 -13.63,1.94 -20.63,1.48 -1.01,-5.73 -3.19,-11.22 -3.25,-17.08 -3.33,-5.54 -2.67,-12.23 -5.07,-18.08 -2.53,-6.76 -2.63,-14.04 -4.06,-21.03 -1.26,-5.53 -3.49,-11.17 -2.31,-16.89 1.74,-5.27 7.77,-6.64 12.57,-7.63 -3.61,-13.51 -2.99,-27.68 -1.78,-41.47 0.07,-2.82 1.64,-5.25 2.1,-7.97 2.1,-21.11 13.03,-41 29.05,-54.77 -2.04,-3.66 -4.02,-7.92 -2.64,-12.17 0.71,-2.62 3.55,-3.53 5.47,-5.08 0.33,-4.37 -0.88,-8.97 0.88,-13.15 0.87,-2.18 3.05,-3.26 4.9,-4.48 0.14,-2.04 -0.24,-4.21 0.57,-6.12 2.21,-1.67 5,-2.16 7.63,-2.83 2.27,-3.46 3.97,-7.69 7.82,-9.73 2.89,-1.67 6.73,-0.35 9.33,-2.7 m 1.81,9.7 c -2.24,1.19 -4.74,0.13 -7,-0.2 -1.88,2.69 -3.05,5.78 -4.77,8.55 -1.43,2.01 -4.19,1.71 -6.3,2.1 -0.48,1.97 -0.89,3.96 -1.25,5.98 -2,0.96 -4.33,1.89 -5.03,4.21 -1.32,4.08 -0.47,8.41 -0.39,12.6 -2.38,1.47 -4.8,2.83 -7.27,4.1 0.02,3.91 1.36,7.67 3.23,11.07 1.3,1.33 2.94,2.3 4.44,3.45 0.61,-0.01 1.84,-0.03 2.45,-0.04 0.65,0.86 1.33,1.72 2.04,2.61 0.71,-0.16 2.13,-0.47 2.84,-0.62 0.53,0.51 1.57,1.54 2.09,2.06 1.62,-0.11 3.3,-0.17 4.99,-0.18 0.13,-1.77 0.33,-3.5 0.66,-5.22 0.24,-1.31 0.55,-4.92 2.75,-3.42 0.11,4.9 -2.73,9.81 -0.41,14.58 2.62,-1.26 5,-3.58 8.13,-3.35 4.15,-0.21 7.76,2.83 11.9,2.44 0.59,-0.86 1.22,-1.71 1.82,-2.57 -2.2,-1.76 -2.61,-6.22 1.17,-6.02 0.14,1.49 0.26,2.99 0.34,4.51 0.74,-0.72 1.6,-1.39 2.41,-2.07 -1.41,-1.85 -2.71,-3.82 -3.29,-6.06 3.02,0.27 4.17,3.14 5.43,5.45 5.71,0.38 11.34,-1.65 15.29,-5.84 -0.92,-2.43 -2.68,-5.14 -1.14,-7.69 1.31,-2.63 4.93,-0.63 6.95,-2.26 -1.97,-5.93 -1.36,-12.13 -0.53,-18.2 -3,-0.51 -5.9,-1.89 -7.53,-4.54 -2.28,-2.72 -1.81,-6.42 -1.86,-9.69 -3.41,0.44 -6.84,0.43 -10.2,-0.17 -2.27,-0.59 -4.81,1.25 -6.77,-0.35 0.97,-1.37 2.55,-1.89 4.07,-2.48 -0.32,-1.57 -0.61,-3.12 -0.9,-4.66 -0.77,0.13 -2.29,0.4 -3.05,0.54 -0.79,2.04 -1.47,4.13 -2.25,6.18 0.48,1.33 0.86,2.63 1.34,4.01 -1.54,-0.55 -3.67,-0.6 -4.11,-2.49 0.37,-2.6 1.29,-5.09 1.57,-7.7 -1.59,-1.44 -3.29,-2.72 -4.88,-4.09 -2.31,1.85 -4.36,4.07 -6.98,5.47 m 44.13,43.12 c 2.45,5.23 -1.08,10.82 -5.26,13.93 -4.81,3.61 -10.91,4.36 -16.58,5.69 -2.02,1.89 -3.54,4.51 -6.3,5.44 -4.74,1.95 -10.05,0.75 -14.36,-1.67 -3.41,2.64 -8.29,3.97 -12.13,1.48 -3.95,-1.9 -4.95,-6.43 -7.47,-9.57 -4.9,0.32 -8.05,-3.93 -11.94,-6.2 -11.76,11.62 -22.06,25.78 -25.28,42.33 4.84,1.78 9.65,-0.61 14.45,-1.3 5.04,-0.79 10.01,0.76 14.99,1.39 4.72,0.71 9.24,-1.31 13.84,-2.06 12.81,-2.42 26.59,-1.93 38.22,-8.66 2.92,1.95 6.15,3.9 9.85,3.45 9.5,-0.57 17.64,-6.37 26.93,-8.03 6.41,-1.86 13.78,-1.76 19.28,-5.92 -7.04,-6.75 -12.78,-14.75 -20.21,-21.09 -5.1,-4.57 -11.38,-7.66 -18.03,-9.21 m 9.12,41.43 c -6.13,2.35 -12.4,5.31 -19.13,4.78 -2.97,-0.01 -5.55,-1.56 -8.05,-2.9 -13.63,7.22 -29.58,5.45 -44.05,9.65 -8.32,2.65 -16.7,-2.89 -25,-0.33 -4.24,1.28 -8.63,1.72 -13.01,1.89 -0.18,4.63 -1.36,9.12 -2.21,13.66 9.56,0.65 18.86,-2.65 28.4,-3.05 7.33,-0.99 14.67,1.51 21.98,0.08 6.07,-1.05 11.88,-3.29 18.03,-4.06 14.57,-2.03 29.41,-1 43.93,-3.55 2.93,-0.47 5.39,-2.25 8.03,-3.51 8.7,-4.47 18.47,-6.28 28.14,-7.09 -1.41,-5.05 -4.25,-9.46 -7.03,-13.83 -9.76,3.71 -20.39,4.23 -30.03,8.26 m 5.17,16.98 c -3.52,1.53 -7.44,1.66 -11.18,2.19 -15.36,1.75 -31.15,0.28 -46.14,4.61 -6.1,1.7 -12.45,3.12 -18.79,2.24 -10.41,-1.54 -20.77,0.85 -31.03,2.32 -2.94,0.51 -6.04,0.46 -8.78,1.67 -2.16,3.51 -1.59,7.83 -1.2,11.74 4.31,-0.54 8.51,-1.81 12.88,-2 6.26,-0.31 11.77,3.67 18.02,3.53 6.51,-0.17 12.82,-2 19.07,-3.69 6.55,-1.83 13.31,-2.68 19.91,-4.29 10.49,-2.39 21.18,-5.64 32.05,-3.9 6.64,1.18 12.66,-2.28 18.96,-3.67 9.85,-2.53 20.08,-3.52 29.75,-6.81 0.99,-1 2.1,-1.85 3.4,-2.48 -1.11,-3.43 -2.18,-6.86 -3.18,-10.3 -11.8,-0.75 -23.58,3.04 -33.74,8.84 m 5.19,12.36 c -5.88,1.06 -11.31,4.37 -17.41,4.03 -4.71,-0.05 -9.41,-1.08 -14.1,-0.4 -10.47,1.28 -20.53,4.58 -30.9,6.33 -9.76,1.64 -19.09,5.61 -29.07,5.89 -4.53,0.04 -8.73,-1.79 -13.01,-2.95 -6.17,-1.63 -12.31,0.91 -18.42,1.45 0.49,7.23 1.02,14.51 2.67,21.6 7.35,2.01 15.04,0.93 22.33,-0.84 7.68,-1.93 15.62,-0.69 23.43,-1.22 4.3,-0.45 7.63,-4.1 12.07,-3.92 6.69,0.12 13.31,2.47 20.04,1.28 3.73,-0.82 7.16,-2.76 11,-3.22 3.79,0.19 7.13,2.65 11.01,2.51 8.73,0.5 17.03,-2.57 25.44,-4.43 9.98,-2.17 20.24,-1.38 30.38,-1.92 2.18,-10.55 -1.09,-21.1 -3.01,-31.41 -10.73,2.84 -21.62,4.89 -32.45,7.22 m 14.87,31.6 c -0.56,4.92 -0.13,9.87 0.14,14.81 0.82,14.11 2.39,28.18 4.7,42.13 0.58,2.62 0.43,5.58 2.03,7.89 2.88,0.44 5.82,-0.17 8.75,-0.29 0.38,-0.87 0.8,-1.72 1.25,-2.55 -3.38,-17.47 -4.91,-35.24 -5.98,-52.98 0.38,-0.03 1.14,-0.1 1.52,-0.13 1.02,17.4 2.58,34.81 5.78,51.95 0.13,1.07 1.03,2.56 2.35,2.21 6.49,-1.05 13.17,-0.04 19.58,-1.67 -1.54,-3.73 -1.16,-7.75 -0.68,-11.63 -0.3,-6.05 -2.97,-11.83 -3.18,-17.86 1.16,-4.92 -1.16,-9.52 -2.34,-14.17 -1.72,-5.96 -3.34,-11.94 -4.8,-17.95 -1.66,-0.23 -3.29,-0.46 -4.89,-0.7 2.89,11.73 1.44,23.94 3.43,35.8 0.28,1.26 0.24,2.58 -0.66,3.63 -3.35,-12.78 -1.05,-26.3 -4.2,-39.14 -7.61,0.18 -15.27,-0.57 -22.8,0.65 m -20.81,4.48 c -0.82,1.99 -0.21,4.2 -0.23,6.3 0.71,14.06 2.32,28.06 4.09,42.02 0.21,1.11 -0.12,2.05 -0.99,2.83 -2.49,-15.87 -3.99,-31.92 -4.74,-47.97 0.01,-1.38 -0.75,-2.58 -1.55,-3.59 -4.86,0.25 -9.65,1.29 -14.53,1.08 -0.38,1.51 -0.73,3.06 -0.46,4.65 1.42,11.71 4.09,23.36 3.65,35.22 0.42,0.37 1.26,1.09 1.68,1.46 -0.49,6.78 0.86,13.52 2.81,20 0.53,0.8 -0.34,2.51 -1.28,1.68 -1.9,-6.79 -3.39,-13.77 -3.13,-20.85 -0.39,-0.34 -1.16,-1.02 -1.55,-1.36 0.34,-9.13 -1.11,-18.19 -2.45,-27.19 -0.8,-4.94 -0.95,-10.08 -3.13,-14.66 -4.51,-1.92 -9.45,0.01 -13.57,1.99 -0.18,3.34 2.71,7.94 -1.44,10.02 -0.25,-1.46 -0.22,-2.81 -0.24,-4.23 -0.78,-1.9 -1.42,-3.82 -1.92,-5.77 -4.4,-0.48 -8.8,-0.84 -13.2,-1.02 4.04,19.09 5.28,38.66 9.61,57.7 0.13,3.54 4.02,5.21 4,8.85 3.44,-0.43 6.92,-0.78 10.32,-1.59 0.11,-0.32 0.34,-0.97 0.45,-1.3 -2.91,-15.3 -4.66,-30.81 -7.7,-46.08 0.61,-0.01 1.24,0 1.9,0.02 2.06,14.67 4.61,29.26 6.87,43.9 1.91,0.37 2.27,1.67 1.58,3.29 16.85,0.53 33.93,-0.65 50.28,-4.98 -3.51,-20.56 -6.09,-41.33 -6.35,-62.2 -0.7,-0.87 -1.39,-1.71 -2.05,-2.51 -5.71,0.9 -11.05,3.28 -16.73,4.29 m -63.5,3.03 c -2.42,0.47 -4.88,0.05 -7.28,0.19 1.4,7.69 3.53,15.26 4.18,23.07 1.56,13.12 7.2,25.46 7.69,38.76 4.39,2.66 9.69,1.68 14.55,1.3 1.32,0.18 1.85,-1.23 2.61,-2.03 -2.05,-1.73 -2.25,-4.5 -2.86,-6.9 -2.15,-9.58 -3.49,-19.31 -4.79,-29.03 -1.61,-9.58 -2.03,-19.55 -5.83,-28.6 -2.94,0.64 -5.52,2.18 -8.27,3.24 m -23.99,1.64 c 1.07,11.8 3.46,23.44 5.36,35.12 -1.02,-0.49 -1.93,-1.03 -1.89,-2.25 -2.03,-10.79 -3.66,-21.65 -5.2,-32.52 -5.35,1.74 -10.99,2.14 -16.56,2.14 2.46,21.51 7.92,42.55 14.86,63.02 5.12,0.16 10.86,3.32 15.59,0.1 -2.5,-1.43 -2.43,-4.5 -3.22,-6.9 -1.65,-7.5 -4.31,-14.92 -4.33,-22.66 1.86,1.26 1.79,3.57 2.25,5.55 1.15,6.43 2.76,12.77 4.47,19.08 0.53,2.16 2.24,3.73 3.69,5.34 3.9,-0.34 7.34,-2.5 11.14,-3.38 1.65,-5.71 -0.35,-11.57 -1.46,-17.18 -2.39,-9.14 -4.96,-18.25 -5.91,-27.67 -1.73,-2.5 -2.19,-5.48 -2.5,-8.43 -1.43,-3.46 -0.94,-7.51 -3.49,-10.48 -4.3,-0.02 -8.62,0.1 -12.8,1.12 m -31.02,0.57 c -0.18,8.97 2.66,17.66 4.78,26.3 2.61,9.06 4.53,18.31 6.5,27.52 2.06,3.96 2.87,8.48 3.98,12.79 3.51,-0.39 7.08,-0.66 10.54,-1.56 -7.15,-20.39 -12.25,-41.52 -14.92,-62.96 -3.29,-1.88 -7.15,-2.75 -10.88,-2.09 m -8.23,9.16 c -0.31,7.37 4.2,13.79 4.6,21.05 1.24,13.11 6.03,25.5 8.73,38.32 2.77,-0.49 5.8,-0.59 8.2,-2.31 -4.29,-8.81 -4.76,-18.71 -7.27,-28.07 -2.84,-11.4 -6.45,-22.65 -7.86,-34.35 -0.82,-0.68 -1.6,-1.34 -2.35,-1.99 -2.17,1.88 -4.11,4.31 -4.05,7.35 z" />
      <path
         style="opacity:1;fill:#ffa201"
         inkscape:connector-curvature="0"
         id="path670"
         d="m 2464.81,1167.67 c 2.62,-1.4 4.67,-3.62 6.98,-5.47 1.59,1.37 3.29,2.65 4.88,4.09 -0.28,2.61 -1.2,5.1 -1.57,7.7 0.44,1.89 2.57,1.94 4.11,2.49 -0.48,-1.38 -0.86,-2.68 -1.34,-4.01 0.78,-2.05 1.46,-4.14 2.25,-6.18 0.76,-0.14 2.28,-0.41 3.05,-0.54 0.29,1.54 0.58,3.09 0.9,4.66 -1.52,0.59 -3.1,1.11 -4.07,2.48 1.96,1.6 4.5,-0.24 6.77,0.35 3.36,0.6 6.79,0.61 10.2,0.17 0.05,3.27 -0.42,6.97 1.86,9.69 1.63,2.65 4.53,4.03 7.53,4.54 -0.83,6.07 -1.44,12.27 0.53,18.2 -2.02,1.63 -5.64,-0.37 -6.95,2.26 -1.54,2.55 0.22,5.26 1.14,7.69 -3.95,4.19 -9.58,6.22 -15.29,5.84 -1.26,-2.31 -2.41,-5.18 -5.43,-5.45 0.58,2.24 1.88,4.21 3.29,6.06 -0.81,0.68 -1.67,1.35 -2.41,2.07 -0.08,-1.52 -0.2,-3.02 -0.34,-4.51 -3.78,-0.2 -3.37,4.26 -1.17,6.02 -0.6,0.86 -1.23,1.71 -1.82,2.57 -4.14,0.39 -7.75,-2.65 -11.9,-2.44 -3.13,-0.23 -5.51,2.09 -8.13,3.35 -2.32,-4.77 0.52,-9.68 0.41,-14.58 -2.2,-1.5 -2.51,2.11 -2.75,3.42 -0.33,1.72 -0.53,3.45 -0.66,5.22 -1.69,0.01 -3.37,0.07 -4.99,0.18 -0.52,-0.52 -1.56,-1.55 -2.09,-2.06 -0.71,0.15 -2.13,0.46 -2.84,0.62 -0.71,-0.89 -1.39,-1.75 -2.04,-2.61 -0.61,0.01 -1.84,0.03 -2.45,0.04 -1.5,-1.15 -3.14,-2.12 -4.44,-3.45 -1.87,-3.4 -3.21,-7.16 -3.23,-11.07 2.47,-1.27 4.89,-2.63 7.27,-4.1 -0.08,-4.19 -0.93,-8.52 0.39,-12.6 0.7,-2.32 3.03,-3.25 5.03,-4.21 0.36,-2.02 0.77,-4.01 1.25,-5.98 2.11,-0.39 4.87,-0.09 6.3,-2.1 1.72,-2.77 2.89,-5.86 4.77,-8.55 2.26,0.33 4.76,1.39 7,0.2 m 21.94,18.06 c 4.28,-0.28 8.56,-0.05 12.73,1.17 -2.75,-3.8 -9.12,-3.74 -12.73,-1.17 z" />
      <path
         style="opacity:1;fill:#000000"
         inkscape:connector-curvature="0"
         id="path692"
         d="m 2486.75,1185.73 c 3.61,-2.57 9.98,-2.63 12.73,1.17 -4.17,-1.22 -8.45,-1.45 -12.73,-1.17 z" />
      <path
         style="opacity:1;fill:#ff0000"
         inkscape:connector-curvature="0"
         id="path718"
         d="m 2508.94,1210.79 c 6.65,1.55 12.93,4.64 18.03,9.21 7.43,6.34 13.17,14.34 20.21,21.09 -5.5,4.16 -12.87,4.06 -19.28,5.92 -9.29,1.66 -17.43,7.46 -26.93,8.03 -3.7,0.45 -6.93,-1.5 -9.85,-3.45 -11.63,6.73 -25.41,6.24 -38.22,8.66 -4.6,0.75 -9.12,2.77 -13.84,2.06 -4.98,-0.63 -9.95,-2.18 -14.99,-1.39 -4.8,0.69 -9.61,3.08 -14.45,1.3 3.22,-16.55 13.52,-30.71 25.28,-42.33 3.89,2.27 7.04,6.52 11.94,6.2 2.52,3.14 3.52,7.67 7.47,9.57 3.84,2.49 8.72,1.16 12.13,-1.48 4.31,2.42 9.62,3.62 14.36,1.67 2.76,-0.93 4.28,-3.55 6.3,-5.44 5.67,-1.33 11.77,-2.08 16.58,-5.69 4.18,-3.11 7.71,-8.7 5.26,-13.93 z" />
      <path
         style="opacity:1;fill:#fef500"
         inkscape:connector-curvature="0"
         id="path732"
         d="m 2518.06,1252.22 c 9.64,-4.03 20.27,-4.55 30.03,-8.26 2.78,4.37 5.62,8.78 7.03,13.83 -9.67,0.81 -19.44,2.62 -28.14,7.09 -2.64,1.26 -5.1,3.04 -8.03,3.51 -14.52,2.55 -29.36,1.52 -43.93,3.55 -6.15,0.77 -11.96,3.01 -18.03,4.06 -7.31,1.43 -14.65,-1.07 -21.98,-0.08 -9.54,0.4 -18.84,3.7 -28.4,3.05 0.85,-4.54 2.03,-9.03 2.21,-13.66 4.38,-0.17 8.77,-0.61 13.01,-1.89 8.3,-2.56 16.68,2.98 25,0.33 14.47,-4.2 30.42,-2.43 44.05,-9.65 2.5,1.34 5.08,2.89 8.05,2.9 6.73,0.53 13,-2.43 19.13,-4.78 z" />
      <path
         style="opacity:1;fill:#ffa201"
         inkscape:connector-curvature="0"
         id="path750"
         d="m 2523.23,1269.2 c 10.16,-5.8 21.94,-9.59 33.74,-8.84 1,3.44 2.07,6.87 3.18,10.3 -1.3,0.63 -2.41,1.48 -3.4,2.48 -9.67,3.29 -19.9,4.28 -29.75,6.81 -6.3,1.39 -12.32,4.85 -18.96,3.67 -10.87,-1.74 -21.56,1.51 -32.05,3.9 -6.6,1.61 -13.36,2.46 -19.91,4.29 -6.25,1.69 -12.56,3.52 -19.07,3.69 -6.25,0.14 -11.76,-3.84 -18.02,-3.53 -4.37,0.19 -8.57,1.46 -12.88,2 -0.39,-3.91 -0.96,-8.23 1.2,-11.74 2.74,-1.21 5.84,-1.16 8.78,-1.67 10.26,-1.47 20.62,-3.86 31.03,-2.32 6.34,0.88 12.69,-0.54 18.79,-2.24 14.99,-4.33 30.78,-2.86 46.14,-4.61 3.74,-0.53 7.66,-0.66 11.18,-2.19 z" />
      <path
         style="opacity:1;fill:#ff0000"
         inkscape:connector-curvature="0"
         id="path760"
         d="m 2528.42,1281.56 c 10.83,-2.33 21.72,-4.38 32.45,-7.22 1.92,10.31 5.19,20.86 3.01,31.41 -10.14,0.54 -20.4,-0.25 -30.38,1.92 -8.41,1.86 -16.71,4.93 -25.44,4.43 -3.88,0.14 -7.22,-2.32 -11.01,-2.51 -3.84,0.46 -7.27,2.4 -11,3.22 -6.73,1.19 -13.35,-1.16 -20.04,-1.28 -4.44,-0.18 -7.77,3.47 -12.07,3.92 -7.81,0.53 -15.75,-0.71 -23.43,1.22 -7.29,1.77 -14.98,2.85 -22.33,0.84 -1.65,-7.09 -2.18,-14.37 -2.67,-21.6 6.11,-0.54 12.25,-3.08 18.42,-1.45 4.28,1.16 8.48,2.99 13.01,2.95 9.98,-0.28 19.31,-4.25 29.07,-5.89 10.37,-1.75 20.43,-5.05 30.9,-6.33 4.69,-0.68 9.39,0.35 14.1,0.4 6.1,0.34 11.53,-2.97 17.41,-4.03 z" />
      <path
         style="opacity:1;fill:#fef500"
         inkscape:connector-curvature="0"
         id="path764"
         d="m 2543.29,1313.16 c 7.53,-1.22 15.19,-0.47 22.8,-0.65 3.15,12.84 0.85,26.36 4.2,39.14 0.9,-1.05 0.94,-2.37 0.66,-3.63 -1.99,-11.86 -0.54,-24.07 -3.43,-35.8 1.6,0.24 3.23,0.47 4.89,0.7 1.46,6.01 3.08,11.99 4.8,17.95 1.18,4.65 3.5,9.25 2.34,14.17 0.21,6.03 2.88,11.81 3.18,17.86 -0.48,3.88 -0.86,7.9 0.68,11.63 -6.41,1.63 -13.09,0.62 -19.58,1.67 -1.32,0.35 -2.22,-1.14 -2.35,-2.21 -3.2,-17.14 -4.76,-34.55 -5.78,-51.95 -0.38,0.03 -1.14,0.1 -1.52,0.13 1.07,17.74 2.6,35.51 5.98,52.98 -0.45,0.83 -0.87,1.68 -1.25,2.55 -2.93,0.12 -5.87,0.73 -8.75,0.29 -1.6,-2.31 -1.45,-5.27 -2.03,-7.89 -2.31,-13.95 -3.88,-28.02 -4.7,-42.13 -0.27,-4.94 -0.7,-9.89 -0.14,-14.81 z" />
      <path
         style="opacity:1;fill:#fef500"
         inkscape:connector-curvature="0"
         id="path766"
         d="m 2522.48,1317.64 c 5.68,-1.01 11.02,-3.39 16.73,-4.29 0.66,0.8 1.35,1.64 2.05,2.51 0.26,20.87 2.84,41.64 6.35,62.2 -16.35,4.33 -33.43,5.51 -50.28,4.98 0.69,-1.62 0.33,-2.92 -1.58,-3.29 -2.26,-14.64 -4.81,-29.23 -6.87,-43.9 -0.66,-0.02 -1.29,-0.03 -1.9,-0.02 3.04,15.27 4.79,30.78 7.7,46.08 -0.11,0.33 -0.34,0.98 -0.45,1.3 -3.4,0.81 -6.88,1.16 -10.32,1.59 0.02,-3.64 -3.87,-5.31 -4,-8.85 -4.33,-19.04 -5.57,-38.61 -9.61,-57.7 4.4,0.18 8.8,0.54 13.2,1.02 0.5,1.95 1.14,3.87 1.92,5.77 0.02,1.42 -0.01,2.77 0.24,4.23 4.15,-2.08 1.26,-6.68 1.44,-10.02 4.12,-1.98 9.06,-3.91 13.57,-1.99 2.18,4.58 2.33,9.72 3.13,14.66 1.34,9 2.79,18.06 2.45,27.19 0.39,0.34 1.16,1.02 1.55,1.36 -0.26,7.08 1.23,14.06 3.13,20.85 0.94,0.83 1.81,-0.88 1.28,-1.68 -1.95,-6.48 -3.3,-13.22 -2.81,-20 -0.42,-0.37 -1.26,-1.09 -1.68,-1.46 0.44,-11.86 -2.23,-23.51 -3.65,-35.22 -0.27,-1.59 0.08,-3.14 0.46,-4.65 4.88,0.21 9.67,-0.83 14.53,-1.08 0.8,1.01 1.56,2.21 1.55,3.59 0.75,16.05 2.25,32.1 4.74,47.97 0.87,-0.78 1.2,-1.72 0.99,-2.83 -1.77,-13.96 -3.38,-27.96 -4.09,-42.02 0.02,-2.1 -0.59,-4.31 0.23,-6.3 z" />
      <path
         style="opacity:1;fill:#fef500"
         inkscape:connector-curvature="0"
         id="path768"
         d="m 2458.98,1320.67 c 2.75,-1.06 5.33,-2.6 8.27,-3.24 3.8,9.05 4.22,19.02 5.83,28.6 1.3,9.72 2.64,19.45 4.79,29.03 0.61,2.4 0.81,5.17 2.86,6.9 -0.76,0.8 -1.29,2.21 -2.61,2.03 -4.86,0.38 -10.16,1.36 -14.55,-1.3 -0.49,-13.3 -6.13,-25.64 -7.69,-38.76 -0.65,-7.81 -2.78,-15.38 -4.18,-23.07 2.4,-0.14 4.86,0.28 7.28,-0.19 z" />
      <path
         style="opacity:1;fill:#fef500"
         inkscape:connector-curvature="0"
         id="path774"
         d="m 2434.99,1322.31 c 4.18,-1.02 8.5,-1.14 12.8,-1.12 2.55,2.97 2.06,7.02 3.49,10.48 0.31,2.95 0.77,5.93 2.5,8.43 0.95,9.42 3.52,18.53 5.91,27.67 1.11,5.61 3.11,11.47 1.46,17.18 -3.8,0.88 -7.24,3.04 -11.14,3.38 -1.45,-1.61 -3.16,-3.18 -3.69,-5.34 -1.71,-6.31 -3.32,-12.65 -4.47,-19.08 -0.46,-1.98 -0.39,-4.29 -2.25,-5.55 0.02,7.74 2.68,15.16 4.33,22.66 0.79,2.4 0.72,5.47 3.22,6.9 -4.73,3.22 -10.47,0.06 -15.59,-0.1 -6.94,-20.47 -12.4,-41.51 -14.86,-63.02 5.57,0 11.21,-0.4 16.56,-2.14 1.54,10.87 3.17,21.73 5.2,32.52 -0.04,1.22 0.87,1.76 1.89,2.25 -1.9,-11.68 -4.29,-23.32 -5.36,-35.12 z" />
      <path
         style="opacity:1;fill:#fef500"
         inkscape:connector-curvature="0"
         id="path776"
         d="m 2403.97,1322.88 c 3.73,-0.66 7.59,0.21 10.88,2.09 2.67,21.44 7.77,42.57 14.92,62.96 -3.46,0.9 -7.03,1.17 -10.54,1.56 -1.11,-4.31 -1.92,-8.83 -3.98,-12.79 -1.97,-9.21 -3.89,-18.46 -6.5,-27.52 -2.12,-8.64 -4.96,-17.33 -4.78,-26.3 z" />
      <path
         style="opacity:1;fill:#fef500"
         inkscape:connector-curvature="0"
         id="path778"
         d="m 2395.74,1332.04 c -0.06,-3.04 1.88,-5.47 4.05,-7.35 0.75,0.65 1.53,1.31 2.35,1.99 1.41,11.7 5.02,22.95 7.86,34.35 2.51,9.36 2.98,19.26 7.27,28.07 -2.4,1.72 -5.43,1.82 -8.2,2.31 -2.7,-12.82 -7.49,-25.21 -8.73,-38.32 -0.4,-7.26 -4.91,-13.68 -4.6,-21.05 z" />
    </g>
  </g>
</svg>
