<?xml version="1.0" encoding="UTF-8"?>
<svg xmlns="http://www.w3.org/2000/svg" xmlns:xlink="http://www.w3.org/1999/xlink" width="1023pt" height="531pt" viewBox="0 0 1023 531" version="1.1">
<defs>
<linearGradient id="linear0" gradientUnits="userSpaceOnUse" x1="186.85" y1="450.92" x2="186.08" y2="472.58" gradientTransform="matrix(3.002017,0.32153,-0.321283,3.004318,258.470813,-1008.453933)">
<stop offset="0" style="stop-color:rgb(69.411765%,30.196078%,37.647059%);stop-opacity:1;"/>
<stop offset="1" style="stop-color:rgb(70.196078%,70.196078%,70.196078%);stop-opacity:1;"/>
</linearGradient>
<linearGradient id="linear1" gradientUnits="userSpaceOnUse" x1="205.05" y1="453.48" x2="218.12" y2="458.99" gradientTransform="matrix(3.002017,0.32153,-0.321283,3.004318,258.470813,-1008.453933)">
<stop offset="0" style="stop-color:rgb(69.411765%,30.196078%,37.647059%);stop-opacity:1;"/>
<stop offset="1" style="stop-color:rgb(70.196078%,70.196078%,70.196078%);stop-opacity:1;"/>
</linearGradient>
<linearGradient id="linear2" gradientUnits="userSpaceOnUse" x1="153.79" y1="447.46" x2="147.89" y2="387.99" gradientTransform="matrix(1.4952,0.16002,-0.16002,1.4952,237.35,-98.581)">
<stop offset="0" style="stop-color:rgb(20%,20%,20%);stop-opacity:1;"/>
<stop offset="1" style="stop-color:rgb(0%,0%,0%);stop-opacity:1;"/>
</linearGradient>
<linearGradient id="linear3" gradientUnits="userSpaceOnUse" x1="206.09" y1="449.83" x2="182.61" y2="384.47" gradientTransform="matrix(1.4952,0.16002,-0.16002,1.4952,237.35,-98.581)">
<stop offset="0" style="stop-color:rgb(90.588235%,25.882353%,25.882353%);stop-opacity:1;"/>
<stop offset="1" style="stop-color:rgb(31.764706%,12.54902%,24.313725%);stop-opacity:1;"/>
</linearGradient>
<linearGradient id="linear4" gradientUnits="userSpaceOnUse" x1="182.62" y1="462.84" x2="179.29" y2="485.78" gradientTransform="matrix(3.002017,0.32153,-0.321283,3.004318,258.470813,-1008.453933)">
<stop offset="0" style="stop-color:rgb(27.843137%,10.588235%,10.588235%);stop-opacity:1;"/>
<stop offset="1" style="stop-color:rgb(20%,20%,20%);stop-opacity:1;"/>
</linearGradient>
<linearGradient id="linear5" gradientUnits="userSpaceOnUse" x1="129.82" y1="384.24" x2="121.31" y2="448.76" gradientTransform="matrix(3.002017,0.32153,-0.321283,3.004318,258.470813,-1008.453933)">
<stop offset="0" style="stop-color:rgb(90.588235%,25.882353%,25.882353%);stop-opacity:1;"/>
<stop offset="1" style="stop-color:rgb(31.764706%,12.54902%,24.313725%);stop-opacity:1;"/>
</linearGradient>
<linearGradient id="linear6" gradientUnits="userSpaceOnUse" x1="117.56" y1="346.62" x2="110.64" y2="444.53" gradientTransform="matrix(1.4952,0.16002,-0.16002,1.4952,237.35,-98.581)">
<stop offset="0" style="stop-color:rgb(100%,100%,100%);stop-opacity:1;"/>
<stop offset="1" style="stop-color:rgb(100%,100%,100%);stop-opacity:0;"/>
</linearGradient>
<linearGradient id="linear7" gradientUnits="userSpaceOnUse" x1="23.38" y1="374.52" x2="-8.5184" y2="356.57" gradientTransform="matrix(3.002017,0.32153,-0.321283,3.004318,258.470813,-1008.453933)">
<stop offset="0" style="stop-color:rgb(100%,100%,100%);stop-opacity:1;"/>
<stop offset="1" style="stop-color:rgb(100%,100%,100%);stop-opacity:0;"/>
</linearGradient>
<linearGradient id="linear8" gradientUnits="userSpaceOnUse" x1="140.18" y1="439.52" x2="149.8" y2="405.99" gradientTransform="matrix(1.4952,0.16002,-0.16002,1.4952,237.35,-98.581)">
<stop offset="0" style="stop-color:rgb(90.588235%,25.882353%,25.882353%);stop-opacity:1;"/>
<stop offset="1" style="stop-color:rgb(31.764706%,12.54902%,24.313725%);stop-opacity:1;"/>
</linearGradient>
<linearGradient id="linear9" gradientUnits="userSpaceOnUse" x1="129.82" y1="384.24" x2="121.31" y2="448.76" gradientTransform="matrix(3.002017,0.32153,-0.321283,3.004318,258.470813,-1008.453933)">
<stop offset="0" style="stop-color:rgb(90.588235%,25.882353%,25.882353%);stop-opacity:1;"/>
<stop offset="1" style="stop-color:rgb(31.764706%,12.54902%,24.313725%);stop-opacity:1;"/>
</linearGradient>
<linearGradient id="linear10" gradientUnits="userSpaceOnUse" x1="54.414" y1="350.72" x2="49.11" y2="394.76" gradientTransform="matrix(3.002017,0.32153,-0.321283,3.004318,258.470813,-1008.453933)">
<stop offset="0" style="stop-color:rgb(100%,100%,100%);stop-opacity:1;"/>
<stop offset="1" style="stop-color:rgb(100%,100%,100%);stop-opacity:0;"/>
</linearGradient>
<linearGradient id="linear11" gradientUnits="userSpaceOnUse" x1="193.28" y1="366.69" x2="219.15" y2="431.57" gradientTransform="matrix(3.002017,0.32153,-0.321283,3.004318,258.470813,-1008.453933)">
<stop offset="0" style="stop-color:rgb(100%,100%,100%);stop-opacity:1;"/>
<stop offset="1" style="stop-color:rgb(100%,100%,100%);stop-opacity:0;"/>
</linearGradient>
<linearGradient id="linear12" gradientUnits="userSpaceOnUse" x1="31.901" y1="327.66" x2="28.564" y2="329.04" gradientTransform="matrix(24.002888,-15.194392,15.182755,24.021285,-5572.795353,-7235.339653)">
<stop offset="0" style="stop-color:rgb(30.196078%,30.196078%,30.196078%);stop-opacity:0.615686;"/>
<stop offset="1" style="stop-color:rgb(30.196078%,30.196078%,30.196078%);stop-opacity:0;"/>
</linearGradient>
<linearGradient id="linear13" gradientUnits="userSpaceOnUse" x1="31.901" y1="327.66" x2="28.564" y2="329.04" gradientTransform="matrix(24.002888,-15.194392,15.182755,24.021285,-5568.579036,-7238.755477)">
<stop offset="0" style="stop-color:rgb(30.196078%,30.196078%,30.196078%);stop-opacity:0.615686;"/>
<stop offset="1" style="stop-color:rgb(30.196078%,30.196078%,30.196078%);stop-opacity:0;"/>
</linearGradient>
<linearGradient id="linear14" gradientUnits="userSpaceOnUse" x1="28.55" y1="326.53" x2="31.057" y2="324.01" gradientTransform="matrix(24.002888,-15.194392,15.182755,24.021285,-5581.830317,-7231.722897)">
<stop offset="0" style="stop-color:rgb(30.196078%,30.196078%,30.196078%);stop-opacity:0.615686;"/>
<stop offset="1" style="stop-color:rgb(30.196078%,30.196078%,30.196078%);stop-opacity:0;"/>
</linearGradient>
<linearGradient id="linear15" gradientUnits="userSpaceOnUse" x1="27.317" y1="327.78" x2="31.057" y2="324.01" gradientTransform="matrix(24.002888,-15.194392,15.182755,24.021285,-5577.614,-7235.138722)">
<stop offset="0" style="stop-color:rgb(30.196078%,30.196078%,30.196078%);stop-opacity:0.615686;"/>
<stop offset="1" style="stop-color:rgb(30.196078%,30.196078%,30.196078%);stop-opacity:0;"/>
</linearGradient>
<linearGradient id="linear16" gradientUnits="userSpaceOnUse" x1="154.58" y1="350.54" x2="148.66" y2="350.88" gradientTransform="matrix(61.815216,6.620672,-3.614387,33.798581,-7668.505451,-12776.410149)">
<stop offset="0" style="stop-color:rgb(30.196078%,30.196078%,30.196078%);stop-opacity:0.615686;"/>
<stop offset="1" style="stop-color:rgb(30.196078%,30.196078%,30.196078%);stop-opacity:0;"/>
</linearGradient>
<linearGradient id="linear17" gradientUnits="userSpaceOnUse" x1="154.58" y1="350.54" x2="148.66" y2="350.88" gradientTransform="matrix(61.815216,6.620672,-3.614387,33.798581,-7669.107782,-12770.382223)">
<stop offset="0" style="stop-color:rgb(30.196078%,30.196078%,30.196078%);stop-opacity:0.615686;"/>
<stop offset="1" style="stop-color:rgb(30.196078%,30.196078%,30.196078%);stop-opacity:0;"/>
</linearGradient>
<linearGradient id="linear18" gradientUnits="userSpaceOnUse" x1="153.3" y1="352.44" x2="160.16" y2="352.08" gradientTransform="matrix(61.815216,6.620672,-3.614387,33.798581,-7668.505451,-12776.410149)">
<stop offset="0" style="stop-color:rgb(30.196078%,30.196078%,30.196078%);stop-opacity:0.615686;"/>
<stop offset="1" style="stop-color:rgb(30.196078%,30.196078%,30.196078%);stop-opacity:0;"/>
</linearGradient>
<linearGradient id="linear19" gradientUnits="userSpaceOnUse" x1="116.29" y1="388.85" x2="108.29" y2="428.76" gradientTransform="matrix(1.4952,0.16002,-0.16002,1.4952,237.95,-98.517)">
<stop offset="0" style="stop-color:rgb(90.588235%,25.882353%,25.882353%);stop-opacity:1;"/>
<stop offset="1" style="stop-color:rgb(31.764706%,12.54902%,24.313725%);stop-opacity:1;"/>
</linearGradient>
<linearGradient id="linear20" gradientUnits="userSpaceOnUse" x1="153.3" y1="352.44" x2="160.16" y2="352.08" gradientTransform="matrix(61.815216,6.620672,-3.614387,33.798581,-7669.107782,-12770.382223)">
<stop offset="0" style="stop-color:rgb(30.196078%,30.196078%,30.196078%);stop-opacity:0.615686;"/>
<stop offset="1" style="stop-color:rgb(30.196078%,30.196078%,30.196078%);stop-opacity:0;"/>
</linearGradient>
<linearGradient id="linear21" gradientUnits="userSpaceOnUse" x1="163.39" y1="383.84" x2="156.12" y2="415.37" gradientTransform="matrix(3.002017,0.32153,-0.321283,3.004318,258.470813,-1008.453933)">
<stop offset="0" style="stop-color:rgb(100%,100%,100%);stop-opacity:1;"/>
<stop offset="1" style="stop-color:rgb(100%,100%,100%);stop-opacity:0;"/>
</linearGradient>
<linearGradient id="linear22" gradientUnits="userSpaceOnUse" x1="167.63" y1="345.32" x2="171.08" y2="421.32" gradientTransform="matrix(3.002017,0.32153,-0.321283,3.004318,258.470813,-1008.453933)">
<stop offset="0" style="stop-color:rgb(100%,100%,100%);stop-opacity:1;"/>
<stop offset="1" style="stop-color:rgb(100%,100%,100%);stop-opacity:0;"/>
</linearGradient>
<linearGradient id="linear23" gradientUnits="userSpaceOnUse" x1="129.82" y1="384.24" x2="121.31" y2="448.76" gradientTransform="matrix(3.002017,0.32153,-0.321283,3.004318,258.470813,-1008.453933)">
<stop offset="0" style="stop-color:rgb(90.588235%,25.882353%,25.882353%);stop-opacity:1;"/>
<stop offset="1" style="stop-color:rgb(31.764706%,12.54902%,24.313725%);stop-opacity:1;"/>
</linearGradient>
<linearGradient id="linear24" gradientUnits="userSpaceOnUse" x1="79.917" y1="431.46" x2="36.935" y2="398.48" gradientTransform="matrix(3.002017,0.32153,-0.321283,3.004318,258.470813,-1008.453933)">
<stop offset="0" style="stop-color:rgb(100%,100%,100%);stop-opacity:1;"/>
<stop offset="1" style="stop-color:rgb(100%,100%,100%);stop-opacity:0;"/>
</linearGradient>
</defs>
<g id="surface1">
<path style=" stroke:none;fill-rule:nonzero;fill:url(#linear0);" d="M 692.8125 425.992188 L 675.320312 420.988281 L 671.101562 421.390625 C 649.726562 443.039062 647.59375 468.617188 642.960938 494.628906 C 642.960938 494.628906 635.707031 495.175781 632.914062 496.304688 C 631.71875 497.164062 631.066406 498.34375 630.675781 499.484375 C 586.347656 489.179688 533.355469 476.578125 486.023438 465.285156 C 486.234375 463.8125 485.71875 462.425781 483.75 461.71875 L 476.5 456.761719 C 479.699219 429.230469 485.390625 400.035156 507.929688 386.441406 C 507.929688 386.441406 497.71875 374.429688 488.53125 377.050781 C 464.613281 399.101562 463.363281 425.476562 458.539062 452.5625 C 458.539062 452.5625 450.484375 453.496094 447.691406 454.628906 C 447.183594 454.992188 446.765625 455.378906 446.425781 455.820312 C 415.917969 448.519531 393.964844 443.269531 393.964844 443.269531 C 381.367188 438.476562 372.933594 451.835938 389.203125 455.867188 C 406.597656 460.175781 678.140625 534.671875 706.371094 530.855469 C 734.582031 527.042969 767.894531 511.074219 774.488281 504.347656 C 781.082031 497.617188 788.011719 477.300781 769.789062 488.839844 C 751.5625 500.375 725.816406 519.207031 700.191406 515 C 696.234375 514.351562 684.835938 511.894531 670.691406 508.707031 C 671.578125 506.640625 671.703125 504.476562 668.972656 503.488281 L 661.722656 498.535156 C 664.921875 471.003906 670.613281 441.804688 693.152344 428.214844 C 693.152344 428.214844 692.152344 427.039062 690.589844 425.566406 C 691.445312 425.761719 691.972656 425.796875 692.820312 425.992188 Z M 692.8125 425.992188 "/>
<path style=" stroke:none;fill-rule:nonzero;fill:url(#linear1);" d="M 844.457031 394.667969 C 842.648438 394.28125 839.640625 395.148438 835.085938 398.03125 C 816.859375 409.570312 791.113281 428.402344 765.488281 424.195312 C 760.824219 423.425781 745.890625 420.125 727.558594 415.953125 L 725.703125 433.320312 C 748.6875 438.121094 765.730469 440.851562 771.667969 440.050781 C 799.878906 436.238281 833.191406 420.265625 839.785156 413.539062 C 844.730469 408.492188 849.890625 395.828125 844.460938 394.667969 Z M 844.457031 394.667969 "/>
<path style="fill-rule:nonzero;fill:url(#linear2);stroke-width:2.7067;stroke-linecap:butt;stroke-linejoin:miter;stroke:url(#linear3);stroke-miterlimit:4;" d="M 447.030476 498.839981 C 447.030476 498.839981 441.291055 509.441031 450.242607 527.145737 C 459.194159 544.848499 489.325151 571.17324 496.463435 581.037485 C 503.601719 590.90173 504.195117 595.042613 504.195117 595.042613 C 504.195117 595.042613 505.09786 603.209679 497.757237 608.301216 C 490.418559 613.392752 483.305567 615.645937 483.305567 615.645937 L 349.756033 581.045261 L 355.859276 500.121128 Z M 447.030476 498.839981 " transform="matrix(2.00777,0,0,2.009309,-218.073344,-810.374276)"/>
<path style=" stroke:none;fill-rule:nonzero;fill:rgb(0%,0%,0%);fill-opacity:1;" d="M 614.808594 234.40625 L 588.832031 250.898438 L 577.46875 279.972656 L 585.902344 288.585938 L 576.710938 302.472656 L 601.339844 386.070312 L 683.925781 396.015625 L 717.929688 361.105469 L 711.589844 332.890625 C 711.589844 332.890625 705.332031 324.507812 697.65625 324.238281 C 689.980469 323.964844 646.261719 331.398438 646.261719 331.398438 C 646.261719 331.398438 651.019531 297.214844 649.054688 289.84375 C 647.09375 282.472656 628.492188 271.117188 628.492188 271.117188 C 628.492188 271.117188 631.71875 261.550781 635.546875 251.496094 C 639.371094 241.441406 614.808594 234.40625 614.808594 234.40625 Z M 614.808594 234.40625 "/>
<path style=" stroke:none;fill-rule:nonzero;fill:rgb(0%,0%,0%);fill-opacity:1;" d="M 666.992188 212.746094 C 661.050781 212.128906 655.140625 212.371094 650.660156 213.75 C 638.707031 217.425781 640.519531 247.324219 640.519531 247.324219 L 645.027344 256.636719 L 618.039062 312.398438 L 626.769531 390.441406 L 714.378906 430.117188 L 767.074219 420.949219 L 766.972656 412.105469 C 766.972656 412.105469 776.753906 412.917969 780.367188 410.214844 C 784.53125 407.097656 788.414062 401.675781 786.820312 396 C 785.414062 390.988281 779.25 392.40625 775.523438 391.007812 C 769.429688 388.726562 756.875 390.589844 756.875 390.589844 C 756.875 390.589844 751.105469 353.847656 746.539062 342.941406 C 742.515625 333.324219 731.207031 337.890625 731.207031 337.890625 L 731.292969 325.707031 L 738.34375 319.246094 C 739.867188 312.933594 745.316406 306.941406 729.890625 300.679688 L 727.167969 302.191406 L 724.992188 289.707031 C 720.777344 290.148438 719.605469 291.140625 717.375 294.398438 L 719.714844 306.234375 L 714.671875 309.019531 L 692.535156 298.457031 L 675.324219 282.121094 L 674.589844 273.003906 C 674.589844 273.003906 680.277344 276.0625 683.238281 274.273438 C 688.210938 271.269531 691.679688 257.835938 691.679688 257.835938 C 691.679688 257.835938 701.089844 257.136719 702.46875 254.527344 C 703.847656 251.921875 701.421875 233.289062 701.421875 233.289062 L 697.609375 232.546875 C 697.609375 232.546875 696.441406 228.035156 690.550781 221.347656 C 686.871094 217.164062 676.894531 213.773438 666.992188 212.746094 Z M 666.992188 212.746094 "/>
<path style=" stroke:none;fill-rule:nonzero;fill:url(#linear4);" d="M 487.679688 377.910156 C 464.867188 399.558594 463.359375 425.285156 458.71875 451.726562 L 461.816406 452.058594 C 461.816406 452.058594 464.324219 423.832031 469.359375 410.800781 C 472.042969 403.847656 478.082031 391.507812 481.160156 391.835938 C 484.238281 392.167969 489.667969 393.640625 490.574219 396.074219 C 491.152344 397.625 491.65625 399.773438 491.65625 402.835938 C 495.804688 396.269531 501.046875 390.59375 507.925781 386.441406 C 507.925781 386.441406 505.949219 384.183594 503.011719 381.832031 Z M 628.0625 410.324219 C 642.832031 414.023438 657.480469 417.714844 671.417969 421.046875 C 649.722656 442.769531 647.613281 468.476562 642.957031 494.632812 L 648.617188 495.808594 C 648.617188 495.808594 650.785156 468.480469 655.28125 455.6875 C 657.5625 449.195312 660.386719 440.257812 665.367188 437.679688 C 668.582031 436.019531 673.289062 436.628906 676.15625 438.835938 C 677.359375 439.761719 677.011719 441.5 677.789062 443.09375 C 681.789062 437.164062 686.78125 432.050781 693.136719 428.214844 C 693.136719 428.214844 692.136719 427.039062 690.574219 425.566406 C 731.011719 434.9375 765.933594 440.722656 770.527344 440.113281 C 763.882812 438.195312 758.753906 437.15625 751.984375 436.039062 C 718.121094 430.433594 676.191406 419.246094 628.0625 410.324219 Z M 385.582031 442.660156 C 378.660156 444.582031 377 452.84375 389.199219 455.867188 C 406.59375 460.175781 678.136719 534.671875 706.367188 530.855469 C 706.71875 530.808594 707.074219 530.738281 707.429688 530.6875 L 664.882812 522.140625 L 667.042969 512.589844 L 662.496094 521.410156 L 629.164062 513.664062 L 631.292969 501.734375 L 628.988281 501.109375 L 626.851562 513.984375 L 480.675781 476.296875 L 484.261719 468.515625 L 478.292969 476.421875 L 445.515625 467.023438 L 443.824219 460.671875 L 444.207031 467.738281 C 444.207031 467.738281 400.273438 456.414062 391.933594 454.351562 C 383.59375 452.292969 384.15625 451.128906 382.945312 447.882812 C 382.386719 446.386719 383.828125 444.402344 385.59375 442.660156 Z M 385.582031 442.660156 "/>
<path style=" stroke:none;fill-rule:nonzero;fill:rgb(0%,0%,0%);fill-opacity:1;" d="M 587.363281 224.460938 L 576.566406 259.910156 C 576.566406 259.910156 561.042969 266.816406 557.113281 267.171875 C 553.183594 267.53125 551.835938 272.839844 551.835938 272.839844 C 551.835938 272.839844 566.621094 272.863281 567.0625 276.027344 C 567.5 279.191406 565.335938 314.007812 565.335938 314.007812 L 562.808594 323.082031 L 579.324219 328.746094 L 610.601562 371.039062 L 510.324219 362.636719 L 495.527344 231.761719 Z M 587.363281 224.460938 "/>
<path style=" stroke:none;fill-rule:nonzero;fill:url(#linear5);" d="M 120.65625 44.226562 C 115.28125 43.796875 86.175781 48.128906 86.175781 48.128906 L 91.453125 129.21875 C 91.453125 129.21875 72.863281 132.054688 72.101562 138.921875 C 71.339844 145.789062 100.066406 156.921875 100.066406 156.921875 L 104.417969 243.992188 L 132.4375 252.59375 L 167.234375 184.53125 L 383.953125 252.945312 C 373.542969 261.984375 363.652344 299.1875 378.988281 313.566406 C 395.464844 341.058594 468.261719 391.214844 574.808594 422.949219 C 640.441406 442.492188 731.105469 436.6875 762.480469 425.765625 C 779.859375 419.714844 787.710938 407.96875 791.28125 398.652344 C 788.28125 404.058594 782.511719 410.6875 771.8125 417.460938 C 745.386719 434.1875 683.253906 396.074219 659.851562 361.503906 C 632.609375 321.257812 633.40625 245.757812 647.875 216.164062 C 662.347656 186.574219 682.367188 194.761719 679.148438 191.691406 C 679.058594 191.605469 678.429688 191.40625 677.585938 191.238281 C 676.667969 188.019531 668.972656 161.832031 660.355469 156.253906 C 651.191406 150.316406 575.460938 136.234375 562.875 140.589844 C 550.289062 144.945312 531.964844 149.425781 521.757812 160.398438 C 518.851562 163.527344 514.90625 166.867188 510.835938 170.246094 C 364.699219 152.742188 175.921875 130.675781 171.925781 129.292969 C 165.398438 127.039062 160.128906 118.914062 160.128906 118.914062 C 160.128906 118.914062 126.046875 44.65625 120.671875 44.226562 Z M 528.617188 236.433594 C 541.496094 237.191406 587.042969 246.039062 592.371094 247.15625 C 598.265625 248.394531 600.8125 253.230469 601.964844 258.628906 C 603.070312 263.8125 625.167969 346.902344 623.78125 351.84375 C 622.394531 356.785156 621.472656 358.71875 609.886719 361.085938 C 598.304688 363.453125 555.070312 352.808594 548.316406 352.117188 C 541.5625 351.425781 527.671875 336.742188 522.503906 322.859375 C 517.335938 308.976562 514.085938 267.683594 517.144531 252.300781 C 518.707031 244.453125 518.554688 237.152344 526.519531 236.496094 C 527.066406 236.453125 527.757812 236.386719 528.613281 236.4375 Z M 794.222656 385.292969 C 794.222656 385.292969 794.136719 390.898438 791.421875 398.191406 C 795.566406 390.464844 794.222656 385.292969 794.222656 385.292969 Z M 794.222656 385.292969 "/>
<path style="fill:none;stroke-width:0.45112;stroke-linecap:butt;stroke-linejoin:miter;stroke:url(#linear6);stroke-miterlimit:4;" d="M 350.789129 493.37907 C 350.789129 493.37907 327.948176 515.084686 324.819705 546.516516 C 321.691234 577.946403 335.074787 589.002367 335.074787 589.002367 " transform="matrix(2.00777,0,0,2.009309,-218.073344,-810.374276)"/>
<path style=" stroke:none;fill-rule:nonzero;fill:url(#linear7);" d="M 120.65625 44.226562 C 119.789062 44.15625 118.15625 44.277344 116.273438 44.417969 L 153.359375 128.824219 L 164.050781 123.796875 C 161.636719 121.277344 160.113281 118.910156 160.113281 118.910156 C 160.113281 118.910156 126.03125 44.652344 120.65625 44.226562 Z M 120.65625 44.226562 "/>
<path style="fill-rule:nonzero;fill:rgb(42.352941%,40.392157%,32.54902%);fill-opacity:0.156863;stroke-width:1.5037;stroke-linecap:butt;stroke-linejoin:miter;stroke:url(#linear8);stroke-miterlimit:4;" d="M 370.840139 520.99079 C 375.196263 520.63308 400.889417 525.502992 403.669632 526.302008 C 406.957639 527.246829 407.772832 529.474741 408.409032 532.03509 C 409.078307 534.731524 419.979317 575.959557 419.288641 578.420758 C 418.597965 580.880015 418.131029 581.848165 412.360478 583.026275 C 406.589927 584.204386 385.050558 578.918441 381.686674 578.57434 C 378.324734 578.230238 371.429646 570.912734 368.855661 564.003486 C 366.283622 557.094237 364.680475 536.527851 366.2058 528.870133 C 366.984026 524.964483 366.873129 521.315451 370.840139 520.99079 Z M 370.840139 520.99079 " transform="matrix(2.00777,0,0,2.009309,-218.073344,-810.374276)"/>
<path style=" stroke:none;fill-rule:nonzero;fill:url(#linear9);" d="M 270.375 182.082031 C 270.375 182.082031 334.953125 146.867188 338.578125 146.429688 C 338.578125 146.429688 370.269531 145.96875 369.6875 151.414062 C 368.792969 154.625 353.855469 188.820312 353.855469 188.820312 Z M 270.375 182.082031 "/>
<path style=" stroke:none;fill-rule:nonzero;fill:rgb(0%,0%,0%);fill-opacity:0.270588;" d="M 525.222656 157.269531 C 523.980469 158.316406 522.746094 159.34375 521.757812 160.410156 C 511.550781 171.386719 497.386719 180.347656 506.246094 190.085938 C 519.910156 206.417969 601.351562 221.101562 626.035156 215.453125 C 630.570312 214.414062 638.136719 213.238281 645.222656 209.054688 C 642.457031 204.027344 640.566406 192.882812 639.136719 191.40625 C 634.933594 187.0625 618.414062 188.066406 607.726562 186.140625 C 597.035156 184.21875 553.542969 184.539062 530.285156 166.738281 C 527.152344 164.339844 525.457031 161.441406 525.226562 157.269531 Z M 72.894531 136.914062 C 72.484375 137.527344 72.1875 138.222656 72.109375 138.917969 C 71.347656 145.785156 100.074219 156.917969 100.074219 156.917969 L 102.507812 205.132812 L 144.445312 210.480469 L 151.871094 199.59375 L 159.6875 199.292969 L 167.242188 184.527344 L 383.960938 252.941406 C 383.089844 253.699219 382.226562 254.675781 381.378906 255.796875 L 424.957031 221.816406 C 424.957031 221.816406 324.03125 207.132812 274.421875 195.628906 C 206.261719 179.820312 81.140625 139.71875 72.902344 136.914062 Z M 372.152344 300.390625 C 373.296875 305.59375 375.414062 310.203125 378.996094 313.5625 C 395.472656 341.054688 468.269531 391.210938 574.816406 422.945312 C 640.449219 442.488281 731.113281 436.683594 762.488281 425.761719 C 775.480469 421.238281 783.136719 413.546875 787.652344 406.046875 L 786.492188 405.351562 C 783.15625 409.152344 778.417969 413.277344 771.820312 417.453125 C 755.195312 427.980469 724.414062 416.773438 698.039062 398.441406 C 677.421875 403.160156 654.984375 407.9375 633.375 405.949219 C 573.171875 400.414062 515.316406 377.035156 460.039062 352.535156 C 428.898438 338.734375 400.429688 318.890625 372.148438 300.390625 Z M 372.152344 300.390625 "/>
<path style=" stroke:none;fill-rule:nonzero;fill:url(#linear10);" d="M 169.105469 127.953125 C 165.734375 129.074219 161.652344 130.539062 160.160156 131.742188 C 157.75 133.6875 165.03125 132.851562 180.207031 135.03125 C 195.386719 137.207031 482.058594 183.824219 485.8125 184.777344 C 495.839844 187.53125 490.207031 173.914062 505.078125 169.910156 C 358.941406 152.40625 175.90625 130.679688 171.890625 129.296875 C 170.917969 128.960938 169.996094 128.5 169.09375 127.953125 Z M 169.105469 127.953125 "/>
<path style="fill-rule:nonzero;fill:rgb(42.352941%,40.392157%,32.54902%);fill-opacity:0.156863;stroke-width:0.75186;stroke-linecap:butt;stroke-linejoin:miter;stroke:rgb(0%,0%,0%);stroke-opacity:1;stroke-miterlimit:4;" d="M 439.890247 499.780914 C 437.394085 501.270077 434.446551 504.446698 431.292787 510.889368 C 424.086408 525.615749 423.679785 563.214191 437.248167 583.244012 C 448.904057 600.44909 479.128436 618.056592 493.043128 611.061804 C 521.703271 596.652308 516.166189 563.980157 504.163988 538.779091 C 493.749369 516.910173 472.902622 500.941528 449.34181 498.258702 C 446.170536 497.897104 443.100432 497.865999 439.890247 499.780914 Z M 439.890247 499.780914 " transform="matrix(2.00777,0,0,2.009309,-218.073344,-810.374276)"/>
<path style=" stroke:none;fill-rule:nonzero;fill:url(#linear11);" d="M 665.90625 195.585938 C 660.894531 198.578125 654.195312 203.222656 647.867188 216.167969 C 637.820312 236.707031 634.351562 279.371094 642.28125 317.015625 C 660.359375 327.625 695.785156 346.570312 718.683594 346.410156 C 741.332031 346.25 771.699219 340.167969 781.078125 319.539062 C 793.253906 292.753906 769.785156 260.394531 754.171875 235.460938 C 748.507812 226.417969 738.679688 215.992188 728.332031 206.234375 C 712.117188 200.859375 680.59375 187.210938 665.910156 195.585938 Z M 665.90625 195.585938 "/>
<path style=" stroke:none;fill-rule:nonzero;fill:rgb(10.196078%,10.196078%,10.196078%);fill-opacity:1;" d="M 119.335938 147.472656 C 121.425781 150.785156 120.960938 154.839844 118.292969 156.53125 C 115.621094 158.21875 111.761719 156.90625 109.667969 153.59375 C 107.574219 150.28125 108.042969 146.226562 110.710938 144.535156 C 113.378906 142.847656 117.242188 144.160156 119.335938 147.472656 Z M 119.335938 147.472656 "/>
<path style=" stroke:none;fill-rule:nonzero;fill:url(#linear12);" d="M 181.324219 109.511719 C 204.417969 146.054688 208.363281 190.085938 191.4375 222.425781 C 174.511719 254.761719 139.777344 269.546875 102.375 260.339844 L 105.550781 157.476562 Z M 181.324219 109.511719 "/>
<path style=" stroke:none;fill-rule:nonzero;fill:url(#linear13);" d="M 174.085938 90.476562 C 201.945312 123.226562 212.804688 167.324219 201.929688 203.550781 C 191.054688 239.78125 160.417969 261.578125 123.371094 259.453125 L 109.789062 154.039062 Z M 174.085938 90.476562 "/>
<path style=" stroke:none;fill-rule:nonzero;fill:url(#linear14);" d="M 45.664062 238.355469 C 11.289062 208.105469 -6.035156 160.78125 2.304688 119.925781 C 10.648438 79.066406 42.875 53.40625 82.953125 55.710938 L 96.535156 161.121094 Z M 45.664062 238.355469 "/>
<path style=" stroke:none;fill-rule:nonzero;fill:url(#linear15);" d="M 36.449219 221.242188 C 6.3125 185.816406 -3.699219 137.457031 11.394531 100.226562 C 26.488281 63 63.464844 44.851562 103.925781 54.816406 L 100.75 157.679688 Z M 36.449219 221.242188 "/>
<path style=" stroke:none;fill-rule:nonzero;fill:rgb(20%,20%,20%);fill-opacity:1;" d="M 94.074219 163.960938 C 97.5625 169.480469 104.0625 171.601562 108.511719 168.785156 L 111.0625 167.171875 C 115.511719 164.355469 116.300781 157.617188 112.8125 152.097656 C 102.6875 137.632812 87.273438 152.578125 94.074219 163.960938 Z M 94.074219 163.960938 "/>
<path style=" stroke:none;fill-rule:nonzero;fill:rgb(0%,0%,0%);fill-opacity:1;" d="M 631.023438 161.863281 C 630.457031 166.746094 618.554688 169.441406 604.433594 167.882812 C 590.316406 166.324219 579.328125 161.101562 579.894531 156.222656 C 580.457031 151.339844 592.359375 148.648438 606.480469 150.203125 C 620.597656 151.761719 631.585938 156.984375 631.023438 161.863281 Z M 631.023438 161.863281 "/>
<path style=" stroke:none;fill-rule:nonzero;fill:url(#linear16);" d="M 193.714844 63.480469 C 197.457031 28.460938 279.929688 4.566406 410.058594 0.796875 C 540.1875 -2.976562 698.207031 13.949219 824.589844 45.195312 L 608.246094 107.878906 Z M 193.714844 63.480469 "/>
<path style=" stroke:none;fill-rule:nonzero;fill:url(#linear17);" d="M 197.488281 87.070312 C 175.464844 49.832031 233.265625 20.511719 349.117188 10.15625 C 464.972656 -0.199219 621.28125 9.976562 759.164062 36.859375 L 607.535156 113.773438 Z M 197.488281 87.070312 "/>
<path style=" stroke:none;fill-rule:nonzero;fill:rgb(0%,0%,0%);fill-opacity:1;" d="M 609.992188 91.324219 C 585.992188 88.753906 566.058594 91.324219 565.449219 97 L 564.808594 103.007812 C 564.203125 108.683594 583.148438 115.320312 607.148438 117.890625 C 631.148438 120.464844 651.164062 117.996094 651.769531 112.320312 L 652.414062 106.3125 C 653.019531 100.636719 633.992188 93.894531 609.988281 91.324219 Z M 609.992188 91.324219 "/>
<path style=" stroke:none;fill-rule:nonzero;fill:rgb(30.196078%,30.196078%,30.196078%);fill-opacity:1;" d="M 652.339844 106.265625 C 651.734375 111.941406 631.785156 114.457031 607.78125 111.886719 C 583.78125 109.316406 564.816406 102.632812 565.421875 96.957031 C 566.027344 91.28125 585.976562 88.765625 609.980469 91.335938 C 633.980469 93.90625 652.949219 100.589844 652.339844 106.265625 Z M 652.339844 106.265625 "/>
<path style=" stroke:none;fill-rule:nonzero;fill:rgb(0%,0%,0%);fill-opacity:1;" d="M 590.15625 159.558594 L 595.867188 89.742188 C 596.183594 85.882812 599.941406 85.128906 599.761719 89.789062 L 599.339844 100.691406 L 603.046875 102.578125 L 603.429688 89.566406 C 603.546875 85.597656 615.117188 84.75 614.488281 90.074219 L 612.988281 102.765625 L 617.539062 103.394531 L 618.921875 90.382812 C 619.328125 86.53125 624.5625 88.589844 624.191406 92.222656 L 616.917969 164 Z M 590.15625 159.558594 "/>
<path style=" stroke:none;fill-rule:nonzero;fill:url(#linear18);" d="M 1022.65625 152.261719 C 1018.914062 187.277344 936.445312 211.171875 806.3125 214.945312 C 676.183594 218.714844 518.164062 201.792969 391.78125 170.546875 L 608.125 107.863281 Z M 1022.65625 152.261719 "/>
<path style=" stroke:none;fill-rule:nonzero;fill:rgb(30.196078%,30.196078%,30.196078%);fill-opacity:1;" d="M 595.757812 90.460938 C 578.617188 90.035156 565.933594 92.5 565.453125 96.996094 C 564.847656 102.667969 583.792969 109.308594 607.792969 111.878906 C 631.792969 114.449219 651.808594 111.984375 652.414062 106.308594 C 652.898438 101.808594 640.972656 96.707031 624.085938 93.492188 L 623.050781 103.164062 C 622.855469 105.011719 616.347656 105.769531 608.535156 104.933594 C 600.722656 104.09375 594.523438 101.976562 594.71875 100.128906 L 595.753906 90.460938 Z M 595.757812 90.460938 "/>
<path style="fill:none;stroke-width:0.45112;stroke-linecap:butt;stroke-linejoin:miter;stroke:url(#linear19);stroke-miterlimit:4;" d="M 351.390309 493.439336 C 351.390309 493.439336 328.549356 515.144952 325.420885 546.576783 C 322.290468 578.00667 335.674022 589.062633 335.674022 589.062633 " transform="matrix(2.00777,0,0,2.009309,-218.073344,-810.374276)"/>
<path style=" stroke:none;fill-rule:nonzero;fill:url(#linear20);" d="M 1017.714844 140.390625 C 1039.738281 177.628906 981.9375 206.949219 866.085938 217.304688 C 750.230469 227.660156 593.921875 217.480469 456.039062 190.601562 L 607.667969 113.6875 Z M 1017.714844 140.390625 "/>
<path style=" stroke:none;fill-rule:nonzero;fill:rgb(94.901961%,94.901961%,94.901961%);fill-opacity:1;" d="M 390.058594 442.390625 L 385.320312 445.015625 L 444.46875 460.65625 L 444.832031 455.472656 C 415.75 448.511719 393.949219 443.28125 393.949219 443.28125 C 392.578125 442.761719 391.304688 442.515625 390.058594 442.390625 Z M 779.144531 485.488281 C 778.121094 485.265625 776.648438 485.523438 774.792969 486.253906 C 775.023438 486.703125 775.246094 487.175781 775.402344 487.648438 C 776.445312 490.789062 776.199219 492.617188 779.097656 491.273438 C 779.757812 490.96875 780.554688 490.140625 781.410156 489.148438 C 781.402344 487.222656 780.785156 485.839844 779.144531 485.488281 Z M 456.898438 452.777344 C 454.820312 453.046875 449.953125 453.71875 447.683594 454.636719 C 447.433594 454.820312 447.261719 455.035156 447.050781 455.234375 L 447.722656 456.066406 L 456.960938 454.871094 Z M 476.601562 455.742188 L 473.746094 460.277344 L 481.972656 464.957031 L 485.089844 462.441406 C 484.75 462.152344 484.292969 461.925781 483.742188 461.726562 L 476.492188 456.773438 C 476.53125 456.433594 476.5625 456.082031 476.601562 455.742188 Z M 486.113281 465.304688 L 484.03125 468.785156 L 626.246094 502.726562 L 628.730469 499.003906 C 584.804688 488.785156 532.773438 476.4375 486.113281 465.304688 Z M 638.832031 495.050781 C 636.695312 495.339844 634.285156 495.757812 632.90625 496.316406 C 632.796875 496.398438 632.699219 496.480469 632.597656 496.566406 L 632.117188 499.269531 L 640.238281 497.859375 L 638.925781 495.0625 Z M 661.734375 498.265625 L 659.695312 501.371094 L 667.144531 506.25 L 670.636719 504.628906 C 670.277344 504.175781 669.753906 503.789062 668.957031 503.5 L 661.707031 498.546875 C 661.714844 498.453125 661.726562 498.355469 661.734375 498.265625 Z M 671.230469 508.871094 L 668.300781 511.40625 C 668.300781 511.40625 690.792969 517.054688 694.574219 517.734375 C 696.773438 518.128906 702.703125 516.742188 707.429688 515.503906 C 705.015625 515.492188 702.597656 515.410156 700.175781 515.011719 C 696.28125 514.371094 685.078125 511.988281 671.230469 508.871094 Z M 671.230469 508.871094 "/>
<path style=" stroke:none;fill-rule:nonzero;fill:rgb(94.901961%,94.901961%,94.901961%);fill-opacity:1;" d="M 660.003906 461.941406 C 659.695312 467.511719 664.761719 462.0625 665.378906 460.09375 C 666.976562 454.980469 670.34375 448.132812 673.195312 443.5625 C 675.554688 439.78125 669.199219 438.558594 667.058594 441.355469 C 662.15625 447.757812 660.335938 455.945312 660.003906 461.941406 Z M 660.003906 461.941406 "/>
<path style=" stroke:none;fill-rule:nonzero;fill:rgb(90.196078%,90.196078%,90.196078%);fill-opacity:1;" d="M 475.992188 417.894531 C 475.683594 423.464844 480.75 418.019531 481.363281 416.050781 C 482.964844 410.933594 486.332031 404.089844 489.183594 399.519531 C 491.542969 395.738281 485.1875 394.515625 483.046875 397.308594 C 478.144531 403.710938 476.324219 411.902344 475.992188 417.894531 Z M 475.992188 417.894531 "/>
<path style=" stroke:none;fill-rule:nonzero;fill:url(#linear21);" d="M 531.386719 238.925781 C 527.652344 238.335938 522.257812 238.242188 521.339844 242.988281 C 520.203125 246.964844 519.703125 251.097656 519.023438 255.171875 C 525.863281 255.804688 532.988281 256.0625 539.167969 259.425781 C 562.769531 270.5625 585.648438 283.144531 608.652344 295.441406 C 605.753906 283.703125 604.542969 271.683594 600.5 260.285156 C 598.960938 255.945312 598.367188 251.6875 594.25 250.191406 C 588.828125 248.152344 582.972656 247.605469 577.34375 246.316406 C 562.101562 243.425781 546.816406 240.574219 531.386719 238.929688 Z M 531.386719 238.925781 "/>
<path style=" stroke:none;fill-rule:nonzero;fill:url(#linear22);" d="M 638.019531 220.421875 C 619.027344 224.484375 606.050781 227.011719 586.589844 225.738281 C 565.351562 224.351562 539.761719 218.570312 518.921875 214.253906 C 508.699219 211.804688 494.460938 209.878906 483.734375 212.257812 C 461.835938 217.105469 448.003906 223.882812 429.699219 233.894531 C 414.839844 242.019531 398.574219 251.46875 383.9375 259.441406 C 382.050781 263.6875 380.167969 267.933594 378.28125 272.175781 C 406.84375 265.324219 435.480469 258.023438 464.753906 255.039062 C 481.582031 254.140625 498.464844 254.464844 515.269531 255.609375 C 516.460938 247.832031 516.542969 234.945312 527.359375 234.992188 C 550.097656 236.605469 572.949219 239.863281 594.796875 246.523438 C 603.363281 249.824219 603.429688 259.632812 605.257812 267.128906 C 607.902344 277.691406 610.621094 288.230469 613.320312 298.773438 C 619.402344 301.097656 629.054688 309.101562 633.0625 308.203125 C 630.890625 278.867188 627.667969 248.730469 638.019531 220.417969 Z M 638.019531 220.421875 "/>
<path style=" stroke:none;fill-rule:nonzero;fill:url(#linear23);" d="M 263.832031 185.921875 L 222.949219 211.328125 C 218.332031 214.195312 226.390625 217.214844 226.390625 217.214844 C 226.390625 217.214844 260.988281 229.039062 265.539062 228.164062 C 273.445312 226.644531 321.992188 207.960938 321.992188 207.960938 C 326.445312 206.234375 336.160156 193.667969 327.089844 191.140625 C 318.023438 188.609375 263.828125 185.921875 263.828125 185.921875 Z M 263.832031 185.921875 "/>
<path style=" stroke:none;fill-rule:nonzero;fill:url(#linear24);" d="M 281.039062 184.617188 C 281.039062 184.617188 236.089844 211.675781 238.660156 213.121094 C 239.945312 213.839844 253.261719 216.40625 259.898438 218.574219 C 263.679688 219.804688 266.828125 221.789062 267.875 223.851562 C 268.585938 223.550781 315.402344 202.855469 326.878906 197.828125 C 326.417969 195.222656 324.207031 192.515625 320.722656 191.980469 C 308.328125 190.082031 281.039062 184.617188 281.039062 184.617188 Z M 281.039062 184.617188 "/>
</g>
</svg>
