<?xml version="1.0" encoding="UTF-8"?>
<svg xmlns="http://www.w3.org/2000/svg" xmlns:xlink="http://www.w3.org/1999/xlink" width="1024pt" height="2387pt" viewBox="0 0 1024 2387" version="1.1">
<defs>
<linearGradient id="linear0" gradientUnits="userSpaceOnUse" x1="-4784.9" y1="-1491.6" x2="-4739.9" y2="-1461.6" gradientTransform="matrix(5.681968,-3.681927,3.68204,5.681794,32972.068765,-7734.845346)">
<stop offset="0" style="stop-color:rgb(65.098039%,42.352941%,29.411765%);stop-opacity:1;"/>
<stop offset="1" style="stop-color:rgb(54.117647%,32.54902%,24.313725%);stop-opacity:1;"/>
</linearGradient>
<linearGradient id="linear1" gradientUnits="userSpaceOnUse" x1="-4784.9" y1="-1491.6" x2="-4739.9" y2="-1461.6" gradientTransform="matrix(5.681968,-3.681927,3.68204,5.681794,32972.068765,-7734.845346)">
<stop offset="0" style="stop-color:rgb(65.098039%,42.352941%,29.411765%);stop-opacity:1;"/>
<stop offset="1" style="stop-color:rgb(54.117647%,32.54902%,24.313725%);stop-opacity:1;"/>
</linearGradient>
<linearGradient id="linear2" gradientUnits="userSpaceOnUse" x1="-4798.7" y1="-1487.4" x2="-4753.6" y2="-1471.3" gradientTransform="matrix(5.681968,-3.681927,3.68204,5.681794,32972.068765,-7734.845346)">
<stop offset="0" style="stop-color:rgb(84.313725%,53.72549%,33.333333%);stop-opacity:0.654902;"/>
<stop offset="1" style="stop-color:rgb(84.313725%,53.72549%,33.333333%);stop-opacity:0;"/>
</linearGradient>
<linearGradient id="linear3" gradientUnits="userSpaceOnUse" x1="-2375.8" y1="293.45" x2="-2285.1" y2="293.1" gradientTransform="matrix(8.013118,0.00753285,-0.00753308,8.012874,19148.339593,-701.052073)">
<stop offset="0" style="stop-color:rgb(81.568627%,52.941176%,34.901961%);stop-opacity:1;"/>
<stop offset="1" style="stop-color:rgb(77.647059%,53.72549%,38.823529%);stop-opacity:0;"/>
</linearGradient>
<linearGradient id="linear4" gradientUnits="userSpaceOnUse" x1="-2282.2" y1="89.013" x2="-2316.5" y2="226.9" gradientTransform="matrix(8.013118,0.00753285,-0.00753308,8.012874,19148.339593,-701.052073)">
<stop offset="0" style="stop-color:rgb(20.392157%,25.490196%,30.588235%);stop-opacity:0.360784;"/>
<stop offset="0.18347" style="stop-color:rgb(24.705882%,36.078431%,37.254902%);stop-opacity:0;"/>
<stop offset="0.33591" style="stop-color:rgb(25.098039%,34.117647%,36.470588%);stop-opacity:0.329412;"/>
<stop offset="0.71962" style="stop-color:rgb(23.529412%,34.901961%,39.607843%);stop-opacity:0;"/>
<stop offset="1" style="stop-color:rgb(32.54902%,42.352941%,43.921569%);stop-opacity:0.647059;"/>
</linearGradient>
<linearGradient id="linear5" gradientUnits="userSpaceOnUse" x1="-2326.4" y1="93.609" x2="-2339.2" y2="227.25" gradientTransform="matrix(8.013118,0.00753285,-0.00753308,8.012874,19148.339593,-701.052073)">
<stop offset="0" style="stop-color:rgb(16.470588%,23.921569%,28.627451%);stop-opacity:0.0823529;"/>
<stop offset="0.093542" style="stop-color:rgb(47.843137%,60.392157%,69.411765%);stop-opacity:0;"/>
<stop offset="0.39256" style="stop-color:rgb(18.431373%,29.803922%,32.941176%);stop-opacity:0.227451;"/>
<stop offset="0.76789" style="stop-color:rgb(46.666667%,67.843137%,70.588235%);stop-opacity:0;"/>
<stop offset="1" style="stop-color:rgb(18.823529%,30.588235%,33.72549%);stop-opacity:0.580392;"/>
</linearGradient>
<linearGradient id="linear6" gradientUnits="userSpaceOnUse" x1="-2322.4" y1="95.609" x2="-2266.2" y2="214.75" gradientTransform="matrix(8.013118,0.00753285,-0.00753308,8.012874,19148.339593,-701.052073)">
<stop offset="0" style="stop-color:rgb(16.470588%,23.921569%,28.627451%);stop-opacity:0;"/>
<stop offset="0.20245" style="stop-color:rgb(47.843137%,60.392157%,69.411765%);stop-opacity:0.294118;"/>
<stop offset="0.51906" style="stop-color:rgb(18.431373%,29.803922%,32.941176%);stop-opacity:0.0470588;"/>
<stop offset="0.69424" style="stop-color:rgb(46.666667%,67.843137%,70.588235%);stop-opacity:0;"/>
<stop offset="1" style="stop-color:rgb(18.823529%,30.588235%,33.72549%);stop-opacity:0.580392;"/>
</linearGradient>
<linearGradient id="linear7" gradientUnits="userSpaceOnUse" x1="-2291.2" y1="139.26" x2="-2261.5" y2="199.46" gradientTransform="matrix(8.013118,0.00753285,-0.00753308,8.012874,19148.339593,-701.052073)">
<stop offset="0" style="stop-color:rgb(20.392157%,25.490196%,30.588235%);stop-opacity:0.360784;"/>
<stop offset="0.18347" style="stop-color:rgb(24.705882%,36.078431%,37.254902%);stop-opacity:0;"/>
<stop offset="0.36994" style="stop-color:rgb(25.098039%,34.117647%,36.470588%);stop-opacity:0.329412;"/>
<stop offset="0.72436" style="stop-color:rgb(23.529412%,34.901961%,39.607843%);stop-opacity:0;"/>
<stop offset="1" style="stop-color:rgb(32.54902%,42.352941%,43.921569%);stop-opacity:0.647059;"/>
</linearGradient>
<linearGradient id="linear8" gradientUnits="userSpaceOnUse" x1="-2357.4" y1="209.11" x2="-2314" y2="260.46" gradientTransform="matrix(8.013118,0.00753285,-0.00753308,8.012874,19148.339593,-701.052073)">
<stop offset="0" style="stop-color:rgb(20.392157%,25.490196%,30.588235%);stop-opacity:0.360784;"/>
<stop offset="0.18347" style="stop-color:rgb(24.705882%,36.078431%,37.254902%);stop-opacity:0;"/>
<stop offset="0.52397" style="stop-color:rgb(25.098039%,34.117647%,36.470588%);stop-opacity:0.196078;"/>
<stop offset="0.76789" style="stop-color:rgb(23.529412%,34.901961%,39.607843%);stop-opacity:0;"/>
<stop offset="1" style="stop-color:rgb(32.54902%,42.352941%,43.921569%);stop-opacity:0.647059;"/>
</linearGradient>
<linearGradient id="linear9" gradientUnits="userSpaceOnUse" x1="-2326.4" y1="93.609" x2="-2321.5" y2="227.96" gradientTransform="matrix(8.013118,0.00753285,-0.00753308,8.012874,19148.339593,-701.052073)">
<stop offset="0" style="stop-color:rgb(20.392157%,25.490196%,30.588235%);stop-opacity:0.360784;"/>
<stop offset="0.18347" style="stop-color:rgb(24.705882%,36.078431%,37.254902%);stop-opacity:0;"/>
<stop offset="0.52397" style="stop-color:rgb(25.098039%,34.117647%,36.470588%);stop-opacity:0.196078;"/>
<stop offset="0.76789" style="stop-color:rgb(23.529412%,34.901961%,39.607843%);stop-opacity:0;"/>
<stop offset="1" style="stop-color:rgb(32.54902%,42.352941%,43.921569%);stop-opacity:0.647059;"/>
</linearGradient>
<linearGradient id="linear10" gradientUnits="userSpaceOnUse" x1="-2302.1" y1="178.11" x2="-2216.9" y2="169.25" gradientTransform="matrix(8.013118,0.00753285,-0.00753308,8.012874,19148.339593,-701.052073)">
<stop offset="0" style="stop-color:rgb(16.470588%,23.921569%,28.627451%);stop-opacity:0;"/>
<stop offset="0.19737" style="stop-color:rgb(47.843137%,60.392157%,69.411765%);stop-opacity:0.294118;"/>
<stop offset="0.25923" style="stop-color:rgb(18.431373%,29.803922%,32.941176%);stop-opacity:0.0470588;"/>
<stop offset="0.69424" style="stop-color:rgb(46.666667%,67.843137%,70.588235%);stop-opacity:0;"/>
<stop offset="1" style="stop-color:rgb(18.823529%,30.588235%,33.72549%);stop-opacity:0.580392;"/>
</linearGradient>
<linearGradient id="linear11" gradientUnits="userSpaceOnUse" x1="-2291.2" y1="139.26" x2="-2259.5" y2="216.15" gradientTransform="matrix(8.013118,0.00753285,-0.00753308,8.012874,19148.339593,-701.052073)">
<stop offset="0" style="stop-color:rgb(20.392157%,25.490196%,30.588235%);stop-opacity:0.360784;"/>
<stop offset="0.18347" style="stop-color:rgb(24.705882%,36.078431%,37.254902%);stop-opacity:0;"/>
<stop offset="0.46317" style="stop-color:rgb(25.098039%,34.117647%,36.470588%);stop-opacity:0.329412;"/>
<stop offset="0.72436" style="stop-color:rgb(23.529412%,34.901961%,39.607843%);stop-opacity:0;"/>
<stop offset="1" style="stop-color:rgb(32.54902%,42.352941%,43.921569%);stop-opacity:0.647059;"/>
</linearGradient>
<linearGradient id="linear12" gradientUnits="userSpaceOnUse" x1="-2326.4" y1="93.609" x2="-2314.8" y2="268.26" gradientTransform="matrix(8.013118,0.00753285,-0.00753308,8.012874,19148.339593,-701.052073)">
<stop offset="0" style="stop-color:rgb(16.470588%,23.921569%,28.627451%);stop-opacity:0.0823529;"/>
<stop offset="0.46397" style="stop-color:rgb(47.843137%,60.392157%,69.411765%);stop-opacity:0;"/>
<stop offset="0.63858" style="stop-color:rgb(18.431373%,29.803922%,32.941176%);stop-opacity:0.227451;"/>
<stop offset="0.76789" style="stop-color:rgb(46.666667%,67.843137%,70.588235%);stop-opacity:0;"/>
<stop offset="1" style="stop-color:rgb(18.823529%,30.588235%,33.72549%);stop-opacity:0.580392;"/>
</linearGradient>
<linearGradient id="linear13" gradientUnits="userSpaceOnUse" x1="-2380.9" y1="166.11" x2="-2354.2" y2="314.5" gradientTransform="matrix(8.013118,0.00753285,-0.00753308,8.012874,19148.339593,-701.052073)">
<stop offset="0" style="stop-color:rgb(16.470588%,23.921569%,28.627451%);stop-opacity:0.0823529;"/>
<stop offset="0.21515" style="stop-color:rgb(47.843137%,60.392157%,69.411765%);stop-opacity:0;"/>
<stop offset="0.39256" style="stop-color:rgb(18.431373%,29.803922%,32.941176%);stop-opacity:0.427451;"/>
<stop offset="0.76789" style="stop-color:rgb(46.666667%,67.843137%,70.588235%);stop-opacity:0;"/>
<stop offset="1" style="stop-color:rgb(18.823529%,30.588235%,33.72549%);stop-opacity:0.580392;"/>
</linearGradient>
<linearGradient id="linear14" gradientUnits="userSpaceOnUse" x1="-2337.4" y1="110.11" x2="-2360.8" y2="202.76" gradientTransform="matrix(8.013118,0.00753285,-0.00753308,8.012874,19148.339593,-701.052073)">
<stop offset="0" style="stop-color:rgb(16.470588%,23.921569%,28.627451%);stop-opacity:0.164706;"/>
<stop offset="0.46397" style="stop-color:rgb(47.843137%,60.392157%,69.411765%);stop-opacity:0;"/>
<stop offset="0.61705" style="stop-color:rgb(18.431373%,29.803922%,32.941176%);stop-opacity:0.227451;"/>
<stop offset="0.76789" style="stop-color:rgb(46.666667%,67.843137%,70.588235%);stop-opacity:0;"/>
<stop offset="1" style="stop-color:rgb(18.823529%,30.588235%,33.72549%);stop-opacity:0.580392;"/>
</linearGradient>
<linearGradient id="linear15" gradientUnits="userSpaceOnUse" x1="-2322.9" y1="98.109" x2="-2292.7" y2="232.75" gradientTransform="matrix(8.013118,0.00753285,-0.00753308,8.012874,19148.339593,-701.052073)">
<stop offset="0" style="stop-color:rgb(16.470588%,23.921569%,28.627451%);stop-opacity:0.0823529;"/>
<stop offset="0.3447" style="stop-color:rgb(47.843137%,60.392157%,69.411765%);stop-opacity:0;"/>
<stop offset="0.6684" style="stop-color:rgb(18.431373%,29.803922%,32.941176%);stop-opacity:0.227451;"/>
<stop offset="0.82807" style="stop-color:rgb(29.411765%,50.588235%,53.333333%);stop-opacity:0.219608;"/>
<stop offset="1" style="stop-color:rgb(18.823529%,30.588235%,33.72549%);stop-opacity:0.0588235;"/>
</linearGradient>
<linearGradient id="linear16" gradientUnits="userSpaceOnUse" x1="-2325.8" y1="111.04" x2="-2317.4" y2="223.04" gradientTransform="matrix(8.013118,0.00753285,-0.00753308,8.012874,19148.339593,-701.052073)">
<stop offset="0" style="stop-color:rgb(97.647059%,19.607843%,36.862745%);stop-opacity:1;"/>
<stop offset="1" style="stop-color:rgb(97.647059%,19.607843%,36.862745%);stop-opacity:0;"/>
</linearGradient>
<linearGradient id="linear17" gradientUnits="userSpaceOnUse" x1="-2325.8" y1="111.04" x2="-2317.4" y2="223.04" gradientTransform="matrix(8.013118,0.00753285,-0.00753308,8.012874,19159.849775,-708.431906)">
<stop offset="0" style="stop-color:rgb(97.647059%,19.607843%,36.862745%);stop-opacity:1;"/>
<stop offset="1" style="stop-color:rgb(97.647059%,19.607843%,36.862745%);stop-opacity:0;"/>
</linearGradient>
<linearGradient id="linear18" gradientUnits="userSpaceOnUse" x1="-2325.8" y1="111.04" x2="-2317.4" y2="223.04" gradientTransform="matrix(8.013118,0.00753285,-0.00753308,8.012874,19166.620471,-697.057484)">
<stop offset="0" style="stop-color:rgb(97.647059%,19.607843%,36.862745%);stop-opacity:1;"/>
<stop offset="1" style="stop-color:rgb(97.647059%,19.607843%,36.862745%);stop-opacity:0;"/>
</linearGradient>
</defs>
<g id="surface1">
<path style=" stroke:none;fill-rule:nonzero;fill:url(#linear0);" d="M 97.769531 1038.625 L 518.878906 2385.75 L 948.777344 907.75 "/>
<path style=" stroke:none;fill-rule:nonzero;fill:url(#linear1);" d="M 97.769531 1038.625 L 518.878906 2385.75 L 948.777344 907.75 "/>
<path style=" stroke:none;fill-rule:nonzero;fill:url(#linear2);" d="M 97.769531 1038.625 L 518.878906 2385.75 L 948.777344 907.75 "/>
<path style=" stroke:none;fill-rule:nonzero;fill:url(#linear3);" d="M 112.191406 1067.875 L 108.265625 1071.929688 L 132.152344 1148.476562 L 132.613281 1149.1875 L 178.515625 1103.308594 C 159.054688 1103.726562 141.808594 1095.625 126.558594 1082.265625 C 122.292969 1078.527344 117.996094 1074.410156 114.042969 1069.957031 C 113.425781 1069.261719 112.796875 1068.585938 112.191406 1067.878906 Z M 132.613281 1149.1875 L 132.429688 1149.300781 L 156.597656 1226.667969 L 183.414062 1199.964844 L 132.609375 1149.183594 Z M 183.417969 1199.964844 L 234.226562 1250.746094 L 285.300781 1200.003906 L 234.199219 1149.160156 Z M 234.199219 1149.160156 L 276.890625 1106.875 C 263.175781 1099.851562 249.5 1090.53125 236.410156 1078.648438 C 218.925781 1092.71875 202.832031 1100.160156 187.855469 1102.546875 Z M 285.300781 1200.003906 L 336.226562 1250.960938 L 387.007812 1200.152344 L 336.199219 1149.375 Z M 336.199219 1149.375 L 349.992188 1135.644531 C 348.285156 1135.175781 346.671875 1134.679688 344.964844 1134.109375 C 344.402344 1133.921875 343.832031 1133.636719 343.273438 1133.441406 C 340.914062 1132.628906 338.5 1131.921875 336.144531 1131 C 335.691406 1130.824219 335.195312 1130.566406 334.742188 1130.398438 C 328.132812 1127.753906 321.410156 1124.667969 314.851562 1121.101562 C 313.996094 1120.789062 313.023438 1120.398438 312.164062 1120.070312 C 309.84375 1119.519531 307.542969 1118.949219 305.203125 1118.273438 L 336.199219 1149.371094 Z M 387.007812 1200.152344 L 437.8125 1250.933594 L 488.710938 1200.300781 L 437.785156 1149.34375 Z M 437.785156 1149.34375 L 446.347656 1140.769531 C 441.484375 1141.59375 436.527344 1142.394531 431.355469 1142.921875 Z M 488.710938 1200.300781 L 539.519531 1251.082031 L 590.300781 1200.277344 L 556.003906 1166.027344 C 549.660156 1161.859375 543.246094 1157.292969 536.753906 1152.277344 Z M 590.296875 1200.300781 L 641.398438 1251.144531 L 687.417969 1205.441406 C 680.25 1206.328125 672.757812 1206.726562 664.933594 1206.148438 C 651.34375 1205.136719 636.824219 1201.507812 621.695312 1195.84375 C 615.058594 1194.226562 608.132812 1192.101562 601.179688 1189.472656 L 590.296875 1200.304688 Z M 641.398438 1251.144531 L 590.148438 1302.003906 L 641.246094 1352.84375 L 692.144531 1302.214844 Z M 692.144531 1302.214844 L 742.953125 1352.996094 L 793.847656 1302.367188 L 743.101562 1251.296875 Z M 743.101562 1251.296875 L 764.6875 1229.746094 C 744.746094 1223.855469 724.558594 1214.855469 705.191406 1201.738281 C 702.117188 1202.664062 699.164062 1203.542969 695.945312 1204.203125 Z M 793.847656 1302.367188 L 824.839844 1333.464844 L 847.820312 1254.53125 L 844.808594 1251.441406 L 793.847656 1302.363281 Z M 844.808594 1251.445312 L 850.457031 1245.765625 L 851.070312 1243.605469 C 846.59375 1243.9375 842.199219 1244.261719 837.625 1244.253906 L 844.808594 1251.449219 Z M 742.957031 1352.996094 L 692.175781 1403.804688 L 742.804688 1454.699219 L 793.878906 1403.953125 Z M 793.878906 1403.953125 L 802.042969 1412.277344 L 808.863281 1388.949219 Z M 742.804688 1454.699219 L 691.960938 1505.796875 L 742.769531 1556.578125 L 767.089844 1532.246094 L 779.246094 1491.089844 Z M 742.738281 1556.574219 L 691.957031 1607.378906 L 733.144531 1648.761719 L 755.941406 1569.953125 L 742.738281 1556.578125 Z M 691.957031 1607.378906 L 641.03125 1556.421875 L 590.074219 1607.34375 L 640.996094 1658.300781 Z M 640.996094 1658.300781 L 589.921875 1709.046875 L 640.960938 1760.179688 L 691.804688 1709.082031 Z M 691.804688 1709.082031 L 710.34375 1727.574219 L 725.28125 1675.539062 Z M 640.960938 1760.179688 L 589.710938 1811.039062 L 640.8125 1861.878906 L 683.625 1819.011719 L 687.074219 1806.4375 Z M 640.8125 1861.878906 L 589.738281 1912.625 L 640.660156 1963.582031 L 642.03125 1962.191406 L 664.277344 1885.25 Z M 640.664062 1963.578125 L 589.589844 2014.320312 L 618.503906 2042.984375 L 641.300781 1964.175781 L 640.664062 1963.582031 Z M 589.589844 2014.320312 L 538.667969 1963.367188 L 487.886719 2014.171875 L 538.695312 2064.953125 Z M 538.695312 2064.953125 L 487.734375 2115.875 L 538.480469 2166.945312 L 589.4375 2116.023438 Z M 589.4375 2116.023438 L 595.523438 2121.914062 L 600.382812 2104.898438 Z M 538.480469 2166.945312 L 487.699219 2217.75 L 538.507812 2268.53125 L 558.722656 2248.371094 L 572.664062 2201.019531 Z M 538.480469 2268.53125 L 495.667969 2311.402344 L 502.933594 2334.675781 L 526.628906 2358.398438 L 549.660156 2279.945312 Z M 487.671875 2217.75 L 456.449219 2186.300781 L 471.382812 2233.851562 Z M 487.742188 2115.875 L 436.996094 2064.800781 L 422.960938 2078.941406 L 447.246094 2156.488281 Z M 436.996094 2064.800781 L 487.890625 2014.175781 L 436.96875 1963.214844 L 398.792969 2001.570312 L 409.996094 2037.925781 Z M 436.996094 1963.21875 L 488.070312 1912.472656 L 437.148438 1861.515625 L 386.367188 1912.324219 Z M 386.367188 1912.324219 L 363.769531 1889.90625 L 374.535156 1924.023438 Z M 437.148438 1861.515625 L 488.042969 1810.886719 L 437.183594 1759.640625 L 386.339844 1810.738281 Z M 386.339844 1810.738281 L 335.707031 1759.84375 L 326.195312 1769.285156 L 350.363281 1846.65625 L 386.339844 1810.742188 Z M 335.707031 1759.84375 L 386.550781 1708.742188 L 335.742188 1657.964844 L 301.910156 1691.738281 L 317.285156 1741.527344 Z M 335.777344 1657.96875 L 386.734375 1607.042969 L 335.925781 1556.265625 L 285.03125 1606.894531 Z M 285.03125 1606.894531 L 270.945312 1593.332031 L 277.773438 1614.371094 Z M 335.925781 1556.265625 L 386.707031 1505.460938 L 336.078125 1454.566406 L 285.003906 1505.308594 Z M 285.003906 1505.308594 L 234.078125 1454.351562 L 229.203125 1459.277344 L 253.488281 1536.824219 Z M 234.078125 1454.351562 L 285.152344 1403.609375 L 234.117188 1352.472656 L 205.097656 1381.613281 L 224.867188 1445.195312 Z M 234.148438 1352.46875 L 285.222656 1301.726562 L 234.296875 1250.769531 L 183.339844 1301.691406 Z M 183.339844 1301.691406 L 178.300781 1296.636719 L 180.960938 1304.242188 Z M 285.21875 1301.757812 L 336.140625 1352.714844 L 386.921875 1301.910156 L 336.292969 1251.015625 Z M 386.921875 1301.90625 L 437.730469 1352.6875 L 488.625 1302.058594 L 437.878906 1250.984375 Z M 488.625 1302.058594 L 539.429688 1352.835938 L 590.214844 1302.03125 L 539.582031 1251.136719 Z M 539.429688 1352.835938 L 488.652344 1403.640625 L 539.398438 1454.714844 L 590.179688 1403.910156 Z M 590.179688 1403.910156 L 641.277344 1454.75 L 692.238281 1403.828125 L 641.3125 1352.871094 Z M 641.277344 1454.75 L 590.140625 1505.785156 L 641.128906 1556.449219 L 692.023438 1505.824219 Z M 590.140625 1505.785156 L 539.398438 1454.714844 L 488.4375 1505.636719 L 539.246094 1556.414062 Z M 539.246094 1556.414062 L 488.464844 1607.222656 L 539.09375 1658.117188 L 590.167969 1607.371094 Z M 539.097656 1658.117188 L 488.316406 1708.921875 L 539.0625 1759.996094 L 590.019531 1709.074219 Z M 539.027344 1759.996094 L 488.070312 1810.917969 L 538.878906 1861.699219 L 589.773438 1811.070312 Z M 538.878906 1861.695312 L 488.097656 1912.503906 L 538.730469 1963.398438 L 589.804688 1912.65625 Z M 488.285156 1708.921875 L 437.363281 1657.964844 L 386.582031 1708.769531 L 437.210938 1759.664062 Z M 437.363281 1657.964844 L 488.4375 1607.222656 L 437.511719 1556.261719 L 386.730469 1607.070312 Z M 437.511719 1556.265625 L 488.40625 1505.636719 L 437.546875 1454.386719 L 386.703125 1505.484375 Z M 437.578125 1454.382812 L 488.652344 1403.636719 L 437.730469 1352.683594 L 386.949219 1403.488281 Z M 386.949219 1403.488281 L 336.140625 1352.707031 L 285.183594 1403.628906 L 336.105469 1454.585938 Z M 386.949219 1403.488281 "/>
<path style=" stroke:none;fill-rule:nonzero;fill:rgb(100%,100%,100%);fill-opacity:1;" d="M 506.71875 16.6875 C 536.292969 41.347656 526.539062 15.339844 602.972656 100.355469 C 616.480469 109.609375 619.96875 123.078125 627.019531 137.207031 C 628.914062 141 634.832031 144.351562 636.925781 148.550781 C 639.472656 153.652344 635.917969 160.296875 639.746094 164.132812 C 653.777344 178.195312 691.527344 219.109375 696.34375 233.597656 C 699.261719 242.386719 696.25 250.496094 700.570312 259.101562 C 704.027344 266.035156 716.570312 275.132812 720.382812 278.949219 C 725.667969 284.246094 736.96875 312.203125 740.175781 318.632812 C 744.84375 327.988281 739.917969 339.398438 744.398438 348.382812 C 750.023438 359.664062 759.671875 370.769531 768.449219 379.570312 C 777.222656 388.355469 785.746094 416.746094 795.324219 426.34375 C 806.199219 437.238281 808.851562 490.519531 825.003906 498.609375 L 840.546875 539.703125 C 862.976562 574.527344 873.332031 636.164062 889.261719 669.035156 C 1015.027344 680.785156 992.246094 795.8125 993.261719 835.898438 C 981.8125 874.640625 924.769531 944.945312 875.550781 973.191406 C 924.457031 1127.105469 774.214844 1165.011719 668.652344 1117.207031 C 595.617188 1130.34375 487.765625 1082.40625 481.621094 1069.023438 C 457.882812 1085.484375 361.101562 1129.492188 273.269531 1069.832031 L 231.035156 1050.480469 C 141.195312 1142.984375 73.878906 1008.53125 42.625 945.496094 C -5.597656 848.230469 -6.472656 799.746094 57.007812 718.859375 C 77.449219 708.773438 67.269531 685.199219 79.941406 672.550781 C 81.777344 670.71875 91.605469 663.417969 92.476562 660.816406 C 95.195312 652.675781 100.941406 641.046875 106.664062 635.332031 C 108.636719 633.367188 107.253906 629.078125 109.503906 626.832031 C 124.535156 611.832031 132.242188 589.390625 149.292969 572.371094 C 159.5625 562.121094 182.300781 549.683594 188.746094 536.820312 C 195.714844 522.917969 187.285156 504.164062 194.628906 489.511719 C 203.546875 471.71875 200.398438 448.3125 208.851562 431.445312 C 210.554688 428.046875 207.160156 422.09375 208.851562 418.695312 C 216.820312 402.792969 225.3125 380.761719 231.566406 362.054688 C 232.988281 357.804688 240.894531 340.851562 243.769531 337.988281 C 250.457031 331.308594 272.113281 279.085938 274.074219 278.105469 C 287.367188 271.476562 298.148438 234.75 309.609375 223.308594 C 312.746094 220.175781 311.457031 214.390625 313.871094 211.980469 C 325.898438 199.976562 357.367188 161.96875 364.917969 158.199219 Z M 506.71875 16.6875 "/>
<path style=" stroke:none;fill-rule:nonzero;fill:url(#linear4);" d="M 657.027344 811.40625 C 562.089844 755.132812 484.726562 679.144531 618.496094 583.964844 C 695.246094 529.351562 727.003906 477.363281 725.722656 420.59375 C 724.574219 370.484375 728.726562 430.542969 728.726562 430.542969 C 766.136719 533.207031 702.203125 632.660156 658.886719 722.984375 C 646.65625 748.492188 645.015625 789.226562 656.125 807.277344 C 656.125 807.277344 719.355469 848.355469 657.027344 811.414062 Z M 657.027344 811.40625 "/>
<path style=" stroke:none;fill-rule:nonzero;fill:url(#linear5);" d="M 273.265625 1069.835938 C 275.996094 1071.691406 278.730469 1073.445312 281.476562 1075.101562 C 367.035156 1126.792969 458.617188 1084.980469 481.617188 1069.03125 L 483.078125 1056.40625 C 521.03125 1058.195312 553.003906 1009.277344 515.585938 984.617188 C 440.28125 934.980469 367.597656 924.203125 288.976562 878.847656 C 183.109375 817.777344 189.21875 740.507812 232.714844 659.546875 C 268.253906 581.136719 326.902344 562.984375 380.160156 530.777344 C 394.808594 503.433594 418.59375 482.195312 432.953125 453.742188 C 488.351562 343.972656 448.105469 218.785156 485.386719 105.914062 C 500.78125 76.183594 530.402344 46.464844 499.636719 16.6875 C 426.925781 92.191406 365.296875 153.601562 363.179688 285.535156 C 360.078125 478.691406 156.210938 489.167969 75.269531 683.960938 C 5.855469 851 145.265625 884.222656 311.816406 950.414062 C 457.332031 1008.242188 381.007812 1100.796875 284 1073.6875 Z M 273.265625 1069.835938 "/>
<path style=" stroke:none;fill-rule:nonzero;fill:url(#linear6);" d="M 993.261719 835.917969 C 981.8125 874.65625 924.769531 944.960938 875.550781 973.207031 C 875.550781 973.207031 930.085938 1095.992188 874.152344 974.882812 C 862.453125 949.546875 842.351562 923.03125 812 896.589844 C 789.402344 876.902344 720.148438 848.664062 658.089844 812.023438 L 656.136719 807.265625 C 645.027344 789.21875 646.667969 748.484375 658.902344 722.976562 C 702.214844 632.648438 766.15625 533.203125 728.738281 430.53125 L 725.542969 432.007812 C 728.609375 378.648438 701.136719 321.417969 653.386719 253.96875 C 619.433594 188.71875 557.445312 141.003906 533.59375 70.542969 L 508.136719 23.773438 C 610.15625 96.835938 693.453125 209.25 731.074219 307.53125 C 773.128906 417.390625 864.621094 498.085938 840.917969 649.660156 C 824.496094 754.660156 978.292969 902.707031 996.386719 827.074219 C 999.398438 814.484375 993.261719 835.910156 993.261719 835.910156 Z M 993.261719 835.917969 "/>
<path style=" stroke:none;fill-rule:nonzero;fill:url(#linear7);" d="M 839.769531 670.917969 C 839.457031 663.6875 839.769531 656.570312 840.882812 649.636719 C 848.042969 603.855469 844.691406 564.539062 835.367188 528.933594 L 840.519531 539.695312 C 862.949219 574.515625 873.300781 636.152344 889.234375 669.023438 C 889.234375 669.023438 906.046875 669.289062 889.941406 668.433594 C 868.769531 667.304688 846.644531 667.996094 842.554688 670.03125 Z M 839.769531 670.917969 "/>
<path style=" stroke:none;fill-rule:nonzero;fill:url(#linear8);" d="M 267.714844 933.207031 C 282.113281 938.746094 296.863281 944.429688 311.832031 950.378906 C 503.042969 1026.363281 311.214844 1162.320312 192.734375 1007.941406 L 196.992188 1000.863281 C 220.628906 979.34375 254.074219 966.148438 266.457031 941.433594 Z M 267.714844 933.207031 "/>
<path style=" stroke:none;fill-rule:nonzero;fill:url(#linear9);" d="M 670.164062 970.175781 C 669.839844 905.214844 206.234375 789.675781 508.507812 617.847656 C 737.28125 487.796875 535.867188 255.097656 523.679688 81.867188 L 513.789062 53.527344 C 451.3125 176.285156 574.929688 312.097656 516.886719 433.644531 C 456.113281 560.90625 208.800781 535.097656 232.207031 705.933594 C 251.753906 848.621094 457.847656 867.035156 569.21875 904.285156 C 641.90625 934.277344 670.160156 970.179688 670.160156 970.179688 Z M 670.164062 970.175781 "/>
<path style=" stroke:none;fill-rule:nonzero;fill:url(#linear10);" d="M 859.675781 738.285156 C 867.082031 735.136719 884.3125 716.234375 895.203125 705.277344 C 897.359375 699.457031 895.742188 693.371094 892.363281 689.980469 L 928.273438 674.363281 C 912.878906 667.039062 849.773438 666.4375 842.578125 670.03125 C 841.34375 694.164062 847.558594 716.8125 859.679688 738.285156 Z M 859.675781 738.285156 "/>
<path style=" stroke:none;fill-rule:nonzero;fill:url(#linear11);" d="M 859.675781 738.285156 C 867.082031 735.136719 884.3125 716.234375 895.203125 705.277344 C 897.359375 699.457031 895.742188 693.371094 892.363281 689.980469 L 889.976562 691.3125 C 925.898438 646.722656 975.355469 692.558594 992.722656 769.488281 C 1024.332031 909.515625 908.363281 837.558594 859.960938 741.183594 Z M 859.675781 738.285156 "/>
<path style=" stroke:none;fill-rule:nonzero;fill:url(#linear12);" d="M 513.761719 53.519531 C 451.285156 176.273438 574.902344 312.089844 516.859375 433.632812 C 456.085938 560.898438 208.773438 535.089844 232.179688 705.921875 C 251.726562 848.609375 457.816406 867.027344 569.1875 904.277344 C 794.824219 979.742188 686.796875 1238.199219 475.976562 1062.066406 L 481.605469 1069.03125 L 483.066406 1056.40625 C 521.019531 1058.199219 552.992188 1009.28125 515.574219 984.617188 C 440.269531 934.980469 367.585938 924.203125 288.964844 878.847656 C 183.097656 817.777344 189.207031 740.507812 232.703125 659.546875 C 268.242188 581.136719 326.890625 562.984375 380.148438 530.777344 C 394.796875 503.433594 418.582031 482.195312 432.941406 453.742188 C 488.339844 343.972656 448.09375 218.789062 485.375 105.917969 C 500.769531 76.183594 511.28125 47.863281 511.28125 47.863281 Z M 513.761719 53.519531 "/>
<path style=" stroke:none;fill-rule:nonzero;fill:url(#linear13);" d="M 265.277344 932.261719 C 131.269531 880.734375 28.492188 841.257812 64.152344 715.414062 C 66.972656 705.46875 56.996094 718.820312 56.996094 718.820312 C -6.480469 799.707031 -5.609375 848.191406 42.617188 945.453125 C 73.871094 1008.492188 141.183594 1142.941406 231.023438 1050.4375 L 228.601562 1044.773438 C 216.230469 1034.976562 204.132812 1022.796875 192.714844 1007.921875 L 196.972656 1000.839844 C 220.609375 979.320312 254.054688 966.125 266.4375 941.410156 Z M 265.277344 932.261719 "/>
<path style=" stroke:none;fill-rule:nonzero;fill:url(#linear14);" d="M 196.621094 527.046875 C 277.828125 457.445312 361.203125 408.515625 363.179688 285.53125 C 364.386719 210.222656 384.984375 157.894531 415.960938 112.808594 L 411.722656 110.089844 C 270.695312 242.746094 210.089844 401.609375 193.183594 520.679688 C 193.183594 520.679688 150.296875 566.757812 196.625 527.050781 Z M 196.621094 527.046875 "/>
<path style=" stroke:none;fill-rule:nonzero;fill:url(#linear15);" d="M 659.332031 1105.109375 C 699.714844 1078.496094 708.414062 1018.738281 669.777344 967.683594 L 670.121094 970.183594 C 669.796875 905.222656 206.191406 789.679688 508.457031 617.851562 C 737.230469 487.804688 535.820312 255.105469 523.628906 81.875 L 533.558594 67.316406 C 557.414062 137.777344 619.402344 185.488281 653.351562 250.742188 C 747.972656 384.398438 762.976562 477.90625 618.476562 580.730469 C 396.898438 738.394531 754.621094 843.40625 811.96875 893.359375 C 987.417969 1046.195312 820.296875 1201.660156 668.566406 1115.6875 Z M 659.332031 1105.109375 "/>
<path style=" stroke:none;fill-rule:nonzero;fill:url(#linear16);" d="M 498.59375 8.5625 C 496.785156 8.820312 495.074219 9.71875 493.835938 11.066406 C 464.609375 41.410156 436.816406 70.074219 413.867188 102.140625 C 412.976562 101.898438 412.035156 101.816406 411.113281 101.890625 C 409.332031 102.085938 407.628906 102.886719 406.351562 104.140625 C 263.835938 238.203125 202.488281 398.878906 185.34375 519.617188 C 184.800781 521.617188 185.074219 523.824219 186.089844 525.628906 C 141.101562 564.757812 96.675781 611.160156 67.746094 680.773438 C 63.417969 691.1875 60.007812 701.261719 57.199219 710.8125 C 56.777344 710.746094 56.363281 710.746094 55.945312 710.8125 C 53.894531 711.085938 51.964844 712.183594 50.683594 713.8125 C 18.453125 754.882812 1.789062 789.132812 -0.0078125 825.699219 C 1.242188 842.136719 16.261719 845.796875 16.019531 826.46875 C 17.367188 799.023438 27.972656 772.660156 50.410156 740.863281 C 48.007812 758.214844 48.515625 773.949219 51.617188 788.441406 C 57.96875 818.148438 75.652344 841.84375 100.128906 861.359375 C 149.089844 900.382812 225.894531 924.730469 308.890625 957.710938 C 355.5 976.234375 377.085938 998.121094 382.960938 1015.625 C 388.835938 1033.128906 381.347656 1047.96875 364.136719 1058.679688 C 329.722656 1080.097656 256.445312 1077.8125 199.164062 1003.183594 C 196.609375 999.835938 191.242188 999.113281 187.894531 1001.667969 C 184.550781 1004.222656 183.828125 1009.589844 186.382812 1012.9375 C 247.585938 1092.679688 329.328125 1099.414062 372.640625 1072.457031 C 394.296875 1058.980469 406.472656 1035.164062 398.238281 1010.632812 C 390.007812 986.097656 363.65625 962.410156 314.664062 942.941406 C 231.097656 909.734375 155.191406 884.488281 110.160156 848.59375 C 87.644531 830.648438 72.867188 810.519531 67.398438 784.949219 C 61.929688 759.378906 65.816406 727.847656 82.769531 687.054688 C 122.34375 591.816406 191.703125 541.515625 253.492188 490.140625 C 315.273438 438.769531 369.535156 385.058594 371.125 285.667969 C 373.160156 159.019531 430.246094 100.339844 500.835938 27.117188 C 501.433594 28.421875 502.417969 29.550781 503.585938 30.375 C 604.117188 102.371094 686.753906 213.792969 723.695312 310.292969 C 745.183594 366.421875 778.644531 414.316406 803.433594 466.375 C 828.21875 518.429688 844.636719 574.4375 833.0625 648.453125 C 827.878906 681.601562 838.15625 717.316406 855.253906 749.636719 C 872.355469 781.957031 896.304688 810.976562 920.039062 830.578125 C 931.902344 840.378906 943.773438 847.898438 955.074219 852.144531 C 966.375 856.394531 977.675781 857.5625 987.378906 852.675781 C 997.082031 847.789062 1003.15625 837.089844 1005.1875 823.144531 C 1006.636719 812.691406 991.800781 806.726562 989.414062 820.875 C 987.835938 831.703125 984.214844 836.335938 980.132812 838.394531 C 976.046875 840.449219 969.472656 840.457031 960.597656 837.125 C 951.726562 833.789062 941.214844 827.066406 930.316406 818.0625 C 908.515625 800.058594 885.585938 772.464844 869.535156 742.132812 C 853.488281 711.800781 844.445312 679.050781 848.835938 650.960938 C 860.964844 573.414062 843.511719 513.019531 817.964844 459.371094 C 792.417969 405.722656 759.046875 358.273438 738.476562 304.542969 C 700.171875 204.480469 616.375 91.230469 512.871094 17.109375 C 511.363281 16.015625 509.46875 15.472656 507.613281 15.601562 C 507.132812 11.390625 502.800781 8.03125 498.601562 8.582031 Z M 512.582031 45.386719 C 510.007812 45.785156 507.679688 47.53125 506.570312 49.886719 C 473.820312 114.234375 490.03125 181.425781 505.886719 245.960938 C 521.738281 310.496094 537.289062 372.535156 509.722656 430.265625 C 481.246094 489.894531 406.699219 514.953125 339.574219 546.050781 C 306.019531 561.597656 274.300781 578.714844 252.125 603.8125 C 229.949219 628.910156 218.125 662.394531 224.230469 706.953125 C 229.371094 744.476562 247.09375 774.265625 271.976562 797.644531 C 296.859375 821.027344 328.824219 838.296875 363.328125 852.070312 C 432.332031 879.613281 511.957031 893.582031 566.609375 911.859375 C 676.453125 948.59375 701.773438 1027.171875 679.144531 1073.976562 C 667.832031 1097.378906 644.636719 1113.636719 610.992188 1114.230469 C 577.347656 1114.824219 532.785156 1098.960938 481.082031 1055.761719 C 477.808594 1053.070312 472.378906 1053.601562 469.6875 1056.878906 C 466.996094 1060.152344 467.527344 1065.582031 470.804688 1068.273438 C 524.507812 1113.140625 572.628906 1130.941406 611.480469 1130.257812 C 630.417969 1129.925781 647.125 1125.039062 660.824219 1116.78125 C 659.941406 1120.164062 661.554688 1124.039062 664.570312 1125.800781 C 743.34375 1170.429688 827.570312 1153.089844 869.1875 1102.453125 C 890 1077.132812 899.871094 1043.246094 892.820312 1006.320312 C 885.765625 969.390625 862.144531 929.621094 817.296875 890.558594 C 800.902344 876.269531 768.003906 860.933594 729.949219 841.644531 C 691.894531 822.355469 649.242188 799.683594 615.574219 774.175781 C 581.902344 748.667969 557.957031 720.621094 555.046875 691.480469 C 552.140625 662.34375 569.035156 628.960938 623.257812 590.378906 C 696.550781 538.226562 730.964844 486.929688 733.589844 430.964844 C 736.207031 375.222656 707.761719 317.15625 660.386719 250.097656 C 660.21875 249.84375 660 249.625 659.898438 249.34375 C 624.773438 182.398438 563.882812 135.167969 541.121094 67.933594 C 539.988281 64.359375 536.074219 61.894531 532.363281 62.417969 C 527.78125 63.175781 524.582031 68.539062 526.089844 72.929688 C 550.945312 146.34375 613.519531 194.46875 646.367188 257.59375 L 646.617188 258.097656 L 646.867188 258.597656 C 693.78125 324.867188 719.914062 380.285156 717.574219 430.195312 C 715.230469 480.109375 684.96875 526.675781 613.765625 577.339844 C 557.199219 617.589844 535.644531 656.507812 539.28125 692.957031 C 542.917969 729.414062 570.570312 760.230469 605.804688 786.925781 C 641.039062 813.621094 684.460938 836.523438 722.6875 855.898438 C 760.910156 875.273438 794.511719 891.859375 806.785156 902.550781 C 849.664062 939.90625 870.839844 976.769531 877.050781 1009.296875 C 883.261719 1041.816406 874.691406 1070.257812 856.6875 1092.160156 C 820.679688 1135.972656 745.582031 1153.113281 672.613281 1111.769531 C 671.691406 1111.242188 670.664062 1110.898438 669.609375 1110.765625 C 679.789062 1102.75 687.859375 1092.507812 693.429688 1080.988281 C 721.109375 1023.730469 687.441406 935.296875 571.652344 896.574219 C 514.933594 877.605469 436.136719 863.6875 369.371094 837.035156 C 335.984375 823.710938 305.761719 807.238281 283.023438 785.871094 C 260.285156 764.503906 244.660156 738.515625 240.027344 704.699219 C 234.429688 663.847656 244.640625 636.664062 264.152344 614.578125 C 283.664062 592.492188 313.402344 575.828125 346.34375 560.570312 C 412.222656 530.046875 491.710938 504.671875 524.003906 437.035156 C 554.480469 373.21875 537.261719 306.40625 521.433594 241.964844 C 505.605469 177.519531 491.132812 115.574219 520.851562 57.15625 C 523.714844 51.941406 518.476562 44.46875 512.597656 45.378906 Z M 387.527344 145.433594 C 368.257812 183.585938 356.011719 228.082031 355.09375 285.378906 C 353.589844 379.144531 304.382812 426.992188 243.226562 477.835938 C 230.191406 488.675781 216.566406 499.925781 202.878906 511.355469 C 220.125 403.988281 272.746094 266.289062 387.527344 145.421875 Z M 387.527344 145.433594 "/>
<path style=" stroke:none;fill-rule:nonzero;fill:url(#linear17);" d="M 509.96875 1.25 C 508.160156 1.507812 506.449219 2.40625 505.210938 3.753906 C 475.984375 34.097656 448.191406 62.761719 425.242188 94.828125 C 424.351562 94.585938 423.414062 94.503906 422.488281 94.578125 C 420.710938 94.777344 419.003906 95.574219 417.726562 96.828125 C 275.210938 230.890625 213.863281 391.566406 196.71875 512.304688 C 196.175781 514.304688 196.449219 516.511719 197.464844 518.316406 C 152.476562 557.445312 108.050781 603.847656 79.121094 673.460938 C 74.792969 683.875 71.382812 693.949219 68.574219 703.5 C 68.152344 703.433594 67.738281 703.433594 67.324219 703.5 C 65.269531 703.765625 63.335938 704.871094 62.058594 706.5 C 29.828125 747.570312 13.164062 781.820312 11.371094 818.386719 C 12.621094 834.824219 27.632812 838.484375 27.394531 819.15625 C 28.742188 791.710938 39.347656 765.347656 61.785156 733.550781 C 59.382812 750.902344 59.890625 766.636719 62.992188 781.128906 C 69.34375 810.835938 87.027344 834.53125 111.503906 854.046875 C 160.460938 893.074219 237.269531 917.421875 320.265625 950.398438 C 366.875 968.921875 388.460938 990.808594 394.335938 1008.3125 C 400.210938 1025.816406 392.722656 1040.65625 375.515625 1051.367188 C 341.097656 1072.785156 267.820312 1070.5 210.539062 995.871094 C 207.984375 992.527344 202.617188 991.804688 199.273438 994.359375 C 195.925781 996.914062 195.207031 1002.277344 197.757812 1005.625 C 258.960938 1085.367188 340.703125 1092.105469 384.015625 1065.148438 C 405.671875 1051.667969 417.847656 1027.851562 409.617188 1003.320312 C 401.382812 978.785156 375.03125 955.097656 326.039062 935.628906 C 242.472656 902.421875 166.566406 877.179688 121.535156 841.28125 C 99.019531 823.335938 84.242188 803.210938 78.773438 777.636719 C 73.304688 752.066406 77.191406 720.539062 94.140625 679.742188 C 133.71875 584.503906 203.078125 534.207031 264.859375 482.832031 C 326.644531 431.457031 380.902344 377.746094 382.5 278.355469 C 384.53125 151.714844 441.621094 93.027344 512.210938 19.804688 C 512.808594 21.109375 513.789062 22.238281 514.960938 23.0625 C 615.492188 95.058594 698.128906 206.480469 735.0625 302.980469 C 756.550781 359.109375 790.015625 407.003906 814.800781 459.0625 C 839.589844 511.117188 856.003906 567.125 844.433594 641.140625 C 839.246094 674.292969 849.523438 710.003906 866.621094 742.324219 C 883.722656 774.644531 907.671875 803.664062 931.40625 823.265625 C 943.273438 833.066406 955.144531 840.585938 966.445312 844.835938 C 977.746094 849.082031 989.046875 850.253906 998.746094 845.363281 C 1008.449219 840.476562 1014.523438 829.777344 1016.554688 815.832031 C 1018.003906 805.378906 1003.171875 799.414062 1000.78125 813.5625 C 999.203125 824.390625 995.582031 829.027344 991.5 831.082031 C 987.414062 833.140625 980.839844 833.148438 971.96875 829.8125 C 963.097656 826.476562 952.585938 819.757812 941.683594 810.753906 C 919.886719 792.746094 896.953125 765.152344 880.90625 734.820312 C 864.855469 704.492188 855.8125 671.738281 860.207031 643.648438 C 872.332031 566.101562 854.878906 505.707031 829.332031 452.058594 C 803.789062 398.410156 770.414062 350.960938 749.847656 297.230469 C 711.542969 197.171875 627.742188 83.921875 524.238281 9.796875 C 522.734375 8.703125 520.839844 8.160156 518.980469 8.289062 C 518.5 4.082031 514.171875 0.71875 509.972656 1.269531 Z M 523.957031 38.074219 C 521.382812 38.472656 519.054688 40.21875 517.941406 42.578125 C 485.195312 106.925781 501.40625 174.113281 517.261719 238.648438 C 533.113281 303.183594 548.660156 365.222656 521.097656 422.957031 C 492.621094 482.585938 418.074219 507.640625 350.949219 538.738281 C 317.394531 554.285156 285.675781 571.402344 263.5 596.5 C 241.324219 621.597656 229.5 655.082031 235.605469 699.640625 C 240.746094 737.167969 258.464844 766.953125 283.351562 790.339844 C 308.234375 813.722656 340.199219 830.992188 374.703125 844.765625 C 443.710938 872.308594 523.332031 886.277344 577.984375 904.554688 C 687.828125 941.289062 713.148438 1019.867188 690.523438 1066.671875 C 679.207031 1090.074219 656.011719 1106.332031 622.367188 1106.925781 C 588.726562 1107.519531 544.160156 1091.65625 492.457031 1048.457031 C 489.183594 1045.765625 483.753906 1046.296875 481.0625 1049.574219 C 478.371094 1052.847656 478.902344 1058.277344 482.179688 1060.96875 C 535.882812 1105.835938 584.003906 1123.636719 622.851562 1122.953125 C 641.792969 1122.621094 658.5 1117.734375 672.199219 1109.476562 C 671.316406 1112.859375 672.929688 1116.734375 675.945312 1118.496094 C 754.71875 1163.125 838.945312 1145.785156 880.558594 1095.148438 C 901.367188 1069.828125 911.242188 1035.941406 904.1875 999.011719 C 897.132812 962.085938 873.515625 922.316406 828.667969 883.25 C 812.269531 868.964844 779.371094 853.628906 741.320312 834.339844 C 703.265625 815.050781 660.605469 792.378906 626.941406 766.871094 C 593.273438 741.363281 569.328125 713.316406 566.417969 684.175781 C 563.507812 655.035156 580.40625 621.65625 634.625 583.074219 C 707.917969 530.921875 742.332031 479.625 744.960938 423.660156 C 747.578125 367.914062 719.128906 309.851562 671.757812 242.792969 C 671.585938 242.542969 671.371094 242.328125 671.261719 242.039062 C 636.136719 175.09375 575.246094 127.863281 552.484375 60.628906 C 551.351562 57.054688 547.4375 54.589844 543.722656 55.113281 C 539.144531 55.867188 535.945312 61.234375 537.453125 65.625 C 562.308594 139.039062 624.890625 187.164062 657.726562 250.289062 L 657.980469 250.792969 L 658.230469 251.292969 C 705.144531 317.5625 731.277344 372.976562 728.9375 422.890625 C 726.59375 472.804688 696.332031 519.363281 625.128906 570.035156 C 568.558594 610.285156 547.007812 649.199219 550.644531 685.652344 C 554.28125 722.105469 581.933594 752.925781 617.164062 779.621094 C 652.398438 806.316406 695.820312 829.21875 734.046875 848.589844 C 772.269531 867.96875 805.871094 884.554688 818.148438 895.246094 C 861.023438 932.601562 882.203125 969.464844 888.414062 1001.992188 C 894.625 1034.511719 886.054688 1062.953125 868.050781 1084.855469 C 832.042969 1128.667969 756.945312 1145.808594 683.976562 1104.464844 C 683.054688 1103.9375 682.027344 1103.59375 680.972656 1103.460938 C 691.152344 1095.441406 699.21875 1085.203125 704.789062 1073.683594 C 732.472656 1016.425781 698.800781 927.996094 583.011719 889.269531 C 526.296875 870.300781 447.496094 856.382812 380.730469 829.730469 C 347.347656 816.40625 317.121094 799.933594 294.386719 778.566406 C 271.644531 757.199219 256.023438 731.210938 251.390625 697.394531 C 245.792969 656.542969 256 629.359375 275.515625 607.273438 C 295.027344 585.1875 324.761719 568.523438 357.703125 553.261719 C 423.582031 522.738281 503.070312 497.363281 535.367188 429.730469 C 565.839844 365.914062 548.625 299.097656 532.796875 234.65625 C 516.96875 170.210938 502.492188 108.265625 532.214844 49.851562 C 535.078125 44.636719 529.839844 37.160156 523.960938 38.074219 Z M 398.902344 138.121094 C 379.632812 176.273438 367.386719 220.761719 366.464844 278.066406 C 364.960938 371.832031 315.757812 419.679688 254.601562 470.53125 C 241.5625 481.371094 227.9375 492.621094 214.25 504.050781 C 231.496094 396.683594 284.117188 258.984375 398.902344 138.125 Z M 398.902344 138.121094 "/>
<path style=" stroke:none;fill-rule:nonzero;fill:url(#linear18);" d="M 517.347656 12.558594 C 515.539062 12.816406 513.828125 13.714844 512.589844 15.058594 C 483.367188 45.40625 455.570312 74.070312 432.621094 106.136719 C 431.730469 105.894531 430.792969 105.8125 429.867188 105.886719 C 428.089844 106.082031 426.382812 106.882812 425.105469 108.136719 C 282.589844 242.199219 221.242188 402.875 204.097656 523.613281 C 203.554688 525.613281 203.828125 527.816406 204.84375 529.625 C 159.855469 568.753906 115.429688 615.15625 86.5 684.769531 C 82.171875 695.183594 78.761719 705.257812 75.953125 714.808594 C 75.53125 714.742188 75.117188 714.742188 74.703125 714.808594 C 72.648438 715.082031 70.71875 716.179688 69.4375 717.808594 C 37.210938 758.878906 20.546875 793.128906 18.75 829.695312 C 20 846.132812 35.015625 849.792969 34.773438 830.464844 C 36.121094 803.019531 46.726562 776.65625 69.164062 744.855469 C 66.761719 762.207031 67.269531 777.941406 70.371094 792.4375 C 76.722656 822.144531 94.40625 845.839844 118.882812 865.355469 C 167.84375 904.378906 244.648438 928.726562 327.644531 961.710938 C 374.257812 980.234375 395.839844 1002.121094 401.714844 1019.625 C 407.589844 1037.132812 400.101562 1051.96875 382.894531 1062.679688 C 348.476562 1084.101562 275.199219 1081.8125 217.917969 1007.183594 C 215.363281 1003.839844 209.996094 1003.117188 206.652344 1005.671875 C 203.304688 1008.226562 202.585938 1013.59375 205.136719 1016.9375 C 266.34375 1096.679688 348.082031 1103.417969 391.394531 1076.460938 C 413.050781 1062.984375 425.226562 1039.167969 416.996094 1014.632812 C 408.757812 990.101562 382.410156 966.414062 333.417969 946.941406 C 249.851562 913.734375 173.945312 888.492188 128.914062 852.597656 C 106.398438 834.648438 91.621094 814.523438 86.152344 788.953125 C 80.683594 763.382812 84.570312 731.851562 101.519531 691.058594 C 141.097656 595.816406 210.460938 545.519531 272.238281 494.144531 C 334.023438 442.773438 388.28125 389.058594 389.878906 289.667969 C 391.910156 163.027344 449 104.339844 519.589844 31.117188 C 520.1875 32.425781 521.171875 33.554688 522.339844 34.375 C 622.871094 106.375 705.507812 217.796875 742.449219 314.296875 C 763.9375 370.425781 797.398438 418.324219 822.1875 470.375 C 846.976562 522.433594 863.390625 578.441406 851.816406 652.453125 C 846.632812 685.605469 856.910156 721.316406 874.007812 753.640625 C 891.109375 785.960938 915.058594 814.980469 938.792969 834.582031 C 950.660156 844.382812 962.527344 851.902344 973.832031 856.148438 C 985.128906 860.398438 996.433594 861.566406 1006.132812 856.675781 C 1015.835938 851.792969 1021.910156 841.089844 1023.941406 827.144531 C 1025.390625 816.695312 1010.558594 810.730469 1008.167969 824.875 C 1006.589844 835.707031 1002.96875 840.339844 998.886719 842.398438 C 994.800781 844.453125 988.226562 844.460938 979.351562 841.125 C 970.484375 837.792969 959.96875 831.070312 949.070312 822.066406 C 927.273438 804.058594 904.339844 776.464844 888.289062 746.136719 C 872.242188 715.804688 863.199219 683.054688 867.589844 654.964844 C 879.71875 577.414062 862.265625 517.023438 836.71875 463.375 C 811.175781 409.722656 777.800781 362.277344 757.230469 308.546875 C 718.925781 208.484375 635.128906 95.234375 531.625 21.113281 C 530.117188 20.019531 528.222656 19.476562 526.367188 19.605469 C 525.878906 15.394531 521.558594 12.03125 517.359375 12.585938 Z M 531.335938 49.378906 C 528.761719 49.78125 526.433594 51.523438 525.324219 53.882812 C 492.578125 118.230469 508.785156 185.421875 524.644531 249.957031 C 540.492188 314.492188 556.042969 376.53125 528.480469 434.261719 C 500.003906 493.890625 425.457031 518.949219 358.335938 550.042969 C 324.777344 565.59375 293.0625 582.707031 270.886719 607.808594 C 248.710938 632.90625 236.886719 666.390625 242.996094 710.949219 C 248.132812 748.472656 265.855469 778.261719 290.738281 801.640625 C 315.621094 825.023438 347.585938 842.292969 382.089844 856.066406 C 451.097656 883.609375 530.71875 897.574219 585.371094 915.855469 C 695.214844 952.589844 720.535156 1031.167969 697.910156 1077.972656 C 686.59375 1101.375 663.398438 1117.632812 629.753906 1118.226562 C 596.113281 1118.820312 551.546875 1102.957031 499.84375 1059.757812 C 496.570312 1057.066406 491.140625 1057.597656 488.449219 1060.875 C 485.757812 1064.148438 486.289062 1069.578125 489.566406 1072.269531 C 543.269531 1117.136719 591.390625 1134.9375 630.242188 1134.253906 C 649.179688 1133.921875 665.886719 1129.035156 679.585938 1120.777344 C 678.703125 1124.160156 680.320312 1128.035156 683.335938 1129.792969 C 762.105469 1174.425781 846.332031 1157.085938 887.945312 1106.449219 C 908.757812 1081.128906 918.628906 1047.242188 911.578125 1010.3125 C 904.519531 973.382812 880.902344 933.617188 836.054688 894.550781 C 819.660156 880.265625 786.761719 864.929688 748.707031 845.640625 C 710.652344 826.351562 668 803.679688 634.332031 778.171875 C 600.660156 752.660156 576.714844 724.617188 573.804688 695.476562 C 570.898438 666.335938 587.792969 632.957031 642.011719 594.371094 C 715.304688 542.222656 749.722656 490.925781 752.347656 434.960938 C 754.964844 379.214844 726.519531 321.148438 679.144531 254.09375 C 678.972656 253.84375 678.757812 253.621094 678.648438 253.339844 C 643.523438 186.394531 582.632812 139.164062 559.871094 71.929688 C 558.738281 68.355469 554.824219 65.890625 551.113281 66.414062 C 546.53125 67.171875 543.332031 72.535156 544.839844 76.925781 C 569.695312 150.339844 632.277344 198.464844 665.113281 261.589844 L 665.367188 262.09375 L 665.617188 262.59375 C 712.53125 328.863281 738.664062 384.28125 736.324219 434.191406 C 733.980469 484.105469 703.71875 530.664062 632.515625 581.335938 C 575.945312 621.585938 554.394531 660.503906 558.03125 696.953125 C 561.667969 733.410156 589.320312 764.226562 624.554688 790.921875 C 659.785156 817.617188 703.207031 840.519531 741.4375 859.894531 C 779.660156 879.269531 813.257812 895.855469 825.535156 906.550781 C 868.414062 943.902344 889.589844 980.765625 895.800781 1013.292969 C 902.015625 1045.8125 893.445312 1074.253906 875.441406 1096.15625 C 839.429688 1139.96875 764.332031 1157.109375 691.363281 1115.765625 C 690.441406 1115.238281 689.414062 1114.894531 688.363281 1114.761719 C 698.539062 1106.746094 706.609375 1096.503906 712.179688 1084.984375 C 739.859375 1027.726562 706.191406 939.296875 590.402344 900.570312 C 533.683594 881.601562 454.886719 867.683594 388.121094 841.03125 C 354.734375 827.707031 324.511719 811.234375 301.773438 789.867188 C 279.035156 768.5 263.410156 742.511719 258.777344 708.695312 C 253.179688 667.839844 263.390625 640.660156 282.902344 618.574219 C 302.417969 596.488281 332.152344 579.824219 365.09375 564.5625 C 430.972656 534.039062 510.460938 508.664062 542.757812 441.03125 C 573.230469 377.214844 556.015625 310.398438 540.1875 245.957031 C 524.355469 181.511719 509.882812 119.566406 539.601562 61.152344 C 542.46875 55.9375 537.230469 48.460938 531.351562 49.375 Z M 406.28125 149.429688 C 387.011719 187.582031 374.765625 232.070312 373.847656 289.375 C 372.34375 383.140625 323.136719 430.984375 261.980469 481.832031 C 248.945312 492.671875 235.316406 503.921875 221.632812 515.351562 C 238.875 407.984375 291.5 270.285156 406.28125 149.417969 Z M 406.28125 149.429688 "/>
</g>
</svg>
