<?xml version="1.0" encoding="UTF-8"?>
<svg xmlns="http://www.w3.org/2000/svg" xmlns:xlink="http://www.w3.org/1999/xlink" width="1024pt" height="1484pt" viewBox="0 0 1024 1484" version="1.1">
<g id="surface1">
<path style="fill:none;stroke-width:2;stroke-linecap:round;stroke-linejoin:round;stroke:rgb(38.039216%,38.039216%,38.039216%);stroke-opacity:1;stroke-miterlimit:4;" d="M 254.999997 347.380416 C 221.879825 347.380416 195.000461 354.100109 195.000461 362.38068 C 195.000461 362.659774 195.030248 362.90998 195.089822 363.190007 L 209.999996 507.380126 C 209.999996 515.659765 230.159635 522.379458 254.999997 522.379458 C 279.840359 522.379458 299.999998 515.659765 299.999998 507.380126 L 314.910173 363.190007 L 314.999533 362.38068 C 314.999533 354.100109 288.120169 347.380416 254.999997 347.380416 Z M 254.999997 347.380416 " transform="matrix(8.392969,0,0,8.383707,-1628.206953,-2903.780804)"/>
<path style=" stroke:none;fill-rule:nonzero;fill:rgb(100%,59.215686%,0.392157%);fill-opacity:1;" d="M 889.683594 1349.78125 C 889.683594 1419.226562 720.589844 1475.53125 512 1475.53125 C 303.410156 1475.53125 134.316406 1419.226562 134.316406 1349.78125 C 134.316406 1280.328125 303.410156 1224.023438 512 1224.023438 C 720.589844 1224.023438 889.683594 1280.328125 889.683594 1349.78125 Z M 889.683594 1349.78125 "/>
<path style=" stroke:none;fill-rule:nonzero;fill:rgb(82.745098%,86.666667%,89.803922%);fill-opacity:1;" d="M 8.425781 134.136719 L 1015.574219 134.136719 L 889.683594 1349.78125 L 134.316406 1349.78125 Z M 8.425781 134.136719 "/>
<path style="fill:none;stroke-width:2;stroke-linecap:round;stroke-linejoin:round;stroke:rgb(38.039216%,38.039216%,38.039216%);stroke-opacity:1;stroke-miterlimit:4;" d="M 314.999533 507.359722 C 314.999533 515.64402 288.136924 522.359986 254.999997 522.359986 C 221.86307 522.359986 195.000461 515.64402 195.000461 507.359722 C 195.000461 499.076356 221.86307 492.36039 254.999997 492.36039 C 288.136924 492.36039 314.999533 499.076356 314.999533 507.359722 Z M 314.999533 507.359722 " transform="matrix(8.392969,0,0,8.383707,-1628.206953,-4119.418338)"/>
<path style=" stroke:none;fill-rule:nonzero;fill:rgb(89.411765%,92.156863%,94.117647%);fill-opacity:1;" d="M 1015.574219 134.136719 C 1015.574219 203.589844 790.117188 259.894531 512 259.894531 C 233.882812 259.894531 8.425781 203.589844 8.425781 134.136719 C 8.425781 64.691406 233.882812 8.386719 512 8.386719 C 790.117188 8.386719 1015.574219 64.691406 1015.574219 134.136719 Z M 1015.574219 134.136719 "/>
<path style=" stroke:none;fill-rule:nonzero;fill:rgb(100%,59.215686%,0.392157%);fill-opacity:1;" d="M 92.351562 930.589844 L 931.648438 930.589844 L 889.683594 1349.78125 L 134.316406 1349.78125 Z M 92.351562 930.589844 "/>
<path style="fill:none;stroke-width:2;stroke-linecap:round;stroke-linejoin:round;stroke:rgb(38.039216%,38.039216%,38.039216%);stroke-opacity:1;stroke-miterlimit:4;" d="M 304.999998 457.359832 C 304.999998 462.882542 282.614258 467.360163 254.999997 467.360163 C 227.385736 467.360163 204.999996 462.882542 204.999996 457.359832 C 204.999996 451.837122 227.385736 447.359501 254.999997 447.359501 C 282.614258 447.359501 304.999998 451.837122 304.999998 457.359832 Z M 304.999998 457.359832 " transform="matrix(8.392969,0,0,8.383707,-1628.206953,-2903.780804)"/>
<path style=" stroke:none;fill-rule:nonzero;fill:rgb(100%,70.196078%,27.058824%);fill-opacity:1;" d="M 931.648438 930.589844 C 931.648438 976.890625 743.765625 1014.429688 512 1014.429688 C 280.234375 1014.429688 92.351562 976.890625 92.351562 930.589844 C 92.351562 884.289062 280.234375 846.75 512 846.75 C 743.765625 846.75 931.648438 884.289062 931.648438 930.589844 Z M 931.648438 930.589844 "/>
</g>
</svg>
