<?xml version="1.0" encoding="UTF-8"?>
<svg xmlns="http://www.w3.org/2000/svg" xmlns:xlink="http://www.w3.org/1999/xlink" width="480pt" height="696pt" viewBox="0 0 480 696" version="1.1">
<g id="surface1">
<path style="fill:none;stroke-width:2;stroke-linecap:round;stroke-linejoin:round;stroke:rgb(38.039216%,38.039216%,38.039216%);stroke-opacity:1;stroke-miterlimit:4;" d="M 255 347.380279 C 221.880014 347.380279 195.00037 354.100015 195.00037 362.38047 C 195.00037 362.659631 195.030157 362.909982 195.089731 363.190137 L 210.000029 507.380327 C 210.000029 515.659789 230.159762 522.379524 255 522.379524 C 279.840238 522.379524 299.999971 515.659789 299.999971 507.380327 L 314.910269 363.190137 L 314.99963 362.38047 C 314.99963 354.100015 288.119986 347.380279 255 347.380279 Z M 255 347.380279 " transform="matrix(3.934204,0,0,3.931981,-763.222009,-1361.881024)"/>
<path style=" stroke:none;fill-rule:nonzero;fill:rgb(100%,59.215686%,0.392157%);fill-opacity:1;" d="M 417.039062 633.050781 C 417.039062 665.621094 337.777344 692.027344 240 692.027344 C 142.222656 692.027344 62.960938 665.621094 62.960938 633.050781 C 62.960938 600.476562 142.222656 574.070312 240 574.070312 C 337.777344 574.070312 417.039062 600.476562 417.039062 633.050781 Z M 417.039062 633.050781 "/>
<path style=" stroke:none;fill-rule:nonzero;fill:rgb(82.745098%,86.666667%,89.803922%);fill-opacity:1;" d="M 3.949219 62.910156 L 476.050781 62.910156 L 417.039062 633.050781 L 62.960938 633.050781 Z M 3.949219 62.910156 "/>
<path style="fill:none;stroke-width:2;stroke-linecap:round;stroke-linejoin:round;stroke:rgb(38.039216%,38.039216%,38.039216%);stroke-opacity:1;stroke-miterlimit:4;" d="M 314.99963 507.359607 C 314.99963 515.644036 288.136866 522.359798 255 522.359798 C 221.863134 522.359798 195.00037 515.644036 195.00037 507.359607 C 195.00037 499.076172 221.863134 492.36041 255 492.36041 C 288.136866 492.36041 314.99963 499.076172 314.99963 507.359607 Z M 314.99963 507.359607 " transform="matrix(3.934204,0,0,3.931981,-763.222009,-1932.018304)"/>
<path style=" stroke:none;fill-rule:nonzero;fill:rgb(89.411765%,92.156863%,94.117647%);fill-opacity:1;" d="M 476.050781 62.910156 C 476.050781 95.484375 370.367188 121.890625 240 121.890625 C 109.632812 121.890625 3.949219 95.484375 3.949219 62.910156 C 3.949219 30.339844 109.632812 3.933594 240 3.933594 C 370.367188 3.933594 476.050781 30.339844 476.050781 62.910156 Z M 476.050781 62.910156 "/>
<path style=" stroke:none;fill-rule:nonzero;fill:rgb(100%,59.215686%,0.392157%);fill-opacity:1;" d="M 43.289062 436.449219 L 436.710938 436.449219 L 417.039062 633.050781 L 62.960938 633.050781 Z M 43.289062 436.449219 "/>
<path style="fill:none;stroke-width:2;stroke-linecap:round;stroke-linejoin:round;stroke:rgb(38.039216%,38.039216%,38.039216%);stroke-opacity:1;stroke-miterlimit:4;" d="M 305.000188 457.359822 C 305.000188 462.882444 282.614386 467.359949 255 467.359949 C 227.385614 467.359949 204.999812 462.882444 204.999812 457.359822 C 204.999812 451.837201 227.385614 447.359695 255 447.359695 C 282.614386 447.359695 305.000188 451.837201 305.000188 457.359822 Z M 305.000188 457.359822 " transform="matrix(3.934204,0,0,3.931981,-763.222009,-1361.881024)"/>
<path style=" stroke:none;fill-rule:nonzero;fill:rgb(100%,70.196078%,27.058824%);fill-opacity:1;" d="M 436.710938 436.449219 C 436.710938 458.164062 348.640625 475.769531 240 475.769531 C 131.359375 475.769531 43.289062 458.164062 43.289062 436.449219 C 43.289062 414.734375 131.359375 397.128906 240 397.128906 C 348.640625 397.128906 436.710938 414.734375 436.710938 436.449219 Z M 436.710938 436.449219 "/>
</g>
</svg>
