<?xml version="1.0" encoding="UTF-8"?>
<svg xmlns="http://www.w3.org/2000/svg" xmlns:xlink="http://www.w3.org/1999/xlink" width="1024pt" height="1024pt" viewBox="0 0 1024 1024" version="1.1">
<g id="surface1">
<path style=" stroke:none;fill-rule:evenodd;fill:rgb(87.843137%,72.156863%,11.372549%);fill-opacity:1;" d="M 817.1875 632.679688 C 818.433594 643.535156 812.257812 648.589844 809.863281 658.277344 C 807.679688 667.113281 807.597656 679.683594 804.371094 689.363281 C 794 720.429688 787.863281 752.296875 780.945312 784.523438 C 775.453125 810.136719 769.585938 840.5 769.585938 866.730469 C 769.585938 887.460938 751.886719 937.902344 765.925781 954.507812 C 767.734375 956.652344 789.832031 960.671875 794.402344 963.71875 C 804.09375 970.167969 809.179688 974.742188 813.523438 985.59375 C 820.773438 1003.703125 810.097656 1020.546875 793.382812 1003.878906 C 792.332031 1002.832031 780.117188 1009.363281 775.074219 1009.363281 C 765.347656 1009.363281 757.308594 1002.3125 751.277344 1002.050781 C 746.242188 1001.832031 741.941406 1010.398438 732.96875 1009.363281 C 725.21875 1008.46875 710.191406 997.128906 707.339844 994.738281 C 697.042969 1015.066406 666.066406 1013.019531 648.757812 1013.019531 C 623.980469 1013.019531 576.800781 1024.089844 586.511719 987.421875 C 588.8125 978.730469 594.875 975.683594 597.496094 965.476562 C 601.804688 948.664062 596.296875 923.625 593.832031 906.964844 C 586.441406 856.972656 564.753906 809.046875 552.472656 760.003906 C 546.277344 735.265625 551.71875 709.476562 520.601562 709.476562 C 503.203125 709.476562 486.898438 692.6875 469.34375 691.191406 C 445.324219 689.144531 450.382812 697.101562 440.050781 720.453125 C 430.078125 742.984375 425.054688 772.226562 412.703125 792.789062 C 390.542969 829.6875 369.699219 876.140625 390.550781 917.800781 C 394.609375 925.910156 396.640625 935.1875 401.671875 942.722656 C 410.5 955.949219 411.484375 944.207031 418.078125 947.191406 C 435.855469 955.238281 443.707031 961.808594 452.863281 980.105469 C 465.824219 1005.996094 397.460938 1002.011719 381.464844 1002.050781 C 392.613281 1024.59375 359.5 1026.027344 348.511719 1013.019531 C 342.671875 1026.519531 315.15625 1018.195312 308.234375 1013.019531 C 261.796875 1023.769531 269.652344 924.714844 261.582031 892.472656 C 258.445312 879.945312 251.277344 866.679688 249.648438 855.765625 C 247.148438 838.992188 260.632812 829.675781 260.632812 815.535156 C 260.632812 775.949219 259.257812 736.914062 249.648438 698.507812 C 219.183594 744.621094 157.386719 776.382812 103.1875 764.335938 C 56.574219 753.976562 15.714844 699.851562 4.328125 654.621094 C 14.8125 659.816406 25.648438 658.277344 37.28125 658.277344 C 30.765625 655.742188 25.289062 650.332031 18.972656 647.304688 C 47.3125 633.734375 88.539062 660.785156 88.539062 692.273438 C 88.539062 708.492188 83.804688 727.132812 95.863281 738.738281 C 107.492188 749.929688 140.5 744.949219 154.585938 741.441406 C 200.761719 729.933594 219.671875 691.644531 227.105469 647.078125 C 230.957031 623.984375 236.863281 602.914062 230.679688 580.273438 C 223.863281 555.300781 219.128906 530.21875 214.863281 504.675781 C 199.347656 411.664062 213.378906 328.957031 304.800781 283.308594 C 348.136719 261.667969 393.433594 274.28125 439.703125 274.28125 C 460.058594 274.28125 489.769531 270.992188 494.019531 249.757812 C 497.609375 231.824219 505.84375 204.773438 524.261719 197.480469 C 519.851562 200.5 514.40625 202.402344 509.613281 204.792969 C 518.742188 186.566406 529.566406 157.984375 549.890625 149.941406 C 538.207031 150.054688 529.230469 155.148438 524.261719 164.566406 C 535.0625 138.25 556.90625 125.035156 575.523438 106.050781 C 592.648438 88.589844 615.789062 73.449219 630.445312 54.855469 C 618.96875 55.28125 609.339844 58.226562 601.152344 65.820312 C 621.042969 47.835938 625.375 37.660156 653.085938 34.195312 C 666.789062 32.480469 683.007812 24.980469 696.347656 25.589844 C 710.808594 26.25 725.828125 34.371094 740.289062 36.566406 C 731.332031 29.402344 724.785156 19.007812 710.996094 21.941406 C 729.238281 21.941406 747.878906 19.660156 762.257812 32.90625 C 757.871094 21.867188 748.6875 13.953125 736.625 14.625 C 749.160156 14.625 761.898438 12.789062 773.242188 18.277344 C 768.273438 11.953125 762.113281 7.007812 754.933594 3.652344 C 777.96875 0.1875 803.828125 15.964844 813.574219 36.617188 C 813.476562 26.953125 809.417969 18.007812 802.589844 11.015625 C 822.457031 14.613281 847.125 51.339844 853.851562 69.53125 C 855.117188 55.449219 851.554688 42.875 850.191406 29.300781 C 856.46875 41.738281 861.828125 55.496094 861.175781 69.53125 C 864.238281 60.335938 864.238281 49.464844 861.175781 40.273438 C 874.507812 54.457031 874.769531 73.617188 868.496094 91.46875 C 878.65625 71.1875 888.027344 52.066406 905.113281 36.617188 C 892.707031 55.203125 875.804688 78.449219 879.480469 102.445312 C 881.246094 95.914062 884.335938 90.332031 886.808594 84.15625 C 885.265625 92.117188 886.441406 100.0625 890.46875 106.097656 C 897.792969 91.472656 905.113281 76.847656 912.4375 62.21875 C 900.496094 76.097656 900.265625 96.136719 897.792969 113.414062 C 901.605469 107.847656 904.492188 107.28125 908.777344 102.445312 C 905.5625 108.332031 904.332031 114.785156 901.453125 120.722656 C 909.722656 114.160156 916.292969 105.089844 919.757812 95.128906 C 919.660156 104.789062 915.605469 113.734375 908.773438 120.722656 C 917.214844 121.378906 924.167969 118.980469 930.746094 113.410156 C 926.128906 121.308594 918.46875 123.347656 908.773438 124.386719 C 915.832031 129.132812 925.285156 129.019531 934.40625 128.042969 C 930.503906 130.003906 927.320312 133.386719 923.421875 135.355469 L 934.40625 135.355469 C 933.4375 135.425781 927.652344 135.980469 927.082031 135.355469 C 936.886719 150.984375 940.921875 179.914062 954.332031 191.632812 C 970.558594 205.8125 1008.5 229.582031 1014.957031 248.730469 C 1017.636719 256.667969 1000.902344 321.304688 989.328125 325.523438 C 995.167969 336.609375 992.988281 349.734375 992.988281 362.097656 C 991.769531 359.660156 990.546875 357.226562 989.328125 354.785156 C 985.957031 366.546875 984.90625 379.136719 985.664062 391.351562 C 984.445312 387.695312 983.226562 384.039062 982.007812 380.382812 C 979.859375 386.855469 977.554688 390.1875 978.34375 398.664062 C 976.875 394.636719 975.628906 391.667969 974.683594 387.695312 C 972.242188 390.132812 969.804688 392.570312 967.359375 395.007812 C 967.027344 389.285156 964.386719 385.558594 963.699219 380.382812 C 962.210938 385.773438 961.316406 383.910156 960.035156 391.351562 C 959.867188 386.445312 956.984375 381.617188 956.378906 376.726562 C 954.390625 379.492188 951.109375 381.324219 949.050781 384.039062 C 945.851562 376.921875 944.078125 371.621094 941.730469 362.097656 C 940.507812 364.539062 939.289062 366.972656 938.066406 369.414062 L 938.066406 358.4375 C 935.878906 360.972656 933.25 363.527344 930.746094 365.75 C 929.523438 362.097656 928.304688 358.441406 927.082031 354.785156 C 925.609375 359.3125 923.886719 359.878906 923.421875 365.75 C 922.976562 360.800781 920.371094 356.0625 919.761719 351.125 C 918.542969 353.5625 917.320312 356 916.101562 358.4375 L 916.101562 347.46875 C 914.878906 349.90625 913.660156 352.34375 912.441406 354.785156 C 911.222656 352.347656 910 349.910156 908.78125 347.46875 C 911.601562 355.9375 911.984375 364.9375 908.78125 373.066406 C 904.371094 366.414062 902.007812 365.78125 897.796875 358.4375 C 901.492188 373.660156 897.929688 385.953125 897.796875 402.328125 C 896.335938 394.011719 894.742188 390.894531 890.46875 384.039062 C 897.222656 408.414062 895.09375 434.226562 886.808594 457.183594 C 884.460938 451.042969 880.757812 445.511719 879.484375 438.898438 C 879.484375 469.707031 879.652344 496.765625 872.160156 526.664062 C 870.9375 516.179688 869.921875 501.875 861.175781 497.414062 C 861.175781 532.238281 841.332031 575.003906 868.5 603.46875 C 856.375 596.574219 846.816406 583.820312 842.871094 570.558594 C 838.519531 588.34375 839.808594 622.816406 857.515625 636.382812 C 848.507812 632.070312 843.003906 624.191406 842.871094 614.4375 C 828.382812 622.234375 837.695312 657.738281 828.226562 672.953125 C 829.554688 658.4375 821.925781 646.007812 817.324219 632.695312 M 681.859375 716.804688 C 681.859375 797.609375 689.960938 873.59375 681.859375 954.523438 C 658.84375 880.464844 648.90625 797.953125 648.90625 720.464844 C 659.832031 727.007812 671.398438 723.097656 681.855469 716.796875 M 341.316406 658.304688 C 341.316406 711.355469 329.109375 753.667969 319.34375 804.589844 C 319.371094 752.398438 335.316406 708.375 341.320312 658.296875 "/>
<path style="fill:none;stroke-width:0.484;stroke-linecap:square;stroke-linejoin:miter;stroke:rgb(0%,0%,0%);stroke-opacity:1;stroke-miterlimit:9.811;" d="M 331.960455 257.110151 C 332.466846 261.521627 329.957114 263.575765 328.984018 267.512598 C 328.096643 271.103371 328.063307 276.21173 326.752087 280.145389 C 322.537453 292.770243 320.043596 305.72052 317.232253 318.816841 C 315.000322 329.225638 312.615998 341.564754 312.615998 352.224366 C 312.615998 360.648872 305.423339 381.147392 311.128573 387.895569 C 311.863555 388.76707 320.843662 390.400538 322.700959 391.638736 C 326.63938 394.259588 328.706217 396.118472 330.471443 400.52836 C 333.417718 407.887699 329.079264 414.732709 322.286639 407.959133 C 321.859619 407.533701 316.895717 410.187889 314.846341 410.187889 C 310.893633 410.187889 307.626696 407.322573 305.1757 407.216215 C 303.129499 407.127319 301.381735 410.608559 297.735402 410.187889 C 294.585935 409.824367 288.479081 405.216049 287.320255 404.24454 C 283.135782 412.505541 270.547439 411.673726 263.513524 411.673726 C 253.444438 411.673726 234.271424 416.172511 238.217782 401.271279 C 239.15278 397.739241 241.616476 396.501043 242.681643 392.353081 C 244.432581 385.52077 242.194301 375.345325 241.192631 368.574924 C 238.189208 348.258958 229.375781 328.782745 224.384892 308.852525 C 221.867223 298.799313 224.078517 288.319081 211.433027 288.319081 C 204.362601 288.319081 197.736656 281.496294 190.602733 280.888308 C 180.841608 280.056493 182.897334 283.290094 178.698574 292.779767 C 174.645858 301.93608 172.604419 313.819602 167.584957 322.175849 C 158.57945 337.17074 150.108908 356.048491 158.582625 372.978463 C 160.231968 376.273973 161.057433 380.044126 163.102046 383.106284 C 166.689645 388.481332 167.089678 383.709509 169.769264 384.922308 C 176.993671 388.192419 180.184411 390.862481 183.905354 398.298017 C 189.172456 408.819522 161.390794 407.20034 154.890256 407.216215 C 159.420789 416.37729 145.964121 416.959878 141.498672 411.673726 C 139.12546 417.159894 127.943583 413.777075 125.130652 411.673726 C 106.25925 416.042341 109.451578 375.788219 106.171942 362.685548 C 104.897233 357.594651 101.984294 352.203729 101.322334 347.768442 C 100.306377 340.952005 105.786195 337.165977 105.786195 331.41947 C 105.786195 315.332426 105.227419 299.469209 101.322334 283.861569 C 88.941945 302.601214 63.828757 315.508631 41.803126 310.612988 C 22.86029 306.403116 6.255742 284.407646 1.628376 266.026761 C 5.889045 268.138047 10.292584 267.512598 15.019959 267.512598 C 12.372121 266.482354 10.14654 264.28376 7.579661 263.053499 C 19.096487 257.538758 35.850253 268.53173 35.850253 281.328027 C 35.850253 287.919048 33.926285 295.494277 38.82669 300.21054 C 43.552477 304.758536 56.966285 302.734559 62.690568 301.309044 C 81.455612 296.632467 89.140374 281.07245 92.161259 262.961428 C 93.726468 253.576525 96.126666 245.013912 93.61376 235.813152 C 90.84369 225.664693 88.919721 215.471787 87.186245 205.091563 C 80.880961 167.2932 86.58302 133.682484 123.735299 115.131743 C 141.346279 106.337365 159.75415 111.463186 178.557293 111.463186 C 186.829405 111.463186 198.90342 110.126567 200.630547 101.497282 C 202.089397 94.209378 205.435706 83.216405 212.920452 80.252668 C 211.12824 81.479754 208.915359 82.252834 206.967579 83.224343 C 210.677409 75.817381 215.076186 64.202135 223.335599 60.93361 C 218.587587 60.979646 214.939666 63.049658 212.920452 66.876959 C 217.309704 56.182424 226.186628 50.812138 233.752333 43.097215 C 240.711639 36.00139 250.115591 29.8485 256.071639 22.29232 C 251.407761 22.46535 247.494739 23.662274 244.16748 26.748244 C 252.250688 19.439703 254.011151 15.30444 265.2724 13.896387 C 270.841115 13.199504 277.432136 10.151633 282.853219 10.399273 C 288.729895 10.667549 294.833575 13.967822 300.710251 14.859959 C 297.070268 11.948607 294.40973 7.724448 288.806092 8.91661 C 296.219404 8.91661 303.794633 7.98955 309.637974 13.372534 C 307.855287 8.886449 304.123232 5.67031 299.221239 5.943349 C 304.315311 5.943349 309.49193 5.197255 314.101835 7.427598 C 312.08262 4.857545 309.579239 2.847855 306.661537 1.48425 C 316.022629 0.0761968 326.531434 6.487838 330.492079 14.880596 C 330.452393 10.953287 328.803051 7.318065 326.028218 4.476561 C 334.101902 5.938586 344.12654 20.86363 346.860099 28.256305 C 347.374428 22.533609 345.926689 17.423663 345.372675 11.907334 C 347.923679 16.96172 350.101637 22.552659 349.836536 28.256305 C 351.081083 24.519488 351.081083 20.101662 349.836536 16.366433 C 355.254444 22.130402 355.360802 29.91676 352.811385 37.171328 C 356.940298 28.929376 360.74855 21.158893 367.691981 14.880596 C 362.650294 22.433601 355.781472 31.880414 357.275246 41.632014 C 357.992766 38.977826 359.248425 36.709385 360.25327 34.199654 C 359.626234 37.434842 360.104052 40.66368 361.740695 43.116264 C 364.717132 37.172915 367.691981 31.229567 370.668417 25.284631 C 365.815635 30.92478 365.721977 39.06831 364.717132 46.089526 C 366.266466 43.827434 367.439579 43.597256 369.180993 41.632014 C 367.874536 44.024276 367.374494 46.646715 366.204556 49.059613 C 369.565152 46.392725 372.235214 42.706706 373.643267 38.658752 C 373.603581 42.584474 371.955826 46.219695 369.179405 49.059613 C 372.609848 49.326301 375.435478 48.351618 378.108715 46.087938 C 376.23237 49.297728 373.119414 50.126367 369.179405 50.548625 C 372.047897 52.477356 375.889484 52.43132 379.59614 52.034462 C 378.010294 52.831353 376.716537 54.20607 375.132279 55.006136 L 379.59614 55.006136 C 379.202457 55.03471 376.851468 55.260125 376.619703 55.006136 C 380.60416 61.357455 382.243978 73.113983 387.693635 77.876281 C 394.287831 83.638663 409.706566 93.298192 412.330593 101.079787 C 413.419572 104.305451 406.619009 130.572703 401.915446 132.28713 C 404.288658 136.792265 403.402871 142.126039 403.402871 147.150264 C 402.907591 146.159706 402.410725 145.170735 401.915446 144.17859 C 400.545491 148.95835 400.118472 154.074646 400.426434 159.038549 C 399.931155 157.552711 399.435876 156.066874 398.940597 154.581037 C 398.067509 157.211413 397.130923 158.565494 397.451585 162.010223 C 396.85471 160.37358 396.348319 159.167131 395.96416 157.552711 C 394.972015 158.54327 393.981456 159.533828 392.987724 160.524386 C 392.852792 158.198797 391.779687 156.684386 391.500299 154.581037 C 390.895487 156.771695 390.531965 156.014489 390.011287 159.038549 C 389.943027 157.044733 388.771502 155.082666 388.52545 153.0952 C 387.717446 154.219102 386.384003 154.963608 385.547426 156.066874 C 384.247318 153.174572 383.526624 151.020425 382.572577 147.150264 C 382.07571 148.142409 381.580431 149.13138 381.083564 150.123526 L 381.083564 145.662839 C 380.194602 146.693083 379.12626 147.731264 378.108715 148.634514 C 377.611849 147.150264 377.11657 145.664427 376.619703 144.17859 C 376.021241 146.018424 375.321183 146.248602 375.132279 148.634514 C 374.951311 146.623236 373.892494 144.69768 373.644854 142.691165 C 373.149575 143.681723 372.652709 144.672281 372.15743 145.662839 L 372.15743 141.205328 C 371.660563 142.195886 371.165284 143.186444 370.670005 144.17859 C 370.174726 143.188032 369.677859 142.197473 369.18258 141.205328 C 370.328707 144.646882 370.484275 148.304328 369.18258 151.607775 C 367.390369 148.904377 366.429972 148.647213 364.718719 145.662839 C 366.220431 151.849065 364.772692 156.844716 364.718719 163.499235 C 364.125019 160.11959 363.477347 158.852819 361.740695 156.066874 C 364.485366 165.972455 363.620216 176.462212 360.25327 185.791555 C 359.299223 183.29611 357.794337 181.048305 357.276834 178.360781 C 357.276834 190.880864 357.345093 201.877012 354.300397 214.027223 C 353.803531 209.766553 353.390798 203.953374 349.836536 202.140526 C 349.836536 216.29249 341.772377 233.671705 352.812973 245.239328 C 347.885581 242.437509 344.001133 237.254541 342.397826 231.865206 C 340.629425 239.092788 341.153278 253.101883 348.349111 258.615037 C 344.688491 256.862511 342.451798 253.660659 342.397826 249.696839 C 336.510037 252.865355 340.294477 267.293533 336.44654 273.476584 C 336.986267 267.577683 333.886011 262.526472 332.016015 257.116501 " transform="matrix(2.460734,0,0,2.460734,0.321126,0)"/>
<path style="fill:none;stroke-width:0.484;stroke-linecap:square;stroke-linejoin:miter;stroke:rgb(0%,0%,0%);stroke-opacity:1;stroke-miterlimit:9.811;" d="M 276.90987 291.290755 C 276.90987 324.128391 280.200619 355.007135 276.90987 387.895569 C 267.556716 357.79943 263.518287 324.268085 263.518287 292.776592 C 267.958336 295.43713 272.658725 293.846522 276.908283 291.28758 " transform="matrix(2.460734,0,0,2.460734,0.321126,0)"/>
<path style="fill:none;stroke-width:0.484;stroke-linecap:square;stroke-linejoin:miter;stroke:rgb(0%,0%,0%);stroke-opacity:1;stroke-miterlimit:9.811;" d="M 138.520648 267.520536 C 138.520648 289.079461 133.559921 306.272947 129.591339 326.966721 C 129.602451 305.757031 136.082352 287.866663 138.522236 267.517361 " transform="matrix(2.460734,0,0,2.460734,0.321126,0)"/>
<path style="fill:none;stroke-width:0.484;stroke-linecap:square;stroke-linejoin:miter;stroke:rgb(0%,0%,0%);stroke-opacity:1;stroke-miterlimit:9.811;" d="M 138.520648 267.520536 C 142.790843 255.938625 142.535266 242.997873 147.448371 231.852507 " transform="matrix(2.460734,0,0,2.460734,0.321126,0)"/>
<path style="fill:none;stroke-width:0.484;stroke-linecap:square;stroke-linejoin:miter;stroke:rgb(0%,0%,0%);stroke-opacity:1;stroke-miterlimit:9.811;" d="M 132.569363 203.610489 C 141.647891 220.261072 148.065882 239.472184 165.305403 249.682552 " transform="matrix(2.460734,0,0,2.460734,0.321126,0)"/>
<path style="fill:none;stroke-width:0.484;stroke-linecap:square;stroke-linejoin:miter;stroke:rgb(0%,0%,0%);stroke-opacity:1;stroke-miterlimit:9.811;" d="M 142.989272 245.220279 C 159.11124 254.381354 169.061269 270.874781 186.140459 279.40247 " transform="matrix(2.460734,0,0,2.460734,0.321126,0)"/>
<path style="fill:none;stroke-width:0.484;stroke-linecap:square;stroke-linejoin:miter;stroke:rgb(0%,0%,0%);stroke-opacity:1;stroke-miterlimit:9.811;" d="M 184.64986 269.000023 C 187.429455 273.165447 190.096342 277.2261 193.577582 280.891483 " transform="matrix(2.460734,0,0,2.460734,0.321126,0)"/>
<path style="fill:none;stroke-width:0.484;stroke-linecap:square;stroke-linejoin:miter;stroke:rgb(0%,0%,0%);stroke-opacity:1;stroke-miterlimit:9.811;" d="M 208.459765 182.799244 C 204.134011 192.614341 204.510232 206.271026 212.923627 214.008174 " transform="matrix(2.460734,0,0,2.460734,0.321126,0)"/>
<path style="fill:none;stroke-width:0.484;stroke-linecap:square;stroke-linejoin:miter;stroke:rgb(0%,0%,0%);stroke-opacity:1;stroke-miterlimit:9.811;" d="M 209.950365 212.530274 C 205.554763 220.473788 212.761708 232.733532 215.901651 240.76753 " transform="matrix(2.460734,0,0,2.460734,0.321126,0)"/>
<path style="fill:none;stroke-width:0.484;stroke-linecap:square;stroke-linejoin:miter;stroke:rgb(0%,0%,0%);stroke-opacity:1;stroke-miterlimit:9.811;" d="M 215.900063 219.95946 C 222.732374 242.969299 211.869571 266.025174 220.363924 289.814443 " transform="matrix(2.460734,0,0,2.460734,0.321126,0)"/>
<path style="fill:none;stroke-width:0.484;stroke-linecap:square;stroke-linejoin:miter;stroke:rgb(0%,0%,0%);stroke-opacity:1;stroke-miterlimit:9.811;" d="M 262.029275 270.490622 C 258.668679 278.416675 262.302313 284.774343 263.518287 292.781355 " transform="matrix(2.460734,0,0,2.460734,0.321126,0)"/>
<path style="fill:none;stroke-width:0.484;stroke-linecap:square;stroke-linejoin:miter;stroke:rgb(0%,0%,0%);stroke-opacity:1;stroke-miterlimit:9.811;" d="M 276.90987 291.290755 C 280.921313 289.81603 284.705753 287.250739 287.325017 283.861569 " transform="matrix(2.460734,0,0,2.460734,0.321126,0)"/>
<path style="fill:none;stroke-width:0.484;stroke-linecap:square;stroke-linejoin:miter;stroke:rgb(0%,0%,0%);stroke-opacity:1;stroke-miterlimit:9.811;" d="M 300.710251 380.469558 C 304.320074 387.898744 301.181719 391.697471 294.757378 395.329517 " transform="matrix(2.460734,0,0,2.460734,0.321126,0)"/>
<path style="fill:none;stroke-width:0.484;stroke-linecap:square;stroke-linejoin:miter;stroke:rgb(0%,0%,0%);stroke-opacity:1;stroke-miterlimit:9.811;" d="M 302.199263 396.820117 C 305.066167 399.491766 305.810673 403.404788 305.177287 407.224152 " transform="matrix(2.460734,0,0,2.460734,0.321126,0)"/>
<path style="fill:none;stroke-width:0.484;stroke-linecap:square;stroke-linejoin:miter;stroke:rgb(0%,0%,0%);stroke-opacity:1;stroke-miterlimit:9.811;" d="M 321.540545 407.21939 C 323.02797 402.439629 321.899305 397.388418 317.076684 393.84368 " transform="matrix(2.460734,0,0,2.460734,0.321126,0)"/>
<path style="fill:none;stroke-width:0.484;stroke-linecap:square;stroke-linejoin:miter;stroke:rgb(0%,0%,0%);stroke-opacity:1;stroke-miterlimit:9.811;" d="M 285.829656 405.730378 C 282.226183 389.327434 280.141884 388.524193 264.997774 389.381407 " transform="matrix(2.460734,0,0,2.460734,0.321126,0)"/>
<path style="fill:none;stroke-width:0.484;stroke-linecap:square;stroke-linejoin:miter;stroke:rgb(0%,0%,0%);stroke-opacity:1;stroke-miterlimit:9.811;" d="M 259.049663 389.379819 C 256.128787 387.387591 253.044405 387.387591 250.121941 389.379819 " transform="matrix(2.460734,0,0,2.460734,0.321126,0)"/>
<path style="fill:none;stroke-width:0.484;stroke-linecap:square;stroke-linejoin:miter;stroke:rgb(0%,0%,0%);stroke-opacity:1;stroke-miterlimit:9.811;" d="M 245.659667 389.379819 L 242.680056 392.359431 " transform="matrix(2.460734,0,0,2.460734,0.321126,0)"/>
<path style="fill:none;stroke-width:0.484;stroke-linecap:square;stroke-linejoin:miter;stroke:rgb(0%,0%,0%);stroke-opacity:1;stroke-miterlimit:9.811;" d="M 250.120353 395.329517 C 244.880238 400.055305 248.009068 406.03834 250.120353 411.678489 " transform="matrix(2.460734,0,0,2.460734,0.321126,0)"/>
<path style="fill:none;stroke-width:0.484;stroke-linecap:square;stroke-linejoin:miter;stroke:rgb(0%,0%,0%);stroke-opacity:1;stroke-miterlimit:9.811;" d="M 262.029275 411.680076 C 256.9987 407.786103 258.524223 397.885284 262.029275 395.331105 " transform="matrix(2.460734,0,0,2.460734,0.321126,0)"/>
<path style="fill:none;stroke-width:0.484;stroke-linecap:square;stroke-linejoin:miter;stroke:rgb(0%,0%,0%);stroke-opacity:1;stroke-miterlimit:9.811;" d="M 272.439659 395.329517 C 269.793409 398.102763 270.777617 405.592271 272.439659 410.194239 " transform="matrix(2.460734,0,0,2.460734,0.321126,0)"/>
<path style="fill:none;stroke-width:0.484;stroke-linecap:square;stroke-linejoin:miter;stroke:rgb(0%,0%,0%);stroke-opacity:1;stroke-miterlimit:9.811;" d="M 177.209562 405.730378 C 177.19845 400.223573 177.001608 392.508649 171.258276 390.870419 " transform="matrix(2.460734,0,0,2.460734,0.321126,0)"/>
<path style="fill:none;stroke-width:0.484;stroke-linecap:square;stroke-linejoin:miter;stroke:rgb(0%,0%,0%);stroke-opacity:1;stroke-miterlimit:9.811;" d="M 160.839954 392.359431 C 166.284849 393.630964 167.021418 400.628368 166.79124 405.736727 " transform="matrix(2.460734,0,0,2.460734,0.321126,0)"/>
<path style="fill:none;stroke-width:0.484;stroke-linecap:square;stroke-linejoin:miter;stroke:rgb(0%,0%,0%);stroke-opacity:1;stroke-miterlimit:9.811;" d="M 165.310165 386.409732 C 160.293878 382.853883 155.779218 392.054643 153.406006 383.438058 " transform="matrix(2.460734,0,0,2.460734,0.321126,0)"/>
<path style="fill:none;stroke-width:0.484;stroke-linecap:square;stroke-linejoin:miter;stroke:rgb(0%,0%,0%);stroke-opacity:1;stroke-miterlimit:9.811;" d="M 154.890256 407.21939 C 154.750562 393.734147 144.154448 393.84368 134.058375 393.84368 " transform="matrix(2.460734,0,0,2.460734,0.321126,0)"/>
<path style="fill:none;stroke-width:0.484;stroke-linecap:square;stroke-linejoin:miter;stroke:rgb(0%,0%,0%);stroke-opacity:1;stroke-miterlimit:9.811;" d="M 129.599276 392.359431 C 125.517986 394.408806 120.055629 392.778513 116.207692 395.332692 " transform="matrix(2.460734,0,0,2.460734,0.321126,0)"/>
<path style="fill:none;stroke-width:0.484;stroke-linecap:square;stroke-linejoin:miter;stroke:rgb(0%,0%,0%);stroke-opacity:1;stroke-miterlimit:9.811;" d="M 114.720268 398.299604 L 113.229668 401.269691 " transform="matrix(2.460734,0,0,2.460734,0.321126,0)"/>
<path style="fill:none;stroke-width:0.484;stroke-linecap:square;stroke-linejoin:miter;stroke:rgb(0%,0%,0%);stroke-opacity:1;stroke-miterlimit:9.811;" d="M 123.640053 399.790204 C 120.695365 402.064995 122.425667 407.874999 125.127477 411.678489 " transform="matrix(2.460734,0,0,2.460734,0.321126,0)"/>
<path style="fill:none;stroke-width:0.484;stroke-linecap:square;stroke-linejoin:miter;stroke:rgb(0%,0%,0%);stroke-opacity:1;stroke-miterlimit:9.811;" d="M 141.50026 411.680076 C 139.498507 408.149625 136.223633 404.628699 137.036399 399.791791 " transform="matrix(2.460734,0,0,2.460734,0.321126,0)"/>
<path style="fill:none;stroke-width:0.484;stroke-linecap:square;stroke-linejoin:miter;stroke:rgb(0%,0%,0%);stroke-opacity:1;stroke-miterlimit:9.811;" d="M 145.959359 401.269691 C 150.451794 402.804739 152.029702 409.429096 150.42322 413.161151 " transform="matrix(2.460734,0,0,2.460734,0.321126,0)"/>
<path style="fill:none;stroke-width:0.484;stroke-linecap:square;stroke-linejoin:miter;stroke:rgb(0%,0%,0%);stroke-opacity:1;stroke-miterlimit:9.811;" d="M 145.959359 393.840505 C 135.269586 372.480009 129.591339 350.843299 129.591339 326.960372 " transform="matrix(2.460734,0,0,2.460734,0.321126,0)"/>
<path style="fill:none;stroke-width:0.484;stroke-linecap:square;stroke-linejoin:miter;stroke:rgb(0%,0%,0%);stroke-opacity:1;stroke-miterlimit:9.811;" d="M 108.759457 352.230715 C 109.472214 346.103224 107.505385 338.699438 105.784608 332.908483 " transform="matrix(2.460734,0,0,2.460734,0.321126,0)"/>
<path style="fill:none;stroke-width:0.484;stroke-linecap:square;stroke-linejoin:miter;stroke:rgb(0%,0%,0%);stroke-opacity:1;stroke-miterlimit:9.811;" d="M 23.950857 300.21054 C 18.120216 295.343471 19.185383 288.177799 16.510559 282.372557 " transform="matrix(2.460734,0,0,2.460734,0.321126,0)"/>
<path style="fill:none;stroke-width:0.484;stroke-linecap:square;stroke-linejoin:miter;stroke:rgb(0%,0%,0%);stroke-opacity:1;stroke-miterlimit:9.811;" d="M 9.070261 277.919808 L 6.095412 274.949721 " transform="matrix(2.460734,0,0,2.460734,0.321126,0)"/>
<path style="fill:none;stroke-width:0.484;stroke-linecap:square;stroke-linejoin:miter;stroke:rgb(0%,0%,0%);stroke-opacity:1;stroke-miterlimit:9.811;" d="M 28.414718 269.000023 C 31.664193 271.771681 32.335677 275.857733 29.90373 279.404058 " transform="matrix(2.460734,0,0,2.460734,0.321126,0)"/>
<path style="fill:none;stroke-width:0.484;stroke-linecap:square;stroke-linejoin:miter;stroke:rgb(0%,0%,0%);stroke-opacity:1;stroke-miterlimit:9.811;" d="M 101.320747 283.859982 L 95.372636 242.250192 " transform="matrix(2.460734,0,0,2.460734,0.321126,0)"/>
<path style="fill:none;stroke-width:0.484;stroke-linecap:square;stroke-linejoin:miter;stroke:rgb(0%,0%,0%);stroke-opacity:1;stroke-miterlimit:9.811;" d="M 102.809759 257.110151 C 102.809759 235.67822 98.674496 208.402948 89.418175 188.74418 " transform="matrix(2.460734,0,0,2.460734,0.321126,0)"/>
<path style="fill:none;stroke-width:0.484;stroke-linecap:square;stroke-linejoin:miter;stroke:rgb(0%,0%,0%);stroke-opacity:1;stroke-miterlimit:9.811;" d="M 199.530456 107.010437 L 199.530456 109.982111 C 200.925809 106.524682 203.511737 103.943516 206.969166 102.551338 C 201.898905 108.726452 198.546247 117.427171 201.016293 124.843657 C 201.968752 121.738639 203.754614 119.117787 206.969166 117.414472 C 196.46036 128.786841 205.494441 144.278598 208.456591 156.055762 C 208.953457 154.568338 209.448736 153.082501 209.945603 151.595076 C 209.455086 162.111819 214.576144 175.273225 221.848174 182.808768 C 221.811663 175.581186 220.127397 170.199789 221.848174 163.486536 C 221.491002 169.683873 223.9039 176.508247 227.79946 181.319756 C 227.220047 178.273473 228.612226 176.239971 229.288472 173.89057 " transform="matrix(2.460734,0,0,2.460734,0.321126,0)"/>
<path style="fill:none;stroke-width:0.484;stroke-linecap:square;stroke-linejoin:miter;stroke:rgb(0%,0%,0%);stroke-opacity:1;stroke-miterlimit:9.811;" d="M 230.780659 160.510099 C 228.910663 173.585783 227.78676 188.101269 236.730357 199.152977 L 236.730357 196.181303 C 238.930539 198.84819 240.589407 201.823039 241.194218 205.096326 C 241.194218 188.318748 240.075078 171.242732 238.219369 154.56675 " transform="matrix(2.460734,0,0,2.460734,0.321126,0)"/>
<path style="fill:none;stroke-width:0.484;stroke-linecap:square;stroke-linejoin:miter;stroke:rgb(0%,0%,0%);stroke-opacity:1;stroke-miterlimit:9.811;" d="M 241.189456 190.230017 C 248.407513 202.221485 244.440519 213.539881 242.678468 225.899633 C 245.294558 219.910249 248.777385 215.04953 250.861685 208.807744 C 252.530077 203.810505 251.215682 198.878351 254.582627 194.687528 C 249.534591 203.691448 259.240155 213.33669 254.582627 222.926372 C 255.574773 221.935813 256.565331 220.943668 257.559064 219.951522 C 254.806455 224.142345 256.670101 228.949092 257.559064 233.327232 C 257.200304 227.57755 258.95283 213.201758 264.997774 211.036499 " transform="matrix(2.460734,0,0,2.460734,0.321126,0)"/>
<path style="fill:none;stroke-width:0.484;stroke-linecap:square;stroke-linejoin:miter;stroke:rgb(0%,0%,0%);stroke-opacity:1;stroke-miterlimit:9.811;" d="M 262.029275 185.780443 C 258.743289 191.142791 262.373748 206.199592 265.005711 212.530274 C 268.64252 221.278616 277.481346 228.488736 278.397295 237.797443 C 279.389441 232.349373 280.381586 226.899716 281.375319 221.448472 C 277.684538 229.24118 283.321512 235.871887 282.862744 243.740791 " transform="matrix(2.460734,0,0,2.460734,0.321126,0)"/>
<path style="fill:none;stroke-width:0.484;stroke-linecap:square;stroke-linejoin:miter;stroke:rgb(0%,0%,0%);stroke-opacity:1;stroke-miterlimit:9.811;" d="M 281.370557 251.169977 C 280.22443 243.121692 286.401131 235.278187 287.320255 227.390233 C 290.188746 235.549638 289.872847 242.037476 287.320255 249.682552 C 297.498875 237.121196 294.452591 215.338443 297.73699 200.637227 " transform="matrix(2.460734,0,0,2.460734,0.321126,0)"/>
<path style="fill:none;stroke-width:0.484;stroke-linecap:square;stroke-linejoin:miter;stroke:rgb(0%,0%,0%);stroke-opacity:1;stroke-miterlimit:9.811;" d="M 291.779354 176.860657 C 290.201446 186.642419 296.216229 194.622444 299.68477 203.28824 C 304.448656 215.179699 303.397775 224.050274 300.708664 236.308431 C 306.658362 227.399757 309.296676 213.538294 317.075097 206.585338 " transform="matrix(2.460734,0,0,2.460734,0.321126,0)"/>
<path style="fill:none;stroke-width:0.484;stroke-linecap:square;stroke-linejoin:miter;stroke:rgb(0%,0%,0%);stroke-opacity:1;stroke-miterlimit:9.811;" d="M 311.130161 216.979848 C 310.60472 223.232746 312.119131 233.817748 314.849516 239.275343 C 317.778329 245.12662 311.874667 255.100461 314.106597 261.567662 C 322.564439 246.050506 327.742645 222.354896 323.03432 205.091563 " transform="matrix(2.460734,0,0,2.460734,0.321126,0)"/>
<path style="fill:none;stroke-width:0.484;stroke-linecap:square;stroke-linejoin:miter;stroke:rgb(0%,0%,0%);stroke-opacity:1;stroke-miterlimit:9.811;" d="M 326.010756 178.340145 C 327.755345 188.067933 326.425076 195.857466 327.498181 205.091563 " transform="matrix(2.460734,0,0,2.460734,0.321126,0)"/>
<path style="fill:none;stroke-width:0.484;stroke-linecap:square;stroke-linejoin:miter;stroke:rgb(0%,0%,0%);stroke-opacity:1;stroke-miterlimit:9.811;" d="M 324.520157 215.500361 C 325.345622 218.508546 326.507623 221.456409 327.496593 224.415384 C 325.598024 218.362502 326.782249 209.877673 328.985605 203.607314 C 334.151112 215.270183 330.768293 224.537616 328.985605 236.305256 C 338.286375 224.826529 346.028285 189.996664 337.913328 176.857483 " transform="matrix(2.460734,0,0,2.460734,0.321126,0)"/>
<path style="fill:none;stroke-width:0.484;stroke-linecap:square;stroke-linejoin:miter;stroke:rgb(0%,0%,0%);stroke-opacity:1;stroke-miterlimit:9.811;" d="M 343.859851 193.209628 C 343.859851 202.851696 340.464332 212.061981 343.859851 221.448472 " transform="matrix(2.460734,0,0,2.460734,0.321126,0)"/>
<path style="fill:none;stroke-width:0.484;stroke-linecap:square;stroke-linejoin:miter;stroke:rgb(0%,0%,0%);stroke-opacity:1;stroke-miterlimit:9.811;" d="M 357.259372 191.720616 L 355.77036 188.75053 " transform="matrix(2.460734,0,0,2.460734,0.321126,0)"/>
<path style="fill:none;stroke-width:0.484;stroke-linecap:square;stroke-linejoin:miter;stroke:rgb(0%,0%,0%);stroke-opacity:1;stroke-miterlimit:9.811;" d="M 349.820662 175.370058 C 349.161877 165.726403 354.222613 154.708032 349.820662 145.645378 " transform="matrix(2.460734,0,0,2.460734,0.321126,0)"/>
<path style="fill:none;stroke-width:0.484;stroke-linecap:square;stroke-linejoin:miter;stroke:rgb(0%,0%,0%);stroke-opacity:1;stroke-miterlimit:9.811;" d="M 361.720058 156.049413 C 361.297801 152.255448 359.745292 148.542443 357.256197 145.645378 " transform="matrix(2.460734,0,0,2.460734,0.321126,0)"/>
<path style="fill:none;stroke-width:0.484;stroke-linecap:square;stroke-linejoin:miter;stroke:rgb(0%,0%,0%);stroke-opacity:1;stroke-miterlimit:9.811;" d="M 331.960455 132.269668 C 326.437776 148.321789 331.960455 169.107635 331.960455 185.77568 " transform="matrix(2.460734,0,0,2.460734,0.321126,0)"/>
<path style="fill:none;stroke-width:0.484;stroke-linecap:square;stroke-linejoin:miter;stroke:rgb(0%,0%,0%);stroke-opacity:1;stroke-miterlimit:9.811;" d="M 343.859851 178.340145 C 348.598338 167.207478 345.469508 147.54871 337.908566 138.214604 " transform="matrix(2.460734,0,0,2.460734,0.321126,0)"/>
<path style="fill:none;stroke-width:0.484;stroke-linecap:square;stroke-linejoin:miter;stroke:rgb(0%,0%,0%);stroke-opacity:1;stroke-miterlimit:9.811;" d="M 308.150549 196.179715 C 315.957544 176.719376 297.514749 150.715638 292.884207 132.217283 C 288.831491 116.033405 292.798486 86.857976 309.637974 78.768419 " transform="matrix(2.460734,0,0,2.460734,0.321126,0)"/>
<path style="fill:none;stroke-width:0.484;stroke-linecap:square;stroke-linejoin:miter;stroke:rgb(0%,0%,0%);stroke-opacity:1;stroke-miterlimit:9.811;" d="M 315.589259 81.740093 C 302.277048 93.880779 303.361264 136.874811 320.054708 145.646965 C 316.706812 139.644881 309.958635 109.658275 321.542133 111.466361 C 317.257651 106.781846 316.449648 101.240118 317.078272 95.11739 C 320.035659 98.031916 318.932393 96.766732 323.029557 98.089064 C 317.17828 96.609577 317.197329 85.975364 318.565696 81.738505 " transform="matrix(2.460734,0,0,2.460734,0.321126,0)"/>
<path style="fill:none;stroke-width:0.484;stroke-linecap:square;stroke-linejoin:miter;stroke:rgb(0%,0%,0%);stroke-opacity:1;stroke-miterlimit:9.811;" d="M 328.979256 78.768419 C 322.077098 78.138208 316.081364 84.408568 309.636386 80.255843 C 311.90959 78.776356 311.993724 77.714363 314.100247 75.796744 C 310.533286 78.325525 306.134509 78.941449 302.196088 80.255843 C 303.032666 77.395289 302.737403 74.161688 303.683513 71.337645 C 302.691367 72.329791 301.700809 73.318762 300.708664 74.30932 C 300.135601 68.74378 300.286407 62.973462 305.172525 59.447773 C 303.315229 60.244665 301.110284 60.219266 299.219652 60.936785 C 301.186481 57.725409 302.254823 56.296719 305.172525 54.990262 C 298.291004 54.148922 304.604224 45.833949 306.658362 43.10039 C 304.240702 43.395652 301.602389 42.630509 299.219652 43.10039 C 302.10243 40.801787 305.718602 39.914412 309.636386 40.128715 C 308.825208 39.660423 307.42668 37.907897 305.172525 37.155454 C 309.190318 34.928285 313.668466 35.493411 314.100247 31.212105 C 315.930558 32.304259 318.386316 32.861448 320.051533 34.183779 C 319.554667 33.6885 319.059388 33.193221 318.564109 32.697942 C 327.709309 33.177347 327.423571 43.784573 336.419553 43.10039 " transform="matrix(2.460734,0,0,2.460734,0.321126,0)"/>
<path style="fill:none;stroke-width:0.484;stroke-linecap:square;stroke-linejoin:miter;stroke:rgb(0%,0%,0%);stroke-opacity:1;stroke-miterlimit:9.811;" d="M 327.499768 37.155454 C 312.487416 35.488649 312.62076 42.292386 312.62076 54.988674 C 312.62076 63.921159 311.955626 77.646104 324.523332 78.766831 " transform="matrix(2.460734,0,0,2.460734,0.321126,0)"/>
<path style="fill:none;stroke-width:0.484;stroke-linecap:square;stroke-linejoin:miter;stroke:rgb(0%,0%,0%);stroke-opacity:1;stroke-miterlimit:9.811;" d="M 327.499768 66.878546 C 323.02797 66.057844 320.05947 63.18459 320.05947 58.704855 C 320.05947 53.693329 331.995378 52.823416 327.499768 57.963523 " transform="matrix(2.460734,0,0,2.460734,0.321126,0)"/>
<path style="fill:none;stroke-width:0.484;stroke-linecap:square;stroke-linejoin:miter;stroke:rgb(0%,0%,0%);stroke-opacity:1;stroke-miterlimit:9.811;" d="M 373.619455 138.219367 C 370.454114 139.598846 367.317347 139.803625 364.691733 138.219367 C 372.49079 134.734952 382.720208 140.667188 391.4749 136.73353 C 401.574148 132.196646 402.366277 121.856109 406.355496 112.953785 " transform="matrix(2.460734,0,0,2.460734,0.321126,0)"/>
<path style="fill:none;stroke-width:0.484;stroke-linecap:square;stroke-linejoin:miter;stroke:rgb(0%,0%,0%);stroke-opacity:1;stroke-miterlimit:9.811;" d="M 407.84927 114.439622 C 405.01729 111.610817 402.442474 108.240697 398.921548 107.007262 C 404.750601 104.389585 408.268352 106.323078 413.800556 104.035587 " transform="matrix(2.460734,0,0,2.460734,0.321126,0)"/>
<path style="fill:none;stroke-width:0.484;stroke-linecap:square;stroke-linejoin:miter;stroke:rgb(0%,0%,0%);stroke-opacity:1;stroke-miterlimit:9.811;" d="M 401.899572 132.269668 L 400.41056 129.299581 " transform="matrix(2.460734,0,0,2.460734,0.321126,0)"/>
<path style="fill:none;stroke-width:0.484;stroke-linecap:square;stroke-linejoin:miter;stroke:rgb(0%,0%,0%);stroke-opacity:1;stroke-miterlimit:9.811;" d="M 400.41056 127.810569 C 402.726624 127.756597 404.866484 126.670793 406.361845 124.83572 " transform="matrix(2.460734,0,0,2.460734,0.321126,0)"/>
<path style="fill:none;stroke-width:0.484;stroke-linecap:square;stroke-linejoin:miter;stroke:rgb(0%,0%,0%);stroke-opacity:1;stroke-miterlimit:9.811;" d="M 387.020563 114.439622 C 385.709344 114.118961 385.21089 114.612653 385.531551 115.923872 " transform="matrix(2.460734,0,0,2.460734,0.321126,0)"/>
<path style="fill:none;stroke-width:0.484;stroke-linecap:square;stroke-linejoin:miter;stroke:rgb(0%,0%,0%);stroke-opacity:1;stroke-miterlimit:9.811;" d="M 388.500051 118.900309 C 377.148318 121.141764 371.744697 132.387138 366.180745 141.192628 " transform="matrix(2.460734,0,0,2.460734,0.321126,0)"/>
<path style="fill:none;stroke-width:0.484;stroke-linecap:square;stroke-linejoin:miter;stroke:rgb(0%,0%,0%);stroke-opacity:1;stroke-miterlimit:9.811;" d="M 358.740447 144.15954 C 360.688227 134.912744 371.452609 121.133827 381.059753 118.893959 " transform="matrix(2.460734,0,0,2.460734,0.321126,0)"/>
<path style="fill:none;stroke-width:0.484;stroke-linecap:square;stroke-linejoin:miter;stroke:rgb(0%,0%,0%);stroke-opacity:1;stroke-miterlimit:9.811;" d="M 378.089666 118.900309 C 365.171137 123.200664 352.271658 131.953769 345.355213 144.16589 " transform="matrix(2.460734,0,0,2.460734,0.321126,0)"/>
<path style="fill:none;stroke-width:0.484;stroke-linecap:square;stroke-linejoin:miter;stroke:rgb(0%,0%,0%);stroke-opacity:1;stroke-miterlimit:9.811;" d="M 336.419553 138.219367 C 347.645879 128.877324 360.934279 117.584327 376.594304 118.900309 " transform="matrix(2.460734,0,0,2.460734,0.321126,0)"/>
<path style="fill:none;stroke-width:0.484;stroke-linecap:square;stroke-linejoin:miter;stroke:rgb(0%,0%,0%);stroke-opacity:1;stroke-miterlimit:9.811;" d="M 360.229459 109.980523 C 353.959099 109.967824 349.707954 100.600383 348.3253 95.120564 C 347.830021 96.604814 347.334742 98.090651 346.839463 99.576489 C 346.401331 97.314397 345.599678 96.139696 345.350451 93.63314 C 342.872468 97.990643 347.1506 108.76455 351.303324 105.523012 C 353.722572 108.142276 356.903787 109.823368 360.232634 109.983698 " transform="matrix(2.460734,0,0,2.460734,0.321126,0)"/>
<path style="fill:none;stroke-width:0.484;stroke-linecap:square;stroke-linejoin:miter;stroke:rgb(0%,0%,0%);stroke-opacity:1;stroke-miterlimit:9.811;" d="M 366.180745 102.54975 C 368.865094 100.184475 370.817636 97.706493 372.130443 95.120564 " transform="matrix(2.460734,0,0,2.460734,0.321126,0)"/>
<path style="fill:none;stroke-width:0.484;stroke-linecap:square;stroke-linejoin:miter;stroke:rgb(0%,0%,0%);stroke-opacity:1;stroke-miterlimit:9.811;" d="M 369.160356 93.629965 C 367.560224 97.285823 365.566408 100.814686 363.207483 104.034 " transform="matrix(2.460734,0,0,2.460734,0.321126,0)"/>
<path style="fill:none;stroke-width:0.484;stroke-linecap:square;stroke-linejoin:miter;stroke:rgb(0%,0%,0%);stroke-opacity:1;stroke-miterlimit:9.811;" d="M 360.229459 101.060738 C 361.596239 98.144624 363.607516 95.641242 366.182332 93.628378 " transform="matrix(2.460734,0,0,2.460734,0.321126,0)"/>
<path style="fill:none;stroke-width:0.484;stroke-linecap:square;stroke-linejoin:miter;stroke:rgb(0%,0%,0%);stroke-opacity:1;stroke-miterlimit:9.811;" d="M 363.210658 92.145715 C 360.670765 95.714264 357.119678 97.444566 354.281348 101.062326 " transform="matrix(2.460734,0,0,2.460734,0.321126,0)"/>
<path style="fill:none;stroke-width:0.484;stroke-linecap:square;stroke-linejoin:miter;stroke:rgb(0%,0%,0%);stroke-opacity:1;stroke-miterlimit:9.811;" d="M 354.279761 99.573314 C 356.092609 96.931825 358.016578 94.526865 360.232634 92.145715 " transform="matrix(2.460734,0,0,2.460734,0.321126,0)"/>
<path style="fill:none;stroke-width:0.484;stroke-linecap:square;stroke-linejoin:miter;stroke:rgb(0%,0%,0%);stroke-opacity:1;stroke-miterlimit:9.811;" d="M 357.259372 90.658291 C 356.303738 93.026741 354.809963 95.011032 352.795511 96.601639 " transform="matrix(2.460734,0,0,2.460734,0.321126,0)"/>
<path style="fill:none;stroke-width:0.484;stroke-linecap:square;stroke-linejoin:miter;stroke:rgb(0%,0%,0%);stroke-opacity:1;stroke-miterlimit:9.811;" d="M 349.820662 92.145715 C 351.64621 91.964748 353.200306 90.866244 354.284523 89.172454 " transform="matrix(2.460734,0,0,2.460734,0.321126,0)"/>
<path style="fill:none;stroke-width:0.484;stroke-linecap:square;stroke-linejoin:miter;stroke:rgb(0%,0%,0%);stroke-opacity:1;stroke-miterlimit:9.811;" d="M 376.600654 90.658291 C 378.086491 92.145715 379.575503 93.631552 381.064515 95.11739 " transform="matrix(2.460734,0,0,2.460734,0.321126,0)"/>
<path style="fill:none;stroke-width:0.484;stroke-linecap:square;stroke-linejoin:miter;stroke:rgb(0%,0%,0%);stroke-opacity:1;stroke-miterlimit:9.811;" d="M 381.059753 93.629965 C 380.067607 92.639407 379.075462 91.650436 378.083316 90.658291 " transform="matrix(2.460734,0,0,2.460734,0.321126,0)"/>
<path style="fill:none;stroke-width:0.484;stroke-linecap:square;stroke-linejoin:miter;stroke:rgb(0%,0%,0%);stroke-opacity:1;stroke-miterlimit:9.811;" d="M 382.550352 92.145715 C 386.615768 96.87944 390.890725 101.54173 397.429361 98.090651 L 394.452924 98.090651 C 394.259257 98.339878 395.860977 94.442731 395.940349 95.11739 C 392.752783 97.18899 391.832072 96.601639 388.501638 95.11739 C 389.887467 94.850701 391.552684 95.145963 392.965499 95.11739 L 392.965499 93.629965 C 389.336628 95.265021 386.98564 92.764814 382.556702 92.145715 " transform="matrix(2.460734,0,0,2.460734,0.321126,0)"/>
<path style="fill:none;stroke-width:0.484;stroke-linecap:square;stroke-linejoin:miter;stroke:rgb(0%,0%,0%);stroke-opacity:1;stroke-miterlimit:9.811;" d="M 366.180745 80.255843 C 365.193362 80.811445 364.202803 79.73834 364.691733 81.740093 C 361.524804 80.532056 358.718223 79.598646 355.76401 78.768419 C 359.169054 78.0255 371.574842 74.715702 363.202721 80.255843 " transform="matrix(2.460734,0,0,2.460734,0.321126,0)"/>
<path style="fill:none;stroke-width:0.484;stroke-linecap:square;stroke-linejoin:miter;stroke:rgb(0%,0%,0%);stroke-opacity:1;stroke-miterlimit:9.811;" d="M 366.180745 78.768419 C 369.595313 80.847956 370.736677 83.211643 369.155594 86.200779 C 370.903358 87.586608 372.20029 89.043871 373.619455 90.658291 C 373.481349 87.88822 373.606756 86.41032 373.619455 84.713355 C 372.925747 82.667154 371.717711 83.905351 373.619455 80.255843 C 369.385772 82.568733 363.985325 76.606335 369.155594 72.823483 C 367.668169 73.318762 366.180745 73.815628 364.691733 74.30932 L 364.691733 72.823483 C 366.074387 71.421779 365.094941 72.004367 366.180745 69.851808 C 364.950484 71.380506 363.693237 71.442416 361.715296 72.823483 C 362.897934 70.87729 362.491551 70.356612 363.202721 68.365971 C 360.942216 71.972618 359.107144 71.361457 355.76401 69.851808 " transform="matrix(2.460734,0,0,2.460734,0.321126,0)"/>
<path style="fill:none;stroke-width:0.484;stroke-linecap:square;stroke-linejoin:miter;stroke:rgb(0%,0%,0%);stroke-opacity:1;stroke-miterlimit:9.811;" d="M 355.77036 71.337645 C 356.800604 70.353437 357.478438 69.86292 357.257785 68.364384 L 357.257785 69.850221 C 357.695916 65.714958 358.748384 67.49447 357.257785 63.906872 C 358.12611 64.857744 359.586549 65.772106 360.234221 66.878546 C 359.483366 64.078315 360.08659 62.230543 358.745209 59.447773 C 360.331055 60.965359 361.599414 61.233635 363.210658 63.906872 C 362.653469 61.703515 362.647119 60.262126 361.721646 57.963523 C 365.977553 61.711452 369.212742 65.691147 370.650956 71.337645 " transform="matrix(2.460734,0,0,2.460734,0.321126,0)"/>
<path style="fill:none;stroke-width:0.484;stroke-linecap:square;stroke-linejoin:miter;stroke:rgb(0%,0%,0%);stroke-opacity:1;stroke-miterlimit:9.811;" d="M 343.859851 65.392709 C 341.87556 62.684549 339.81666 61.581283 339.39599 57.963523 L 339.39599 62.419448 C 337.916503 60.201804 336.08778 59.022341 334.932129 56.476099 C 335.543291 60.751056 335.932212 64.84822 337.908566 68.365971 L 337.908566 65.392709 C 338.873725 68.959671 342.075577 72.269468 343.859851 74.30932 C 345.54253 73.24574 344.380529 74.671254 345.347276 72.823483 C 347.355378 74.412503 348.866615 76.399969 349.812725 78.768419 " transform="matrix(2.460734,0,0,2.460734,0.321126,0)"/>
<path style="fill:none;stroke-width:0.484;stroke-linecap:square;stroke-linejoin:miter;stroke:rgb(0%,0%,0%);stroke-opacity:1;stroke-miterlimit:9.811;" d="M 349.820662 28.238843 C 348.911063 29.824689 347.512534 30.79461 346.844225 32.696355 L 346.844225 28.238843 " transform="matrix(2.460734,0,0,2.460734,0.321126,0)"/>
<path style="fill:none;stroke-width:0.484;stroke-linecap:square;stroke-linejoin:miter;stroke:rgb(0%,0%,0%);stroke-opacity:1;stroke-miterlimit:9.811;" d="M 340.889764 25.267169 C 341.189789 22.163738 340.692923 19.190476 339.40234 16.348971 " transform="matrix(2.460734,0,0,2.460734,0.321126,0)"/>
<path style="fill:none;stroke-width:0.484;stroke-linecap:square;stroke-linejoin:miter;stroke:rgb(0%,0%,0%);stroke-opacity:1;stroke-miterlimit:9.811;" d="M 320.05947 10.402448 C 325.423406 12.969326 333.098644 27.630856 328.98878 32.696355 " transform="matrix(2.460734,0,0,2.460734,0.321126,0)"/>
<path style="fill:none;stroke-width:0.484;stroke-linecap:square;stroke-linejoin:miter;stroke:rgb(0%,0%,0%);stroke-opacity:1;stroke-miterlimit:9.811;" d="M 323.029557 25.267169 C 318.938743 17.093477 314.252641 9.28807 305.1757 5.946523 " transform="matrix(2.460734,0,0,2.460734,0.321126,0)"/>
<path style="fill:none;stroke-width:0.484;stroke-linecap:square;stroke-linejoin:miter;stroke:rgb(0%,0%,0%);stroke-opacity:1;stroke-miterlimit:9.811;" d="M 279.879957 34.183779 C 277.087663 40.890683 267.269391 44.965623 260.5355 46.072064 " transform="matrix(2.460734,0,0,2.460734,0.321126,0)"/>
<path style="fill:none;stroke-width:0.484;stroke-linecap:square;stroke-linejoin:miter;stroke:rgb(0%,0%,0%);stroke-opacity:1;stroke-miterlimit:9.811;" d="M 272.439659 41.614552 C 256.284355 78.547765 243.543619 108.945517 254.584215 150.104477 " transform="matrix(2.460734,0,0,2.460734,0.321126,0)"/>
<path style="fill:none;stroke-width:0.484;stroke-linecap:square;stroke-linejoin:miter;stroke:rgb(0%,0%,0%);stroke-opacity:1;stroke-miterlimit:9.811;" d="M 272.439659 123.349883 C 271.334806 132.988775 275.400222 146.259714 276.903521 156.046238 C 278.805265 168.434564 284.342231 178.883047 284.342231 191.714267 " transform="matrix(2.460734,0,0,2.460734,0.321126,0)"/>
<path style="fill:none;stroke-width:0.484;stroke-linecap:square;stroke-linejoin:miter;stroke:rgb(0%,0%,0%);stroke-opacity:1;stroke-miterlimit:9.811;" d="M 250.120353 118.900309 C 244.175417 101.549668 252.172904 66.434065 262.024512 52.021762 " transform="matrix(2.460734,0,0,2.460734,0.321126,0)"/>
<path style="fill:none;stroke-width:0.484;stroke-linecap:square;stroke-linejoin:miter;stroke:rgb(0%,0%,0%);stroke-opacity:1;stroke-miterlimit:9.811;" d="M 239.709969 41.614552 L 233.750746 43.098802 " transform="matrix(2.460734,0,0,2.460734,0.321126,0)"/>
<path style="fill:none;stroke-width:0.484;stroke-linecap:square;stroke-linejoin:miter;stroke:rgb(0%,0%,0%);stroke-opacity:1;stroke-miterlimit:9.811;" d="M 224.829373 78.768419 C 220.849679 84.733991 213.444305 89.899498 211.437789 96.601639 C 214.731713 94.750693 218.222478 93.188659 221.852936 92.145715 C 214.363428 98.1224 211.555259 103.68159 208.461353 112.95061 C 209.874168 110.059895 211.877508 107.567626 214.414226 105.519837 C 210.174193 114.517407 204.16576 125.337349 208.461353 135.24293 C 209.561444 131.952182 211.069505 130.64255 212.925214 127.815332 C 208.594697 133.945997 209.00743 143.248354 211.437789 150.107651 " transform="matrix(2.460734,0,0,2.460734,0.321126,0)"/>
<path style=" stroke:none;fill-rule:evenodd;fill:rgb(70.196078%,33.72549%,12.54902%);fill-opacity:1;" d="M 99.53125 742.402344 C 92.917969 739.824219 86.761719 739.65625 81.226562 735.089844 C 82.128906 742.757812 88.300781 748.765625 95.871094 753.378906 C 85.707031 753.546875 76.855469 749.875 70.242188 742.402344 C 73.675781 750.910156 80.035156 757.265625 88.546875 760.695312 C 51.8125 733.984375 16.210938 701.832031 4.332031 654.632812 C 14.816406 659.832031 25.652344 658.292969 37.285156 658.292969 C 30.769531 655.757812 25.296875 650.347656 18.976562 647.316406 C 40.867188 636.839844 69.140625 648.789062 79.390625 669.261719 C 90.261719 690.941406 78.996094 727.65625 99.53125 742.394531 M 491.304688 263.316406 C 494.480469 242.378906 502.226562 206.210938 524.257812 197.492188 C 519.851562 200.511719 514.402344 202.414062 509.613281 204.804688 C 518.738281 186.574219 529.5625 157.992188 549.890625 149.949219 C 538.207031 150.066406 529.230469 155.15625 524.257812 164.578125 C 535.0625 138.257812 556.902344 125.042969 575.519531 106.058594 C 592.648438 88.597656 615.789062 73.457031 630.441406 54.863281 C 618.964844 55.289062 609.339844 58.234375 601.152344 65.832031 C 621.042969 47.847656 625.371094 37.667969 653.082031 34.203125 C 666.785156 32.492188 683.003906 24.992188 696.347656 25.601562 C 710.804688 26.261719 725.828125 34.382812 740.285156 36.578125 C 731.332031 29.414062 724.78125 19.019531 710.992188 21.949219 C 729.234375 21.949219 747.875 19.671875 762.253906 32.914062 C 757.867188 21.878906 748.6875 13.960938 736.625 14.636719 C 749.15625 14.636719 761.894531 12.800781 773.238281 18.289062 C 768.273438 11.960938 762.109375 7.019531 754.933594 3.660156 C 777.914062 0.136719 803.777344 15.914062 813.523438 36.5625 C 813.425781 26.902344 809.367188 17.957031 802.539062 10.960938 C 822.40625 14.5625 847.074219 51.289062 853.800781 69.480469 C 855.066406 55.394531 851.5 42.820312 850.136719 29.25 C 856.417969 41.6875 861.773438 55.441406 861.121094 69.480469 C 864.1875 60.285156 864.1875 49.414062 861.121094 40.21875 C 874.453125 54.40625 874.71875 73.5625 868.445312 91.417969 C 878.605469 71.136719 887.976562 52.015625 905.0625 36.5625 C 892.65625 55.152344 875.75 78.398438 879.429688 102.394531 C 881.195312 95.863281 884.285156 90.28125 886.757812 84.105469 C 885.214844 92.066406 886.390625 100.007812 890.414062 106.046875 C 897.742188 91.421875 905.0625 76.792969 912.386719 62.164062 C 900.441406 76.042969 900.214844 96.085938 897.742188 113.359375 C 901.550781 107.796875 904.441406 107.230469 908.726562 102.394531 C 905.511719 108.28125 904.277344 114.730469 901.402344 120.671875 C 909.671875 114.109375 916.242188 105.039062 919.707031 95.074219 C 919.605469 104.734375 915.554688 113.683594 908.722656 120.671875 C 917.164062 121.328125 924.117188 118.925781 930.691406 113.359375 C 926.078125 121.257812 918.417969 123.296875 908.722656 124.332031 C 915.78125 129.082031 925.230469 128.96875 934.355469 127.988281 C 930.453125 129.953125 927.265625 133.335938 923.371094 135.304688 L 934.355469 135.304688 C 914.554688 135.304688 892.148438 138.78125 883.09375 117.019531 C 884.789062 121.601562 884.730469 126.617188 886.753906 131.648438 C 870.929688 128.789062 861.160156 113.425781 857.460938 98.730469 C 859.242188 105.027344 858.742188 107.753906 861.121094 113.359375 C 848.988281 103.382812 833.800781 110.679688 820.84375 104.21875 C 806.023438 96.824219 802.855469 81.425781 784.230469 80.449219 C 785.453125 81.667969 786.671875 82.886719 787.890625 84.105469 C 783.796875 80.851562 777.75 79.484375 773.246094 76.792969 C 772.1875 87.328125 761.167969 85.9375 751.277344 91.417969 C 756.824219 93.269531 760.269531 97.582031 762.261719 98.730469 C 752.625 98.210938 743.722656 100.390625 736.632812 106.046875 C 742.5 104.890625 748.988281 106.769531 754.9375 106.046875 C 749.878906 112.773438 734.347656 133.234375 751.277344 135.304688 C 744.101562 138.515625 741.46875 142.035156 736.632812 149.933594 C 741.289062 148.171875 746.707031 148.230469 751.277344 146.273438 C 739.253906 154.949219 738.886719 169.144531 740.292969 182.84375 C 742.734375 180.40625 745.171875 177.96875 747.617188 175.53125 C 745.289062 182.476562 746.011719 190.4375 743.953125 197.476562 C 753.644531 194.242188 764.472656 192.726562 773.246094 186.5 C 768.066406 191.226562 767.859375 193.835938 762.261719 197.476562 C 778.691406 208.0625 802.8125 183.105469 815.351562 195.644531 C 832.007812 212.300781 814.183594 242.183594 831.832031 255.988281 C 826.449219 251.347656 824.660156 249.996094 820.84375 245.011719 C 818.738281 264.003906 827.546875 271.878906 831.832031 288.902344 C 827.683594 285.105469 824.25 284.210938 820.84375 277.925781 C 815.011719 314.09375 853.613281 328.351562 872.105469 351.074219 C 896.65625 381.242188 899.617188 421.46875 886.75 457.132812 C 884.402344 450.992188 880.699219 445.460938 879.425781 438.84375 C 879.425781 469.65625 879.59375 496.714844 872.101562 526.613281 C 870.878906 516.125 869.863281 501.824219 861.117188 497.359375 C 861.117188 524.632812 847.128906 555.824219 857.457031 581.472656 C 848.496094 560.59375 837.203125 538.769531 839.152344 515.644531 C 841.464844 488.1875 854.585938 460.050781 831.828125 435.1875 C 851.800781 467.523438 832.75 553.226562 809.859375 581.472656 C 814.246094 552.511719 822.570312 529.710938 809.859375 501.011719 C 804.4375 516.4375 801.519531 537.320312 806.195312 552.214844 C 804.167969 544.789062 800.910156 537.699219 798.871094 530.277344 C 802 563.785156 789.964844 614.363281 773.242188 643.644531 C 767.753906 627.730469 782.277344 603.1875 775.070312 588.789062 C 768.351562 575.359375 764.621094 549.316406 765.917969 533.925781 C 758.492188 548.761719 753.53125 570.773438 740.289062 581.46875 C 748.425781 548.9375 750.296875 524.027344 732.960938 493.695312 C 724.878906 529.871094 732.378906 583.472656 707.332031 614.382812 C 713.613281 595.574219 714.390625 579.609375 707.332031 559.527344 C 708.453125 573.679688 701.78125 586.984375 696.347656 599.757812 C 697.476562 580.394531 683.601562 564.078125 692.6875 544.902344 C 690.246094 558.3125 687.804688 571.722656 685.363281 585.132812 C 683.117188 577.09375 660.195312 520.28125 652.410156 519.300781 C 638.660156 517.574219 633.554688 565.4375 634.101562 574.15625 C 631.914062 563.378906 627.328125 551.554688 634.101562 541.242188 C 631.660156 543.679688 629.222656 546.121094 626.777344 548.5625 C 638.238281 524.960938 614.355469 501.230469 626.777344 479.074219 C 618.601562 490.539062 621.730469 501.511719 617.625 513.816406 C 612.496094 529.175781 603.925781 541.140625 597.484375 555.875 C 601.824219 525.460938 611.582031 497.613281 593.824219 468.101562 L 593.824219 504.675781 C 592.648438 496.539062 588.554688 488.808594 582.839844 482.734375 L 582.839844 490.046875 C 572.636719 469.65625 562.152344 451.597656 564.53125 427.871094 C 562.757812 434.027344 560.582031 438.484375 560.871094 446.15625 C 551.285156 434.316406 545.34375 417.523438 546.226562 402.273438 C 541.988281 418.789062 546.136719 432.035156 546.226562 449.816406 C 528.332031 431.277344 515.726562 398.890625 516.933594 373.011719 C 515.714844 376.667969 514.492188 380.324219 513.273438 383.984375 C 505.980469 355.007812 483.753906 316.886719 509.613281 288.898438 C 500.894531 292.976562 493.625 300.515625 494.964844 310.84375 C 485.800781 291.484375 497.113281 267.546875 509.613281 252.328125 C 501.101562 255.753906 494.738281 262.109375 491.304688 270.613281 C 491.355469 268.175781 491.355469 265.738281 491.355469 263.304688 M 919.746094 340.101562 C 911.953125 343.496094 904.238281 344 897.777344 340.101562 C 905.207031 336.78125 912 336.609375 919.75 340.101562 M 982.007812 263.304688 C 988.3125 260.472656 1007.402344 259.878906 1009.464844 257.820312 C 1026.832031 240.484375 1003.75 282.523438 1003.976562 281.589844 C 997.011719 274.628906 990.664062 266.335938 982 263.308594 M 890.460938 186.496094 C 913.542969 188.449219 887.828125 208.675781 890.460938 186.496094 "/>
<path style="fill:none;stroke-width:0.484;stroke-linecap:square;stroke-linejoin:miter;stroke:rgb(0%,0%,0%);stroke-opacity:1;stroke-miterlimit:9.811;" d="M 40.317289 301.699552 C 37.629765 300.651847 35.127971 300.583587 32.878579 298.727878 C 33.245276 301.844009 35.75342 304.285481 38.829865 306.160239 C 34.699364 306.228498 31.102242 304.736312 28.414718 301.699552 C 29.810071 305.156981 32.394412 307.739734 35.853428 309.133501 C 20.925209 298.278635 6.457346 285.212475 1.629963 266.031523 C 5.890633 268.144397 10.294172 267.518948 15.021547 267.518948 C 12.373709 266.488704 10.149715 264.29011 7.581249 263.058262 C 16.477223 258.800767 27.967062 263.656724 32.132485 271.97646 C 36.550311 280.786712 31.972155 295.706993 40.317289 301.696378 " transform="matrix(2.460734,0,0,2.460734,0.321126,0)"/>
<path style="fill:none;stroke-width:0.484;stroke-linecap:square;stroke-linejoin:miter;stroke:rgb(0%,0%,0%);stroke-opacity:1;stroke-miterlimit:9.811;" d="M 199.530456 107.010437 C 200.819451 98.501796 203.96733 83.803756 212.920452 80.260605 C 211.129827 81.487691 208.915359 82.260771 206.969166 83.23228 C 210.677409 75.823731 215.077773 64.208484 223.337186 60.93996 C 218.589174 60.987583 214.941254 63.056008 212.920452 66.883309 C 217.311291 56.188774 226.186628 50.818488 233.752333 43.103564 C 240.713226 36.00774 250.117179 29.85485 256.071639 22.298669 C 251.407761 22.4717 247.496327 23.668624 244.169068 26.756181 C 252.252276 19.44764 254.012739 15.31079 265.2724 13.902737 C 270.842702 13.207441 277.433723 10.15957 282.854806 10.40721 C 288.731483 10.675486 294.835162 13.975759 300.710251 14.866309 C 297.071855 11.956544 294.40973 7.732385 288.80768 8.92296 C 296.219404 8.92296 303.794633 7.997487 309.639561 13.378884 C 307.855287 8.894386 304.124819 5.67666 299.222827 5.951286 C 304.315311 5.951286 309.493517 5.205192 314.103422 7.435536 C 312.084208 4.863894 309.579239 2.855792 306.663125 1.490599 C 316.003579 0.058735 326.512385 6.470376 330.47303 14.861546 C 330.433344 10.935825 328.784001 7.300604 326.009169 4.457511 C 334.082852 5.921125 344.107491 20.846168 346.84105 28.237256 C 347.355378 22.51456 345.90764 17.404614 345.353626 11.889872 C 347.90463 16.944258 350.082588 22.533609 349.817487 28.237256 C 351.062034 24.502026 351.062034 20.084201 349.817487 16.347384 C 355.235395 22.111352 355.341753 29.897711 352.792336 37.153866 C 356.921249 28.911915 360.7295 21.141431 367.672932 14.861546 C 362.631245 22.416139 355.762423 31.861365 357.257785 41.614552 C 357.973717 38.960365 359.229376 36.691923 360.234221 34.182192 C 359.608773 37.41738 360.085003 40.644631 361.721646 43.098802 C 364.698082 37.155454 367.672932 31.210517 370.649368 25.265581 C 365.796586 30.90573 365.702927 39.049261 364.698082 46.070477 C 366.247417 43.809972 367.42053 43.578207 369.161944 41.614552 C 367.855486 44.006814 367.355445 46.627665 366.185507 49.042151 C 369.546102 46.375264 372.217752 42.689245 373.624217 38.639703 C 373.584532 42.565425 371.936776 46.202233 369.160356 49.042151 C 372.590799 49.307252 375.416429 48.332568 378.089666 46.070477 C 376.21332 49.280266 373.100365 50.107318 369.160356 50.529575 C 372.028847 52.458306 375.870435 52.412271 379.577091 52.015413 C 377.991245 52.813891 376.697487 54.188608 375.113229 54.988674 L 379.577091 54.988674 C 371.530394 54.988674 362.426466 56.40149 358.745209 47.557901 C 359.435743 49.418372 359.410344 51.458224 360.232634 53.50125 C 353.803531 52.339249 349.831774 46.097463 348.328475 40.12554 C 349.052344 42.684482 348.849153 43.79251 349.817487 46.070477 C 344.885333 42.016173 338.713394 44.981498 333.449467 42.355884 C 327.426746 39.350873 326.137751 33.093213 318.570458 32.696355 C 319.065737 33.191634 319.561017 33.686913 320.056296 34.182192 C 318.392666 32.858273 315.93532 32.304259 314.106597 31.210517 C 313.674815 35.490236 309.196667 34.926698 305.177287 37.153866 C 307.431442 37.906309 308.831558 39.658835 309.642736 40.12554 C 305.724952 39.914412 302.10878 40.800199 299.226002 43.097215 C 301.610326 42.628922 304.247052 43.392477 306.664712 43.097215 C 304.610574 45.832362 298.297353 54.147335 305.177287 54.988674 C 302.261173 56.293544 301.191243 57.722234 299.226002 60.93361 C 301.118222 60.217678 303.321578 60.24149 305.177287 59.446186 C 300.292756 62.971874 300.14195 68.740605 300.713426 74.307732 C 301.705572 73.317174 302.697717 72.326616 303.689863 71.336058 C 302.743753 74.158514 303.037428 77.393702 302.202438 80.254256 C 306.139272 78.938274 310.539636 78.32235 314.106597 75.793569 C 312.000074 77.714363 311.91594 78.774768 309.642736 80.254256 C 316.317891 84.556199 326.120289 74.41409 331.217536 79.50975 C 337.984762 86.278563 330.741306 98.422425 337.913328 104.032413 C 335.727433 102.146542 335.000389 101.597291 333.449467 99.571726 C 332.592253 107.288237 336.171914 110.490089 337.913328 117.408122 C 336.227474 115.865137 334.833708 115.501615 333.449467 112.947436 C 331.077842 127.645476 346.766441 133.439606 354.279761 142.673703 C 364.256776 154.933447 365.461638 171.280831 360.232634 185.774093 C 359.276999 183.278648 357.772113 181.029256 357.25461 178.341732 C 357.25461 190.863403 357.322869 201.85955 354.279761 214.009761 C 353.781307 209.747504 353.368574 203.934325 349.814312 202.121477 C 349.814312 213.203345 344.129715 225.880584 348.326887 236.303668 C 344.685316 227.81884 340.096048 218.948265 340.888177 209.55225 C 341.827937 198.394184 347.161712 186.958318 337.91174 176.855895 C 346.028285 189.996664 338.286375 224.824941 328.984018 236.303668 C 330.766705 224.534441 334.149525 215.268595 328.984018 203.605726 C 326.780661 209.874499 325.596436 218.359327 327.496593 224.413796 C 326.671128 221.396086 325.347209 218.514896 324.518569 215.498773 C 325.790103 229.115772 320.899222 249.668266 314.103422 261.56925 C 311.873079 255.102048 317.776742 245.128208 314.846341 239.27693 C 312.117544 233.819336 310.601545 223.234334 311.126986 216.981436 C 308.109276 223.010506 306.093236 231.95569 300.711839 236.302081 C 304.018461 223.080353 304.778842 212.957293 297.735402 200.632464 C 294.449416 215.33368 297.497287 237.116434 287.318668 249.67779 C 289.87126 242.034301 290.187159 235.546463 287.318668 227.38547 C 287.774261 233.13674 285.062926 238.543536 282.854806 243.734442 C 283.313575 235.865537 277.6766 229.233242 281.367382 221.442122 C 280.375236 226.891779 279.384678 232.341436 278.390945 237.791093 C 277.478171 234.524156 268.164703 211.436533 264.999362 211.038087 C 259.411598 210.336442 257.338411 229.787256 257.560651 233.330407 C 256.671689 228.950679 254.806455 224.14552 257.560651 219.954697 C 256.568506 220.945255 255.57636 221.937401 254.582627 222.929546 C 259.241743 213.338277 249.534591 203.694622 254.582627 194.690703 C 251.26013 199.349819 252.531664 203.808918 250.863272 208.809331 C 248.778973 215.051117 245.296145 219.913424 242.678468 225.901221 C 244.442106 213.541469 248.407513 202.22466 241.191044 190.231604 L 241.191044 205.094738 C 240.713226 201.788116 239.049597 198.646586 236.727182 196.178128 L 236.727182 199.149802 C 232.580808 190.863403 228.321725 183.524701 229.288472 173.882633 C 228.567777 176.384428 227.68199 178.195688 227.79946 181.313407 C 223.9039 176.501898 221.489414 169.677524 221.848174 163.480186 C 220.127397 170.190264 221.811663 175.573249 221.848174 182.800831 C 214.576144 175.266875 209.453498 162.105469 209.945603 151.588726 C 209.448736 153.074563 208.953457 154.560401 208.456591 156.047825 C 205.494441 144.272248 196.46036 128.780491 206.969166 117.406534 C 203.426016 119.062227 200.471803 122.12756 201.016293 126.324732 C 197.292175 118.457415 201.889381 108.729626 206.969166 102.544988 C 203.511737 103.937167 200.924222 106.518332 199.530456 109.975761 C 199.549505 108.985203 199.549505 107.994645 199.549505 107.005674 " transform="matrix(2.460734,0,0,2.460734,0.321126,0)"/>
<path style="fill:none;stroke-width:0.484;stroke-linecap:square;stroke-linejoin:miter;stroke:rgb(0%,0%,0%);stroke-opacity:1;stroke-miterlimit:9.811;" d="M 373.619455 138.219367 C 370.454114 139.598846 367.317347 139.803625 364.691733 138.219367 C 367.712617 136.870049 370.471576 136.800202 373.62263 138.219367 " transform="matrix(2.460734,0,0,2.460734,0.321126,0)"/>
<path style="fill:none;stroke-width:0.484;stroke-linecap:square;stroke-linejoin:miter;stroke:rgb(0%,0%,0%);stroke-opacity:1;stroke-miterlimit:9.811;" d="M 398.91996 107.010437 C 401.482077 105.859548 409.239861 105.618258 410.079613 104.781681 C 417.135752 97.736654 407.757199 114.820606 407.847683 114.44121 C 405.01729 111.612404 402.437711 108.242285 398.918373 107.012024 " transform="matrix(2.460734,0,0,2.460734,0.321126,0)"/>
<path style="fill:none;stroke-width:0.484;stroke-linecap:square;stroke-linejoin:miter;stroke:rgb(0%,0%,0%);stroke-opacity:1;stroke-miterlimit:9.811;" d="M 361.720058 75.795157 C 371.100199 76.587286 360.650129 84.808601 361.720058 75.795157 " transform="matrix(2.460734,0,0,2.460734,0.321126,0)"/>
<path style="fill:none;stroke-width:0.484;stroke-linecap:square;stroke-linejoin:miter;stroke:rgb(0%,0%,0%);stroke-opacity:1;stroke-miterlimit:9.811;" d="M 326.010756 178.340145 C 327.755345 188.067933 326.425076 195.857466 327.498181 205.091563 " transform="matrix(2.460734,0,0,2.460734,0.321126,0)"/>
<path style="fill:none;stroke-width:0.484;stroke-linecap:square;stroke-linejoin:miter;stroke:rgb(0%,0%,0%);stroke-opacity:1;stroke-miterlimit:9.811;" d="M 323.029557 205.099501 C 324.442373 208.423585 324.936064 211.896888 324.516982 215.503536 " transform="matrix(2.460734,0,0,2.460734,0.321126,0)"/>
<path style="fill:none;stroke-width:0.484;stroke-linecap:square;stroke-linejoin:miter;stroke:rgb(0%,0%,0%);stroke-opacity:1;stroke-miterlimit:9.811;" d="M 349.820662 175.370058 C 349.161877 165.726403 354.222613 154.708032 349.820662 145.645378 " transform="matrix(2.460734,0,0,2.460734,0.321126,0)"/>
<path style="fill:none;stroke-width:0.484;stroke-linecap:square;stroke-linejoin:miter;stroke:rgb(0%,0%,0%);stroke-opacity:1;stroke-miterlimit:9.811;" d="M 339.400752 132.269668 C 337.714899 141.662509 334.716238 149.056771 330.471443 157.536837 " transform="matrix(2.460734,0,0,2.460734,0.321126,0)"/>
<path style="fill:none;stroke-width:0.484;stroke-linecap:square;stroke-linejoin:miter;stroke:rgb(0%,0%,0%);stroke-opacity:1;stroke-miterlimit:9.811;" d="M 331.960455 132.269668 C 326.437776 148.321789 331.960455 169.107635 331.960455 185.77568 " transform="matrix(2.460734,0,0,2.460734,0.321126,0)"/>
<path style="fill:none;stroke-width:0.484;stroke-linecap:square;stroke-linejoin:miter;stroke:rgb(0%,0%,0%);stroke-opacity:1;stroke-miterlimit:9.811;" d="M 343.859851 178.340145 C 348.598338 167.207478 345.469508 147.54871 337.908566 138.214604 " transform="matrix(2.460734,0,0,2.460734,0.321126,0)"/>
<path style="fill:none;stroke-width:0.484;stroke-linecap:square;stroke-linejoin:miter;stroke:rgb(0%,0%,0%);stroke-opacity:1;stroke-miterlimit:9.811;" d="M 308.150549 196.179715 C 315.957544 176.719376 297.514749 150.715638 292.884207 132.217283 C 288.831491 116.033405 292.798486 86.857976 309.637974 78.768419 " transform="matrix(2.460734,0,0,2.460734,0.321126,0)"/>
<path style="fill:none;stroke-width:0.484;stroke-linecap:square;stroke-linejoin:miter;stroke:rgb(0%,0%,0%);stroke-opacity:1;stroke-miterlimit:9.811;" d="M 315.589259 81.740093 C 302.277048 93.880779 303.361264 136.874811 320.054708 145.646965 C 316.706812 139.644881 309.958635 109.658275 321.542133 111.466361 C 317.257651 106.781846 316.449648 101.240118 317.078272 95.11739 C 320.035659 98.031916 318.932393 96.766732 323.029557 98.089064 C 317.17828 96.609577 317.197329 85.975364 318.565696 81.738505 " transform="matrix(2.460734,0,0,2.460734,0.321126,0)"/>
<path style="fill:none;stroke-width:0.484;stroke-linecap:square;stroke-linejoin:miter;stroke:rgb(0%,0%,0%);stroke-opacity:1;stroke-miterlimit:9.811;" d="M 349.820662 138.219367 C 347.806209 139.811562 346.312435 141.79744 345.355213 144.16589 " transform="matrix(2.460734,0,0,2.460734,0.321126,0)"/>
<path style="fill:none;stroke-width:0.484;stroke-linecap:square;stroke-linejoin:miter;stroke:rgb(0%,0%,0%);stroke-opacity:1;stroke-miterlimit:9.811;" d="M 336.419553 138.219367 L 343.859851 132.269668 " transform="matrix(2.460734,0,0,2.460734,0.321126,0)"/>
<path style="fill:none;stroke-width:0.484;stroke-linecap:square;stroke-linejoin:miter;stroke:rgb(0%,0%,0%);stroke-opacity:1;stroke-miterlimit:9.811;" d="M 349.820662 28.238843 C 348.911063 29.824689 347.512534 30.79461 346.844225 32.696355 L 346.844225 28.238843 " transform="matrix(2.460734,0,0,2.460734,0.321126,0)"/>
<path style="fill:none;stroke-width:0.484;stroke-linecap:square;stroke-linejoin:miter;stroke:rgb(0%,0%,0%);stroke-opacity:1;stroke-miterlimit:9.811;" d="M 340.889764 25.267169 C 341.189789 22.163738 340.692923 19.190476 339.40234 16.348971 " transform="matrix(2.460734,0,0,2.460734,0.321126,0)"/>
<path style="fill:none;stroke-width:0.484;stroke-linecap:square;stroke-linejoin:miter;stroke:rgb(0%,0%,0%);stroke-opacity:1;stroke-miterlimit:9.811;" d="M 320.05947 10.402448 C 325.423406 12.969326 333.098644 27.630856 328.98878 32.696355 " transform="matrix(2.460734,0,0,2.460734,0.321126,0)"/>
<path style="fill:none;stroke-width:0.484;stroke-linecap:square;stroke-linejoin:miter;stroke:rgb(0%,0%,0%);stroke-opacity:1;stroke-miterlimit:9.811;" d="M 323.029557 25.267169 C 318.938743 17.093477 314.252641 9.28807 305.1757 5.946523 " transform="matrix(2.460734,0,0,2.460734,0.321126,0)"/>
<path style="fill:none;stroke-width:0.484;stroke-linecap:square;stroke-linejoin:miter;stroke:rgb(0%,0%,0%);stroke-opacity:1;stroke-miterlimit:9.811;" d="M 279.879957 34.183779 C 277.087663 40.890683 267.269391 44.965623 260.5355 46.072064 " transform="matrix(2.460734,0,0,2.460734,0.321126,0)"/>
<path style="fill:none;stroke-width:0.484;stroke-linecap:square;stroke-linejoin:miter;stroke:rgb(0%,0%,0%);stroke-opacity:1;stroke-miterlimit:9.811;" d="M 272.439659 41.614552 C 256.284355 78.547765 243.543619 108.945517 254.584215 150.104477 " transform="matrix(2.460734,0,0,2.460734,0.321126,0)"/>
<path style="fill:none;stroke-width:0.484;stroke-linecap:square;stroke-linejoin:miter;stroke:rgb(0%,0%,0%);stroke-opacity:1;stroke-miterlimit:9.811;" d="M 250.120353 118.900309 C 244.175417 101.549668 252.172904 66.434065 262.024512 52.021762 " transform="matrix(2.460734,0,0,2.460734,0.321126,0)"/>
<path style="fill:none;stroke-width:0.484;stroke-linecap:square;stroke-linejoin:miter;stroke:rgb(0%,0%,0%);stroke-opacity:1;stroke-miterlimit:9.811;" d="M 239.709969 41.614552 L 233.750746 43.098802 " transform="matrix(2.460734,0,0,2.460734,0.321126,0)"/>
<path style="fill:none;stroke-width:0.484;stroke-linecap:square;stroke-linejoin:miter;stroke:rgb(0%,0%,0%);stroke-opacity:1;stroke-miterlimit:9.811;" d="M 224.829373 78.768419 C 220.849679 84.733991 213.444305 89.899498 211.437789 96.601639 C 214.731713 94.750693 218.222478 93.188659 221.852936 92.145715 C 214.363428 98.1224 211.555259 103.68159 208.461353 112.95061 C 209.874168 110.059895 211.877508 107.567626 214.414226 105.519837 C 210.174193 114.517407 204.16576 125.337349 208.461353 135.24293 C 209.561444 131.952182 211.069505 130.64255 212.925214 127.815332 C 208.594697 133.945997 209.00743 143.248354 211.437789 150.107651 " transform="matrix(2.460734,0,0,2.460734,0.321126,0)"/>
<path style="fill:none;stroke-width:0.484;stroke-linecap:square;stroke-linejoin:miter;stroke:rgb(0%,0%,0%);stroke-opacity:1;stroke-miterlimit:9.811;" d="M 230.780659 160.510099 C 229.542461 164.816804 228.98686 169.412422 229.291647 173.885808 " transform="matrix(2.460734,0,0,2.460734,0.321126,0)"/>
<path style="fill:none;stroke-width:0.484;stroke-linecap:square;stroke-linejoin:miter;stroke:rgb(0%,0%,0%);stroke-opacity:1;stroke-miterlimit:9.811;" d="M 238.219369 154.560401 C 239.211515 166.450273 240.20366 178.338557 241.195806 190.22843 " transform="matrix(2.460734,0,0,2.460734,0.321126,0)"/>
<path style="fill:none;stroke-width:0.484;stroke-linecap:square;stroke-linejoin:miter;stroke:rgb(0%,0%,0%);stroke-opacity:1;stroke-miterlimit:9.811;" d="M 262.029275 185.780443 C 258.695666 191.222162 262.395972 204.772489 265.005711 211.044437 " transform="matrix(2.460734,0,0,2.460734,0.321126,0)"/>
<path style="fill:none;stroke-width:0.484;stroke-linecap:square;stroke-linejoin:miter;stroke:rgb(0%,0%,0%);stroke-opacity:1;stroke-miterlimit:9.811;" d="M 272.439659 123.349883 C 271.334806 132.988775 275.400222 146.259714 276.903521 156.046238 C 278.805265 168.434564 284.342231 178.883047 284.342231 191.714267 " transform="matrix(2.460734,0,0,2.460734,0.321126,0)"/>
<path style="fill:none;stroke-width:0.484;stroke-linecap:square;stroke-linejoin:miter;stroke:rgb(0%,0%,0%);stroke-opacity:1;stroke-miterlimit:9.811;" d="M 291.779354 176.860657 C 291.317411 184.378739 293.741421 194.144626 297.732227 200.637227 " transform="matrix(2.460734,0,0,2.460734,0.321126,0)"/>
<path style="fill:none;stroke-width:0.484;stroke-linecap:square;stroke-linejoin:miter;stroke:rgb(0%,0%,0%);stroke-opacity:1;stroke-miterlimit:9.811;" d="M 23.950857 300.21054 C 18.120216 295.343471 19.185383 288.177799 16.510559 282.372557 " transform="matrix(2.460734,0,0,2.460734,0.321126,0)"/>
<path style="fill:none;stroke-width:0.484;stroke-linecap:square;stroke-linejoin:miter;stroke:rgb(0%,0%,0%);stroke-opacity:1;stroke-miterlimit:9.811;" d="M 9.070261 277.919808 L 6.095412 274.949721 " transform="matrix(2.460734,0,0,2.460734,0.321126,0)"/>
<path style="fill:none;stroke-width:0.484;stroke-linecap:square;stroke-linejoin:miter;stroke:rgb(0%,0%,0%);stroke-opacity:1;stroke-miterlimit:9.811;" d="M 28.414718 269.000023 C 31.664193 271.771681 32.335677 275.857733 29.90373 279.404058 " transform="matrix(2.460734,0,0,2.460734,0.321126,0)"/>
</g>
</svg>
