<?xml version="1.0" encoding="UTF-8"?>
<svg xmlns="http://www.w3.org/2000/svg" xmlns:xlink="http://www.w3.org/1999/xlink" width="1024pt" height="1843pt" viewBox="0 0 1024 1843" version="1.1">
<defs>
<clipPath id="clip1">
  <path d="M 577 65 L 990 65 L 990 1815 L 577 1815 Z M 577 65 "/>
</clipPath>
<clipPath id="clip2">
  <path d="M 877.773438 78.460938 C 877.457031 68.84375 870.5 59.015625 849.082031 58.230469 C 836.445312 57.96875 242.179688 40.25 242.179688 40.25 C 233.492188 40.171875 224.394531 42.300781 224.394531 56.640625 C 224.394531 63.992188 224.257812 124.652344 224.257812 124.652344 C 224.257812 124.652344 45.5625 480.644531 40.097656 491.222656 C 34.632812 501.808594 36 503.464844 35.945312 510.101562 C 35.886719 516.742188 78.242188 1597.359375 78.242188 1597.359375 L 574.699219 1807.445312 C 606.574219 1820.578125 613.820312 1812.621094 619.628906 1807.445312 L 898.179688 1531.570312 C 898.179688 1531.570312 987.6875 485.378906 988.742188 473.726562 C 989.792969 462.058594 988.78125 452.484375 986.75 443.015625 C 984.550781 432.757812 981.617188 421.328125 979.054688 415.382812 C 978.605469 414.34375 875.71875 155.429688 875.71875 155.429688 L 877.773438 78.464844 Z M 877.773438 78.460938 "/>
</clipPath>
<clipPath id="clip3">
  <path d="M 564 53 L 990 53 L 990 1815 L 564 1815 Z M 564 53 "/>
</clipPath>
<clipPath id="clip4">
  <path d="M 877.773438 78.460938 C 877.457031 68.84375 870.5 59.015625 849.082031 58.230469 C 836.445312 57.96875 242.179688 40.25 242.179688 40.25 C 233.492188 40.171875 224.394531 42.300781 224.394531 56.640625 C 224.394531 63.992188 224.257812 124.652344 224.257812 124.652344 C 224.257812 124.652344 45.5625 480.644531 40.097656 491.222656 C 34.632812 501.808594 36 503.464844 35.945312 510.101562 C 35.886719 516.742188 78.242188 1597.359375 78.242188 1597.359375 L 574.699219 1807.445312 C 606.574219 1820.578125 613.820312 1812.621094 619.628906 1807.445312 L 898.179688 1531.570312 C 898.179688 1531.570312 987.6875 485.378906 988.742188 473.726562 C 989.792969 462.058594 988.78125 452.484375 986.75 443.015625 C 984.550781 432.757812 981.617188 421.328125 979.054688 415.382812 C 978.605469 414.34375 875.71875 155.429688 875.71875 155.429688 L 877.773438 78.464844 Z M 877.773438 78.460938 "/>
</clipPath>
<clipPath id="clip5">
  <path d="M 35 40 L 924 40 L 924 1815 L 35 1815 Z M 35 40 "/>
</clipPath>
<clipPath id="clip6">
  <path d="M 877.773438 78.460938 C 877.457031 68.84375 870.5 59.015625 849.082031 58.230469 C 836.445312 57.96875 242.179688 40.25 242.179688 40.25 C 233.492188 40.171875 224.394531 42.300781 224.394531 56.640625 C 224.394531 63.992188 224.257812 124.652344 224.257812 124.652344 C 224.257812 124.652344 45.5625 480.644531 40.097656 491.222656 C 34.632812 501.808594 36 503.464844 35.945312 510.101562 C 35.886719 516.742188 78.242188 1597.359375 78.242188 1597.359375 L 574.699219 1807.445312 C 606.574219 1820.578125 613.820312 1812.621094 619.628906 1807.445312 L 898.179688 1531.570312 C 898.179688 1531.570312 987.6875 485.378906 988.742188 473.726562 C 989.792969 462.058594 988.78125 452.484375 986.75 443.015625 C 984.550781 432.757812 981.617188 421.328125 979.054688 415.382812 C 978.605469 414.34375 875.71875 155.429688 875.71875 155.429688 L 877.773438 78.464844 Z M 877.773438 78.460938 "/>
</clipPath>
<clipPath id="clip7">
  <path d="M 35 40 L 937 40 L 937 1815 L 35 1815 Z M 35 40 "/>
</clipPath>
<clipPath id="clip8">
  <path d="M 877.773438 78.460938 C 877.457031 68.84375 870.5 59.015625 849.082031 58.230469 C 836.445312 57.96875 242.179688 40.25 242.179688 40.25 C 233.492188 40.171875 224.394531 42.300781 224.394531 56.640625 C 224.394531 63.992188 224.257812 124.652344 224.257812 124.652344 C 224.257812 124.652344 45.5625 480.644531 40.097656 491.222656 C 34.632812 501.808594 36 503.464844 35.945312 510.101562 C 35.886719 516.742188 78.242188 1597.359375 78.242188 1597.359375 L 574.699219 1807.445312 C 606.574219 1820.578125 613.820312 1812.621094 619.628906 1807.445312 L 898.179688 1531.570312 C 898.179688 1531.570312 987.6875 485.378906 988.742188 473.726562 C 989.792969 462.058594 988.78125 452.484375 986.75 443.015625 C 984.550781 432.757812 981.617188 421.328125 979.054688 415.382812 C 978.605469 414.34375 875.71875 155.429688 875.71875 155.429688 L 877.773438 78.464844 Z M 877.773438 78.460938 "/>
</clipPath>
<clipPath id="clip9">
  <path d="M 187 40 L 913 40 L 913 155 L 187 155 Z M 187 40 "/>
</clipPath>
<clipPath id="clip10">
  <path d="M 877.773438 78.460938 C 877.457031 68.84375 870.5 59.015625 849.082031 58.230469 C 836.445312 57.96875 242.179688 40.25 242.179688 40.25 C 233.492188 40.171875 224.394531 42.300781 224.394531 56.640625 C 224.394531 63.992188 224.257812 124.652344 224.257812 124.652344 C 224.257812 124.652344 45.5625 480.644531 40.097656 491.222656 C 34.632812 501.808594 36 503.464844 35.945312 510.101562 C 35.886719 516.742188 78.242188 1597.359375 78.242188 1597.359375 L 574.699219 1807.445312 C 606.574219 1820.578125 613.820312 1812.621094 619.628906 1807.445312 L 898.179688 1531.570312 C 898.179688 1531.570312 987.6875 485.378906 988.742188 473.726562 C 989.792969 462.058594 988.78125 452.484375 986.75 443.015625 C 984.550781 432.757812 981.617188 421.328125 979.054688 415.382812 C 978.605469 414.34375 875.71875 155.429688 875.71875 155.429688 L 877.773438 78.464844 Z M 877.773438 78.460938 "/>
</clipPath>
<linearGradient id="linear0" gradientUnits="userSpaceOnUse" x1="453.21" y1="196.51" x2="395.96" y2="219.03" gradientTransform="matrix(2.835593,0,0,2.67863,-292.703556,-243.269174)">
<stop offset="0.3525" style="stop-color:rgb(99.607843%,99.215686%,92.941176%);stop-opacity:1;"/>
<stop offset="0.8574" style="stop-color:rgb(80%,81.568627%,72.156863%);stop-opacity:1;"/>
</linearGradient>
</defs>
<g id="surface1">
<g clip-path="url(#clip1)" clip-rule="nonzero">
<g clip-path="url(#clip2)" clip-rule="nonzero">
<path style=" stroke:none;fill-rule:nonzero;fill:rgb(99.215686%,98.823529%,90.196078%);fill-opacity:1;" d="M 917.46875 1577.34375 L 1018.53125 402.84375 L 893.878906 65.46875 L 644.542969 552.445312 L 577.144531 1902.019531 Z M 917.46875 1577.34375 "/>
</g>
</g>
<g clip-path="url(#clip3)" clip-rule="nonzero">
<g clip-path="url(#clip4)" clip-rule="nonzero">
<path style="fill:none;stroke-width:0.7922;stroke-linecap:butt;stroke-linejoin:miter;stroke:rgb(90.588235%,90.588235%,90.588235%);stroke-opacity:1;stroke-miterlimit:4;" d="M 426.779339 679.680667 L 462.420038 241.210231 L 418.460145 115.259644 L 330.529339 297.060262 L 306.760607 800.890315 Z M 426.779339 679.680667 " transform="matrix(2.835593,0,0,2.67863,-292.703556,-243.269174)"/>
</g>
</g>
<g clip-path="url(#clip5)" clip-rule="nonzero">
<g clip-path="url(#clip6)" clip-rule="nonzero">
<path style=" stroke:none;fill-rule:nonzero;fill:rgb(83.921569%,85.882353%,80%);fill-opacity:1;" d="M 923.652344 24.203125 L 875.730469 155.417969 L 657.078125 590.078125 L 603.171875 1854.820312 L 51.507812 1615.539062 L 7.699219 466.515625 L 193.035156 103.667969 L 199.78125 11.347656 Z M 923.652344 24.203125 "/>
</g>
</g>
<g clip-path="url(#clip7)" clip-rule="nonzero">
<g clip-path="url(#clip8)" clip-rule="nonzero">
<path style="fill:none;stroke-width:0.7922;stroke-linecap:butt;stroke-linejoin:miter;stroke:rgb(90.588235%,90.588235%,90.588235%);stroke-opacity:1;stroke-miterlimit:4;" d="M 428.960045 99.854147 L 412.059917 148.839954 L 334.949987 311.109539 L 315.93941 783.269657 L 121.389574 693.939939 L 105.940036 264.980545 L 171.300604 129.520375 L 173.679681 95.054877 Z M 428.960045 99.854147 " transform="matrix(2.835593,0,0,2.67863,-292.703556,-243.269174)"/>
</g>
</g>
<g clip-path="url(#clip9)" clip-rule="nonzero">
<g clip-path="url(#clip10)" clip-rule="nonzero">
<path style=" stroke:none;fill-rule:nonzero;fill:rgb(78.823529%,80.784314%,74.509804%);fill-opacity:1;" d="M 912.792969 49.316406 L 187.191406 11.113281 L 213.023438 120.410156 L 879.105469 154.347656 Z M 912.792969 49.316406 "/>
</g>
</g>
<path style="fill:none;stroke-width:0.7922;stroke-linecap:butt;stroke-linejoin:miter;stroke:rgb(90.588235%,90.588235%,90.588235%);stroke-opacity:1;stroke-miterlimit:4;" d="M 412.780391 120.109955 C 412.668807 116.519617 410.21534 112.85053 402.66208 112.557412 C 398.205615 112.459705 188.631913 105.84485 188.631913 105.84485 C 185.568179 105.815684 182.3598 106.610458 182.3598 111.963883 C 182.3598 114.708406 182.311585 137.354371 182.311585 137.354371 C 182.311585 137.354371 119.2929 270.255222 117.365668 274.204303 C 115.438437 278.1563 115.920589 278.77462 115.901303 281.252274 C 115.880639 283.731386 130.817718 687.153004 130.817718 687.153004 L 305.898243 765.583377 C 317.13928 770.486186 319.694687 767.515626 321.743146 765.583377 L 419.976858 662.59229 C 419.976858 662.59229 451.542682 272.022683 451.914628 267.67257 C 452.285196 263.316623 451.928403 259.742326 451.212063 256.207403 C 450.436486 252.377904 449.401925 248.110913 448.498234 245.891378 C 448.339813 245.50347 412.055785 148.844328 412.055785 148.844328 L 412.780391 120.111414 Z M 412.780391 120.109955 " transform="matrix(2.835593,0,0,2.67863,-292.703556,-243.269174)"/>
<path style="fill:none;stroke-width:0.7922;stroke-linecap:butt;stroke-linejoin:miter;stroke:rgb(90.588235%,90.588235%,90.588235%);stroke-opacity:1;stroke-miterlimit:4;" d="M 412.780391 120.109955 C 412.668807 116.519617 410.21534 112.85053 402.66208 112.557412 C 398.205615 112.459705 188.631913 105.84485 188.631913 105.84485 C 185.568179 105.815684 182.3598 106.610458 182.3598 111.963883 C 182.3598 114.708406 182.311585 137.354371 182.311585 137.354371 C 182.311585 137.354371 119.2929 270.255222 117.365668 274.204303 C 115.438437 278.1563 115.920589 278.77462 115.901303 281.252274 C 115.880639 283.731386 130.817718 687.153004 130.817718 687.153004 L 305.898243 765.583377 C 317.13928 770.486186 319.694687 767.515626 321.743146 765.583377 L 419.976858 662.59229 C 419.976858 662.59229 451.542682 272.022683 451.914628 267.67257 C 452.285196 263.316623 451.928403 259.742326 451.212063 256.207403 C 450.436486 252.377904 449.401925 248.110913 448.498234 245.891378 C 448.339813 245.50347 412.055785 148.844328 412.055785 148.844328 L 412.780391 120.111414 Z M 412.780391 120.109955 " transform="matrix(2.835593,0,0,2.67863,-292.703556,-243.269174)"/>
<path style=" stroke:none;fill-rule:nonzero;fill:rgb(91.764706%,92.941176%,81.568627%);fill-opacity:1;" d="M 978.492188 443.503906 L 802.628906 323.742188 L 675.851562 577.757812 Z M 978.492188 443.503906 "/>
<path style=" stroke:none;fill-rule:nonzero;fill:url(#linear0);" d="M 981.1875 439.246094 L 875.730469 174.515625 L 804.984375 319.566406 Z M 981.1875 439.246094 "/>
<path style="fill-rule:nonzero;fill:rgb(90.588235%,90.588235%,90.588235%);fill-opacity:1;stroke-width:1.5844;stroke-linecap:butt;stroke-linejoin:miter;stroke:rgb(90.588235%,90.588235%,90.588235%);stroke-opacity:1;stroke-miterlimit:4;" d="M 116.029418 277.570062 L 334.949987 311.109539 " transform="matrix(2.835593,0,0,2.67863,-292.703556,-243.269174)"/>
</g>
</svg>
