<?xml version="1.0" encoding="UTF-8"?>
<svg xmlns="http://www.w3.org/2000/svg" xmlns:xlink="http://www.w3.org/1999/xlink" width="1024pt" height="1129pt" viewBox="0 0 1024 1129" version="1.1">
<defs>
<linearGradient id="linear0" gradientUnits="userSpaceOnUse" x1="148.8473" y1="723.8817" x2="183.0565" y2="634.5076" gradientTransform="matrix(0.737614,0,0,-0.737288,375.634193,848.3816)">
<stop offset="0" style="stop-color:rgb(29.019608%,29.019608%,29.019608%);stop-opacity:1;"/>
<stop offset="0.5" style="stop-color:rgb(20%,20%,20%);stop-opacity:0.498039;"/>
<stop offset="1" style="stop-color:rgb(20%,20%,20%);stop-opacity:0;"/>
</linearGradient>
<linearGradient id="linear1" gradientUnits="userSpaceOnUse" x1="-1567.0149" y1="723.8802" x2="-1532.8057" y2="634.5062" gradientTransform="matrix(-0.737614,0,0,-0.737288,-474.205454,848.3816)">
<stop offset="0" style="stop-color:rgb(29.019608%,29.019608%,29.019608%);stop-opacity:1;"/>
<stop offset="0.5" style="stop-color:rgb(20%,20%,20%);stop-opacity:0.498039;"/>
<stop offset="1" style="stop-color:rgb(20%,20%,20%);stop-opacity:0;"/>
</linearGradient>
</defs>
<g id="surface1">
<path style="fill-rule:nonzero;fill:rgb(31.372549%,17.647059%,8.627451%);fill-opacity:1;stroke-width:1.6423;stroke-linecap:butt;stroke-linejoin:miter;stroke:rgb(0%,0%,0%);stroke-opacity:1;stroke-miterlimit:4;" d="M -226.246631 453.38544 C -224.557272 450.699287 -209.443076 452.739068 -205.709541 458.937883 C -199.963604 468.474522 -204.115507 484.501373 -212.281622 491.924057 C -223.810565 502.398465 -242.033393 504.136253 -258.238523 495.563874 C -295.192574 476.013765 -305.953627 428.447129 -288.493394 392.244989 C -263.004737 339.390817 -196.79672 326.33092 -148.68443 352.837478 C -104.792889 377.012857 -80.368686 427.731881 -82.889484 478.276067 L -82.841822 477.333 C -82.841822 477.333 -117.561048 733.333473 -123.163999 770.155495 C -171.938262 1090.729609 204.735684 1195.526673 257.635372 1093.177346 C 339.863166 934.074422 -100.026674 1139.260504 -30.424052 726.207484 C -8.123463 593.770062 -1.847947 605.659071 5.968645 503.479284 C 13.785237 401.294199 -35.846946 328.932303 -101.594229 290.489053 C -184.12918 245.01518 -297.70278 267.420983 -341.41956 358.087927 C -371.367276 420.192639 -354.531947 505.259457 -289.520778 535.32636 C -248.176514 554.447321 -191.628025 541.498685 -174.331961 494.52544 C -164.481784 467.775168 -173.378718 430.847184 -202.8657 422.428451 C -216.873075 418.428361 -242.71655 423.201978 -244.686586 438.402321 C -245.75104 446.619725 -235.757877 460.537919 -225.060373 452.855627 " transform="matrix(0.737614,0,0,0.737288,272.952915,177.111044)"/>
<path style="fill-rule:nonzero;fill:rgb(31.372549%,17.647059%,8.627451%);fill-opacity:1;stroke-width:1.6423;stroke-linecap:round;stroke-linejoin:miter;stroke:rgb(0%,0%,0%);stroke-opacity:1;stroke-miterlimit:4;" d="M 821.663921 -122.389129 C 818.216359 -103.278765 792.425842 -96.56603 774.293043 -60.649989 C 862.764579 114.946022 940.019624 133.786182 883.656487 289.471811 C 866.016197 338.21993 760.942346 453.623856 705.776059 426.704044 C 642.433066 395.81593 604.806449 386.05677 584.920742 390.067456 C 535.076728 357.081282 478.538831 338.437153 418.638104 338.437153 C 351.995831 338.437153 289.558418 361.537012 235.832587 401.765733 C 223.901163 402.544559 -15.045066 420.478738 -122.189572 616.710976 C -232.093187 817.97644 -199.963604 1121.257449 -183.880278 1159.854346 C -167.796951 1198.451243 -151.671258 1253.573015 -111.460294 1195.675021 C -71.259921 1137.782325 -168.241798 901.453819 -98.077822 751.792167 C -49.308854 647.76863 29.566703 552.645956 102.283252 574.882219 C 71.911873 643.297006 54.557555 722.53058 54.557555 806.956324 C 54.557555 1065.685336 217.562098 1275.422514 418.638104 1275.422514 C 619.714109 1275.422514 782.718652 1065.685336 782.718652 806.956324 C 782.718652 732.43279 769.161419 661.967625 745.102626 599.401977 C 785.562493 570.913917 850.001716 515.74976 931.143873 412.950091 C 1026.902421 291.633449 1061.679901 94.80782 821.674513 -122.389129 Z M 821.663921 -122.389129 " transform="matrix(0.737614,0,0,0.737288,272.952915,177.111044)"/>
<path style="fill-rule:nonzero;fill:rgb(31.372549%,17.647059%,8.627451%);fill-opacity:1;stroke-width:1.6423;stroke-linecap:round;stroke-linejoin:miter;stroke:rgb(0%,0%,0%);stroke-opacity:1;stroke-miterlimit:4;" d="M 127.38002 140.610177 C 127.38002 218.005299 64.640747 280.740488 -12.751987 280.740488 C -90.144722 280.740488 -152.883995 218.005299 -152.883995 140.610177 C -152.883995 63.215055 -90.144722 0.474568 -12.751987 0.474568 C 64.640747 0.474568 127.38002 63.215055 127.38002 140.610177 Z M 127.38002 140.610177 " transform="matrix(0.737614,0,0,0.737288,272.952915,177.111044)"/>
<path style="fill-rule:nonzero;fill:rgb(31.372549%,17.647059%,8.627451%);fill-opacity:1;stroke-width:1.6423;stroke-linecap:round;stroke-linejoin:miter;stroke:rgb(0%,0%,0%);stroke-opacity:1;stroke-miterlimit:4;" d="M 984.663168 140.610177 C 984.663168 218.005299 921.923895 280.740488 844.53116 280.740488 C 767.138425 280.740488 704.399153 218.005299 704.399153 140.610177 C 704.399153 63.215055 767.138425 0.474568 844.53116 0.474568 C 921.923895 0.474568 984.663168 63.215055 984.663168 140.610177 Z M 984.663168 140.610177 " transform="matrix(0.737614,0,0,0.737288,272.952915,177.111044)"/>
<path style="fill-rule:nonzero;fill:rgb(62.745098%,35.294118%,17.254902%);fill-opacity:1;stroke-width:1.6423;stroke-linecap:round;stroke-linejoin:miter;stroke:rgb(0%,0%,0%);stroke-opacity:1;stroke-miterlimit:4;" d="M 127.602443 142.946654 C 127.602443 199.218121 81.984473 244.835043 25.716661 244.835043 C -30.556447 244.835043 -76.174418 199.218121 -76.174418 142.946654 C -76.174418 86.675186 -30.556447 41.058264 25.716661 41.058264 C 81.984473 41.058264 127.602443 86.675186 127.602443 142.946654 Z M 127.602443 142.946654 " transform="matrix(0.737614,0,0,0.737288,272.952915,177.111044)"/>
<path style="fill-rule:nonzero;fill:rgb(62.745098%,35.294118%,17.254902%);fill-opacity:1;stroke-width:1.6423;stroke-linecap:round;stroke-linejoin:miter;stroke:rgb(0%,0%,0%);stroke-opacity:1;stroke-miterlimit:4;" d="M 909.341088 142.946654 C 909.341088 199.218121 863.723118 244.835043 807.45001 244.835043 C 751.176902 244.835043 705.564227 199.218121 705.564227 142.946654 C 705.564227 86.675186 751.176902 41.058264 807.45001 41.058264 C 863.723118 41.058264 909.341088 86.675186 909.341088 142.946654 Z M 909.341088 142.946654 " transform="matrix(0.737614,0,0,0.737288,272.952915,177.111044)"/>
<path style="fill-rule:nonzero;fill:rgb(31.372549%,17.647059%,8.627451%);fill-opacity:1;stroke-width:1.6423;stroke-linecap:round;stroke-linejoin:miter;stroke:rgb(0%,0%,0%);stroke-opacity:1;stroke-miterlimit:4;" d="M 770.014042 137.865744 C 770.014042 304.788713 611.934588 440.113618 416.932858 440.113618 C 221.936424 440.113618 63.85697 304.794011 63.85697 137.865744 C 63.85697 -29.062522 221.936424 -164.382129 416.932858 -164.382129 C 611.934588 -164.382129 770.014042 -29.062522 770.014042 137.865744 Z M 770.014042 137.865744 " transform="matrix(0.737614,0,0,0.737288,272.952915,177.111044)"/>
<path style="fill-rule:nonzero;fill:rgb(62.745098%,35.294118%,17.254902%);fill-opacity:1;stroke-width:0.4927;stroke-linecap:round;stroke-linejoin:round;stroke:rgb(0%,0%,0%);stroke-opacity:1;stroke-miterlimit:4;" d="M 665.416812 875.948608 C 665.416812 1044.418631 557.552078 1180.993895 424.489956 1180.993895 C 291.433129 1180.993895 183.5631 1044.423929 183.5631 875.948608 C 183.5631 707.478585 291.427834 570.908619 424.489956 570.908619 C 557.546783 570.908619 665.416812 707.478585 665.416812 875.948608 Z M 665.416812 875.948608 " transform="matrix(0.737614,0,0,0.737288,272.952915,177.111044)"/>
<path style="fill-rule:nonzero;fill:rgb(31.372549%,17.647059%,8.627451%);fill-opacity:1;stroke-width:1.6423;stroke-linecap:round;stroke-linejoin:miter;stroke:rgb(0%,0%,0%);stroke-opacity:1;stroke-miterlimit:4;" d="M 193.805165 946.148866 C 231.776009 1079.047226 192.073441 1206.048765 105.137685 1229.816188 C 18.196633 1253.588909 -83.053654 1165.12069 -121.019202 1032.227628 C -158.98475 899.329268 -119.287477 772.327729 -32.351721 748.560306 C 54.58933 724.787585 155.839617 813.255804 193.805165 946.148866 Z M 193.805165 946.148866 " transform="matrix(0.737614,0,0,0.737288,272.952915,177.111044)"/>
<path style="fill-rule:nonzero;fill:rgb(31.372549%,17.647059%,8.627451%);fill-opacity:1;stroke-width:1.6423;stroke-linecap:round;stroke-linejoin:miter;stroke:rgb(0%,0%,0%);stroke-opacity:1;stroke-miterlimit:4;" d="M 655.439536 946.148866 C 613.258536 1079.047226 648.941597 1206.048765 735.120054 1229.816188 C 821.309103 1253.588909 925.360865 1165.12069 967.53657 1032.227628 C 1009.712274 899.329268 974.034509 772.327729 887.856052 748.560306 C 801.667003 724.787585 697.615241 813.255804 655.439536 946.148866 Z M 655.439536 946.148866 " transform="matrix(0.737614,0,0,0.737288,272.952915,177.111044)"/>
<path style="fill-rule:nonzero;fill:rgb(62.745098%,35.294118%,17.254902%);fill-opacity:1;stroke-width:1.6423;stroke-linecap:round;stroke-linejoin:miter;stroke:rgb(0%,0%,0%);stroke-opacity:1;stroke-miterlimit:4;" d="M 645.901811 262.35067 C 645.901811 355.682575 543.798901 431.329314 417.854326 431.329314 C 291.899159 431.329314 189.806841 355.671979 189.806841 262.35067 C 189.806841 169.024063 291.909751 93.377324 417.854326 93.377324 C 543.809493 93.377324 645.901811 169.034659 645.901811 262.35067 Z M 645.901811 262.35067 " transform="matrix(0.737614,0,0,0.737288,272.952915,177.111044)"/>
<path style="fill-rule:nonzero;fill:rgb(100%,100%,100%);fill-opacity:1;stroke-width:7.4706;stroke-linecap:butt;stroke-linejoin:miter;stroke:rgb(0%,0%,0%);stroke-opacity:1;stroke-miterlimit:4;" d="M 349.437962 -112.831298 C 315.814965 -112.815403 280.86802 -70.091261 266.193375 -37.899807 C 250.284809 -3.006305 246.212344 51.643933 275.175042 76.783573 C 305.053912 102.712634 369.069471 100.360263 393.679026 69.382081 C 431.390376 21.916111 419.940869 -87.273106 363.741902 -110.007393 C 359.055124 -111.904125 354.241247 -112.836596 349.437962 -112.836596 Z M 483.744596 -112.831298 C 478.941311 -112.831298 474.127434 -111.898826 469.440656 -110.002095 C 413.241689 -87.273106 401.792183 21.910813 439.498236 69.387379 C 464.107792 100.365561 528.128646 102.72323 558.007517 76.788871 C 586.970215 51.649231 582.897749 -3.001007 566.989183 -37.894509 C 552.309242 -70.085963 517.367593 -112.810105 483.744596 -112.826 Z M 483.744596 -112.831298 " transform="matrix(0.737614,0,0,0.737288,272.952915,177.111044)"/>
<path style="fill-rule:nonzero;fill:rgb(0%,0%,0%);fill-opacity:1;stroke-width:3.2449;stroke-linecap:butt;stroke-linejoin:miter;stroke:rgb(0%,0%,0%);stroke-opacity:1;stroke-miterlimit:4;" d="M 378.210011 -41.815127 C 363.604211 -41.815127 348.410578 -23.282259 342.034442 -9.300487 C 335.123431 5.852172 333.365227 29.593105 345.942738 40.512556 C 358.922729 51.776386 386.730944 50.806828 397.423152 37.354869 C 413.797748 16.734537 408.772039 -30.699645 384.363724 -40.570066 C 382.330139 -41.396575 380.296554 -41.820425 378.210011 -41.820425 Z M 454.718349 -41.815127 C 452.631806 -41.820425 450.598221 -41.391277 448.564636 -40.570066 C 424.156321 -30.699645 419.130612 16.734537 435.510504 37.354869 C 446.197416 50.806828 474.005631 51.776386 486.985622 40.512556 C 499.563133 29.598403 497.804929 5.852172 490.893918 -9.300487 C 484.517782 -23.282259 469.324149 -41.809829 454.718349 -41.815127 Z M 454.718349 -41.815127 " transform="matrix(0.737614,0,0,0.737288,272.952915,177.111044)"/>
<path style="fill-rule:nonzero;fill:rgb(31.372549%,17.647059%,8.627451%);fill-opacity:1;stroke-width:1.7553;stroke-linecap:butt;stroke-linejoin:miter;stroke:rgb(0%,0%,0%);stroke-opacity:1;stroke-miterlimit:4;" d="M -78.573412 1255.109473 C -78.573412 1255.109473 -94.270146 1169.931394 62.66012 1167.181664 C 219.590387 1164.437231 213.309575 1249.61531 213.309575 1249.61531 C 213.309575 1249.61531 109.73973 1299.073378 -78.573412 1255.109473 Z M -78.573412 1255.109473 " transform="matrix(0.737614,0,0,0.737288,272.952915,177.111044)"/>
<path style="fill-rule:nonzero;fill:rgb(31.372549%,17.647059%,8.627451%);fill-opacity:1;stroke-width:1.7553;stroke-linecap:butt;stroke-linejoin:miter;stroke:rgb(0%,0%,0%);stroke-opacity:1;stroke-miterlimit:4;" d="M 909.245764 1255.109473 C 909.245764 1255.109473 924.942498 1169.931394 768.012231 1167.181664 C 611.081965 1164.437231 617.357481 1249.61531 617.357481 1249.61531 C 617.357481 1249.61531 720.932622 1299.073378 909.245764 1255.109473 Z M 909.245764 1255.109473 " transform="matrix(0.737614,0,0,0.737288,272.952915,177.111044)"/>
<path style=" stroke:none;fill-rule:nonzero;fill:url(#linear0);" d="M 481.882812 377.84375 C 476.457031 368.164062 475.84375 352.90625 480.597656 341.929688 C 488.527344 323.617188 521.097656 325.011719 523.460938 352.753906 C 536.113281 321.054688 491.097656 309.585938 477.6875 331.703125 C 470.949219 342.824219 467.304688 364.765625 481.882812 377.84375 Z M 481.882812 377.84375 "/>
<path style=" stroke:none;fill-rule:nonzero;fill:url(#linear1);" d="M 685.191406 377.84375 C 690.617188 368.164062 691.226562 352.90625 686.472656 341.929688 C 678.546875 323.617188 645.972656 325.011719 643.609375 352.753906 C 630.957031 321.054688 675.976562 309.585938 689.382812 331.703125 C 696.125 342.824219 699.769531 364.765625 685.191406 377.84375 Z M 685.191406 377.84375 "/>
<path style="fill:none;stroke-width:4.9269;stroke-linecap:round;stroke-linejoin:round;stroke:rgb(100%,0%,0%);stroke-opacity:1;stroke-miterlimit:4;" d="M 373.692699 325.912368 C 373.692699 325.912368 367.724339 366.522555 422.488146 366.522555 C 476.478767 366.522555 470.769901 326.670001 470.769901 326.670001 " transform="matrix(0.737614,0,0,0.737288,272.952915,177.111044)"/>
<path style="fill-rule:nonzero;fill:rgb(62.745098%,35.294118%,17.254902%);fill-opacity:1;stroke-width:1.6423;stroke-linecap:butt;stroke-linejoin:miter;stroke:rgb(0%,0%,0%);stroke-opacity:1;stroke-miterlimit:4;" d="M -193.587468 1116.859999 C -193.587468 1116.859999 -204.274381 1134.343837 -209.130624 1175.144757 C -213.986867 1215.945677 -217.942825 1270.018419 -192.613042 1270.346903 C -167.288555 1270.680685 -171.244513 1253.832624 -171.244513 1253.832624 C -171.244513 1253.832624 -174.1572 1273.260876 -149.870688 1271.321759 C -125.584176 1269.377345 -128.502159 1254.802182 -128.502159 1254.802182 C -128.502159 1254.802182 -135.301959 1268.402488 -106.159204 1267.43293 C -85.675072 1266.749471 -92.559604 1209.148172 -92.559604 1209.148172 C -92.559604 1209.148172 -66.329536 1232.459956 -63.411554 1172.230784 C -61.642759 1135.705457 -104.215647 1108.11808 -104.215647 1108.11808 C -104.215647 1108.11808 -146.958001 1082.856584 -193.587468 1116.859999 Z M -193.587468 1116.859999 " transform="matrix(0.737614,0,0,0.737288,272.952915,177.111044)"/>
<path style="fill-rule:nonzero;fill:rgb(62.745098%,35.294118%,17.254902%);fill-opacity:1;stroke-width:1.6423;stroke-linecap:butt;stroke-linejoin:miter;stroke:rgb(0%,0%,0%);stroke-opacity:1;stroke-miterlimit:4;" d="M 700.215475 -219.413833 C 727.165772 -212.10241 827.563436 -128.995901 828.421355 -110.558399 C 829.279273 -92.120897 781.225238 -55.102844 781.225238 -55.102844 C 781.225238 -55.102844 742.645378 -54.77436 722.791446 -66.928276 C 702.932218 -79.087491 671.882977 -109.710698 650.313208 -82.520681 C 620.58262 -45.04169 595.406415 -57.566476 598.493863 -72.42244 C 601.417141 -86.478386 606.072144 -111.591535 632.323395 -121.202347 C 658.569351 -130.818458 710.441654 -127.92038 702.963993 -130.987999 C 690.545355 -136.0901 606.930062 -135.962945 603.456022 -125.922984 C 585.937535 -75.267537 536.162366 -88.200279 548.840497 -108.243115 C 561.523924 -128.285951 558.06577 -154.877279 585.100799 -159.052207 C 612.135828 -163.232434 648.49675 -170.162392 648.49675 -170.162392 C 648.49675 -170.162392 559.162 -176.996983 556.434666 -160.011169 C 549.52895 -117.022121 503.598528 -112.804807 507.655106 -131.109856 C 511.875854 -150.183133 526.005033 -197.702085 553.691444 -204.653235 C 581.081292 -211.524913 605.140084 -215.032277 625.057566 -220.303919 C 644.969751 -225.570263 673.265179 -226.725256 700.215475 -219.413833 Z M 700.215475 -219.413833 " transform="matrix(0.737614,0,0,0.737288,272.952915,177.111044)"/>
</g>
</svg>
