<?xml version="1.0" encoding="UTF-8" standalone="no"?>
<svg
   xmlns:dc="http://purl.org/dc/elements/1.1/"
   xmlns:cc="http://creativecommons.org/ns#"
   xmlns:rdf="http://www.w3.org/1999/02/22-rdf-syntax-ns#"
   xmlns:svg="http://www.w3.org/2000/svg"
   xmlns="http://www.w3.org/2000/svg"
   xmlns:xlink="http://www.w3.org/1999/xlink"
   xmlns:sodipodi="http://sodipodi.sourceforge.net/DTD/sodipodi-0.dtd"
   xmlns:inkscape="http://www.inkscape.org/namespaces/inkscape"
   width="480pt"
   height="306pt"
   viewBox="0 0 480 306"
   version="1.1"
   id="svg2"
   inkscape:version="0.48.4 r9939"
   sodipodi:docname="motorbike.new.svg">
  <metadata
     id="metadata223">
    <rdf:RDF>
      <cc:Work
         rdf:about="">
        <dc:format>image/svg+xml</dc:format>
        <dc:type
           rdf:resource="http://purl.org/dc/dcmitype/StillImage" />
      </cc:Work>
    </rdf:RDF>
  </metadata>
  <sodipodi:namedview
     pagecolor="#94ef94"
     bordercolor="#666666"
     borderopacity="1"
     objecttolerance="10"
     gridtolerance="10"
     guidetolerance="10"
     inkscape:pageopacity="0"
     inkscape:pageshadow="2"
     inkscape:window-width="1362"
     inkscape:window-height="668"
     id="namedview221"
     showgrid="false"
     inkscape:zoom="0.77074639"
     inkscape:cx="43.270301"
     inkscape:cy="292.12658"
     inkscape:window-x="0"
     inkscape:window-y="18"
     inkscape:window-maximized="0"
     inkscape:current-layer="svg2" />
  <defs
     id="defs4">
    <linearGradient
       id="linear0"
       gradientUnits="userSpaceOnUse"
       x1="710.97"
       y1="603.85"
       x2="923.6"
       y2="603.85"
       gradientTransform="matrix(0.506559,0,0,0.506852,-3.582638,-70.169654)">
      <stop
         offset="0"
         style="stop-color:rgb(15.294118%,7.843137%,7.843137%);stop-opacity:1;"
         id="stop7" />
      <stop
         offset="1"
         style="stop-color:#ffffff;stop-opacity:1;"
         id="stop9" />
    </linearGradient>
    <linearGradient
       id="linear1"
       gradientUnits="userSpaceOnUse"
       x1="752.04"
       y1="602.72"
       x2="882.13"
       y2="602.72"
       gradientTransform="matrix(0.506559,0,0,0.506852,-3.582638,-70.169654)">
      <stop
         offset="0"
         style="stop-color:rgb(15.294118%,7.843137%,7.843137%);stop-opacity:1;"
         id="stop12" />
      <stop
         offset="1"
         style="stop-color:#ffffff;stop-opacity:1;"
         id="stop14" />
    </linearGradient>
    <linearGradient
       id="linear2"
       gradientUnits="userSpaceOnUse"
       x1="413.6"
       y1="576.01"
       x2="616.84"
       y2="576.01"
       gradientTransform="matrix(0.506559,0,0,0.506852,-3.582638,-70.169654)">
      <stop
         offset="0"
         style="stop-color:rgb(15.294118%,7.843137%,7.843137%);stop-opacity:1;"
         id="stop17" />
      <stop
         offset="1"
         style="stop-color:#ffffff;stop-opacity:1;"
         id="stop19" />
    </linearGradient>
    <linearGradient
       id="linear3"
       gradientUnits="userSpaceOnUse"
       x1="603.63"
       y1="552.63"
       x2="671.33"
       y2="552.63"
       gradientTransform="matrix(0.506559,0,0,0.506852,-3.582638,-70.169654)">
      <stop
         offset="0"
         style="stop-color:rgb(0%,0%,0%);stop-opacity:1;"
         id="stop22" />
      <stop
         offset="0.5"
         style="stop-color:#777777;stop-opacity:1;"
         id="stop24" />
      <stop
         offset="0.89061999"
         style="stop-color:#aaaaaa;stop-opacity:1;"
         id="stop26" />
      <stop
         offset="1"
         style="stop-color:#ffffff;stop-opacity:1;"
         id="stop28" />
    </linearGradient>
    <linearGradient
       id="linear4"
       gradientUnits="userSpaceOnUse"
       x1="15.478"
       y1="576.94"
       x2="465.42"
       y2="576.94"
       gradientTransform="matrix(0.506559,0,0,0.506852,-3.582638,-70.169654)">
      <stop
         offset="0"
         style="stop-color:rgb(15.294118%,7.843137%,7.843137%);stop-opacity:1;"
         id="stop31" />
      <stop
         offset="1"
         style="stop-color:#ffffff;stop-opacity:1;"
         id="stop33" />
    </linearGradient>
    <linearGradient
       id="linear5"
       gradientUnits="userSpaceOnUse"
       x1="439.5"
       y1="629.44"
       x2="496.35"
       y2="629.44"
       gradientTransform="matrix(0.506559,0,0,0.506852,-3.582638,-70.169654)">
      <stop
         offset="0"
         style="stop-color:rgb(15.294118%,7.843137%,7.843137%);stop-opacity:1;"
         id="stop36" />
      <stop
         offset="1"
         style="stop-color:rgb(15.294118%,7.843137%,7.843137%);stop-opacity:0;"
         id="stop38" />
    </linearGradient>
    <linearGradient
       id="linear6"
       gradientUnits="userSpaceOnUse"
       x1="347.61"
       y1="529.67"
       x2="617.74"
       y2="529.67"
       gradientTransform="matrix(0.506559,0,0,0.506852,-3.582638,-70.169654)">
      <stop
         offset="0"
         style="stop-color:rgb(15.294118%,7.843137%,7.843137%);stop-opacity:1;"
         id="stop41" />
      <stop
         offset="1"
         style="stop-color:#ffffff;stop-opacity:1;"
         id="stop43" />
    </linearGradient>
    <linearGradient
       id="linear7"
       gradientUnits="userSpaceOnUse"
       x1="462.24"
       y1="598.18"
       x2="519.73"
       y2="598.18"
       gradientTransform="matrix(0.506559,0,0,0.506852,-3.582638,-70.169654)">
      <stop
         offset="0"
         style="stop-color:rgb(15.294118%,7.843137%,7.843137%);stop-opacity:1;"
         id="stop46" />
      <stop
         offset="1"
         style="stop-color:rgb(15.294118%,7.843137%,7.843137%);stop-opacity:0;"
         id="stop48" />
    </linearGradient>
    <linearGradient
       id="linear8"
       gradientUnits="userSpaceOnUse"
       x1="468.22"
       y1="598.08"
       x2="502.13"
       y2="598.08"
       gradientTransform="matrix(0.506559,0,0,0.506852,-3.582638,-70.169654)">
      <stop
         offset="0"
         style="stop-color:rgb(15.294118%,7.843137%,7.843137%);stop-opacity:1;"
         id="stop51" />
      <stop
         offset="1"
         style="stop-color:rgb(15.294118%,7.843137%,7.843137%);stop-opacity:0;"
         id="stop53" />
    </linearGradient>
    <linearGradient
       id="linear9"
       gradientUnits="userSpaceOnUse"
       x1="538.69"
       y1="463.29"
       x2="605.12"
       y2="463.29"
       gradientTransform="matrix(0.506559,0,0,0.506852,-3.582638,-70.169654)">
      <stop
         offset="0"
         style="stop-color:rgb(15.294118%,7.843137%,7.843137%);stop-opacity:1;"
         id="stop56" />
      <stop
         offset="1"
         style="stop-color:rgb(15.294118%,7.843137%,7.843137%);stop-opacity:0;"
         id="stop58" />
    </linearGradient>
    <linearGradient
       id="linear10"
       gradientUnits="userSpaceOnUse"
       x1="750.66"
       y1="566.19"
       x2="842.64"
       y2="566.19"
       gradientTransform="matrix(0.506559,0,0,0.506852,-3.582638,-70.169654)">
      <stop
         offset="0"
         style="stop-color:rgb(15.294118%,7.843137%,7.843137%);stop-opacity:1;"
         id="stop61" />
      <stop
         offset="1"
         style="stop-color:#ffffff;stop-opacity:1;"
         id="stop63" />
    </linearGradient>
    <linearGradient
       id="linear11"
       gradientUnits="userSpaceOnUse"
       x1="334.84"
       y1="574.8"
       x2="429.11"
       y2="574.8"
       gradientTransform="matrix(0.506559,0,0,0.506852,-3.582638,-70.169654)">
      <stop
         offset="0"
         style="stop-color:rgb(15.294118%,7.843137%,7.843137%);stop-opacity:1;"
         id="stop66" />
      <stop
         offset="1"
         style="stop-color:rgb(15.294118%,7.843137%,7.843137%);stop-opacity:0;"
         id="stop68" />
    </linearGradient>
    <linearGradient
       id="linear12"
       gradientUnits="userSpaceOnUse"
       x1="674.1"
       y1="562.49"
       x2="709.06"
       y2="562.49"
       gradientTransform="matrix(0.506559,0,0,0.506852,-3.582638,-70.169654)">
      <stop
         offset="0"
         style="stop-color:rgb(15.294118%,7.843137%,7.843137%);stop-opacity:1;"
         id="stop71" />
      <stop
         offset="1"
         style="stop-color:#ffffff;stop-opacity:1;"
         id="stop73" />
    </linearGradient>
    <linearGradient
       id="linear13"
       gradientUnits="userSpaceOnUse"
       x1="729.46"
       y1="539.52"
       x2="770.83"
       y2="539.52"
       gradientTransform="matrix(0.506559,0,0,0.506852,-3.582638,-70.169654)">
      <stop
         offset="0"
         style="stop-color:rgb(15.294118%,7.843137%,7.843137%);stop-opacity:1;"
         id="stop76" />
      <stop
         offset="1"
         style="stop-color:#ffffff;stop-opacity:1;"
         id="stop78" />
    </linearGradient>
    <linearGradient
       id="linear14"
       gradientUnits="userSpaceOnUse"
       x1="467.63"
       y1="529.86"
       x2="489.13"
       y2="529.86"
       gradientTransform="matrix(0.506559,0,0,0.506852,-3.582638,-70.169654)">
      <stop
         offset="0"
         style="stop-color:rgb(15.294118%,7.843137%,7.843137%);stop-opacity:1;"
         id="stop81" />
      <stop
         offset="1"
         style="stop-color:rgb(15.294118%,7.843137%,7.843137%);stop-opacity:0;"
         id="stop83" />
    </linearGradient>
    <linearGradient
       id="linear15"
       gradientUnits="userSpaceOnUse"
       x1="448.61"
       y1="469.72"
       x2="531.53"
       y2="469.72"
       gradientTransform="matrix(0.506559,0,0,0.506852,-3.582638,-70.169654)">
      <stop
         offset="0"
         style="stop-color:rgb(15.294118%,7.843137%,7.843137%);stop-opacity:1;"
         id="stop86" />
      <stop
         offset="1"
         style="stop-color:#ffffff;stop-opacity:1;"
         id="stop88" />
    </linearGradient>
    <linearGradient
       id="linear16"
       gradientUnits="userSpaceOnUse"
       x1="688.17"
       y1="459.47"
       x2="761.27"
       y2="459.47"
       gradientTransform="matrix(0.506559,0,0,0.506852,-3.582638,-70.169654)">
      <stop
         offset="0"
         style="stop-color:rgb(15.294118%,7.843137%,7.843137%);stop-opacity:1;"
         id="stop91" />
      <stop
         offset="1"
         style="stop-color:#ffffff;stop-opacity:1;"
         id="stop93" />
    </linearGradient>
    <linearGradient
       id="linear17"
       gradientUnits="userSpaceOnUse"
       x1="399.62"
       y1="462.32"
       x2="450.68"
       y2="462.32"
       gradientTransform="matrix(0.506559,0,0,0.506852,-3.582638,-70.169654)">
      <stop
         offset="0"
         style="stop-color:#000000;stop-opacity:1;"
         id="stop96" />
      <stop
         offset="1"
         style="stop-color:#f00000;stop-opacity:0;"
         id="stop98" />
    </linearGradient>
    <linearGradient
       id="linear18"
       gradientUnits="userSpaceOnUse"
       x1="389.02"
       y1="382.04"
       x2="622.85"
       y2="382.04"
       gradientTransform="matrix(0.506559,0,0,0.506852,-3.582638,-70.169654)">
      <stop
         offset="0"
         style="stop-color:rgb(0%,0%,0%);stop-opacity:1;"
         id="stop101" />
      <stop
         offset="1"
         style="stop-color:#ffffff;stop-opacity:1;"
         id="stop103" />
    </linearGradient>
    <linearGradient
       id="linear19"
       gradientUnits="userSpaceOnUse"
       x1="466.12"
       y1="249.94"
       x2="644.45"
       y2="249.94"
       gradientTransform="matrix(0.506559,0,0,0.506852,-3.582638,-70.169654)">
      <stop
         offset="0"
         style="stop-color:rgb(0%,0%,0%);stop-opacity:1;"
         id="stop106" />
      <stop
         offset="1"
         style="stop-color:#ffffff;stop-opacity:1;"
         id="stop108" />
    </linearGradient>
    <linearGradient
       inkscape:collect="always"
       xlink:href="#linear19"
       id="linearGradient3206"
       gradientUnits="userSpaceOnUse"
       gradientTransform="matrix(0.506559,0,0,0.506852,-3.582638,-70.169654)"
       x1="466.12"
       y1="249.94"
       x2="644.45"
       y2="249.94" />
    <linearGradient
       inkscape:collect="always"
       xlink:href="#linear18"
       id="linearGradient3219"
       gradientUnits="userSpaceOnUse"
       gradientTransform="matrix(0.506559,0,0,0.506852,-3.582638,-70.169654)"
       x1="389.02"
       y1="382.04"
       x2="622.85"
       y2="382.04" />
    <linearGradient
       inkscape:collect="always"
       xlink:href="#linear16"
       id="linearGradient3233"
       gradientUnits="userSpaceOnUse"
       gradientTransform="matrix(0.506559,0,0,0.506852,-3.582638,-70.169654)"
       x1="688.17"
       y1="459.47"
       x2="761.27"
       y2="459.47" />
    <linearGradient
       inkscape:collect="always"
       xlink:href="#linear15"
       id="linearGradient3236"
       gradientUnits="userSpaceOnUse"
       gradientTransform="matrix(0.506559,0,0,0.506852,-3.582638,-70.169654)"
       x1="448.60999"
       y1="469.72"
       x2="531.53003"
       y2="469.72" />
    <linearGradient
       inkscape:collect="always"
       xlink:href="#linear14"
       id="linearGradient3240"
       gradientUnits="userSpaceOnUse"
       gradientTransform="matrix(0.506559,0,0,0.506852,-3.582638,-70.169654)"
       x1="467.63"
       y1="529.86"
       x2="489.13"
       y2="529.86" />
    <linearGradient
       inkscape:collect="always"
       xlink:href="#linear13"
       id="linearGradient3248"
       gradientUnits="userSpaceOnUse"
       gradientTransform="matrix(0.506559,0,0,0.506852,-3.582638,-70.169654)"
       x1="729.46"
       y1="539.52"
       x2="770.83"
       y2="539.52" />
    <linearGradient
       inkscape:collect="always"
       xlink:href="#linear12"
       id="linearGradient3256"
       gradientUnits="userSpaceOnUse"
       gradientTransform="matrix(0.506559,0,0,0.506852,-3.582638,-70.169654)"
       x1="674.1"
       y1="562.49"
       x2="709.06"
       y2="562.49" />
    <linearGradient
       inkscape:collect="always"
       xlink:href="#linear18"
       id="linearGradient3259"
       gradientUnits="userSpaceOnUse"
       gradientTransform="matrix(0.506559,0,0,0.506852,-3.582638,-70.169654)"
       x1="334.84"
       y1="574.79999"
       x2="429.10999"
       y2="574.79999" />
    <linearGradient
       inkscape:collect="always"
       xlink:href="#linear10"
       id="linearGradient3264"
       gradientUnits="userSpaceOnUse"
       gradientTransform="matrix(0.506559,0,0,0.506852,-3.582638,-70.169654)"
       x1="750.66"
       y1="566.19"
       x2="842.64"
       y2="566.19" />
    <linearGradient
       inkscape:collect="always"
       xlink:href="#linear9"
       id="linearGradient3267"
       gradientUnits="userSpaceOnUse"
       gradientTransform="matrix(0.506559,0,0,0.506852,-3.582638,-70.169654)"
       x1="538.69"
       y1="463.29"
       x2="605.12"
       y2="463.29" />
    <linearGradient
       inkscape:collect="always"
       xlink:href="#linear8"
       id="linearGradient3270"
       gradientUnits="userSpaceOnUse"
       gradientTransform="matrix(0.506559,0,0,0.506852,-3.582638,-70.169654)"
       x1="468.22"
       y1="598.08"
       x2="502.13"
       y2="598.08" />
    <linearGradient
       inkscape:collect="always"
       xlink:href="#linear7"
       id="linearGradient3273"
       gradientUnits="userSpaceOnUse"
       gradientTransform="matrix(0.506559,0,0,0.506852,-3.582638,-70.169654)"
       x1="462.24"
       y1="598.18"
       x2="519.73"
       y2="598.18" />
    <linearGradient
       inkscape:collect="always"
       xlink:href="#linear6"
       id="linearGradient3276"
       gradientUnits="userSpaceOnUse"
       gradientTransform="matrix(0.506559,0,0,0.506852,-3.582638,-70.169654)"
       x1="347.61"
       y1="529.67"
       x2="617.74"
       y2="529.67" />
    <linearGradient
       inkscape:collect="always"
       xlink:href="#linear5"
       id="linearGradient3279"
       gradientUnits="userSpaceOnUse"
       gradientTransform="matrix(0.506559,0,0,0.506852,-3.582638,-70.169654)"
       x1="439.5"
       y1="629.44"
       x2="496.35"
       y2="629.44" />
    <linearGradient
       inkscape:collect="always"
       xlink:href="#linear4"
       id="linearGradient3282"
       gradientUnits="userSpaceOnUse"
       gradientTransform="matrix(0.506559,0,0,0.506852,-3.582638,-70.169654)"
       x1="15.478"
       y1="576.94"
       x2="465.42001"
       y2="576.94" />
    <linearGradient
       inkscape:collect="always"
       xlink:href="#linear3"
       id="linearGradient3285"
       gradientUnits="userSpaceOnUse"
       gradientTransform="matrix(0.506559,0,0,0.506852,-3.582638,-70.169654)"
       x1="603.63"
       y1="552.63"
       x2="671.33"
       y2="552.63" />
    <linearGradient
       inkscape:collect="always"
       xlink:href="#linear2"
       id="linearGradient3288"
       gradientUnits="userSpaceOnUse"
       gradientTransform="matrix(0.506559,0,0,0.506852,-3.582638,-70.169654)"
       x1="413.6"
       y1="576.01"
       x2="616.84"
       y2="576.01" />
    <linearGradient
       inkscape:collect="always"
       xlink:href="#linear1"
       id="linearGradient3291"
       gradientUnits="userSpaceOnUse"
       gradientTransform="matrix(0.506559,0,0,0.506852,-3.582638,-70.169654)"
       x1="752.04"
       y1="602.72"
       x2="882.13"
       y2="602.72" />
    <linearGradient
       inkscape:collect="always"
       xlink:href="#linear0"
       id="linearGradient3296"
       gradientUnits="userSpaceOnUse"
       gradientTransform="matrix(0.506559,0,0,0.506852,-3.582638,-70.169654)"
       x1="710.97"
       y1="603.85"
       x2="923.6"
       y2="603.85" />
    <linearGradient
       inkscape:collect="always"
       xlink:href="#linear0"
       id="linearGradient4187"
       gradientUnits="userSpaceOnUse"
       gradientTransform="matrix(0.506559,0,0,0.506852,-3.582638,-70.169654)"
       x1="710.97"
       y1="603.85"
       x2="923.6"
       y2="603.85" />
    <linearGradient
       inkscape:collect="always"
       xlink:href="#linear1"
       id="linearGradient4189"
       gradientUnits="userSpaceOnUse"
       gradientTransform="matrix(0.506559,0,0,0.506852,-3.582638,-70.169654)"
       x1="752.04"
       y1="602.72"
       x2="882.13"
       y2="602.72" />
    <linearGradient
       inkscape:collect="always"
       xlink:href="#linear2"
       id="linearGradient4191"
       gradientUnits="userSpaceOnUse"
       gradientTransform="matrix(0.506559,0,0,0.506852,-3.582638,-70.169654)"
       x1="413.6"
       y1="576.01"
       x2="616.84"
       y2="576.01" />
    <linearGradient
       inkscape:collect="always"
       xlink:href="#linear3"
       id="linearGradient4193"
       gradientUnits="userSpaceOnUse"
       gradientTransform="matrix(0.506559,0,0,0.506852,-3.582638,-70.169654)"
       x1="603.63"
       y1="552.63"
       x2="671.33"
       y2="552.63" />
    <linearGradient
       inkscape:collect="always"
       xlink:href="#linear4"
       id="linearGradient4195"
       gradientUnits="userSpaceOnUse"
       gradientTransform="matrix(0.506559,0,0,0.506852,-3.582638,-70.169654)"
       x1="15.478"
       y1="576.94"
       x2="465.42001"
       y2="576.94" />
    <linearGradient
       inkscape:collect="always"
       xlink:href="#linear5"
       id="linearGradient4197"
       gradientUnits="userSpaceOnUse"
       gradientTransform="matrix(0.506559,0,0,0.506852,-3.582638,-70.169654)"
       x1="439.5"
       y1="629.44"
       x2="496.35"
       y2="629.44" />
    <linearGradient
       inkscape:collect="always"
       xlink:href="#linear6"
       id="linearGradient4199"
       gradientUnits="userSpaceOnUse"
       gradientTransform="matrix(0.506559,0,0,0.506852,-3.582638,-70.169654)"
       x1="347.61"
       y1="529.67"
       x2="617.74"
       y2="529.67" />
    <linearGradient
       inkscape:collect="always"
       xlink:href="#linear7"
       id="linearGradient4201"
       gradientUnits="userSpaceOnUse"
       gradientTransform="matrix(0.506559,0,0,0.506852,-3.582638,-70.169654)"
       x1="462.24"
       y1="598.18"
       x2="519.73"
       y2="598.18" />
    <linearGradient
       inkscape:collect="always"
       xlink:href="#linear8"
       id="linearGradient4203"
       gradientUnits="userSpaceOnUse"
       gradientTransform="matrix(0.506559,0,0,0.506852,-3.582638,-70.169654)"
       x1="468.22"
       y1="598.08"
       x2="502.13"
       y2="598.08" />
    <linearGradient
       inkscape:collect="always"
       xlink:href="#linear9"
       id="linearGradient4205"
       gradientUnits="userSpaceOnUse"
       gradientTransform="matrix(0.506559,0,0,0.506852,-3.582638,-70.169654)"
       x1="538.69"
       y1="463.29"
       x2="605.12"
       y2="463.29" />
    <linearGradient
       inkscape:collect="always"
       xlink:href="#linear10"
       id="linearGradient4207"
       gradientUnits="userSpaceOnUse"
       gradientTransform="matrix(0.506559,0,0,0.506852,-3.582638,-70.169654)"
       x1="750.66"
       y1="566.19"
       x2="842.64"
       y2="566.19" />
    <linearGradient
       inkscape:collect="always"
       xlink:href="#linear18"
       id="linearGradient4209"
       gradientUnits="userSpaceOnUse"
       gradientTransform="matrix(0.506559,0,0,0.506852,-3.582638,-70.169654)"
       x1="334.84"
       y1="574.79999"
       x2="429.10999"
       y2="574.79999" />
    <linearGradient
       inkscape:collect="always"
       xlink:href="#linear12"
       id="linearGradient4211"
       gradientUnits="userSpaceOnUse"
       gradientTransform="matrix(0.506559,0,0,0.506852,-3.582638,-70.169654)"
       x1="674.1"
       y1="562.49"
       x2="709.06"
       y2="562.49" />
    <linearGradient
       inkscape:collect="always"
       xlink:href="#linear13"
       id="linearGradient4213"
       gradientUnits="userSpaceOnUse"
       gradientTransform="matrix(0.506559,0,0,0.506852,-3.582638,-70.169654)"
       x1="729.46"
       y1="539.52"
       x2="770.83"
       y2="539.52" />
    <linearGradient
       inkscape:collect="always"
       xlink:href="#linear14"
       id="linearGradient4215"
       gradientUnits="userSpaceOnUse"
       gradientTransform="matrix(0.506559,0,0,0.506852,-3.582638,-70.169654)"
       x1="467.63"
       y1="529.86"
       x2="489.13"
       y2="529.86" />
    <linearGradient
       inkscape:collect="always"
       xlink:href="#linear15"
       id="linearGradient4217"
       gradientUnits="userSpaceOnUse"
       gradientTransform="matrix(0.506559,0,0,0.506852,-3.582638,-70.169654)"
       x1="448.60999"
       y1="469.72"
       x2="531.53003"
       y2="469.72" />
    <linearGradient
       inkscape:collect="always"
       xlink:href="#linear16"
       id="linearGradient4219"
       gradientUnits="userSpaceOnUse"
       gradientTransform="matrix(0.506559,0,0,0.506852,-3.582638,-70.169654)"
       x1="688.17"
       y1="459.47"
       x2="761.27"
       y2="459.47" />
    <linearGradient
       inkscape:collect="always"
       xlink:href="#linear18"
       id="linearGradient4221"
       gradientUnits="userSpaceOnUse"
       gradientTransform="matrix(0.506559,0,0,0.506852,-3.582638,-70.169654)"
       x1="389.02"
       y1="382.04"
       x2="622.85"
       y2="382.04" />
    <linearGradient
       inkscape:collect="always"
       xlink:href="#linear19"
       id="linearGradient4223"
       gradientUnits="userSpaceOnUse"
       gradientTransform="matrix(0.506559,0,0,0.506852,-3.582638,-70.169654)"
       x1="466.12"
       y1="249.94"
       x2="644.45"
       y2="249.94" />
  </defs>
  <g
     inkscape:groupmode="layer"
     id="layer1"
     inkscape:label="BlueLayer" />
  <g
     id="g4130"
     transform="translate(205.92759,-97.726139)">
    <g
       transform="translate(-207.76547,98.166684)"
       id="g4075">
      <path
         inkscape:connector-curvature="0"
         id="path111"
         d="m 426.08984,303.79687 c 32.19141,-6.03906 55.94532,-38.4414 52.80469,-70.62109 -1.42187,-24.99219 -17.80078,-48.63281 -40.40234,-59.51562 15.20703,-4.52344 -33.07813,-0.44532 -21.46875,-2.14063 -9.33985,0.26563 -28.09766,-0.67187 -30.00782,9.125 10.79297,4.54297 30.85938,-4.625 44.46485,4.57031 21.3125,9.61328 35.6875,32.88672 33.4375,56.3711 -0.65235,18.89843 -13.26172,36.86328 -30.84766,44.14453 -14.66015,7.76562 -32.73437,7.07031 -47.28515,-0.85156 -27.38672,-11.08985 -38.9375,-48.05469 -25.8086,-73.72657 -6.68359,-19.08203 -10.53515,19.66797 -19.19922,24.92969 -0.45312,37.96875 34.72657,71.21484 72.82813,68.89063 3.85547,-0.0859 7.70703,-0.42969 11.48437,-1.17579 z m 0,0"
         style="fill:#000000;fill-opacity:1;fill-rule:evenodd;stroke:none" />
      <path
         inkscape:connector-curvature="0"
         id="path113"
         d="m 424.55078,287.98828 c 16.48438,-4.39453 30.59766,-16.04687 36.40625,-32.29297 8.57813,-23.3789 -1.35156,-52.38672 -22.98437,-65.34375 -13.49219,-9.35937 -32.73047,-11.09765 -47.91407,-5.00781 4.69141,17.15625 18.8711,14.33594 33.01953,18.12109 -9.36718,-6.90234 -7.6289,-18.82031 5.16016,-9.55468 13.5625,5.36718 32.35938,24.4375 17.27344,37.71484 0.23828,8.32422 -11.94531,30.92187 3.0039,15.48047 13.09375,4.1289 -8.66796,15.05859 -15.49609,14.28125 -10.91016,6.58984 19.20313,-1.00391 4.96484,8.96875 -11.28125,10.43359 -40.74218,18.89453 -43.82031,-2.90625 -8.21875,-10.00391 -19.25,-24.27344 -13.96094,-2.88672 -6.66796,14.29297 -13.02343,-34.17188 -6.57812,-18.85547 -7.33203,-9.01172 -8.12891,-20.97656 -12.17969,-32.50391 -6.54297,11.65625 -5.8125,30.66407 0.0274,44.2461 8.03906,20.16797 30.42187,32.625 51.64453,32.5625 3.85547,-0.37891 7.68359,-1.04688 11.43359,-2.02344 z m 0,0"
         style="fill:url(#linearGradient4187);fill-rule:evenodd;stroke:none" />
      <path
         inkscape:connector-curvature="0"
         id="path115"
         d="m 98.894531,281.76953 c 13.753909,-0.85156 26.058599,-10.54297 33.757809,-21.38672 -10.86328,-1.02344 -25.48437,-13.99219 -33.484371,-7.72656 0.414062,-5.125 -39.5,-6.92578 -18.707031,-0.0977 4.695312,4.65625 14.597656,-2.82422 10.503906,2.4336 19.769536,-3.52735 -13.078125,5.77734 -17.179688,-4.375 -20.710937,-10.85547 6.523438,15.47265 16.621094,7.83593 6.9375,-0.125 19.95703,-11.8164 7.550781,-0.64453 -12.359375,5.85157 -27.78125,1.82032 -35.011719,-10.14062 -4.890624,3.12109 15.890626,18.96094 26.636719,14.73828 C 98.5,260.55078 116.69141,246.66797 99.675781,259.83594 82.25,272.90234 66.328125,255.04297 54.0625,246.32812 c -18.394531,0.66407 11.65625,32.19141 24.960938,33.98047 6.339843,1.92578 13.304687,2.22657 19.871093,1.46094 z m 0,0"
         style="fill:#000000;fill-opacity:1;fill-rule:evenodd;stroke:none" />
      <path
         inkscape:connector-curvature="0"
         id="path117"
         d="m 323.86328,271.63281 c 9.08203,-6.83203 -20.66016,-26.85547 -5.26562,-8.3125 12.82421,19.1211 -15.26563,-11.92578 -9.13282,-19.86328 8.13672,-14.69531 -4.73047,-8.5625 -8.76172,-12.75781 -1.05468,-0.16016 6.58985,-21.375 -3.90625,-6.125 -12.03515,11.74609 -22.38671,25.49219 -34.9375,36.55859 -11.82812,9.76172 -27.49609,5.27735 -41.375,5.75781 -13.22656,-1.0625 -24.6914,-8.14453 -38.46875,-6.2539 -16.88281,-0.27735 -33.51562,-2.38672 -49.84375,-6.65235 -7.78124,-2.78906 -35.289058,-5.46093 -12.92578,1.19532 21.13672,6.375 43.28125,9.20312 65.40235,9.95312 45.63281,2.92188 91.27343,4.73047 136.90234,7.23828 z m 0,0"
         style="fill:#070a07;fill-opacity:0.94902003;fill-rule:evenodd;stroke:none" />
      <path
         inkscape:connector-curvature="0"
         id="path119"
         d="m 419.85156,266.53906 c 24.07422,-4.98047 31.05078,-38.83203 12.9961,-54.40625 -7.82422,-9.50781 -35.45313,-17.42187 -23.41797,3.1875 10.08203,6.66016 25.26562,26.86328 4.84765,34.1836 -11.41797,4.2539 -24.92187,-9.67188 -17.54687,-20.54297 -3,-6.96485 -26.03125,-18.98828 -17.05078,-11.73047 11.80468,4.70312 3.72656,19.58203 9.40625,27.57422 -17.07032,-2.80469 -3.875,16.57812 6.74218,19.58984 7.29688,3.76563 16.21485,5.37109 24.02344,2.14453 z m 0,0"
         style="fill:url(#linearGradient4189);fill-rule:evenodd;stroke:none" />
      <path
         inkscape:connector-curvature="0"
         id="path121"
         d="m 252.26562,264.68359 c 15.27735,-5.43359 22.82032,-20.98047 34.44922,-31.14843 9.75391,-10.84375 26.8125,-23.75 20.59375,-40.22266 1.48438,-11.46484 -17.27343,-25.62109 -13.36328,-7.59375 10.55078,15.83984 -4.22656,29.17187 -14.57031,39.71484 -13.76563,14.64453 -27.15625,35.41797 -50.51172,30.95313 -9.36328,-4.35156 -21.20703,7.22656 -22.69141,6.67969 14.3125,3.66796 30.26954,4.28125 44.79688,2.13671 l 1.05859,-0.42578 z m 0,0"
         style="fill:url(#linearGradient4191);fill-rule:evenodd;stroke:none" />
      <path
         inkscape:connector-curvature="0"
         id="path123"
         d="m 320.69141,256.50781 c -7.8711,-9.10547 -2.23438,-19.05469 -3.41407,-26.95703 6.01563,-21.11328 14.04688,-41.6875 18.96485,-63.07422 -17.11719,-23.625 -22.57032,16.64453 -26.64063,29.66406 2.45313,10.80469 -18.25,40.85938 1.35938,33.21875 7.04687,-22.74218 13.17578,-45.79687 20.67578,-68.375 -6.38281,24.00391 -14.54688,47.91797 -20.61719,71.79688 6.06641,2.72266 -6.04687,24.69922 3.97266,19.80078 2.05859,2.64063 11.92968,14.16797 5.69922,3.92578 z m 0,0"
         style="fill:url(#linearGradient4193);fill-rule:evenodd;stroke:none" />
      <path
         inkscape:connector-curvature="0"
         id="path125"
         d="m 209.53516,259.91797 c 12.74218,-11.80469 26.375,-30.80469 21.32421,-49.41406 -6.23828,-12.03125 -25.51562,-29.44141 -35.29296,-26.29297 1.46484,16.9375 30.09765,19.36718 24.86328,38.67187 -6.10157,9.03516 -7.06641,25.16406 -19.60157,26.91797 -12.10546,-0.62109 -25.85546,1.24219 -36.54296,-4.92187 C 151.75391,229.875 134.75391,227.41016 116.31641,228.3125 79.300781,225.69531 42.453125,220.94531 5.382812,219.36328 c -6.144531,15.97266 21.375,25.90625 35.9375,24.45313 35.390626,4.58984 71.585938,2.91796 106.261718,12.20703 19.08594,4.0664 38.91406,2.83203 58.28906,4.64843 l 3.66797,-0.7539 z m 0,0"
         style="fill:url(#linearGradient4195);fill-opacity:1;fill-rule:evenodd;stroke:none" />
      <path
         inkscape:connector-curvature="0"
         id="path127"
         d="m 240.26562,254.68359 c 22.20313,-2.84375 -13.02343,1.16407 -13.28906,-13.11718 -5.84375,1.875 -14.51562,18.875 1.36328,13.58203 3.97657,0.27343 7.98047,0.0547 11.92578,-0.46485 z m 0,0"
         style="fill:url(#linearGradient4197);fill-rule:evenodd;stroke:none" />
      <path
         inkscape:connector-curvature="0"
         id="path129"
         d="m 246.28125,251.45312 c 14.85547,-0.17578 19.6875,-21.44921 10.95312,-31.2539 -4.375,-12.71875 -36.4375,0.53906 -14.78515,-7.97266 10.35156,0.0273 22.21094,8.9375 19.76953,20.15235 -1.62109,10.2539 0.96094,10.3164 6.86328,2.34765 9.23047,-11.86328 25.29688,-21.53515 27.02734,-37.23828 -5.1875,-7.51562 -7.11328,-29.66406 6.83594,-19.91797 5.23047,9 5.78516,-21.54297 6.15235,-28.17187 -2.89454,-9.58985 -21.24219,6.77343 -31.23047,-1.70313 -9.00782,-0.85547 -23.41407,-7.10156 -12.44532,2.74219 4.44922,14.57812 -3.10546,32.75781 -14.33593,41.57422 -7.69922,0.5625 -20,6.46484 -5.12891,2.13672 -2.35547,8.90234 -5.02734,1.62109 1.82422,6.20312 -6.96094,8.05078 -23.4375,8.59375 -13.59375,2.39453 -14.15625,3.92578 10.3125,-11.60937 -6.10938,-2.01172 4.58204,-5.50781 20.12891,-12.68359 4.17969,-4.44531 -19.34375,8.31641 17.19922,-11.50781 -1.24219,-2.17969 -17.21875,6.76172 -0.47656,-3.93359 3.30079,-6.34765 -5.51563,-3.17188 -26.0625,11.73828 -7.95704,-0.89063 9.28125,-5.08984 -19.5625,10.125 -5.89062,0.54297 11.14062,-5.29687 11.32031,-6.38672 0.71484,-0.70703 -21.73047,10.1875 23.17578,-15.04687 0.89453,-3.01562 -17.67187,10.07031 -2.05468,-2.1836 6.23829,-5.62891 -7.04297,2.37109 -24.40235,14.09375 -13.08985,4.24219 -8.69531,7.25781 -9.35156,1.76953 -0.57812,-2.14453 -18.14453,13.45703 -0.40625,-5.60547 0.83203,-2.95704 -3.26563,-10.46484 -17.29688,1.59375 -4.67188,-3.87109 -5.73047,12.26172 -19.19922,-0.30859 -3.45312,-4.25781 -3.45703,5.23047 -1.75391,4.64844 1.08203,0.51172 -3.78906,-2.77344 -13.96094,7.95312 -10.39844,-5.42188 0.35156,-13.04687 30.35156,-13.33594 24.90625,-17.01562 -12.68359,5.875 -21.73047,4.08593 -30.1875,13.83203 -6.65625,6.91015 -31.41406,8.4375 -13.80078,15.60156 0.59766,8.20703 2.04688,16.48047 -1.05078,24.38281 20.71875,-13.73047 42.69531,12.53907 35.52734,32.92578 8.00391,-9.91406 8.78125,-25.67187 -5.08203,-31.26171 -13.34765,-6.09375 -18.84375,-23.60547 -3.97265,-23.9961 14.37109,-10.15234 6.92578,3.86328 -0.17188,5.58203 16.21484,8.89453 36.76172,25.01953 27.19922,46.34766 -10.10547,10.05859 4.45312,22.73047 14.875,20.89062 z m 0,0"
         style="fill:url(#linearGradient4199);fill-rule:evenodd;stroke:none" />
      <path
         inkscape:connector-curvature="0"
         id="path131"
         d="m 238.83984,248.45703 c -9.34375,-4.35156 -11.3164,-14.40234 -1.69531,-2.07031 13.95703,8.13672 28.09375,-12.64453 17.16016,-22.89063 -5.19922,-12.73437 -30.63672,4.53907 -13.30078,-6.0664 14.36718,-4.0625 24.98046,17.5664 13.72265,27.17187 -3.95703,4.24219 -10.44531,5.41797 -15.88672,3.85547 z m 0,0"
         style="fill:url(#linearGradient4201);fill-rule:evenodd;stroke:none" />
      <path
         inkscape:connector-curvature="0"
         id="path133"
         d="m 247.125,239.78125 c 8.48828,-5.42969 -0.57031,-18.11719 -8.92188,-14.83594 -10.13281,6.59766 -0.69921,21.69922 8.92188,14.83594 z m 0,0"
         style="fill:url(#linearGradient4203);fill-rule:evenodd;stroke:none" />
      <path
         inkscape:connector-curvature="0"
         id="path135"
         d="m 280.16016,177.01172 c 5.59375,-10.34375 12.22265,-10.04688 21.14062,-5.39063 8.40234,-16.03906 -23.44922,-23.09375 -30.13672,-19 4.6875,10.22266 -11.36719,29.36719 8.9961,24.39063 z m 0,0"
         style="fill:url(#linearGradient4205);fill-rule:evenodd;stroke:none" />
      <path
         inkscape:connector-curvature="0"
         id="path137"
         d="m 412.37891,248.66016 c 16.88671,-2.59375 11.84375,-26.17188 -2.39063,-28.0586 -2.96094,-10.66015 -3.89062,-20.29297 -13.53125,-22.6875 -3.07812,-11.51953 -14.69922,-19.21875 -19.53906,-7.17578 8.5,7.375 16.41797,23.50391 1.9375,17.82031 -1.71875,9 19.39453,10.32813 18,22.50782 -4.21094,9.46484 5.92187,19.70703 15.52344,17.59375 z m 0,0"
         style="fill:url(#linearGradient4207);fill-rule:evenodd;stroke:none" />
      <path
         inkscape:connector-curvature="0"
         id="path139"
         d="m 204.69922,247.6875 c 7.33594,-7.44531 8.10937,-9.21875 -0.0664,-1.89453 -13.08203,-7.61719 -37.33984,7.58984 -38.68359,-14.20313 1.63281,4.91797 -30.76563,-7.37109 -10.16406,4.90235 12.38281,13.87109 32.17187,12.67968 48.91406,11.19531 z m 0,0"
         style="fill:#261111;fill-opacity:1;fill-rule:evenodd;stroke:none" />
      <path
         inkscape:connector-curvature="0"
         id="path141"
         d="m 380.62891,245.41016 c 14.53515,-0.79297 0.8125,-12.42579 3.77343,-22.57032 -5.9414,-8.37109 -19.58984,0.22657 -17.55468,-17.33203 -1.00391,-15.01953 -19.41407,-24.73828 -13.60938,-42.63672 0.0703,-1.90625 -1.43359,24.63672 -2.50781,5.47266 3.64062,-14.07813 -8.98047,-24.42578 -12.80469,-36.45703 6.88672,3.48828 15.53906,-7.21094 12.46875,-15.90625 0.17188,-19.343751 -35.48437,6.51953 -9.46094,9.45312 16.86328,6.23438 -11.84375,-8.35546 -7.61718,3.86719 -15.67969,-0.34766 -16.63672,18.63281 -21.15235,31.19141 -0.29297,10.03906 -10.5664,20.53906 -3.66015,30.67578 6.5,-15.33203 10.5664,-33.61719 18.52343,-49.03906 10.98438,-4.3711 23.04297,16.89453 19.98438,26.85156 5.07422,16.34765 19.03515,28.5625 20.39062,45.98047 6.71875,7.75 5.10547,22.58593 -2.0039,4.95703 0.38672,-16.32031 -18.78125,-37.375 -18.64453,-46.29297 4.71484,20.16797 16.82812,38.41016 23.82421,57.62109 -3.98828,1.16016 2.58594,17.3125 10.05079,14.16407 z m 0,0"
         style="fill:#261111;fill-opacity:1;fill-rule:evenodd;stroke:none" />
      <path
         inkscape:connector-curvature="0"
         id="path143"
         d="m 206.61719,244.03516 c 15.61328,-15.3125 3.16797,-50.79688 -20.86719,-45.12891 -18.90625,3.80859 -25.15234,29.59766 -13.80859,43.84375 11.36718,-1.92188 23.5625,1.05859 34.67578,1.28516 z m 0,0"
         style="fill:url(#linearGradient4209);fill-opacity:1;fill-rule:evenodd;stroke:none" />
      <path
         inkscape:connector-curvature="0"
         id="path145"
         d="m 340.58984,234.15625 c 6.29688,-11.11719 21.49219,-27.99609 11.38672,-40.43359 -8.54687,4.30859 -15.9414,31.82421 -13.29687,42.41406 z m 0,0"
         style="fill:url(#linearGradient4211);fill-rule:evenodd;stroke:none" />
      <path
         inkscape:connector-curvature="0"
         id="path147"
         d="m 163.22656,232.76562 c 5.5586,-11.1875 0.95703,-26.68359 -15.28125,-20.48046 -13.32031,3.95312 -12.99609,-36.6836 -9.72265,-23.90625 2.99609,-6.82422 42.5664,-16.53125 32.37109,-12.94141 -11.57422,5.80078 -38.51563,5.39062 -30.28906,24.48437 3.92187,11.02735 17,5.16016 25.90625,6.49219 7.26953,1.77344 15.96093,-10.21875 3.58984,-3.79687 -8.06641,0.45312 -39.83594,-2.23438 -14.64453,-1.41797 12.52344,3.71484 28.09375,-1.22266 23.55078,-16.14844 1.08594,-9.85937 -4.35937,-13.84375 -13.15625,-11.75 -12.47656,3.81641 -25.67969,6.67578 -34.28125,10.70703 4.17188,14.20703 4.23438,28.96875 7.49609,43.30469 9.08204,1.8125 15.19532,2.94531 24.46094,5.45312 z m 0,0"
         style="fill:#261111;fill-opacity:1;fill-rule:evenodd;stroke:none" />
      <path
         inkscape:connector-curvature="0"
         id="path149"
         d="m 152.53516,198.8125 c -23.83594,-1.99609 19.92187,0.49219 24.9414,-2.21875 -7.9414,3.27344 -16.58594,2.41406 -24.9414,2.21875 z m 0,0"
         style="fill:#261111;fill-opacity:1;fill-rule:evenodd;stroke:none" />
      <path
         inkscape:connector-curvature="0"
         id="path151"
         d="m 137.89844,227.625 c -1.91016,-13.75 -8.14063,-50.42188 -8.94532,-44.52734 4.23829,-6.82032 0.60157,-12.79688 3.81641,-1.57813 15.26563,1.28125 -14.67187,-21.53906 -6.74219,-4.29297 -8.10156,2.39063 -17.0664,-14.15234 -5.67968,-2.01953 8.07031,6.50781 3.57031,-18.21875 1.86718,-3.03906 -8.72265,0.20312 8.39844,-7.72266 -5.73437,-3.67188 -10.04297,2.22266 -10.80469,38.11719 0.51172,18.6875 8.83203,-9.97265 9.60156,-7.86718 0.48828,0.91407 -14.65625,4.39843 -5.10547,24.55078 -22.027345,23.73437 -13.128906,-3.75391 -34.207031,-2.27344 -33.15625,7.54297 8.886719,-11.73047 -4.914063,-13.42578 -4.429687,-1.03516 -4.699219,9.92578 7.75,-16.28906 -4.4375,-9.8125 -12.96875,-3.75 -12.820313,-0.0664 -11.242188,11.88282 9.582031,1.0625 27.644531,5.47265 27.816406,-2.875 4.351563,12.96093 33.222654,5.08984 47.312504,9.61328 6.42578,0 15.18359,2.01953 20.58203,0.47656 z m 0,0"
         style="fill:#261111;fill-opacity:1;fill-rule:evenodd;stroke:none" />
      <path
         inkscape:connector-curvature="0"
         id="path153"
         d="m 127.54688,222.54687 c -15.30469,-6.51562 -40.226568,-9.9375 -56.195318,-4.125 3.464844,-8.67187 33.769528,-1.60156 46.921878,-1.00781 11.83984,3.9375 -8.64844,-27.1914 3.30469,-5.65234 9.82812,17.52344 4.16015,-18.22266 -2.26954,-10.94922 6.22657,-8.55469 17.29297,26.16016 8.23829,21.73437 z m 0,0"
         style="fill:#261111;fill-opacity:1;fill-rule:evenodd;stroke:none" />
      <path
         inkscape:connector-curvature="0"
         id="path155"
         d="m 167.10937,215.23828 c 11.09766,-13.98437 -13.42968,-5.98047 -22.74218,-7.83203 -6.03125,-8.0625 -7.62891,-19.16797 -4.34375,-2.72656 0.49609,15.96093 30.97265,-2.98828 25.57031,17.40625 0.48047,-2.28516 0.85156,-4.59766 1.51562,-6.84766 z m 0,0"
         style="fill:#261111;fill-opacity:1;fill-rule:evenodd;stroke:none" />
      <path
         inkscape:connector-curvature="0"
         id="path157"
         d="m 373.70312,216.26953 c 2.95313,-8.44531 6.77735,-12.96094 12.9375,-9.46094 -1.40234,-14.78906 -27.97656,-25.94922 -18.3789,-6.28906 -0.73828,4.00391 0.0703,18.46875 5.4414,15.75 z m 0,0"
         style="fill:url(#linearGradient4213);fill-rule:evenodd;stroke:none" />
      <path
         inkscape:connector-curvature="0"
         id="path159"
         d="m 101.01563,210.22656 c 10.11328,-9.08984 5.74609,-28.78906 9.65625,-41.77344 7.0664,-17.40234 -21.527349,-11.8164 -15.417974,4.17969 1.554688,11.66406 -16.066406,36.57813 5.343754,35.4375 5.91015,-5.91797 3.15625,-15.26562 4.95312,-22.80469 0.59766,-9.33203 3.23828,-27.55078 1.36719,-7.88671 -1.49609,9.15234 -0.90234,19.14843 -3.34766,27.92968 -12.749998,11.78125 -18.035154,-10.03125 -11.042966,-20.46875 1.570312,-8.71875 2.855468,-29.82422 11.253906,-27.45312 -17.015625,-4.76953 -7.050781,26.47656 -24.464844,26.28125 -4.628906,5.90234 -8.5,22.28906 -1.136718,25.42969 7.335937,1.77343 15.453124,2.76562 22.835942,1.1289 z m 0,0"
         style="fill:#6b0000;fill-opacity:1;fill-rule:evenodd;stroke:none" />
      <path
         inkscape:connector-curvature="0"
         id="path161"
         d="m 68.808594,207.19531 c -4.542969,-11.29687 10.703125,-29.5 -9.507813,-24.59375 -20.085937,-9.39062 -6.933593,23.94141 -18.796875,22.82813 7.847656,0.97656 22.640625,5.60937 28.304688,1.76562 z m 0,0"
         style="fill:#6b0000;fill-opacity:1;fill-rule:evenodd;stroke:none" />
      <path
         inkscape:connector-curvature="0"
         id="path163"
         d="m 73.792969,207.33203 c -5.347657,-7.66406 9.175781,-25.80469 0.136719,-24.37109 -6.488282,3.125 -6.273438,21.11328 -2.253907,24.6914 z m 0,0"
         style="fill:#6b0000;fill-opacity:1;fill-rule:evenodd;stroke:none" />
      <path
         inkscape:connector-curvature="0"
         id="path165"
         d="m 44.320312,200.73437 c 6.03125,-12.30468 0.03125,-27.5 -5.128906,-10.00781 -1.710937,3.1836 3.597656,24.17969 5.128906,10.00781 z m 0,0"
         style="fill:#6b0000;fill-opacity:1;fill-rule:evenodd;stroke:none" />
      <path
         inkscape:connector-curvature="0"
         id="path167"
         d="m 39.246094,203.11328 c -7.867188,-11.8125 10.820312,-21.65625 -5.753906,-24.58984 -2.195313,6.82812 -7.179688,30.96093 5.753906,24.58984 z m 0,0"
         style="fill:#6b0000;fill-opacity:1;fill-rule:evenodd;stroke:none" />
      <path
         inkscape:connector-curvature="0"
         id="path169"
         d="m 238.6875,198.66016 c 18.13281,-8.63282 -17.89453,7.54687 0,0 z m 0,0"
         style="fill:url(#linearGradient4215);fill-rule:evenodd;stroke:none" />
      <path
         inkscape:connector-curvature="0"
         id="path171"
         d="m 29.457031,194.14844 c 5.769531,-7.95313 3.371094,-39.3711 -6.394531,-19.65625 12.753906,3.60547 2.6875,16.66015 5.707031,22.32422 z m 0,0"
         style="fill:#fa1111;fill-opacity:1;fill-rule:evenodd;stroke:none" />
      <path
         inkscape:connector-curvature="0"
         id="path173"
         d="m 249.59375,191.14453 c 12.28125,-7.76953 19.17187,-27.50781 14.19922,-41.82031 -10.39453,-4.76172 -31.61719,-9.80078 -38.94922,1.63672 -3.83203,15.18359 4.51562,34.39453 17.85156,40.42187 l 3.85156,0.42969 z m 0,0"
         style="fill:url(#linearGradient4217);fill-opacity:1;fill-rule:evenodd;stroke:none" />
      <path
         inkscape:connector-curvature="0"
         id="path175"
         d="m 376.02344,188.48828 c 18.22656,-10.38281 -12.21875,-29.07031 -15.03125,-43.19141 -2.58594,-17.90234 -25.89063,-3 -10.53125,7.05079 7.6289,11.71093 17.54687,28.85156 25.5625,36.14062 z m 0,0"
         style="fill:url(#linearGradient4219);fill-rule:evenodd;stroke:none" />
      <path
         inkscape:connector-curvature="0"
         id="path177"
         d="m 71.46875,180.46875 c 4.59375,-17.44531 10.34375,-29.55078 -12.105469,-25.75781 -5.886719,-0.46094 -9.523437,15.3164 -12.914062,5.53515 5.890625,-10.02734 -17.695313,-4.01953 -13.539063,6.96875 -2.214844,18.4961 13.394532,13.01172 11.511719,-2.30468 0.75,-4.07032 -5.9375,27.03906 3.964844,12.84765 1.488281,-7.88281 6.109375,-22.07812 2.167969,-5.44531 -10.066407,13.89453 17.179687,10.11328 20.914062,8.15625 z m 0,0"
         style="fill:#6b0000;fill-opacity:1;fill-rule:evenodd;stroke:none" />
      <path
         inkscape:connector-curvature="0"
         id="path179"
         d="m 78.121094,181.82812 c 2.773437,-10.28515 9.710937,-41.33593 -1.976563,-18.57031 -1.308593,5.0586 -9.613281,22.08203 1.976563,18.57031 z m 0,0"
         style="fill:#6b0000;fill-opacity:1;fill-rule:evenodd;stroke:none" />
      <path
         inkscape:connector-curvature="0"
         id="path181"
         d="m 83.574219,181.03125 c 11.332031,-8.21484 6.089843,-33.54688 26.367191,-23.88281 6.80468,3.32422 -4.45313,19.83984 9.17968,9.10156 12.25782,0.27344 -5.39453,-22.67969 -13.23046,-20.67969 3.85546,2.31641 14.60937,15.5 1.79687,9.97656 -10.140625,0.44141 -28.402344,-5.29687 -25.265625,10.71485 1.148437,2.99609 -7.085937,19.01172 1.152344,14.76953 z m 0,0"
         style="fill:#6b0000;fill-opacity:1;fill-rule:evenodd;stroke:none" />
      <path
         inkscape:connector-curvature="0"
         id="path183"
         d="m 149.48047,176.76953 c 9.96094,-2.26953 24.42578,-5.77734 6.08594,-9.82812 -15.39454,1.77734 -28.28125,-30.95704 -38.99219,-19.01563 6.88281,11.76563 14.7539,36.05469 32.90625,28.84375 z m 0,0"
         style="fill:#261111;fill-opacity:1;fill-rule:evenodd;stroke:none" />
      <path
         inkscape:connector-curvature="0"
         id="path187"
         d="m 174.39062,168.84766 c 10.28907,-3.46094 38.21485,-16.60938 15.69532,-23.64454 -11.77344,5.06641 -27.46094,13.34375 -38.16407,1.46485 -6.29687,-9.82813 -45.47656,-8.15625 -23.23046,1.23437 11.07031,11.52735 29.54687,24.19141 45.69921,20.94532 z m 0,0"
         style="fill:#261111;fill-opacity:1;fill-rule:evenodd;stroke:none" />
      <path
         inkscape:connector-curvature="0"
         id="path189"
         d="m 51.996094,161.23047 c 12.332031,-15.82031 -16.195313,3.41015 0,0 z m 0,0"
         style="fill:#ebcfb3;fill-opacity:0.94902003;fill-rule:evenodd;stroke:none" />
      <path
         inkscape:connector-curvature="0"
         id="path191"
         d="m 113.06641,155.25781 c -2.63672,-10.2539 -15.593754,-13.54687 -24.62891,-3.70312 -8.554688,2.28515 -3.601562,-17.60938 -16.457031,-5.27735 -10.074219,2.33985 -21.746094,9.60547 -3.722657,7.80469 13.566407,0.48047 27.613282,-1.00781 40.925778,1.21094 1.46875,0.44531 3.79688,2.8125 3.88282,-0.0352 z m 0,0"
         style="fill:#ebcfb3;fill-opacity:0.94902003;fill-rule:evenodd;stroke:none" />
      <path
         inkscape:connector-curvature="0"
         id="path193"
         d="m 53.75,154.08594 c 8.976562,-3.20703 11.691406,-10.16797 1.226562,-4.33203 -1.304687,1.9414 -8.023437,5.98437 -1.226562,4.33203 z m 0,0"
         style="fill:#ebebeb;fill-opacity:0.94902003;fill-rule:evenodd;stroke:none" />
      <path
         inkscape:connector-curvature="0"
         id="path195"
         d="m 207.58984,151.35547 c 25.03516,-12.05469 53.96485,-8.90235 80.26172,-3.33203 20.02735,4.49218 30.36719,-24.53125 19.32813,-37.44531 -9.50782,-8.45704 -22.95703,-20.597661 -36.40625,-12.492192 -27.91016,8.140622 -55.0625,21.609372 -75.77344,42.132812 -5.67578,6.11328 9.23828,12.43359 12.58984,11.13672 z m 0,0"
         style="fill:url(#linearGradient4221);fill-rule:evenodd;stroke:none" />
      <path
         inkscape:connector-curvature="0"
         id="path197"
         d="m 92.449219,148.66406 c 18.125001,-4.67187 -11.394531,-9.89453 -8.539063,-0.66015 -0.378906,6.85937 5.941406,1.41406 8.539063,0.66015 z m 0,0"
         style="fill:#ebcfb3;fill-opacity:0.94902003;fill-rule:evenodd;stroke:none" />
      <path
         inkscape:connector-curvature="0"
         id="path199"
         d="m 72.332031,144.98828 c -0.253906,-6.85547 5.054688,-10.97656 5.675781,-14.53906 -15.285156,2.13672 -2.660156,-32.031251 -9.90625,-10.99609 0.367188,16.78124 -36.886718,0.69531 -12.964843,12.82421 8.273437,1.90235 10.003906,12.96094 13.515625,14.41407 z m 0,0"
         style="fill:#ebcfb3;fill-opacity:1;fill-rule:evenodd;stroke:none" />
      <path
         inkscape:connector-curvature="0"
         id="path201"
         d="m 109.83594,141.15625 c 8.1875,-20.56641 -16.14844,-12.61328 -27.871096,-10.69922 9.164062,-0.54297 38.249996,1.32422 12.515625,1.45703 -8.8125,-6.04687 -23.734375,4.48438 -11.917969,9.95703 6.46875,-2.36718 29.30469,7.58985 27.27344,-0.71484 z m 0,0"
         style="fill:#261111;fill-opacity:1;fill-rule:evenodd;stroke:none" />
      <path
         inkscape:connector-curvature="0"
         id="path203"
         d="m 120.25,141.74609 c 5.97266,-7.89843 -12.24609,-13.10156 -3.23437,0.85547 0.26562,3.35156 2.08984,-2.55469 3.23437,-0.85547 z m 0,0"
         style="fill:#261111;fill-opacity:1;fill-rule:evenodd;stroke:none" />
      <path
         inkscape:connector-curvature="0"
         id="path205"
         d="m 145.13672,140.52344 c -1.57422,-14.6836 -42.29688,-18.19531 -22.20703,-1.625 1.58984,3.1289 18.33984,-1.71875 22.20703,1.625 z m 0,0"
         style="fill:#261111;fill-opacity:1;fill-rule:evenodd;stroke:none" />
      <path
         inkscape:connector-curvature="0"
         id="path207"
         d="m 366.80469,132.33984 c 8.14062,-5.1875 7.41406,-25.83593 18.55859,-34.199215 -11.25391,-11.53125 -31.10156,2.183595 -40.13281,-2.847656 C 325.75,62.832031 301.69141,33.421875 283.71875,0.03125 c -3.59766,17.707031 14,37.277344 22.69922,53.386719 10.04297,17.105469 22.26562,33.484375 31.10156,50.957031 -13.95312,-23.007812 -28.63281,-45.585938 -42.95703,-68.371094 7.02734,21.113282 19.39062,39.804688 31.90234,57.859375 -6.43359,13.105469 12.77735,20.542969 12.46875,12.703129 15.0625,-3.63672 10.41797,15.375 12.96485,20.08984 6.21875,0.80469 8.32031,8.48828 14.90625,5.68359 z m 0,0"
         style="fill:#f0f0f0;fill-opacity:1;fill-rule:evenodd;stroke:none" />
      <path
         inkscape:connector-curvature="0"
         id="path209"
         d="m 81.128906,128.38281 c 8.460938,-1.32031 -5.039062,-18.11328 4.988282,-2.18359 5.273437,3.43359 -2.410157,-11.36328 6.789062,-14.24609 7.61328,-15.964849 -17.6875,-50.160161 -26.785156,-24.785161 -2.550782,12.367187 7.644531,29.050781 13.78125,30.082031 -11.25,-9.70312 -12.773438,17.81641 1.226562,11.13281 z m 0,0"
         style="fill:#261111;fill-opacity:1;fill-rule:evenodd;stroke:none" />
      <path
         inkscape:connector-curvature="0"
         id="path211"
         d="m 330.23047,116.01172 c 4.33984,-7.05078 -9.71485,-13.125 -4.77344,-22.371095 -14.04687,4.953125 2.35547,17.355465 4.77344,22.371095 z m 0,0"
         style="fill:#261111;fill-opacity:1;fill-rule:evenodd;stroke:none" />
      <path
         inkscape:connector-curvature="0"
         id="path213"
         d="m 325.32031,112.64844 c -5.53515,-6.67188 -13.26172,-30.640628 -21.40234,-24.214846 2.875,10.886718 10.15234,30.917966 21.40234,24.214846 z m 0,0"
         style="fill:#261111;fill-opacity:0.03921569;fill-rule:evenodd;stroke:none" />
      <path
         inkscape:connector-curvature="0"
         id="path215"
         d="m 310.04687,109.52344 c -3.53515,-7.71485 -4.90234,-24.945315 -12.68359,-9.12891 4.07422,1.64844 9.85938,10.10156 12.68359,9.12891 z m 0,0"
         style="fill:#261111;fill-opacity:1;fill-rule:evenodd;stroke:none" />
      <path
         inkscape:connector-curvature="0"
         id="path217"
         d="M 320.38281,95.945312 C 331.19141,82.167969 299.87109,74.875 291.32422,65.796875 c -11.16797,-12.667969 32.35547,9.242187 8.13672,-2.644531 -13.09375,-0.738282 -11.125,-13.597656 -22.96875,-13.804688 -12.45313,-3.414062 -6.57813,-29.128906 -22.95703,-33.234375 -19.70704,-10.390625 -6.09766,30.476563 5.95703,17.722657 -0.70313,-18.3125 22.38672,22.277343 3.86718,17.882812 -8.63671,8.46875 -31.80078,-8.839844 -30.53125,6.03125 16.9961,-1 24.67969,12.386719 39.76563,9.527344 17.21875,-6.445313 3.05469,23.824218 12.16016,8.601562 19.47265,-0.109375 -22.67188,22.210938 2.89843,19.964844 15.3125,11.67578 11.05078,-17.773438 22.90625,-8.453125 5.26953,0.335937 4.27735,15.667965 9.82422,8.554687 z m 0,0"
         style="fill:url(#linearGradient4223);fill-rule:evenodd;stroke:none" />
    </g>
    <path
       style="fill:#000000;fill-opacity:1;fill-rule:evenodd;stroke:#eb0f0c;stroke-width:0.48903161;stroke-linecap:butt;stroke-linejoin:miter;stroke-miterlimit:4;stroke-opacity:0.05882353"
       d="m 200.80787,402.13199 c -35.98048,-1.52735 -66.69923,-33.85935 -66.41407,-69.57026 -10.97267,4.84765 0.77343,-25.02342 2.14843,-30.7656 13.75001,-14.04296 -0.89453,-29.2031 2.5,-45.82418 -5.69922,-7.2539 -3.35937,-13.10546 -9.05469,-5.13281 -8.84766,-12.42968 -10.66406,9.12109 0.0703,9.85937 -1.38281,19.61717 -11.33984,38.43356 -16.05469,57.7148 -4.80469,8.6289 0.81641,13.83983 -3.94922,22.24607 5.28126,11.93359 19.97266,34.34372 -5.19531,28.7031 -52.945319,-3.52343 -106.1172086,-4.48046 -158.929729,-9.39843 -15.55078,-8.45312 -23.75781,1.26172 -34.125,12.03906 -22.777341,16.12107 -57.796881,5.11718 -69.042981,-19.93749 -7.89453,-20.04295 -41.23439,-6.76952 -48.14845,-32.01169 4.23828,-10.17577 17.51172,-2.3164 25.73438,-4.20703 21.10157,7.9375 15.62891,-14.36717 2.4336,-19.4492 -7.48829,-6.90625 6.42187,-19.7617 -7.00001,-24.56638 0.69922,-10.1875 14.26563,-7.17578 13.79688,-20.60936 8.51172,1.47265 15.5586,-0.21094 20.17969,-7.60937 16.98048,2.16406 5.48829,-12 -3.48437,-15.37499 -20.87891,-8.48046 5.98828,-3.63281 11.84766,-6.10156 9.98047,-14.45702 -3.70313,-30.457 2.40625,-45.41402 18.625,-12.79296 32.14063,19.24607 25.8086,34.1406 -13.6211,14.52733 10.78125,15.30857 20.496101,11.89452 22.13282,-4.53516 30.77735,14.8867 46.17189,24.11326 10.73047,5.82421 21.9961,-5.34765 32.67969,-6.17578 8.6914104,-16.39842 28.8086,-24.60154 44.39454,-33.98435 15.33204,-10.02733 38.26563,-8.36327 47.3672,-25.5781 11.04297,-5.7539 1.125,-12.49609 -3.86328,-2.375 7.85938,-19.31249 -16.01954,-11.55468 -23.38282,-15.69139 -3.07031,-10.08203 -35.83985,-2.53906 -21.96094,-16.46483 10.04688,2.28906 39.83985,8.04687 33.3711,-9.51953 -2.67969,-5.92968 -9.54688,-18.42967 -8.02735,-3.64062 -22.16797,5.97656 -22.10156,-38.394497 -1.43749,-18.60545 13.1914,8.91015 7.23437,34.1445 27.75391,32.55075 -3.32422,8.04296 26.320319,19.62889 16.65625,7.58203 -7.73047,-16.45702 -14.78125,-33.2031 -21.69531,-49.99215 3.09765,-18.624987 13.52343,14.37108 19.39062,19.92577 15.734379,22.98435 32.316419,45.41792 46.804699,69.23041 12.52344,-7.9375 52.89454,-6.27343 30.58594,13.91795 -6.53515,8.88672 -5.12109,31.3828 -20.59765,18.73436 -10.92188,-4.22655 9.03906,19.92186 11.77734,26.69139 6.47657,22.01951 28.48048,-2.89453 43.82423,4.55078 8.74609,-1.76953 41.88673,13.53514 17.64844,4.60546 -16.07813,-5.71093 -42.29688,-6.53124 -52.39064,4.28515 6.22657,6.91016 5.46094,15.47265 9.4336,5.37109 16.71094,-9.5703 38.23438,-3.90624 55.71876,-5.62109 -6.57031,7.4375 22.09766,15.49609 24.66407,28.61717 18.85938,27.30466 15.00782,67.76166 -10.60938,89.64837 -12.89062,12.83592 -32.28907,18.62498 -50.30079,17.1992 z m 18.8047,-1.96094 c 32.19532,-6.03124 55.95313,-38.40231 52.8125,-70.55853 -1.42187,-24.97264 -17.80078,-48.59762 -40.41407,-59.46871 15.21876,-4.51952 -33.08594,-0.44531 -21.47266,-2.13671 -9.33984,0.26562 -28.10157,-0.67188 -30.01173,9.11718 10.79298,4.53515 30.8633,-4.62109 44.47267,4.56249 21.31642,9.60156 35.69923,32.86326 33.44923,56.32418 -0.65234,18.8867 -13.26563,36.832 -30.85938,44.11324 -14.66407,7.75781 -32.73829,7.0664 -47.29689,-0.85156 -27.39063,-11.08202 -38.94532,-48.01559 -25.8086,-73.6601 -6.6875,-19.0742 -10.54297,19.64452 -19.20313,24.89842 -0.46094,37.94138 34.72657,71.1601 72.84377,68.83588 3.85156,-0.0859 7.70312,-0.42969 11.48829,-1.17578 z m -1.54298,-15.79295 c 16.48438,-4.39062 30.60158,-16.03515 36.41408,-32.2656 8.58203,-23.35936 -1.34766,-52.34762 -22.98829,-65.28901 -13.4961,-9.35546 -32.73829,-11.08983 -47.92579,-5.00781 4.6914,17.14842 18.875,14.32421 33.02735,18.11327 -9.3711,-6.89844 -7.63282,-18.80467 5.16406,-9.55077 13.5625,5.36327 32.36719,24.41403 17.27344,37.68356 0.24219,8.31249 -11.94141,30.89841 3.00782,15.46873 13.09375,4.125 -8.67188,15.04296 -15.50001,14.26952 -10.91406,6.58203 19.20704,-1.0039 4.96485,8.96093 -11.28125,10.42578 -40.75392,18.87889 -43.83595,-2.90624 -8.21485,-9.99219 -19.2461,-24.24998 -13.96485,-2.88672 -6.66406,14.28124 -13.02344,-34.1406 -6.57422,-18.83592 -7.33594,-9.00781 -8.1289,-20.95701 -12.18359,-32.48045 -6.54297,11.64843 -5.81641,30.6367 0.0274,44.2109 8.04297,20.15233 30.42579,32.59763 51.65626,32.53904 3.85938,-0.375 7.6875,-1.04296 11.4375,-2.02343 z m -325.73445,-6.21485 c 13.757821,-0.85155 26.062511,-10.53123 33.765641,-21.36325 -10.86719,-1.02735 -25.49611,-13.98828 -33.492201,-7.72265 0.41406,-5.125 -39.51173,-6.91797 -18.71485,-0.10157 4.69531,4.65234 14.60547,-2.82031 10.50782,2.4375 19.777341,-3.52734 -13.07813,5.76953 -17.18751,-4.375 -20.70704,-10.84764 6.52735,15.46483 16.62891,7.83203 6.94141,-0.13281 19.960941,-11.80468 7.55469,-0.64453 -12.35938,5.84374 -27.78907,1.8164 -35.02345,-10.13672 -4.89062,3.11719 15.89454,18.94531 26.64845,14.72265 8.91406,-1.84765 27.113291,-15.72264 10.08984,-2.5625 -17.42969,13.06249 -33.35156,-4.78906 -45.6211,-13.49217 -18.40235,0.66406 11.65625,32.16013 24.96485,33.94919 6.34375,1.92578 13.3125,2.21875 19.87891,1.45702 z m 316.26961,-2.35937 c 11.11719,0.26563 38.18751,-18.49998 12.28907,-13.49217 -8.50001,9.01952 -27.84767,-0.20313 -31.51564,3.78515 1.03516,9.79296 11.38282,10.94921 19.22657,9.70702 z m -91.24612,-7.76952 c 9.08204,-6.82421 -20.664059,-26.8281 -5.26953,-8.30468 12.82422,19.10936 -15.273439,-11.91405 -9.13281,-19.84764 8.13672,-14.68358 -4.730469,-8.55468 -8.765629,-12.74608 -1.05078,-0.16016 6.593749,-21.35545 -3.90234,-6.11719 -12.04298,11.73046 -22.39845,25.46873 -34.94923,36.52732 -11.83203,9.7578 -27.50782,5.27733 -41.38673,5.75781 -13.23046957,-1.06641 -24.69923,-8.14453 -38.47657,-6.2539 -16.89063,-0.27344 -33.52345,-2.38673 -49.85548,-6.65235 -7.78516,-2.78125 -35.296891,-5.45312 -12.92969,1.19923 21.14063,6.37108 43.29297,9.19139 65.41798,9.94139 45.64064,2.92188 91.29299,4.72656 136.937529,7.23437 z m 96.01175,-5.08594 c 24.08203,-4.97655 31.0586,-38.80074 13,-54.36323 -7.82813,-9.49999 -35.46485,-17.40624 -23.42579,3.18359 10.08594,6.65234 25.27735,26.84764 4.84766,34.15622 -11.41797,4.25 -24.92579,-9.66014 -17.55079,-20.52732 -2.99609,-6.96094 -26.03907,-18.97265 -17.05078,-11.71484 11.80078,4.69922 3.72656,19.55858 9.40625,27.54685 -17.07422,-2.80077 -3.875,16.5664 6.74219,19.57421 7.29297,3.76171 16.21875,5.36718 24.03126,2.14452 z M 45.745341,361.09296 c 15.27734,-5.42578 22.82422,-20.96092 34.45703,-31.12497 9.75391,-10.83593 26.820329,-23.73046 20.593759,-40.18747 1.48437,-11.45702 -17.273439,-25.59764 -13.359379,-7.58984 10.55079,15.83202 -4.23047,29.14451 -14.57422,39.68356 -13.77344,14.6328 -27.16407,35.38669 -50.53126,30.92576 -9.35938,-4.34375 -21.2109396,7.22265 -22.69140957,6.67577 14.31249957,3.67187 30.27343957,4.27734 44.80859957,2.13672 l 1.05469,-0.42187 z m 126.218779,-5.88281 c 1.92968,-14.6953 -6.11719,-10.18749 -4.92969,1.09375 4.19531,6.39062 6.54687,8.42968 4.92969,-1.09375 z m -57.77736,-2.29297 c -7.87891,-9.08983 -2.23438,-19.03123 -3.41797,-26.92966 6.01953,-21.09374 14.05078,-41.65231 18.97266,-63.02339 -17.1211,-23.60545 -22.58204,16.6328 -26.64845,29.64061 2.45313,10.80076 -18.249999,40.82418 1.35547,33.19137 7.04688,-22.72263 13.1836,-45.75777 20.6836,-68.31635 -6.38281,23.98436 -14.54688,47.87887 -20.6211,71.73823 6.06251,2.71484 -6.054679,24.67966 3.97657,19.78123 2.05469,2.64062 11.92969,14.15624 5.69922,3.91796 z M 3.0031414,356.33515 C 15.745331,344.53438 29.378141,325.55393 24.331271,306.95629 c -6.23828,-12.01562 -25.5234496,-29.41795 -35.30079,-26.27342 1.4648404,16.92967 30.10547,19.35545 24.86719,38.64059 -6.1054696,9.03125 -7.0703096,25.14451 -19.6093796,26.89842 -12.1015604,-0.62109 -25.8554704,1.24219 -36.5468804,-4.92187 -12.53126,-14.98046 -29.53907,-17.45311 -47.98048,-16.55077 -37.027361,-2.61328 -73.882831,-7.35546 -110.964871,-8.93749 -6.14063,15.95701 21.38281,25.87888 35.94922,24.42966 35.40235,4.58594 71.605491,2.92187 106.285191,12.19921 19.09766,4.0664 38.92579,2.82422 58.31251043,4.64453 z m 231.4102086,-1.7539 c 13.41407,0.72265 12.57422,-19.15624 0.85937,-4.48438 -1.18359,0.98828 -11.75,7.82031 -0.85937,4.48438 z M 33.741431,351.10469 c 22.20703,-2.84766 -13.03126,1.15624 -13.29298,-13.11327 -5.84765,1.87499 -14.5234396,18.85936 1.36329,13.5742 3.98047,0.27344 7.97656,0.0547 11.92969,-0.46093 z m 12.91016,-3.66406 c 1.80468,-1.83203 -5.86719,4.24218 0,0 z m -6.89454,0.43359 c 14.85938,-0.17578 19.69141,-21.43357 10.95704,-31.22654 -4.38282,-12.71483 -36.44533,0.53125 -14.79297,-7.96874 10.35937,0.0273 22.21875,8.93359 19.77734,20.13279 -1.62109,10.25 0.96484,10.30859 6.86328,2.34766 9.23438,-11.85546 25.3047,-21.51561 27.03517,-37.20309 -5.19141,-7.51562 -7.11719,-29.64061 6.83984,-19.91014 5.226569,8.99608 5.785159,-21.51952 6.148439,-28.14451 -2.890629,-9.57812 -21.246089,6.76562 -31.238289,-1.69922 -9.00781,-0.85937 -23.41406,-7.10156 -12.44531,2.73828 4.45703,14.5664 -3.10547,32.73435 -14.33594,41.53512 -7.70703,0.5625 -20.01173,6.46484 -5.13282,2.14062 -2.35547,8.89062 -5.03515,1.6211 1.82422,6.19922 -6.96093,8.04296 -23.44532,8.58593 -13.59766,2.39062 -14.15625,3.92578 10.31641,-11.60155 -6.11328,-2.01171 4.58985,-5.5 20.14063,-12.67187 4.17969,-4.44531 -19.3398496,8.31249 17.20704,-11.49609 -1.23438,-2.17188 -17.2265596,6.7539 -0.48437,-3.93359 3.30079,-6.34375 -5.51954,-3.17186 -26.0703196,11.73047 -7.96094,-0.89062 9.28515,-5.08202 -19.57031957,10.12109 -5.89454,0.54297 11.14454,-5.29296 11.32423,-6.38281 0.71485,-0.70703 -21.7343796,10.18359 23.17969,-15.03124 0.89843,-3.00781 -17.6796896,10.05858 -2.05859,-2.1875 6.23438,-5.6289 -7.03906,2.36719 -24.4023496,14.08202 -13.0898496,4.23828 -8.69530996546,7.24999 -9.35546997,1.76953 -0.58203,-2.13672 -18.1484404,13.4414 -0.39843,-5.60546 0.83204,-2.95703 -3.26172,-10.45702 -17.29688,1.58594 -4.66798,-3.87109 -5.73437,12.25389 -19.2031304,-0.30859 -3.45311997,-4.2539 -3.46094003,5.23046 -1.75781,4.64452 1.08202997,0.51172 -3.79297,-2.77344 -13.9648504,7.94921 -10.40234,-5.42187 0.35546,-13.03515 30.3632796,-13.32031 24.9101596,-16.99608 -12.6875096,5.87109 -21.7343796,4.08202 -30.18751,13.81639 -6.66406,6.90624 -31.42969,8.43359 -13.8086,15.59374 0.59766,8.19921 2.04297,16.46483 -1.05468,24.36326 20.7265604,-13.72264 42.70703,12.52733 35.5351604,32.89841 8.0039096,-9.91015 8.7890596,-25.65232 -5.07813,-31.24216 -13.3554704,-6.08203 -18.8515604,-23.58201 -3.97656,-23.97264 14.3789096,-10.14452 6.92969,3.85547 -0.17188,5.57812 16.2148496,8.88671 36.7734496,24.99998 27.2070396,46.30856 -10.10937,10.05077 4.44922,22.71091 14.87891,20.87498 z m -7.44141,-2.99609 c -9.35156,-4.34765 -11.3164,-14.39452 -1.70312,-2.06641 13.96094,8.1289 28.10547,-12.62889 17.17578,-22.87498 -5.21093,-12.72264 -30.64844,4.53906 -13.30859,-6.06249 14.37109,-4.05469 24.98438,17.55858 13.72266,27.14842 -3.95313,4.24217 -10.44532,5.41796 -15.88673,3.85546 z m 1.08594,-6.13671 c -10.33984,-2.01172 -8.85547,-20.04686 2.10547,-18.8789 13.44532,0.46094 11.82813,22.4492 -2.10547,18.8789 z m 7.19531,-2.53516 c 8.4961,-5.42187 -0.5664,-18.09764 -8.91797,-14.8203 -10.13671,6.59375 -0.70703,21.67967 8.91797,14.8203 z m 18.51954,-29.46091 c -7.77344,-2.86328 -19.82031,-14.03124 -4.72266,-4.82031 21.58595,9.15624 -9.35937,-0.62891 -6.80078,-8.53515 7.05079,1.71094 30.36329,19.54295 11.52344,13.35546 z m 7.16406,-3.21485 c -8.88281,-2.1289 -26.24609,-19.0156 -8.48828,-9.2617 15.82423,8.01561 -16.64063,-8.60937 -3.33984,-7.02734 8.98828,3.16015 26.10157,16.56639 6.85547,5.76171 -18.90235,-10.03514 19.32813,10.64843 4.91406,5.47265 9.98829,8.38671 -14.94922,-5.6289 0.86328,3.30469 2.25391,0.0508 0.35157,3.57812 -0.80469,1.74999 z m -14.54297,-10.58202 c -5.39062,-5.53905 -0.91015,1.86328 0,0 z m 18.65235,2.39063 c -8.68359,-1.32031 -26.33203,-17.19139 -8.39453,-11.32812 5.87109,1.58594 20.14453,12.41796 5.46484,5.08984 9.53907,5.73828 3.17578,2.44922 3.92579,6.73047 z m -3.85156,-4.51953 c -9.78516,-5.49999 -14.04688,-6.81249 -2.10156,-0.69922 1.07422,0.62109 8.88672,4.43359 2.10156,0.69922 z m -8.01954,-6.45312 c -1.45312,-1.20703 -1.76953,-0.67969 0,0 z m -45.04297,6.11718 c 4.92578,-6.91796 22.93359,-9.26952 4.57031,-1.40234 -1.16797,-0.71875 -3.87891,3.90625 -4.57031,1.40234 z m 54.91407,-3.5664 c -12.6875,-5.49609 -13.06641,-8.41015 -8.78907,-7.16406 -9.10937,-8.87499 33.12111,15.67968 10.13673,5.43359 -19.22266,-9.58202 18.38672,9.20703 1.37109,3.125 z m 5.08594,-2.29687 c -8.92578,-1.71484 -23.21875,-16.36327 -6.53516,-8.14453 7.4961,4.08984 16.88672,8.08984 4.06641,1.53906 -18.98438,-2.71093 -4.41797,-20.85545 -7.09766,-32.41794 12.0586,3.01953 31.02735,1.17578 33.70704,17.22655 2.710939,15.05467 -23.52344,-3.78906 -9.58203,6.89843 -11.01563,-7.75781 -21.46876,11.8164 -4.59766,13.68358 -5.92188,3.44141 -33.31641,-14.54295 -14.73828,-3.52343 3.08203,0.55469 15.14063,9.01562 4.77734,4.73828 z m 0.17188,-11.12499 c 5.58984,-10.33984 12.22266,-10.04297 21.14062,-5.38672 8.406259,-16.02733 -23.45313,-23.07811 -30.14453,-18.98827 4.6914,10.21875 -11.36719,29.34764 9.00391,24.37499 z m 4.14062,5.42186 c -10.98047,-4.6914 4.60938,-3.86718 1.76563,0.82813 z m 0.3125,-2.6914 c -11.61328,-9.67577 11.92579,4.625 0,0 z m 1.38672,-1.90625 c -8.52735,-7.26562 10.1211,3.06641 0,0 z m 1.38672,-1.89843 c -7.59375,-8.10547 9.30078,3.75 0,0 z m 1.64844,-1.91016 c -7.39844,-6.55468 9.82031,3.40625 0,0 z m -180.95317,76.664 c -0.40625,-0.90625 -3.597661,0.30859 0,0 z m 304.324289,-2.09375 c 16.89454,-2.59375 11.84766,-26.15232 -2.39063,-28.03122 -2.96484,-10.65624 -3.89062,-20.28124 -13.53125,-22.66795 -3.07813,-11.51562 -14.70313,-19.20311 -19.54688,-7.17578 8.50391,7.36718 16.42188,23.48436 1.93359,17.80467 -1.71093,9 19.40626,10.32421 18.00782,22.49217 -4.21484,9.45312 5.92188,19.69139 15.52735,17.57811 z m -3.6289,-10.03124 c -2.97267,-6.66406 3.04687,-8.83593 0.4375,-1.21875 7.91796,2.52344 -0.34376,-13.30468 5.35546,-0.10546 -0.50781,2.64062 -4.09765,2.59374 -5.79296,1.32421 z M -1.8367086,344.1086 c 7.33594,-7.43359 8.10938,-9.20702 -0.0664,-1.89062 -13.0820404,-7.61328 -37.3476704,7.58983 -38.6914204,-14.1914 1.63281,4.91015 -30.77344,-7.35937 -10.17188,4.89844 12.38672,13.85936 32.18361,12.66795 48.9297004,11.18358 z M 174.13599,341.83907 c 14.53907,-0.79688 0.8164,-12.42187 3.77344,-22.55077 -5.94531,-8.36717 -19.59376,0.21876 -17.55469,-17.3242 -1.00782,-15.00389 -19.42188,-24.71873 -13.6172,-42.60153 0.0703,-1.89843 -1.43359,24.61717 -2.50781,5.46875 3.64454,-14.0703 -8.98047,-24.39842 -12.8086,-36.42575 6.88673,3.48828 15.55079,-7.20703 12.47657,-15.89452 0.17188,-19.32811 -35.4961,6.51172 -9.46484,9.4453 16.86718,6.23047 -11.84766,-8.35155 -7.62501,3.86328 -15.67578,-0.34765 -16.63672,18.61718 -21.14844,31.17185 -0.29297,10.02734 -10.570309,20.51561 -3.66797,30.64451 6.5,-15.31639 10.57422,-33.59372 18.53126,-48.99215 10.98828,-4.375 23.05469,16.87889 19.98828,26.8242 5.07813,16.33202 19.04298,28.54294 20.39454,45.94527 6.72265,7.74218 5.10547,22.56249 -2,4.94922 0.38281,-16.30468 -18.78907,-37.34372 -18.65235,-46.25387 4.71484,20.15233 16.82813,38.37887 23.82813,57.57417 -3.98438,1.15625 2.58985,17.29686 10.05469,14.15624 z M 0.08907143,340.46016 C 15.702361,325.1633 3.2492314,289.71021 -20.789829,295.37036 c -18.91017,3.80468 -25.15626,29.57029 -13.81642,43.80856 11.37501,-1.92188 23.57423,1.05859 34.69532043,1.28124 z M 134.08911,330.58517 c 6.29687,-11.10546 21.5,-27.96482 11.38672,-40.3945 -8.54688,4.30859 -15.94141,31.80076 -13.30079,42.37888 z m -177.406299,-1.38281 c 5.56251,-11.17968 0.95703,-26.66404 -15.28906,-20.46483 -13.32422,3.94531 -13,-36.65231 -9.72266,-23.88279 2.9961,-6.82421 42.57814,-16.52342 32.37501,-12.93749 -11.57423,5.80078 -38.51954,5.39062 -30.29298,24.46873 3.92188,11.02343 17.00782,5.15234 25.91407,6.48437 7.27344,1.77734 15.96485,-10.21093 3.58985,-3.78906 -8.07032,0.44922 -39.84767,-2.24219 -14.64845,-1.41797 12.52735,3.70703 28.10157,-1.22265 23.5586,-16.1367 1.08594,-9.85156 -4.36328,-13.83593 -13.16016,-11.74218 -12.47656,3.8164 -25.6875,6.67187 -34.29297,10.6953 4.17969,14.1953 4.23828,28.9492 7.5,43.2695 9.08203,1.8125 15.20312,2.94531 24.46875,5.45312 z m -8.9414,-4.1914 c -8.03126,-5.91406 2.39062,-17.44139 -2.05079,-3.95312 7.50782,11.69921 4.23048,-5.63672 5.75391,-6.53906 5.75391,2.79296 2.85547,14.41405 -3.70312,10.49218 z m -1.75391,-29.73826 c -23.83594,-1.99609 19.92969,0.49219 24.94532,-2.21484 -7.94532,3.26953 -16.58594,2.41406 -24.94532,2.21484 z m 294.371159,29.72654 c 12.65625,-16.34374 -18.3711,-38.80466 -28.87891,-34.3281 8.5625,12.57421 21.6836,21.66796 28.87891,34.3281 z m -309.011789,-0.9375 c -1.90625,-13.73437 -8.13672,-50.37886 -8.94532,-44.48434 4.23438,-6.8164 0.60547,-12.78905 3.81251,-1.58203 15.27735,1.27734 -14.67188,-21.51951 -6.73828,-4.29296 -8.10548,2.39062 -17.07813,-14.13671 -5.6836,-2.01172 8.07422,6.5039 3.57031,-18.20702 1.86718,-3.03516 -8.72656,0.20313 8.39844,-7.71874 -5.73437,-3.67187 -10.046881,2.22266 -10.808601,38.08591 0.51172,18.67186 8.83203,-9.96483 9.60547,-7.85936 0.48828,0.91016 -14.660161,4.39843 -5.10547,24.53513 -22.031261,23.71873 -13.12891,-3.75 -34.21875,-2.27344 -33.16797,7.53905 8.89062,-11.72655 -4.91407,-13.41795 -4.42969,-1.03515 -4.69922,9.91406 7.75,-16.27733 -4.44141,-9.80468 -12.96875,-3.75 -12.82032,-0.0625 -11.24219,11.87109 9.58594,1.0664 27.64844,5.46874 27.82813,-2.8711 4.35156,12.94921 33.22267,5.08594 47.320331,9.60156 6.42578,0 15.18359,2.02343 20.58594,0.47656 z m -10.35547,-5.07031 c -15.30469,-6.50781 -40.234391,-9.92968 -56.210961,-4.12109 3.46485,-8.66405 33.78517,-1.60156 46.937521,-1.01172 11.84375,3.94141 -8.65625,-27.16404 3.30469,-5.64452 9.82813,17.5117 4.16016,-18.20702 -2.26954,-10.9375 6.22657,-8.55077 17.30079,26.1328 8.23829,21.71483 z m 2.83594,-0.8125 c 3.38672,-9.41796 -12.7461,-2.59375 0,0 z m -77.843771,-1.72265 c 2.66796,-18.28905 4.74219,-10.33593 0,0 z m 318.59382,7.38281 c -1.40234,-2.15235 1.27344,-0.91797 0,0 z M -39.434369,311.69065 c 11.10156,-13.97264 -13.4336,-5.97655 -22.75001,-7.8242 -6.03516,-8.05859 -7.625,-19.15624 -4.34375,-2.72656 0.4961,15.94529 30.98048,-2.98829 25.57423,17.39451 0.48437,-2.28515 0.85156,-4.59765 1.51953,-6.84375 z m 201.554729,6.74609 c 1.28125,-7.02343 -7.13672,-6.40624 0,0 z m 5.08594,-5.71483 c 2.96094,-8.44141 6.78516,-12.95312 12.94531,-9.45312 -1.40624,-14.77733 -27.98828,-25.93357 -18.38281,-6.28515 -0.74219,3.99609 0.0703,18.45311 5.4375,15.73827 z m -272.75006,-6.04297 c 10.117191,-9.07812 5.746091,-28.76951 9.656251,-41.73825 7.07031,-17.3867 -21.535161,-11.80468 -15.421881,4.17578 1.55469,11.65233 -16.06641,36.54685 5.34375,35.41404 5.91407,-5.92187 3.15625,-15.2578 4.96094,-22.79295 0.59765,-9.32422 3.230471,-27.52342 1.367191,-7.88281 -1.500001,9.14843 -0.906251,19.1367 -3.347661,27.91404 -12.76172,11.76561 -18.03907,-10.02343 -11.04688,-20.45311 1.5625,-8.71484 2.85547,-29.80466 11.25391,-27.42966 -17.01563,-4.76563 -7.05078,26.457 -24.47266,26.25779 -4.62891,5.90234 -8.50391,22.27341 -1.13281,25.41013 7.33984,1.76953 15.44922,2.76172 22.83985,1.125 z m -32.21876,-3.02734 c -4.54298,-11.29296 10.71093,-29.47263 -9.50782,-24.57029 -20.08985,-9.38671 -6.93359,23.91795 -18.80078,22.81248 7.84375,0.96875 22.64844,5.59374 28.3086,1.75781 z m 4.99219,0.13672 c -5.35157,-7.65624 9.17187,-25.78123 0.13671,-24.34763 -6.49609,3.11718 -6.28125,21.08982 -2.2539,24.66794 z m -29.48048,-6.59374 c 6.03125,-12.28906 0.0273,-27.47655 -5.13281,-10 -1.71094,3.1836 3.59765,24.16014 5.13281,10 z m 319.6368,3.40624 c -0.54297,0.32031 0.5039,1.75 0,0 z m -324.71493,-1.02734 c -7.87109,-11.80468 10.82813,-21.64061 -5.7539,-24.5742 -2.19532,6.82421 -7.1836,30.93747 5.7539,24.5742 z m 324.32039,-1.08984 c -3.83984,-7.11328 -19.8711,-31.93357 -8.3125,-11.19921 1.91407,2.08984 8.23829,14.34373 8.3125,11.19921 z M 34.081271,298.5891 c -1.21094,-0.65234 -0.28906,0.71094 0,0 z m -1.92188,-3.46875 c 18.13673,-8.62108 -17.89453,7.54297 0,0 z m 7.25001,1.75391 c 1.82812,-0.70312 -3.39063,0.35156 0,0 z M -177.118,290.61645 c 5.76562,-7.94921 3.36719,-39.3359 -6.40235,-19.6406 12.75782,3.59765 2.69141,16.64451 5.71094,22.30076 z m 198.949271,-0.88671 c -3.24219,1.10546 -3.3086,2.32422 0,0 z m -90.43752,-1.17578 c -0.53907,0.32031 0.5039,1.74609 0,0 z m 226.652389,-0.043 c 16.97266,-8.41015 -14.21875,-28.66013 -10.21875,-29.66794 1.49609,10.29296 -1.41406,26.52341 10.21875,29.66794 z m -114.968769,-0.8945 c 12.27734,-7.76562 19.17188,-27.48826 14.19922,-41.78513 -10.40235,-4.76171 -31.62892,-9.79295 -38.96095,1.63282 -3.83985,15.16795 4.51172,34.36716 17.85547,40.38278 l 3.85157,0.43359 z m 126.453149,-2.65625 c 18.23047,-10.37499 -12.21875,-29.04685 -15.03125,-43.15231 -2.58985,-17.8867 -25.90235,-2.99609 -10.53516,7.04296 7.63281,11.69921 17.55078,28.8242 25.56641,36.10935 z M 25.225801,280.7063 c 0.76563,-1.23437 -2.25391,1.32032 0,0 z m -160.320351,-3.76171 c 4.59375,-17.42967 10.34375,-29.52341 -12.11329,-25.73435 -5.88672,-0.45703 -9.52734,15.30077 -12.91406,5.53124 5.89453,-10.01171 -17.70313,-4.01952 -13.54298,6.96484 -2.21484,18.47655 13.39454,12.99608 11.51173,-2.30859 0.7539,-4.06641 -5.93751,27.01951 3.96875,12.84374 1.48828,-7.8789 6.10547,-22.06639 2.16797,-5.4414 -10.07032,13.87889 17.18359,10.10155 20.92188,8.14452 z m 6.64843,1.35937 c 2.77735,-10.27343 9.71095,-41.30074 -1.97265,-18.55467 -1.30859,5.05469 -9.6211,22.06639 1.97265,18.55467 z M 5.1672014,272.8821 c -11.11719,6.34374 -10.25,7.68358 0,0 z m -128.1523814,4.62499 c 11.33204,-8.21093 6.08594,-33.5156 26.371111,-23.85935 6.80468,3.3203 -4.449221,19.81638 9.17969,9.09765 12.26562,0.27343 -5.39454,-22.66796 -13.230471,-20.66405 3.851561,2.3164 14.609371,15.48436 1.792961,9.96484 -10.140631,0.44531 -28.406251,-5.29297 -25.273441,10.70311 1.15234,2.99609 -7.08594,19.00389 1.16015,14.7578 z m 134.335981,-0.14844 c -1.6093796,0.27735 -1.6914096,1.52344 0,0 z m -68.41408,-4.10546 c 9.96094,-2.27344 24.42578,-5.77344 6.08203,-9.82421 -15.39453,1.77734 -28.28516,-30.93357 -39.00392,-18.99608 6.89454,11.7539 14.76173,36.0195 32.92189,28.82029 z m 72.75392,-0.5 c 6.39844,-4.71875 -3.32031,-16.96874 0.84375,-25.12889 -10.0351596,-3.08984 -30.39063,12.67577 -21.9921896,19.32811 8.9375,-13.34764 12.07813,13.14061 21.1484396,5.80078 z m 3.6875,0.55469 c 5.00781,-3.0625 -5.96094,2.64452 0,0 z m -23.1328196,-2.44922 c 2.17188,-2.17578 -4.80859,3.53125 0,0 z m -28.3984404,-5.52343 c 10.29297,-3.45703 38.2265704,-16.59374 15.69922,-23.62498 -11.77344,5.06249 -27.46485,13.33592 -38.17579,1.46484 -6.29688,-9.82421 -45.484381,-8.15234 -23.23438,1.23828 11.07813,11.51561 29.5586,24.17185 45.71095,20.92186 z m 136.113309,-2.90625 c -0.93359,-2.96875 -0.24218,4.91796 0,0 z m 0.20313,-6.41015 c 4.0625,-7.51172 -3.89454,-29.77732 -0.30469,-9.3164 0.0195,1.69922 -1.8125,19.72264 0.30469,9.3164 z m -258.73444,1.70312 c 12.32813,-15.80467 -16.20313,3.41016 0,0 z m 275.99225,-4.33593 c -0.8125,-13.6289 7.35157,-2.11328 11.40235,-5.49609 -4.69922,-25.59373 -26.28516,8.52343 -11.40235,5.49609 z m -214.914109,-1.62891 c -2.63281,-10.24609 -15.597661,-13.53514 -24.632821,-3.70312 -8.55469,2.28906 -3.60156,-17.58983 -16.46485,-5.26953 -10.07422,2.33594 -21.74609,9.59374 -3.72265,7.79687 13.57031,0.48438 27.625,-1.01172 40.937511,1.21094 1.46875,0.44531 3.80469,2.80859 3.88281,-0.0352 z m -59.328141,-1.17187 c 8.97657,-3.20313 11.69922,-10.15624 1.22656,-4.32812 -1.30078,1.9414 -8.02734,5.98046 -1.22656,4.32812 z M 1.0617314,247.85477 c 25.0351596,-12.03905 53.9726696,-8.89062 80.2734596,-3.32812 20.035159,4.48828 30.374999,-24.50389 19.335939,-37.41403 -9.507809,-8.44922 -22.960939,-20.58202 -36.410159,-12.48437 -27.92189,8.13672 -55.0781396,21.59764 -75.8008,42.10544 -5.66797,6.10546 9.2421804,12.42186 12.6015604,11.12108 z m 105.7656486,0.13672 c -0.59375,0.14453 0.44922,1.38672 0,0 z m -220.93755,-2.82031 c 18.125001,-4.67187 -11.40235,-9.88671 -8.54297,-0.66015 -0.38282,6.84765 5.9414,1.41406 8.54297,0.66015 z m 224.38286,-6.57422 c 1.40626,-11.46483 8.78126,-10.10545 15.76954,-14.27342 -14.9961,-19.15623 -25.34376,11.32812 -19.03907,23.24998 0.77735,-3.08984 2.04688,-6.03515 3.26953,-8.97656 z m -244.51178,2.89844 c -0.2539,-6.85156 5.0586,-10.96483 5.6836,-14.53124 -15.29297,2.14063 -2.66016,-31.99997 -9.91016,-10.98046 0.36719,16.76562 -36.89844,0.69141 -12.96485,12.81249 8.26954,1.89844 10.00391,12.94921 13.51173,14.40234 z m 42.617211,2.13672 c -2.6836,-2.44531 -6.03907,0.83593 0,0 z m 1.14453,-2.14453 c -2.79688,-7.83984 0.59375,-27.17967 -5.32813,-9.98437 1.07422,4.09766 -1.97656,12.51171 5.32813,9.98437 z m -6.2461,-3.82422 c 8.19141,-20.55076 -16.156261,-12.60155 -27.875011,-10.68749 9.16406,-0.53906 38.257831,1.32422 12.51563,1.45313 -8.8125,-6.03906 -23.74219,4.48827 -11.91797,9.94921 6.46875,-2.35938 29.312511,7.58593 27.277351,-0.71485 z m 10.41797,0.58985 c 5.97266,-7.88672 -12.2461,-13.09374 -3.23437,0.85546 0.26172,3.35157 2.08984,-2.54687 3.23437,-0.85546 z m -41.398451,0.36328 c -0.95312,-3.41406 -1.86328,0.89843 0,0 z m -2.35547,-0.52735 c 2.5586,-10.92968 -5.25,-2.32812 0,0 z m 68.648461,-1.05859 c -1.57031,-14.66795 -42.308611,-18.17576 -22.21485,-1.62109 1.59375,3.1289 18.34375,-1.71094 22.21485,1.62109 z m 201.234419,-0.61718 c 16.64063,-3.4961 1.14453,-18.92577 -5.70313,-5.20703 1.72657,0.72265 2.41797,10.38671 5.70313,5.20703 z m -4.87109,-0.96485 c -5.74219,-9.57812 3.37109,6.91406 0,0 z m -31.59376,-1.30469 c 4.36328,-10.98436 1.87891,-14.48826 -0.57812,-0.99609 -0.375,0.33985 -1.65235,6.93359 0.57812,0.99609 z m 57.06251,-5.27733 c 8.08985,-5.08203 7.375,-25.33592 18.45314,-33.53904 -11.18751,-11.31249 -30.91799,2.14062 -39.90627,-2.79297 -19.35938,-31.83591 -43.285159,-60.67964 -61.152359,-93.425697 -3.57422,17.363257 13.92188,36.558557 22.566419,52.355417 9.99219,16.77733 22.14453,32.84373 30.92188,49.98043 -13.8711,-22.56248 -28.46485,-44.71481 -42.707039,-67.05463 6.98438,20.70311 19.277349,39.03122 31.718749,56.74605 -6.39843,12.85546 12.69923,20.14061 12.39454,12.45311 14.97656,-3.5664 10.35547,15.08593 12.89453,19.70702 6.17579,0.78515 8.26954,8.32421 14.81641,5.57031 z m -285.85554,-3.95703 c 8.45704,-1.32422 -5.04296,-18.10155 4.98829,-2.1875 5.27343,3.42578 -2.41016,-11.35546 6.79297,-14.23437 7.61328,-15.95311 -17.69532,-50.12105 -26.79298,-24.7656 -2.55078,12.35546 7.64454,29.03122 13.78516,30.05467 -11.25781,-9.6914 -12.78125,17.80076 1.22656,11.1328 z m 235.04694,-5.49609 c 6.23047,-9.4375 26.49219,12.08983 11.38672,-4.6875 -10.96485,-12.02733 -17.88672,19.51952 -11.38672,4.6875 z m 2.46093,-7.20312 c 19.53517,2.77734 -20.761719,-11.71874 -4.57421,3.10156 1.63671,-0.89453 2.48828,-2.98828 4.57421,-3.10156 z m 9.50001,0.96484 c -1.8125,-1.49218 -0.37891,1.27735 0,0 z m 2.15234,-0.6289 c 4.33985,-7.05078 -9.71484,-13.11718 -4.77344,-22.35936 -14.05078,4.94921 2.35547,17.33983 4.77344,22.35936 z m -4.91015,-3.36719 c -5.53907,-6.66405 -13.26563,-30.61326 -21.406259,-24.19139 2.871099,10.8789 10.152349,30.89451 21.406259,24.19139 z m -15.26954,-3.11718 c -3.54297,-7.70703 -4.910159,-24.92577 -12.691409,-9.12109 4.07422,1.64453 9.859379,10.08984 12.691409,9.12109 z M 89.507071,195.73762 c -2.8711,-1.6914 -0.47657,1.26172 0,0 z m 24.371089,-3.24218 c 10.8086,-13.76562 -20.519529,-21.05467 -29.062499,-30.12888 -11.1797,-12.66015 32.355469,9.23437 8.13672,-2.64062 -13.10157,-0.73438 -11.12891,-13.58203 -22.97266,-13.78906 -12.46094,-3.41405 -6.58204,-29.10935 -22.96876,-33.2109 -19.70703,-10.38672 -6.09766,30.44528 5.96484,17.71092 -0.70703,-18.29686 22.39064,22.25388 3.86329,17.86717 -8.64063,8.46093 -31.81251,-8.83203 -30.53907,6.02343 17,-0.99609 24.6836,12.3789 39.77344,9.52343 17.22267,-6.4414 3.05469,23.80467 12.16798,8.59375 19.47656,-0.11328 -22.6797,22.18748 2.89844,19.94919 15.3164,11.66016 11.05078,-17.7656 22.910149,-8.4492 5.26954,0.33984 4.27735,15.65233 9.82813,8.55077 z m -6.99609,-18.55467 C 103.73363,157.6439 68.968001,156.64 95.296131,167.87827 c 1.61719,-0.32031 13.023439,9.35156 11.585939,6.0625 z m 0,0"
       id="path219"
       inkscape:connector-curvature="0" />
  </g>
</svg>
