<?xml version="1.0" encoding="UTF-8"?>
<svg xmlns="http://www.w3.org/2000/svg" xmlns:xlink="http://www.w3.org/1999/xlink" width="1023pt" height="684pt" viewBox="0 0 1023 684" version="1.1">
<defs>
<filter id="alpha" filterUnits="objectBoundingBox" x="0%" y="0%" width="100%" height="100%">
  <feColorMatrix type="matrix" in="SourceGraphic" values="0 0 0 0 1 0 0 0 0 1 0 0 0 0 1 0 0 0 1 0"/>
</filter>
<mask id="mask0">
  <g filter="url(#alpha)">
<rect x="0" y="0" width="1023" height="684" style="fill:rgb(0%,0%,0%);fill-opacity:0.988235;stroke:none;"/>
  </g>
</mask>
<clipPath id="clip1">
  <rect width="1023" height="684"/>
</clipPath>
<g id="surface6" clip-path="url(#clip1)">
<path style=" stroke:none;fill-rule:nonzero;fill:rgb(0%,0%,0%);fill-opacity:1;" d="M 938.390625 320.773438 C 938.390625 439.019531 767.652344 534.964844 557.246094 534.964844 C 346.839844 534.964844 176.101562 439.019531 176.101562 320.773438 C 176.089844 202.53125 346.839844 106.582031 557.246094 106.582031 C 767.652344 106.582031 938.390625 202.53125 938.390625 320.773438 Z M 938.390625 320.773438 "/>
<path style="fill-rule:evenodd;fill:rgb(70.196078%,70.196078%,70.196078%);fill-opacity:1;stroke-width:1;stroke-linecap:butt;stroke-linejoin:miter;stroke:rgb(0%,0%,0%);stroke-opacity:1;stroke-miterlimit:4;" d="M 707.209228 345.730943 C 703.699386 338.418963 743.028553 310.571596 757.548524 319.611531 L 782.721812 335.279541 L 781.298214 395.601558 L 746.148818 421.251693 L 707.209228 406.998789 Z M 707.209228 345.730943 " transform="matrix(1.072876,0,0,1.073794,-39.966424,-38.220473)"/>
<path style=" stroke:none;fill-rule:evenodd;fill:rgb(50.196078%,50.196078%,50.196078%);fill-opacity:1;" d="M 788.765625 315.089844 C 788.496094 314.703125 791.382812 372.761719 773.273438 381.097656 C 753.683594 390.117188 742.632812 376.394531 742.632812 376.394531 L 733.277344 399.480469 C 734.425781 401.746094 735.636719 403.699219 736.859375 405.429688 L 760.570312 414.117188 L 798.28125 386.5625 L 799.796875 321.800781 L 789.238281 315.230469 Z M 788.765625 315.089844 "/>
<path style=" stroke:none;fill-rule:evenodd;fill:rgb(40%,40%,40%);fill-opacity:1;" d="M 758.125 303.953125 C 746.964844 306.5625 733.855469 314.488281 725.863281 321.671875 L 734.082031 330.992188 C 739.917969 321.554688 747.609375 312.460938 758.125 303.953125 Z M 758.125 303.953125 "/>
<path style="fill-rule:evenodd;fill:rgb(80%,80%,80%);fill-opacity:1;stroke-width:0.379125;stroke-linecap:butt;stroke-linejoin:miter;stroke:rgb(0%,0%,0%);stroke-opacity:1;stroke-miterlimit:4;" d="M 89.609347 -97.305056 C 90.092474 -98.068202 97.700104 -112.891634 107.222756 -104.657007 C 110.573352 -101.765325 109.139617 -93.25946 108.698822 -88.307282 L 88.888799 -81.34426 Z M 89.609347 -97.305056 " transform="matrix(4.244813,0,0,4.248447,289.328202,774.989116)"/>
<path style="fill-rule:evenodd;fill:rgb(80%,80%,80%);fill-opacity:1;stroke-width:0.379125;stroke-linecap:butt;stroke-linejoin:miter;stroke:rgb(0%,0%,0%);stroke-opacity:1;stroke-miterlimit:4;" d="M 90.9575 -103.690661 C 94.43509 -101.89221 93.323439 -94.16696 92.653504 -87.009933 L 69.391657 -87.136818 L 69.519571 -96.685344 C 69.01896 -96.906013 69.672331 -101.782795 73.301761 -101.867385 C 73.301761 -101.867385 78.059405 -102.206663 80.773195 -103.138989 C 82.833614 -103.851565 90.9575 -103.690661 90.9575 -103.690661 Z M 90.9575 -103.690661 " transform="matrix(4.244813,0,0,4.248447,289.328202,774.989116)"/>
<path style="fill-rule:evenodd;fill:rgb(70.196078%,70.196078%,70.196078%);fill-opacity:1;stroke-width:0.379125;stroke-linecap:butt;stroke-linejoin:miter;stroke:rgb(0%,0%,0%);stroke-opacity:1;stroke-miterlimit:4;" d="M 15.337635 -97.949593 C 18.72136 -99.874009 22.376557 -101.426047 27.218863 -101.341457 C 31.578044 -100.841274 37.904699 -100.81553 40.295485 -99.815164 C 44.400679 -98.084752 43.612033 -93.496679 43.645161 -93.446109 Z M 15.337635 -97.949593 " transform="matrix(4.244813,0,0,4.248447,289.328202,774.989116)"/>
<path style=" stroke:none;fill-rule:evenodd;fill:rgb(60%,60%,60%);fill-opacity:1;" d="M 584.460938 364.695312 L 583.921875 404.792969 L 601.523438 404.902344 C 602.746094 401.839844 603.394531 398.019531 603.109375 393.191406 C 602.027344 374.421875 592.8125 367.289062 584.460938 364.695312 Z M 584.460938 364.695312 "/>
<path style="fill-rule:evenodd;fill:rgb(80%,80%,80%);fill-opacity:1;stroke-width:0.379125;stroke-linecap:butt;stroke-linejoin:miter;stroke:rgb(0%,0%,0%);stroke-opacity:1;stroke-miterlimit:4;" d="M 41.568178 -91.291829 C 42.966944 -94.777477 41.4237 -100.323622 46.706802 -100.968159 C 55.059828 -101.985994 68.153934 -100.722665 69.111904 -99.992619 C 69.799324 -99.458416 70.342266 -91.928091 69.282149 -88.230968 C 59.113488 -86.81409 50.582856 -89.672671 41.568178 -91.291829 Z M 41.568178 -91.291829 " transform="matrix(4.244813,0,0,4.248447,289.328202,774.989116)"/>
<path style=" stroke:none;fill-rule:evenodd;fill:rgb(70.196078%,70.196078%,70.196078%);fill-opacity:1;" d="M 66.121094 397.625 C 193.316406 493.0625 296.875 595.890625 484.09375 663.046875 C 594.53125 700.804688 722.289062 685.742188 779.523438 638.511719 L 804.039062 618.335938 Z M 66.121094 397.625 "/>
<path style=" stroke:none;fill-rule:evenodd;fill:rgb(70.196078%,70.196078%,70.196078%);fill-opacity:1;" d="M 924.242188 325.53125 C 979.066406 287.59375 997.894531 258.660156 991.269531 236.109375 L 904.046875 259.203125 Z M 924.242188 325.53125 "/>
<path style="fill-rule:evenodd;fill:rgb(94.901961%,94.901961%,94.901961%);fill-opacity:1;stroke-width:2.8;stroke-linecap:butt;stroke-linejoin:miter;stroke:rgb(0%,0%,0%);stroke-opacity:1;stroke-miterlimit:4;" d="M 303.748476 287.689827 L 358.988444 306.828298 C 379.119065 313.798325 388.600008 302.44111 394.261632 295.070925 C 409.640858 317.90904 436.41979 287.758945 438.389526 282.600543 C 440.359261 277.431228 447.699346 257.001337 447.659296 257.121385 C 383.870459 240.42024 342.600684 261.999676 303.748476 287.689827 Z M 303.748476 287.689827 " transform="matrix(1.072876,0,0,1.073794,-39.966424,-38.220473)"/>
<path style=" stroke:none;fill-rule:evenodd;fill:rgb(80%,80%,80%);fill-opacity:1;" d="M 393.175781 231.570312 C 349.894531 231.816406 317.183594 250.007812 285.917969 270.699219 L 345.195312 291.261719 C 366.792969 298.757812 376.941406 286.527344 383.015625 278.613281 C 384.816406 281.296875 386.769531 283.328125 388.820312 284.753906 C 392.820312 277.089844 398.078125 268.820312 404.871094 264.6875 C 413.164062 259.648438 426.347656 253.820312 436.027344 249.761719 C 438.300781 243.457031 440.339844 237.808594 440.316406 237.875 C 423.203125 233.394531 407.59375 231.484375 393.175781 231.570312 Z M 393.175781 231.570312 "/>
<path style=" stroke:none;fill-rule:evenodd;fill:rgb(60%,60%,60%);fill-opacity:1;" d="M 393.175781 231.570312 C 349.894531 231.816406 317.183594 250.007812 285.917969 270.699219 L 337.386719 288.546875 L 402.863281 242.242188 L 402.1875 231.804688 C 399.140625 231.644531 396.125 231.550781 393.175781 231.570312 Z M 393.175781 231.570312 "/>
<path style="fill-rule:evenodd;fill:rgb(94.901961%,94.901961%,94.901961%);fill-opacity:1;stroke-width:2.2;stroke-linecap:butt;stroke-linejoin:miter;stroke:rgb(0%,0%,0%);stroke-opacity:1;stroke-miterlimit:4;" d="M 735.09864 288.020867 C 745.118439 297.861119 754.66856 296.951668 764.069403 292.298921 C 767.630218 295.900344 773.499374 296.751589 780.220504 296.569699 C 791.711232 284.961476 796.029358 262.428936 794.230746 230.561799 L 769.050175 211.321469 L 743.640227 214.169867 Z M 735.09864 288.020867 " transform="matrix(1.072876,0,0,1.073794,-39.966424,-38.220473)"/>
<path style=" stroke:none;fill-rule:evenodd;fill:rgb(60%,60%,60%);fill-opacity:1;" d="M 785.140625 188.683594 L 757.886719 191.742188 L 755.871094 209.191406 C 774.046875 217.085938 791.984375 226.683594 805.792969 266.832031 C 811.5625 253.238281 813.515625 233.867188 812.132812 209.355469 Z M 785.140625 188.683594 "/>
<path style=" stroke:none;fill-rule:evenodd;fill:rgb(40%,40%,40%);fill-opacity:1;" d="M 796.242188 197.175781 C 801.757812 218.03125 807.121094 238.839844 808.644531 258.554688 C 812.1875 245.765625 813.257812 229.261719 812.132812 209.355469 Z M 796.242188 197.175781 "/>
<path style="fill:none;stroke-width:0.48022;stroke-linecap:butt;stroke-linejoin:miter;stroke:rgb(0%,0%,0%);stroke-opacity:1;stroke-miterlimit:4;" d="M 115.619032 -117.759221 C 119.519933 -124.221141 120.147537 -130.85316 119.782202 -137.537588 " transform="matrix(4.244813,0,0,4.248447,289.328202,774.989116)"/>
<path style="fill-rule:evenodd;fill:rgb(92.54902%,92.54902%,92.54902%);fill-opacity:1;stroke-width:2.2;stroke-linecap:butt;stroke-linejoin:miter;stroke:rgb(0%,0%,0%);stroke-opacity:1;stroke-miterlimit:4;" d="M 624.811673 211.448792 L 608.358377 274.921145 C 630.841029 294.721696 650.898831 316.948661 676.869481 304.478279 C 691.600624 300.338461 704.39116 294.910862 734.628962 301.120588 C 742.700871 300.749533 749.611328 288.159103 752.429397 272.909441 C 756.521786 250.820713 756.74024 227.720676 753.441571 208.760457 Z M 624.811673 211.448792 " transform="matrix(1.072876,0,0,1.073794,-39.966424,-38.220473)"/>
<path style=" stroke:none;fill-rule:evenodd;fill:rgb(60%,60%,60%);fill-opacity:1;" d="M 768.382812 185.933594 L 630.378906 188.824219 L 616.195312 243.585938 C 619.703125 242.449219 622.09375 228.683594 682.605469 212.144531 C 757.246094 191.742188 765.546875 220.585938 770.527344 227.273438 C 771.289062 212.683594 770.546875 198.453125 768.382812 185.933594 Z M 768.382812 185.933594 "/>
<path style=" stroke:none;fill-rule:evenodd;fill:rgb(79.607843%,1.568627%,13.72549%);fill-opacity:1;" d="M 840.222656 4.941406 C 838.605469 4.945312 836.984375 4.9375 835.328125 4.976562 C 797.925781 5.8125 778.34375 19.925781 763.296875 33.832031 C 744.902344 50.804688 717.902344 45.339844 682.554688 24.472656 C 563.871094 0.839844 440.21875 46.757812 331.613281 122.554688 C 236.695312 188.796875 153.480469 259.703125 82.277344 296.382812 C 44.277344 315.945312 13.902344 323.476562 13.8125 341.09375 C -7.886719 365.664062 2.425781 377.375 3.289062 378.308594 C 23.675781 400.179688 202.933594 476.34375 296.765625 543.539062 C 379.238281 602.589844 483.738281 649.425781 550.550781 652.667969 C 616.320312 655.875 783.707031 678.429688 887.886719 598.625 C 965.710938 544.003906 1041.164062 371.898438 925.574219 285.464844 C 1004.699219 260.820312 1033.890625 194.480469 1018.339844 132.652344 C 1003.078125 71.792969 942.53125 4.769531 840.222656 4.941406 Z M 780.503906 196.511719 C 795.875 209.664062 812.109375 211.859375 828.417969 212.726562 C 838.171875 234.882812 845.589844 253.976562 845.371094 272.964844 C 845.15625 296.132812 828.34375 297.390625 819.597656 298.871094 C 852.894531 310.21875 815.925781 289.070312 793.679688 328.304688 C 795.875 364.082031 791.085938 392.363281 767.4375 398.378906 C 750.15625 402.777344 714.554688 404.035156 688.636719 400.648438 C 657.789062 397.335938 627.621094 391.96875 591.371094 397.011719 C 554.691406 402.128906 517.359375 404.503906 474.234375 376.800781 C 443.167969 356.839844 397.273438 363 364.15625 361.453125 C 344.933594 353.453125 325.671875 355.074219 312.894531 354.28125 C 299.503906 348.046875 286.148438 338.71875 259.4375 334.394531 C 243.957031 327.117188 228.0625 320.054688 209.914062 314.109375 C 209.230469 312.523438 207.535156 310.796875 215.179688 310.109375 C 234.78125 309.171875 247.054688 295.914062 246.910156 296.023438 C 293.597656 286.621094 329.777344 265.433594 368.332031 246.988281 C 403.96875 248.683594 441.082031 249.511719 538.742188 214.527344 C 561.027344 219.894531 580.535156 212.257812 600.011719 204.4375 C 616.570312 211.429688 639.679688 207.429688 664.84375 200.117188 C 682.265625 203.828125 699.546875 205.917969 715.996094 200.117188 C 757.753906 206.421875 780.503906 196.367188 780.503906 196.511719 Z M 780.503906 196.511719 "/>
<path style="fill-rule:evenodd;fill:rgb(70.196078%,70.196078%,70.196078%);fill-opacity:1;stroke-width:0.379125;stroke-linecap:butt;stroke-linejoin:miter;stroke:rgb(0%,0%,0%);stroke-opacity:1;stroke-miterlimit:4;" d="M -7.923291 -103.580327 C -8.711937 -104.894226 -1.877309 -108.965567 2.940151 -104.063959 C 5.101797 -103.046124 5.738603 -103.070949 9.808828 -100.74749 C 12.200534 -100.408212 13.023229 -99.068568 14.260953 -97.991887 L 6.06897 -95.193071 Z M -7.923291 -103.580327 " transform="matrix(4.244813,0,0,4.248447,289.328202,774.989116)"/>
<path style=" stroke:none;fill-rule:evenodd;fill:rgb(34.901961%,7.45098%,6.666667%);fill-opacity:1;" d="M 115.503906 277.46875 C 104.15625 284.496094 93.074219 290.835938 82.277344 296.382812 C 44.28125 315.945312 13.902344 323.441406 13.8125 341.09375 C 9.128906 346.390625 5.941406 351.109375 3.824219 355.21875 L 16.464844 361.558594 C 54.179688 331.800781 73.824219 347.257812 99.007812 348.839844 C 114.929688 332.089844 126.621094 313.460938 173.90625 311.121094 C 159.398438 293.140625 139.433594 282.585938 115.503906 277.46875 Z M 115.503906 277.46875 "/>
<path style="fill-rule:evenodd;fill:rgb(90.196078%,90.196078%,90.196078%);fill-opacity:1;stroke-width:2.7;stroke-linecap:butt;stroke-linejoin:miter;stroke:rgb(0%,0%,0%);stroke-opacity:1;stroke-miterlimit:4;" d="M 419.249234 242.668401 C 447.499096 273.92075 477.671361 322.750954 504.741567 315.329839 C 543.320706 322.248937 547.700727 314.529523 559.839539 310.589785 C 617.409692 312.099472 609.771052 296.529684 617.311387 284.939649 C 618.851495 266.059462 619.080872 245.389476 616.830787 222.7187 L 495.719379 208.938709 Z M 419.249234 242.668401 " transform="matrix(1.072876,0,0,1.073794,-39.966424,-38.220473)"/>
<path style=" stroke:none;fill-rule:evenodd;fill:rgb(60%,60%,60%);fill-opacity:1;" d="M 491.878906 186.136719 L 409.835938 222.347656 C 421.414062 235.15625 433.269531 250.714844 445.144531 264.621094 C 454.917969 245.003906 467.835938 218.792969 517.992188 226.4375 C 548.914062 231.152344 592.3125 221.433594 621.964844 219.285156 L 623.167969 219.617188 C 622.878906 213.53125 622.460938 207.3125 621.828125 200.933594 Z M 491.878906 186.136719 "/>
<path style="fill-rule:evenodd;fill:rgb(60%,60%,60%);fill-opacity:1;stroke-width:0.25275;stroke-linecap:round;stroke-linejoin:round;stroke:rgb(0%,0%,0%);stroke-opacity:1;stroke-miterlimit:4;" d="M -17.162508 -105.903786 C -13.636146 -107.600178 -10.171439 -109.41426 -6.973603 -114.223003 C -12.852101 -113.917744 -25.69222 -113.112303 -17.162508 -105.903786 Z M -17.162508 -105.903786 " transform="matrix(4.244813,0,0,4.248447,289.328202,774.989116)"/>
<path style=" stroke:none;fill-rule:evenodd;fill:rgb(64.705882%,3.529412%,9.019608%);fill-opacity:1;" d="M 578.125 79.703125 C 530.859375 80.207031 470.960938 88.464844 396.15625 112.019531 L 272.359375 165.339844 C 201.671875 217.589844 138.25 267.5625 82.277344 296.382812 C 44.28125 315.945312 13.902344 323.441406 13.8125 341.09375 C -7.886719 365.667969 2.425781 377.375 3.289062 378.3125 C 17.335938 393.371094 106.820312 434.230469 191.8125 480.164062 C 304.652344 488.019531 405.589844 512.554688 495.617188 560.617188 L 677.804688 657.859375 C 747.925781 656.453125 828.238281 644.3125 887.886719 598.628906 C 965.710938 544.007812 1041.164062 371.898438 925.574219 285.46875 C 980.039062 268.496094 1010.855469 231.820312 1019.710938 190.4375 C 973.777344 120.605469 939.289062 88.851562 912.148438 81.71875 C 865.496094 72.027344 830.828125 106.171875 808.367188 110.578125 C 785.003906 115.164062 763.550781 122.953125 729.136719 109.132812 C 718.730469 110.140625 674.886719 78.679688 578.125 79.703125 Z M 780.503906 196.511719 C 795.875 209.664062 812.109375 211.859375 828.417969 212.726562 C 838.171875 234.847656 845.589844 253.976562 845.40625 272.964844 C 845.15625 296.132812 828.34375 297.390625 819.597656 298.871094 C 819.777344 323.261719 817.042969 309.535156 793.679688 328.304688 C 795.875 364.082031 791.085938 392.363281 767.4375 398.378906 C 750.15625 402.777344 714.554688 404.035156 688.636719 400.648438 C 657.789062 397.335938 627.621094 391.96875 591.371094 397.011719 C 554.691406 402.128906 517.359375 404.503906 474.234375 376.800781 C 443.167969 356.839844 397.273438 363 364.15625 361.453125 C 344.933594 353.453125 325.671875 355.074219 312.894531 354.28125 C 299.503906 348.046875 286.148438 338.71875 259.4375 334.394531 C 243.957031 327.117188 228.0625 320.054688 209.914062 314.109375 C 209.230469 312.523438 207.535156 310.796875 215.179688 310.109375 C 234.78125 309.171875 247.054688 295.914062 246.910156 296.023438 C 293.597656 286.621094 329.777344 265.433594 368.332031 246.988281 C 403.96875 248.683594 441.082031 249.511719 538.742188 214.527344 C 561.027344 219.894531 580.535156 212.257812 600.011719 204.4375 C 616.570312 211.429688 639.679688 207.429688 664.84375 200.117188 C 682.265625 203.828125 699.546875 205.917969 715.996094 200.117188 C 757.753906 206.421875 780.503906 196.367188 780.503906 196.511719 Z M 780.503906 196.511719 "/>
<path style=" stroke:none;fill-rule:evenodd;fill:rgb(79.607843%,1.568627%,13.72549%);fill-opacity:1;" d="M 922.082031 311.046875 C 909.628906 310.976562 902.824219 324.773438 884.753906 342.824219 C 839.578125 387.894531 802.859375 393.875 781.007812 390.742188 C 777.410156 394.34375 772.945312 396.976562 767.4375 398.378906 C 750.15625 402.777344 714.554688 404.035156 688.636719 400.648438 C 657.789062 397.335938 627.621094 391.96875 591.371094 397.011719 C 554.691406 402.128906 517.359375 404.503906 474.234375 376.800781 C 443.167969 356.839844 397.273438 363 364.15625 361.453125 C 344.933594 353.453125 325.671875 355.074219 312.894531 354.28125 C 299.503906 348.046875 286.148438 338.71875 259.4375 334.394531 C 250.007812 329.960938 240.410156 325.601562 230.230469 321.53125 C 185.972656 337.527344 166.402344 382.671875 198.714844 399.101562 C 295.757812 448.425781 392.808594 496.953125 489.859375 527.433594 C 742.203125 635.125 786.550781 593.941406 845.875 564.941406 C 893.214844 541.808594 936.878906 506.464844 977.519531 461.035156 C 986.769531 426.085938 988.210938 389.480469 977.304688 356.15625 C 958.871094 331.257812 940.476562 311.15625 922.082031 311.046875 Z M 922.082031 311.046875 "/>
<path style=" stroke:none;fill-rule:evenodd;fill:rgb(52.54902%,5.882353%,7.45098%);fill-opacity:1;" d="M 489.355469 118.597656 C 445.976562 118.554688 415.738281 143.125 408.792969 142.285156 C 361.492188 166.9375 327.6875 197.378906 293.132812 216.257812 C 265.378906 231.386719 228.265625 229.117188 190.839844 225.839844 C 152.019531 254.230469 115.804688 279.125 82.277344 296.382812 C 44.503906 315.804688 14.289062 323.367188 13.851562 340.808594 C 73.703125 326.613281 134.726562 307.191406 187.148438 311.121094 C 194.609375 311.660156 201.980469 312.164062 209.277344 312.632812 C 209.046875 311.550781 209.875 310.578125 215.179688 310.109375 C 234.78125 309.171875 247.054688 295.914062 246.910156 296.023438 C 293.597656 286.621094 329.777344 265.433594 368.332031 246.988281 C 403.96875 248.683594 441.082031 249.511719 538.742188 214.527344 C 561.027344 219.894531 580.535156 212.257812 600.011719 204.4375 C 616.570312 211.429688 639.679688 207.429688 664.84375 200.117188 C 682.265625 203.828125 699.546875 205.917969 715.996094 200.117188 C 757.753906 206.421875 780.503906 196.367188 780.503906 196.511719 C 795.875 209.664062 812.109375 211.859375 828.417969 212.726562 C 838.171875 234.847656 845.589844 253.976562 845.40625 272.964844 C 845.375 276.351562 844.941406 279.269531 844.292969 281.828125 C 870.535156 279.484375 894.003906 273.179688 929.75 284.132812 C 936.410156 281.863281 942.710938 279.304688 948.648438 276.460938 C 960.851562 254.589844 956.855469 203.035156 951.492188 148.898438 C 924.640625 190.164062 880.398438 206.925781 879.136719 207.03125 C 858.222656 209.050781 806.097656 209.808594 828.203125 165.746094 C 825.539062 149.585938 810.671875 179.734375 784.859375 190.203125 C 762.074219 189.851562 759.230469 178.28125 747.171875 182.554688 C 681.292969 205.808594 724.097656 162.441406 718.121094 149.433594 C 708.292969 138.917969 692.09375 132.097656 647.277344 141.785156 C 560.953125 181.863281 562.71875 138.757812 532.660156 126.984375 C 517.179688 120.925781 502.636719 118.609375 489.355469 118.597656 Z M 489.355469 118.597656 "/>
<path style=" stroke:none;fill-rule:evenodd;fill:rgb(68.627451%,5.882353%,7.45098%);fill-opacity:1;" d="M 791.808594 364.441406 C 815.566406 360.082031 844.148438 377.449219 869.632812 331.257812 C 893.679688 287.699219 937.128906 293.863281 937.023438 293.753906 L 924.746094 284.746094 C 859.015625 254.988281 824.53125 317.640625 791.808594 364.441406 Z M 791.808594 364.441406 "/>
<path style=" stroke:none;fill-rule:evenodd;fill:rgb(0%,0%,0%);fill-opacity:1;" d="M 840.222656 4.828125 C 838.605469 4.832031 836.984375 4.828125 835.328125 4.863281 C 797.890625 5.703125 778.238281 19.816406 763.226562 33.753906 C 754.082031 42.234375 746.953125 50.359375 728.957031 45.777344 C 715.816406 42.425781 700.265625 34.824219 682.625 24.394531 L 682.59375 24.359375 C 563.871094 0.722656 440.183594 46.671875 331.542969 122.476562 C 236.621094 188.722656 153.421875 259.671875 82.242188 296.3125 C 63.25 306.074219 46.15625 312.8125 33.796875 319.332031 C 27.609375 322.613281 22.609375 325.855469 19.144531 329.351562 C 15.683594 332.84375 13.746094 336.628906 13.710938 341.058594 L 13.710938 341.09375 C 2.894531 353.34375 0.0273438 362.421875 0 368.582031 C -0.0273438 374.742188 2.777344 377.949219 3.21875 378.417969 C 5.78125 381.15625 10.796875 384.722656 17.832031 389.046875 C 24.875 393.335938 33.917969 398.378906 44.488281 404 C 65.632812 415.277344 92.890625 428.929688 122.4375 443.992188 C 181.53125 474.183594 249.792969 510.03125 296.695312 543.644531 C 379.167969 602.695312 483.707031 649.535156 550.554688 652.777344 C 616.320312 656.019531 783.710938 678.570312 887.960938 598.695312 C 926.910156 571.351562 965.210938 514.679688 979.359375 454.007812 C 993.503906 393.371094 983.496094 328.734375 925.792969 285.5 C 1004.808594 260.785156 1033.964844 194.472656 1018.449219 132.644531 C 1003.148438 71.734375 942.566406 4.660156 840.222656 4.828125 Z M 843.464844 0.015625 C 945.660156 1.601562 1002.824219 71.90625 1018.269531 132.675781 C 1034.109375 195.144531 1011.105469 273.6875 925.539062 285.359375 L 925.359375 285.429688 C 995.878906 309.390625 989.578125 396.398438 979.175781 453.9375 C 937.886719 662.613281 744.363281 680.554688 565.851562 661.605469 C 499.398438 654.433594 379.273438 602.480469 296.839844 543.46875 C 249.898438 509.851562 184.15625 467.160156 125.0625 437.003906 C 95.515625 421.90625 65.726562 415.0625 44.589844 403.820312 C 34.019531 398.164062 25 393.15625 17.96875 388.832031 C 10.933594 384.546875 5.878906 380.941406 3.351562 378.242188 C 2.925781 377.773438 0.171875 374.675781 0.195312 368.585938 C 0.226562 362.496094 3.074219 353.417969 13.910156 341.167969 L 13.910156 341.09375 C 13.933594 336.699219 15.832031 332.953125 19.273438 329.492188 C 22.714844 326 27.71875 322.828125 33.894531 319.550781 C 46.238281 313.027344 72.703125 309.136719 91.707031 299.339844 C 162.929688 262.695312 236.761719 188.886719 331.683594 122.644531 C 440.253906 46.863281 576.074219 -13.695312 682.519531 24.5625 C 682.519531 24.566406 682.519531 24.558594 682.550781 24.5625 C 707.28125 39.066406 737.699219 53.585938 763.332031 33.921875 C 784.75 10.007812 811.605469 -0.476562 843.460938 0.015625 Z M 780.46875 196.40625 C 780.46875 196.40625 780.433594 196.4375 780.394531 196.4375 C 780.363281 196.4375 780.289062 196.472656 780.214844 196.511719 C 780.035156 196.542969 779.785156 196.65625 779.425781 196.761719 C 778.738281 197.015625 777.660156 197.375 776.292969 197.773438 C 773.519531 198.601562 769.34375 199.574219 763.910156 200.511719 C 754.261719 202.09375 765.925781 200.835938 716.03125 200.003906 L 715.964844 200.003906 C 703.363281 209.625 683.636719 205.050781 664.882812 200.003906 L 664.816406 200.003906 C 639.6875 207.320312 616.542969 211.28125 600.054688 204.328125 L 599.988281 204.328125 C 581.699219 212.617188 571.980469 224.144531 538.792969 214.417969 L 538.722656 214.417969 C 441.0625 249.402344 403.984375 248.570312 368.347656 246.878906 L 368.3125 246.878906 C 329.722656 265.324219 293.617188 286.511719 246.890625 295.914062 L 246.890625 295.949219 L 246.890625 295.914062 L 246.855469 295.949219 L 246.890625 296.019531 L 246.929688 296.128906 L 247 296.128906 L 247 296.09375 C 295.847656 290.292969 331.738281 268.75 368.347656 247.09375 C 403.988281 248.824219 443.726562 258.734375 538.761719 214.632812 L 538.796875 214.632812 C 561.078125 219.929688 580.589844 212.328125 600.027344 204.507812 L 600.0625 204.507812 C 625.910156 207.066406 680.515625 188.101562 664.820312 200.1875 L 664.894531 200.1875 C 682.28125 203.898438 699.558594 205.988281 716.011719 200.1875 L 716.011719 200.21875 C 736.925781 203.390625 753.050781 202.417969 763.960938 200.722656 C 769.429688 199.859375 773.570312 198.816406 776.378906 198.023438 C 777.746094 197.589844 778.828125 197.230469 779.511719 196.976562 C 779.871094 196.832031 780.121094 196.761719 780.304688 196.691406 C 780.375 196.65625 780.445312 196.65625 780.484375 196.617188 C 795.855469 209.769531 812.089844 212 828.359375 212.832031 C 838.113281 234.953125 845.496094 254.011719 845.316406 272.925781 C 845.171875 284.492188 840.957031 290.578125 835.632812 293.929688 C 830.339844 297.316406 824.003906 298 819.613281 298.757812 L 819.578125 298.757812 C 819.183594 298.9375 818.894531 299.15625 818.714844 299.40625 C 818.535156 299.660156 818.425781 299.910156 818.460938 300.234375 C 818.460938 300.8125 818.785156 301.425781 819.21875 302.179688 C 820.046875 303.65625 821.234375 305.53125 821.234375 307.875 C 821.234375 310.179688 820.011719 312.988281 815.976562 316.375 C 811.910156 319.726562 805.035156 323.652344 793.660156 328.15625 L 793.585938 328.191406 L 793.585938 328.300781 C 794.703125 346.207031 794.054688 362.203125 790.167969 374.488281 C 786.316406 386.738281 779.222656 395.277344 767.417969 398.265625 C 750.136719 402.664062 714.574219 403.921875 688.691406 400.5 L 688.65625 400.5 C 657.804688 397.1875 627.640625 391.855469 591.355469 396.898438 C 554.707031 402.015625 517.414062 404.390625 474.324219 376.722656 C 443.1875 356.726562 397.328125 362.886719 364.171875 361.335938 C 364.171875 361.304688 364.171875 361.335938 364.140625 361.335938 C 344.953125 353.375 325.730469 354.960938 312.984375 354.167969 C 299.59375 347.972656 286.203125 338.605469 259.53125 334.28125 L 259.492188 334.28125 C 244.050781 327.003906 228.128906 319.941406 209.996094 313.996094 C 209.828125 313.636719 209.617188 313.238281 209.496094 312.878906 C 209.363281 312.484375 209.328125 312.160156 209.527344 311.835938 C 209.730469 311.511719 210.210938 311.1875 211.105469 310.898438 C 211.996094 310.609375 213.285156 310.394531 215.195312 310.214844 C 225.019531 309.746094 233.019531 306.179688 238.527344 302.753906 C 241.28125 301.0625 243.4375 299.367188 244.878906 298.144531 C 245.597656 297.53125 246.101562 296.992188 246.460938 296.628906 C 246.640625 296.449219 246.785156 296.304688 246.894531 296.234375 C 246.929688 296.199219 246.929688 296.160156 246.929688 296.125 C 246.929688 296.125 246.824219 295.980469 246.824219 295.980469 L 246.714844 296.089844 C 246.640625 296.164062 246.535156 296.304688 246.355469 296.484375 C 245.996094 296.847656 245.417969 297.351562 244.699219 297.964844 C 243.265625 299.1875 238.167969 296.558594 236.867188 299.511719 C 234.800781 304.195312 232.128906 312.195312 215.195312 309.996094 C 213.28125 310.140625 211.953125 310.394531 211.035156 310.679688 C 210.117188 310.96875 207.566406 310.285156 207.320312 310.679688 C 207.078125 311.078125 209.15625 312.519531 209.292969 312.953125 C 209.433594 313.347656 209.660156 313.78125 209.832031 314.175781 L 209.863281 314.210938 L 209.894531 314.210938 C 295.132812 352.328125 247.183594 328.695312 259.421875 334.457031 L 259.457031 334.492188 C 285.628906 341.335938 299.34375 348.796875 312.878906 354.378906 L 312.878906 354.414062 L 312.910156 354.414062 C 328.96875 360.105469 344.914062 353.550781 364.136719 361.511719 L 364.136719 361.546875 C 397.328125 363.132812 440.597656 360.535156 471.625 380.460938 C 514.785156 408.167969 554.707031 402.222656 591.390625 397.105469 C 627.640625 392.0625 662.414062 401.5 693.265625 404.816406 C 719.144531 408.238281 750.175781 403.664062 767.492188 401.539062 C 779.621094 400.023438 786.496094 386.835938 790.386719 374.550781 C 794.273438 362.230469 794.886719 346.199219 793.804688 328.328125 C 805.109375 323.824219 812.019531 319.898438 816.085938 316.511719 C 820.191406 313.125 821.453125 310.277344 821.453125 307.863281 C 821.453125 305.449219 820.191406 303.539062 819.398438 302.0625 C 818.96875 301.304688 818.679688 300.730469 818.679688 300.226562 C 818.679688 299.972656 818.714844 299.722656 818.894531 299.503906 C 819.039062 299.289062 819.253906 299.109375 819.652344 298.929688 L 819.652344 298.960938 C 824.007812 298.242188 830.414062 297.558594 835.777344 294.132812 C 841.140625 290.710938 845.390625 284.550781 845.5 272.914062 C 845.679688 253.890625 838.296875 234.796875 828.542969 212.671875 L 828.507812 212.601562 L 828.4375 212.601562 C 815.296875 210.691406 807.953125 205.539062 780.597656 196.425781 C 780.597656 196.390625 780.5625 196.390625 780.5625 196.390625 L 780.496094 196.390625 Z M 780.46875 196.40625 "/>
<path style=" stroke:none;fill-rule:evenodd;fill:rgb(32.156863%,5.882353%,7.45098%);fill-opacity:1;" d="M 806.925781 296.3125 L 790.117188 313.640625 C 788.925781 314.46875 794.976562 354.894531 791.628906 365.667969 C 789 374.242188 774.816406 394.742188 774.816406 394.742188 C 796.703125 386.996094 816.96875 370.242188 833.421875 354.964844 C 829.675781 314 852.390625 292.058594 882.339844 275.378906 C 862.183594 254.339844 851.707031 231.820312 849.222656 208.078125 C 834.933594 205.339844 822.117188 204.078125 814.558594 208.078125 Z M 806.925781 296.3125 "/>
<path style=" stroke:none;fill-rule:evenodd;fill:rgb(20%,20%,20%);fill-opacity:1;" d="M 790.117188 279.992188 C 791.953125 279.992188 793.210938 287.125 799.296875 291.699219 C 817.546875 305.5 837.488281 294.761719 841.050781 280.496094 C 844.652344 266.226562 838.53125 207.070312 831.367188 205.519531 C 824.242188 204.007812 812.542969 210.636719 812.542969 210.636719 C 808.726562 236.828125 814.414062 269.832031 790.117188 279.992188 Z M 790.117188 279.992188 "/>
<path style=" stroke:none;fill-rule:evenodd;fill:rgb(93.333333%,20.784314%,36.862745%);fill-opacity:1;" d="M 950.484375 320.269531 C 914.054688 375.644531 868.988281 403.929688 811.894531 417.1875 C 687.628906 445.972656 635.179688 434.734375 542.847656 408 C 471.320312 387.285156 409.332031 388.402344 337.984375 376.367188 C 561.890625 507.042969 615.527344 460.996094 699.761719 446.765625 C 827.515625 477.570312 926.296875 460.78125 950.484375 320.269531 Z M 950.484375 320.269531 "/>
<path style=" stroke:none;fill-rule:evenodd;fill:rgb(79.607843%,1.568627%,13.72549%);fill-opacity:1;" d="M 40.742188 379.644531 C 40.742188 379.644531 212.253906 376.761719 226.664062 409.945312 C 241.078125 443.09375 235.226562 466.65625 213.695312 469.070312 C 184.90625 472.3125 17.378906 388.003906 40.742188 379.644531 Z M 40.742188 379.644531 "/>
<path style=" stroke:none;fill-rule:evenodd;fill:rgb(94.901961%,94.901961%,94.901961%);fill-opacity:1;" d="M 491.839844 357.164062 C 476.898438 347.6875 569.917969 350.894531 572.6875 356.261719 C 572.6875 356.261719 574.417969 369.304688 566.28125 370.457031 C 560.953125 371.214844 553.429688 363.578125 553.429688 363.578125 C 539.175781 355.9375 501.34375 363.179688 491.839844 357.164062 Z M 491.839844 357.164062 "/>
<path style=" stroke:none;fill-rule:evenodd;fill:rgb(94.901961%,94.901961%,94.901961%);fill-opacity:1;" d="M 616.824219 390.707031 C 613.332031 400.039062 611.277344 344.84375 613.476562 342.898438 C 613.476562 342.898438 618.945312 341.238281 619.738281 345.996094 C 620.277344 349.09375 617.289062 353.921875 617.289062 353.921875 C 614.554688 362.75 619.054688 384.796875 616.824219 390.707031 Z M 616.824219 390.707031 "/>
<path style=" stroke:none;fill-rule:evenodd;fill:rgb(70.196078%,70.196078%,70.196078%);fill-opacity:1;" d="M 730 335.582031 C 730 335.582031 736.621094 390.632812 743.246094 386.058594 C 749.871094 381.484375 753.9375 353.417969 750.375 345.777344 C 746.808594 338.105469 734.570312 320.269531 730 335.582031 Z M 730 335.582031 "/>
<path style=" stroke:none;fill-rule:nonzero;fill:rgb(100%,100%,100%);fill-opacity:1;" d="M 764.160156 335.332031 C 764.519531 342.789062 762.902344 348.839844 760.488281 348.839844 C 758.078125 348.839844 755.808594 342.789062 755.449219 335.332031 C 755.054688 327.871094 756.671875 321.820312 759.085938 321.820312 C 761.496094 321.820312 763.765625 327.871094 764.160156 335.332031 Z M 764.160156 335.332031 "/>
<path style=" stroke:none;fill-rule:evenodd;fill:rgb(0%,0%,0%);fill-opacity:1;" d="M 173.152344 309.785156 C 153.105469 306.148438 102.503906 314.6875 51.460938 330.828125 L 51.5625 331.113281 C 119.582031 309.640625 172.769531 312.523438 216.597656 316.59375 C 218.261719 309.171875 193.199219 313.390625 173.152344 309.785156 Z M 173.152344 309.785156 "/>
<path style=" stroke:none;fill-rule:evenodd;fill:rgb(0%,0%,0%);fill-opacity:1;" d="M 872.585938 335.257812 C 844.039062 347.507812 819.058594 365.089844 777.15625 397.515625 L 774.492188 395.210938 C 816.394531 362.785156 841.808594 345.058594 872.730469 335.90625 Z M 872.585938 335.257812 "/>
<path style=" stroke:none;fill-rule:evenodd;fill:rgb(0%,0%,0%);fill-opacity:1;" d="M 905.847656 163.40625 C 891.738281 172.617188 879.964844 183.316406 865.136719 191.886719 C 850.304688 200.441406 832.449219 206.925781 806.027344 207.644531 L 806.675781 210.3125 C 833.277344 209.589844 850.84375 202.167969 865.820312 193.519531 Z M 905.847656 163.40625 "/>
<path style=" stroke:none;fill-rule:evenodd;fill:rgb(64.705882%,3.529412%,9.019608%);fill-opacity:1;" d="M 807.214844 416.140625 L 806.316406 416.71875 C 855.667969 465.175781 843.390625 491.621094 845.875 521.8125 L 846.921875 521.632812 C 840.765625 492.234375 840.835938 467.589844 807.214844 416.140625 Z M 807.214844 416.140625 "/>
<path style=" stroke:none;fill-rule:evenodd;fill:rgb(64.705882%,3.529412%,9.019608%);fill-opacity:1;" d="M 725.425781 419.960938 L 724.886719 420.25 C 742.023438 481.28125 731.691406 502.828125 728.199219 532.371094 L 728.738281 532.515625 C 730.289062 502.609375 734.210938 479.121094 725.425781 419.960938 Z M 725.425781 419.960938 "/>
<path style=" stroke:none;fill-rule:evenodd;fill:rgb(64.705882%,3.529412%,9.019608%);fill-opacity:1;" d="M 766.96875 423.347656 L 766.574219 423.746094 C 790.582031 480.203125 785.6875 503.367188 787.667969 533.019531 L 788.136719 533.019531 C 784.5 503.402344 783.816406 479.625 766.96875 423.347656 Z M 766.96875 423.347656 "/>
<path style=" stroke:none;fill-rule:evenodd;fill:rgb(64.705882%,3.529412%,9.019608%);fill-opacity:1;" d="M 864.414062 397.550781 L 863.839844 398.09375 C 903.796875 427.78125 898.179688 448.640625 903.363281 470.472656 L 904.046875 470.183594 C 896.453125 449.359375 893.71875 431.3125 864.414062 397.550781 Z M 864.414062 397.550781 "/>
<path style=" stroke:none;fill-rule:evenodd;fill:rgb(64.705882%,3.529412%,9.019608%);fill-opacity:1;" d="M 933.566406 325.421875 L 933.027344 325.964844 C 972.984375 355.652344 967.367188 376.511719 972.550781 398.34375 L 973.234375 398.09375 C 965.605469 377.230469 962.867188 359.179688 933.566406 325.421875 Z M 933.566406 325.421875 "/>
<path style=" stroke:none;fill-rule:evenodd;fill:rgb(64.705882%,3.529412%,9.019608%);fill-opacity:1;" d="M 309.691406 354.28125 L 310.265625 354.820312 C 270.273438 384.507812 275.886719 405.371094 270.742188 427.203125 L 270.019531 426.914062 C 277.652344 406.089844 280.386719 388.003906 309.691406 354.28125 Z M 309.691406 354.28125 "/>
<path style=" stroke:none;fill-rule:evenodd;fill:rgb(64.705882%,3.529412%,9.019608%);fill-opacity:1;" d="M 387.445312 360.046875 L 388.09375 360.730469 C 341.65625 398.34375 348.207031 424.753906 342.195312 452.421875 L 341.367188 452.097656 C 350.222656 425.691406 353.390625 402.8125 387.445312 360.046875 Z M 387.445312 360.046875 "/>
<path style=" stroke:none;fill-rule:evenodd;fill:rgb(52.54902%,5.882353%,7.45098%);fill-opacity:1;" d="M 800.734375 197.988281 L 799.835938 197.378906 C 853.617188 168.738281 837.777344 108.53125 839.394531 92.285156 L 840.441406 92.484375 C 834.824219 121.757812 840.65625 144.949219 800.734375 197.988281 Z M 800.734375 197.988281 "/>
<path style=" stroke:none;fill-rule:evenodd;fill:rgb(52.54902%,5.882353%,7.45098%);fill-opacity:1;" d="M 550.695312 211.679688 L 549.792969 211.066406 C 599.148438 162.636719 586.835938 136.179688 589.355469 105.988281 L 590.398438 106.1875 C 584.207031 135.59375 584.28125 160.226562 550.695312 211.679688 Z M 550.695312 211.679688 "/>
<path style=" stroke:none;fill-rule:evenodd;fill:rgb(52.54902%,5.882353%,7.45098%);fill-opacity:1;" d="M 586.730469 205.195312 L 585.828125 204.582031 C 635.179688 156.144531 622.871094 129.6875 625.390625 99.496094 L 626.398438 99.695312 C 620.242188 129.101562 620.3125 153.734375 586.730469 205.195312 Z M 586.730469 205.195312 "/>
<path style=" stroke:none;fill-rule:evenodd;fill:rgb(52.54902%,5.882353%,7.45098%);fill-opacity:1;" d="M 353.101562 248.464844 L 354.003906 247.851562 C 304.652344 199.429688 316.960938 172.964844 314.441406 142.773438 L 313.398438 142.972656 C 319.589844 172.378906 319.515625 197.015625 353.101562 248.464844 Z M 353.101562 248.464844 "/>
<path style=" stroke:none;fill-rule:nonzero;fill:rgb(100%,100%,100%);fill-opacity:1;" d="M 666.96875 265.507812 C 666.96875 278.1875 671.863281 284.890625 661.242188 284.890625 C 650.660156 284.890625 631.726562 272.171875 631.726562 259.453125 C 631.726562 246.773438 633.058594 230.414062 643.640625 230.414062 C 654.222656 230.414062 666.96875 252.824219 666.96875 265.507812 Z M 666.96875 265.507812 "/>
<path style=" stroke:none;fill-rule:nonzero;fill:rgb(100%,100%,100%);fill-opacity:1;" d="M 507.390625 273.648438 C 510.339844 285.972656 513.507812 292.097656 510.054688 292.925781 C 506.597656 293.753906 497.453125 282.871094 494.503906 270.515625 C 491.515625 258.195312 488.128906 242.195312 491.585938 241.332031 C 495.042969 240.503906 504.4375 261.292969 507.390625 273.648438 Z M 507.390625 273.648438 "/>
<path style=" stroke:none;fill-rule:nonzero;fill:rgb(100%,100%,100%);fill-opacity:1;" d="M 778.957031 262.914062 C 774.492188 266.121094 773.375 269.542969 770.675781 265.796875 C 768.011719 262.046875 767.726562 252.105469 772.226562 248.898438 C 776.6875 245.691406 782.808594 242.050781 785.507812 245.800781 C 788.171875 249.546875 783.457031 259.707031 778.957031 262.914062 Z M 778.957031 262.914062 "/>
<path style=" stroke:none;fill-rule:evenodd;fill:rgb(0%,0%,0%);fill-opacity:1;" d="M 879.714844 275.992188 L 879.714844 276.351562 C 903.363281 277 915.855469 280.207031 926.617188 285.539062 C 923.269531 276.75 896.09375 274.296875 879.714844 275.992188 Z M 879.714844 275.992188 "/>
</g>
</defs>
<g id="surface1">
<use xlink:href="#surface6" mask="url(#mask0)"/>
</g>
</svg>
