<?xml version="1.0" encoding="UTF-8" standalone="no"?>
<!-- Created with Inkscape (http://www.inkscape.org/) -->

<svg
   xmlns:dc="http://purl.org/dc/elements/1.1/"
   xmlns:cc="http://creativecommons.org/ns#"
   xmlns:rdf="http://www.w3.org/1999/02/22-rdf-syntax-ns#"
   xmlns:svg="http://www.w3.org/2000/svg"
   xmlns="http://www.w3.org/2000/svg"
   xmlns:sodipodi="http://sodipodi.sourceforge.net/DTD/sodipodi-0.dtd"
   xmlns:inkscape="http://www.inkscape.org/namespaces/inkscape"
   id="svg2457"
   sodipodi:docname="mouth.svg"
   inkscape:export-filename="/home/prism/Ãrea de Trabalho/mouth.png"
   viewBox="0 0 240.98325 161.08196"
   sodipodi:version="0.32"
   inkscape:export-xdpi="114"
   version="1.0"
   inkscape:output_extension="org.inkscape.output.svg.inkscape"
   inkscape:export-ydpi="114"
   inkscape:version="0.91 r13725"
   width="240.98326"
   height="161.08195">
  <defs
     id="defs72" />
  <sodipodi:namedview
     id="base"
     bordercolor="#666666"
     inkscape:pageshadow="2"
     guidetolerance="10.0"
     pagecolor="#ffffff"
     gridtolerance="10.0"
     inkscape:guide-bbox="true"
     inkscape:zoom="1.0527344"
     objecttolerance="10.0"
     borderopacity="1.0"
     inkscape:current-layer="layer4"
     inkscape:cx="133.45015"
     inkscape:cy="-14.198112"
     inkscape:window-y="24"
     inkscape:window-x="65"
     inkscape:window-height="1056"
     showgrid="false"
     inkscape:pageopacity="0"
     inkscape:window-width="1855"
     showguides="true"
     fit-margin-top="0"
     fit-margin-left="0"
     fit-margin-right="0"
     fit-margin-bottom="0"
     inkscape:window-maximized="1" />
  <g
     id="layer4"
     style="opacity:0.98999999"
     inkscape:label="teeth"
     inkscape:groupmode="layer"
     transform="translate(68.160399,182.41704)">
    <path
       inkscape:connector-curvature="0"
       d="m 152.90708,-106.91298 c 0,27.83267 -40.22253,50.41598 -89.790465,50.41598 -49.56794,0 -89.790477,-22.58331 -89.790477,-50.41598 -0.0034,-27.83267 40.222537,-50.41683 89.790477,-50.41683 49.567935,0 89.790465,22.58416 89.790465,50.41683 z"
       style="fill:#000000"
       id="path3329" />
    <g
       transform="matrix(0.25274984,0,0,0.25274984,-77.575767,-191.41338)"
       id="g3238">
      <path
         inkscape:connector-curvature="0"
         d="m 707.21,345.73 c -3.51,-7.31 35.82,-35.16 50.34,-26.12 l 25.17,15.67 -1.42,60.32 -35.15,25.65 -38.94,-14.25 0,-61.27 z"
         style="fill:#b3b3b3;fill-rule:evenodd;stroke:#000000;stroke-width:1px"
         sodipodi:nodetypes="csccccc"
         id="path3218" />
      <path
         inkscape:connector-curvature="0"
         d="m 772.44,329.03 c -0.25,-0.36 2.44,53.71 -14.44,61.47 -18.26,8.4 -28.56,-4.38 -28.56,-4.38 l -8.72,21.5 c 1.07,2.11 2.2,3.93 3.34,5.54 l 22.1,8.09 35.15,-25.66 1.41,-60.31 -9.84,-6.12 -0.44,-0.13 z"
         style="fill:#808080;fill-rule:evenodd"
         id="path3222" />
      <path
         inkscape:connector-curvature="0"
         d="m 743.88,318.66 c -10.4,2.43 -22.62,9.81 -30.07,16.5 l 7.66,8.68 c 5.44,-8.79 12.61,-17.26 22.41,-25.18 z"
         style="fill:#666666;fill-rule:evenodd"
         id="path3247" />
    </g>
    <path
       inkscape:connector-curvature="0"
       d="m 89.609385,-97.30469 c 0.48338,-0.76323 8.0903,-15.58697 17.613785,-7.3525 3.34976,2.89181 1.91657,11.39765 1.47559,16.35021 l -19.810215,6.96241 0.72084,-15.96012 z"
       style="fill:#cccccc;fill-rule:evenodd;stroke:#000000;stroke-width:0.37912476"
       sodipodi:nodetypes="csccc"
       id="path3406" />
    <path
       inkscape:connector-curvature="0"
       d="m 90.957765,-103.69043 c 3.47697,1.79785 2.36603,9.52349 1.69608,16.68095 l -23.26174,-0.12721 0.12721,-9.54893 c -0.50034,-0.22049 0.15265,-5.09672 3.78226,-5.18152 0,0 4.7575,-0.33922 7.47123,-1.27206 2.06074,-0.71236 10.18496,-0.55123 10.18496,-0.55123 z"
       style="fill:#cccccc;fill-rule:evenodd;stroke:#000000;stroke-width:0.37912476"
       sodipodi:nodetypes="cccccsc"
       id="path3404" />
    <path
       inkscape:connector-curvature="0"
       d="m 15.338035,-97.9492 c 3.38368,-1.92505 7.03874,-3.47696 11.88104,-3.39216 4.35893,0.50035 10.68531,0.52579 13.07678,1.52647 4.10452,1.73001 3.31584,6.3179 3.34976,6.36878 l -28.30758,-4.50309 z"
       style="fill:#b3b3b3;fill-rule:evenodd;stroke:#000000;stroke-width:0.37912476"
       sodipodi:nodetypes="ccscc"
       id="path3400" />
    <path
       inkscape:connector-curvature="0"
       d="m 69.527795,-96.57537 -0.12721,9.43868 4.14692,0.0254 c 0.28833,-0.72083 0.44098,-1.61975 0.37314,-2.75613 -0.25441,-4.41828 -2.4254,-6.0974 -4.39285,-6.70799 z"
       style="fill:#999999;fill-rule:evenodd"
       id="path3229" />
    <path
       inkscape:connector-curvature="0"
       d="m 41.567915,-91.29208 c 1.39927,-3.48545 -0.14417,-9.03163 5.13912,-9.67614 8.3532,-1.01765 21.44694,0.24593 22.40522,0.97525 0.68691,0.53426 1.22966,8.06486 0.16961,11.76231 -10.168,1.41623 -18.69928,-1.44167 -27.71395,-3.06142 z"
       style="fill:#cccccc;fill-rule:evenodd;stroke:#000000;stroke-width:0.37912476"
       sodipodi:nodetypes="csscc"
       id="path3402" />
    <path
       inkscape:connector-curvature="0"
       d="m -52.58318,-88.82429 c 29.964645,22.46458 54.3610548,46.66764 98.465925,62.47511 26.01787,8.88746 56.114805,5.34265 69.598635,-5.77515 l 5.77515,-4.74903 -173.83971,-51.95093 z"
       style="fill:#b3b3b3;fill-rule:evenodd"
       sodipodi:nodetypes="ccscc"
       id="path3438" />
    <path
       inkscape:connector-curvature="0"
       d="m 149.57429,-105.79357 c 12.91565,-8.92986 17.35089,-15.73962 15.7905,-21.04835 l -20.54801,5.43594 4.75751,15.61241 z"
       style="fill:#b3b3b3;fill-rule:evenodd"
       sodipodi:nodetypes="cccc"
       id="path3548" />
    <g
       transform="matrix(0.25274984,0,0,0.25274984,-77.575767,-191.41338)"
       id="g3587">
      <path
         inkscape:connector-curvature="0"
         d="m 303.75,287.69 55.24,19.14 c 20.13,6.97 29.61,-4.39 35.27,-11.76 15.38,22.84 42.16,-7.31 44.13,-12.47 1.97,-5.17 9.31,-25.6 9.27,-25.48 -63.79,-16.7 -105.06,4.88 -143.91,30.57 z"
         style="fill:#f2f2f2;fill-rule:evenodd;stroke:#000000;stroke-width:2.79999995"
         sodipodi:nodetypes="csczcc"
         id="path3386" />
      <path
         inkscape:connector-curvature="0"
         d="m 403.72,251.25 c -40.34,0.23 -70.83,17.17 -99.97,36.44 L 359,306.84 c 20.13,6.98 29.59,-4.41 35.25,-11.78 1.68,2.5 3.5,4.39 5.41,5.72 3.73,-7.14 8.63,-14.84 14.96,-18.69 7.73,-4.69 20.02,-10.12 29.04,-13.9 2.12,-5.87 4.02,-11.13 4,-11.07 -15.95,-4.17 -30.5,-5.95 -43.94,-5.87 z"
         style="fill:#cccccc;fill-rule:evenodd"
         id="path3575" />
      <path
         inkscape:connector-curvature="0"
         d="m 403.72,251.25 c -40.34,0.23 -70.83,17.17 -99.97,36.44 l 47.97,16.62 61.03,-43.12 -0.63,-9.72 c -2.84,-0.15 -5.65,-0.24 -8.4,-0.22 z"
         style="fill:#999999;fill-rule:evenodd"
         id="path3582" />
    </g>
    <g
       transform="matrix(0.25274984,0,0,0.25274984,-77.575767,-191.41338)"
       id="g3624">
      <path
         inkscape:connector-curvature="0"
         d="m 735.1,288.02 c 10.02,9.84 19.57,8.93 28.97,4.28 3.56,3.6 9.43,4.45 16.15,4.27 11.49,-11.61 15.81,-34.14 14.01,-66.01 l -25.18,-19.24 -25.41,2.85 -8.54,73.85 z"
         style="fill:#f2f2f2;fill-rule:evenodd;stroke:#000000;stroke-width:2.20000005"
         sodipodi:nodetypes="ccccccc"
         id="path3396" />
      <path
         inkscape:connector-curvature="0"
         d="m 769.06,211.31 -25.4,2.85 -1.88,16.25 c 16.94,7.35 33.66,16.29 46.53,53.68 5.38,-12.66 7.2,-30.7 5.91,-53.53 l -25.16,-19.25 z"
         style="fill:#999999;fill-rule:evenodd"
         id="path3612" />
      <path
         inkscape:connector-curvature="0"
         d="m 779.41,219.22 c 5.14,19.42 10.14,38.8 11.56,57.16 3.3,-11.91 4.3,-27.28 3.25,-45.82 l -14.81,-11.34 z"
         style="fill:#666666;fill-rule:evenodd"
         id="path3619" />
    </g>
    <path
       inkscape:connector-curvature="0"
       d="m 115.61876,-117.75941 c 3.90099,-6.46207 4.52854,-13.09374 4.16388,-19.77799"
       style="fill:none;stroke:#000000;stroke-width:0.4802196"
       sodipodi:nodetypes="cc"
       id="path3196" />
    <g
       transform="matrix(0.25274984,0,0,0.25274984,-77.575767,-191.41338)"
       id="g3192">
      <path
         inkscape:connector-curvature="0"
         d="m 624.81,211.45 -16.45,63.47 c 22.48,19.8 42.54,42.03 68.51,29.56 14.73,-4.14 27.52,-9.57 57.76,-3.36 8.07,-0.37 14.98,-12.96 17.8,-28.21 4.09,-22.09 4.31,-45.19 1.01,-64.15 l -128.63,2.69 z"
         style="fill:#ececec;fill-rule:evenodd;stroke:#000000;stroke-width:2.20000005"
         sodipodi:nodetypes="ccccscc"
         id="path3394" />
      <path
         inkscape:connector-curvature="0"
         d="m 753.44,208.75 -128.63,2.69 -13.22,51 c 3.27,-1.06 5.5,-13.88 61.9,-29.28 69.57,-19 77.31,7.86 81.95,14.09 0.71,-13.59 0.02,-26.84 -2,-38.5 z"
         style="fill:#999999;fill-rule:evenodd"
         sodipodi:nodetypes="cccscc"
         id="path3567" />
    </g>
    <path
       inkscape:connector-curvature="0"
       d="m 129.78103,-181.25386 c -0.38162,8.4e-4 -0.76323,-8.5e-4 -1.15333,0.008 -8.81114,0.19674 -13.42448,3.51936 -16.96928,6.79195 -4.33349,3.99511 -10.69379,2.70864 -19.021535,-2.20321 -27.95988,-5.56229 -57.09005,5.24598 -82.6754202,23.08704 -22.3611178,15.59207 -41.9644108,32.28234 -58.7386418,40.91539 -8.95191,4.60486 -16.107672,6.37726 -16.128873,10.52418 -5.111985,5.783629 -2.683198,8.539759 -2.479668,8.760249 4.80245,5.1476 47.033146,23.07517 69.1381528,38.89111 19.4286002,13.89938 44.0472002,24.9239 59.7868202,25.68713 15.49369,0.75476 54.927545,6.06349 79.469825,-12.7206 18.33463,-12.85628 36.10955,-53.36715 8.87898,-73.711629 18.63992,-5.8006 25.51752,-21.41556 21.85399,-35.96877 -3.59569,-14.32509 -17.85972,-30.10118 -41.96102,-30.06132 z m -14.06898,45.09198 c 3.62113,3.09535 7.44579,3.61265 11.28741,3.81618 2.29819,5.21545 4.04515,9.71006 3.99427,14.17923 -0.0509,5.4529 -4.01123,5.74971 -6.07197,6.09741 7.84437,2.67132 -0.865,-2.30667 -6.10588,6.92848 0.5173,8.42104 -0.61059,15.07815 -6.18222,16.49438 -4.07059,1.03461 -12.4577,1.33142 -18.563585,0.53427 -7.2677,-0.7802 -14.37428,-2.04378 -22.91404,-0.85652 -8.64153,1.20421 -17.43571,1.76392 -27.59522,-4.75751 -7.31859,-4.69814 -18.1311,-3.24799 -25.93307,-3.61265 -4.52853,-1.88265 -9.0655502,-1.50103 -12.0760902,-1.6876 -3.15471,-1.46711 -6.30092999,-3.66353 -12.593391,-4.68118 -3.6465718,-1.71304 -7.3915168,-3.3752 -11.6664858,-4.77446 -0.161128,-0.37314 -0.560555,-0.7802 1.239834,-0.94133 4.618426,-0.22049 7.5093938,-3.34128 7.4754728,-3.31584 10.99908,-2.21338 19.52188,-7.19985 28.6043902,-11.54182 8.39559,0.39858 17.13889,0.59363 40.14621,-7.64084 5.24937,1.26358 9.84575,-0.53427 14.43364,-2.37451 3.90099,1.6452 9.3454,0.70387 15.2732,-1.01765 4.10452,0.87348 8.17511,1.36534 12.050645,0 9.83727,1.48407 15.19688,-0.88196 15.19688,-0.84804 z"
       style="fill:#cb0423;fill-rule:evenodd"
       sodipodi:nodetypes="csscsscsssccscccsccscsscccccccccccc"
       id="path3388" />
    <path
       inkscape:connector-curvature="0"
       d="m -7.9236982,-103.58018 c -0.788677,-1.31447 6.046525,-5.38506 10.863393,-0.48339 2.1625,1.01765 2.79853,0.99221 6.86912,3.31584 2.3914802,0.33922 3.2140802,1.67912 4.4522102,2.75613 l -8.1920602,2.79853 -13.992663,-8.38711 z"
       style="fill:#b3b3b3;fill-rule:evenodd;stroke:#000000;stroke-width:0.37912476"
       sodipodi:nodetypes="cccccc"
       id="path3398" />
    <path
       inkscape:connector-curvature="0"
       d="m -40.949768,-117.10642 c -2.673022,1.65368 -5.284137,3.14623 -7.827409,4.45221 -8.951062,4.60486 -16.107672,6.36878 -16.128873,10.52418 -1.1033,1.24661 -1.854663,2.35755 -2.353311,3.32431 l 2.977469,1.49255 c 8.884915,-7.00481 13.512669,-3.36672 19.445557,-2.99358 3.750881,-3.94338 6.505315,-8.32775 17.645168,-8.87898 -3.417601,-4.23172 -8.121679,-6.71647 -13.758601,-7.92069 z"
       style="fill:#591311;fill-rule:evenodd"
       id="path3444" />
    <g
       transform="matrix(0.25274984,0,0,0.25274984,-77.575767,-191.41338)"
       id="g3561">
      <path
         inkscape:connector-curvature="0"
         d="m 419.25,242.67 c 28.25,31.25 58.42,80.08 85.49,72.66 38.58,6.92 42.96,-0.8 55.1,-4.74 57.57,1.51 49.93,-14.06 57.47,-25.65 1.54,-18.88 1.77,-39.55 -0.48,-62.22 l -121.11,-13.78 -76.47,33.73 z"
         style="fill:#e6e6e6;fill-rule:evenodd;stroke:#000000;stroke-width:2.70000005"
         sodipodi:nodetypes="ccccccc"
         id="path3392" />
      <path
         inkscape:connector-curvature="0"
         d="m 495.72,208.94 -76.47,33.72 c 10.79,11.93 21.84,26.42 32.91,39.37 9.11,-18.27 21.15,-42.68 67.9,-35.56 28.82,4.39 69.27,-4.66 96.91,-6.66 l 1.12,0.31 c -0.27,-5.67 -0.66,-11.46 -1.25,-17.4 L 495.72,208.94 Z"
         style="fill:#999999;fill-rule:evenodd"
         sodipodi:nodetypes="cccscccc"
         id="path3556" />
    </g>
    <path
       inkscape:connector-curvature="0"
       d="m -17.162246,-105.90381 c 3.526151,-1.69608 6.991242,-3.51089 10.1883528,-8.31928 -5.8777648,0.3053 -18.7187868,1.11094 -10.1883528,8.31928 z"
       style="fill:#999999;fill-rule:evenodd;stroke:#000000;stroke-width:0.25274983px;stroke-linecap:round;stroke-linejoin:round"
       sodipodi:nodetypes="ccc"
       id="path3380" />
    <path
       inkscape:connector-curvature="0"
       d="m 68.035245,-163.65619 c -11.13477,0.11788 -25.24615,2.06244 -42.86842,7.60608 l -29.1640982,12.55099 c -16.6529608,12.29827 -31.5937298,24.06059 -44.7799038,30.84491 -8.951062,4.60486 -16.107672,6.36878 -16.128873,10.52418 -5.111985,5.78363 -2.683198,8.53976 -2.479668,8.76025 3.309052,3.54481 24.390478,13.16158 44.412702,23.97409 26.5826608,1.84873 50.361701,7.62388 71.571181,18.93673 l 42.91931,22.8886 c 16.519815,-0.33073 35.439585,-3.18863 49.491605,-13.94178 18.33463,-12.85628 36.10955,-53.36715 8.87898,-73.71163 12.83085,-3.99427 20.09007,-12.62732 22.17625,-22.36791 -10.82099,-16.43756 -18.94522,-23.91133 -25.33944,-25.59045 -10.9906,-2.28123 -19.15722,5.75565 -24.44899,6.7928 -5.50378,1.07955 -10.5581,2.91302 -18.66536,-0.34006 -2.45084,0.23745 -12.779955,-7.16764 -35.575275,-6.9268 z m 47.676805,27.49431 c 3.62113,3.09535 7.44579,3.61265 11.28741,3.81618 2.29819,5.20697 4.04515,9.71006 4.00275,14.17923 -0.0594,5.4529 -4.01971,5.74971 -6.08045,6.09741 0.0424,5.74123 -0.60211,2.51019 -6.10588,6.92848 0.5173,8.42104 -0.61059,15.07815 -6.18222,16.49438 -4.07059,1.03461 -12.4577,1.33142 -18.563585,0.53427 -7.2677,-0.7802 -14.37428,-2.04378 -22.91404,-0.85652 -8.64153,1.20421 -17.43571,1.76392 -27.59522,-4.75751 -7.31859,-4.69814 -18.1311,-3.24799 -25.93307,-3.61265 -4.52853,-1.88265 -9.0655502,-1.50103 -12.0760902,-1.6876 -3.15471,-1.46711 -6.30092999,-3.66353 -12.593391,-4.68118 -3.6465718,-1.71304 -7.3915168,-3.3752 -11.6664858,-4.77446 -0.161128,-0.37314 -0.560555,-0.7802 1.239834,-0.94133 4.618426,-0.22049 7.5093938,-3.34128 7.4754728,-3.31584 10.99908,-2.21338 19.52188,-7.19985 28.6043902,-11.54182 8.39559,0.39858 17.13889,0.59363 40.14621,-7.64084 5.24937,1.26358 9.84575,-0.53427 14.43364,-2.37451 3.90099,1.6452 9.3454,0.70387 15.2732,-1.01765 4.10452,0.87348 8.17511,1.36534 12.050645,0 9.83727,1.48407 15.19688,-0.88196 15.19688,-0.84804 z"
       style="fill:#a50917;fill-rule:evenodd"
       sodipodi:nodetypes="cccscscscccccsccccsccscsscccccccccccc"
       id="path3413" />
    <path
       inkscape:connector-curvature="0"
       d="m 149.06546,-109.20269 c -2.93422,-0.017 -4.53701,3.23103 -8.79417,7.47971 -10.6429,10.60898 -19.29291,12.01673 -24.44052,11.27894 -0.84804,0.84804 -1.89961,1.46711 -3.19711,1.79784 -4.07059,1.03461 -12.4577,1.33142 -18.563585,0.53427 -7.2677,-0.7802 -14.37428,-2.04378 -22.91404,-0.85652 -8.64153,1.20421 -17.43571,1.76392 -27.59522,-4.75751 -7.31859,-4.69814 -18.1311,-3.24799 -25.93307,-3.61265 -4.52853,-1.88265 -9.0655502,-1.50103 -12.0760902,-1.6876 -3.15471,-1.46711 -6.30092999,-3.66353 -12.593391,-4.68118 -2.221865,-1.04309 -4.4827398,-2.06922 -6.8801488,-3.0275 -10.426652,3.7653 -15.037445,14.39124 -7.42459,18.2583 22.8614598,11.60967 45.72462,23.03277 68.58778,30.20718 59.447595,25.34792 69.895455,15.65482 83.871155,8.8281 11.15172,-5.44442 21.43845,-13.76369 31.01282,-24.45747 2.17946,-8.22599 2.51868,-16.84208 -0.0509,-24.68645 -4.34197,-5.85995 -8.67545,-10.59202 -13.00894,-10.61746 z"
       style="fill:#cb0423;fill-rule:evenodd"
       sodipodi:nodetypes="cscscssccccscsccc"
       id="path3420" />
    <path
       inkscape:connector-curvature="0"
       d="m 47.122575,-154.50159 c -10.21888,-0.0102 -17.34241,5.77345 -18.97913,5.57586 -11.14325,5.80229 -19.1063402,12.96738 -27.24753019,17.41111 -6.53838501,3.56177 -15.28082981,3.0275 -24.09790081,2.25579 -9.145264,6.68255 -17.677394,12.54251 -25.575191,16.60462 -8.898483,4.57093 -16.016931,6.35182 -16.120392,10.45633 14.100361,-3.34128 28.476335,-7.91221 40.826342,-6.98785 1.757138,0.12721 3.493924,0.24593 5.212901,0.35618 -0.05427,-0.25441 0.140775,-0.48338 1.389938,-0.59363 4.618426,-0.22049 7.5093938,-3.34128 7.4754728,-3.31584 10.99908,-2.21338 19.52188,-7.19985 28.6043902,-11.54182 8.39559,0.39858 17.13889,0.59363 40.14621,-7.64084 5.24937,1.26358 9.84575,-0.53427 14.43364,-2.37451 3.90099,1.6452 9.3454,0.70387 15.2732,-1.01765 4.10452,0.87348 8.17511,1.36534 12.050645,0 9.83727,1.48407 15.19688,-0.88196 15.19688,-0.84804 3.62113,3.09535 7.44579,3.61265 11.28741,3.81618 2.29819,5.20697 4.04515,9.71006 4.00275,14.17923 -0.008,0.79716 -0.11025,1.48407 -0.26289,2.08618 6.18221,-0.55123 11.71143,-2.0353 20.13247,0.54274 1.56887,-0.53426 3.05294,-1.13637 4.45221,-1.80632 2.87485,-5.14761 1.93353,-17.28306 0.66995,-30.02571 -6.32638,9.71345 -16.74879,13.65854 -17.04561,13.68398 -4.92711,0.4749 -17.20673,0.65299 -11.99976,-9.71854 -0.62755,-3.80346 -4.12996,3.29294 -10.2104,5.75734 -5.3681,-0.0831 -6.03805,-2.80616 -8.87898,-1.80039 -15.519125,5.47325 -5.43594,-4.7346 -6.84368,-7.79603 -2.315145,-2.47543 -6.131325,-4.08077 -16.689425,-1.80039 -20.336,9.4336 -19.92046,-0.71235 -27.0016,-3.48375 -3.64657,-1.4264 -7.07265,-1.97169 -10.20192,-1.97423 z"
       style="fill:#860f13;fill-rule:evenodd"
       id="path3436" />
    <path
       inkscape:connector-curvature="0"
       d="m 118.37489,-96.63474 c 5.59707,-1.02612 12.33051,3.06143 18.33463,-7.81044 5.66491,-10.25281 15.90075,-8.80266 15.87531,-8.8281 l -2.89182,-2.1201 c -15.48521,-7.00481 -23.60943,7.7426 -31.31812,18.75864 z"
       style="fill:#af0f13;fill-rule:evenodd"
       sodipodi:nodetypes="csscc"
       id="path3453" />
    <path
       inkscape:connector-curvature="0"
       d="m 129.78103,-181.28015 c -0.38162,8.5e-4 -0.76323,-8.5e-4 -1.15333,0.008 -8.81962,0.19759 -13.44992,3.51936 -16.98624,6.80043 -2.15402,1.99544 -3.83314,3.90862 -8.07334,2.82991 -3.09535,-0.78868 -6.758875,-2.57804 -10.914275,-5.03312 l -0.008,-0.008 c -27.96836,-5.56399 -57.10701,5.25107 -82.7008602,23.09468 -22.3619668,15.59291 -41.9618668,32.29251 -58.7310098,40.91708 -4.474259,2.29819 -8.500753,3.88402 -11.412923,5.41897 -1.456932,0.77172 -2.63486,1.53496 -3.451522,2.35755 -0.814967,0.8226 -1.27206,1.71305 -1.279693,2.75613 l 0,0.008 c -2.54836,2.88333 -3.224248,5.02039 -3.230184,6.47054 -0.0068,1.45015 0.653839,2.2049 0.758148,2.31515 0.603804,0.64451 1.785124,1.48407 3.443042,2.50172 1.658766,1.00917 3.789043,2.19642 6.279736,3.51936 4.980539,2.65437 11.402746,5.86844 18.363458,9.41325 13.921425,7.10657 30.0019598,15.54457 41.0519178,23.45678 19.4286002,13.89938 44.0556802,24.9239 59.8037802,25.68714 15.49369,0.76323 54.927545,6.07196 79.486785,-12.72908 9.1758,-6.43663 18.19894,-19.7763 21.53174,-34.05729 3.3328,-14.27251 0.97524,-29.48635 -12.61884,-39.66283 18.61448,-5.81756 25.48361,-21.42658 21.82855,-35.9798 -3.60465,-14.33647 -17.87716,-30.12443 -41.98694,-30.08457 z m 0.76324,-1.13298 c 24.07585,0.37313 37.54273,16.92094 41.18082,31.22568 3.73138,14.70331 -1.6876,33.19059 -21.84551,35.93824 l -0.0424,0.017 c 16.6131,5.63946 15.12903,26.11963 12.6782,39.66283 -9.72702,49.11847 -55.31765,53.34171 -97.371955,48.88102 -15.65481,-1.6876 -43.95391,-13.91633 -63.3740302,-27.80723 -11.058437,-7.91221 -26.5461918,-17.96149 -40.4676158,-25.05958 -6.960713,-3.55329 -13.978244,-5.16456 -18.957935,-7.81045 -2.489845,-1.33142 -4.615033,-2.5102 -6.271255,-3.52784 -1.657071,-1.00917 -2.847719,-1.85721 -3.443891,-2.49324 -0.100069,-0.11025 -0.748819,-0.83956 -0.742883,-2.27275 0.0068,-1.43319 0.677584,-3.57025 3.231033,-6.45358 l 0,-0.017 c 0.0051,-1.03461 0.452853,-1.91658 1.263579,-2.73069 0.810726,-0.8226 1.989502,-1.56888 3.443891,-2.34059 2.907929,-1.53496 9.142719,-2.45084 13.619522,-4.75751 16.779319,-8.62457 34.17262,-25.99836 56.5345848,-41.59042 25.5768902,-17.83683 57.5734402,-32.09153 82.6499802,-23.0862 0,8.5e-4 0,-8.5e-4 0.008,0 5.82604,3.41421 12.991965,6.83181 19.030015,2.20321 5.04584,-5.62929 11.37221,-8.09709 18.87737,-7.9809 z m -14.8407,46.22581 c 0,0 -0.008,0.008 -0.017,0.008 -0.008,0 -0.0254,0.008 -0.0424,0.017 -0.0424,0.008 -0.10177,0.0339 -0.18657,0.0594 -0.16113,0.0594 -0.41554,0.14417 -0.7378,0.23745 -0.65299,0.19505 -1.63672,0.42402 -2.91726,0.64451 -2.27274,0.37314 0.47491,0.0763 -11.27893,-0.11872 l -0.008,0 -0.008,0 c -2.968135,2.26427 -7.615395,1.18725 -12.033685,0 l -0.008,0 -0.008,0 c -5.91932,1.72152 -11.37221,2.65436 -15.25624,1.01765 l -0.008,0 -0.008,0 c -4.30804,1.95049 -6.59775,4.66422 -14.41668,2.37451 l -0.008,0 -0.008,0 c -23.00732,8.23447 -31.74214,8.03942 -40.13773,7.64084 l -0.008,0 c -9.0909902,4.34196 -17.5968302,9.32844 -28.6043912,11.54182 l 0,0.008 0,-0.008 -0.0085,0.008 0.0085,0.017 0.0085,0.0255 0.0085,0 0.0085,0 0,-0.008 c 11.5079,-1.36535 19.96286,-6.43663 28.5874302,-11.53335 8.39559,0.40706 17.75796,2.73917 40.14621,-7.64084 l 0.008,0 c 5.24937,1.24662 9.84575,-0.54274 14.42516,-2.38299 l 0.008,0 c 6.08893,0.60211 18.9537,-3.86198 15.25624,-1.01765 l 0.017,0 c 4.09604,0.87348 8.16663,1.36535 12.042166,0 l 0,0.008 c 4.92711,0.74628 8.72633,0.51731 11.29589,0.11873 1.28903,-0.20353 2.26427,-0.44946 2.92574,-0.63603 0.32226,-0.10177 0.57667,-0.18657 0.7378,-0.24593 0.0848,-0.0339 0.14416,-0.0509 0.18657,-0.0678 0.017,-0.008 0.0339,-0.008 0.0424,-0.017 3.62113,3.09535 7.44579,3.62113 11.27893,3.81618 2.29819,5.20697 4.03667,9.6931 3.99427,14.14531 -0.0339,2.72221 -1.02613,4.15539 -2.28123,4.94407 -1.24662,0.79716 -2.73917,0.95829 -3.77378,1.13638 l -0.008,0 c -0.0933,0.0424 -0.16112,0.0933 -0.20353,0.15264 -0.0424,0.0594 -0.0678,0.11873 -0.0594,0.19505 0,0.13569 0.0763,0.27985 0.17809,0.45794 0.19505,0.3477 0.4749,0.78868 0.4749,1.33991 0,0.54274 -0.28833,1.20421 -1.23814,2.00137 -0.95828,0.78868 -2.57804,1.71304 -5.25785,2.77309 l -0.017,0.008 0,0.0254 c 0.2629,4.21476 0.11025,7.98006 -0.80563,10.87188 -0.90741,2.88333 -2.57805,4.89319 -5.35962,5.59706 -4.07059,1.03461 -12.44922,1.33142 -18.546626,0.52578 l -0.008,0 c -7.2677,-0.78019 -14.37428,-2.03529 -22.92252,-0.84804 -8.63305,1.20422 -17.41874,1.76393 -27.56978,-4.74902 -7.33555,-4.70662 -18.13958,-3.25647 -25.95003,-3.62113 0,-0.008 0,0 -0.008,0 -4.52005,-1.87417 -9.0485802,-1.50103 -12.0506502,-1.6876 -3.15471,-1.45863 -6.30940999,-3.66353 -12.59339,-4.68118 l -0.0085,0 c -3.6380908,-1.71304 -7.3889718,-3.3752 -11.6605498,-4.77447 -0.03986,-0.0848 -0.08904,-0.17808 -0.117877,-0.26289 -0.03138,-0.0933 -0.03986,-0.16961 0.0076,-0.24593 0.04749,-0.0763 0.161128,-0.15265 0.371442,-0.22049 0.210313,-0.0678 0.513912,-0.11873 0.963373,-0.16113 2.314301,-0.11024 4.199494,-0.9498 5.496995,-1.75544 0.648751,-0.39858 1.156727,-0.79716 1.495943,-1.08549 0.169608,-0.14417 0.288333,-0.27137 0.373137,-0.35618 0.0424,-0.0424 0.07632,-0.0763 0.1017648,-0.0933 0.0085,-0.008 0.0085,-0.017 0.0085,-0.0254 0,0 -0.02544,-0.0339 -0.02544,-0.0339 l -0.02544,0.0254 c -0.01696,0.017 -0.0424,0.0509 -0.0848,0.0933 -0.0848,0.0848 -0.22049,0.20353 -0.390098,0.3477 -0.33752,0.28833 -1.538345,-0.33074 -1.845335,0.36465 -0.485927,1.10246 -1.116021,2.9851 -5.105201,2.4678 -0.451157,0.0339 -0.763236,0.0933 -0.979486,0.16113 -0.21625,0.0678 -0.817511,-0.0933 -0.875178,0 -0.05767,0.0933 0.431653,0.4325 0.464726,0.53426 0.03307,0.0933 0.0865,0.19505 0.126358,0.28834 l 0.0076,0.008 0.0076,0 c 20.0798948,8.97226 8.7839968,3.40912 11.6673328,4.76598 l 0.0085,0.008 c 6.16525101,1.61128 9.396281,3.36672 12.584911,4.68118 l 0,0.008 0.008,0 c 3.78226,1.33991 7.5390812,-0.20353 12.0676112,1.67064 l 0,0.008 c 7.81893,0.37314 18.01237,-0.23745 25.32248,4.45221 10.168,6.52143 19.57276,5.12216 28.21429,3.91795 8.53976,-1.18726 16.73183,1.03461 23.99953,1.8148 6.097407,0.80564 13.407507,-0.27137 17.486577,-0.77171 2.8579,-0.35618 4.47766,-3.46001 5.39354,-6.35182 0.91588,-2.9003 1.06005,-6.67408 0.80564,-10.88036 2.66284,-1.06005 4.29108,-1.98441 5.24936,-2.78157 0.96677,-0.79716 1.26358,-1.46711 1.26358,-2.03529 0,-0.56819 -0.29681,-1.01765 -0.48338,-1.36535 -0.10176,-0.17809 -0.16961,-0.31377 -0.16961,-0.4325 0,-0.0594 0.008,-0.11872 0.0509,-0.16961 0.0339,-0.0509 0.0848,-0.0933 0.17808,-0.13568 l 0,0.008 c 1.02613,-0.16961 2.53564,-0.33074 3.79922,-1.13638 1.26358,-0.80563 2.26427,-2.25578 2.28971,-4.99495 0.0424,-4.47765 -1.69608,-8.97226 -3.99427,-14.17923 l -0.008,-0.017 -0.017,0 c -3.09534,-0.44946 -4.82535,-1.66216 -11.27045,-3.8077 0,-0.008 -0.008,-0.008 -0.008,-0.008 l -0.008,0 -0.008,0 z"
       style="fill:#000000;fill-rule:evenodd"
       sodipodi:nodetypes="csssccssssscssssssscscsccsccccssssssccsssssccscsssssccccccccccccccccscccsscccscscsccssssccssccssssscccssccsscsccscssscsssssssssscssscccccccccccsscsscsssssccssccccssc"
       id="path3552" />
    <path
       inkscape:connector-curvature="0"
       d="m 121.93666,-112.67117 -3.96034,4.07907 c -0.27986,0.19505 1.14485,9.71006 0.35617,12.2457 -0.61907,2.01833 -3.96034,6.84368 -3.96034,6.84368 5.15608,-1.82329 9.93054,-5.76667 13.80609,-9.36236 -0.88196,-9.64222 4.46917,-14.80678 11.52486,-18.7332 -4.74902,-4.95256 -7.21682,-10.25281 -7.80197,-15.84139 -3.36672,-0.64451 -6.38574,-0.94133 -8.16662,0 l -1.79785,20.7685 z"
       style="fill:#520f13;fill-rule:evenodd"
       sodipodi:nodetypes="ccscccccc"
       id="path3252" />
    <path
       inkscape:connector-curvature="0"
       d="m 117.97632,-116.51279 c 0.4325,0 0.72931,1.67912 2.1625,2.75613 4.29956,3.24799 8.9977,0.72083 9.83726,-2.63741 0.84804,-3.35824 -0.59363,-17.28305 -2.28123,-17.64771 -1.67912,-0.35618 -4.43525,1.20422 -4.43525,1.20422 -0.89892,6.16525 0.44099,13.93329 -5.28328,16.32477 z"
       style="fill:#333333;fill-rule:evenodd"
       sodipodi:nodetypes="cssscc"
       id="path3254" />
    <path
       inkscape:connector-curvature="0"
       d="m 155.7565,-107.03171 c -8.58217,13.03438 -19.19963,19.69149 -32.64954,22.81228 -29.274335,6.77584 -41.630285,4.12995 -63.382505,-2.1625 -16.85056,-4.87623 -31.45381,-4.61334 -48.26196,-7.44579 52.74809,30.75841 65.38389,19.92046 85.22802,16.5707 30.096935,7.25074 53.367155,3.29887 59.065985,-29.77469 z"
       style="fill:#ee355e;fill-rule:evenodd"
       sodipodi:nodetypes="cssccc"
       id="path3456" />
    <path
       inkscape:connector-curvature="0"
       d="m -58.561862,-93.05601 c 0,0 40.404866,-0.67843 43.79957,7.13202 3.395552,7.80197 2.016639,13.34815 -3.055488,13.91634 -6.781776,0.76323 -46.24871,-19.0809 -40.744082,-21.04836 z"
       style="fill:#cb0423;fill-rule:evenodd"
       sodipodi:nodetypes="cssc"
       id="path3550" />
    <path
       inkscape:connector-curvature="0"
       d="m 47.707725,-98.34778 c -3.51936,-2.23034 18.39399,-1.47559 19.04698,-0.21201 0,0 0.40706,3.06991 -1.50951,3.34128 -1.2551,0.17809 -3.0275,-1.61976 -3.0275,-1.61976 -3.35824,-1.79784 -12.27114,-0.0933 -14.50997,-1.50951 z"
       style="fill:#f2f2f2;fill-rule:evenodd"
       sodipodi:nodetypes="cssss"
       id="path3216" />
    <path
       inkscape:connector-curvature="0"
       d="m 77.151675,-90.45252 c -0.8226,2.19642 -1.30598,-10.79555 -0.78868,-11.25349 0,0 1.28902,-0.3901 1.47559,0.72931 0.12721,0.72931 -0.57666,1.86569 -0.57666,1.86569 -0.64452,2.0777 0.41553,7.2677 -0.11025,8.65849 z"
       style="fill:#f2f2f2;fill-rule:evenodd"
       sodipodi:nodetypes="cssss"
       id="path3234" />
    <path
       inkscape:connector-curvature="0"
       d="m 103.81405,-103.42754 c 0,0 1.56039,12.95806 3.12078,11.88104 1.5604,-1.07701 2.51868,-7.68324 1.67912,-9.48108 -0.83956,-1.80633 -3.72289,-6.00413 -4.7999,-2.39996 z"
       style="fill:#b3b3b3;fill-rule:evenodd"
       id="path3236" />
    <path
       inkscape:connector-curvature="0"
       d="m 111.86195,-103.4869 c 0.0848,1.75544 -0.29682,3.18015 -0.865,3.18015 -0.56819,0 -1.10246,-1.42471 -1.18726,-3.18015 -0.0933,-1.75544 0.28833,-3.18015 0.85652,-3.18015 0.56819,0 1.10245,1.42471 1.19574,3.18015 z"
       style="fill:#ffffff"
       id="path3242" />
    <path
       inkscape:connector-curvature="0"
       d="m -27.369255,-109.4995 c -4.721887,-0.85652 -16.642785,1.15333 -28.667992,4.95255 l 0.02374,0.0678 c 16.024564,-5.05431 28.554355,-4.37588 38.879242,-3.4176 0.392642,-1.74696 -5.51226,-0.75475 -10.234995,-1.60279 z"
       style="fill:#000000;fill-rule:evenodd"
       sodipodi:nodetypes="ccccz"
       id="path3263" />
    <path
       inkscape:connector-curvature="0"
       d="m 137.40491,-103.50386 c -6.72496,2.88334 -12.61035,7.02177 -22.48154,14.65413 l -0.62755,-0.54274 c 9.87119,-7.63236 15.85835,-11.80472 23.14301,-13.95874 l -0.0339,-0.15265 z"
       style="fill:#000000;fill-rule:evenodd"
       sodipodi:nodetypes="ccccc"
       id="path3269" />
    <path
       inkscape:connector-curvature="0"
       d="m 145.2408,-143.95452 c -3.32432,2.16844 -6.09741,4.68627 -9.59133,6.70376 -3.49393,2.01324 -7.7002,3.53972 -13.92482,3.70932 l 0.15265,0.62755 c 6.26702,-0.1696 10.40545,-1.91657 13.9333,-3.95271 l 9.4302,-7.08792 z"
       style="fill:#000000;fill-rule:evenodd"
       sodipodi:nodetypes="cscccc"
       id="path3275" />
    <path
       inkscape:connector-curvature="0"
       d="m 122.00451,-84.46536 -0.21201,0.13568 c 11.62662,11.40614 8.73481,17.63076 9.31996,24.73733 l 0.24593,-0.0424 c -1.45015,-6.92001 -1.43319,-12.7206 -9.35388,-24.83061 z"
       style="fill:#a50917;fill-rule:evenodd"
       sodipodi:nodetypes="ccccc"
       id="path3281" />
    <path
       inkscape:connector-curvature="0"
       d="m 102.73704,-83.56644 -0.12721,0.0678 c 4.03667,14.3658 1.6028,19.43708 0.7802,26.39101 l 0.1272,0.0339 c 0.36466,-7.03873 1.28902,-12.56795 -0.78019,-26.49277 z"
       style="fill:#a50917;fill-rule:evenodd"
       sodipodi:nodetypes="ccccc"
       id="path3287" />
    <path
       inkscape:connector-curvature="0"
       d="m 112.52342,-82.76928 -0.0933,0.0933 c 5.65643,13.28879 4.5031,18.74169 4.96952,25.72106 l 0.11024,0 c -0.85652,-6.97089 -1.01764,-12.56796 -4.98647,-25.81434 z"
       style="fill:#a50917;fill-rule:evenodd"
       sodipodi:nodetypes="ccccc"
       id="path3289" />
    <path
       inkscape:connector-curvature="0"
       d="m 135.47986,-88.84125 -0.13569,0.12721 c 9.41325,6.98785 8.09031,11.898 9.31148,17.03712 l 0.16113,-0.0678 c -1.78936,-4.90167 -2.43387,-9.15035 -9.33692,-17.09649 z"
       style="fill:#a50917;fill-rule:evenodd"
       sodipodi:nodetypes="ccccc"
       id="path3291" />
    <path
       inkscape:connector-curvature="0"
       d="m 151.77071,-105.81901 -0.12721,0.12721 c 9.41325,6.98785 8.09031,11.898 9.31148,17.03712 l 0.16113,-0.0594 c -1.79784,-4.91015 -2.44235,-9.15883 -9.3454,-17.10497 z"
       style="fill:#a50917;fill-rule:evenodd"
       sodipodi:nodetypes="ccccc"
       id="path3293" />
    <path
       inkscape:connector-curvature="0"
       d="m 4.7969048,-99.02621 0.13568,0.12721 c -9.421721,6.98785 -8.098778,11.898 -9.311476,17.03712 l -0.169608,-0.0678 c 1.797845,-4.90167 2.442356,-9.15883 9.345404,-17.09649 z"
       style="fill:#a50917;fill-rule:evenodd"
       sodipodi:nodetypes="ccccc"
       id="path3295" />
    <path
       inkscape:connector-curvature="0"
       d="m 23.114565,-97.66934 0.15265,0.16112 c -10.93972,8.85354 -9.39628,15.06967 -10.81251,21.58262 l -0.19505,-0.0763 c 2.08618,-6.21614 2.83245,-11.60119 10.85491,-21.66742 z"
       style="fill:#a50917;fill-rule:evenodd"
       sodipodi:nodetypes="ccccc"
       id="path3297" />
    <path
       inkscape:connector-curvature="0"
       d="m 120.47803,-135.81418 -0.21201,-0.14417 c 12.66972,-6.74107 8.93835,-20.91267 9.31996,-24.73648 l 0.24593,0.0466 c -1.32294,6.89033 0.0509,12.34916 -9.35388,24.83401 z"
       style="fill:#860f13;fill-rule:evenodd"
       sodipodi:nodetypes="ccccc"
       id="path3299" />
    <path
       inkscape:connector-curvature="0"
       d="m 61.573185,-132.59163 -0.21201,-0.14417 c 11.62662,-11.4002 8.72633,-17.62736 9.31995,-24.73393 l 0.24594,0.0475 c -1.45863,6.92085 -1.44167,12.71975 -9.35388,24.83061 z"
       style="fill:#860f13;fill-rule:evenodd"
       sodipodi:nodetypes="ccccc"
       id="path3301" />
    <path
       inkscape:connector-curvature="0"
       d="m 70.062065,-134.1181 -0.21201,-0.14417 c 11.62662,-11.40105 8.72633,-17.62906 9.31996,-24.73563 l 0.23745,0.0475 c -1.45015,6.9217 -1.43319,12.71975 -9.3454,24.83231 z"
       style="fill:#860f13;fill-rule:evenodd"
       sodipodi:nodetypes="ccccc"
       id="path3303" />
    <path
       inkscape:connector-curvature="0"
       d="m 15.024265,-123.93314 0.21201,-0.14417 C 3.6096448,-135.47497 6.5099448,-141.70467 5.9163148,-148.81125 l -0.24593,0.0475 c 1.45863,6.92086 1.44167,12.72061 9.3538802,24.83062 z"
       style="fill:#860f13;fill-rule:evenodd"
       sodipodi:nodetypes="ccccc"
       id="path3305" />
    <path
       inkscape:connector-curvature="0"
       d="m 88.964875,-119.92191 c 0,2.9851 1.15333,4.56245 -1.34839,4.56245 -2.49323,0 -6.95392,-2.99358 -6.95392,-5.98716 0,-2.9851 0.31377,-6.8352 2.80701,-6.8352 2.49324,0 5.4953,5.27481 5.4953,8.25991 z"
       style="fill:#ffffff"
       sodipodi:nodetypes="csssc"
       id="path3524" />
    <path
       inkscape:connector-curvature="0"
       d="m 51.371255,-118.00534 c 0.6954,2.90029 1.44167,4.34196 0.62755,4.53701 -0.81411,0.19505 -2.96814,-2.36603 -3.66353,-5.27481 -0.70387,-2.9003 -1.50103,-6.66559 -0.68691,-6.86912 0.81412,-0.19505 3.0275,4.69814 3.72289,7.60692 z"
       style="fill:#ffffff"
       sodipodi:nodetypes="csssc"
       id="path3527" />
    <path
       inkscape:connector-curvature="0"
       d="m 115.34739,-120.5325 c -1.05157,0.75475 -1.31446,1.56039 -1.95049,0.67843 -0.62755,-0.88196 -0.69539,-3.22255 0.36466,-3.97731 1.05157,-0.75475 2.49323,-1.61127 3.12926,-0.72931 0.62755,0.88196 -0.48338,3.27343 -1.54343,4.02819 z"
       style="fill:#ffffff"
       sodipodi:nodetypes="csssc"
       id="path3529" />
    <path
       inkscape:connector-curvature="0"
       d="m 139.08403,-117.45412 0,0.0848 c 5.57162,0.15264 8.51432,0.9074 11.04996,2.1625 -0.78867,-2.06922 -7.19138,-2.64589 -11.04996,-2.24731 z"
       style="fill:#000000;fill-rule:evenodd"
       sodipodi:nodetypes="cccc"
       id="path3537" />
  </g>
  <metadata
     id="metadata70">
    <rdf:RDF>
      <cc:Work>
        <dc:format>image/svg+xml</dc:format>
        <dc:type
           rdf:resource="http://purl.org/dc/dcmitype/StillImage" />
        <cc:license
           rdf:resource="http://creativecommons.org/publicdomain/zero/1.0/" />
        <dc:publisher>
          <cc:Agent
             rdf:about="http://openclipart.org/">
            <dc:title>Openclipart</dc:title>
          </cc:Agent>
        </dc:publisher>
        <dc:title>mouth</dc:title>
        <dc:date>2008-06-21T17:29:06</dc:date>
        <dc:description>Boca feita no Inkscape.</dc:description>
        <dc:source>https://openclipart.org/detail/17424/mouth-by-xeolhades</dc:source>
        <dc:creator>
          <cc:Agent>
            <dc:title>xeolhades</dc:title>
          </cc:Agent>
        </dc:creator>
        <dc:subject>
          <rdf:Bag>
            <rdf:li>how i did it</rdf:li>
            <rdf:li>lips</rdf:li>
            <rdf:li>mouth</rdf:li>
            <rdf:li>vetor</rdf:li>
          </rdf:Bag>
        </dc:subject>
      </cc:Work>
      <cc:License
         rdf:about="http://creativecommons.org/publicdomain/zero/1.0/">
        <cc:permits
           rdf:resource="http://creativecommons.org/ns#Reproduction" />
        <cc:permits
           rdf:resource="http://creativecommons.org/ns#Distribution" />
        <cc:permits
           rdf:resource="http://creativecommons.org/ns#DerivativeWorks" />
      </cc:License>
    </rdf:RDF>
  </metadata>
</svg>
