<?xml version="1.0" encoding="UTF-8"?>
<svg xmlns="http://www.w3.org/2000/svg" xmlns:xlink="http://www.w3.org/1999/xlink" width="1024pt" height="999pt" viewBox="0 0 1024 999" version="1.1">
<g id="surface1">
<path style="fill-rule:evenodd;fill:rgb(0%,0%,0%);fill-opacity:1;stroke-width:0.036;stroke-linecap:butt;stroke-linejoin:miter;stroke:rgb(0%,0%,0%);stroke-opacity:1;stroke-miterlimit:10;" d="M 75.744365 14.922369 C 66.600229 20.970177 57.92421 28.493965 49.716307 39.293843 C 41.435672 50.021778 30.023685 62.046225 26.71205 78.858326 C 23.364049 95.74237 24.300282 121.661767 29.663893 139.265235 C 34.956319 156.618838 43.883806 172.782684 58.392326 182.608631 C 73.007624 192.367277 97.235948 198.630139 116.099887 197.513097 C 134.710811 196.181001 155.878968 186.785935 169.740636 175.302217 C 183.456067 163.638256 192.88881 146.070373 198.179689 128.718316 C 203.40093 111.222375 204.409122 88.541935 200.915656 71.801003 C 197.172271 54.988902 185.976933 40.264679 176.507823 28.996789 C 166.897892 17.666239 156.197752 9.026182 143.998091 4.633824 C 131.612731 0.277825 115.196925 1.21385 103.643342 3.013959 C 92.163266 4.814067 84.711313 8.737639 75.746686 14.930105 Z M 75.744365 14.922369 " transform="matrix(5.048488,0,0,5.049609,0,0.772876)"/>
<path style="fill-rule:evenodd;fill:rgb(100%,50.196078%,0%);fill-opacity:1;stroke-width:0.036;stroke-linecap:butt;stroke-linejoin:miter;stroke:rgb(0%,0%,0%);stroke-opacity:1;stroke-miterlimit:10;" d="M 76.8957 16.866362 C 68.040171 22.733927 59.832269 29.969946 51.840241 40.375301 C 43.739889 50.635223 33.083852 62.515011 29.591935 78.534972 C 26.136383 94.59129 26.747642 118.890822 31.571952 136.026277 C 36.46822 153.054979 44.532206 169.902665 58.68016 179.911176 C 72.828115 189.703859 97.020072 195.968268 115.56136 194.814868 C 133.992775 193.518356 155.160931 183.475035 168.66126 172.314671 C 181.909347 160.902896 190.295986 144.521676 195.228619 127.639179 C 200.015789 110.646835 201.095939 88.074696 197.641161 71.731382 C 194.039371 55.350935 183.240965 41.311326 174.130874 30.438732 C 164.916327 19.49497 154.511758 11.142683 142.776345 6.931341 C 130.859875 2.826753 114.91296 3.546952 103.825173 5.34706 C 92.731196 7.000963 85.567077 10.88895 76.891057 16.864815 Z M 76.8957 16.866362 " transform="matrix(5.048488,0,0,5.049609,0,0.772876)"/>
<path style="fill-rule:evenodd;fill:rgb(0%,0%,0%);fill-opacity:1;stroke-width:0.036;stroke-linecap:butt;stroke-linejoin:miter;stroke:rgb(0%,0%,0%);stroke-opacity:1;stroke-miterlimit:10;" d="M 121.790019 7.86582 C 123.373878 5.958184 124.598719 5.057743 125.319077 5.166044 C 125.965155 5.309929 125.46222 7.68635 126.146985 8.405775 C 126.865796 9.017673 127.801255 9.017673 129.385114 8.694318 C 133.058863 8.333832 136.08189 8.37019 138.314923 8.94573 C 140.582774 9.485685 143.786084 11.501621 142.921809 11.93405 C 141.913618 12.221819 135.434264 10.926082 132.624791 11.106325 C 129.781273 11.250209 127.620972 11.753807 126.146212 12.761775 C 124.597171 11.64628 123.013312 12.221819 121.249944 14.633826 C 119.376704 17.010247 117.108853 23.634368 115.562133 27.126285 C 113.83281 30.546259 112.105034 36.017754 111.780834 35.226387 C 111.493774 34.254003 112.860984 25.722247 113.941134 21.978145 C 114.913734 18.269627 116.172619 15.282081 117.72166 13.01396 C 115.524994 12.221819 114.300153 11.501621 113.654074 10.854139 C 113.041267 10.205883 112.754207 9.3418 114.193376 8.94573 C 115.562907 8.405775 118.042765 8.046063 121.793114 7.86582 Z M 121.790019 7.86582 " transform="matrix(5.048488,0,0,5.049609,0,0.772876)"/>
<path style="fill-rule:evenodd;fill:rgb(0%,0%,0%);fill-opacity:1;stroke-width:0.036;stroke-linecap:butt;stroke-linejoin:miter;stroke:rgb(0%,0%,0%);stroke-opacity:1;stroke-miterlimit:10;" d="M 73.836306 182.360313 C 79.992233 185.889362 87.803978 187.833355 97.667698 188.589138 C 107.641291 189.310109 120.959015 189.70618 132.623243 186.429317 C 144.107189 182.866231 166.824386 168.718322 166.210805 167.99735 C 165.275345 167.421037 140.184294 179.805969 128.016357 182.360313 C 115.812827 184.736735 104.615942 184.089253 93.600113 182.073317 C 82.547918 179.84078 65.376162 169.760327 61.919837 169.617989 C 58.35596 169.546047 61.919837 173.253017 72.468323 181.279629 L 73.831664 182.360313 Z M 73.836306 182.360313 " transform="matrix(5.048488,0,0,5.049609,0,0.772876)"/>
<path style="fill-rule:evenodd;fill:rgb(0%,0%,0%);fill-opacity:1;stroke-width:0.036;stroke-linecap:butt;stroke-linejoin:miter;stroke:rgb(0%,0%,0%);stroke-opacity:1;stroke-miterlimit:10;" d="M 83.843943 3.546178 C 78.263684 0.485916 70.955648 -0.234282 61.632003 1.386357 C 52.235626 2.93428 37.475638 6.678382 28.043668 13.01396 C 18.467781 19.278369 9.647845 29.573876 5.040185 39.041658 C 0.431751 48.401913 -0.971826 58.374065 0.683992 69.102001 C 1.511901 68.057675 5.075777 66.977764 11.520311 65.86227 C 17.999665 64.674059 27.071842 63.594148 39.167821 62.333995 C 37.152211 66.94218 37.368087 72.989988 39.960138 80.478192 C 42.552188 87.965622 47.340132 96.642037 54.611801 107.045845 C 63.93622 97.900643 71.423765 89.009175 77.616058 79.686051 C 83.808351 70.397739 89.496162 63.485848 91.188345 51.749944 C 92.591921 39.942099 91.188345 25.866132 86.579911 9.234274 C 89.280286 7.253922 93.203955 6.030127 98.747848 5.166044 C 104.25615 4.266376 110.989292 4.121718 119.340337 4.338319 C 118.188229 3.402293 115.702955 2.645737 112.030754 1.926312 C 108.214637 1.097814 101.807242 -0.234282 97.127623 0.0179034 C 92.413186 0.301805 87.985035 1.381716 83.844717 3.54231 Z M 83.843943 3.546178 " transform="matrix(5.048488,0,0,5.049609,0,0.772876)"/>
<path style="fill-rule:evenodd;fill:rgb(25.098039%,50.196078%,0%);fill-opacity:1;stroke-width:0.036;stroke-linecap:butt;stroke-linejoin:miter;stroke:rgb(0%,0%,0%);stroke-opacity:1;stroke-miterlimit:10;" d="M 80.604267 4.626088 C 73.403782 13.266145 66.851697 21.83426 60.551853 30.618202 C 54.108092 39.402144 45.647948 47.970258 42.948346 56.898085 C 40.284337 65.682027 42.587781 75.689764 44.567798 83.177968 C 46.440264 90.594229 49.644349 96.42621 54.323967 101.069979 C 63.215862 92.07021 70.308022 83.358211 75.995833 74.790096 C 81.576092 66.113681 87.119986 61.326027 87.912303 49.590124 C 88.703845 37.782278 86.220119 22.986113 80.604267 4.626088 Z M 80.604267 4.626088 " transform="matrix(5.048488,0,0,5.049609,0,0.772876)"/>
<path style="fill-rule:evenodd;fill:rgb(0%,0%,0%);fill-opacity:1;stroke-width:0.036;stroke-linecap:butt;stroke-linejoin:miter;stroke:rgb(0%,0%,0%);stroke-opacity:1;stroke-miterlimit:10;" d="M 75.20429 26.58633 C 73.656023 28.818093 62.712153 52.577669 59.471703 62.87395 C 56.123702 72.95363 54.215643 89.046306 55.691951 86.994012 C 57.131893 84.653949 64.799721 60.065874 68.147722 49.877893 C 71.460131 39.617971 76.500316 24.499225 75.20429 26.58633 Z M 75.20429 26.58633 " transform="matrix(5.048488,0,0,5.049609,0,0.772876)"/>
<path style="fill-rule:evenodd;fill:rgb(25.098039%,50.196078%,0%);fill-opacity:1;stroke-width:0.036;stroke-linecap:butt;stroke-linejoin:miter;stroke:rgb(0%,0%,0%);stroke-opacity:1;stroke-miterlimit:10;" d="M 75.455758 3.798363 C 65.62763 3.690063 56.556226 5.274344 47.84384 8.405775 C 38.988312 11.537979 30.347885 16.290049 23.436007 22.5181 C 16.487764 28.709793 10.18792 38.322233 6.911877 45.521894 C 3.563876 52.650386 2.700375 59.057906 3.923668 65.033771 C 6.33621 63.594148 10.403795 62.333995 16.415806 61.254084 C 22.427816 60.174174 30.095643 59.273733 39.707896 58.554308 C 41.040288 52.361842 43.380097 46.349619 47.015932 40.373753 C 50.544216 34.362304 56.340351 28.818093 61.091928 22.770285 C 65.807913 16.577819 70.595856 10.386126 75.455758 3.798363 Z M 75.455758 3.798363 " transform="matrix(5.048488,0,0,5.049609,0,0.772876)"/>
<path style="fill-rule:evenodd;fill:rgb(0%,0%,0%);fill-opacity:1;stroke-width:0.036;stroke-linecap:butt;stroke-linejoin:miter;stroke:rgb(0%,0%,0%);stroke-opacity:1;stroke-miterlimit:10;" d="M 65.160287 9.774229 C 56.628184 13.41003 48.420282 18.593755 40.247971 25.470061 C 32.075661 32.273652 24.228324 40.625939 16.415806 50.670034 C 21.168156 47.322002 27.431634 42.317747 35.640311 35.514157 C 43.848214 28.63785 53.459693 20.106094 65.160287 9.774229 Z M 65.160287 9.774229 " transform="matrix(5.048488,0,0,5.049609,0,0.772876)"/>
</g>
</svg>
