<?xml version="1.0" encoding="UTF-8"?>
<svg xmlns="http://www.w3.org/2000/svg" xmlns:xlink="http://www.w3.org/1999/xlink" width="1023pt" height="835pt" viewBox="0 0 1023 835" version="1.1">
<g id="surface1">
<path style=" stroke:none;fill-rule:evenodd;fill:rgb(91.372549%,72.54902%,43.137255%);fill-opacity:1;" d="M 199.382812 576.929688 C 470.996094 546.570312 742.585938 516.214844 1014.199219 485.855469 C 1016.0625 459.699219 998.335938 436.347656 990.394531 411.601562 C 891.464844 255.617188 767.335938 113.667969 546.589844 19.316406 C 427.578125 11.851562 438.773438 49.214844 424.773438 144.015625 C 553.109375 217.332031 745.839844 238.816406 792.984375 418.621094 L 295.980469 537.703125 C 272.644531 525.09375 249.308594 525.09375 225.976562 533.5 L 199.375 576.933594 Z M 199.382812 576.929688 "/>
<path style=" stroke:none;fill-rule:evenodd;fill:rgb(56.078431%,34.901961%,0.784314%);fill-opacity:1;" d="M 212.996094 569.898438 L 1013.976562 470.464844 C 1029.320312 477.15625 1023.421875 487.417969 1010.441406 503.558594 L 202.90625 595.40625 L 182.136719 580.21875 Z M 212.996094 569.898438 "/>
<path style=" stroke:none;fill-rule:evenodd;fill:rgb(98.823529%,91.372549%,30.980392%);fill-opacity:1;" d="M 426.242188 149.199219 L 485.253906 163.375 C 645.761719 212.976562 782.675781 300.371094 793.285156 418.472656 C 782.269531 438.15625 760.421875 447.292969 760.238281 477.523438 C 759.644531 575.117188 707.980469 576.15625 707.128906 505.871094 C 706.40625 446.40625 696.898438 441.304688 670.542969 451.542969 C 628.449219 475.164062 556.847656 476.34375 498.230469 476.34375 C 490.753906 517.679688 447.875 509.414062 422.695312 525.945312 C 409.710938 676.332031 392.007812 670.820312 369.585938 527.128906 C 327.097656 544.449219 287.386719 530.269531 242.535156 531.058594 C 210.289062 531.058594 196.867188 574.785156 188.421875 589.425781 C 180.367188 603.386719 159.113281 590.707031 141.800781 576.730469 C 124.492188 642.078125 157.851562 661.3125 101.671875 642.867188 C 28.972656 619 123.605469 770.714844 106.6875 816.035156 C 80.703125 832.949219 12.351562 749.730469 40.285156 636.933594 C 4.484375 575.136719 12.351562 547.585938 57.988281 523.574219 C 66.25 470.429688 98.117188 451.53125 132.339844 438.539062 C 152.40625 422.007812 172.46875 405.46875 192.535156 388.9375 C 217.710938 328.703125 249.96875 309.808594 292.851562 296.816406 C 296.785156 226.742188 327.863281 214.539062 368.386719 203.515625 C 381.761719 175.957031 398.675781 156.667969 426.214844 149.1875 Z M 426.242188 149.199219 "/>
<path style=" stroke:none;fill-rule:evenodd;fill:rgb(76.862745%,62.745098%,0%);fill-opacity:1;" d="M 767.25 350.300781 C 774.046875 332.015625 780.847656 313.730469 787.644531 295.449219 L 757.050781 295.449219 C 764.277344 281.84375 771.5 268.234375 778.722656 254.628906 C 760.453125 257.605469 742.179688 260.582031 723.910156 263.558594 C 730.707031 245.699219 737.507812 227.84375 744.304688 209.984375 C 724.335938 221.464844 704.363281 232.945312 684.394531 244.425781 L 700.964844 187.023438 C 686.941406 197.226562 672.921875 207.433594 658.898438 217.636719 C 663.148438 201.480469 667.398438 185.320312 671.648438 169.164062 C 659.75 178.09375 647.851562 187.023438 635.953125 195.953125 C 635.53125 180.21875 635.105469 164.488281 634.679688 148.757812 L 601.535156 201.058594 C 598.136719 180.222656 594.738281 159.386719 591.339844 138.550781 C 582.414062 148.757812 573.492188 158.960938 564.570312 169.167969 C 562.445312 153.859375 560.320312 138.550781 558.195312 123.242188 C 553.945312 131.324219 549.695312 139.402344 545.449219 147.480469 C 538.648438 133.875 531.851562 120.265625 525.050781 106.660156 C 520.804688 117.71875 516.554688 128.773438 512.304688 139.828125 C 503.382812 130.472656 494.457031 121.121094 485.535156 111.765625 L 485.535156 148.757812 L 460.039062 174.269531 C 477.460938 175.546875 494.882812 176.824219 512.304688 178.097656 L 573.492188 213.8125 C 562.867188 221.042969 552.246094 228.269531 541.621094 235.5 C 617.257812 225.71875 643.175781 241.453125 665.273438 282.695312 C 723.484375 291.199219 746.003906 308.632812 767.25 350.300781 Z M 767.25 350.300781 "/>
<path style=" stroke:none;fill-rule:evenodd;fill:rgb(92.941176%,83.137255%,0%);fill-opacity:1;" d="M 266.898438 414.953125 C 250.054688 407.742188 231.492188 410.226562 213.789062 414.953125 C 225.199219 420.859375 242.101562 425.449219 248.042969 432.644531 C 252.332031 437.835938 259.238281 440.136719 264.835938 443.882812 L 313.082031 427.113281 C 319.320312 418.320312 320.210938 409.039062 327.078125 400.726562 C 341.820312 382.886719 362.484375 366.078125 377.832031 348.757812 C 342.03125 358.996094 316.929688 372.789062 302.328125 404.261719 C 297.886719 413.839844 288.871094 432.925781 288.871094 432.925781 C 281.546875 426.933594 275.59375 418.675781 266.898438 414.953125 Z M 266.898438 414.953125 "/>
<path style=" stroke:none;fill-rule:evenodd;fill:rgb(92.941176%,83.137255%,0%);fill-opacity:1;" d="M 533.609375 375.960938 C 509.933594 345.972656 474.972656 363.375 443.890625 367.707031 C 467.890625 373.21875 485.972656 363.953125 515.929688 384.21875 C 525.027344 390.371094 528 400.390625 528 400.390625 L 553.546875 401.226562 C 553.546875 401.226562 541.875 386.429688 533.609375 375.960938 Z M 533.609375 375.960938 "/>
<path style=" stroke:none;fill-rule:evenodd;fill:rgb(92.941176%,83.137255%,0%);fill-opacity:1;" d="M 415.5625 141.421875 C 384.9375 149.859375 372.160156 172.351562 354.277344 197.367188 C 293.347656 218.507812 285.449219 231.875 278.554688 287.519531 C 277.246094 298.078125 276.125 319.34375 276.125 319.34375 L 305.589844 312.800781 C 305.589844 312.800781 307.132812 298.273438 308.242188 291.054688 C 315.238281 245.578125 350.832031 222.660156 375.9375 215.351562 C 385.496094 189.203125 412.859375 164.375 438.988281 152.257812 C 439.539062 150.371094 440.035156 148.5 428.730469 140.089844 C 416.589844 136.164062 416.128906 138.789062 415.566406 141.421875 Z M 415.5625 141.421875 "/>
<path style=" stroke:none;fill-rule:evenodd;fill:rgb(92.941176%,83.137255%,0%);fill-opacity:1;" d="M 437.367188 262.648438 L 459.679688 255.355469 C 459.679688 255.355469 452.453125 242.777344 447.511719 235.683594 C 442.042969 227.832031 426.554688 213.75 404.199219 208.632812 C 409.078125 219.804688 419.609375 227.480469 425.464844 237.628906 C 430.507812 246.367188 437.367188 262.644531 437.367188 262.644531 Z M 437.367188 262.648438 "/>
<path style=" stroke:none;fill-rule:evenodd;fill:rgb(64.313725%,0%,0%);fill-opacity:1;" d="M 366.039062 433.824219 C 347.292969 418.511719 335.839844 408.246094 302.308594 409.027344 C 277.101562 409.617188 262.707031 417.953125 248.019531 432.65625 C 228.292969 452.394531 227.496094 463.796875 223.222656 479.761719 L 277.519531 488.183594 L 346.324219 461.464844 L 366.042969 433.824219 Z M 366.039062 433.824219 "/>
<path style=" stroke:none;fill-rule:evenodd;fill:rgb(80%,0%,0%);fill-opacity:1;" d="M 247.6875 469.746094 C 258.1875 471.613281 268.6875 475.582031 279.1875 485.859375 C 298.558594 469.28125 317.925781 461.109375 343.589844 455.035156 C 352.226562 408.800781 262.855469 424.214844 247.6875 469.746094 Z M 247.6875 469.746094 "/>
<path style=" stroke:none;fill-rule:evenodd;fill:rgb(64.313725%,0%,0%);fill-opacity:1;" d="M 620.964844 414.953125 C 576.511719 397.628906 546.738281 400.785156 518.234375 400.785156 C 518.234375 400.785156 531.644531 382.664062 538.351562 375.957031 C 607.210938 307.121094 685.492188 295.648438 711.851562 375.957031 C 697.011719 375.957031 652.832031 392.511719 620.964844 414.949219 Z M 620.964844 414.953125 "/>
<path style=" stroke:none;fill-rule:evenodd;fill:rgb(80%,0%,0%);fill-opacity:1;" d="M 552.183594 389.195312 C 575.519531 391.53125 596.054688 395.265625 617.984375 406.707031 C 641.554688 389.429688 655.320312 381.257812 686.589844 373.785156 C 657.886719 309.570312 583.683594 341.328125 552.183594 389.195312 Z M 552.183594 389.195312 "/>
<path style=" stroke:none;fill-rule:evenodd;fill:rgb(64.313725%,0%,0%);fill-opacity:1;" d="M 434.210938 238.210938 C 406.941406 241.832031 363.484375 273.859375 353.316406 309.203125 C 376.328125 315.535156 397.921875 320.523438 416.085938 330.570312 C 431.894531 319.359375 480.941406 303.765625 525.398438 315.605469 C 536.5625 300.835938 570.683594 289.097656 570.683594 289.097656 C 524.804688 228.6875 472.109375 233.175781 434.207031 238.207031 Z M 434.210938 238.210938 "/>
<path style=" stroke:none;fill-rule:evenodd;fill:rgb(80%,0%,0%);fill-opacity:1;" d="M 378.582031 306.519531 C 390.949219 308.621094 404.015625 312.125 413.582031 321.230469 C 448.816406 311.191406 474.25 294.144531 521.386719 307.921875 C 528.851562 300.683594 538.417969 295.546875 550.085938 294.613281 C 509.484375 229.464844 423.382812 250.480469 378.582031 306.519531 Z M 378.582031 306.519531 "/>
<path style=" stroke:none;fill-rule:evenodd;fill:rgb(92.941176%,83.137255%,0%);fill-opacity:1;" d="M 706.460938 538.125 C 709.964844 548.894531 718.203125 556.105469 731.0625 558.101562 C 754.28125 556.210938 763.601562 545.546875 765.902344 531.34375 C 767.527344 521.328125 767.671875 511.117188 767.964844 500.976562 C 768.316406 489.007812 769.554688 477.796875 772.535156 467.953125 C 777.246094 452.375 782.097656 440.566406 788.597656 429.460938 C 754.507812 440.070312 747.761719 459.414062 746.753906 501.859375 C 745.6875 546.53125 742.027344 544.246094 734.820312 544.90625 C 727.808594 545.554688 721.199219 545.613281 718.023438 507.242188 C 717.210938 497.386719 716.578125 477.511719 720.234375 460.726562 C 724.808594 439.726562 712.414062 427.152344 693.199219 426.453125 C 673.972656 434.871094 654.753906 443.242188 635.523438 451.664062 C 621.101562 452.867188 606.707031 454.074219 592.285156 455.277344 C 573.65625 445.453125 557.554688 453.539062 536.375 467.953125 C 521.351562 464.945312 506.316406 461.894531 491.292969 458.886719 C 486.488281 471.515625 481.664062 484.148438 476.855469 496.773438 C 458.230469 500.984375 439.648438 505.242188 421.019531 509.453125 C 419.019531 521.246094 416.984375 533.039062 414.980469 544.832031 C 412.980469 556.628906 406.671875 593.980469 404.742188 605.054688 C 397.253906 648.011719 392.386719 623.855469 385.8125 574.613281 C 384.230469 562.765625 382.765625 553.742188 381.390625 543.285156 C 380.066406 533.199219 379.195312 523.992188 377.707031 512.988281 L 356.125 491.394531 C 342.304688 502.214844 329.078125 513.816406 314.65625 523.824219 C 305.199219 530.386719 284.6875 533.40625 262.152344 531.535156 C 275.539062 563.058594 304.78125 556.304688 336.238281 543.726562 C 348.277344 538.914062 360.582031 538.507812 364.890625 551.097656 C 367.675781 559.230469 368.332031 568.015625 368.71875 576.601562 C 369.609375 596.277344 367.082031 616.09375 368.71875 635.71875 C 374.097656 700.09375 416.652344 659.785156 431.847656 614.046875 C 436.011719 601.503906 437.371094 549.828125 444.148438 541.21875 C 447.316406 537.199219 452.742188 535.671875 457.039062 532.890625 C 494.113281 536.84375 503.136719 525.488281 514.714844 495.003906 C 548.132812 508.796875 571.398438 502.199219 595.890625 475.175781 C 632.984375 487.550781 654.765625 487.117188 684.210938 462.496094 C 694.117188 462.734375 698.503906 461.675781 698.648438 482.324219 C 698.714844 491.402344 703.421875 528.804688 706.457031 538.125 Z M 706.460938 538.125 "/>
<path style=" stroke:none;fill-rule:evenodd;fill:rgb(92.941176%,83.137255%,0%);fill-opacity:1;" d="M 305.554688 312.792969 C 315.539062 305.890625 384.425781 324.621094 420.761719 344.710938 C 436.570312 333.5 490.328125 313.1875 534.789062 325.03125 C 546.988281 310.28125 555.367188 298.222656 594.234375 287.734375 C 570.171875 283.492188 560.707031 288.148438 550.109375 294.589844 C 538.441406 295.523438 528.847656 300.691406 521.382812 307.929688 C 474.246094 294.152344 448.777344 311.230469 413.542969 321.273438 C 403.976562 312.164062 390.980469 308.226562 378.550781 306.53125 C 370.714844 305.460938 362.816406 304.710938 354.90625 304.539062 C 332.5625 304.050781 305.554688 312.792969 305.554688 312.792969 Z M 305.554688 312.792969 "/>
<path style=" stroke:none;fill-rule:evenodd;fill:rgb(92.941176%,83.137255%,0%);fill-opacity:1;" d="M 278.542969 287.507812 C 228.53125 300.917969 208.730469 325.445312 177.628906 390.335938 C 148.730469 399.59375 140.207031 410.175781 125.328125 437.289062 C 74.597656 431.859375 62.097656 465.910156 49.605469 516.601562 C -13.765625 549.765625 -7.046875 604.679688 31.558594 642.941406 C 29.757812 674.210938 27.984375 705.4375 26.183594 736.703125 C 53.75 848.882812 162.921875 878.152344 112.734375 740.316406 C 105.523438 709.648438 71.144531 678.992188 91.078125 648.324219 C 125 669.683594 142.382812 683.410156 146.988281 601.445312 C 179.691406 612.203125 194.617188 606.828125 202.894531 595.398438 C 206.261719 586.898438 209.625 578.394531 212.988281 569.894531 C 217.640625 552.492188 222.234375 534.832031 242.523438 531.050781 C 216.464844 526.949219 201.808594 554.976562 182.121094 580.214844 C 165.382812 578.925781 151.785156 564.117188 139.765625 558.101562 C 115.3125 575.777344 117.640625 584.527344 119.953125 630.265625 C 104.328125 629.664062 89.929688 622.71875 73.03125 628.496094 C 66.585938 657.433594 57.59375 677.457031 76.640625 711.496094 C 118.761719 801.097656 102.246094 853.6875 42.390625 727.714844 C 37.992188 707.472656 44.796875 692.816406 46 675.378906 C 59.109375 635.105469 25.113281 602.464844 28.023438 585.15625 C 30.300781 563.289062 42.710938 543.988281 73.03125 531.050781 C 84.46875 478.332031 94.625 472.84375 137.925781 457.117188 C 153.714844 429.328125 168.265625 416.835938 208.273438 412.003906 C 220.328125 343.214844 247.636719 321.628906 305.578125 312.792969 C 315.558594 305.886719 384.445312 324.617188 420.785156 344.707031 C 398.832031 331.316406 375.894531 319.425781 354.929688 304.535156 C 336.589844 291.507812 305.925781 280.167969 278.542969 287.507812 Z M 278.542969 287.507812 "/>
<path style=" stroke:none;fill-rule:evenodd;fill:rgb(92.941176%,83.137255%,0%);fill-opacity:1;" d="M 475.789062 419.671875 C 540.308594 400.378906 571.804688 411.785156 616.261719 429.105469 C 648.128906 406.664062 694.121094 381.855469 747.226562 383.035156 C 726.601562 380.789062 705.652344 370.636719 686.605469 373.75 C 654.878906 378.933594 641.519531 389.417969 617.953125 406.699219 C 596.019531 395.257812 575.507812 391.488281 552.175781 389.15625 C 533.171875 387.253906 511.183594 388.410156 475.789062 419.671875 Z M 475.789062 419.671875 "/>
<path style=" stroke:none;fill-rule:evenodd;fill:rgb(92.941176%,83.137255%,0%);fill-opacity:1;" d="M 154.785156 492.863281 C 194.125 490.105469 233.449219 482.613281 272.789062 502.296875 C 301.113281 483.007812 322.386719 473.207031 357.789062 472.8125 C 378.246094 435.414062 379.839844 422.8125 451.042969 420.847656 C 417.996094 404.3125 390.59375 400.410156 366.039062 424.386719 C 356.976562 433.234375 343.574219 455.050781 343.574219 455.050781 C 317.90625 461.121094 298.5625 469.28125 279.195312 485.859375 C 265.550781 472.769531 249.890625 470.472656 233.675781 467.726562 C 204.960938 462.863281 172.847656 477.03125 154.785156 492.859375 Z M 154.785156 492.863281 "/>
<path style=" stroke:none;fill-rule:evenodd;fill:rgb(56.078431%,34.901961%,0.784314%);fill-opacity:1;" d="M 438.996094 152.253906 C 447.773438 122.113281 443.808594 94.507812 446.214844 65.644531 C 452.261719 46.496094 464.085938 32.398438 489.675781 31.367188 C 498.203125 31.027344 508.273438 32.117188 520.171875 34.980469 C 693.199219 68.960938 847.082031 231.769531 978.046875 404.785156 C 971.214844 451.484375 863.6875 294.121094 816.066406 365.054688 C 814.863281 371.671875 794.542969 392.273438 788.59375 429.464844 C 798.34375 420.835938 808.382812 412.566406 819.382812 403.015625 C 832.292969 389.933594 847.335938 387.414062 848.773438 366.675781 C 902.546875 375.8125 951.675781 418.9375 1009.203125 465.300781 C 1020.707031 450.25 1014.597656 471.546875 1016.9375 441.859375 C 867.09375 181.195312 674.046875 5.773438 510.648438 4.6875 C 487.304688 4.535156 464.503906 7.933594 442.585938 15.15625 C 407.472656 58.894531 424.566406 99.332031 415.550781 141.421875 Z M 438.996094 152.253906 "/>
</g>
</svg>
