<?xml version="1.0" encoding="UTF-8" standalone="no"?>
<!-- Created with Inkscape (http://www.inkscape.org/) -->
<svg xmlns:inkscape="http://www.inkscape.org/namespaces/inkscape" xmlns:rdf="http://www.w3.org/1999/02/22-rdf-syntax-ns#" xmlns="http://www.w3.org/2000/svg" xmlns:sodipodi="http://sodipodi.sourceforge.net/DTD/sodipodi-0.dtd" xmlns:cc="http://creativecommons.org/ns#" xmlns:xlink="http://www.w3.org/1999/xlink" xmlns:dc="http://purl.org/dc/elements/1.1/" xmlns:svg="http://www.w3.org/2000/svg" xmlns:ns1="http://sozi.baierouge.fr" id="svg13195" sodipodi:docname="showers.svg" viewBox="0 0 110 110" version="1.1" inkscape:version="0.48.1 r9760">
  <defs id="defs13197">
    <filter id="filter6242-4" width="1.1762" y="-.10543" x="-.088122" height="1.2109" color-interpolation-filters="sRGB" inkscape:collect="always">
      <feGaussianBlur id="feGaussianBlur6244-2" stdDeviation="1.8310201" inkscape:collect="always"/>
    </filter>
    <linearGradient id="linearGradient12205" y2="460.25" gradientUnits="userSpaceOnUse" x2="-652.09" gradientTransform="translate(89.602 -96.747)" y1="502.75" x1="-788.48" inkscape:collect="always">
      <stop id="stop4166" style="stop-color:#57646d" offset="0"/>
      <stop id="stop4168" style="stop-color:#57646d;stop-opacity:0" offset="1"/>
    </linearGradient>
    <filter id="filter4184-2" color-interpolation-filters="sRGB" inkscape:collect="always">
      <feGaussianBlur id="feGaussianBlur4186-7" stdDeviation="1.0373252" inkscape:collect="always"/>
    </filter>
    <filter id="filter6014-4" width="1.1302" y="-.18254" x="-.065125" height="1.3651" color-interpolation-filters="sRGB" inkscape:collect="always">
      <feGaussianBlur id="feGaussianBlur6016-0" stdDeviation="0.98679277" inkscape:collect="always"/>
    </filter>
    <filter id="filter6032-1" width="1.0582" y="-.13717" x="-.029090" height="1.2743" color-interpolation-filters="sRGB" inkscape:collect="always">
      <feGaussianBlur id="feGaussianBlur6034-3" stdDeviation="0.69736748" inkscape:collect="always"/>
    </filter>
    <filter id="filter6268-1" width="1.0811" y="-.32009" x="-.040562" height="1.6402" color-interpolation-filters="sRGB" inkscape:collect="always">
      <feGaussianBlur id="feGaussianBlur6270-2" stdDeviation="1.5493216" inkscape:collect="always"/>
    </filter>
    <filter id="filter4261-4" width="1.1188" y="-.14350" x="-.059379" height="1.287" color-interpolation-filters="sRGB" inkscape:collect="always">
      <feGaussianBlur id="feGaussianBlur4263-3" stdDeviation="1.6347286" inkscape:collect="always"/>
    </filter>
    <linearGradient id="linearGradient12207" y2="226.34" gradientUnits="userSpaceOnUse" x2="-1066.5" gradientTransform="translate(401.03 131.82)" y1="282.49" x1="-1055.3" inkscape:collect="always">
      <stop id="stop5874" style="stop-color:#ccc" offset="0"/>
      <stop id="stop5876" style="stop-color:gray" offset="1"/>
    </linearGradient>
    <filter id="filter4210-5" color-interpolation-filters="sRGB" inkscape:collect="always">
      <feGaussianBlur id="feGaussianBlur4212-1" stdDeviation="1.8857158" inkscape:collect="always"/>
    </filter>
    <filter id="filter4331-5" width="1.2413" y="-.35448" x="-.12063" height="1.709" color-interpolation-filters="sRGB" inkscape:collect="always">
      <feGaussianBlur id="feGaussianBlur4333-6" stdDeviation="1.918981" inkscape:collect="always"/>
    </filter>
    <filter id="filter5968-5" width="1.2678" y="-.42840" x="-.13388" height="1.8568" color-interpolation-filters="sRGB" inkscape:collect="always">
      <feGaussianBlur id="feGaussianBlur5970-2" stdDeviation="1.3523419" inkscape:collect="always"/>
    </filter>
    <filter id="filter6074-6" width="1.0657" y="-0.348" x="-.032830" height="1.696" color-interpolation-filters="sRGB" inkscape:collect="always">
      <feGaussianBlur id="feGaussianBlur6076-1" stdDeviation="0.36618025" inkscape:collect="always"/>
    </filter>
    <filter id="filter6192-5" width="1.5547" y="-.29952" x="-.27733" height="1.599" color-interpolation-filters="sRGB" inkscape:collect="always">
      <feGaussianBlur id="feGaussianBlur6194-2" stdDeviation="0.7879194" inkscape:collect="always"/>
    </filter>
    <filter id="filter6354-1" width="1.2229" y="-0.468" x="-.11143" height="1.936" color-interpolation-filters="sRGB" inkscape:collect="always">
      <feGaussianBlur id="feGaussianBlur6356-5" stdDeviation="0.98489887" inkscape:collect="always"/>
    </filter>
  </defs>
  <sodipodi:namedview id="base" bordercolor="#666666" inkscape:pageshadow="2" inkscape:window-y="32" fit-margin-left="0" pagecolor="#ffffff" fit-margin-top="0" inkscape:window-maximized="1" inkscape:zoom="0.35" inkscape:window-x="0" inkscape:window-height="930" showgrid="false" borderopacity="1.0" inkscape:current-layer="layer1" inkscape:cx="-205" inkscape:cy="-82.142854" fit-margin-right="0" fit-margin-bottom="0" inkscape:window-width="1280" inkscape:pageopacity="0.0" inkscape:document-units="px"/>
  <g id="layer1" inkscape:label="Ebene 1" inkscape:groupmode="layer" transform="translate(-179.29 -340.22)">
    <g id="heavy rain" transform="translate(-224.43 -79.812)">
      <rect id="rect6737" style="opacity:0;color:black;stroke-width:6.8" height="110" width="110" y="420.03" x="403.72"/>
      <g id="g6555" transform="matrix(.66345 0 0 .66345 147.8 140.24)">
        <g id="g6697" transform="matrix(.20043 -.14267 .14267 .20043 215.07 317.54)">
          <path id="path6625" d="m313.14 1118.5s-2.488 80.522-2.7413 106.98c-0.0199 2.0798 0.43335 5.7464 2.5129 5.7111 2.05-0.035 2.2585-3.6609 2.2844-5.7111 0.32891-26.058-2.056-106.98-2.056-106.98z" sodipodi:nodetypes="csasc" style="fill:#6f8a91" inkscape:connector-curvature="0"/>
          <path id="path6629" sodipodi:nodetypes="csasc" style="fill:#6f8a91" inkscape:connector-curvature="0" d="m361.52 1236.4s-2.3346 75.559-2.5724 100.39c-0.0187 1.9516 0.40664 5.3922 2.358 5.359 1.9237-0.033 2.1193-3.4352 2.1436-5.359 0.30864-24.452-1.9293-100.39-1.9293-100.39z"/>
          <path id="path6631" sodipodi:nodetypes="csasc" style="fill:#6f8a91" inkscape:connector-curvature="0" d="m400.6 1170.5s-2.1152 68.458-2.3306 90.954c-0.0169 1.7681 0.36843 4.8854 2.1364 4.8554 1.7429-0.03 1.9202-3.1124 1.9422-4.8554 0.27963-22.154-1.7479-90.954-1.7479-90.954z"/>
          <path id="path6633" sodipodi:nodetypes="csasc" style="fill:#6f8a91" inkscape:connector-curvature="0" d="m373.6 1205.3s-1.1347 36.724-1.2502 48.792c-0.009 0.9485 0.19764 2.6208 1.1461 2.6047 0.93497-0.016 1.0301-1.6697 1.0419-2.6047 0.15001-11.884-0.93768-48.792-0.93768-48.792z"/>
          <path id="path6635" sodipodi:nodetypes="csasc" style="fill:#6f8a91" inkscape:connector-curvature="0" d="m384.18 1134.4s-3.6436 117.92-4.0146 156.67c-0.0292 3.0459 0.63463 8.4156 3.6801 8.3639 3.0022-0.051 3.3076-5.3614 3.3455-8.3639 0.48168-38.161-3.011-156.67-3.011-156.67z"/>
          <path id="path6637" sodipodi:nodetypes="csasc" style="fill:#6f8a91" inkscape:connector-curvature="0" d="m418.41 1210.7s-1.6858 54.561-1.8575 72.49c-0.0135 1.4093 0.29364 3.8937 1.7027 3.8698 1.3891-0.024 1.5304-2.4806 1.5479-3.8698 0.22286-17.657-1.3931-72.49-1.3931-72.49z"/>
          <path id="path6639" sodipodi:nodetypes="csasc" style="fill:#6f8a91" inkscape:connector-curvature="0" d="m431 1160.4s-2.8486 92.193-3.1386 122.49c-0.0228 2.3813 0.49615 6.5793 2.8771 6.5389 2.3472-0.04 2.5859-4.1915 2.6155-6.5389 0.37658-29.835-2.354-122.49-2.354-122.49z"/>
          <path id="path6641" sodipodi:nodetypes="csasc" style="fill:#6f8a91" inkscape:connector-curvature="0" d="m401.63 1147.5s-3.3296 107.76-3.6686 143.17c-0.0266 2.7833 0.57993 7.6901 3.3628 7.6428 2.7435-0.047 3.0225-4.8992 3.0571-7.6428 0.44016-34.872-2.7514-143.17-2.7514-143.17z"/>
          <path id="path6643" sodipodi:nodetypes="csasc" style="fill:#6f8a91" inkscape:connector-curvature="0" d="m374.05 1208.9s-3.3526 108.5-3.6939 144.16c-0.0268 2.8025 0.58394 7.7433 3.3861 7.6957 2.7624-0.047 3.0434-4.9331 3.0783-7.6957 0.4432-35.113-2.7704-144.16-2.7704-144.16z"/>
          <path id="path6645" sodipodi:nodetypes="csasc" style="fill:#6f8a91" inkscape:connector-curvature="0" d="m490.15 1142s-3.8108 123.33-4.1988 163.86c-0.0305 3.1856 0.66375 8.8016 3.8489 8.7475 3.14-0.054 3.4593-5.6073 3.499-8.7475 0.50379-39.912-3.1491-163.86-3.1491-163.86z"/>
          <path id="path6647" sodipodi:nodetypes="csasc" style="fill:#6f8a91" inkscape:connector-curvature="0" d="m413.42 1161.7s-2.1622 69.978-2.3824 92.973c-0.0173 1.8075 0.37661 4.9939 2.1838 4.9632 1.7816-0.03 1.9628-3.1815 1.9853-4.9632 0.28584-22.646-1.7868-92.973-1.7868-92.973z"/>
          <path id="path6649" sodipodi:nodetypes="csasc" style="fill:#6f8a91" inkscape:connector-curvature="0" d="m460.47 1109.7s-2.8423 91.989-3.1317 122.22c-0.0227 2.376 0.49506 6.5647 2.8707 6.5244 2.342-0.04 2.5802-4.1823 2.6098-6.5244 0.37575-29.769-2.3488-122.22-2.3488-122.22z"/>
          <path id="path6651" sodipodi:nodetypes="csasc" style="fill:#6f8a91" inkscape:connector-curvature="0" d="m463.62 1224.5s-3.331 107.8-3.6701 143.23c-0.0266 2.7845 0.58018 7.6934 3.3643 7.6461 2.7446-0.047 3.0238-4.9012 3.0584-7.6461 0.44035-34.887-2.7526-143.23-2.7526-143.23z"/>
          <path id="path6653" sodipodi:nodetypes="csasc" style="fill:#6f8a91" inkscape:connector-curvature="0" d="m440.91 1235.7s-2.1351 69.1-2.3525 91.807c-0.0171 1.7848 0.37188 4.9313 2.1564 4.901 1.7592-0.03 1.9382-3.1416 1.9604-4.901 0.28225-22.362-1.7644-91.807-1.7644-91.807z"/>
          <path id="path6655" sodipodi:nodetypes="csasc" style="fill:#6f8a91" inkscape:connector-curvature="0" d="m471.99 1148.3s-1.7762 57.487-1.9571 76.377c-0.0142 1.4849 0.30938 4.1025 1.794 4.0773 1.4636-0.025 1.6124-2.6136 1.6309-4.0773 0.23482-18.603-1.4678-76.377-1.4678-76.377z"/>
          <path id="path6657" sodipodi:nodetypes="csasc" style="fill:#6f8a91" inkscape:connector-curvature="0" d="m365.13 1294.4s-1.0735 34.742-1.1828 46.159c-0.009 0.8974 0.18697 2.4794 1.0842 2.4641 0.88451-0.015 0.97447-1.5795 0.98564-2.4641 0.14191-11.243-0.88708-46.159-0.88708-46.159z"/>
          <path id="path6659" sodipodi:nodetypes="csasc" style="fill:#6f8a91" inkscape:connector-curvature="0" d="m417.68 1203.8s-3.9113 126.59-4.3095 168.18c-0.0313 3.2696 0.68125 9.0337 3.9504 8.9782 3.2228-0.055 3.5506-5.7551 3.5913-8.9782 0.51707-40.965-3.2321-168.18-3.2321-168.18z"/>
          <path id="path6661" sodipodi:nodetypes="csasc" style="fill:#6f8a91" inkscape:connector-curvature="0" d="m428.19 1267.7s-1.7106 55.362-1.8847 73.554c-0.0137 1.4299 0.29794 3.9508 1.7277 3.9266 1.4095-0.024 1.5528-2.517 1.5706-3.9266 0.22614-17.916-1.4136-73.554-1.4136-73.554z"/>
          <path id="path6663" sodipodi:nodetypes="csasc" style="fill:#6f8a91" inkscape:connector-curvature="0" d="m391.85 1162s-2.2024 71.28-2.4267 94.703c-0.0176 1.8411 0.38361 5.0869 2.2244 5.0556 1.8147-0.031 1.9993-3.2407 2.0222-5.0556 0.29116-23.067-1.82-94.703-1.82-94.703z"/>
          <path id="path6665" sodipodi:nodetypes="csasc" style="fill:#6f8a91" inkscape:connector-curvature="0" d="m420.85 1189.3s-2.6496 85.754-2.9194 113.93c-0.0212 2.2149 0.4615 6.1197 2.6761 6.0821 2.1832-0.037 2.4053-3.8987 2.4328-6.0821 0.35028-27.751-2.1896-113.93-2.1896-113.93z"/>
          <path id="path6667" sodipodi:nodetypes="csasc" style="fill:#6f8a91" inkscape:connector-curvature="0" d="m342.63 1313.4s-1.5471 50.071-1.7046 66.524c-0.0124 1.2932 0.26947 3.5732 1.5626 3.5513 1.2748-0.022 1.4044-2.2765 1.4205-3.5513 0.20452-16.204-1.2785-66.524-1.2785-66.524z"/>
          <path id="path6671" sodipodi:nodetypes="csasc" style="fill:#6f8a91" inkscape:connector-curvature="0" d="m386.04 1346.7s-1.8268 59.122-2.0128 78.551c-0.0146 1.5271 0.31818 4.2192 1.845 4.1933 1.5052-0.026 1.6583-2.688 1.6773-4.1933 0.2415-19.133-1.5096-78.551-1.5096-78.551z"/>
          <path id="path6673" sodipodi:nodetypes="csasc" style="fill:#6f8a91" inkscape:connector-curvature="0" d="m360.48 1326.7s-1.0236 33.13-1.1279 44.016c-0.008 0.8557 0.1783 2.3642 1.0339 2.3497 0.84346-0.014 0.92925-1.5062 0.9399-2.3497 0.13532-10.721-0.84591-44.016-0.84591-44.016z"/>
          <path id="path6675" sodipodi:nodetypes="csasc" style="fill:#6f8a91" inkscape:connector-curvature="0" d="m368.93 1304.6s-2.6838 86.861-2.9571 115.4c-0.0215 2.2435 0.46746 6.1987 2.7107 6.1606 2.2114-0.038 2.4363-3.949 2.4642-6.1606 0.3548-28.109-2.2178-115.4-2.2178-115.4z"/>
          <path id="path6677" sodipodi:nodetypes="csasc" style="fill:#6f8a91" inkscape:connector-curvature="0" d="m336.87 1325s-1.548 50.099-1.7056 66.562c-0.0124 1.294 0.26962 3.5752 1.5634 3.5533 1.2755-0.022 1.4052-2.2777 1.4213-3.5533 0.20463-16.213-1.2792-66.562-1.2792-66.562z"/>
          <path id="path6679" sodipodi:nodetypes="csasc" style="fill:#6f8a91" inkscape:connector-curvature="0" d="m319.89 1287.6s-1.8559 60.064-2.0448 79.801c-0.0148 1.5513 0.32325 4.2864 1.8744 4.26 1.5292-0.026 1.6847-2.7307 1.704-4.26 0.24534-19.437-1.5336-79.801-1.5336-79.801z"/>
          <path id="path6681" sodipodi:nodetypes="csasc" style="fill:#6f8a91" inkscape:connector-curvature="0" d="m342.45 1373.9s-1.5122 48.942-1.6662 65.024c-0.0121 1.2641 0.2634 3.4927 1.5273 3.4712 1.246-0.021 1.3728-2.2251 1.3885-3.4712 0.19991-15.838-1.2496-65.024-1.2496-65.024z"/>
          <path id="path6683" sodipodi:nodetypes="csasc" style="fill:#6f8a91" inkscape:connector-curvature="0" d="m354.01 1222.6s-3.0082 97.358-3.3145 129.35c-0.0241 2.5147 0.52396 6.9479 3.0383 6.9053 2.4787-0.042 2.7308-4.4264 2.7621-6.9053 0.39768-31.506-2.4859-129.35-2.4859-129.35z"/>
          <path id="path6685" sodipodi:nodetypes="csasc" style="fill:#6f8a91" inkscape:connector-curvature="0" d="m335.06 1211.5s-2.2072 71.435-2.432 94.91c-0.0177 1.845 0.38444 5.0979 2.2293 5.0666 1.8187-0.031 2.0037-3.2478 2.0266-5.0666 0.29179-23.117-1.824-94.91-1.824-94.91z"/>
          <path id="path6689" sodipodi:nodetypes="csasc" style="fill:#6f8a91" inkscape:connector-curvature="0" d="m306.33 1187.8s-2.4192 78.296-2.6655 104.02c-0.0194 2.0223 0.42137 5.5875 2.4434 5.5532 1.9934-0.034 2.1961-3.5597 2.2213-5.5532 0.31982-25.338-1.9991-104.02-1.9991-104.02z"/>
          <path id="path6691" sodipodi:nodetypes="csasc" style="fill:#6f8a91" inkscape:connector-curvature="0" d="m358.16 1117.9s-2.0646 66.818-2.2748 88.776c-0.0165 1.7258 0.3596 4.7684 2.0852 4.7391 1.7012-0.029 1.8742-3.0378 1.8956-4.7391 0.27294-21.623-1.7061-88.776-1.7061-88.776z"/>
          <path id="path6693" sodipodi:nodetypes="csasc" style="fill:#6f8a91" inkscape:connector-curvature="0" d="m426.01 1232.5s-2.1632 70.009-2.3834 93.015c-0.0173 1.8083 0.37677 4.9962 2.1848 4.9655 1.7824-0.03 1.9637-3.1829 1.9862-4.9655 0.28596-22.656-1.7876-93.015-1.7876-93.015z"/>
          <path id="path6695" sodipodi:nodetypes="csasc" style="fill:#6f8a91" inkscape:connector-curvature="0" d="m478.71 1247s-2.9082 94.122-3.2043 125.05c-0.0233 2.4311 0.50654 6.7169 2.9373 6.6757 2.3963-0.041 2.64-4.2792 2.6702-6.6757 0.38446-30.459-2.4032-125.05-2.4032-125.05z"/>
        </g>
        <g id="g6587" transform="translate(1108.2 92.084)">
          <path id="path6589" sodipodi:nodetypes="aaaacaasscaaasaaaaaaa" style="opacity:.85;filter:url(#filter6242-4);fill:#76797e" inkscape:connector-curvature="0" d="m-639.68 410.16c2.6764 3.5854 8.7026 3.4097 13.132 2.7779 2.6472-0.37756 4.6511-2.6507 7.0711-3.7881 2.2212-1.0439 4.4171-2.2718 6.8185-2.7779 5.7682-1.2157 17.678-0.50508 17.678-0.50508s-15.248 3.6421-15.405-1.5152c-0.0646-2.1303 4.208-0.67975 6.3135-1.0102 2.1876-0.34329 6.0609 3.0305 6.566-1.0102 0.50508-4.0406-0.75762-3.5355 0.75761-4.0406 1.5152-0.50508 3.7881-1.7678 3.7881-1.7678s-3.9471-3.1639-6.0609-4.5457c-1.8615-1.2169-5.1589-1.156-5.8084-3.283-0.60466-1.9803 1.2137-4.1992 2.7779-5.5558 1.2066-1.0465 5.0508-0.50508 4.5457-1.5152-0.50508-1.0102-2.0183-3.3698-3.5355-4.5457-2.1754-1.686-4.9766-2.3788-7.5761-3.283-2.4686-0.85868-4.9847-1.6807-7.5761-2.0203-2.0032-0.2625-4.0415-0.0593-6.0609 0-2.8658 0.0842-5.9709-0.66942-8.5863 0.50508-2.715 1.2192-5.0657 3.6114-6.3134 6.3134-4.4256 9.5835-8.84 23.108-2.5254 31.567z"/>
          <path id="path6591" sodipodi:nodetypes="aaaaaaaasacaaaaaaaaaaaaaaaaaaaaaaaaaaaaaaaaaaaaaaaaaaaaaaa" style="opacity:.85;filter:url(#filter4184-2);fill:url(#linearGradient12205)" inkscape:connector-curvature="0" d="m-656.47 379.9c2.21-2.6523 5.5109-4.3211 7.5-7.1429 0.6755-0.95833 0.7396-2.2656 1.4286-3.2143 0.9411-1.2959 2.0155-3.5944 3.5714-3.2143 1.9762 0.48278 0.6022 4.3859 2.1429 5.7143 1.2909 1.1131 3.3026 1.2278 5 1.0714 1.541-0.14195 3.4997-0.45251 4.2857-1.7857 0.5474-0.92867-0.7925-2.2281-0.3572-3.2143 0.3269-0.74068-2.8201-1.5349 1.9643-1.4286 1.7176 0.0382 4.6119 1.4198 6.9643 1.25 2.0652-0.14911 7.7666-1.6924 5.8929-1.9643 1.5471 2.9435-4.4853 4.9264-6.9643 7.1429-1.0119 0.90472-3.5474 1.1842-3.2143 2.5 0.3554 1.404 2.8431 0.84293 4.2857 0.71429 1.7628-0.15719 3.4185-0.9913 5-1.7857 1.5342-0.7707 2.5967-2.5487 4.2857-2.8571 1.5625-0.28529 3.0801 0.78759 4.6429 1.0714 1.7725 0.32195 3.8163 1.6478 5.3571 0.71428 1.1917-0.72206 1.9161-2.6232 1.4286-3.9286-0.4289-1.1482-2.351-0.91568-3.2143-1.7857-1.0507-1.0588-3.0023-2.7094-2.1429-3.9286 1.3194-1.8717 4.4964 1.0188 6.7858 1.0714 1.0777 0.0248 2.153-0.54643 3.2142-0.35715 0.26207 0.0467 0.63986 0.10156 0.71429 0.35715 0.38815 1.333-2.0169 2.1888-2.1428 3.5714-0.1845 2.0259 2.7673 3.7782 2.1428 5.7143-0.52705 1.634-2.6995 2.2001-4.2857 2.8571-1.6825 0.6969-3.606 0.57152-5.3571 1.0714-2.9342 0.83766-5.7744 1.9946-8.5715 3.2143-0.976 0.42562-2.9792 0.3708-2.8571 1.4286 0.2948 2.5529 4.9341 1.9293 7.5 1.7857 3.1582-0.17675 5.7656-3.1766 8.9286-3.2143 1.5057-0.0179 2.9285 0.77625 4.2857 1.4286 2.1726 1.0442 3.6935 3.5334 6.0714 3.9286 2.421 0.4023 4.707-1.4858 7.1429-1.7857 1.7723-0.21818 3.8975-1.0287 5.3571 0 1.4466 1.0195 2.6962 3.4824 1.7857 5-1.6716 2.7864-6.3936 1.4003-9.6429 1.4286-2.7612 0.024-7.3499-3.6939-8.2143-1.0714-0.76739 2.3281 4.1094 2.7774 6.4286 3.5714 2.9628 1.0144 6.1652 1.693 9.2857 1.4286 1.5005-0.12717 2.8471-0.98352 4.2857-1.4286 0.82796-0.25614 1.8934-1.3333 2.5-0.71429 1.1333 1.1565-0.3258 3.4572-1.4286 4.6429-1.5659 1.6835-4.1688 2.0761-6.4286 2.5-1.8721 0.35121-3.8214 0.21239-5.7143 0-2.6691-0.29949-5.1881-1.4862-7.8572-1.7857-1.7746-0.19912-3.5793-0.16781-5.3571 0-2.5337 0.23915-5.0374 0.78666-7.5 1.4286-2.1858 0.56973-4.199 1.781-6.4286 2.1428-1.6452 0.26697-4.1047 1.4058-5 0-1.0586-1.6621 3.4532-3.6324 2.5-5.3571-1.3928-2.5201-5.7334-1.5576-8.5714-1.0714-2.6238 0.44943-5.0801 1.8888-7.1429 3.5714-1.6425 1.3398-1.9288 4.2976-3.9286 5-3.4601 1.2154-7.095-1.9082-10.714-2.5-7.4352-1.2158-19.236 4.6471-22.5-2.1429-3.3908-7.0528 7.8477-13.631 12.857-19.643z"/>
          <path id="path6593" style="opacity:.9;filter:url(#filter6014-4);fill:#999" inkscape:connector-curvature="0" d="m-650.54 388.69 7.5761 1.5152 6.0609 2.0203 6.0609 0.50508 5.0508-0.50508s0.50507-1.0102 2.5254-1.5152c2.0203-0.50508 1.0102-0.50508 3.0305-1.0102 2.0203-0.50507 4.5457-1.5152 4.5457-1.5152l1.5152-1.0102s0-1.0102-2.5254-1.5152c-2.5254-0.50507-3.5355-5.0508-3.5355-5.0508s-3.0305-1.5152-5.5558-0.50508c-2.5254 1.0102-5.0508 3.0305-8.0812 3.5355-3.0305 0.50507-9.0914-1.0102-9.0914-1.0102l-4.5457 3.0305z"/>
          <path id="path6595" style="opacity:.8;filter:url(#filter6032-1);fill:#666" inkscape:connector-curvature="0" d="m-685.14 400.81 5.3033-2.0203 4.2931 1.7678s1.0102-1.5152 2.2728-1.7678c1.2627-0.25254 3.7881 1.2627 4.7982 1.2627 1.0102 0-5.5558 0 3.0305 0.50507 8.5863 0.50508 8.3338 1.5152 8.0812 0.25254-0.25254-1.2627-3.283-4.0406 0.75761-3.283 4.0406 0.75762 4.0406 0.75762 4.0406 0.75762l6.0609-1.5152 6.8185 3.283 3.0305 0.25253s4.5457 0.75762 5.8084 1.5152c1.2627 0.75762 5.8084 0.50508 1.2627 0.75762s-3.7881-1.7678-6.3135 0.75761-5.3033 3.7881-6.566 3.7881-4.0406-0.75761-6.3134-0.75761-4.0406-0.50508-5.0508 0.25254c-1.0102 0.75761-1.7678 2.7779-3.7881 2.2728-2.0203-0.50508-7.5761-2.0203-7.5761-2.0203h-2.5254l-4.5457-1.0102s-0.25254-1.2627-1.5152-1.7678c-1.2627-0.50508-4.5457-0.75762-4.5457-0.75762l-3.0305-0.25254z"/>
          <path id="path6597" style="opacity:.8;filter:url(#filter6268-1);fill:#ccc" inkscape:connector-curvature="0" d="m-640.69 388.19 14.395 1.5152s5.3033-2.7779 6.0609-2.5254c0.75762 0.25254 5.0508 1.5152 5.0508 1.5152s5.5558-0.25254 6.8185-0.50507c1.2627-0.25254 10.102-1.2627 10.102-1.2627s6.566 3.5355 7.5762 3.5355 13.385 1.2627 13.385 1.2627l16.162 2.5254-15.405 2.0203-16.415-0.50508-8.5863-0.25254-18.183 3.0305-12.122-1.7678-20.961 1.7678z"/>
          <path id="path6599" sodipodi:nodetypes="cccccccccccccccccccccc" style="opacity:.8;filter:url(#filter4261-4);fill:#999" inkscape:connector-curvature="0" d="m-662.15 399.8c2.2641 3.1413 7.8197 0.75941 11.617 0 2.1462-0.42923 3.8748-2.42 6.0609-2.5254 2.2873-0.11021 4.2874 1.793 6.566 2.0203 1.6836 0.16793 3.4073-0.10274 5.0508-0.50507 2.6419-0.64676 4.9053-2.5161 7.5761-3.0305 2.4798-0.47757 5.0508 0 7.5762 0 1.852 0 3.7305 0.31267 5.5558 0 2.9916-0.51243 5.5947-2.518 8.5863-3.0305 1.9913-0.3411 4.8443 1.6129 6.0609 0 0.73809-0.97851 5.3789-0.90991 4.347-1.5712-1.8644-1.1948-9.8186-0.26518-11.923-0.95414-1.3577-0.44446-10.389 0.50555-5.709-3.3876-1.0863-6.283-7.7879 6.0157-13.484 5.913-2.3446-0.0423-6.5876-0.18051-6.566-2.5254 0.0181-1.9705 4.3463-0.46457 5.5558-2.0203 1.0385-1.3358 1.5873-3.7501 0.50508-5.0508-1.2967-1.5584-4.0728-0.10813-6.0609-0.50507-4.8557-0.9695-9.9161-1.9652-14.142-4.5457-1.6256-0.99267-2.1361-4.0734-4.0406-4.0406-3.4539 0.0595-5.3059 4.6068-7.0711 7.5762-3.2646 5.4917-9.7965 13-6.0609 18.183z"/>
          <path id="path6601" sodipodi:nodetypes="cssssssccsccccsscccssscscscsccssssccsscscssccccccccccccc" style="opacity:.95;filter:url(#filter4210-5);fill:url(#linearGradient12207)" inkscape:connector-curvature="0" d="m-642.91 363.82c-3.9645 0.006-4.9561 7.5384-8.9063 7.875-1.8107 0.15428-2.847-2.7054-4.6562-2.875-6.9781-0.65407-12.715 6.5289-19.656 7.5-2.722 0.3808-5.492-1.255-8.1876-0.71875-3.29 0.65457-11.877 0.68339-11.08 3.942 0.5654 2.3128 8.5616-1.5595 9.2679 0.71429 0.6857 2.2075-4.3947 2.0214-5.6876 3.9375-0.614 0.90981 0.1471 2.513-0.7187 3.1875-3.2885 2.5616-6.2101 1.1992-10.357 1.6205-4.1369 0.42035-14.185-3.2771-14.299 0.87946-0.0579 2.1087 4.1306 0.96537 6.0626 1.8125 1.2714 0.55752 2.612 1.1433 3.5937 2.125 0.4908 0.49084 0.4481 1.4582 1.0625 1.7812 3.3786 1.776 7.6303-0.99139 11.438-0.71875 2.911 0.20846 5.7939 0.88927 8.5625 1.8125 3.9912 1.3309 7.4409 4.0288 11.438 5.3438 1.7298 0.56916 4.303-0.43181 5.3437 1.0625 1.3089 1.879-2.7901 5.2782-1.0624 6.7812 2.1593 1.8786 5.3877-2.0788 8.2187-2.5 2.7082-0.403 5.5049-0.36344 8.2187 0 2.6906 0.36033 5.3193 1.158 7.8438 2.1562 2.1295 0.84209 3.9461 2.3445 6.0625 3.2188 4.1419 1.7109 8.4478 4.6321 12.875 3.9375 3.2951-0.517 29.652-8.1416 8.2187-5.7188-0.6221-3.7922-2.6617 0.81505-11.094-3.2188-2.0432-0.97748-5.5057 1.4967-6.7813-0.375-1.06-1.5554 0.49-3.9742 1.7813-5.3438 1.3194-1.3993 4.8254-0.31317 5.375-2.1562 0.4152-1.3926-1.5166-2.4927-2.5-3.5625-1.2586-1.369-2.4279-3.4111-4.2813-3.5625-2.3402-0.19117-4.0509 2.4049-6.0937 3.5625-1.2978 0.73539-2.4354 1.9082-3.9063 2.1562-2.1422 0.36132-4.9901 0.52636-6.4374-1.0938-1.509-1.6892 0.0876-4.564-0.375-6.7812-0.2078-0.9957-1.5492-1.9506-1.0626-2.8438 1.341-2.4604 5.5001-1.103 8.2188-1.7812 4.6805-1.1677 9.319-2.5444 13.938-3.9375 3.3521-1.0111 3.9406-1.9856 10-3.2188 0.9225-1.5701 11.124-2.7093 9.6206-3.7366-1.6968-1.1593-14.759-0.93495-16.777-0.54464-2.2693 0.43901-4.5049 1.0357-6.7812 1.4375-2.4869 0.43893-5.677 2.8101-7.5 1.0625-1.7273-1.6559-0.2487-4.9677 0.7188-7.1562 1.99-1.8685 14.251 1.7996 0.3437-6.0625zm-43.562 28.406 3.9375 0.53125 4.8125 1.7812 2.8438 0.90625 2.3437 1.0625-0.9063 0.875-2.3124-0.53125-3.4063-0.875-2.6563-1.625-3.5937-1.5938z"/>
          <path id="path6603" sodipodi:nodetypes="zzzzzzzzzzzzz" style="opacity:.9;filter:url(#filter4331-5);fill:#999" inkscape:connector-curvature="0" d="m-668.72 407.88c2.8188 0.73042 4.7967 0.0874 7.0711 0s4.4615-0.33645 6.566-0.50508 3.9415-0.0957 6.0609-0.50507c2.1194-0.40941 5.0286-0.83855 6.566-2.0203s3.4926-2.0257 2.5254-4.0406c-0.96723-2.0149-6.3902-0.30158-8.5863-1.0102-2.1961-0.70857-2.695-1.7368-4.5457-2.5254-1.8506-0.78855-4.5653-2.2297-6.566-2.0203-2.0007 0.20943-3.0119 1.4376-4.5457 2.5254-1.5338 1.0877-2.2267 3.0088-4.5457 4.0406s-8.4498-2.184-9.0914 1.0102c-0.64156 3.1941 6.2726 4.3203 9.0914 5.0508z"/>
          <path id="path6605" style="opacity:.9;filter:url(#filter5968-5);fill:#a6a7a7" inkscape:connector-curvature="0" d="m-615.18 382.63 6.0609 2.5254 4.0406-2.5254 4.0406 1.0102 5.5558 2.5254 4.5457 1.5152s-1.5152 1.0102-3.5355 0.50507c-2.0203-0.50507-6.566-1.0102-6.566-1.0102l-6.566 3.0305-4.0406-1.0102-3.5355-2.0203z"/>
          <path id="path6607" style="opacity:.5;filter:url(#filter6074-6);fill:#b3b3b3" inkscape:connector-curvature="0" d="m-642.71 398.04 7.0711-0.50508 5.0508 1.0102 7.5761-0.25253 7.0711-1.0102-6.0609-0.75761s-3.7881 0.25254-5.3033 0.50508c-1.5152 0.25253-5.5558-1.0102-6.8185-1.0102h-3.7881c-1.7678 0-4.7982 2.0203-4.7982 2.0203z"/>
          <path id="path6609" style="opacity:.67278;filter:url(#filter6192-5);fill:#9c9ea0" inkscape:connector-curvature="0" d="m-639.43 371.52 2.5254-1.5152 0.75761-2.2728 2.5254 0.75762 1.0102 0.50507v3.0305h-2.0203l-2.7779 2.0203z"/>
          <path id="path6611" d="m-616.19 395.51 7.0711-0.50508 5.0508 1.0102 7.5761-0.25253 7.0711-1.0102-6.0609-0.75761s-3.7881 0.25254-5.3033 0.50508c-1.5152 0.25253-5.5558-1.0102-6.8185-1.0102h-3.7881c-1.7678 0-4.7982 2.0203-4.7982 2.0203z" style="opacity:.5;filter:url(#filter6074-6);fill:#959798" inkscape:connector-curvature="0"/>
          <path id="path6613" style="opacity:.5;filter:url(#filter6074-6);fill:#959798" inkscape:connector-curvature="0" d="m-623.77 375.05 7.0711-0.50508 5.0508 1.0102 7.5761-0.25253 7.0711-1.0102-6.0609-0.75761s-3.7881 0.25254-5.3033 0.50508c-1.5152 0.25253-5.5558-1.0102-6.8185-1.0102h-3.7881c-1.7678 0-4.7982 2.0203-4.7982 2.0203z"/>
          <path id="path6615" d="m-645.49 407.38 7.0711-0.50508 5.0508 1.0102 7.5761-0.25253 7.0711-1.0102-6.0609-0.75761s-3.7881 0.25254-5.3033 0.50508c-1.5152 0.25253-5.5558-1.0102-6.8185-1.0102h-3.7881c-1.7678 0-4.7982 2.0203-4.7982 2.0203z" style="opacity:.5;filter:url(#filter6074-6);fill:#b3b3b3" inkscape:connector-curvature="0"/>
          <path id="path6617" style="opacity:.5;filter:url(#filter6074-6);fill:#959798" inkscape:connector-curvature="0" d="m-704.58 397.53 7.0711-0.50508 5.0508 1.0102 7.5761-0.25253 7.0711-1.0102-6.0609-0.75761s-3.7881 0.25254-5.3033 0.50508c-1.5152 0.25253-5.5558-1.0102-6.8185-1.0102h-3.7881c-1.7678 0-4.7982 2.0203-4.7982 2.0203z"/>
          <path id="path6619" style="opacity:.6;filter:url(#filter6354-1);fill:gray" inkscape:connector-curvature="0" d="m-676.04 385.66 4.0406-2.5254 2.7779 0.25254 4.5457-1.5152h5.5558l4.2932-0.50508-2.2728 3.283-4.0406-0.75761-4.7982 1.0102-4.2931 1.5152z"/>
        </g>
      </g>
    </g>
  </g>
  <metadata>
    <rdf:RDF>
      <cc:Work>
        <dc:format>image/svg+xml</dc:format>
        <dc:type rdf:resource="http://purl.org/dc/dcmitype/StillImage"/>
        <cc:license rdf:resource="http://creativecommons.org/licenses/publicdomain/"/>
        <dc:publisher>
          <cc:Agent rdf:about="http://openclipart.org/">
            <dc:title>Openclipart</dc:title>
          </cc:Agent>
        </dc:publisher>
        <dc:title>weather icon - heavy rain</dc:title>
        <dc:date>2012-06-14T11:18:24</dc:date>
        <dc:description/>
        <dc:source>https://openclipart.org/detail/170671/weather-icon---heavy-rain-by-gnokii-170671</dc:source>
        <dc:creator>
          <cc:Agent>
            <dc:title>gnokii</dc:title>
          </cc:Agent>
        </dc:creator>
        <dc:subject>
          <rdf:Bag>
            <rdf:li>heavy rain</rdf:li>
            <rdf:li>icon</rdf:li>
            <rdf:li>rain</rdf:li>
            <rdf:li>weather</rdf:li>
          </rdf:Bag>
        </dc:subject>
      </cc:Work>
      <cc:License rdf:about="http://creativecommons.org/licenses/publicdomain/">
        <cc:permits rdf:resource="http://creativecommons.org/ns#Reproduction"/>
        <cc:permits rdf:resource="http://creativecommons.org/ns#Distribution"/>
        <cc:permits rdf:resource="http://creativecommons.org/ns#DerivativeWorks"/>
      </cc:License>
    </rdf:RDF>
  </metadata>
</svg>