<?xml version="1.0" encoding="UTF-8"?>
<svg xmlns="http://www.w3.org/2000/svg" xmlns:xlink="http://www.w3.org/1999/xlink" width="1024pt" height="995pt" viewBox="0 0 1024 995" version="1.1">
<defs>
<linearGradient id="linear0" gradientUnits="userSpaceOnUse" x1="-84.852997" y1="457.69" x2="-67.959999" y2="469.16" gradientTransform="matrix(11.483765,0,0,11.506334,1172.100714,-4718.539365)">
<stop offset="0" style="stop-color:rgb(81.176471%,57.647059%,38.039216%);stop-opacity:1;"/>
<stop offset="1" style="stop-color:rgb(66.666667%,41.176471%,20.392157%);stop-opacity:1;"/>
</linearGradient>
</defs>
<g id="surface2">
<path style=" stroke:none;fill-rule:nonzero;fill:rgb(76.078431%,86.27451%,43.137255%);fill-opacity:1;" d="M 587.683594 504.625 C 587.394531 505.429688 587.070312 506.214844 586.695312 506.980469 "/>
<path style=" stroke:none;fill-rule:nonzero;fill:rgb(52.941176%,31.764706%,15.686275%);fill-opacity:1;" d="M 571.503906 991.832031 C 554.386719 990.347656 539.953125 988.699219 539.4375 988.171875 C 538.910156 987.65625 540.460938 983.421875 542.882812 978.773438 C 547.117188 970.636719 547.15625 969.964844 543.976562 961.609375 C 536.992188 943.296875 522.53125 932.199219 386.628906 840.945312 C 315.613281 793.261719 253.402344 750.945312 248.382812 746.921875 C 180.949219 692.921875 114.148438 631.257812 96.878906 607.082031 C 84.484375 589.738281 83 584.636719 85.84375 569.199219 C 88.707031 553.667969 93.890625 496.371094 92.710938 493.269531 C 92.242188 492.03125 94.089844 486.089844 96.820312 480.054688 C 108.945312 453.230469 148.59375 416.664062 243.304688 344.984375 C 313.859375 291.59375 321.839844 284.722656 340.84375 261.042969 C 361.734375 235.027344 418.910156 149.988281 418.910156 144.9375 C 418.910156 142.984375 421.246094 136.679688 424.109375 130.917969 C 429.894531 119.285156 442.355469 109.550781 456.34375 105.746094 C 477.308594 100.035156 516.074219 109.1875 554.925781 129.03125 C 622.585938 163.578125 694.820312 225.527344 711.4375 263.257812 C 716.207031 274.101562 717.566406 275.207031 811.285156 344.199219 C 863.535156 382.664062 908.304688 414.96875 910.777344 415.984375 C 917.386719 418.695312 949.960938 418.320312 963.976562 415.371094 C 970.679688 413.953125 982.789062 410.90625 990.902344 408.585938 C 999.003906 406.265625 1006.035156 404.78125 1006.535156 405.269531 C 1007.023438 405.757812 1002.539062 434.96875 996.570312 470.175781 C 990.59375 505.371094 983.238281 550.648438 980.210938 570.792969 L 974.714844 607.398438 L 958.335938 631.8125 C 897.960938 721.726562 822.625 819.210938 765.691406 881.085938 C 703.105469 949.09375 644.261719 992.917969 613.910156 994.113281 C 607.703125 994.363281 588.621094 993.339844 571.503906 991.851562 Z M 662.128906 870.019531 C 731.074219 829.445312 834.453125 712.183594 946.886719 546.988281 L 968.621094 515.070312 L 972.835938 490.039062 C 975.164062 476.269531 977.683594 461.902344 978.441406 458.109375 L 979.820312 451.210938 L 972.195312 452.648438 C 967.011719 453.625 965.011719 453.386719 965.921875 451.910156 C 966.65625 450.710938 965.738281 449.753906 963.851562 449.753906 C 961.34375 449.753906 960.699219 448.449219 961.398438 444.78125 L 962.347656 439.804688 L 938.792969 440.859375 C 897.269531 442.699219 904.214844 446.398438 785.632812 359.234375 C 705.308594 300.1875 683.007812 282.84375 682.136719 278.710938 C 681.515625 275.820312 677.308594 268.757812 672.777344 263.007812 C 664.292969 252.265625 662.644531 249.007812 667.078125 251.746094 C 673.21875 255.542969 654.558594 234.785156 639.386719 220.949219 C 579.492188 166.316406 498.09375 122.523438 464.761719 127 C 455.382812 128.265625 447.320312 135.855469 447.320312 143.40625 C 447.320312 154.433594 378.199219 256.597656 349.320312 288.265625 C 337.453125 301.28125 320.046875 315.414062 260.777344 360.175781 C 189.492188 414.019531 147.566406 450.386719 131.484375 472.339844 C 122.480469 484.625 123.132812 490.039062 135.71875 507.726562 C 152.144531 530.804688 217.625 591.414062 277.796875 639.230469 C 285.613281 645.441406 348.027344 688.3125 416.496094 734.5 C 548.171875 823.3125 561.3125 833.5 572.042969 855.070312 C 574.894531 860.808594 577.234375 867.632812 577.234375 870.25 C 577.234375 872.863281 578.371094 875.433594 579.769531 875.960938 C 585.433594 878.117188 613.765625 880.609375 628.996094 880.292969 C 644.511719 879.976562 645.988281 879.515625 662.109375 870.027344 Z M 662.128906 870.019531 "/>
<path style="fill-rule:nonzero;fill:rgb(76.078431%,86.27451%,43.137255%);fill-opacity:1;stroke-width:9.373641;stroke-linecap:butt;stroke-linejoin:round;stroke:rgb(56.078431%,68.235294%,14.901961%);stroke-opacity:1;stroke-miterlimit:4;" d="M 129.491701 109.746553 C 129.491701 109.746553 125.249495 57.27269 108.113405 64.215278 C 90.972536 71.153088 96.567214 86.000036 96.567214 86.000036 C 96.567214 86.000036 82.578927 78.828151 78.148745 82.046264 C 73.715377 85.265968 69.516182 104.077834 69.516182 104.077834 L 52.784719 100.870868 L 52.983846 125.741575 C 52.983846 125.741575 18.098354 124.891267 42.780568 139.856047 C 67.46119 154.820827 86.171181 155.800114 86.171181 155.800114 Z M 129.491701 109.746553 " transform="matrix(2.452107,0,0,2.453156,-0.0470743,-19.201957)"/>
<path style="fill-rule:nonzero;fill:rgb(76.078431%,86.27451%,43.137255%);fill-opacity:1;stroke-width:9.373641;stroke-linecap:butt;stroke-linejoin:round;stroke:rgb(56.078431%,68.235294%,14.901961%);stroke-opacity:1;stroke-miterlimit:4;" d="M 53.390065 183.761546 C 53.390065 183.761546 1.06581 178.742501 4.879494 196.855331 C 8.694771 214.972938 24.269704 212.062146 24.269704 212.062146 C 24.269704 212.062146 14.768947 224.597021 17.156881 229.531672 C 19.543221 234.464731 37.300588 241.90572 37.300588 241.90572 L 31.210482 257.835457 L 55.695162 262.004194 C 55.695162 262.004194 48.74164 296.250579 67.7782 274.539068 C 86.816353 252.827558 91.063338 234.550717 91.063338 234.550717 L 53.386879 183.758362 Z M 53.390065 183.761546 " transform="matrix(2.452107,0,0,2.453156,-0.0470743,-19.201957)"/>
<path style="fill-rule:nonzero;fill:rgb(76.078431%,86.27451%,43.137255%);fill-opacity:1;stroke-width:9.373641;stroke-linecap:butt;stroke-linejoin:miter;stroke:rgb(56.078431%,68.235294%,14.901961%);stroke-opacity:1;stroke-miterlimit:4;" d="M 206.999971 316.218481 C 206.999971 316.218481 160.714846 341.167212 173.941671 354.104948 C 187.163717 367.042683 198.496444 355.953651 198.496444 355.953651 C 198.496444 355.953651 197.55497 371.663644 202.276674 374.43431 C 206.999971 377.206568 225.891567 373.512347 225.891567 373.512347 L 229.668612 390.144304 L 252.335659 379.980419 C 252.335659 379.980419 265.559298 412.320777 269.336342 383.676232 C 273.116573 355.026911 266.503957 337.472991 266.503957 337.472991 Z M 206.999971 316.218481 " transform="matrix(2.452107,0,0,2.453156,-0.0470743,-19.201957)"/>
<path style=" stroke:none;fill-rule:nonzero;fill:rgb(100%,98.039216%,87.058824%);fill-opacity:1;" d="M 638.5625 220.21875 L 94.082031 553.800781 C 94.082031 553.800781 459.847656 810.089844 451.535156 838.570312 C 443.21875 867.046875 966.90625 700.253906 971.0625 675.847656 C 975.222656 651.4375 734.15625 175.46875 638.5625 220.21875 Z M 638.5625 220.21875 "/>
<path style=" stroke:none;fill-rule:nonzero;fill:rgb(63.921569%,14.901961%,14.901961%);fill-opacity:1;" d="M 467.40625 609.351562 C 467.40625 663.273438 389.242188 706.980469 292.816406 706.980469 C 196.398438 706.980469 118.230469 663.273438 118.230469 609.351562 C 118.230469 555.429688 196.398438 511.714844 292.816406 511.714844 C 389.234375 511.714844 467.40625 555.429688 467.40625 609.351562 Z M 467.40625 609.351562 "/>
<path style=" stroke:none;fill-rule:nonzero;fill:rgb(89.019608%,29.019608%,29.803922%);fill-opacity:1;" d="M 451.179688 592.667969 C 451.179688 640.074219 378.46875 678.5 288.765625 678.5 C 199.070312 678.5 126.359375 640.074219 126.359375 592.667969 C 126.359375 545.261719 199.070312 506.835938 288.765625 506.835938 C 378.457031 506.835938 451.179688 545.261719 451.179688 592.667969 Z M 451.179688 592.667969 "/>
<path style=" stroke:none;fill-rule:nonzero;fill:rgb(92.156863%,50.980392%,47.843137%);fill-opacity:0.32549;" d="M 361.859375 638.425781 C 361.859375 653.328125 336.410156 665.410156 305.019531 665.410156 C 273.632812 665.410156 248.179688 653.328125 248.179688 638.425781 C 248.179688 623.515625 273.632812 611.429688 305.019531 611.429688 C 336.410156 611.429688 361.859375 623.515625 361.859375 638.425781 Z M 361.859375 638.425781 "/>
<path style=" stroke:none;fill-rule:nonzero;fill:rgb(90.196078%,36.078431%,36.078431%);fill-opacity:1;" d="M 432.949219 581.464844 C 432.949219 596.378906 407.5 608.460938 376.101562 608.460938 C 344.714844 608.460938 319.261719 596.378906 319.261719 581.464844 C 319.261719 566.566406 344.714844 554.480469 376.101562 554.480469 C 407.5 554.480469 432.949219 566.566406 432.949219 581.464844 Z M 432.949219 581.464844 "/>
<path style=" stroke:none;fill-rule:nonzero;fill:rgb(90.196078%,36.078431%,36.078431%);fill-opacity:1;" d="M 262.414062 595.734375 C 262.414062 610.644531 236.964844 622.730469 205.566406 622.730469 C 174.175781 622.730469 148.726562 610.644531 148.726562 595.734375 C 148.726562 580.835938 174.175781 568.75 205.566406 568.75 C 236.964844 568.75 262.414062 580.835938 262.414062 595.734375 Z M 262.414062 595.734375 "/>
<path style=" stroke:none;fill-rule:nonzero;fill:rgb(90.196078%,36.078431%,36.078431%);fill-opacity:1;" d="M 323.363281 543.683594 C 323.363281 555.929688 302.453125 565.855469 276.667969 565.855469 C 250.882812 565.855469 229.972656 555.929688 229.972656 543.683594 C 229.972656 531.4375 250.882812 521.507812 276.667969 521.507812 C 302.453125 521.507812 323.363281 531.4375 323.363281 543.683594 Z M 323.363281 543.683594 "/>
<path style=" stroke:none;fill-rule:nonzero;fill:rgb(63.921569%,14.901961%,14.901961%);fill-opacity:1;" d="M 1024.367188 592.09375 C 1024.367188 646.015625 946.207031 689.722656 849.78125 689.722656 C 753.363281 689.722656 675.191406 646.015625 675.191406 592.09375 C 675.191406 538.171875 753.351562 494.457031 849.78125 494.457031 C 946.199219 494.457031 1024.367188 538.171875 1024.367188 592.09375 Z M 1024.367188 592.09375 "/>
<path style=" stroke:none;fill-rule:nonzero;fill:rgb(89.019608%,29.019608%,29.803922%);fill-opacity:1;" d="M 1008.140625 575.410156 C 1008.140625 622.816406 935.421875 661.242188 845.730469 661.242188 C 756.035156 661.242188 683.324219 622.816406 683.324219 575.410156 C 683.324219 528.003906 756.035156 489.578125 845.730469 489.578125 C 935.421875 489.578125 1008.140625 528.003906 1008.140625 575.410156 Z M 1008.140625 575.410156 "/>
<path style=" stroke:none;fill-rule:nonzero;fill:rgb(92.156863%,50.980392%,47.843137%);fill-opacity:0.32549;" d="M 918.824219 621.167969 C 918.824219 636.070312 893.371094 648.152344 861.984375 648.152344 C 830.59375 648.152344 805.144531 636.070312 805.144531 621.167969 C 805.144531 606.257812 830.585938 594.171875 861.984375 594.171875 C 893.371094 594.171875 918.824219 606.257812 918.824219 621.167969 Z M 918.824219 621.167969 "/>
<path style=" stroke:none;fill-rule:nonzero;fill:rgb(90.196078%,36.078431%,36.078431%);fill-opacity:1;" d="M 989.90625 564.207031 C 989.90625 579.117188 964.464844 591.203125 933.066406 591.203125 C 901.675781 591.203125 876.226562 579.117188 876.226562 564.207031 C 876.226562 549.308594 901.675781 537.222656 933.066406 537.222656 C 964.453125 537.222656 989.90625 549.308594 989.90625 564.207031 Z M 989.90625 564.207031 "/>
<path style=" stroke:none;fill-rule:nonzero;fill:rgb(90.196078%,36.078431%,36.078431%);fill-opacity:1;" d="M 819.378906 578.476562 C 819.378906 593.386719 793.929688 605.472656 762.53125 605.472656 C 731.140625 605.472656 705.691406 593.386719 705.691406 578.476562 C 705.691406 563.566406 731.140625 551.484375 762.53125 551.484375 C 793.929688 551.484375 819.378906 563.566406 819.378906 578.476562 Z M 819.378906 578.476562 "/>
<path style=" stroke:none;fill-rule:nonzero;fill:rgb(90.196078%,36.078431%,36.078431%);fill-opacity:1;" d="M 880.316406 526.425781 C 880.316406 538.671875 859.417969 548.589844 833.632812 548.589844 C 807.84375 548.589844 786.9375 538.671875 786.9375 526.425781 C 786.9375 514.175781 807.835938 504.25 833.632812 504.25 C 859.417969 504.25 880.316406 514.175781 880.316406 526.425781 Z M 880.316406 526.425781 "/>
<path style="fill-rule:nonzero;fill:rgb(81.176471%,56.862745%,38.039216%);fill-opacity:1;stroke-width:4.776807;stroke-linecap:butt;stroke-linejoin:miter;stroke:rgb(81.176471%,56.862745%,38.039216%);stroke-opacity:1;stroke-miterlimit:4;" d="M 45.80093 155.898839 C 37.335634 164.323892 41.297469 182.901685 36.461068 202.15622 C 36.461068 217.800928 107.058828 272.090055 107.058828 272.090055 L 200.63268 334.906144 C 200.63268 334.906144 231.401815 348.140055 222.86324 361.378742 L 251.813149 369.440742 C 302.601735 356.203648 395.621218 213.089203 395.621218 213.089203 L 405.813344 146.289087 C 405.813344 146.289087 382.235091 181.444697 366.512008 176.632655 C 219.844472 38.186942 194.418319 53.957445 45.80093 155.902024 Z M 45.80093 155.898839 " transform="matrix(2.452107,0,0,2.453156,-0.0470743,-19.201957)"/>
<path style="fill-rule:nonzero;fill:rgb(100%,96.078431%,86.27451%);fill-opacity:1;stroke-width:14.060462;stroke-linecap:butt;stroke-linejoin:miter;stroke:rgb(81.176471%,56.862745%,38.039216%);stroke-opacity:1;stroke-miterlimit:4;" d="M 180.539949 29.304888 C 180.539949 29.304888 146.715407 84.179995 133.706826 91.285001 C 125.42632 99.577891 53.136776 147.714229 48.407106 166.664627 C 48.407106 182.062523 117.456453 235.49975 117.456453 235.49975 L 208.968941 297.323814 C 208.968941 297.323814 241.359768 316.124533 230.715224 329.153032 L 259.027926 331.320202 C 308.702993 318.288519 399.680227 177.422454 399.680227 177.422454 L 405.055068 147.077294 C 407.207235 138.214348 405.902553 140.149037 397.977291 141.894238 C 390.811898 143.249316 380.253377 144.320959 371.211409 141.535962 L 289.253841 81.230987 C 290.437453 59.909599 185.554769 -16.659503 180.539949 29.300111 Z M 180.539949 29.304888 " transform="matrix(2.452107,0,0,2.453156,-0.0470743,-19.201957)"/>
<path style=" stroke:none;fill-rule:nonzero;fill:rgb(81.176471%,56.862745%,38.039216%);fill-opacity:1;" d="M 502.136719 120.234375 C 498.945312 120.378906 496.226562 122.964844 495.316406 126.339844 C 497.742188 143.636719 511.984375 149.386719 525.824219 155.105469 C 528.105469 153.984375 529.847656 152.757812 531.207031 151.511719 C 517.597656 145.886719 503.792969 140.082031 501.417969 123.109375 C 501.726562 121.980469 502.195312 121.089844 502.855469 120.226562 C 502.625 120.214844 502.355469 120.214844 502.136719 120.226562 Z M 502.136719 120.234375 "/>
<path style=" stroke:none;fill-rule:nonzero;fill:rgb(81.176471%,56.862745%,38.039216%);fill-opacity:1;" d="M 258.335938 372.910156 C 256.429688 373.007812 254.789062 374.558594 254.242188 376.582031 C 255.699219 386.957031 264.242188 390.398438 272.546875 393.839844 C 273.917969 393.160156 274.960938 392.429688 275.777344 391.683594 C 267.617188 388.300781 259.332031 384.820312 257.914062 374.636719 C 258.085938 373.964844 258.371094 373.425781 258.765625 372.910156 C 258.632812 372.898438 258.476562 372.898438 258.335938 372.910156 Z M 258.335938 372.910156 "/>
<path style=" stroke:none;fill-rule:nonzero;fill:rgb(81.176471%,56.862745%,38.039216%);fill-opacity:1;" d="M 683.699219 457.707031 C 681.78125 457.804688 680.152344 459.355469 679.609375 461.378906 C 681.054688 471.753906 689.597656 475.203125 697.914062 478.636719 C 699.28125 477.964844 700.328125 477.226562 701.140625 476.480469 C 692.96875 473.105469 684.695312 469.628906 683.265625 459.441406 C 683.449219 458.761719 683.738281 458.234375 684.128906 457.714844 C 683.984375 457.707031 683.832031 457.707031 683.699219 457.714844 Z M 683.699219 457.707031 "/>
<path style=" stroke:none;fill-rule:nonzero;fill:rgb(81.176471%,56.862745%,38.039216%);fill-opacity:1;" d="M 371.570312 426.523438 C 369.050781 426.679688 366.917969 429.265625 366.199219 432.640625 C 368.105469 449.933594 379.320312 455.683594 390.222656 461.40625 C 392.023438 460.285156 393.390625 459.058594 394.464844 457.8125 C 383.746094 452.1875 372.875 446.378906 371.007812 429.410156 C 371.234375 428.277344 371.609375 427.386719 372.136719 426.523438 C 371.953125 426.523438 371.742188 426.523438 371.570312 426.523438 Z M 371.570312 426.523438 "/>
<path style=" stroke:none;fill-rule:nonzero;fill:rgb(81.176471%,56.862745%,38.039216%);fill-opacity:1;" d="M 600.441406 360.019531 C 598.527344 360.117188 596.898438 361.667969 596.351562 363.691406 C 597.796875 374.070312 606.34375 377.519531 614.644531 380.949219 C 616.015625 380.277344 617.070312 379.542969 617.882812 378.792969 C 609.714844 375.421875 601.4375 371.933594 600.011719 361.746094 C 600.191406 361.074219 600.46875 360.539062 600.871094 360.019531 C 600.730469 360.011719 600.574219 360.019531 600.441406 360.019531 Z M 600.441406 360.019531 "/>
<path style=" stroke:none;fill-rule:nonzero;fill:rgb(90.196078%,78.039216%,69.019608%);fill-opacity:1;" d="M 477.328125 27.023438 C 470.863281 27.214844 466.410156 28.789062 463.699219 30.628906 C 460.078125 33.070312 457.320312 36.558594 456.160156 47.167969 L 455.804688 51.125 L 453.648438 54.355469 C 453.648438 54.355469 432.742188 88.199219 407.710938 124.46875 C 395.203125 142.609375 381.695312 161.671875 368.957031 177.328125 C 357.519531 191.386719 347.816406 202.203125 336.292969 209.6875 C 334.980469 210.550781 333.726562 211.816406 332.347656 212.574219 C 324.082031 220.210938 312.53125 228.738281 294.664062 242.058594 C 274.992188 256.730469 250.757812 274.726562 226.839844 293.46875 C 202.933594 312.222656 179.339844 332.019531 161.535156 349.210938 C 144.683594 365.472656 135.011719 380 133.179688 384.449219 C 133.554688 385.242188 133.890625 386.441406 136.773438 390.914062 C 138.296875 393.292969 140.644531 396.273438 142.863281 399.1875 C 139.992188 394.710938 139.65625 393.511719 139.28125 392.71875 C 141.101562 388.28125 151.132812 373.390625 167.988281 357.117188 C 185.796875 339.925781 209.035156 320.492188 232.941406 301.75 C 256.859375 282.996094 281.445312 265.007812 301.132812 250.328125 C 318.976562 237.007812 330.183594 228.480469 338.449219 220.84375 C 339.828125 220.085938 341.082031 218.820312 342.394531 217.96875 C 353.917969 210.476562 363.621094 199.300781 375.058594 185.242188 C 387.796875 169.574219 401.304688 150.878906 413.8125 132.742188 C 438.84375 96.46875 459.75 62.625 459.75 62.625 L 461.90625 59.394531 L 462.261719 55.4375 C 463.421875 44.828125 466.179688 41.339844 469.800781 38.898438 C 473.421875 36.445312 480.171875 34.613281 490.613281 35.660156 C 511.484375 37.738281 543.765625 51.203125 575.308594 70.175781 C 606.839844 89.160156 638.324219 113.535156 661.074219 135.625 C 670 144.296875 676.992188 152.117188 682.605469 159.351562 C 682.144531 158.605469 681.695312 157.972656 681.167969 157.195312 C 675.375 148.714844 666.34375 138.394531 654.972656 127.34375 C 632.222656 105.257812 600.738281 80.890625 569.207031 61.90625 C 537.671875 42.933594 505.394531 29.46875 484.511719 27.390625 C 481.898438 27.128906 479.492188 26.96875 477.339844 27.023438 Z M 709.523438 137.78125 C 715.019531 145.820312 719.023438 153.878906 721.007812 162.589844 L 726.035156 166.183594 C 723.878906 159.1875 720.507812 152.671875 715.988281 146.050781 C 714.089844 143.28125 711.734375 140.589844 709.523438 137.78125 Z M 694.089844 185.597656 L 694.089844 189.191406 L 701.628906 194.949219 L 902.597656 342.734375 L 904.742188 344.535156 L 907.617188 345.253906 C 930.296875 352.25 951.640625 351.195312 969.339844 348.492188 L 971.140625 339.140625 C 952.144531 342.761719 927.617188 345.023438 901.515625 336.984375 L 898.648438 336.265625 L 896.496094 334.464844 L 695.527344 186.679688 Z M 694.089844 185.597656 "/>
<path style=" stroke:none;fill-rule:nonzero;fill:url(#linear0);" d="M 229.628906 492.578125 L 212.757812 610.511719 C 223.132812 619.203125 233.382812 627.914062 243.984375 636.402344 C 249.003906 640.429688 311.132812 682.5625 382.144531 730.257812 C 518.046875 821.511719 532.710938 832.753906 539.695312 851.066406 C 542.355469 858.070312 542.480469 859.96875 540.046875 865.09375 L 542.921875 866.894531 C 542.921875 857.167969 556.503906 804.101562 570.546875 751.472656 C 569.695312 749.183594 568.8125 746.910156 567.683594 744.640625 C 556.953125 723.070312 543.957031 712.632812 412.289062 623.820312 C 343.824219 577.632812 281.226562 534.742188 273.410156 528.53125 C 258.878906 516.996094 244.003906 504.902344 229.628906 492.578125 Z M 229.628906 492.578125 "/>
<path style=" stroke:none;fill-rule:nonzero;fill:rgb(65.882353%,40.784314%,20%);fill-opacity:1;" d="M 903.152344 515.011719 C 828.296875 597.921875 723.039062 755.34375 632.730469 774.382812 C 632.730469 774.382812 609.347656 853.164062 619.855469 891.703125 C 652.460938 879.859375 716.667969 834.066406 769.503906 776.644531 C 826.4375 714.769531 920.5 598.6875 970.824219 503.011719 C 985.171875 479.996094 994.015625 354.414062 994.015625 354.414062 C 988 365.886719 982.003906 394.929688 970.164062 417.652344 C 948.910156 458.433594 918.410156 497.984375 903.152344 515.011719 Z M 903.152344 515.011719 "/>
<path style=" stroke:none;fill-rule:nonzero;fill:rgb(81.176471%,56.862745%,38.039216%);fill-opacity:1;" d="M 787.742188 360.480469 C 781.074219 361.238281 775.996094 363.941406 773.46875 368.398438 C 766.742188 380.289062 780.902344 401.132812 805.066406 414.863281 C 815.96875 421.0625 826.90625 424.472656 836.398438 425.585938 C 831.503906 423.804688 826.359375 421.78125 821.371094 418.945312 C 797.203125 405.214844 783.046875 384.371094 789.78125 372.480469 C 793.527344 365.867188 802.960938 363.605469 814.742188 365.082031 C 804.742188 361.410156 795.230469 359.636719 787.742188 360.480469 Z M 787.742188 360.480469 "/>
<path style=" stroke:none;fill-rule:nonzero;fill:rgb(81.176471%,56.862745%,38.039216%);fill-opacity:1;" d="M 550.257812 580.132812 C 543.59375 580.890625 538.507812 583.59375 535.988281 588.050781 C 529.253906 599.941406 543.410156 620.785156 567.578125 634.515625 C 578.488281 640.714844 589.417969 644.136719 598.917969 645.238281 C 594.023438 643.457031 588.878906 641.433594 583.890625 638.597656 C 559.722656 624.867188 545.566406 604.023438 552.289062 592.140625 C 556.035156 585.519531 565.480469 583.257812 577.261719 584.734375 C 567.261719 581.0625 557.75 579.292969 550.257812 580.132812 Z M 550.257812 580.132812 "/>
<path style=" stroke:none;fill-rule:nonzero;fill:rgb(81.176471%,56.862745%,38.039216%);fill-opacity:1;" d="M 471.015625 295.128906 C 455.988281 321.394531 428.074219 331.359375 403.957031 320.695312 C 379.839844 310.019531 363.996094 288.582031 368.5625 272.800781 C 373.132812 257.019531 390.738281 235.792969 417.023438 237.917969 C 448.113281 240.429688 475.585938 279.34375 471.015625 295.128906 Z M 471.015625 295.128906 "/>
<path style=" stroke:none;fill-rule:nonzero;fill:rgb(76.078431%,86.27451%,43.137255%);fill-opacity:1;" d="M 455.882812 311.429688 C 451.3125 327.199219 428.054688 331.351562 403.9375 320.683594 C 379.820312 310.007812 363.976562 288.574219 368.542969 272.789062 C 373.113281 257.007812 396.371094 252.867188 420.488281 263.535156 C 444.609375 274.199219 460.449219 295.644531 455.882812 311.429688 Z M 455.882812 311.429688 "/>
<path style="fill:none;stroke-width:4.686821;stroke-linecap:butt;stroke-linejoin:miter;stroke:rgb(56.078431%,68.235294%,14.901961%);stroke-opacity:1;stroke-miterlimit:4;" d="M 179.039327 121.144499 C 171.028041 120.59355 168.804189 136.53921 168.804189 136.53921 M 157.675368 130.491515 C 159.457955 128.840262 163.90566 116.746465 167.913692 113.996499 " transform="matrix(2.452107,0,0,2.453156,-0.0470743,-19.201957)"/>
<path style=" stroke:none;fill-rule:nonzero;fill:rgb(18.039216%,20%,20.784314%);fill-opacity:0.2;" d="M 541.292969 845.132812 L 545.605469 875.335938 L 478.410156 819.453125 L 317.367188 705.621094 L 294.398438 707.058594 L 285.785156 679.726562 C 233.257812 636.625 192.03125 613.664062 136.121094 570.5625 L 132.585938 561.402344 L 60.421875 495.625 L 81.953125 484.117188 L 165.277344 572.488281 L 304.453125 684.039062 L 330.289062 702.734375 L 508.976562 813.816406 L 541.304688 845.132812 Z M 541.292969 845.132812 "/>
<path style="fill:none;stroke-width:9.373641;stroke-linecap:butt;stroke-linejoin:miter;stroke:rgb(56.078431%,68.235294%,14.901961%);stroke-opacity:1;stroke-miterlimit:4;" d="M 52.733742 120.768707 L 65.613289 134.840186 " transform="matrix(2.452107,0,0,2.453156,-0.0470743,-19.201957)"/>
<path style="fill:none;stroke-width:9.373641;stroke-linecap:butt;stroke-linejoin:miter;stroke:rgb(56.078431%,68.235294%,14.901961%);stroke-opacity:1;stroke-miterlimit:4;" d="M 97.83207 86.761173 L 110.711617 100.835837 " transform="matrix(2.452107,0,0,2.453156,-0.0470743,-19.201957)"/>
<path style="fill:none;stroke-width:9.373641;stroke-linecap:butt;stroke-linejoin:miter;stroke:rgb(56.078431%,68.235294%,14.901961%);stroke-opacity:1;stroke-miterlimit:4;" d="M 70.902108 104.351716 L 85.538753 119.007583 " transform="matrix(2.452107,0,0,2.453156,-0.0470743,-19.201957)"/>
</g>
</svg>
