<?xml version="1.0" encoding="UTF-8"?>
<svg xmlns="http://www.w3.org/2000/svg" xmlns:xlink="http://www.w3.org/1999/xlink" width="1022pt" height="241pt" viewBox="0 0 1022 241" version="1.1">
<g id="surface1">
<path style=" stroke:none;fill-rule:nonzero;fill:rgb(0%,0%,0%);fill-opacity:1;" d="M 1017.988281 55.523438 C 1022.035156 55.121094 1023.1875 61.148438 1019.476562 62.621094 C 1009.476562 63.273438 999.410156 62.488281 989.375 63.339844 C 985.195312 63.894531 979.8125 62.6875 976.835938 66.554688 C 975.265625 68.242188 973.894531 70.085938 972.40625 72.007812 C 977.972656 73.765625 983.992188 73.5 989.410156 75.792969 C 996.164062 78.503906 1003.839844 78.351562 1010.246094 82.019531 C 1011.933594 84.863281 1010.027344 89.265625 1006.265625 87.640625 C 992.1875 83.003906 977.171875 83.824219 962.554688 83.792969 C 961.335938 86.386719 961.988281 92.078125 958.089844 92.144531 L 957.488281 91.824219 C 956.484375 92.34375 955.464844 92.964844 954.414062 93.648438 C 965.230469 100.34375 978.441406 101.617188 989.527344 107.742188 C 993.039062 109.28125 993.273438 113.347656 994.242188 116.613281 C 986.351562 115.039062 978.441406 113.449219 970.632812 111.488281 C 962.605469 109.480469 955.601562 103.558594 946.90625 104.695312 C 949.964844 107.1875 947.640625 109.03125 945.050781 110.585938 C 944.78125 115.253906 941.085938 118.269531 937.910156 121.265625 C 939.832031 122.652344 941.671875 124.191406 943.460938 125.800781 C 953.777344 128.375 963.441406 132.84375 972.957031 137.496094 C 973.007812 139.1875 973.125 142.585938 973.175781 144.292969 C 958.578125 143.691406 946.269531 135.324219 932.507812 131.625 C 930.101562 135.976562 927.992188 140.492188 926.085938 145.144531 C 939.378906 151.742188 951.4375 160.492188 964.011719 168.308594 C 968.558594 170.769531 969.898438 176.746094 966.417969 180.761719 C 953.527344 172.089844 940.082031 164.160156 925.835938 157.882812 C 923.847656 157.347656 921.707031 155.222656 919.582031 156.460938 C 917.910156 158.9375 916.738281 161.730469 915.402344 164.476562 C 922.140625 170.285156 931.636719 171.371094 938.160156 177.378906 C 941.722656 180.175781 940.167969 184.8125 939.632812 188.59375 C 928.730469 184.945312 919.046875 178.21875 907.726562 175.691406 C 907.59375 176.878906 907.324219 179.269531 907.191406 180.476562 C 906.558594 179.839844 905.300781 178.570312 904.683594 177.933594 C 903.511719 179.589844 902.292969 181.328125 901.070312 183.121094 C 901.691406 183.773438 902.945312 185.09375 903.582031 185.765625 C 902.59375 187.269531 901.589844 188.859375 900.554688 190.5 C 910.117188 200.242188 920.585938 209.847656 925.785156 222.820312 C 924.933594 225.011719 924.113281 227.238281 923.261719 229.5625 C 909.835938 223.855469 906.105469 207.539062 893.214844 201.0625 C 891.808594 206.886719 889.753906 212.945312 891.675781 218.96875 C 893.714844 226.046875 895.285156 233.613281 892.5625 240.792969 C 879.5 231.957031 877.644531 214.617188 875.4375 200.308594 C 876.625 199.890625 878.96875 199.035156 880.136719 198.617188 C 874.402344 191.90625 866.792969 187.304688 859.386719 182.683594 C 856.695312 180.84375 853.484375 180.394531 850.273438 180.460938 C 850.238281 179.90625 850.15625 178.785156 850.121094 178.234375 C 849.539062 178.703125 848.351562 179.640625 847.765625 180.109375 C 841.945312 177.648438 835.492188 176.859375 830.039062 173.480469 C 828.21875 174.667969 826.410156 175.957031 824.605469 177.363281 C 824.574219 175.839844 824.523438 172.777344 824.488281 171.238281 C 824.054688 173.0625 823.585938 174.96875 823.117188 176.945312 C 822.332031 176.042969 820.777344 174.265625 819.992188 173.378906 C 819.472656 173.75 818.453125 174.5 817.933594 174.886719 C 814.625 173.816406 809.691406 171.488281 807.96875 176.226562 C 806.882812 175.503906 805.761719 174.851562 804.609375 174.265625 C 798.703125 174.570312 792.785156 173.898438 787.152344 172.058594 C 784.441406 172.410156 781.800781 173.464844 779.140625 174.265625 C 779.175781 173.414062 779.242188 171.707031 779.273438 170.851562 C 776.550781 171.621094 773.773438 172.527344 771.03125 173.464844 C 770.628906 172.425781 769.828125 170.316406 769.425781 169.28125 C 769.191406 170.082031 768.757812 171.691406 768.539062 172.492188 C 761.917969 169.613281 755.027344 170.769531 748.523438 173.3125 C 740.363281 169.515625 731.234375 171.824219 722.890625 168.792969 C 711.585938 165.515625 699.566406 169.027344 688.378906 165.246094 C 679.550781 161.613281 670 166.550781 661.007812 163.839844 C 660.539062 163.839844 659.617188 163.824219 659.167969 163.808594 C 654.199219 159.40625 646.757812 162.6875 640.707031 161.800781 L 639.921875 161.800781 C 639.285156 162.402344 637.996094 163.605469 637.34375 164.207031 C 635.222656 160.511719 632.511719 161.496094 629.953125 164.023438 C 626.996094 163.339844 624.070312 162.570312 621.074219 161.898438 C 621.074219 162.25 621.058594 162.988281 621.058594 163.339844 C 616.644531 161.097656 611.761719 164.476562 607.3125 162.5 C 601.628906 159.773438 595.945312 164.726562 589.90625 163.105469 C 581.195312 160.207031 572.285156 165.699219 563.605469 163.957031 C 563.152344 164.34375 562.234375 165.128906 561.78125 165.515625 C 558.65625 164.777344 555.460938 165.332031 552.335938 166.03125 C 550.042969 164.460938 547.519531 163.253906 544.976562 162.148438 C 544.910156 163.273438 544.808594 165.496094 544.761719 166.601562 C 530.78125 171.472656 515.566406 167.789062 501.402344 171.269531 L 500.96875 169.261719 C 495.867188 170.550781 490.550781 170.703125 485.417969 169.230469 C 484.816406 169.664062 483.609375 170.550781 483.007812 170.988281 C 482.207031 170.601562 480.601562 169.796875 479.796875 169.398438 C 473.460938 169.179688 467.140625 168.726562 460.785156 168.660156 C 459.566406 168.308594 458.328125 168.023438 457.058594 167.773438 C 454.917969 168.058594 452.691406 168.476562 450.46875 168.878906 C 447.492188 168.660156 444.550781 168.628906 441.523438 168.878906 C 441.273438 168.527344 440.753906 167.808594 440.503906 167.4375 C 438.730469 168.359375 436.957031 168.125 435.234375 166.734375 C 421.910156 166.117188 408.949219 162.636719 395.957031 159.839844 C 384.738281 159.222656 373.5 158.617188 362.433594 156.460938 C 355.460938 154.804688 348.535156 158.183594 341.515625 157.046875 C 332.199219 157.144531 323.203125 160.359375 313.789062 159.808594 C 302.300781 162.148438 290.53125 162.117188 278.925781 163.957031 C 270.480469 164.375 262.121094 166.285156 253.609375 165.714844 C 217.792969 163.757812 182.710938 153.75 146.695312 154.46875 C 129.222656 154.6875 111.128906 157.933594 96.3125 167.691406 C 91.78125 171.121094 85.410156 170.382812 81.0625 174.183594 C 71.667969 182.03125 65.933594 193.796875 54.84375 199.773438 C 52.773438 182.285156 67.6875 169.984375 79.140625 159.320312 C 78.304688 152.425781 76.75 145.683594 74.8125 139.054688 C 58.976562 145.816406 43.992188 154.71875 27.289062 159.304688 C 27.019531 156.59375 25.265625 153.164062 28.074219 151.320312 C 40.214844 139.691406 56.617188 134.652344 71.066406 126.753906 C 69.84375 121.128906 68.792969 115.507812 67.789062 109.898438 C 55.679688 114.085938 43.410156 117.75 31.203125 121.648438 C 28.828125 122.550781 26.636719 120.160156 25.082031 118.652344 C 25.082031 112.863281 32.320312 110.972656 36.667969 109.082031 C 46.535156 106.636719 54.34375 99.707031 63.890625 96.445312 C 62.335938 90.152344 60.679688 83.910156 58.757812 77.75 C 41.351562 81.714844 23.894531 87.222656 5.820312 86.300781 C 5.519531 84.476562 5.183594 82.703125 4.800781 80.996094 C 20.5 73.363281 38.058594 71.324219 54.511719 65.902344 C 52.6875 59.707031 50.597656 53.617188 48.542969 47.523438 C 37.824219 50.152344 26.871094 53.449219 15.71875 51.390625 C 15.382812 49.214844 15.03125 47.074219 14.613281 45.015625 C 26.152344 44.144531 36.066406 37.835938 46.820312 34.285156 C 42.824219 28.109375 35.28125 26.570312 28.742188 24.578125 C 19.414062 22.1875 9.949219 20.246094 0.800781 17.132812 C 0.585938 14.136719 0.285156 11.222656 0 8.34375 C 15.214844 8.277344 30.046875 12.128906 44.246094 17.332031 C 57.554688 9.199219 74.058594 11.691406 88.320312 6.722656 C 94.542969 5.851562 100.679688 4.929688 106.632812 2.988281 C 128.804688 0.429688 151.378906 -1.664062 173.582031 1.886719 C 178.132812 2.871094 183.949219 2.121094 186.925781 6.453125 C 193.414062 7.640625 200.371094 7.425781 206.105469 11.105469 C 212.84375 15.140625 220.9375 14.972656 228.042969 17.953125 C 233.144531 19.894531 238.160156 22.050781 242.960938 24.597656 C 250.652344 25.953125 258.140625 28.128906 265.601562 30.335938 C 272.6875 32.363281 281.5 30.738281 286.96875 36.664062 C 294.777344 38.253906 303.691406 35.359375 310.664062 39.859375 C 325.128906 40.378906 339.609375 38.9375 354.019531 38.070312 C 360.761719 37.632812 367.332031 39.84375 374.035156 39.207031 C 385.523438 38.203125 397.113281 40.261719 408.5 38.117188 C 418.765625 36.363281 429.183594 37.648438 439.367188 39.191406 C 450.402344 41.082031 461.570312 37.535156 472.589844 39.691406 C 482.074219 41.484375 491.71875 42.605469 500.984375 45.347656 C 506.617188 46.988281 512.503906 46.421875 518.257812 46.789062 C 522.636719 49.667969 528.074219 47.425781 532.855469 48.664062 C 541.515625 51.171875 550.628906 50.855469 559.542969 51.441406 C 582.867188 49.0625 606.328125 48.078125 629.738281 46.46875 C 642.578125 41.414062 656.40625 39.777344 670.101562 40.011719 C 680.035156 35.339844 691.253906 36.644531 701.871094 35.457031 C 711.957031 34.253906 721.886719 36.832031 731.9375 36.929688 C 742.570312 37.132812 753.039062 40.496094 763.707031 39.242188 C 773.304688 38.167969 782.820312 40.796875 792.402344 40.011719 C 799.558594 39.472656 806.765625 40.378906 813.855469 39.140625 C 826.578125 37.132812 839.488281 37.515625 852.296875 36.929688 C 857.949219 36.664062 863.933594 34.21875 869.117188 37.601562 C 875.121094 36.914062 881.191406 36.644531 887.125 37.902344 C 911.324219 41.785156 935.734375 44.5625 959.578125 50.335938 C 962.972656 51.054688 966.152344 52.394531 969.195312 53.984375 C 969.996094 53.25 971.585938 51.792969 972.371094 51.074219 C 976.351562 52.78125 979.828125 56.496094 984.425781 56.128906 C 995.613281 55.492188 1006.816406 54.855469 1017.988281 55.523438 M 960.632812 65.5 C 956.320312 64.007812 951.921875 62.789062 947.589844 61.316406 C 939.664062 57.5 930.167969 60.160156 922.558594 55.238281 C 916.070312 60.011719 913.277344 67.792969 909.5 74.621094 C 893.097656 106.4375 880.488281 139.992188 866.675781 172.960938 C 873.03125 177.832031 879.351562 182.835938 886.609375 186.332031 C 902.226562 158.851562 916.457031 130.519531 934.414062 104.476562 C 937.523438 100.8125 939.429688 96.476562 939.3125 91.65625 C 949.816406 86.085938 952.875 73.714844 960.632812 65.5 M 942.355469 113.097656 C 941.488281 113.898438 941.488281 113.898438 942.355469 113.097656 M 914.601562 55.222656 C 908.246094 54.839844 902.09375 53.03125 895.773438 52.410156 C 890.738281 54.4375 888.800781 59.859375 886.089844 64.160156 C 867.714844 95.792969 856.761719 130.921875 845.039062 165.378906 C 847.3125 166.300781 849.453125 167.539062 851.527344 168.84375 C 855.574219 168.8125 859.351562 170.234375 863.097656 171.503906 C 876.742188 138.820312 889.21875 105.597656 905.453125 74.085938 C 908.347656 67.691406 912.660156 61.984375 914.601562 55.222656 M 913.863281 161.765625 C 912.945312 162.519531 912.945312 162.519531 913.863281 161.765625 M 871.34375 50.421875 C 866.292969 54.269531 864.136719 60.460938 861.023438 65.816406 C 844.4375 96.292969 828.503906 128.09375 823.554688 162.851562 C 829.269531 164.042969 835.058594 164.910156 840.859375 165.378906 C 854.152344 126.46875 866.625 86.703125 888.882812 51.792969 C 883.128906 50.4375 877.195312 51.089844 871.34375 50.421875 M 864.636719 50.035156 C 857.980469 50.269531 851.242188 51.023438 844.605469 49.765625 C 844.355469 50.234375 843.851562 51.207031 843.585938 51.691406 C 841.058594 50.722656 838.402344 49.71875 835.675781 50.753906 C 828.734375 52.5625 821.429688 51.457031 814.488281 53.347656 C 814.039062 52.980469 813.152344 52.226562 812.71875 51.859375 C 799.726562 51.375 786.867188 55.023438 773.890625 53.367188 C 759.34375 52.027344 744.710938 51.992188 730.199219 50.4375 C 711.886719 46.839844 692.828125 47.40625 674.5 50.769531 C 664.265625 53.199219 653.699219 53.632812 643.316406 55.472656 C 640.722656 55.324219 639.285156 58.085938 636.808594 58.503906 C 607.148438 59.960938 577.464844 62.519531 547.855469 63.675781 C 524.007812 59.894531 500.214844 55.726562 476.203125 53.046875 C 459.53125 51.390625 442.726562 49.179688 425.988281 51.140625 C 402.546875 51.308594 379.035156 49.28125 355.644531 51.574219 C 348.4375 52.828125 341.195312 50.722656 333.988281 52.363281 C 305.832031 50.304688 277.472656 46.488281 250.550781 37.617188 C 241.421875 75.023438 228.445312 111.675781 224.382812 150.152344 C 238.84375 152.910156 253.628906 154.585938 268.390625 153.515625 C 277.722656 150.570312 287.589844 150.335938 297.21875 149.128906 C 306.683594 148.695312 315.796875 146.082031 325.292969 145.832031 C 341.414062 146.316406 357.816406 141.949219 373.871094 145.613281 C 383.535156 146.453125 393 148.746094 402.628906 149.75 C 418.964844 150.351562 434.398438 157.832031 450.871094 156.609375 C 465.5 155.625 480.132812 156.292969 494.679688 157.800781 C 501.183594 158.820312 507.621094 156.660156 514.109375 157.332031 C 523.289062 156.777344 532.351562 155.222656 541.5 154.835938 C 559.105469 152.09375 577.03125 148.527344 594.855469 151.1875 C 600.242188 151.253906 605.925781 153.097656 611.058594 150.820312 C 616.679688 148.210938 622.546875 152.125 628.28125 151.339844 C 636.109375 149.480469 643.851562 153.363281 651.726562 152.257812 C 661.121094 150.953125 670.488281 153.011719 679.882812 152.695312 C 691.238281 152.328125 702.375 154.835938 713.660156 155.339844 C 727.121094 155.691406 740.230469 159.15625 753.558594 160.695312 C 764.210938 160.726562 774.84375 161.214844 785.460938 161.261719 C 796.765625 161.414062 807.835938 164.140625 819.15625 163.574219 C 824.589844 122.484375 845.171875 85.851562 864.636719 50.035156 M 671.441406 161.347656 C 666.355469 159.003906 671.523438 166.886719 671.441406 161.347656 M 246.46875 36.964844 C 241.570312 35.15625 236.753906 33.148438 231.988281 30.988281 C 227.308594 38.46875 226.171875 47.375 223.695312 55.726562 C 215.738281 85.082031 208.882812 114.902344 206.824219 145.332031 L 205.136719 145.898438 L 203.882812 144.878906 C 204.953125 114.570312 212.492188 84.980469 220.132812 55.792969 C 222.292969 46.972656 225.570312 38.351562 226.019531 29.230469 C 219.097656 26.972656 212.226562 24.496094 205.035156 23.191406 C 200.636719 38.117188 198.765625 53.667969 196.054688 68.980469 C 192.058594 94.117188 189.367188 119.421875 186.777344 144.746094 C 197.761719 148.210938 209.300781 148.894531 220.585938 150.785156 C 224.0625 111.808594 237.894531 74.90625 246.46875 36.964844 M 198.164062 20.644531 C 187.5625 16.832031 176.574219 14.050781 165.339844 12.898438 C 128.636719 8.648438 92.667969 19.425781 56.703125 24.996094 C 61.835938 56.828125 77.21875 85.96875 82.085938 117.867188 C 82.101562 122.453125 86.648438 124.542969 89.476562 127.472656 C 85.144531 136.394531 90.496094 145.480469 92.484375 154.25 C 107.214844 145.128906 125.023438 144.726562 141.679688 142.519531 C 155.507812 140.527344 169.21875 144.007812 182.898438 145.414062 C 186.691406 105.800781 191.726562 66.285156 199.601562 27.273438 C 199.097656 25.015625 198.613281 22.804688 198.164062 20.644531 Z M 198.164062 20.644531 "/>
<path style=" stroke:none;fill-rule:nonzero;fill:rgb(60.784314%,94.509804%,42.745098%);fill-opacity:1;" d="M 960.632812 65.5 C 952.875 73.714844 949.816406 86.085938 939.3125 91.65625 C 939.429688 96.476562 937.523438 100.8125 934.414062 104.476562 C 916.457031 130.519531 902.226562 158.851562 886.609375 186.332031 C 879.351562 182.835938 873.03125 177.832031 866.675781 172.960938 C 880.488281 139.992188 893.097656 106.4375 909.5 74.621094 C 913.277344 67.792969 916.070312 60.011719 922.558594 55.238281 C 930.167969 60.160156 939.664062 57.5 947.589844 61.316406 C 951.921875 62.789062 956.320312 64.007812 960.632812 65.5 Z M 960.632812 65.5 "/>
<path style=" stroke:none;fill-rule:nonzero;fill:rgb(0%,0%,0%);fill-opacity:0.439216;" d="M 942.355469 113.097656 C 941.488281 113.898438 941.488281 113.898438 942.355469 113.097656 Z M 942.355469 113.097656 "/>
<path style=" stroke:none;fill-rule:nonzero;fill:rgb(67.058824%,93.72549%,96.078431%);fill-opacity:1;" d="M 914.601562 55.222656 C 912.660156 61.984375 908.347656 67.691406 905.453125 74.085938 C 889.21875 105.597656 876.742188 138.820312 863.097656 171.503906 C 859.351562 170.234375 855.574219 168.8125 851.527344 168.84375 C 849.453125 167.539062 847.3125 166.300781 845.039062 165.378906 C 856.761719 130.921875 867.714844 95.792969 886.089844 64.160156 C 888.800781 59.859375 890.738281 54.4375 895.773438 52.410156 C 902.09375 53.03125 908.246094 54.839844 914.601562 55.222656 Z M 914.601562 55.222656 "/>
<path style=" stroke:none;fill-rule:nonzero;fill:rgb(0%,0%,0%);fill-opacity:0.439216;" d="M 913.863281 161.765625 C 912.945312 162.519531 912.945312 162.519531 913.863281 161.765625 Z M 913.863281 161.765625 "/>
<path style=" stroke:none;fill-rule:nonzero;fill:rgb(60.784314%,94.509804%,42.745098%);fill-opacity:1;" d="M 871.34375 50.421875 C 877.195312 51.089844 883.128906 50.4375 888.882812 51.792969 C 866.625 86.703125 854.152344 126.46875 840.859375 165.378906 C 835.058594 164.910156 829.269531 164.042969 823.554688 162.851562 C 828.503906 128.09375 844.4375 96.292969 861.023438 65.816406 C 864.136719 60.460938 866.292969 54.269531 871.34375 50.421875 Z M 871.34375 50.421875 "/>
<path style=" stroke:none;fill-rule:nonzero;fill:rgb(67.058824%,93.72549%,96.078431%);fill-opacity:1;" d="M 864.636719 50.035156 C 845.171875 85.851562 824.589844 122.484375 819.15625 163.574219 C 807.835938 164.140625 796.765625 161.414062 785.460938 161.261719 C 774.84375 161.214844 764.210938 160.726562 753.558594 160.695312 C 740.230469 159.15625 727.121094 155.691406 713.660156 155.339844 C 702.375 154.835938 691.238281 152.328125 679.882812 152.695312 C 670.488281 153.011719 661.121094 150.953125 651.726562 152.257812 C 643.851562 153.363281 636.109375 149.480469 628.28125 151.339844 C 622.546875 152.125 616.679688 148.210938 611.058594 150.820312 C 605.925781 153.097656 600.242188 151.253906 594.855469 151.1875 C 577.03125 148.527344 559.105469 152.09375 541.5 154.835938 C 532.351562 155.222656 523.289062 156.777344 514.109375 157.332031 C 507.621094 156.660156 501.183594 158.820312 494.679688 157.800781 C 480.132812 156.292969 465.5 155.625 450.871094 156.609375 C 434.398438 157.832031 418.964844 150.351562 402.628906 149.75 C 393 148.746094 383.535156 146.453125 373.871094 145.613281 C 357.816406 141.949219 341.414062 146.316406 325.292969 145.832031 C 315.796875 146.082031 306.683594 148.695312 297.21875 149.128906 C 287.589844 150.335938 277.722656 150.570312 268.390625 153.515625 C 253.628906 154.585938 238.84375 152.910156 224.382812 150.152344 C 228.445312 111.675781 241.421875 75.023438 250.550781 37.617188 C 277.472656 46.488281 305.832031 50.304688 333.988281 52.363281 C 341.195312 50.722656 348.4375 52.828125 355.644531 51.574219 C 379.035156 49.28125 402.546875 51.308594 425.988281 51.140625 C 442.726562 49.179688 459.53125 51.390625 476.203125 53.046875 C 500.214844 55.726562 524.007812 59.894531 547.855469 63.675781 C 577.464844 62.519531 607.148438 59.960938 636.808594 58.503906 C 639.285156 58.085938 640.722656 55.324219 643.316406 55.472656 C 653.699219 53.632812 664.265625 53.199219 674.5 50.769531 C 692.828125 47.40625 711.886719 46.839844 730.199219 50.4375 C 744.710938 51.992188 759.34375 52.027344 773.890625 53.367188 C 786.867188 55.023438 799.726562 51.375 812.71875 51.859375 C 813.152344 52.226562 814.039062 52.980469 814.488281 53.347656 C 821.429688 51.457031 828.734375 52.5625 835.675781 50.753906 C 838.402344 49.71875 841.058594 50.722656 843.585938 51.691406 C 843.851562 51.207031 844.355469 50.234375 844.605469 49.765625 C 851.242188 51.023438 857.980469 50.269531 864.636719 50.035156 Z M 864.636719 50.035156 "/>
<path style=" stroke:none;fill-rule:nonzero;fill:rgb(0%,0%,0%);fill-opacity:0.419608;" d="M 769.425781 169.28125 C 769.828125 170.316406 770.628906 172.425781 771.03125 173.464844 C 763.558594 174.03125 755.980469 174.5 748.523438 173.3125 C 755.027344 170.769531 761.917969 169.613281 768.539062 172.492188 C 768.757812 171.691406 769.191406 170.082031 769.425781 169.28125 Z M 769.425781 169.28125 "/>
<path style=" stroke:none;fill-rule:nonzero;fill:rgb(0%,0%,0%);fill-opacity:0.619608;" d="M 671.441406 161.347656 C 671.523438 166.886719 666.355469 159.003906 671.441406 161.347656 Z M 671.441406 161.347656 "/>
<path style=" stroke:none;fill-rule:nonzero;fill:rgb(0%,0%,0%);fill-opacity:0.670588;" d="M 640.707031 161.800781 C 646.757812 162.6875 654.199219 159.40625 659.167969 163.808594 C 658.148438 163.488281 656.125 162.835938 655.101562 162.519531 C 650.722656 164.425781 643.949219 166.769531 640.707031 161.800781 Z M 640.707031 161.800781 "/>
<path style=" stroke:none;fill-rule:nonzero;fill:rgb(0%,0%,0%);fill-opacity:0.509804;" d="M 552.335938 166.03125 L 553.90625 167.085938 C 550.898438 167.039062 547.785156 167.15625 544.761719 166.601562 C 544.808594 165.496094 544.910156 163.273438 544.976562 162.148438 C 547.519531 163.253906 550.042969 164.460938 552.335938 166.03125 Z M 552.335938 166.03125 "/>
<path style=" stroke:none;fill-rule:nonzero;fill:rgb(60.784314%,94.509804%,42.745098%);fill-opacity:1;" d="M 246.46875 36.964844 C 237.894531 74.90625 224.0625 111.808594 220.585938 150.785156 C 209.300781 148.894531 197.761719 148.210938 186.777344 144.746094 C 189.367188 119.421875 192.058594 94.117188 196.054688 68.980469 C 198.765625 53.667969 200.636719 38.117188 205.035156 23.191406 C 212.226562 24.496094 219.097656 26.972656 226.019531 29.230469 C 225.570312 38.351562 222.292969 46.972656 220.132812 55.792969 C 212.492188 84.980469 204.953125 114.570312 203.882812 144.878906 L 205.136719 145.898438 L 206.824219 145.332031 C 208.882812 114.902344 215.738281 85.082031 223.695312 55.726562 C 226.171875 47.375 227.308594 38.46875 231.988281 30.988281 C 236.753906 33.148438 241.570312 35.15625 246.46875 36.964844 Z M 246.46875 36.964844 "/>
<path style=" stroke:none;fill-rule:nonzero;fill:rgb(67.058824%,93.72549%,96.078431%);fill-opacity:1;" d="M 198.164062 20.644531 C 198.613281 22.804688 199.097656 25.015625 199.601562 27.273438 C 191.726562 66.285156 186.691406 105.800781 182.898438 145.414062 C 169.21875 144.007812 155.507812 140.527344 141.679688 142.519531 C 125.023438 144.726562 107.214844 145.128906 92.484375 154.25 C 90.496094 145.480469 85.144531 136.394531 89.476562 127.472656 C 86.648438 124.542969 82.101562 122.453125 82.085938 117.867188 C 77.21875 85.96875 61.835938 56.828125 56.703125 24.996094 C 92.667969 19.425781 128.636719 8.648438 165.339844 12.898438 C 176.574219 14.050781 187.5625 16.832031 198.164062 20.644531 M 165.136719 56.476562 C 160.054688 54.117188 155.171875 58.320312 150.773438 60.429688 C 151.277344 55.84375 153.050781 50.988281 150.925781 46.636719 C 149.90625 44.394531 147.683594 42.085938 144.972656 42.855469 C 137.429688 43.558594 133.820312 51.054688 129.339844 56.175781 C 126.746094 53.816406 124.371094 50.988281 120.945312 49.867188 C 114.355469 47.609375 106.144531 51.355469 104.054688 58.152344 C 102.851562 61.449219 104.289062 64.929688 105.328125 68.125 C 99.089844 70.90625 93.539062 76.78125 94.390625 84.144531 C 94.222656 90.636719 99.777344 94.90625 105.511719 96.425781 C 104.992188 101.5 104.089844 107.421875 107.535156 111.792969 C 110.8125 114.988281 116.613281 114.769531 119.238281 110.871094 C 119.054688 112.59375 118.6875 116.042969 118.503906 117.765625 C 122.265625 123.910156 130.644531 125.148438 137.03125 123.054688 C 139.773438 121.3125 141.730469 118.636719 144.003906 116.496094 C 149.671875 119.890625 157.5625 119.824219 162.0625 114.570312 C 165.441406 110.921875 164.753906 105.75 164.21875 101.316406 C 168.648438 96.660156 169.300781 90.152344 169.019531 84.078125 C 166.792969 81.75 164.503906 79.472656 162.164062 77.296875 C 165.640625 74.234375 169.6875 70.921875 170.019531 65.984375 C 170.875 62.117188 168.882812 57.867188 165.136719 56.476562 Z M 165.136719 56.476562 "/>
<path style=" stroke:none;fill-rule:nonzero;fill:rgb(0%,0%,0%);fill-opacity:1;" d="M 165.136719 56.476562 C 168.882812 57.867188 170.875 62.117188 170.019531 65.984375 C 169.6875 70.921875 165.640625 74.234375 162.164062 77.296875 C 164.503906 79.472656 166.792969 81.75 169.019531 84.078125 C 169.300781 90.152344 168.648438 96.660156 164.21875 101.316406 C 164.753906 105.75 165.441406 110.921875 162.0625 114.570312 C 157.5625 119.824219 149.671875 119.890625 144.003906 116.496094 C 141.730469 118.636719 139.773438 121.3125 137.03125 123.054688 C 130.644531 125.148438 122.265625 123.910156 118.503906 117.765625 C 118.6875 116.042969 119.054688 112.59375 119.238281 110.871094 C 116.613281 114.769531 110.8125 114.988281 107.535156 111.792969 C 104.089844 107.421875 104.992188 101.5 105.511719 96.425781 C 99.777344 94.90625 94.222656 90.636719 94.390625 84.144531 C 93.539062 76.78125 99.089844 70.90625 105.328125 68.125 C 104.289062 64.929688 102.851562 61.449219 104.054688 58.152344 C 106.144531 51.355469 114.355469 47.609375 120.945312 49.867188 C 124.371094 50.988281 126.746094 53.816406 129.339844 56.175781 C 133.820312 51.054688 137.429688 43.558594 144.972656 42.855469 C 147.683594 42.085938 149.90625 44.394531 150.925781 46.636719 C 153.050781 50.988281 151.277344 55.84375 150.773438 60.429688 C 155.171875 58.320312 160.054688 54.117188 165.136719 56.476562 M 164.753906 61.25 C 162.210938 58.769531 159.269531 60.828125 156.675781 62.101562 C 148.636719 65.515625 144.085938 73.480469 137.097656 78.46875 C 145.023438 85.097656 148.902344 96.746094 159.671875 99.539062 C 163.117188 95.925781 166.007812 91.140625 164.4375 85.984375 C 162.09375 82.503906 156.425781 79.355469 158.96875 74.519531 C 162.046875 70.886719 168.617188 66.519531 164.753906 61.25 M 160.757812 103.15625 C 156.675781 102.21875 152.28125 101.398438 149.085938 98.417969 C 143.402344 93.246094 140.257812 85.765625 133.804688 81.363281 C 130.457031 90.101562 129.808594 99.773438 125.226562 108.074219 C 124.003906 110.972656 121.832031 114.234375 123 117.53125 C 126.378906 119.992188 130.875 120.878906 134.855469 119.640625 C 138.382812 117.5 140.609375 113.882812 143.066406 110.753906 C 146.5625 113.011719 150.609375 116.511719 155.003906 114.585938 C 160.089844 113.265625 161.578125 107.722656 160.757812 103.15625 M 147.03125 46.605469 C 137.480469 47.425781 136.058594 60.878906 126.144531 60.695312 C 124.289062 58.269531 122.96875 55.003906 119.839844 54.019531 C 114.925781 52.058594 108.804688 55.574219 107.769531 60.730469 C 108.1875 62.988281 109.089844 65.25 109.859375 67.507812 C 117.683594 69.917969 126.363281 69.316406 133.503906 73.75 C 136.929688 70.671875 140.324219 67.574219 143.484375 64.292969 C 148.449219 59.925781 147.632812 52.480469 147.03125 46.605469 M 107.449219 72.613281 C 102.050781 74.46875 97.453125 79.941406 99.339844 85.96875 C 100.59375 91.238281 106.730469 91.324219 110.980469 92.058594 C 109.976562 97.832031 108.769531 103.910156 111.128906 109.597656 C 114.925781 107.65625 120.578125 107.589844 121.8125 102.71875 C 124.707031 94.6875 125.925781 86.152344 129.1875 78.253906 C 122.398438 74.789062 114.371094 75.773438 107.449219 72.613281 Z M 107.449219 72.613281 "/>
<path style=" stroke:none;fill-rule:nonzero;fill:rgb(60.784314%,94.509804%,42.745098%);fill-opacity:1;" d="M 164.753906 61.25 C 168.617188 66.519531 162.046875 70.886719 158.96875 74.519531 C 156.425781 79.355469 162.09375 82.503906 164.4375 85.984375 C 166.007812 91.140625 163.117188 95.925781 159.671875 99.539062 C 148.902344 96.746094 145.023438 85.097656 137.097656 78.46875 C 144.085938 73.480469 148.636719 65.515625 156.675781 62.101562 C 159.269531 60.828125 162.210938 58.769531 164.753906 61.25 Z M 164.753906 61.25 "/>
<path style=" stroke:none;fill-rule:nonzero;fill:rgb(60.784314%,94.509804%,42.745098%);fill-opacity:1;" d="M 160.757812 103.15625 C 161.578125 107.722656 160.089844 113.265625 155.003906 114.585938 C 150.609375 116.511719 146.5625 113.011719 143.066406 110.753906 C 140.609375 113.882812 138.382812 117.5 134.855469 119.640625 C 130.875 120.878906 126.378906 119.992188 123 117.53125 C 121.832031 114.234375 124.003906 110.972656 125.226562 108.074219 C 129.808594 99.773438 130.457031 90.101562 133.804688 81.363281 C 140.257812 85.765625 143.402344 93.246094 149.085938 98.417969 C 152.28125 101.398438 156.675781 102.21875 160.757812 103.15625 Z M 160.757812 103.15625 "/>
<path style=" stroke:none;fill-rule:nonzero;fill:rgb(60.784314%,94.509804%,42.745098%);fill-opacity:1;" d="M 147.03125 46.605469 C 147.632812 52.480469 148.449219 59.925781 143.484375 64.292969 C 140.324219 67.574219 136.929688 70.671875 133.503906 73.75 C 126.363281 69.316406 117.683594 69.917969 109.859375 67.507812 C 109.089844 65.25 108.1875 62.988281 107.769531 60.730469 C 108.804688 55.574219 114.925781 52.058594 119.839844 54.019531 C 122.96875 55.003906 124.289062 58.269531 126.144531 60.695312 C 136.058594 60.878906 137.480469 47.425781 147.03125 46.605469 Z M 147.03125 46.605469 "/>
<path style=" stroke:none;fill-rule:nonzero;fill:rgb(60.784314%,94.509804%,42.745098%);fill-opacity:1;" d="M 107.449219 72.613281 C 114.371094 75.773438 122.398438 74.789062 129.1875 78.253906 C 125.925781 86.152344 124.707031 94.6875 121.8125 102.71875 C 120.578125 107.589844 114.925781 107.65625 111.128906 109.597656 C 108.769531 103.910156 109.976562 97.832031 110.980469 92.058594 C 106.730469 91.324219 100.59375 91.238281 99.339844 85.96875 C 97.453125 79.941406 102.050781 74.46875 107.449219 72.613281 Z M 107.449219 72.613281 "/>
</g>
</svg>
