<?xml version="1.0" encoding="UTF-8" standalone="no"?>
<!-- Created with Inkscape (http://www.inkscape.org/) -->

<svg
   xmlns:dc="http://purl.org/dc/elements/1.1/"
   xmlns:cc="http://creativecommons.org/ns#"
   xmlns:rdf="http://www.w3.org/1999/02/22-rdf-syntax-ns#"
   xmlns:svg="http://www.w3.org/2000/svg"
   xmlns="http://www.w3.org/2000/svg"
   xmlns:sodipodi="http://sodipodi.sourceforge.net/DTD/sodipodi-0.dtd"
   xmlns:inkscape="http://www.inkscape.org/namespaces/inkscape"
   width="215.55948mm"
   height="50.756424mm"
   viewBox="0 0 763.79343 179.8456"
   id="svg6756"
   version="1.1"
   inkscape:version="0.91 r13725"
   sodipodi:docname="scarf.svg">
  <defs
     id="defs6758" />
  <sodipodi:namedview
     id="base"
     pagecolor="#ffffff"
     bordercolor="#666666"
     borderopacity="1.0"
     inkscape:pageopacity="0.0"
     inkscape:pageshadow="2"
     inkscape:zoom="0.35"
     inkscape:cx="-494.53194"
     inkscape:cy="41.351395"
     inkscape:document-units="px"
     inkscape:current-layer="layer1"
     showgrid="false"
     fit-margin-top="0"
     fit-margin-left="0"
     fit-margin-right="0"
     fit-margin-bottom="0"
     inkscape:window-width="1855"
     inkscape:window-height="1056"
     inkscape:window-x="65"
     inkscape:window-y="24"
     inkscape:window-maximized="1" />
  <metadata
     id="metadata6761">
    <rdf:RDF>
      <cc:Work
         rdf:about="">
        <dc:format>image/svg+xml</dc:format>
        <dc:type
           rdf:resource="http://purl.org/dc/dcmitype/StillImage" />
        <dc:title></dc:title>
      </cc:Work>
    </rdf:RDF>
  </metadata>
  <g
     inkscape:label="Layer 1"
     inkscape:groupmode="layer"
     id="layer1"
     transform="translate(33.3252,-393.868)">
    <g
       transform="matrix(0,1.25,-1.25,0,2118.8373,-3034.4864)"
       id="g6709">
      <path
         style="opacity:1;fill:#000000"
         inkscape:connector-curvature="0"
         id="path594"
         d="m 2775.86,1112.93 c -0.24,-2.42 3.36,-3.11 4.24,-0.89 0.39,5.98 -0.08,12 0.43,18 0.33,2.5 -0.39,5.72 1.92,7.5 1.01,0.94 2.11,1.76 3.26,2.65 1.05,-3.33 0.89,-6.93 2.26,-10.17 1.62,-4.04 1.53,-8.63 3.72,-12.46 1.7,-1.01 4.33,0.13 3.36,2.38 -2.77,8.42 -2.28,17.4 -2.3,26.14 1.55,0.73 4.95,0.34 4.99,2.67 l -0.19,0.36 c 0.31,0.6 0.68,1.21 1.09,1.84 4,-6.47 4.76,-14.37 8.42,-21 0.92,-2.1 3.35,-2.24 5.3,-2.82 -0.94,4.72 -1.89,9.45 -3.06,14.12 -1.2,4.8 -4.74,8.99 -4.06,14.19 1.49,-1.83 2.59,-0.44 3.52,1.11 2.79,0.16 4.59,2.37 6.38,4.27 0.83,-1.15 1.75,-2.25 2.71,-3.32 1.54,-6.17 4.21,-11.95 6.99,-17.64 1.01,-0.03 3.04,-0.1 4.06,-0.13 -0.36,8.73 -5.36,16.09 -7.57,24.32 2.6,1.44 5.3,2.7 8.08,3.84 3.94,-7.95 9.17,-15.16 13.84,-22.68 1.47,-2.72 5.04,-3.52 7.44,-1.44 -5.18,7.71 -9.92,15.75 -13.67,24.27 -0.32,1.19 -1.59,2.47 -0.85,3.74 1.48,1 3.15,1.7 4.79,2.5 3.47,-4.03 4.12,-9.71 7.71,-13.61 1.67,-2.13 4.44,-1.2 6.7,-0.88 -2.18,6.52 -6.2,12.31 -7.71,19.08 0.71,0.08 2.14,0.24 2.86,0.32 -0.38,0.38 -1.14,1.13 -1.52,1.5 0.99,0.7 2.03,1.43 3.1,2.16 0.39,-0.37 1.18,-1.12 1.58,-1.5 0.9,0.59 1.85,1.19 2.83,1.81 5.82,-5.72 11.56,-11.98 19.31,-15.09 1.31,0.51 2.64,1 4.03,1.51 -3.41,8.03 -13.16,10.26 -17.03,17.97 3.48,0.84 7.1,2.07 10.7,0.92 4.23,-1.22 8.75,-2.16 13.04,-0.53 -5.28,7.81 -15.64,8.92 -24.19,10.24 -0.25,-0.71 -0.76,-2.11 -1.01,-2.81 -4.01,3.43 -6.76,7.98 -9.52,12.41 -1.1,1.61 -1.37,3.53 -1.33,5.45 -0.33,0.02 -1,0.07 -1.33,0.09 0.28,0.35 0.84,1.06 1.12,1.41 -1.47,3.48 -1.94,7.34 -3.96,10.6 0.71,1.09 1.48,2.17 2.32,3.25 -0.91,0.02 -2.74,0.05 -3.66,0.07 1.09,0.26 2.23,0.54 3.41,0.82 -0.54,0.47 -1.6,1.4 -2.13,1.87 0.22,0.31 0.67,0.92 0.9,1.23 -0.64,1.98 -2.03,4.93 0.8,5.96 -0.43,0.65 -0.82,1.32 -1.17,2.01 0.18,3.53 -0.22,7.07 -1.32,10.44 0.21,1.62 0.84,3.2 1.32,4.79 -0.51,-0.02 -1.53,-0.06 -2.04,-0.08 0.46,1.63 1,3.29 1.56,4.93 -0.62,0.24 -1.88,0.72 -2.5,0.96 0.48,0.14 1.44,0.4 1.92,0.53 -1.72,3.96 -1.03,8.08 0.49,11.97 -2.27,4.88 -0.89,10.34 -2.7,15.33 -1.96,6.76 0.14,13.95 -2.12,20.64 -2.17,5.28 0.78,10.99 -0.84,16.37 0,0.28 -0.01,0.83 -0.02,1.1 -2.63,2.97 -0.67,7.42 -1.2,11.04 l 0,0.47 c 0.36,0.38 1.08,1.15 1.44,1.54 -2.21,1.27 -1.62,2.89 -0.11,4.42 -0.41,1.77 -0.87,3.52 -1.27,5.31 0.21,0 0.65,0.01 0.86,0.01 -1.34,2.64 0.68,5.56 -0.5,8.22 -1.63,3.4 1.33,6.8 0.36,10.41 -1.73,5.21 1.55,10.54 0.51,15.73 0.23,0.27 0.7,0.82 0.93,1.09 -0.44,1.87 -0.11,3.78 0.31,5.65 -0.94,1.37 -1.66,2.88 -2.32,4.4 0.67,0.04 2,0.1 2.66,0.13 2.91,8.36 0.71,17.46 2.79,25.93 l -1.2,0.26 c 0.77,3.05 0.86,6.23 -0.02,9.3 0.26,0.36 0.79,1.08 1.05,1.44 -0.23,0.48 -0.71,1.44 -0.95,1.92 -0.13,3.79 -0.4,7.57 -0.44,11.37 -0.21,0.73 -0.38,1.47 -0.53,2.23 0.17,1.28 0.42,2.61 0.66,3.94 -0.13,1.78 -0.15,3.54 0,5.35 -0.21,0.15 -0.64,0.46 -0.86,0.61 0.55,1.06 0.41,2.12 -0.42,3.15 -0.37,7.97 -2.45,15.72 -4.12,23.49 -0.37,6.71 -0.73,13.43 -2.02,20.05 -0.99,4.17 1.03,8.31 0.35,12.51 0.06,5.57 1.98,10.95 1.65,16.58 1.4,6.87 1.38,13.91 2.48,20.85 0.25,5.05 1.39,10.05 1.05,15.14 -1.17,21.42 -7.15,42.4 -6.72,63.94 0.13,10.45 2.07,21.27 7.9,30.13 2.05,2.71 1.61,6.52 3.88,9.12 4.69,5.62 11.72,9.05 15.29,15.68 -10.45,1.24 -17.8,-7.68 -24.17,-14.53 -4.12,0.5 -8.15,1.43 -12.11,2.59 4.04,9.47 9.36,18.43 12.1,28.42 -1.62,0.16 -3.67,1.21 -4.77,-0.47 -6.95,-7.26 -9.96,-17.07 -14.68,-25.71 -3.36,0.73 -6.72,1.36 -10.07,1.96 2.5,7.24 4.69,14.58 7.02,21.88 0.54,1.42 -0.89,2.73 -1.79,3.66 -3.46,0 -4.59,-4.33 -5.72,-6.93 -1.46,-5.9 -5.6,-10.57 -7.55,-16.28 -3.76,0.93 -7.49,1.92 -11.17,3.07 2.37,10.41 5.66,20.85 5.11,31.66 -1.09,0.18 -2.15,0.38 -3.17,0.61 -4.56,-9.39 -5.78,-19.89 -9.02,-29.73 -3.7,1.09 -7.34,2.34 -10.98,3.57 1.57,6.41 3.54,12.96 2.31,19.63 -1.3,0.2 -2.58,0.41 -3.81,0.66 -0.52,-6.9 -4.29,-12.83 -6.41,-19.26 -3.69,2.39 -4.61,6.9 -5.8,10.81 -1.43,5.58 -2.59,11.24 -4.45,16.71 -1.79,0.13 -3.53,0.31 -5.25,0.48 -0.04,-9.1 2.26,-17.97 5.37,-26.46 -4.86,-7.96 -3.37,-17.83 -6.34,-26.36 -0.52,-3.72 -1.07,-7.39 -2.23,-10.95 -1.53,-13.26 -2.78,-26.76 -0.66,-40.04 0.59,-2.72 0.14,-6.2 2.73,-7.98 0.71,-3.88 0.58,-8.04 2.78,-11.47 2.41,-4.03 2.31,-8.87 4.09,-13.12 1.16,-3.05 2.45,-6.05 3.97,-8.92 0.81,-4.6 2.11,-9.08 3.43,-13.54 1.21,-4.24 0.24,-9.51 3.78,-12.78 0.95,-4.67 -0.78,-10 1.91,-14.17 0.31,-8.65 -0.55,-17.31 -1.07,-25.93 -0.26,-4.03 1.06,-7.96 0.68,-11.97 -0.6,-6.87 0.63,-13.8 -0.65,-20.61 -1.05,-6.14 -0.28,-12.37 0.64,-18.46 1.13,-6.6 -0.99,-13.28 0.3,-19.87 1.07,-5.67 1.74,-11.44 3.38,-16.98 0.98,-3.37 0.64,-6.89 0.86,-10.33 1.72,-2.62 0.38,-5.87 1.12,-8.73 1.5,-5.18 1.31,-10.63 1.66,-15.96 -1.42,-13.95 -2.01,-27.98 -2.97,-41.98 -3.02,-7.68 -4,-15.95 -3.86,-24.14 -2.79,-5.94 -2.01,-12.65 -2.72,-19 -0.72,-6.03 0.82,-11.97 0.88,-17.98 0.12,-6.36 2.13,-12.62 1.38,-19 -0.64,-5.74 0.93,-11.43 0.46,-17.16 -0.32,-4.28 0.22,-8.59 -0.52,-12.83 -1.2,-7.61 -0.97,-15.33 -1.32,-22.99 -0.16,-3.38 -1.62,-6.96 0.4,-10.06 -0.41,-3.59 -0.57,-7.22 0.18,-10.77 2.32,-14.47 3.98,-29.07 7.43,-43.33 0.43,-2.03 1.23,-3.93 2.18,-5.75 -0.44,-0.48 -1.31,-1.43 -1.74,-1.9 1.02,-2.38 3.24,-4.46 3.02,-7.21 -0.38,-6.69 -0.76,-13.39 -0.36,-20.07 m 5.96,34.3 c -0.89,2.58 -1.62,5.21 -2.5,7.8 -2.28,4.74 -0.69,10.42 -3.63,14.97 2.85,3.88 7.5,5.55 11.58,7.81 19.01,9.81 39.06,17.35 58.76,25.61 2.91,-3.8 5.9,-7.58 7.99,-11.92 -16.42,-9.34 -33.35,-17.85 -48.91,-28.59 -2.19,-1.86 -4.78,-3 -7.66,-2.93 -3.33,-6.28 -10.72,-8.11 -15.63,-12.75 m 28.44,10.93 c 0.48,0.52 0.48,0.52 0,0 m -34.58,16.6 c -0.23,3.8 -1.31,7.48 -1.68,11.26 1.21,3.01 4.45,4.17 7.02,5.79 18.9,10.99 39.89,17.54 60.48,24.55 0.55,-1.36 1.29,-2.64 2.07,-3.88 -0.02,-2.42 0.83,-4.68 1.59,-6.92 -19.53,-8.16 -39.38,-15.62 -58.21,-25.33 -3.82,-1.73 -7.23,-4.31 -11.27,-5.47 m 63.66,0.44 c 0.45,0.55 0.45,0.55 0,0 m -66.53,25.43 c 2.3,3.02 6,4.31 9.2,6.17 18.21,9.92 37.21,19.45 57.98,22.41 0.71,-3.42 1.23,-6.88 1.51,-10.35 -23.25,-7.95 -47.01,-15.41 -67.87,-28.72 -0.81,3.44 -0.42,6.99 -0.82,10.49 m -0.23,4.01 c 0.14,3.98 0.59,8.01 -0.16,11.98 0.28,0.15 0.86,0.45 1.15,0.61 -0.58,1.51 -1.18,3.1 -0.56,4.73 1.08,4.15 0.42,8.52 1.55,12.67 -0.22,0.27 -0.67,0.8 -0.89,1.06 -0.29,7.77 1.89,15.46 0.9,23.22 -0.8,8.7 -0.82,17.45 -1.75,26.13 -2.15,10.95 -1.81,22.35 0.2,33.31 1.45,6.12 1.71,12.44 2.81,18.65 -0.09,1.55 1.56,2.41 1.81,3.89 0.87,17.74 2.4,35.49 3.09,53.2 -2.26,14.26 -4.75,28.49 -6.35,42.85 -0.99,9.97 -2.31,20.02 -1.14,30.03 0.1,14.02 -1.11,28.08 0.26,42.07 0.75,4.31 -0.51,8.64 0.47,12.95 -1.23,16.84 -3.51,33.8 -8.81,49.9 22.35,5.46 44.25,13.22 67.24,15.65 1.65,-8.65 2.65,-17.49 2.01,-26.32 -1.76,-5.58 -1.9,-11.48 -2.62,-17.24 -0.26,-5.66 -1.82,-11.11 -1.97,-16.79 0.29,-9.64 -2.32,-19.45 -0.13,-29.05 0.5,-5.78 1.87,-11.44 2.47,-17.2 0.36,-9.77 4.83,-19 4.1,-28.85 -0.59,-8.75 -0.19,-17.5 0.71,-26.2 0.61,-3.89 -0.68,-7.74 -0.28,-11.62 -0.33,-5.49 -1.26,-10.91 -1.49,-16.38 -1.64,-10.53 -3.77,-21.25 -2.18,-31.91 0.04,-3.22 1.14,-6.62 -0.22,-9.69 -1.56,-3.36 0.78,-6.87 0.31,-10.3 -1.11,-4.68 1.21,-9.31 0.55,-14.02 -0.78,-5.62 0.45,-11.22 0.26,-16.84 -0.22,-6.79 1.28,-13.45 1.58,-20.2 0.21,-8.05 2.28,-15.89 3.2,-23.86 0.02,-6.37 0.31,-12.73 0.34,-19.08 0.09,-6.76 1.72,-13.38 1.38,-20.15 -24.55,-3.25 -46.44,-15.56 -67.84,-27.2 m 66.51,115.54 c -1.4,3.04 3.31,-0.05 0,0 m -74.32,254.15 c -1.08,2.93 -2.28,5.81 -3.57,8.66 4.47,2.8 9.79,3.48 14.78,4.96 17.54,4.76 35.36,8.86 53.54,10.09 l 0.34,1.01 -0.61,0.75 c -18.11,-0.64 -35.79,-5.15 -53.23,-9.72 -5.27,-1.29 -10.42,-3.25 -15.87,-3.52 -1.35,4.14 -2.83,8.25 -3.61,12.55 8.92,2.63 18.21,3.75 27.36,5.37 15.02,2.39 30.14,4 45.27,5.55 2.07,-6.57 2.48,-13.47 3.61,-20.22 -23.29,-2.08 -45.34,-10.35 -68.01,-15.48 m -9.75,28.89 c -2.28,6.34 -3.94,12.91 -4.63,19.63 -2.54,21.95 3.9,43.46 7.23,64.97 19.02,-3.07 36.43,-12.27 55.49,-15.18 2.74,-0.01 3.99,-2.73 5.74,-4.42 5.33,2.59 10.76,-0.61 16,-1.8 -5.45,-8.81 -5.69,-19.46 -7.01,-29.42 -1.19,-8.27 0.89,-16.47 1.73,-24.65 -23.67,-2.27 -47.28,-5.28 -70.59,-9.99 -1.35,0.3 -2.67,0.59 -3.96,0.86 z" />
      <path
         style="opacity:1;fill:#9bf16d"
         inkscape:connector-curvature="0"
         id="path650"
         d="m 2781.82,1147.23 c 4.91,4.64 12.3,6.47 15.63,12.75 2.88,-0.07 5.47,1.07 7.66,2.93 15.56,10.74 32.49,19.25 48.91,28.59 -2.09,4.34 -5.08,8.12 -7.99,11.92 -19.7,-8.26 -39.75,-15.8 -58.76,-25.61 -4.08,-2.26 -8.73,-3.93 -11.58,-7.81 2.94,-4.55 1.35,-10.23 3.63,-14.97 0.88,-2.59 1.61,-5.22 2.5,-7.8 z" />
      <path
         style="opacity:0.43999999;fill:#000000"
         inkscape:connector-curvature="0"
         id="path664"
         d="m 2810.26,1158.16 c 0.48,0.52 0.48,0.52 0,0 z" />
      <path
         style="opacity:1;fill:#abeff5"
         inkscape:connector-curvature="0"
         id="path676"
         d="m 2775.68,1174.76 c 4.04,1.16 7.45,3.74 11.27,5.47 18.83,9.71 38.68,17.17 58.21,25.33 -0.76,2.24 -1.61,4.5 -1.59,6.92 -0.78,1.24 -1.52,2.52 -2.07,3.88 -20.59,-7.01 -41.58,-13.56 -60.48,-24.55 -2.57,-1.62 -5.81,-2.78 -7.02,-5.79 0.37,-3.78 1.45,-7.46 1.68,-11.26 z" />
      <path
         style="opacity:0.43999999;fill:#000000"
         inkscape:connector-curvature="0"
         id="path678"
         d="m 2839.34,1175.2 c 0.45,0.55 0.45,0.55 0,0 z" />
      <path
         style="opacity:1;fill:#9bf16d"
         inkscape:connector-curvature="0"
         id="path704"
         d="m 2772.81,1200.63 c 0.4,-3.5 0.01,-7.05 0.82,-10.49 20.86,13.31 44.62,20.77 67.87,28.72 -0.28,3.47 -0.8,6.93 -1.51,10.35 -20.77,-2.96 -39.77,-12.49 -57.98,-22.41 -3.2,-1.86 -6.9,-3.15 -9.2,-6.17 z" />
      <path
         style="opacity:1;fill:#abeff5"
         inkscape:connector-curvature="0"
         id="path710"
         d="m 2772.58,1204.64 c 21.4,11.64 43.29,23.95 67.84,27.2 0.34,6.77 -1.29,13.39 -1.38,20.15 -0.03,6.35 -0.32,12.71 -0.34,19.08 -0.92,7.97 -2.99,15.81 -3.2,23.86 -0.3,6.75 -1.8,13.41 -1.58,20.2 0.19,5.62 -1.04,11.22 -0.26,16.84 0.66,4.71 -1.66,9.34 -0.55,14.02 0.47,3.43 -1.87,6.94 -0.31,10.3 1.36,3.07 0.26,6.47 0.22,9.69 -1.59,10.66 0.54,21.38 2.18,31.91 0.23,5.47 1.16,10.89 1.49,16.38 -0.4,3.88 0.89,7.73 0.28,11.62 -0.9,8.7 -1.3,17.45 -0.71,26.2 0.73,9.85 -3.74,19.08 -4.1,28.85 -0.6,5.76 -1.97,11.42 -2.47,17.2 -2.19,9.6 0.42,19.41 0.13,29.05 0.15,5.68 1.71,11.13 1.97,16.79 0.72,5.76 0.86,11.66 2.62,17.24 0.64,8.83 -0.36,17.67 -2.01,26.32 -22.99,-2.43 -44.89,-10.19 -67.24,-15.65 5.3,-16.1 7.58,-33.06 8.81,-49.9 -0.98,-4.31 0.28,-8.64 -0.47,-12.95 -1.37,-13.99 -0.16,-28.05 -0.26,-42.07 -1.17,-10.01 0.15,-20.06 1.14,-30.03 1.6,-14.36 4.09,-28.59 6.35,-42.85 -0.69,-17.71 -2.22,-35.46 -3.09,-53.2 -0.25,-1.48 -1.9,-2.34 -1.81,-3.89 -1.1,-6.21 -1.36,-12.53 -2.81,-18.65 -2.01,-10.96 -2.35,-22.36 -0.2,-33.31 0.93,-8.68 0.95,-17.43 1.75,-26.13 0.99,-7.76 -1.19,-15.45 -0.9,-23.22 0.22,-0.26 0.67,-0.79 0.89,-1.06 -1.13,-4.15 -0.47,-8.52 -1.55,-12.67 -0.62,-1.63 -0.02,-3.22 0.56,-4.73 -0.29,-0.16 -0.87,-0.46 -1.15,-0.61 0.75,-3.97 0.3,-8 0.16,-11.98 z" />
      <path
         style="opacity:0.42000002;fill:#000000"
         inkscape:connector-curvature="0"
         id="path754"
         d="m 2843.83,1261.58 c 0.62,-0.24 1.88,-0.72 2.5,-0.96 0.34,4.47 0.62,9 -0.09,13.46 -1.52,-3.89 -2.21,-8.01 -0.49,-11.97 -0.48,-0.13 -1.44,-0.39 -1.92,-0.53 z" />
      <path
         style="opacity:0.62000002;fill:#000000"
         inkscape:connector-curvature="0"
         id="path770"
         d="m 2839.09,1320.18 c 3.31,-0.05 -1.4,3.04 0,0 z" />
      <path
         style="opacity:0.67000002;fill:#000000"
         inkscape:connector-curvature="0"
         id="path784"
         d="m 2839.36,1338.56 c 0.53,-3.62 -1.43,-8.07 1.2,-11.04 -0.19,0.61 -0.58,1.82 -0.77,2.43 1.14,2.62 2.54,6.67 -0.43,8.61 z" />
      <path
         style="opacity:0.51000001;fill:#000000"
         inkscape:connector-curvature="0"
         id="path856"
         d="m 2841.89,1391.41 0.63,-0.94 c -0.03,1.8 0.04,3.66 -0.29,5.47 -0.66,-0.03 -1.99,-0.09 -2.66,-0.13 0.66,-1.52 1.38,-3.03 2.32,-4.4 z" />
      <path
         style="opacity:1;fill:#9bf16d"
         inkscape:connector-curvature="0"
         id="path962"
         d="m 2764.77,1574.33 c 22.67,5.13 44.72,13.4 68.01,15.48 -1.13,6.75 -1.54,13.65 -3.61,20.22 -15.13,-1.55 -30.25,-3.16 -45.27,-5.55 -9.15,-1.62 -18.44,-2.74 -27.36,-5.37 0.78,-4.3 2.26,-8.41 3.61,-12.55 5.45,0.27 10.6,2.23 15.87,3.52 17.44,4.57 35.12,9.08 53.23,9.72 l 0.61,-0.75 -0.34,-1.01 c -18.18,-1.23 -36,-5.33 -53.54,-10.09 -4.99,-1.48 -10.31,-2.16 -14.78,-4.96 1.29,-2.85 2.49,-5.73 3.57,-8.66 z" />
      <path
         style="opacity:1;fill:#abeff5"
         inkscape:connector-curvature="0"
         id="path990"
         d="m 2755.02,1603.22 c 1.29,-0.27 2.61,-0.56 3.96,-0.86 23.31,4.71 46.92,7.72 70.59,9.99 -0.84,8.18 -2.92,16.38 -1.73,24.65 1.32,9.96 1.56,20.61 7.01,29.42 -5.24,1.19 -10.67,4.39 -16,1.8 -1.75,1.69 -3,4.41 -5.74,4.42 -19.06,2.91 -36.47,12.11 -55.49,15.18 -3.33,-21.51 -9.77,-43.02 -7.23,-64.97 0.69,-6.72 2.35,-13.29 4.63,-19.63 m 21.41,19.75 c -1.41,3.04 1.1,5.96 2.36,8.59 -2.74,-0.3 -5.64,-1.36 -8.24,-0.09 -1.34,0.61 -2.72,1.94 -2.26,3.56 0.42,4.51 4.9,6.67 7.96,9.35 -1.41,1.55 -3.1,2.97 -3.77,5.02 -1.35,3.94 0.89,8.85 4.95,10.1 1.97,0.72 4.05,-0.14 5.96,-0.76 1.66,3.73 5.17,7.05 9.57,6.54 3.88,0.1 6.43,-3.22 7.34,-6.65 3.03,0.31 6.57,0.85 9.18,-1.21 1.91,-1.96 1.78,-5.43 -0.55,-7 1.03,0.11 3.09,0.33 4.12,0.44 3.67,-2.25 4.41,-7.26 3.16,-11.08 -1.04,-1.64 -2.64,-2.81 -3.92,-4.17 2.03,-3.39 1.99,-8.11 -1.15,-10.8 -2.18,-2.02 -5.27,-1.61 -7.92,-1.29 -2.78,-2.65 -6.67,-3.04 -10.3,-2.87 -1.39,1.33 -2.75,2.7 -4.05,4.1 -1.83,-2.08 -3.81,-4.5 -6.76,-4.7 -2.31,-0.51 -4.85,0.68 -5.68,2.92 z" />
      <path
         style="opacity:1;fill:#000000"
         inkscape:connector-curvature="0"
         id="path1002"
         d="m 2776.43,1622.97 c 0.83,-2.24 3.37,-3.43 5.68,-2.92 2.95,0.2 4.93,2.62 6.76,4.7 1.3,-1.4 2.66,-2.77 4.05,-4.1 3.63,-0.17 7.52,0.22 10.3,2.87 2.65,-0.32 5.74,-0.73 7.92,1.29 3.14,2.69 3.18,7.41 1.15,10.8 1.28,1.36 2.88,2.53 3.92,4.17 1.25,3.82 0.51,8.83 -3.16,11.08 -1.03,-0.11 -3.09,-0.33 -4.12,-0.44 2.33,1.57 2.46,5.04 0.55,7 -2.61,2.06 -6.15,1.52 -9.18,1.21 -0.91,3.43 -3.46,6.75 -7.34,6.65 -4.4,0.51 -7.91,-2.81 -9.57,-6.54 -1.91,0.62 -3.99,1.48 -5.96,0.76 -4.06,-1.25 -6.3,-6.16 -4.95,-10.1 0.67,-2.05 2.36,-3.47 3.77,-5.02 -3.06,-2.68 -7.54,-4.84 -7.96,-9.35 -0.46,-1.62 0.92,-2.95 2.26,-3.56 2.6,-1.27 5.5,-0.21 8.24,0.09 -1.26,-2.63 -3.77,-5.55 -2.36,-8.59 m 2.85,0.23 c -1.48,1.52 -0.25,3.28 0.51,4.83 2.04,4.81 6.8,7.53 9.78,11.71 3.96,-4.74 10.92,-7.06 12.59,-13.5 -2.16,-2.06 -5.02,-3.79 -8.1,-2.85 -2.08,1.4 -3.96,4.79 -6.85,3.27 -2.17,-1.84 -4.78,-5.77 -7.93,-3.46 m 25.04,2.39 c -0.56,2.44 -1.05,5.07 -2.83,6.98 -3.09,3.4 -7.56,5.28 -10.19,9.14 5.22,2 11,2.39 15.96,5.13 1.73,0.73 3.68,2.03 5.65,1.33 1.47,-2.02 2,-4.71 1.26,-7.09 -1.28,-2.11 -3.44,-3.44 -5.31,-4.91 1.35,-2.09 3.44,-4.51 2.29,-7.14 -0.79,-3.04 -4.1,-3.93 -6.83,-3.44 m -33.79,8.21 c 0.49,5.71 8.53,6.56 8.42,12.49 -1.45,1.11 -3.4,1.9 -3.99,3.77 -1.17,2.94 0.93,6.6 4.01,7.22 1.35,-0.25 2.7,-0.79 4.05,-1.25 1.44,-4.68 1.08,-9.87 3.73,-14.14 -1.84,-2.05 -3.69,-4.08 -5.65,-5.97 -2.61,-2.97 -7.06,-2.48 -10.57,-2.12 m 15.54,23.67 c 1.11,3.23 4.38,5.98 7.98,4.85 3.15,-0.75 3.2,-4.42 3.64,-6.96 3.45,0.6 7.08,1.32 10.48,-0.09 -1.16,-2.27 -1.2,-5.65 -4.11,-6.39 -4.8,-1.73 -9.9,-2.46 -14.62,-4.41 -2.07,4.06 -1.48,8.86 -3.37,13 z" />
      <path
         style="opacity:1;fill:#9bf16d"
         inkscape:connector-curvature="0"
         id="path1006"
         d="m 2779.28,1623.2 c 3.15,-2.31 5.76,1.62 7.93,3.46 2.89,1.52 4.77,-1.87 6.85,-3.27 3.08,-0.94 5.94,0.79 8.1,2.85 -1.67,6.44 -8.63,8.76 -12.59,13.5 -2.98,-4.18 -7.74,-6.9 -9.78,-11.71 -0.76,-1.55 -1.99,-3.31 -0.51,-4.83 z" />
      <path
         style="opacity:1;fill:#9bf16d"
         inkscape:connector-curvature="0"
         id="path1010"
         d="m 2804.32,1625.59 c 2.73,-0.49 6.04,0.4 6.83,3.44 1.15,2.63 -0.94,5.05 -2.29,7.14 1.87,1.47 4.03,2.8 5.31,4.91 0.74,2.38 0.21,5.07 -1.26,7.09 -1.97,0.7 -3.92,-0.6 -5.65,-1.33 -4.96,-2.74 -10.74,-3.13 -15.96,-5.13 2.63,-3.86 7.1,-5.74 10.19,-9.14 1.78,-1.91 2.27,-4.54 2.83,-6.98 z" />
      <path
         style="opacity:1;fill:#9bf16d"
         inkscape:connector-curvature="0"
         id="path1018"
         d="m 2770.53,1633.8 c 3.51,-0.36 7.96,-0.85 10.57,2.12 1.96,1.89 3.81,3.92 5.65,5.97 -2.65,4.27 -2.29,9.46 -3.73,14.14 -1.35,0.46 -2.7,1 -4.05,1.25 -3.08,-0.62 -5.18,-4.28 -4.01,-7.22 0.59,-1.87 2.54,-2.66 3.99,-3.77 0.11,-5.93 -7.93,-6.78 -8.42,-12.49 z" />
      <path
         style="opacity:1;fill:#9bf16d"
         inkscape:connector-curvature="0"
         id="path1024"
         d="m 2786.07,1657.47 c 1.89,-4.14 1.3,-8.94 3.37,-13 4.72,1.95 9.82,2.68 14.62,4.41 2.91,0.74 2.95,4.12 4.11,6.39 -3.4,1.41 -7.03,0.69 -10.48,0.09 -0.44,2.54 -0.49,6.21 -3.64,6.96 -3.6,1.13 -6.87,-1.62 -7.98,-4.85 z" />
    </g>
  </g>
</svg>
