<?xml version="1.0" encoding="UTF-8" standalone="no"?>
<!-- Created with Inkscape (http://www.inkscape.org/) -->
<svg xmlns:dc="http://purl.org/dc/elements/1.1/" xmlns:cc="http://creativecommons.org/ns#" xmlns:rdf="http://www.w3.org/1999/02/22-rdf-syntax-ns#" xmlns:svg="http://www.w3.org/2000/svg" xmlns="http://www.w3.org/2000/svg" xmlns:sodipodi="http://sodipodi.sourceforge.net/DTD/sodipodi-0.dtd" xmlns:inkscape="http://www.inkscape.org/namespaces/inkscape" viewBox="0 0 298.42984 321.83172" id="svg2" version="1.1" inkscape:version="0.91 r13725" sodipodi:docname="kick-scouter3.svg">
  <title id="title5029">Kick Scouter - coloured</title>
  <defs id="defs4"/>
  <sodipodi:namedview id="base" pagecolor="#ffffff" bordercolor="#666666" borderopacity="1.0" inkscape:pageopacity="0.0" inkscape:pageshadow="2" inkscape:zoom="0.70710678" inkscape:cx="80.493994" inkscape:cy="56.581333" inkscape:document-units="mm" inkscape:current-layer="layer2" showgrid="false" inkscape:window-width="1277" inkscape:window-height="1036" inkscape:window-x="634" inkscape:window-y="135" inkscape:window-maximized="0" showguides="true" inkscape:guide-bbox="true" fit-margin-top="2" fit-margin-right="2" fit-margin-bottom="2" fit-margin-left="2">
    <inkscape:grid type="xygrid" id="grid5641"/>
  </sodipodi:namedview>
  <metadata id="metadata7">
    <rdf:RDF>
      <cc:Work rdf:about="">
        <dc:format>image/svg+xml</dc:format>
        <dc:type rdf:resource="http://purl.org/dc/dcmitype/StillImage"/>
        <dc:title>Kick Scouter - coloured</dc:title>
        <cc:license rdf:resource="http://creativecommons.org/publicdomain/zero/1.0/"/>
        <dc:date>2015-02-01</dc:date>
        <dc:creator>
          <cc:Agent>
            <dc:title>Frank Tremmel</dc:title>
          </cc:Agent>
        </dc:creator>
        <dc:subject>
          <rdf:Bag>
            <rdf:li>scouter</rdf:li>
            <rdf:li>kick</rdf:li>
            <rdf:li>play</rdf:li>
            <rdf:li>vehicle</rdf:li>
            <rdf:li>game</rdf:li>
            <rdf:li>children</rdf:li>
          </rdf:Bag>
        </dc:subject>
        <dc:description>coloured lineart kick scouter</dc:description>
      </cc:Work>
      <cc:License rdf:about="http://creativecommons.org/publicdomain/zero/1.0/">
        <cc:permits rdf:resource="http://creativecommons.org/ns#Reproduction"/>
        <cc:permits rdf:resource="http://creativecommons.org/ns#Distribution"/>
        <cc:permits rdf:resource="http://creativecommons.org/ns#DerivativeWorks"/>
      </cc:License>
    </rdf:RDF>
  </metadata>
  <g inkscape:groupmode="layer" id="layer2" inkscape:label="drawing" style="display:inline" transform="translate(-206.57303,-288.9607)">
    <path style="fill:#c1c1c1;fill-opacity:1;fill-rule:evenodd;stroke:#000000;stroke-width:2.83464575;stroke-linecap:butt;stroke-linejoin:miter;stroke-miterlimit:4;stroke-dasharray:none;stroke-opacity:1" d="m 286.88332,352.83157 -4.54568,53.28554 c 6.85881,2.31313 10.30278,1.21141 13.88959,0.25254 l 6.31346,-52.78047 z" id="path4700" inkscape:connector-curvature="0" sodipodi:nodetypes="ccccc"/>
    <path style="fill:#d1d1d1;fill-opacity:1;fill-rule:evenodd;stroke:#000000;stroke-width:2.83464575;stroke-linecap:butt;stroke-linejoin:miter;stroke-miterlimit:4;stroke-dasharray:none;stroke-opacity:1" d="m 251.02291,304.34424 c -6.30632,5.24393 -4.28136,9.20612 -2.02031,13.13199 l 7.07107,0 c 4.9012,-0.73197 3.79802,3.78989 3.53553,7.57614 l 0,18.18275 c 1.03355,7.04881 4.89173,6.15629 8.5863,6.37658 l 58.58885,2.20971 c 8.26084,0.44865 15.92923,-4.12538 17.52973,-9.73912 l 3.1784,-22.58576 c 0.65894,-5.48224 3.44896,-5.28161 6.06091,-5.55584 l 11.61676,1.51523 c 2.58035,-3.86412 4.67081,-4.20822 1.01015,-12.6269 l -12.98405,0.27048 c -19.12604,-0.0182 -16.49598,9.1257 -17.88688,16.01451 l -1.95903,12.54397 c -1.51406,6.03383 -4.11177,8.81006 -12.62691,8.0416 l -39.90102,-1.26269 c -7.23358,0.193 -7.29986,-3.61771 -6.81853,-10.6066 l 0.25254,-11.36421 c 0.81819,-6.1013 -4.28689,-10.9475 -11.36422,-11.61676 z" id="path4696" inkscape:connector-curvature="0" sodipodi:nodetypes="ccccccccccccccccccccc"/>
    <path style="fill:#a4a4a4;fill-opacity:1;fill-rule:evenodd;stroke:#000000;stroke-width:2.83464575;stroke-linecap:butt;stroke-linejoin:miter;stroke-miterlimit:4;stroke-dasharray:none;stroke-opacity:1" d="m 286.67411,338.18436 c 3.93983,-4.67813 15.4482,-6.35635 23.19018,0.75761 -9.27344,4.31936 -6.16162,9.37085 -3.19108,12.9661 -1.46912,4.19603 -14.77997,4.96669 -21.00924,1.99492 -2.69824,-3.06974 -2.37684,-11.25635 1.01014,-15.71863 z" id="path4698" inkscape:connector-curvature="0" sodipodi:nodetypes="ccccc"/>
    <path style="fill:#484848;fill-opacity:1;fill-rule:evenodd;stroke:#000000;stroke-width:2.83464575;stroke-linecap:butt;stroke-linejoin:miter;stroke-miterlimit:4;stroke-dasharray:none;stroke-opacity:1" d="m 241.80526,305.7332 -18.18274,-2.77791 c -12.0896,2.007 -10.27427,15.35843 -1.26269,15.27856 l 19.31917,-1.13643 z" id="path4708" inkscape:connector-curvature="0" sodipodi:nodetypes="ccccc"/>
    <path style="fill:#464646;fill-opacity:1;fill-rule:evenodd;stroke:#000000;stroke-width:2.83464575;stroke-linecap:butt;stroke-linejoin:miter;stroke-miterlimit:4;stroke-dasharray:none;stroke-opacity:1" d="m 361.54993,302.23709 19.78092,1.4428 c 12.45653,-0.19305 6.85217,15.43532 0.46546,14.40737 l -19.86758,-2.83548 z" id="path4708-8" inkscape:connector-curvature="0" sodipodi:nodetypes="ccccc"/>
    <path style="fill:#434343;fill-opacity:1;fill-rule:evenodd;stroke:#000000;stroke-width:2.83464575;stroke-linecap:butt;stroke-linejoin:miter;stroke-miterlimit:4;stroke-dasharray:none;stroke-opacity:1" d="m 411.15003,517.51181 c 3.58505,13.76719 25.32187,20.63352 37.61024,18.91498 26.96048,-3.77044 42.37372,-28.30644 42.67894,-65.40738 0.14937,-18.15677 -12.36204,-38.47665 -30.05203,-38.63833 -38.35873,-0.35058 -60.71829,44.88132 -50.23715,85.13073 z" id="path4835" inkscape:connector-curvature="0" sodipodi:nodetypes="sssss"/>
    <g id="g5023">
      <path sodipodi:nodetypes="cc" inkscape:connector-curvature="0" id="path4994" d="m 415.42523,525.06258 c 5.5679,-4.79582 6.62048,-10.49469 9.09138,-15.90991" style="fill:none;fill-rule:evenodd;stroke:#000000;stroke-width:2.83464575;stroke-linecap:round;stroke-linejoin:miter;stroke-miterlimit:4;stroke-dasharray:none;stroke-opacity:1"/>
      <path sodipodi:nodetypes="cc" inkscape:connector-curvature="0" id="path4994-7" d="m 422.24376,530.11334 c 4.67409,-3.65967 6.77393,-7.49449 8.08123,-14.52095" style="display:inline;fill:none;fill-rule:evenodd;stroke:#000000;stroke-width:2.83464575;stroke-linecap:round;stroke-linejoin:miter;stroke-miterlimit:4;stroke-dasharray:none;stroke-opacity:1"/>
      <path sodipodi:nodetypes="cc" inkscape:connector-curvature="0" id="path4994-9" d="m 429.5683,533.39681 c 2.5236,-3.87605 4.9579,-6.12598 6.81667,-11.99651" style="display:inline;fill:none;fill-rule:evenodd;stroke:#000000;stroke-width:2.83464575;stroke-linecap:round;stroke-linejoin:miter;stroke-miterlimit:4;stroke-dasharray:none;stroke-opacity:1"/>
      <path sodipodi:nodetypes="cc" inkscape:connector-curvature="0" id="path4994-4" d="m 443.45697,536.55307 c -2.04896,-3.53554 -3.13159,-7.07107 -0.50507,-10.60661" style="display:inline;fill:none;fill-rule:evenodd;stroke:#000000;stroke-width:2.83464575;stroke-linecap:round;stroke-linejoin:miter;stroke-miterlimit:4;stroke-dasharray:none;stroke-opacity:1"/>
    </g>
    <path style="fill:#a83e3e;fill-rule:evenodd;stroke:#000000;stroke-width:2.83464575;stroke-linecap:butt;stroke-linejoin:miter;stroke-miterlimit:4;stroke-dasharray:none;stroke-opacity:1;fill-opacity:1" d="m 455.16563,452.35697 c -13.11229,1.03084 -25.18506,22.68509 -22.76432,35.61314 3.22661,17.23176 14.44573,23.75544 23.25146,23.39939 11.54002,-0.46661 23.20292,-15.54201 22.6724,-31.88634 -0.54531,-16.79995 -11.43558,-28.04788 -23.15954,-27.12619 z" id="path4837" inkscape:connector-curvature="0" sodipodi:nodetypes="sssss"/>
    <g id="g4904" style="fill:#740000;fill-opacity:1">
      <path sodipodi:nodetypes="ccccccc" inkscape:connector-curvature="0" id="path4825" d="m 308.18147,525.94786 81.28807,-41.84327 47.73831,10.718 1.98381,8.18533 -91.12531,46.99914 -40.32125,-13.80294 z" style="fill:#740000;fill-opacity:1;fill-rule:evenodd;stroke:#000000;stroke-width:2.83464575;stroke-linecap:butt;stroke-linejoin:miter;stroke-miterlimit:4;stroke-dasharray:none;stroke-opacity:1"/>
      <g style="stroke:#000000;stroke-width:1.77165353;stroke-miterlimit:4;stroke-dasharray:none;stroke-opacity:1;fill:#740000;fill-opacity:1" id="g4900">
        <path style="fill:#740000;fill-rule:evenodd;stroke:#000000;stroke-width:1.77165353;stroke-linecap:butt;stroke-linejoin:miter;stroke-miterlimit:4;stroke-dasharray:none;stroke-opacity:1;fill-opacity:1" d="m 309.73802,526.83034 39.14342,13.25825 88.13581,-45.20432" id="path4827" inkscape:connector-curvature="0" sodipodi:nodetypes="ccc"/>
        <path style="fill:#740000;fill-rule:evenodd;stroke:#000000;stroke-width:1.77165353;stroke-linecap:butt;stroke-linejoin:miter;stroke-miterlimit:4;stroke-dasharray:none;stroke-opacity:1;fill-opacity:1" d="m 348.6289,540.34113 -0.75762,9.34391" id="path4829" inkscape:connector-curvature="0"/>
      </g>
    </g>
    <path style="fill:#464646;fill-opacity:1;fill-rule:evenodd;stroke:#000000;stroke-width:2.83464575;stroke-linecap:butt;stroke-linejoin:miter;stroke-miterlimit:4;stroke-dasharray:none;stroke-opacity:1" d="m 228.39286,528.25506 c -19.18628,27.72397 3.12567,66.1734 19.46428,70.89286 13.47367,3.28833 23.76462,4.0798 32.67857,1.96428 28.98498,-6.79096 33.60173,-27.90218 35,-40.17857 2.41493,-26.83837 -8.00336,-42.50585 -12.85714,-47.14285 -20.45275,-7.02875 -49.52381,9.64285 -74.28571,14.46428 z" id="path4757" inkscape:connector-curvature="0" sodipodi:nodetypes="cccccc"/>
    <path style="fill:#bf3636;fill-opacity:1;fill-rule:evenodd;stroke:#000000;stroke-width:2.83464575;stroke-linecap:butt;stroke-linejoin:miter;stroke-miterlimit:4;stroke-dasharray:none;stroke-opacity:1" d="m 283.57143,521.82649 c -9.16443,5.04816 -14.58649,17.39503 -14.46429,27.85714 0.19597,16.77847 8.56111,31.38149 21.07143,31.07143 10.30735,-0.25546 19.8993,-16.15607 20.13262,-27.72956 0.21248,-10.53962 -2.12773,-22.70804 -9.95405,-29.77044 -4.16898,-3.76205 -11.8671,-4.13795 -16.78571,-1.42857 z" id="path4759" inkscape:connector-curvature="0" sodipodi:nodetypes="ssssss"/>
    <path style="fill:#9c9c9c;fill-rule:evenodd;stroke:#000000;stroke-width:2.83464575;stroke-linecap:butt;stroke-linejoin:miter;stroke-miterlimit:4;stroke-dasharray:none;stroke-opacity:1;fill-opacity:1" d="m 289.54638,527.47655 c -7.07525,0.006 -15.68511,13.02468 -14.96767,24.95927 0.4502,7.48902 5.63419,20.42999 16.52363,21.70594 9.05608,1.06112 17.41439,-18.79258 15.5486,-27.71768 -2.15195,-10.29402 -6.94055,-18.95672 -17.10456,-18.94753 z m 1.70557,4.85353 c 0.18469,-0.009 0.3721,-0.01 0.5625,0 2.53876,0.1274 5.51118,1.88766 6.94532,4.69726 l -3.09151,5.10606 c -1.0297,-0.57183 -2.27703,-0.8721 -3.76152,-0.9667 -1.03155,-2.83896 -3.38926,-7.80782 -3.38926,-7.80782 0.68752,-1.07212 1.44166,-0.96539 2.73447,-1.0288 z m -6.49023,3.9414 4.01367,6.33204 c -1.18819,0.98445 -1.15682,1.61339 -1.36719,3.08593 -4.72522,0.52971 -6.14453,0.33594 -6.14453,0.33594 0.25798,-4.24773 0.82183,-6.93144 3.49805,-9.75391 z m 8.60937,9.03711 c 1.41748,4.1e-4 2.56641,1.53931 2.56641,3.4375 0,1.89819 -1.14893,3.43709 -2.56641,3.4375 -1.41824,10e-4 -2.56836,-1.53829 -2.56836,-3.4375 0,-1.89921 1.15012,-3.43853 2.56836,-3.4375 z m -6.58593,5.04042 c -0.18584,1.22405 0.062,1.47575 1.7123,3.4507 -2.67856,3.92857 -5.57988,6.83858 -5.57988,6.83858 -1.93918,-2.93268 -2.75898,-2.49509 -2.40381,-8.88528 z m 13.22148,-0.62849 c 2.96104,0.59663 3.37636,0.73574 3.37636,0.73574 0.40499,3.17715 -3.33506,10.5122 -3.33506,10.5122 l -3.49471,-5.2001 c 1.78711,-1.3446 2.76505,-4.99446 3.45341,-6.04784 z m -8.84013,7.00653 c 1.03759,0.96767 0.95797,0.64669 2.42919,0.42725 1.33961,2.86308 2.19386,4.65506 3.20391,8.19062 -1.54,4.77138 -8.53484,4.04621 -11.54375,-1.37617 z" id="path4761" inkscape:connector-curvature="0" sodipodi:nodetypes="ssssscccccsccccccccsccccccccccccccccc"/>
    <path style="fill:#484848;fill-opacity:1;fill-rule:evenodd;stroke:#000000;stroke-width:2.83464575;stroke-linecap:butt;stroke-linejoin:miter;stroke-miterlimit:4;stroke-dasharray:none;stroke-opacity:1" d="m 293.79613,544.87919 10.15222,-1.60019 0.14237,6.82172 -9.77404,1.57827 c 0,0 -4.89502,-3.79027 -0.52055,-6.7998 z" id="path4898" inkscape:connector-curvature="0" sodipodi:nodetypes="ccccc"/>
    <g id="g4981" style="stroke:#000000;stroke-opacity:1">
      <path sodipodi:nodetypes="cc" inkscape:connector-curvature="0" id="path4910" d="m 238.57143,537.00506 c -8.17496,6.26806 -12.92464,17.87683 -15,27.14286" style="fill:none;fill-rule:evenodd;stroke:#000000;stroke-width:2.83464575;stroke-linecap:round;stroke-linejoin:miter;stroke-miterlimit:4;stroke-dasharray:none;stroke-opacity:1"/>
      <path sodipodi:nodetypes="cc" inkscape:connector-curvature="0" id="path4910-4" d="m 248.56567,534.67995 c -8.17496,6.26806 -20.0675,28.0554 -22.14286,37.32143" style="display:inline;fill:none;fill-rule:evenodd;stroke:#000000;stroke-width:2.83464575;stroke-linecap:round;stroke-linejoin:miter;stroke-miterlimit:4;stroke-dasharray:none;stroke-opacity:1"/>
      <path sodipodi:nodetypes="cc" inkscape:connector-curvature="0" id="path4910-6" d="m 257.85138,535.39423 c -14.29245,9.32681 -27.55926,41.62272 -26.42857,49.28572" style="display:inline;fill:none;fill-rule:evenodd;stroke:#000000;stroke-width:2.83464575;stroke-linecap:round;stroke-linejoin:miter;stroke-miterlimit:4;stroke-dasharray:none;stroke-opacity:1"/>
      <path sodipodi:nodetypes="cc" inkscape:connector-curvature="0" id="path4910-8" d="m 259.45852,542.35852 c -9.56969,6.46731 -25.09824,39.82 -22.32143,48.39286" style="display:inline;fill:none;fill-rule:evenodd;stroke:#000000;stroke-width:2.83464575;stroke-linecap:round;stroke-linejoin:miter;stroke-miterlimit:4;stroke-dasharray:none;stroke-opacity:1"/>
      <path sodipodi:nodetypes="cc" inkscape:connector-curvature="0" id="path4910-40" d="m 255.52995,562.89423 c -8.17496,8.76806 -13.10321,23.59112 -13.03571,33.03572" style="display:inline;fill:none;fill-rule:evenodd;stroke:#000000;stroke-width:2.83464575;stroke-linecap:round;stroke-linejoin:miter;stroke-miterlimit:4;stroke-dasharray:none;stroke-opacity:1"/>
      <path sodipodi:nodetypes="cc" inkscape:connector-curvature="0" id="path4910-5" d="m 259.99423,572.53709 c -7.2821,8.58949 -10.24607,17.34112 -10.53571,26.42857" style="display:inline;fill:none;fill-rule:evenodd;stroke:#000000;stroke-width:2.83464575;stroke-linecap:round;stroke-linejoin:miter;stroke-miterlimit:4;stroke-dasharray:none;stroke-opacity:1"/>
      <path sodipodi:nodetypes="cc" inkscape:connector-curvature="0" id="path4910-0" d="m 265.1728,578.42995 c -5.31781,7.16092 -5.06749,15.19826 -6.07142,23.03572" style="display:inline;fill:none;fill-rule:evenodd;stroke:#000000;stroke-width:2.83464575;stroke-linecap:round;stroke-linejoin:miter;stroke-miterlimit:4;stroke-dasharray:none;stroke-opacity:1"/>
      <path sodipodi:nodetypes="cc" inkscape:connector-curvature="0" id="path4910-54" d="m 271.4228,583.0728 c -3.71067,6.6252 -4.53178,11.62683 -5.35714,18.39286" style="display:inline;fill:none;fill-rule:evenodd;stroke:#000000;stroke-width:2.83464575;stroke-linecap:round;stroke-linejoin:miter;stroke-miterlimit:4;stroke-dasharray:none;stroke-opacity:1"/>
      <path sodipodi:nodetypes="cc" inkscape:connector-curvature="0" id="path4910-3" d="m 278.74424,587.53709 c -4.2464,4.66092 -2.92465,8.59112 -0.71429,13.21429" style="display:inline;fill:none;fill-rule:evenodd;stroke:#000000;stroke-width:2.83464575;stroke-linecap:round;stroke-linejoin:miter;stroke-miterlimit:4;stroke-dasharray:none;stroke-opacity:1"/>
      <path sodipodi:nodetypes="cc" inkscape:connector-curvature="0" id="path4910-7" d="m 286.06566,589.85852 c -4.42496,4.1252 -2.03178,6.62683 0.53572,9.28571" style="display:inline;fill:none;fill-rule:evenodd;stroke:#000000;stroke-width:2.83464575;stroke-linecap:round;stroke-linejoin:miter;stroke-miterlimit:4;stroke-dasharray:none;stroke-opacity:1"/>
      <path sodipodi:nodetypes="cc" inkscape:connector-curvature="0" id="path4910-58" d="m 232.31567,531.10852 c -5.49639,7.69663 -9.88893,16.26969 -11.42857,23.92857" style="display:inline;fill:none;fill-rule:evenodd;stroke:#000000;stroke-width:2.83464575;stroke-linecap:round;stroke-linejoin:miter;stroke-miterlimit:4;stroke-dasharray:none;stroke-opacity:1"/>
    </g>
    <path style="fill:#cb0005;fill-opacity:1;fill-rule:evenodd;stroke:#000000;stroke-width:2.83464575;stroke-linecap:butt;stroke-linejoin:miter;stroke-miterlimit:4;stroke-dasharray:none;stroke-opacity:1" d="m 266.68027,487.93947 -13.8896,0 c -20.20547,7.38428 -26.38563,17.65767 -30.05203,27.27412 -2.58593,7.18552 -1.66658,14.2599 7.82868,15.40482 l 32.32488,0.75762 c 4.28224,0.31884 8.6412,1.05962 11.61675,-5.80838 3.03812,-4.87666 10.87107,-14.04901 27.27412,-11.86929 9.68494,2.61475 11.22331,23.76479 14.49241,26.73754 0,0 6.11237,-12.0988 4.86526,-17.87977 -2.07611,-9.62389 -9.42544,-20.41787 -13.54928,-24.76768 -5.32244,-5.61407 -14.23426,-8.87753 -24.49621,-9.3439 z" id="path4704" inkscape:connector-curvature="0" sodipodi:nodetypes="ccccccccsscc"/>
    <path style="fill:#f30000;fill-opacity:1;fill-rule:evenodd;stroke:#000000;stroke-width:2.83464575;stroke-linecap:butt;stroke-linejoin:miter;stroke-miterlimit:4;stroke-dasharray:none;stroke-opacity:1" d="m 279.81226,404.85442 18.68782,2.02031 -4.54569,53.03301 c 39.98233,8.67143 36.62248,36.17594 38.89087,53.033 l -1.23205,31.55241 c 7.79069,2.17982 -11.463,18.61458 -11.20359,-1.06618 l 0.39158,-9.53274 c 2.27004,-8.96339 0.63298,-15.40973 0.63298,-15.40973 l 0.55194,-14.13005 c -2.87269,-36.60988 -23.72677,-34.70876 -30.05204,-35.60788 l -0.50507,9.09137 8.5863,0 c 10.68885,2.14755 9.45652,10.76075 10.10152,17.42514 l -0.25254,55.1706 c -2.18866,1.73471 -4.91304,3.81539 -7.1017,2.21683 -3.80316,-2.96282 -3.14215,-6.34233 -2.99982,-8.64757 -0.16413,-1.97927 1.51998,-4.42061 4.04061,-7.07107 l -1.01015,-37.88072 c -0.70396,-11.60507 -6.82678,-14.34291 -14.89975,-13.8896 l -31.56727,-0.50508 c -3.34568,-0.37791 -5.21458,0.17745 -6.56599,3.78808 l -6.31345,2.52538 c -0.9953,-12.40243 5.21278,-13.35907 10.10152,-14.64721 l 20.20305,0.50507 z" id="path4702" inkscape:connector-curvature="0" sodipodi:nodetypes="ccccccccccccccccccccccccc"/>
    <path style="fill:#d40606;fill-opacity:1;fill-rule:evenodd;stroke:#000000;stroke-width:2.83464575;stroke-linecap:butt;stroke-linejoin:miter;stroke-miterlimit:4;stroke-dasharray:none;stroke-opacity:1" d="m 395.04887,485.7279 c -2.40159,-0.97842 -0.63232,-56.78479 36.79135,-63.44835 48.48148,-8.63248 64.64976,31.56727 64.64976,31.56727 -0.0808,2.48501 -0.77953,4.661 -3.53554,5.80838 0,0 -14.60662,-38.55008 -42.67894,-20.45559 -24.35219,15.69662 -20.84555,53.80857 -20.84555,53.80857 z" id="path4833" inkscape:connector-curvature="0" sodipodi:nodetypes="csccscc"/>
    <path style="fill:#717171;fill-opacity:1;fill-rule:evenodd;stroke:#000000;stroke-width:2.83464575;stroke-linecap:butt;stroke-linejoin:miter;stroke-miterlimit:4;stroke-dasharray:none;stroke-opacity:1" d="m 456.20452,461.06334 c -0.67909,-0.003 -1.38224,0.0396 -2.11328,0.0976 -8.23416,0.65409 -15.66986,11.92378 -14.5664,23.30274 0.74904,7.72422 6.24811,18.53202 15.35742,19.28515 12.50566,1.03393 19.07503,-16.49274 17.55078,-25.625 -1.5063,-9.02475 -6.04217,-17.00859 -16.22852,-17.06054 z m 1.09375,4.46177 c 3.49584,0.19788 5.13695,1.33615 5.74247,2.59905 l -5.52343,6.41657 c -1.21321,-0.57183 0.0403,-0.69418 -1.70872,-0.78878 -1.21538,-2.83896 -4.45618,-6.36523 -4.45618,-6.36523 0.81005,-1.07212 4.42377,-1.94776 5.94586,-1.86161 z m -9.16546,4.92411 c 1.57281,1.66836 2.25355,3.11271 3.77038,4.83705 -0.51731,0.67467 -0.0446,0.58035 -0.47266,1.36663 -2.25789,0.26186 -6.85534,1.45201 -6.19113,-0.42298 0.90664,-2.95309 2.26257,-6.32877 2.89341,-5.7807 z m 17.60464,1.66797 c 1.69637,2.35354 2.24139,3.46673 1.6515,9.53013 -3.51842,-0.46437 -3.05861,-0.31157 -5.00083,-0.71289 -0.20338,-1.62809 0.79451,-1.85919 -1.40625,-4.375 0,0 3.66617,-3.08202 4.75558,-4.44224 z m -8.90597,4.56919 c 1.62276,0.12998 3.68919,2.89137 3.95508,4.875 0.39394,2.93896 -2.56077,5.85947 -4.45118,5.13477 -2.52841,-0.96927 -3.70525,-3.5865 -3.5625,-5.3125 0.19018,-2.29957 1.92378,-4.41133 3.74024,-4.6875 0.10357,-0.0158 0.21017,-0.0184 0.31836,-0.01 z m -7.63086,4.02735 c -0.21896,1.22405 0.3701,4.63247 2.31445,6.60742 -3.15592,3.92857 -4.43164,2.9693 -4.43164,2.9693 -2.136,-3.31148 -2.95613,-5.58442 -2.86188,-8.05915 z m 12.77399,3.86132 c 3.5915,0.28835 5.1767,2.23217 4.83203,3.26618 -0.94791,2.73072 -1.16081,3.5163 -2.5304,5.7701 -0.52964,0.75872 -2.57142,-3.95416 -3.93054,-6.10659 1.20671,-0.58167 1.51633,-0.72917 1.62891,-2.92969 z m -8.35602,4.15821 c 1.22251,0.96767 1.87206,1.27803 3.60547,1.05859 1.35944,2.46904 1.78935,4.88791 3.03096,6.30162 -1.81445,4.4657 -8.77628,1.10962 -12.32143,-3.63896 z" id="path4761-6" inkscape:connector-curvature="0" sodipodi:nodetypes="sssssssccccsccccccccccccssccccccccccccccccccc"/>
    <path style="fill:#ff0101;fill-opacity:1;fill-rule:evenodd;stroke:#000000;stroke-width:2.83464575;stroke-linecap:butt;stroke-linejoin:miter;stroke-miterlimit:4;stroke-dasharray:none;stroke-opacity:1" d="m 437.39605,495.38934 17.80394,-19.82424 c 4.77707,-2.70724 11.04817,3.5077 5.93465,10.35406 0,0 -16.78683,13.95354 -21.59201,16.54125 -0.66886,-2.58108 -2.14658,-7.07107 -2.14658,-7.07107 z" id="path4863" inkscape:connector-curvature="0" sodipodi:nodetypes="ccccc"/>
    <path style="color:#000000;font-style:normal;font-variant:normal;font-weight:normal;font-stretch:normal;font-size:medium;line-height:normal;font-family:sans-serif;text-indent:0;text-align:start;text-decoration:none;text-decoration-line:none;text-decoration-style:solid;text-decoration-color:#000000;letter-spacing:normal;word-spacing:normal;text-transform:none;direction:ltr;block-progression:tb;writing-mode:lr-tb;baseline-shift:baseline;text-anchor:start;white-space:normal;clip-rule:nonzero;display:inline;overflow:visible;visibility:visible;opacity:1;isolation:auto;mix-blend-mode:normal;color-interpolation:sRGB;color-interpolation-filters:linearRGB;solid-color:#000000;solid-opacity:1;fill:#868686;fill-opacity:1;fill-rule:evenodd;stroke:#000000;stroke-width:2.83464575;stroke-linecap:butt;stroke-linejoin:round;stroke-miterlimit:4;stroke-dasharray:none;stroke-dashoffset:0;stroke-opacity:1;color-rendering:auto;image-rendering:auto;shape-rendering:auto;text-rendering:auto;enable-background:accumulate" d="m 455.57227,406.82617 c -0.27926,-0.004 -0.55719,0.039 -0.82227,0.12695 l -52.85742,17.5 c -2.39272,0.79339 -2.2406,4.2279 0.21289,4.80665 l 30.35742,7.14257 c 0.43776,0.10313 0.89524,0.0863 1.32422,-0.0488 l 52.07812,-16.39258 -31.47265,59.99023 c -1.43075,3.03237 3.12122,4.35663 4.42773,2.32227 l 34.72852,-64.15821 c 0.65243,-4.09332 -1.08012,-7.1419 -3.61914,-7.34375 l -34.10742,-3.92773 c -0.083,-0.01 -0.16642,-0.0159 -0.25,-0.0176 z m 0.22461,5.04688 28.63085,3.29687 -11.93554,3.75781 -21.70703,-5.39453 5.01172,-1.66015 z m -11.71876,3.8789 19.94141,5.8418 -11.11914,3.5 -22.21875,-4.90625 13.39648,-4.43555 z m -22.03515,7.29493 19.58398,5.59765 -8.6875,2.73438 -21.07617,-4.96094 10.17969,-3.37109 z" id="path4888" inkscape:connector-curvature="0"/>
    <path style="fill:#a6a6a6;fill-opacity:1;fill-rule:evenodd;stroke:#000000;stroke-width:2.83464575;stroke-linecap:butt;stroke-linejoin:miter;stroke-miterlimit:4;stroke-dasharray:none;stroke-opacity:1" d="m 456.1515,477.40049 c -2.06383,2.57994 -2.74089,6.21472 0.88388,8.46003 0,0 6.78031,-0.39757 5.68211,-5.17703 -0.65584,-2.85425 -6.56599,-3.283 -6.56599,-3.283 z" id="path4867" inkscape:connector-curvature="0" sodipodi:nodetypes="ccsc"/>
    <path style="fill:#383838;fill-opacity:1;fill-rule:evenodd;stroke:#000000;stroke-width:2.83464575;stroke-linecap:butt;stroke-linejoin:miter;stroke-miterlimit:4;stroke-dasharray:none;stroke-opacity:1" d="m 355.96499,301.10067 c 1.41417,-3.51841 4.48442,-6.30739 7.54025,0.65301 2.25378,5.13353 1.69758,9.4157 0.25254,12.37437 -2.41279,4.94013 -7.33305,4.30271 -7.91906,0.60967 3.23389,-3.37477 5.2598,-6.49454 0.12627,-13.63705 z" id="path4706-7" inkscape:connector-curvature="0" sodipodi:nodetypes="csscc"/>
    <path style="fill:#2e2e2e;fill-opacity:1;fill-rule:evenodd;stroke:#000000;stroke-width:2.83464575;stroke-linecap:butt;stroke-linejoin:miter;stroke-miterlimit:4;stroke-dasharray:none;stroke-opacity:1" d="m 252.2856,303.83917 c -1.41417,-3.51841 -8.05585,-5.95025 -11.11168,1.01015 -2.25378,5.13353 -1.69331,9.41362 -0.25254,12.37437 2.40506,4.94234 7.00217,5.0966 9.84899,0.75761 -4.18252,-3.59795 -8.12836,-7.25225 1.51523,-14.14213 z" id="path4706" inkscape:connector-curvature="0" sodipodi:nodetypes="csscc"/>
    <path style="fill:#bcbcbc;fill-opacity:1;fill-rule:evenodd;stroke:#000000;stroke-width:2.83464575;stroke-linecap:butt;stroke-linejoin:miter;stroke-miterlimit:4;stroke-dasharray:none;stroke-opacity:1" d="m 306.60715,540.04077 c 12.53759,2.4133 8.23624,10.68332 -10e-6,10.89286 -4.68218,-3.64615 -3.3465,-6.77444 10e-6,-10.89286 z" id="path4755" inkscape:connector-curvature="0" sodipodi:nodetypes="ccc"/>
  </g>
</svg>
