<?xml version="1.0" encoding="UTF-8"?>
<svg xmlns="http://www.w3.org/2000/svg" xmlns:xlink="http://www.w3.org/1999/xlink" width="1024pt" height="879pt" viewBox="0 0 1024 879" version="1.1">
<g id="surface1">
<path style=" stroke:none;fill-rule:nonzero;fill:rgb(100%,0%,0%);fill-opacity:1;" d="M 416.605469 866.613281 C 449.546875 757.484375 482.488281 648.355469 515.429688 539.234375 C 545.28125 649.386719 575.136719 759.542969 604.988281 869.699219 C 671.824219 876.261719 738.890625 871.890625 805.667969 865.632812 C 871.988281 859.417969 934.121094 836.359375 991.734375 805.152344 C 1039.796875 778.621094 1011.285156 721.484375 1008.53125 679.71875 C 988.75 558.585938 974.171875 436.191406 946.441406 316.660156 C 931.089844 250.480469 903.054688 187.855469 874.851562 126.492188 C 858.3125 90.5 864.054688 30.804688 860.324219 4.921875 L 166.453125 4.921875 C 166.789062 56.238281 168.382812 108.085938 142.570312 155.605469 C 104.207031 226.230469 76.304688 303.40625 66.136719 384.507812 C 52.824219 490.726562 32.769531 596.402344 6.488281 700.296875 C -3.90625 751.527344 29.582031 799.191406 80.488281 820.363281 C 177.78125 860.824219 285.402344 881.542969 389.957031 870.824219 C 389.957031 870.824219 407.761719 868.261719 416.601562 866.605469 Z M 416.605469 866.613281 "/>
<path style="fill-rule:nonzero;fill:rgb(60.784314%,14.509804%,87.45098%);fill-opacity:1;stroke-width:2.6875;stroke-linecap:butt;stroke-linejoin:miter;stroke:rgb(100%,100%,100%);stroke-opacity:1;stroke-miterlimit:4;" d="M 288.170382 644.659736 C 293.296846 645.935991 298.298789 648.06827 302.355829 651.508848 C 306.551125 654.336933 310.429622 657.796737 314.463771 660.661443 C 315.88021 661.667615 317.386378 663.342127 316.316037 664.901282 C 315.715401 666.890738 313.569226 667.61401 312.187581 668.940619 C 311.027511 669.509166 309.71362 669.027595 308.479386 669.08802 L 295.010856 668.475527 C 292.731003 660.53693 290.450235 652.598333 288.170382 644.660652 Z M 288.170382 644.659736 " transform="matrix(4.266311,0,0,4.266635,-651.764353,-1982.433876)"/>
<path style="fill-rule:nonzero;fill:rgb(87.45098%,14.509804%,63.921569%);fill-opacity:1;stroke-width:2.6875;stroke-linecap:butt;stroke-linejoin:miter;stroke:rgb(100%,100%,100%);stroke-opacity:1;stroke-miterlimit:4;" d="M 262.580175 627.430298 C 262.823726 626.950559 262.29817 626.54223 261.888895 626.444268 C 258.382133 625.860157 255.345076 628.288154 252.568965 630.076192 C 249.106152 631.824863 246.575424 634.901973 243.207834 636.788889 C 236.593513 639.072231 230.29416 642.473441 223.526934 644.13422 C 215.820298 646.025713 213.53312 649.935045 212.162461 656.818946 C 211.592956 659.682737 212.162461 662.899924 212.162461 665.940413 L 212.416083 667.967406 L 226.604277 669.867139 L 250.419128 667.840147 L 262.960151 626.796749 L 262.706529 626.638361 " transform="matrix(4.266311,0,0,4.266635,-651.764353,-1982.433876)"/>
<path style="fill-rule:nonzero;fill:rgb(60.784314%,14.509804%,87.45098%);fill-opacity:1;stroke-width:2.6875;stroke-linecap:butt;stroke-linejoin:miter;stroke:rgb(100%,100%,100%);stroke-opacity:1;stroke-miterlimit:4;" d="M 201.279596 547.840164 C 210.751516 536.456412 222.08028 549.35812 221.804683 561.619869 C 221.575782 571.856457 228.54261 587.000308 215.039288 590.957247 C 202.321553 598.215602 221.175663 616.717633 207.229189 619.846929 C 196.343577 620.537242 198.926495 606.28329 193.684664 602.249446 C 184.906772 595.493719 194.333827 586.190976 198.332268 580.383743 C 202.498265 574.332977 172.645008 575.513101 179.618245 559.595623 C 183.897777 551.488568 196.812366 555.206552 201.280512 547.840164 Z M 201.279596 547.840164 " transform="matrix(4.266311,0,0,4.266635,-651.764353,-1982.433876)"/>
<path style="fill-rule:nonzero;fill:rgb(87.45098%,62.352941%,14.509804%);fill-opacity:1;stroke-width:2.6875;stroke-linecap:butt;stroke-linejoin:miter;stroke:rgb(100%,100%,100%);stroke-opacity:1;stroke-miterlimit:4;" d="M 339.179576 600.68022 C 329.762592 605.044572 310.121063 609.877677 311.745344 620.082221 C 313.343988 630.128378 326.615663 636.716562 334.96963 643.723145 C 341.648043 649.322552 353.443765 658.006394 360.620266 651.463987 C 372.574387 640.564552 380.332297 621.315446 375.636166 605.211199 C 371.428967 590.781465 350.262958 601.703788 354.985641 615.124603 C 358.342244 624.661723 348.023391 635.272764 340.716874 624.523477 C 336.599405 618.466303 358.987745 591.498328 339.179576 600.68022 Z M 339.179576 600.68022 " transform="matrix(4.266311,0,0,4.266635,-651.764353,-1982.433876)"/>
<path style="fill-rule:nonzero;fill:rgb(87.45098%,14.509804%,63.921569%);fill-opacity:1;stroke-width:2.6875;stroke-linecap:butt;stroke-linejoin:miter;stroke:rgb(100%,100%,100%);stroke-opacity:1;stroke-miterlimit:4;" d="M 293.43968 592.339704 C 303.324537 603.455204 317.572246 585.36608 321.991864 574.456574 C 327.886521 565.511805 326.321754 553.17132 335.591325 546.41834 C 344.7144 536.929743 323.032906 529.682375 317.501744 536.064563 C 310.687822 543.929002 320.080084 570.25061 306.607892 559.526958 C 293.136616 548.803306 278.234251 575.242103 293.43968 592.340619 Z M 293.43968 592.339704 " transform="matrix(4.266311,0,0,4.266635,-651.764353,-1982.433876)"/>
<path style="fill-rule:nonzero;fill:rgb(81.960784%,87.843137%,16.862745%);fill-opacity:1;stroke-width:2.6875;stroke-linecap:butt;stroke-linejoin:miter;stroke:rgb(100%,100%,100%);stroke-opacity:1;stroke-miterlimit:4;" d="M 365.330131 511.840444 C 354.159767 513.77039 355.718124 524.758632 358.115175 532.746668 C 360.668793 541.26022 341.46126 558.082245 354.68807 561.904601 C 363.201353 564.366472 371.271483 566.869543 379.988946 566.039153 L 377.7741 553.779235 L 375.175617 540.073688 L 371.055401 525.832553 Z M 365.330131 511.840444 " transform="matrix(4.266311,0,0,4.266635,-651.764353,-1982.433876)"/>
<path style="fill-rule:nonzero;fill:rgb(60.784314%,14.509804%,87.45098%);fill-opacity:1;stroke-width:2.6875;stroke-linecap:butt;stroke-linejoin:miter;stroke:rgb(100%,100%,100%);stroke-opacity:1;stroke-miterlimit:4;" d="M 277.040304 524.07015 C 274.854758 539.146252 294.620809 539.183788 297.854721 526.607095 C 302.307302 516.631435 307.049213 503.759939 318.92917 502.114724 C 331.509564 500.371547 334.61987 483.453391 320.438085 482.531448 C 307.452079 479.957881 292.35469 474.862934 280.256819 482.753007 C 270.093619 490.665054 277.19321 504.005303 277.33055 514.364572 C 277.374499 517.705356 277.561282 520.467523 277.039388 524.07015 Z M 277.040304 524.07015 " transform="matrix(4.266311,0,0,4.266635,-651.764353,-1982.433876)"/>
<path style="fill-rule:nonzero;fill:rgb(87.45098%,62.352941%,14.509804%);fill-opacity:1;stroke-width:2.6875;stroke-linecap:butt;stroke-linejoin:miter;stroke:rgb(100%,100%,100%);stroke-opacity:1;stroke-miterlimit:4;" d="M 179.839822 513.929693 C 192.209627 518.855267 206.255902 516.287194 218.444418 511.024703 C 229.431661 506.281321 236.061547 499.024797 242.725311 489.950937 C 249.021917 481.375128 248.768295 473.138983 237.040328 475.338096 C 226.326849 477.346778 221.747916 486.359297 212.83543 491.825036 C 203.994361 497.247745 205.4108 485.792581 202.882818 482.126782 C 200.828204 479.146718 195.715473 480.127255 192.144619 479.185171 L 192.265479 478.993824 L 191.459747 480.158383 L 190.384829 490.728226 L 188.145262 497.178164 L 186.085154 501.925209 L 183.218399 507.478839 L 179.838906 513.930609 Z M 179.839822 513.929693 " transform="matrix(4.266311,0,0,4.266635,-651.764353,-1982.433876)"/>
<path style="fill-rule:nonzero;fill:rgb(81.960784%,87.843137%,16.862745%);fill-opacity:1;stroke-width:2.6875;stroke-linecap:butt;stroke-linejoin:miter;stroke:rgb(100%,100%,100%);stroke-opacity:1;stroke-miterlimit:4;" d="M 158.92011 609.970146 C 169.567664 610.409602 190.317074 620.064826 179.428716 632.258826 C 173.809656 638.553123 173.115628 647.787201 169.707752 655.439236 L 166.6945 654.4175 L 160.603905 649.805039 L 156.30423 643.758851 L 153.93007 637.085522 L 154.109528 628.083074 Z M 158.92011 609.970146 " transform="matrix(4.266311,0,0,4.266635,-651.764353,-1982.433876)"/>
<path style="fill:none;stroke-width:2.6875;stroke-linecap:butt;stroke-linejoin:miter;stroke:rgb(0%,0%,0%);stroke-opacity:1;stroke-miterlimit:4;" d="M 250.420044 667.750424 C 258.141329 642.173146 265.862615 616.595867 273.5839 591.020419 C 280.580943 616.837568 287.578902 642.655632 294.575945 668.473696 C 310.241923 670.011794 325.961922 668.987311 341.614166 667.520625 C 357.159284 666.06401 371.722876 660.659612 385.227114 653.345409 C 396.492701 647.127101 389.80971 633.735582 389.16421 623.946691 C 384.527593 595.555975 381.11056 566.869543 374.61069 538.854196 C 371.012367 523.343216 364.44108 508.665372 357.830422 494.283245 C 353.953756 485.847513 355.299693 471.856319 354.425292 465.78999 L 191.785702 465.78999 C 191.864444 477.817362 192.23801 489.969248 186.187702 501.106721 C 177.195558 517.65958 170.655401 535.747789 168.272085 554.75611 C 165.151708 579.651315 160.450999 604.419262 154.290818 628.769725 C 151.854396 640.776956 159.703866 651.948304 171.636013 656.9105 C 194.440953 666.393603 219.666749 671.249596 244.173796 668.73737 C 244.173796 668.73737 248.347117 668.13678 250.419128 667.748593 Z M 250.420044 667.750424 " transform="matrix(4.266311,0,0,4.266635,-651.764353,-1982.433876)"/>
<path style="fill-rule:nonzero;fill:rgb(81.960784%,87.843137%,16.862745%);fill-opacity:1;stroke-width:2.6875;stroke-linecap:butt;stroke-linejoin:miter;stroke:rgb(100%,100%,100%);stroke-opacity:1;stroke-miterlimit:4;" d="M 260.260036 533.439727 C 262.407126 537.497374 259.642919 542.609717 260.137345 547.23225 C 260.625362 551.803512 262.752309 556.053422 263.222014 560.571583 C 263.849202 566.598544 261.41919 571.257698 256.609524 574.596651 C 253.53218 576.896473 250.241501 581.307517 246.610217 580.359939 C 241.162375 578.936283 246.002256 567.79057 245.953729 563.202828 C 245.448316 559.131448 245.751381 554.965767 245.250545 550.895302 C 244.831199 547.484021 243.852419 544.134997 243.503574 540.725548 C 243.173956 537.508361 243.633589 533.589875 246.562605 531.583024 C 250.917216 528.987484 257.853829 528.8941 260.260951 533.440642 Z M 260.260036 533.439727 " transform="matrix(4.266311,0,0,4.266635,-651.764353,-1982.433876)"/>
</g>
</svg>
