<?xml version="1.0" encoding="UTF-8" standalone="no"?>
<!-- Created with Inkscape (http://www.inkscape.org/) -->

<svg
   xmlns:dc="http://purl.org/dc/elements/1.1/"
   xmlns:cc="http://creativecommons.org/ns#"
   xmlns:rdf="http://www.w3.org/1999/02/22-rdf-syntax-ns#"
   xmlns:svg="http://www.w3.org/2000/svg"
   xmlns="http://www.w3.org/2000/svg"
   xmlns:sodipodi="http://sodipodi.sourceforge.net/DTD/sodipodi-0.dtd"
   xmlns:inkscape="http://www.inkscape.org/namespaces/inkscape"
   width="88.439201mm"
   height="80.52578mm"
   viewBox="0 0 313.36725 285.32756"
   id="svg5925"
   version="1.1"
   inkscape:version="0.91 r13725"
   sodipodi:docname="skirt.svg">
  <defs
     id="defs5927" />
  <sodipodi:namedview
     id="base"
     pagecolor="#ffffff"
     bordercolor="#666666"
     borderopacity="1.0"
     inkscape:pageopacity="0.0"
     inkscape:pageshadow="2"
     inkscape:zoom="0.35"
     inkscape:cx="1205.9694"
     inkscape:cy="99.806647"
     inkscape:document-units="px"
     inkscape:current-layer="layer1"
     showgrid="false"
     fit-margin-top="0"
     fit-margin-left="0"
     fit-margin-right="0"
     fit-margin-bottom="0"
     inkscape:window-width="1855"
     inkscape:window-height="1056"
     inkscape:window-x="65"
     inkscape:window-y="24"
     inkscape:window-maximized="1" />
  <metadata
     id="metadata5930">
    <rdf:RDF>
      <cc:Work
         rdf:about="">
        <dc:format>image/svg+xml</dc:format>
        <dc:type
           rdf:resource="http://purl.org/dc/dcmitype/StillImage" />
        <dc:title></dc:title>
      </cc:Work>
    </rdf:RDF>
  </metadata>
  <g
     inkscape:label="Layer 1"
     inkscape:groupmode="layer"
     id="layer1"
     transform="translate(1733.8265,-346.84128)">
    <g
       transform="matrix(1.25,0,0,1.25,-1878.3765,-917.37122)"
       id="g6497">
      <g
         id="g5880">
        <path
           style="opacity:1;fill:#000000"
           inkscape:connector-curvature="0"
           d="m 185.13,1015.01 c 1.33,-1.48 3.06,-2.5 4.67,-3.64 9.26,1.99 18.77,0.59 28.14,1.45 5.74,0.34 11.23,2.39 16.99,2.67 5.97,0.45 11.96,0.1 17.94,0.39 9.08,0.52 18.09,-1.66 27.17,-0.94 9.2,0.48 19.34,-3.08 27.72,2.16 -3.09,10.95 0.28,22.07 1.52,33 0.21,1.42 1.16,2.57 1.83,3.81 -0.99,12.51 3.3,24.52 7.46,36.1 2.1,5.4 2.3,11.45 5.11,16.58 0.01,0.55 0.03,1.66 0.04,2.21 0.53,0.34 1.59,1.03 2.12,1.37 -0.37,0.38 -1.11,1.14 -1.48,1.51 1.5,3.2 2.22,6.65 3.07,10.05 2.32,5.6 2.87,11.79 5.63,17.24 3.83,7.13 6.23,14.91 9.77,22.19 7.5,16.71 16.73,32.66 23.03,49.91 1.02,1.78 0.34,4.3 -1.53,5.23 -5.01,2.81 -10.94,2.4 -16.45,3.14 -7.86,1.17 -14.76,6.49 -22.92,5.85 -0.72,0.01 -2.17,0.01 -2.9,0.02 -0.37,1.28 -0.75,2.52 -1.1,3.84 -17.37,4.39 -35.54,3.51 -52.96,7.51 -5.75,0.69 -11.47,-2.68 -17.15,-0.86 -7.23,2.82 -15.16,2.43 -22.77,2.85 -9.69,0.01 -19.4,-0.47 -29.08,0.08 -14.13,2.06 -28.7,0.47 -42.36,-3.53 0.66,-3.25 2.26,-6.15 4,-8.91 -11.55,-1.17 -21.34,-8.09 -32.54,-10.53 -4.56,-0.98 -8.98,-2.73 -12.46,-5.91 0.58,-1.39 1.18,-2.75 1.79,-4.12 1.83,-6.84 6.25,-12.57 9.77,-18.61 3.72,-5.93 7.59,-11.77 11,-17.88 1.8,-3.23 2.69,-6.94 5.06,-9.84 4.9,-6.39 8.39,-13.68 11.99,-20.85 2.88,-1.94 3.26,-5.66 4.76,-8.53 2.65,-6.79 7.88,-12.52 8.4,-20.05 2.01,-5.44 3.22,-11.42 6.6,-16.19 0.66,-3.17 0.74,-6.58 2.42,-9.43 5.04,-8.16 6.06,-18.25 12.13,-25.86 -0.87,-5.18 -2.43,-10.34 -2.1,-15.63 0.39,-4.09 -1.43,-7.94 -1.79,-11.96 -0.47,-5.28 -0.92,-10.61 -0.54,-15.89 m 8.1,3.22 c -0.33,11.13 2.29,22.05 2.97,33.13 19.58,-1.92 39.3,-1.56 58.89,0.05 12.36,1.01 24.61,-2.56 36.96,-1.06 3.07,0.47 6.14,-0.2 8.99,-1.37 -1.33,-9.27 -3.18,-18.57 -2.65,-27.98 -12.16,-1.09 -24.24,1.36 -36.38,1.7 -23,-0.09 -45.78,-4.22 -68.78,-4.47 m 14.97,38.83 c 0.95,1.7 2.7,3.61 1.44,5.65 -2.57,6.52 -10.53,9.36 -16.95,7.03 -7.74,17.05 -14.74,34.44 -20.74,52.18 -0.92,2.58 -1.63,5.24 -2.02,7.97 2.86,-0.53 6.12,-1.61 8.53,0.71 5.74,3.37 4.47,11.95 -0.46,15.48 -4.97,4.52 -12.86,4.05 -17.69,-0.44 -5.08,9.03 -10.78,17.69 -16.33,26.43 0.08,0.39 0.23,1.16 0.31,1.55 2.88,1.14 5.67,2.97 6.01,6.37 1.16,2.71 -1.91,4.92 -4.36,5.01 -2.7,-0.2 -4.49,-2.47 -6.43,-4.06 -4.34,8.73 -9.71,16.9 -14.79,25.22 -0.88,0.13 -1.76,0.29 -2.64,0.45 14.06,3.36 26.62,12.6 41.47,12.45 0.46,-3.76 1.46,-7.4 2.85,-10.91 -4.88,-0.23 -10.23,-2.53 -11.76,-7.56 -2.28,-5.92 1.96,-13.28 8.41,-13.72 3.87,-1.35 5.7,3.06 8.95,4.02 1.41,0.65 3.61,1.28 3.7,3.16 0.14,9.95 -5.01,18.99 -5.64,28.85 -1.7,2.4 -3.04,5.03 -4.24,7.73 9.3,1.55 18.67,3.43 28.15,2.81 18.27,-1.19 36.85,0.66 54.85,-3.41 0.33,-3.02 1.05,-5.97 1.28,-8.99 -0.16,-3.01 -0.62,-5.99 -0.51,-9 0.62,-4.13 -4.04,-6.92 -3.05,-11.09 0.27,-3.28 6.12,-4.42 6.98,-1 2.57,9.58 4.5,19.67 2.45,29.55 5.46,1.03 11.03,2.08 16.6,1.24 13.85,-2.16 27.94,-2.39 41.71,-5.08 -1.44,-6.57 -3.61,-12.96 -5.98,-19.25 -2.77,0.43 -5.87,1.42 -8.46,-0.19 -4.43,-2.67 -5.15,-9.02 -2.69,-13.26 1.97,-3.71 6.49,-5.45 10.52,-4.59 3.71,2.15 4.79,6.67 4.99,10.66 5.64,5.14 6.94,12.86 8.46,19.95 5.74,0.5 11.74,0.69 17.12,-1.72 6.46,-2.66 13.49,-3.24 20.09,-5.35 -0.07,-0.61 -0.2,-1.81 -0.27,-2.41 -3.67,-0.48 -7.72,1.64 -11.09,-0.59 -2.48,-1.34 -1.98,-4.62 -2.8,-6.92 1.9,-3.28 4,-6.42 6.66,-9.12 -3.25,-10.22 -10.52,-18.69 -13.5,-29.03 -4.49,-10.45 -9.94,-20.61 -12.6,-31.75 -2.32,-5.56 -3.38,-11.51 -5.48,-17.13 -4.37,3.07 -10.39,3.85 -14.98,0.78 -3.99,-2.18 -6.83,-7.41 -4.48,-11.74 2.74,-4.59 8.5,-6.13 13.55,-5.94 -3.45,-9.51 -4.76,-19.65 -8.58,-29.03 -1.75,-3.99 -1.94,-8.37 -1.67,-12.64 -16.51,-0.83 -33,1.84 -49.49,0.79 0.57,1.5 1.93,2.25 3.35,2.81 1.55,2.33 2.75,5.15 1.8,7.98 -1.78,5.15 -7.6,7.9 -12.78,7.79 -4.26,0.01 -8.47,-3.45 -8.74,-7.77 0.38,-5.14 4.65,-8.67 8.92,-10.84 -12.58,-1.59 -25.33,-0.92 -37.95,-0.09 m -9.3,0.79 c -1.46,3.38 -4.56,6.01 -4.92,9.84 5.64,2.06 11.81,-1.26 14,-6.65 -0.97,-1.37 -1.93,-2.75 -2.86,-4.12 -2.08,0.29 -4.15,0.61 -6.22,0.93 m 40.32,10.25 c 0.93,4.83 6.67,6.9 10.9,5.01 4.63,-1.19 8.87,-6.31 5.91,-11.01 -1.61,-0.69 -3.08,-1.66 -4.38,-2.8 -5.57,-1.78 -11.57,3.41 -12.43,8.8 m 62.47,38.81 c 0.03,4.32 4.29,7.35 8.23,7.97 2.9,0.6 5.55,-1.05 7.87,-2.53 -0.29,-4.27 -1.72,-9.19 -5.73,-11.35 -4.03,-0.4 -9.18,1.7 -10.37,5.91 m -134.09,25.36 c -1.9,3.64 -3.88,7.24 -5.73,10.91 1.44,1.19 2.84,2.56 4.65,3.21 5.45,1.71 11.69,-2.11 13.19,-7.48 0.89,-3.45 -1.97,-5.91 -4.63,-7.4 -2.4,0.92 -4.96,0.86 -7.48,0.76 m -25.94,44.38 c 0.17,2.73 3.03,6.98 6.04,4.82 0.11,-3.45 -2.96,-4.97 -6.04,-4.82 m 16.08,24.6 c 1.63,3.17 5.39,3.88 8.59,4.37 2.64,-4.1 1.88,-8.98 2.31,-13.55 -1.62,-1.3 -3.21,-3.64 -5.6,-2.64 -5.39,0.55 -8.17,7.39 -5.3,11.82 m 142.63,2.24 c 1.92,1.79 4.58,0.96 6.83,0.46 0.25,-2.69 3.47,-4.24 2.75,-7.06 -0.36,-2.88 -2.31,-7.23 -5.91,-6.03 -5.54,0.98 -7.71,8.84 -3.67,12.63 m 50.97,-7.15 c -2.41,2.79 -4.76,6.15 -3.57,10.03 2.95,1.4 6.12,0.57 9.15,-0.04 -1.13,-3.52 -2.61,-6.92 -4.29,-10.2 -0.32,0.05 -0.97,0.16 -1.29,0.21 z"
           id="path440" />
        <path
           style="opacity:1;fill:#fec0ef"
           inkscape:connector-curvature="0"
           d="m 193.23,1018.23 c 23,0.25 45.78,4.38 68.78,4.47 12.14,-0.34 24.22,-2.79 36.38,-1.7 -0.53,9.41 1.32,18.71 2.65,27.98 -2.85,1.17 -5.92,1.84 -8.99,1.37 -12.35,-1.5 -24.6,2.07 -36.96,1.06 -19.59,-1.61 -39.31,-1.97 -58.89,-0.05 -0.68,-11.08 -3.3,-22 -2.97,-33.13 z"
           id="path446" />
        <path
           style="opacity:1;fill:#13eb5a"
           inkscape:connector-curvature="0"
           d="m 208.2,1057.06 c 12.62,-0.83 25.37,-1.5 37.95,0.09 -4.27,2.17 -8.54,5.7 -8.92,10.84 0.27,4.32 4.48,7.78 8.74,7.77 5.18,0.11 11,-2.64 12.78,-7.79 0.95,-2.83 -0.25,-5.65 -1.8,-7.98 -1.42,-0.56 -2.78,-1.31 -3.35,-2.81 16.49,1.05 32.98,-1.62 49.49,-0.79 -0.27,4.27 -0.08,8.65 1.67,12.64 3.82,9.38 5.13,19.52 8.58,29.03 -5.05,-0.19 -10.81,1.35 -13.55,5.94 -2.35,4.33 0.49,9.56 4.48,11.74 4.59,3.07 10.61,2.29 14.98,-0.78 2.1,5.62 3.16,11.57 5.48,17.13 2.66,11.14 8.11,21.3 12.6,31.75 2.98,10.34 10.25,18.81 13.5,29.03 -2.66,2.7 -4.76,5.84 -6.66,9.12 0.82,2.3 0.32,5.58 2.8,6.92 3.37,2.23 7.42,0.11 11.09,0.59 0.07,0.6 0.2,1.8 0.27,2.41 -6.6,2.11 -13.63,2.69 -20.09,5.35 -5.38,2.41 -11.38,2.22 -17.12,1.72 -1.52,-7.09 -2.82,-14.81 -8.46,-19.95 -0.2,-3.99 -1.28,-8.51 -4.99,-10.66 -4.03,-0.86 -8.55,0.88 -10.52,4.59 -2.46,4.24 -1.74,10.59 2.69,13.26 2.59,1.61 5.69,0.62 8.46,0.19 2.37,6.29 4.54,12.68 5.98,19.25 -13.77,2.69 -27.86,2.92 -41.71,5.08 -5.57,0.84 -11.14,-0.21 -16.6,-1.24 2.05,-9.88 0.12,-19.97 -2.45,-29.55 -0.86,-3.42 -6.71,-2.28 -6.98,1 -0.99,4.17 3.67,6.96 3.05,11.09 -0.11,3.01 0.35,5.99 0.51,9 -0.23,3.02 -0.95,5.97 -1.28,8.99 -18,4.07 -36.58,2.22 -54.85,3.41 -9.48,0.62 -18.85,-1.26 -28.15,-2.81 1.2,-2.7 2.54,-5.33 4.24,-7.73 0.63,-9.86 5.78,-18.9 5.64,-28.85 -0.09,-1.88 -2.29,-2.51 -3.7,-3.16 -3.25,-0.96 -5.08,-5.37 -8.95,-4.02 -6.45,0.44 -10.69,7.8 -8.41,13.72 1.53,5.03 6.88,7.33 11.76,7.56 -1.39,3.51 -2.39,7.15 -2.85,10.91 -14.85,0.15 -27.41,-9.09 -41.47,-12.45 0.88,-0.16 1.76,-0.32 2.64,-0.45 5.08,-8.32 10.45,-16.49 14.79,-25.22 1.94,1.59 3.73,3.86 6.43,4.06 2.45,-0.09 5.52,-2.3 4.36,-5.01 -0.34,-3.4 -3.13,-5.23 -6.01,-6.37 -0.08,-0.39 -0.23,-1.16 -0.31,-1.55 5.55,-8.74 11.25,-17.4 16.33,-26.43 4.83,4.49 12.72,4.96 17.69,0.44 4.93,-3.53 6.2,-12.11 0.46,-15.48 -2.41,-2.32 -5.67,-1.24 -8.53,-0.71 0.39,-2.73 1.1,-5.39 2.02,-7.97 6,-17.74 13,-35.13 20.74,-52.18 6.42,2.33 14.38,-0.51 16.95,-7.03 1.26,-2.04 -0.49,-3.95 -1.44,-5.65 m 76.19,5.44 c -2.93,0.94 -5.88,2.67 -7.3,5.52 -0.65,4.44 1.79,9.2 5.95,11.03 5.33,2.67 12.52,0.7 15.4,-4.61 2.26,-3.41 0.67,-8.15 -2.39,-10.48 -3.32,-2.46 -7.82,-2.65 -11.66,-1.46 m -79.9,21.12 c -5.17,1.61 -9.92,7.32 -7.94,12.9 2.92,6.08 11.16,7.08 16.97,5.15 5.97,-1.84 9.84,-10.35 5.18,-15.31 -3.36,-4.19 -9.49,-4.54 -14.21,-2.74 m 61.94,6.9 c -6.52,1.12 -13.31,7.33 -11.22,14.46 3.38,6.63 12.7,7.58 18.54,3.74 4.39,-2.55 8.11,-8.59 5.03,-13.43 -2.29,-4.38 -7.79,-5.84 -12.35,-4.77 m -74.33,20.65 c -2.97,1.09 -2,5.22 -0.74,7.35 3.4,3.36 8.54,-1.78 7.52,-5.59 -1.24,-2.43 -4.51,-2.7 -6.78,-1.76 m 28.2,0.19 c -4.52,1.18 -4.93,6.24 -7.85,9.13 -1.92,2.01 -0.72,5.22 0.66,7.23 3.73,4.6 10.29,6 15.94,5.29 4.56,-0.31 7.82,-4.78 8.17,-9.09 0.51,-8.37 -8.96,-15.9 -16.92,-12.56 m 40.94,8.95 c -1.93,1.56 -1.92,4.82 0.26,6.17 3.67,3.18 10.37,-3.63 6.44,-6.78 -2.22,-0.5 -4.61,-0.3 -6.7,0.61 m 16.79,14.72 c -0.48,3.28 0.18,6.64 0.13,9.97 1.92,2.41 4.44,4.66 7.68,4.87 5.73,0.45 11.64,-2.51 14.94,-7.17 1.24,-3.16 0.33,-7.09 -1.99,-9.56 -5.46,-5.89 -16.51,-5.01 -20.76,1.89 m 38.16,2.17 c -1.99,1.66 -4.91,4.57 -2.54,7.13 2.45,3.4 7.6,0.96 8.89,-2.29 0.34,-3.26 -3.35,-6.27 -6.35,-4.84 m -65.74,4.31 c -6.01,3.55 -10.94,12.64 -5.75,18.83 6.92,5.7 17.52,-0.23 18.84,-8.42 0.99,-2.45 -1.14,-4.27 -2.59,-5.89 -2.65,-2.82 -6.42,-5.51 -10.5,-4.52 m -53.26,14.79 c -4.36,1.2 -8.07,5.14 -8.09,9.81 0.8,2.53 1.99,5.01 3.73,7.04 4.25,4.16 12.02,4.23 16.14,-0.15 1.76,-2.45 3.19,-5.16 4.31,-7.95 -0.37,-2.54 -0.71,-5.7 -3.22,-7.04 -3.75,-2.48 -8.6,-2.87 -12.87,-1.71 m 122.26,6.21 c -2.6,0.54 -5.22,2.19 -5.95,4.9 -0.81,3.8 0.8,7.96 3.36,10.79 5.83,4.73 14.93,0.26 17.37,-6.14 0.54,-7.49 -8.52,-11.17 -14.78,-9.55 m -41.14,11.77 c -2.1,2.27 -3.2,5.27 -5.05,7.75 1.6,1.01 2.83,2.81 4.74,3.25 4.68,0.07 9,-4.49 7.94,-9.23 -2.11,-1.43 -5.17,-3.2 -7.63,-1.77 m -39.79,6.3 c -6.86,1.57 -12.53,9.18 -10.53,16.2 5.58,7.36 17.15,3.25 20.6,-4.16 4.37,-6.1 -3.56,-14.2 -10.07,-12.04 m -38.05,23.96 c -3.44,0.75 -5.73,3.56 -7.82,6.17 -3.17,2.58 -2.98,7.98 0.03,10.64 6.11,6.09 18.22,3.01 20.51,-5.36 0.2,-2.92 -0.09,-6.04 -1.35,-8.7 -2.67,-3.24 -7.52,-3.83 -11.37,-2.75 m 78.89,2.91 c -4.65,2.82 -7.98,11.01 -2.66,14.78 6.03,3.72 16.91,0.61 17.51,-7.24 0.05,-7.23 -9.11,-10.47 -14.85,-7.54 m -47.9,11.08 c -1.77,1.73 -2.82,4.77 -0.66,6.67 3.02,3.27 7.45,-1.82 6.68,-5.17 -1.46,-1.73 -3.95,-1.97 -6.02,-1.5 z"
           id="path472" />
        <path
           style="opacity:1;fill:#fec0ef"
           inkscape:connector-curvature="0"
           d="m 198.9,1057.85 c 2.07,-0.32 4.14,-0.64 6.22,-0.93 0.93,1.37 1.89,2.75 2.86,4.12 -2.19,5.39 -8.36,8.71 -14,6.65 0.36,-3.83 3.46,-6.46 4.92,-9.84 z"
           id="path474" />
        <path
           style="opacity:1;fill:#fec0ef"
           inkscape:connector-curvature="0"
           d="m 239.22,1068.1 c 0.86,-5.39 6.86,-10.58 12.43,-8.8 1.3,1.14 2.77,2.11 4.38,2.8 2.96,4.7 -1.28,9.82 -5.91,11.01 -4.23,1.89 -9.97,-0.18 -10.9,-5.01 z"
           id="path478" />
        <path
           style="opacity:1;fill:#000000"
           inkscape:connector-curvature="0"
           d="m 284.39,1062.5 c 3.84,-1.19 8.34,-1 11.66,1.46 3.06,2.33 4.65,7.07 2.39,10.48 -2.88,5.31 -10.07,7.28 -15.4,4.61 -4.16,-1.83 -6.6,-6.59 -5.95,-11.03 1.42,-2.85 4.37,-4.58 7.3,-5.52 m 2.08,2.09 c -3.3,0.78 -8.59,3.12 -6.54,7.37 2.29,7.55 14.41,7.5 16.8,0.03 1.36,-5.54 -5.62,-8.9 -10.26,-7.4 z"
           id="path488" />
        <path
           style="opacity:1;fill:#fec0ef"
           inkscape:connector-curvature="0"
           d="m 286.47,1064.59 c 4.64,-1.5 11.62,1.86 10.26,7.4 -2.39,7.47 -14.51,7.52 -16.8,-0.03 -2.05,-4.25 3.24,-6.59 6.54,-7.37 z"
           id="path492" />
        <path
           style="opacity:1;fill:#000000"
           inkscape:connector-curvature="0"
           d="m 204.49,1083.62 c 4.72,-1.8 10.85,-1.45 14.21,2.74 4.66,4.96 0.79,13.47 -5.18,15.31 -5.81,1.93 -14.05,0.93 -16.97,-5.15 -1.98,-5.58 2.77,-11.29 7.94,-12.9 m 2.05,2.05 c -4.21,0.98 -8.38,4.71 -7.87,9.34 3.78,7.92 18.98,6.42 19.56,-3.09 -0.15,-5.53 -7.02,-8.16 -11.69,-6.25 z"
           id="path518" />
        <path
           style="opacity:1;fill:#fec0ef"
           inkscape:connector-curvature="0"
           d="m 206.54,1085.67 c 4.67,-1.91 11.54,0.72 11.69,6.25 -0.58,9.51 -15.78,11.01 -19.56,3.09 -0.51,-4.63 3.66,-8.36 7.87,-9.34 z"
           id="path530" />
        <path
           style="opacity:1;fill:#000000"
           inkscape:connector-curvature="0"
           d="m 266.43,1090.52 c 4.56,-1.07 10.06,0.39 12.35,4.77 3.08,4.84 -0.64,10.88 -5.03,13.43 -5.84,3.84 -15.16,2.89 -18.54,-3.74 -2.09,-7.13 4.7,-13.34 11.22,-14.46 m -0.25,2.66 c -4.41,1.17 -8.97,4.75 -8.85,9.72 0.84,3.33 4.48,5.23 7.7,5.57 5.58,0.33 11.82,-3.62 12.44,-9.47 -0.78,-5.15 -6.76,-7.42 -11.29,-5.82 z"
           id="path540" />
        <path
           style="opacity:1;fill:#fec0ef"
           inkscape:connector-curvature="0"
           d="m 266.18,1093.18 c 4.53,-1.6 10.51,0.67 11.29,5.82 -0.62,5.85 -6.86,9.8 -12.44,9.47 -3.22,-0.34 -6.86,-2.24 -7.7,-5.57 -0.12,-4.97 4.44,-8.55 8.85,-9.72 z"
           id="path560" />
        <path
           style="opacity:1;fill:#fec0ef"
           inkscape:connector-curvature="0"
           d="m 301.69,1106.91 c 1.19,-4.21 6.34,-6.31 10.37,-5.91 4.01,2.16 5.44,7.08 5.73,11.35 -2.32,1.48 -4.97,3.13 -7.87,2.53 -3.94,-0.62 -8.2,-3.65 -8.23,-7.97 z"
           id="path572" />
        <path
           style="opacity:1;fill:#000000"
           inkscape:connector-curvature="0"
           d="m 192.1,1111.17 c 2.27,-0.94 5.54,-0.67 6.78,1.76 1.02,3.81 -4.12,8.95 -7.52,5.59 -1.26,-2.13 -2.23,-6.26 0.74,-7.35 m 1.02,2.13 c -0.73,1.16 -0.05,2.46 0.19,3.68 2,0.42 2.54,-1.92 3.59,-3.11 -1.23,-0.36 -2.49,-0.73 -3.78,-0.57 z"
           id="path590" />
        <path
           style="opacity:1;fill:#000000"
           inkscape:connector-curvature="0"
           d="m 220.3,1111.36 c 7.96,-3.34 17.43,4.19 16.92,12.56 -0.35,4.31 -3.61,8.78 -8.17,9.09 -5.65,0.71 -12.21,-0.69 -15.94,-5.29 -1.38,-2.01 -2.58,-5.22 -0.66,-7.23 2.92,-2.89 3.33,-7.95 7.85,-9.13 m -1.91,4.09 c -1.31,2.73 -2.48,5.58 -5.02,7.47 2,7.01 10.81,9.21 17.1,7.4 3.75,-1.72 5.68,-6.86 3.68,-10.56 -2.36,-5.88 -10.99,-9.67 -15.76,-4.31 z"
           id="path592" />
        <path
           style="opacity:1;fill:#fec0ef"
           inkscape:connector-curvature="0"
           d="m 193.12,1113.3 c 1.29,-0.16 2.55,0.21 3.78,0.57 -1.05,1.19 -1.59,3.53 -3.59,3.11 -0.24,-1.22 -0.92,-2.52 -0.19,-3.68 z"
           id="path598" />
        <path
           style="opacity:1;fill:#fec0ef"
           inkscape:connector-curvature="0"
           d="m 218.39,1115.45 c 4.77,-5.36 13.4,-1.57 15.76,4.31 2,3.7 0.07,8.84 -3.68,10.56 -6.29,1.81 -15.1,-0.39 -17.1,-7.4 2.54,-1.89 3.71,-4.74 5.02,-7.47 z"
           id="path600" />
        <path
           style="opacity:1;fill:#020905"
           inkscape:connector-curvature="0"
           d="m 261.24,1120.31 c 2.09,-0.91 4.48,-1.11 6.7,-0.61 3.93,3.15 -2.77,9.96 -6.44,6.78 -2.18,-1.35 -2.19,-4.61 -0.26,-6.17 m 0.55,2.66 c 0.73,0.66 1.49,1.31 2.27,1.95 1.09,-0.86 2,-1.9 2.91,-2.92 -1.77,0.02 -3.53,0.3 -5.18,0.97 z"
           id="path616" />
        <path
           style="opacity:1;fill:#fec0ef"
           inkscape:connector-curvature="0"
           d="m 261.79,1122.97 c 1.65,-0.67 3.41,-0.95 5.18,-0.97 -0.91,1.02 -1.82,2.06 -2.91,2.92 -0.78,-0.64 -1.54,-1.29 -2.27,-1.95 z"
           id="path622" />
        <path
           style="opacity:1;fill:#000000"
           inkscape:connector-curvature="0"
           d="m 278.03,1135.03 c 4.25,-6.9 15.3,-7.78 20.76,-1.89 2.32,2.47 3.23,6.4 1.99,9.56 -3.3,4.66 -9.21,7.62 -14.94,7.17 -3.24,-0.21 -5.76,-2.46 -7.68,-4.87 0.05,-3.33 -0.61,-6.69 -0.13,-9.97 m 2,0.97 c 0.65,3.41 -0.95,8.17 2.66,10.29 3.58,2.52 8.31,1.18 11.75,-0.92 2.47,-1.61 5.72,-3.91 4.41,-7.32 -2.27,-8.14 -14.34,-8.44 -18.82,-2.05 z"
           id="path634" />
        <path
           style="opacity:1;fill:#fec0ef"
           inkscape:connector-curvature="0"
           d="m 167.6,1132.27 c 2.52,0.1 5.08,0.16 7.48,-0.76 2.66,1.49 5.52,3.95 4.63,7.4 -1.5,5.37 -7.74,9.19 -13.19,7.48 -1.81,-0.65 -3.21,-2.02 -4.65,-3.21 1.85,-3.67 3.83,-7.27 5.73,-10.91 z"
           id="path638" />
        <path
           style="opacity:1;fill:#fec0ef"
           inkscape:connector-curvature="0"
           d="m 280.03,1136 c 4.48,-6.39 16.55,-6.09 18.82,2.05 1.31,3.41 -1.94,5.71 -4.41,7.32 -3.44,2.1 -8.17,3.44 -11.75,0.92 -3.61,-2.12 -2.01,-6.88 -2.66,-10.29 z"
           id="path640" />
        <path
           style="opacity:1;fill:#000000"
           inkscape:connector-curvature="0"
           d="m 316.19,1137.2 c 3,-1.43 6.69,1.58 6.35,4.84 -1.29,3.25 -6.44,5.69 -8.89,2.29 -2.37,-2.56 0.55,-5.47 2.54,-7.13 m -0.66,6.29 c 1.52,-0.52 3.02,-1.11 4.45,-1.82 -0.69,-0.83 -1.38,-1.64 -2.09,-2.43 -1,1.28 -1.84,2.67 -2.36,4.25 z"
           id="path642" />
        <path
           style="opacity:1;fill:#fec0ef"
           inkscape:connector-curvature="0"
           d="m 315.53,1143.49 c 0.52,-1.58 1.36,-2.97 2.36,-4.25 0.71,0.79 1.4,1.6 2.09,2.43 -1.43,0.71 -2.93,1.3 -4.45,1.82 z"
           id="path644" />
        <path
           style="opacity:1;fill:#000000"
           inkscape:connector-curvature="0"
           d="m 250.45,1141.51 c 4.08,-0.99 7.85,1.7 10.5,4.52 1.45,1.62 3.58,3.44 2.59,5.89 -1.32,8.19 -11.92,14.12 -18.84,8.42 -5.19,-6.19 -0.26,-15.28 5.75,-18.83 m -5.24,14.49 c 0.9,3.98 6.02,4.86 9.28,3.41 3.68,-1.52 5.73,-5.19 6.97,-8.76 -2.7,-2.99 -5.86,-7.63 -10.43,-6.56 -3.45,2.79 -6.72,7.24 -5.82,11.91 z"
           id="path646" />
        <path
           style="opacity:1;fill:#fec0ef"
           inkscape:connector-curvature="0"
           d="m 245.21,1156 c -0.9,-4.67 2.37,-9.12 5.82,-11.91 4.57,-1.07 7.73,3.57 10.43,6.56 -1.24,3.57 -3.29,7.24 -6.97,8.76 -3.26,1.45 -8.38,0.57 -9.28,-3.41 z"
           id="path648" />
        <path
           style="opacity:1;fill:#000000"
           inkscape:connector-curvature="0"
           d="m 197.19,1156.3 c 4.27,-1.16 9.12,-0.77 12.87,1.71 2.51,1.34 2.85,4.5 3.22,7.04 -1.12,2.79 -2.55,5.5 -4.31,7.95 -4.12,4.38 -11.89,4.31 -16.14,0.15 -1.74,-2.03 -2.93,-4.51 -3.73,-7.04 0.02,-4.67 3.73,-8.61 8.09,-9.81 m -5.23,6.7 c -1.63,2.34 -0.01,4.86 1.18,6.98 2.17,4.24 8.06,5.3 12.1,3.26 1.53,-0.89 3.56,-2.1 2.94,-4.19 -0.86,-2.26 1.37,-2.55 2.91,-3.11 -0.2,-1.76 -0.45,-3.49 -0.69,-5.22 -5.34,-4.37 -14.93,-4.34 -18.44,2.28 z"
           id="path660" />
        <path
           style="opacity:1;fill:#fec0ef"
           inkscape:connector-curvature="0"
           d="m 191.96,1163 c 3.51,-6.62 13.1,-6.65 18.44,-2.28 0.24,1.73 0.49,3.46 0.69,5.22 -1.54,0.56 -3.77,0.85 -2.91,3.11 0.62,2.09 -1.41,3.3 -2.94,4.19 -4.04,2.04 -9.93,0.98 -12.1,-3.26 -1.19,-2.12 -2.81,-4.64 -1.18,-6.98 z"
           id="path662" />
        <path
           style="opacity:1;fill:#000000"
           inkscape:connector-curvature="0"
           d="m 319.45,1162.51 c 6.26,-1.62 15.32,2.06 14.78,9.55 -2.44,6.4 -11.54,10.87 -17.37,6.14 -2.56,-2.83 -4.17,-6.99 -3.36,-10.79 0.73,-2.71 3.35,-4.36 5.95,-4.9 m -1.08,3.04 c -1.6,0.82 -2.96,2.51 -2.6,4.42 0.65,2.99 1.87,6.82 5.29,7.56 4.36,0.78 8.47,-2.32 10.65,-5.87 -0.24,-6.13 -8.52,-8.37 -13.34,-6.11 z"
           id="path668" />
        <path
           style="opacity:1;fill:#fec0ef"
           inkscape:connector-curvature="0"
           d="m 318.37,1165.55 c 4.82,-2.26 13.1,-0.02 13.34,6.11 -2.18,3.55 -6.29,6.65 -10.65,5.87 -3.42,-0.74 -4.64,-4.57 -5.29,-7.56 -0.36,-1.91 1,-3.6 2.6,-4.42 z"
           id="path672" />
        <path
           style="opacity:1;fill:#000000"
           inkscape:connector-curvature="0"
           d="m 278.31,1174.28 c 2.46,-1.43 5.52,0.34 7.63,1.77 1.06,4.74 -3.26,9.3 -7.94,9.23 -1.91,-0.44 -3.14,-2.24 -4.74,-3.25 1.85,-2.48 2.95,-5.48 5.05,-7.75 m -1.7,6.35 c 0.34,0.81 1.02,2.41 1.36,3.21 2.48,-0.85 5.23,-2.15 6.09,-4.86 1.37,-2.48 -2.5,-3 -4.1,-3.58 -1.87,1.07 -2.29,3.48 -3.35,5.23 z"
           id="path674" />
        <path
           style="opacity:1;fill:#fec0ef"
           inkscape:connector-curvature="0"
           d="m 276.61,1180.63 c 1.06,-1.75 1.48,-4.16 3.35,-5.23 1.6,0.58 5.47,1.1 4.1,3.58 -0.86,2.71 -3.61,4.01 -6.09,4.86 -0.34,-0.8 -1.02,-2.4 -1.36,-3.21 z"
           id="path680" />
        <path
           style="opacity:1;fill:#fec0ef"
           inkscape:connector-curvature="0"
           d="m 141.66,1176.65 c 3.08,-0.15 6.15,1.37 6.04,4.82 -3.01,2.16 -5.87,-2.09 -6.04,-4.82 z"
           id="path684" />
        <path
           style="opacity:1;fill:#000000"
           inkscape:connector-curvature="0"
           d="m 238.52,1180.58 c 6.51,-2.16 14.44,5.94 10.07,12.04 -3.45,7.41 -15.02,11.52 -20.6,4.16 -2,-7.02 3.67,-14.63 10.53,-16.2 m -8.49,14.52 c 1.68,2.5 5.2,3.69 8.08,2.82 4.58,-1.04 7.68,-5.02 9.55,-9.09 -1.21,-2.82 -3.21,-5.98 -6.68,-6 -6.1,0.24 -11.3,6.22 -10.95,12.27 z"
           id="path686" />
        <path
           style="opacity:1;fill:#fec0ef"
           inkscape:connector-curvature="0"
           d="m 230.03,1195.1 c -0.35,-6.05 4.85,-12.03 10.95,-12.27 3.47,0.02 5.47,3.18 6.68,6 -1.87,4.07 -4.97,8.05 -9.55,9.09 -2.88,0.87 -6.4,-0.32 -8.08,-2.82 z"
           id="path688" />
        <path
           style="opacity:1;fill:#fec0ef"
           inkscape:connector-curvature="0"
           d="m 157.74,1201.25 c -2.87,-4.43 -0.09,-11.27 5.3,-11.82 2.39,-1 3.98,1.34 5.6,2.64 -0.43,4.57 0.33,9.45 -2.31,13.55 -3.2,-0.49 -6.96,-1.2 -8.59,-4.37 z"
           id="path698" />
        <path
           style="opacity:1;fill:#fec0ef"
           inkscape:connector-curvature="0"
           d="m 300.37,1203.49 c -4.04,-3.79 -1.87,-11.65 3.67,-12.63 3.6,-1.2 5.55,3.15 5.91,6.03 0.72,2.82 -2.5,4.37 -2.75,7.06 -2.25,0.5 -4.91,1.33 -6.83,-0.46 z"
           id="path702" />
        <path
           style="opacity:1;fill:#fec0ef"
           inkscape:connector-curvature="0"
           d="m 351.34,1196.34 c 0.32,-0.05 0.97,-0.16 1.29,-0.21 1.68,3.28 3.16,6.68 4.29,10.2 -3.03,0.61 -6.2,1.44 -9.15,0.04 -1.19,-3.88 1.16,-7.24 3.57,-10.03 z"
           id="path706" />
        <path
           style="opacity:1;fill:#000000"
           inkscape:connector-curvature="0"
           d="m 200.47,1204.54 c 3.85,-1.08 8.7,-0.49 11.37,2.75 1.26,2.66 1.55,5.78 1.35,8.7 -2.29,8.37 -14.4,11.45 -20.51,5.36 -3.01,-2.66 -3.2,-8.06 -0.03,-10.64 2.09,-2.61 4.38,-5.42 7.82,-6.17 m -0.32,2.67 c -3.54,1.27 -5.09,4.99 -7.27,7.75 0.22,1.27 0.43,2.57 0.62,3.88 3.94,4.46 11.39,4.3 15.36,-0.02 3.05,-2.68 2.04,-7.26 0.77,-10.57 -2.67,-2.03 -6.43,-2.41 -9.48,-1.04 z"
           id="path708" />
        <path
           style="opacity:1;fill:#fec0ef"
           inkscape:connector-curvature="0"
           d="m 200.15,1207.21 c 3.05,-1.37 6.81,-0.99 9.48,1.04 1.27,3.31 2.28,7.89 -0.77,10.57 -3.97,4.32 -11.42,4.48 -15.36,0.02 -0.19,-1.31 -0.4,-2.61 -0.62,-3.88 2.18,-2.76 3.73,-6.48 7.27,-7.75 z"
           id="path712" />
        <path
           style="opacity:1;fill:#000000"
           inkscape:connector-curvature="0"
           d="m 279.36,1207.45 c 5.74,-2.93 14.9,0.31 14.85,7.54 -0.6,7.85 -11.48,10.96 -17.51,7.24 -5.32,-3.77 -1.99,-11.96 2.66,-14.78 m -3.04,8.61 c 0.34,1.57 0.43,3.63 2.19,4.36 4.29,1.98 10.07,0.4 12.74,-3.52 2.16,-5.34 -4.75,-9.21 -9.28,-7.7 -3.37,0.64 -4.1,4.35 -5.65,6.86 z"
           id="path714" />
        <path
           style="opacity:1;fill:#fec0ef"
           inkscape:connector-curvature="0"
           d="m 276.32,1216.06 c 1.55,-2.51 2.28,-6.22 5.65,-6.86 4.53,-1.51 11.44,2.36 9.28,7.7 -2.67,3.92 -8.45,5.5 -12.74,3.52 -1.76,-0.73 -1.85,-2.79 -2.19,-4.36 z"
           id="path716" />
        <path
           style="opacity:1;fill:#000000"
           inkscape:connector-curvature="0"
           d="m 231.46,1218.53 c 2.07,-0.47 4.56,-0.23 6.02,1.5 0.77,3.35 -3.66,8.44 -6.68,5.17 -2.16,-1.9 -1.11,-4.94 0.66,-6.67 m 0.92,4.38 c 0.7,1.9 2.52,-1.35 2.99,-2.07 -1.26,0.37 -4.09,-0.13 -2.99,2.07 z"
           id="path720" />
        <path
           style="opacity:1;fill:#fec0ef"
           inkscape:connector-curvature="0"
           d="m 232.38,1222.91 c -1.1,-2.2 1.73,-1.7 2.99,-2.07 -0.47,0.72 -2.29,3.97 -2.99,2.07 z"
           id="path724" />
      </g>
    </g>
  </g>
</svg>
