<?xml version="1.0" encoding="UTF-8"?>
<svg xmlns="http://www.w3.org/2000/svg" xmlns:xlink="http://www.w3.org/1999/xlink" width="1023pt" height="932pt" viewBox="0 0 1023 932" version="1.1">
<g id="surface1">
<path style=" stroke:none;fill-rule:nonzero;fill:rgb(0%,0%,0%);fill-opacity:1;" d="M 283.898438 14.878906 C 289.332031 8.828125 296.398438 4.660156 302.976562 0 C 340.808594 8.132812 379.660156 2.410156 417.941406 5.925781 C 441.394531 7.316406 463.824219 15.695312 487.355469 16.839844 C 511.746094 18.679688 536.21875 17.25 560.648438 18.4375 C 597.742188 20.5625 634.554688 11.648438 671.648438 14.59375 C 709.238281 16.554688 750.664062 2.003906 784.898438 23.421875 C 772.273438 68.183594 786.042969 113.636719 791.109375 158.316406 C 791.96875 164.121094 795.847656 168.824219 798.585938 173.890625 C 794.539062 225.027344 812.066406 274.121094 829.0625 321.457031 C 837.640625 343.53125 838.460938 368.261719 849.941406 389.234375 C 849.980469 391.480469 850.0625 396.019531 850.101562 398.265625 C 852.269531 399.65625 856.597656 402.476562 858.765625 403.867188 C 857.253906 405.421875 854.230469 408.527344 852.71875 410.039062 C 858.847656 423.121094 861.789062 437.222656 865.261719 451.121094 C 874.738281 474.011719 876.984375 499.316406 888.261719 521.59375 C 903.910156 550.738281 913.714844 582.539062 928.175781 612.300781 C 958.816406 680.605469 996.527344 745.804688 1022.265625 816.316406 C 1026.433594 823.59375 1023.652344 833.894531 1016.015625 837.695312 C 995.546875 849.183594 971.320312 847.507812 948.808594 850.53125 C 916.695312 855.3125 888.507812 877.0625 855.167969 874.445312 C 852.226562 874.484375 846.304688 874.484375 843.320312 874.527344 C 841.808594 879.757812 840.257812 884.828125 838.828125 890.222656 C 767.863281 908.167969 693.628906 904.570312 622.460938 920.921875 C 598.96875 923.742188 575.601562 909.96875 552.394531 917.40625 C 522.859375 928.933594 490.460938 927.339844 459.371094 929.058594 C 419.78125 929.097656 380.113281 927.136719 340.5625 929.382812 C 282.835938 937.804688 223.3125 931.304688 167.503906 914.953125 C 170.199219 901.667969 176.738281 889.816406 183.847656 878.53125 C 136.660156 873.75 96.660156 845.464844 50.90625 835.488281 C 32.273438 831.484375 14.21875 824.328125 0 811.332031 C 2.371094 805.648438 4.820312 800.089844 7.3125 794.488281 C 14.789062 766.527344 32.847656 743.105469 47.226562 718.417969 C 62.425781 694.175781 78.238281 670.304688 92.167969 645.328125 C 99.523438 632.125 103.15625 616.960938 112.839844 605.105469 C 132.859375 578.984375 147.117188 549.183594 161.824219 519.875 C 173.589844 511.945312 175.144531 496.738281 181.273438 485.007812 C 192.097656 457.253906 213.464844 433.828125 215.589844 403.050781 C 223.800781 380.8125 228.746094 356.367188 242.554688 336.867188 C 245.25 323.910156 245.578125 309.972656 252.441406 298.320312 C 273.03125 264.964844 277.199219 223.722656 301.996094 192.613281 C 298.441406 171.4375 292.070312 150.347656 293.417969 128.722656 C 295.011719 112.003906 287.574219 96.265625 286.105469 79.832031 C 284.183594 58.25 282.347656 36.460938 283.898438 14.878906 M 316.992188 28.042969 C 315.644531 73.539062 326.347656 118.175781 329.125 163.46875 C 409.117188 155.621094 489.683594 157.089844 569.71875 163.671875 C 620.214844 167.800781 670.261719 153.207031 720.714844 159.339844 C 733.257812 161.261719 745.800781 158.523438 757.445312 153.738281 C 752.011719 115.847656 744.453125 77.832031 746.617188 39.363281 C 696.9375 34.910156 647.585938 44.925781 597.988281 46.3125 C 504.023438 45.945312 410.957031 29.0625 316.992188 28.042969 M 378.152344 186.769531 C 382.03125 193.71875 389.179688 201.523438 384.035156 209.863281 C 373.535156 236.515625 341.011719 248.125 314.785156 238.601562 C 283.164062 308.296875 254.566406 379.382812 230.050781 451.898438 C 226.292969 462.445312 223.394531 473.316406 221.800781 484.476562 C 233.484375 482.308594 246.804688 477.894531 256.648438 487.378906 C 280.097656 501.15625 274.910156 536.226562 254.769531 550.65625 C 234.464844 569.132812 202.230469 567.210938 182.496094 548.859375 C 161.742188 585.769531 138.457031 621.167969 115.78125 656.898438 C 116.109375 658.492188 116.722656 661.636719 117.046875 663.234375 C 128.816406 667.890625 140.214844 675.371094 141.601562 689.269531 C 146.339844 700.347656 133.800781 709.382812 123.789062 709.75 C 112.757812 708.933594 105.445312 699.652344 97.519531 693.15625 C 79.789062 728.839844 57.851562 762.238281 37.097656 796.246094 C 33.5 796.777344 29.90625 797.433594 26.308594 798.085938 C 83.753906 811.820312 135.066406 849.589844 195.734375 848.976562 C 197.613281 833.609375 201.699219 818.730469 207.378906 804.382812 C 187.441406 803.441406 165.582031 794.039062 159.332031 773.476562 C 150.019531 749.277344 167.339844 719.191406 193.691406 717.394531 C 209.503906 711.875 216.980469 729.902344 230.257812 733.828125 C 236.015625 736.484375 245.003906 739.058594 245.371094 746.746094 C 245.945312 787.417969 224.90625 824.371094 222.332031 864.675781 C 215.386719 874.484375 209.910156 885.238281 205.007812 896.273438 C 243.003906 902.609375 281.285156 910.292969 320.015625 907.761719 C 394.65625 902.894531 470.5625 910.457031 544.101562 893.820312 C 545.449219 881.476562 548.390625 869.417969 549.332031 857.070312 C 548.675781 844.769531 546.796875 832.585938 547.246094 820.28125 C 549.78125 803.398438 530.742188 791.996094 534.789062 774.949219 C 535.890625 761.542969 559.789062 756.882812 563.304688 770.863281 C 573.804688 810.023438 581.6875 851.265625 573.3125 891.652344 C 595.621094 895.863281 618.375 900.15625 641.132812 896.722656 C 697.714844 887.894531 755.28125 886.953125 811.535156 875.957031 C 805.652344 849.101562 796.789062 822.980469 787.105469 797.269531 C 775.789062 799.027344 763.125 803.074219 752.542969 796.492188 C 734.445312 785.578125 731.503906 759.621094 741.550781 742.289062 C 749.601562 727.125 768.066406 720.011719 784.53125 723.527344 C 799.6875 732.316406 804.101562 750.792969 804.917969 767.101562 C 827.960938 788.113281 833.269531 819.667969 839.480469 848.652344 C 862.929688 850.695312 887.445312 851.472656 909.425781 841.621094 C 935.816406 830.746094 964.535156 828.375 991.5 819.75 C 991.214844 817.257812 990.683594 812.351562 990.398438 809.898438 C 975.40625 807.9375 958.859375 816.605469 945.089844 807.488281 C 934.957031 802.011719 937 788.601562 933.652344 779.199219 C 941.414062 765.792969 949.992188 752.957031 960.859375 741.921875 C 947.582031 700.144531 917.882812 665.523438 905.707031 623.253906 C 887.363281 580.539062 865.097656 539.007812 854.230469 493.46875 C 844.75 470.742188 840.421875 446.417969 831.839844 423.445312 C 813.988281 435.996094 789.394531 439.183594 770.640625 426.636719 C 754.339844 417.722656 742.738281 396.34375 752.339844 378.644531 C 763.53125 359.882812 787.066406 353.585938 807.695312 354.363281 C 793.601562 315.488281 788.25 274.039062 772.644531 235.699219 C 765.492188 219.386719 764.71875 201.484375 765.820312 184.027344 C 698.367188 180.636719 631 191.550781 563.628906 187.257812 C 565.960938 193.390625 571.515625 196.457031 577.316406 198.746094 C 583.648438 208.269531 588.550781 219.796875 584.671875 231.363281 C 577.398438 252.417969 553.621094 263.65625 532.457031 263.207031 C 515.054688 263.25 497.855469 249.105469 496.75 231.445312 C 498.304688 210.4375 515.75 196.007812 533.195312 187.136719 C 481.796875 180.636719 429.710938 183.375 378.152344 186.769531 M 340.15625 189.996094 C 334.191406 203.8125 321.527344 214.5625 320.054688 230.21875 C 343.097656 238.640625 368.304688 225.070312 377.25 203.035156 C 373.289062 197.4375 369.367188 191.796875 365.566406 186.195312 C 357.070312 187.382812 348.613281 188.6875 340.15625 189.996094 M 504.882812 231.894531 C 508.679688 251.640625 532.132812 260.101562 549.414062 252.375 C 568.328125 247.511719 585.652344 226.582031 573.558594 207.371094 C 566.980469 204.550781 560.976562 200.585938 555.664062 195.925781 C 532.90625 188.648438 508.394531 209.863281 504.882812 231.894531 M 760.101562 390.539062 C 760.222656 408.199219 777.628906 420.585938 793.722656 423.121094 C 805.570312 425.574219 816.398438 418.828125 825.875 412.777344 C 824.691406 395.324219 818.847656 375.210938 802.464844 366.382812 C 786.003906 364.746094 764.960938 373.332031 760.101562 390.539062 M 212.28125 494.207031 C 204.519531 509.085938 196.429688 523.800781 188.871094 538.800781 C 194.753906 543.667969 200.472656 549.265625 207.867188 551.925781 C 230.132812 558.914062 255.628906 543.296875 261.753906 521.347656 C 265.390625 507.246094 253.707031 497.1875 242.839844 491.097656 C 233.035156 494.859375 222.574219 494.613281 212.28125 494.207031 M 106.304688 675.617188 C 107 686.777344 118.683594 704.152344 130.980469 695.320312 C 131.429688 681.21875 118.886719 675.003906 106.304688 675.617188 M 171.996094 776.175781 C 178.65625 789.132812 194.019531 792.035156 207.09375 794.039062 C 217.878906 777.28125 214.773438 757.332031 216.53125 738.652344 C 209.910156 733.335938 203.414062 723.773438 193.652344 727.859375 C 171.628906 730.109375 160.273438 758.066406 171.996094 776.175781 M 754.707031 785.332031 C 762.550781 792.648438 773.417969 789.257812 782.613281 787.214844 C 783.632812 776.21875 796.789062 769.882812 793.847656 758.355469 C 792.375 746.582031 784.410156 728.800781 769.703125 733.703125 C 747.066406 737.710938 738.203125 769.839844 754.707031 785.332031 M 962.945312 756.105469 C 953.097656 767.511719 943.496094 781.246094 948.359375 797.105469 C 960.410156 802.828125 973.363281 799.433594 985.742188 796.941406 C 981.125 782.554688 975.078125 768.65625 968.214844 755.246094 C 966.90625 755.453125 964.25 755.902344 962.945312 756.105469 Z M 962.945312 756.105469 "/>
<path style=" stroke:none;fill-rule:nonzero;fill:rgb(99.607843%,75.294118%,93.72549%);fill-opacity:1;" d="M 316.992188 28.042969 C 410.957031 29.0625 504.023438 45.945312 597.988281 46.3125 C 647.585938 44.925781 696.9375 34.910156 746.617188 39.363281 C 744.453125 77.832031 752.011719 115.847656 757.445312 153.738281 C 745.800781 158.523438 733.257812 161.261719 720.714844 159.339844 C 670.261719 153.207031 620.214844 167.800781 569.71875 163.671875 C 489.683594 157.089844 409.117188 155.621094 329.125 163.46875 C 326.347656 118.175781 315.644531 73.539062 316.992188 28.042969 Z M 316.992188 28.042969 "/>
<path style=" stroke:none;fill-rule:nonzero;fill:rgb(7.45098%,92.156863%,35.294118%);fill-opacity:1;" d="M 378.152344 186.769531 C 429.710938 183.375 481.796875 180.636719 533.195312 187.136719 C 515.75 196.007812 498.304688 210.4375 496.75 231.445312 C 497.855469 249.105469 515.054688 263.25 532.457031 263.207031 C 553.621094 263.65625 577.398438 252.417969 584.671875 231.363281 C 588.550781 219.796875 583.648438 208.269531 577.316406 198.746094 C 571.515625 196.457031 565.960938 193.390625 563.628906 187.257812 C 631 191.550781 698.367188 180.636719 765.820312 184.027344 C 764.71875 201.484375 765.492188 219.386719 772.644531 235.699219 C 788.25 274.039062 793.601562 315.488281 807.695312 354.363281 C 787.066406 353.585938 763.53125 359.882812 752.339844 378.644531 C 742.738281 396.34375 754.339844 417.722656 770.640625 426.636719 C 789.394531 439.183594 813.988281 435.996094 831.839844 423.445312 C 840.421875 446.417969 844.75 470.742188 854.230469 493.46875 C 865.097656 539.007812 887.363281 580.539062 905.707031 623.253906 C 917.882812 665.523438 947.582031 700.144531 960.859375 741.921875 C 949.992188 752.957031 941.414062 765.792969 933.652344 779.199219 C 937 788.601562 934.957031 802.011719 945.089844 807.488281 C 958.859375 816.605469 975.40625 807.9375 990.398438 809.898438 C 990.683594 812.351562 991.214844 817.257812 991.5 819.75 C 964.535156 828.375 935.816406 830.746094 909.425781 841.621094 C 887.445312 851.472656 862.929688 850.695312 839.480469 848.652344 C 833.269531 819.667969 827.960938 788.113281 804.917969 767.101562 C 804.101562 750.792969 799.6875 732.316406 784.53125 723.527344 C 768.066406 720.011719 749.601562 727.125 741.550781 742.289062 C 731.503906 759.621094 734.445312 785.578125 752.542969 796.492188 C 763.125 803.074219 775.789062 799.027344 787.105469 797.269531 C 796.789062 822.980469 805.652344 849.101562 811.535156 875.957031 C 755.28125 886.953125 697.714844 887.894531 641.132812 896.722656 C 618.375 900.15625 595.621094 895.863281 573.3125 891.652344 C 581.6875 851.265625 573.804688 810.023438 563.304688 770.863281 C 559.789062 756.882812 535.890625 761.542969 534.789062 774.949219 C 530.742188 791.996094 549.78125 803.398438 547.246094 820.28125 C 546.796875 832.585938 548.675781 844.769531 549.332031 857.070312 C 548.390625 869.417969 545.449219 881.476562 544.101562 893.820312 C 470.5625 910.457031 394.65625 902.894531 320.015625 907.761719 C 281.285156 910.292969 243.003906 902.609375 205.007812 896.273438 C 209.910156 885.238281 215.386719 874.484375 222.332031 864.675781 C 224.90625 824.371094 245.945312 787.417969 245.371094 746.746094 C 245.003906 739.058594 236.015625 736.484375 230.257812 733.828125 C 216.980469 729.902344 209.503906 711.875 193.691406 717.394531 C 167.339844 719.191406 150.019531 749.277344 159.332031 773.476562 C 165.582031 794.039062 187.441406 803.441406 207.378906 804.382812 C 201.699219 818.730469 197.613281 833.609375 195.734375 848.976562 C 135.066406 849.589844 83.753906 811.820312 26.308594 798.085938 C 29.90625 797.433594 33.5 796.777344 37.097656 796.246094 C 57.851562 762.238281 79.789062 728.839844 97.519531 693.15625 C 105.445312 699.652344 112.757812 708.933594 123.789062 709.75 C 133.800781 709.382812 146.339844 700.347656 141.601562 689.269531 C 140.214844 675.371094 128.816406 667.890625 117.046875 663.234375 C 116.722656 661.636719 116.109375 658.492188 115.78125 656.898438 C 138.457031 621.167969 161.742188 585.769531 182.496094 548.859375 C 202.230469 567.210938 234.464844 569.132812 254.769531 550.65625 C 274.910156 536.226562 280.097656 501.15625 256.648438 487.378906 C 246.804688 477.894531 233.484375 482.308594 221.800781 484.476562 C 223.394531 473.316406 226.292969 462.445312 230.050781 451.898438 C 254.566406 379.382812 283.164062 308.296875 314.785156 238.601562 C 341.011719 248.125 373.535156 236.515625 384.035156 209.863281 C 389.179688 201.523438 382.03125 193.71875 378.152344 186.769531 M 689.421875 209.003906 C 677.453125 212.847656 665.398438 219.917969 659.597656 231.570312 C 656.941406 249.71875 666.910156 269.175781 683.90625 276.65625 C 705.683594 287.570312 735.054688 279.519531 746.824219 257.8125 C 756.054688 243.875 749.558594 224.496094 737.058594 214.972656 C 723.496094 204.917969 705.109375 204.140625 689.421875 209.003906 M 362.992188 295.335938 C 341.871094 301.917969 322.464844 325.261719 330.554688 348.070312 C 342.484375 372.921875 376.148438 377.011719 399.886719 369.121094 C 424.273438 361.601562 440.085938 326.8125 421.046875 306.539062 C 407.320312 289.410156 382.277344 287.980469 362.992188 295.335938 M 616.046875 323.542969 C 589.410156 328.121094 561.667969 353.507812 570.207031 382.652344 C 584.015625 409.753906 622.09375 413.636719 645.953125 397.941406 C 663.886719 387.515625 679.085938 362.824219 666.503906 343.042969 C 657.148438 325.136719 634.675781 319.167969 616.046875 323.542969 M 312.375 407.953125 C 300.242188 412.410156 304.203125 429.292969 309.351562 438 C 323.242188 451.734375 344.242188 430.722656 340.074219 415.148438 C 335.007812 405.214844 321.648438 404.113281 312.375 407.953125 M 427.585938 408.730469 C 409.117188 413.554688 407.441406 434.238281 395.515625 446.050781 C 387.667969 454.269531 392.570312 467.390625 398.210938 475.605469 C 413.449219 494.410156 440.25 500.132812 463.332031 497.230469 C 481.960938 495.964844 495.28125 477.691406 496.710938 460.074219 C 498.792969 425.859375 460.105469 395.078125 427.585938 408.730469 M 594.84375 445.316406 C 586.957031 451.691406 587 465.019531 595.90625 470.539062 C 610.898438 483.535156 638.273438 455.699219 622.214844 442.824219 C 613.144531 440.777344 603.382812 441.597656 594.84375 445.316406 M 663.4375 505.488281 C 661.476562 518.894531 664.171875 532.628906 663.96875 546.242188 C 671.8125 556.09375 682.109375 565.289062 695.347656 566.148438 C 718.753906 567.988281 742.902344 555.890625 756.382812 536.839844 C 761.449219 523.921875 757.730469 507.859375 748.253906 497.761719 C 725.945312 473.683594 680.800781 477.28125 663.4375 505.488281 M 819.339844 514.359375 C 811.210938 521.144531 799.28125 533.039062 808.960938 543.503906 C 818.972656 557.402344 840.011719 547.425781 845.28125 534.140625 C 846.671875 520.816406 831.597656 508.511719 819.339844 514.359375 M 550.761719 531.976562 C 526.207031 546.488281 506.066406 583.644531 527.269531 608.949219 C 555.542969 632.246094 598.847656 608.007812 604.238281 574.527344 C 608.285156 564.515625 599.582031 557.074219 593.660156 550.453125 C 582.832031 538.925781 567.429688 527.929688 550.761719 531.976562 M 333.167969 592.433594 C 315.355469 597.339844 300.199219 613.445312 300.117188 632.535156 C 303.386719 642.875 308.25 653.011719 315.355469 661.3125 C 332.71875 678.316406 364.464844 678.601562 381.296875 660.699219 C 388.488281 650.683594 394.328125 639.605469 398.90625 628.199219 C 397.394531 617.816406 396.003906 604.902344 385.75 599.421875 C 370.429688 589.285156 350.613281 587.691406 333.167969 592.433594 M 832.660156 617.816406 C 822.035156 620.023438 811.332031 626.769531 808.351562 637.847656 C 805.039062 653.382812 811.617188 670.386719 822.078125 681.953125 C 845.894531 701.289062 883.074219 683.015625 893.042969 656.855469 C 895.246094 626.238281 858.234375 611.195312 832.660156 617.816406 M 664.582031 665.929688 C 656.003906 675.210938 651.507812 687.472656 643.949219 697.609375 C 650.488281 701.738281 655.511719 709.097656 663.316406 710.894531 C 682.4375 711.179688 700.085938 692.542969 695.753906 673.164062 C 687.132812 667.320312 674.632812 660.085938 664.582031 665.929688 M 502.023438 691.683594 C 473.996094 698.101562 450.832031 729.207031 459 757.902344 C 481.796875 787.988281 529.066406 771.1875 543.164062 740.898438 C 561.015625 715.964844 528.617188 682.855469 502.023438 691.683594 M 346.570312 789.625 C 332.515625 792.691406 323.160156 804.175781 314.621094 814.847656 C 301.671875 825.390625 302.445312 847.464844 314.742188 858.339844 C 339.707031 883.234375 389.179688 870.644531 398.535156 836.429688 C 399.355469 824.492188 398.167969 811.738281 393.023438 800.867188 C 382.113281 787.621094 362.300781 785.210938 346.570312 789.625 M 668.871094 801.519531 C 649.875 813.046875 636.269531 846.527344 658.003906 861.9375 C 682.640625 877.144531 727.089844 864.429688 729.542969 832.339844 C 729.746094 802.789062 692.324219 789.542969 668.871094 801.519531 M 473.179688 846.8125 C 465.945312 853.882812 461.65625 866.308594 470.480469 874.078125 C 482.820312 887.445312 500.917969 866.636719 497.773438 852.945312 C 491.808594 845.871094 481.636719 844.890625 473.179688 846.8125 Z M 473.179688 846.8125 "/>
<path style=" stroke:none;fill-rule:nonzero;fill:rgb(99.607843%,75.294118%,93.72549%);fill-opacity:1;" d="M 340.15625 189.996094 C 348.613281 188.6875 357.070312 187.382812 365.566406 186.195312 C 369.367188 191.796875 373.289062 197.4375 377.25 203.035156 C 368.304688 225.070312 343.097656 238.640625 320.054688 230.21875 C 321.527344 214.5625 334.191406 203.8125 340.15625 189.996094 Z M 340.15625 189.996094 "/>
<path style=" stroke:none;fill-rule:nonzero;fill:rgb(99.607843%,75.294118%,93.72549%);fill-opacity:1;" d="M 504.882812 231.894531 C 508.394531 209.863281 532.90625 188.648438 555.664062 195.925781 C 560.976562 200.585938 566.980469 204.550781 573.558594 207.371094 C 585.652344 226.582031 568.328125 247.511719 549.414062 252.375 C 532.132812 260.101562 508.679688 251.640625 504.882812 231.894531 Z M 504.882812 231.894531 "/>
<path style=" stroke:none;fill-rule:nonzero;fill:rgb(0%,0%,0%);fill-opacity:1;" d="M 689.421875 209.003906 C 705.109375 204.140625 723.496094 204.917969 737.058594 214.972656 C 749.558594 224.496094 756.054688 243.875 746.824219 257.8125 C 735.054688 279.519531 705.683594 287.570312 683.90625 276.65625 C 666.910156 269.175781 656.941406 249.71875 659.597656 231.570312 C 665.398438 219.917969 677.453125 212.847656 689.421875 209.003906 M 697.917969 217.546875 C 684.4375 220.738281 662.824219 230.300781 671.199219 247.675781 C 680.554688 278.539062 730.074219 278.332031 739.835938 247.796875 C 745.394531 225.152344 716.875 211.417969 697.917969 217.546875 Z M 697.917969 217.546875 "/>
<path style=" stroke:none;fill-rule:nonzero;fill:rgb(99.607843%,75.294118%,93.72549%);fill-opacity:1;" d="M 697.917969 217.546875 C 716.875 211.417969 745.394531 225.152344 739.835938 247.796875 C 730.074219 278.332031 680.554688 278.539062 671.199219 247.675781 C 662.824219 230.300781 684.4375 220.738281 697.917969 217.546875 Z M 697.917969 217.546875 "/>
<path style=" stroke:none;fill-rule:nonzero;fill:rgb(0%,0%,0%);fill-opacity:1;" d="M 362.992188 295.335938 C 382.277344 287.980469 407.320312 289.410156 421.046875 306.539062 C 440.085938 326.8125 424.273438 361.601562 399.886719 369.121094 C 376.148438 377.011719 342.484375 372.921875 330.554688 348.070312 C 322.464844 325.261719 341.871094 301.917969 362.992188 295.335938 M 371.367188 303.71875 C 354.167969 307.722656 337.132812 322.972656 339.214844 341.898438 C 354.660156 374.273438 416.757812 368.140625 419.128906 329.265625 C 418.515625 306.660156 390.449219 295.910156 371.367188 303.71875 Z M 371.367188 303.71875 "/>
<path style=" stroke:none;fill-rule:nonzero;fill:rgb(99.607843%,75.294118%,93.72549%);fill-opacity:1;" d="M 371.367188 303.71875 C 390.449219 295.910156 418.515625 306.660156 419.128906 329.265625 C 416.757812 368.140625 354.660156 374.273438 339.214844 341.898438 C 337.132812 322.972656 354.167969 307.722656 371.367188 303.71875 Z M 371.367188 303.71875 "/>
<path style=" stroke:none;fill-rule:nonzero;fill:rgb(0%,0%,0%);fill-opacity:1;" d="M 616.046875 323.542969 C 634.675781 319.167969 657.148438 325.136719 666.503906 343.042969 C 679.085938 362.824219 663.886719 387.515625 645.953125 397.941406 C 622.09375 413.636719 584.015625 409.753906 570.207031 382.652344 C 561.667969 353.507812 589.410156 328.121094 616.046875 323.542969 M 615.027344 334.417969 C 597.007812 339.199219 578.378906 353.832031 578.871094 374.148438 C 582.300781 387.761719 597.171875 395.527344 610.328125 396.917969 C 633.125 398.265625 658.617188 382.121094 661.152344 358.207031 C 657.964844 337.15625 633.53125 327.875 615.027344 334.417969 Z M 615.027344 334.417969 "/>
<path style=" stroke:none;fill-rule:nonzero;fill:rgb(99.607843%,75.294118%,93.72549%);fill-opacity:1;" d="M 615.027344 334.417969 C 633.53125 327.875 657.964844 337.15625 661.152344 358.207031 C 658.617188 382.121094 633.125 398.265625 610.328125 396.917969 C 597.171875 395.527344 582.300781 387.761719 578.871094 374.148438 C 578.378906 353.832031 597.007812 339.199219 615.027344 334.417969 Z M 615.027344 334.417969 "/>
<path style=" stroke:none;fill-rule:nonzero;fill:rgb(99.607843%,75.294118%,93.72549%);fill-opacity:1;" d="M 760.101562 390.539062 C 764.960938 373.332031 786.003906 364.746094 802.464844 366.382812 C 818.847656 375.210938 824.691406 395.324219 825.875 412.777344 C 816.398438 418.828125 805.570312 425.574219 793.722656 423.121094 C 777.628906 420.585938 760.222656 408.199219 760.101562 390.539062 Z M 760.101562 390.539062 "/>
<path style=" stroke:none;fill-rule:nonzero;fill:rgb(0%,0%,0%);fill-opacity:1;" d="M 312.375 407.953125 C 321.648438 404.113281 335.007812 405.214844 340.074219 415.148438 C 344.242188 430.722656 323.242188 451.734375 309.351562 438 C 304.203125 429.292969 300.242188 412.410156 312.375 407.953125 M 316.542969 416.660156 C 313.558594 421.402344 316.335938 426.71875 317.316406 431.703125 C 325.488281 433.421875 327.695312 423.855469 331.984375 418.992188 C 326.960938 417.519531 321.8125 416.007812 316.542969 416.660156 Z M 316.542969 416.660156 "/>
<path style=" stroke:none;fill-rule:nonzero;fill:rgb(0%,0%,0%);fill-opacity:1;" d="M 427.585938 408.730469 C 460.105469 395.078125 498.792969 425.859375 496.710938 460.074219 C 495.28125 477.691406 481.960938 495.964844 463.332031 497.230469 C 440.25 500.132812 413.449219 494.410156 398.210938 475.605469 C 392.570312 467.390625 387.667969 454.269531 395.515625 446.050781 C 407.441406 434.238281 409.117188 413.554688 427.585938 408.730469 M 419.78125 425.449219 C 414.429688 436.609375 409.648438 448.257812 399.273438 455.984375 C 407.441406 484.640625 443.4375 493.632812 469.132812 486.234375 C 484.453125 479.203125 492.339844 458.191406 484.167969 443.066406 C 474.527344 419.03125 439.269531 403.539062 419.78125 425.449219 Z M 419.78125 425.449219 "/>
<path style=" stroke:none;fill-rule:nonzero;fill:rgb(99.607843%,75.294118%,93.72549%);fill-opacity:1;" d="M 316.542969 416.660156 C 321.8125 416.007812 326.960938 417.519531 331.984375 418.992188 C 327.695312 423.855469 325.488281 433.421875 317.316406 431.703125 C 316.335938 426.71875 313.558594 421.402344 316.542969 416.660156 Z M 316.542969 416.660156 "/>
<path style=" stroke:none;fill-rule:nonzero;fill:rgb(99.607843%,75.294118%,93.72549%);fill-opacity:1;" d="M 419.78125 425.449219 C 439.269531 403.539062 474.527344 419.03125 484.167969 443.066406 C 492.339844 458.191406 484.453125 479.203125 469.132812 486.234375 C 443.4375 493.632812 407.441406 484.640625 399.273438 455.984375 C 409.648438 448.257812 414.429688 436.609375 419.78125 425.449219 Z M 419.78125 425.449219 "/>
<path style=" stroke:none;fill-rule:nonzero;fill:rgb(0.784314%,3.529412%,1.960784%);fill-opacity:1;" d="M 594.84375 445.316406 C 603.382812 441.597656 613.144531 440.777344 622.214844 442.824219 C 638.273438 455.699219 610.898438 483.535156 595.90625 470.539062 C 587 465.019531 586.957031 451.691406 594.84375 445.316406 M 597.089844 456.191406 C 600.074219 458.886719 603.179688 461.542969 606.363281 464.160156 C 610.816406 460.644531 614.535156 456.394531 618.253906 452.222656 C 611.023438 452.304688 603.832031 453.449219 597.089844 456.191406 Z M 597.089844 456.191406 "/>
<path style=" stroke:none;fill-rule:nonzero;fill:rgb(99.607843%,75.294118%,93.72549%);fill-opacity:1;" d="M 597.089844 456.191406 C 603.832031 453.449219 611.023438 452.304688 618.253906 452.222656 C 614.535156 456.394531 610.816406 460.644531 606.363281 464.160156 C 603.179688 461.542969 600.074219 458.886719 597.089844 456.191406 Z M 597.089844 456.191406 "/>
<path style=" stroke:none;fill-rule:nonzero;fill:rgb(0%,0%,0%);fill-opacity:1;" d="M 663.4375 505.488281 C 680.800781 477.28125 725.945312 473.683594 748.253906 497.761719 C 757.730469 507.859375 761.449219 523.921875 756.382812 536.839844 C 742.902344 555.890625 718.753906 567.988281 695.347656 566.148438 C 682.109375 565.289062 671.8125 556.09375 663.96875 546.242188 C 664.171875 532.628906 661.476562 518.894531 663.4375 505.488281 M 671.609375 509.453125 C 674.265625 523.390625 667.726562 542.847656 682.476562 551.515625 C 697.101562 561.816406 716.425781 556.339844 730.480469 547.753906 C 740.570312 541.171875 753.851562 531.769531 748.496094 517.832031 C 739.222656 484.558594 689.914062 483.332031 671.609375 509.453125 Z M 671.609375 509.453125 "/>
<path style=" stroke:none;fill-rule:nonzero;fill:rgb(99.607843%,75.294118%,93.72549%);fill-opacity:1;" d="M 212.28125 494.207031 C 222.574219 494.613281 233.035156 494.859375 242.839844 491.097656 C 253.707031 497.1875 265.390625 507.246094 261.753906 521.347656 C 255.628906 543.296875 230.132812 558.914062 207.867188 551.925781 C 200.472656 549.265625 194.753906 543.667969 188.871094 538.800781 C 196.429688 523.800781 204.519531 509.085938 212.28125 494.207031 Z M 212.28125 494.207031 "/>
<path style=" stroke:none;fill-rule:nonzero;fill:rgb(99.607843%,75.294118%,93.72549%);fill-opacity:1;" d="M 671.609375 509.453125 C 689.914062 483.332031 739.222656 484.558594 748.496094 517.832031 C 753.851562 531.769531 740.570312 541.171875 730.480469 547.753906 C 716.425781 556.339844 697.101562 561.816406 682.476562 551.515625 C 667.726562 542.847656 674.265625 523.390625 671.609375 509.453125 Z M 671.609375 509.453125 "/>
<path style=" stroke:none;fill-rule:nonzero;fill:rgb(0%,0%,0%);fill-opacity:1;" d="M 819.339844 514.359375 C 831.597656 508.511719 846.671875 520.816406 845.28125 534.140625 C 840.011719 547.425781 818.972656 557.402344 808.960938 543.503906 C 799.28125 533.039062 811.210938 521.144531 819.339844 514.359375 M 816.644531 540.070312 C 822.851562 537.945312 828.980469 535.53125 834.824219 532.628906 C 832.003906 529.238281 829.1875 525.925781 826.285156 522.695312 C 822.199219 527.929688 818.769531 533.609375 816.644531 540.070312 Z M 816.644531 540.070312 "/>
<path style=" stroke:none;fill-rule:nonzero;fill:rgb(99.607843%,75.294118%,93.72549%);fill-opacity:1;" d="M 816.644531 540.070312 C 818.769531 533.609375 822.199219 527.929688 826.285156 522.695312 C 829.1875 525.925781 832.003906 529.238281 834.824219 532.628906 C 828.980469 535.53125 822.851562 537.945312 816.644531 540.070312 Z M 816.644531 540.070312 "/>
<path style=" stroke:none;fill-rule:nonzero;fill:rgb(0%,0%,0%);fill-opacity:1;" d="M 550.761719 531.976562 C 567.429688 527.929688 582.832031 538.925781 593.660156 550.453125 C 599.582031 557.074219 608.285156 564.515625 604.238281 574.527344 C 598.847656 608.007812 555.542969 632.246094 527.269531 608.949219 C 506.066406 583.644531 526.207031 546.488281 550.761719 531.976562 M 529.351562 591.207031 C 533.03125 607.476562 553.949219 611.074219 567.265625 605.144531 C 582.300781 598.933594 590.675781 583.929688 595.742188 569.335938 C 584.710938 557.117188 571.800781 538.148438 553.132812 542.523438 C 539.035156 553.925781 525.675781 572.117188 529.351562 591.207031 Z M 529.351562 591.207031 "/>
<path style=" stroke:none;fill-rule:nonzero;fill:rgb(99.607843%,75.294118%,93.72549%);fill-opacity:1;" d="M 529.351562 591.207031 C 525.675781 572.117188 539.035156 553.925781 553.132812 542.523438 C 571.800781 538.148438 584.710938 557.117188 595.742188 569.335938 C 590.675781 583.929688 582.300781 598.933594 567.265625 605.144531 C 553.949219 611.074219 533.03125 607.476562 529.351562 591.207031 Z M 529.351562 591.207031 "/>
<path style=" stroke:none;fill-rule:nonzero;fill:rgb(0%,0%,0%);fill-opacity:1;" d="M 333.167969 592.433594 C 350.613281 587.691406 370.429688 589.285156 385.75 599.421875 C 396.003906 604.902344 397.394531 617.816406 398.90625 628.199219 C 394.328125 639.605469 388.488281 650.683594 381.296875 660.699219 C 364.464844 678.601562 332.71875 678.316406 315.355469 661.3125 C 308.25 653.011719 303.386719 642.875 300.117188 632.535156 C 300.199219 613.445312 315.355469 597.339844 333.167969 592.433594 M 311.800781 619.820312 C 305.144531 629.386719 311.761719 639.6875 316.625 648.351562 C 325.488281 665.683594 349.550781 670.019531 366.058594 661.679688 C 372.308594 658.042969 380.601562 653.09375 378.070312 644.550781 C 374.554688 635.3125 383.664062 634.128906 389.957031 631.839844 C 389.140625 624.644531 388.117188 617.574219 387.136719 610.5 C 365.320312 592.636719 326.140625 592.761719 311.800781 619.820312 Z M 311.800781 619.820312 "/>
<path style=" stroke:none;fill-rule:nonzero;fill:rgb(99.607843%,75.294118%,93.72549%);fill-opacity:1;" d="M 311.800781 619.820312 C 326.140625 592.761719 365.320312 592.636719 387.136719 610.5 C 388.117188 617.574219 389.140625 624.644531 389.957031 631.839844 C 383.664062 634.128906 374.554688 635.3125 378.070312 644.550781 C 380.601562 653.09375 372.308594 658.042969 366.058594 661.679688 C 349.550781 670.019531 325.488281 665.683594 316.625 648.351562 C 311.761719 639.6875 305.144531 629.386719 311.800781 619.820312 Z M 311.800781 619.820312 "/>
<path style=" stroke:none;fill-rule:nonzero;fill:rgb(0%,0%,0%);fill-opacity:1;" d="M 832.660156 617.816406 C 858.234375 611.195312 895.246094 626.238281 893.042969 656.855469 C 883.074219 683.015625 845.894531 701.289062 822.078125 681.953125 C 811.617188 670.386719 805.039062 653.382812 808.351562 637.847656 C 811.332031 626.769531 822.035156 620.023438 832.660156 617.816406 M 828.246094 630.246094 C 821.710938 633.597656 816.152344 640.503906 817.625 648.3125 C 820.28125 660.535156 825.261719 676.191406 839.234375 679.214844 C 857.046875 682.402344 873.839844 669.730469 882.746094 655.21875 C 881.765625 630.164062 847.9375 621.007812 828.246094 630.246094 Z M 828.246094 630.246094 "/>
<path style=" stroke:none;fill-rule:nonzero;fill:rgb(99.607843%,75.294118%,93.72549%);fill-opacity:1;" d="M 828.246094 630.246094 C 847.9375 621.007812 881.765625 630.164062 882.746094 655.21875 C 873.839844 669.730469 857.046875 682.402344 839.234375 679.214844 C 825.261719 676.191406 820.28125 660.535156 817.625 648.3125 C 816.152344 640.503906 821.710938 633.597656 828.246094 630.246094 Z M 828.246094 630.246094 "/>
<path style=" stroke:none;fill-rule:nonzero;fill:rgb(0%,0%,0%);fill-opacity:1;" d="M 664.582031 665.929688 C 674.632812 660.085938 687.132812 667.320312 695.753906 673.164062 C 700.085938 692.542969 682.4375 711.179688 663.316406 710.894531 C 655.511719 709.097656 650.488281 701.738281 643.949219 697.609375 C 651.507812 687.472656 656.003906 675.210938 664.582031 665.929688 M 657.636719 691.886719 C 659.027344 695.199219 661.804688 701.738281 663.191406 705.007812 C 673.324219 701.535156 684.558594 696.21875 688.074219 685.144531 C 693.671875 675.003906 677.859375 672.878906 671.324219 670.507812 C 663.683594 674.882812 661.96875 684.734375 657.636719 691.886719 Z M 657.636719 691.886719 "/>
<path style=" stroke:none;fill-rule:nonzero;fill:rgb(99.607843%,75.294118%,93.72549%);fill-opacity:1;" d="M 657.636719 691.886719 C 661.96875 684.734375 663.683594 674.882812 671.324219 670.507812 C 677.859375 672.878906 693.671875 675.003906 688.074219 685.144531 C 684.558594 696.21875 673.324219 701.535156 663.191406 705.007812 C 661.804688 701.738281 659.027344 695.199219 657.636719 691.886719 Z M 657.636719 691.886719 "/>
<path style=" stroke:none;fill-rule:nonzero;fill:rgb(99.607843%,75.294118%,93.72549%);fill-opacity:1;" d="M 106.304688 675.617188 C 118.886719 675.003906 131.429688 681.21875 130.980469 695.320312 C 118.683594 704.152344 107 686.777344 106.304688 675.617188 Z M 106.304688 675.617188 "/>
<path style=" stroke:none;fill-rule:nonzero;fill:rgb(0%,0%,0%);fill-opacity:1;" d="M 502.023438 691.683594 C 528.617188 682.855469 561.015625 715.964844 543.164062 740.898438 C 529.066406 771.1875 481.796875 787.988281 459 757.902344 C 450.832031 729.207031 473.996094 698.101562 502.023438 691.683594 M 467.335938 751.035156 C 474.199219 761.257812 488.582031 766.121094 500.347656 762.5625 C 519.058594 758.3125 531.722656 742.042969 539.363281 725.40625 C 534.417969 713.878906 526.25 700.960938 512.070312 700.878906 C 487.152344 701.863281 465.90625 726.304688 467.335938 751.035156 Z M 467.335938 751.035156 "/>
<path style=" stroke:none;fill-rule:nonzero;fill:rgb(99.607843%,75.294118%,93.72549%);fill-opacity:1;" d="M 467.335938 751.035156 C 465.90625 726.304688 487.152344 701.863281 512.070312 700.878906 C 526.25 700.960938 534.417969 713.878906 539.363281 725.40625 C 531.722656 742.042969 519.058594 758.3125 500.347656 762.5625 C 488.582031 766.121094 474.199219 761.257812 467.335938 751.035156 Z M 467.335938 751.035156 "/>
<path style=" stroke:none;fill-rule:nonzero;fill:rgb(99.607843%,75.294118%,93.72549%);fill-opacity:1;" d="M 171.996094 776.175781 C 160.273438 758.066406 171.628906 730.109375 193.652344 727.859375 C 203.414062 723.773438 209.910156 733.335938 216.53125 738.652344 C 214.773438 757.332031 217.878906 777.28125 207.09375 794.039062 C 194.019531 792.035156 178.65625 789.132812 171.996094 776.175781 Z M 171.996094 776.175781 "/>
<path style=" stroke:none;fill-rule:nonzero;fill:rgb(99.607843%,75.294118%,93.72549%);fill-opacity:1;" d="M 754.707031 785.332031 C 738.203125 769.839844 747.066406 737.710938 769.703125 733.703125 C 784.410156 728.800781 792.375 746.582031 793.847656 758.355469 C 796.789062 769.882812 783.632812 776.21875 782.613281 787.214844 C 773.417969 789.257812 762.550781 792.648438 754.707031 785.332031 Z M 754.707031 785.332031 "/>
<path style=" stroke:none;fill-rule:nonzero;fill:rgb(99.607843%,75.294118%,93.72549%);fill-opacity:1;" d="M 962.945312 756.105469 C 964.25 755.902344 966.90625 755.453125 968.214844 755.246094 C 975.078125 768.65625 981.125 782.554688 985.742188 796.941406 C 973.363281 799.433594 960.410156 802.828125 948.359375 797.105469 C 943.496094 781.246094 953.097656 767.511719 962.945312 756.105469 Z M 962.945312 756.105469 "/>
<path style=" stroke:none;fill-rule:nonzero;fill:rgb(0%,0%,0%);fill-opacity:1;" d="M 346.570312 789.625 C 362.300781 785.210938 382.113281 787.621094 393.023438 800.867188 C 398.167969 811.738281 399.355469 824.492188 398.535156 836.429688 C 389.179688 870.644531 339.707031 883.234375 314.742188 858.339844 C 302.445312 847.464844 301.671875 825.390625 314.621094 814.847656 C 323.160156 804.175781 332.515625 792.691406 346.570312 789.625 M 345.261719 800.539062 C 330.800781 805.730469 324.46875 820.9375 315.5625 832.21875 C 316.460938 837.410156 317.316406 842.722656 318.09375 848.078125 C 334.191406 866.308594 364.628906 865.65625 380.847656 847.996094 C 393.308594 837.042969 389.179688 818.320312 383.992188 804.789062 C 373.085938 796.492188 357.722656 794.9375 345.261719 800.539062 Z M 345.261719 800.539062 "/>
<path style=" stroke:none;fill-rule:nonzero;fill:rgb(99.607843%,75.294118%,93.72549%);fill-opacity:1;" d="M 345.261719 800.539062 C 357.722656 794.9375 373.085938 796.492188 383.992188 804.789062 C 389.179688 818.320312 393.308594 837.042969 380.847656 847.996094 C 364.628906 865.65625 334.191406 866.308594 318.09375 848.078125 C 317.316406 842.722656 316.460938 837.410156 315.5625 832.21875 C 324.46875 820.9375 330.800781 805.730469 345.261719 800.539062 Z M 345.261719 800.539062 "/>
<path style=" stroke:none;fill-rule:nonzero;fill:rgb(0%,0%,0%);fill-opacity:1;" d="M 668.871094 801.519531 C 692.324219 789.542969 729.746094 802.789062 729.542969 832.339844 C 727.089844 864.429688 682.640625 877.144531 658.003906 861.9375 C 636.269531 846.527344 649.875 813.046875 668.871094 801.519531 M 656.453125 836.714844 C 657.839844 843.132812 658.207031 851.554688 665.398438 854.539062 C 682.925781 862.632812 706.539062 856.171875 717.449219 840.148438 C 726.273438 818.320312 698.042969 802.5 679.535156 808.671875 C 665.765625 811.289062 662.785156 826.457031 656.453125 836.714844 Z M 656.453125 836.714844 "/>
<path style=" stroke:none;fill-rule:nonzero;fill:rgb(99.607843%,75.294118%,93.72549%);fill-opacity:1;" d="M 656.453125 836.714844 C 662.785156 826.457031 665.765625 811.289062 679.535156 808.671875 C 698.042969 802.5 726.273438 818.320312 717.449219 840.148438 C 706.539062 856.171875 682.925781 862.632812 665.398438 854.539062 C 658.207031 851.554688 657.839844 843.132812 656.453125 836.714844 Z M 656.453125 836.714844 "/>
<path style=" stroke:none;fill-rule:nonzero;fill:rgb(0%,0%,0%);fill-opacity:1;" d="M 473.179688 846.8125 C 481.636719 844.890625 491.808594 845.871094 497.773438 852.945312 C 500.917969 866.636719 482.820312 887.445312 470.480469 874.078125 C 461.65625 866.308594 465.945312 853.882812 473.179688 846.8125 M 476.9375 864.714844 C 479.796875 872.484375 487.230469 859.199219 489.152344 856.253906 C 484.003906 857.765625 472.441406 855.722656 476.9375 864.714844 Z M 476.9375 864.714844 "/>
<path style=" stroke:none;fill-rule:nonzero;fill:rgb(99.607843%,75.294118%,93.72549%);fill-opacity:1;" d="M 476.9375 864.714844 C 472.441406 855.722656 484.003906 857.765625 489.152344 856.253906 C 487.230469 859.199219 479.796875 872.484375 476.9375 864.714844 Z M 476.9375 864.714844 "/>
</g>
</svg>
