<?xml version="1.0" encoding="UTF-8" standalone="no"?>
<svg
   xmlns:dc="http://purl.org/dc/elements/1.1/"
   xmlns:cc="http://creativecommons.org/ns#"
   xmlns:rdf="http://www.w3.org/1999/02/22-rdf-syntax-ns#"
   xmlns:svg="http://www.w3.org/2000/svg"
   xmlns="http://www.w3.org/2000/svg"
   xmlns:xlink="http://www.w3.org/1999/xlink"
   xmlns:sodipodi="http://sodipodi.sourceforge.net/DTD/sodipodi-0.dtd"
   xmlns:inkscape="http://www.inkscape.org/namespaces/inkscape"
   width="630.89264"
   height="714.78528"
   viewBox="0 0 504.71411 571.82822"
   version="1.1"
   id="svg2"
   inkscape:version="0.48.4 r9939"
   sodipodi:docname="snow.new.svg">
  <metadata
     id="metadata16">
    <rdf:RDF>
      <cc:Work
         rdf:about="">
        <dc:format>image/svg+xml</dc:format>
        <dc:type
           rdf:resource="http://purl.org/dc/dcmitype/StillImage" />
      </cc:Work>
    </rdf:RDF>
  </metadata>
  <sodipodi:namedview
     pagecolor="#ffffff"
     bordercolor="#666666"
     borderopacity="1"
     objecttolerance="10"
     gridtolerance="10"
     guidetolerance="10"
     inkscape:pageopacity="0"
     inkscape:pageshadow="2"
     inkscape:window-width="1362"
     inkscape:window-height="668"
     id="namedview14"
     showgrid="false"
     fit-margin-top="0"
     fit-margin-left="0"
     fit-margin-right="0"
     fit-margin-bottom="0"
     inkscape:zoom="0.49262642"
     inkscape:cx="216.83717"
     inkscape:cy="243.92023"
     inkscape:window-x="0"
     inkscape:window-y="18"
     inkscape:window-maximized="0"
     inkscape:current-layer="svg2" />
  <defs
     id="defs4">
    <radialGradient
       id="radial0"
       gradientUnits="userSpaceOnUse"
       cx="416.79999"
       cy="455.98999"
       fx="416.79999"
       fy="455.98999"
       r="252.99001"
       gradientTransform="matrix(1,0,0,1.1472,0,-67.106)">
      <stop
         offset="0"
         style="stop-color:#ffffff;stop-opacity:1;"
         id="stop7" />
      <stop
         offset="1"
         style="stop-color:rgb(0%,86.27451%,100%);stop-opacity:1;"
         id="stop9" />
    </radialGradient>
    <radialGradient
       inkscape:collect="always"
       xlink:href="#radial0"
       id="radialGradient2994"
       gradientUnits="userSpaceOnUse"
       gradientTransform="matrix(1.009963,0,0,1.157826,-157.13515,-234.62384)"
       cx="416.79999"
       cy="455.98999"
       fx="416.79999"
       fy="455.98999"
       r="252.99001" />
  </defs>
  <path
     inkscape:connector-curvature="0"
     id="path12"
     d="m 240.52989,570.14557 c 0,-0.6973 -1.36806,-1.8794 -3.03496,-2.61657 -1.79307,-0.79027 -3.0283,-2.09856 -3.0283,-3.21425 0,-1.02936 -0.49145,-2.17826 -1.08914,-2.54353 -0.77035,-0.47814 -0.90318,-11.137 -0.44495,-36.12058 0.35862,-19.49143 0.83013,-35.62914 1.05594,-35.84829 0.63089,-0.6309 -1.50089,-4.18385 -2.50368,-4.18385 -0.49808,0 -3.95142,2.04543 -7.67703,4.54246 -3.72561,2.49703 -6.95981,4.54248 -7.1856,4.54248 -0.42503,0 -6.49493,4.13736 -7.40474,5.04718 -0.27894,0.27892 -5.95702,4.13736 -12.62461,8.58022 -6.66096,4.4362 -12.4785,8.63998 -12.92346,9.33065 -0.44495,0.6973 -1.41453,1.26179 -2.15168,1.26179 -0.73717,0 -1.90599,0.68403 -2.59666,1.51416 -0.69065,0.83676 -2.11185,1.51415 -3.15448,1.51415 -1.04265,0 -1.89934,0.41839 -1.89934,0.9231 0,1.31493 -12.33239,-1.7333 -14.09891,-3.48654 -1.15554,-1.14889 -1.18874,-1.47431 -0.1394,-1.47431 0.74379,0 0.27892,-0.85005 -1.04928,-1.9259 -2.0388,-1.65362 -2.37749,-2.8158 -2.35092,-8.05557 0.0332,-5.59175 0.34533,-6.44181 3.53967,-9.77561 3.39357,-3.5463 15.23453,-12.53826 16.50296,-12.53826 0.34534,0 1.42119,-0.69732 2.39742,-1.54737 0.96959,-0.85668 9.03844,-6.34882 17.92415,-12.21286 8.8857,-5.86402 17.29988,-11.65501 18.68786,-12.87696 1.38797,-1.22195 3.885,-2.88222 5.5519,-3.68578 1.6669,-0.80357 3.26075,-1.73331 3.53302,-2.05871 0.27894,-0.33206 2.55016,-2.06537 5.05384,-3.85181 2.49703,-1.78643 4.84132,-4.24361 5.19993,-5.45892 1.08249,-3.64594 0.94966,-19.69732 -0.17267,-20.38797 -0.57113,-0.35199 -4.00454,0.86996 -7.63719,2.71618 -3.63265,1.84619 -8.24152,4.18384 -10.24712,5.20657 -4.47605,2.27787 -15.06186,2.87558 -14.63684,0.82348 0.15947,-0.7438 -0.25234,-1.17547 -0.91645,-0.94966 -1.44112,0.47815 -6.52814,-3.99125 -5.59838,-4.92101 0.3586,-0.35197 -0.13278,-1.2153 -1.08249,-1.90597 -1.54073,-1.12899 -1.59385,-1.88606 -0.50473,-7.09264 1.75988,-8.37434 3.5928,-10.0678 21.45718,-19.85668 3.05487,-1.68019 6.46173,-3.8518 7.57078,-4.82803 1.11569,-0.98287 4.15728,-2.77597 6.76722,-3.98462 2.60991,-1.21531 5.2929,-2.86229 5.96363,-3.6725 0.83012,-1.0028 1.28172,-7.21216 1.41455,-19.63753 0.1661,-15.41384 -0.0265,-18.13001 -1.26843,-17.87767 -0.80357,0.1661 -2.66971,2.44391 -4.13738,5.06712 -1.47431,2.61656 -3.36036,5.57182 -4.19048,6.5547 -0.83678,0.9895 -2.37085,3.16113 -3.41349,4.82803 -2.68962,4.27682 -6.60119,7.53757 -8.28802,6.89338 -0.78364,-0.30547 -1.42781,0.0136 -1.42781,0.70397 0,0.89653 -1.24853,1.08247 -4.41628,0.65081 -6.14298,-0.8434 -9.72248,-2.66306 -9.72248,-4.94093 0,-1.04929 -0.42503,-1.65362 -0.94303,-1.33485 -1.42782,0.88325 -2.29115,-1.16218 -2.80253,-6.60119 -0.50471,-5.38588 1.37471,-10.16078 8.42748,-21.39741 2.01224,-3.2076 3.39358,-6.10975 3.06151,-6.4418 -1.08249,-1.07584 -31.41208,14.64348 -33.15867,17.19363 -0.96958,1.4079 -1.91262,8.49389 -2.41733,18.04369 -1.04928,20.08915 -1.33485,22.72562 -2.8158,26.03285 -1.93254,4.31004 -3.47326,6.20938 -6.72073,8.28139 -2.49039,1.59384 -7.63718,1.77979 -9.93498,0.3586 -0.65082,-0.39845 -1.17547,-0.24572 -1.17547,0.34534 0,0.58441 -0.45823,1.0692 -1.00944,1.0692 -0.55784,0 -1.00943,-0.72387 -1.00943,-1.60048 0,-0.87663 -0.55784,-1.41454 -1.24188,-1.18212 -1.295,0.43167 -5.45892,-2.87556 -5.1468,-4.09086 0.0996,-0.38518 -0.4383,-1.38798 -1.20202,-2.22476 -1.30164,-1.44109 -1.41454,-13.03634 -0.22579,-23.9542 0.19258,-1.80636 0.13277,-3.28067 -0.13278,-3.28067 -1.02272,0 -7.73018,2.53688 -8.21496,3.10136 -0.27229,0.33205 -3.36701,2.11186 -6.87348,3.9647 -3.49982,1.85284 -6.74065,4.08423 -7.19888,4.96086 -0.45159,0.87661 -1.14225,4.98076 -1.52079,9.11149 -0.37855,4.13736 -0.92311,7.88955 -1.20867,8.34777 -0.27892,0.45823 -0.71723,2.98184 -0.96959,5.60505 -0.25236,2.62319 -1.09577,9.31073 -1.87942,14.86263 -0.78364,5.5519 -1.73995,12.3656 -2.13176,15.14155 -1.11569,8.00909 -1.18212,8.50052 -2.92206,20.1821 -2.03215,13.71375 -1.97239,13.52779 -5.6316,18.57498 -2.54352,3.50645 -3.552953,4.13736 -6.587893,4.13736 -2.09856,0 -3.33379,0.41175 -2.97519,0.99614 0.38519,0.61763 -0.63752,0.75045 -2.71617,0.35199 -5.00071,-0.95631 -7.92277,-2.20483 -7.6372,-3.24082 0.14604,-0.51801 -0.0398,-0.86333 -0.4051,-0.78365 -0.36525,0.0864 -1.56063,-0.98951 -2.66305,-2.38413 -1.55399,-1.97902 -2.01887,-4.21041 -2.11185,-10.101 -0.0598,-4.15731 0.35197,-9.15135 0.91648,-11.09054 0.57111,-1.93917 1.28171,-6.475 1.58718,-10.0811 0.30549,-3.60608 1.24189,-10.87799 2.07865,-16.15098 0.83678,-5.27298 1.72668,-13.02971 1.97238,-17.24013 l 0.4516,-7.65046 -3.01504,0 c -1.6536,0 -3.24081,0.60434 -3.52637,1.34147 -0.27892,0.7438 -1.15555,1.34813 -1.93919,1.34813 -0.78363,0 -1.98566,0.67739 -2.67634,1.51417 -0.69066,0.83013 -2.11184,1.51415 -3.15448,1.51415 -1.04264,0 -1.89934,0.4516 -1.89934,1.00944 0,0.5512 -0.87661,1.00943 -1.9591,1.00943 -1.07585,0 -2.22476,0.42503 -2.54351,0.94303 -0.77702,1.25516 -6.54143,4.10416 -8.30794,4.10416 -0.76373,0 -1.65361,0.67739 -1.9724,1.51417 -0.31875,0.83012 -1.38796,1.51414 -2.37085,1.51414 -0.98286,0 -2.35092,0.67739 -3.04159,1.50752 -0.69067,0.83678 -1.88604,1.51415 -2.64976,1.51415 -0.76373,0 -1.39462,0.45823 -1.39462,1.00944 0,0.55785 -0.85005,1.00945 -1.89269,1.00945 -1.04264,0 -2.46383,0.68401 -3.1545,1.51413 -0.69066,0.8368 -1.88604,1.51417 -2.64976,1.51417 -0.76373,0 -1.38799,0.45823 -1.38799,1.00944 0,0.55783 -0.88325,1.00943 -1.9591,1.00943 -1.08249,0 -2.23803,0.4516 -2.57671,0.99616 -0.3387,0.54456 -2.96191,2.11849 -5.83748,3.48655 -3.87835,1.85949 -5.41244,2.1849 -5.99021,1.28171 -0.71059,-1.12233 -1.21532,-0.27228 -0.92975,1.55399 0.17931,1.12235 -1.4743,0.93641 -7.61062,-0.8434 -4.0045356,-1.16218 -5.7577706,-2.24467 -6.4019546,-3.93813 -0.491438,-1.28835 -1.354765,-2.62321 -1.919253,-2.97518 -0.564489,-0.34534 -0.790287,-1.25515 -0.498083,-2.01223 0.292213,-0.75709 -0.0071,-1.71338 -0.657456,-2.11185 -0.88326292,-0.54458 -0.83012892,-0.95631 0.185944,-1.6005 1.036,-0.65746 1.055927,-0.86998 0.08635,-0.88325 -0.88989792,-0.0136 -1.06920592,-0.86334 -0.59768592,-2.79588 1.28835892,-5.2132 5.18664492,-10.04788 10.14748852,-12.58476 8.7064,-4.46278 13.93953,-7.33169 14.45753,-7.92939 0.27892,-0.3254 1.97904,-1.2286 3.78539,-2.01223 1.80636,-0.78365 3.28068,-1.72003 3.28068,-2.08528 0,-0.55786 4.57566,-2.0853 6.06327,-2.01888 0.27892,0.007 1.41452,-0.80357 2.52357,-1.81301 1.10906,-1.00943 4.74834,-3.1744 8.08215,-4.80145 3.33379,-1.6337 8.56028,-4.46943 11.61517,-6.30234 3.05487,-1.83294 5.77769,-3.28068 6.05661,-3.21428 0.62426,0.15284 0.51137,-0.72387 -0.49143,-3.71898 -0.44496,-1.32156 -1.34814,-2.11183 -2.09192,-1.82628 -0.71724,0.27893 -1.8595,-0.1593 -2.53688,-0.97622 -0.67074,-0.81022 -1.46103,-1.24189 -1.7466,-0.95631 -0.28555,0.28555 -1.01607,0.14604 -1.62705,-0.30549 -0.60432,-0.45823 -3.26074,-1.62705 -5.89723,-2.60329 -2.849,-1.04929 -4.79484,-2.39077 -4.79484,-3.30723 0,-0.94966 -0.57776,-1.31493 -1.51415,-0.95631 -0.83677,0.31877 -1.52079,0.25236 -1.52079,-0.15284 0,-0.79692 -2.33765,-1.83957 -11.86754,-5.25968 -3.88499,-1.39462 -6.30897,-2.83573 -6.30897,-3.76547 0,-0.91647 -0.58441,-1.26844 -1.51415,-0.91647 -0.83677,0.31877 -1.51416,0.13941 -1.51416,-0.39846 0,-0.5313 -0.83676,-0.97623 -1.85285,-0.97623 -1.01606,0 -2.19153,-0.3387 -2.60993,-0.75707 -0.41838,-0.41175 -1.06255,-0.78365 -1.42782,-0.81685 -2.43062,-0.21916 -8.2481606,-3.61938 -8.2481606,-4.81475 0,-0.79693 -0.95631,-1.70011 -2.12513,-2.0056 -1.221944,-0.31877 -1.826286,-1.02272 -1.427815,-1.67353 0.385179,-0.61764 0.146107,-1.77981 -0.51801,-2.58337 -2.868922,-3.4467 1.706746,-14.96225 7.3649156,-18.5484 2.26459,-1.43447 12.86367,-2.28452 12.86367,-1.02938 0,0.518 0.88326,0.94305 1.95912,0.94305 1.07583,0 2.21809,0.41838 2.53686,0.92973 0.31877,0.51136 1.96575,1.24186 3.66586,1.61378 1.69345,0.37188 3.31388,1.27508 3.59279,2.00558 0.42503,1.10906 3.83852,2.62321 6.64104,2.93533 0.39846,0.0466 1.65361,0.88326 2.78923,1.85286 1.13562,0.96959 2.54353,1.76651 3.12129,1.76651 1.9259,0 10.0346,4.07096 10.0346,5.04054 0,0.52466 0.70395,0.67739 1.56065,0.35199 0.89653,-0.34534 2.59662,0.35861 3.96468,1.64696 1.32157,1.24188 2.90213,1.94584 3.51976,1.5673 0.61097,-0.37855 3.25409,0.56448 5.8773,2.09856 2.62321,1.54072 4.99408,2.75602 5.273,2.70289 0.27891,-0.0466 1.41452,0.4184 2.52358,1.03601 1.1157,0.61762 2.31772,1.04264 2.68299,0.94303 0.36525,-0.10625 1.2153,0.47816 1.89267,1.29499 0.6774,0.81685 1.83957,1.48096 2.58338,1.48096 2.01888,0 8.50051,3.26739 8.50051,4.28347 0,0.48479 0.40511,0.63089 0.90319,0.3254 0.49808,-0.30547 2.198173,0.11952 3.785373,0.94303 3.21426,1.67355 5.07375,1.91262 5.57847,0.71724 0.45159,-1.07584 10.15414,-6.76722 11.56203,-6.78714 1.42119,-0.0199 4.42957,-2.47711 4.42957,-3.61273 0,-0.47815 -2.03215,-1.78643 -4.50925,-2.9154 -2.48376,-1.12898 -4.37643,-2.61657 -4.21042,-3.30724 0.17267,-0.69066 0.11289,-0.90983 -0.11951,-0.49145 -0.71058,1.26845 -2.27123,0.83678 -2.27123,-0.63089 0,-0.7637 -1.44774,-1.68018 -3.2209,-2.03215 -3.53967,-0.71059 -6.8801,-3.24746 -6.8801,-5.23313 0,-0.70396 -0.57114,-1.46104 -1.2618,-1.69348 -0.85006,-0.28555 -1.21531,-2.45717 -1.1157,-6.66759 0.17268,-7.36491 2.94198,-11.86089 9.13807,-14.82279 4.41628,-2.11184 11.36944,-2.05206 13.04299,0.10625 0.61761,0.79693 1.81964,1.44775 2.66969,1.44775 0.85005,0 1.81964,0.71057 2.15833,1.58055 0.33205,0.86999 1.06922,1.28837 1.64033,0.9364 1.23525,-0.76372 8.06886,3.2541 8.06886,4.7417 0,0.57111 0.73716,0.75042 1.64035,0.4051 0.90316,-0.34534 2.15168,-0.21916 2.77594,0.29221 0.62427,0.50471 3.18105,2.03879 5.68473,3.40684 2.49702,1.36806 6.7008,3.67913 9.33729,5.13352 2.64312,1.45438 4.80147,2.19817 4.80147,1.65363 0,-0.54458 0.67737,-0.98953 1.51415,-0.98953 0.83013,0 1.51416,-0.3387 1.52079,-0.75708 0.007,-0.94303 5.79099,-4.29011 7.41139,-4.29011 0.65747,0 3.55297,-1.5872 6.4418,-3.53302 2.88886,-1.93918 5.67145,-3.53303 6.18944,-3.53303 0.51801,0 1.18212,-0.61763 1.47432,-1.3747 0.39182,-1.02935 -1.05592,-1.57393 -5.69801,-2.15169 -3.42677,-0.42503 -7.252,-0.75709 -8.50051,-0.7438 -1.24188,0.007 -2.01224,-0.38517 -1.70675,-0.88325 0.30549,-0.49808 -0.17266,-0.90318 -1.07585,-0.90318 -0.95631,0 -1.34148,0.4715 -0.92975,1.14226 0.43167,0.6973 0.1661,0.94302 -0.6973,0.63088 -0.77037,-0.27892 -1.26843,-1.07584 -1.10904,-1.76651 0.16593,-0.71723 -0.31214,-1.02935 -1.11572,-0.72387 -2.93533,1.12899 -7.90282,-6.91331 -7.59734,-12.30584 0.31214,-5.51205 2.78924,-9.86857 7.33835,-12.89688 3.77876,-2.51031 4.99406,-2.7494 15.00211,-2.90214 5.9902,-0.093 11.14364,-0.43167 11.46241,-0.74379 0.31213,-0.31212 -0.38517,-1.16218 -1.54737,-1.8927 -1.16882,-0.72387 -2.11848,-1.91926 -2.11848,-2.64976 0,-0.73052 -0.42503,-1.06922 -0.94303,-0.75045 -0.51801,0.31877 -1.2286,0.11289 -1.58057,-0.46486 -0.35861,-0.57113 -2.16497,-1.67355 -4.02446,-2.45055 -1.85949,-0.77035 -4.22371,-2.25794 -5.26633,-3.29395 -1.03601,-1.03599 -4.08425,-2.72282 -6.7805,-3.75218 -2.84902,-1.08913 -5.10031,-2.64314 -5.37923,-3.71898 -0.42505,-1.62041 -0.66412,-1.66689 -1.96577,-0.3719 -0.8102,0.8102 -2.07198,1.48094 -2.79585,1.48094 -0.72388,0 -4.73507,1.81964 -8.91228,4.0444 -4.52254,2.4107 -8.26807,3.78539 -9.25759,3.40686 -1.0825,-0.4184 -1.55401,-0.1661 -1.36142,0.72387 0.1661,0.78365 -0.76371,1.52079 -2.19154,1.73994 -1.36806,0.20588 -3.00174,1.07584 -3.63928,1.93919 -0.63091,0.86333 -1.62042,1.28171 -2.19156,0.92311 -0.57776,-0.35199 -1.61375,0.0265 -2.29779,0.85668 -0.69067,0.8235 -2.10521,1.50089 -3.14785,1.50089 -1.04264,0 -1.89269,0.49143 -1.89269,1.08912 0,0.63089 -1.59385,0.96959 -3.81859,0.8102 -2.09858,-0.15267 -4.3698,0.0665 -5.04719,0.4848 -0.78365,0.48479 -1.23523,0.14604 -1.23523,-0.92975 0,-1.18875 -0.59769,-1.53407 -2.02552,-1.16218 -1.10905,0.2922 -1.78642,0.15267 -1.49422,-0.31212 0.28556,-0.46488 -0.51136,-0.98953 -1.76652,-1.16882 -1.69347,-0.24572 -2.22475,-0.92311 -2.05207,-2.59666 0.14603,-1.34813 -0.25902,-2.15833 -1.00944,-2.01223 -0.68402,0.13941 -1.2618,-0.66411 -1.28836,-1.77315 -0.0199,-1.10905 -0.40512,-2.61657 -0.8567,-3.34707 -1.12234,-1.81966 0.11952,-7.7833 1.93254,-9.29082 0.81685,-0.67738 1.4876,-1.69346 1.4876,-2.25795 0,-0.56448 0.79692,-1.64697 1.76651,-2.40405 2.20481,-1.72003 16.01152,-8.43412 17.33973,-8.43412 2.01223,0 2.23804,-2.21146 0.43832,-4.20378 -1.02936,-1.13561 -1.85286,-2.35756 -1.83958,-2.71618 0.0199,-0.35862 -0.55119,-0.518 -1.26178,-0.35197 -0.7106,0.1593 -1.28838,-0.17931 -1.28838,-0.75709 0,-0.57775 -0.70394,-1.05592 -1.554,-1.05592 -1.98567,0 -6.56798,-2.83572 -8.63998,-5.33938 -1.52078,-1.84622 -1.76651,-1.8595 -4.82138,-0.27892 -1.77316,0.91645 -3.6725,1.39461 -4.21706,1.05591 -0.53792,-0.33204 -1.25516,0.0996 -1.58721,0.96961 -0.33869,0.86333 -1.693443,1.57392 -3.028303,1.57392 -1.32821,0 -2.41734,0.45823 -2.41734,1.00944 0,0.55784 -0.6973,1.00942 -1.554,1.00942 -0.85006,0 -3.35372,0.91646 -5.5519,2.0388 -2.19817,1.12234 -3.9979,1.71338 -3.9979,1.31493 0,-0.39847 -0.55121,-0.17931 -1.21531,0.4848 -0.66411,0.6641 -2.05872,1.20866 -3.10136,1.20866 -1.04264,0 -2.57672,0.68402 -3.41349,1.52744 -0.83678,0.83678 -1.9724,1.24188 -2.51696,0.90983 -0.54456,-0.33871 -1.75986,0.0398 -2.69626,0.84341 -2.20482,1.87941 -9.8885,4.8546 -10.63229,4.11743 -0.31212,-0.31877 -1.28836,0.14604 -2.16498,1.01609 -0.86996,0.87662 -2.18489,1.36804 -2.91541,1.08912 -0.72387,-0.27892 -1.90597,0.19259 -2.61657,1.04929 -0.71059,0.85668 -1.83956,1.56064 -2.49703,1.56064 -0.66411,0 -3.58615,1.1489 -6.49493,2.55016 -2.90876,1.40124 -5.67143,2.31107 -6.14295,2.02551 -0.46488,-0.2922 -1.10905,0.15284 -1.42782,0.98288 -0.31877,0.82348 -1.41454,1.5075 -2.43063,1.5075 -1.01606,0 -2.3177,0.46488 -2.8822,1.02938 -0.57113,0.57112 -2.68962,1.09577 -4.70849,1.17545 -2.10521,0.0797 -3.41349,0.55786 -3.06152,1.12234 0.777,1.25516 -6.2957,0 -8.79273,-1.56064 -0.98951,-0.61762 -1.5872,-1.66027 -1.33483,-2.331 0.25899,-0.67074 -0.71724,-1.50752 -2.20484,-1.87942 -2.2114606,-0.5512 -2.4638206,-0.92975 -1.45438,-2.13842 0.98951,-1.19538 0.89653,-1.4743 -0.4848006,-1.4743 -1.44111,0 -1.62041,-0.75709 -1.16218,-4.91438 0.30549,-2.69625 0.98951,-6.06325 1.5208006,-7.47115 0.94302,-2.46382 6.89339,-7.77665 8.77281,-7.82313 0.50471,-0.0136 2.05208,-0.90983 3.44004,-1.99895 1.38799,-1.08249 3.20763,-1.97905 4.0444,-1.99232 0.83676,-0.0136 3.626,-1.14225 6.18944,-2.50368 2.56344,-1.36804 4.91438,-2.22474 5.2265,-1.91925 0.31212,0.31212 1.5872,-0.39182 2.84235,-1.554 1.24853,-1.16882 2.99511,-2.1185 3.86509,-2.1185 0.87661,0 4.46941,-1.40124 7.97588,-3.11464 3.5131,-1.71339 6.60783,-2.88221 6.88675,-2.60992 0.27227,0.27892 2.11849,-0.59106 4.09751,-1.93254 1.97239,-1.34149 4.32332,-2.45054 5.21985,-2.47046 3.83189,-0.0731 7.41139,-6.02343 3.62602,-6.02343 -2.01888,0 -9.57637,-4.78819 -9.57637,-6.0699 0,-0.54456 -0.51801,-0.99616 -1.15555,-0.99616 -0.63091,0 -3.09472,-0.96959 -5.46556,-2.15169 -3.05489,-1.52744 -4.14401,-2.60993 -3.72563,-3.71233 0.43832,-1.13562 0.14604,-1.37471 -1.09577,-0.9032 -0.92974,0.35862 -1.68683,0.21253 -1.68683,-0.3254 0,-0.53793 -0.90981,-0.98286 -2.01887,-0.98286 -1.11568,0 -2.01886,-0.35199 -2.01886,-0.78365 0,-0.43167 -1.36806,-1.30165 -3.03496,-1.93254 -1.72003,-0.65084 -3.02832,-1.87942 -3.02832,-2.84901 0,-1.09577 -0.53791,-1.50751 -1.48759,-1.14226 -0.81683,0.31214 -1.83956,-0.007 -2.27122,-0.7106 -0.43167,-0.69729 -2.28452,-1.8794 -4.11743,-2.62319 -2.19156,-0.88326 -3.14787,-1.83958 -2.78925,-2.7826 0.39846,-1.02936 0.0199,-1.26843 -1.34148,-0.83677 -1.1954,0.38519 -2.11186,0.0332 -2.4904,-0.94967 -0.3254,-0.8567 -0.94967,-1.45438 -1.38134,-1.33485 -1.48757,0.41175 -7.29185,-3.2541 -8.38098,-5.28626 -0.59768,-1.11569 -1.52079,-1.76651 -2.05207,-1.44109 -0.90983,0.56447 -1.34814,-0.7438 -1.06257,-3.18107 0.073,-0.61761 -0.47151,-1.62705 -1.21531,-2.23802 -1.7133906,-1.42783 -1.2285906,-8.37434 0.88326,-12.64453 2.78923,-5.6316 7.09927,-8.18176 13.80671,-8.18176 3.65921,0 6.20937,0.4848 6.7008,1.26845 0.43167,0.70394 1.88606,1.48759 3.23418,1.73994 1.34813,0.25901 2.95527,1.15554 3.57287,1.99895 0.61762,0.83677 1.64035,1.52744 2.27124,1.52744 0.63089,0 1.1489,0.4516 1.1489,1.00944 0,0.55121 0.61098,1.00944 1.36141,1.00944 0.74379,0 2.19155,0.9231 3.2209,2.05207 1.02271,1.12898 2.4439,1.82629 3.15449,1.55402 0.71723,-0.27229 1.65363,0.053 2.08529,0.72385 0.97623,1.5208 3.97134,3.43342 7.60399,4.86125 1.52743,0.60434 2.77595,1.50752 2.77595,2.00558 0,0.50473 0.6973,0.90983 1.54735,0.90983 0.85005,0 1.80636,0.68402 2.12513,1.51415 0.31877,0.83677 1.2153,1.51416 1.99232,1.51416 0.77035,0 2.331,0.92311 3.45997,2.05873 1.12897,1.12897 2.49703,1.77979 3.03496,1.44774 0.54456,-0.33206 1.25516,0.10626 1.58719,0.96959 0.33206,0.86998 1.25517,1.58057 2.04544,1.58057 0.79028,0 1.69346,0.65082 1.99895,1.45439 0.3055,0.79691 1.87942,1.73994 3.49984,2.09856 1.62041,0.35197 2.94861,1.06256 2.94861,1.57392 0,0.51136 0.86998,0.92975 1.93253,0.92975 1.06921,0 2.13843,0.56449 2.39077,1.26179 0.67739,1.89269 1.73331,0.4184 1.68683,-2.35092 -0.0663,-3.89165 -0.75043,-14.6966 -1.64698,-26.15903 -0.45823,-5.83084 -0.80355,-13.43482 -0.76372,-16.90808 0.0331,-3.46662 -0.25899,-6.30897 -0.65746,-6.30897 -0.39846,0 -0.71723,-4.09088 -0.70393,-9.09822 0.0199,-7.35163 0.33868,-9.277524 1.66688,-10.021321 0.90983,-0.50471 1.6005,-1.295004 1.54073,-1.753233 -0.21917,-1.6337 2.76931,-5.166723 4.9542,-5.850744 6.607833,-2.065373 14.477453,-2.370848 13.335203,-0.524652 -0.34534,0.551208 0.31212,1.009438 1.45439,1.009438 1.14225,0 2.07863,0.451599 2.07863,1.002807 0,0.551191 0.99614,2.14504 2.21146,3.546301 2.62322,3.008388 2.67634,3.274029 3.34709,15.632994 0.28556,5.27298 0.70394,10.95106 0.93638,12.61796 0.23244,1.6669 0.72387,8.24152 1.08912,14.61691 0.36527,6.3754 0.8567,11.8941 1.08914,12.26599 0.22579,0.37855 0.63089,4.70185 0.88326,9.60958 0.65081,12.39217 1.6337,22.87172 2.23139,23.84131 0.27892,0.4516 -0.0464,1.47431 -0.71724,2.28452 -0.85669,1.03599 -0.88324,1.46766 -0.0864,1.46766 0.62426,0 1.13562,0.61763 1.13562,1.36806 0,1.67355 4.63544,5.33276 11.17685,8.82593 2.70291,1.44111 5.6316,3.2209 6.50158,3.94477 2.78924,2.31109 3.72563,-0.29883 3.7057,-10.24711 -0.0332,-12.95001 0.92974,-16.0381 6.54804,-20.97902 3.95807,-3.47991 5.35268,-4.10415 9.13142,-4.10415 3.12129,0 4.24364,0.35197 3.73891,1.1688 -0.49143,0.79693 -0.0398,0.98952 1.42783,0.60434 2.83573,-0.73715 9.2244,6.12305 9.39706,10.08773 0.1661,3.72563 0.77036,28.24433 0.91646,37.23629 0.13941,8.18839 0.83013,9.19782 9.56973,13.95282 2.77595,1.51414 5.73121,3.32051 6.56133,4.01117 2.33102,1.9259 12.4121,6.66095 12.98323,6.08983 0.27892,-0.27893 -0.32541,-1.11569 -1.3415,-1.85286 -1.02272,-0.74379 -1.52743,-1.8794 -1.12897,-2.52358 0.4051,-0.65082 0.0265,-1.43447 -0.85004,-1.77316 -0.86999,-0.33205 -1.58057,-1.40789 -1.58057,-2.39078 0,-0.98288 -0.65748,-2.33099 -1.45439,-2.99511 -0.80357,-0.66409 -1.22195,-1.80636 -0.94303,-2.54351 0.28557,-0.73715 0.0598,-1.6204 -0.49143,-1.96574 -3.03495,-1.86612 2.35092,-15.85879 6.72072,-17.46592 0.94968,-0.35197 2.03215,-1.09577 2.4107,-1.66027 0.3719,-0.56447 2.64314,-1.1024 5.04719,-1.18873 8.29464,-0.31214 13.86647,4.71514 19.89654,17.95072 2.11848,4.64207 4.76162,7.57077 5.85074,6.48163 0.68402,-0.68402 1.35476,-11.68821 1.65362,-27.1751 0.14604,-7.52429 -0.10625,-9.73575 -1.06921,-9.36386 -0.69732,0.26564 -1.26845,0.1593 -1.27508,-0.23908 -0.0136,-0.39846 -1.88606,-1.62705 -4.17058,-2.72282 -2.29115,-1.09577 -4.67529,-2.82243 -5.29289,-3.83187 -0.62426,-1.01609 -3.06816,-2.70954 -5.43238,-3.75883 -2.37085,-1.05594 -4.57566,-2.62321 -4.90771,-3.4799 -0.33205,-0.86335 -1.00944,-1.56729 -1.50752,-1.56729 -1.6669,0 -10.0346,-5.67143 -9.36386,-6.34219 0.36527,-0.36525 -0.51135,-1.11568 -1.95246,-1.66026 -1.68017,-0.64417 -3.38692,-2.68297 -4.76161,-5.69136 -2.97518,-6.52813 -1.49424,-12.95665 4.17056,-18.0636 2.17162,-1.96575 4.51591,-3.61937 5.20658,-3.67915 0.69065,-0.0665 2.74274,-0.28557 4.56238,-0.49808 3.26074,-0.37188 11.34289,2.38414 11.34289,3.87837 0,0.41839 0.4715,0.77037 1.04927,0.77037 0.57778,0 3.4135,1.5872 6.29571,3.53302 2.88885,1.93919 5.79761,3.53304 6.46173,3.53304 1.44109,0 2.49038,-6.16953 2.70289,-15.91192 0.14604,-6.84027 0.0729,-7.07271 -2.75602,-8.32121 -1.6005,-0.7106 -3.10137,-2.01888 -3.34044,-2.90878 -0.23244,-0.89654 -2.25796,-2.51031 -4.49599,-3.5928 -2.23802,-1.08914 -4.60222,-2.69627 -5.24641,-3.57288 -0.65082,-0.88325 -2.64314,-2.63649 -4.44285,-3.89164 -1.79307,-1.25517 -3.1545,-2.82909 -3.02832,-3.49319 0.12615,-0.66409 -0.56448,-1.06921 -1.53407,-0.90983 -0.96959,0.1661 -1.76651,-0.0665 -1.76651,-0.51134 0,-0.43832 -1.36143,-1.40791 -3.02831,-2.14506 -1.66691,-0.73716 -3.02832,-1.94583 -3.02832,-2.68297 0,-0.74379 -1.70675,-2.19155 -3.79203,-3.21427 -2.07864,-1.029357 -3.65256,-2.483746 -3.49319,-3.234189 0.17931,-0.836758 -0.27892,-1.148881 -1.17545,-0.803555 -0.81021,0.312139 -1.72667,-0.08637 -2.03216,-0.889904 -0.30549,-0.796924 -1.22195,-1.447741 -2.03215,-1.447741 -0.8102,0 -2.4107,-1.188748 -3.55295,-2.643138 -1.14891,-1.454372 -3.56624,-3.400211 -5.37925,-4.323317 -1.80636,-0.923089 -3.1744,-2.231388 -3.03495,-2.908762 0.13278,-0.670742 -0.21251,-1.228598 -0.78364,-1.228598 -1.77979,0 -9.07165,-5.020615 -8.81265,-6.063256 0.13941,-0.551208 -0.85005,-1.567294 -2.19154,-2.264592 -5.16008,-2.656415 -7.76336,-11.502285 -5.29953,-17.97729 1.6536,-4.336578 6.01677,-8.719671 9.49002,-9.516596 4.90108,-1.135619 9.86858,-1.308282 9.86858,-0.345342 0,0.464877 0.93639,0.843422 2.07864,0.843422 1.14226,0 1.79971,0.45823 1.45439,1.009438 -0.34533,0.557856 0.24571,1.009438 1.30828,1.009438 1.06257,0 3.16112,1.135619 4.65536,2.523585 1.50087,1.387983 2.90878,2.523603 3.13457,2.523603 0.21915,0 1.46767,1.022715 2.76931,2.271239 4.25026,4.077584 8.29466,7.291855 10.86472,8.63334 3.33381,1.746586 9.08494,6.966437 9.08494,8.254794 0,0.564503 0.49144,1.02938 1.09577,1.02938 0.61097,0 2.96191,1.587202 5.23315,3.526376 2.27122,1.945822 4.7284,3.533041 5.46557,3.533041 0.7305,0 1.33483,0.358603 1.33483,0.796924 0,1.182083 5.84412,4.402984 6.3754,3.513098 1.44774,-2.450549 1.91927,-10.047896 3.24746,-52.643476 0.65083,-21.07201 1.54072,-25.2890603 6.17616,-29.3135303 1.4079,-1.22859 3.20097,-1.97902 3.98462,-1.68017 0.8235,0.31212 1.42118,-0.0731 1.42118,-0.9231 0,-2.15169993 8.43411,-1.09577993 12.09331,1.51415 3.36037,2.38413 7.48445,10.2537603 6.7473,12.8570303 -0.28557,0.98951 -0.8102,17.49249 -1.17547,36.671804 -0.59104,31.106593 -0.48479,35.02481 0.9364,36.20691 1.02936,0.850053 1.60048,0.929754 1.60048,0.219161 0,-0.610984 1.43448,-1.852843 3.1877,-2.756041 1.75323,-0.903181 4.13736,-2.530233 5.29955,-3.612708 1.16217,-1.082508 4.38307,-3.406858 7.16567,-5.166739 2.77595,-1.766512 5.61832,-3.752184 6.32227,-4.422927 0.6973,-0.670743 2.17161,-1.507518 3.28066,-1.85949 1.10906,-0.345326 2.01223,-1.035994 2.01223,-1.520796 0,-0.750426 11.36282,-8.799372 23.55574,-16.695546 1.76651,-1.142267 5.25307,-2.211464 7.7501,-2.370848 2.49702,-0.15947 4.85459,-0.478172 5.23313,-0.710594 0.89653,-0.557855 7.39811,5.585102 8.65327,8.181741 3.33378,6.866829 1.56727,14.76302 -4.5292,20.248512 -2.09192,1.879416 -4.17055,3.433431 -4.6288,3.446709 -0.45823,0.0136 -1.42117,0.591042 -2.15168,1.28171 -0.72387,0.697315 -2.32437,1.945822 -3.55297,2.775949 -1.22858,0.836775 -4.82803,3.333805 -8.00243,5.551916 -7.13247,4.994043 -9.28417,6.388673 -11.2167,7.245357 -0.83678,0.371898 -1.87942,1.281718 -2.32437,2.012238 -0.44495,0.73715 -1.44109,1.34149 -2.21811,1.34149 -0.78363,0 -1.77979,0.61097 -2.22474,1.36141 -0.44495,0.75043 -4.21704,3.5928 -8.38099,6.30897 -4.17057,2.71619 -8.08877,5.39916 -8.71303,5.95037 -0.63089,0.55786 -2.17826,1.69346 -3.44006,2.52359 -1.26843,0.83677 -3.01503,2.31109 -3.885,3.28069 -0.86997,0.97622 -1.97239,1.76651 -2.45054,1.76651 -0.47814,0 -2.91541,1.67353 -5.41244,3.72561 l -4.54911,3.71898 0.33869,10.83153 c 0.18596,5.957 0.64419,11.13702 1.02272,11.50891 0.61763,0.61762 11.57532,-4.8546 16.45649,-8.2216 1.09577,-0.75708 2.79586,-1.37469 3.78537,-1.37469 0.98953,0 1.79309,-0.51801 1.79309,-1.14227 0,-1.554 7.6239,-0.33868 11.87416,1.89271 1.81301,0.95629 3.54632,2.53687 3.85844,3.5131 0.31214,0.98288 0.93639,1.78644 1.39462,1.78644 1.51416,0 2.16498,6.97308 1.04266,11.14366 -0.60434,2.25795 -2.55681,5.64486 -4.33662,7.52429 -2.849,3.01502 -12.65115,9.9549 -16.86158,11.93393 -0.83012,0.39182 -2.87555,1.58057 -4.54246,2.64977 -3.2209,2.05872 -9.31073,5.50541 -13.88641,7.85634 -2.09191,1.07586 -2.80915,2.22476 -2.89548,4.63544 -0.57114,15.38065 -0.6641,27.74625 -0.21915,29.28032 0.49144,1.73331 0.68403,1.70675 2.95526,-0.42503 1.33484,-1.25515 2.43061,-2.8822 2.43061,-3.61935 0,-0.73715 0.4516,-1.34149 1.00944,-1.34149 0.55785,0 1.00944,-0.67739 1.00944,-1.51416 0,-0.83678 2.21146,-3.81196 4.91437,-6.60782 l 4.90771,-5.09368 6.89341,0.29884 6.89338,0.30549 3.42678,4.78155 c 5.63823,7.84306 4.98077,11.9937 -4.37644,27.69975 -1.05592,1.76651 -1.6005,3.53303 -1.22195,3.91157 0.38517,0.38518 6.80705,-2.32435 14.26494,-6.02342 15.60642,-7.73016 15.3607,-7.41139 16.26389,-21.28451 0.76372,-11.7015 0.91645,-12.8836 1.83956,-14.31807 0.41838,-0.65083 0.31877,-1.46766 -0.22581,-1.79971 -0.55119,-0.33871 -0.79026,-1.84621 -0.54456,-3.35373 0.24572,-1.50087 0.66411,-4.32332 0.92976,-6.26912 0.59104,-4.34325 0.96958,-5.83084 2.3642,-9.20449 1.27508,-3.10135 5.83746,-6.93989 8.24153,-6.93989 0.92311,0 2.11184,-0.4051 2.64312,-0.90316 1.16882,-1.09579 7.52429,-0.23909 7.52429,1.01607 0,0.49143 0.54458,0.89653 1.21531,0.89653 0.67074,0 2.70956,1.70011 4.5292,3.77876 3.06814,3.51974 4.01781,6.84027 3.52637,12.3656 -0.88325,9.94827 -0.777,19.1793 0.21252,19.1793 0.63754,0 2.82907,-1.13561 4.87452,-2.52359 2.03879,-1.38798 4.30339,-2.53686 5.02726,-2.55016 0.72388,-0.007 2.45718,-0.90981 3.84517,-1.9923 1.38796,-1.08914 2.92204,-1.98567 3.41347,-1.99895 1.53409,-0.0398 4.65536,-4.26356 4.79484,-6.48165 0.23907,-3.91822 0.5844,-6.36212 1.32819,-9.29744 0.39847,-1.60051 0.90983,-4.95423 1.12234,-7.45789 0.88326,-10.19398 1.62041,-15.82558 2.52359,-19.27229 0.52465,-1.99893 1.20202,-7.26528 1.51416,-11.70813 0.3055,-4.43623 1.17547,-10.712 1.9259,-13.93954 0.75044,-3.22753 1.13562,-6.47501 0.85005,-7.2188 -0.28556,-0.7438 -0.13278,-1.34814 0.34535,-1.35477 0.47813,0 0.90318,-3.06816 0.94301,-6.80707 0.0996,-7.82314 1.87942,-12.02025 7.25865,-17.08737 3.36701,-3.174414 3.885,-3.333799 9.49667,-2.908772 5.25307,0.39847 6.36877,0.883256 9.57637,4.190482 4.94094,5.08041 4.93429,5.70466 -0.0598,45.82978 -0.86333,6.93988 -2.03215,15.69276 -2.59664,19.44496 -1.28836,8.56028 -1.30163,11.84094 -0.0464,11.84094 1.10241,0 12.37226,-5.14015 13.15589,-6.00349 0.27892,-0.30548 1.85949,-1.24186 3.51976,-2.07199 1.66026,-0.83013 5.85739,-3.21425 9.32401,-5.2929 3.47325,-2.0853 6.99964,-3.78539 7.84305,-3.78539 0.84342,0 1.53407,-0.45823 1.53407,-1.00944 0,-0.55785 0.67739,-1.00944 1.51416,-1.00944 0.83013,0 1.51415,-0.34534 1.51415,-0.77035 0,-0.42504 1.70676,-1.56729 3.78541,-2.53025 4.11743,-1.91262 8.69974,-4.46941 12.75077,-7.11919 1.42119,-0.92974 3.09472,-1.69346 3.72563,-1.69346 0.62424,0 2.38413,-0.88325 3.91157,-1.97238 2.82908,-2.01224 11.17685,-2.56345 11.17685,-0.73051 0,0.49808 0.65082,0.65081 1.44774,0.34532 0.86998,-0.33205 2.88885,1.04264 5.04719,3.42678 4.00455,4.42956 4.64872,8.82593 2.40405,16.3303 -1.10242,3.66585 -7.53757,10.35337 -9.96155,10.35337 -0.47152,0 -1.42781,0.57113 -2.1185,1.2618 -0.6973,0.6973 -2.03215,1.2618 -2.97517,1.2618 -0.93638,0 -1.97239,0.68402 -2.29116,1.51415 -0.31877,0.83678 -1.45437,1.51417 -2.52359,1.51417 -1.06921,0 -2.20483,0.68402 -2.5236,1.51414 -0.31877,0.83678 -1.30828,1.51417 -2.20481,1.51417 -0.88991,0 -2.30445,0.68402 -3.1412,1.52743 -0.83678,0.83677 -1.88607,1.295 -2.33767,1.01608 -0.44493,-0.27229 -1.37468,0.17266 -2.05871,1.00279 -0.69066,0.82348 -1.81964,1.50087 -2.51695,1.50087 -0.6973,0 -1.85284,0.70395 -2.56344,1.56065 -0.71059,0.85668 -1.91926,1.32156 -2.68961,1.02936 -0.76373,-0.29884 -1.64698,0.13941 -1.96575,0.96296 -0.31212,0.82348 -1.38134,1.49422 -2.3642,1.49422 -0.98288,0 -2.35093,0.68402 -3.04161,1.51416 -0.69065,0.83013 -1.88605,1.51415 -2.64977,1.51415 -0.7637,0 -1.39461,0.45158 -1.39461,1.00944 0,0.55121 -0.92311,1.00944 -2.04543,1.00944 -1.12899,0 -2.31774,0.67739 -2.63649,1.51415 -0.31879,0.83012 -1.41456,1.51416 -2.43063,1.51416 -1.02271,0 -2.15168,0.47816 -2.51695,1.0692 -0.36525,0.59106 -1.75323,1.48759 -3.08807,1.99232 -2.90878,1.10904 -3.1877,3.626 -0.50473,4.47605 1.06257,0.3387 2.17826,1.26843 2.4904,2.07201 0.33868,0.8766 1.22858,1.20202 2.23802,0.8102 1.03599,-0.39183 2.0388,0.007 2.62321,1.04929 0.52464,0.92973 1.37469,1.42781 1.89934,1.10904 0.51799,-0.3254 0.94302,-0.10625 0.94302,0.47816 0,0.59106 0.93638,1.06921 2.07865,1.06921 1.14889,0 1.80634,0.45158 1.46766,1.00279 -0.34534,0.54456 0,0.75708 0.75708,0.46488 0.75707,-0.28557 2.95526,0.54456 4.88115,1.85284 1.93255,1.30828 4.06433,2.19819 4.73507,1.9724 0.67737,-0.2258 1.22858,0.33867 1.22858,1.25515 0,1.20866 0.55786,1.48757 2.02552,1.02271 1.34149,-0.42502 2.23139,-0.11288 2.6232,0.91646 0.33206,0.85006 2.10522,1.83292 3.95142,2.17826 1.83958,0.34533 4.21706,1.44112 5.28627,2.43726 1.0692,0.98951 3.37364,2.1185 5.12687,2.50368 1.75324,0.38517 3.4467,1.11569 3.75884,1.63368 0.31875,0.51137 1.48757,0.92975 2.59664,0.92975 1.11567,0 1.73993,0.45823 1.38796,1.02272 -0.35197,0.5645 0.77037,1.295 2.53023,1.64697 6.40197,1.28173 9.94164,15.65958 5.05384,20.54073 -1.10906,1.10905 -2.01888,2.37748 -2.01888,2.80915 0,1.40791 -6.03007,4.40302 -9.78888,4.87453 -4.31002,0.53128 -10.45963,-1.2618 -10.13423,-2.96191 0.12615,-0.65081 -0.56447,-1.05592 -1.54072,-0.8899 -0.96957,0.15947 -1.76649,-0.11952 -1.76649,-0.63089 0,-0.51136 -1.36143,-1.20203 -3.02832,-1.53409 -1.6669,-0.33205 -4.96085,-1.46102 -7.32505,-2.50366 -2.35757,-1.036 -5.08704,-2.17163 -6.05663,-2.51696 -0.96959,-0.33868 -1.76651,-1.1356 -1.76651,-1.76651 0,-0.63089 -0.68402,-0.88989 -1.51417,-0.57113 -0.83677,0.31877 -1.51414,0.19258 -1.51414,-0.2922 0,-0.47815 -4.31004,-2.53688 -9.57638,-4.57566 -5.2597,-2.03882 -9.46346,-4.22371 -9.3373,-4.8546 0.12615,-0.63091 -0.22579,-1.20868 -0.78363,-1.28173 -0.55785,-0.0731 -1.69346,-0.4051 -2.5236,-0.7438 -0.83676,-0.33869 -4.92764,-1.76651 -9.09157,-3.1744 -4.16392,-1.41456 -8.10869,-3.3006 -8.76615,-4.19715 -0.65748,-0.89654 -1.6337,-1.3614 -2.17163,-1.02935 -0.53128,0.33205 -1.2286,-0.0864 -1.554,-0.91646 -0.31877,-0.83677 -0.93638,-1.44111 -1.36806,-1.34813 -0.43165,0.093 -1.46767,-0.093 -2.29779,-0.41838 -0.83676,-0.31879 -2.19817,-0.78365 -3.02832,-1.02273 -1.37468,-0.39846 -17.49248,7.28522 -19.53791,9.31073 -1.0825,1.06921 1.14226,5.35268 2.38414,4.58231 1.08249,-0.67074 9.07164,4.38972 9.07164,5.75778 0,0.51136 0.50473,0.61762 1.12234,0.23907 0.6176,-0.37855 1.41454,-0.2922 1.76652,0.19259 0.35862,0.4848 1.55399,1.38133 2.66304,1.98567 4.60889,2.51696 6.95316,13.10276 4.18386,18.92695 -2.34429,4.93429 -8.14856,9.10487 -11.68821,8.4009 -1.54074,-0.31212 -3.32717,-0.04 -3.95807,0.59106 -0.69731,0.69732 -1.16217,0.75045 -1.16217,0.13278 0,-0.55786 -1.67355,-1.67355 -3.71898,-2.47047 -12.18629,-4.7417 -13.95282,-5.6316 -13.97939,-7.00629 -0.0136,-0.83015 -0.8102,-1.44774 -1.7665,-1.36806 -0.95632,0.0797 -1.73995,-0.26564 -1.73995,-0.75707 0,-0.49144 -0.70397,-0.89654 -1.56065,-0.89654 -2.60993,0 -9.6627,-4.0444 -8.97868,-5.15344 0.35197,-0.57114 0.0265,-0.91646 -0.72385,-0.76372 -0.75045,0.14604 -2.76269,-0.47153 -4.46943,-1.38134 -3.32716,-1.77316 -5.46557,-1.81301 -7.65047,-0.1593 -0.75043,0.57113 -4.09088,2.37085 -7.42467,3.9979 -3.33381,1.62705 -6.28242,3.20762 -6.56135,3.51312 -0.77036,0.85668 -8.84586,4.88778 -9.24431,4.62216 -0.19259,-0.13278 -1.32158,0.77035 -2.51031,2.00558 l -2.1517,2.24466 2.45055,0.61099 c 1.35476,0.33868 2.88883,0.35197 3.42011,0.0199 0.5313,-0.3254 1.53409,-0.23242 2.22476,0.20587 0.6973,0.43832 4.44285,0.83677 8.3345,0.8899 8.18839,0.11952 11.17685,1.16219 14.55713,5.08704 2.90878,3.36701 4.6753,11.15029 2.98848,13.17582 -0.61763,0.75042 -0.83014,1.36141 -0.46487,1.36141 1.5075,0 -4.4827,7.37153 -7.09262,8.71967 -3.34045,1.73331 -9.07166,2.60991 -16.0514,2.46382 l -5.04717,-0.11288 4.54246,4.03775 c 2.50366,2.21811 4.93429,4.04438 5.41244,4.05103 0.47151,0.0136 2.88221,1.38133 5.35268,3.04823 2.47046,1.66026 4.92101,3.02832 5.44565,3.02832 0.53128,0 0.96295,0.4516 0.96295,1.00944 0,0.5512 0.88324,1.00279 1.9591,1.00279 1.07585,0 2.25132,0.47815 2.61657,1.06256 0.41838,0.67739 1.89269,0.31877 4.15063,-1.00944 1.93255,-1.13562 3.978,-2.06535 4.55576,-2.06535 0.57776,0 2.28452,-0.88326 3.79203,-1.95247 1.50752,-1.07585 4.07759,-2.28452 5.71129,-2.68297 1.6337,-0.4051 4.32995,-1.74661 5.99685,-2.98848 4.81475,-3.58615 15.82558,-7.51763 21.05208,-7.51763 4.3233,0 5.1335,0.41173 9.27086,4.7284 4.39638,4.58233 4.51593,4.8878 4.09753,10.06117 -0.45158,5.5187 -3.16112,11.44914 -5.23978,11.44914 -0.65744,0 -1.45437,0.68403 -1.77315,1.51415 -0.31876,0.83678 -1.50087,1.51417 -2.62985,1.51417 -1.12897,0 -2.05207,0.45823 -2.05207,1.00942 0,0.55785 -0.85669,1.00945 -1.89935,1.00945 -1.04264,0 -2.46382,0.68402 -3.15447,1.51415 -0.69069,0.83678 -2.10521,1.51417 -3.1545,1.51417 -1.04264,0 -1.89269,0.42501 -1.89269,0.94301 0,0.51801 -0.88326,1.22195 -1.96575,1.56729 -2.7826,0.87661 -1.61377,2.94199 2.52359,4.43621 1.93254,0.69731 3.2541,1.69347 2.93535,2.21146 -0.31879,0.51136 0.26564,0.93639 1.30826,0.93639 1.03601,0 2.91543,0.9563 4.17058,2.12513 3.26738,3.04159 11.2167,3.45334 15.69941,0.8102 1.86612,-1.1024 4.4694,-2.20482 5.77769,-2.45718 1.30165,-0.24572 3.7389,-1.09577 5.4058,-1.88605 1.66689,-0.79027 6.43516,-2.70291 10.60574,-4.25691 4.16391,-1.554 8.54699,-3.43341 9.74239,-4.18384 1.18874,-0.74379 3.38028,-1.56729 4.8546,-1.83956 1.48094,-0.26566 4.36315,-1.38134 6.40195,-2.47048 2.04543,-1.09577 4.403,-1.9923 5.23977,-1.99895 0.84341,0 2.89549,-0.90981 4.56239,-2.01223 1.6669,-1.10241 3.83852,-2.00559 4.83468,-2.01222 0.98951,0 2.82243,-0.67075 4.07093,-1.49424 1.24853,-0.81685 3.16779,-1.65361 4.25691,-1.85949 1.09577,-0.20587 3.30724,-0.91646 4.92766,-1.58057 4.66864,-1.90598 12.85703,-1.73994 16.01152,0.32541 1.50752,0.98951 2.45055,2.27124 2.09193,2.85565 -0.37854,0.61097 -0.1661,0.75043 0.51799,0.33205 2.68299,-1.66025 4.4163,11.35616 2.09193,15.6994 -1.78644,3.33379 -5.23978,6.91331 -6.66759,6.91331 -0.73052,0 -1.33484,0.45159 -1.33484,1.00944 0,0.55121 -1.13564,1.00944 -2.5236,1.00944 -1.38799,0 -2.52359,0.4516 -2.52359,1.00944 0,0.5512 -1.13562,1.00943 -2.5236,1.00943 -1.38797,0 -2.52359,0.4516 -2.52359,1.00944 0,0.55121 -0.88325,1.00944 -1.96575,1.00944 -1.07584,0 -3.55959,0.94303 -5.51869,2.09856 -1.95912,1.14891 -4.09751,1.76653 -4.76162,1.35478 -0.7106,-0.43831 -0.92976,-0.31212 -0.54456,0.31877 0.79027,1.27508 -1.79972,2.43725 -3.74556,1.68683 -0.76372,-0.29222 -1.6536,0.17931 -1.98565,1.04264 -0.33207,0.86333 -1.3083,1.56727 -2.16498,1.56727 -0.86334,0 -2.35094,0.4184 -3.31388,0.92974 -6.38868,3.37366 -10.89794,4.83467 -11.5886,3.75883 -0.47151,-0.73715 -0.7438,-0.518 -0.75708,0.61099 -0.007,1.10904 -0.79029,1.76651 -2.1052,1.76651 -1.14892,0 -2.80253,0.71059 -3.66586,1.57392 -0.86334,0.86333 -2.19818,1.33486 -2.95526,1.04264 -0.96958,-0.3719 -1.38798,0.31214 -1.38798,2.29115 0,2.27788 0.43832,2.80917 2.27124,2.74276 1.30828,-0.0466 2.16498,0.45823 2.01887,1.1821 -0.1394,0.6973 0.62427,1.2618 1.70011,1.2618 1.0692,0 2.54351,0.59105 3.28066,1.32156 0.73052,0.72387 2.13178,1.61378 3.10137,1.98568 0.96958,0.36525 1.76653,1.15554 1.76653,1.75323 0,0.59769 0.57111,0.96294 1.26178,0.81685 1.42119,-0.29886 6.734,2.92869 8.4341,5.11359 0.61764,0.79028 1.65363,1.08913 2.33765,0.67075 0.78365,-0.48481 1.43446,0.007 1.78644,1.34813 0.29884,1.15553 0.95631,1.85284 1.45439,1.54735 0.49143,-0.30549 2.21811,0.38518 3.82523,1.52744 1.60713,1.14225 3.42677,2.08528 4.03111,2.08528 0.61098,0 1.10906,0.4516 1.10906,1.00944 0,0.55121 0.90981,1.00944 2.01886,1.00944 1.12234,0 2.01887,0.67074 2.01887,1.50752 0,0.83676 0.81022,1.51415 1.79974,1.51415 0.98286,0 2.56343,0.90318 3.50645,1.99896 0.99616,1.16881 2.37086,1.74659 3.29395,1.3946 1.01609,-0.39181 1.48096,-0.11289 1.28836,0.777 -0.1593,0.75709 0.39184,1.40126 1.22197,1.42783 1.67353,0.0466 9.56307,7.43796 9.6494,9.03844 0.0265,0.55786 0.42503,2.7494 0.88326,4.87453 0.54458,2.52358 0.4184,4.76162 -0.3586,6.46836 -1.48095,3.2541 -5.23978,7.28522 -6.80707,7.31179 -0.64417,0.007 -1.34149,0.51134 -1.54071,1.10905 -0.4848,1.44774 -6.68753,1.84621 -7.35828,0.47815 -0.34532,-0.69066 -0.73051,-0.62426 -1.11569,0.19922 -0.83013,1.77981 -2.43725,1.5673 -2.43725,-0.3254 0,-1.14889 -0.58441,-1.39461 -2.15169,-0.89655 -1.44111,0.45825 -1.91927,0.31214 -1.45439,-0.4383 0.37853,-0.61762 0.0663,-1.1157 -0.69069,-1.1157 -2.48373,0 -9.84199,-4.05102 -9.58964,-5.27298 0.1394,-0.65746 -0.43166,-1.22195 -1.26844,-1.2618 -3.18768,-0.13941 -13.12932,-5.57845 -13.12932,-7.18558 0,-1.04266 -0.5512,-1.42783 -1.51416,-1.05593 -0.83013,0.31877 -1.51413,0.23243 -1.51413,-0.19259 0,-0.42503 -1.6669,-1.37471 -3.69908,-2.11184 -2.03215,-0.73716 -4.64871,-2.33101 -5.80424,-3.53969 -1.16219,-1.2153 -4.27019,-3.00838 -6.9067,-3.9979 -2.79585,-1.04264 -4.80145,-2.42397 -4.80145,-3.30723 0,-0.83013 -0.56449,-1.32156 -1.2618,-1.08914 -0.69067,0.23246 -1.71339,-0.17929 -2.27122,-0.90981 -0.55786,-0.73715 -2.48376,-1.62705 -4.29012,-1.98567 l -3.28068,-0.64417 0,8.06221 c 0,4.43622 0.40512,10.28696 0.90319,12.9965 0.78364,4.23697 1.87278,20.23524 2.60993,38.23907 0.27229,6.64103 -0.93638,10.75848 -3.93149,13.35512 -5.34604,4.64872 -8.85251,5.27963 -16.54281,2.98182 -6.90668,-2.06536 -8.63999,-5.81754 -9.84202,-21.38413 -0.25901,-3.32716 -0.71059,-9.00524 -1.00943,-12.61796 -0.29885,-3.60608 -0.70397,-9.28416 -0.90983,-12.61132 -0.19922,-3.3338 -0.65745,-9.01189 -1.02272,-12.61796 -1.28836,-12.8172 -1.63368,-16.73542 -2.08528,-23.71515 -0.777,-12.00033 -1.38134,-14.25829 -4.15064,-15.52009 -1.52079,-0.69067 -2.22476,-1.60713 -1.78645,-2.31772 0.49145,-0.79693 0.1661,-0.96294 -0.98951,-0.51799 -1.0692,0.4051 -1.93918,0.0864 -2.2978,-0.83677 -0.31212,-0.8235 -1.06256,-1.50087 -1.66025,-1.50087 -2.16499,0 -9.79552,-4.24364 -9.24431,-5.14017 0.31212,-0.50473 0.11952,-0.91646 -0.43167,-0.91646 -1.5673,0 -2.07865,2.74275 -2.57672,13.79343 -0.47815,10.7651 -3.03496,18.50191 -6.10975,18.50191 -0.7903,0 -1.80636,0.63754 -2.25132,1.42119 -0.93638,1.64033 -5.27961,2.41069 -7.11919,1.26843 -0.71057,-0.44495 -1.26178,-0.31877 -1.26178,0.27893 0,0.59105 -0.7106,1.0692 -1.57393,1.0692 -0.86997,0 -1.31493,-0.41838 -0.99616,-0.93638 0.31877,-0.51799 0.11952,-1.22858 -0.44495,-1.57393 -0.56448,-0.35197 -1.02271,-0.15267 -1.02271,0.43168 0,0.59104 -0.44495,1.06919 -0.98288,1.06919 -0.53792,0 -0.71723,-0.67739 -0.39846,-1.51415 0.39846,-1.02271 -0.0464,-1.51416 -1.38798,-1.51416 -5.24641,0 -6.39532,-5.00069 -6.8469,-29.77176 -0.17267,-9.43689 -0.35198,-17.92414 -0.39846,-18.86717 -0.12615,-2.52359 -3.95142,-6.05661 -9.68263,-8.95211 -2.82244,-1.42117 -4.92102,-3.14122 -4.75499,-3.89164 0.18596,-0.85006 -0.28555,-1.1157 -1.30163,-0.72388 -0.92974,0.35862 -1.83292,-0.0136 -2.17162,-0.88325 -0.31212,-0.8235 -1.28837,-1.50089 -2.16498,-1.50089 -0.87661,0 -3.57952,-0.95629 -6.0035,-2.13176 -2.43062,-1.17547 -4.72841,-1.79309 -5.12022,-1.37469 -0.38519,0.41838 -0.13278,0.95631 0.55784,1.20866 0.69731,0.24573 1.2618,1.23524 1.2618,2.19153 0,0.95631 0.67074,2.62323 1.48759,3.69908 0.81685,1.07584 1.49422,2.75602 1.51415,3.72561 0.0199,0.96959 0.53128,1.76651 1.1489,1.76651 0.61761,0 0.85005,0.69732 0.52465,1.55402 -0.33206,0.85003 -0.0136,1.77314 0.71058,2.05207 1.62042,0.62425 2.12513,8.23487 0.77701,11.77454 -1.11569,2.94199 -6.56135,8.83923 -8.16183,8.83923 -0.57778,0 -1.91262,0.53793 -2.96191,1.19539 -1.47431,0.91646 -3.1877,0.90317 -7.49772,-0.0598 -5.87068,-1.31493 -6.24258,-1.68683 -12.09996,-12.23279 -2.76267,-4.97413 -5.49213,-8.28137 -6.06327,-7.35163 -0.8567,1.40126 -1.72003,29.01468 -0.93638,30.06397 0.41838,0.55784 2.57673,2.35092 4.79482,3.97798 2.22474,1.6337 4.39637,3.54631 4.82805,4.24363 0.43165,0.70394 1.45437,1.02271 2.27122,0.70394 0.95631,-0.36526 1.48759,0.0531 1.48759,1.16218 0,1.04264 0.54456,1.5208 1.37469,1.20203 0.75707,-0.29222 3.14122,1.01608 5.29955,2.90213 2.16497,1.88606 4.49598,3.43341 5.19328,3.44669 0.69732,0.007 1.2618,0.39182 1.2618,0.8567 0,0.45823 1.21532,1.48094 2.7029,2.27124 5.7445,3.04824 9.25095,7.11917 10.45962,12.16636 1.49424,6.22929 0.76373,9.15135 -3.34043,13.30198 -5.30618,5.37261 -7.74345,6.18946 -14.02587,4.70851 -5.77106,-1.35478 -12.96329,-4.58895 -12.96329,-5.81755 0,-0.92309 -7.52429,-4.2569 -9.60293,-4.2569 -1.13562,0 -1.52744,1.30164 -1.58057,5.29954 -0.0332,2.91542 -0.26564,6.66096 -0.51136,8.32786 -0.56448,3.80532 0.41838,9.80881 1.49423,9.1447 1.03601,-0.64417 5.25307,2.45055 14.01922,10.28032 2.01888,1.80636 4.25691,3.28067 4.97414,3.28067 0.71724,0 1.19539,0.56449 1.05591,1.26181 -0.14604,0.70394 0.52466,1.12897 1.51417,0.96294 1.04929,-0.17267 1.76651,0.33871 1.76651,1.2618 0,0.8567 0.37855,1.56064 0.84341,1.56064 1.11571,0 10.08774,6.90003 13.10276,10.0811 1.30828,1.37467 2.90878,2.51031 3.5596,2.51694 1.45439,0.0199 16.83502,11.76128 16.83502,12.8504 0,0.4383 0.67737,0.79029 1.51415,0.79029 0.83012,0 1.51415,0.45823 1.51415,1.00944 0,0.55784 0.67739,1.00942 1.51416,1.00942 0.83013,0 1.51415,0.68404 1.51415,1.51417 0,0.83013 0.71059,1.51415 1.58057,1.51415 1.70674,0 6.64104,5.33275 7.38482,7.96924 0.24573,0.8899 0.44495,3.71898 0.44495,6.28907 -0.0136,5.45891 -2.59662,9.71583 -7.87625,12.97658 -2.95526,1.82627 -4.03775,1.99895 -7.20552,1.12232 -2.05208,-0.57111 -4.00455,-0.88325 -4.32995,-0.70394 -0.99616,0.53128 -8.68647,-3.87837 -8.16184,-4.68194 0.27228,-0.41173 -2.01224,-2.05871 -5.06711,-3.66584 -3.05487,-1.60049 -5.43901,-3.42678 -5.29955,-4.05103 0.13941,-0.62426 -1.5872,-1.87941 -3.84515,-2.77596 -2.25131,-0.90318 -3.89829,-2.15169 -3.6592,-2.77595 0.23907,-0.62425 -1.77981,-2.20482 -4.48935,-3.50647 -2.70954,-1.30828 -4.92764,-2.89548 -4.93429,-3.52639 -0.0136,-0.63752 -1.86613,-2.04543 -4.13071,-3.12792 -2.25796,-1.08249 -4.64209,-2.71618 -5.28627,-3.63264 -0.65082,-0.91645 -2.7693,-2.4771 -4.71514,-3.46663 -1.93918,-0.99614 -3.8518,-2.31107 -4.25025,-2.92204 -2.3775,-3.69242 -2.98846,2.46381 -4.40965,44.28904 -0.9231,27.06886 -1.00944,28.0318 -2.83572,31.56484 -2.41733,4.67529 -8.17511,8.04228 -14.00595,8.19504 -3.25409,0.0864 -4.79481,-0.28557 -4.79481,-1.15555 z m 39.57392,-140.73015 c -0.72389,-0.2922 -1.60048,-0.25234 -1.93255,0.0797 -0.33869,0.33869 0.259,0.57776 1.32156,0.53128 1.1821,-0.0466 1.42119,-0.28555 0.61099,-0.61097 z M 66.813757,190.91598 c 0,-0.55121 -0.48479,-1.00942 -1.06921,-1.00942 -0.59105,0 -0.79028,0.45821 -0.44494,1.00942 0.3387,0.55784 0.82348,1.00944 1.0692,1.00944 0.24573,0 0.44495,-0.4516 0.44495,-1.00944 z m 0,0"
     style="fill:url(#radialGradient2994);fill-rule:nonzero;stroke:#000000;stroke-width:1.00961268;stroke-linecap:butt;stroke-linejoin:miter;stroke-miterlimit:4;stroke-opacity:1" />
</svg>
