<?xml version="1.0" encoding="UTF-8"?>
<svg xmlns="http://www.w3.org/2000/svg" xmlns:xlink="http://www.w3.org/1999/xlink" width="1023pt" height="858pt" viewBox="0 0 1023 858" version="1.1">
<g id="surface1">
<path style=" stroke:none;fill-rule:nonzero;fill:rgb(0%,0%,0%);fill-opacity:1;" d="M 856.25 105.46875 C 868.328125 101.707031 879.605469 111.871094 886.058594 121.113281 C 900.859375 144.933594 900.832031 173.996094 907.757812 200.425781 C 909.976562 202.441406 912.109375 204.574219 914.179688 206.796875 C 913.5 211.980469 909.058594 215.386719 906.246094 219.417969 C 923.355469 282.375 935.167969 346.722656 942.332031 411.546875 C 944.3125 430.835938 944.609375 451.160156 953.816406 468.757812 C 962.460938 484.992188 976.046875 497.761719 987.085938 512.339844 C 1002.035156 531.539062 1010.351562 554.707031 1020.417969 576.628906 C 1026.398438 587.296875 1021.394531 599.589844 1023.199219 611.027344 C 1009.996094 635.765625 982.855469 646.578125 959.824219 659.792969 C 929.808594 679.496094 893.222656 684.382812 861.90625 701.507812 C 813.863281 728.378906 770.585938 763.160156 721.6875 788.640625 C 698.125 800.847656 675.066406 814.089844 650.703125 824.667969 C 627.023438 835.453125 600.085938 832.726562 575.609375 840.667969 C 550.417969 847.71875 525.019531 861.523438 498.171875 855.390625 C 483.105469 852.074219 476 836.605469 471.53125 823.335938 C 463.449219 797.351562 460.371094 768.347656 471.117188 742.628906 C 486.953125 703.492188 514.984375 669.867188 548.078125 644.0625 C 548.375 642.222656 548.9375 638.519531 549.234375 636.652344 C 592.925781 611.914062 624.125 571.386719 663.964844 541.582031 C 683.917969 524.128906 708.871094 510.679688 721.507812 486.445312 C 728.316406 458.386719 744.539062 430.6875 736.488281 400.972656 C 730.625 383.253906 721.570312 366.664062 718.402344 348.058594 C 703.039062 324.859375 699.605469 292.625 673.644531 277.632812 C 674.148438 271.617188 673.261719 265.308594 675.09375 259.53125 C 677.820312 257.695312 680.660156 256.003906 683.589844 254.433594 C 676.753906 231.917969 666.214844 210.707031 654.285156 190.53125 C 650.792969 182.203125 640.667969 182.621094 633.507812 179.65625 C 640.433594 166.859375 652.421875 157.851562 665.476562 151.925781 C 695.164062 138.328125 728.167969 135.453125 759.042969 125.527344 C 790.714844 115.484375 824.460938 115.070312 856.25 105.46875 M 839.824219 130.921875 C 840.445312 154.414062 851.484375 176.101562 854.980469 199.210938 C 857.257812 201.730469 859.476562 204.335938 861.699219 206.972656 C 868.238281 205.492188 875.316406 205.195312 881.175781 201.550781 C 879.578125 175.984375 871.554688 151.066406 861.253906 127.75 C 853.972656 127.335938 846.898438 129.914062 839.824219 130.921875 M 798.796875 138.207031 C 807.027344 163.925781 813.921875 189.996094 822.09375 215.710938 C 831.773438 213.726562 849.828125 215.832031 849.5625 201.519531 C 845.152344 177.554688 839.144531 153.554688 829.078125 131.277344 C 818.570312 131.15625 808.003906 132.964844 798.796875 138.207031 M 762.535156 143.925781 C 769.582031 169.316406 779.023438 194.027344 784.292969 219.917969 C 785.742188 221.195312 788.644531 223.710938 790.09375 224.984375 C 799.09375 222.910156 808.089844 220.660156 816.675781 217.164062 C 810.429688 195.890625 804.273438 174.621094 797.996094 153.347656 C 796.371094 147.363281 793.707031 141.761719 790.390625 136.550781 C 781.066406 138.917969 771.800781 141.40625 762.535156 143.925781 M 726.691406 152.25 C 734.800781 174.589844 741.402344 197.433594 748.355469 220.15625 C 750.015625 226.46875 753.449219 232.007812 757.03125 237.371094 C 764.519531 234.613281 771.949219 231.710938 779.496094 229.132812 C 777.78125 209.164062 771 190.144531 765.347656 171.066406 C 762.921875 162.324219 759.367188 153.96875 754.367188 146.414062 C 745.101562 148.25 735.835938 149.96875 726.691406 152.25 M 695.28125 161.496094 C 692.324219 168.191406 698.007812 174.234375 700.226562 180.21875 C 708.128906 196.632812 711.296875 215.148438 721.390625 230.527344 C 723.730469 234.554688 726.957031 238.347656 727.191406 243.265625 C 720.859375 243.414062 718.3125 237.429688 715.382812 232.984375 C 703.601562 213.699219 700.9375 190.234375 688.476562 171.300781 C 685.722656 165.878906 678.738281 167.6875 674.414062 169.730469 C 671.839844 171.359375 666.363281 171.746094 668.140625 175.984375 C 683.976562 200.425781 697.03125 226.554688 708.839844 253.191406 C 721.125 248.835938 733.617188 245.101562 745.988281 241.015625 C 746.253906 237.578125 746.582031 234.171875 746.964844 230.761719 C 739.921875 209.164062 733.914062 187.210938 726.480469 165.730469 C 725.238281 160.84375 721.421875 157.464844 718.253906 153.820312 C 710.617188 156.457031 702.683594 158.265625 695.28125 161.496094 M 708.128906 270.464844 C 726.542969 311.40625 744.597656 352.53125 761.351562 394.1875 C 765.230469 403.28125 763.128906 413.445312 762.445312 422.984375 C 758.867188 453.171875 752.648438 484.164062 736.457031 510.355469 C 717.660156 538.589844 683.472656 549.699219 660.089844 573.164062 C 633.566406 599.175781 604.675781 622.699219 577.976562 648.476562 C 591.445312 659.734375 604.914062 671.347656 615.035156 685.894531 C 628.445312 703.523438 636.761719 724.203125 644.992188 744.554688 C 650.703125 760.230469 649.433594 777.292969 653.84375 793.261719 C 654.90625 793.707031 657.039062 794.625 658.105469 795.101562 C 723.492188 768.375 783.9375 730.453125 840.976562 689.003906 C 855.394531 679.9375 874.457031 679.9375 886.621094 666.902344 C 882.539062 657.1875 878.867188 647.171875 877.535156 636.683594 C 876.320312 625.542969 870.785156 615.53125 869.097656 604.507812 C 862.46875 567.503906 873.628906 528.1875 896.894531 498.949219 C 904.972656 488.460938 915.777344 480.636719 925.429688 471.691406 C 914.0625 431.902344 913.945312 390.1875 907.992188 349.480469 C 901.957031 313.039062 892.898438 277.1875 885.734375 240.953125 C 884.519531 234.792969 882.507812 228.835938 879.992188 223.089844 C 821.265625 233.222656 764.964844 253.191406 708.128906 270.464844 M 919.507812 486.058594 C 886.917969 512.753906 869.394531 556.957031 874.988281 598.703125 C 876.144531 610.820312 882.390625 621.664062 883.871094 633.722656 C 885.082031 644.355469 888.902344 654.371094 892.75 664.324219 C 930.402344 655.023438 964.648438 635.675781 996.085938 613.398438 C 997.210938 566.023438 966.101562 527.121094 940.613281 490.179688 C 937.003906 482.652344 925.398438 479.839844 919.507812 486.058594 M 494.5625 753.679688 C 486.953125 780.257812 489.972656 812.609375 509.894531 833.230469 C 554.796875 829.347656 597.867188 815.246094 641.292969 804.078125 C 642.355469 800.609375 643.601562 797.261719 645.082031 794.003906 C 641.558594 774.804688 642.03125 754.421875 632.707031 736.734375 C 623.53125 712.382812 610.003906 689.449219 591.265625 671.230469 C 584.101562 664.445312 576.820312 657.007812 566.964844 654.402344 C 538.398438 683.644531 506.992188 713.476562 494.5625 753.679688 Z M 494.5625 753.679688 "/>
<path style=" stroke:none;fill-rule:nonzero;fill:rgb(60.784314%,100%,91.372549%);fill-opacity:1;" d="M 839.824219 130.921875 C 846.898438 129.914062 853.972656 127.335938 861.253906 127.75 C 871.554688 151.066406 879.578125 175.984375 881.175781 201.550781 C 875.316406 205.195312 868.238281 205.492188 861.699219 206.972656 C 859.476562 204.335938 857.257812 201.730469 854.980469 199.210938 C 851.484375 176.101562 840.445312 154.414062 839.824219 130.921875 Z M 839.824219 130.921875 "/>
<path style=" stroke:none;fill-rule:nonzero;fill:rgb(60.784314%,100%,91.372549%);fill-opacity:1;" d="M 798.796875 138.207031 C 808.003906 132.964844 818.570312 131.15625 829.078125 131.277344 C 839.144531 153.554688 845.152344 177.554688 849.5625 201.519531 C 849.828125 215.832031 831.773438 213.726562 822.09375 215.710938 C 813.921875 189.996094 807.027344 163.925781 798.796875 138.207031 Z M 798.796875 138.207031 "/>
<path style=" stroke:none;fill-rule:nonzero;fill:rgb(60.784314%,100%,91.372549%);fill-opacity:1;" d="M 762.535156 143.925781 C 771.800781 141.40625 781.066406 138.917969 790.390625 136.550781 C 793.707031 141.761719 796.371094 147.363281 797.996094 153.347656 C 804.273438 174.621094 810.429688 195.890625 816.675781 217.164062 C 808.089844 220.660156 799.09375 222.910156 790.09375 224.984375 C 788.644531 223.710938 785.742188 221.195312 784.292969 219.917969 C 779.023438 194.027344 769.582031 169.316406 762.535156 143.925781 Z M 762.535156 143.925781 "/>
<path style=" stroke:none;fill-rule:nonzero;fill:rgb(60.784314%,100%,91.372549%);fill-opacity:1;" d="M 726.691406 152.25 C 735.835938 149.96875 745.101562 148.25 754.367188 146.414062 C 759.367188 153.96875 762.921875 162.324219 765.347656 171.066406 C 771 190.144531 777.78125 209.164062 779.496094 229.132812 C 771.949219 231.710938 764.519531 234.613281 757.03125 237.371094 C 753.449219 232.007812 750.015625 226.46875 748.355469 220.15625 C 741.402344 197.433594 734.800781 174.589844 726.691406 152.25 Z M 726.691406 152.25 "/>
<path style=" stroke:none;fill-rule:nonzero;fill:rgb(60.784314%,100%,91.372549%);fill-opacity:1;" d="M 695.28125 161.496094 C 702.683594 158.265625 710.617188 156.457031 718.253906 153.820312 C 721.421875 157.464844 725.238281 160.84375 726.480469 165.730469 C 733.914062 187.210938 739.921875 209.164062 746.964844 230.761719 C 746.582031 234.171875 746.253906 237.578125 745.988281 241.015625 C 733.617188 245.101562 721.125 248.835938 708.839844 253.191406 C 697.03125 226.554688 683.976562 200.425781 668.140625 175.984375 C 666.363281 171.746094 671.839844 171.359375 674.414062 169.730469 C 678.738281 167.6875 685.722656 165.878906 688.476562 171.300781 C 700.9375 190.234375 703.601562 213.699219 715.382812 232.984375 C 718.3125 237.429688 720.859375 243.414062 727.191406 243.265625 C 726.957031 238.347656 723.730469 234.554688 721.390625 230.527344 C 711.296875 215.148438 708.128906 196.632812 700.226562 180.21875 C 698.007812 174.234375 692.324219 168.191406 695.28125 161.496094 Z M 695.28125 161.496094 "/>
<path style=" stroke:none;fill-rule:nonzero;fill:rgb(60.784314%,100%,91.372549%);fill-opacity:1;" d="M 708.128906 270.464844 C 764.964844 253.191406 821.265625 233.222656 879.992188 223.089844 C 882.507812 228.835938 884.519531 234.792969 885.734375 240.953125 C 892.898438 277.1875 901.957031 313.039062 907.992188 349.480469 C 913.945312 390.1875 914.0625 431.902344 925.429688 471.691406 C 915.777344 480.636719 904.972656 488.460938 896.894531 498.949219 C 873.628906 528.1875 862.46875 567.503906 869.097656 604.507812 C 870.785156 615.53125 876.320312 625.542969 877.535156 636.683594 C 878.867188 647.171875 882.539062 657.1875 886.621094 666.902344 C 874.457031 679.9375 855.394531 679.9375 840.976562 689.003906 C 783.9375 730.453125 723.492188 768.375 658.105469 795.101562 C 657.039062 794.625 654.90625 793.707031 653.84375 793.261719 C 649.433594 777.292969 650.703125 760.230469 644.992188 744.554688 C 636.761719 724.203125 628.445312 703.523438 615.035156 685.894531 C 604.914062 671.347656 591.445312 659.734375 577.976562 648.476562 C 604.675781 622.699219 633.566406 599.175781 660.089844 573.164062 C 683.472656 549.699219 717.660156 538.589844 736.457031 510.355469 C 752.648438 484.164062 758.867188 453.171875 762.445312 422.984375 C 763.128906 413.445312 765.230469 403.28125 761.351562 394.1875 C 744.597656 352.53125 726.542969 311.40625 708.128906 270.464844 Z M 708.128906 270.464844 "/>
<path style=" stroke:none;fill-rule:nonzero;fill:rgb(60.784314%,100%,91.372549%);fill-opacity:1;" d="M 919.507812 486.058594 C 925.398438 479.839844 937.003906 482.652344 940.613281 490.179688 C 966.101562 527.121094 997.210938 566.023438 996.085938 613.398438 C 964.648438 635.675781 930.402344 655.023438 892.75 664.324219 C 888.902344 654.371094 885.082031 644.355469 883.871094 633.722656 C 882.390625 621.664062 876.144531 610.820312 874.988281 598.703125 C 869.394531 556.957031 886.917969 512.753906 919.507812 486.058594 Z M 919.507812 486.058594 "/>
<path style=" stroke:none;fill-rule:nonzero;fill:rgb(60.784314%,100%,91.372549%);fill-opacity:1;" d="M 494.5625 753.679688 C 506.992188 713.476562 538.398438 683.644531 566.964844 654.402344 C 576.820312 657.007812 584.101562 664.445312 591.265625 671.230469 C 610.003906 689.449219 623.53125 712.382812 632.707031 736.734375 C 642.03125 754.421875 641.558594 774.804688 645.082031 794.003906 C 643.601562 797.261719 642.355469 800.609375 641.292969 804.078125 C 597.867188 815.246094 554.796875 829.347656 509.894531 833.230469 C 489.972656 812.609375 486.953125 780.257812 494.5625 753.679688 Z M 494.5625 753.679688 "/>
<path style=" stroke:none;fill-rule:nonzero;fill:rgb(0%,0%,0%);fill-opacity:1;" d="M 600.855469 20.15625 C 613.496094 20.613281 620.769531 33.945312 623.792969 44.808594 C 629.859375 72.195312 620.199219 99.601562 617.976562 126.832031 C 619.402344 129.472656 620.707031 132.191406 621.925781 134.976562 C 619.566406 139.640625 614.246094 141.378906 610.257812 144.246094 C 605.535156 209.320312 595.351562 273.949219 580.625 337.480469 C 576.105469 356.335938 569.648438 375.605469 572.5 395.265625 C 575.273438 413.453125 583.859375 430.007812 589.445312 447.425781 C 597.183594 470.5 597.355469 495.117188 599.582031 519.140625 C 601.6875 531.1875 592.894531 541.128906 590.808594 552.515625 C 570.15625 571.46875 540.964844 572.660156 514.859375 577.480469 C 480.015625 586.101562 443.878906 578.566406 408.660156 584.324219 C 354.433594 593.726562 302.078125 612.171875 247.503906 619.972656 C 221.230469 623.664062 195.085938 628.503906 168.601562 630.394531 C 142.6875 632.707031 118.179688 621.191406 92.453125 620.554688 C 66.351562 618.84375 37.816406 623.4375 14.523438 608.738281 C 1.40625 600.605469 -0.167969 583.65625 0.0117188 569.652344 C 1 542.457031 7.707031 514.070312 26.367188 493.378906 C 54.277344 461.714844 91.867188 439.296875 131.640625 425.941406 C 132.527344 424.304688 134.285156 421 135.183594 419.335938 C 184.597656 410.503906 227.464844 382.625 274.925781 367.738281 C 299.53125 357.898438 327.53125 353.492188 347.484375 334.828125 C 363.207031 310.617188 387.691406 289.871094 389.941406 259.164062 C 390.285156 240.503906 387.238281 221.84375 390.417969 203.242188 C 383.609375 176.257812 391.054688 144.707031 371.53125 121.945312 C 374 116.4375 375.253906 110.191406 378.898438 105.351562 C 382.078125 104.519531 385.316406 103.871094 388.601562 103.363281 C 389.613281 79.851562 386.703125 56.339844 382.136719 33.347656 C 381.601562 24.332031 371.914062 21.363281 366.136719 16.191406 C 376.914062 6.414062 391.207031 1.898438 405.484375 0.644531 C 438 -2.328125 470.089844 5.917969 502.503906 6.804688 C 535.710938 7.84375 567.683594 18.65625 600.855469 20.15625 M 576.925781 38.710938 C 569.722656 61.082031 572.953125 85.203125 568.589844 108.164062 C 569.90625 111.296875 571.136719 114.496094 572.355469 117.71875 C 579.019531 118.492188 585.789062 120.5625 592.527344 119.070312 C 599.492188 94.417969 600.183594 68.25 598.191406 42.835938 C 591.460938 40.023438 583.933594 40.109375 576.925781 38.710938 M 535.804688 31.964844 C 535.046875 58.957031 532.910156 85.84375 532.097656 112.816406 C 541.886719 114.15625 558.222656 122.136719 562.714844 108.546875 C 566.496094 84.472656 568.78125 59.835938 566.667969 35.476562 C 556.796875 31.878906 546.226562 30.074219 535.804688 31.964844 M 499.703125 25.320312 C 497.933594 51.613281 498.652344 78.058594 495.042969 104.234375 C 495.988281 105.917969 497.890625 109.257812 498.835938 110.941406 C 508.011719 111.972656 517.25 112.835938 526.503906 112.386719 C 527.664062 90.246094 528.902344 68.132812 530.035156 45.980469 C 530.480469 39.796875 529.824219 33.628906 528.425781 27.609375 C 518.84375 26.75 509.277344 26.019531 499.703125 25.320312 M 463.125 21.273438 C 463.375 45.039062 462.03125 68.78125 461.0625 92.527344 C 460.535156 99.03125 461.9375 105.398438 463.539062 111.644531 C 471.519531 111.53125 479.488281 111.261719 487.464844 111.335938 C 492.460938 91.925781 492.371094 71.734375 493.359375 51.855469 C 493.96875 42.804688 493.386719 33.742188 491.171875 24.957031 C 481.820312 23.613281 472.511719 22.15625 463.125 21.273438 M 430.433594 19.566406 C 425.421875 24.902344 428.78125 32.488281 428.890625 38.871094 C 430.910156 56.980469 427.761719 75.5 432.1875 93.355469 C 433.058594 97.933594 434.84375 102.582031 433.4375 107.300781 C 427.414062 105.339844 426.996094 98.847656 425.703125 93.683594 C 420.980469 71.574219 426.242188 48.554688 420.761719 26.558594 C 419.960938 20.527344 412.773438 19.914062 408.019531 20.410156 C 405.046875 21.089844 399.753906 19.636719 400.027344 24.222656 C 406.867188 52.539062 410.519531 81.523438 412.835938 110.570312 C 425.867188 110.542969 438.890625 111.167969 451.917969 111.417969 C 453.308594 108.265625 454.742188 105.160156 456.234375 102.070312 C 456.746094 79.359375 458.355469 56.652344 458.464844 33.921875 C 458.910156 28.898438 456.425781 24.441406 454.648438 19.953125 C 446.570312 19.90625 438.484375 18.976562 430.433594 19.566406 M 406.441406 126.632812 C 410.242188 171.371094 413.648438 216.160156 415.648438 261.019531 C 416.292969 270.886719 410.941406 279.777344 407.136719 288.550781 C 393.753906 315.839844 377.617188 343.011719 353.664062 362.34375 C 326.574219 382.742188 290.640625 381.871094 260.800781 396.242188 C 227.160156 411.976562 192.109375 424.578125 158.378906 440.03125 C 167.355469 455.121094 176.210938 470.550781 180.941406 487.636719 C 187.75 508.71875 188.742188 530.988281 189.761719 552.921875 C 189.957031 569.601562 183.097656 585.277344 181.96875 601.808594 C 182.824219 602.582031 184.53125 604.15625 185.378906 604.957031 C 255.921875 601.453125 325.511719 585.746094 393.058594 565.582031 C 409.664062 561.816406 427.648438 568.144531 443.445312 559.886719 C 442.8125 549.363281 442.667969 538.695312 444.886719 528.359375 C 447.433594 517.449219 445.53125 506.164062 447.589844 495.207031 C 453.601562 458.09375 477.15625 424.710938 508.796875 404.847656 C 519.894531 397.636719 532.679688 393.84375 544.75 388.609375 C 547.210938 347.296875 560.925781 307.90625 568.804688 267.527344 C 575.183594 231.144531 578.519531 194.316406 583.769531 157.757812 C 584.667969 151.539062 584.742188 145.253906 584.273438 138.996094 C 525.511719 129.058594 465.78125 129.203125 406.441406 126.632812 M 534.402344 400.199219 C 494.8125 414.5625 463.628906 450.445312 455.074219 491.683594 C 452.144531 503.496094 454.445312 515.800781 451.84375 527.667969 C 449.464844 538.105469 449.75 548.820312 450.078125 559.488281 C 488.683594 563.210938 527.402344 556.332031 564.445312 545.75 C 581.203125 501.429688 564.746094 454.40625 552.949219 411.089844 C 552.035156 402.792969 542.019531 396.285156 534.402344 400.199219 M 44.820312 511.585938 C 28.839844 534.132812 20.964844 565.65625 32.925781 591.722656 C 76.574219 602.96875 121.875 603.964844 166.542969 607.84375 C 168.699219 604.925781 170.980469 602.179688 173.457031 599.597656 C 176.496094 580.316406 183.699219 561.246094 180.761719 541.464844 C 180.175781 515.441406 175.015625 489.316406 163.378906 465.910156 C 158.867188 457.128906 154.464844 447.695312 146.027344 441.964844 C 109.390625 460.066406 69.875 477.785156 44.820312 511.585938 Z M 44.820312 511.585938 "/>
<path style=" stroke:none;fill-rule:nonzero;fill:rgb(60.784314%,100%,91.372549%);fill-opacity:1;" d="M 576.925781 38.710938 C 583.933594 40.109375 591.460938 40.023438 598.191406 42.835938 C 600.183594 68.25 599.492188 94.417969 592.527344 119.070312 C 585.789062 120.5625 579.019531 118.492188 572.355469 117.71875 C 571.136719 114.496094 569.90625 111.296875 568.589844 108.164062 C 572.953125 85.203125 569.722656 61.082031 576.925781 38.710938 Z M 576.925781 38.710938 "/>
<path style=" stroke:none;fill-rule:nonzero;fill:rgb(60.784314%,100%,91.372549%);fill-opacity:1;" d="M 535.804688 31.964844 C 546.226562 30.074219 556.796875 31.878906 566.667969 35.476562 C 568.78125 59.835938 566.496094 84.472656 562.714844 108.546875 C 558.222656 122.136719 541.886719 114.15625 532.097656 112.816406 C 532.910156 85.84375 535.046875 58.957031 535.804688 31.964844 Z M 535.804688 31.964844 "/>
<path style=" stroke:none;fill-rule:nonzero;fill:rgb(60.784314%,100%,91.372549%);fill-opacity:1;" d="M 499.703125 25.320312 C 509.277344 26.019531 518.84375 26.75 528.425781 27.609375 C 529.824219 33.628906 530.480469 39.796875 530.035156 45.980469 C 528.902344 68.132812 527.664062 90.246094 526.503906 112.386719 C 517.25 112.835938 508.011719 111.972656 498.835938 110.941406 C 497.890625 109.257812 495.988281 105.917969 495.042969 104.234375 C 498.652344 78.058594 497.933594 51.613281 499.703125 25.320312 Z M 499.703125 25.320312 "/>
<path style=" stroke:none;fill-rule:nonzero;fill:rgb(60.784314%,100%,91.372549%);fill-opacity:1;" d="M 463.125 21.273438 C 472.511719 22.15625 481.820312 23.613281 491.171875 24.957031 C 493.386719 33.742188 493.96875 42.804688 493.359375 51.855469 C 492.371094 71.734375 492.460938 91.925781 487.464844 111.335938 C 479.488281 111.261719 471.519531 111.53125 463.539062 111.644531 C 461.9375 105.398438 460.535156 99.03125 461.0625 92.527344 C 462.03125 68.78125 463.375 45.039062 463.125 21.273438 Z M 463.125 21.273438 "/>
<path style=" stroke:none;fill-rule:nonzero;fill:rgb(60.784314%,100%,91.372549%);fill-opacity:1;" d="M 430.433594 19.566406 C 438.484375 18.976562 446.570312 19.90625 454.648438 19.953125 C 456.425781 24.441406 458.910156 28.898438 458.464844 33.921875 C 458.355469 56.652344 456.746094 79.359375 456.234375 102.070312 C 454.742188 105.160156 453.308594 108.265625 451.917969 111.417969 C 438.890625 111.167969 425.867188 110.542969 412.835938 110.570312 C 410.519531 81.523438 406.867188 52.539062 400.027344 24.222656 C 399.753906 19.636719 405.046875 21.089844 408.019531 20.410156 C 412.773438 19.914062 419.960938 20.527344 420.761719 26.558594 C 426.242188 48.554688 420.980469 71.574219 425.703125 93.683594 C 426.996094 98.847656 427.414062 105.339844 433.4375 107.300781 C 434.84375 102.582031 433.058594 97.933594 432.1875 93.355469 C 427.761719 75.5 430.910156 56.980469 428.890625 38.871094 C 428.78125 32.488281 425.421875 24.902344 430.433594 19.566406 Z M 430.433594 19.566406 "/>
<path style=" stroke:none;fill-rule:nonzero;fill:rgb(60.784314%,100%,91.372549%);fill-opacity:1;" d="M 406.441406 126.632812 C 465.78125 129.203125 525.511719 129.058594 584.273438 138.996094 C 584.742188 145.253906 584.667969 151.539062 583.769531 157.757812 C 578.519531 194.316406 575.183594 231.144531 568.804688 267.527344 C 560.925781 307.90625 547.210938 347.296875 544.75 388.609375 C 532.679688 393.84375 519.894531 397.636719 508.796875 404.847656 C 477.15625 424.710938 453.601562 458.09375 447.589844 495.207031 C 445.53125 506.164062 447.433594 517.449219 444.886719 528.359375 C 442.667969 538.695312 442.8125 549.363281 443.445312 559.886719 C 427.648438 568.144531 409.664062 561.816406 393.058594 565.582031 C 325.511719 585.746094 255.921875 601.453125 185.378906 604.957031 C 184.53125 604.15625 182.824219 602.582031 181.96875 601.808594 C 183.097656 585.277344 189.957031 569.601562 189.761719 552.921875 C 188.742188 530.988281 187.75 508.71875 180.941406 487.636719 C 176.210938 470.550781 167.355469 455.121094 158.378906 440.03125 C 192.109375 424.578125 227.160156 411.976562 260.800781 396.242188 C 290.640625 381.871094 326.574219 382.742188 353.664062 362.34375 C 377.617188 343.011719 393.753906 315.839844 407.136719 288.550781 C 410.941406 279.777344 416.292969 270.886719 415.648438 261.019531 C 413.648438 216.160156 410.242188 171.371094 406.441406 126.632812 Z M 406.441406 126.632812 "/>
<path style=" stroke:none;fill-rule:nonzero;fill:rgb(60.784314%,100%,91.372549%);fill-opacity:1;" d="M 534.402344 400.199219 C 542.019531 396.285156 552.035156 402.792969 552.949219 411.089844 C 564.746094 454.40625 581.203125 501.429688 564.445312 545.75 C 527.402344 556.332031 488.683594 563.210938 450.078125 559.488281 C 449.75 548.820312 449.464844 538.105469 451.84375 527.667969 C 454.445312 515.800781 452.144531 503.496094 455.074219 491.683594 C 463.628906 450.445312 494.8125 414.5625 534.402344 400.199219 Z M 534.402344 400.199219 "/>
<path style=" stroke:none;fill-rule:nonzero;fill:rgb(60.784314%,100%,91.372549%);fill-opacity:1;" d="M 44.820312 511.585938 C 69.875 477.785156 109.390625 460.066406 146.027344 441.964844 C 154.464844 447.695312 158.867188 457.128906 163.378906 465.910156 C 175.015625 489.316406 180.175781 515.441406 180.761719 541.464844 C 183.699219 561.246094 176.496094 580.316406 173.457031 599.597656 C 170.980469 602.179688 168.699219 604.925781 166.542969 607.84375 C 121.875 603.964844 76.574219 602.96875 32.925781 591.722656 C 20.964844 565.65625 28.839844 534.132812 44.820312 511.585938 Z M 44.820312 511.585938 "/>
</g>
</svg>
