<?xml version="1.0" encoding="UTF-8"?>
<svg xmlns="http://www.w3.org/2000/svg" xmlns:xlink="http://www.w3.org/1999/xlink" width="1024pt" height="1447pt" viewBox="0 0 1024 1447" version="1.1">
<defs>
<filter id="alpha" filterUnits="objectBoundingBox" x="0%" y="0%" width="100%" height="100%">
  <feColorMatrix type="matrix" in="SourceGraphic" values="0 0 0 0 1 0 0 0 0 1 0 0 0 0 1 0 0 0 1 0"/>
</filter>
<mask id="mask0">
  <g filter="url(#alpha)">
<rect x="0" y="0" width="1024" height="1447" style="fill:rgb(0%,0%,0%);fill-opacity:0.298039;stroke:none;"/>
  </g>
</mask>
<clipPath id="clip1">
  <rect width="1024" height="1447"/>
</clipPath>
<g id="surface6" clip-path="url(#clip1)">
<path style="fill-rule:evenodd;fill:rgb(77.254902%,73.72549%,47.45098%);fill-opacity:1;stroke-width:0.74548;stroke-linecap:butt;stroke-linejoin:round;stroke:rgb(77.254902%,73.72549%,47.45098%);stroke-opacity:1;stroke-miterlimit:4;" d="M 357.13944 429.510394 C 357.522253 443.889873 336.096164 457.235035 301.021371 464.46516 C 265.946578 471.694164 222.622454 471.694164 187.548804 464.46516 C 152.47401 457.235035 131.047921 443.889873 131.429591 429.510394 C 131.047921 415.129793 152.47401 401.784631 187.548804 394.555628 C 222.622454 387.326625 265.946578 387.326625 301.021371 394.555628 C 336.096164 401.784631 357.522253 415.129793 357.13944 429.510394 Z M 357.13944 429.510394 " transform="matrix(3.418365,0,0,3.482067,-345.157096,-950.037172)"/>
</g>
</defs>
<g id="surface1">
<path style=" stroke:none;fill-rule:evenodd;fill:rgb(25.490196%,25.490196%,25.490196%);fill-opacity:0.152941;" d="M 755.019531 682.222656 C 751.234375 712.347656 644.730469 736.519531 513.863281 736.519531 C 384.277344 736.519531 278.777344 712.804688 273.027344 683.105469 C 134.550781 715.773438 80.742188 753.804688 80.742188 822.042969 C 80.734375 925.300781 253.957031 1030.652344 515.777344 1030.652344 C 777.59375 1030.652344 987.0625 919.140625 987.0625 815.882812 C 987.0625 747.066406 895.449219 714.714844 755.019531 682.222656 Z M 755.019531 682.222656 "/>
<path style=" stroke:none;fill-rule:evenodd;fill:rgb(25.490196%,25.490196%,25.490196%);fill-opacity:0.196078;" d="M 739.511719 692.234375 C 733.652344 727.777344 633.449219 756.113281 510.546875 756.113281 C 389.546875 756.113281 290.652344 728.640625 282.023438 693.871094 C 172.9375 724.023438 101.28125 753.238281 101.28125 810.824219 C 101.28125 903.300781 286.097656 999.960938 513.863281 999.960938 C 741.644531 999.960938 926.460938 900.222656 926.460938 807.742188 C 926.460938 749.101562 852.027344 722.167969 739.511719 692.234375 Z M 739.511719 692.234375 "/>
<path style=" stroke:none;fill-rule:evenodd;fill:rgb(25.490196%,25.490196%,25.490196%);fill-opacity:0.254902;" d="M 293.183594 710.300781 C 196.285156 736.285156 129.390625 748.578125 129.390625 797.457031 C 129.390625 876.835938 299.898438 971.996094 506.160156 971.996094 C 712.421875 971.996094 886.011719 876.835938 886.011719 797.457031 C 886.011719 749.226562 817.496094 737.484375 722.726562 711.386719 C 675.632812 726.539062 598.023438 736.519531 509.859375 736.519531 C 419.46875 736.519531 339.863281 726.097656 293.183594 710.300781 Z M 293.183594 710.300781 "/>
<use xlink:href="#surface6" mask="url(#mask0)"/>
<path style=" stroke:none;fill-rule:evenodd;fill:rgb(90.588235%,62.745098%,29.019608%);fill-opacity:0.298039;" d="M 863.632812 691.777344 C 864.207031 745.25 796.800781 794.765625 686.941406 821.574219 C 577.085938 848.382812 441.570312 848.382812 331.710938 821.574219 C 221.851562 794.765625 154.449219 745.25 155.019531 691.777344 C 154.449219 638.300781 221.851562 588.785156 331.710938 561.980469 C 441.570312 535.171875 577.085938 535.171875 686.941406 561.980469 C 796.800781 588.785156 864.207031 638.300781 863.632812 691.777344 Z M 863.632812 691.777344 "/>
<path style=" stroke:none;fill-rule:evenodd;fill:rgb(0%,0%,0%);fill-opacity:1;" d="M 101.09375 540.066406 L 148.789062 763.015625 C 195.222656 843.121094 244.132812 932.960938 480.886719 931.214844 C 658.269531 932.230469 776.578125 876.078125 831.183594 798.160156 C 868.480469 738.28125 887.289062 532.148438 887.289062 532.148438 C 887.289062 532.148438 809.597656 695.246094 480.292969 695.246094 C 150.992188 695.246094 101.089844 540.066406 101.089844 540.066406 Z M 101.09375 540.066406 "/>
<path style=" stroke:none;fill-rule:evenodd;fill:rgb(25.490196%,25.490196%,25.490196%);fill-opacity:0.254902;" d="M 308.496094 710.300781 C 217.128906 734.15625 157.128906 736.191406 157.128906 781.027344 C 157.128906 853.871094 280.925781 950.4375 515.5 944.277344 C 710 944.277344 861.355469 856.953125 861.355469 784.109375 C 861.355469 739.863281 802.910156 735.242188 713.550781 711.304688 C 669.125 725.191406 595.960938 734.363281 512.820312 734.363281 C 427.585938 734.363281 352.523438 724.792969 308.496094 710.300781 Z M 308.496094 710.300781 "/>
<path style=" stroke:none;fill-rule:evenodd;fill:rgb(91.372549%,70.980392%,43.921569%);fill-opacity:1;" d="M 109.664062 558.890625 L 156.453125 763.9375 C 202.007812 840.535156 249.980469 926.457031 482.21875 924.792969 C 656.234375 925.769531 772.296875 872.0625 825.871094 797.542969 C 862.457031 740.273438 882.996094 549.28125 882.996094 549.28125 C 882.996094 549.28125 804.683594 703.207031 481.640625 703.207031 C 158.613281 703.207031 109.660156 558.890625 109.660156 558.890625 Z M 109.664062 558.890625 "/>
<path style=" stroke:none;fill-rule:evenodd;fill:rgb(49.803922%,49.803922%,49.803922%);fill-opacity:1;" d="M 424.972656 404.152344 C 132.664062 411.46875 101.378906 540.289062 101.378906 540.289062 C 101.375 540.289062 93.164062 529.617188 117.773438 572.226562 C 142.378906 614.851562 257.28125 703.523438 473.285156 694.914062 C 749.480469 710.972656 886.140625 566.878906 886.140625 532.242188 C 886.140625 497.621094 836.984375 415.125 486.972656 404.46875 C 465.097656 403.796875 444.460938 403.660156 424.980469 404.152344 Z M 426.816406 412.085938 C 445.761719 411.621094 465.808594 411.660156 487.078125 412.292969 C 827.386719 422.359375 875.277344 500.371094 875.277344 533.097656 C 861.601562 584.988281 712.617188 691.449219 476.140625 692.5625 C 234.199219 679.984375 152.121094 602.902344 133.667969 581.8125 C 115.207031 563.46875 112.234375 540.605469 112.234375 540.605469 C 112.234375 540.605469 142.613281 418.988281 426.816406 412.085938 Z M 426.816406 412.085938 "/>
<path style=" stroke:none;fill-rule:evenodd;fill:rgb(99.215686%,98.039216%,84.313725%);fill-opacity:1;" d="M 397.523438 622.253906 C 397.523438 630.578125 389.542969 637.328125 379.699219 637.328125 C 369.855469 637.328125 361.878906 630.578125 361.878906 622.253906 C 361.878906 613.933594 369.855469 607.183594 379.699219 607.183594 C 389.542969 607.183594 397.523438 613.933594 397.523438 622.253906 Z M 397.523438 622.253906 "/>
<path style=" stroke:none;fill-rule:evenodd;fill:rgb(99.215686%,98.039216%,84.313725%);fill-opacity:1;" d="M 523.652344 631.867188 C 523.652344 639.433594 515.671875 645.566406 505.828125 645.566406 C 495.988281 645.566406 488.007812 639.433594 488.007812 631.867188 C 488.007812 624.300781 495.988281 618.164062 505.828125 618.164062 C 515.671875 618.164062 523.652344 624.300781 523.652344 631.867188 Z M 523.652344 631.867188 "/>
<path style=" stroke:none;fill-rule:evenodd;fill:rgb(99.215686%,98.039216%,84.313725%);fill-opacity:1;" d="M 455.082031 657.910156 C 455.199219 660.402344 452.875 662.730469 449.007812 663.992188 C 445.144531 665.257812 440.351562 665.257812 436.484375 663.992188 C 432.621094 662.730469 430.296875 660.402344 430.414062 657.910156 C 430.296875 655.421875 432.621094 653.09375 436.484375 651.832031 C 440.351562 650.566406 445.144531 650.566406 449.007812 651.832031 C 452.875 653.09375 455.199219 655.421875 455.082031 657.910156 Z M 455.082031 657.910156 "/>
<path style=" stroke:none;fill-rule:evenodd;fill:rgb(99.215686%,98.039216%,84.313725%);fill-opacity:1;" d="M 622.359375 615.429688 C 622.359375 621.492188 616.832031 626.402344 610.007812 626.402344 C 603.1875 626.402344 597.65625 621.492188 597.65625 615.429688 C 597.65625 609.371094 603.1875 604.457031 610.007812 604.457031 C 616.832031 604.457031 622.359375 609.371094 622.359375 615.429688 Z M 622.359375 615.429688 "/>
<path style=" stroke:none;fill-rule:evenodd;fill:rgb(99.215686%,98.039216%,84.313725%);fill-opacity:1;" d="M 594.941406 600.34375 C 594.941406 604.882812 590.640625 608.558594 585.339844 608.558594 C 580.039062 608.558594 575.742188 604.882812 575.742188 600.34375 C 575.742188 595.808594 580.039062 592.128906 585.339844 592.128906 C 590.640625 592.128906 594.941406 595.808594 594.941406 600.34375 Z M 594.941406 600.34375 "/>
<path style=" stroke:none;fill-rule:evenodd;fill:rgb(99.215686%,98.039216%,84.313725%);fill-opacity:1;" d="M 309.789062 637.332031 C 309.789062 643.386719 301.808594 648.292969 291.964844 648.292969 C 282.121094 648.292969 274.144531 643.386719 274.144531 637.332031 C 274.144531 631.28125 282.121094 626.371094 291.964844 626.371094 C 301.808594 626.371094 309.789062 631.28125 309.789062 637.332031 Z M 309.789062 637.332031 "/>
<path style=" stroke:none;fill-rule:evenodd;fill:rgb(99.215686%,98.039216%,84.313725%);fill-opacity:1;" d="M 710.09375 627.757812 C 710.09375 634.570312 702.722656 640.097656 693.632812 640.097656 C 684.539062 640.097656 677.167969 634.570312 677.167969 627.757812 C 677.167969 620.941406 684.539062 615.417969 693.632812 615.417969 C 702.722656 615.417969 710.09375 620.941406 710.09375 627.757812 Z M 710.09375 627.757812 "/>
<path style=" stroke:none;fill-rule:evenodd;fill:rgb(99.215686%,98.039216%,84.313725%);fill-opacity:1;" d="M 520.898438 563.375 C 520.898438 569.425781 514.761719 574.335938 507.1875 574.335938 C 499.617188 574.335938 493.476562 569.425781 493.476562 563.375 C 493.476562 557.320312 499.617188 552.410156 507.1875 552.410156 C 514.761719 552.410156 520.898438 557.320312 520.898438 563.375 Z M 520.898438 563.375 "/>
<path style=" stroke:none;fill-rule:evenodd;fill:rgb(99.215686%,98.039216%,84.313725%);fill-opacity:1;" d="M 455.082031 589.382812 C 455.199219 592.871094 452.875 596.128906 449.007812 597.898438 C 445.144531 599.667969 440.351562 599.667969 436.484375 597.898438 C 432.621094 596.128906 430.296875 592.871094 430.414062 589.382812 C 430.296875 585.898438 432.621094 582.640625 436.484375 580.871094 C 440.351562 579.101562 445.144531 579.101562 449.007812 580.871094 C 452.875 582.640625 455.199219 585.898438 455.082031 589.382812 Z M 455.082031 589.382812 "/>
<path style=" stroke:none;fill-rule:evenodd;fill:rgb(99.215686%,98.039216%,84.313725%);fill-opacity:1;" d="M 729.292969 592.136719 C 729.292969 598.949219 722.539062 604.472656 714.207031 604.472656 C 705.875 604.472656 699.121094 598.949219 699.121094 592.136719 C 699.121094 585.324219 705.875 579.800781 714.207031 579.800781 C 722.539062 579.800781 729.292969 585.324219 729.292969 592.136719 Z M 729.292969 592.136719 "/>
<path style=" stroke:none;fill-rule:evenodd;fill:rgb(25.490196%,25.490196%,25.490196%);fill-opacity:1;" d="M 346.851562 629.5625 C 327.125 618.398438 262.515625 567.523438 215.585938 548.921875 C 168.65625 530.304688 83.652344 503.34375 69.570312 487.0625 C 55.492188 470.785156 10.210938 438.238281 51.789062 436.792969 C 101.0625 441.457031 152.230469 440.507812 210.886719 484.699219 C 269.566406 528.902344 390.75 645.375 346.859375 629.5625 Z M 346.851562 629.5625 "/>
<path style=" stroke:none;fill-rule:evenodd;fill:rgb(75.294118%,75.294118%,75.294118%);fill-opacity:1;" d="M 348.339844 629.671875 C 331.195312 618.960938 262.640625 561.160156 219.796875 544.027344 C 176.953125 526.910156 89.125 496.933594 76.269531 481.949219 C 63.417969 466.960938 22.714844 439.132812 67.703125 443.410156 C 112.6875 447.699219 161.957031 451.972656 215.519531 492.644531 C 269.082031 533.332031 386.90625 644.660156 348.34375 629.671875 Z M 348.339844 629.671875 "/>
<path style=" stroke:none;fill-rule:evenodd;fill:rgb(83.921569%,71.372549%,50.196078%);fill-opacity:1;" d="M 337.882812 640.644531 C 356.855469 644.261719 372.265625 648.070312 389.324219 642.554688 C 398.96875 633.992188 391.03125 632.230469 376.558594 632.230469 C 372.128906 629.179688 397.910156 630.128906 398.707031 636.492188 C 393.136719 644.730469 392.683594 644.371094 375.691406 647.394531 C 345.492188 645.25 337.882812 640.644531 337.882812 640.644531 Z M 337.882812 640.644531 "/>
<path style=" stroke:none;fill-rule:evenodd;fill:rgb(83.921569%,71.372549%,50.196078%);fill-opacity:1;" d="M 327.785156 646.226562 C 357.96875 654.753906 382.472656 663.773438 409.617188 650.738281 C 424.972656 630.472656 412.34375 626.316406 389.3125 626.316406 C 382.265625 619.085938 423.28125 621.3125 424.53125 636.382812 C 415.6875 655.878906 414.941406 655.027344 387.933594 662.175781 C 339.878906 657.117188 327.785156 646.226562 327.785156 646.226562 Z M 327.785156 646.226562 "/>
<path style=" stroke:none;fill-rule:evenodd;fill:rgb(0%,0%,0%);fill-opacity:0.431373;" d="M 440.285156 526.152344 C 440.285156 495.214844 462.394531 486.375 440.285156 468.707031 C 418.175781 451.027344 418.175781 420.101562 418.175781 384.753906 C 418.175781 349.402344 449.132812 344.976562 444.714844 314.054688 C 440.285156 283.117188 451.871094 298.761719 456.300781 329.6875 C 460.714844 360.621094 420.265625 358.230469 424.683594 402.421875 C 429.101562 446.613281 468.1875 454.121094 463.769531 480.640625 C 459.339844 507.152344 440.285156 526.152344 440.285156 526.152344 Z M 440.285156 526.152344 "/>
<path style=" stroke:none;fill-rule:evenodd;fill:rgb(0%,0%,0%);fill-opacity:0.431373;" d="M 508.402344 554.601562 C 508.402344 512.429688 530.511719 500.386719 508.402344 476.285156 C 486.304688 452.195312 486.304688 410.023438 486.304688 361.820312 C 486.304688 313.625 517.25 307.605469 512.832031 265.433594 C 508.402344 223.265625 520 244.589844 524.417969 286.761719 C 528.832031 328.929688 488.382812 325.683594 492.800781 385.921875 C 497.230469 446.160156 536.304688 456.402344 531.886719 492.550781 C 527.472656 528.695312 508.402344 554.601562 508.402344 554.601562 Z M 508.402344 554.601562 "/>
<path style=" stroke:none;fill-rule:evenodd;fill:rgb(0%,0%,0%);fill-opacity:0.431373;" d="M 585.683594 551.546875 C 585.683594 520.625 607.792969 511.785156 585.683594 494.101562 C 563.574219 476.433594 563.574219 445.5 563.574219 410.148438 C 563.574219 374.796875 594.527344 370.382812 590.097656 339.449219 C 585.683594 308.511719 597.265625 324.160156 601.683594 355.09375 C 606.113281 386.019531 565.648438 383.640625 570.082031 427.832031 C 574.496094 472.007812 613.582031 479.527344 609.152344 506.039062 C 604.738281 532.546875 585.683594 551.546875 585.683594 551.546875 Z M 585.683594 551.546875 "/>
</g>
</svg>
