<?xml version="1.0" encoding="UTF-8"?>
<svg xmlns="http://www.w3.org/2000/svg" xmlns:xlink="http://www.w3.org/1999/xlink" width="1024pt" height="722pt" viewBox="0 0 1024 722" version="1.1">
<g id="surface1">
<path style="fill-rule:nonzero;fill:rgb(0%,0%,0%);fill-opacity:1;stroke-width:4.567715;stroke-linecap:butt;stroke-linejoin:miter;stroke:rgb(0%,0%,0%);stroke-opacity:1;stroke-miterlimit:4;" d="M 2.854858 5.055167 L 477.143799 5.055167 C 477.433105 5.055167 477.66748 5.293178 477.66748 5.582452 L 477.66748 338.187806 C 477.66748 338.477081 477.433105 338.715092 477.143799 338.715092 L 2.854858 338.715092 C 2.565552 338.715092 2.331177 338.477081 2.331177 338.187806 L 2.331177 5.582452 C 2.331177 5.293178 2.565552 5.055167 2.854858 5.055167 Z M 2.854858 5.055167 " transform="matrix(2.133333,0,0,2.13357,-0.133333,-5.933989)"/>
<path style="fill-rule:nonzero;fill:rgb(100%,80%,0%);fill-opacity:1;stroke-width:4.567715;stroke-linecap:butt;stroke-linejoin:miter;stroke:rgb(0%,0%,0%);stroke-opacity:1;stroke-miterlimit:4;" d="M 194.776855 119.243563 L 170.233398 76.286287 L 127.238403 100.717174 L 160.472046 64.079998 L 123.96814 30.701739 L 169.054199 51.013209 L 189.492432 5.954115 L 184.120117 55.145441 L 233.254639 60.678275 L 184.850708 70.7681 Z M 194.776855 119.243563 " transform="matrix(2.133333,0,0,2.13357,-0.133333,-5.933989)"/>
<path style="fill-rule:nonzero;fill:rgb(100%,80%,0%);fill-opacity:1;stroke-width:4.567715;stroke-linecap:butt;stroke-linejoin:miter;stroke:rgb(0%,0%,0%);stroke-opacity:1;stroke-miterlimit:4;" d="M 313.612305 142.938447 L 280.968262 110.129583 L 248.08252 142.698605 L 269.172607 101.480639 L 228.058105 80.242758 L 273.74292 87.582643 L 281.219116 41.886413 L 288.358398 87.637568 L 334.094482 80.632729 L 292.824341 101.57035 Z M 313.612305 142.938447 " transform="matrix(2.133333,0,0,2.13357,-0.133333,-5.933989)"/>
<path style="fill-rule:nonzero;fill:rgb(100%,80%,0%);fill-opacity:1;stroke-width:4.567715;stroke-linecap:butt;stroke-linejoin:miter;stroke:rgb(0%,0%,0%);stroke-opacity:1;stroke-miterlimit:4;" d="M 419.828125 113.465395 L 387.905518 79.653224 L 354.023682 111.495398 L 376.289307 70.66008 L 335.562988 48.250453 L 381.24231 56.824332 L 389.952637 11.128102 L 395.925537 57.265568 L 442.038818 51.437966 L 400.043579 71.374112 Z M 419.828125 113.465395 " transform="matrix(2.133333,0,0,2.13357,-0.133333,-5.933989)"/>
<path style="fill-rule:nonzero;fill:rgb(100%,80%,0%);fill-opacity:1;stroke-width:4.567715;stroke-linecap:butt;stroke-linejoin:miter;stroke:rgb(0%,0%,0%);stroke-opacity:1;stroke-miterlimit:4;" d="M 265.124146 292.722264 L 224.961792 268.19068 L 200.324951 308.308305 L 211.227051 262.496731 L 165.492798 251.442048 L 212.386108 247.665001 L 208.762451 200.714637 L 226.847778 244.188213 L 270.338989 226.225726 L 234.616943 256.874185 Z M 265.124146 292.722264 " transform="matrix(2.133333,0,0,2.13357,-0.133333,-5.933989)"/>
<path style="fill-rule:nonzero;fill:rgb(100%,80%,0%);fill-opacity:1;stroke-width:4.567715;stroke-linecap:butt;stroke-linejoin:miter;stroke:rgb(0%,0%,0%);stroke-opacity:1;stroke-miterlimit:4;" d="M 338.738037 222.196021 L 298.573853 197.6681 L 273.937012 237.785724 L 284.839111 191.97232 L 239.104858 180.917637 L 286 177.140589 L 282.374512 130.192057 L 300.46167 173.663802 L 343.952881 155.699484 L 308.230835 186.347943 Z M 338.738037 222.196021 " transform="matrix(2.133333,0,0,2.13357,-0.133333,-5.933989)"/>
<path style="fill-rule:nonzero;fill:rgb(100%,80%,0%);fill-opacity:1;stroke-width:4.567715;stroke-linecap:butt;stroke-linejoin:miter;stroke:rgb(0%,0%,0%);stroke-opacity:1;stroke-miterlimit:4;" d="M 440.746094 192.726631 L 400.581909 168.195047 L 375.945068 208.312672 L 386.847168 162.50476 L 341.112915 151.450077 L 388.008057 147.667537 L 384.382568 100.719004 L 402.467896 144.19075 L 445.960938 126.230093 L 410.238892 156.878552 Z M 440.746094 192.726631 " transform="matrix(2.133333,0,0,2.13357,-0.133333,-5.933989)"/>
<path style="fill-rule:nonzero;fill:rgb(100%,80%,0%);fill-opacity:1;stroke-width:4.567715;stroke-linecap:butt;stroke-linejoin:miter;stroke:rgb(0%,0%,0%);stroke-opacity:1;stroke-miterlimit:4;" d="M 419.7146 297.98047 L 379.550415 273.448887 L 354.917236 313.566511 L 365.815674 267.758599 L 320.081421 256.703916 L 366.976562 252.921376 L 363.351074 205.972844 L 381.438232 249.444589 L 424.929443 231.483933 L 389.21106 262.132392 Z M 419.7146 297.98047 " transform="matrix(2.133333,0,0,2.13357,-0.133333,-5.933989)"/>
<path style="fill-rule:nonzero;fill:rgb(100%,80%,0%);fill-opacity:1;stroke-width:4.567715;stroke-linecap:butt;stroke-linejoin:miter;stroke:rgb(0%,0%,0%);stroke-opacity:1;stroke-miterlimit:4;" d="M 147.453247 312.398428 L 116.222778 282.897913 L 86.647583 314.066334 L 105.02771 275.21932 L 66.273438 256.698424 L 108.867432 262.190979 L 114.48877 219.581565 L 122.433716 261.821147 L 164.659668 254.00341 L 126.976562 274.61697 Z M 147.453247 312.398428 " transform="matrix(2.133333,0,0,2.13357,-0.133333,-5.933989)"/>
<path style="fill-rule:nonzero;fill:rgb(100%,80%,0%);fill-opacity:1;stroke-width:4.567715;stroke-linecap:butt;stroke-linejoin:miter;stroke:rgb(0%,0%,0%);stroke-opacity:1;stroke-miterlimit:4;" d="M 109.598022 111.363577 L 69.433838 86.831993 L 44.796997 126.949618 L 55.699097 81.139875 L 9.964844 70.085192 L 56.859985 66.304483 L 53.234497 19.35595 L 71.319824 62.827696 L 114.812866 44.867039 L 79.088989 75.515498 Z M 109.598022 111.363577 " transform="matrix(2.133333,0,0,2.13357,-0.133333,-5.933989)"/>
<path style="fill-rule:nonzero;fill:rgb(100%,80%,0%);fill-opacity:1;stroke-width:4.567715;stroke-linecap:butt;stroke-linejoin:miter;stroke:rgb(0%,0%,0%);stroke-opacity:1;stroke-miterlimit:4;" d="M 103.176514 249.567256 L 63.012329 225.035672 L 38.375488 265.153297 L 49.277588 219.339893 L 3.543335 208.285209 L 50.436646 204.508162 L 46.812988 157.557799 L 64.894653 201.031375 L 108.391357 183.070718 L 72.66748 213.719177 Z M 103.176514 249.567256 " transform="matrix(2.133333,0,0,2.13357,-0.133333,-5.933989)"/>
<path style="fill-rule:nonzero;fill:rgb(100%,80%,0%);fill-opacity:1;stroke-width:4.567715;stroke-linecap:butt;stroke-linejoin:miter;stroke:rgb(0%,0%,0%);stroke-opacity:1;stroke-miterlimit:4;" d="M 198.871094 192.726631 L 158.706909 168.195047 L 134.07373 208.312672 L 144.972168 162.50476 L 99.237915 151.450077 L 146.133057 147.667537 L 142.507568 100.719004 L 160.592896 144.19075 L 204.085938 126.230093 L 168.363892 156.878552 Z M 198.871094 192.726631 " transform="matrix(2.133333,0,0,2.13357,-0.133333,-5.933989)"/>
</g>
</svg>
