<?xml version="1.0" encoding="UTF-8" standalone="no"?>
<svg
   xmlns:dc="http://purl.org/dc/elements/1.1/"
   xmlns:cc="http://creativecommons.org/ns#"
   xmlns:rdf="http://www.w3.org/1999/02/22-rdf-syntax-ns#"
   xmlns:svg="http://www.w3.org/2000/svg"
   xmlns="http://www.w3.org/2000/svg"
   xmlns:sodipodi="http://sodipodi.sourceforge.net/DTD/sodipodi-0.dtd"
   xmlns:inkscape="http://www.inkscape.org/namespaces/inkscape"
   width="599.84375"
   height="422.77344"
   viewBox="0 0 479.875 338.21875"
   version="1.1"
   id="svg2"
   inkscape:version="0.48.4 r9939"
   sodipodi:docname="star.new.svg">
  <metadata
     id="metadata33">
    <rdf:RDF>
      <cc:Work
         rdf:about="">
        <dc:format>image/svg+xml</dc:format>
        <dc:type
           rdf:resource="http://purl.org/dc/dcmitype/StillImage" />
      </cc:Work>
    </rdf:RDF>
  </metadata>
  <defs
     id="defs31" />
  <sodipodi:namedview
     pagecolor="#ffffff"
     bordercolor="#666666"
     borderopacity="1"
     objecttolerance="10"
     gridtolerance="10"
     guidetolerance="10"
     inkscape:pageopacity="0"
     inkscape:pageshadow="2"
     inkscape:window-width="1362"
     inkscape:window-height="668"
     id="namedview29"
     showgrid="false"
     fit-margin-top="0"
     fit-margin-left="0"
     fit-margin-right="0"
     fit-margin-bottom="0"
     inkscape:zoom="2.18"
     inkscape:cx="255.74489"
     inkscape:cy="318.2036"
     inkscape:window-x="0"
     inkscape:window-y="18"
     inkscape:window-maximized="0"
     inkscape:current-layer="svg2" />
  <g
     id="g3022"
     transform="translate(-0.0625,-2.78125)">
    <path
       style="fill:#000000;fill-opacity:1;fill-rule:nonzero;stroke:#000000;stroke-width:4.56771469;stroke-linecap:butt;stroke-linejoin:miter;stroke-miterlimit:4;stroke-opacity:1"
       d="m 2.8554668,5.0546884 474.2887832,0 c 0.2891,0 0.52346,0.2382815 0.52346,0.5273442 l 0,332.6056174 c 0,0.28906 -0.23436,0.52735 -0.52346,0.52735 l -474.2887832,0 c -0.2890623,0 -0.5234372,-0.23829 -0.5234372,-0.52735 l 0,-332.6056174 c 0,-0.2890627 0.2343749,-0.5273442 0.5234372,-0.5273442 z m 0,0"
       id="path5"
       inkscape:connector-curvature="0" />
    <path
       style="fill:#ffcc00;fill-opacity:1;fill-rule:nonzero;stroke:#000000;stroke-width:4.56771469;stroke-linecap:butt;stroke-linejoin:miter;stroke-miterlimit:4;stroke-opacity:1"
       d="m 194.77725,119.24398 -24.54296,-42.95705 -42.99607,24.4297 33.23436,-36.636737 -36.50389,-33.378921 45.08591,20.312509 20.43749,-45.0586142 -5.37108,49.1914292 49.13278,5.531252 -48.40232,10.089848 z m 0,0"
       id="path7"
       inkscape:connector-curvature="0" />
    <path
       style="fill:#ffcc00;fill-opacity:1;fill-rule:nonzero;stroke:#000000;stroke-width:4.56771469;stroke-linecap:butt;stroke-linejoin:miter;stroke-miterlimit:4;stroke-opacity:1"
       d="m 313.61313,142.93755 -32.64452,-32.80861 -32.8867,32.57032 21.08983,-41.21876 -41.11326,-21.238297 45.68357,7.339847 7.47656,-45.695333 7.14062,45.750021 45.73435,-7.003909 -41.26951,20.937511 z m 0,0"
       id="path9"
       inkscape:connector-curvature="0" />
    <path
       style="fill:#ffcc00;fill-opacity:1;fill-rule:nonzero;stroke:#000000;stroke-width:4.56771469;stroke-linecap:butt;stroke-linejoin:miter;stroke-miterlimit:4;stroke-opacity:1"
       d="m 419.82791,113.46488 -31.92185,-33.812509 -33.8828,31.843759 22.26561,-40.835951 -40.72654,-22.410166 45.67967,8.574223 8.71093,-45.695333 5.97266,46.136739 46.11325,-5.828128 -41.99607,19.937508 z m 0,0"
       id="path11"
       inkscape:connector-curvature="0" />
    <path
       style="fill:#ffcc00;fill-opacity:1;fill-rule:nonzero;stroke:#000000;stroke-width:4.56771469;stroke-linecap:butt;stroke-linejoin:miter;stroke-miterlimit:4;stroke-opacity:1"
       d="m 265.12494,292.7227 -40.16404,-24.53126 -24.63671,40.11721 10.90234,-45.81252 -45.73435,-11.05469 46.89451,-3.77735 -3.625,-46.94924 18.08592,43.47268 43.49217,-17.96095 -35.72264,30.64845 z m 0,0"
       id="path13"
       inkscape:connector-curvature="0" />
    <path
       style="fill:#ffcc00;fill-opacity:1;fill-rule:nonzero;stroke:#000000;stroke-width:4.56771469;stroke-linecap:butt;stroke-linejoin:miter;stroke-miterlimit:4;stroke-opacity:1"
       d="m 338.73822,222.19536 -40.16403,-24.52735 -24.63671,40.1172 10.90234,-45.81252 -45.73435,-11.05469 46.8945,-3.77735 -3.62499,-46.94924 18.08592,43.47268 43.49216,-17.96485 -35.72263,30.64845 z m 0,0"
       id="path15"
       inkscape:connector-curvature="0" />
    <path
       style="fill:#ffcc00;fill-opacity:1;fill-rule:nonzero;stroke:#000000;stroke-width:4.56771469;stroke-linecap:butt;stroke-linejoin:miter;stroke-miterlimit:4;stroke-opacity:1"
       d="m 440.74603,192.72661 -40.16404,-24.53126 -24.6367,40.11721 10.90233,-45.80862 -45.73435,-11.05469 46.89451,-3.78125 -3.625,-46.94924 18.08593,43.47268 43.49216,-17.96095 -35.72263,30.64845 z m 0,0"
       id="path17"
       inkscape:connector-curvature="0" />
    <path
       style="fill:#ffcc00;fill-opacity:1;fill-rule:nonzero;stroke:#000000;stroke-width:4.56771469;stroke-linecap:butt;stroke-linejoin:miter;stroke-miterlimit:4;stroke-opacity:1"
       d="m 419.71478,297.98052 -40.16403,-24.53127 -24.6328,40.11721 10.89843,-45.80861 -45.73435,-11.0547 46.8945,-3.78125 -3.62499,-46.94924 18.08592,43.47268 43.49216,-17.96095 -35.71872,30.64845 z m 0,0"
       id="path19"
       inkscape:connector-curvature="0" />
    <path
       style="fill:#ffcc00;fill-opacity:1;fill-rule:nonzero;stroke:#000000;stroke-width:4.56771469;stroke-linecap:butt;stroke-linejoin:miter;stroke-miterlimit:4;stroke-opacity:1"
       d="M 147.45305,312.39857 116.2226,282.89856 86.648396,314.06654 105.0273,275.21887 66.273411,256.69933 l 42.593719,5.49219 5.6211,-42.6094 7.9453,42.23831 42.22654,-7.81642 -37.68357,20.61329 z m 0,0"
       id="path21"
       inkscape:connector-curvature="0" />
    <path
       style="fill:#ffcc00;fill-opacity:1;fill-rule:nonzero;stroke:#000000;stroke-width:4.56771469;stroke-linecap:butt;stroke-linejoin:miter;stroke-miterlimit:4;stroke-opacity:1"
       d="M 109.5976,111.36333 69.433555,86.832067 44.79685,126.94928 55.699186,81.140661 9.9648381,70.085967 56.859343,66.304714 53.234345,19.355476 71.320274,62.828151 114.81244,44.867207 79.0898,75.515658 z m 0,0"
       id="path23"
       inkscape:connector-curvature="0" />
    <path
       style="fill:#ffcc00;fill-opacity:1;fill-rule:nonzero;stroke:#000000;stroke-width:4.56771469;stroke-linecap:butt;stroke-linejoin:miter;stroke-miterlimit:4;stroke-opacity:1"
       d="M 103.17572,249.56645 63.011679,225.03519 38.374975,265.1524 49.277314,219.33988 3.5429631,208.28518 50.437471,204.50784 46.812468,157.5586 64.89449,201.03127 108.39056,183.07033 72.667924,213.71878 z m 0,0"
       id="path25"
       inkscape:connector-curvature="0" />
    <path
       style="fill:#ffcc00;fill-opacity:1;fill-rule:nonzero;stroke:#000000;stroke-width:4.56771469;stroke-linecap:butt;stroke-linejoin:miter;stroke-miterlimit:4;stroke-opacity:1"
       d="m 198.87103,192.72661 -40.16404,-24.53126 -24.6328,40.11721 10.89843,-45.80862 -45.734345,-11.05469 46.894505,-3.78125 -3.625,-46.94924 18.08593,43.47268 43.49216,-17.96095 -35.72263,30.64845 z m 0,0"
       id="path27"
       inkscape:connector-curvature="0" />
  </g>
</svg>
