<?xml version="1.0" encoding="UTF-8" standalone="no"?>
<!-- Created with Inkscape (http://www.inkscape.org/) -->

<svg
   xmlns:dc="http://purl.org/dc/elements/1.1/"
   xmlns:cc="http://creativecommons.org/ns#"
   xmlns:rdf="http://www.w3.org/1999/02/22-rdf-syntax-ns#"
   xmlns:svg="http://www.w3.org/2000/svg"
   xmlns="http://www.w3.org/2000/svg"
   xmlns:xlink="http://www.w3.org/1999/xlink"
   xmlns:sodipodi="http://sodipodi.sourceforge.net/DTD/sodipodi-0.dtd"
   xmlns:inkscape="http://www.inkscape.org/namespaces/inkscape"
   id="svg2"
   xml:space="preserve"
   viewBox="0 0 311.69489 345.6778"
   version="1.1"
   inkscape:version="0.91 r13725"
   sodipodi:docname="strawberry.svg"
   width="311.69489"
   height="345.6778"><sodipodi:namedview
     pagecolor="#ffffff"
     bordercolor="#666666"
     borderopacity="1"
     objecttolerance="10"
     gridtolerance="10"
     guidetolerance="10"
     inkscape:pageopacity="0"
     inkscape:pageshadow="2"
     inkscape:window-width="1855"
     inkscape:window-height="1056"
     id="namedview243"
     showgrid="false"
     inkscape:zoom="1.8326396"
     inkscape:cx="161.24277"
     inkscape:cy="141.5804"
     inkscape:window-x="65"
     inkscape:window-y="24"
     inkscape:window-maximized="1"
     inkscape:current-layer="svg2"
     fit-margin-top="0"
     fit-margin-left="0"
     fit-margin-right="0"
     fit-margin-bottom="0" /><defs
     id="defs6"><radialGradient
       id="radialGradient32"
       gradientUnits="userSpaceOnUse"
       cy="-3.3438001"
       cx="9.6738005"
       gradientTransform="matrix(0.2456,-0.59096,0.59096,0.2456,3.9528,14.52)"
       r="14.267"><stop
         id="stop34"
         style="stop-color:#ed0101"
         offset="0" /><stop
         id="stop36"
         style="stop-color:#7e0806"
         offset="1" /></radialGradient><radialGradient
       id="radialGradient50"
       gradientUnits="userSpaceOnUse"
       cy="-2.3169"
       cx="9.2959003"
       gradientTransform="matrix(0.24512,-0.5912,0.5912,0.24512,2.7408,14.013)"
       r="8.5518999"><stop
         id="stop52"
         style="stop-color:#ff7d7d"
         offset="0" /><stop
         id="stop54"
         style="stop-color:#f51919"
         offset="1" /></radialGradient><radialGradient
       id="radialGradient68"
       gradientUnits="userSpaceOnUse"
       cy="4.0728002"
       cx="13.202"
       gradientTransform="matrix(0.24752,-0.59016,0.59016,0.24752,-4.8066,10.861)"
       r="0.42019999"><stop
         id="stop70"
         style="stop-color:#ff7d7d"
         offset="0" /><stop
         id="stop72"
         style="stop-color:#f51919"
         offset="1" /></radialGradient><radialGradient
       id="radialGradient86"
       gradientUnits="userSpaceOnUse"
       cy="-3.165"
       cx="15.208"
       gradientTransform="matrix(0.24752,-0.59016,0.59016,0.24752,3.7368,14.444)"
       r="1.2606"><stop
         id="stop88"
         style="stop-color:#ff7d7d"
         offset="0" /><stop
         id="stop90"
         style="stop-color:#f51919"
         offset="1" /></radialGradient><radialGradient
       id="radialGradient104"
       gradientUnits="userSpaceOnUse"
       cy="-8.1107998"
       cx="12.958"
       gradientTransform="matrix(0.24808,-0.58992,0.58992,0.24808,9.5704,16.903)"
       r="1.451"><stop
         id="stop106"
         style="stop-color:#ff7d7d"
         offset="0" /><stop
         id="stop108"
         style="stop-color:#f51919"
         offset="1" /></radialGradient><radialGradient
       id="radialGradient122"
       gradientUnits="userSpaceOnUse"
       cy="-5.5770998"
       cx="16.361"
       gradientTransform="matrix(0.24656,-0.59056,0.59056,0.24656,6.5888,15.628)"
       r="1.3952"><stop
         id="stop124"
         style="stop-color:#ff7d7d"
         offset="0" /><stop
         id="stop126"
         style="stop-color:#f51919"
         offset="1" /></radialGradient><radialGradient
       id="radialGradient140"
       gradientUnits="userSpaceOnUse"
       cy="-1.4102"
       cx="17.518999"
       gradientTransform="matrix(0.24088,-0.59296,0.59296,0.24088,1.6736,13.557)"
       r="0.8635"><stop
         id="stop142"
         style="stop-color:#ff7d7d"
         offset="0" /><stop
         id="stop144"
         style="stop-color:#f51919"
         offset="1" /></radialGradient><radialGradient
       id="radialGradient158"
       gradientUnits="userSpaceOnUse"
       cy="0.80369997"
       cx="16.841999"
       gradientTransform="matrix(0.24672,-0.59056,0.59056,0.24672,-0.948,12.482)"
       r="1.0702"><stop
         id="stop160"
         style="stop-color:#ff7d7d"
         offset="0" /><stop
         id="stop162"
         style="stop-color:#f51919"
         offset="1" /></radialGradient><radialGradient
       id="radialGradient176"
       gradientUnits="userSpaceOnUse"
       cy="2.7895999"
       cx="16.959"
       gradientTransform="matrix(0.24272,-0.59216,0.59216,0.24272,-3.303,11.524)"
       r="0.82410002"><stop
         id="stop178"
         style="stop-color:#ff7d7d"
         offset="0" /><stop
         id="stop180"
         style="stop-color:#f51919"
         offset="1" /></radialGradient><radialGradient
       id="radialGradient194"
       gradientUnits="userSpaceOnUse"
       cy="5.7217002"
       cx="16.638"
       gradientTransform="matrix(0.25056,-0.58888,0.58888,0.25056,-6.7385,10.01)"
       r="0.63849998"><stop
         id="stop196"
         style="stop-color:#ff7d7d"
         offset="0" /><stop
         id="stop198"
         style="stop-color:#f51919"
         offset="1" /></radialGradient><radialGradient
       id="radialGradient212"
       gradientUnits="userSpaceOnUse"
       cy="3.8148999"
       cx="15.923"
       gradientTransform="matrix(0.24968,-0.58928,0.58928,0.24968,-4.495,10.973)"
       r="0.801"><stop
         id="stop214"
         style="stop-color:#ff7d7d"
         offset="0" /><stop
         id="stop216"
         style="stop-color:#f51919"
         offset="1" /></radialGradient><radialGradient
       id="radialGradient230"
       gradientUnits="userSpaceOnUse"
       cy="-4.3593998"
       cx="9.3607998"
       gradientTransform="matrix(0.16688,-0.61784,0.61784,0.16688,5.388,14.333)"
       r="10.928"><stop
         id="stop232"
         style="stop-color:#f58758"
         offset="0" /><stop
         id="stop234"
         style="stop-color:#bd5206"
         offset="1" /></radialGradient><radialGradient
       id="radialGradient248"
       gradientUnits="userSpaceOnUse"
       cy="-4.3520999"
       cx="9.3642998"
       gradientTransform="matrix(0.16744,-0.61768,0.61768,0.16744,5.3768,14.335)"
       r="10.944"><stop
         id="stop250"
         style="stop-color:#f58758"
         offset="0" /><stop
         id="stop252"
         style="stop-color:#bd5206"
         offset="1" /></radialGradient><radialGradient
       id="radialGradient698"
       gradientUnits="userSpaceOnUse"
       cy="-4.355"
       cx="9.3633003"
       gradientTransform="matrix(0.1672,-0.61776,0.61776,0.1672,5.3816,14.335)"
       r="10.956"><stop
         id="stop700"
         style="stop-color:#f58758"
         offset="0" /><stop
         id="stop702"
         style="stop-color:#bd5206"
         offset="1" /></radialGradient><radialGradient
       inkscape:collect="always"
       xlink:href="#radialGradient230"
       id="radialGradient4371"
       gradientUnits="userSpaceOnUse"
       gradientTransform="matrix(0.16688,-0.61784,0.61784,0.16688,5.388,14.333)"
       cx="9.3607998"
       cy="-4.3593998"
       r="10.928" /><radialGradient
       inkscape:collect="always"
       xlink:href="#radialGradient248"
       id="radialGradient4373"
       gradientUnits="userSpaceOnUse"
       gradientTransform="matrix(0.16744,-0.61768,0.61768,0.16744,5.3768,14.335)"
       cx="9.3642998"
       cy="-4.3520999"
       r="10.944" /><radialGradient
       inkscape:collect="always"
       xlink:href="#radialGradient248"
       id="radialGradient4375"
       gradientUnits="userSpaceOnUse"
       gradientTransform="matrix(0.16744,-0.61768,0.61768,0.16744,5.3768,14.335)"
       cx="9.3642998"
       cy="-4.3520999"
       r="10.944" /><radialGradient
       inkscape:collect="always"
       xlink:href="#radialGradient248"
       id="radialGradient4377"
       gradientUnits="userSpaceOnUse"
       gradientTransform="matrix(0.16744,-0.61768,0.61768,0.16744,5.3768,14.335)"
       cx="9.3642998"
       cy="-4.3520999"
       r="10.944" /><radialGradient
       inkscape:collect="always"
       xlink:href="#radialGradient230"
       id="radialGradient4379"
       gradientUnits="userSpaceOnUse"
       gradientTransform="matrix(0.16688,-0.61784,0.61784,0.16688,5.388,14.333)"
       cx="9.3607998"
       cy="-4.3593998"
       r="10.928" /><radialGradient
       inkscape:collect="always"
       xlink:href="#radialGradient230"
       id="radialGradient4381"
       gradientUnits="userSpaceOnUse"
       gradientTransform="matrix(0.16688,-0.61784,0.61784,0.16688,5.388,14.333)"
       cx="9.3607998"
       cy="-4.3593998"
       r="10.928" /><radialGradient
       inkscape:collect="always"
       xlink:href="#radialGradient248"
       id="radialGradient4383"
       gradientUnits="userSpaceOnUse"
       gradientTransform="matrix(0.16744,-0.61768,0.61768,0.16744,5.3768,14.335)"
       cx="9.3642998"
       cy="-4.3520999"
       r="10.944" /><radialGradient
       inkscape:collect="always"
       xlink:href="#radialGradient248"
       id="radialGradient4385"
       gradientUnits="userSpaceOnUse"
       gradientTransform="matrix(0.16744,-0.61768,0.61768,0.16744,5.3768,14.335)"
       cx="9.3642998"
       cy="-4.3520999"
       r="10.944" /><radialGradient
       inkscape:collect="always"
       xlink:href="#radialGradient248"
       id="radialGradient4387"
       gradientUnits="userSpaceOnUse"
       gradientTransform="matrix(0.16744,-0.61768,0.61768,0.16744,5.3768,14.335)"
       cx="9.3642998"
       cy="-4.3520999"
       r="10.944" /><radialGradient
       inkscape:collect="always"
       xlink:href="#radialGradient248"
       id="radialGradient4389"
       gradientUnits="userSpaceOnUse"
       gradientTransform="matrix(0.16744,-0.61768,0.61768,0.16744,5.3768,14.335)"
       cx="9.3642998"
       cy="-4.3520999"
       r="10.944" /><radialGradient
       inkscape:collect="always"
       xlink:href="#radialGradient230"
       id="radialGradient4391"
       gradientUnits="userSpaceOnUse"
       gradientTransform="matrix(0.16688,-0.61784,0.61784,0.16688,5.388,14.333)"
       cx="9.3607998"
       cy="-4.3593998"
       r="10.928" /><radialGradient
       inkscape:collect="always"
       xlink:href="#radialGradient248"
       id="radialGradient4393"
       gradientUnits="userSpaceOnUse"
       gradientTransform="matrix(0.16744,-0.61768,0.61768,0.16744,5.3768,14.335)"
       cx="9.3642998"
       cy="-4.3520999"
       r="10.944" /><radialGradient
       inkscape:collect="always"
       xlink:href="#radialGradient230"
       id="radialGradient4395"
       gradientUnits="userSpaceOnUse"
       gradientTransform="matrix(0.16688,-0.61784,0.61784,0.16688,5.388,14.333)"
       cx="9.3607998"
       cy="-4.3593998"
       r="10.928" /><radialGradient
       inkscape:collect="always"
       xlink:href="#radialGradient230"
       id="radialGradient4397"
       gradientUnits="userSpaceOnUse"
       gradientTransform="matrix(0.16688,-0.61784,0.61784,0.16688,5.388,14.333)"
       cx="9.3607998"
       cy="-4.3593998"
       r="10.928" /><radialGradient
       inkscape:collect="always"
       xlink:href="#radialGradient230"
       id="radialGradient4399"
       gradientUnits="userSpaceOnUse"
       gradientTransform="matrix(0.16688,-0.61784,0.61784,0.16688,5.388,14.333)"
       cx="9.3607998"
       cy="-4.3593998"
       r="10.928" /><radialGradient
       inkscape:collect="always"
       xlink:href="#radialGradient248"
       id="radialGradient4401"
       gradientUnits="userSpaceOnUse"
       gradientTransform="matrix(0.16744,-0.61768,0.61768,0.16744,5.3768,14.335)"
       cx="9.3642998"
       cy="-4.3520999"
       r="10.944" /><radialGradient
       inkscape:collect="always"
       xlink:href="#radialGradient248"
       id="radialGradient4403"
       gradientUnits="userSpaceOnUse"
       gradientTransform="matrix(0.16744,-0.61768,0.61768,0.16744,5.3768,14.335)"
       cx="9.3642998"
       cy="-4.3520999"
       r="10.944" /><radialGradient
       inkscape:collect="always"
       xlink:href="#radialGradient248"
       id="radialGradient4405"
       gradientUnits="userSpaceOnUse"
       gradientTransform="matrix(0.16744,-0.61768,0.61768,0.16744,5.3768,14.335)"
       cx="9.3642998"
       cy="-4.3520999"
       r="10.944" /><radialGradient
       inkscape:collect="always"
       xlink:href="#radialGradient230"
       id="radialGradient4407"
       gradientUnits="userSpaceOnUse"
       gradientTransform="matrix(0.16688,-0.61784,0.61784,0.16688,5.388,14.333)"
       cx="9.3607998"
       cy="-4.3593998"
       r="10.928" /><radialGradient
       inkscape:collect="always"
       xlink:href="#radialGradient248"
       id="radialGradient4409"
       gradientUnits="userSpaceOnUse"
       gradientTransform="matrix(0.16744,-0.61768,0.61768,0.16744,5.3768,14.335)"
       cx="9.3642998"
       cy="-4.3520999"
       r="10.944" /><radialGradient
       inkscape:collect="always"
       xlink:href="#radialGradient248"
       id="radialGradient4411"
       gradientUnits="userSpaceOnUse"
       gradientTransform="matrix(0.16744,-0.61768,0.61768,0.16744,5.3768,14.335)"
       cx="9.3642998"
       cy="-4.3520999"
       r="10.944" /><radialGradient
       inkscape:collect="always"
       xlink:href="#radialGradient230"
       id="radialGradient4413"
       gradientUnits="userSpaceOnUse"
       gradientTransform="matrix(0.16688,-0.61784,0.61784,0.16688,5.388,14.333)"
       cx="9.3607998"
       cy="-4.3593998"
       r="10.928" /><radialGradient
       inkscape:collect="always"
       xlink:href="#radialGradient248"
       id="radialGradient4415"
       gradientUnits="userSpaceOnUse"
       gradientTransform="matrix(0.16744,-0.61768,0.61768,0.16744,5.3768,14.335)"
       cx="9.3642998"
       cy="-4.3520999"
       r="10.944" /><radialGradient
       inkscape:collect="always"
       xlink:href="#radialGradient248"
       id="radialGradient4417"
       gradientUnits="userSpaceOnUse"
       gradientTransform="matrix(0.16744,-0.61768,0.61768,0.16744,5.3768,14.335)"
       cx="9.3642998"
       cy="-4.3520999"
       r="10.944" /><radialGradient
       inkscape:collect="always"
       xlink:href="#radialGradient248"
       id="radialGradient4419"
       gradientUnits="userSpaceOnUse"
       gradientTransform="matrix(0.16744,-0.61768,0.61768,0.16744,5.3768,14.335)"
       cx="9.3642998"
       cy="-4.3520999"
       r="10.944" /><radialGradient
       inkscape:collect="always"
       xlink:href="#radialGradient248"
       id="radialGradient4421"
       gradientUnits="userSpaceOnUse"
       gradientTransform="matrix(0.16744,-0.61768,0.61768,0.16744,5.3768,14.335)"
       cx="9.3642998"
       cy="-4.3520999"
       r="10.944" /><radialGradient
       inkscape:collect="always"
       xlink:href="#radialGradient248"
       id="radialGradient4423"
       gradientUnits="userSpaceOnUse"
       gradientTransform="matrix(0.16744,-0.61768,0.61768,0.16744,5.3768,14.335)"
       cx="9.3642998"
       cy="-4.3520999"
       r="10.944" /><radialGradient
       inkscape:collect="always"
       xlink:href="#radialGradient230"
       id="radialGradient4425"
       gradientUnits="userSpaceOnUse"
       gradientTransform="matrix(0.16688,-0.61784,0.61784,0.16688,5.388,14.333)"
       cx="9.3607998"
       cy="-4.3593998"
       r="10.928" /><radialGradient
       inkscape:collect="always"
       xlink:href="#radialGradient230"
       id="radialGradient4427"
       gradientUnits="userSpaceOnUse"
       gradientTransform="matrix(0.16688,-0.61784,0.61784,0.16688,5.388,14.333)"
       cx="9.3607998"
       cy="-4.3593998"
       r="10.928" /><radialGradient
       inkscape:collect="always"
       xlink:href="#radialGradient248"
       id="radialGradient4429"
       gradientUnits="userSpaceOnUse"
       gradientTransform="matrix(0.16744,-0.61768,0.61768,0.16744,5.3768,14.335)"
       cx="9.3642998"
       cy="-4.3520999"
       r="10.944" /><radialGradient
       inkscape:collect="always"
       xlink:href="#radialGradient248"
       id="radialGradient4431"
       gradientUnits="userSpaceOnUse"
       gradientTransform="matrix(0.16744,-0.61768,0.61768,0.16744,5.3768,14.335)"
       cx="9.3642998"
       cy="-4.3520999"
       r="10.944" /><radialGradient
       inkscape:collect="always"
       xlink:href="#radialGradient230"
       id="radialGradient4433"
       gradientUnits="userSpaceOnUse"
       gradientTransform="matrix(0.16688,-0.61784,0.61784,0.16688,5.388,14.333)"
       cx="9.3607998"
       cy="-4.3593998"
       r="10.928" /><radialGradient
       inkscape:collect="always"
       xlink:href="#radialGradient230"
       id="radialGradient4435"
       gradientUnits="userSpaceOnUse"
       gradientTransform="matrix(0.16688,-0.61784,0.61784,0.16688,5.388,14.333)"
       cx="9.3607998"
       cy="-4.3593998"
       r="10.928" /><radialGradient
       inkscape:collect="always"
       xlink:href="#radialGradient248"
       id="radialGradient4437"
       gradientUnits="userSpaceOnUse"
       gradientTransform="matrix(0.16744,-0.61768,0.61768,0.16744,5.3768,14.335)"
       cx="9.3642998"
       cy="-4.3520999"
       r="10.944" /><radialGradient
       inkscape:collect="always"
       xlink:href="#radialGradient230"
       id="radialGradient4439"
       gradientUnits="userSpaceOnUse"
       gradientTransform="matrix(0.16688,-0.61784,0.61784,0.16688,5.388,14.333)"
       cx="9.3607998"
       cy="-4.3593998"
       r="10.928" /></defs><g
     id="g10"
     transform="matrix(26.840758,0,0,-26.840758,0,345.65528)"><g
       id="g12"><path
         id="path14"
         style="fill:#2d4f1b;fill-rule:evenodd"
         d="M 8.066,9.534 8.16,9.452 C 8.266,9.39 8.363,9.39 8.449,9.452 8.574,9.604 8.855,9.667 9.281,9.643 9.793,9.624 10.176,9.39 10.434,8.94 10.711,8.472 10.508,8.194 9.824,8.108 9.207,8.022 8.777,8.077 8.543,8.268 8.414,8.374 8.297,8.632 8.191,9.038 L 8.066,9.534 Z M 8,9.581 C 6.891,9.538 6.199,9.636 5.922,9.87 5.75,10.018 5.652,10.276 5.633,10.64 l 0.031,0.511 0.227,-0.195 C 6.102,10.85 6.359,10.8 6.656,10.8 7.02,10.8 7.328,10.671 7.586,10.413 7.84,10.179 7.988,9.925 8.031,9.647 L 8.066,9.534 8,9.581 Z"
         inkscape:connector-curvature="0" /><path
         id="path16"
         style="fill:#2d4f1b;fill-rule:evenodd"
         d="M 9.633,7.725 C 9.973,7.768 10.359,7.643 10.785,7.343 11.234,7.022 11.488,6.628 11.551,6.159 11.703,5.284 11.574,4.475 11.168,3.725 10.934,3.237 10.871,2.819 10.977,2.479 10.828,2.905 10.797,3.386 10.879,3.917 10.926,4.347 10.805,4.827 10.531,5.358 10.211,5.936 9.855,6.233 9.473,6.253 9.133,6.276 9.059,6.522 9.25,6.991 l 0.383,0.734 z"
         inkscape:connector-curvature="0" /><path
         id="path18"
         style="fill:#387329;fill-rule:evenodd"
         d="M 6.688,11.245 C 7.371,11.011 7.871,10.745 8.191,10.444 8.535,10.128 8.703,9.765 8.703,9.358 8.66,8.698 8.66,8.28 8.703,8.108 6.977,8.323 6.199,8.643 6.367,9.069 6.73,9.901 6.445,10.597 5.504,11.151 5.035,11.405 4.832,11.768 4.898,12.237 4.918,12.472 4.992,12.686 5.121,12.878 5.102,12.772 5.09,12.655 5.09,12.526 5.133,12.249 5.25,12.015 5.441,11.823 5.59,11.694 6.008,11.503 6.688,11.245 Z"
         inkscape:connector-curvature="0" /><path
         id="path20"
         style="fill:#48782a;fill-rule:evenodd"
         d="M 8.129,8.815 C 8.98,9.112 9.781,9.038 10.527,8.589 10.977,8.292 11.273,7.749 11.426,6.96 11.488,6.554 11.508,6.179 11.488,5.839 11.34,6.116 11.125,6.35 10.848,6.542 10.293,6.948 9.688,6.948 9.023,6.542 8.363,6.136 8.023,6.393 8,7.311 l 0.129,1.504 z"
         inkscape:connector-curvature="0" /><g
         id="g22"><g
           id="g24"><g
             id="g30"><path
               id="path38"
               style="fill:url(#radialGradient32);fill-rule:evenodd"
               d="m 0.961,5.968 c 0.148,1.191 0.5,2.14 1.055,2.847 0.597,0.789 1.386,1.227 2.371,1.313 C 6.324,10.296 7.82,9.847 8.863,8.78 10.23,7.311 10.797,5.815 10.562,4.304 10.391,3.085 9.836,2.167 8.898,1.55 8.086,1.018 7.145,0.706 6.078,0.624 4.695,0.495 3.82,0.378 3.457,0.272 2.602,-0.009 1.824,-0.071 1.121,0.077 0.395,0.229 0.02,0.569 0,1.104 0,1.53 0.105,2.116 0.32,2.862 0.598,3.866 0.812,4.897 0.961,5.968 Z"
               inkscape:connector-curvature="0" /></g></g></g><g
         id="g40"><g
           id="g42"><g
             id="g48"><path
               id="path56"
               style="fill:url(#radialGradient50);fill-rule:evenodd"
               d="M 2.723,3.054 C 2.891,3.077 3.039,3.171 3.168,3.343 3.273,3.534 3.309,3.757 3.266,4.015 3.199,4.292 3.051,4.366 2.816,4.237 2.668,4.175 2.539,4.034 2.434,3.823 2.305,3.608 2.281,3.417 2.367,3.245 2.434,3.077 2.551,3.011 2.723,3.054 Z m 0.863,0.863 c 0.211,-0.211 0.5,-0.106 0.863,0.32 0.129,0.149 0.18,0.309 0.16,0.481 C 4.566,4.909 4.395,4.975 4.098,4.909 3.883,4.866 3.711,4.729 3.586,4.495 3.434,4.261 3.434,4.069 3.586,3.917 Z M 3.969,6.542 C 3.711,6.288 3.574,6.03 3.555,5.772 3.512,5.495 3.605,5.358 3.84,5.358 c 0.234,0 0.469,0.18 0.703,0.543 0.258,0.344 0.375,0.61 0.352,0.801 C 4.875,6.893 4.758,6.968 4.543,6.925 4.375,6.905 4.184,6.776 3.969,6.542 Z M 3.426,7.472 C 3.445,7.151 3.648,7.097 4.031,7.311 4.395,7.522 4.629,7.768 4.738,8.046 4.844,8.28 4.887,8.429 4.863,8.495 4.82,8.581 4.695,8.632 4.48,8.655 4.266,8.675 4.031,8.569 3.777,8.335 3.52,8.077 3.402,7.788 3.426,7.472 Z M 6.434,7.276 C 6.242,7.319 5.996,7.225 5.695,6.991 5.398,6.757 5.219,6.499 5.152,6.222 5.09,5.925 5.195,5.784 5.473,5.807 c 0.257,0 0.5,0.125 0.734,0.383 0.215,0.235 0.344,0.457 0.387,0.672 0.043,0.235 -0.012,0.371 -0.16,0.414 z M 5.473,8.108 C 5.496,7.768 5.773,7.823 6.305,8.268 6.859,8.737 6.988,9.026 6.688,9.136 6.434,9.218 6.164,9.155 5.891,8.94 5.59,8.729 5.453,8.452 5.473,8.108 Z M 3.168,6.03 C 2.977,6.03 2.773,5.921 2.562,5.71 2.328,5.475 2.219,5.186 2.242,4.847 2.262,4.589 2.379,4.472 2.594,4.495 2.805,4.515 3,4.643 3.168,4.878 3.32,5.112 3.402,5.358 3.426,5.612 3.426,5.89 3.34,6.03 3.168,6.03 Z M 3.074,7.597 C 2.879,7.749 2.594,7.534 2.207,6.956 2.102,6.765 2.113,6.561 2.242,6.35 2.348,6.159 2.477,6.167 2.625,6.382 L 2.914,6.831 C 3.125,7.3 3.18,7.554 3.074,7.597 Z m 3.551,1.73 C 7.223,9.284 7.273,8.909 6.785,8.206 6.594,7.929 6.281,7.737 5.855,7.632 L 6.465,7.6 C 6.848,7.491 6.996,7.257 6.914,6.893 6.723,6.19 6.23,5.722 5.441,5.487 5.27,5.421 5.09,5.39 4.898,5.39 L 4.641,5.39 4.77,5.198 C 4.855,5.05 4.863,4.858 4.801,4.624 4.738,4.366 4.652,4.175 4.543,4.046 4.48,3.983 4.32,3.886 4.066,3.757 3.832,3.632 3.629,3.608 3.457,3.694 3.309,3.354 3.113,3.128 2.879,3.022 2.73,2.936 2.582,2.925 2.434,2.991 2.305,3.054 2.242,3.14 2.242,3.245 l 0,0.16 C 1.941,3.128 1.688,3.022 1.473,3.085 1.281,3.171 1.227,3.405 1.312,3.788 1.293,3.554 1.344,3.374 1.473,3.245 1.578,3.116 1.695,3.151 1.824,3.343 1.973,3.534 2.07,3.757 2.113,4.015 l 0.032,0.32 C 2.059,4.464 1.953,4.538 1.824,4.557 1.688,4.557 1.562,4.464 1.441,4.268 L 1.602,4.557 C 1.535,4.6 1.473,4.675 1.41,4.78 1.492,4.698 1.59,4.675 1.695,4.718 1.781,4.761 1.848,4.835 1.891,4.94 1.973,5.132 2.027,5.358 2.047,5.612 2.09,5.913 2.082,6.061 2.016,6.061 1.633,6.061 1.398,5.815 1.312,5.327 l 0,-0.32 c -0.019,0.148 -0.019,0.32 0,0.511 C 1.484,6.136 1.75,6.382 2.113,6.253 1.941,6.339 1.922,6.585 2.047,6.991 2.133,7.311 2.293,7.577 2.527,7.788 2.723,7.983 2.879,8.057 3.008,8.015 L 3.266,7.983 C 3.52,8.452 3.895,8.737 4.387,8.847 4.875,8.975 5.102,8.952 5.059,8.78 L 5.57,9.069 c 0.403,0.192 0.754,0.278 1.055,0.258 z"
               inkscape:connector-curvature="0" /></g></g></g><g
         id="g58"><g
           id="g60"><g
             id="g66"><path
               id="path74"
               style="fill:url(#radialGradient68);fill-rule:evenodd"
               d="M 1.09,4.143 C 0.918,3.929 0.812,3.831 0.77,3.854 0.727,3.874 0.703,3.929 0.703,4.015 L 0.738,4.108 0.801,4.046 C 0.844,3.983 0.938,4.015 1.09,4.143 Z"
               inkscape:connector-curvature="0" /></g></g></g><g
         id="g76"><g
           id="g78"><g
             id="g84"><path
               id="path92"
               style="fill:url(#radialGradient86);fill-rule:evenodd"
               d="M 5.219,4.206 C 5.324,4.1 5.516,4.12 5.793,4.268 6.047,4.421 6.188,4.62 6.207,4.878 6.207,4.557 6.102,4.311 5.891,4.143 5.59,3.929 5.367,3.948 5.219,4.206 Z"
               inkscape:connector-curvature="0" /></g></g></g><g
         id="g94"><g
           id="g96"><g
             id="g102"><path
               id="path110"
               style="fill:url(#radialGradient104);fill-rule:evenodd"
               d="M 7.648,6.444 C 7.84,6.425 8.043,6.522 8.258,6.733 8.449,6.925 8.512,7.182 8.449,7.503 8.621,7.288 8.621,7.011 8.449,6.671 8.258,6.327 7.988,6.253 7.648,6.444 Z"
               inkscape:connector-curvature="0" /></g></g></g><g
         id="g112"><g
           id="g114"><g
             id="g120"><path
               id="path128"
               style="fill:url(#radialGradient122);fill-rule:evenodd"
               d="M 6.816,4.077 C 7.008,3.991 7.242,4.046 7.52,4.237 7.777,4.429 7.957,4.612 8.066,4.78 8.023,4.378 7.84,4.108 7.52,3.983 7.328,3.917 7.148,3.917 6.977,3.983 L 6.816,4.077 Z"
               inkscape:connector-curvature="0" /></g></g></g><g
         id="g130"><g
           id="g132"><g
             id="g138"><path
               id="path146"
               style="fill:url(#radialGradient140);fill-rule:evenodd"
               d="M 5.602,2.925 C 5.602,2.69 5.461,2.565 5.184,2.542 5.035,2.542 4.906,2.573 4.801,2.64 L 4.703,2.733 4.863,2.702 c 0.11,-0.02 0.215,-0.02 0.321,0 0.171,0.043 0.312,0.117 0.418,0.223 z"
               inkscape:connector-curvature="0" /></g></g></g><g
         id="g148"><g
           id="g150"><g
             id="g156"><path
               id="path164"
               style="fill:url(#radialGradient158);fill-rule:evenodd"
               d="M 4.191,2.862 4.227,2.702 C 4.227,2.573 4.172,2.444 4.066,2.319 3.871,2.104 3.617,2.097 3.297,2.288 3.555,2.288 3.746,2.331 3.871,2.413 4,2.479 4.105,2.628 4.191,2.862 Z"
               inkscape:connector-curvature="0" /></g></g></g><g
         id="g166"><g
           id="g168"><g
             id="g174"><path
               id="path182"
               style="fill:url(#radialGradient176);fill-rule:evenodd"
               d="M 2.816,2.288 C 2.859,2.159 2.848,2.042 2.785,1.936 2.723,1.827 2.625,1.765 2.496,1.741 2.41,1.722 2.336,1.722 2.273,1.741 L 2.207,1.776 C 2.402,1.753 2.539,1.784 2.625,1.87 l 0.191,0.418 z"
               inkscape:connector-curvature="0" /></g></g></g><g
         id="g184"><g
           id="g186"><g
             id="g192"><path
               id="path200"
               style="fill:url(#radialGradient194);fill-rule:evenodd"
               d="M 1.152,1.741 C 1.195,1.593 1.133,1.475 0.961,1.39 0.77,1.304 0.641,1.339 0.578,1.487 L 0.801,1.452 c 0.086,0 0.203,0.098 0.351,0.289 z"
               inkscape:connector-curvature="0" /></g></g></g><g
         id="g202"><g
           id="g204"><g
             id="g210"><path
               id="path218"
               style="fill:url(#radialGradient212);fill-rule:evenodd"
               d="M 2.145,2.64 C 2.102,2.405 1.996,2.253 1.824,2.19 1.633,2.104 1.504,2.136 1.441,2.284 L 1.793,2.253 C 1.898,2.296 2.016,2.425 2.145,2.64 Z"
               inkscape:connector-curvature="0" /></g></g></g><g
         id="g220"><g
           id="g222"><g
             id="g228"><path
               id="path236"
               style="fill:url(#radialGradient4371);fill-rule:evenodd"
               d="M 2.785,8.847 C 2.656,8.44 2.496,8.194 2.305,8.108 2.113,8.022 2.047,8.108 2.113,8.366 2.219,8.749 2.367,8.975 2.562,9.038 2.754,9.081 2.828,9.018 2.785,8.847 Z"
               inkscape:connector-curvature="0" /></g></g></g><g
         id="g238"><g
           id="g240"><g
             id="g246"><path
               id="path254"
               style="fill:url(#radialGradient4373);fill-rule:evenodd"
               d="M 4.48,8.304 C 4.418,7.854 4.215,7.585 3.871,7.503 3.512,7.417 3.426,7.534 3.617,7.854 3.766,8.132 3.957,8.335 4.191,8.464 4.426,8.569 4.523,8.515 4.48,8.304 Z"
               inkscape:connector-curvature="0" /></g></g></g><g
         id="g256"><g
           id="g258"><g
             id="g264"><path
               id="path272"
               style="fill:url(#radialGradient4375);fill-rule:evenodd"
               d="M 6.367,7.054 C 6.434,6.671 6.285,6.37 5.922,6.159 5.535,5.944 5.355,5.975 5.375,6.253 5.398,6.487 5.566,6.722 5.891,6.96 6.188,7.194 6.348,7.225 6.367,7.054 Z"
               inkscape:connector-curvature="0" /></g></g></g><g
         id="g274"><g
           id="g276"><g
             id="g282"><path
               id="path290"
               style="fill:url(#radialGradient4377);fill-rule:evenodd"
               d="M 7.711,5.007 C 8.012,4.983 8.023,4.835 7.746,4.557 7.445,4.257 7.168,4.151 6.914,4.237 c -0.258,0.067 -0.258,0.215 0,0.449 0.254,0.235 0.52,0.34 0.797,0.321 z"
               inkscape:connector-curvature="0" /></g></g></g><g
         id="g292"><g
           id="g294"><g
             id="g300"><path
               id="path308"
               style="fill:url(#radialGradient4379);fill-rule:evenodd"
               d="M 8.512,2.96 C 8.789,2.96 8.77,2.831 8.449,2.573 8.129,2.319 7.871,2.214 7.68,2.253 7.512,2.319 7.555,2.448 7.809,2.64 8.086,2.85 8.32,2.96 8.512,2.96 Z"
               inkscape:connector-curvature="0" /></g></g></g><g
         id="g310"><g
           id="g312"><g
             id="g318"><path
               id="path326"
               style="fill:url(#radialGradient4381);fill-rule:evenodd"
               d="M 2.914,7.436 C 2.891,7.14 2.785,6.882 2.594,6.671 2.422,6.456 2.328,6.468 2.305,6.702 2.285,6.917 2.391,7.128 2.625,7.343 2.859,7.597 2.957,7.632 2.914,7.436 Z"
               inkscape:connector-curvature="0" /></g></g></g><g
         id="g328"><g
           id="g330"><g
             id="g336"><path
               id="path344"
               style="fill:url(#radialGradient4383);fill-rule:evenodd"
               d="M 4.609,6.765 C 4.844,6.597 4.812,6.35 4.512,6.03 4.234,5.71 4,5.581 3.809,5.647 3.66,5.733 3.711,5.968 3.969,6.35 c 0.258,0.364 0.469,0.5 0.64,0.415 z"
               inkscape:connector-curvature="0" /></g></g></g><g
         id="g346"><g
           id="g348"><g
             id="g354"><path
               id="path362"
               style="fill:url(#radialGradient4385);fill-rule:evenodd"
               d="M 6.047,5.007 C 6.176,4.854 6.102,4.675 5.824,4.464 5.547,4.225 5.375,4.175 5.312,4.304 5.227,4.429 5.301,4.612 5.535,4.847 5.77,5.1 5.941,5.155 6.047,5.007 Z"
               inkscape:connector-curvature="0" /></g></g></g><g
         id="g364"><g
           id="g366"><g
             id="g372"><path
               id="path380"
               style="fill:url(#radialGradient4387);fill-rule:evenodd"
               d="M 6.977,3.151 C 7.039,2.979 6.926,2.788 6.625,2.573 6.328,2.382 6.125,2.358 6.016,2.511 5.91,2.64 6.027,2.807 6.367,3.022 6.711,3.233 6.914,3.276 6.977,3.151 Z"
               inkscape:connector-curvature="0" /></g></g></g><g
         id="g382"><g
           id="g384"><g
             id="g390"><path
               id="path398"
               style="fill:url(#radialGradient4389);fill-rule:evenodd"
               d="M 6.914,1.327 C 7.297,1.304 7.363,1.218 7.105,1.069 6.828,0.921 6.594,0.878 6.402,0.944 c -0.172,0.043 -0.172,0.113 0,0.223 0.149,0.105 0.317,0.16 0.512,0.16 z"
               inkscape:connector-curvature="0" /></g></g></g><g
         id="g400"><g
           id="g402"><g
             id="g408"><path
               id="path416"
               style="fill:url(#radialGradient4391);fill-rule:evenodd"
               d="M 1.855,5.932 C 1.898,5.636 1.855,5.37 1.73,5.136 1.578,4.897 1.484,4.909 1.441,5.167 1.398,5.401 1.453,5.624 1.602,5.839 1.75,6.05 1.836,6.085 1.855,5.932 Z"
               inkscape:connector-curvature="0" /></g></g></g><g
         id="g418"><g
           id="g420"><g
             id="g426"><path
               id="path434"
               style="fill:url(#radialGradient4393);fill-rule:evenodd"
               d="M 2.945,5.772 C 3.242,5.858 3.316,5.698 3.168,5.292 3.02,4.909 2.816,4.698 2.562,4.651 2.391,4.651 2.359,4.823 2.465,5.167 2.57,5.507 2.73,5.71 2.945,5.772 Z"
               inkscape:connector-curvature="0" /></g></g></g><g
         id="g436"><g
           id="g438"><g
             id="g444"><path
               id="path452"
               style="fill:url(#radialGradient4395);fill-rule:evenodd"
               d="M 4.289,4.78 C 4.523,4.761 4.535,4.6 4.32,4.304 4.105,4.022 3.914,3.909 3.746,3.948 3.594,4.015 3.594,4.163 3.746,4.397 3.914,4.655 4.098,4.78 4.289,4.78 Z"
               inkscape:connector-curvature="0" /></g></g></g><g
         id="g454"><g
           id="g456"><g
             id="g462"><path
               id="path470"
               style="fill:url(#radialGradient4397);fill-rule:evenodd"
               d="M 5.375,3.276 C 5.609,3.171 5.645,3.065 5.473,2.96 5.324,2.85 5.133,2.8 4.898,2.8 c -0.195,0 -0.195,0.093 0,0.285 0.192,0.172 0.352,0.234 0.477,0.191 z"
               inkscape:connector-curvature="0" /></g></g></g><g
         id="g472"><g
           id="g474"><g
             id="g480"><path
               id="path488"
               style="fill:url(#radialGradient4399);fill-rule:evenodd"
               d="M 5.824,1.741 C 6.145,1.698 6.199,1.612 5.984,1.487 5.793,1.378 5.578,1.327 5.344,1.327 5.152,1.327 5.141,1.401 5.312,1.55 5.461,1.698 5.633,1.765 5.824,1.741 Z"
               inkscape:connector-curvature="0" /></g></g></g><g
         id="g490"><g
           id="g492"><g
             id="g498"><path
               id="path506"
               style="fill:url(#radialGradient4401);fill-rule:evenodd"
               d="M 1.762,4.366 C 1.996,4.472 2.059,4.311 1.953,3.886 1.848,3.46 1.707,3.288 1.535,3.374 1.41,3.436 1.375,3.597 1.441,3.854 1.504,4.108 1.609,4.28 1.762,4.366 Z"
               inkscape:connector-curvature="0" /></g></g></g><g
         id="g508"><g
           id="g510"><g
             id="g516"><path
               id="path524"
               style="fill:url(#radialGradient4403);fill-rule:evenodd"
               d="M 2.977,4.108 C 3.191,4.089 3.199,3.909 3.008,3.565 2.84,3.225 2.691,3.116 2.562,3.245 c -0.105,0.129 -0.105,0.309 0,0.543 0.106,0.238 0.243,0.344 0.415,0.32 z"
               inkscape:connector-curvature="0" /></g></g></g><g
         id="g526"><g
           id="g528"><g
             id="g534"><path
               id="path542"
               style="fill:url(#radialGradient4405);fill-rule:evenodd"
               d="M 3.906,3.054 C 4.117,3.034 4.16,2.925 4.031,2.733 3.883,2.542 3.691,2.436 3.457,2.413 3.242,2.393 3.234,2.499 3.426,2.733 3.594,2.948 3.754,3.054 3.906,3.054 Z"
               inkscape:connector-curvature="0" /></g></g></g><g
         id="g544"><g
           id="g546"><g
             id="g552"><path
               id="path560"
               style="fill:url(#radialGradient4407);fill-rule:evenodd"
               d="M 4.449,1.807 C 4.664,1.807 4.703,1.722 4.578,1.55 4.449,1.401 4.266,1.315 4.031,1.296 3.797,1.272 3.777,1.358 3.969,1.55 4.141,1.722 4.301,1.807 4.449,1.807 Z"
               inkscape:connector-curvature="0" /></g></g></g><g
         id="g562"><g
           id="g564"><g
             id="g570"><path
               id="path578"
               style="fill:url(#radialGradient4409);fill-rule:evenodd"
               d="M 1.891,3.022 C 2.125,3.108 2.199,3.034 2.113,2.8 2.004,2.565 1.855,2.405 1.664,2.319 1.492,2.253 1.461,2.339 1.566,2.573 1.676,2.807 1.781,2.96 1.891,3.022 Z"
               inkscape:connector-curvature="0" /></g></g></g><g
         id="g580"><g
           id="g582"><g
             id="g588"><path
               id="path596"
               style="fill:url(#radialGradient4411);fill-rule:evenodd"
               d="M 2.496,2.413 C 2.711,2.565 2.773,2.511 2.688,2.253 2.625,1.999 2.508,1.85 2.336,1.807 2.188,1.784 2.156,1.858 2.242,2.03 2.305,2.202 2.391,2.327 2.496,2.413 Z"
               inkscape:connector-curvature="0" /></g></g></g><g
         id="g598"><g
           id="g600"><g
             id="g606"><path
               id="path614"
               style="fill:url(#radialGradient4413);fill-rule:evenodd"
               d="M 3.328,1.741 C 3.477,1.741 3.5,1.667 3.395,1.518 3.285,1.347 3.137,1.253 2.945,1.229 2.754,1.21 2.73,1.284 2.879,1.452 3.051,1.647 3.199,1.741 3.328,1.741 Z"
               inkscape:connector-curvature="0" /></g></g></g><g
         id="g616"><g
           id="g618"><g
             id="g624"><path
               id="path632"
               style="fill:url(#radialGradient4415);fill-rule:evenodd"
               d="M 1.023,3.151 C 0.961,2.745 0.887,2.534 0.801,2.511 0.738,2.487 0.695,2.597 0.672,2.831 0.652,2.999 0.715,3.14 0.863,3.245 0.992,3.331 1.047,3.3 1.023,3.151 Z"
               inkscape:connector-curvature="0" /></g></g></g><g
         id="g634"><g
           id="g636"><g
             id="g642"><path
               id="path650"
               style="fill:url(#radialGradient4417);fill-rule:evenodd"
               d="M 1.059,2.128 C 1.121,1.956 1.09,1.807 0.961,1.679 0.832,1.55 0.727,1.53 0.641,1.612 0.555,1.679 0.598,1.796 0.77,1.968 0.918,2.136 1.016,2.19 1.059,2.128 Z"
               inkscape:connector-curvature="0" /></g></g></g><g
         id="g652"><g
           id="g654"><g
             id="g660"><path
               id="path668"
               style="fill:url(#radialGradient4419);fill-rule:evenodd"
               d="M 1.855,1.39 C 2.027,1.39 2.059,1.315 1.953,1.167 1.848,1.018 1.695,0.944 1.504,0.944 1.336,0.944 1.312,1.018 1.441,1.167 1.59,1.315 1.73,1.39 1.855,1.39 Z"
               inkscape:connector-curvature="0" /></g></g></g><g
         id="g670"><g
           id="g672"><g
             id="g678"><path
               id="path686"
               style="fill:url(#radialGradient4421);fill-rule:evenodd"
               d="M 1.121,4.749 C 1.141,4.557 1.09,4.397 0.961,4.268 0.855,4.143 0.801,4.151 0.801,4.304 c 0,0.125 0.054,0.265 0.16,0.414 0.086,0.129 0.141,0.14 0.16,0.031 z"
               inkscape:connector-curvature="0" /></g></g></g><g
         id="g688"><g
           id="g690"><g
             id="g696"><path
               id="path704"
               style="fill:url(#radialGradient698);fill-rule:evenodd"
               d="M 1.664,7.436 C 1.664,7.097 1.621,6.862 1.535,6.733 1.453,6.628 1.398,6.69 1.375,6.925 1.355,7.14 1.398,7.307 1.504,7.436 c 0.105,0.153 0.16,0.153 0.16,0 z"
               inkscape:connector-curvature="0" /></g></g></g><g
         id="g706"><g
           id="g708"><g
             id="g714"><path
               id="path722"
               style="fill:url(#radialGradient4423);fill-rule:evenodd"
               d="M 4.387,9.679 C 4.684,9.698 4.789,9.636 4.703,9.487 4.621,9.315 4.406,9.186 4.066,9.104 3.723,8.995 3.637,9.057 3.809,9.292 3.957,9.53 4.152,9.655 4.387,9.679 Z"
               inkscape:connector-curvature="0" /></g></g></g><g
         id="g724"><g
           id="g726"><g
             id="g732"><path
               id="path740"
               style="fill:url(#radialGradient4425);fill-rule:evenodd"
               d="m 6.242,9.038 c 0.403,0.105 0.488,0 0.254,-0.32 C 6.262,8.397 6.047,8.249 5.855,8.268 5.688,8.292 5.664,8.409 5.793,8.62 5.898,8.858 6.047,8.995 6.242,9.038 Z"
               inkscape:connector-curvature="0" /></g></g></g><g
         id="g742"><g
           id="g744"><g
             id="g750"><path
               id="path758"
               style="fill:url(#radialGradient4427);fill-rule:evenodd"
               d="M 8.031,7.503 C 8.375,7.417 8.449,7.225 8.258,6.925 8.043,6.628 7.852,6.518 7.68,6.604 7.531,6.671 7.508,6.843 7.617,7.116 7.723,7.393 7.863,7.522 8.031,7.503 Z"
               inkscape:connector-curvature="0" /></g></g></g><g
         id="g760"><g
           id="g762"><g
             id="g768"><path
               id="path776"
               style="fill:url(#radialGradient4429);fill-rule:evenodd"
               d="M 9.344,5.647 C 9.43,5.265 9.398,4.995 9.25,4.847 9.098,4.718 8.98,4.78 8.898,5.038 8.832,5.253 8.875,5.444 9.027,5.612 9.195,5.807 9.301,5.815 9.344,5.647 Z"
               inkscape:connector-curvature="0" /></g></g></g><g
         id="g778"><g
           id="g780"><g
             id="g786"><path
               id="path794"
               style="fill:url(#radialGradient4431);fill-rule:evenodd"
               d="M 10.273,3.725 C 10.293,3.534 10.207,3.343 10.016,3.151 9.848,2.96 9.699,2.925 9.57,3.054 9.461,3.159 9.547,3.343 9.824,3.6 c 0.278,0.254 0.426,0.297 0.449,0.125 z"
               inkscape:connector-curvature="0" /></g></g></g><g
         id="g796"><g
           id="g798"><g
             id="g804"><path
               id="path812"
               style="fill:url(#radialGradient4433);fill-rule:evenodd"
               d="M 6.402,9.839 C 6.656,9.796 6.719,9.729 6.594,9.647 6.484,9.581 6.336,9.573 6.145,9.612 5.973,9.636 5.953,9.69 6.078,9.772 6.188,9.839 6.293,9.858 6.402,9.839 Z"
               inkscape:connector-curvature="0" /></g></g></g><g
         id="g814"><g
           id="g816"><g
             id="g822"><path
               id="path830"
               style="fill:url(#radialGradient4435);fill-rule:evenodd"
               d="M 7.617,9.038 C 7.938,9.143 8.043,9.081 7.938,8.847 7.809,8.569 7.68,8.452 7.555,8.495 7.469,8.515 7.445,8.6 7.488,8.749 7.512,8.897 7.551,8.995 7.617,9.038 Z"
               inkscape:connector-curvature="0" /></g></g></g><g
         id="g832"><g
           id="g834"><g
             id="g840"><path
               id="path848"
               style="fill:url(#radialGradient4437);fill-rule:evenodd"
               d="M 9.25,7.632 C 9.293,7.331 9.27,7.147 9.184,7.085 9.121,6.999 9.066,7.054 9.027,7.245 9.004,7.417 9.027,7.565 9.09,7.694 9.176,7.823 9.227,7.8 9.25,7.632 Z"
               inkscape:connector-curvature="0" /></g></g></g><g
         id="g850"><g
           id="g852"><g
             id="g858"><path
               id="path866"
               style="fill:url(#radialGradient4439);fill-rule:evenodd"
               d="m 10.336,6.097 c 0,-0.321 -0.043,-0.547 -0.129,-0.676 -0.062,-0.125 -0.137,-0.125 -0.223,0 -0.062,0.109 -0.019,0.301 0.129,0.578 0.129,0.254 0.203,0.289 0.223,0.098 z"
               inkscape:connector-curvature="0" /></g></g></g><path
         id="path868"
         style="fill:#649433;fill-rule:evenodd"
         d="m 9.695,4.589 c 0.215,0.172 0.418,0.406 0.61,0.707 0.406,0.594 0.609,1.203 0.609,1.82 -0.023,0.727 -0.301,1.293 -0.832,1.699 L 10.367,8.686 C 10.625,8.538 10.871,8.311 11.105,8.015 11.359,7.694 11.5,7.214 11.52,6.573 11.543,5.975 11.469,5.55 11.297,5.292 11.039,4.866 10.508,4.632 9.695,4.589 Z"
         inkscape:connector-curvature="0" /></g></g><metadata
     id="metadata241"><rdf:RDF><cc:Work><dc:format>image/svg+xml</dc:format><dc:type
           rdf:resource="http://purl.org/dc/dcmitype/StillImage" /><cc:license
           rdf:resource="http://creativecommons.org/publicdomain/zero/1.0/" /><dc:publisher><cc:Agent
             rdf:about="http://openclipart.org/"><dc:title>Openclipart</dc:title></cc:Agent></dc:publisher><dc:title></dc:title></cc:Work><cc:License
         rdf:about="http://creativecommons.org/publicdomain/zero/1.0/"><cc:permits
           rdf:resource="http://creativecommons.org/ns#Reproduction" /><cc:permits
           rdf:resource="http://creativecommons.org/ns#Distribution" /><cc:permits
           rdf:resource="http://creativecommons.org/ns#DerivativeWorks" /></cc:License></rdf:RDF></metadata></svg>