<?xml version="1.0" encoding="UTF-8"?>
<svg xmlns="http://www.w3.org/2000/svg" xmlns:xlink="http://www.w3.org/1999/xlink" width="1024pt" height="1135pt" viewBox="0 0 1024 1135" version="1.1">
<defs>
<radialGradient id="radial0" gradientUnits="userSpaceOnUse" cx="9.673801" cy="-3.3438" fx="9.673801" fy="-3.3438" r="14.267" gradientTransform="matrix(21.635578,52.032252,52.059288,-21.624342,348.212999,-144.573171)">
<stop offset="0" style="stop-color:rgb(92.941176%,0.392157%,0.392157%);stop-opacity:1;"/>
<stop offset="1" style="stop-color:rgb(49.411765%,3.137255%,2.352941%);stop-opacity:1;"/>
</radialGradient>
<radialGradient id="radial1" gradientUnits="userSpaceOnUse" cx="9.2959" cy="-2.3169" fx="9.2959" fy="-2.3169" r="8.5519" gradientTransform="matrix(21.593293,52.053384,52.08043,-21.582079,241.444593,-99.933345)">
<stop offset="0" style="stop-color:rgb(100%,49.019608%,49.019608%);stop-opacity:1;"/>
<stop offset="1" style="stop-color:rgb(96.078431%,9.803922%,9.803922%);stop-opacity:1;"/>
</radialGradient>
<radialGradient id="radial2" gradientUnits="userSpaceOnUse" cx="13.202" cy="4.0728" fx="13.202" fy="4.0728" r="0.4202" gradientTransform="matrix(21.804716,51.961815,51.988814,-21.793392,-423.426584,177.590784)">
<stop offset="0" style="stop-color:rgb(100%,49.019608%,49.019608%);stop-opacity:1;"/>
<stop offset="1" style="stop-color:rgb(96.078431%,9.803922%,9.803922%);stop-opacity:1;"/>
</radialGradient>
<radialGradient id="radial3" gradientUnits="userSpaceOnUse" cx="15.208" cy="-3.165" fx="15.208" fy="-3.165" r="1.2606" gradientTransform="matrix(21.804716,51.961815,51.988814,-21.793392,329.184967,-137.881599)">
<stop offset="0" style="stop-color:rgb(100%,49.019608%,49.019608%);stop-opacity:1;"/>
<stop offset="1" style="stop-color:rgb(96.078431%,9.803922%,9.803922%);stop-opacity:1;"/>
</radialGradient>
<radialGradient id="radial4" gradientUnits="userSpaceOnUse" cx="12.958" cy="-8.1108" fx="12.958" fy="-8.1108" r="1.451" gradientTransform="matrix(21.854048,51.940683,51.967672,-21.842699,843.082799,-354.389161)">
<stop offset="0" style="stop-color:rgb(100%,49.019608%,49.019608%);stop-opacity:1;"/>
<stop offset="1" style="stop-color:rgb(96.078431%,9.803922%,9.803922%);stop-opacity:1;"/>
</radialGradient>
<radialGradient id="radial5" gradientUnits="userSpaceOnUse" cx="16.361" cy="-5.5771" fx="16.361" fy="-5.5771" r="1.3952" gradientTransform="matrix(21.720147,51.997033,52.024051,-21.708867,580.425473,-242.129242)">
<stop offset="0" style="stop-color:rgb(100%,49.019608%,49.019608%);stop-opacity:1;"/>
<stop offset="1" style="stop-color:rgb(96.078431%,9.803922%,9.803922%);stop-opacity:1;"/>
</radialGradient>
<radialGradient id="radial6" gradientUnits="userSpaceOnUse" cx="17.518999" cy="-1.4102" fx="17.518999" fy="-1.4102" r="0.8635" gradientTransform="matrix(21.21978,52.208346,52.235474,-21.20876,147.432017,-59.783915)">
<stop offset="0" style="stop-color:rgb(100%,49.019608%,49.019608%);stop-opacity:1;"/>
<stop offset="1" style="stop-color:rgb(96.078431%,9.803922%,9.803922%);stop-opacity:1;"/>
</radialGradient>
<radialGradient id="radial7" gradientUnits="userSpaceOnUse" cx="16.841999" cy="0.8037" fx="16.841999" fy="0.8037" r="1.0702" gradientTransform="matrix(21.734242,51.997033,52.024051,-21.722955,-83.511922,34.866605)">
<stop offset="0" style="stop-color:rgb(100%,49.019608%,49.019608%);stop-opacity:1;"/>
<stop offset="1" style="stop-color:rgb(96.078431%,9.803922%,9.803922%);stop-opacity:1;"/>
</radialGradient>
<radialGradient id="radial8" gradientUnits="userSpaceOnUse" cx="16.959" cy="2.7896" fx="16.959" fy="2.7896" r="0.8241" gradientTransform="matrix(21.381871,52.137909,52.164999,-21.370767,-290.970334,119.215626)">
<stop offset="0" style="stop-color:rgb(100%,49.019608%,49.019608%);stop-opacity:1;"/>
<stop offset="1" style="stop-color:rgb(96.078431%,9.803922%,9.803922%);stop-opacity:1;"/>
</radialGradient>
<radialGradient id="radial9" gradientUnits="userSpaceOnUse" cx="16.638" cy="5.7217" fx="16.638" fy="5.7217" r="0.6385" gradientTransform="matrix(22.072518,51.849115,51.876055,-22.061055,-593.612957,252.518777)">
<stop offset="0" style="stop-color:rgb(100%,49.019608%,49.019608%);stop-opacity:1;"/>
<stop offset="1" style="stop-color:rgb(96.078431%,9.803922%,9.803922%);stop-opacity:1;"/>
</radialGradient>
<radialGradient id="radial10" gradientUnits="userSpaceOnUse" cx="15.923" cy="3.8149" fx="15.923" fy="3.8149" r="0.801" gradientTransform="matrix(21.994996,51.884333,51.911292,-21.983574,-395.976885,167.729521)">
<stop offset="0" style="stop-color:rgb(100%,49.019608%,49.019608%);stop-opacity:1;"/>
<stop offset="1" style="stop-color:rgb(96.078431%,9.803922%,9.803922%);stop-opacity:1;"/>
</radialGradient>
<radialGradient id="radial11" gradientUnits="userSpaceOnUse" cx="9.3608" cy="-4.3594" fx="9.3608" fy="-4.3594" r="10.928" gradientTransform="matrix(14.700917,54.398955,54.427221,-14.693283,474.643706,-128.108383)">
<stop offset="0" style="stop-color:rgb(96.078431%,52.941176%,34.509804%);stop-opacity:1;"/>
<stop offset="1" style="stop-color:rgb(74.117647%,32.156863%,2.352941%);stop-opacity:1;"/>
</radialGradient>
<radialGradient id="radial12" gradientUnits="userSpaceOnUse" cx="9.3643" cy="-4.3521" fx="9.3643" fy="-4.3521" r="10.944" gradientTransform="matrix(14.750249,54.384868,54.413126,-14.742589,473.657067,-128.284477)">
<stop offset="0" style="stop-color:rgb(96.078431%,52.941176%,34.509804%);stop-opacity:1;"/>
<stop offset="1" style="stop-color:rgb(74.117647%,32.156863%,2.352941%);stop-opacity:1;"/>
</radialGradient>
<radialGradient id="radial13" gradientUnits="userSpaceOnUse" cx="9.3643" cy="-4.3521" fx="9.3643" fy="-4.3521" r="10.944" gradientTransform="matrix(14.750249,54.384868,54.413126,-14.742589,473.657067,-128.284477)">
<stop offset="0" style="stop-color:rgb(96.078431%,52.941176%,34.509804%);stop-opacity:1;"/>
<stop offset="1" style="stop-color:rgb(74.117647%,32.156863%,2.352941%);stop-opacity:1;"/>
</radialGradient>
<radialGradient id="radial14" gradientUnits="userSpaceOnUse" cx="9.3643" cy="-4.3521" fx="9.3643" fy="-4.3521" r="10.944" gradientTransform="matrix(14.750249,54.384868,54.413126,-14.742589,473.657067,-128.284477)">
<stop offset="0" style="stop-color:rgb(96.078431%,52.941176%,34.509804%);stop-opacity:1;"/>
<stop offset="1" style="stop-color:rgb(74.117647%,32.156863%,2.352941%);stop-opacity:1;"/>
</radialGradient>
<radialGradient id="radial15" gradientUnits="userSpaceOnUse" cx="9.3608" cy="-4.3594" fx="9.3608" fy="-4.3594" r="10.928" gradientTransform="matrix(14.700917,54.398955,54.427221,-14.693283,474.643706,-128.108383)">
<stop offset="0" style="stop-color:rgb(96.078431%,52.941176%,34.509804%);stop-opacity:1;"/>
<stop offset="1" style="stop-color:rgb(74.117647%,32.156863%,2.352941%);stop-opacity:1;"/>
</radialGradient>
<radialGradient id="radial16" gradientUnits="userSpaceOnUse" cx="9.3608" cy="-4.3594" fx="9.3608" fy="-4.3594" r="10.928" gradientTransform="matrix(14.700917,54.398955,54.427221,-14.693283,474.643706,-128.108383)">
<stop offset="0" style="stop-color:rgb(96.078431%,52.941176%,34.509804%);stop-opacity:1;"/>
<stop offset="1" style="stop-color:rgb(74.117647%,32.156863%,2.352941%);stop-opacity:1;"/>
</radialGradient>
<radialGradient id="radial17" gradientUnits="userSpaceOnUse" cx="9.3643" cy="-4.3521" fx="9.3643" fy="-4.3521" r="10.944" gradientTransform="matrix(14.750249,54.384868,54.413126,-14.742589,473.657067,-128.284477)">
<stop offset="0" style="stop-color:rgb(96.078431%,52.941176%,34.509804%);stop-opacity:1;"/>
<stop offset="1" style="stop-color:rgb(74.117647%,32.156863%,2.352941%);stop-opacity:1;"/>
</radialGradient>
<radialGradient id="radial18" gradientUnits="userSpaceOnUse" cx="9.3643" cy="-4.3521" fx="9.3643" fy="-4.3521" r="10.944" gradientTransform="matrix(14.750249,54.384868,54.413126,-14.742589,473.657067,-128.284477)">
<stop offset="0" style="stop-color:rgb(96.078431%,52.941176%,34.509804%);stop-opacity:1;"/>
<stop offset="1" style="stop-color:rgb(74.117647%,32.156863%,2.352941%);stop-opacity:1;"/>
</radialGradient>
<radialGradient id="radial19" gradientUnits="userSpaceOnUse" cx="9.3643" cy="-4.3521" fx="9.3643" fy="-4.3521" r="10.944" gradientTransform="matrix(14.750249,54.384868,54.413126,-14.742589,473.657067,-128.284477)">
<stop offset="0" style="stop-color:rgb(96.078431%,52.941176%,34.509804%);stop-opacity:1;"/>
<stop offset="1" style="stop-color:rgb(74.117647%,32.156863%,2.352941%);stop-opacity:1;"/>
</radialGradient>
<radialGradient id="radial20" gradientUnits="userSpaceOnUse" cx="9.3643" cy="-4.3521" fx="9.3643" fy="-4.3521" r="10.944" gradientTransform="matrix(14.750249,54.384868,54.413126,-14.742589,473.657067,-128.284477)">
<stop offset="0" style="stop-color:rgb(96.078431%,52.941176%,34.509804%);stop-opacity:1;"/>
<stop offset="1" style="stop-color:rgb(74.117647%,32.156863%,2.352941%);stop-opacity:1;"/>
</radialGradient>
<radialGradient id="radial21" gradientUnits="userSpaceOnUse" cx="9.3608" cy="-4.3594" fx="9.3608" fy="-4.3594" r="10.928" gradientTransform="matrix(14.700917,54.398955,54.427221,-14.693283,474.643706,-128.108383)">
<stop offset="0" style="stop-color:rgb(96.078431%,52.941176%,34.509804%);stop-opacity:1;"/>
<stop offset="1" style="stop-color:rgb(74.117647%,32.156863%,2.352941%);stop-opacity:1;"/>
</radialGradient>
<radialGradient id="radial22" gradientUnits="userSpaceOnUse" cx="9.3643" cy="-4.3521" fx="9.3643" fy="-4.3521" r="10.944" gradientTransform="matrix(14.750249,54.384868,54.413126,-14.742589,473.657067,-128.284477)">
<stop offset="0" style="stop-color:rgb(96.078431%,52.941176%,34.509804%);stop-opacity:1;"/>
<stop offset="1" style="stop-color:rgb(74.117647%,32.156863%,2.352941%);stop-opacity:1;"/>
</radialGradient>
<radialGradient id="radial23" gradientUnits="userSpaceOnUse" cx="9.3608" cy="-4.3594" fx="9.3608" fy="-4.3594" r="10.928" gradientTransform="matrix(14.700917,54.398955,54.427221,-14.693283,474.643706,-128.108383)">
<stop offset="0" style="stop-color:rgb(96.078431%,52.941176%,34.509804%);stop-opacity:1;"/>
<stop offset="1" style="stop-color:rgb(74.117647%,32.156863%,2.352941%);stop-opacity:1;"/>
</radialGradient>
<radialGradient id="radial24" gradientUnits="userSpaceOnUse" cx="9.3608" cy="-4.3594" fx="9.3608" fy="-4.3594" r="10.928" gradientTransform="matrix(14.700917,54.398955,54.427221,-14.693283,474.643706,-128.108383)">
<stop offset="0" style="stop-color:rgb(96.078431%,52.941176%,34.509804%);stop-opacity:1;"/>
<stop offset="1" style="stop-color:rgb(74.117647%,32.156863%,2.352941%);stop-opacity:1;"/>
</radialGradient>
<radialGradient id="radial25" gradientUnits="userSpaceOnUse" cx="9.3608" cy="-4.3594" fx="9.3608" fy="-4.3594" r="10.928" gradientTransform="matrix(14.700917,54.398955,54.427221,-14.693283,474.643706,-128.108383)">
<stop offset="0" style="stop-color:rgb(96.078431%,52.941176%,34.509804%);stop-opacity:1;"/>
<stop offset="1" style="stop-color:rgb(74.117647%,32.156863%,2.352941%);stop-opacity:1;"/>
</radialGradient>
<radialGradient id="radial26" gradientUnits="userSpaceOnUse" cx="9.3643" cy="-4.3521" fx="9.3643" fy="-4.3521" r="10.944" gradientTransform="matrix(14.750249,54.384868,54.413126,-14.742589,473.657067,-128.284477)">
<stop offset="0" style="stop-color:rgb(96.078431%,52.941176%,34.509804%);stop-opacity:1;"/>
<stop offset="1" style="stop-color:rgb(74.117647%,32.156863%,2.352941%);stop-opacity:1;"/>
</radialGradient>
<radialGradient id="radial27" gradientUnits="userSpaceOnUse" cx="9.3643" cy="-4.3521" fx="9.3643" fy="-4.3521" r="10.944" gradientTransform="matrix(14.750249,54.384868,54.413126,-14.742589,473.657067,-128.284477)">
<stop offset="0" style="stop-color:rgb(96.078431%,52.941176%,34.509804%);stop-opacity:1;"/>
<stop offset="1" style="stop-color:rgb(74.117647%,32.156863%,2.352941%);stop-opacity:1;"/>
</radialGradient>
<radialGradient id="radial28" gradientUnits="userSpaceOnUse" cx="9.3643" cy="-4.3521" fx="9.3643" fy="-4.3521" r="10.944" gradientTransform="matrix(14.750249,54.384868,54.413126,-14.742589,473.657067,-128.284477)">
<stop offset="0" style="stop-color:rgb(96.078431%,52.941176%,34.509804%);stop-opacity:1;"/>
<stop offset="1" style="stop-color:rgb(74.117647%,32.156863%,2.352941%);stop-opacity:1;"/>
</radialGradient>
<radialGradient id="radial29" gradientUnits="userSpaceOnUse" cx="9.3608" cy="-4.3594" fx="9.3608" fy="-4.3594" r="10.928" gradientTransform="matrix(14.700917,54.398955,54.427221,-14.693283,474.643706,-128.108383)">
<stop offset="0" style="stop-color:rgb(96.078431%,52.941176%,34.509804%);stop-opacity:1;"/>
<stop offset="1" style="stop-color:rgb(74.117647%,32.156863%,2.352941%);stop-opacity:1;"/>
</radialGradient>
<radialGradient id="radial30" gradientUnits="userSpaceOnUse" cx="9.3643" cy="-4.3521" fx="9.3643" fy="-4.3521" r="10.944" gradientTransform="matrix(14.750249,54.384868,54.413126,-14.742589,473.657067,-128.284477)">
<stop offset="0" style="stop-color:rgb(96.078431%,52.941176%,34.509804%);stop-opacity:1;"/>
<stop offset="1" style="stop-color:rgb(74.117647%,32.156863%,2.352941%);stop-opacity:1;"/>
</radialGradient>
<radialGradient id="radial31" gradientUnits="userSpaceOnUse" cx="9.3643" cy="-4.3521" fx="9.3643" fy="-4.3521" r="10.944" gradientTransform="matrix(14.750249,54.384868,54.413126,-14.742589,473.657067,-128.284477)">
<stop offset="0" style="stop-color:rgb(96.078431%,52.941176%,34.509804%);stop-opacity:1;"/>
<stop offset="1" style="stop-color:rgb(74.117647%,32.156863%,2.352941%);stop-opacity:1;"/>
</radialGradient>
<radialGradient id="radial32" gradientUnits="userSpaceOnUse" cx="9.3608" cy="-4.3594" fx="9.3608" fy="-4.3594" r="10.928" gradientTransform="matrix(14.700917,54.398955,54.427221,-14.693283,474.643706,-128.108383)">
<stop offset="0" style="stop-color:rgb(96.078431%,52.941176%,34.509804%);stop-opacity:1;"/>
<stop offset="1" style="stop-color:rgb(74.117647%,32.156863%,2.352941%);stop-opacity:1;"/>
</radialGradient>
<radialGradient id="radial33" gradientUnits="userSpaceOnUse" cx="9.3643" cy="-4.3521" fx="9.3643" fy="-4.3521" r="10.944" gradientTransform="matrix(14.750249,54.384868,54.413126,-14.742589,473.657067,-128.284477)">
<stop offset="0" style="stop-color:rgb(96.078431%,52.941176%,34.509804%);stop-opacity:1;"/>
<stop offset="1" style="stop-color:rgb(74.117647%,32.156863%,2.352941%);stop-opacity:1;"/>
</radialGradient>
<radialGradient id="radial34" gradientUnits="userSpaceOnUse" cx="9.3643" cy="-4.3521" fx="9.3643" fy="-4.3521" r="10.944" gradientTransform="matrix(14.750249,54.384868,54.413126,-14.742589,473.657067,-128.284477)">
<stop offset="0" style="stop-color:rgb(96.078431%,52.941176%,34.509804%);stop-opacity:1;"/>
<stop offset="1" style="stop-color:rgb(74.117647%,32.156863%,2.352941%);stop-opacity:1;"/>
</radialGradient>
<radialGradient id="radial35" gradientUnits="userSpaceOnUse" cx="9.3643" cy="-4.3521" fx="9.3643" fy="-4.3521" r="10.944" gradientTransform="matrix(14.750249,54.384868,54.413126,-14.742589,473.657067,-128.284477)">
<stop offset="0" style="stop-color:rgb(96.078431%,52.941176%,34.509804%);stop-opacity:1;"/>
<stop offset="1" style="stop-color:rgb(74.117647%,32.156863%,2.352941%);stop-opacity:1;"/>
</radialGradient>
<radialGradient id="radial36" gradientUnits="userSpaceOnUse" cx="9.3643" cy="-4.3521" fx="9.3643" fy="-4.3521" r="10.944" gradientTransform="matrix(14.750249,54.384868,54.413126,-14.742589,473.657067,-128.284477)">
<stop offset="0" style="stop-color:rgb(96.078431%,52.941176%,34.509804%);stop-opacity:1;"/>
<stop offset="1" style="stop-color:rgb(74.117647%,32.156863%,2.352941%);stop-opacity:1;"/>
</radialGradient>
<radialGradient id="radial37" gradientUnits="userSpaceOnUse" cx="9.3633" cy="-4.355" fx="9.3633" fy="-4.355" r="10.956" gradientTransform="matrix(14.729107,54.391912,54.420174,-14.721458,474.079912,-128.284477)">
<stop offset="0" style="stop-color:rgb(96.078431%,52.941176%,34.509804%);stop-opacity:1;"/>
<stop offset="1" style="stop-color:rgb(74.117647%,32.156863%,2.352941%);stop-opacity:1;"/>
</radialGradient>
<radialGradient id="radial38" gradientUnits="userSpaceOnUse" cx="9.3643" cy="-4.3521" fx="9.3643" fy="-4.3521" r="10.944" gradientTransform="matrix(14.750249,54.384868,54.413126,-14.742589,473.657067,-128.284477)">
<stop offset="0" style="stop-color:rgb(96.078431%,52.941176%,34.509804%);stop-opacity:1;"/>
<stop offset="1" style="stop-color:rgb(74.117647%,32.156863%,2.352941%);stop-opacity:1;"/>
</radialGradient>
<radialGradient id="radial39" gradientUnits="userSpaceOnUse" cx="9.3608" cy="-4.3594" fx="9.3608" fy="-4.3594" r="10.928" gradientTransform="matrix(14.700917,54.398955,54.427221,-14.693283,474.643706,-128.108383)">
<stop offset="0" style="stop-color:rgb(96.078431%,52.941176%,34.509804%);stop-opacity:1;"/>
<stop offset="1" style="stop-color:rgb(74.117647%,32.156863%,2.352941%);stop-opacity:1;"/>
</radialGradient>
<radialGradient id="radial40" gradientUnits="userSpaceOnUse" cx="9.3608" cy="-4.3594" fx="9.3608" fy="-4.3594" r="10.928" gradientTransform="matrix(14.700917,54.398955,54.427221,-14.693283,474.643706,-128.108383)">
<stop offset="0" style="stop-color:rgb(96.078431%,52.941176%,34.509804%);stop-opacity:1;"/>
<stop offset="1" style="stop-color:rgb(74.117647%,32.156863%,2.352941%);stop-opacity:1;"/>
</radialGradient>
<radialGradient id="radial41" gradientUnits="userSpaceOnUse" cx="9.3643" cy="-4.3521" fx="9.3643" fy="-4.3521" r="10.944" gradientTransform="matrix(14.750249,54.384868,54.413126,-14.742589,473.657067,-128.284477)">
<stop offset="0" style="stop-color:rgb(96.078431%,52.941176%,34.509804%);stop-opacity:1;"/>
<stop offset="1" style="stop-color:rgb(74.117647%,32.156863%,2.352941%);stop-opacity:1;"/>
</radialGradient>
<radialGradient id="radial42" gradientUnits="userSpaceOnUse" cx="9.3643" cy="-4.3521" fx="9.3643" fy="-4.3521" r="10.944" gradientTransform="matrix(14.750249,54.384868,54.413126,-14.742589,473.657067,-128.284477)">
<stop offset="0" style="stop-color:rgb(96.078431%,52.941176%,34.509804%);stop-opacity:1;"/>
<stop offset="1" style="stop-color:rgb(74.117647%,32.156863%,2.352941%);stop-opacity:1;"/>
</radialGradient>
<radialGradient id="radial43" gradientUnits="userSpaceOnUse" cx="9.3608" cy="-4.3594" fx="9.3608" fy="-4.3594" r="10.928" gradientTransform="matrix(14.700917,54.398955,54.427221,-14.693283,474.643706,-128.108383)">
<stop offset="0" style="stop-color:rgb(96.078431%,52.941176%,34.509804%);stop-opacity:1;"/>
<stop offset="1" style="stop-color:rgb(74.117647%,32.156863%,2.352941%);stop-opacity:1;"/>
</radialGradient>
<radialGradient id="radial44" gradientUnits="userSpaceOnUse" cx="9.3608" cy="-4.3594" fx="9.3608" fy="-4.3594" r="10.928" gradientTransform="matrix(14.700917,54.398955,54.427221,-14.693283,474.643706,-128.108383)">
<stop offset="0" style="stop-color:rgb(96.078431%,52.941176%,34.509804%);stop-opacity:1;"/>
<stop offset="1" style="stop-color:rgb(74.117647%,32.156863%,2.352941%);stop-opacity:1;"/>
</radialGradient>
<radialGradient id="radial45" gradientUnits="userSpaceOnUse" cx="9.3643" cy="-4.3521" fx="9.3643" fy="-4.3521" r="10.944" gradientTransform="matrix(14.750249,54.384868,54.413126,-14.742589,473.657067,-128.284477)">
<stop offset="0" style="stop-color:rgb(96.078431%,52.941176%,34.509804%);stop-opacity:1;"/>
<stop offset="1" style="stop-color:rgb(74.117647%,32.156863%,2.352941%);stop-opacity:1;"/>
</radialGradient>
<radialGradient id="radial46" gradientUnits="userSpaceOnUse" cx="9.3608" cy="-4.3594" fx="9.3608" fy="-4.3594" r="10.928" gradientTransform="matrix(14.700917,54.398955,54.427221,-14.693283,474.643706,-128.108383)">
<stop offset="0" style="stop-color:rgb(96.078431%,52.941176%,34.509804%);stop-opacity:1;"/>
<stop offset="1" style="stop-color:rgb(74.117647%,32.156863%,2.352941%);stop-opacity:1;"/>
</radialGradient>
</defs>
<g id="surface1">
<path style=" stroke:none;fill-rule:evenodd;fill:rgb(17.647059%,30.980392%,10.588235%);fill-opacity:1;" d="M 710.554688 294.429688 L 718.835938 301.648438 C 728.175781 307.109375 736.71875 307.109375 744.296875 301.648438 C 755.308594 288.265625 780.0625 282.71875 817.589844 284.832031 C 862.691406 286.503906 896.433594 307.109375 919.160156 346.730469 C 943.5625 387.933594 925.679688 412.414062 865.421875 419.984375 C 811.070312 427.554688 773.191406 422.714844 752.578125 405.898438 C 741.210938 396.5625 730.90625 373.847656 721.566406 338.101562 Z M 704.742188 290.289062 C 607.046875 294.078125 546.085938 285.449219 521.683594 264.84375 C 506.535156 251.8125 497.898438 229.097656 496.226562 197.050781 L 498.957031 152.058594 L 518.953125 169.226562 C 537.542969 178.558594 560.183594 182.960938 586.34375 182.960938 C 618.410156 182.960938 645.542969 194.320312 668.273438 217.035156 C 690.648438 237.640625 703.683594 260.003906 707.472656 284.480469 L 710.554688 294.429688 Z M 704.742188 290.289062 "/>
<path style=" stroke:none;fill-rule:evenodd;fill:rgb(17.647059%,30.980392%,10.588235%);fill-opacity:1;" d="M 848.597656 453.707031 C 878.550781 449.921875 912.554688 460.925781 950.082031 487.339844 C 989.632812 515.601562 1012.007812 550.292969 1017.558594 591.585938 C 1030.949219 668.628906 1019.585938 739.859375 983.820312 805.894531 C 963.207031 848.859375 957.65625 885.664062 966.992188 915.601562 C 953.867188 878.09375 951.136719 835.742188 958.359375 788.988281 C 962.5 751.128906 951.84375 708.867188 927.703125 662.113281 C 899.515625 611.222656 868.152344 585.074219 834.503906 583.3125 C 804.550781 581.285156 798.03125 559.625 814.859375 518.332031 Z M 848.597656 453.707031 "/>
<path style=" stroke:none;fill-rule:evenodd;fill:rgb(21.960784%,45.098039%,16.078431%);fill-opacity:1;" d="M 589.164062 143.78125 C 649.332031 164.382812 693.378906 187.804688 721.566406 214.304688 C 751.871094 242.128906 766.671875 274.089844 766.671875 309.925781 C 762.882812 368.035156 762.882812 404.839844 766.671875 419.984375 C 614.625 401.054688 546.085938 372.878906 560.886719 335.371094 C 592.863281 262.117188 567.757812 200.835938 484.863281 152.058594 C 443.546875 129.691406 425.664062 97.730469 431.476562 56.4375 C 433.238281 35.746094 439.757812 16.90625 451.121094 0 C 449.449219 9.332031 448.390625 19.632812 448.390625 30.992188 C 452.179688 55.382812 462.488281 75.984375 479.3125 92.890625 C 492.4375 104.246094 529.261719 121.066406 589.164062 143.78125 Z M 589.164062 143.78125 "/>
<path style=" stroke:none;fill-rule:evenodd;fill:rgb(28.235294%,47.058824%,16.470588%);fill-opacity:1;" d="M 716.105469 357.734375 C 791.074219 331.585938 861.636719 338.101562 927.351562 377.632812 C 966.992188 403.785156 993.070312 451.59375 1006.546875 521.0625 C 1012.007812 556.808594 1013.769531 589.828125 1012.007812 619.761719 C 998.972656 595.375 980.03125 574.769531 955.628906 557.867188 C 906.738281 522.117188 853.441406 522.117188 794.859375 557.867188 C 736.71875 593.613281 706.769531 570.984375 704.742188 490.15625 Z M 716.105469 357.734375 "/>
<path style=" stroke:none;fill-rule:evenodd;fill:url(#radial0);" d="M 84.65625 608.40625 C 97.695312 503.539062 128.703125 419.984375 177.59375 357.734375 C 230.1875 288.265625 299.691406 249.703125 386.460938 242.128906 C 557.097656 227.335938 688.886719 266.871094 780.765625 360.816406 C 901.1875 490.15625 951.136719 621.875 930.4375 754.914062 C 915.371094 862.246094 866.480469 943.070312 783.847656 997.394531 C 712.316406 1044.238281 629.421875 1071.707031 535.425781 1078.929688 C 413.59375 1090.285156 336.515625 1100.585938 304.535156 1109.921875 C 229.21875 1134.660156 160.679688 1140.121094 98.753906 1127.089844 C 34.796875 1113.707031 1.761719 1083.769531 0 1036.664062 C 0 999.15625 9.25 947.5625 28.191406 881.878906 C 52.679688 793.480469 71.53125 702.703125 84.65625 608.40625 Z M 84.65625 608.40625 "/>
<path style=" stroke:none;fill-rule:evenodd;fill:url(#radial1);" d="M 239.875 864.972656 C 254.675781 862.949219 267.714844 854.671875 279.078125 839.527344 C 288.328125 822.710938 291.5 803.078125 287.710938 780.359375 C 281.808594 755.972656 268.769531 749.457031 248.070312 760.8125 C 235.03125 766.273438 223.667969 778.6875 214.417969 797.265625 C 203.054688 816.195312 200.941406 833.011719 208.515625 848.15625 C 214.417969 862.949219 224.722656 868.757812 239.875 864.972656 Z M 315.902344 788.988281 C 334.488281 807.566406 359.945312 798.320312 391.925781 760.8125 C 403.289062 747.695312 407.78125 733.609375 406.019531 718.464844 C 402.230469 701.648438 387.167969 695.835938 361.003906 701.648438 C 342.0625 705.433594 326.914062 717.496094 315.902344 738.097656 C 302.511719 758.699219 302.511719 775.605469 315.902344 788.988281 Z M 349.640625 557.867188 C 326.914062 580.230469 314.84375 602.945312 313.167969 625.660156 C 309.382812 650.050781 317.574219 662.113281 338.277344 662.113281 C 358.890625 662.113281 379.589844 646.265625 400.207031 614.304688 C 422.933594 584.015625 433.238281 560.59375 431.214844 543.777344 C 429.453125 526.960938 419.144531 520.359375 400.207031 524.144531 C 385.40625 525.90625 368.578125 537.261719 349.640625 557.867188 Z M 301.804688 475.980469 C 303.480469 504.246094 321.363281 509 355.101562 490.15625 C 387.167969 471.578125 407.78125 449.921875 417.382812 425.441406 C 426.722656 404.839844 430.507812 391.722656 428.394531 385.910156 C 424.605469 378.339844 413.59375 373.847656 394.65625 371.824219 C 375.804688 370.0625 355.101562 379.394531 332.726562 399.996094 C 310.085938 422.714844 299.691406 448.160156 301.804688 475.980469 Z M 566.789062 493.238281 C 549.875 489.453125 528.203125 497.730469 501.6875 518.332031 C 475.523438 538.9375 459.757812 561.652344 453.855469 586.039062 C 448.390625 612.191406 457.640625 624.605469 482.132812 622.582031 C 504.769531 622.582031 526.179688 611.574219 546.792969 588.859375 C 565.730469 568.167969 577.09375 548.621094 580.882812 529.691406 C 584.671875 509 579.828125 497.023438 566.789062 493.238281 Z M 482.132812 419.984375 C 484.15625 449.921875 508.558594 445.078125 555.425781 405.898438 C 604.226562 364.601562 615.59375 339.15625 589.164062 329.472656 C 566.789062 322.253906 543.003906 327.800781 518.953125 346.730469 C 492.4375 365.308594 480.371094 389.695312 482.132812 419.984375 Z M 279.078125 602.945312 C 262.253906 602.945312 244.28125 612.542969 225.695312 631.121094 C 205.078125 651.8125 195.476562 677.257812 197.503906 707.105469 C 199.265625 729.820312 209.574219 740.121094 228.511719 738.097656 C 247.101562 736.335938 264.277344 725.066406 279.078125 704.375 C 292.46875 683.773438 299.691406 662.113281 301.804688 639.75 C 301.804688 615.273438 294.230469 602.945312 279.078125 602.945312 Z M 270.796875 464.976562 C 253.617188 451.59375 228.511719 470.523438 194.421875 521.414062 C 185.171875 538.230469 186.140625 556.191406 197.503906 574.769531 C 206.839844 591.585938 218.207031 590.882812 231.242188 571.953125 L 256.703125 532.421875 C 275.289062 491.125 280.136719 468.761719 270.796875 464.976562 Z M 583.613281 312.65625 C 636.292969 316.441406 640.699219 349.457031 597.710938 411.355469 C 580.882812 435.746094 553.308594 452.648438 515.78125 461.894531 L 569.519531 464.710938 C 603.257812 474.308594 616.296875 494.914062 609.074219 526.960938 C 592.246094 588.859375 548.816406 630.0625 479.3125 650.753906 C 464.25 656.566406 448.390625 659.296875 431.476562 659.296875 L 408.839844 659.296875 L 420.203125 676.199219 C 427.691406 689.230469 428.394531 706.136719 422.933594 726.738281 C 417.382812 749.457031 409.808594 766.273438 400.207031 777.632812 C 394.65625 783.179688 380.5625 791.71875 358.183594 803.078125 C 337.570312 814.082031 319.6875 816.195312 304.535156 808.625 C 291.5 838.558594 274.234375 858.457031 253.617188 867.792969 C 240.492188 875.363281 227.457031 876.332031 214.417969 870.519531 C 203.054688 864.972656 197.503906 857.402344 197.503906 848.15625 L 197.503906 834.070312 C 170.988281 858.457031 148.699219 867.792969 129.761719 862.246094 C 112.847656 854.671875 108.089844 834.070312 115.578125 800.347656 C 113.902344 820.949219 118.398438 836.796875 129.761719 848.15625 C 139.011719 859.515625 149.316406 856.433594 160.679688 839.527344 C 173.808594 822.710938 182.351562 803.078125 186.140625 780.359375 L 188.957031 752.183594 C 181.382812 740.828125 172.046875 734.3125 160.679688 732.640625 C 148.699219 732.640625 137.601562 740.828125 126.941406 758.085938 L 141.125 732.640625 C 135.222656 728.851562 129.761719 722.25 124.210938 713.003906 C 131.433594 720.222656 140.066406 722.25 149.316406 718.464844 C 156.894531 714.675781 162.796875 708.160156 166.582031 698.917969 C 173.808594 682.011719 178.5625 662.113281 180.324219 639.75 C 184.113281 613.246094 183.410156 600.214844 177.59375 600.214844 C 143.855469 600.214844 123.152344 621.875 115.578125 664.84375 L 115.578125 693.019531 C 113.902344 679.988281 113.902344 664.84375 115.578125 648.027344 C 130.730469 593.613281 154.164062 571.953125 186.140625 583.3125 C 170.988281 575.738281 169.3125 554.078125 180.324219 518.332031 C 187.902344 490.15625 201.996094 466.738281 222.609375 448.160156 C 239.875 430.988281 253.617188 424.472656 264.984375 428.171875 L 287.710938 430.988281 C 310.085938 389.695312 343.121094 364.601562 386.460938 354.917969 C 429.453125 343.648438 449.449219 345.671875 445.660156 360.816406 L 490.675781 335.371094 C 526.179688 318.464844 557.097656 310.894531 583.613281 312.65625 Z M 583.613281 312.65625 "/>
<path style=" stroke:none;fill-rule:evenodd;fill:url(#radial2);" d="M 96.019531 769.089844 C 80.867188 787.933594 71.53125 796.5625 67.832031 794.535156 C 64.042969 792.773438 61.929688 787.933594 61.929688 780.359375 L 65.011719 772.171875 L 70.5625 777.632812 C 74.351562 783.179688 82.632812 780.359375 96.019531 769.089844 Z M 96.019531 769.089844 "/>
<path style=" stroke:none;fill-rule:evenodd;fill:url(#radial3);" d="M 459.757812 763.542969 C 469.003906 772.875 485.917969 771.117188 510.320312 758.085938 C 532.695312 744.613281 545.117188 727.09375 546.792969 704.375 C 546.792969 732.640625 537.542969 754.296875 518.953125 769.089844 C 492.4375 787.933594 472.792969 786.257812 459.757812 763.542969 Z M 459.757812 763.542969 "/>
<path style=" stroke:none;fill-rule:evenodd;fill:url(#radial4);" d="M 673.734375 566.496094 C 690.648438 568.167969 708.53125 559.625 727.46875 541.046875 C 744.296875 524.144531 749.84375 501.515625 744.296875 473.253906 C 759.449219 492.183594 759.449219 516.570312 744.296875 546.507812 C 727.46875 576.796875 703.683594 583.3125 673.734375 566.496094 Z M 673.734375 566.496094 "/>
<path style=" stroke:none;fill-rule:evenodd;fill:url(#radial5);" d="M 600.441406 774.902344 C 617.355469 782.472656 637.96875 777.632812 662.457031 760.8125 C 685.097656 743.910156 700.953125 727.796875 710.554688 713.003906 C 706.769531 748.398438 690.648438 772.171875 662.457031 783.179688 C 645.542969 788.988281 629.6875 788.988281 614.625 783.179688 Z M 600.441406 774.902344 "/>
<path style=" stroke:none;fill-rule:evenodd;fill:url(#radial6);" d="M 493.496094 876.332031 C 493.496094 897.023438 481.074219 908.027344 456.671875 910.054688 C 443.546875 910.054688 432.183594 907.324219 422.933594 901.425781 L 414.300781 893.238281 L 428.394531 895.964844 C 438.085938 897.726562 447.335938 897.726562 456.671875 895.964844 C 471.738281 892.179688 484.15625 885.664062 493.496094 876.332031 Z M 493.496094 876.332031 "/>
<path style=" stroke:none;fill-rule:evenodd;fill:url(#radial7);" d="M 369.195312 881.878906 L 372.367188 895.964844 C 372.367188 907.324219 367.523438 918.683594 358.183594 929.6875 C 341.007812 948.617188 318.632812 949.234375 290.441406 932.417969 C 313.167969 932.417969 329.996094 928.632812 341.007812 921.410156 C 352.371094 915.601562 361.621094 902.480469 369.195312 881.878906 Z M 369.195312 881.878906 "/>
<path style=" stroke:none;fill-rule:evenodd;fill:url(#radial8);" d="M 248.070312 932.417969 C 251.855469 943.777344 250.886719 954.078125 245.339844 963.410156 C 239.875 973.007812 231.242188 978.464844 219.878906 980.578125 C 212.304688 982.253906 205.785156 982.253906 200.234375 980.578125 L 194.421875 977.496094 C 211.597656 979.523438 223.667969 976.792969 231.242188 969.222656 Z M 248.070312 932.417969 "/>
<path style=" stroke:none;fill-rule:evenodd;fill:url(#radial9);" d="M 101.484375 980.578125 C 105.269531 993.609375 99.808594 1004 84.65625 1011.484375 C 67.832031 1019.054688 56.46875 1015.972656 50.917969 1002.941406 L 70.5625 1006.023438 C 78.136719 1006.023438 88.445312 997.394531 101.484375 980.578125 Z M 101.484375 980.578125 "/>
<path style=" stroke:none;fill-rule:evenodd;fill:url(#radial10);" d="M 188.957031 901.425781 C 185.171875 922.117188 175.832031 935.5 160.679688 941.046875 C 143.855469 948.617188 132.492188 945.800781 126.941406 932.769531 L 157.949219 935.5 C 167.199219 931.714844 177.59375 920.355469 188.957031 901.425781 Z M 188.957031 901.425781 "/>
<path style=" stroke:none;fill-rule:evenodd;fill:url(#radial11);" d="M 245.339844 354.917969 C 233.972656 390.753906 219.878906 412.414062 203.054688 419.984375 C 186.140625 427.554688 180.324219 419.984375 186.140625 397.269531 C 195.476562 363.546875 208.515625 343.648438 225.695312 338.101562 C 242.605469 334.3125 249.125 339.863281 245.339844 354.917969 Z M 245.339844 354.917969 "/>
<path style=" stroke:none;fill-rule:evenodd;fill:url(#radial12);" d="M 394.65625 402.726562 C 389.195312 442.347656 371.3125 466.03125 341.007812 473.253906 C 309.382812 480.824219 301.804688 470.523438 318.632812 442.347656 C 331.757812 417.871094 348.582031 399.996094 369.195312 388.640625 C 389.898438 379.394531 398.445312 384.148438 394.65625 402.726562 Z M 394.65625 402.726562 "/>
<path style=" stroke:none;fill-rule:evenodd;fill:url(#radial13);" d="M 560.886719 512.785156 C 566.789062 546.507812 553.664062 573.011719 521.683594 591.585938 C 487.59375 610.519531 471.738281 607.789062 473.5 583.3125 C 475.523438 562.707031 490.324219 542.015625 518.953125 521.0625 C 545.117188 500.460938 559.210938 497.730469 560.886719 512.785156 Z M 560.886719 512.785156 "/>
<path style=" stroke:none;fill-rule:evenodd;fill:url(#radial14);" d="M 679.28125 693.019531 C 705.800781 695.132812 706.769531 708.160156 682.367188 732.640625 C 655.851562 759.054688 631.449219 768.386719 609.074219 760.8125 C 586.34375 754.914062 586.34375 741.882812 609.074219 721.28125 C 631.449219 700.589844 654.882812 691.34375 679.28125 693.019531 Z M 679.28125 693.019531 "/>
<path style=" stroke:none;fill-rule:evenodd;fill:url(#radial15);" d="M 749.84375 873.25 C 774.246094 873.25 772.574219 884.609375 744.296875 907.324219 C 716.105469 929.6875 693.378906 938.933594 676.550781 935.5 C 661.753906 929.6875 665.539062 918.332031 687.917969 901.425781 C 712.316406 882.933594 732.929688 873.25 749.84375 873.25 Z M 749.84375 873.25 "/>
<path style=" stroke:none;fill-rule:evenodd;fill:url(#radial16);" d="M 256.703125 479.152344 C 254.675781 505.214844 245.339844 527.929688 228.511719 546.507812 C 213.359375 565.4375 205.078125 564.382812 203.054688 543.777344 C 201.292969 524.847656 210.628906 506.269531 231.242188 487.339844 C 251.855469 464.976562 260.492188 461.894531 256.703125 479.152344 Z M 256.703125 479.152344 "/>
<path style=" stroke:none;fill-rule:evenodd;fill:url(#radial17);" d="M 406.019531 538.230469 C 426.722656 553.023438 423.902344 574.769531 397.472656 602.945312 C 372.984375 631.121094 352.371094 642.480469 335.546875 636.667969 C 322.417969 629.097656 326.914062 608.40625 349.640625 574.769531 C 372.367188 542.722656 390.957031 530.746094 406.019531 538.230469 Z M 406.019531 538.230469 "/>
<path style=" stroke:none;fill-rule:evenodd;fill:url(#radial18);" d="M 532.695312 693.019531 C 544.0625 706.488281 537.542969 722.25 513.050781 740.828125 C 488.652344 761.871094 473.5 766.273438 467.949219 754.914062 C 460.460938 743.910156 466.980469 727.796875 487.59375 707.105469 C 508.296875 684.828125 523.359375 679.988281 532.695312 693.019531 Z M 532.695312 693.019531 "/>
<path style=" stroke:none;fill-rule:evenodd;fill:url(#radial19);" d="M 614.625 856.433594 C 620.085938 871.578125 610.128906 888.394531 583.613281 907.324219 C 557.449219 924.140625 539.566406 926.253906 529.964844 912.78125 C 520.628906 901.425781 530.933594 886.722656 560.886719 867.792969 C 591.191406 849.214844 609.074219 845.425781 614.625 856.433594 Z M 614.625 856.433594 "/>
<path style=" stroke:none;fill-rule:evenodd;fill:url(#radial20);" d="M 609.074219 1017.03125 C 642.8125 1019.054688 648.625 1026.628906 625.898438 1039.746094 C 601.496094 1052.777344 580.882812 1056.5625 563.96875 1050.753906 C 548.816406 1046.96875 548.816406 1040.804688 563.96875 1031.117188 C 577.09375 1021.875 591.894531 1017.03125 609.074219 1017.03125 Z M 609.074219 1017.03125 "/>
<path style=" stroke:none;fill-rule:evenodd;fill:url(#radial21);" d="M 163.410156 611.574219 C 167.199219 637.636719 163.410156 661.058594 152.402344 681.660156 C 139.011719 702.703125 130.730469 701.648438 126.941406 678.929688 C 123.152344 658.328125 128 638.691406 141.125 619.761719 C 154.164062 601.183594 161.738281 598.101562 163.410156 611.574219 Z M 163.410156 611.574219 "/>
<path style=" stroke:none;fill-rule:evenodd;fill:url(#radial22);" d="M 259.433594 625.660156 C 285.597656 618.089844 292.117188 632.175781 279.078125 667.925781 C 266.039062 701.648438 248.070312 720.222656 225.695312 724.363281 C 210.628906 724.363281 207.8125 709.21875 217.148438 678.929688 C 226.398438 648.996094 240.492188 631.121094 259.433594 625.660156 Z M 259.433594 625.660156 "/>
<path style=" stroke:none;fill-rule:evenodd;fill:url(#radial23);" d="M 377.828125 713.003906 C 398.445312 714.675781 399.5 728.851562 380.5625 754.914062 C 361.621094 779.746094 344.796875 789.695312 329.996094 786.257812 C 316.605469 780.359375 316.605469 767.328125 329.996094 746.726562 C 344.796875 724.011719 361.003906 713.003906 377.828125 713.003906 Z M 377.828125 713.003906 "/>
<path style=" stroke:none;fill-rule:evenodd;fill:url(#radial24);" d="M 473.5 845.425781 C 494.113281 854.671875 497.285156 864.003906 482.132812 873.25 C 469.003906 882.933594 452.179688 887.335938 431.476562 887.335938 C 414.300781 887.335938 414.300781 879.148438 431.476562 862.246094 C 448.390625 847.101562 462.488281 841.640625 473.5 845.425781 Z M 473.5 845.425781 "/>
<path style=" stroke:none;fill-rule:evenodd;fill:url(#radial25);" d="M 513.050781 980.578125 C 541.328125 984.367188 546.085938 991.9375 527.148438 1002.941406 C 510.320312 1012.539062 491.382812 1017.03125 470.769531 1017.03125 C 453.855469 1017.03125 452.886719 1010.515625 467.949219 997.394531 C 481.074219 984.367188 496.226562 978.464844 513.050781 980.578125 Z M 513.050781 980.578125 "/>
<path style=" stroke:none;fill-rule:evenodd;fill:url(#radial26);" d="M 155.21875 749.457031 C 175.832031 740.121094 181.382812 754.296875 172.046875 791.71875 C 162.796875 829.226562 150.375 844.371094 135.222656 836.796875 C 124.210938 831.339844 121.128906 817.164062 126.941406 794.535156 C 132.492188 772.171875 141.742188 757.027344 155.21875 749.457031 Z M 155.21875 749.457031 "/>
<path style=" stroke:none;fill-rule:evenodd;fill:url(#radial27);" d="M 262.253906 772.171875 C 281.105469 773.84375 281.808594 789.695312 264.984375 819.980469 C 250.183594 849.917969 237.058594 859.515625 225.695312 848.15625 C 216.445312 836.796875 216.445312 820.949219 225.695312 800.347656 C 235.03125 779.390625 247.101562 770.058594 262.253906 772.171875 Z M 262.253906 772.171875 "/>
<path style=" stroke:none;fill-rule:evenodd;fill:url(#radial28);" d="M 344.089844 864.972656 C 362.679688 866.734375 366.464844 876.332031 355.101562 893.238281 C 342.0625 910.054688 325.148438 919.386719 304.535156 921.410156 C 285.597656 923.171875 284.890625 913.839844 301.804688 893.238281 C 316.605469 874.308594 330.699219 864.972656 344.089844 864.972656 Z M 344.089844 864.972656 "/>
<path style=" stroke:none;fill-rule:evenodd;fill:url(#radial29);" d="M 391.925781 974.769531 C 410.863281 974.769531 414.300781 982.253906 403.289062 997.394531 C 391.925781 1010.515625 375.804688 1018.085938 355.101562 1019.761719 C 334.488281 1021.875 332.726562 1014.300781 349.640625 997.394531 C 364.792969 982.253906 378.886719 974.769531 391.925781 974.769531 Z M 391.925781 974.769531 "/>
<path style=" stroke:none;fill-rule:evenodd;fill:url(#radial30);" d="M 166.582031 867.792969 C 187.195312 860.21875 193.714844 866.734375 186.140625 887.335938 C 176.539062 908.027344 163.410156 922.117188 146.585938 929.6875 C 131.433594 935.5 128.703125 927.925781 137.953125 907.324219 C 147.644531 886.722656 156.894531 873.25 166.582031 867.792969 Z M 166.582031 867.792969 "/>
<path style=" stroke:none;fill-rule:evenodd;fill:url(#radial31);" d="M 219.878906 921.410156 C 238.820312 908.027344 244.28125 912.78125 236.792969 935.5 C 231.242188 957.863281 220.9375 970.980469 205.785156 974.769531 C 192.746094 976.792969 189.929688 970.277344 197.503906 955.132812 C 203.054688 939.988281 210.628906 928.984375 219.878906 921.410156 Z M 219.878906 921.410156 "/>
<path style=" stroke:none;fill-rule:evenodd;fill:url(#radial32);" d="M 293.171875 980.578125 C 306.296875 980.578125 308.324219 987.09375 299.074219 1000.214844 C 289.382812 1015.269531 276.347656 1023.546875 259.433594 1025.660156 C 242.605469 1027.332031 240.492188 1020.816406 253.617188 1006.023438 C 268.769531 988.855469 281.808594 980.578125 293.171875 980.578125 Z M 293.171875 980.578125 "/>
<path style=" stroke:none;fill-rule:evenodd;fill:url(#radial33);" d="M 90.117188 856.433594 C 84.65625 892.179688 78.136719 910.757812 70.5625 912.78125 C 65.011719 914.894531 61.222656 905.210938 59.199219 884.609375 C 57.4375 869.816406 62.984375 857.402344 76.023438 848.15625 C 87.386719 840.585938 92.234375 843.3125 90.117188 856.433594 Z M 90.117188 856.433594 "/>
<path style=" stroke:none;fill-rule:evenodd;fill:url(#radial34);" d="M 93.289062 946.503906 C 98.753906 961.648438 96.019531 974.769531 84.65625 986.039062 C 73.292969 997.394531 64.042969 999.15625 56.46875 991.9375 C 48.890625 986.039062 52.679688 975.738281 67.832031 960.59375 C 80.867188 945.800781 89.503906 941.046875 93.289062 946.503906 Z M 93.289062 946.503906 "/>
<path style=" stroke:none;fill-rule:evenodd;fill:url(#radial35);" d="M 163.410156 1011.484375 C 178.5625 1011.484375 181.382812 1018.085938 172.046875 1031.117188 C 162.796875 1044.238281 149.316406 1050.753906 132.492188 1050.753906 C 117.691406 1050.753906 115.578125 1044.238281 126.941406 1031.117188 C 140.066406 1018.085938 152.402344 1011.484375 163.410156 1011.484375 Z M 163.410156 1011.484375 "/>
<path style=" stroke:none;fill-rule:evenodd;fill:url(#radial36);" d="M 98.753906 715.734375 C 100.515625 732.640625 96.019531 746.726562 84.65625 758.085938 C 75.320312 769.089844 70.5625 768.386719 70.5625 754.914062 C 70.5625 743.910156 75.320312 731.582031 84.65625 718.464844 C 92.234375 707.105469 97.078125 706.136719 98.753906 715.734375 Z M 98.753906 715.734375 "/>
<path style=" stroke:none;fill-rule:evenodd;fill:url(#radial37);" d="M 146.585938 479.152344 C 146.585938 509 142.796875 529.691406 135.222656 541.046875 C 128 550.292969 123.152344 544.835938 121.128906 524.144531 C 119.367188 505.214844 123.152344 490.511719 132.492188 479.152344 C 141.742188 465.679688 146.585938 465.679688 146.585938 479.152344 Z M 146.585938 479.152344 "/>
<path style=" stroke:none;fill-rule:evenodd;fill:url(#radial38);" d="M 386.460938 281.664062 C 412.625 279.988281 421.875 285.449219 414.300781 298.566406 C 407.078125 313.710938 388.136719 325.070312 358.183594 332.289062 C 327.96875 341.886719 320.394531 336.425781 335.546875 315.738281 C 348.582031 294.78125 365.761719 283.777344 386.460938 281.664062 Z M 386.460938 281.664062 "/>
<path style=" stroke:none;fill-rule:evenodd;fill:url(#radial39);" d="M 549.875 338.101562 C 585.375 328.855469 592.863281 338.101562 572.25 366.277344 C 551.636719 394.539062 532.695312 407.570312 515.78125 405.898438 C 501.070312 403.785156 498.957031 393.480469 510.320312 374.902344 C 519.570312 353.949219 532.695312 341.886719 549.875 338.101562 Z M 549.875 338.101562 "/>
<path style=" stroke:none;fill-rule:evenodd;fill:url(#radial40);" d="M 707.472656 473.253906 C 737.777344 480.824219 744.296875 497.730469 727.46875 524.144531 C 708.53125 550.292969 691.703125 559.980469 676.550781 552.40625 C 663.425781 546.507812 661.398438 531.363281 671.003906 507.328125 C 680.339844 482.9375 692.671875 471.578125 707.472656 473.253906 Z M 707.472656 473.253906 "/>
<path style=" stroke:none;fill-rule:evenodd;fill:url(#radial41);" d="M 823.136719 636.667969 C 830.714844 670.300781 827.894531 694.074219 814.859375 707.105469 C 801.46875 718.464844 791.074219 713.003906 783.847656 690.289062 C 778.035156 671.359375 781.824219 654.542969 795.214844 639.75 C 810.011719 622.582031 819.351562 621.875 823.136719 636.667969 Z M 823.136719 636.667969 "/>
<path style=" stroke:none;fill-rule:evenodd;fill:url(#radial42);" d="M 904.976562 805.894531 C 906.738281 822.710938 899.164062 839.527344 882.335938 856.433594 C 867.539062 873.25 854.410156 876.332031 843.046875 864.972656 C 833.445312 855.730469 841.019531 839.527344 865.421875 816.898438 C 889.914062 794.535156 902.949219 790.75 904.976562 805.894531 Z M 904.976562 805.894531 "/>
<path style=" stroke:none;fill-rule:evenodd;fill:url(#radial43);" d="M 563.96875 267.574219 C 586.34375 271.359375 591.894531 277.261719 580.882812 284.480469 C 571.191406 290.289062 558.15625 290.996094 541.328125 287.5625 C 526.179688 285.449219 524.417969 280.695312 535.425781 273.472656 C 545.117188 267.574219 554.367188 265.902344 563.96875 267.574219 Z M 563.96875 267.574219 "/>
<path style=" stroke:none;fill-rule:evenodd;fill:url(#radial44);" d="M 671.003906 338.101562 C 699.28125 328.855469 708.53125 334.3125 699.28125 354.917969 C 687.917969 379.394531 676.550781 389.695312 665.539062 385.910156 C 657.964844 384.148438 655.851562 376.664062 659.636719 363.546875 C 661.753906 350.515625 665.1875 341.886719 671.003906 338.101562 Z M 671.003906 338.101562 "/>
<path style=" stroke:none;fill-rule:evenodd;fill:url(#radial45);" d="M 814.859375 461.894531 C 818.644531 488.398438 816.621094 504.597656 809.042969 510.054688 C 803.492188 517.628906 798.648438 512.785156 795.214844 495.96875 C 793.1875 480.824219 795.214844 467.792969 800.761719 456.4375 C 808.339844 445.078125 812.832031 447.101562 814.859375 461.894531 Z M 814.859375 461.894531 "/>
<path style=" stroke:none;fill-rule:evenodd;fill:url(#radial46);" d="M 910.527344 597.046875 C 910.527344 625.308594 906.738281 645.207031 899.164062 656.566406 C 893.699219 667.574219 887.09375 667.574219 879.519531 656.566406 C 874.054688 646.96875 877.84375 630.0625 890.882812 605.675781 C 902.246094 583.3125 908.765625 580.230469 910.527344 597.046875 Z M 910.527344 597.046875 "/>
<path style=" stroke:none;fill-rule:evenodd;fill:rgb(39.215686%,58.039216%,20%);fill-opacity:1;" d="M 854.058594 729.820312 C 873 714.675781 890.882812 694.074219 907.796875 667.574219 C 943.5625 615.273438 961.445312 561.652344 961.445312 507.328125 C 959.417969 443.316406 934.929688 393.480469 888.152344 357.734375 L 913.257812 369.09375 C 935.984375 382.125 957.65625 402.109375 978.269531 428.171875 C 1000.644531 456.4375 1013.066406 498.699219 1014.828125 555.136719 C 1016.855469 607.789062 1010.335938 645.207031 995.183594 667.925781 C 972.457031 705.433594 925.679688 726.035156 854.058594 729.820312 Z M 854.058594 729.820312 "/>
</g>
</svg>
