<?xml version="1.0" encoding="UTF-8"?>
<svg xmlns="http://www.w3.org/2000/svg" xmlns:xlink="http://www.w3.org/1999/xlink" width="480pt" height="445pt" viewBox="0 0 480 445" version="1.1">
<g id="surface1">
<path style="fill-rule:evenodd;fill:rgb(0%,62.352941%,26.666667%);fill-opacity:1;stroke-width:1.062992;stroke-linecap:butt;stroke-linejoin:miter;stroke:rgb(0%,0%,0%);stroke-opacity:1;stroke-miterlimit:4;" d="M 94.322761 173.656024 C 90.98265 176.261553 89.252456 177.948112 88.261738 179.211695 C 82.471558 185.727299 84.049402 188.893827 81.94858 193.732667 C 81.221578 197.388956 80.090092 199.430814 79.044135 201.813725 C 79.128774 204.718453 79.212522 207.645444 79.297161 209.894783 C 78.136274 217.238528 78.091727 215.088922 77.529548 217.344494 C 76.994987 220.192232 77.319287 222.657066 79.80232 224.16375 C 90.833864 220.817346 90.560347 223.932226 92.681661 225.678447 C 95.545122 225.244786 95.977225 223.18957 95.83824 220.754122 L 94.954433 215.703349 C 95.586996 214.735403 96.262324 213.767457 97.227206 212.799511 C 98.003209 209.754978 98.457585 206.227808 100.510297 205.096905 C 104.256674 209.302617 105.105734 209.57154 107.202102 211.536818 C 108.132237 213.853833 108.915368 216.096939 110.485193 218.733635 C 111.812685 219.598286 113.436857 220.759465 114.146932 221.007017 C 113.759375 223.812012 114.887298 225.480762 115.788923 227.320482 C 117.637611 230.14774 121.373297 229.064032 121.470408 229.466527 C 120.919811 227.138826 122.713261 226.47097 123.617559 225.173548 C 126.812448 223.99545 131.09784 222.816461 133.087296 221.638363 C 136.472845 221.244773 138.309059 218.527045 140.410773 216.208248 C 143.096938 215.080017 145.593335 214.140566 147.608628 213.682862 C 150.137989 209.864507 153.203693 206.179722 157.078364 202.697966 L 159.856296 202.066619 C 161.220316 200.929483 160.588644 199.793237 159.982809 198.656992 C 157.663708 196.972214 156.53044 193.85199 154.174811 195.121807 C 154.163228 193.08351 154.830538 191.271394 153.921785 188.933898 L 149.249728 182.494876 L 147.73514 177.191208 C 149.519681 177.208127 150.50149 176.422728 151.649013 175.802068 C 155.612778 173.412033 156.728227 171.733489 158.088683 169.994391 C 162.520189 169.788692 163.777296 168.223237 166.043832 167.089663 C 167.92103 165.496604 169.822283 163.933821 170.71589 161.029092 C 171.264705 157.693374 170.168856 156.330947 169.073898 154.967631 C 166.903583 152.136811 164.342148 150.476967 161.498287 149.664854 C 159.168495 149.117212 157.927424 150.200919 156.194558 150.548205 C 155.024762 152.19024 153.660742 152.862548 152.154172 152.821587 C 150.218173 152.324702 148.282174 152.700482 146.346174 153.200038 C 145.293981 153.481428 144.241788 154.139489 143.188704 155.094078 C 138.000796 152.891934 129.462977 153.560681 128.163104 153.452933 C 125.628397 153.868785 124.054117 154.765493 122.859374 155.851872 C 123.401062 158.239235 123.220203 159.182247 123.1124 160.271298 L 121.091762 164.817171 C 120.124207 167.15823 119.155762 168.785127 118.188208 170.119948 C 116.739549 171.839455 115.800505 172.537587 114.652091 173.656024 C 110.587651 174.724593 108.40219 174.539374 106.318295 174.28737 L 96.975071 174.539374 Z M 94.322761 173.656024 " transform="matrix(4.384444,0,0,4.386705,-319.263816,-613.141047)"/>
<path style="fill-rule:evenodd;fill:rgb(0%,34.901961%,25.490196%);fill-opacity:1;stroke-width:1.062992;stroke-linecap:butt;stroke-linejoin:miter;stroke:rgb(0%,0%,0%);stroke-opacity:1;stroke-miterlimit:4;" d="M 95.01769 173.719247 C 93.901349 173.44231 93.263441 172.256197 95.586105 170.562514 C 96.21065 169.439626 96.934088 168.36037 96.090374 166.584764 C 96.624934 165.772651 96.052955 165.236585 97.795621 164.122601 C 102.367894 161.303358 107.014115 158.782424 111.432256 155.346973 C 112.830131 155.02284 113.730865 153.333609 115.725667 154.652403 C 116.672729 154.820702 117.319547 155.289092 117.935183 155.788648 L 120.649858 155.535753 C 121.676214 155.434239 123.296823 155.487668 123.175656 156.86167 C 123.153383 158.672896 123.711107 160.046898 122.038824 163.111912 L 117.871926 170.751295 C 115.926127 174.320318 112.996736 174.554513 110.738218 174.539374 L 101.204335 174.476151 C 99.134695 174.462794 97.380446 174.871522 95.01769 173.719247 Z M 95.01769 173.719247 " transform="matrix(4.384444,0,0,4.386705,-319.263816,-613.141047)"/>
<path style="fill:none;stroke-width:1.062992;stroke-linecap:round;stroke-linejoin:miter;stroke:rgb(0%,0%,0%);stroke-opacity:1;stroke-miterlimit:4;" d="M 92.303014 182.115533 C 92.860739 183.51625 93.136928 184.632905 95.964752 188.302552 C 98.258907 191.060352 100.563753 193.85199 102.530044 195.626706 C 103.796952 197.309704 104.636212 199.040786 102.909582 201.055931 L 100.383784 205.223352 " transform="matrix(4.384444,0,0,4.386705,-319.263816,-613.141047)"/>
<path style="fill:none;stroke-width:1.062992;stroke-linecap:round;stroke-linejoin:miter;stroke:rgb(0%,0%,0%);stroke-opacity:1;stroke-miterlimit:4;" d="M 138.391025 165.953417 C 141.422873 168.143985 145.517606 172.200097 147.608628 177.444103 " transform="matrix(4.384444,0,0,4.386705,-319.263816,-613.141047)"/>
<path style="fill:none;stroke-width:1.062992;stroke-linecap:round;stroke-linejoin:miter;stroke:rgb(0%,0%,0%);stroke-opacity:1;stroke-miterlimit:4;" d="M 127.784457 153.704937 C 130.426076 154.678226 132.380785 156.436914 133.845481 158.75571 " transform="matrix(4.384444,0,0,4.386705,-319.263816,-613.141047)"/>
<path style="fill:none;stroke-width:1.062992;stroke-linecap:round;stroke-linejoin:miter;stroke:rgb(0%,0%,0%);stroke-opacity:1;stroke-miterlimit:4;" d="M 142.93657 154.967631 C 144.926026 155.371906 146.278463 156.731661 147.608628 158.124363 " transform="matrix(4.384444,0,0,4.386705,-319.263816,-613.141047)"/>
<path style="fill:none;stroke-width:1.062992;stroke-linecap:round;stroke-linejoin:miter;stroke:rgb(0%,0%,0%);stroke-opacity:1;stroke-miterlimit:4;" d="M 94.827921 215.829797 C 94.402945 216.449567 93.905804 216.851171 93.312442 216.966042 " transform="matrix(4.384444,0,0,4.386705,-319.263816,-613.141047)"/>
<path style="fill:none;stroke-width:1.062992;stroke-linecap:round;stroke-linejoin:miter;stroke:rgb(0%,0%,0%);stroke-opacity:1;stroke-miterlimit:4;" d="M 113.894797 220.880569 C 114.685947 221.141478 115.353256 221.526163 116.294082 221.638363 " transform="matrix(4.384444,0,0,4.386705,-319.263816,-613.141047)"/>
<path style="fill:none;stroke-width:0.708661;stroke-linecap:round;stroke-linejoin:miter;stroke:rgb(0%,0%,0%);stroke-opacity:1;stroke-miterlimit:4;" d="M 96.911815 165.574965 L 98.616172 165.448518 L 99.689747 166.395093 " transform="matrix(4.384444,0,0,4.386705,-319.263816,-613.141047)"/>
<path style="fill:none;stroke-width:0.708661;stroke-linecap:round;stroke-linejoin:miter;stroke:rgb(0%,0%,0%);stroke-opacity:1;stroke-miterlimit:4;" d="M 100.005138 163.554478 L 101.204335 164.501053 L 101.141969 166.331869 " transform="matrix(4.384444,0,0,4.386705,-319.263816,-613.141047)"/>
<path style="fill:none;stroke-width:0.708661;stroke-linecap:butt;stroke-linejoin:round;stroke:rgb(0%,0%,0%);stroke-opacity:1;stroke-miterlimit:4;" d="M 98.946708 166.799368 C 98.180505 167.982809 98.384529 167.805605 98.237525 168.162685 C 98.054883 169.368388 98.057556 170.139539 98.047756 170.940966 L 97.227206 172.330107 C 97.166622 173.167153 97.210278 173.550948 97.405392 174.119961 " transform="matrix(4.384444,0,0,4.386705,-319.263816,-613.141047)"/>
<path style="fill:none;stroke-width:0.708661;stroke-linecap:round;stroke-linejoin:miter;stroke:rgb(0%,0%,0%);stroke-opacity:1;stroke-miterlimit:4;" d="M 101.267591 162.54379 L 102.78307 163.869706 L 102.78307 165.574965 " transform="matrix(4.384444,0,0,4.386705,-319.263816,-613.141047)"/>
<path style="fill:none;stroke-width:0.708661;stroke-linecap:butt;stroke-linejoin:round;stroke:rgb(0%,0%,0%);stroke-opacity:1;stroke-miterlimit:4;" d="M 99.739639 167.401329 C 98.972545 168.58566 99.51156 169.054941 99.498196 169.591006 C 99.315555 170.795819 99.319118 170.451205 99.309318 171.252632 C 98.602808 171.81185 98.717738 172.188521 98.487877 172.641773 C 98.428185 173.478819 98.783667 173.795828 98.978782 174.364841 " transform="matrix(4.384444,0,0,4.386705,-319.263816,-613.141047)"/>
<path style="fill:none;stroke-width:0.708661;stroke-linecap:butt;stroke-linejoin:round;stroke:rgb(0%,0%,0%);stroke-opacity:1;stroke-miterlimit:4;" d="M 100.632355 167.624838 C 99.865261 168.808279 100.739267 169.501068 100.814997 169.903563 C 101.257791 170.863495 101.17137 170.852809 101.16157 171.655127 C 100.832815 172.021112 100.594045 172.387097 100.318746 172.753082 C 100.258163 173.590128 100.301819 173.973923 100.496933 174.543827 " transform="matrix(4.384444,0,0,4.386705,-319.263816,-613.141047)"/>
<path style="fill:none;stroke-width:0.708661;stroke-linecap:butt;stroke-linejoin:round;stroke:rgb(0%,0%,0%);stroke-opacity:1;stroke-miterlimit:4;" d="M 101.971429 167.713886 C 101.69613 168.942741 102.59241 169.478807 102.444515 169.836777 C 102.871272 171.22948 102.5737 171.169818 102.367003 171.677389 L 102.237818 172.909806 C 102.178125 173.746852 102.466788 173.840352 102.661903 174.409365 " transform="matrix(4.384444,0,0,4.386705,-319.263816,-613.141047)"/>
<path style="fill:none;stroke-width:0.708661;stroke-linecap:butt;stroke-linejoin:round;stroke:rgb(0%,0%,0%);stroke-opacity:1;stroke-miterlimit:4;" d="M 102.998676 167.580315 C 102.990657 168.674708 104.489208 169.813625 104.342204 170.171596 C 104.084724 171.227699 103.81388 171.36127 103.907428 172.369288 L 104.157781 173.468133 C 104.409915 173.947209 104.564937 173.929399 104.760052 174.499303 " transform="matrix(4.384444,0,0,4.386705,-319.263816,-613.141047)"/>
<path style="fill:none;stroke-width:0.708661;stroke-linecap:butt;stroke-linejoin:round;stroke:rgb(0%,0%,0%);stroke-opacity:1;stroke-miterlimit:4;" d="M 104.828654 167.044249 C 104.999713 167.916023 105.203737 168.072747 105.279466 168.430718 C 105.676823 169.211664 106.394916 169.580321 106.385115 170.382638 L 105.720479 172.240169 C 105.659895 173.077215 106.261276 173.683628 106.45639 174.253532 " transform="matrix(4.384444,0,0,4.386705,-319.263816,-613.141047)"/>
<path style="fill:none;stroke-width:0.708661;stroke-linecap:butt;stroke-linejoin:round;stroke:rgb(0%,0%,0%);stroke-opacity:1;stroke-miterlimit:4;" d="M 106.658632 166.509073 C 106.42788 167.803824 107.994142 169.210774 108.047598 170.059396 C 107.864957 171.265099 108.180347 171.812741 108.170547 172.614168 C 108.260531 172.928506 108.442282 173.303396 108.711344 173.735276 C 108.65076 174.572322 108.91804 174.086123 108.934077 174.677398 " transform="matrix(4.384444,0,0,4.386705,-319.263816,-613.141047)"/>
<path style="fill:none;stroke-width:0.708661;stroke-linecap:round;stroke-linejoin:miter;stroke:rgb(0%,0%,0%);stroke-opacity:1;stroke-miterlimit:4;" d="M 103.035204 161.597215 L 105.434489 164.943619 " transform="matrix(4.384444,0,0,4.386705,-319.263816,-613.141047)"/>
<path style="fill:none;stroke-width:0.708661;stroke-linecap:butt;stroke-linejoin:round;stroke:rgb(0%,0%,0%);stroke-opacity:1;stroke-miterlimit:4;" d="M 108.02087 165.817175 C 108.214203 166.241931 108.998225 168.206318 109.319852 168.854584 C 109.918559 169.881301 110.36759 170.607038 110.35779 171.409356 C 110.407682 171.967683 110.496775 172.513544 110.898587 172.954329 C 111.535604 173.512657 111.682608 173.685409 111.769029 174.298056 " transform="matrix(4.384444,0,0,4.386705,-319.263816,-613.141047)"/>
<path style="fill:none;stroke-width:0.708661;stroke-linecap:round;stroke-linejoin:miter;stroke:rgb(0%,0%,0%);stroke-opacity:1;stroke-miterlimit:4;" d="M 104.677195 160.712973 L 107.58164 164.6275 " transform="matrix(4.384444,0,0,4.386705,-319.263816,-613.141047)"/>
<path style="fill:none;stroke-width:0.708661;stroke-linecap:butt;stroke-linejoin:round;stroke:rgb(0%,0%,0%);stroke-opacity:1;stroke-miterlimit:4;" d="M 109.17552 164.920467 C 109.545258 166.103907 110.50123 167.162682 110.54934 167.546476 C 110.74 169.054941 112.014036 170.134196 112.506722 170.766433 L 113.390529 171.902679 C 113.905489 172.565192 113.56337 173.565195 113.757594 174.135099 " transform="matrix(4.384444,0,0,4.386705,-319.263816,-613.141047)"/>
<path style="fill:none;stroke-width:0.708661;stroke-linecap:round;stroke-linejoin:miter;stroke:rgb(0%,0%,0%);stroke-opacity:1;stroke-miterlimit:4;" d="M 106.066161 159.766399 C 106.002905 160.018403 108.844093 163.491255 108.844093 163.491255 " transform="matrix(4.384444,0,0,4.386705,-319.263816,-613.141047)"/>
<path style="fill:none;stroke-width:0.708661;stroke-linecap:butt;stroke-linejoin:round;stroke:rgb(0%,0%,0%);stroke-opacity:1;stroke-miterlimit:4;" d="M 110.91106 163.993482 C 111.280797 165.176923 112.235878 166.235698 112.283989 166.619492 C 112.474649 168.127956 113.232833 168.64087 113.799467 169.208102 L 115.25169 170.660467 C 115.845052 171.253523 116.181825 171.943641 116.376939 172.513544 " transform="matrix(4.384444,0,0,4.386705,-319.263816,-613.141047)"/>
<path style="fill:none;stroke-width:0.708661;stroke-linecap:round;stroke-linejoin:miter;stroke:rgb(0%,0%,0%);stroke-opacity:1;stroke-miterlimit:4;" d="M 107.58164 158.440482 L 108.40219 160.018403 L 110.04329 161.597215 " transform="matrix(4.384444,0,0,4.386705,-319.263816,-613.141047)"/>
<path style="fill:none;stroke-width:0.708661;stroke-linecap:butt;stroke-linejoin:round;stroke:rgb(0%,0%,0%);stroke-opacity:1;stroke-miterlimit:4;" d="M 111.73161 163.109241 C 112.235878 163.620373 113.704137 165.336318 114.241371 166.303374 C 114.979955 167.632853 115.583117 167.874171 116.198752 168.387085 L 117.334693 169.33455 C 117.979729 169.871506 117.192144 170.744171 117.386367 171.314075 " transform="matrix(4.384444,0,0,4.386705,-319.263816,-613.141047)"/>
<path style="fill:none;stroke-width:0.708661;stroke-linecap:round;stroke-linejoin:miter;stroke:rgb(0%,0%,0%);stroke-opacity:1;stroke-miterlimit:4;" d="M 109.285996 157.429793 L 109.664643 159.2615 L 111.558769 160.712973 " transform="matrix(4.384444,0,0,4.386705,-319.263816,-613.141047)"/>
<path style="fill:none;stroke-width:0.708661;stroke-linecap:butt;stroke-linejoin:round;stroke:rgb(0%,0%,0%);stroke-opacity:1;stroke-miterlimit:4;" d="M 112.741929 162.22589 C 113.742448 162.967655 114.256517 163.457417 114.936299 164.409334 C 115.819215 165.647094 115.284654 166.08966 116.07224 166.241041 L 117.714231 166.556269 C 118.538345 166.714773 118.644366 168.786908 118.83859 169.356812 " transform="matrix(4.384444,0,0,4.386705,-319.263816,-613.141047)"/>
<path style="fill:none;stroke-width:0.708661;stroke-linecap:round;stroke-linejoin:miter;stroke:rgb(0%,0%,0%);stroke-opacity:1;stroke-miterlimit:4;" d="M 110.54845 156.609666 L 111.937416 158.503706 L 113.263125 159.703175 " transform="matrix(4.384444,0,0,4.386705,-319.263816,-613.141047)"/>
<path style="fill:none;stroke-width:0.708661;stroke-linecap:butt;stroke-linejoin:round;stroke:rgb(0%,0%,0%);stroke-opacity:1;stroke-miterlimit:4;" d="M 114.130895 161.215201 C 114.500632 162.398642 115.203579 161.816272 115.630337 162.704965 C 116.288737 164.075406 115.783577 164.106573 116.577399 164.220553 L 118.345012 164.472558 C 119.176254 164.591881 119.906819 166.57764 120.101934 167.146653 " transform="matrix(4.384444,0,0,4.386705,-319.263816,-613.141047)"/>
<path style="fill:none;stroke-width:0.708661;stroke-linecap:round;stroke-linejoin:miter;stroke:rgb(0%,0%,0%);stroke-opacity:1;stroke-miterlimit:4;" d="M 113.326381 155.220525 L 112.757966 157.177789 L 114.02131 158.566929 " transform="matrix(4.384444,0,0,4.386705,-319.263816,-613.141047)"/>
<path style="fill:none;stroke-width:0.708661;stroke-linecap:butt;stroke-linejoin:round;stroke:rgb(0%,0%,0%);stroke-opacity:1;stroke-miterlimit:4;" d="M 115.266836 159.762837 C 115.636573 160.947168 116.95961 161.067382 117.145815 161.758391 C 117.422896 162.78778 118.802952 162.318499 119.418588 162.831413 L 120.175881 163.462759 C 120.820918 163.999716 120.538492 165.440504 120.732715 166.010408 " transform="matrix(4.384444,0,0,4.386705,-319.263816,-613.141047)"/>
<path style="fill:none;stroke-width:0.708661;stroke-linecap:round;stroke-linejoin:miter;stroke:rgb(0%,0%,0%);stroke-opacity:1;stroke-miterlimit:4;" d="M 115.220507 154.715626 L 114.652091 156.230324 " transform="matrix(4.384444,0,0,4.386705,-319.263816,-613.141047)"/>
<path style="fill:none;stroke-width:0.708661;stroke-linecap:butt;stroke-linejoin:round;stroke:rgb(0%,0%,0%);stroke-opacity:1;stroke-miterlimit:4;" d="M 115.645482 159.069157 C 116.457123 159.558028 117.16007 159.227662 117.587718 159.989908 C 118.330757 161.316715 118.889373 160.960525 119.355331 160.937373 L 120.617785 160.874149 C 121.456153 160.832297 121.864201 162.284661 122.058425 162.853675 " transform="matrix(4.384444,0,0,4.386705,-319.263816,-613.141047)"/>
<path style="fill:none;stroke-width:0.708661;stroke-linecap:round;stroke-linejoin:miter;stroke:rgb(0%,0%,0%);stroke-opacity:1;stroke-miterlimit:4;" d="M 111.495512 155.346973 L 112.063928 156.988118 " transform="matrix(4.384444,0,0,4.386705,-319.263816,-613.141047)"/>
<path style="fill:none;stroke-width:0.708661;stroke-linecap:butt;stroke-linejoin:round;stroke:rgb(0%,0%,0%);stroke-opacity:1;stroke-miterlimit:4;" d="M 115.66241 157.210736 C 116.474051 157.699607 117.177889 157.369241 117.604646 158.132378 C 118.347685 159.458295 118.974012 158.829619 119.435515 158.763724 L 120.761225 158.574053 C 121.592466 158.45562 122.449545 160.299793 122.643768 160.868807 " transform="matrix(4.384444,0,0,4.386705,-319.263816,-613.141047)"/>
<path style="fill:none;stroke-width:0.708661;stroke-linecap:butt;stroke-linejoin:round;stroke:rgb(0%,0%,0%);stroke-opacity:1;stroke-miterlimit:4;" d="M 114.778604 156.389719 C 115.590245 156.878589 116.35823 155.450268 116.847352 156.175114 C 117.400622 156.996132 118.722768 157.448493 119.183381 157.374584 L 121.139872 157.058465 C 121.96844 156.924894 122.891448 158.152859 123.085672 158.722762 " transform="matrix(4.384444,0,0,4.386705,-319.263816,-613.141047)"/>
<path style="fill:none;stroke-width:0.708661;stroke-linecap:butt;stroke-linejoin:round;stroke:rgb(0%,0%,0%);stroke-opacity:1;stroke-miterlimit:4;" d="M 98.857615 166.412012 C 98.055774 166.078084 96.674827 165.833203 97.182659 168.215223 C 97.49894 169.702316 96.355872 170.183172 96.110865 170.579433 L 95.381191 171.756641 C 94.938396 172.469021 95.059563 173.041596 95.192313 173.629309 " transform="matrix(4.384444,0,0,4.386705,-319.263816,-613.141047)"/>
<path style="fill:none;stroke-width:1.062992;stroke-linecap:round;stroke-linejoin:miter;stroke:rgb(0%,0%,0%);stroke-opacity:1;stroke-miterlimit:4;" d="M 101.42885 164.6836 L 99.642527 165.754841 C 98.944035 166.572297 98.90127 167.21522 100.714321 167.362148 C 102.453424 167.382629 106.956204 167.568738 115.26149 159.69427 C 116.448214 158.034426 115.476205 156.777966 113.749575 156.647956 C 112.454157 156.885713 111.898214 157.12436 111.249615 157.362117 " transform="matrix(4.384444,0,0,4.386705,-319.263816,-613.141047)"/>
<path style="fill-rule:evenodd;fill:rgb(0%,34.901961%,25.490196%);fill-opacity:1;stroke-width:0.999213;stroke-linecap:butt;stroke-linejoin:miter;stroke:rgb(0%,0%,0%);stroke-opacity:1;stroke-miterlimit:4;" d="M 80.054454 223.974078 L 78.47661 229.466527 C 78.022234 231.252819 77.714862 232.989245 79.739064 233.949176 L 86.936028 235.527988 C 91.738162 235.601007 90.869501 234.148643 91.608085 233.128159 C 92.245994 230.428239 92.563167 228.048891 92.870539 225.678447 C 91.376443 224.035521 90.073006 222.966952 89.083179 222.837833 C 84.387957 222.092505 82.958899 223.525279 80.054454 223.974078 Z M 80.054454 223.974078 " transform="matrix(4.384444,0,0,4.386705,-319.263816,-613.141047)"/>
<path style="fill:none;stroke-width:1;stroke-linecap:round;stroke-linejoin:miter;stroke:rgb(0%,0%,0%);stroke-opacity:1;stroke-miterlimit:4;" d="M 80.180967 231.739909 C 80.477648 231.283985 80.077619 230.596539 81.758811 230.602772 C 83.72332 231.564485 85.959564 230.624144 88.07286 230.540439 C 89.664068 230.84231 89.990149 232.348103 88.38825 233.002602 " transform="matrix(4.384444,0,0,4.386705,-319.263816,-613.141047)"/>
<path style="fill:none;stroke-width:0.708661;stroke-linecap:round;stroke-linejoin:miter;stroke:rgb(0%,0%,0%);stroke-opacity:1;stroke-miterlimit:4;" d="M 82.390483 223.65796 C 82.103602 224.200259 81.728519 224.564463 81.758811 225.741671 C 81.716937 226.499465 81.927197 227.509263 81.633189 228.014162 C 81.177031 228.453166 80.15513 228.749694 80.30748 229.340079 L 80.496358 230.539549 " transform="matrix(4.384444,0,0,4.386705,-319.263816,-613.141047)"/>
<path style="fill:none;stroke-width:0.708661;stroke-linecap:round;stroke-linejoin:miter;stroke:rgb(0%,0%,0%);stroke-opacity:1;stroke-miterlimit:4;" d="M 83.627099 223.468289 C 83.340219 224.010588 83.248452 224.311568 83.279635 225.488776 C 83.237761 226.24657 83.573643 227.193145 83.279635 227.698934 C 82.917916 228.547557 82.338809 228.907308 82.490268 229.497693 L 82.490268 230.318711 " transform="matrix(4.384444,0,0,4.386705,-319.263816,-613.141047)"/>
<path style="fill:none;stroke-width:0.708661;stroke-linecap:round;stroke-linejoin:miter;stroke:rgb(0%,0%,0%);stroke-opacity:1;stroke-miterlimit:4;" d="M 85.425895 223.279508 C 85.139014 223.820917 85.205834 224.405959 85.237017 225.584057 C 85.194252 226.34096 85.404513 227.351649 85.110504 227.856548 C 84.654346 228.294662 84.200861 229.033756 84.353211 229.624141 L 84.289954 230.72922 " transform="matrix(4.384444,0,0,4.386705,-319.263816,-613.141047)"/>
<path style="fill:none;stroke-width:0.708661;stroke-linecap:round;stroke-linejoin:miter;stroke:rgb(0%,0%,0%);stroke-opacity:1;stroke-miterlimit:4;" d="M 86.941374 223.05867 C 86.654493 223.600079 86.625983 224.626796 86.657166 225.804895 C 86.615292 226.561798 87.01443 227.54043 86.720422 228.046219 C 86.264264 228.484333 86.126169 228.749694 86.278519 229.340079 L 86.468288 230.539549 " transform="matrix(4.384444,0,0,4.386705,-319.263816,-613.141047)"/>
<path style="fill:none;stroke-width:0.708661;stroke-linecap:round;stroke-linejoin:miter;stroke:rgb(0%,0%,0%);stroke-opacity:1;stroke-miterlimit:4;" d="M 80.88035 224.005245 C 80.593469 224.546654 80.218386 224.911748 80.248678 226.088956 C 80.206804 226.84675 79.911905 227.603653 79.617897 228.109443 C 79.161739 228.547557 78.77151 229.665102 78.922968 230.255487 C 79.014735 230.774634 79.491384 230.908205 79.996544 231.013281 " transform="matrix(4.384444,0,0,4.386705,-319.263816,-613.141047)"/>
<path style="fill:none;stroke-width:0.708661;stroke-linecap:round;stroke-linejoin:miter;stroke:rgb(0%,0%,0%);stroke-opacity:1;stroke-miterlimit:4;" d="M 88.582474 223.153061 C 88.296484 223.694469 88.456852 224.185121 88.488035 225.362329 C 88.446161 226.120123 88.656421 226.498574 88.361522 227.004364 C 87.906255 227.442478 87.67283 228.149514 87.82518 228.74079 L 88.014949 230.571606 " transform="matrix(4.384444,0,0,4.386705,-319.263816,-613.141047)"/>
<path style="fill:none;stroke-width:0.708661;stroke-linecap:round;stroke-linejoin:miter;stroke:rgb(0%,0%,0%);stroke-opacity:1;stroke-miterlimit:4;" d="M 90.097952 223.594736 C 90.064097 224.325816 90.193282 225.100529 89.877001 226.088956 C 89.835127 226.84675 90.1719 227.035531 89.877001 227.54043 C 89.420843 227.979434 89.883237 228.876142 89.688123 229.434469 L 89.024377 230.665996 " transform="matrix(4.384444,0,0,4.386705,-319.263816,-613.141047)"/>
<path style="fill:none;stroke-width:0.708661;stroke-linecap:round;stroke-linejoin:miter;stroke:rgb(0%,0%,0%);stroke-opacity:1;stroke-miterlimit:4;" d="M 92.023261 225.141491 C 91.737271 225.68379 91.29804 225.98477 91.329223 227.161978 C 91.287349 227.919772 91.055706 228.14061 91.013832 228.866347 C 91.03076 229.620579 90.893556 230.517287 90.666368 231.044448 L 89.624867 231.802242 " transform="matrix(4.384444,0,0,4.386705,-319.263816,-613.141047)"/>
<path style="fill:none;stroke-width:0.708661;stroke-linecap:round;stroke-linejoin:miter;stroke:rgb(0%,0%,0%);stroke-opacity:1;stroke-miterlimit:4;" d="M 92.466055 226.499465 C 92.179174 227.040873 92.056225 227.909977 92.086517 229.088075 C 92.044643 229.844978 91.844183 230.950057 91.865565 231.928689 C 91.599176 232.627712 91.208947 233.033768 90.666368 233.033768 L 88.898755 233.128159 " transform="matrix(4.384444,0,0,4.386705,-319.263816,-613.141047)"/>
<path style="fill:none;stroke-width:0.708661;stroke-linecap:butt;stroke-linejoin:miter;stroke:rgb(0%,0%,0%);stroke-opacity:1;stroke-miterlimit:4;" d="M 78.286842 231.739909 C 80.036636 232.107675 81.871069 232.607231 81.822067 234.202071 " transform="matrix(4.384444,0,0,4.386705,-319.263816,-613.141047)"/>
<path style="fill:none;stroke-width:0.708661;stroke-linecap:butt;stroke-linejoin:miter;stroke:rgb(0%,0%,0%);stroke-opacity:1;stroke-miterlimit:4;" d="M 80.369845 232.212751 L 80.275406 233.885953 " transform="matrix(4.384444,0,0,4.386705,-319.263816,-613.141047)"/>
<path style="fill:none;stroke-width:0.708661;stroke-linecap:butt;stroke-linejoin:miter;stroke:rgb(0%,0%,0%);stroke-opacity:1;stroke-miterlimit:4;" d="M 83.069375 233.01774 L 82.974936 234.690942 " transform="matrix(4.384444,0,0,4.386705,-319.263816,-613.141047)"/>
<path style="fill:none;stroke-width:0.708661;stroke-linecap:butt;stroke-linejoin:miter;stroke:rgb(0%,0%,0%);stroke-opacity:1;stroke-miterlimit:4;" d="M 84.331828 232.986573 L 84.237389 234.659775 " transform="matrix(4.384444,0,0,4.386705,-319.263816,-613.141047)"/>
<path style="fill:none;stroke-width:0.708661;stroke-linecap:butt;stroke-linejoin:miter;stroke:rgb(0%,0%,0%);stroke-opacity:1;stroke-miterlimit:4;" d="M 85.941746 233.428249 L 85.847307 235.101451 " transform="matrix(4.384444,0,0,4.386705,-319.263816,-613.141047)"/>
<path style="fill:none;stroke-width:0.708661;stroke-linecap:butt;stroke-linejoin:miter;stroke:rgb(0%,0%,0%);stroke-opacity:1;stroke-miterlimit:4;" d="M 87.204199 233.491472 L 87.10976 235.164674 " transform="matrix(4.384444,0,0,4.386705,-319.263816,-613.141047)"/>
<path style="fill:none;stroke-width:0.708661;stroke-linecap:butt;stroke-linejoin:miter;stroke:rgb(0%,0%,0%);stroke-opacity:1;stroke-miterlimit:4;" d="M 88.43547 233.176244 C 88.223427 234.123709 89.43777 234.646418 90.550547 234.848556 " transform="matrix(4.384444,0,0,4.386705,-319.263816,-613.141047)"/>
<path style="fill-rule:evenodd;fill:rgb(0%,34.901961%,25.490196%);fill-opacity:1;stroke-width:1.062992;stroke-linecap:butt;stroke-linejoin:bevel;stroke:rgb(0%,0%,0%);stroke-opacity:1;stroke-miterlimit:4;" d="M 162.571863 149.980082 L 167.117408 145.497432 C 167.547729 143.964925 170.348825 143.279259 171.347562 144.42441 C 173.679136 146.561549 175.80134 148.818012 176.965791 151.622117 C 179.035431 154.587398 176.762658 154.730764 175.703338 155.662201 L 170.779146 160.144851 C 171.234413 154.183122 164.14347 150.44669 162.571863 149.980082 Z M 162.571863 149.980082 " transform="matrix(4.384444,0,0,4.386705,-319.263816,-613.141047)"/>
<path style="fill:none;stroke-width:0.999213;stroke-linecap:butt;stroke-linejoin:miter;stroke:rgb(0%,0%,0%);stroke-opacity:1;stroke-miterlimit:4;" d="M 170.71589 144.171515 L 168.88502 146.065555 L 167.937958 148.654165 C 165.903065 150.5393 165.537782 150.086939 164.339476 150.801099 " transform="matrix(4.384444,0,0,4.386705,-319.263816,-613.141047)"/>
<path style="fill:none;stroke-width:0.999213;stroke-linecap:butt;stroke-linejoin:miter;stroke:rgb(0%,0%,0%);stroke-opacity:1;stroke-miterlimit:4;" d="M 172.210877 145.614975 C 171.621969 145.664841 171.032171 146.091379 170.443264 146.814444 L 168.864529 149.33983 C 166.829636 151.224965 167.537928 151.466284 166.339622 152.180445 " transform="matrix(4.384444,0,0,4.386705,-319.263816,-613.141047)"/>
<path style="fill:none;stroke-width:0.999213;stroke-linecap:butt;stroke-linejoin:miter;stroke:rgb(0%,0%,0%);stroke-opacity:1;stroke-miterlimit:4;" d="M 173.851977 147.003225 C 173.124084 147.285505 172.672381 147.152824 171.642461 147.887466 L 170.126982 150.349629 C 168.092089 152.234764 168.295222 151.907959 167.096916 152.62212 " transform="matrix(4.384444,0,0,4.386705,-319.263816,-613.141047)"/>
<path style="fill:none;stroke-width:0.999213;stroke-linecap:butt;stroke-linejoin:miter;stroke:rgb(0%,0%,0%);stroke-opacity:1;stroke-miterlimit:4;" d="M 174.862296 148.265918 L 173.284452 149.655058 L 171.200558 151.485874 C 169.165665 153.371009 169.368798 152.981872 168.170491 153.696033 " transform="matrix(4.384444,0,0,4.386705,-319.263816,-613.141047)"/>
<path style="fill:none;stroke-width:0.999213;stroke-linecap:butt;stroke-linejoin:miter;stroke:rgb(0%,0%,0%);stroke-opacity:1;stroke-miterlimit:4;" d="M 175.935872 149.465387 L 174.483649 151.044199 L 171.642461 152.875015 C 169.607568 154.76015 170.757764 154.623017 169.559457 155.337178 " transform="matrix(4.384444,0,0,4.386705,-319.263816,-613.141047)"/>
<path style="fill:none;stroke-width:0.999213;stroke-linecap:butt;stroke-linejoin:miter;stroke:rgb(0%,0%,0%);stroke-opacity:1;stroke-miterlimit:4;" d="M 176.819678 151.549098 L 175.557225 152.43334 L 173.599843 153.82248 C 170.919023 155.558015 171.341325 156.208062 170.190239 156.536647 " transform="matrix(4.384444,0,0,4.386705,-319.263816,-613.141047)"/>
<path style="fill:none;stroke-width:0.999213;stroke-linecap:butt;stroke-linejoin:miter;stroke:rgb(0%,0%,0%);stroke-opacity:1;stroke-miterlimit:4;" d="M 177.45135 152.938239 C 177.192088 153.794875 176.434795 154.152846 175.682846 154.51616 L 173.47333 155.842077 C 171.438437 157.727212 171.704826 157.590079 170.50652 158.304239 " transform="matrix(4.384444,0,0,4.386705,-319.263816,-613.141047)"/>
<path style="fill-rule:evenodd;fill:rgb(0%,34.901961%,25.490196%);fill-opacity:1;stroke-width:1;stroke-linecap:butt;stroke-linejoin:miter;stroke:rgb(0%,0%,0%);stroke-opacity:1;stroke-miterlimit:4;" d="M 121.470408 229.656198 L 123.93295 235.085422 C 125.010089 237.423809 126.59506 237.225233 128.163104 237.105909 C 133.259246 235.518193 138.578121 232.479893 144.010146 228.708733 C 148.02113 226.104984 151.880656 223.439794 155.058617 220.501227 C 158.539496 218.435326 161.361084 215.599164 163.834316 212.356945 C 165.620639 210.254534 165.372959 208.315081 162.95051 206.549269 C 161.819024 205.568857 161.356629 205.362266 159.919553 202.697966 C 159.242443 201.76831 157.772402 202.406781 156.762974 203.139641 C 153.732907 205.734485 150.70195 208.97136 147.671884 213.746086 C 145.347437 214.408599 142.759274 215.333802 140.285151 216.145025 L 134.8558 221.322245 L 133.087296 221.638363 C 129.292808 223.525279 124.242995 224.67043 123.238912 225.236772 C 122.128809 226.54666 120.986631 228.027519 121.470408 229.656198 Z M 121.470408 229.656198 " transform="matrix(4.384444,0,0,4.386705,-319.263816,-613.141047)"/>
<path style="fill-rule:evenodd;fill:rgb(0%,34.901961%,25.490196%);fill-opacity:1;stroke-width:0.708661;stroke-linecap:butt;stroke-linejoin:miter;stroke:rgb(0%,0%,0%);stroke-opacity:1;stroke-miterlimit:4;" d="M 121.78669 228.708733 C 123.316423 230.589415 125.169566 232.109456 125.258659 235.590321 C 126.540713 237.308047 126.872141 236.747048 127.026272 236.853014 " transform="matrix(4.384444,0,0,4.386705,-319.263816,-613.141047)"/>
<path style="fill-rule:evenodd;fill:rgb(0%,34.901961%,25.490196%);fill-opacity:1;stroke-width:0.708661;stroke-linecap:butt;stroke-linejoin:miter;stroke:rgb(0%,0%,0%);stroke-opacity:1;stroke-miterlimit:4;" d="M 122.86472 227.220749 C 124.395344 229.100541 126.248487 230.621472 126.33758 234.102338 C 127.353245 236.75061 128.294071 236.456753 128.48384 236.438053 " transform="matrix(4.384444,0,0,4.386705,-319.263816,-613.141047)"/>
<path style="fill-rule:evenodd;fill:rgb(0%,34.901961%,25.490196%);fill-opacity:1;stroke-width:0.708661;stroke-linecap:butt;stroke-linejoin:miter;stroke:rgb(0%,0%,0%);stroke-opacity:1;stroke-miterlimit:4;" d="M 123.686161 225.831609 C 125.215895 227.711401 126.775029 229.787988 127.66329 233.154873 C 128.209433 235.227008 130.034065 236.331196 130.189088 236.438053 " transform="matrix(4.384444,0,0,4.386705,-319.263816,-613.141047)"/>
<path style="fill-rule:evenodd;fill:rgb(0%,34.901961%,25.490196%);fill-opacity:1;stroke-width:0.708661;stroke-linecap:butt;stroke-linejoin:miter;stroke:rgb(0%,0%,0%);stroke-opacity:1;stroke-miterlimit:4;" d="M 125.4217 224.792425 C 126.952325 226.672217 128.511459 228.748804 129.39972 232.115689 C 129.945863 234.187824 131.643983 235.481683 131.799005 235.58854 " transform="matrix(4.384444,0,0,4.386705,-319.263816,-613.141047)"/>
<path style="fill-rule:evenodd;fill:rgb(0%,34.901961%,25.490196%);fill-opacity:1;stroke-width:0.708661;stroke-linecap:butt;stroke-linejoin:miter;stroke:rgb(0%,0%,0%);stroke-opacity:1;stroke-miterlimit:4;" d="M 127.315826 224.476306 C 128.84645 226.356989 130.405585 228.433576 131.293846 231.800461 C 131.839988 233.871705 134.106524 234.345438 134.260656 234.452295 " transform="matrix(4.384444,0,0,4.386705,-319.263816,-613.141047)"/>
<path style="fill-rule:evenodd;fill:rgb(0%,34.901961%,25.490196%);fill-opacity:1;stroke-width:0.708661;stroke-linecap:butt;stroke-linejoin:miter;stroke:rgb(0%,0%,0%);stroke-opacity:1;stroke-miterlimit:4;" d="M 129.209951 223.403284 C 130.683556 225.315133 130.51517 228.576052 133.187971 230.726548 C 135.243356 232.381941 135.139117 233.966095 135.01884 234.072952 " transform="matrix(4.384444,0,0,4.386705,-319.263816,-613.141047)"/>
<path style="fill-rule:evenodd;fill:rgb(0%,34.901961%,25.490196%);fill-opacity:1;stroke-width:0.708661;stroke-linecap:butt;stroke-linejoin:miter;stroke:rgb(0%,0%,0%);stroke-opacity:1;stroke-miterlimit:4;" d="M 130.410039 223.276837 C 131.939773 225.156629 132.993748 228.307128 134.135034 229.148627 C 135.858991 230.420225 136.8212 232.703402 136.975331 232.810259 " transform="matrix(4.384444,0,0,4.386705,-319.263816,-613.141047)"/>
<path style="fill-rule:evenodd;fill:rgb(0%,34.901961%,25.490196%);fill-opacity:1;stroke-width:0.708661;stroke-linecap:butt;stroke-linejoin:miter;stroke:rgb(0%,0%,0%);stroke-opacity:1;stroke-miterlimit:4;" d="M 131.987883 222.45671 C 133.517617 224.336502 135.014386 228.433576 136.470172 229.71675 C 138.078308 231.133495 137.957141 232.198503 138.048907 232.747035 " transform="matrix(4.384444,0,0,4.386705,-319.263816,-613.141047)"/>
<path style="fill-rule:evenodd;fill:rgb(0%,34.901961%,25.490196%);fill-opacity:1;stroke-width:0.708661;stroke-linecap:butt;stroke-linejoin:miter;stroke:rgb(0%,0%,0%);stroke-opacity:1;stroke-miterlimit:4;" d="M 133.313593 222.014144 C 134.844217 223.893936 134.613466 225.585838 137.228357 227.885934 C 138.718889 229.196713 139.32116 229.774631 139.501129 231.357895 " transform="matrix(4.384444,0,0,4.386705,-319.263816,-613.141047)"/>
<path style="fill-rule:evenodd;fill:rgb(0%,34.901961%,25.490196%);fill-opacity:1;stroke-width:0.708661;stroke-linecap:butt;stroke-linejoin:miter;stroke:rgb(0%,0%,0%);stroke-opacity:1;stroke-miterlimit:4;" d="M 135.01884 221.130793 C 135.720005 222.299986 136.615394 224.836058 138.995969 226.938469 C 140.601432 228.356995 140.419682 230.683805 140.574704 230.789772 " transform="matrix(4.384444,0,0,4.386705,-319.263816,-613.141047)"/>
<path style="fill-rule:evenodd;fill:rgb(0%,34.901961%,25.490196%);fill-opacity:1;stroke-width:0.708661;stroke-linecap:butt;stroke-linejoin:miter;stroke:rgb(0%,0%,0%);stroke-opacity:1;stroke-miterlimit:4;" d="M 136.34455 219.931323 C 137.874284 221.811115 137.945558 224.324926 140.763582 226.370346 C 141.878141 227.179787 142.313807 229.294665 142.467939 229.401522 " transform="matrix(4.384444,0,0,4.386705,-319.263816,-613.141047)"/>
<path style="fill-rule:evenodd;fill:rgb(0%,34.901961%,25.490196%);fill-opacity:1;stroke-width:0.708661;stroke-linecap:butt;stroke-linejoin:miter;stroke:rgb(0%,0%,0%);stroke-opacity:1;stroke-miterlimit:4;" d="M 138.048907 218.730963 C 138.694834 220.800427 139.24454 222.169086 142.467939 225.107653 C 144.052019 226.551112 143.892542 228.031972 144.10993 228.517281 " transform="matrix(4.384444,0,0,4.386705,-319.263816,-613.141047)"/>
<path style="fill-rule:evenodd;fill:rgb(0%,34.901961%,25.490196%);fill-opacity:1;stroke-width:0.708661;stroke-linecap:butt;stroke-linejoin:miter;stroke:rgb(0%,0%,0%);stroke-opacity:1;stroke-miterlimit:4;" d="M 138.932713 217.847612 C 140.462447 219.727405 140.960479 221.249226 143.415002 223.719403 C 145.097976 225.412195 145.849033 226.769279 146.004056 226.876136 " transform="matrix(4.384444,0,0,4.386705,-319.263816,-613.141047)"/>
<path style="fill-rule:evenodd;fill:rgb(0%,34.901961%,25.490196%);fill-opacity:1;stroke-width:0.708661;stroke-linecap:butt;stroke-linejoin:miter;stroke:rgb(0%,0%,0%);stroke-opacity:1;stroke-miterlimit:4;" d="M 140.700326 216.521696 C 142.230951 218.401488 142.779766 220.646374 145.43564 222.898385 C 146.613454 223.896607 148.05944 225.569809 148.213572 225.675776 " transform="matrix(4.384444,0,0,4.386705,-319.263816,-613.141047)"/>
<path style="fill-rule:evenodd;fill:rgb(0%,34.901961%,25.490196%);fill-opacity:1;stroke-width:0.708661;stroke-linecap:butt;stroke-linejoin:miter;stroke:rgb(0%,0%,0%);stroke-opacity:1;stroke-miterlimit:4;" d="M 142.152548 215.637454 C 143.682282 217.518137 143.710792 219.184215 146.509215 221.25635 C 147.68703 222.129015 149.068868 224.812015 149.223891 224.918872 " transform="matrix(4.384444,0,0,4.386705,-319.263816,-613.141047)"/>
<path style="fill-rule:evenodd;fill:rgb(0%,34.901961%,25.490196%);fill-opacity:1;stroke-width:0.708661;stroke-linecap:butt;stroke-linejoin:miter;stroke:rgb(0%,0%,0%);stroke-opacity:1;stroke-miterlimit:4;" d="M 143.920161 214.69088 C 145.450786 216.570672 145.275272 218.851177 148.150315 220.814674 C 149.759342 221.91352 150.679677 223.659741 150.676113 223.84496 " transform="matrix(4.384444,0,0,4.386705,-319.263816,-613.141047)"/>
<path style="fill-rule:evenodd;fill:rgb(0%,34.901961%,25.490196%);fill-opacity:1;stroke-width:0.708661;stroke-linecap:butt;stroke-linejoin:miter;stroke:rgb(0%,0%,0%);stroke-opacity:1;stroke-miterlimit:4;" d="M 145.625409 214.311537 C 147.155142 216.19222 147.76365 217.414842 150.170954 219.931323 C 151.790671 221.624116 151.721179 222.917975 151.87531 223.024832 " transform="matrix(4.384444,0,0,4.386705,-319.263816,-613.141047)"/>
<path style="fill-rule:evenodd;fill:rgb(0%,34.901961%,25.490196%);fill-opacity:1;stroke-width:0.708661;stroke-linecap:butt;stroke-linejoin:miter;stroke:rgb(0%,0%,0%);stroke-opacity:1;stroke-miterlimit:4;" d="M 147.519534 213.554634 C 149.049268 215.434426 148.403341 216.37922 151.181273 218.478959 C 152.500746 219.476291 153.184983 221.196688 153.454045 221.762139 " transform="matrix(4.384444,0,0,4.386705,-319.263816,-613.141047)"/>
<path style="fill-rule:evenodd;fill:rgb(0%,34.901961%,25.490196%);fill-opacity:1;stroke-width:0.708661;stroke-linecap:butt;stroke-linejoin:miter;stroke:rgb(0%,0%,0%);stroke-opacity:1;stroke-miterlimit:4;" d="M 148.718731 212.10227 C 150.248465 213.982062 149.615902 214.930417 152.570239 216.77459 C 153.943168 217.631227 155.856894 219.710486 155.410536 220.05688 " transform="matrix(4.384444,0,0,4.386705,-319.263816,-613.141047)"/>
<path style="fill-rule:evenodd;fill:rgb(0%,34.901961%,25.490196%);fill-opacity:1;stroke-width:0.708661;stroke-linecap:butt;stroke-linejoin:miter;stroke:rgb(0%,0%,0%);stroke-opacity:1;stroke-miterlimit:4;" d="M 149.917928 210.713129 C 151.448553 212.592921 150.863209 213.782595 153.769436 215.700678 C 155.108509 216.584919 156.957197 218.075574 156.989271 218.794187 " transform="matrix(4.384444,0,0,4.386705,-319.263816,-613.141047)"/>
<path style="fill-rule:evenodd;fill:rgb(0%,34.901961%,25.490196%);fill-opacity:1;stroke-width:0.708661;stroke-linecap:butt;stroke-linejoin:miter;stroke:rgb(0%,0%,0%);stroke-opacity:1;stroke-miterlimit:4;" d="M 151.243638 209.198431 C 152.774262 211.078224 151.75147 212.267007 154.843011 213.869862 C 156.927796 214.950898 158.81034 217.321342 158.630371 217.594718 " transform="matrix(4.384444,0,0,4.386705,-319.263816,-613.141047)"/>
<path style="fill-rule:evenodd;fill:rgb(0%,34.901961%,25.490196%);fill-opacity:1;stroke-width:0.708661;stroke-linecap:butt;stroke-linejoin:miter;stroke:rgb(0%,0%,0%);stroke-opacity:1;stroke-miterlimit:4;" d="M 152.506982 207.556396 C 153.248239 210.675729 154.714717 212.195769 157.557687 213.364963 C 159.282535 214.074671 160.340073 216.366753 160.398875 216.521696 " transform="matrix(4.384444,0,0,4.386705,-319.263816,-613.141047)"/>
<path style="fill-rule:evenodd;fill:rgb(0%,34.901961%,25.490196%);fill-opacity:1;stroke-width:0.708661;stroke-linecap:butt;stroke-linejoin:miter;stroke:rgb(0%,0%,0%);stroke-opacity:1;stroke-miterlimit:4;" d="M 153.706179 206.546598 C 155.235913 208.42639 155.970933 211.497637 159.388556 212.165493 C 160.945017 212.469145 160.938781 215.152145 161.092912 215.259002 " transform="matrix(4.384444,0,0,4.386705,-319.263816,-613.141047)"/>
<path style="fill-rule:evenodd;fill:rgb(0%,34.901961%,25.490196%);fill-opacity:1;stroke-width:0.708661;stroke-linecap:butt;stroke-linejoin:miter;stroke:rgb(0%,0%,0%);stroke-opacity:1;stroke-miterlimit:4;" d="M 154.779755 205.347128 C 156.309488 207.22692 157.382173 209.941087 158.883396 210.334677 C 161.680038 211.066647 163.071677 213.262558 162.860525 213.49141 " transform="matrix(4.384444,0,0,4.386705,-319.263816,-613.141047)"/>
<path style="fill-rule:evenodd;fill:rgb(0%,34.901961%,25.490196%);fill-opacity:1;stroke-width:0.708661;stroke-linecap:butt;stroke-linejoin:miter;stroke:rgb(0%,0%,0%);stroke-opacity:1;stroke-miterlimit:4;" d="M 155.663561 204.399663 C 157.193295 206.279455 159.130185 209.000746 160.587753 208.945537 C 163.571491 208.833337 163.960829 211.459347 164.060613 211.786151 " transform="matrix(4.384444,0,0,4.386705,-319.263816,-613.141047)"/>
<path style="fill-rule:evenodd;fill:rgb(0%,34.901961%,25.490196%);fill-opacity:1;stroke-width:0.708661;stroke-linecap:butt;stroke-linejoin:miter;stroke:rgb(0%,0%,0%);stroke-opacity:1;stroke-miterlimit:4;" d="M 157.684199 202.821742 C 159.213933 204.701534 159.998846 207.149449 161.913463 207.493172 C 163.712258 207.816415 164.799198 210.154801 164.881163 210.334677 " transform="matrix(4.384444,0,0,4.386705,-319.263816,-613.141047)"/>
</g>
</svg>
