<?xml version="1.0" encoding="UTF-8"?>
<svg xmlns="http://www.w3.org/2000/svg" xmlns:xlink="http://www.w3.org/1999/xlink" width="1024pt" height="949pt" viewBox="0 0 1024 949" version="1.1">
<g id="surface1">
<path style="fill-rule:evenodd;fill:rgb(0%,62.352941%,26.666667%);fill-opacity:1;stroke-width:1.062992;stroke-linecap:butt;stroke-linejoin:miter;stroke:rgb(0%,0%,0%);stroke-opacity:1;stroke-miterlimit:4;" d="M 94.322597 173.65584 C 90.982848 176.261474 89.252626 177.948062 88.261602 179.211856 C 82.471645 185.727403 84.049433 188.893981 81.948778 193.73254 C 81.221692 197.389109 80.089928 199.430879 79.044194 201.813638 C 79.128972 204.718526 79.212497 207.645535 79.297275 209.894736 C 78.136276 217.238344 78.091591 215.088893 77.529467 217.344355 C 76.994907 220.192064 77.319401 222.657045 79.802184 224.163747 C 90.833756 220.817283 90.560211 223.932107 92.681748 225.678379 C 95.544987 225.244733 95.977229 223.189608 95.83816 220.75426 L 94.954464 215.70326 C 95.587167 214.735382 96.262467 213.767503 97.227181 212.799624 C 98.003129 209.754918 98.457505 206.227732 100.510134 205.09708 C 104.25665 209.30249 105.105682 209.571693 107.202161 211.536666 C 108.132213 213.853899 108.91526 216.096839 110.485114 218.733777 C 111.812744 219.598148 113.436889 220.759268 114.146852 221.007186 C 113.759296 223.811905 114.887302 225.480964 115.788955 227.320309 C 117.637782 230.147566 121.37344 229.064076 121.470329 229.46642 C 120.919899 227.138753 122.713182 226.470963 123.617758 225.173363 C 126.812592 223.995547 131.097845 222.81648 133.087412 221.638247 C 136.472682 221.244668 138.308981 218.527179 140.410889 216.208277 C 143.097055 215.080129 145.593201 214.140631 147.608661 213.682777 C 150.137799 209.864686 153.203587 206.179735 157.078314 202.698043 L 159.856358 202.066564 C 161.220322 200.929651 160.588455 199.793155 159.982898 198.657076 C 157.663825 196.972158 156.53039 193.851907 154.174983 195.121961 C 154.16329 193.083531 154.830655 191.271315 153.921902 188.934049 L 149.249928 182.49488 L 147.735201 177.191372 C 149.519714 177.208067 150.501551 176.422579 151.649185 175.801951 C 155.612867 173.412096 156.728344 171.733438 158.08855 169.994262 C 162.520389 169.788499 163.777441 168.223365 166.043894 167.089791 C 167.921119 165.496693 169.82215 163.933647 170.715868 161.029176 C 171.264628 157.693563 170.168779 156.330853 169.073765 154.967726 C 166.903784 152.136712 164.342071 150.476836 161.49846 149.665053 C 159.168529 149.117048 157.927346 150.200955 156.194619 150.548206 C 155.024851 152.190135 153.660886 152.862517 152.154094 152.821615 C 150.217984 152.324528 148.28229 152.700578 146.346179 153.200168 C 145.294181 153.481475 144.241766 154.139666 143.188515 155.094189 C 138.000773 152.891733 129.462842 153.560775 128.163192 153.453094 C 125.628207 153.868794 124.054177 154.765302 122.859351 155.851714 C 123.401011 158.239064 123.220179 159.182318 123.112432 160.271234 L 121.091961 164.817217 C 120.124323 167.158239 119.15585 168.785144 118.188212 170.11989 C 116.73947 171.83945 115.800648 172.537708 114.652179 173.65584 C 110.587849 174.724722 108.401999 174.53941 106.318466 174.287319 L 96.974936 174.53941 Z M 94.322597 173.65584 " transform="matrix(9.353481,0,0,9.359224,-681.096141,-1308.16289)"/>
<path style="fill-rule:evenodd;fill:rgb(0%,34.901961%,25.490196%);fill-opacity:1;stroke-width:1.062992;stroke-linecap:butt;stroke-linejoin:miter;stroke:rgb(0%,0%,0%);stroke-opacity:1;stroke-miterlimit:4;" d="M 95.017526 173.71928 C 93.901213 173.442147 93.2635 172.256401 95.585914 170.562718 C 96.210681 169.439578 96.934008 168.360262 96.090405 166.584774 C 96.624966 165.772574 96.052819 165.236673 97.795569 164.122715 C 102.367731 161.303387 107.01423 158.782479 111.432288 155.347114 C 112.83008 155.022819 113.730897 153.333726 115.725476 154.652195 C 116.67265 154.820812 117.319551 155.2891 117.935131 155.788691 L 120.649696 155.535765 C 121.676218 155.434345 123.297022 155.487768 123.175493 156.861747 C 123.153359 158.672711 123.711306 160.047107 122.038717 163.111847 L 117.87207 170.751369 C 115.925936 174.320291 112.996712 174.554435 110.738195 174.53941 L 101.204227 174.47597 C 99.134894 174.462614 97.38045 174.871635 95.017526 173.71928 Z M 95.017526 173.71928 " transform="matrix(9.353481,0,0,9.359224,-681.096141,-1308.16289)"/>
<path style="fill:none;stroke-width:1.062992;stroke-linecap:round;stroke-linejoin:miter;stroke:rgb(0%,0%,0%);stroke-opacity:1;stroke-miterlimit:4;" d="M 92.302961 182.115492 C 92.860909 183.516182 93.136959 184.633061 95.9647 188.302569 C 98.258716 191.060544 100.56359 193.851907 102.530187 195.62656 C 103.796845 197.309809 104.636271 199.040639 102.909391 201.056113 L 100.383593 205.223543 " transform="matrix(9.353481,0,0,9.359224,-681.096141,-1308.16289)"/>
<path style="fill:none;stroke-width:1.062992;stroke-linecap:round;stroke-linejoin:miter;stroke:rgb(0%,0%,0%);stroke-opacity:1;stroke-miterlimit:4;" d="M 138.390835 165.953295 C 141.422795 168.144065 145.517611 172.200057 147.608661 177.444298 " transform="matrix(9.353481,0,0,9.359224,-681.096141,-1308.16289)"/>
<path style="fill:none;stroke-width:1.062992;stroke-linecap:round;stroke-linejoin:miter;stroke:rgb(0%,0%,0%);stroke-opacity:1;stroke-miterlimit:4;" d="M 127.784406 153.704768 C 130.425886 154.678072 132.38079 156.436865 133.845402 158.755767 " transform="matrix(9.353481,0,0,9.359224,-681.096141,-1308.16289)"/>
<path style="fill:none;stroke-width:1.062992;stroke-linecap:round;stroke-linejoin:miter;stroke:rgb(0%,0%,0%);stroke-opacity:1;stroke-miterlimit:4;" d="M 142.936687 154.967726 C 144.925836 155.371739 146.278524 156.731527 147.608661 158.124288 " transform="matrix(9.353481,0,0,9.359224,-681.096141,-1308.16289)"/>
<path style="fill:none;stroke-width:1.062992;stroke-linecap:round;stroke-linejoin:miter;stroke:rgb(0%,0%,0%);stroke-opacity:1;stroke-miterlimit:4;" d="M 94.827924 215.829723 C 94.402781 216.449516 93.905807 216.851025 93.312362 216.966219 " transform="matrix(9.353481,0,0,9.359224,-681.096141,-1308.16289)"/>
<path style="fill:none;stroke-width:1.062992;stroke-linecap:round;stroke-linejoin:miter;stroke:rgb(0%,0%,0%);stroke-opacity:1;stroke-miterlimit:4;" d="M 113.894606 220.880723 C 114.686006 221.141578 115.353372 221.525975 116.294281 221.638247 " transform="matrix(9.353481,0,0,9.359224,-681.096141,-1308.16289)"/>
<path style="fill:none;stroke-width:0.708661;stroke-linecap:round;stroke-linejoin:miter;stroke:rgb(0%,0%,0%);stroke-opacity:1;stroke-miterlimit:4;" d="M 96.911874 165.575159 L 98.616203 165.448696 L 99.689918 166.395289 " transform="matrix(9.353481,0,0,9.359224,-681.096141,-1308.16289)"/>
<path style="fill:none;stroke-width:0.708661;stroke-linecap:round;stroke-linejoin:miter;stroke:rgb(0%,0%,0%);stroke-opacity:1;stroke-miterlimit:4;" d="M 100.005225 163.554676 L 101.204227 164.500851 L 101.142001 166.331849 " transform="matrix(9.353481,0,0,9.359224,-681.096141,-1308.16289)"/>
<path style="fill:none;stroke-width:0.708661;stroke-linecap:butt;stroke-linejoin:round;stroke:rgb(0%,0%,0%);stroke-opacity:1;stroke-miterlimit:4;" d="M 98.946545 166.799302 C 98.18062 167.98296 98.384421 167.805579 98.237417 168.162846 C 98.054915 169.368208 98.05742 170.139506 98.047815 170.940854 L 97.227181 172.330276 C 97.166626 173.167101 97.210476 173.55108 97.405507 174.119954 " transform="matrix(9.353481,0,0,9.359224,-681.096141,-1308.16289)"/>
<path style="fill:none;stroke-width:0.708661;stroke-linecap:round;stroke-linejoin:miter;stroke:rgb(0%,0%,0%);stroke-opacity:1;stroke-miterlimit:4;" d="M 101.267706 162.543808 L 102.783268 163.869789 L 102.783268 165.575159 " transform="matrix(9.353481,0,0,9.359224,-681.096141,-1308.16289)"/>
<path style="fill:none;stroke-width:0.708661;stroke-linecap:butt;stroke-linejoin:round;stroke:rgb(0%,0%,0%);stroke-opacity:1;stroke-miterlimit:4;" d="M 99.739615 167.401148 C 98.972437 168.585641 99.511592 169.054764 99.498228 169.591083 C 99.315725 170.796027 99.319066 170.451281 99.309461 171.252629 C 98.602839 171.811903 98.717686 172.18837 98.487992 172.641633 C 98.428272 173.478875 98.783671 173.795658 98.978702 174.36495 " transform="matrix(9.353481,0,0,9.359224,-681.096141,-1308.16289)"/>
<path style="fill:none;stroke-width:0.708661;stroke-linecap:butt;stroke-linejoin:round;stroke:rgb(0%,0%,0%);stroke-opacity:1;stroke-miterlimit:4;" d="M 100.632498 167.624858 C 99.86532 168.808099 100.73941 169.500931 100.815 169.903692 C 101.257683 170.863641 101.171234 170.85279 101.161629 171.654973 C 100.832958 172.021005 100.594076 172.387038 100.318861 172.753071 C 100.258306 173.590313 100.301739 173.973875 100.49677 174.544001 " transform="matrix(9.353481,0,0,9.359224,-681.096141,-1308.16289)"/>
<path style="fill:none;stroke-width:0.708661;stroke-linecap:butt;stroke-linejoin:round;stroke:rgb(0%,0%,0%);stroke-opacity:1;stroke-miterlimit:4;" d="M 101.971405 167.713757 C 101.696189 168.942909 102.592413 169.478811 102.444574 169.836913 C 102.871387 171.229674 102.57362 171.16999 102.366896 171.677511 L 102.237849 172.910001 C 102.178129 173.746826 102.466708 173.840317 102.661739 174.409191 " transform="matrix(9.353481,0,0,9.359224,-681.096141,-1308.16289)"/>
<path style="fill:none;stroke-width:0.708661;stroke-linecap:butt;stroke-linejoin:round;stroke:rgb(0%,0%,0%);stroke-opacity:1;stroke-miterlimit:4;" d="M 102.998763 167.580199 C 102.990828 168.674541 104.489267 169.813541 104.342263 170.171643 C 104.084588 171.227587 103.813967 171.361145 103.907515 172.369091 L 104.157673 173.468024 C 104.409919 173.947163 104.564858 173.929216 104.759889 174.499342 " transform="matrix(9.353481,0,0,9.359224,-681.096141,-1308.16289)"/>
<path style="fill:none;stroke-width:0.708661;stroke-linecap:butt;stroke-linejoin:round;stroke:rgb(0%,0%,0%);stroke-opacity:1;stroke-miterlimit:4;" d="M 104.828797 167.044298 C 104.999605 167.916181 105.203824 168.072695 105.279414 168.430797 C 105.676994 169.211695 106.394892 169.580232 106.385286 170.382832 L 105.720427 172.240124 C 105.659871 173.077366 106.261251 173.683803 106.456282 174.253512 " transform="matrix(9.353481,0,0,9.359224,-681.096141,-1308.16289)"/>
<path style="fill:none;stroke-width:0.708661;stroke-linecap:butt;stroke-linejoin:round;stroke:rgb(0%,0%,0%);stroke-opacity:1;stroke-miterlimit:4;" d="M 106.658831 166.509231 C 106.427884 167.803909 107.993979 169.21086 108.047435 170.059371 C 107.864933 171.26515 108.18024 171.812738 108.170634 172.614087 C 108.260424 172.928366 108.442091 173.30358 108.711459 173.73514 C 108.650903 174.572382 108.918184 174.086147 108.934053 174.677559 " transform="matrix(9.353481,0,0,9.359224,-681.096141,-1308.16289)"/>
<path style="fill:none;stroke-width:0.708661;stroke-linecap:round;stroke-linejoin:miter;stroke:rgb(0%,0%,0%);stroke-opacity:1;stroke-miterlimit:4;" d="M 103.035096 161.597215 L 105.434353 164.943679 " transform="matrix(9.353481,0,0,9.359224,-681.096141,-1308.16289)"/>
<path style="fill:none;stroke-width:0.708661;stroke-linecap:butt;stroke-linejoin:round;stroke:rgb(0%,0%,0%);stroke-opacity:1;stroke-miterlimit:4;" d="M 108.020707 165.817233 C 108.214067 166.242114 108.998368 168.206253 109.319939 168.854427 C 109.918396 169.881155 110.367761 170.606959 110.357738 171.40956 C 110.407853 171.967582 110.496807 172.513501 110.898563 172.954242 C 111.535441 173.512682 111.682445 173.685473 111.768894 174.298171 " transform="matrix(9.353481,0,0,9.359224,-681.096141,-1308.16289)"/>
<path style="fill:none;stroke-width:0.708661;stroke-linecap:round;stroke-linejoin:miter;stroke:rgb(0%,0%,0%);stroke-opacity:1;stroke-miterlimit:4;" d="M 104.677199 160.71281 L 107.581783 164.627314 " transform="matrix(9.353481,0,0,9.359224,-681.096141,-1308.16289)"/>
<path style="fill:none;stroke-width:0.708661;stroke-linecap:butt;stroke-linejoin:round;stroke:rgb(0%,0%,0%);stroke-opacity:1;stroke-miterlimit:4;" d="M 109.175441 164.920307 C 109.545457 166.103965 110.501401 167.16283 110.549428 167.546392 C 110.739865 169.054764 112.01404 170.13408 112.506838 170.766394 L 113.390533 171.902473 C 113.905465 172.565254 113.56343 173.565271 113.757625 174.134979 " transform="matrix(9.353481,0,0,9.359224,-681.096141,-1308.16289)"/>
<path style="fill:none;stroke-width:0.708661;stroke-linecap:round;stroke-linejoin:miter;stroke:rgb(0%,0%,0%);stroke-opacity:1;stroke-miterlimit:4;" d="M 106.06622 159.766217 C 106.002741 160.018308 108.844264 163.491235 108.844264 163.491235 " transform="matrix(9.353481,0,0,9.359224,-681.096141,-1308.16289)"/>
<path style="fill:none;stroke-width:0.708661;stroke-linecap:butt;stroke-linejoin:round;stroke:rgb(0%,0%,0%);stroke-opacity:1;stroke-miterlimit:4;" d="M 110.911091 163.99333 C 111.28069 165.176989 112.235799 166.235854 112.283826 166.619416 C 112.474681 168.127787 113.23267 168.640734 113.799388 169.207938 L 115.251889 170.660382 C 115.844917 171.253464 116.18194 171.943792 116.376971 172.513501 " transform="matrix(9.353481,0,0,9.359224,-681.096141,-1308.16289)"/>
<path style="fill:none;stroke-width:0.708661;stroke-linecap:round;stroke-linejoin:miter;stroke:rgb(0%,0%,0%);stroke-opacity:1;stroke-miterlimit:4;" d="M 107.581783 158.440653 L 108.401999 160.018308 L 110.043266 161.597215 " transform="matrix(9.353481,0,0,9.359224,-681.096141,-1308.16289)"/>
<path style="fill:none;stroke-width:0.708661;stroke-linecap:butt;stroke-linejoin:round;stroke:rgb(0%,0%,0%);stroke-opacity:1;stroke-miterlimit:4;" d="M 111.731725 163.109343 C 112.235799 163.620202 113.704169 165.336424 114.241235 166.303468 C 114.980015 167.632788 115.583066 167.874027 116.198645 168.386974 L 117.334586 169.334401 C 117.979817 169.871555 117.192176 170.744274 117.386372 171.313982 " transform="matrix(9.353481,0,0,9.359224,-681.096141,-1308.16289)"/>
<path style="fill:none;stroke-width:0.708661;stroke-linecap:round;stroke-linejoin:miter;stroke:rgb(0%,0%,0%);stroke-opacity:1;stroke-miterlimit:4;" d="M 109.286111 157.429786 L 109.66448 159.261618 L 111.558828 160.71281 " transform="matrix(9.353481,0,0,9.359224,-681.096141,-1308.16289)"/>
<path style="fill:none;stroke-width:0.708661;stroke-linecap:butt;stroke-linejoin:round;stroke:rgb(0%,0%,0%);stroke-opacity:1;stroke-miterlimit:4;" d="M 112.741961 162.225773 C 113.742591 162.967855 114.256688 163.457429 114.936164 164.409447 C 115.819024 165.646946 115.284463 166.089775 116.072105 166.240862 L 117.714207 166.556393 C 118.538182 166.714576 118.644259 168.786813 118.838455 169.356939 " transform="matrix(9.353481,0,0,9.359224,-681.096141,-1308.16289)"/>
<path style="fill:none;stroke-width:0.708661;stroke-linecap:round;stroke-linejoin:miter;stroke:rgb(0%,0%,0%);stroke-opacity:1;stroke-miterlimit:4;" d="M 110.548593 156.609656 L 111.937614 158.503676 L 113.263157 159.703195 " transform="matrix(9.353481,0,0,9.359224,-681.096141,-1308.16289)"/>
<path style="fill:none;stroke-width:0.708661;stroke-linecap:butt;stroke-linejoin:round;stroke:rgb(0%,0%,0%);stroke-opacity:1;stroke-miterlimit:4;" d="M 114.130982 161.215322 C 114.500581 162.398563 115.203444 161.816334 115.630257 162.704912 C 116.288852 164.075552 115.783526 164.106437 116.577431 164.220379 L 118.344822 164.47247 C 119.176313 164.591837 119.90674 166.577679 120.101771 167.146553 " transform="matrix(9.353481,0,0,9.359224,-681.096141,-1308.16289)"/>
<path style="fill:none;stroke-width:0.708661;stroke-linecap:round;stroke-linejoin:miter;stroke:rgb(0%,0%,0%);stroke-opacity:1;stroke-miterlimit:4;" d="M 113.326218 155.220652 L 112.75783 157.177695 L 114.021147 158.567116 " transform="matrix(9.353481,0,0,9.359224,-681.096141,-1308.16289)"/>
<path style="fill:none;stroke-width:0.708661;stroke-linecap:butt;stroke-linejoin:round;stroke:rgb(0%,0%,0%);stroke-opacity:1;stroke-miterlimit:4;" d="M 115.266923 159.762878 C 115.636522 160.947371 116.959558 161.067574 117.145819 161.758319 C 117.422705 162.787969 118.802956 162.318429 119.418536 162.831375 L 120.175691 163.462854 C 120.820922 163.999591 120.538607 165.440349 120.732803 166.010475 " transform="matrix(9.353481,0,0,9.359224,-681.096141,-1308.16289)"/>
<path style="fill:none;stroke-width:0.708661;stroke-linecap:round;stroke-linejoin:miter;stroke:rgb(0%,0%,0%);stroke-opacity:1;stroke-miterlimit:4;" d="M 115.220567 154.715635 L 114.652179 156.230267 " transform="matrix(9.353481,0,0,9.359224,-681.096141,-1308.16289)"/>
<path style="fill:none;stroke-width:0.708661;stroke-linecap:butt;stroke-linejoin:round;stroke:rgb(0%,0%,0%);stroke-opacity:1;stroke-miterlimit:4;" d="M 115.645292 159.069211 C 116.457155 159.55795 117.160019 159.227811 117.587667 159.989927 C 118.330622 161.316743 118.889405 160.960727 119.355475 160.937355 L 120.617956 160.874332 C 121.45613 160.832178 121.86415 162.284622 122.058346 162.853496 " transform="matrix(9.353481,0,0,9.359224,-681.096141,-1308.16289)"/>
<path style="fill:none;stroke-width:0.708661;stroke-linecap:round;stroke-linejoin:miter;stroke:rgb(0%,0%,0%);stroke-opacity:1;stroke-miterlimit:4;" d="M 111.495349 155.347114 L 112.063737 156.988209 " transform="matrix(9.353481,0,0,9.359224,-681.096141,-1308.16289)"/>
<path style="fill:none;stroke-width:0.708661;stroke-linecap:butt;stroke-linejoin:round;stroke:rgb(0%,0%,0%);stroke-opacity:1;stroke-miterlimit:4;" d="M 115.662414 157.210667 C 116.47386 157.699406 117.177976 157.369267 117.60479 158.132218 C 118.347745 159.458199 118.974183 158.829641 119.435659 158.763697 L 120.761201 158.574211 C 121.592276 158.455679 122.44966 160.299615 122.643856 160.868906 " transform="matrix(9.353481,0,0,9.359224,-681.096141,-1308.16289)"/>
<path style="fill:none;stroke-width:0.708661;stroke-linecap:butt;stroke-linejoin:round;stroke:rgb(0%,0%,0%);stroke-opacity:1;stroke-miterlimit:4;" d="M 114.778719 156.389702 C 115.590165 156.878441 116.358178 155.450205 116.847217 156.175175 C 117.400571 156.996139 118.722772 157.448567 119.183413 157.374693 L 121.139988 157.058327 C 121.968556 156.924769 122.891508 158.152669 123.085704 158.722795 " transform="matrix(9.353481,0,0,9.359224,-681.096141,-1308.16289)"/>
<path style="fill:none;stroke-width:0.708661;stroke-linecap:butt;stroke-linejoin:round;stroke:rgb(0%,0%,0%);stroke-opacity:1;stroke-miterlimit:4;" d="M 98.85759 166.411984 C 98.05575 166.078088 96.674663 165.833093 97.182495 168.215018 C 97.499055 169.702521 96.356015 170.18333 96.110869 170.579413 L 95.381277 171.756811 C 94.938595 172.468842 95.059706 173.041473 95.192511 173.629128 " transform="matrix(9.353481,0,0,9.359224,-681.096141,-1308.16289)"/>
<path style="fill:none;stroke-width:1.062992;stroke-linecap:round;stroke-linejoin:miter;stroke:rgb(0%,0%,0%);stroke-opacity:1;stroke-miterlimit:4;" d="M 101.428909 164.683659 L 99.642726 165.755045 C 98.944039 166.572253 98.901441 167.215419 100.714352 167.362333 C 102.453344 167.382784 106.95618 167.56893 115.261494 159.69443 C 116.448385 158.034553 115.476153 156.777855 113.749691 156.648054 C 112.454217 156.885537 111.898358 157.124272 111.249786 157.362172 " transform="matrix(9.353481,0,0,9.359224,-681.096141,-1308.16289)"/>
<path style="fill-rule:evenodd;fill:rgb(0%,34.901961%,25.490196%);fill-opacity:1;stroke-width:0.999213;stroke-linecap:butt;stroke-linejoin:miter;stroke:rgb(0%,0%,0%);stroke-opacity:1;stroke-miterlimit:4;" d="M 80.054429 223.974262 L 78.476641 229.46642 C 78.022265 231.252759 77.714893 232.989432 79.739122 233.94938 L 86.936059 235.52787 C 91.738332 235.600909 90.869671 234.148465 91.608033 233.127998 C 92.246164 230.428038 92.563142 228.049035 92.870514 225.678379 C 91.376251 224.035615 90.072842 222.96715 89.083071 222.837766 C 84.388127 222.092345 82.959013 223.525173 80.054429 223.974262 Z M 80.054429 223.974262 " transform="matrix(9.353481,0,0,9.359224,-681.096141,-1308.16289)"/>
<path style="fill:none;stroke-width:1;stroke-linecap:round;stroke-linejoin:miter;stroke:rgb(0%,0%,0%);stroke-opacity:1;stroke-miterlimit:4;" d="M 80.18097 231.739829 C 80.477484 231.284062 80.077816 230.596655 81.758758 230.602916 C 83.723268 231.564534 85.959651 230.624202 88.072835 230.54031 C 89.663987 230.842486 89.990153 232.347936 88.388142 233.002787 " transform="matrix(9.353481,0,0,9.359224,-681.096141,-1308.16289)"/>
<path style="fill:none;stroke-width:0.708661;stroke-linecap:round;stroke-linejoin:miter;stroke:rgb(0%,0%,0%);stroke-opacity:1;stroke-miterlimit:4;" d="M 82.390625 223.657896 C 82.103717 224.200058 81.728689 224.564421 81.758758 225.741819 C 81.716996 226.499344 81.927061 227.509377 81.633053 228.013976 C 81.177006 228.453048 80.155077 228.749798 80.30751 229.339957 L 80.496277 230.539476 " transform="matrix(9.353481,0,0,9.359224,-681.096141,-1308.16289)"/>
<path style="fill:none;stroke-width:0.708661;stroke-linecap:round;stroke-linejoin:miter;stroke:rgb(0%,0%,0%);stroke-opacity:1;stroke-miterlimit:4;" d="M 83.627214 223.46841 C 83.340305 224.010573 83.248428 224.311496 83.27975 225.488894 C 83.237569 226.246418 83.573758 227.193011 83.27975 227.698862 C 82.918086 228.547374 82.33884 228.907146 82.490438 229.497723 L 82.490438 230.318688 " transform="matrix(9.353481,0,0,9.359224,-681.096141,-1308.16289)"/>
<path style="fill:none;stroke-width:0.708661;stroke-linecap:round;stroke-linejoin:miter;stroke:rgb(0%,0%,0%);stroke-opacity:1;stroke-miterlimit:4;" d="M 85.425926 223.279342 C 85.139017 223.821087 85.205837 224.405821 85.237159 225.584054 C 85.194144 226.341161 85.404627 227.351611 85.110619 227.856628 C 84.654154 228.294865 84.201031 229.033608 84.353046 229.624186 L 84.289985 230.729379 " transform="matrix(9.353481,0,0,9.359224,-681.096141,-1308.16289)"/>
<path style="fill:none;stroke-width:0.708661;stroke-linecap:round;stroke-linejoin:miter;stroke:rgb(0%,0%,0%);stroke-opacity:1;stroke-miterlimit:4;" d="M 86.941488 223.058554 C 86.654579 223.599882 86.626181 224.626609 86.657085 225.804842 C 86.615323 226.561949 87.014572 227.540262 86.720564 228.046113 C 86.2641 228.484351 86.126283 228.749798 86.278717 229.339957 L 86.468319 230.539476 " transform="matrix(9.353481,0,0,9.359224,-681.096141,-1308.16289)"/>
<path style="fill:none;stroke-width:0.708661;stroke-linecap:round;stroke-linejoin:miter;stroke:rgb(0%,0%,0%);stroke-opacity:1;stroke-miterlimit:4;" d="M 80.880492 224.005147 C 80.593584 224.546474 80.218556 224.911672 80.248625 226.08907 C 80.206863 226.846595 79.912019 227.603702 79.618011 228.109553 C 79.161547 228.547374 78.771485 229.665088 78.923083 230.255665 C 79.014542 230.774454 79.491471 230.908013 79.996379 231.01319 " transform="matrix(9.353481,0,0,9.359224,-681.096141,-1308.16289)"/>
<path style="fill:none;stroke-width:0.708661;stroke-linecap:round;stroke-linejoin:miter;stroke:rgb(0%,0%,0%);stroke-opacity:1;stroke-miterlimit:4;" d="M 88.582338 223.152879 C 88.296682 223.694624 88.45705 224.185033 88.487954 225.362431 C 88.446192 226.119956 88.656257 226.498509 88.361414 227.00436 C 87.906202 227.442598 87.67275 228.149621 87.825183 228.740615 L 88.014785 230.571613 " transform="matrix(9.353481,0,0,9.359224,-681.096141,-1308.16289)"/>
<path style="fill:none;stroke-width:0.708661;stroke-linecap:round;stroke-linejoin:miter;stroke:rgb(0%,0%,0%);stroke-opacity:1;stroke-miterlimit:4;" d="M 90.0979 223.594873 C 90.064072 224.325686 90.193119 225.100323 89.876976 226.08907 C 89.835214 226.846595 90.17182 227.035663 89.876976 227.540262 C 89.420929 227.979334 89.883241 228.87626 89.68821 229.434283 L 89.024185 230.665939 " transform="matrix(9.353481,0,0,9.359224,-681.096141,-1308.16289)"/>
<path style="fill:none;stroke-width:0.708661;stroke-linecap:round;stroke-linejoin:miter;stroke:rgb(0%,0%,0%);stroke-opacity:1;stroke-miterlimit:4;" d="M 92.023153 225.141643 C 91.737079 225.683805 91.298155 225.984728 91.329059 227.162126 C 91.287297 227.919651 91.055515 228.140439 91.013752 228.866243 C 91.030875 229.620429 90.893476 230.517355 90.666288 231.044492 L 89.624731 231.802434 " transform="matrix(9.353481,0,0,9.359224,-681.096141,-1308.16289)"/>
<path style="fill:none;stroke-width:0.708661;stroke-linecap:round;stroke-linejoin:miter;stroke:rgb(0%,0%,0%);stroke-opacity:1;stroke-miterlimit:4;" d="M 92.466253 226.499344 C 92.179344 227.040672 92.056145 227.910051 92.086632 229.087866 C 92.044451 229.844974 91.843991 230.950167 91.865708 231.928897 C 91.599263 232.627573 91.208783 233.033673 90.666288 233.033673 L 88.898898 233.127998 " transform="matrix(9.353481,0,0,9.359224,-681.096141,-1308.16289)"/>
<path style="fill:none;stroke-width:0.708661;stroke-linecap:butt;stroke-linejoin:miter;stroke:rgb(0%,0%,0%);stroke-opacity:1;stroke-miterlimit:4;" d="M 78.287039 231.739829 C 80.036472 232.107531 81.871099 232.607122 81.822237 234.201889 " transform="matrix(9.353481,0,0,9.359224,-681.096141,-1308.16289)"/>
<path style="fill:none;stroke-width:0.708661;stroke-linecap:butt;stroke-linejoin:miter;stroke:rgb(0%,0%,0%);stroke-opacity:1;stroke-miterlimit:4;" d="M 80.369736 232.212708 L 80.275353 233.88594 " transform="matrix(9.353481,0,0,9.359224,-681.096141,-1308.16289)"/>
<path style="fill:none;stroke-width:0.708661;stroke-linecap:butt;stroke-linejoin:miter;stroke:rgb(0%,0%,0%);stroke-opacity:1;stroke-miterlimit:4;" d="M 83.069266 233.017813 L 82.974883 234.691045 " transform="matrix(9.353481,0,0,9.359224,-681.096141,-1308.16289)"/>
<path style="fill:none;stroke-width:0.708661;stroke-linecap:butt;stroke-linejoin:miter;stroke:rgb(0%,0%,0%);stroke-opacity:1;stroke-miterlimit:4;" d="M 84.331748 232.98651 L 84.237364 234.659742 " transform="matrix(9.353481,0,0,9.359224,-681.096141,-1308.16289)"/>
<path style="fill:none;stroke-width:0.708661;stroke-linecap:butt;stroke-linejoin:miter;stroke:rgb(0%,0%,0%);stroke-opacity:1;stroke-miterlimit:4;" d="M 85.941693 233.428086 L 85.84731 235.101319 " transform="matrix(9.353481,0,0,9.359224,-681.096141,-1308.16289)"/>
<path style="fill:none;stroke-width:0.708661;stroke-linecap:butt;stroke-linejoin:miter;stroke:rgb(0%,0%,0%);stroke-opacity:1;stroke-miterlimit:4;" d="M 87.204174 233.491527 L 87.109791 235.164759 " transform="matrix(9.353481,0,0,9.359224,-681.096141,-1308.16289)"/>
<path style="fill:none;stroke-width:0.708661;stroke-linecap:butt;stroke-linejoin:miter;stroke:rgb(0%,0%,0%);stroke-opacity:1;stroke-miterlimit:4;" d="M 88.435334 233.176413 C 88.223598 234.123841 89.437634 234.646387 90.550606 234.848393 " transform="matrix(9.353481,0,0,9.359224,-681.096141,-1308.16289)"/>
<path style="fill-rule:evenodd;fill:rgb(0%,34.901961%,25.490196%);fill-opacity:1;stroke-width:1.062992;stroke-linecap:butt;stroke-linejoin:bevel;stroke:rgb(0%,0%,0%);stroke-opacity:1;stroke-miterlimit:4;" d="M 162.571757 149.980167 L 167.117608 145.497624 C 167.547762 143.965045 170.348775 143.279308 171.347735 144.424568 C 173.679337 146.561497 175.801291 148.818211 176.96563 151.622096 C 179.035381 154.587503 176.762664 154.73066 175.703149 155.662228 L 170.779347 160.144771 C 171.234558 154.183072 164.143281 150.446785 162.571757 149.980167 Z M 162.571757 149.980167 " transform="matrix(9.353481,0,0,9.359224,-681.096141,-1308.16289)"/>
<path style="fill:none;stroke-width:0.999213;stroke-linecap:butt;stroke-linejoin:miter;stroke:rgb(0%,0%,0%);stroke-opacity:1;stroke-miterlimit:4;" d="M 170.715868 144.171643 L 168.884999 146.065663 L 167.937824 148.654185 C 165.903154 150.539441 165.537732 150.087013 164.339565 150.801132 " transform="matrix(9.353481,0,0,9.359224,-681.096141,-1308.16289)"/>
<path style="fill:none;stroke-width:0.999213;stroke-linecap:butt;stroke-linejoin:miter;stroke:rgb(0%,0%,0%);stroke-opacity:1;stroke-miterlimit:4;" d="M 172.210966 145.614905 C 171.622115 145.664989 171.03201 146.09154 170.443159 146.814423 L 168.864535 149.339923 C 166.829447 151.224761 167.537739 151.466418 166.339572 152.180536 " transform="matrix(9.353481,0,0,9.359224,-681.096141,-1308.16289)"/>
<path style="fill:none;stroke-width:0.999213;stroke-linecap:butt;stroke-linejoin:miter;stroke:rgb(0%,0%,0%);stroke-opacity:1;stroke-miterlimit:4;" d="M 173.851816 147.003074 C 173.123895 147.285633 172.672442 147.152909 171.642578 147.887479 L 170.127016 150.349538 C 168.091928 152.234794 168.295312 151.907994 167.096727 152.622112 " transform="matrix(9.353481,0,0,9.359224,-681.096141,-1308.16289)"/>
<path style="fill:none;stroke-width:0.999213;stroke-linecap:butt;stroke-linejoin:miter;stroke:rgb(0%,0%,0%);stroke-opacity:1;stroke-miterlimit:4;" d="M 174.862469 148.266032 L 173.284263 149.655036 L 171.200731 151.486034 C 169.165643 153.370872 169.368609 152.981884 168.170442 153.696003 " transform="matrix(9.353481,0,0,9.359224,-681.096141,-1308.16289)"/>
<path style="fill:none;stroke-width:0.999213;stroke-linecap:butt;stroke-linejoin:miter;stroke:rgb(0%,0%,0%);stroke-opacity:1;stroke-miterlimit:4;" d="M 175.935766 149.465551 L 174.483683 151.04404 L 171.642578 152.875038 C 169.60749 154.760294 170.75763 154.622979 169.559463 155.337098 " transform="matrix(9.353481,0,0,9.359224,-681.096141,-1308.16289)"/>
<path style="fill:none;stroke-width:0.999213;stroke-linecap:butt;stroke-linejoin:miter;stroke:rgb(0%,0%,0%);stroke-opacity:1;stroke-miterlimit:4;" d="M 176.819879 151.549057 L 175.557398 152.433462 L 173.599988 153.822466 C 170.918834 155.557886 171.341471 156.208147 170.190078 156.536616 " transform="matrix(9.353481,0,0,9.359224,-681.096141,-1308.16289)"/>
<path style="fill:none;stroke-width:0.999213;stroke-linecap:butt;stroke-linejoin:miter;stroke:rgb(0%,0%,0%);stroke-opacity:1;stroke-miterlimit:4;" d="M 177.451329 152.938061 C 177.191983 153.794919 176.434829 154.153022 175.682685 154.516133 L 173.473448 155.842114 C 171.43836 157.72737 171.704805 157.590055 170.506638 158.304174 " transform="matrix(9.353481,0,0,9.359224,-681.096141,-1308.16289)"/>
<path style="fill-rule:evenodd;fill:rgb(0%,34.901961%,25.490196%);fill-opacity:1;stroke-width:1;stroke-linecap:butt;stroke-linejoin:miter;stroke:rgb(0%,0%,0%);stroke-opacity:1;stroke-miterlimit:4;" d="M 121.470329 229.656323 L 123.933066 235.085459 C 125.010121 237.423977 126.595009 237.225309 128.163192 237.105942 C 133.259056 235.51827 138.577931 232.479824 144.009984 228.708895 C 148.021274 226.10493 151.88055 223.439612 155.058678 220.501334 C 158.539585 218.435358 161.361061 215.599336 163.834238 212.356796 C 165.620839 210.254508 165.37277 208.314995 162.950543 206.549107 C 161.819196 205.568707 161.356468 205.362109 159.919419 202.698043 C 159.242448 201.768145 157.772407 202.406719 156.763007 203.139619 C 153.732718 205.734402 150.702011 208.971516 147.671722 213.746217 C 145.347637 214.408582 142.759196 215.333889 140.285184 216.144837 L 134.855637 221.322299 L 133.087412 221.638247 C 129.292868 223.525173 124.242943 224.670433 123.238972 225.236803 C 122.128924 226.546507 120.986719 228.027332 121.470329 229.656323 Z M 121.470329 229.656323 " transform="matrix(9.353481,0,0,9.359224,-681.096141,-1308.16289)"/>
<path style="fill-rule:evenodd;fill:rgb(0%,34.901961%,25.490196%);fill-opacity:1;stroke-width:0.708661;stroke-linecap:butt;stroke-linejoin:miter;stroke:rgb(0%,0%,0%);stroke-opacity:1;stroke-miterlimit:4;" d="M 121.786889 228.708895 C 123.316233 230.58956 125.169654 232.109618 125.258608 235.590475 C 126.540718 237.307949 126.872312 236.747005 127.026416 236.853016 " transform="matrix(9.353481,0,0,9.359224,-681.096141,-1308.16289)"/>
<path style="fill-rule:evenodd;fill:rgb(0%,34.901961%,25.490196%);fill-opacity:1;stroke-width:0.708661;stroke-linecap:butt;stroke-linejoin:miter;stroke:rgb(0%,0%,0%);stroke-opacity:1;stroke-miterlimit:4;" d="M 122.86478 227.220558 C 124.395377 229.100387 126.24838 230.62128 126.337752 234.102137 C 127.353417 236.750761 128.293909 236.456933 128.483928 236.438152 " transform="matrix(9.353481,0,0,9.359224,-681.096141,-1308.16289)"/>
<path style="fill-rule:evenodd;fill:rgb(0%,34.901961%,25.490196%);fill-opacity:1;stroke-width:0.708661;stroke-linecap:butt;stroke-linejoin:miter;stroke:rgb(0%,0%,0%);stroke-opacity:1;stroke-miterlimit:4;" d="M 123.686249 225.831554 C 125.21601 227.711383 126.775006 229.787794 127.663295 233.15471 C 128.209548 235.226947 130.034153 236.331305 130.189092 236.438152 " transform="matrix(9.353481,0,0,9.359224,-681.096141,-1308.16289)"/>
<path style="fill-rule:evenodd;fill:rgb(0%,34.901961%,25.490196%);fill-opacity:1;stroke-width:0.708661;stroke-linecap:butt;stroke-linejoin:miter;stroke:rgb(0%,0%,0%);stroke-opacity:1;stroke-miterlimit:4;" d="M 125.4219 224.792305 C 126.952496 226.672135 128.511492 228.748963 129.399781 232.115878 C 129.946034 234.187698 131.644099 235.481542 131.799038 235.588388 " transform="matrix(9.353481,0,0,9.359224,-681.096141,-1308.16289)"/>
<path style="fill-rule:evenodd;fill:rgb(0%,34.901961%,25.490196%);fill-opacity:1;stroke-width:0.708661;stroke-linecap:butt;stroke-linejoin:miter;stroke:rgb(0%,0%,0%);stroke-opacity:1;stroke-miterlimit:4;" d="M 127.31583 224.476356 C 128.846427 226.357021 130.405422 228.433432 131.293711 231.800347 C 131.839965 233.87175 134.106418 234.345463 134.260521 234.45231 " transform="matrix(9.353481,0,0,9.359224,-681.096141,-1308.16289)"/>
<path style="fill-rule:evenodd;fill:rgb(0%,34.901961%,25.490196%);fill-opacity:1;stroke-width:0.708661;stroke-linecap:butt;stroke-linejoin:miter;stroke:rgb(0%,0%,0%);stroke-opacity:1;stroke-miterlimit:4;" d="M 129.209761 223.403301 C 130.683561 225.315268 130.515258 228.576172 133.18806 230.726457 C 135.243194 232.381742 135.139205 233.966075 135.018929 234.072922 " transform="matrix(9.353481,0,0,9.359224,-681.096141,-1308.16289)"/>
<path style="fill-rule:evenodd;fill:rgb(0%,34.901961%,25.490196%);fill-opacity:1;stroke-width:0.708661;stroke-linecap:butt;stroke-linejoin:miter;stroke:rgb(0%,0%,0%);stroke-opacity:1;stroke-miterlimit:4;" d="M 130.410016 223.276838 C 131.939778 225.156668 132.993864 228.306969 134.135234 229.148802 C 135.859191 230.420108 136.8214 232.703534 136.975503 232.81038 " transform="matrix(9.353481,0,0,9.359224,-681.096141,-1308.16289)"/>
<path style="fill-rule:evenodd;fill:rgb(0%,34.901961%,25.490196%);fill-opacity:1;stroke-width:0.708661;stroke-linecap:butt;stroke-linejoin:miter;stroke:rgb(0%,0%,0%);stroke-opacity:1;stroke-miterlimit:4;" d="M 131.987804 222.456708 C 133.517566 224.336538 135.014335 228.433432 136.470177 229.716841 C 138.078452 231.133392 137.95734 232.198517 138.0488 232.74694 " transform="matrix(9.353481,0,0,9.359224,-681.096141,-1308.16289)"/>
<path style="fill-rule:evenodd;fill:rgb(0%,34.901961%,25.490196%);fill-opacity:1;stroke-width:0.708661;stroke-linecap:butt;stroke-linejoin:miter;stroke:rgb(0%,0%,0%);stroke-opacity:1;stroke-miterlimit:4;" d="M 133.313765 222.014297 C 134.844361 223.894127 134.613415 225.585723 137.228167 227.885844 C 138.719089 229.1968 139.321305 229.774438 139.501301 231.357936 " transform="matrix(9.353481,0,0,9.359224,-681.096141,-1308.16289)"/>
<path style="fill-rule:evenodd;fill:rgb(0%,34.901961%,25.490196%);fill-opacity:1;stroke-width:0.708661;stroke-linecap:butt;stroke-linejoin:miter;stroke:rgb(0%,0%,0%);stroke-opacity:1;stroke-miterlimit:4;" d="M 135.018929 221.130727 C 135.720122 222.300195 136.61551 224.836129 138.995974 226.938416 C 140.601326 228.357053 140.419659 230.683885 140.574598 230.789897 " transform="matrix(9.353481,0,0,9.359224,-681.096141,-1308.16289)"/>
<path style="fill-rule:evenodd;fill:rgb(0%,34.901961%,25.490196%);fill-opacity:1;stroke-width:0.708661;stroke-linecap:butt;stroke-linejoin:miter;stroke:rgb(0%,0%,0%);stroke-opacity:1;stroke-miterlimit:4;" d="M 136.344471 219.931208 C 137.874233 221.811038 137.945647 224.324852 140.763782 226.370377 C 141.878007 227.179655 142.314007 229.294464 142.468111 229.401728 " transform="matrix(9.353481,0,0,9.359224,-681.096141,-1308.16289)"/>
<path style="fill-rule:evenodd;fill:rgb(0%,34.901961%,25.490196%);fill-opacity:1;stroke-width:0.708661;stroke-linecap:butt;stroke-linejoin:miter;stroke:rgb(0%,0%,0%);stroke-opacity:1;stroke-miterlimit:4;" d="M 138.0488 218.730855 C 138.694867 220.800588 139.244461 222.169141 142.468111 225.107836 C 144.052164 226.551098 143.892631 228.031923 144.109796 228.517323 " transform="matrix(9.353481,0,0,9.359224,-681.096141,-1308.16289)"/>
<path style="fill-rule:evenodd;fill:rgb(0%,34.901961%,25.490196%);fill-opacity:1;stroke-width:0.708661;stroke-linecap:butt;stroke-linejoin:miter;stroke:rgb(0%,0%,0%);stroke-opacity:1;stroke-miterlimit:4;" d="M 138.932913 217.847702 C 140.462257 219.727532 140.960484 221.24926 143.414868 223.719249 C 145.097897 225.412098 145.849205 226.769382 146.004144 226.876228 " transform="matrix(9.353481,0,0,9.359224,-681.096141,-1308.16289)"/>
<path style="fill-rule:evenodd;fill:rgb(0%,34.901961%,25.490196%);fill-opacity:1;stroke-width:0.708661;stroke-linecap:butt;stroke-linejoin:miter;stroke:rgb(0%,0%,0%);stroke-opacity:1;stroke-miterlimit:4;" d="M 140.700303 216.521721 C 142.2309 218.401551 142.77966 220.646579 145.435756 222.898284 C 146.61346 223.896631 148.059278 225.569863 148.213382 225.675875 " transform="matrix(9.353481,0,0,9.359224,-681.096141,-1308.16289)"/>
<path style="fill-rule:evenodd;fill:rgb(0%,34.901961%,25.490196%);fill-opacity:1;stroke-width:0.708661;stroke-linecap:butt;stroke-linejoin:miter;stroke:rgb(0%,0%,0%);stroke-opacity:1;stroke-miterlimit:4;" d="M 142.152386 215.637316 C 143.682148 217.517981 143.710964 219.184118 146.509053 221.256355 C 147.687174 222.129073 149.068679 224.811921 149.224035 224.918768 " transform="matrix(9.353481,0,0,9.359224,-681.096141,-1308.16289)"/>
<path style="fill-rule:evenodd;fill:rgb(0%,34.901961%,25.490196%);fill-opacity:1;stroke-width:0.708661;stroke-linecap:butt;stroke-linejoin:miter;stroke:rgb(0%,0%,0%);stroke-opacity:1;stroke-miterlimit:4;" d="M 143.920194 214.690723 C 145.450791 216.570553 145.275388 218.851057 148.150321 220.814778 C 149.759431 221.913711 150.679877 223.659565 150.676118 223.844877 " transform="matrix(9.353481,0,0,9.359224,-681.096141,-1308.16289)"/>
<path style="fill-rule:evenodd;fill:rgb(0%,34.901961%,25.490196%);fill-opacity:1;stroke-width:0.708661;stroke-linecap:butt;stroke-linejoin:miter;stroke:rgb(0%,0%,0%);stroke-opacity:1;stroke-miterlimit:4;" d="M 145.625358 214.311335 C 147.15512 216.192417 147.7636 217.414891 150.170792 219.931208 C 151.79076 221.624057 151.721017 222.917901 151.875121 223.024747 " transform="matrix(9.353481,0,0,9.359224,-681.096141,-1308.16289)"/>
<path style="fill-rule:evenodd;fill:rgb(0%,34.901961%,25.490196%);fill-opacity:1;stroke-width:0.708661;stroke-linecap:butt;stroke-linejoin:miter;stroke:rgb(0%,0%,0%);stroke-opacity:1;stroke-miterlimit:4;" d="M 147.519707 213.554645 C 149.049468 215.434475 148.403402 216.379398 151.181445 218.478764 C 152.500723 219.476276 153.184794 221.196671 153.454162 221.762206 " transform="matrix(9.353481,0,0,9.359224,-681.096141,-1308.16289)"/>
<path style="fill-rule:evenodd;fill:rgb(0%,34.901961%,25.490196%);fill-opacity:1;stroke-width:0.708661;stroke-linecap:butt;stroke-linejoin:miter;stroke:rgb(0%,0%,0%);stroke-opacity:1;stroke-miterlimit:4;" d="M 148.718709 212.102201 C 150.24847 213.982031 149.615768 214.930293 152.570049 216.774647 C 153.943201 217.631088 155.85676 219.71042 155.410736 220.056836 " transform="matrix(9.353481,0,0,9.359224,-681.096141,-1308.16289)"/>
<path style="fill-rule:evenodd;fill:rgb(0%,34.901961%,25.490196%);fill-opacity:1;stroke-width:0.708661;stroke-linecap:butt;stroke-linejoin:miter;stroke:rgb(0%,0%,0%);stroke-opacity:1;stroke-miterlimit:4;" d="M 149.918129 210.713197 C 151.448725 212.593027 150.863215 213.782528 153.769469 215.700756 C 155.108376 216.584744 156.957203 218.075586 156.98936 218.794295 " transform="matrix(9.353481,0,0,9.359224,-681.096141,-1308.16289)"/>
<path style="fill-rule:evenodd;fill:rgb(0%,34.901961%,25.490196%);fill-opacity:1;stroke-width:0.708661;stroke-linecap:butt;stroke-linejoin:miter;stroke:rgb(0%,0%,0%);stroke-opacity:1;stroke-miterlimit:4;" d="M 151.243671 209.198565 C 152.774268 211.078395 151.751504 212.267062 154.843184 213.869759 C 156.927969 214.950744 158.810206 217.3214 158.63021 217.594777 " transform="matrix(9.353481,0,0,9.359224,-681.096141,-1308.16289)"/>
<path style="fill-rule:evenodd;fill:rgb(0%,34.901961%,25.490196%);fill-opacity:1;stroke-width:0.708661;stroke-linecap:butt;stroke-linejoin:miter;stroke:rgb(0%,0%,0%);stroke-opacity:1;stroke-miterlimit:4;" d="M 152.506988 207.556218 C 153.248273 210.675634 154.714555 212.195692 157.557748 213.365159 C 159.28254 214.074687 160.339968 216.366877 160.398853 216.521721 " transform="matrix(9.353481,0,0,9.359224,-681.096141,-1308.16289)"/>
<path style="fill-rule:evenodd;fill:rgb(0%,34.901961%,25.490196%);fill-opacity:1;stroke-width:0.708661;stroke-linecap:butt;stroke-linejoin:miter;stroke:rgb(0%,0%,0%);stroke-opacity:1;stroke-miterlimit:4;" d="M 153.70599 206.546602 C 155.235751 208.426432 155.970772 211.497433 159.388617 212.165641 C 160.945107 212.469068 160.938842 215.152333 161.092946 215.25918 " transform="matrix(9.353481,0,0,9.359224,-681.096141,-1308.16289)"/>
<path style="fill-rule:evenodd;fill:rgb(0%,34.901961%,25.490196%);fill-opacity:1;stroke-width:0.708661;stroke-linecap:butt;stroke-linejoin:miter;stroke:rgb(0%,0%,0%);stroke-opacity:1;stroke-miterlimit:4;" d="M 154.779705 205.347084 C 156.309466 207.226914 157.382345 209.941064 158.883291 210.334643 C 161.680127 211.066708 163.071655 213.262487 162.860336 213.491205 " transform="matrix(9.353481,0,0,9.359224,-681.096141,-1308.16289)"/>
<path style="fill-rule:evenodd;fill:rgb(0%,34.901961%,25.490196%);fill-opacity:1;stroke-width:0.708661;stroke-linecap:butt;stroke-linejoin:miter;stroke:rgb(0%,0%,0%);stroke-opacity:1;stroke-miterlimit:4;" d="M 155.6634 204.399656 C 157.193161 206.279486 159.130107 209.000732 160.587619 208.945639 C 163.571552 208.833367 163.960779 211.459453 164.060591 211.786253 " transform="matrix(9.353481,0,0,9.359224,-681.096141,-1308.16289)"/>
<path style="fill-rule:evenodd;fill:rgb(0%,34.901961%,25.490196%);fill-opacity:1;stroke-width:0.708661;stroke-linecap:butt;stroke-linejoin:miter;stroke:rgb(0%,0%,0%);stroke-opacity:1;stroke-miterlimit:4;" d="M 157.684288 202.821584 C 159.21405 204.701414 159.998768 207.149283 161.91358 207.493195 C 163.712292 207.816239 164.79937 210.154757 164.881225 210.334643 " transform="matrix(9.353481,0,0,9.359224,-681.096141,-1308.16289)"/>
</g>
</svg>
