<?xml version="1.0" encoding="UTF-8"?>
<svg xmlns="http://www.w3.org/2000/svg" xmlns:xlink="http://www.w3.org/1999/xlink" width="1023pt" height="853pt" viewBox="0 0 1023 853" version="1.1">
<defs>
<radialGradient id="radial0" gradientUnits="userSpaceOnUse" cx="214.09" cy="283.62" fx="214.09" fy="283.62" r="79.784" gradientTransform="matrix(2.368056,0,0,2.369444,0,0)">
<stop offset="0" style="stop-color:rgb(100%,100%,100%);stop-opacity:1;"/>
<stop offset="1" style="stop-color:rgb(0%,0%,0%);stop-opacity:1;"/>
</radialGradient>
<radialGradient id="radial1" gradientUnits="userSpaceOnUse" cx="186.45" cy="280.07" fx="186.45" fy="280.07" r="135.21" gradientTransform="matrix(1.649114,0,0,2.369444,155.287611,0)">
<stop offset="0" style="stop-color:rgb(100%,100%,100%);stop-opacity:1;"/>
<stop offset="1" style="stop-color:rgb(0%,0%,0%);stop-opacity:1;"/>
</radialGradient>
<radialGradient id="radial2" gradientUnits="userSpaceOnUse" cx="-162.38" cy="-95.898" fx="-162.38" fy="-95.898" r="466.2" gradientTransform="matrix(2.368056,0,0,2.369444,0,0)">
<stop offset="0" style="stop-color:rgb(100%,100%,100%);stop-opacity:1;"/>
<stop offset="1" style="stop-color:rgb(0%,0%,0%);stop-opacity:1;"/>
</radialGradient>
<radialGradient id="radial3" gradientUnits="userSpaceOnUse" cx="25.344" cy="32.737" fx="25.344" fy="32.737" r="403.53" >
<stop offset="0" style="stop-color:rgb(100%,100%,100%);stop-opacity:1;"/>
<stop offset="1" style="stop-color:rgb(0%,0%,0%);stop-opacity:1;"/>
</radialGradient>
<radialGradient id="radial4" gradientUnits="userSpaceOnUse" cx="214.09" cy="310.34" fx="214.09" fy="310.34" r="76.748" gradientTransform="matrix(2.368056,0,0,2.369444,0,0)">
<stop offset="0" style="stop-color:rgb(100%,100%,100%);stop-opacity:1;"/>
<stop offset="1" style="stop-color:rgb(0%,0%,0%);stop-opacity:1;"/>
</radialGradient>
</defs>
<g id="surface1">
<path style=" stroke:none;fill-rule:nonzero;fill:url(#radial0);" d="M 260.9375 754.527344 L 762.085938 754.527344 C 762.085938 754.527344 677.738281 713.757812 511.523438 713.757812 C 345.285156 713.757812 260.9375 754.515625 260.9375 754.515625 Z M 260.9375 754.527344 "/>
<path style=" stroke:none;fill-rule:nonzero;fill:url(#radial1);" d="M 572.808594 638.542969 L 450.183594 638.542969 L 450.183594 728.925781 C 450.183594 728.925781 479.984375 733.925781 511.496094 733.925781 C 543.011719 733.925781 572.808594 728.925781 572.808594 728.925781 L 572.808594 638.53125 Z M 572.808594 638.542969 "/>
<path style=" stroke:none;fill-rule:nonzero;fill:url(#radial2);" d="M 71.53125 79.738281 L 951.476562 79.738281 L 951.476562 642.742188 L 71.53125 642.742188 Z M 71.53125 79.738281 "/>
<path style="fill-rule:nonzero;fill:url(#radial3);stroke-width:0.8866;stroke-linecap:butt;stroke-linejoin:miter;stroke:rgb(0%,0%,0%);stroke-opacity:1;stroke-miterlimit:4;" d="M 56.802603 58.475601 L 375.202346 58.475601 L 375.202346 237.575469 L 56.802603 237.575469 Z M 56.802603 58.475601 " transform="matrix(2.368056,0,0,2.369444,0,0)"/>
<path style=" stroke:none;fill-rule:nonzero;fill:url(#radial4);" d="M 260.9375 754.527344 L 762.085938 754.527344 L 762.085938 773.257812 L 260.9375 773.257812 Z M 260.9375 754.527344 "/>
<path style="fill-rule:nonzero;fill:rgb(80%,80%,80%);fill-opacity:1;stroke-width:0.777;stroke-linecap:butt;stroke-linejoin:miter;stroke:rgb(94.901961%,94.901961%,94.901961%);stroke-opacity:1;stroke-miterlimit:4;" d="M 223.408174 252.640314 C 223.408174 256.732122 220.090909 260.047443 216 260.047443 C 211.909091 260.047443 208.591826 256.732122 208.591826 252.640314 C 208.591826 248.548505 211.909091 245.231536 216 245.231536 C 220.090909 245.231536 223.408174 248.548505 223.408174 252.640314 Z M 223.408174 252.640314 " transform="matrix(2.368056,0,0,2.369444,0,0)"/>
<path style=" stroke:none;fill-rule:nonzero;fill:rgb(94.901961%,94.901961%,94.901961%);fill-opacity:1;" d="M 522.515625 598.617188 C 522.515625 604.703125 517.582031 609.636719 511.5 609.636719 C 505.417969 609.636719 500.484375 604.703125 500.484375 598.617188 C 500.484375 592.53125 505.417969 587.597656 511.5 587.597656 C 517.582031 587.597656 522.515625 592.53125 522.515625 598.617188 Z M 522.515625 598.617188 "/>
</g>
</svg>
