<?xml version="1.0" encoding="UTF-8" standalone="no"?>
<!-- Created with Inkscape (http://www.inkscape.org/) -->
<svg xmlns:inkscape="http://www.inkscape.org/namespaces/inkscape" xmlns:rdf="http://www.w3.org/1999/02/22-rdf-syntax-ns#" xmlns="http://www.w3.org/2000/svg" xmlns:sodipodi="http://sodipodi.sourceforge.net/DTD/sodipodi-0.dtd" xmlns:ns1="http://sozi.baierouge.fr" xmlns:cc="http://creativecommons.org/ns#" xmlns:xlink="http://www.w3.org/1999/xlink" xmlns:dc="http://purl.org/dc/elements/1.1/" id="svg2" sodipodi:docname="number-10.svg" inkscape:export-filename="number-10.png" viewBox="0 0 550 450" inkscape:export-xdpi="90" version="1.1" inkscape:export-ydpi="90" inkscape:version="0.48.4 r9939">
  <defs id="defs4">
    <filter id="filter3823" inkscape:collect="always" color-interpolation-filters="sRGB">
      <feGaussianBlur id="feGaussianBlur3825" stdDeviation="1.548125" inkscape:collect="always"/>
    </filter>
    <filter id="filter3858" height="1.9768" width="1.3618" color-interpolation-filters="sRGB" y="-.48840" x="-.18089" inkscape:collect="always">
      <feGaussianBlur id="feGaussianBlur3860" stdDeviation="5.9777395" inkscape:collect="always"/>
    </filter>
    <filter id="filter5777" color-interpolation-filters="sRGB" inkscape:collect="always">
      <feGaussianBlur id="feGaussianBlur5779" stdDeviation="0.76491902" inkscape:collect="always"/>
    </filter>
    <filter id="filter4097" width="1.3258" y="-0.696" x="-.16289" height="2.392" color-interpolation-filters="sRGB" inkscape:collect="always">
      <feGaussianBlur id="feGaussianBlur4099" stdDeviation="6.38" inkscape:collect="always"/>
    </filter>
    <linearGradient id="linearGradient4030" y2="634.26" gradientUnits="userSpaceOnUse" x2="414.18" gradientTransform="matrix(1.0504 0 0 1.0504 -181.29 306.64)" y1="365" x1="414.18" inkscape:collect="always">
      <stop id="stop3797" style="stop-color:#ff0000" offset="0"/>
      <stop id="stop3799" style="stop-color:#800000" offset="1"/>
    </linearGradient>
    <linearGradient id="linearGradient4032" y2="354.22" gradientUnits="userSpaceOnUse" x2="416.14" gradientTransform="matrix(1.0504 0 0 1.0504 -181.29 304.64)" y1="291.56" x1="393.62" inkscape:collect="always">
      <stop id="stop3805" style="stop-color:#ffffff" offset="0"/>
      <stop id="stop3807" style="stop-color:#ffffff;stop-opacity:0" offset="1"/>
    </linearGradient>
    <linearGradient id="linearGradient4034" y2="568.53" gradientUnits="userSpaceOnUse" x2="424.95" gradientTransform="translate(-163.41 321.87)" y1="628.39" x1="424.95" inkscape:collect="always">
      <stop id="stop3813" style="stop-color:#ff0000" offset="0"/>
      <stop id="stop3815" style="stop-color:#ff0000;stop-opacity:0" offset="1"/>
    </linearGradient>
    <linearGradient id="linearGradient4036" y2="528.51" gradientUnits="userSpaceOnUse" x2="427.89" gradientTransform="matrix(1.0504 0 0 1.0504 -181.29 306.64)" y1="437.45" x1="431.81" inkscape:collect="always">
      <stop id="stop3846" style="stop-color:#ff0000" offset="0"/>
      <stop id="stop3848" style="stop-color:#ff0000;stop-opacity:0" offset="1"/>
    </linearGradient>
    <linearGradient id="linearGradient5381" y2="975.87" gradientUnits="userSpaceOnUse" x2="243.93" y1="665.87" x1="238.93" inkscape:collect="always">
      <stop id="stop3238" style="stop-color:#ff0000" offset="0"/>
      <stop id="stop3240" style="stop-color:#990000" offset="1"/>
    </linearGradient>
    <linearGradient id="linearGradient5383" y2="728.86" gradientUnits="userSpaceOnUse" x2="231" y1="627.36" x1="231" inkscape:collect="always">
      <stop id="stop5733" style="stop-color:#ffffff" offset="0"/>
      <stop id="stop5735" style="stop-color:#ffffff;stop-opacity:0" offset="1"/>
    </linearGradient>
    <linearGradient id="linearGradient5385" y2="920.36" gradientUnits="userSpaceOnUse" x2="255" y1="972.36" x1="256" inkscape:collect="always">
      <stop id="stop5741" style="stop-color:#ff1401" offset="0"/>
      <stop id="stop5743" style="stop-color:#ff7d76;stop-opacity:0" offset="1"/>
    </linearGradient>
    <linearGradient id="linearGradient5387" y2="212" gradientUnits="userSpaceOnUse" x2="227" y1="-45" x1="332" inkscape:collect="always">
      <stop id="stop5771" style="stop-color:#f01f10" offset="0"/>
      <stop id="stop5773" style="stop-color:#dc0000" offset="1"/>
    </linearGradient>
  </defs>
  <sodipodi:namedview id="base" bordercolor="#666666" inkscape:pageshadow="2" inkscape:window-y="-9" pagecolor="#ffffff" inkscape:window-height="963" inkscape:window-maximized="1" inkscape:zoom="1" inkscape:window-x="-9" showgrid="false" borderopacity="1.0" inkscape:current-layer="layer1" inkscape:cx="133.37385" inkscape:cy="259.5" inkscape:window-width="1280" inkscape:pageopacity="0.0" inkscape:document-units="px"/>
  <g id="layer1" inkscape:label="Layer 1" inkscape:groupmode="layer" transform="translate(0 -602.36)">
    <g id="g5389">
      <g id="g3220" transform="translate(-96 11.807)">
        <path id="rect2992" style="stroke-linejoin:round;color:#000000;stroke:#000000;stroke-linecap:round;stroke-width:12.65;fill:#000000" inkscape:connector-curvature="0" d="m219.24 612.78a6.2754 6.3767 0 0 0 -4.4773 1.8929l-104.15 107.53a6.2754 6.3767 0 0 0 -0.0327 8.933l44.806 46.857a6.2754 6.3767 0 0 0 8.8893 0.0995l48.695-48.451v236.01a6.2754 6.3767 0 0 0 6.2748 6.376h71.67a6.2754 6.3767 0 0 0 6.2748 -6.376v-346.5a6.2754 6.3767 0 0 0 -6.2748 -6.376h-71.67z"/>
        <path id="path3781" style="color:#000000;fill:#ffffff" inkscape:connector-curvature="0" d="m218.55 612.75a6.4057 6.3029 0 0 0 -4.5702 1.871l-106.32 106.29a6.4057 6.3029 0 0 0 -0.0333 8.8297l45.736 46.315a6.4057 6.3029 0 0 0 9.0738 0.0984l49.706-47.891v233.28a6.4057 6.3029 0 0 0 6.405 6.3023h73.157a6.4057 6.3029 0 0 0 6.405 -6.3023v-342.49a6.4057 6.3029 0 0 0 -6.405 -6.3023h-73.157z"/>
        <path id="path3779" style="color:#000000;fill:url(#linearGradient4030)" inkscape:connector-curvature="0" d="m219.87 615.88a6.3029 6.3029 0 0 0 -4.4969 1.871l-104.61 106.29a6.3029 6.3029 0 0 0 -0.0328 8.8297l45.002 46.315a6.3029 6.3029 0 0 0 8.9282 0.0984l48.908-47.891v233.28a6.3029 6.3029 0 0 0 6.3023 6.3023h71.984a6.3029 6.3029 0 0 0 6.3023 -6.3023v-342.49a6.3029 6.3029 0 0 0 -6.3023 -6.3023h-71.984z"/>
        <path id="path3793" style="color:#000000;fill:url(#linearGradient4032)" inkscape:connector-curvature="0" d="m219.86 613.87a6.3029 6.3029 0 0 0 -4.4969 1.871l-38.437 39.061c9.5869-4.4185 20.072-7.8937 31.249-10.208 32.305-6.6902 64.353-2.4501 89.971 9.8145v-34.236a6.3029 6.3029 0 0 0 -6.3023 -6.3023h-71.984z"/>
        <path id="path3783" style="color:#000000;filter:url(#filter3823);fill:url(#linearGradient4034)" inkscape:connector-curvature="0" d="m293.03 880.06c-20.953 19.435-48.733 34.361-80.531 42.562v25.719a6.0006 6.0006 0 0 0 6 6h68.531a6.0006 6.0006 0 0 0 6 -6v-68.281z" transform="matrix(1.0504 0 0 1.0504 -9.644 -31.45)"/>
        <path id="path3827" style="color:#000000;fill:url(#linearGradient4036)" inkscape:connector-curvature="0" d="m298.14 705.88c-9.9004 29.017-31.653 60.899-62.662 88.396-7.1664 6.3548-14.507 12.166-21.927 17.463v19.662c4.6548-2.1697 9.3097-4.4923 13.95-6.9916 29.525-15.901 53.814-35.976 70.638-56.819v-61.71zm0 83.078c-15.562 21.388-38.306 42.389-66.338 59.675-6.0502 3.7308-12.146 7.1492-18.25 10.274v11.259c5.3799-2.8159 10.75-5.8362 16.084-9.1252 29.377-18.115 52.931-40.315 68.504-62.76v-9.3221z"/>
      </g>
      <path id="path3852" sodipodi:rx="39.655766" sodipodi:ry="14.687321" style="opacity:0.44;color:#000000;filter:url(#filter3858);fill:#ff0000" sodipodi:type="arc" d="m464.12 697.91a39.656 14.687 0 1 1 -79.312 0 39.656 14.687 0 1 1 79.312 0z" transform="matrix(1.0504 0 0 .94378 -286.43 368.51)" sodipodi:cy="697.9082" sodipodi:cx="424.46356"/>
      <path id="path4095" sodipodi:rx="47" sodipodi:ry="11" style="opacity:0.44;color:#000000;filter:url(#filter4097);fill:#ff0000" sodipodi:type="arc" d="m275 428a47 11 0 1 1 -94 0 47 11 0 1 1 94 0z" transform="translate(155.07 599.18)" sodipodi:cy="428" sodipodi:cx="228"/>
      <g id="g5688" transform="matrix(.97814 .081794 -.081794 .97814 225.32 .68167)">
        <path id="path5705" d="m220.75 616.16c-57.869 1.2097-104.56 45.254-123.74 95.696-0.02489 0.0618-0.03829 0.12762-0.06322 0.18948-0.008 0.0218-0.02325 0.0413-0.03161 0.0631-33.259 82.842-12.191 186.3 58.523 243.98a13.011 13.011 0 0 0 0.0631 0.0631c40.201 32.255 100.26 40.801 145.63 11.528v0.0316c0.11065-0.0676 0.20543-0.15328 0.31584-0.22109 54.396-33.412 79.183-97.991 78.863-157.91-0.00011-0.0209 0.00012-0.0422 0-0.0631 0.00016-0.0316-0.00015-0.0632 0-0.0947 0.32836-69.558-32.048-143.31-96.423-178.29a13.011 13.011 0 0 0 -0.22109 -0.12633c-19.05-9.8962-40.661-15.578-62.724-14.844-0.0633 0.002-0.12615-0.002-0.18948 0zm3.1267 70.462a13.011 13.011 0 0 0 0.22107 0c34.818-0.90172 66.442 27.402 79.936 60.165a13.011 13.011 0 0 0 0.12635 0.25266c20.674 47.301 13.574 109.81-25.361 144.08a13.011 13.011 0 0 0 -0.0316 0.0316c-25.021 22.177-68.688 19.811-92.191-3.9794a13.011 13.011 0 0 0 -0.53698 -0.53689c-45.39-41.01-53.33-119.61-17.44-169.05 0.0316-0.0419 0.0631-0.0842 0.0947-0.12635 0.009-0.0119 0.0229-0.0198 0.0316-0.0316 13.426-17.755 33.986-30.592 55.144-30.793z" style="stroke-linejoin:round;color:#000000;stroke:#000000;stroke-linecap:square;stroke-width:8.1066;fill:#000000" inkscape:connector-curvature="0"/>
        <path id="path5708" d="m220.12 618.12c-42.911 0.49302-82.031 27.314-104.81 62.312-30.901 48.255-38.436 109.97-24.445 165.16 11.671 46.001 38.941 89.105 79.226 114.87 38.193 23.607 90.232 26.804 128.56 1.5938 47.284-28.819 72.821-83.96 76.531-137.94 4.441-60.429-15.195-123.92-59.375-166.28-25.46-24.65-59.71-41.02-95.68-39.71zm4.6875 65.688c31.487 0.25561 58.499 22.487 73.406 48.688 24.093 43.246 24.123 101.14-5.5083 141.86-11.129 15.696-27.804 27.882-47.242 30.264-24.054 3.6644-49.488-5.1137-65.438-23.375-40.105-40.783-47.611-109.82-18.156-158.78 13.12-21.749 36.779-38.978 62.938-38.656z" style="color:#000000;fill:#ffffff" inkscape:connector-curvature="0"/>
        <path id="path5712" style="color:#000000;fill:url(#linearGradient5381)" inkscape:connector-curvature="0" d="m222.02 618.13c-43.386 0.49846-82.939 27.616-105.97 63.002-31.243 48.789-38.862 111.19-24.715 166.98 11.8 46.509 39.372 90.091 80.103 116.14 38.615 23.868 91.23 27.101 129.98 1.6114 47.807-29.137 73.626-84.888 77.378-139.46 4.4901-61.097-15.363-125.29-60.032-168.12-25.755-24.933-60.385-41.486-96.746-40.158zm4.7394 66.414c31.835 0.25843 59.146 22.736 74.218 49.226 24.359 43.724 24.39 102.26-5.5693 143.43-11.252 15.87-28.112 28.19-47.764 30.599-24.32 3.705-50.035-5.1703-66.161-23.634-40.549-41.234-48.138-111.04-18.357-160.54 13.265-21.99 37.186-39.409 63.634-39.084z"/>
        <path id="path5729" d="m225.38 617.05c-1.1389 0.007-2.2638 0.0208-3.4062 0.0625-43.623 0.50118-83.403 27.796-106.56 63.375-9.9756 15.578-17.536 32.531-22.781 50.219 23.632-28.793 57.821-52.383 99.062-65.469 48.698-15.452 97.833-13.264 137.59 2.75-3.2001-3.609-6.5277-7.1095-10.031-10.469-25.087-24.286-58.57-40.683-93.875-40.469z" style="color:#000000;fill:url(#linearGradient5383)" inkscape:connector-curvature="0"/>
        <path id="path5722" d="m361.34 898.08c-21.784 20.078-49.318 36.344-81.031 46.406-49.029 15.557-98.504 13.249-138.41-3.0625 8.8077 8.9276 18.548 16.913 29.188 23.719 38.827 23.998 91.72 27.254 130.69 1.625 26.66-16.249 46.517-40.743 59.562-68.688z" style="color:#000000;filter:url(#filter5777);fill:url(#linearGradient5385)" inkscape:connector-curvature="0"/>
        <path id="path5751" d="m248.97 78.125c-21.327 0.14929-44.513 3.581-68.219 10.625-35.35 10.504-66.25 27.401-89.375 47.219-1.9348 7.5034-3.4792 15.1-4.5938 22.781 18.442-11.431 39.747-21.1 62.969-28 3.1991-0.95059 6.3858-1.8368 9.5625-2.6562 1.1949-2.3184 2.465-4.6039 3.8125-6.8438 13.265-21.99 37.177-39.388 63.625-39.062 17.839 0.14481 34.266 7.2613 47.906 18.156 39.229 6.2765 67.861 25.58 74.469 54.812 1.4205 6.2843 1.7243 12.726 1.0625 19.25 5.233-13.263 6.799-26.591 3.9375-39.25-8.24-36.425-50.66-57.417-105.16-57.035zm36.812 32.562c5.8952 6.339 11.009 13.375 15.188 20.719 3.693 6.6289 6.8201 13.615 9.375 20.812 6.2674 7.225 10.663 15.567 12.781 24.938 3.2425 14.345 0.84111 29.538-6.1875 44.531-0.1197 0.76168-0.24224 1.522-0.375 2.2812 16.051-21.224 23.282-43.934 18.562-64.812-5.0957-22.544-23.292-39.158-49.344-48.469z" style="color:#000000;fill:url(#linearGradient5387)" transform="translate(0 602.36)" inkscape:connector-curvature="0"/>
      </g>
    </g>
  </g>
  <metadata>
    <rdf:RDF>
      <cc:Work>
        <dc:format>image/svg+xml</dc:format>
        <dc:type rdf:resource="http://purl.org/dc/dcmitype/StillImage"/>
        <cc:license rdf:resource="http://creativecommons.org/licenses/publicdomain/"/>
        <dc:publisher>
          <cc:Agent rdf:about="http://openclipart.org/">
            <dc:title>Openclipart</dc:title>
          </cc:Agent>
        </dc:publisher>
      </cc:Work>
      <cc:License rdf:about="http://creativecommons.org/licenses/publicdomain/">
        <cc:permits rdf:resource="http://creativecommons.org/ns#Reproduction"/>
        <cc:permits rdf:resource="http://creativecommons.org/ns#Distribution"/>
        <cc:permits rdf:resource="http://creativecommons.org/ns#DerivativeWorks"/>
      </cc:License>
    </rdf:RDF>
  </metadata>
</svg>
