<?xml version="1.0" encoding="UTF-8"?>
<svg xmlns="http://www.w3.org/2000/svg" xmlns:xlink="http://www.w3.org/1999/xlink" width="1023pt" height="799pt" viewBox="0 0 1023 799" version="1.1">
<g id="surface1">
<path style="fill-rule:nonzero;fill:rgb(100%,88.235294%,78.039216%);fill-opacity:1;stroke-width:3.154409;stroke-linecap:butt;stroke-linejoin:miter;stroke:rgb(0%,0%,0%);stroke-opacity:1;stroke-miterlimit:4;" d="M -704.037137 387.568659 C -704.811336 384.077851 -706.120672 371.991454 -706.948201 360.71388 C -707.77573 349.439983 -708.849679 335.50616 -709.338841 329.75616 C -710.085457 320.921601 -709.460212 316.831527 -705.31521 303.394027 C -702.030838 292.752483 -698.529469 285.030057 -694.744902 280.074175 C -691.631553 275.99513 -688.038236 270.116454 -686.752808 267.00616 C -681.554084 254.390351 -670.088206 244.928954 -659.893045 244.831528 C -658.830129 244.820498 -648.265338 241.234101 -643.640369 268.248807 C -637.584693 303.596233 -638.971264 351.405057 -638.862766 349.921601 C -635.596784 305.862777 -649.846839 235.734101 -649.201366 231.112778 C -647.158288 216.425278 -640.98308 194.730425 -636.462931 186.346234 C -631.22559 176.640351 -621.339373 168.408734 -611.843014 165.84991 C -607.646521 164.721234 -599.545929 164.491454 -589.062052 165.206528 C -575.944792 166.09991 -569.854177 195.186307 -572.154708 169.78741 C -573.898037 150.59991 -557.354806 133.960205 -542.06942 126.432631 C -515.564575 113.386675 -490.256889 127.105425 -482.275829 158.842557 C -480.962816 164.050278 -479.397866 177.533734 -478.787333 188.807631 C -477.494548 212.780057 -476.409566 216.838881 -471.462779 216.123807 C -465.55422 215.269028 -465.127582 207.213881 -469.811398 184.866454 C -477.476159 148.311307 -475.221601 131.519028 -460.853853 118.077852 C -451.006254 108.870131 -439.737144 105.324175 -423.592966 106.362778 C -409.276709 107.280058 -399.491634 112.511675 -393.947188 122.217558 C -390.964405 127.449175 -381.896522 155.120131 -381.896522 159.00616 C -381.896522 159.452852 -381.186686 159.377484 -380.3187 158.842557 C -379.452552 158.307631 -378.740877 156.105425 -378.740877 153.952852 C -378.740877 144.803955 -373.483307 124.873808 -368.170569 113.894028 C -364.181878 105.651381 -359.299455 98.917925 -352.061332 91.671602 C -338.451233 78.050278 -328.644091 74.033734 -308.553518 73.862778 C -289.476209 73.702852 -278.576728 77.276381 -267.627595 87.280058 C -257.849877 96.213881 -252.869989 105.787411 -241.705699 137.061308 C -228.952553 172.800278 -227.900671 190.952851 -235.979196 236.210204 C -238.151001 248.401381 -240.674046 269.33888 -241.576972 282.734101 C -240.558192 391.167924 -243.586949 335.294763 -239.829966 438.46388 C -240.826679 455.14035 -285.176734 438.436306 -286.491586 445.099909 L -319.552302 445.958365 L -502.656957 443.348071 C -659.153785 441.116453 -699.724789 443.811306 -699.818576 442.24513 C -698.529469 442.770865 -694.643759 470.1091 -704.037137 387.568659 Z M -557.36584 241.515351 C -556.998049 232.112778 -569.537876 177.542925 -571.79979 180.471234 C -575.076806 184.713881 -563.838958 243.94366 -562.608698 248.84991 C -560.749515 256.265351 -557.783282 252.116454 -557.36584 241.515351 Z M -369.275781 235.31866 C -369.275781 231.995131 -379.487492 161.932631 -380.947622 159.432631 C -383.354813 155.311307 -380.697524 207.127484 -377.951966 222.717557 C -383.856847 225.780057 -370.515236 243.559469 -369.275781 235.31866 Z M -369.275781 235.31866 " transform="matrix(2.124169,0,0,2.125,1510.681673,-153.595123)"/>
<path style="fill-rule:nonzero;fill:rgb(98.039216%,97.254902%,89.019608%);fill-opacity:1;stroke-width:3.154409;stroke-linecap:butt;stroke-linejoin:miter;stroke:rgb(0%,0%,0%);stroke-opacity:1;stroke-miterlimit:4;" d="M -355.838543 116.366455 C -355.838543 116.366455 -344.573111 98.338881 -322.038568 96.088881 C -299.505864 93.835205 -281.478597 91.581528 -274.72228 100.592558 C -267.967802 109.609102 -267.967802 111.859102 -267.967802 111.859102 L -270.22236 168.186307 C -270.22236 168.186307 -317.542325 159.175278 -328.807758 168.186307 L -340.07319 177.199175 Z M -355.838543 116.366455 " transform="matrix(2.124169,0,0,2.125,1510.681673,-153.595123)"/>
<path style="fill-rule:nonzero;fill:rgb(98.039216%,97.254902%,89.019608%);fill-opacity:1;stroke-width:3.154409;stroke-linecap:butt;stroke-linejoin:miter;stroke:rgb(0%,0%,0%);stroke-opacity:1;stroke-miterlimit:4;" d="M -456.49921 134.206528 C -456.49921 134.206528 -450.623752 124.807631 -438.869158 123.631161 C -427.116402 122.456528 -417.71383 121.280058 -414.190394 125.980425 C -410.66328 130.682631 -410.66328 131.859102 -410.66328 131.859102 L -411.838372 161.237778 C -411.838372 161.237778 -436.518974 156.53741 -442.39811 161.237778 L -448.27173 165.936307 Z M -456.49921 134.206528 " transform="matrix(2.124169,0,0,2.125,1510.681673,-153.595123)"/>
<path style="fill-rule:nonzero;fill:rgb(98.039216%,97.254902%,89.019608%);fill-opacity:1;stroke-width:3.154409;stroke-linecap:butt;stroke-linejoin:miter;stroke:rgb(0%,0%,0%);stroke-opacity:1;stroke-miterlimit:4;" d="M -553.390021 156.745131 C -553.390021 156.745131 -547.514563 147.342557 -535.759968 146.167925 C -524.010891 144.991455 -514.604641 143.81866 -511.081205 148.519028 C -507.554091 153.217557 -507.554091 154.394028 -507.554091 154.394028 L -508.729183 183.776381 C -508.729183 183.776381 -533.413463 179.074175 -539.287082 183.776381 L -545.166218 188.47491 Z M -553.390021 156.745131 " transform="matrix(2.124169,0,0,2.125,1510.681673,-153.595123)"/>
<path style="fill-rule:nonzero;fill:rgb(98.039216%,97.254902%,89.019608%);fill-opacity:1;stroke-width:3.154409;stroke-linecap:butt;stroke-linejoin:miter;stroke:rgb(0%,0%,0%);stroke-opacity:1;stroke-miterlimit:4;" d="M -627.74445 199.550278 C -627.74445 199.550278 -621.865314 190.147704 -610.116237 188.971234 C -598.361642 187.796601 -588.95907 186.620131 -585.431956 191.324175 C -581.90852 196.022704 -581.90852 197.199175 -581.90852 197.199175 L -583.085451 226.577851 C -583.085451 226.577851 -607.764214 221.877484 -613.639672 226.577851 L -619.518809 231.280057 Z M -627.74445 199.550278 " transform="matrix(2.124169,0,0,2.125,1510.681673,-153.595123)"/>
<path style="fill-rule:nonzero;fill:rgb(98.039216%,97.254902%,89.019608%);fill-opacity:1;stroke-width:3.154409;stroke-linecap:butt;stroke-linejoin:miter;stroke:rgb(0%,0%,0%);stroke-opacity:1;stroke-miterlimit:4;" d="M -680.533465 267.019028 C -680.533465 267.019028 -676.721313 260.917925 -669.093332 260.155057 C -661.467189 259.390351 -655.36554 258.627483 -653.077881 261.678954 C -650.788383 264.730425 -650.788383 265.491454 -650.788383 265.491454 L -651.553388 284.561307 C -651.553388 284.561307 -667.568839 281.511675 -671.380991 284.561307 L -675.198659 287.612777 Z M -680.533465 267.019028 " transform="matrix(2.124169,0,0,2.125,1510.681673,-153.595123)"/>
</g>
</svg>
