<?xml version="1.0" encoding="UTF-8" standalone="no"?>
<svg
   xmlns:dc="http://purl.org/dc/elements/1.1/"
   xmlns:cc="http://creativecommons.org/ns#"
   xmlns:rdf="http://www.w3.org/1999/02/22-rdf-syntax-ns#"
   xmlns:svg="http://www.w3.org/2000/svg"
   xmlns="http://www.w3.org/2000/svg"
   xmlns:sodipodi="http://sodipodi.sourceforge.net/DTD/sodipodi-0.dtd"
   xmlns:inkscape="http://www.inkscape.org/namespaces/inkscape"
   width="602.42719"
   height="470.36893"
   viewBox="0 0 481.94175 376.29514"
   version="1.1"
   id="svg2"
   inkscape:version="0.48.4 r9939"
   sodipodi:docname="toes.svg">
  <metadata
     id="metadata21">
    <rdf:RDF>
      <cc:Work
         rdf:about="">
        <dc:format>image/svg+xml</dc:format>
        <dc:type
           rdf:resource="http://purl.org/dc/dcmitype/StillImage" />
        <dc:title></dc:title>
      </cc:Work>
    </rdf:RDF>
  </metadata>
  <defs
     id="defs19">
    <marker
       inkscape:stockid="Arrow2Mend"
       orient="auto"
       refY="0"
       refX="0"
       id="Arrow2Mend"
       style="overflow:visible">
      <path
         id="path3803"
         style="fill-rule:evenodd;stroke-width:0.625;stroke-linejoin:round"
         d="M 8.7185878,4.0337352 -2.2072895,0.01601326 8.7185884,-4.0017078 c -1.7454984,2.3720609 -1.7354408,5.6174519 -6e-7,8.035443 z"
         transform="scale(-0.6,-0.6)"
         inkscape:connector-curvature="0" />
    </marker>
    <marker
       inkscape:stockid="Arrow2Lend"
       orient="auto"
       refY="0"
       refX="0"
       id="Arrow2Lend"
       style="overflow:visible">
      <path
         id="path3797"
         style="fill-rule:evenodd;stroke-width:0.625;stroke-linejoin:round"
         d="M 8.7185878,4.0337352 -2.2072895,0.01601326 8.7185884,-4.0017078 c -1.7454984,2.3720609 -1.7354408,5.6174519 -6e-7,8.035443 z"
         transform="matrix(-1.1,0,0,-1.1,-1.1,0)"
         inkscape:connector-curvature="0" />
    </marker>
    <marker
       inkscape:stockid="Arrow2Mend"
       orient="auto"
       refY="0"
       refX="0"
       id="Arrow2Mend-0"
       style="overflow:visible">
      <path
         inkscape:connector-curvature="0"
         id="path3803-5"
         style="fill-rule:evenodd;stroke-width:0.625;stroke-linejoin:round"
         d="M 8.7185878,4.0337352 -2.2072895,0.01601326 8.7185884,-4.0017078 c -1.7454984,2.3720609 -1.7354408,5.6174519 -6e-7,8.035443 z"
         transform="scale(-0.6,-0.6)" />
    </marker>
    <marker
       inkscape:stockid="Arrow2Mend"
       orient="auto"
       refY="0"
       refX="0"
       id="Arrow2Mend-08"
       style="overflow:visible">
      <path
         inkscape:connector-curvature="0"
         id="path3803-4"
         style="fill-rule:evenodd;stroke-width:0.625;stroke-linejoin:round"
         d="M 8.7185878,4.0337352 -2.2072895,0.01601326 8.7185884,-4.0017078 c -1.7454984,2.3720609 -1.7354408,5.6174519 -6e-7,8.035443 z"
         transform="scale(-0.6,-0.6)" />
    </marker>
    <marker
       inkscape:stockid="Arrow2Mend"
       orient="auto"
       refY="0"
       refX="0"
       id="Arrow2Mend-5"
       style="overflow:visible">
      <path
         inkscape:connector-curvature="0"
         id="path3803-2"
         style="fill-rule:evenodd;stroke-width:0.625;stroke-linejoin:round"
         d="M 8.7185878,4.0337352 -2.2072895,0.01601326 8.7185884,-4.0017078 c -1.7454984,2.3720609 -1.7354408,5.6174519 -6e-7,8.035443 z"
         transform="scale(-0.6,-0.6)" />
    </marker>
    <marker
       inkscape:stockid="Arrow2Mend"
       orient="auto"
       refY="0"
       refX="0"
       id="Arrow2Mend-3"
       style="overflow:visible">
      <path
         inkscape:connector-curvature="0"
         id="path3803-52"
         style="fill-rule:evenodd;stroke-width:0.625;stroke-linejoin:round"
         d="M 8.7185878,4.0337352 -2.2072895,0.01601326 8.7185884,-4.0017078 c -1.7454984,2.3720609 -1.7354408,5.6174519 -6e-7,8.035443 z"
         transform="scale(-0.6,-0.6)" />
    </marker>
  </defs>
  <sodipodi:namedview
     pagecolor="#ffffff"
     bordercolor="#666666"
     borderopacity="1"
     objecttolerance="10"
     gridtolerance="10"
     guidetolerance="10"
     inkscape:pageopacity="0"
     inkscape:pageshadow="2"
     inkscape:window-width="1362"
     inkscape:window-height="668"
     id="namedview17"
     showgrid="false"
     inkscape:zoom="0.32495697"
     inkscape:cx="62.399484"
     inkscape:cy="358.44178"
     inkscape:window-x="0"
     inkscape:window-y="18"
     inkscape:window-maximized="0"
     inkscape:current-layer="svg2"
     fit-margin-top="0"
     fit-margin-left="0"
     fit-margin-right="0"
     fit-margin-bottom="0" />
  <g
     id="g5289"
     transform="translate(711.18699,-72.280059)">
    <path
       inkscape:connector-curvature="0"
       style="fill:#ffe1c7;fill-opacity:1;fill-rule:nonzero;stroke:#000000;stroke-width:3.15440893;stroke-linecap:butt;stroke-linejoin:miter;stroke-miterlimit:4;stroke-opacity:1"
       d="m -704.03792,387.56944 c -0.77344,-3.4922 -2.08204,-15.57813 -2.91016,-26.85548 -0.82813,-11.27343 -1.90234,-25.20704 -2.39063,-30.95703 -0.74609,-8.83593 -0.12109,-12.92578 4.02344,-26.36329 3.28516,-10.64062 6.78516,-18.36327 10.57032,-23.32031 3.11328,-4.07812 6.70703,-9.95702 7.99219,-13.0664 5.19921,-12.61719 16.66406,-22.07813 26.85937,-22.17579 1.0625,-0.011 11.62891,-3.59766 16.25391,23.41798 6.05469,35.34766 4.66797,83.15625 4.77735,81.67187 3.26562,-44.05858 -10.98438,-114.18751 -10.33985,-118.80859 2.04297,-14.6875 8.21875,-36.38282 12.73828,-44.76563 5.23829,-9.70703 15.12501,-17.9375 24.6211,-20.4961 4.19531,-1.1289 12.29688,-1.35937 22.78125,-0.64453 13.11719,0.89453 19.20704,29.98047 16.90626,4.58203 -1.74219,-19.1875 14.80078,-35.82812 30.08594,-43.35547 26.5039,-13.04687 51.81251,0.67188 59.79297,32.41016 1.3125,5.20703 2.87891,18.69141 3.48829,29.96485 1.29296,23.97265 2.3789,28.03125 7.32421,27.3164 5.91016,-0.85546 6.33595,-8.91015 1.65235,-31.25781 -7.66406,-36.55469 -5.41016,-53.34766 8.95704,-66.78907 9.84764,-9.20703 21.11718,-12.7539 37.26171,-11.71484 14.31641,0.91797 24.10156,6.14844 29.64454,15.85547 2.98438,5.23047 12.05078,32.90234 12.05078,36.78906 0,0.44532 0.71094,0.3711 1.57813,-0.16406 0.86718,-0.53515 1.57813,-2.73828 1.57813,-4.89062 0,-9.14844 5.2578,-29.07813 10.5703,-40.0586 3.98828,-8.24219 8.8711,-14.976562 16.10938,-22.222657 13.60939,-13.621094 23.41798,-17.636719 43.50782,-17.808594 19.07813,-0.160157 29.97657,3.414063 40.92579,13.417969 9.77734,8.933594 14.75781,18.507812 25.92188,49.781252 12.7539,35.73828 13.80468,53.89063 5.72657,99.14844 -2.17188,12.19141 -4.69533,33.1289 -5.59768,46.52345 1.01911,108.43447 -2.01023,52.56206 1.7466,155.7312 -0.9961,16.67579 -45.34563,-0.0285 -46.66204,6.63554 l -33.06029,0.85824 -183.10486,-2.61119 c -156.49583,-2.23174 -197.06644,0.46415 -197.16019,-1.10226 1.28826,0.52522 5.17334,27.8646 -4.2202,-54.67559 z m 146.67189,-146.05471 c 0.36719,-9.40233 -12.17188,-63.97265 -14.43359,-61.04296 -3.27735,4.24219 7.96093,63.47266 9.1914,68.3789 1.85938,7.41407 4.82422,3.26563 5.24219,-7.33594 z m 188.08986,-6.19531 c 0,-3.32421 -10.21093,-73.38671 -11.67187,-75.88671 -2.40624,-4.1211 0.25,47.69531 2.9961,63.28515 -5.90561,3.06152 7.43714,20.84223 8.67577,12.60156 z"
       id="path5-1"
       sodipodi:nodetypes="ccccccccccccccccccccccsssccccccccccsccccsccccc" />
    <path
       inkscape:connector-curvature="0"
       style="fill:#faf8e3;fill-opacity:1;fill-rule:nonzero;stroke:#000000;stroke-width:3.15440893;stroke-linecap:butt;stroke-linejoin:miter;stroke-miterlimit:4;stroke-opacity:1"
       d="m -355.83866,116.3663 c 0,0 11.26562,-18.027347 33.80079,-20.277348 22.53125,-2.253906 40.5586,-4.507812 47.3164,4.503908 6.75392,9.01562 6.75392,11.26562 6.75392,11.26562 l -2.25392,56.32813 c 0,0 -47.32031,-9.01172 -58.58594,0 l -11.26562,9.01172 z m 0,0"
       id="path7-0" />
    <path
       inkscape:connector-curvature="0"
       style="fill:#faf8e3;fill-opacity:1;fill-rule:nonzero;stroke:#000000;stroke-width:3.15440893;stroke-linecap:butt;stroke-linejoin:miter;stroke-miterlimit:4;stroke-opacity:1"
       d="m -456.49883,134.20614 c 0,0 5.875,-9.39844 17.62891,-10.57422 11.75391,-1.17578 21.15626,-2.35156 24.67968,2.34766 3.52735,4.70312 3.52735,5.8789 3.52735,5.8789 l -1.17578,29.37891 c 0,0 -24.67969,-4.69922 -30.55859,0 l -5.87501,4.69922 z m 0,0"
       id="path9-6" />
    <path
       inkscape:connector-curvature="0"
       style="fill:#faf8e3;fill-opacity:1;fill-rule:nonzero;stroke:#000000;stroke-width:3.15440893;stroke-linecap:butt;stroke-linejoin:miter;stroke-miterlimit:4;stroke-opacity:1"
       d="m -553.38947,156.7452 c 0,0 5.87501,-9.40234 17.6289,-10.57812 11.75002,-1.17578 21.15626,-2.34766 24.67971,2.35156 3.52734,4.69922 3.52734,5.875 3.52734,5.875 l -1.17578,29.38282 c 0,0 -24.6836,-4.70313 -30.55861,0 l -5.8789,4.69921 z m 0,0"
       id="path11-6" />
    <path
       inkscape:connector-curvature="0"
       style="fill:#faf8e3;fill-opacity:1;fill-rule:nonzero;stroke:#000000;stroke-width:3.15440893;stroke-linecap:butt;stroke-linejoin:miter;stroke-miterlimit:4;stroke-opacity:1"
       d="m -627.74495,199.54989 c 0,0 5.87891,-9.40234 17.62891,-10.57812 11.75391,-1.17578 21.15626,-2.35156 24.6836,2.35156 3.52344,4.69922 3.52344,5.875 3.52344,5.875 l -1.17578,29.37891 c 0,0 -24.67969,-4.69922 -30.55469,0 l -5.87891,4.70313 z m 0,0"
       id="path13-2" />
    <path
       inkscape:connector-curvature="0"
       style="fill:#faf8e3;fill-opacity:1;fill-rule:nonzero;stroke:#000000;stroke-width:3.15440893;stroke-linecap:butt;stroke-linejoin:miter;stroke-miterlimit:4;stroke-opacity:1"
       d="m -680.53401,267.01865 c 0,0 3.8125,-6.10157 11.4414,-6.86328 7.625,-0.76563 13.72657,-1.52734 16.01563,1.52343 2.28906,3.05078 2.28906,3.8125 2.28906,3.8125 l -0.76562,19.07032 c 0,0 -16.01563,-3.05078 -19.82813,0 l -3.81641,3.05077 z m 0,0"
       id="path15-6" />
  </g>
</svg>
