<?xml version="1.0" encoding="UTF-8" standalone="no"?>
<svg
   xmlns:dc="http://purl.org/dc/elements/1.1/"
   xmlns:cc="http://creativecommons.org/ns#"
   xmlns:rdf="http://www.w3.org/1999/02/22-rdf-syntax-ns#"
   xmlns:svg="http://www.w3.org/2000/svg"
   xmlns="http://www.w3.org/2000/svg"
   xmlns:sodipodi="http://sodipodi.sourceforge.net/DTD/sodipodi-0.dtd"
   xmlns:inkscape="http://www.inkscape.org/namespaces/inkscape"
   id="svg2"
   viewBox="0 0 303.55 368.39"
   version="1.1"
   inkscape:version="0.91 r13725"
   sodipodi:docname="toes.svg">
  <defs
     id="defs15" />
  <sodipodi:namedview
     pagecolor="#ffffff"
     bordercolor="#666666"
     borderopacity="1"
     objecttolerance="10"
     gridtolerance="10"
     guidetolerance="10"
     inkscape:pageopacity="0"
     inkscape:pageshadow="2"
     inkscape:window-width="1855"
     inkscape:window-height="1056"
     id="namedview13"
     showgrid="false"
     inkscape:zoom="0.6406254"
     inkscape:cx="151.77499"
     inkscape:cy="121.75602"
     inkscape:window-x="65"
     inkscape:window-y="24"
     inkscape:window-maximized="1"
     inkscape:current-layer="svg2" />
  <title
     id="title2824">Toes</title>
  <g
     id="g4156">
    <path
       id="path2856"
       d="m 13.8,367.64 c 0.0175,-0.4125 0.60661,-1.506 1.3091,-2.4301 1.4307,-1.8818 0.88207,-8.6952 -1.7972,-22.32 -0.86526,-4.4 -2.4622,-15.2 -3.5487,-23.999 -1.0865,-8.7994 -2.9166,-22.074 -4.0667,-29.5 -2.8055,-18.112 -3.8006,-46.62 -2.3994,-68.741 0.68522,-10.818 0.77522,-19.27 0.2314,-21.732 -0.48947,-2.2153 -1.3194,-9.8779 -1.8442,-17.028 -0.52483,-7.15 -1.2066,-15.983 -1.5152,-19.63 -0.47386,-5.6009 -0.0778,-8.1953 2.5515,-16.716 2.0819,-6.7467 4.3005,-11.642 6.7007,-14.787 1.9736,-2.5855 4.2532,-6.3134 5.0659,-8.2841 3.2985,-7.9989 10.565,-13.998 17.031,-14.061 0.67292,-0.007 7.3714,-2.28 10.305,14.849 3.839,22.413 2.9588,52.726 3.0286,51.785 2.0707,-27.935 -6.965,-72.402 -6.557,-75.333 1.2956,-9.311 5.2111,-23.069 8.0777,-28.383 3.3207,-6.156 9.5891,-11.375 15.608,-12.996 2.6604,-0.71636 7.7976,-0.86173 14.444,-0.40873 8.3168,0.56687 12.179,19.009 10.719,2.906 -1.1032,-12.168 9.3835,-22.719 19.076,-27.491 16.803,-8.2719 32.847,0.42594 37.909,20.551 0.83004,3.3 1.8245,11.85 2.2099,19 0.81923,15.199 1.5092,17.772 4.6439,17.319 3.7473,-0.54114 4.0172,-5.6501 1.0472,-19.819 -4.8585,-23.178 -3.4302,-33.827 5.6801,-42.349 6.242,-5.8386 13.387,-8.0856 23.623,-7.4287 9.0777,0.58257 15.28,3.9006 18.794,10.054 1.8934,3.3159 7.6416,20.863 7.6416,23.327 0,0.2829 0.45,0.23626 1,-0.10366 0.55,-0.33992 1,-1.7354 1,-3.1012 0,-5.8016 3.3348,-18.437 6.7032,-25.399 2.5291,-5.2269 5.6244,-9.4978 10.213,-14.091 8.6275,-8.6374 14.848,-11.184 27.584,-11.291 12.095,-0.10193 19.005,2.1638 25.946,8.507 6.1987,5.6652 9.3586,11.734 16.435,31.563 8.0874,22.662 8.7523,34.17 3.6324,62.867 -1.3791,7.7299 -2.9768,21.005 -3.5505,29.5 -4.0865,60.512 -4.9507,70.995 -6.4254,77.946 -2.9533,13.919 -5.6832,26.176 -9.4658,42.5 -6.0217,25.988 -8.3364,43.798 -10.592,81.5 -0.63258,10.572 -2.2623,27.023 -3.0958,31.25 l -0.54223,2.75 -124.92,0 c -99.228,0 -124.94,-0.25709 -125,-1.25 -0.0632,-1 -0.17983,-1 -0.58334,0 -0.54269,1.3449 -2.3584,1.7386 -2.3059,0.5 z M 96.519,106.31 c 0.23309,-5.9628 -7.7163,-40.564 -9.1506,-38.706 -2.0781,2.6911 5.0475,40.247 5.828,43.357 1.1799,4.701 3.0598,2.0697 3.3225,-4.6504 z m 119.25,-3.9289 c 0,-2.1077 -6.4732,-46.532 -7.3982,-48.116 -1.5254,-2.6135 0.15721,30.241 1.8982,40.125 0.8235,4.675 1.4979,8.6125 1.4986,8.75 7.5e-4,0.1375 0.90137,0.25 2.0014,0.25 1.10003,0 2,-0.4537 2,-1.0082 z"
       style="fill:#ffe2c9;fill-opacity:1;stroke:#000000;stroke-width:2"
       inkscape:connector-curvature="0" />
    <g
       style="fill:#faf8e3;fill-opacity:1"
       id="g4149">
      <path
         inkscape:connector-curvature="0"
         style="fill:#faf8e3;fill-opacity:1;stroke:#000000;stroke-width:2"
         d="m 224.29,26.957 c 0,0 7.1428,-11.429 21.429,-12.857 14.286,-1.4286 25.714,-2.8571 30,2.8571 4.28,5.715 4.28,7.143 4.28,7.143 l -1.4286,35.714 c 0,0 -30,-5.7143 -37.143,0 l -7.1428,5.7143 z"
         id="path2985" />
      <path
         inkscape:connector-curvature="0"
         style="fill:#faf8e3;fill-opacity:1;stroke:#000000;stroke-width:2"
         d="m 160.47,38.27 c 0,0 3.7258,-5.9612 11.177,-6.7064 7.4515,-0.74516 13.413,-1.4903 15.648,1.4903 2.2355,2.9806 2.2355,3.7258 2.2355,3.7258 l -0.74516,18.629 c 0,0 -15.648,-2.9806 -19.374,0 l -3.7258,2.9806 z"
         id="path2987" />
      <path
         inkscape:connector-curvature="0"
         style="fill:#faf8e3;fill-opacity:1;stroke:#000000;stroke-width:2"
         d="m 99.04,52.56 c 0,0 3.7258,-5.9612 11.177,-6.7064 7.4515,-0.74516 13.413,-1.4903 15.648,1.4903 2.2355,2.9806 2.2355,3.7258 2.2355,3.7258 l -0.74516,18.629 c 0,0 -15.648,-2.9806 -19.374,0 l -3.7258,2.9806 z"
         id="path2989" />
      <path
         inkscape:connector-curvature="0"
         style="fill:#faf8e3;fill-opacity:1;stroke:#000000;stroke-width:2"
         d="m 51.9,79.7 c 0,0 3.7258,-5.9612 11.177,-6.7064 7.4515,-0.74516 13.413,-1.4903 15.648,1.4903 2.2355,2.9806 2.2355,3.7258 2.2355,3.7258 l -0.74516,18.629 c 0,0 -15.648,-2.9806 -19.374,0 l -3.7258,2.9806 z"
         id="path2991" />
      <path
         inkscape:connector-curvature="0"
         style="fill:#faf8e3;fill-opacity:1;stroke:#000000;stroke-width:2"
         d="m 18.43,122.48 c 0,0 2.4179,-3.8686 7.2537,-4.3522 4.8358,-0.48359 8.7044,-0.96717 10.155,0.96716 1.4507,1.9343 1.4507,2.4179 1.4507,2.4179 l -0.48359,12.09 c 0,0 -10.155,-1.9343 -12.573,0 l -2.4179,1.9343 z"
         id="path2993" />
    </g>
  </g>
  <metadata
     id="metadata11">
    <rdf:RDF>
      <cc:Work>
        <dc:format>image/svg+xml</dc:format>
        <dc:type
           rdf:resource="http://purl.org/dc/dcmitype/StillImage" />
        <cc:license
           rdf:resource="http://creativecommons.org/licenses/publicdomain/" />
        <dc:publisher>
          <cc:Agent
             rdf:about="http://openclipart.org/">
            <dc:title>Openclipart</dc:title>
          </cc:Agent>
        </dc:publisher>
        <dc:title>Toes Outline</dc:title>
        <dc:date>2013-05-09T18:26:31</dc:date>
        <dc:description>Remix of the silhouette adding toenails and removing the fill.</dc:description>
        <dc:source>https://openclipart.org/detail/177924/toes-outline-by-evilestmark-177924</dc:source>
        <dc:creator>
          <cc:Agent>
            <dc:title>evilestmark</dc:title>
          </cc:Agent>
        </dc:creator>
        <dc:subject>
          <rdf:Bag>
            <rdf:li>anatomy</rdf:li>
            <rdf:li>body part</rdf:li>
            <rdf:li>foot</rdf:li>
            <rdf:li>toe</rdf:li>
            <rdf:li>toenails</rdf:li>
            <rdf:li>toes</rdf:li>
          </rdf:Bag>
        </dc:subject>
      </cc:Work>
      <cc:License
         rdf:about="http://creativecommons.org/licenses/publicdomain/">
        <cc:permits
           rdf:resource="http://creativecommons.org/ns#Reproduction" />
        <cc:permits
           rdf:resource="http://creativecommons.org/ns#Distribution" />
        <cc:permits
           rdf:resource="http://creativecommons.org/ns#DerivativeWorks" />
      </cc:License>
    </rdf:RDF>
  </metadata>
</svg>
