<?xml version="1.0" encoding="UTF-8" standalone="no"?>
<!-- Created with Inkscape (http://www.inkscape.org/) -->
<svg xmlns:dc="http://purl.org/dc/elements/1.1/" xmlns:cc="http://creativecommons.org/ns#" xmlns:rdf="http://www.w3.org/1999/02/22-rdf-syntax-ns#" xmlns:svg="http://www.w3.org/2000/svg" xmlns="http://www.w3.org/2000/svg" xmlns:xlink="http://www.w3.org/1999/xlink" xmlns:sodipodi="http://sodipodi.sourceforge.net/DTD/sodipodi-0.dtd" xmlns:inkscape="http://www.inkscape.org/namespaces/inkscape" id="svg2" sodipodi:docname="Tomatoe.svg" viewBox="0 0 396 400" version="1.1" inkscape:version="0.48.4 r9939">
  <defs id="defs4">
    <linearGradient inkscape:collect="always" id="linearGradient4402">
      <stop style="stop-color:#ccff00;stop-opacity:1;" offset="0" id="stop4404"/>
      <stop style="stop-color:#ccff00;stop-opacity:0;" offset="1" id="stop4406"/>
    </linearGradient>
    <linearGradient inkscape:collect="always" id="linearGradient4389">
      <stop style="stop-color:#ccff00;stop-opacity:1;" offset="0" id="stop4391"/>
      <stop style="stop-color:#ccff00;stop-opacity:0;" offset="1" id="stop4393"/>
    </linearGradient>
    <linearGradient inkscape:collect="always" id="linearGradient4249">
      <stop style="stop-color:#ccff00;stop-opacity:1;" offset="0" id="stop4251"/>
      <stop style="stop-color:#ccff00;stop-opacity:0;" offset="1" id="stop4253"/>
    </linearGradient>
    <linearGradient inkscape:collect="always" id="linearGradient4186">
      <stop style="stop-color:#ccff00;stop-opacity:1;" offset="0" id="stop4188"/>
      <stop style="stop-color:#ccff00;stop-opacity:0;" offset="1" id="stop4190"/>
    </linearGradient>
    <linearGradient inkscape:collect="always" id="linearGradient4155">
      <stop style="stop-color:#ccff00;stop-opacity:1;" offset="0" id="stop4157"/>
      <stop style="stop-color:#ccff00;stop-opacity:0;" offset="1" id="stop4159"/>
    </linearGradient>
    <linearGradient inkscape:collect="always" id="linearGradient4050">
      <stop style="stop-color:#800000;stop-opacity:1" offset="0" id="stop4052"/>
      <stop style="stop-color:#aa0000;stop-opacity:0;" offset="1" id="stop4054"/>
    </linearGradient>
    <linearGradient inkscape:collect="always" id="linearGradient4035">
      <stop style="stop-color:#ffffff;stop-opacity:1;" offset="0" id="stop4037"/>
      <stop style="stop-color:#ffffff;stop-opacity:0;" offset="1" id="stop4039"/>
    </linearGradient>
    <linearGradient inkscape:collect="always" id="linearGradient3237">
      <stop style="stop-color:#d40000;stop-opacity:1" offset="0" id="stop3239"/>
      <stop id="stop3247" offset="0.53918576" style="stop-color:#d40000;stop-opacity:1"/>
      <stop id="stop3245" offset="0.71091092" style="stop-color:#d40000;stop-opacity:1"/>
      <stop style="stop-color:#d40000;stop-opacity:1" offset="0.86236066" id="stop4021"/>
      <stop style="stop-color:#800000;stop-opacity:1" offset="1" id="stop3241"/>
    </linearGradient>
    <filter id="filter5352" height="1.5422" width="1.994" color-interpolation-filters="sRGB" y="-0.27109" x="-0.49700001" inkscape:collect="always">
      <feGaussianBlur id="feGaussianBlur5354" stdDeviation="0.95162427" inkscape:collect="always"/>
    </filter>
    <filter inkscape:collect="always" id="filter4031" x="-0.17941269" width="1.3588254" y="-0.3911632" height="1.7823263" color-interpolation-filters="sRGB">
      <feGaussianBlur inkscape:collect="always" stdDeviation="5.9233145" id="feGaussianBlur4033"/>
    </filter>
    <filter inkscape:collect="always" id="filter4066" x="-0.060301341" width="1.1206027" y="-0.23529667" height="1.4705933" color-interpolation-filters="sRGB">
      <feGaussianBlur inkscape:collect="always" stdDeviation="4.3098184" id="feGaussianBlur4068"/>
    </filter>
    <filter inkscape:collect="always" id="filter4119" color-interpolation-filters="sRGB">
      <feGaussianBlur inkscape:collect="always" stdDeviation="1.3965215" id="feGaussianBlur4121"/>
    </filter>
    <filter inkscape:collect="always" id="filter4123" x="-0.10581683" width="1.2116337" y="-0.041870713" height="1.0837414" color-interpolation-filters="sRGB">
      <feGaussianBlur inkscape:collect="always" stdDeviation="0.464315" id="feGaussianBlur4125"/>
    </filter>
    <filter inkscape:collect="always" id="filter4127" color-interpolation-filters="sRGB">
      <feGaussianBlur inkscape:collect="always" stdDeviation="0.45091515" id="feGaussianBlur4129"/>
    </filter>
    <filter inkscape:collect="always" id="filter4182" x="-0.054396279" width="1.1087925" y="-0.10644902" height="1.212898" color-interpolation-filters="sRGB">
      <feGaussianBlur inkscape:collect="always" stdDeviation="0.2793634" id="feGaussianBlur4184"/>
    </filter>
    <filter inkscape:collect="always" id="filter4262" color-interpolation-filters="sRGB">
      <feGaussianBlur inkscape:collect="always" stdDeviation="0.36937425" id="feGaussianBlur4264"/>
    </filter>
    <filter inkscape:collect="always" id="filter4397" x="-0.10096745" width="1.2019349" y="-0.055948451" height="1.1118969" color-interpolation-filters="sRGB">
      <feGaussianBlur inkscape:collect="always" stdDeviation="0.3576915" id="feGaussianBlur4399"/>
    </filter>
    <filter inkscape:collect="always" id="filter4414" x="-0.055264413" width="1.1105288" y="-0.1032743" height="1.2065486" color-interpolation-filters="sRGB">
      <feGaussianBlur inkscape:collect="always" stdDeviation="0.29811554" id="feGaussianBlur4416"/>
    </filter>
    <filter inkscape:collect="always" id="filter4432" color-interpolation-filters="sRGB">
      <feGaussianBlur inkscape:collect="always" stdDeviation="0.12077447" id="feGaussianBlur4434"/>
    </filter>
    <filter inkscape:collect="always" id="filter4460" color-interpolation-filters="sRGB">
      <feGaussianBlur inkscape:collect="always" stdDeviation="0.1811617" id="feGaussianBlur4462"/>
    </filter>
    <filter inkscape:collect="always" id="filter4468" color-interpolation-filters="sRGB">
      <feGaussianBlur inkscape:collect="always" stdDeviation="0.24100834" id="feGaussianBlur4470"/>
    </filter>
    <filter inkscape:collect="always" id="filter4476" color-interpolation-filters="sRGB">
      <feGaussianBlur inkscape:collect="always" stdDeviation="0.20667739" id="feGaussianBlur4478"/>
    </filter>
    <filter inkscape:collect="always" id="filter4488" x="-0.065111913" width="1.1302238" y="-0.46993813" height="1.9398763" color-interpolation-filters="sRGB">
      <feGaussianBlur inkscape:collect="always" stdDeviation="3.2685044" id="feGaussianBlur4490"/>
    </filter>
    <filter inkscape:collect="always" id="filter4502" x="-0.16047212" width="1.3209443" y="-0.33028945" height="1.6605788" color-interpolation-filters="sRGB">
      <feGaussianBlur inkscape:collect="always" stdDeviation="4.1967531" id="feGaussianBlur4504"/>
    </filter>
    <radialGradient inkscape:collect="always" xlink:href="#linearGradient3237" id="radialGradient4565" gradientUnits="userSpaceOnUse" gradientTransform="matrix(0.59934581,0.95664293,-1.0136242,0.63505,274.36725,-296.77221)" cx="377.12024" cy="119.90649" fx="377.12024" fy="119.90649" r="108.04929"/>
    <linearGradient inkscape:collect="always" xlink:href="#linearGradient4035" id="linearGradient4567" gradientUnits="userSpaceOnUse" x1="148.24681" y1="125.18655" x2="152.35117" y2="163.17345"/>
    <linearGradient inkscape:collect="always" xlink:href="#linearGradient4050" id="linearGradient4569" gradientUnits="userSpaceOnUse" gradientTransform="translate(-2.9030318,2.1772739)" x1="289.21613" y1="625.41986" x2="302.38177" y2="564.68756"/>
    <linearGradient inkscape:collect="always" xlink:href="#linearGradient4155" id="linearGradient4663" gradientUnits="userSpaceOnUse" x1="292.85699" y1="472.64807" x2="281.03741" y2="467.27554"/>
    <linearGradient inkscape:collect="always" xlink:href="#linearGradient4186" id="linearGradient4665" gradientUnits="userSpaceOnUse" gradientTransform="matrix(0.97869238,-0.07464566,0.2059119,0.72135897,-283.0922,-244.44671)" x1="264.51465" y1="479.63379" x2="255.32225" y2="476.09827"/>
    <linearGradient inkscape:collect="always" xlink:href="#linearGradient4186" id="linearGradient4667" gradientUnits="userSpaceOnUse" gradientTransform="matrix(0.97869238,-0.07464566,0.2059119,0.72135897,-86.106258,139.47759)" x1="262.44485" y1="463.1124" x2="277.26675" y2="463.1124"/>
    <linearGradient inkscape:collect="always" xlink:href="#linearGradient4249" id="linearGradient4669" gradientUnits="userSpaceOnUse" x1="120.91526" y1="59.470276" x2="117.02618" y2="49.924335"/>
    <linearGradient inkscape:collect="always" xlink:href="#linearGradient4402" id="linearGradient4671" gradientUnits="userSpaceOnUse" x1="363.15604" y1="479.98734" x2="351.13522" y2="464.60779"/>
    <linearGradient inkscape:collect="always" xlink:href="#linearGradient4389" id="linearGradient4673" gradientUnits="userSpaceOnUse" x1="319.66898" y1="500.84702" x2="332.39688" y2="517.46399"/>
    <radialGradient inkscape:collect="always" xlink:href="#linearGradient3237" id="radialGradient4805" gradientUnits="userSpaceOnUse" gradientTransform="matrix(0.59934581,0.95664293,-1.0136242,0.63505,274.36725,-296.77221)" cx="377.12024" cy="119.90649" fx="377.12024" fy="119.90649" r="108.04929"/>
    <linearGradient inkscape:collect="always" xlink:href="#linearGradient4035" id="linearGradient4807" gradientUnits="userSpaceOnUse" x1="148.24681" y1="125.18655" x2="152.35117" y2="163.17345"/>
    <linearGradient inkscape:collect="always" xlink:href="#linearGradient4050" id="linearGradient4809" gradientUnits="userSpaceOnUse" gradientTransform="translate(-2.9030318,2.1772739)" x1="289.21613" y1="625.41986" x2="302.38177" y2="564.68756"/>
    <linearGradient inkscape:collect="always" xlink:href="#linearGradient4155" id="linearGradient4811" gradientUnits="userSpaceOnUse" x1="292.85699" y1="472.64807" x2="281.03741" y2="467.27554"/>
    <linearGradient inkscape:collect="always" xlink:href="#linearGradient4186" id="linearGradient4813" gradientUnits="userSpaceOnUse" gradientTransform="matrix(0.97869238,-0.07464566,0.2059119,0.72135897,-283.0922,-244.44671)" x1="264.51465" y1="479.63379" x2="255.32225" y2="476.09827"/>
    <linearGradient inkscape:collect="always" xlink:href="#linearGradient4186" id="linearGradient4815" gradientUnits="userSpaceOnUse" gradientTransform="matrix(0.97869238,-0.07464566,0.2059119,0.72135897,-86.106258,139.47759)" x1="262.44485" y1="463.1124" x2="277.26675" y2="463.1124"/>
    <linearGradient inkscape:collect="always" xlink:href="#linearGradient4249" id="linearGradient4817" gradientUnits="userSpaceOnUse" x1="120.91526" y1="59.470276" x2="117.02618" y2="49.924335"/>
    <linearGradient inkscape:collect="always" xlink:href="#linearGradient4402" id="linearGradient4819" gradientUnits="userSpaceOnUse" x1="363.15604" y1="479.98734" x2="351.13522" y2="464.60779"/>
    <linearGradient inkscape:collect="always" xlink:href="#linearGradient4389" id="linearGradient4821" gradientUnits="userSpaceOnUse" x1="319.66898" y1="500.84702" x2="332.39688" y2="517.46399"/>
  </defs>
  <sodipodi:namedview id="base" fit-margin-left="10" inkscape:zoom="0.5" borderopacity="1" inkscape:current-layer="layer1" inkscape:cx="-29.865376" inkscape:cy="318.58151" borderlayer="false" inkscape:window-maximized="1" showgrid="false" fit-margin-right="10" units="px" inkscape:document-units="px" bordercolor="#b2b2b2" inkscape:window-x="-9" inkscape:window-y="-9" fit-margin-bottom="10" inkscape:window-width="1280" inkscape:pageopacity="0.0" inkscape:pageshadow="2" pagecolor="#ffffff" inkscape:window-height="963" fit-margin-top="10"/>
  <g id="layer1" inkscape:label="Capa 1" inkscape:groupmode="layer" transform="translate(-263.66604,-358.64356)">
    <g id="g4776" transform="matrix(0.48806263,0,0,0.48806263,153.24748,411.39073)">
      <path transform="matrix(0.73689939,-0.25362087,0.17549853,1.0649267,154.35732,479.71428)" d="m 443.43809,154.30888 c 0,7.81609 -12.99731,14.15228 -29.03031,14.15228 -16.03301,0 -29.03032,-6.33619 -29.03032,-14.15228 0,-7.81608 12.99731,-14.15228 29.03032,-14.15228 16.033,0 29.03031,6.3362 29.03031,14.15228 z" sodipodi:ry="14.15228" sodipodi:rx="29.030317" sodipodi:cy="154.30888" sodipodi:cx="414.40778" id="path3249" style="color:#000000;fill:#ffffff;fill-opacity:1;fill-rule:nonzero;stroke:none;stroke-width:2;marker:none;visibility:visible;display:inline;overflow:visible;enable-background:accumulate" sodipodi:type="arc"/>
      <path sodipodi:type="arc" style="color:#000000;fill:#550000;fill-opacity:1;fill-rule:nonzero;stroke:#550000;stroke-width:3.0493443;stroke-linecap:round;stroke-linejoin:round;stroke-miterlimit:4;stroke-opacity:1;stroke-dasharray:none;stroke-dashoffset:0;marker:none;visibility:visible;display:inline;overflow:visible;enable-background:accumulate" id="path4149" sodipodi:cx="375.57974" sodipodi:cy="161.56647" sodipodi:rx="107.04929" sodipodi:ry="99.065956" d="m 482.62904,161.56647 c 0,54.71261 -47.92761,99.06595 -107.0493,99.06595 -59.12169,0 -107.04929,-44.35334 -107.04929,-99.06595 0,-54.71262 47.9276,-99.065959 107.04929,-99.065959 59.12169,0 107.0493,44.353339 107.0493,99.065959 z" transform="matrix(3.4859696,0,0,3.4859696,-677.33541,-294.17449)"/>
      <g id="g4750">
        <g id="g4516" transform="matrix(3.4859696,0,0,3.4859696,-427.54621,-1604.0954)">
          <path transform="translate(-71.655589,375.19573)" d="m 482.62904,161.56647 c 0,54.71261 -47.92761,99.06595 -107.0493,99.06595 -59.12169,0 -107.04929,-44.35334 -107.04929,-99.06595 0,-54.71262 47.9276,-99.065959 107.04929,-99.065959 59.12169,0 107.0493,44.353339 107.0493,99.065959 z" sodipodi:ry="99.065956" sodipodi:rx="107.04929" sodipodi:cy="161.56647" sodipodi:cx="375.57974" id="path3235" style="color:#000000;fill:url(#radialGradient4805);fill-opacity:1;fill-rule:nonzero;stroke:none;stroke-width:2;marker:none;visibility:visible;display:inline;overflow:visible;enable-background:accumulate" sodipodi:type="arc"/>
          <g id="g4506">
            <path sodipodi:type="arc" style="opacity:0.33000004;color:#000000;fill:#800000;fill-opacity:1;fill-rule:nonzero;stroke:none;stroke-width:2;marker:none;visibility:visible;display:inline;overflow:visible;filter:url(#filter4488);enable-background:accumulate" id="path4070" sodipodi:cx="121.20158" sodipodi:cy="245.75438" sodipodi:rx="60.237907" sodipodi:ry="8.3462162" d="m 181.43948,245.75438 c 0,4.60949 -26.96943,8.34622 -60.2379,8.34622 -33.268481,0 -60.237911,-3.73673 -60.237911,-8.34622 0,-4.60949 26.96943,-8.34622 60.237911,-8.34622 33.26847,0 60.2379,3.73673 60.2379,8.34622 z" transform="matrix(1.1822453,0,0,3.2170771,154.6425,-174.9114)"/>
            <path sodipodi:type="arc" style="opacity:0.66000001;color:#000000;fill:#241f1c;fill-opacity:1;fill-rule:evenodd;stroke:none;stroke-width:0.93065888;marker:none;visibility:visible;display:inline;overflow:visible;filter:url(#filter4502);enable-background:accumulate" id="path4492" sodipodi:cx="115.5" sodipodi:cy="84.889999" sodipodi:rx="31.5" sodipodi:ry="15" d="m 147,84.889999 c 0,8.284272 -14.10303,15 -31.5,15 -17.39697,0 -31.5,-6.715728 -31.5,-15 0,-8.284271 14.10303,-15 31.5,-15 17.39697,0 31.5,6.715729 31.5,15 z" transform="matrix(0.92315176,-0.0910684,0.0910684,0.92315176,182.58517,415.46205)"/>
            <path sodipodi:type="arc" style="color:#000000;fill:url(#linearGradient4807);fill-opacity:1;fill-rule:nonzero;stroke:none;stroke-width:2;marker:none;visibility:visible;display:inline;overflow:visible;filter:url(#filter4031);enable-background:accumulate" id="path4019" sodipodi:cx="145.15158" sodipodi:cy="137.25357" sodipodi:rx="40.642445" sodipodi:ry="17.41819" d="m 185.79403,137.25357 c 0,9.6198 -18.19625,17.41819 -40.64245,17.41819 -22.4462,0 -40.64244,-7.79839 -40.64244,-17.41819 0,-9.6198 18.19624,-17.41819 40.64244,-17.41819 22.4462,0 40.64245,7.79839 40.64245,17.41819 z" transform="matrix(0.57356303,-0.18528657,0.28927828,1.0602598,210.4033,410.68368)"/>
            <path style="opacity:0.66000001;color:#000000;fill:url(#linearGradient4809);fill-opacity:1;fill-rule:nonzero;stroke:none;stroke-width:2;marker:none;visibility:visible;display:inline;overflow:visible;filter:url(#filter4066);enable-background:accumulate" d="m 387.47447,589.22841 c -21.43401,18.80875 -52.42173,30.59833 -86.87796,30.59833 -33.28589,0 -63.32753,-11.02273 -84.65329,-28.72826 17.25038,25.2012 48.89629,42.0896 85.11556,42.0896 37.11106,0 69.47458,-17.72383 86.41569,-43.95967 z" id="path4045" inkscape:connector-curvature="0" transform="matrix(0.95918432,-0.1235732,0.10767068,0.99308836,-43.067552,44.699961)" inkscape:transform-center-y="57.887024" inkscape:transform-center-x="-4.5325146"/>
          </g>
        </g>
        <g id="g4732">
          <path inkscape:connector-curvature="0" id="path4679" d="m 692.49357,-91.659366 -30.625,8.437496 -17.125,25.21875 -1.28125,2.625 -26.90625,55.03125017 -4.875,-25.21875017 -0.0625,0 0,-0.0625 -0.34375,0 0,0.0625 -20.4375,0 -9.78125,12 -0.0625,1.96875 -1.21875,1.53125 -1.09375,41.46875 -98.0625,-58.1875 -50.21875,-1.1875 -40.40625,12 -0.65625,3.25 -0.59375,0.1875 -7.375,36.75 14.71875,-31.8437498 35.5,-7.3437502 62.46875,26.9375 51.375,55.78125 -75.8125,-16.4375 -19.59375,7.21875 -75.9375,43.21875 -15.9375,33.65625 -7.34375,30.03125 0.71875,-1.28125 -1.96875,8.25 24.46875,-44.09375 40.4375,-24.46875 58.78125,-22.0625 53.875,7.34375 53.90625,19.59375 41.625,-1.21875 41.65625,29.40625 23.25,20.8125 18.375,33.0625 10.6875,21.34375 -3.3125,14.5625 0.875,-1.375 -2.125,9.5625 12.25,-19.59375 -1.3125,-3.78125 2.5625,-4.03125 -11,-31.21875 -9.8125,-32.4375 0,-0.0312 -0.1875,-0.1875 -31.65625,-39.4375 -14.8125,-15.5 67.4375,-24 71.03125,-15.9375 39.1875,11.03125 19.59375,24.5 0,22.03125 9.8125,-17.15625 -0.875,-1.71875 2.125,-3.65625 -17.125,-32.4375 -37.96875,-24.03125 -37.96875,-7.21875 -34.28125,2.40625 -35.53125,16.8125 -50.21875,1.21875 0.0625,-0.4375 0.0937,0 9.6875,-64.5 11.96875,-36.46875 10,-17.75 23.25,4.90625 -3.53125,-3.28125 4.8125,1 -17.15625,-15.624996 z" style="fill:#112b00;fill-rule:evenodd;stroke:#112b00;stroke-width:7.08661413;stroke-linecap:round;stroke-linejoin:round;stroke-miterlimit:4;stroke-dasharray:none;filter:url(#filter4468)"/>
          <g transform="matrix(3.4859696,0,0,3.4859696,-421.54621,-1604.0954)" id="g4524">
            <path inkscape:connector-curvature="0" style="fill:#800000;fill-rule:evenodd;filter:url(#filter4119)" d="m 294.62528,483.155 -27.75473,0.35132 -21.43079,5.97254 -11.59388,5.97254 -8.08052,12.64788 15.45785,-10.89089 18.97181,-7.37783 23.18777,-1.75658 h 9.48581 l 8.43181,14.05286 9.83711,14.75585 11.24189,12.29588 -9.83711,-14.75585 -5.26985,-31.61969 15.10686,-1.05399 20.0258,4.56725 8.78311,5.62115 8.43182,7.37783 -7.72913,-10.5399 -8.08052,-5.26985 -25.64674,-6.67513 z" id="path4994"/>
            <path id="path4117" d="m 286.89536,470.04514 -28.45772,-17.21483 -14.40386,-0.35132 -11.59389,3.51326 -2.10798,10.5399 4.21586,-9.13441 10.1889,-2.10798 17.91782,7.72912 16.51184,17.91783 -23.88976,-5.26985 -5.62115,2.10798 -21.78178,12.64787 -4.56726,9.83711 -2.10798,8.78311 7.02653,-12.64788 11.59389,-7.02653 16.86383,-6.32383 15.45785,2.10798 15.45785,5.62114 11.94488,-0.35132 11.94488,8.43182 6.67514,5.97254 5.26984,9.48581 3.16197,6.32383 -1.40528,6.32384 3.51326,-5.62114 -3.16197,-9.13441 -2.81057,-9.48581 -9.13441,-11.59388 -5.26985,-5.62115 20.7278,-7.37783 20.3768,-4.56725 11.24289,3.16197 5.62114,7.02653 v 6.32384 l 2.81057,-4.91855 -4.91855,-9.48581 -10.89089,-7.02653 -10.89089,-2.10798 -9.83711,0.70264 -10.18889,4.91855 -14.40386,0.35133 2.81057,-18.97181 3.51327,-10.8909 3.16196,-5.62114 6.67514,1.40529 -4.91855,-4.56726 -8.78312,2.45928 -4.91855,7.37782 -8.08052,16.86384 -1.40528,-7.37783 h -5.97255 l -2.81057,3.51327 z" style="fill:#225500;fill-rule:evenodd;filter:url(#filter4468)" inkscape:connector-curvature="0"/>
            <path inkscape:connector-curvature="0" style="fill:#668000;fill-rule:evenodd;filter:url(#filter4460)" d="m 286.89536,468.04514 -28.45772,-17.21483 -14.40386,-0.35132 -11.59389,3.51326 -2.10798,10.5399 4.21586,-9.13441 10.1889,-2.10798 17.91782,7.72912 16.51184,17.91783 -23.88976,-5.26985 -5.62115,2.10798 -21.78178,12.64787 -4.56726,9.83711 -2.10798,8.78311 7.02653,-12.64788 11.59389,-7.02653 16.86383,-6.32383 15.45785,2.10798 15.45785,5.62114 11.94488,-0.35132 11.94488,8.43182 6.67514,5.97254 5.26984,9.48581 3.16197,6.32383 -1.40528,6.32384 3.51326,-5.62114 -3.16197,-9.13441 -2.81057,-9.48581 -9.13441,-11.59388 -5.26985,-5.62115 20.7278,-7.37783 20.3768,-4.56725 11.24289,3.16197 5.62114,7.02653 v 6.32384 l 2.81057,-4.91855 -4.91855,-9.48581 -10.89089,-7.02653 -10.89089,-2.10798 -9.83711,0.70264 -10.18889,4.91855 -14.40386,0.35133 2.81057,-18.97181 3.51327,-10.8909 3.16196,-5.62114 6.67514,1.40529 -4.91855,-4.56726 -8.78312,2.45928 -4.91855,7.37782 -8.08052,16.86384 -1.40528,-7.37783 h -5.97255 l -2.81057,3.51327 z" id="path4992" transform="matrix(1,0,0,0.98086819,0.36287893,9.697161)"/>
            <path inkscape:connector-curvature="0" style="fill:#445500;fill-rule:evenodd;filter:url(#filter4127)" d="m 294.14528,484.91498 -6.89293,-5.93564 -1.14879,-9.95651 -6.12714,1.34029 0.19147,6.51004 5.16975,4.02096 z" id="path4996"/>
            <path inkscape:connector-curvature="0" style="fill:#445500;fill-rule:evenodd;filter:url(#filter5352)" d="m 299.31523,467.87515 1.72329,8.42471 2.87207,-2.68057 z" id="path4998"/>
            <path inkscape:connector-curvature="0" style="fill:#445500;fill-rule:evenodd;filter:url(#filter4123)" d="m 293.57529,454.46528 h -3.63796 l -1.14879,16.27484 2.48917,10.1479 5.74415,0.19147 2.29767,-1.14879 -4.59535,-12.82888 z" id="path5000"/>
            <path id="path4131" d="m 293.57529,454.46528 h -3.63796 l -1.14879,16.27484 2.48917,10.1479 5.74415,0.19147 2.29767,-1.14879 -4.59535,-12.82888 z" style="fill:#112b00;fill-rule:evenodd;filter:url(#filter4123)" inkscape:connector-curvature="0" transform="matrix(0.31745307,0,0,0.93709393,196.71401,29.244283)"/>
            <path style="fill:url(#linearGradient4811);fill-opacity:1;fill-rule:evenodd;filter:url(#filter4476)" d="m 290.8125,470.625 c -1.56107,6.5026 8.62849,12.97097 4.34372,3.60588 -2.71403,-5.41311 -2.91843,-11.38182 -3.37497,-17.29338 -0.32292,4.5625 -0.64583,9.125 -0.96875,13.6875 z" id="path4151" inkscape:connector-curvature="0" transform="matrix(0.9306589,0,0,0.9306589,24.390031,32.435853)"/>
            <path style="opacity:0.43999999;color:#000000;fill:url(#linearGradient4813);fill-opacity:1;fill-rule:nonzero;stroke:none;stroke-width:2;marker:none;visibility:visible;display:inline;overflow:visible;filter:url(#filter4182);enable-background:accumulate" d="m 71,77.15625 c -0.815164,-0.01524 -1.562677,0.05773 -2.21875,0.25 -0.587585,0.473691 -0.607707,1.281145 -0.875,1.9375 -0.01532,0.03762 -0.04052,0.0869 -0.0625,0.125 -0.0028,0.0049 -0.02833,-0.0049 -0.03125,0 -0.06301,0.07651 -0.109431,0.164053 -0.15625,0.25 -0.0098,0.0122 -0.02126,0.01903 -0.03125,0.03125 -0.319973,0.391563 -0.692407,0.797819 -0.375,1.15625 -0.03193,0.108073 -0.05213,0.210309 -0.09375,0.3125 -0.21885,0.537398 -1.180561,1.124454 -0.59375,1.625 0.564724,0.48171 1.35641,-0.206913 2.0625,-0.28125 0.791435,-0.08336 1.57543,-0.22127 2.40625,-0.1875 1.893643,0.07698 4.045095,1.234099 5.75,0.875 0.811188,-0.17086 1.187634,-0.75689 1.59375,-1.3125 0.397227,-0.543448 0.730227,-1.202145 0.75,-1.875 0.01161,-0.395114 0.02964,-0.837502 -0.375,-1.125 C 76.399668,78.043421 73.445493,77.201954 71,77.15625 z" id="path4163" inkscape:connector-curvature="0" sodipodi:nodetypes="scccccscsscssaacs" transform="translate(187.44,398.41999)"/>
            <path sodipodi:nodetypes="ccccccscsscssaacsc" inkscape:connector-curvature="0" id="path4238" d="m 267.68643,460.17692 c -0.81516,-0.0152 -1.76049,0.39993 -2.41656,0.59223 -0.58758,0.47369 -0.60771,1.28115 -0.875,1.9375 -0.0153,0.0376 -0.0405,0.0869 -0.0625,0.125 -0.003,0.005 -0.0283,-0.005 -0.0312,0 -0.063,0.0765 -0.10943,0.16405 -0.15625,0.25 -0.01,0.0122 -0.0213,0.019 -0.0312,0.0312 -0.31997,0.39156 -0.69241,0.79782 -0.375,1.15625 -0.0319,0.10807 -0.0521,0.21031 -0.0937,0.3125 -0.21885,0.5374 -0.68324,1.68585 -0.0964,2.1864 0.56473,0.48171 1.35641,-0.20691 2.0625,-0.28125 0.79144,-0.0834 1.57543,-0.22127 2.40625,-0.1875 1.89364,0.077 4.0451,1.2341 5.75,0.875 0.81119,-0.17086 1.24222,-0.72084 1.59375,-1.3125 0.95141,-1.60131 1.17947,-3.62836 1.05717,-5.48696 -0.0259,-0.39443 0.0296,-0.8375 -0.375,-1.125 -2.35033,-0.89408 -4.31508,0.72394 -6.75791,0.84675 z" style="opacity:0.43999999;color:#000000;fill:url(#linearGradient4815);fill-opacity:1;fill-rule:nonzero;stroke:none;stroke-width:2;marker:none;visibility:visible;display:inline;overflow:visible;filter:url(#filter4182);enable-background:accumulate" transform="matrix(0.89166484,0.83314168,-0.78988467,0.94049572,398.95001,-194.36732)"/>
            <path transform="matrix(0.63699698,0.02534853,-0.03976233,0.99920917,232.99238,399.45715)" style="opacity:0.43999999;color:#000000;fill:url(#linearGradient4817);fill-opacity:1;fill-rule:nonzero;stroke:none;stroke-width:2;marker:none;visibility:visible;display:inline;overflow:visible;filter:url(#filter4262);enable-background:accumulate" d="m 117.375,48.4375 -4.21875,8.625 c 1.68305,2.119716 4.36557,4.016455 7.40625,4.875 0.39944,0.112782 0.77256,0.149564 1.15625,0.21875 l 1.21875,-8.125 a 0.77825466,0.77825466 0 0 1 0.0312,-0.125 l 1.09375,-3.25 c -1.20396,-0.757756 -2.52859,-1.414692 -3.9375,-1.8125 -0.97274,-0.274657 -1.87436,-0.365812 -2.75,-0.40625 z" id="path4257" inkscape:connector-curvature="0"/>
            <path style="opacity:0.43999999;color:#000000;fill:url(#linearGradient4819);fill-opacity:1;fill-rule:nonzero;stroke:none;stroke-width:2;marker:none;visibility:visible;display:inline;overflow:visible;filter:url(#filter4414);enable-background:accumulate" d="m 361.66027,475.40557 c 0.86572,-1.33621 -1.52453,-2.94332 -2.83977,-3.84057 -2.36283,-1.61191 -5.52399,-2.97902 -8.28523,-2.23287 -0.74375,0.20098 -1.75872,0.88485 -1.625,1.64358 0.41185,2.33681 4.18822,2.27957 6.43384,3.04606 2.03977,0.69623 5.14421,3.19266 6.31616,1.3838 z" id="path4268" inkscape:connector-curvature="0" sodipodi:nodetypes="aaaaaa"/>
            <path style="opacity:0.43999999;color:#000000;fill:url(#linearGradient4821);fill-opacity:1;fill-rule:nonzero;stroke:none;stroke-width:2;marker:none;visibility:visible;display:inline;overflow:visible;filter:url(#filter4397);enable-background:accumulate" d="m 322.44426,501.41999 c -1.40096,0 -2.46634,0.89727 -3.07371,2.30528 l 0.49576,0.44619 4.16438,7.3868 2.52837,4.93281 -0.0743,0.27267 c 0.5212,-0.11489 0.99069,-0.35915 1.38813,-0.71885 l -2.15655,-6.12263 -2.23092,-7.38682 -0.89237,-1.09066 c -0.0503,-0.002 -0.0986,-0.0248 -0.14873,-0.0248 z" id="path4270" inkscape:connector-curvature="0"/>
            <path style="opacity:0.66000001;fill:#ccff00;fill-rule:evenodd;filter:url(#filter4432)" d="m 130,38.28125 -2.90625,5.09375 -3.5,10.65625 -2.8125,18.625 0.15625,0 2.78125,-18.5 3.5,-10.65625 2.78125,-4.875 0,-0.34375 z m -21.15625,15.53125 1.375,7.125 0.0625,-0.15625 -1.34375,-6.96875 -0.0937,0 z m 53.375,19.875 -20.375,4.46875 -20.71875,7.25 0.125,0.125 20.71875,-7.25 20.375,-4.46875 11.21875,3.09375 -0.0937,-0.125 -11.25,-3.09375 z M 113.5,91.03125 l 0,0.03125 10.90625,7.5625 -0.125,-0.125 L 113.5,91.03125 z m 22.03125,11.25 2.8125,9.3125 3.09375,8.78125 0.0625,0 -3.03125,-8.65625 -2.8125,-9.3125 -0.125,-0.125 z" transform="translate(187.44,398.41999)" id="path4418" inkscape:connector-curvature="0"/>
          </g>
        </g>
      </g>
    </g>
  </g>
  <metadata id="metadata3233">
    <rdf:RDF>
      <cc:Work>
        <dc:format>image/svg+xml</dc:format>
        <dc:type rdf:resource="http://purl.org/dc/dcmitype/StillImage"/>
        <cc:license rdf:resource="http://creativecommons.org/licenses/publicdomain/"/>
        <dc:publisher>
          <cc:Agent rdf:about="http://openclipart.org/">
            <dc:title>Openclipart</dc:title>
          </cc:Agent>
        </dc:publisher>
        <dc:title>Tomatoe</dc:title>
        <dc:date>2011-05-07T10:46:04</dc:date>
        <dc:description>Vegetables</dc:description>
        <dc:source>https://openclipart.org/detail/137035/tomatoe-by-jantonalcor</dc:source>
        <dc:creator>
          <cc:Agent>
            <dc:title>jantonalcor</dc:title>
          </cc:Agent>
        </dc:creator>
        <dc:subject>
          <rdf:Bag>
            <rdf:li>color</rdf:li>
            <rdf:li>farm</rdf:li>
            <rdf:li>food</rdf:li>
            <rdf:li>greens</rdf:li>
            <rdf:li>plant</rdf:li>
            <rdf:li>vegetables</rdf:li>
          </rdf:Bag>
        </dc:subject>
      </cc:Work>
      <cc:License rdf:about="http://creativecommons.org/licenses/publicdomain/">
        <cc:permits rdf:resource="http://creativecommons.org/ns#Reproduction"/>
        <cc:permits rdf:resource="http://creativecommons.org/ns#Distribution"/>
        <cc:permits rdf:resource="http://creativecommons.org/ns#DerivativeWorks"/>
      </cc:License>
    </rdf:RDF>
  </metadata>
</svg>
