<?xml version="1.0" encoding="UTF-8"?>
<svg xmlns="http://www.w3.org/2000/svg" xmlns:xlink="http://www.w3.org/1999/xlink" width="1023pt" height="796pt" viewBox="0 0 1023 796" version="1.1">
<defs>
<linearGradient id="linear0" gradientUnits="userSpaceOnUse" x1="479.5" y1="61.763" x2="346" y2="200.98" gradientTransform="matrix(1.434473,0,0,1.435074,-12.58972,-110.853234)">
<stop offset="0" style="stop-color:rgb(0.784314%,32.54902%,40.784314%);stop-opacity:1;"/>
<stop offset="1" style="stop-color:rgb(0.784314%,43.137255%,53.72549%);stop-opacity:1;"/>
</linearGradient>
<linearGradient id="linear1" gradientUnits="userSpaceOnUse" x1="334.84" y1="206.68" x2="283" y2="272.11" gradientTransform="matrix(1.434473,0,0,1.435074,-12.58972,-110.853234)">
<stop offset="0" style="stop-color:rgb(1.176471%,43.137255%,53.72549%);stop-opacity:1;"/>
<stop offset="0.5" style="stop-color:rgb(0.784314%,54.117647%,67.058824%);stop-opacity:1;"/>
<stop offset="1" style="stop-color:rgb(0.784314%,54.117647%,67.058824%);stop-opacity:1;"/>
</linearGradient>
<linearGradient id="linear2" gradientUnits="userSpaceOnUse" x1="271.3" y1="295.04" x2="88.469" y2="450.64" gradientTransform="matrix(1.394304,0,0,1.435074,-11.60082,-110.853234)">
<stop offset="0" style="stop-color:rgb(0.784314%,54.117647%,67.058824%);stop-opacity:1;"/>
<stop offset="1" style="stop-color:rgb(0%,24.313725%,29.803922%);stop-opacity:1;"/>
</linearGradient>
<linearGradient id="linear3" gradientUnits="userSpaceOnUse" x1="274.36" y1="708" x2="345.07" y2="616.08" spreadMethod="reflect" gradientTransform="matrix(1.35383,-0.127641,0.118126,1.394197,-222.514973,-260.191619)">
<stop offset="0" style="stop-color:rgb(0%,0%,0%);stop-opacity:1;"/>
<stop offset="0.87" style="stop-color:rgb(27.843137%,27.843137%,27.843137%);stop-opacity:1;"/>
<stop offset="1" style="stop-color:rgb(69.019608%,69.019608%,69.019608%);stop-opacity:1;"/>
</linearGradient>
<linearGradient id="linear4" gradientUnits="userSpaceOnUse" x1="274.36" y1="708" x2="345.07" y2="616.08" spreadMethod="reflect" gradientTransform="matrix(1.256271,-0.175374,0.168142,1.294274,215.502229,-302.134792)">
<stop offset="0" style="stop-color:rgb(0%,0%,0%);stop-opacity:1;"/>
<stop offset="0.87" style="stop-color:rgb(27.843137%,27.843137%,27.843137%);stop-opacity:1;"/>
<stop offset="1" style="stop-color:rgb(69.019608%,69.019608%,69.019608%);stop-opacity:1;"/>
</linearGradient>
</defs>
<g id="surface1">
<path style="fill-rule:evenodd;fill:rgb(92.54902%,92.54902%,92.54902%);fill-opacity:1;stroke-width:0.631;stroke-linecap:butt;stroke-linejoin:miter;stroke:rgb(0%,0%,0%);stroke-opacity:1;stroke-miterlimit:4;" d="M 154.280425 204.700206 L 165.880613 194.880845 L 192.649881 138.659553 L 340.780379 161.860519 L 402.580462 182.830358 L 446.30927 217.190391 L 312.449184 277.420496 L 196.220491 291.700392 Z M 154.280425 204.700206 " transform="matrix(2.273333,0,0,2.274286,-55.980833,-218.929566)"/>
<path style=" stroke:none;fill-rule:evenodd;fill:url(#linear0);" d="M 378.269531 83.550781 L 660.6875 27.285156 L 854.832031 177.207031 L 559.457031 270.429688 L 379.226562 93.535156 Z M 378.269531 83.550781 "/>
<path style=" stroke:none;fill-rule:evenodd;fill:url(#linear1);" d="M 378.269531 83.550781 L 311.34375 230.515625 L 323.894531 236.335938 L 379.542969 111.5 L 536.882812 264.675781 L 455.179688 403.472656 L 473.070312 419.371094 L 565.707031 263.765625 Z M 378.269531 83.550781 "/>
<path style=" stroke:none;fill-rule:evenodd;fill:url(#linear2);" d="M 314.9375 221.554688 L 131.921875 273.066406 C 91.164062 289.917969 23.851562 324.078125 22.953125 386.03125 L 22.734375 466.859375 L 184.289062 719.464844 L 283.996094 500.746094 C 347.992188 487.417969 435.921875 440.476562 482.890625 424.421875 L 323.507812 230.878906 Z M 314.9375 221.554688 "/>
<path style=" stroke:none;fill-rule:evenodd;fill:rgb(0.784314%,27.058824%,33.72549%);fill-opacity:1;" d="M 854.738281 177.136719 L 556 254.691406 C 522.195312 305.769531 494.050781 356.875 464.773438 407.976562 L 302.636719 457.964844 C 258.601562 478.046875 183.808594 513.207031 183.195312 572.363281 L 184.289062 719.464844 L 969.292969 441.636719 L 972.339844 275.546875 Z M 853.214844 203.15625 L 937.558594 268.40625 L 731.160156 329.265625 L 726.363281 240.75 Z M 701.492188 248.09375 L 706.289062 336.746094 L 494.1875 402.179688 L 563.023438 284.140625 Z M 701.492188 248.09375 "/>
<path style=" stroke:none;fill-rule:nonzero;fill:rgb(0.784314%,0.784314%,0.784314%);fill-opacity:1;" d="M 372.609375 312.046875 C 371.316406 312.070312 370.042969 312.480469 368.90625 313.296875 C 365.882812 315.503906 365.175781 319.824219 367.292969 322.941406 C 369.429688 326.058594 373.589844 326.785156 376.632812 324.601562 C 376.90625 324.398438 377.179688 324.167969 377.40625 323.917969 C 385.636719 330.492188 401.367188 340.636719 420.144531 351.1875 C 449.222656 367.539062 474.523438 378.707031 476.660156 376.136719 C 478.796875 373.542969 456.972656 358.171875 427.898438 341.816406 C 407.800781 330.515625 389.5 321.714844 379.40625 318.1875 C 379.292969 317.074219 378.90625 315.9375 378.226562 314.960938 C 376.90625 313.003906 374.769531 312.003906 372.609375 312.046875 Z M 372.609375 312.046875 "/>
<path style=" stroke:none;fill-rule:nonzero;fill:rgb(0.784314%,0.784314%,0.784314%);fill-opacity:1;" d="M 313.9375 236.199219 C 312.640625 236.335938 311.367188 236.859375 310.296875 237.769531 C 307.457031 240.226562 307.070312 244.59375 309.433594 247.503906 C 311.683594 250.277344 315.640625 250.800781 318.460938 248.753906 C 326.097656 256.078125 340.875 267.609375 358.585938 279.84375 C 386.089844 298.835938 410.347656 312.296875 412.710938 309.933594 C 415.054688 307.566406 394.640625 290.238281 367.132812 271.222656 C 348.332031 258.261719 331.101562 247.84375 321.277344 243.296875 C 321.324219 241.660156 320.871094 240.019531 319.753906 238.679688 C 318.277344 236.835938 316.074219 235.972656 313.9375 236.199219 Z M 313.9375 236.199219 "/>
<path style=" stroke:none;fill-rule:nonzero;fill:url(#linear3);" d="M 386.121094 515.035156 C 369.144531 516.378906 351.589844 521.058594 334.582031 529.386719 C 274.121094 558.96875 243.496094 623.363281 266.242188 673.0625 C 272.949219 687.699219 303.175781 717.785156 316.320312 726.3125 L 505.285156 591.953125 C 498.570312 577.300781 506.730469 578.554688 493.121094 564.601562 C 465.511719 536.546875 427.113281 511.816406 386.121094 515.035156 Z M 386.121094 515.035156 "/>
<path style=" stroke:none;fill-rule:nonzero;fill:rgb(0%,0%,0%);fill-opacity:1;" d="M 439.003906 729.699219 C 378.5 759.300781 310.996094 742.976562 288.230469 693.242188 C 265.464844 643.507812 296.058594 579.195312 356.5625 549.59375 C 417.066406 519.992188 484.570312 536.316406 507.335938 586.050781 C 530.101562 635.785156 499.511719 700.097656 439.003906 729.699219 Z M 439.003906 729.699219 "/>
<path style=" stroke:none;fill-rule:nonzero;fill:url(#linear4);" d="M 814.957031 394.902344 C 799.191406 396.859375 783.027344 401.953125 767.527344 410.421875 C 712.417969 440.507812 686.558594 501.792969 709.828125 547.15625 C 716.683594 560.515625 746.101562 587.289062 758.707031 594.6875 L 929.203125 461.609375 C 922.335938 448.234375 929.992188 449.0625 916.730469 436.628906 C 889.832031 411.636719 853.019531 390.191406 814.957031 394.902344 Z M 814.957031 394.902344 "/>
<path style=" stroke:none;fill-rule:nonzero;fill:rgb(0%,0%,0%);fill-opacity:1;" d="M 873.175781 592.730469 C 818.027344 622.835938 754.441406 610.441406 731.15625 565.042969 C 707.871094 519.648438 733.699219 458.441406 788.847656 428.335938 C 843.996094 398.230469 907.582031 410.625 930.867188 456.023438 C 954.15625 501.417969 928.324219 562.625 873.175781 592.730469 Z M 873.175781 592.730469 "/>
</g>
</svg>
