<?xml version="1.0" encoding="UTF-8" standalone="no"?>
<!-- Created with Inkscape (http://www.inkscape.org/) -->

<svg
   xmlns:dc="http://purl.org/dc/elements/1.1/"
   xmlns:cc="http://creativecommons.org/ns#"
   xmlns:rdf="http://www.w3.org/1999/02/22-rdf-syntax-ns#"
   xmlns:svg="http://www.w3.org/2000/svg"
   xmlns="http://www.w3.org/2000/svg"
   xmlns:xlink="http://www.w3.org/1999/xlink"
   xmlns:sodipodi="http://sodipodi.sourceforge.net/DTD/sodipodi-0.dtd"
   xmlns:inkscape="http://www.inkscape.org/namespaces/inkscape"
   id="svg7283"
   sodipodi:docname="toycar.svg"
   viewBox="0 0 450 350"
   sodipodi:version="0.32"
   version="1.0"
   inkscape:output_extension="org.inkscape.output.svg.inkscape"
   inkscape:version="0.91 r13725">
  <defs
     id="defs7285">
    <linearGradient
       id="linearGradient4635">
      <stop
         id="stop4637"
         style="stop-color:#000000"
         offset="0" />
      <stop
         id="stop4643"
         style="stop-color:#474747"
         offset=".87" />
      <stop
         id="stop4639"
         style="stop-color:#b0b0b0"
         offset="1" />
    </linearGradient>
    <linearGradient
       id="linearGradient4544"
       y2="450.64"
       gradientUnits="userSpaceOnUse"
       x2="88.469"
       gradientTransform="matrix(.61333 0 0 0.631 19.522 47.521)"
       y1="295.04"
       x1="271.3"
       inkscape:collect="always">
      <stop
         id="stop4540"
         style="stop-color:#028aab"
         offset="0" />
      <stop
         id="stop4542"
         style="stop-color:#003e4c"
         offset="1" />
    </linearGradient>
    <linearGradient
       id="linearGradient4592"
       y2="200.98"
       gradientUnits="userSpaceOnUse"
       x2="346"
       gradientTransform="matrix(0.631 0 0 0.631 19.087 47.521)"
       y1="61.763"
       x1="479.5"
       inkscape:collect="always">
      <stop
         id="stop4588"
         style="stop-color:#025368"
         offset="0" />
      <stop
         id="stop4590"
         style="stop-color:#026e89"
         offset="1" />
    </linearGradient>
    <linearGradient
       id="linearGradient4608"
       y2="272.11"
       gradientUnits="userSpaceOnUse"
       x2="283"
       gradientTransform="matrix(0.631 0 0 0.631 19.087 47.521)"
       y1="206.68"
       x1="334.84"
       inkscape:collect="always">
      <stop
         id="stop4604"
         style="stop-color:#036e89"
         offset="0" />
      <stop
         id="stop4616"
         style="stop-color:#028aab"
         offset=".5" />
      <stop
         id="stop4606"
         style="stop-color:#028aab"
         offset="1" />
    </linearGradient>
    <linearGradient
       id="linearGradient4649"
       y2="616.08"
       xlink:href="#linearGradient4635"
       spreadMethod="reflect"
       gradientUnits="userSpaceOnUse"
       x2="345.07"
       gradientTransform="matrix(.93160 -.17569 .17392 .98417 -167.89 -54.024)"
       y1="708"
       x1="274.36"
       inkscape:collect="always" />
  </defs>
  <sodipodi:namedview
     id="base"
     inkscape:zoom="1"
     height="350px"
     borderopacity="1.0"
     inkscape:current-layer="layer1"
     inkscape:cx="380.81445"
     inkscape:cy="214.48324"
     width="450px"
     inkscape:guide-bbox="true"
     showguides="true"
     bordercolor="#666666"
     inkscape:window-x="75"
     guidetolerance="10"
     objecttolerance="10"
     inkscape:window-y="34"
     inkscape:window-width="1270"
     inkscape:pageopacity="0.0"
     inkscape:pageshadow="2"
     pagecolor="#ffffff"
     gridtolerance="10000"
     inkscape:document-units="px"
     inkscape:window-height="673"
     showgrid="false"
     inkscape:window-maximized="0" />
  <g
     id="layer1"
     inkscape:label="Layer 1"
     inkscape:groupmode="layer"
     transform="translate(-24.625 -96.263)">
    <path
       id="path4618"
       style="fill-rule:evenodd;stroke:#000000;stroke-width:0.631px;fill:#ececec"
       d="m154.28 204.7l11.6-9.82 26.77-56.22 148.13 23.2 61.8 20.97 43.73 34.36-133.86 60.23-116.23 14.28-41.94-87z" />
    <path
       id="path6012"
       sodipodi:nodetypes="cccccc"
       style="fill-rule:evenodd;fill:url(#linearGradient4592)"
       d="m191.02 133l124.23-24.74 85.4 65.92-129.93 40.99-79.28-77.78-0.42-4.39z" />
    <path
       id="path4655"
       sodipodi:nodetypes="ccccccccc"
       style="fill-rule:evenodd;fill:url(#linearGradient4608)"
       d="m191.02 133l-29.44 64.62 5.52 2.56 24.48-54.89 69.21 67.35-35.94 61.03 7.87 6.99 40.75-68.42-82.45-79.24z" />
    <path
       id="path8325"
       sodipodi:nodetypes="ccccccccc"
       style="fill-rule:evenodd;fill:url(#linearGradient4544)"
       d="m163.16 193.68l-80.504 22.65c-17.93 7.41-47.539 22.43-47.935 49.67l-0.096 35.54 71.065 111.07 43.86-96.17c28.15-5.86 66.83-26.5 87.49-33.56l-70.11-85.1-3.77-4.1z" />
    <path
       id="path8336"
       sodipodi:nodetypes="ccccccccccccccccccc"
       style="fill-rule:evenodd;fill:#024556"
       d="m400.61 174.15l-131.41 34.1c-14.87 22.46-27.25 44.93-40.13 67.4l-71.32 21.98c-19.37 8.83-52.27 24.29-52.54 50.3l0.48 64.68 345.31-122.16 1.34-73.03-51.73-43.27zm-0.67 11.44l37.1 28.69-90.79 26.76-2.11-38.92 55.8-16.53zm-66.74 19.76l2.11 38.98-93.3 28.77 30.28-51.9 60.91-15.85z" />
    <path
       id="path10114"
       style="fill:none"
       d="m230.16 273.01l36.83-55.84-36.83 55.84z" />
    <path
       id="path10120"
       style="fill:none"
       d="m319.46 276.84c10.77-4.66 6.67 0.79-6.44-0.77" />
    <path
       id="path3746"
       style="fill:#020202"
       d="m188.53 233.47c-0.57 0.01-1.13 0.19-1.63 0.55-1.33 0.97-1.64 2.87-0.71 4.24 0.94 1.37 2.77 1.69 4.11 0.73 0.12-0.09 0.24-0.19 0.34-0.3 3.62 2.89 10.54 7.35 18.8 11.99 12.79 7.19 23.92 12.1 24.86 10.97 0.94-1.14-8.66-7.9-21.45-15.09-8.84-4.97-16.89-8.84-21.33-10.39-0.05-0.49-0.22-0.99-0.52-1.42-0.58-0.86-1.52-1.3-2.47-1.28z" />
    <path
       id="path3750"
       inkscape:transform-center-x="-19.894319"
       style="fill:#020202"
       inkscape:transform-center-y="13.325086"
       d="m162.72 200.12c-0.57 0.06-1.13 0.29-1.6 0.69-1.25 1.08-1.42 3-0.38 4.28 0.99 1.22 2.73 1.45 3.97 0.55 3.36 3.22 9.86 8.29 17.65 13.67 12.1 8.35 22.77 14.27 23.81 13.23 1.03-1.04-7.95-8.66-20.05-17.02-8.27-5.7-15.85-10.28-20.17-12.28 0.02-0.72-0.18-1.44-0.67-2.03-0.65-0.81-1.62-1.19-2.56-1.09z" />
    <path
       id="path5997"
       style="fill:none"
       d="m489.04 757.91c17.55-7.39 10.88 1.25-10.51-1.21" />
    <g
       id="g4645"
       transform="matrix(.62827 .055380 -.058229 .61310 29.079 24.277)">
      <path
         id="path4628"
         sodipodi:nodetypes="csscccc"
         style="fill:url(#linearGradient4649)"
         d="m305.81 459.16c-11.7 2.02-23.58 6.45-34.84 13.44-40.03 24.83-57.05 72.55-37.98 106.47 5.62 9.99 28.59 29.49 38.28 34.73l122.35-107.41c-5.63-10 0.12-9.62-10.25-18.69-21.02-18.22-49.31-33.4-77.56-28.54z" />
      <path
         id="path4630"
         sodipodi:rx="71.233429"
         sodipodi:ry="79.195961"
         style="fill:#000000"
         sodipodi:type="arc"
         d="m 455.89951,601.22809 a 71.233429,79.195961 0 0 1 -71.23343,79.19596 71.233429,79.195961 0 0 1 -71.23343,-79.19596 71.233429,79.195961 0 0 1 71.23343,-79.19596 71.233429,79.195961 0 0 1 71.23343,79.19596 z"
         transform="matrix(.48514 .86282 -.91587 .56808 686.15 -126.39)"
         sodipodi:cy="601.22809"
         sodipodi:cx="384.66608" />
    </g>
    <g
       id="g4684"
       transform="matrix(.58777 .025430 -.028717 .57375 216.55 -1.3195)">
      <path
         id="path4686"
         sodipodi:nodetypes="csscccc"
         style="fill:url(#linearGradient4649)"
         d="m305.81 459.16c-11.7 2.02-23.58 6.45-34.84 13.44-40.03 24.83-57.05 72.55-37.98 106.47 5.62 9.99 28.59 29.49 38.28 34.73l122.35-107.41c-5.63-10 0.12-9.62-10.25-18.69-21.02-18.22-49.31-33.4-77.56-28.54z" />
      <path
         id="path4688"
         sodipodi:rx="71.233429"
         sodipodi:ry="79.195961"
         style="fill:#000000"
         sodipodi:type="arc"
         d="m 455.89951,601.22809 a 71.233429,79.195961 0 0 1 -71.23343,79.19596 71.233429,79.195961 0 0 1 -71.23343,-79.19596 71.233429,79.195961 0 0 1 71.23343,-79.19596 71.233429,79.195961 0 0 1 71.23343,79.19596 z"
         transform="matrix(.48514 .86282 -.91587 .56808 686.15 -126.39)"
         sodipodi:cy="601.22809"
         sodipodi:cx="384.66608" />
    </g>
  </g>
  <metadata
     id="metadata40">
    <rdf:RDF>
      <cc:Work>
        <dc:format>image/svg+xml</dc:format>
        <dc:type
           rdf:resource="http://purl.org/dc/dcmitype/StillImage" />
        <cc:license
           rdf:resource="http://creativecommons.org/licenses/publicdomain/" />
        <dc:publisher>
          <cc:Agent
             rdf:about="http://openclipart.org/">
            <dc:title>Openclipart</dc:title>
          </cc:Agent>
        </dc:publisher>
        <dc:title>Cartoon Car</dc:title>
        <dc:date>2007-09-23T19:01:31</dc:date>
        <dc:description>A cartoon-car I drew in Inkscape.</dc:description>
        <dc:source>https://openclipart.org/detail/6000/cartoon-car-by-dtrave</dc:source>
        <dc:creator>
          <cc:Agent>
            <dc:title>DTRave</dc:title>
          </cc:Agent>
        </dc:creator>
        <dc:subject>
          <rdf:Bag>
            <rdf:li>car</rdf:li>
            <rdf:li>cartoon</rdf:li>
            <rdf:li>how i did it</rdf:li>
            <rdf:li>transportation</rdf:li>
            <rdf:li>vehicles</rdf:li>
          </rdf:Bag>
        </dc:subject>
      </cc:Work>
      <cc:License
         rdf:about="http://creativecommons.org/licenses/publicdomain/">
        <cc:permits
           rdf:resource="http://creativecommons.org/ns#Reproduction" />
        <cc:permits
           rdf:resource="http://creativecommons.org/ns#Distribution" />
        <cc:permits
           rdf:resource="http://creativecommons.org/ns#DerivativeWorks" />
      </cc:License>
    </rdf:RDF>
  </metadata>
</svg>
