<?xml version="1.0" encoding="UTF-8"?>
<svg xmlns="http://www.w3.org/2000/svg" xmlns:xlink="http://www.w3.org/1999/xlink" width="1024pt" height="651pt" viewBox="0 0 1024 651" version="1.1">
<defs>
<linearGradient id="linear0" gradientUnits="userSpaceOnUse" x1="222.52" y1="249.2" x2="221.34" y2="224.45" gradientTransform="matrix(4.141725,0,0,4.142472,-443.537292,-507.074683)">
<stop offset="0" style="stop-color:rgb(36.470588%,64.313725%,41.960784%);stop-opacity:1;"/>
<stop offset="1" style="stop-color:rgb(12.54902%,39.607843%,18.039216%);stop-opacity:1;"/>
</linearGradient>
<radialGradient id="radial0" gradientUnits="userSpaceOnUse" cx="155.31" cy="233.57" fx="155.31" fy="233.57" r="31.812" gradientTransform="matrix(1,0,0,1.0318,0,-7.4166)">
<stop offset="0" style="stop-color:rgb(100%,90.196078%,0%);stop-opacity:1;"/>
<stop offset="0.68" style="stop-color:rgb(67.058824%,60.392157%,0%);stop-opacity:0.811765;"/>
<stop offset="1" style="stop-color:rgb(100%,90.196078%,0%);stop-opacity:1;"/>
</radialGradient>
<radialGradient id="radial1" gradientUnits="userSpaceOnUse" cx="155.06" cy="232.3" fx="155.06" fy="232.3" r="7.8211" gradientTransform="matrix(3.618542,0,0,3.596152,-364.509044,-380.121308)">
<stop offset="0" style="stop-color:rgb(46.27451%,41.960784%,1.960784%);stop-opacity:1;"/>
<stop offset="1" style="stop-color:rgb(74.509804%,68.235294%,6.666667%);stop-opacity:0.784314;"/>
</radialGradient>
<radialGradient id="radial2" gradientUnits="userSpaceOnUse" cx="295.22" cy="243.92" fx="295.22" fy="243.92" r="19.69" gradientTransform="matrix(1,0,0,1.0128,0,-3.1284)">
<stop offset="0" style="stop-color:rgb(100%,90.196078%,0%);stop-opacity:1;"/>
<stop offset="0.68" style="stop-color:rgb(67.058824%,60.392157%,0%);stop-opacity:0.811765;"/>
<stop offset="1" style="stop-color:rgb(100%,90.196078%,0%);stop-opacity:1;"/>
</radialGradient>
</defs>
<g id="surface1">
<path style="fill-rule:nonzero;fill:rgb(0%,0%,0%);fill-opacity:1;stroke-width:1;stroke-linecap:butt;stroke-linejoin:miter;stroke:rgb(0%,0%,0%);stroke-opacity:1;stroke-miterlimit:4;" d="M 165.139678 128.759666 L 156.553279 128.507891 C 155.038587 129.517818 154.533061 132.547599 155.54317 134.568396 L 164.635095 134.821113 Z M 165.139678 128.759666 " transform="matrix(4.141725,0,0,4.142472,-443.537292,-507.074683)"/>
<path style="fill-rule:nonzero;fill:rgb(14.901961%,14.901961%,14.901961%);fill-opacity:1;stroke-width:1;stroke-linecap:butt;stroke-linejoin:miter;stroke:rgb(14.901961%,14.901961%,14.901961%);stroke-opacity:1;stroke-miterlimit:4;" d="M 225.180336 163.74972 C 225.180336 163.74972 220.894682 161.60728 217.858696 162.500278 C 216.965537 164.285331 217.144735 168.392932 217.144735 168.392932 L 213.394787 168.035545 C 213.394787 168.035545 213.076947 168.723917 211.786724 169.106765 L 211.608469 171.963981 C 211.608469 171.963981 217.679498 176.249806 217.858696 178.749634 L 219.709148 203.935571 C 220.780562 205.899789 225.536846 203.749805 227.501418 205.178413 Z M 225.180336 163.74972 " transform="matrix(4.141725,0,0,4.142472,-443.537292,-507.074683)"/>
<path style="fill:none;stroke-width:1.4674;stroke-linecap:butt;stroke-linejoin:miter;stroke:rgb(14.901961%,14.901961%,14.901961%);stroke-opacity:1;stroke-miterlimit:4;" d="M 270.090453 149.910069 C 270.089909 150.488412 266.331195 150.957264 261.693223 150.957625 C 257.055943 150.957172 253.295629 150.488487 253.296173 149.910144 C 253.296718 149.331801 257.055432 148.862949 261.693403 148.862588 C 266.330683 148.863041 270.08944 149.331805 270.090453 149.910069 Z M 270.090453 149.910069 " transform="matrix(2.622043,-2.364771,2.224603,2.787262,-594.026856,372.496342)"/>
<path style="fill:none;stroke-width:1;stroke-linecap:butt;stroke-linejoin:miter;stroke:rgb(14.901961%,14.901961%,14.901961%);stroke-opacity:1;stroke-miterlimit:4;" d="M 204.810275 168.789925 L 212.00742 169.042643 " transform="matrix(4.141725,0,0,4.142472,-443.537292,-507.074683)"/>
<path style="fill:none;stroke-width:1;stroke-linecap:butt;stroke-linejoin:miter;stroke:rgb(14.901961%,14.901961%,14.901961%);stroke-opacity:1;stroke-miterlimit:4;" d="M 214.030467 160.580379 L 213.39856 168.029887 " transform="matrix(4.141725,0,0,4.142472,-443.537292,-507.074683)"/>
<path style="fill-rule:nonzero;fill:rgb(0%,0%,0%);fill-opacity:1;stroke-width:1;stroke-linecap:butt;stroke-linejoin:miter;stroke:rgb(0%,0%,0%);stroke-opacity:1;stroke-miterlimit:4;" d="M 224.639914 133.039832 L 225.175621 204.110964 L 211.962149 204.289187 L 215.712096 216.432827 L 235.175795 215.718052 L 236.425463 203.932742 L 229.818727 204.289187 L 228.925568 133.218055 Z M 224.639914 133.039832 " transform="matrix(4.141725,0,0,4.142472,-443.537292,-507.074683)"/>
<path style=" stroke:none;fill-rule:nonzero;fill:rgb(0%,0%,0%);fill-opacity:1;" d="M 58.191406 274.445312 C 161.324219 127.753906 391.144531 217.25 417.816406 344.878906 L 427.753906 468.324219 L 633.804688 467.800781 L 627.527344 503.371094 L 391.144531 505.460938 C 401.605469 208.359375 88.667969 307.667969 58.191406 274.445312 Z M 58.191406 274.445312 "/>
<path style=" stroke:none;fill-rule:nonzero;fill:rgb(12.54902%,39.607843%,18.039216%);fill-opacity:1;" d="M 353.082031 11.105469 C 289.265625 11.15625 231.925781 13.511719 226.886719 19.003906 C 222.703125 27.371094 213.359375 170.617188 207.085938 193.632812 L 173.5625 193.632812 C 173.5625 193.632812 171.445312 187.429688 163.078125 186.382812 C 152.621094 184.292969 116.261719 192.074219 116.261719 192.074219 C 112.078125 199.398438 108.71875 223.019531 108.71875 223.019531 C 108.71875 223.019531 61.660156 259.648438 56.429688 273.246094 C 60.253906 289.785156 97.253906 201.660156 238.261719 209.722656 L 242.714844 186.621094 C 242.714844 186.621094 242.363281 186.621094 242.453125 186.621094 L 257.027344 38.808594 C 268.535156 39.855469 494.675781 36.738281 494.675781 36.738281 C 494.675781 36.738281 534.445312 38.832031 543.859375 36.738281 C 543.859375 36.738281 540.6875 20.039062 534.410156 20.039062 C 527.9375 14.742188 435.132812 11.046875 353.082031 11.105469 Z M 238.269531 184.007812 C 238.269531 184.007812 130.957031 209.125 237.375 210.167969 C 343.792969 211.214844 399.960938 314.519531 412.546875 365.289062 C 425.132812 416.058594 419.332031 462.441406 426.730469 473.535156 L 439.683594 473.363281 C 439.683594 473.363281 621.261719 475.949219 631.617188 467.8125 C 698.527344 323.976562 861.484375 330.199219 916.527344 476.097656 L 963.210938 472.992188 C 963.210938 472.992188 1017.652344 452.113281 1022.878906 442.699219 C 1022.878906 442.699219 1026.027344 391.371094 1021.84375 385.09375 C 1010.335938 378.816406 929.785156 374.675781 920.371094 380.953125 C 914.09375 387.230469 918.300781 409.171875 918.300781 409.171875 L 901.472656 409.171875 C 901.472656 409.171875 925.640625 271.152344 916.230469 260.691406 C 809.539062 185.378906 539.621094 200.003906 539.621094 200.003906 L 537.007812 401.394531 L 447.660156 401.9375 C 430.933594 343.386719 394.960938 181.078125 238.300781 184.03125 Z M 238.269531 184.007812 "/>
<path style=" stroke:none;fill-rule:nonzero;fill:rgb(14.901961%,14.901961%,14.901961%);fill-opacity:1;" d="M 253.140625 132.773438 C 264.234375 126.113281 298.257812 169.757812 298.257812 169.757812 C 298.257812 169.757812 350.769531 169.019531 356.683594 169.019531 C 362.601562 171.976562 361.863281 186.03125 361.863281 186.03125 L 392.1875 189.730469 C 398.101562 196.386719 395.882812 211.183594 390.707031 212.664062 L 366.300781 222.277344 L 327.839844 197.867188 C 318.226562 183.8125 247.226562 183.074219 247.226562 183.074219 Z M 253.140625 132.773438 "/>
<path style=" stroke:none;fill-rule:nonzero;fill:rgb(70.588235%,81.176471%,81.176471%);fill-opacity:0.27451;" d="M 259.066406 41.804688 L 247.972656 183.089844 C 247.972656 183.089844 326.371094 186.050781 339.679688 207.5 C 381.097656 220.816406 443.222656 365.800781 446.179688 390.953125 L 532.714844 390.953125 C 532.714844 390.953125 531.234375 45.5 526.796875 41.066406 C 526.796875 41.066406 267.941406 35.148438 259.0625 41.804688 Z M 259.066406 41.804688 "/>
<path style=" stroke:none;fill-rule:nonzero;fill:rgb(0%,0%,0%);fill-opacity:1;" d="M 253.96875 34.429688 C 250.273438 41.828125 240.640625 188.992188 240.640625 188.992188 C 344.183594 185.292969 397.378906 259.339844 443.972656 402.847656 C 447.671875 406.546875 534.925781 406.4375 540.101562 403.476562 C 543.800781 396.820312 541.636719 40.328125 537.9375 36.628906 C 540.898438 31.449219 263.585938 29.988281 253.972656 34.425781 Z M 337.507812 49.242188 L 333.035156 191.949219 C 320.464844 186.03125 276.828125 176.398438 255.378906 178.617188 L 264.957031 49.941406 C 269.394531 45.503906 336.011719 45.523438 337.492188 49.222656 Z M 352.96875 49.242188 C 357.40625 46.285156 510.539062 47.003906 514.972656 49.964844 C 521.628906 51.441406 527.566406 379.105469 517.953125 382.804688 L 452.128906 382.785156 C 444.730469 331.746094 389.261719 229.011719 350.804688 199.429688 Z M 352.96875 49.242188 "/>
<path style="fill-rule:nonzero;fill:rgb(93.72549%,58.431373%,12.941176%);fill-opacity:1;stroke-width:0.6;stroke-linecap:butt;stroke-linejoin:miter;stroke:rgb(93.72549%,58.431373%,12.941176%);stroke-opacity:1;stroke-miterlimit:4;" d="M 132.959545 176.240376 C 132.959545 176.240376 136.684971 173.903682 138.137415 173.46237 C 137.821461 172.010187 137.631889 169.926211 137.69508 168.537208 C 137.69508 168.537208 134.664752 168.600387 134.032845 169.737616 C 132.770916 170.873901 132.202199 175.482223 132.959545 176.240376 Z M 132.959545 176.240376 " transform="matrix(4.141725,0,0,4.142472,-443.537292,-507.074683)"/>
<path style="fill-rule:nonzero;fill:rgb(0%,0%,0%);fill-opacity:1;stroke-width:1;stroke-linecap:butt;stroke-linejoin:miter;stroke:rgb(0%,0%,0%);stroke-opacity:1;stroke-miterlimit:4;" d="M 278.750072 212.679784 C 278.750072 212.679784 278.39262 188.572611 281.071154 186.786616 C 282.321765 185.537173 292.500194 185.179785 293.214155 186.965781 C 293.035901 189.465609 291.964487 210.358178 291.964487 210.358178 Z M 278.750072 212.679784 " transform="matrix(4.141725,0,0,4.142472,-443.537292,-507.074683)"/>
<path style=" stroke:none;fill-rule:nonzero;fill:rgb(12.54902%,39.607843%,18.039216%);fill-opacity:1;" d="M 704.300781 283.683594 L 776.78125 291.078125 L 774.5625 303.652344 L 702.824219 294.777344 Z M 704.300781 283.683594 "/>
<path style=" stroke:none;fill-rule:nonzero;fill:rgb(12.54902%,39.607843%,18.039216%);fill-opacity:1;" d="M 702.851562 311.808594 L 745.007812 337.699219 L 727.257812 339.179688 L 698.414062 320.6875 Z M 702.851562 311.808594 "/>
<path style=" stroke:none;fill-rule:nonzero;fill:rgb(90.588235%,93.72549%,16.470588%);fill-opacity:1;" d="M 553.417969 222.289062 L 554.910156 238.570312 C 554.910156 238.570312 795.277344 242.269531 837.433594 250.40625 C 815.984375 226.734375 553.429688 222.296875 553.429688 222.296875 Z M 553.417969 222.289062 "/>
<path style=" stroke:none;fill-rule:nonzero;fill:rgb(12.54902%,12.54902%,12.54902%);fill-opacity:1;" d="M 600.757812 479.039062 C 608.152344 483.371094 607.414062 482.652344 613.332031 478.320312 C 637.738281 354.863281 707.996094 339.578125 815.238281 347.804688 C 819.675781 343.472656 822.636719 342.03125 819.675781 338.421875 C 684.328125 320.703125 625.164062 361.363281 600.757812 479.039062 Z M 600.757812 479.039062 "/>
<path style=" stroke:none;fill-rule:nonzero;fill:url(#linear0);" d="M 525.792969 406.507812 L 509.132812 407.167969 L 444.878906 407.167969 L 419.511719 407.898438 C 420.304688 451.542969 431.484375 539.730469 431.484375 539.730469 C 436.710938 546.003906 509.058594 546.601562 525.792969 544.507812 C 530.730469 501.238281 523.585938 453.320312 525.792969 406.507812 Z M 513.617188 424.125 L 512.09375 469.675781 L 441.746094 471.101562 L 440.222656 424.839844 Z M 512.09375 486.683594 L 510.433594 531.523438 L 443.40625 531.523438 L 443.40625 487.398438 Z M 512.09375 486.683594 "/>
<path style="fill-rule:nonzero;fill:rgb(12.54902%,12.54902%,12.54902%);fill-opacity:1;stroke-width:1;stroke-linecap:butt;stroke-linejoin:miter;stroke:rgb(0%,0%,0%);stroke-opacity:1;stroke-miterlimit:4;" d="M 328.389719 188.749891 C 322.496945 187.678671 307.139702 187.856893 306.069232 189.642889 C 304.104659 190.356721 302.854991 205.356635 304.282914 206.786186 C 305.533525 208.750405 311.068848 213.392674 325.354676 213.929227 C 326.961797 213.929227 329.640331 189.999334 328.389719 188.749891 Z M 328.389719 188.749891 " transform="matrix(4.141725,0,0,4.142472,-443.537292,-507.074683)"/>
<path style="fill:none;stroke-width:1;stroke-linecap:butt;stroke-linejoin:miter;stroke:rgb(0%,0%,0%);stroke-opacity:1;stroke-miterlimit:4;" d="M 308.210173 189.110108 L 306.603052 208.574068 " transform="matrix(4.141725,0,0,4.142472,-443.537292,-507.074683)"/>
<path style="fill:none;stroke-width:1;stroke-linecap:butt;stroke-linejoin:miter;stroke:rgb(0%,0%,0%);stroke-opacity:1;stroke-miterlimit:4;" d="M 312.4996 188.03983 L 309.821066 210.719338 " transform="matrix(4.141725,0,0,4.142472,-443.537292,-507.074683)"/>
<path style="fill:none;stroke-width:1;stroke-linecap:butt;stroke-linejoin:miter;stroke:rgb(0%,0%,0%);stroke-opacity:1;stroke-miterlimit:4;" d="M 315.710068 188.389674 L 313.567241 211.783014 " transform="matrix(4.141725,0,0,4.142472,-443.537292,-507.074683)"/>
<path style="fill:none;stroke-width:1;stroke-linecap:butt;stroke-linejoin:miter;stroke:rgb(0%,0%,0%);stroke-opacity:1;stroke-miterlimit:4;" d="M 320.000438 188.03983 L 317.678413 212.860835 " transform="matrix(4.141725,0,0,4.142472,-443.537292,-507.074683)"/>
<path style="fill:none;stroke-width:1;stroke-linecap:butt;stroke-linejoin:miter;stroke:rgb(0%,0%,0%);stroke-opacity:1;stroke-miterlimit:4;" d="M 323.929583 188.389674 L 321.430247 213.747233 " transform="matrix(4.141725,0,0,4.142472,-443.537292,-507.074683)"/>
<path style="fill:none;stroke-width:1;stroke-linecap:butt;stroke-linejoin:miter;stroke:rgb(0%,0%,0%);stroke-opacity:1;stroke-miterlimit:4;" d="M 326.790144 188.929999 L 324.647317 213.93017 " transform="matrix(4.141725,0,0,4.142472,-443.537292,-507.074683)"/>
<path style="fill-rule:nonzero;fill:rgb(100%,100%,100%);fill-opacity:1;stroke-width:0.5;stroke-linecap:butt;stroke-linejoin:miter;stroke:rgb(0%,0%,0%);stroke-opacity:1;stroke-miterlimit:4;" d="M 328.330301 201.6696 C 328.330301 201.6696 324.123871 201.414054 322.962859 202.307052 C 322.037633 203.013341 321.742428 208.635361 322.554476 209.946098 L 326.784485 211.194597 C 328.045471 211.265321 329.303627 202.35703 328.330301 201.6696 Z M 328.330301 201.6696 " transform="matrix(4.141725,0,0,4.142472,-443.537292,-507.074683)"/>
<path style="fill:none;stroke-width:1;stroke-linecap:round;stroke-linejoin:round;stroke:rgb(0%,0%,0%);stroke-opacity:1;stroke-miterlimit:4;" d="M 328.209578 201.540413 C 328.209578 201.540413 323.678706 201.15945 322.991153 202.132601 C 322.31869 202.853978 321.356681 208.743804 322.315861 209.683007 C 322.762912 210.719338 326.923128 210.953196 326.923128 210.953196 " transform="matrix(4.141725,0,0,4.142472,-443.537292,-507.074683)"/>
<path style="fill-rule:nonzero;fill:rgb(100%,99.215686%,26.27451%);fill-opacity:1;stroke-width:0.5;stroke-linecap:round;stroke-linejoin:round;stroke:rgb(100%,99.215686%,26.27451%);stroke-opacity:1;stroke-miterlimit:4;" d="M 252.02981 126.489923 C 252.02981 128.442826 249.599323 130.025139 246.60012 130.025139 C 243.601859 130.025139 241.17043 128.442826 241.17043 126.489923 C 241.17043 124.537021 243.601859 122.954708 246.60012 122.954708 C 249.599323 122.954708 252.02981 124.537021 252.02981 126.489923 Z M 252.02981 126.489923 " transform="matrix(4.141725,0,0,4.142472,-443.537292,-507.074683)"/>
<path style="fill-rule:nonzero;fill:rgb(12.54902%,39.607843%,18.039216%);fill-opacity:1;stroke-width:1;stroke-linecap:butt;stroke-linejoin:miter;stroke:rgb(12.54902%,39.607843%,18.039216%);stroke-opacity:1;stroke-miterlimit:4;" d="M 236.630126 130.029854 L 240.417799 129.525362 L 241.427908 131.797933 C 244.710999 131.545216 251.277179 130.787063 251.529942 127.757283 C 245.469288 128.514492 241.681615 126.99913 241.681615 126.99913 L 235.368197 128.261775 Z M 236.630126 130.029854 " transform="matrix(4.141725,0,0,4.142472,-443.537292,-507.074683)"/>
<path style=" stroke:none;fill-rule:nonzero;fill:rgb(25.098039%,25.098039%,25.098039%);fill-opacity:1;" d="M 399.457031 455.203125 C 399.457031 562.621094 310.046875 649.703125 199.753906 649.703125 C 89.457031 649.703125 0.046875 562.621094 0.046875 455.203125 C 0.046875 347.785156 89.457031 260.703125 199.753906 260.703125 C 310.046875 260.703125 399.457031 347.785156 399.457031 455.203125 Z M 399.457031 455.203125 "/>
<path style="fill-rule:nonzero;fill:url(#radial0);stroke-width:1.5;stroke-linecap:round;stroke-linejoin:round;stroke:rgb(19.215686%,19.215686%,19.215686%);stroke-opacity:1;stroke-miterlimit:4;" d="M 186.370142 233.569946 C 186.370142 251.283113 172.463196 265.642157 155.308057 265.642157 C 138.152918 265.642157 124.245972 251.283113 124.245972 233.569946 C 124.245972 215.856779 138.152918 201.497735 155.308057 201.497735 C 172.463196 201.497735 186.370142 215.856779 186.370142 233.569946 Z M 186.370142 233.569946 " transform="matrix(4.341356,0,0,4.140193,-480.825653,-510.720058)"/>
<path style=" stroke:none;fill-rule:nonzero;fill:url(#radial1);" d="M 222.164062 455.25 C 222.164062 469.382812 210.710938 480.839844 196.578125 480.839844 C 182.445312 480.839844 170.992188 469.382812 170.992188 455.25 C 170.992188 441.117188 182.445312 429.65625 196.578125 429.65625 C 210.710938 429.65625 222.164062 441.117188 222.164062 455.25 Z M 222.164062 455.25 "/>
<path style=" stroke:none;fill-rule:nonzero;fill:rgb(25.098039%,25.098039%,25.098039%);fill-opacity:1;" d="M 920.070312 502.410156 C 920.070312 582.582031 853.6875 647.582031 771.796875 647.582031 C 689.90625 647.582031 623.523438 582.582031 623.523438 502.410156 C 623.523438 422.234375 689.90625 357.234375 771.796875 357.234375 C 853.6875 357.234375 920.070312 422.234375 920.070312 502.410156 Z M 920.070312 502.410156 "/>
<path style="fill-rule:nonzero;fill:url(#radial2);stroke-width:1.5;stroke-linecap:round;stroke-linejoin:round;stroke:rgb(19.215686%,19.215686%,19.215686%);stroke-opacity:1;stroke-miterlimit:4;" d="M 314.159716 243.920424 C 314.159716 254.520276 305.679848 263.112936 295.21962 263.112936 C 284.7603 263.112936 276.280433 254.520276 276.280433 243.920424 C 276.280433 233.319651 284.7603 224.726992 295.21962 224.726992 C 305.679848 224.726992 314.159716 233.319651 314.159716 243.920424 Z M 314.159716 243.920424 " transform="matrix(4.302009,0,0,4.246448,-494.041482,-532.385185)"/>
<path style=" stroke:none;fill-rule:nonzero;fill:rgb(100%,90.196078%,0%);fill-opacity:1;" d="M 807.554688 502.320312 C 807.554688 519.128906 793.933594 532.75 777.128906 532.75 C 760.328125 532.75 746.703125 519.128906 746.703125 502.320312 C 746.703125 485.515625 760.328125 471.890625 777.128906 471.890625 C 793.933594 471.890625 807.554688 485.515625 807.554688 502.320312 Z M 807.554688 502.320312 "/>
</g>
</svg>
