<?xml version="1.0" encoding="UTF-8" standalone="no"?>
<!-- Created with Inkscape (http://www.inkscape.org/) -->

<svg
   xmlns:dc="http://purl.org/dc/elements/1.1/"
   xmlns:cc="http://creativecommons.org/ns#"
   xmlns:rdf="http://www.w3.org/1999/02/22-rdf-syntax-ns#"
   xmlns:svg="http://www.w3.org/2000/svg"
   xmlns="http://www.w3.org/2000/svg"
   xmlns:sodipodi="http://sodipodi.sourceforge.net/DTD/sodipodi-0.dtd"
   xmlns:inkscape="http://www.inkscape.org/namespaces/inkscape"
   id="svg2"
   sodipodi:docname="train.svg"
   xml:space="preserve"
   viewBox="0 0 497.45968 238.34919"
   version="1.1"
   inkscape:version="0.91 r13725"
   width="497.45969"
   height="238.34918"><defs
     id="defs168" /><sodipodi:namedview
     id="namedview4"
     fit-margin-left="0"
     inkscape:zoom="0.97873421"
     borderopacity="1"
     inkscape:current-layer="g10"
     inkscape:cx="219.30266"
     inkscape:guide-bbox="true"
     inkscape:window-maximized="1"
     showgrid="false"
     fit-margin-right="0"
     showguides="true"
     bordercolor="#666666"
     inkscape:window-x="65"
     guidetolerance="10"
     objecttolerance="10000"
     inkscape:window-y="24"
     fit-margin-bottom="0"
     inkscape:window-width="1855"
     inkscape:pageopacity="0"
     inkscape:pageshadow="2"
     pagecolor="#ffffff"
     gridtolerance="10"
     inkscape:cy="38.714435"
     inkscape:window-height="1056"
     fit-margin-top="0" /><g
     id="g10"
     inkscape:label="Train"
     inkscape:groupmode="layer"
     transform="matrix(1.25,0,0,-1.25,130.50907,470.78169)"><g
       id="g3558"><path
         id="path3369"
         style="fill:#000000"
         inkscape:connector-curvature="0"
         d="m -50.002,198.47 c 0,-6.9167 -3.5226,-12.524 -7.8677,-12.524 -4.3452,0 -7.8677,5.6071 -7.8677,12.524 0,6.9172 3.5226,12.524 7.8677,12.524 4.3452,0 7.8677,-5.6071 7.8677,-12.524" /><path
         id="path330"
         d="m 13.276,203.11 c 0,-8.411 -4.2836,-15.23 -9.5675,-15.23 -5.2839,0 -9.5675,6.8185 -9.5675,15.23 0,8.4117 4.2836,15.23 9.5675,15.23 5.2839,0 9.5675,-6.8185 9.5675,-15.23"
         style="fill:#000000"
         inkscape:connector-curvature="0" /><path
         id="path198"
         d="m 275.41,231.23 c 0,-3.7448 -0.83709,-6.7808 -1.8699,-6.7808 -1.03281,0 -1.8692,3.0361 -1.8692,6.7808 0,3.7453 0.83644,6.7814 1.8692,6.7814 1.03276,0 1.8699,-3.0361 1.8699,-6.7814"
         style="fill:#000000"
         inkscape:connector-curvature="0" /><path
         id="path194"
         d="m 261.47,230.56 c 0,-4.2919 -0.83708,-7.7716 -1.8699,-7.7716 -1.03282,0 -1.8693,3.4797 -1.8693,7.7716 0,4.2925 0.83645,7.7722 1.8693,7.7722 1.03285,0 1.8699,-3.4797 1.8699,-7.7722"
         style="fill:#000000"
         inkscape:connector-curvature="0" /><path
         id="path190"
         d="m 251.42,228.6 c 0,-4.1227 -0.83645,-7.4647 -1.8693,-7.4647 -1.0334,0 -1.8699,3.342 -1.8699,7.4647 0,4.1221 0.83645,7.4641 1.8699,7.4641 1.0328,0 1.8693,-3.342 1.8693,-7.4641"
         style="fill:#000000"
         inkscape:connector-curvature="0" /><path
         id="path178"
         d="m 50.413,208.2 c 0,-6.6311 -2.0438,-12.006 -4.565,-12.006 -2.5212,0 -4.565,5.3749 -4.565,12.006 0,6.6305 2.0438,12.006 4.565,12.006 2.5212,0 4.565,-5.3754 4.565,-12.006"
         style="fill:#000000"
         inkscape:connector-curvature="0" /><path
         id="path182"
         d="m 169.02,217.81 c 0,-5.0091 -1.6908,-9.0696 -3.7768,-9.0696 -2.0854,0 -3.7768,4.0605 -3.7768,9.0696 0,5.0085 1.6914,9.0696 3.7768,9.0696 2.086,0 3.7768,-4.0611 3.7768,-9.0696"
         style="fill:#000000"
         inkscape:connector-curvature="0" /><path
         id="path186"
         d="m 197.36,221.61 c 0,-4.2919 -1.1469,-7.7716 -2.5616,-7.7716 -1.4153,0 -2.5623,3.4797 -2.5623,7.7716 0,4.2919 1.1469,7.7716 2.5623,7.7716 1.4147,0 2.5616,-3.4797 2.5616,-7.7716"
         style="fill:#000000"
         inkscape:connector-curvature="0" /><path
         id="path224"
         d="m -52.071,252.91 -0.275,-0.025 -50.475,-14.975 c 0,0 0.27445,-31.185 2.05,-33.975 1.7755,-2.7899 1.2484,-10.907 20.525,-10.4 l 60.125,6.85 162.65,14.825 108.98,10.6 37.475,4.65 4.3,5.075 0.2,4.85 c -115.26,1.6569 -230.39,7.675 -345.55,12.525 z"
         sodipodi:nodetypes="cccscccccccc"
         style="fill:#000000"
         inkscape:connector-curvature="0" /><path
         id="path228"
         sodipodi:nodetypes="csccccccccccc"
         d="m -102.62,326.79 c -1.9356,-59.786 -1.7845,-58.745 -1.7845,-63.641 0,-8.5194 1.539,-25.848 1.539,-25.848 0,0 6.1688,4.7528 41.058,5.5644 l 34.889,0.81094 c 0,0 -18.257,-0.40548 0,0 18.256,0.40611 40.779,-11.972 40.779,-11.972 l 279.7,8.5545 -1.643,29.354 -188.61,46.276 -104.67,23.936 -101.02,-9.331 z"
         style="fill:#f7ab10"
         inkscape:connector-curvature="0" /><path
         id="path230"
         d="m 291.09,251.4 c 0.0204,-0.30347 -0.21421,-0.53489 -0.52661,-0.51514 l -271.22,18.184 c -2.5502,0.68332 -3.9062,0.7885 -4.1027,3.717 l -1.2605,45.825 c -0.47079,0.35459 0.97909,4.7734 5.6766,3.8261 l 270.45,-54.53 c 0.31622,-0.0644 0.58845,-0.36276 0.60949,-0.6675 z"
         sodipodi:nodetypes="cccccsccc"
         style="fill:#28468d"
         inkscape:connector-curvature="0" /><path
         id="path232"
         sodipodi:nodetypes="ccccccccccccscccccccssc"
         d="m -103.38,325.9 -0.002,10.106 c 0,0 0.44117,4.3933 6.5921,7.0301 8.1777,3.5046 10.544,3.0755 10.544,3.0755 l 24.168,22.847 -4.6151,0.69555 1.977,2.3799 c 0,0 22.408,5.7117 44.816,4.3939 4.8376,-1.1335 8.835,-2.0688 12.216,-2.8785 16.183,-3.8762 23.375,-5.9151 31.283,-12.066 0,0 30.316,-25.918 44.376,-31.19 14.06,-5.2724 189.81,-45.696 189.81,-45.696 0,0 2.0924,1.9349 8.2434,1.9349 l 9.3125,0 c 0,0 3.0391,0.39209 5.0977,-1.2744 2.058,-1.6665 10.077,-10.452 10.077,-10.452 0,0 1.2598,-1.2885 1.3178,-2.6369 0.11475,-2.633 0,-2.6356 0,-2.6356 l -106.11,23.852 -168.28,34.711 c 0,0 -9.2252,3.0761 -20.21,3.0761 -10.984,0 -54.922,1.3178 -80.846,-1.7577 -9.7212,-1.1533 -19.772,-3.5147 -19.772,-3.5147"
         style="fill:#000000"
         inkscape:connector-curvature="0" /><path
         id="path234"
         d="m -6.426,353.45 -3.5205,13.505 13.7,-2.3679 c 8.6324,-2.2925 15.373,-9.2855 21.781,-14.845 z"
         sodipodi:nodetypes="ccccc"
         style="fill:#fff696"
         inkscape:connector-curvature="0" /><path
         id="path238"
         d="m -24.96,368.79 -34.142,-2.0368 -15.276,-14.499 54.364,4.3933 z"
         sodipodi:nodetypes="ccccc"
         style="fill:#fff696"
         inkscape:connector-curvature="0" /><path
         id="path248"
         d="m 93.801,299.52 -14.811,2.3704 c -1.1374,0.1817 -2.0344,-0.43034 -1.998,-1.3688 l 0.22441,-5.7385 18.767,-2.6662 -0.21931,5.4784 c -0.03573,0.89511 -0.91232,1.7571 -1.9636,1.9247 z"
         style="fill:#fff696;stroke:#000000;stroke-width:1.27499998"
         inkscape:connector-curvature="0" /><path
         id="path252"
         d="m 77.941,276.22 c 0.03636,-0.94101 0.99201,-1.7896 2.1281,-1.8954 l 14.793,-1.3752 c 1.0494,-0.0969 1.8667,0.5521 1.831,1.4498 l -0.70958,17.724 -18.767,2.6662 0.72488,-18.57 z"
         style="fill:#fff696;stroke:#000000;stroke-width:1.27509999"
         inkscape:connector-curvature="0" /><path
         id="path256"
         d="m 116.12,295.95 -13.157,2.1052 c -1.0073,0.1613 -1.7998,-0.42333 -1.7641,-1.307 l 0.2174,-5.4025 16.67,-2.3678 -0.21294,5.1711 c -0.0344,0.84536 -0.8186,1.6512 -1.7532,1.801 z"
         style="fill:#fff696;stroke:#000000;stroke-width:1.27509999"
         inkscape:connector-curvature="0" /><path
         id="path260"
         d="m 102.12,273.87 c 0.0364,-0.88553 0.88554,-1.6793 1.8916,-1.773 l 13.138,-1.2215 c 0.93399,-0.0867 1.6595,0.5298 1.6244,1.3777 l -0.68919,16.728 -16.67,2.3678 0.70448,-17.479 z"
         style="fill:#fff696;stroke:#000000;stroke-width:1.27509999"
         inkscape:connector-curvature="0" /><path
         id="path262"
         d="m 138.14,270.37 c 0.0344,-0.80266 -0.61522,-1.3911 -1.4542,-1.3133 l 0.36914,-0.0338 c 0.83772,-0.0784 1.4855,0.50939 1.4517,1.3114 l -0.66941,15.839 -0.36595,0.0522 0.66877,-15.856 z"
         style="fill:#fff696"
         inkscape:connector-curvature="0" /><path
         id="path264"
         d="m 138.14,270.37 c 0.0344,-0.80266 -0.61522,-1.3911 -1.4542,-1.3133 l 0.36914,-0.0338 c 0.83772,-0.0784 1.4855,0.50939 1.4517,1.3114 l -0.66941,15.839 -0.36595,0.0522 0.66877,-15.856 z"
         style="fill:none;stroke:#000000;stroke-width:1.27509999"
         inkscape:connector-curvature="0" /><path
         id="path266"
         d="m 136.05,292.76 -0.36977,0.0593 c 0.84028,-0.13452 1.5454,-0.89255 1.5798,-1.6933 l 0.20657,-4.9014 0.36595,-0.0522 -0.20657,4.8963 c -0.0338,0.80011 -0.73762,1.5575 -1.576,1.6914"
         style="fill:#fff696"
         inkscape:connector-curvature="0" /><path
         id="path268"
         d="m 136.05,292.76 -0.36977,0.0593 c 0.84028,-0.13452 1.5454,-0.89255 1.5798,-1.6933 l 0.20657,-4.9014 0.36595,-0.0522 -0.20657,4.8963 c -0.0338,0.80011 -0.73762,1.5575 -1.576,1.6914 z"
         style="fill:none;stroke:#000000;stroke-width:1.27509999"
         inkscape:connector-curvature="0" /><path
         id="path270"
         d="m 123.62,271.78 -0.68408,16.51 -0.39846,0.0568 0.68472,-16.528 c 0.0344,-0.83773 0.79565,-1.5849 1.6952,-1.6678 l 0.39528,-0.037 c -0.89957,0.0835 -1.6582,0.82943 -1.6927,1.6659"
         style="fill:#fff696"
         inkscape:connector-curvature="0" /><path
         id="path272"
         d="m 123.62,271.78 -0.68408,16.51 -0.39846,0.0568 0.68472,-16.528 c 0.0344,-0.83773 0.79565,-1.5849 1.6952,-1.6678 l 0.39528,-0.037 c -0.89957,0.0835 -1.6582,0.82943 -1.6927,1.6659 z"
         style="fill:none;stroke:#000000;stroke-width:1.27509999"
         inkscape:connector-curvature="0" /><path
         id="path274"
         d="m 122.72,293.4 c -0.0344,0.83454 0.66878,1.3937 1.5696,1.2496 l -0.39527,0.0631 c -0.90084,0.14408 -1.6079,-0.41568 -1.5728,-1.2502 l 0.21166,-5.1092 0.39846,-0.0568 -0.21166,5.1035 z"
         style="fill:#fff696"
         inkscape:connector-curvature="0" /><path
         id="path276"
         d="m 122.72,293.4 c -0.0344,0.83454 0.66878,1.3937 1.5696,1.2496 l -0.39527,0.0631 c -0.90084,0.14408 -1.6079,-0.41568 -1.5728,-1.2502 l 0.21166,-5.1092 0.39846,-0.0568 -0.21166,5.1035 z"
         style="fill:none;stroke:#000000;stroke-width:1.27509999"
         inkscape:connector-curvature="0" /><path
         id="path280"
         d="m 138.14,270.37 -0.66877,15.856 -14.538,2.065 0.68408,-16.51 c 0.0344,-0.83646 0.7931,-1.5824 1.6927,-1.6659 l 11.376,-1.0577 c 0.839,-0.0778 1.4887,0.51067 1.4542,1.3133 z"
         style="fill:#fff696;stroke:#000000;stroke-width:1.27509999"
         inkscape:connector-curvature="0" /><path
         id="path284"
         d="m 122.72,293.4 0.21166,-5.1035 14.538,-2.065 -0.20657,4.9014 c -0.0344,0.80076 -0.73953,1.5588 -1.5798,1.6933 l -11.394,1.8234 c -0.90084,0.14408 -1.604,-0.41504 -1.5696,-1.2496 z"
         style="fill:#fff696;stroke:#000000;stroke-width:1.27509999"
         inkscape:connector-curvature="0" /><path
         id="path288"
         d="m 142.49,269.95 c 0.0344,-0.7931 0.71787,-1.4969 1.5269,-1.5728 l 10.585,-0.98372 c 0.75548,-0.0701 1.3395,0.4909 1.3063,1.2534 l -0.64965,15.054 -13.433,1.9082 0.66432,-15.659 z"
         style="fill:#fff696;stroke:#000000;stroke-width:1.27509999"
         inkscape:connector-curvature="0" /><path
         id="path292"
         d="m 153.63,289.95 -10.603,1.6965 c -0.80967,0.12942 -1.4402,-0.40675 -1.407,-1.1979 l 0.20528,-4.8408 13.433,-1.9082 -0.20083,4.6534 c -0.0331,0.76122 -0.67006,1.4759 -1.4274,1.597 z"
         inkscape:transform-center-x="-115.51713"
         style="fill:#fff696;stroke:#000000;stroke-width:1.27509999"
         inkscape:connector-curvature="0" /><path
         id="path296"
         d="m 159.18,283.14 0.6452,-14.877 c 0.0319,-0.75358 0.65219,-1.4192 1.3815,-1.4874 l 9.5707,-0.88936 c 0.68408,-0.0644 1.21,0.47306 1.1788,1.1986 l -0.63054,14.33 -12.146,1.7252 z"
         style="fill:#fff696;stroke:#000000;stroke-width:1.27509999"
         inkscape:connector-curvature="0" /><path
         id="path300"
         d="m 171.13,285.85 c -0.0318,0.72423 -0.61075,1.4 -1.2974,1.5097 l -9.5873,1.5339 c -0.73125,0.11667 -1.2987,-0.39783 -1.2655,-1.1495 l 0.19891,-4.5992 12.146,-1.7252 -0.19445,4.4303 z"
         style="fill:#fff696;stroke:#000000;stroke-width:1.27509999"
         inkscape:connector-curvature="0" /><path
         id="path304"
         d="m 50.09,275.97 c 0.03762,-1.0086 -1.0009,-1.7239 -2.3277,-1.5964 l -7.004,0.67197 c -1.3771,0.13197 -2.5304,1.08 -2.5686,2.1154 l -1.1865,32.212 c -0.03824,1.0315 1.0551,1.6716 2.4328,1.4306 l 7.0116,-1.2266 c 1.328,-0.23206 2.429,-1.2343 2.4673,-2.2397 l 1.175,-31.367 z"
         style="fill:#fff696;stroke:#000000;stroke-width:1.27509999"
         inkscape:connector-curvature="0" /><path
         id="path306"
         d="m 61.397,274.41 c 0.03699,-0.98244 -0.94738,-1.6831 -2.2065,-1.5632 l -1.5479,0.14726 c -1.2751,0.12113 -2.3449,1.0277 -2.3825,2.0242 l -1.0545,27.941 c -0.03762,0.99393 0.97224,1.6257 2.2492,1.4128 l 1.5492,-0.25884 c 1.2604,-0.21039 2.3066,-1.1743 2.3442,-2.1542 l 1.0488,-27.549 z"
         style="fill:#fff696;stroke:#000000;stroke-width:0.63753998"
         inkscape:connector-curvature="0" /><path
         id="path308"
         d="m 70.548,273.5 c 0.03699,-0.96205 -0.9053,-1.6493 -2.1102,-1.5346 l -1.4823,0.14026 c -1.2215,0.11667 -2.2467,1.0016 -2.2837,1.9764 l -1.0456,27.34 c -0.03699,0.97288 0.92889,1.5945 2.1517,1.3905 l 1.4836,-0.24801 c 1.2069,-0.20082 2.2103,-1.1412 2.2467,-2.1 l 1.0398,-26.964 z"
         style="fill:#fff696;stroke:#000000;stroke-width:0.63753998"
         inkscape:connector-curvature="0" /><path
         id="path314"
         d="m 182.02,262.45 c 0.0319,-0.70703 -0.46732,-1.2304 -1.1176,-1.1686 l -0.79565,0.0765 c -0.65539,0.0612 -1.2145,0.6911 -1.2464,1.4051 l -0.88618,20.031 c -0.0324,0.71276 0.47624,1.2011 1.1336,1.0915 l 0.79819,-0.13325 c 0.65157,-0.10838 1.2018,-0.76824 1.2336,-1.474 l 0.88044,-19.829 z"
         style="fill:#fff696;stroke:#000000;stroke-width:0.63753998"
         inkscape:connector-curvature="0" /><path
         id="path316"
         d="m 186.78,261.98 c 0.0312,-0.69619 -0.45266,-1.212 -1.0819,-1.1514 l -0.7727,0.0727 c -0.63498,0.0606 -1.1782,0.67962 -1.2094,1.3828 l -0.8779,19.72 c -0.0306,0.70192 0.46221,1.1839 1.0991,1.0774 l 0.77398,-0.12879 c 0.63116,-0.10582 1.1654,-0.75357 1.1967,-1.4485 l 0.87215,-19.524 z"
         style="fill:#fff696;stroke:#000000;stroke-width:0.63753998"
         inkscape:connector-curvature="0" /><path
         id="path318"
         d="m 61.549,313.33 -8.7253,1.6563 c -1.3726,0.26076 -2.4577,-0.44308 -2.415,-1.5741 l 3.0627,-81.547 11.186,0 -3.108,81.465 z"
         style="fill:none;stroke:#000000;stroke-width:0.63753998"
         inkscape:connector-curvature="0" /><path
         id="path320"
         d="m 68.94,311.93 -7.391,1.4032 3.108,-81.465 9.6479,0 -3.0028,77.677 c -0.04202,1.0774 -1.0966,2.144 -2.3621,2.3844 z"
         style="fill:none;stroke:#000000;stroke-width:0.63753998"
         inkscape:connector-curvature="0" /><path
         id="path322"
         d="m 189.25,231.87 -2.5189,56.297 c -0.0338,0.78161 -0.598,1.5167 -1.2617,1.6429 l -3.852,0.73062 2.6094,-58.671 5.0232,0 z"
         style="fill:none;stroke:#000000;stroke-width:0.63753998"
         inkscape:connector-curvature="0" /><path
         id="path324"
         d="m 181.62,290.54 -4.5004,0.8543 c -0.70384,0.13389 -1.247,-0.41313 -1.2107,-1.2228 l 2.5737,-58.302 5.7468,0 -2.6094,58.671 z"
         style="fill:none;stroke:#000000;stroke-width:0.63753998"
         inkscape:connector-curvature="0" /><path
         id="path334"
         d="m 208.16,280.44 -16.104,2.8122 c -1.2604,0.21995 -2.2626,-0.13197 -2.2308,-0.78799 l 0.2002,-4.0127 20.415,-3.2234 -0.19764,3.7487 c -0.0312,0.61267 -0.96141,1.2668 -2.0828,1.4632 z"
         style="fill:#fff696;stroke:#000000;stroke-width:1.27509999"
         inkscape:connector-curvature="0" /><path
         id="path338"
         d="m 190.67,265.45 c 0.0318,-0.65858 1.087,-1.3082 2.3468,-1.4498 l 16.095,-1.8042 c 1.1202,-0.1256 1.998,0.27159 1.9649,0.88744 l -0.63753,12.142 -20.415,3.2234 0.64583,-12.999 z"
         style="fill:#fff696;stroke:#000000;stroke-width:1.27509999"
         inkscape:connector-curvature="0" /><path
         id="path342"
         d="m 231.42,276.38 -13.567,2.3691 c -1.0558,0.18488 -1.8916,-0.15174 -1.8597,-0.7523 l 0.19573,-3.6748 17.194,-2.7146 -0.19191,3.4516 c -0.0312,0.56485 -0.82306,1.1558 -1.7711,1.321 z"
         style="fill:#fff696;stroke:#000000;stroke-width:1.27509999"
         inkscape:connector-curvature="0" /><path
         id="path346"
         d="m 216.82,262.42 c 0.0319,-0.60375 0.91933,-1.189 1.9738,-1.307 l 13.554,-1.5205 c 0.94738,-0.10647 1.6863,0.26777 1.6544,0.83453 l -0.62287,11.179 -17.194,2.7146 0.63435,-11.9 z"
         style="fill:#fff696;stroke:#000000;stroke-width:1.27509999"
         inkscape:connector-curvature="0" /><path
         id="path366"
         d="m 253.19,258.2 -0.60629,10.371 -14.323,2.262 0.61842,-10.974 c 0.0306,-0.55593 0.788,-1.0889 1.6856,-1.1896 l 11.209,-1.2572 c 0.81541,-0.0912 1.4478,0.26139 1.4166,0.78799 z"
         style="fill:#fff696;stroke:#000000;stroke-width:1.27509999"
         inkscape:connector-curvature="0" /><path
         id="path370"
         d="m 238.07,274.22 0.19189,-3.3892 14.323,-2.262 -0.18616,3.2036 c -0.0306,0.52343 -0.71277,1.0628 -1.5294,1.2056 l -11.224,1.9598 c -0.9002,0.15683 -1.6053,-0.16448 -1.5754,-0.71787 z"
         style="fill:#fff696;stroke:#000000;stroke-width:1.27509999"
         inkscape:connector-curvature="0" /><path
         id="path374"
         d="m 257.39,257.71 c 0.0306,-0.51704 0.68535,-1.006 1.4612,-1.0934 l 10.016,-1.1233 c 0.70702,-0.0791 1.2515,0.25437 1.2222,0.74337 l -0.58717,9.6619 -12.714,2.007 0.60185,-10.196 z"
         style="fill:#fff696;stroke:#000000;stroke-width:1.27509999"
         inkscape:connector-curvature="0" /><path
         id="path378"
         d="m 267.99,269.99 -10.035,1.7526 c -0.77589,0.13515 -1.3822,-0.17213 -1.3529,-0.68664 l 0.18552,-3.1488 12.714,-2.007 -0.1817,2.9837 c -0.0294,0.48773 -0.62351,0.98245 -1.3305,1.1061 z"
         style="fill:#fff696;stroke:#000000;stroke-width:1.27509999"
         inkscape:connector-curvature="0" /><path
         id="path382"
         d="m 273.15,265.32 0.58207,-9.5076 c 0.0287,-0.48134 0.60183,-0.934 1.2757,-1.0092 l 8.7355,-0.97926 c 0.61778,-0.0689 1.0927,0.24673 1.0641,0.70449 l -0.56805,9.0409 -11.089,1.7507 z"
         style="fill:#fff696;stroke:#000000;stroke-width:1.27509999"
         inkscape:connector-curvature="0" /><path
         id="path386"
         d="m 284.06,266.37 c -0.028,0.45648 -0.55083,0.91422 -1.1705,1.022 l -8.7528,1.5282 c -0.67515,0.11858 -1.1998,-0.17531 -1.1699,-0.65539 l 0.17915,-2.9371 11.089,-1.7507 -0.17532,2.793 z"
         style="fill:#fff696;stroke:#000000;stroke-width:1.27509999"
         inkscape:connector-curvature="0" /><path
         id="path388"
         d="m -95.109,327.52 c 0,0 -1.4963,8.478 2.4934,8.478 3.9897,0 58.347,3.4905 58.347,3.4905 l 0.45659,-97.225 -61.297,-2.6182 z"
         sodipodi:nodetypes="cscccc"
         style="fill:none;stroke:#000000;stroke-width:0.63753998"
         inkscape:connector-curvature="0" /><path
         id="path390"
         d="m -13.183,250.4 c -0.20019,-1.2164 -1.3267,-2.1714 -2.5227,-2.1714 l -6.4238,0 c -1.196,0 -2.1651,0.95438 -2.1651,2.1708 l 0,11.119 c 0,1.7175 1.2139,3.1666 2.7108,3.1666 l 8.0432,0 c 1.4969,0 2.4724,-1.4491 2.1893,-3.1666 l -1.8316,-11.119 z"
         style="fill:#000000"
         inkscape:connector-curvature="0" /><path
         id="path392"
         d="m -96.606,241.65 c 0,-1.0653 -0.91742,-1.5518 -2.0108,-1.1438 l -1.4376,0.53681 c -1.0003,0.37296 -1.8737,1.4523 -1.9866,2.4603 l -1.6691,14.843 c -0.20274,1.8087 0.70511,3.3522 2.1039,3.3522 l 2.0503,0 c 1.5913,0 2.9499,-1.7628 2.9499,-3.8131 l 0,-16.236 z"
         style="fill:#000000"
         inkscape:connector-curvature="0" /><path
         id="path394"
         d="m -11.827,312.28 c 0,-1.4969 -1.2139,-2.7108 -2.7108,-2.7108 l -8.0438,0 c -1.4969,0 -2.7108,1.2139 -2.7108,2.7108 l 0,6.0483 c 0,1.4976 1.2139,2.7108 2.7108,2.7108 l 8.0438,0 c 1.4969,0 2.7108,-1.2132 2.7108,-2.7108 l 0,-6.0483 z"
         style="fill:#000000"
         inkscape:connector-curvature="0" /><path
         id="path396"
         d="m -97.705,307.52 c 0,-1.4963 -0.39336,-2.7102 -0.87853,-2.7102 l -2.6063,0 c -0.48517,0 -0.87853,1.2139 -0.87853,2.7102 l 0,6.049 c 0,1.4969 0.39336,2.7108 0.87853,2.7108 l 2.6063,0 c 0.48517,0 0.87853,-1.2139 0.87853,-2.7108 l 0,-6.049 z"
         style="fill:#000000"
         inkscape:connector-curvature="0" /><path
         id="path408"
         d="m -97.96,258.35 c 0,-0.98181 -0.79628,-1.7775 -1.7781,-1.7775 l -0.32323,0 c -0.98181,0 -1.7781,0.79565 -1.7781,1.7775 0,0.98244 0.79629,1.7781 1.7781,1.7781 l 0.32323,0 c 0.98181,0 1.7781,-0.79565 1.7781,-1.7781"
         style="fill:#ff7f2a"
         inkscape:connector-curvature="0" /><path
         id="path410"
         d="m -13.27,260.46 c 0,-1.4287 -1.1578,-2.5865 -2.5859,-2.5865 l -3.5555,0 c -1.4287,0 -2.5865,1.1578 -2.5865,2.5865 0,1.4274 1.1578,2.5852 2.5865,2.5852 l 3.5555,0 c 1.4281,0 2.5859,-1.1578 2.5859,-2.5852"
         style="fill:#ff7f2a"
         inkscape:connector-curvature="0" /><path
         id="path180"
         d="m 156.96,216.1 c 0,-5.1405 -1.8361,-9.3079 -4.1006,-9.3079 -2.2652,0 -4.1013,4.1674 -4.1013,9.3079 0,5.1399 1.8361,9.3073 4.1013,9.3073 2.2646,0 4.1006,-4.1674 4.1006,-9.3073"
         style="fill:#000000"
         inkscape:connector-curvature="0" /><path
         id="path184"
         d="m 189.45,219.29 c 0,-4.1891 -1.4734,-7.5855 -3.2903,-7.5855 -1.8176,0 -3.2903,3.3964 -3.2903,7.5855 0,4.1898 1.4727,7.5861 3.2903,7.5861 1.817,0 3.2903,-3.3964 3.2903,-7.5861"
         style="fill:#000000"
         inkscape:connector-curvature="0" /><path
         id="path188"
         d="m 220.07,225.13 c 0,-4.2925 -0.83645,-7.7722 -1.8693,-7.7722 -1.03285,0 -1.8699,3.4797 -1.8699,7.7722 0,4.2919 0.83709,7.7716 1.8699,7.7716 1.03281,0 1.8693,-3.4797 1.8693,-7.7716"
         style="fill:#000000"
         inkscape:connector-curvature="0" /><path
         id="path192"
         d="m 254.36,221.86 c -1.8907,0.9314 -1.5336,2.5243 -1.7644,3.7661 0.19106,1.3071 -0.13613,2.9 1.677,3.9472 1.6082,-0.13912 1.4926,-1.3683 1.8353,-2.0126 0.30072,-1.8511 0.62237,-3.9056 -1.1799,-5.5919 -0.13264,-0.0813 -0.35926,-0.13727 -0.56808,-0.1088 z"
         style="fill:#000000"
         inkscape:connector-curvature="0" /><path
         id="path196"
         d="m 266.66,227.16 c 0,-2.0802 -0.83644,-3.7668 -1.8692,-3.7668 -1.03276,0 -1.8699,1.6866 -1.8699,3.7668 0,2.0806 0.83709,3.7668 1.8699,3.7668 1.03281,0 1.8692,-1.6862 1.8692,-3.7668"
         style="fill:#000000"
         inkscape:connector-curvature="0" /><path
         id="path200"
         d="m 280.6,229.68 c 0,-2.2896 -0.8371,-4.1456 -1.8699,-4.1456 -1.0328,0 -1.8699,1.856 -1.8699,4.1456 0,2.2892 0.83709,4.1453 1.8699,4.1453 1.03281,0 1.8699,-1.856 1.8699,-4.1453"
         style="fill:#000000"
         inkscape:connector-curvature="0" /><path
         id="path3152"
         style="fill:#000000"
         inkscape:connector-curvature="0"
         d="m 77.381,207.38 c 0,-4.9211 -2.5063,-8.9105 -5.5978,-8.9105 -3.0915,0 -5.5978,3.9893 -5.5978,8.9105 0,4.9215 2.5063,8.9108 5.5978,8.9108 3.0915,0 5.5978,-3.9893 5.5978,-8.9108" /></g></g><metadata
     id="metadata166"><rdf:RDF><cc:Work><dc:format>image/svg+xml</dc:format><dc:type
           rdf:resource="http://purl.org/dc/dcmitype/StillImage" /><cc:license
           rdf:resource="http://creativecommons.org/publicdomain/zero/1.0/" /><dc:publisher><cc:Agent
             rdf:about="http://openclipart.org/"><dc:title>Openclipart</dc:title></cc:Agent></dc:publisher><dc:title>Dutch train</dc:title><dc:date>2012-06-09T10:00:56</dc:date><dc:description>Dutch train on its way</dc:description><dc:source>https://openclipart.org/detail/170494/dutch-train-by-rdevries-170494</dc:source><dc:creator><cc:Agent><dc:title>rdevries</dc:title></cc:Agent></dc:creator><dc:subject><rdf:Bag><rdf:li>Holland</rdf:li><rdf:li>Netherlands</rdf:li><rdf:li>The Netherlands</rdf:li><rdf:li>dutch</rdf:li><rdf:li>dutch train</rdf:li><rdf:li>railroad</rdf:li><rdf:li>railway</rdf:li><rdf:li>traffic</rdf:li><rdf:li>train</rdf:li><rdf:li>transport</rdf:li><rdf:li>transportation</rdf:li><rdf:li>vehicle</rdf:li></rdf:Bag></dc:subject></cc:Work><cc:License
         rdf:about="http://creativecommons.org/publicdomain/zero/1.0/"><cc:permits
           rdf:resource="http://creativecommons.org/ns#Reproduction" /><cc:permits
           rdf:resource="http://creativecommons.org/ns#Distribution" /><cc:permits
           rdf:resource="http://creativecommons.org/ns#DerivativeWorks" /></cc:License></rdf:RDF></metadata></svg>