<?xml version="1.0" encoding="UTF-8"?>
<svg xmlns="http://www.w3.org/2000/svg" xmlns:xlink="http://www.w3.org/1999/xlink" width="1023pt" height="490pt" viewBox="0 0 1023 490" version="1.1">
<g id="surface1">
<path style=" stroke:none;fill-rule:nonzero;fill:rgb(0%,0%,0%);fill-opacity:1;" d="M 139.980469 458.488281 C 139.980469 476.289062 130.917969 490.71875 119.738281 490.71875 C 108.558594 490.71875 99.496094 476.289062 99.496094 458.488281 C 99.496094 440.6875 108.558594 426.257812 119.738281 426.257812 C 130.917969 426.257812 139.980469 440.6875 139.980469 458.488281 "/>
<path style=" stroke:none;fill-rule:nonzero;fill:rgb(0%,0%,0%);fill-opacity:1;" d="M 302.792969 446.546875 C 302.792969 468.191406 291.769531 485.742188 278.175781 485.742188 C 264.578125 485.742188 253.558594 468.195312 253.558594 446.546875 C 253.558594 424.898438 264.578125 407.351562 278.175781 407.351562 C 291.769531 407.351562 302.792969 424.898438 302.792969 446.546875 "/>
<path style=" stroke:none;fill-rule:nonzero;fill:rgb(0%,0%,0%);fill-opacity:1;" d="M 977.246094 374.179688 C 977.246094 383.816406 975.09375 391.628906 972.433594 391.628906 C 969.777344 391.628906 967.625 383.816406 967.625 374.179688 C 967.625 364.539062 969.777344 356.726562 972.433594 356.726562 C 975.09375 356.726562 977.246094 364.539062 977.246094 374.179688 "/>
<path style=" stroke:none;fill-rule:nonzero;fill:rgb(0%,0%,0%);fill-opacity:1;" d="M 941.378906 375.902344 C 941.378906 386.949219 939.226562 395.902344 936.566406 395.902344 C 933.910156 395.902344 931.757812 386.949219 931.757812 375.902344 C 931.757812 364.855469 933.910156 355.902344 936.566406 355.902344 C 939.226562 355.902344 941.378906 364.855469 941.378906 375.902344 "/>
<path style=" stroke:none;fill-rule:nonzero;fill:rgb(0%,0%,0%);fill-opacity:1;" d="M 915.519531 380.949219 C 915.519531 391.558594 913.371094 400.160156 910.710938 400.160156 C 908.054688 400.160156 905.902344 391.558594 905.902344 380.949219 C 905.902344 370.339844 908.050781 361.738281 910.710938 361.738281 C 913.367188 361.738281 915.519531 370.339844 915.519531 380.949219 "/>
<path style=" stroke:none;fill-rule:nonzero;fill:rgb(0%,0%,0%);fill-opacity:1;" d="M 398.34375 433.449219 C 398.34375 450.511719 393.085938 464.34375 386.597656 464.34375 C 380.109375 464.34375 374.851562 450.511719 374.851562 433.449219 C 374.851562 416.382812 380.109375 402.550781 386.597656 402.550781 C 393.085938 402.550781 398.34375 416.382812 398.34375 433.449219 "/>
<path style=" stroke:none;fill-rule:nonzero;fill:rgb(0%,0%,0%);fill-opacity:1;" d="M 703.511719 408.714844 C 703.511719 421.605469 699.160156 432.058594 693.792969 432.058594 C 688.429688 432.058594 684.078125 421.605469 684.078125 408.714844 C 684.078125 395.828125 688.429688 385.375 693.792969 385.375 C 699.160156 385.375 703.511719 395.828125 703.511719 408.714844 "/>
<path style=" stroke:none;fill-rule:nonzero;fill:rgb(0%,0%,0%);fill-opacity:1;" d="M 776.429688 398.9375 C 776.429688 409.980469 773.476562 418.9375 769.835938 418.9375 C 766.195312 418.9375 763.246094 409.980469 763.246094 398.9375 C 763.246094 387.890625 766.195312 378.9375 769.835938 378.9375 C 773.476562 378.9375 776.429688 387.890625 776.429688 398.9375 "/>
<path style=" stroke:none;fill-rule:nonzero;fill:rgb(0%,0%,0%);fill-opacity:1;" d="M 134.65625 318.386719 L 133.949219 318.449219 L 4.082031 356.988281 C 4.082031 356.988281 4.789062 437.242188 9.355469 444.421875 C 13.925781 451.605469 12.566406 472.492188 62.164062 471.1875 L 216.863281 453.558594 L 635.351562 415.40625 L 915.75 388.128906 L 1012.171875 376.160156 L 1023.234375 363.101562 L 1023.75 350.617188 C 727.191406 346.355469 430.96875 330.867188 134.671875 318.386719 Z M 134.65625 318.386719 "/>
<path style=" stroke:none;fill-rule:nonzero;fill:rgb(96.862745%,67.058824%,6.27451%);fill-opacity:1;" d="M 4.597656 128.253906 C -0.382812 282.113281 0.0078125 279.433594 0.0078125 292.035156 C 0.0078125 313.960938 3.96875 358.554688 3.96875 358.554688 C 3.96875 358.554688 19.839844 346.324219 109.605469 344.234375 L 199.375 342.148438 C 199.375 342.148438 152.398438 343.191406 199.375 342.148438 C 246.34375 341.101562 304.296875 372.957031 304.296875 372.957031 L 1023.945312 350.941406 L 1019.71875 275.398438 L 534.4375 156.308594 L 265.128906 94.707031 L 5.210938 118.722656 Z M 4.597656 128.253906 "/>
<path style=" stroke:none;fill-rule:nonzero;fill:rgb(15.686275%,27.45098%,55.294118%);fill-opacity:1;" d="M 1017.589844 322.269531 C 1017.640625 323.050781 1017.039062 323.648438 1016.234375 323.597656 L 318.402344 276.800781 C 311.839844 275.042969 308.351562 274.769531 307.847656 267.234375 L 304.605469 149.300781 C 303.390625 148.390625 307.121094 137.015625 319.210938 139.457031 L 1015.058594 279.789062 C 1015.875 279.957031 1016.574219 280.722656 1016.628906 281.507812 Z M 1017.589844 322.269531 "/>
<path style=" stroke:none;fill-rule:nonzero;fill:rgb(0%,0%,0%);fill-opacity:1;" d="M 2.644531 130.542969 L 2.636719 104.535156 C 2.636719 104.535156 3.773438 93.230469 19.597656 86.441406 C 40.640625 77.421875 46.726562 78.527344 46.726562 78.527344 L 108.910156 19.730469 L 97.035156 17.941406 L 102.125 11.816406 C 102.125 11.816406 159.777344 -2.882812 217.433594 0.507812 C 229.878906 3.425781 240.164062 5.832031 248.863281 7.914062 C 290.5 17.890625 309.003906 23.136719 329.351562 38.96875 C 329.351562 38.96875 407.351562 105.667969 443.527344 119.238281 C 479.703125 132.804688 931.898438 236.835938 931.898438 236.835938 C 931.898438 236.835938 937.28125 231.855469 953.109375 231.855469 L 977.066406 231.855469 C 977.066406 231.855469 984.886719 230.847656 990.183594 235.136719 C 995.480469 239.425781 1016.113281 262.035156 1016.113281 262.035156 C 1016.113281 262.035156 1019.351562 265.351562 1019.503906 268.820312 C 1019.796875 275.597656 1019.503906 275.605469 1019.503906 275.605469 L 746.488281 214.21875 L 313.515625 124.890625 C 313.515625 124.890625 289.777344 116.972656 261.515625 116.972656 C 233.253906 116.972656 120.203125 113.582031 53.503906 121.496094 C 28.492188 124.464844 2.632812 130.542969 2.632812 130.542969 "/>
<path style=" stroke:none;fill-rule:nonzero;fill:rgb(100%,96.470588%,58.823529%);fill-opacity:1;" d="M 252.101562 59.640625 L 243.042969 24.886719 L 278.289062 30.980469 C 300.5 36.878906 317.84375 54.878906 334.332031 69.183594 Z M 252.101562 59.640625 "/>
<path style=" stroke:none;fill-rule:nonzero;fill:rgb(100%,96.470588%,58.823529%);fill-opacity:1;" d="M 204.414062 20.164062 L 116.566406 25.40625 L 77.261719 62.71875 L 217.136719 51.414062 Z M 204.414062 20.164062 "/>
<path style="fill-rule:nonzero;fill:rgb(100%,96.470588%,58.823529%);fill-opacity:1;stroke-width:1.275;stroke-linecap:butt;stroke-linejoin:miter;stroke:rgb(0%,0%,0%);stroke-opacity:1;stroke-miterlimit:4;" d="M 93.80064 299.519724 L 78.990537 301.890617 C 77.851882 302.07276 76.95614 301.459545 76.992577 300.52151 L 77.215754 294.782491 L 95.98382 292.117134 L 95.76368 297.595081 C 95.728762 298.490617 94.851238 299.352759 93.80064 299.519724 Z M 93.80064 299.519724 " transform="matrix(2.572938,0,0,-2.573529,268.633378,969.25638)"/>
<path style="fill-rule:nonzero;fill:rgb(100%,96.470588%,58.823529%);fill-opacity:1;stroke-width:1.2751;stroke-linecap:butt;stroke-linejoin:miter;stroke:rgb(0%,0%,0%);stroke-opacity:1;stroke-miterlimit:4;" d="M 77.941456 276.220616 C 77.977893 275.279544 78.932845 274.431062 80.068463 274.324812 L 94.861866 272.949633 C 95.910946 272.852491 96.72926 273.502133 96.692823 274.399187 L 95.98382 292.123206 L 77.217272 294.790081 L 77.941456 276.219098 Z M 77.941456 276.220616 " transform="matrix(2.572938,0,0,-2.573529,268.633378,969.25638)"/>
<path style="fill-rule:nonzero;fill:rgb(100%,96.470588%,58.823529%);fill-opacity:1;stroke-width:1.2751;stroke-linecap:butt;stroke-linejoin:miter;stroke:rgb(0%,0%,0%);stroke-opacity:1;stroke-miterlimit:4;" d="M 116.119791 295.949724 L 102.963015 298.054992 C 101.956444 298.215884 101.16394 297.631509 101.198859 296.748117 L 101.415962 291.346063 L 118.085868 288.978205 L 117.873319 294.149545 C 117.8384 294.994991 117.055006 295.799456 116.119791 295.949724 Z M 116.119791 295.949724 " transform="matrix(2.572938,0,0,-2.573529,268.633378,969.25638)"/>
<path style="fill-rule:nonzero;fill:rgb(100%,96.470588%,58.823529%);fill-opacity:1;stroke-width:1.2751;stroke-linecap:butt;stroke-linejoin:miter;stroke:rgb(0%,0%,0%);stroke-opacity:1;stroke-miterlimit:4;" d="M 102.12041 273.869455 C 102.156847 272.984544 103.005524 272.190705 104.012095 272.096598 L 117.149135 270.87624 C 118.082831 270.788205 118.808534 271.405973 118.773615 272.252937 L 118.08435 288.981241 L 101.414444 291.349098 L 102.118892 273.869455 Z M 102.12041 273.869455 " transform="matrix(2.572938,0,0,-2.573529,268.633378,969.25638)"/>
<path style="fill-rule:nonzero;fill:rgb(100%,96.470588%,58.823529%);fill-opacity:1;stroke-width:1.2751;stroke-linecap:butt;stroke-linejoin:miter;stroke:rgb(0%,0%,0%);stroke-opacity:1;stroke-miterlimit:4;" d="M 138.139855 270.369276 C 138.174774 269.567848 137.524982 268.978919 136.685413 269.05633 L 137.054338 269.022937 C 137.892387 268.944008 138.540662 269.532937 138.507261 270.334365 L 137.837732 286.173205 L 137.471844 286.224812 Z M 138.139855 270.369276 " transform="matrix(2.572938,0,0,-2.573529,268.633378,969.25638)"/>
<path style=" stroke:none;fill-rule:nonzero;fill:rgb(100%,96.470588%,58.823529%);fill-opacity:1;" d="M 618.679688 215.828125 L 617.730469 215.675781 C 619.890625 216.023438 621.707031 217.972656 621.792969 220.035156 L 622.328125 232.648438 L 623.269531 232.785156 L 622.738281 220.183594 C 622.648438 218.125 620.839844 216.175781 618.679688 215.828125 "/>
<path style="fill:none;stroke-width:1.2751;stroke-linecap:butt;stroke-linejoin:miter;stroke:rgb(0%,0%,0%);stroke-opacity:1;stroke-miterlimit:4;" d="M 136.049285 292.760706 L 135.680361 292.819902 C 136.519929 292.684813 137.225895 291.927402 137.259295 291.125973 L 137.46729 286.224812 L 137.833177 286.171687 L 137.626701 291.068295 C 137.591783 291.868206 136.888853 292.625616 136.049285 292.760706 Z M 136.049285 292.760706 " transform="matrix(2.572938,0,0,-2.573529,268.633378,969.25638)"/>
<path style=" stroke:none;fill-rule:nonzero;fill:rgb(100%,96.470588%,58.823529%);fill-opacity:1;" d="M 586.699219 269.824219 L 584.941406 227.332031 L 583.914062 227.1875 L 585.675781 269.722656 C 585.765625 271.878906 587.722656 273.800781 590.039062 274.015625 L 591.054688 274.109375 C 588.742188 273.894531 586.789062 271.976562 586.699219 269.824219 "/>
<path style="fill:none;stroke-width:1.2751;stroke-linecap:butt;stroke-linejoin:miter;stroke:rgb(0%,0%,0%);stroke-opacity:1;stroke-miterlimit:4;" d="M 123.61973 271.779365 L 122.936537 288.290616 L 122.537249 288.346777 L 123.22196 271.81883 C 123.256879 270.980973 124.0175 270.234187 124.917796 270.150705 L 125.31253 270.114276 C 124.413752 270.197758 123.654649 270.943026 123.61973 271.779365 Z M 123.61973 271.779365 " transform="matrix(2.572938,0,0,-2.573529,268.633378,969.25638)"/>
<path style="fill-rule:nonzero;fill:rgb(100%,96.470588%,58.823529%);fill-opacity:1;stroke-width:1.2751;stroke-linecap:butt;stroke-linejoin:miter;stroke:rgb(0%,0%,0%);stroke-opacity:1;stroke-miterlimit:4;" d="M 122.719434 293.399724 C 122.686033 294.234545 123.388962 294.793116 124.289259 294.64892 L 123.894525 294.71267 C 122.994229 294.856866 122.286745 294.296777 122.321663 293.461956 L 122.532694 288.352848 L 122.931982 288.296688 Z M 122.719434 293.399724 " transform="matrix(2.572938,0,0,-2.573529,268.633378,969.25638)"/>
<path style="fill-rule:nonzero;fill:rgb(100%,96.470588%,58.823529%);fill-opacity:1;stroke-width:1.2751;stroke-linecap:butt;stroke-linejoin:miter;stroke:rgb(0%,0%,0%);stroke-opacity:1;stroke-miterlimit:4;" d="M 138.139855 270.369276 L 137.471844 286.22633 L 122.933501 288.290616 L 123.616693 271.780883 C 123.651612 270.944544 124.410715 270.199276 125.309493 270.115794 L 136.685413 269.057847 C 137.524982 268.978919 138.174774 269.567848 138.139855 270.370794 Z M 138.139855 270.369276 " transform="matrix(2.572938,0,0,-2.573529,268.633378,969.25638)"/>
<path style="fill-rule:nonzero;fill:rgb(100%,96.470588%,58.823529%);fill-opacity:1;stroke-width:1.2751;stroke-linecap:butt;stroke-linejoin:miter;stroke:rgb(0%,0%,0%);stroke-opacity:1;stroke-miterlimit:4;" d="M 122.719434 293.399724 L 122.931982 288.296688 L 137.470326 286.230884 L 137.262332 291.133563 C 137.228931 291.933473 136.522965 292.692402 135.683397 292.825973 L 124.289259 294.64892 C 123.388962 294.793116 122.686033 294.234545 122.719434 293.399724 Z M 122.719434 293.399724 " transform="matrix(2.572938,0,0,-2.573529,268.633378,969.25638)"/>
<path style="fill-rule:nonzero;fill:rgb(100%,96.470588%,58.823529%);fill-opacity:1;stroke-width:1.2751;stroke-linecap:butt;stroke-linejoin:miter;stroke:rgb(0%,0%,0%);stroke-opacity:1;stroke-miterlimit:4;" d="M 142.489516 269.950348 C 142.524435 269.156508 143.207628 268.45374 144.016832 268.377847 L 154.601766 267.392758 C 155.357833 267.322937 155.940824 267.884544 155.908942 268.646508 L 155.25915 283.700616 L 141.82606 285.608562 Z M 142.489516 269.950348 " transform="matrix(2.572938,0,0,-2.573529,268.633378,969.25638)"/>
<path style="fill-rule:nonzero;fill:rgb(100%,96.470588%,58.823529%);fill-opacity:1;stroke-width:1.2751;stroke-linecap:butt;stroke-linejoin:miter;stroke:rgb(0%,0%,0%);stroke-opacity:1;stroke-miterlimit:4;" d="M 153.630114 289.949634 L 143.026961 291.646598 C 142.217757 291.775616 141.586183 291.239813 141.619584 290.449009 L 141.824542 285.607045 L 155.257631 283.699098 L 155.057228 288.352848 C 155.023828 289.114813 154.387699 289.828206 153.630114 289.949634 Z M 153.630114 289.949634 " transform="matrix(2.572938,0,0,-2.573529,268.633378,969.25638)"/>
<path style="fill-rule:nonzero;fill:rgb(100%,96.470588%,58.823529%);fill-opacity:1;stroke-width:1.2751;stroke-linecap:butt;stroke-linejoin:miter;stroke:rgb(0%,0%,0%);stroke-opacity:1;stroke-miterlimit:4;" d="M 159.180676 283.140527 L 159.825914 268.26249 C 159.857797 267.509633 160.477225 266.843294 161.205964 266.77499 L 170.776736 265.885526 C 171.461447 265.821776 171.986747 266.359097 171.956383 267.084633 L 171.326327 281.414723 L 159.179158 283.140527 Z M 159.180676 283.140527 " transform="matrix(2.572938,0,0,-2.573529,268.633378,969.25638)"/>
<path style="fill-rule:nonzero;fill:rgb(100%,96.470588%,58.823529%);fill-opacity:1;stroke-width:1.2751;stroke-linecap:butt;stroke-linejoin:miter;stroke:rgb(0%,0%,0%);stroke-opacity:1;stroke-miterlimit:4;" d="M 171.130478 285.849902 C 171.098596 286.57392 170.518641 287.249366 169.832412 287.36017 L 160.244939 288.893205 C 159.514682 289.01008 158.946873 288.495527 158.980273 287.744188 L 159.179158 283.14508 L 171.324809 281.419277 Z M 171.130478 285.849902 " transform="matrix(2.572938,0,0,-2.573529,268.633378,969.25638)"/>
<path style="fill-rule:nonzero;fill:rgb(100%,96.470588%,58.823529%);fill-opacity:1;stroke-width:1.2751;stroke-linecap:butt;stroke-linejoin:miter;stroke:rgb(0%,0%,0%);stroke-opacity:1;stroke-miterlimit:4;" d="M 50.089961 275.970169 C 50.127917 274.960794 49.089463 274.245883 47.762551 274.373383 L 40.757547 275.045794 C 39.380534 275.177848 38.228215 276.124991 38.19026 277.161687 L 37.003023 309.373653 C 36.965068 310.404278 38.058176 311.044814 39.436708 310.803474 L 46.447784 309.577046 C 47.776215 309.344813 48.876915 308.343028 48.91487 307.336688 Z M 50.089961 275.970169 " transform="matrix(2.572938,0,0,-2.573529,268.633378,969.25638)"/>
<path style="fill-rule:nonzero;fill:rgb(100%,96.470588%,58.823529%);fill-opacity:1;stroke-width:0.63754;stroke-linecap:butt;stroke-linejoin:miter;stroke:rgb(0%,0%,0%);stroke-opacity:1;stroke-miterlimit:4;" d="M 61.397562 274.409812 C 61.433999 273.427758 60.450201 272.726508 59.19009 272.846419 L 57.643038 272.993651 C 56.367745 273.11508 55.297409 274.021241 55.259454 275.018473 L 54.205819 302.959188 C 54.167864 303.953385 55.177471 304.584813 56.454282 304.372313 L 58.004371 304.11276 C 59.264482 303.903295 60.310526 302.939456 60.348481 301.95892 Z M 61.397562 274.409812 " transform="matrix(2.572938,0,0,-2.573529,268.633378,969.25638)"/>
<path style="fill-rule:nonzero;fill:rgb(100%,96.470588%,58.823529%);fill-opacity:1;stroke-width:0.63754;stroke-linecap:butt;stroke-linejoin:miter;stroke:rgb(0%,0%,0%);stroke-opacity:1;stroke-miterlimit:4;" d="M 70.547792 273.500616 C 70.585747 272.538294 69.642941 271.850705 68.437485 271.966062 L 66.955715 272.105705 C 65.733559 272.22258 64.70877 273.107491 64.672333 274.081955 L 63.626289 301.421599 C 63.589852 302.394545 64.555431 303.016867 65.777587 302.811956 L 67.260875 302.564545 C 68.467849 302.364188 69.471383 301.423117 69.50782 300.463831 Z M 70.547792 273.500616 " transform="matrix(2.572938,0,0,-2.573529,268.633378,969.25638)"/>
<path style="fill-rule:nonzero;fill:rgb(100%,96.470588%,58.823529%);fill-opacity:1;stroke-width:0.63754;stroke-linecap:butt;stroke-linejoin:miter;stroke:rgb(0%,0%,0%);stroke-opacity:1;stroke-miterlimit:4;" d="M 182.020572 262.450615 C 182.052455 261.743294 181.552965 261.219633 180.901654 261.281865 L 180.106114 261.357758 C 179.451767 261.418472 178.891549 262.048383 178.859667 262.763294 L 177.974553 282.794455 C 177.941152 283.50633 178.449751 283.99508 179.107134 283.885795 L 179.905711 283.752223 C 180.557021 283.644455 181.10813 282.984187 181.140013 282.278384 L 182.020572 262.449097 Z M 182.020572 262.450615 " transform="matrix(2.572938,0,0,-2.573529,268.633378,969.25638)"/>
<path style="fill-rule:nonzero;fill:rgb(100%,96.470588%,58.823529%);fill-opacity:1;stroke-width:0.63754;stroke-linecap:butt;stroke-linejoin:miter;stroke:rgb(0%,0%,0%);stroke-opacity:1;stroke-miterlimit:4;" d="M 186.780149 261.980079 C 186.810513 261.283383 186.327724 260.767311 185.697668 260.828026 L 184.924901 260.900883 C 184.290291 260.961597 183.746773 261.580883 183.716409 262.283651 L 182.837367 282.003652 C 182.807003 282.706419 183.30042 283.18758 183.936549 283.08133 L 184.710834 282.952312 C 185.342408 282.84758 185.876816 282.199455 185.907181 281.504277 Z M 186.780149 261.980079 " transform="matrix(2.572938,0,0,-2.573529,268.633378,969.25638)"/>
<path style="fill:none;stroke-width:0.63754;stroke-linecap:butt;stroke-linejoin:miter;stroke:rgb(0%,0%,0%);stroke-opacity:1;stroke-miterlimit:4;" d="M 61.549383 313.330706 L 52.824251 314.986689 C 51.451792 315.24776 50.366275 314.543474 50.408785 313.412671 L 53.471007 231.865792 L 64.657151 231.865792 Z M 61.549383 313.330706 " transform="matrix(2.572938,0,0,-2.573529,268.633378,969.25638)"/>
<path style="fill:none;stroke-width:0.63754;stroke-linecap:butt;stroke-linejoin:miter;stroke:rgb(0%,0%,0%);stroke-opacity:1;stroke-miterlimit:4;" d="M 68.940011 311.929724 L 61.549383 313.333742 L 64.657151 231.868828 L 74.305352 231.868828 L 71.30234 309.545171 C 71.25983 310.622849 70.206195 311.689903 68.940011 311.929724 Z M 68.940011 311.929724 " transform="matrix(2.572938,0,0,-2.573529,268.633378,969.25638)"/>
<path style="fill:none;stroke-width:0.63754;stroke-linecap:butt;stroke-linejoin:miter;stroke:rgb(0%,0%,0%);stroke-opacity:1;stroke-miterlimit:4;" d="M 189.250271 231.870346 L 186.731567 288.16767 C 186.696648 288.949366 186.133393 289.684009 185.469937 289.809991 L 181.616729 290.540081 L 184.226526 231.868828 L 189.250271 231.868828 Z M 189.250271 231.870346 " transform="matrix(2.572938,0,0,-2.573529,268.633378,969.25638)"/>
<path style="fill:none;stroke-width:0.63754;stroke-linecap:butt;stroke-linejoin:miter;stroke:rgb(0%,0%,0%);stroke-opacity:1;stroke-miterlimit:4;" d="M 181.619766 290.540081 L 177.119802 291.394634 C 176.415355 291.528206 175.873355 290.981777 175.908274 290.171241 L 178.483152 231.868828 L 184.229563 231.868828 Z M 181.619766 290.540081 " transform="matrix(2.572938,0,0,-2.573529,268.633378,969.25638)"/>
<path style="fill-rule:nonzero;fill:rgb(100%,96.470588%,58.823529%);fill-opacity:1;stroke-width:1.2751;stroke-linecap:butt;stroke-linejoin:miter;stroke:rgb(0%,0%,0%);stroke-opacity:1;stroke-miterlimit:4;" d="M 208.159531 280.440259 L 192.055916 283.252848 C 190.795805 283.47142 189.793789 283.120795 189.825671 282.463562 L 190.026074 278.451866 L 210.439876 275.227937 L 210.24251 278.977044 C 210.212146 279.588741 209.281485 280.242937 208.159531 280.440259 Z M 208.159531 280.440259 " transform="matrix(2.572938,0,0,-2.573529,268.633378,969.25638)"/>
<path style="fill-rule:nonzero;fill:rgb(100%,96.470588%,58.823529%);fill-opacity:1;stroke-width:1.2751;stroke-linecap:butt;stroke-linejoin:miter;stroke:rgb(0%,0%,0%);stroke-opacity:1;stroke-miterlimit:4;" d="M 190.669794 265.449901 C 190.701676 264.791151 191.756829 264.141508 193.016941 264.000347 L 209.111446 262.195615 C 210.231882 262.071151 211.109405 262.467311 211.076005 263.083562 L 210.439876 275.224901 L 190.024556 278.44883 Z M 190.669794 265.449901 " transform="matrix(2.572938,0,0,-2.573529,268.633378,969.25638)"/>
<path style="fill-rule:nonzero;fill:rgb(100%,96.470588%,58.823529%);fill-opacity:1;stroke-width:1.2751;stroke-linecap:butt;stroke-linejoin:miter;stroke:rgb(0%,0%,0%);stroke-opacity:1;stroke-miterlimit:4;" d="M 231.41997 276.379991 L 217.853278 278.749366 C 216.796606 278.934544 215.961593 278.59758 215.993475 277.996509 L 216.189324 274.321776 L 233.38301 271.607848 L 233.191716 275.059455 C 233.159834 275.624098 232.36733 276.214544 231.41997 276.379991 Z M 231.41997 276.379991 " transform="matrix(2.572938,0,0,-2.573529,268.633378,969.25638)"/>
<path style="fill-rule:nonzero;fill:rgb(100%,96.470588%,58.823529%);fill-opacity:1;stroke-width:1.2751;stroke-linecap:butt;stroke-linejoin:miter;stroke:rgb(0%,0%,0%);stroke-opacity:1;stroke-miterlimit:4;" d="M 216.819379 262.420258 C 216.851262 261.816151 217.739412 261.230258 218.793048 261.113383 L 232.347594 259.59249 C 233.294954 259.48624 234.034321 259.859633 234.002439 260.427311 L 233.379974 271.60633 L 216.184769 274.320258 Z M 216.819379 262.420258 " transform="matrix(2.572938,0,0,-2.573529,268.633378,969.25638)"/>
<path style="fill-rule:nonzero;fill:rgb(100%,96.470588%,58.823529%);fill-opacity:1;stroke-width:1.2751;stroke-linecap:butt;stroke-linejoin:miter;stroke:rgb(0%,0%,0%);stroke-opacity:1;stroke-miterlimit:4;" d="M 253.18953 258.200615 L 252.583766 268.570615 L 238.261007 270.83374 L 238.878917 259.859633 C 238.909281 259.302579 239.666866 258.769811 240.564126 258.669633 L 251.773044 257.412847 C 252.589839 257.320258 253.221412 257.673918 253.191048 258.200615 Z M 253.18953 258.200615 " transform="matrix(2.572938,0,0,-2.573529,268.633378,969.25638)"/>
<path style="fill-rule:nonzero;fill:rgb(100%,96.470588%,58.823529%);fill-opacity:1;stroke-width:1.2751;stroke-linecap:butt;stroke-linejoin:miter;stroke:rgb(0%,0%,0%);stroke-opacity:1;stroke-miterlimit:4;" d="M 238.069713 274.22008 L 238.262525 270.830705 L 252.585284 268.569097 L 252.398545 271.771776 C 252.36818 272.295437 251.686506 272.835794 250.869711 272.978473 L 239.645611 274.938026 C 238.745315 275.094366 238.039349 274.77258 238.069713 274.22008 Z M 238.069713 274.22008 " transform="matrix(2.572938,0,0,-2.573529,268.633378,969.25638)"/>
<path style="fill-rule:nonzero;fill:rgb(100%,96.470588%,58.823529%);fill-opacity:1;stroke-width:1.2751;stroke-linecap:butt;stroke-linejoin:miter;stroke:rgb(0%,0%,0%);stroke-opacity:1;stroke-miterlimit:4;" d="M 257.390407 257.710347 C 257.420771 257.192758 258.075118 256.704008 258.850921 256.615972 L 268.866528 255.492758 C 269.574013 255.413829 270.119049 255.747758 270.088685 256.236508 L 269.502657 265.899187 L 256.787679 267.905794 L 257.390407 257.708829 Z M 257.390407 257.710347 " transform="matrix(2.572938,0,0,-2.573529,268.633378,969.25638)"/>
<path style="fill-rule:nonzero;fill:rgb(100%,96.470588%,58.823529%);fill-opacity:1;stroke-width:1.2751;stroke-linecap:butt;stroke-linejoin:miter;stroke:rgb(0%,0%,0%);stroke-opacity:1;stroke-miterlimit:4;" d="M 267.990523 269.989812 L 257.95518 271.742937 C 257.179376 271.878026 256.572094 271.569901 256.602458 271.055348 L 256.787679 267.907312 L 269.501139 265.900704 L 269.320472 268.883294 C 269.290108 269.372044 268.696489 269.866865 267.989005 269.989812 Z M 267.990523 269.989812 " transform="matrix(2.572938,0,0,-2.573529,268.633378,969.25638)"/>
<path style="fill-rule:nonzero;fill:rgb(100%,96.470588%,58.823529%);fill-opacity:1;stroke-width:1.2751;stroke-linecap:butt;stroke-linejoin:miter;stroke:rgb(0%,0%,0%);stroke-opacity:1;stroke-miterlimit:4;" d="M 273.149388 265.319365 L 273.73238 255.813026 C 273.761226 255.330347 274.333589 254.878025 275.007673 254.80365 L 283.743432 253.824633 C 284.361342 253.754811 284.836541 254.070525 284.807695 254.528918 L 284.239886 263.569276 L 273.150907 265.319365 Z M 273.149388 265.319365 " transform="matrix(2.572938,0,0,-2.573529,268.633378,969.25638)"/>
<path style="fill-rule:nonzero;fill:rgb(100%,96.470588%,58.823529%);fill-opacity:1;stroke-width:1.2751;stroke-linecap:butt;stroke-linejoin:miter;stroke:rgb(0%,0%,0%);stroke-opacity:1;stroke-miterlimit:4;" d="M 284.060737 266.369722 C 284.031891 266.826597 283.509628 267.283472 282.8902 267.392758 L 274.136223 268.919722 C 273.462139 269.038115 272.93684 268.745169 272.967204 268.265526 L 273.146352 265.326954 L 284.235331 263.576865 L 284.059219 266.369722 Z M 284.060737 266.369722 " transform="matrix(2.572938,0,0,-2.573529,268.633378,969.25638)"/>
<path style="fill:none;stroke-width:0.63754;stroke-linecap:butt;stroke-linejoin:miter;stroke:rgb(0%,0%,0%);stroke-opacity:1;stroke-miterlimit:4;" d="M -95.108255 327.519636 C -95.108255 327.519636 -96.605206 335.998386 -92.61536 335.998386 C -88.625514 335.998386 -34.269173 339.48794 -34.269173 339.48794 L -33.812193 242.263114 L -95.108255 239.644811 Z M -95.108255 327.519636 " transform="matrix(2.572938,0,0,-2.573529,268.633378,969.25638)"/>
<path style=" stroke:none;fill-rule:nonzero;fill:rgb(0%,0%,0%);fill-opacity:1;" d="M 234.714844 324.84375 C 234.199219 327.976562 231.300781 330.433594 228.222656 330.433594 L 211.695312 330.433594 C 208.617188 330.433594 206.125 327.976562 206.125 324.847656 L 206.125 296.230469 C 206.125 291.8125 209.25 288.082031 213.097656 288.082031 L 233.792969 288.082031 C 237.644531 288.082031 240.15625 291.8125 239.425781 296.230469 L 234.714844 324.847656 Z M 234.714844 324.84375 "/>
<path style=" stroke:none;fill-rule:nonzero;fill:rgb(0%,0%,0%);fill-opacity:1;" d="M 20.070312 347.363281 C 20.070312 350.105469 17.710938 351.355469 14.898438 350.304688 L 11.199219 348.925781 C 8.625 347.964844 6.378906 345.1875 6.089844 342.59375 L 1.792969 304.394531 C 1.273438 299.738281 3.609375 295.769531 7.207031 295.769531 L 12.480469 295.769531 C 16.578125 295.769531 20.070312 300.304688 20.070312 305.582031 Z M 20.070312 347.363281 "/>
<path style=" stroke:none;fill-rule:nonzero;fill:rgb(0%,0%,0%);fill-opacity:1;" d="M 238.203125 165.59375 C 238.203125 169.445312 235.078125 172.570312 231.230469 172.570312 L 210.53125 172.570312 C 206.679688 172.570312 203.558594 169.445312 203.558594 165.59375 L 203.558594 150.027344 C 203.558594 146.175781 206.679688 143.054688 210.53125 143.054688 L 231.230469 143.054688 C 235.078125 143.054688 238.203125 146.175781 238.203125 150.027344 Z M 238.203125 165.59375 "/>
<path style=" stroke:none;fill-rule:nonzero;fill:rgb(0%,0%,0%);fill-opacity:1;" d="M 17.246094 177.84375 C 17.246094 181.695312 16.234375 184.820312 14.984375 184.820312 L 8.277344 184.820312 C 7.03125 184.820312 6.019531 181.695312 6.019531 177.84375 L 6.019531 162.277344 C 6.019531 158.425781 7.03125 155.300781 8.277344 155.300781 L 14.984375 155.300781 C 16.234375 155.300781 17.246094 158.425781 17.246094 162.277344 Z M 17.246094 177.84375 "/>
<path style=" stroke:none;fill-rule:nonzero;fill:rgb(100%,49.803922%,16.470588%);fill-opacity:1;" d="M 16.589844 304.386719 C 16.589844 306.910156 14.539062 308.960938 12.011719 308.960938 L 11.183594 308.960938 C 8.65625 308.960938 6.605469 306.910156 6.605469 304.386719 C 6.605469 301.855469 8.65625 299.808594 11.183594 299.808594 L 12.011719 299.808594 C 14.539062 299.808594 16.589844 301.855469 16.589844 304.386719 "/>
<path style=" stroke:none;fill-rule:nonzero;fill:rgb(100%,49.803922%,16.470588%);fill-opacity:1;" d="M 234.492188 298.953125 C 234.492188 302.632812 231.511719 305.613281 227.835938 305.613281 L 218.6875 305.613281 C 215.011719 305.613281 212.035156 302.632812 212.035156 298.953125 C 212.035156 295.28125 215.011719 292.300781 218.6875 292.300781 L 227.835938 292.300781 C 231.511719 292.300781 234.492188 295.28125 234.492188 298.953125 "/>
<path style=" stroke:none;fill-rule:nonzero;fill:rgb(0%,0%,0%);fill-opacity:1;" d="M 672.480469 413.117188 C 672.480469 426.347656 667.757812 437.070312 661.929688 437.070312 C 656.101562 437.070312 651.378906 426.347656 651.378906 413.117188 C 651.378906 399.890625 656.101562 389.164062 661.929688 389.164062 C 667.757812 389.164062 672.480469 399.890625 672.480469 413.117188 "/>
<path style=" stroke:none;fill-rule:nonzero;fill:rgb(0%,0%,0%);fill-opacity:1;" d="M 756.078125 404.90625 C 756.078125 415.6875 752.285156 424.429688 747.609375 424.429688 C 742.933594 424.429688 739.144531 415.6875 739.144531 404.90625 C 739.144531 394.125 742.933594 385.382812 747.609375 385.382812 C 752.285156 385.382812 756.078125 394.125 756.078125 404.90625 "/>
<path style=" stroke:none;fill-rule:nonzero;fill:rgb(0%,0%,0%);fill-opacity:1;" d="M 834.859375 389.878906 C 834.859375 400.925781 832.707031 409.878906 830.050781 409.878906 C 827.394531 409.878906 825.238281 400.925781 825.238281 389.878906 C 825.238281 378.832031 827.394531 369.878906 830.050781 369.878906 C 832.707031 369.878906 834.859375 378.832031 834.859375 389.878906 "/>
<path style=" stroke:none;fill-rule:nonzero;fill:rgb(0%,0%,0%);fill-opacity:1;" d="M 923.085938 398.292969 C 918.222656 395.894531 919.140625 391.796875 918.546875 388.601562 C 919.039062 385.238281 918.195312 381.136719 922.859375 378.441406 C 927 378.800781 926.703125 381.964844 927.582031 383.621094 C 928.355469 388.386719 929.183594 393.671875 924.546875 398.011719 C 924.207031 398.222656 923.621094 398.367188 923.085938 398.292969 Z M 923.085938 398.292969 "/>
<path style=" stroke:none;fill-rule:nonzero;fill:rgb(0%,0%,0%);fill-opacity:1;" d="M 954.734375 384.652344 C 954.734375 390.007812 952.582031 394.347656 949.921875 394.347656 C 947.265625 394.347656 945.113281 390.007812 945.113281 384.652344 C 945.113281 379.300781 947.265625 374.960938 949.921875 374.960938 C 952.582031 374.960938 954.734375 379.300781 954.734375 384.652344 "/>
<path style=" stroke:none;fill-rule:nonzero;fill:rgb(0%,0%,0%);fill-opacity:1;" d="M 990.601562 378.167969 C 990.601562 384.058594 988.445312 388.835938 985.789062 388.835938 C 983.132812 388.835938 980.976562 384.058594 980.976562 378.167969 C 980.976562 372.277344 983.132812 367.5 985.789062 367.5 C 988.445312 367.5 990.601562 372.277344 990.601562 378.167969 "/>
<path style=" stroke:none;fill-rule:nonzero;fill:rgb(0%,0%,0%);fill-opacity:1;" d="M 467.730469 435.558594 C 467.730469 448.222656 461.28125 458.488281 453.328125 458.488281 C 445.371094 458.488281 438.925781 448.222656 438.925781 435.558594 C 438.925781 422.890625 445.371094 412.625 453.328125 412.625 C 461.28125 412.625 467.730469 422.890625 467.730469 435.558594 "/>
</g>
</svg>
