<?xml version="1.0" encoding="UTF-8"?>
<svg xmlns="http://www.w3.org/2000/svg" xmlns:xlink="http://www.w3.org/1999/xlink" width="1024pt" height="1175pt" viewBox="0 0 1024 1175" version="1.1">
<g id="surface1">
<path style=" stroke:none;fill-rule:evenodd;fill:rgb(0%,40%,20%);fill-opacity:1;" d="M 117.730469 392.351562 L 131.898438 422.308594 C 167.671875 384.304688 231.679688 373.808594 262.355469 327.34375 C 289.671875 285.976562 380.6875 303.808594 403.316406 288.015625 C 427.980469 270.898438 435.726562 289.441406 482.304688 256.835938 C 507.375 239.308594 607.257812 224.839844 638.449219 233.707031 C 712.75 255 783.074219 278.4375 768.90625 371.769531 C 763.605469 406.71875 673.917969 492.921875 629.988281 511.976562 C 545.597656 548.554688 312.707031 572.703125 234.226562 510.855469 C 189.890625 476.007812 148.714844 441.769531 117.832031 392.148438 Z M 117.730469 392.351562 "/>
<path style="fill:none;stroke-width:282.22;stroke-linecap:butt;stroke-linejoin:miter;stroke:rgb(0%,40%,20%);stroke-opacity:1;stroke-miterlimit:4;" d="M 15378.994306 9457.015772 C 14419.002995 9682.015333 12913.01854 9758.995929 12200.996878 9364.01033 C 12089.008112 9429.988222 11962.992006 9447.009828 11779.985039 9367.997373 C 11746.986296 9354.004386 11706.015731 9356.994669 11688.998957 9383.983881 C 11239.012611 10077.997692 10894.001361 9879.987344 10757.982151 10007.99442 C 10354.983563 10384.999989 9955.012734 9635.014232 10240.005364 9261.995706 C 10974.98434 8301.003374 9894.994114 8917.001491 10534.004619 7725.987458 C 10951.9887 6948.015727 10206.010143 6922.981698 11146.991726 6437.980941 C 12142.013062 5924.99421 11666.999795 6233.990029 11709.005164 5932.009872 C 11805.01196 5245.011723 12809.001596 5386.015026 12834.986669 5348.981532 C 13188.008067 4831.010998 13649.990472 5038.988953 13929.004235 4874.98348 C 14691.999566 4427.016216 15051.996308 5015.986783 15475.001103 4797.006123 C 16081.012865 4482.988164 17355.009639 5214.993891 17443.006288 5813.011978 C 17608.000004 6937.013022 17176.985061 6151.987292 17792.999926 6484.982042 C 18272.995582 6744.983238 18404.990555 6893.998964 18397.018733 7405.988934 C 18394.987451 7512.987362 19162.007019 7285.99428 19161.010541 8342.982335 C 19161.010541 8463.015326 20180.982147 9591.003413 18946.997786 9915.98574 C 18271.999104 10093.9842 18639.009516 10318.983761 17839.987684 9970.002503 C 16682.003913 9465.986618 17217.993952 10175.986936 16713.0097 10146.007441 C 16491.983275 10133.011215 15662.990459 9702.985644 15379.990784 9456.019011 Z M 15378.994306 9457.015772 " transform="matrix(0.101921,0,0,0.101893,-994.94619,-433.486265)"/>
<path style="fill:none;stroke-width:282.22;stroke-linecap:butt;stroke-linejoin:miter;stroke:rgb(67.058824%,45.882353%,30.980392%);stroke-opacity:1;stroke-miterlimit:4;" d="M 12938.007136 9648.010458 C 12851.006965 10530.987096 13778.996011 9848.014327 13626.994832 11415.995592 C 13616.991729 11522.99402 13703.991899 11923.998519 13654.014709 12327.993301 C 13484.000278 13699.996076 13667.007245 13347.986199 12927.007555 14595.010516 C 12598.016601 15149.017784 12600.009556 15139.01184 13476.986608 15106.003726 C 14814.987913 15055.015582 14122.014306 15325.981146 15059.009978 15533.000677 C 15381.98374 15604.000709 15822.005308 15347.986555 15014.015176 14926.011744 C 14149.992334 14474.019101 15124.010986 14314.997431 15669.007651 14471.987243 C 16165.981754 14616.019165 16160.002888 14136.002211 15478.987014 13886.006958 C 15223.007216 13792.004756 15321.006968 13473.002993 14945.986408 13253.983997 C 14691.003088 13105.006608 14510.985554 11556.998895 14558.011637 11177.999805 C 14743.01156 9683.012093 15814.991638 9549.982876 15834.001367 9128.008065 C 15362.015859 9128.008065 14494.007107 10428.014047 14553.9874 9687.995897 C 14561.997548 9592.996934 13157.998757 7698.001484 13705.984855 8725.010044 C 13875.002808 9042.018285 14238.985461 9605.99316 13625.001876 9942.016529 C 13210.007229 10169.009611 13013.011248 8766.989004 12624.001674 8881.999855 C 12556.011232 8902.011743 12745.993543 8942.993943 12311.989167 9058.004794 C 11664.010362 9229.984352 12885.002186 9027.986962 12907.997826 9527.019043 C 12907.997826 9528.015803 12941.993047 9604.9964 12938.007136 9647.013697 Z M 12938.007136 9648.010458 " transform="matrix(0.101921,0,0,0.101893,-994.94619,-433.486265)"/>
<path style=" stroke:none;fill-rule:evenodd;fill:rgb(80.784314%,56.078431%,39.215686%);fill-opacity:1;" d="M 323.714844 549.574219 C 314.847656 639.542969 409.429688 569.953125 393.9375 729.71875 C 392.917969 740.621094 401.785156 781.480469 396.691406 822.644531 C 379.363281 962.441406 398.015625 926.574219 322.59375 1053.636719 C 289.0625 1110.085938 289.265625 1109.066406 378.648438 1105.703125 C 515.019531 1100.507812 444.390625 1128.117188 539.890625 1149.210938 C 572.808594 1156.445312 617.65625 1130.359375 535.304688 1087.363281 C 447.242188 1041.308594 546.515625 1025.105469 602.0625 1041.101562 C 652.714844 1055.777344 652.105469 1006.867188 582.695312 981.394531 C 556.605469 971.816406 566.59375 939.3125 528.371094 916.996094 C 502.382812 901.816406 484.035156 744.085938 488.828125 705.46875 C 507.683594 553.140625 616.941406 539.585938 618.878906 496.589844 C 570.773438 496.589844 482.304688 629.050781 488.417969 553.648438 C 489.234375 543.96875 346.136719 350.882812 401.988281 455.527344 C 419.214844 487.828125 456.3125 545.292969 393.734375 579.53125 C 351.4375 602.660156 331.359375 459.804688 291.710938 471.523438 C 284.78125 473.5625 304.144531 477.738281 259.910156 489.457031 C 193.867188 506.980469 318.3125 486.398438 320.65625 537.246094 C 320.65625 537.347656 324.121094 545.191406 323.714844 549.472656 Z M 323.714844 549.574219 "/>
<path style=" stroke:none;fill-rule:evenodd;fill:rgb(72.156863%,50.196078%,34.901961%);fill-opacity:1;" d="M 503.097656 1124.859375 C 482.507812 1105.089844 479.652344 1087.566406 447.546875 1077.171875 C 406.269531 1063.824219 384.355469 1074.421875 345.730469 1091.640625 C 328.300781 1099.386719 359.589844 1100.507812 376.101562 1095.105469 C 392.816406 1089.605469 434.910156 1103.765625 465.078125 1102.851562 C 476.800781 1102.441406 493.109375 1130.871094 503.097656 1124.960938 Z M 503.097656 1124.859375 "/>
<path style=" stroke:none;fill-rule:evenodd;fill:rgb(89.411765%,61.176471%,42.745098%);fill-opacity:1;" d="M 546.003906 1135.046875 C 531.125 1145.238281 464.160156 1059.648438 544.882812 1108.148438 C 585.855469 1132.804688 559.355469 1132.296875 551.8125 1126.691406 C 538.460938 1116.707031 539.582031 1128.933594 546.003906 1135.046875 Z M 546.003906 1135.046875 "/>
<path style=" stroke:none;fill-rule:evenodd;fill:rgb(89.411765%,61.176471%,42.745098%);fill-opacity:1;" d="M 622.34375 1025.207031 C 601.859375 1013.183594 608.6875 1012.980469 580.351562 1002.484375 C 559.152344 994.640625 573.625 959.589844 518.792969 932.179688 C 471.09375 908.335938 493.921875 884.085938 483.832031 839.96875 C 478.839844 818.265625 487.398438 745.207031 461.410156 751.523438 C 454.277344 753.257812 454.988281 775.0625 462.328125 765.179688 C 471.601562 752.746094 468.441406 814.800781 470.683594 824.378906 C 475.882812 845.980469 470.992188 883.476562 478.429688 903.957031 C 486.378906 925.660156 479.246094 933.808594 512.472656 950.011719 C 542.335938 964.582031 536.628906 955.105469 552.832031 984.65625 C 569.039062 1014.304688 594.621094 1002.382812 618.265625 1024.289062 C 618.675781 1024.597656 621.835938 1025.003906 622.34375 1025.308594 Z M 622.34375 1025.207031 "/>
<path style=" stroke:none;fill-rule:evenodd;fill:rgb(89.411765%,61.176471%,42.745098%);fill-opacity:1;" d="M 540.398438 1002.28125 C 530.613281 967.230469 498.613281 961.730469 468.238281 950.824219 C 469.257812 949.910156 491.171875 975.484375 502.078125 977.726562 C 511.148438 979.558594 539.789062 1000.039062 540.398438 1002.382812 Z M 540.398438 1002.28125 "/>
<path style=" stroke:none;fill-rule:evenodd;fill:rgb(89.411765%,61.176471%,42.745098%);fill-opacity:1;" d="M 480.878906 1062.703125 C 457.128906 1032.339844 454.785156 1047.828125 444.390625 996.574219 C 430.730469 929.328125 455.191406 866.152344 449.382812 804.101562 C 447.242188 781.582031 418.808594 726.050781 427.675781 756.3125 C 428.488281 759.269531 433.789062 810.113281 432.769531 816.734375 C 430.933594 829.574219 434.503906 874 431.34375 899.574219 C 428.589844 921.582031 425.433594 970.695312 430.222656 990.667969 C 437.355469 1020.011719 435.011719 1050.273438 472.214844 1059.851562 C 476.800781 1060.972656 479.246094 1060.5625 480.878906 1062.703125 Z M 480.878906 1062.703125 "/>
<path style=" stroke:none;fill-rule:evenodd;fill:rgb(72.156863%,50.196078%,34.901961%);fill-opacity:1;" d="M 525.007812 1023.476562 C 503.300781 1022.355469 479.246094 1065.761719 471.296875 992.601562 C 468.441406 966.722656 504.011719 1006.152344 526.539062 1014.917969 C 539.480469 1019.910156 538.054688 1024.1875 525.007812 1023.476562 Z M 525.007812 1023.476562 "/>
<path style=" stroke:none;fill-rule:evenodd;fill:rgb(72.156863%,50.196078%,34.901961%);fill-opacity:1;" d="M 334.824219 1076.765625 C 382.828125 1072.382812 373.351562 1055.878906 409.734375 1057.8125 C 431.445312 1058.933594 414.527344 1042.425781 417.277344 1019.808594 C 418.601562 1009.109375 413.914062 953.984375 406.371094 1014.917969 C 401.582031 1053.535156 402.601562 1030.097656 358.570312 1059.75 C 354.1875 1062.703125 340.328125 1076.253906 334.722656 1076.765625 Z M 334.824219 1076.765625 "/>
<path style=" stroke:none;fill-rule:evenodd;fill:rgb(89.411765%,61.176471%,42.745098%);fill-opacity:1;" d="M 326.058594 1064.945312 L 327.179688 1070.242188 C 362.648438 1046.910156 359.488281 1052.003906 385.171875 1020.214844 C 413.40625 985.265625 424.207031 900.898438 413.507812 861.464844 C 405.558594 832.324219 409.734375 781.480469 413.710938 749.078125 C 411.367188 761.101562 400.765625 761.714844 405.863281 796.5625 C 409.835938 823.664062 401.886719 850.257812 409.835938 885.820312 C 416.054688 913.535156 393.429688 955.308594 382.726562 981.394531 C 377.019531 995.25 340.53125 1060.15625 326.058594 1064.945312 Z M 326.058594 1064.945312 "/>
<path style=" stroke:none;fill-rule:evenodd;fill:rgb(89.411765%,61.176471%,42.745098%);fill-opacity:1;" d="M 494.839844 593.691406 L 497.285156 588.394531 C 515.019531 586.152344 532.246094 561.394531 552.324219 548.65625 C 562.3125 542.339844 583.917969 506.472656 604.40625 508.101562 C 604.304688 508.410156 549.570312 552.121094 543.050781 563.429688 C 538.972656 570.460938 504.011719 590.738281 494.941406 593.691406 Z M 494.839844 593.691406 "/>
<path style=" stroke:none;fill-rule:evenodd;fill:rgb(89.411765%,61.176471%,42.745098%);fill-opacity:1;" d="M 510.128906 591.042969 L 520.015625 580.445312 C 523.886719 597.054688 500.75 638.21875 491.273438 654.320312 C 488.011719 659.820312 490.253906 680.097656 481.589844 701.902344 C 472.722656 724.113281 490.457031 730.636719 464.976562 733.898438 C 458.964844 734.609375 459.882812 753.257812 463.753906 722.6875 C 464.367188 717.695312 470.378906 700.375 472.011719 685.496094 C 473.234375 673.984375 498.714844 601.335938 509.3125 593.183594 C 510.027344 592.570312 510.128906 591.859375 510.128906 591.144531 Z M 510.128906 591.042969 "/>
<path style=" stroke:none;fill-rule:evenodd;fill:rgb(89.411765%,61.176471%,42.745098%);fill-opacity:1;" d="M 484.136719 580.039062 C 484.953125 574.433594 458.148438 506.269531 445.410156 500.460938 C 433.484375 494.957031 411.773438 454.710938 416.054688 481.816406 C 416.769531 486.605469 446.53125 514.421875 452.644531 537.140625 C 457.535156 555.484375 472.519531 567.300781 484.136719 580.039062 Z M 484.136719 580.039062 "/>
<path style=" stroke:none;fill-rule:evenodd;fill:rgb(72.156863%,50.196078%,34.901961%);fill-opacity:1;" d="M 437.867188 533.679688 L 440.414062 527.460938 C 434.300781 563.125 479.449219 577.289062 479.246094 605.105469 C 479.144531 618.046875 486.484375 616.515625 475.882812 642.703125 C 463.652344 672.863281 457.128906 688.554688 454.378906 721.566406 C 452.339844 746.125 446.734375 725.949219 450.097656 699.457031 C 453.257812 674.289062 467.730469 612.441406 453.96875 594.203125 C 448.160156 586.558594 436.4375 546.109375 437.96875 533.574219 Z M 437.867188 533.679688 "/>
<path style=" stroke:none;fill-rule:evenodd;fill:rgb(72.156863%,50.196078%,34.901961%);fill-opacity:1;" d="M 431.75 553.953125 C 451.320312 587.273438 449.6875 630.476562 442.960938 669.601562 C 441.839844 676.328125 433.179688 740.824219 433.074219 741.027344 C 411.164062 700.679688 441.433594 622.832031 429.304688 561.1875 C 428.898438 559.152344 430.933594 552.425781 431.851562 553.851562 Z M 431.75 553.953125 "/>
<path style=" stroke:none;fill-rule:evenodd;fill:rgb(72.156863%,50.196078%,34.901961%);fill-opacity:1;" d="M 421.152344 575.554688 C 408.714844 578.203125 353.984375 604.902344 351.335938 576.777344 C 351.027344 573.210938 338.085938 581.976562 376.101562 602.863281 C 395.671875 613.5625 415.136719 596.34375 424.515625 591.042969 C 425.328125 584.421875 428.082031 583.097656 421.152344 575.554688 Z M 421.152344 575.554688 "/>
<path style=" stroke:none;fill-rule:evenodd;fill:rgb(89.411765%,61.176471%,42.745098%);fill-opacity:1;" d="M 416.566406 616.210938 C 401.582031 631.902344 409.328125 699.558594 407.492188 721.773438 C 406.371094 735.121094 419.417969 656.050781 418.195312 646.878906 C 416.871094 637.609375 418.09375 614.582031 416.566406 616.210938 Z M 416.566406 616.210938 "/>
<path style=" stroke:none;fill-rule:evenodd;fill:rgb(0%,60%,20%);fill-opacity:1;" d="M 205.6875 521.042969 C 269.289062 548.65625 265.925781 460.824219 367.847656 455.933594 C 410.144531 453.894531 389.351562 434.433594 460.1875 474.273438 C 496.265625 494.550781 531.125 461.84375 563.941406 520.636719 C 575.867188 541.929688 682.679688 598.992188 708.367188 600.519531 C 759.835938 603.578125 705.308594 531.234375 823.230469 582.585938 C 904.667969 618.046875 867.261719 595.222656 936.058594 577.085938 C 1061.828125 543.867188 957.871094 429.035156 957.871094 416.808594 C 958.074219 309.105469 879.898438 332.132812 880 321.332031 C 880.917969 269.164062 867.363281 253.984375 818.441406 227.492188 C 755.757812 193.5625 799.6875 273.546875 782.769531 159.019531 C 773.800781 98.085938 643.953125 23.5 582.1875 55.496094 C 539.074219 77.8125 502.484375 17.796875 424.617188 63.445312 C 396.179688 80.152344 349.09375 58.859375 313.113281 111.742188 C 310.464844 115.511719 208.136719 101.144531 198.351562 171.144531 C 194.070312 201.914062 242.585938 170.429688 141.070312 222.703125 C 45.164062 272.121094 121.195312 274.667969 78.59375 353.9375 C 13.363281 475.191406 123.4375 412.527344 48.628906 510.445312 C 19.582031 548.453125 60.347656 624.871094 101.421875 586.457031 C 115.285156 573.519531 150.449219 593.691406 196.3125 522.878906 C 198.042969 520.125 202.222656 519.820312 205.585938 521.246094 Z M 205.6875 521.042969 "/>
<path style=" stroke:none;fill-rule:evenodd;fill:rgb(0%,70.196078%,23.529412%);fill-opacity:1;" d="M 785.828125 219.441406 C 783.992188 226.777344 781.445312 221.988281 785.828125 219.441406 Z M 451.015625 391.4375 C 464.671875 383.589844 542.945312 375.539062 542.945312 395.613281 C 542.945312 427.402344 600.738281 434.535156 597.679688 351.597656 C 595.945312 304.625 669.433594 256.835938 632.84375 310.226562 C 632.128906 311.246094 621.527344 368.203125 620 373.707031 C 597.578125 456.851562 728.035156 415.378906 739.453125 388.074219 C 755.453125 349.863281 763.097656 328.976562 767.175781 321.4375 C 774.714844 307.273438 769.316406 340.386719 781.546875 394.390625 C 799.585938 473.765625 775.941406 461.84375 841.375 474.988281 C 846.164062 475.90625 847.082031 505.554688 869.808594 518.089844 C 913.839844 542.339844 905.480469 544.171875 967.042969 523.082031 C 993.847656 513.910156 945.128906 466.9375 957.460938 434.230469 C 960.316406 426.792969 952.058594 412.222656 954.300781 380.636719 C 938.914062 314.40625 879.898438 330.605469 880.105469 321.128906 C 881.019531 268.960938 867.464844 253.777344 818.542969 227.285156 C 798.769531 216.589844 789.597656 217.199219 785.828125 219.441406 C 787.457031 212.714844 788.375 196.109375 782.871094 158.816406 C 773.902344 97.882812 644.054688 23.296875 582.289062 55.292969 C 539.175781 77.605469 502.585938 17.59375 424.71875 63.238281 C 396.28125 79.949219 349.195312 58.65625 313.214844 111.535156 C 310.566406 115.308594 208.238281 100.941406 198.453125 170.941406 C 194.171875 201.710938 242.6875 170.226562 141.171875 222.496094 C 45.265625 271.914062 121.296875 274.464844 78.695312 353.734375 C 15.402344 471.421875 117.222656 415.890625 54.84375 501.988281 C 85.21875 516.96875 136.382812 509.53125 160.230469 469.792969 C 160.945312 468.570312 167.367188 466.019531 176.132812 462.453125 C 193.867188 455.425781 221.488281 445.03125 232.699219 435.65625 C 322.390625 360.664062 368.761719 438.613281 450.914062 391.539062 Z M 451.015625 391.4375 "/>
<path style=" stroke:none;fill-rule:evenodd;fill:rgb(0%,78.823529%,26.27451%);fill-opacity:1;" d="M 785.828125 219.441406 C 785.011719 222.804688 783.992188 223.617188 783.582031 223.3125 C 783.277344 223.007812 783.277344 221.988281 784.09375 220.96875 C 784.5 220.460938 785.011719 219.949219 785.828125 219.441406 Z M 785.828125 219.441406 C 785.011719 222.804688 783.992188 223.617188 783.582031 223.3125 C 783.277344 223.007812 783.277344 221.988281 784.09375 220.96875 L 784.703125 220.359375 C 785.011719 220.050781 785.417969 219.746094 785.828125 219.542969 Z M 860.535156 255.613281 C 850.953125 246.035156 837.398438 237.476562 818.542969 227.285156 C 812.019531 223.722656 806.617188 221.378906 802.132812 220.050781 C 797.140625 218.421875 793.367188 218.015625 790.617188 218.21875 C 788.476562 218.320312 786.84375 218.828125 785.722656 219.542969 C 787.355469 212.816406 788.273438 196.210938 782.769531 158.917969 C 773.800781 97.984375 643.953125 23.398438 582.1875 55.394531 C 539.074219 77.707031 502.484375 17.695312 424.617188 63.34375 C 396.179688 80.050781 349.09375 58.757812 313.113281 111.640625 C 310.464844 115.410156 208.136719 101.042969 198.351562 171.042969 C 194.070312 201.8125 242.585938 170.328125 141.070312 222.601562 C 125.988281 230.34375 115.082031 237.070312 107.335938 242.976562 C 124.867188 256.9375 118.136719 302.382812 113.652344 318.992188 C 106.316406 346.09375 101.832031 381.652344 119.566406 397.039062 L 121.09375 398.261719 C 128.433594 403.765625 139.234375 406.109375 154.523438 403.664062 L 157.886719 403.050781 C 163.902344 401.828125 176.640625 393.984375 187.648438 384.304688 C 198.042969 375.234375 206.910156 364.636719 207.21875 356.792969 C 207.625 346.703125 205.078125 310.636719 226.378906 338.246094 C 228.214844 340.589844 228.417969 350.375 231.269531 358.625 C 234.839844 368.714844 242.378906 376.457031 261.746094 365.148438 C 290.386719 348.335938 252.472656 319.5 282.335938 325.410156 C 314.847656 331.929688 281.316406 379.003906 326.464844 376.660156 C 345.832031 375.640625 314.03125 363.824219 355.105469 363.3125 C 378.039062 363.007812 385.070312 309.308594 408.410156 357.609375 C 413.609375 368.40625 426.144531 365.148438 431.648438 348.132812 C 446.019531 303.707031 480.265625 363.824219 508.601562 340.082031 C 524.5 326.835938 531.023438 332.441406 556.503906 302.484375 C 564.25 293.414062 612.050781 261.929688 624.382812 261.929688 C 657.609375 261.929688 687.574219 266.3125 678.707031 310.226562 C 677.585938 315.628906 635.289062 367.898438 667.394531 366.269531 C 682.679688 365.453125 701.84375 356.386719 707.753906 342.628906 C 721.003906 311.757812 753.210938 321.4375 758.105469 301.972656 C 758.207031 301.769531 758.207031 301.566406 758.308594 301.363281 C 762.484375 293.3125 804.578125 285.570312 813.242188 307.171875 C 825.269531 337.128906 830.058594 363.3125 855.640625 330.503906 C 867.464844 315.320312 841.679688 279.761719 860.023438 256.019531 Z M 860.535156 255.613281 "/>
<path style=" stroke:none;fill-rule:evenodd;fill:rgb(0%,70.196078%,23.529412%);fill-opacity:1;" d="M 257.769531 141.59375 C 245.132812 198.757812 296.5 159.628906 315.558594 159.121094 C 367.132812 157.695312 300.78125 190.503906 367.640625 178.378906 C 387.109375 174.8125 365.707031 231.261719 326.160156 196.617188 C 322.492188 193.457031 254.613281 217.914062 252.574219 159.222656 C 252.472656 157.082031 241.667969 149.136719 257.667969 141.59375 Z M 257.769531 141.59375 "/>
<path style=" stroke:none;fill-rule:evenodd;fill:rgb(0%,70.196078%,23.529412%);fill-opacity:1;" d="M 414.933594 253.675781 C 438.785156 286.28125 440.71875 257.242188 474.148438 258.058594 C 493.515625 258.566406 539.074219 226.472656 462.632812 229.628906 C 450.914062 230.140625 464.773438 252.660156 422.070312 250.925781 C 418.09375 250.722656 415.75 254.492188 415.035156 253.574219 Z M 414.933594 253.675781 "/>
<path style=" stroke:none;fill-rule:evenodd;fill:rgb(0%,70.196078%,23.529412%);fill-opacity:1;" d="M 580.863281 92.175781 C 587.28125 138.132812 571.6875 125.089844 624.585938 152.601562 C 630.089844 155.453125 620 181.433594 682.171875 185.511719 C 693.382812 186.222656 705.917969 224.128906 625.503906 186.121094 C 605.628906 176.75 625.402344 175.628906 586.773438 156.777344 C 573.828125 150.460938 553.75 113.777344 580.863281 92.074219 Z M 580.863281 92.175781 "/>
<path style=" stroke:none;fill-rule:evenodd;fill:rgb(0%,78.823529%,26.27451%);fill-opacity:1;" d="M 831.488281 417.824219 C 894.269531 428.832031 880.917969 360.359375 916.386719 384.710938 C 925.050781 390.722656 851.566406 483.648438 833.730469 433.007812 C 831.996094 428.015625 832.40625 418.03125 831.488281 417.824219 Z M 831.488281 417.824219 "/>
<path style=" stroke:none;fill-rule:evenodd;fill:rgb(0%,70.196078%,23.529412%);fill-opacity:1;" d="M 615.71875 456.648438 C 619.285156 456.546875 644.96875 470.097656 666.578125 453.285156 C 671.777344 449.207031 708.570312 446.660156 722.636719 466.632812 C 748.011719 502.90625 728.34375 491.390625 790.71875 508.101562 C 808.351562 512.789062 806.515625 537.140625 761.671875 531.84375 C 710.8125 525.832031 719.78125 587.070312 661.480469 534.390625 C 646.90625 521.246094 637.328125 539.078125 624.6875 511.566406 C 605.222656 469.179688 636.613281 487.011719 617.042969 458.683594 L 615.71875 456.546875 Z M 615.71875 456.648438 "/>
<path style=" stroke:none;fill-rule:evenodd;fill:rgb(0%,70.196078%,23.529412%);fill-opacity:1;" d="M 159.824219 288.117188 L 149.222656 289.847656 C 149.222656 306.863281 116.203125 346.808594 148.308594 335.292969 C 167.773438 328.261719 123.132812 288.015625 201.613281 295.351562 C 224.339844 297.492188 224.339844 285.875 269.492188 288.117188 C 273.773438 288.320312 290.792969 250.519531 181.023438 287.710938 C 177.660156 288.832031 164.613281 288.117188 159.824219 288.117188 Z M 159.824219 288.117188 "/>
<path style=" stroke:none;fill-rule:evenodd;fill:rgb(0%,78.823529%,26.27451%);fill-opacity:1;" d="M 666.578125 453.285156 C 644.867188 470.097656 619.183594 456.546875 615.71875 456.648438 L 617.042969 458.785156 C 621.9375 465.816406 623.667969 470.097656 623.769531 473.050781 C 640.28125 479.164062 648.230469 492.308594 655.671875 497.300781 C 658.933594 499.441406 661.992188 500.15625 665.660156 498.015625 C 698.683594 479.164062 678.300781 537.855469 723.144531 533.472656 C 724.980469 533.269531 728.648438 534.902344 732.929688 537.039062 C 740.0625 533.066406 749.03125 530.417969 761.570312 531.84375 C 806.414062 537.140625 808.25 512.789062 790.617188 508.101562 C 728.242188 491.390625 748.011719 502.804688 722.53125 466.632812 C 718.660156 461.128906 713.054688 457.257812 706.835938 454.8125 C 690.53125 448.191406 670.246094 450.328125 666.476562 453.285156 Z M 666.578125 453.285156 "/>
<path style=" stroke:none;fill-rule:evenodd;fill:rgb(72.941176%,50.196078%,34.509804%);fill-opacity:1;" d="M 271.019531 501.988281 C 290.078125 505.351562 312.09375 511.871094 318.71875 528.277344 C 325.140625 526.136719 331.5625 524.304688 338.289062 522.671875 C 327.996094 501.378906 317.597656 480.898438 305.570312 473.664062 C 291.304688 482.222656 280.703125 492.613281 271.019531 501.886719 Z M 271.019531 501.988281 "/>
<path style=" stroke:none;fill-rule:evenodd;fill:rgb(72.941176%,50.196078%,34.509804%);fill-opacity:1;" d="M 416.15625 481.816406 C 411.773438 454.609375 433.585938 494.957031 445.511719 500.460938 C 446.835938 501.074219 448.363281 502.398438 449.894531 504.128906 C 452.339844 504.433594 454.886719 504.84375 457.433594 505.453125 C 444.492188 487.519531 429.609375 467.855469 417.074219 452.367188 C 408.511719 449.105469 403.722656 448.902344 399.035156 449.820312 C 399.953125 451.65625 400.96875 453.589844 402.089844 455.628906 C 409.226562 468.976562 419.824219 486.707031 425.226562 505.25 C 427.777344 504.742188 430.527344 504.230469 433.382812 503.925781 C 424.71875 493.023438 416.566406 484.261719 416.15625 481.816406 Z M 416.15625 481.816406 "/>
<path style=" stroke:none;fill-rule:evenodd;fill:rgb(72.941176%,50.196078%,34.509804%);fill-opacity:1;" d="M 555.789062 533.78125 C 550.488281 538.363281 545.394531 542.949219 540.296875 547.332031 C 542.742188 548.859375 545.191406 550.386719 547.433594 551.917969 C 548.960938 550.796875 550.589844 549.675781 552.121094 548.65625 C 556.195312 546.109375 562.109375 538.671875 569.140625 530.824219 C 569.753906 530.113281 570.363281 529.5 570.976562 528.785156 C 569.34375 527.257812 567.816406 525.832031 566.59375 524.40625 C 562.925781 527.460938 559.253906 530.519531 555.585938 533.679688 Z M 555.789062 533.78125 "/>
<path style=" stroke:none;fill-rule:evenodd;fill:rgb(72.941176%,50.196078%,34.509804%);fill-opacity:1;" d="M 575.15625 532.351562 C 566.289062 539.894531 557.316406 547.941406 550.898438 554.160156 C 553.953125 556.195312 556.808594 558.335938 559.765625 560.476562 C 568.324219 552.425781 576.785156 545.597656 584.429688 539.382812 C 580.964844 536.9375 577.90625 534.59375 575.15625 532.351562 Z M 575.15625 532.351562 "/>
<path style=" stroke:none;fill-rule:evenodd;fill:rgb(83.137255%,57.254902%,39.215686%);fill-opacity:1;" d="M 550.898438 554.160156 C 557.214844 547.839844 566.289062 539.894531 575.15625 532.351562 C 574.238281 531.640625 573.320312 530.824219 572.503906 530.113281 C 571.996094 529.703125 571.585938 529.296875 571.078125 528.890625 L 569.242188 530.925781 C 562.210938 538.773438 556.195312 546.210938 552.222656 548.757812 C 550.589844 549.777344 549.0625 550.796875 547.535156 552.019531 C 548.65625 552.730469 549.777344 553.546875 550.898438 554.261719 Z M 416.15625 481.816406 C 416.566406 484.261719 424.71875 492.921875 433.382812 503.925781 C 438.476562 503.414062 443.878906 503.414062 449.894531 504.128906 C 448.261719 502.296875 446.835938 501.074219 445.511719 500.460938 C 433.585938 494.957031 411.875 454.710938 416.15625 481.816406 Z M 416.15625 481.816406 "/>
</g>
</svg>
