<?xml version="1.0" encoding="UTF-8" standalone="no"?>
<!-- Created with Inkscape (http://www.inkscape.org/) -->

<svg
   xmlns:dc="http://purl.org/dc/elements/1.1/"
   xmlns:cc="http://creativecommons.org/ns#"
   xmlns:rdf="http://www.w3.org/1999/02/22-rdf-syntax-ns#"
   xmlns:svg="http://www.w3.org/2000/svg"
   xmlns="http://www.w3.org/2000/svg"
   xmlns:xlink="http://www.w3.org/1999/xlink"
   xmlns:sodipodi="http://sodipodi.sourceforge.net/DTD/sodipodi-0.dtd"
   xmlns:inkscape="http://www.inkscape.org/namespaces/inkscape"
   width="30.127445mm"
   height="31.122759mm"
   viewBox="0 0 106.75079 110.27749"
   id="svg2"
   version="1.1"
   inkscape:version="0.91 r13725"
   sodipodi:docname="Hose.svg">
  <title
     id="title4147">trousers - coloured</title>
  <defs
     id="defs4">
    <pattern
       inkscape:collect="always"
       xlink:href="#Polkadots-large"
       id="pattern6177"
       patternTransform="matrix(1.05,0,0,1.425,429.5,440)" />
    <pattern
       inkscape:collect="always"
       xlink:href="#Polkadots-large"
       id="pattern6070"
       patternTransform="matrix(1.3212425,-0.09971641,0.08466488,1.1218096,362,488.25)" />
    <pattern
       inkscape:collect="always"
       xlink:href="#Polkadots-large"
       id="pattern5720"
       patternTransform="matrix(1.0904545,0,0,1.868272,351.78563,352.59628)" />
    <pattern
       inkscape:stockid="Polka dots, large"
       id="Polkadots-large"
       patternTransform="translate(0,0) scale(10,10)"
       height="10"
       width="10"
       patternUnits="userSpaceOnUse"
       inkscape:collect="always">
      <circle
         id="circle5410"
         r="0.45"
         cy="0.810"
         cx="2.567"
         style="fill:black;stroke:none" />
      <circle
         id="circle5412"
         r="0.45"
         cy="2.33"
         cx="3.048"
         style="fill:black;stroke:none" />
      <circle
         id="circle5414"
         r="0.45"
         cy="2.415"
         cx="4.418"
         style="fill:black;stroke:none" />
      <circle
         id="circle5416"
         r="0.45"
         cy="3.029"
         cx="1.844"
         style="fill:black;stroke:none" />
      <circle
         id="circle5418"
         r="0.45"
         cy="1.363"
         cx="6.08"
         style="fill:black;stroke:none" />
      <circle
         id="circle5420"
         r="0.45"
         cy="4.413"
         cx="5.819"
         style="fill:black;stroke:none" />
      <circle
         id="circle5422"
         r="0.45"
         cy="4.048"
         cx="4.305"
         style="fill:black;stroke:none" />
      <circle
         id="circle5424"
         r="0.45"
         cy="3.045"
         cx="5.541"
         style="fill:black;stroke:none" />
      <circle
         id="circle5426"
         r="0.45"
         cy="5.527"
         cx="4.785"
         style="fill:black;stroke:none" />
      <circle
         id="circle5428"
         r="0.45"
         cy="5.184"
         cx="2.667"
         style="fill:black;stroke:none" />
      <circle
         id="circle5430"
         r="0.45"
         cy="1.448"
         cx="7.965"
         style="fill:black;stroke:none" />
      <circle
         id="circle5432"
         r="0.45"
         cy="5.049"
         cx="7.047"
         style="fill:black;stroke:none" />
      <circle
         id="circle5434"
         r="0.45"
         cy="0.895"
         cx="4.340"
         style="fill:black;stroke:none" />
      <circle
         id="circle5436"
         r="0.45"
         cy="0.340"
         cx="7.125"
         style="fill:black;stroke:none" />
      <circle
         id="circle5438"
         r="0.45"
         cy="1.049"
         cx="9.553"
         style="fill:black;stroke:none" />
      <circle
         id="circle5440"
         r="0.45"
         cy="2.689"
         cx="7.006"
         style="fill:black;stroke:none" />
      <circle
         id="circle5442"
         r="0.45"
         cy="2.689"
         cx="8.909"
         style="fill:black;stroke:none" />
      <circle
         id="circle5444"
         r="0.45"
         cy="4.407"
         cx="9.315"
         style="fill:black;stroke:none" />
      <circle
         id="circle5446"
         r="0.45"
         cy="3.870"
         cx="7.820"
         style="fill:black;stroke:none" />
      <circle
         id="circle5448"
         r="0.45"
         cy="5.948"
         cx="8.270"
         style="fill:black;stroke:none" />
      <circle
         id="circle5450"
         r="0.45"
         cy="7.428"
         cx="7.973"
         style="fill:black;stroke:none" />
      <circle
         id="circle5452"
         r="0.45"
         cy="8.072"
         cx="9.342"
         style="fill:black;stroke:none" />
      <circle
         id="circle5454"
         r="0.45"
         cy="9.315"
         cx="8.206"
         style="fill:black;stroke:none" />
      <circle
         id="circle5456"
         r="0.45"
         cy="9.475"
         cx="9.682"
         style="fill:black;stroke:none" />
      <circle
         id="circle5458"
         r="0.45"
         cy="6.186"
         cx="9.688"
         style="fill:black;stroke:none" />
      <circle
         id="circle5460"
         r="0.45"
         cy="6.296"
         cx="3.379"
         style="fill:black;stroke:none" />
      <circle
         id="circle5462"
         r="0.45"
         cy="8.204"
         cx="2.871"
         style="fill:black;stroke:none" />
      <circle
         id="circle5464"
         r="0.45"
         cy="8.719"
         cx="4.59"
         style="fill:black;stroke:none" />
      <circle
         id="circle5466"
         r="0.45"
         cy="9.671"
         cx="3.181"
         style="fill:black;stroke:none" />
      <circle
         id="circle5468"
         r="0.45"
         cy="7.315"
         cx="5.734"
         style="fill:black;stroke:none" />
      <circle
         id="circle5470"
         r="0.45"
         cy="6.513"
         cx="6.707"
         style="fill:black;stroke:none" />
      <circle
         id="circle5472"
         r="0.45"
         cy="9.670"
         cx="5.730"
         style="fill:black;stroke:none" />
      <circle
         id="circle5474"
         r="0.45"
         cy="8.373"
         cx="6.535"
         style="fill:black;stroke:none" />
      <circle
         id="circle5476"
         r="0.45"
         cy="7.154"
         cx="4.37"
         style="fill:black;stroke:none" />
      <circle
         id="circle5478"
         r="0.45"
         cy="7.25"
         cx="0.622"
         style="fill:black;stroke:none" />
      <circle
         id="circle5480"
         r="0.45"
         cy="5.679"
         cx="0.831"
         style="fill:black;stroke:none" />
      <circle
         id="circle5482"
         r="0.45"
         cy="8.519"
         cx="1.257"
         style="fill:black;stroke:none" />
      <circle
         id="circle5484"
         r="0.45"
         cy="6.877"
         cx="1.989"
         style="fill:black;stroke:none" />
      <circle
         id="circle5486"
         r="0.45"
         cy="3.181"
         cx="0.374"
         style="fill:black;stroke:none" />
      <circle
         id="circle5488"
         r="0.45"
         cy="1.664"
         cx="1.166"
         style="fill:black;stroke:none" />
      <circle
         id="circle5490"
         r="0.45"
         cy="0.093"
         cx="1.151"
         style="fill:black;stroke:none" />
      <circle
         id="circle5492"
         r="0.45"
         cy="10.093"
         cx="1.151"
         style="fill:black;stroke:none" />
      <circle
         id="circle5494"
         r="0.45"
         cy="4.451"
         cx="1.302"
         style="fill:black;stroke:none" />
      <circle
         id="circle5496"
         r="0.45"
         cy="3.763"
         cx="3.047"
         style="fill:black;stroke:none" />
    </pattern>
  </defs>
  <sodipodi:namedview
     id="base"
     pagecolor="#ffffff"
     bordercolor="#666666"
     borderopacity="1.0"
     inkscape:pageopacity="0.0"
     inkscape:pageshadow="2"
     inkscape:zoom="2"
     inkscape:cx="31.631411"
     inkscape:cy="101.95715"
     inkscape:document-units="mm"
     inkscape:current-layer="layer1"
     showgrid="false"
     inkscape:window-width="1464"
     inkscape:window-height="1024"
     inkscape:window-x="528"
     inkscape:window-y="116"
     inkscape:window-maximized="0"
     inkscape:snap-global="false"
     fit-margin-top="1"
     fit-margin-right="1"
     fit-margin-bottom="1"
     fit-margin-left="1" />
  <metadata
     id="metadata7">
    <rdf:RDF>
      <cc:Work
         rdf:about="">
        <dc:format>image/svg+xml</dc:format>
        <dc:type
           rdf:resource="http://purl.org/dc/dcmitype/StillImage" />
        <dc:title>trousers - coloured</dc:title>
        <dc:date>2015-02-08</dc:date>
        <dc:creator>
          <cc:Agent>
            <dc:title>Frank Tremmel</dc:title>
          </cc:Agent>
        </dc:creator>
        <dc:subject>
          <rdf:Bag>
            <rdf:li>trousers</rdf:li>
            <rdf:li>clothes</rdf:li>
            <rdf:li>clothing</rdf:li>
            <rdf:li>hose</rdf:li>
            <rdf:li>kleidung</rdf:li>
            <rdf:li>line art</rdf:li>
            <rdf:li>outline</rdf:li>
            <rdf:li></rdf:li>
          </rdf:Bag>
        </dc:subject>
        <dc:description>coloured line art trousers</dc:description>
        <cc:license
           rdf:resource="http://creativecommons.org/publicdomain/zero/1.0/" />
      </cc:Work>
      <cc:License
         rdf:about="http://creativecommons.org/publicdomain/zero/1.0/">
        <cc:permits
           rdf:resource="http://creativecommons.org/ns#Reproduction" />
        <cc:permits
           rdf:resource="http://creativecommons.org/ns#Distribution" />
        <cc:permits
           rdf:resource="http://creativecommons.org/ns#DerivativeWorks" />
      </cc:License>
    </rdf:RDF>
  </metadata>
  <g
     inkscape:label="Ebene 1"
     inkscape:groupmode="layer"
     id="layer1"
     transform="translate(-309.71099,-363.78808)">
    <path
       style="fill:#72c1ff;fill-opacity:1;fill-rule:evenodd;stroke:#ff0000;stroke-width:0.35433072;stroke-linecap:butt;stroke-linejoin:miter;stroke-miterlimit:4;stroke-dasharray:none;stroke-opacity:1"
       d="m 347.06331,399.99961 c 0,0 2.82676,1.909 4.29315,2.77792 3.04595,1.80489 6.33321,3.18767 9.34391,5.05076 4.21304,2.60713 9.05066,4.19588 13.8896,4.16688 1.84519,-0.0111 4.26805,-0.34353 5.42957,1.89404 0.75338,1.45133 4.16688,0.50508 4.16688,0.50508 1.14309,-1.17506 2.72457,2.58552 3.15672,4.16687 0.92458,3.38325 0.84827,7.39725 2.90419,9.72272 2.5435,2.87697 3.00211,6.14591 4.92449,9.47018 0.86492,1.49565 2.77792,5.30331 2.77792,5.30331 1.99014,0.36372 2.87859,0.17659 3.53554,-0.12628 l -10.73287,-30.30457 -41.54253,-15.15229 z"
       id="path4172-4"
       inkscape:connector-curvature="0"
       sodipodi:nodetypes="cssssssssccccc" />
    <path
       style="fill:#66abff;fill-opacity:1;fill-rule:evenodd;stroke:#ff0000;stroke-width:0.35433072;stroke-linecap:butt;stroke-linejoin:miter;stroke-miterlimit:4;stroke-dasharray:none;stroke-opacity:1"
       d="m 315.41548,390.85599 c 0,0 2.04252,10.35034 4.54569,14.89974 2.21897,4.03289 5.42067,7.5314 7.82868,11.36423 1.74419,2.77623 4.31164,4.94292 6.56599,7.32359 2.0873,2.20426 4.45527,4.70255 6.94481,6.43973 2.50709,1.74942 3.90065,4.09334 6.18718,6.18718 2.89865,2.65437 6.56658,5.98427 10.10152,7.70241 6.3204,3.07201 8.94837,7.83964 9.65958,7.98653 0.32242,0.25584 4.67196,0 4.67196,0 l 4.86136,8.04965 6.9448,4.41941 5.3033,3.28301 c 0.39385,3.22358 3.2519,0.80607 4.9245,-0.12628 l 1.38895,-1.26269 -76.89786,-77.5292 z"
       id="path4170-4"
       inkscape:connector-curvature="0"
       sodipodi:nodetypes="cssssssccccccccc" />
    <path
       style="fill:#287abe;fill-opacity:1;fill-rule:evenodd;stroke:#ff0000;stroke-width:0.35433072;stroke-linecap:butt;stroke-linejoin:round;stroke-miterlimit:4;stroke-dasharray:none;stroke-opacity:1"
       d="m 328.67665,377.05928 c -3.58568,2.32588 -8.54303,6.37075 -10.48033,7.38674 -4.47679,2.3478 -3.15377,3.10809 -4.29315,4.54568 5.98432,-1.88573 11.71467,-4.26213 17.86707,-7.82868 4.20416,-3.81392 8.45673,-7.57944 11.67989,-12.37437 0.98097,-1.48469 -0.75495,-1.03001 -1.89403,-0.88389 -4.66939,2.59681 -5.22302,4.06278 -7.57615,5.99779 -2.48783,2.0458 -3.57737,2.03719 -5.3033,3.15673 z"
       id="path4176-7"
       inkscape:connector-curvature="0"
       sodipodi:nodetypes="ssccccss" />
    <path
       style="fill:url(#pattern5720);fill-opacity:1;fill-rule:evenodd;stroke:#000000;stroke-width:1.0629921;stroke-linecap:butt;stroke-linejoin:round;stroke-miterlimit:4;stroke-dasharray:none;stroke-opacity:1"
       d="m 328.86779,376.9515 c -3.58568,2.32588 -8.54303,6.37075 -10.48033,7.38674 -4.47679,2.3478 -3.15377,3.10809 -4.29315,4.54568 5.98432,-1.88573 11.71467,-4.26213 17.86707,-7.82868 4.20416,-3.81392 8.45673,-7.57944 11.67989,-12.37437 0.98097,-1.48469 -0.75495,-1.03001 -1.89403,-0.88389 -4.66939,2.59681 -5.22302,4.06278 -7.57615,5.99779 -2.48783,2.0458 -3.57737,2.03719 -5.3033,3.15673 z"
       id="path4176"
       inkscape:connector-curvature="0"
       sodipodi:nodetypes="ssccccss" />
    <path
       style="fill:url(#pattern6070);fill-opacity:1;fill-rule:evenodd;stroke:#000000;stroke-width:1.0629921;stroke-linecap:butt;stroke-linejoin:miter;stroke-miterlimit:4;stroke-dasharray:none;stroke-opacity:1"
       d="m 315.42013,390.96229 c 0,0 2.04252,10.35034 4.54569,14.89974 2.21897,4.03289 5.42067,7.5314 7.82868,11.36423 1.74419,2.77623 4.31164,4.94292 6.56599,7.32359 2.0873,2.20426 4.45527,4.70255 6.94481,6.43973 2.50709,1.74942 3.90065,4.09334 6.18718,6.18718 2.89865,2.65437 6.56658,5.98427 10.10152,7.70241 6.3204,3.07201 8.94837,7.83964 9.65958,7.98653 0.32242,0.25584 4.67196,0 4.67196,0 l 4.86136,8.04965 6.9448,4.41941 5.3033,3.28301 c 0.39385,3.22358 3.2519,0.80607 4.9245,-0.12628 l 1.38895,-1.26269 -76.89786,-77.5292 z"
       id="path4170"
       inkscape:connector-curvature="0"
       sodipodi:nodetypes="cssssssccccccccc" />
    <path
       style="fill:url(#pattern6177);fill-opacity:1;fill-rule:evenodd;stroke:#000000;stroke-width:1.0629921;stroke-linecap:butt;stroke-linejoin:miter;stroke-miterlimit:4;stroke-dasharray:none;stroke-opacity:1"
       d="m 346.61367,399.92993 c 0,0 2.82676,1.909 4.29315,2.77792 3.04595,1.80489 6.33321,3.18767 9.34391,5.05076 4.21304,2.60713 9.05066,4.19588 13.8896,4.16688 1.84519,-0.0111 4.26805,-0.34353 5.42957,1.89404 0.75338,1.45133 4.16688,0.50508 4.16688,0.50508 1.14309,-1.17506 2.72457,2.58552 3.15672,4.16687 0.92458,3.38325 0.84827,7.39725 2.90419,9.72272 2.5435,2.87697 3.00211,6.14591 4.92449,9.47018 0.86492,1.49565 2.77792,5.30331 2.77792,5.30331 1.99014,0.36372 2.87859,0.17659 3.53554,-0.12628 l -10.73287,-30.30457 -41.54253,-15.15229 z"
       id="path4172"
       inkscape:connector-curvature="0"
       sodipodi:nodetypes="cssssssssccccc" />
    <path
       style="fill:#b0d5ff;fill-rule:evenodd;stroke:#000000;stroke-width:1.0629921;stroke-linecap:butt;stroke-linejoin:miter;stroke-miterlimit:4;stroke-dasharray:none;stroke-opacity:1;fill-opacity:1"
       d="m 316.30402,390.58602 c 0,0 1.91994,3.35422 4.16688,5.42957 -0.29839,3.27764 1.41343,4.23202 2.14022,6.20885 5.21247,9.1132 6.39321,9.95687 9.50716,14.57324 3.22485,4.78077 6.31068,7.0694 9.58114,10.53264 1.26757,1.34228 3.46786,2.80189 4.85052,4.02529 2.03017,1.79632 4.44197,3.75193 6.529,5.48186 2.84277,2.35637 4.59368,4.0081 7.50219,6.28283 2.68528,2.10014 5.14154,3.38979 7.61947,5.42322 1.38349,1.1353 2.10573,3.44836 3.53554,4.04061 0.97214,0.40267 3.33529,-0.26786 3.33529,-0.26786 l 3.09808,4.38244 c 0,0 2.21812,2.52873 3.55086,3.53553 1.88357,1.42292 6.35678,2.56871 6.35678,2.56871 l 3.28299,3.80339 c 2.27144,2.10252 2.13403,1.70764 2.85189,1.63515 l 6.56599,-7.07106 c 1.51522,-1.26269 1.51523,-2.35703 0,-3.283 0,0 -6.2129,-5.57139 -9.09137,-8.5863 -3.29757,-3.45388 -5.74318,-7.72258 -9.34391,-10.85914 -2.34167,-2.03981 -5.61494,-3.25654 -7.70241,-5.55584 -1.97395,-2.17425 -2.32224,-5.03862 -4.16688,-7.3236 -3.49349,-4.32743 -12.87945,-10.6066 -12.87945,-10.6066 l -8.58629,-9.59645 c -0.58067,-0.66571 -1.13898,-1.42082 -1.38896,-3.40927 l -0.20024,-2.37744 c 1.69884,-0.45564 3.52084,-0.17235 5.55584,1.38896 0,0 8.50473,4.50904 13.20595,6.11956 2.35835,0.80791 4.70035,1.20586 7.14503,1.6938 2.18566,0.43624 6.12693,0.1657 7.816,1.61983 1.68861,1.45373 3.52476,4.81356 3.72679,3.80339 l 2.03563,-1.25634 c 3.16944,1.2729 3.55677,3.49697 3.80338,5.38624 0.26,1.99182 0.0649,3.83611 0.59437,5.79306 1.07182,3.96169 3.57858,7.47557 5.48187,11.11168 0.94421,1.80385 2.22689,5.48187 2.22689,5.48187 1.01015,1.95078 2.0203,2.05383 3.03045,2.0203 3.47645,-0.35817 6.54009,-1.74833 9.34391,-3.78807 1.50138,-1.01015 1.08492,-2.02031 0.25254,-3.03046 0,0 -3.44787,-7.60613 -4.54568,-11.61675 -0.96823,-3.53724 -0.64024,-7.36941 -1.76777,-10.85914 -0.75233,-2.32848 -2.13771,-4.40355 -3.283,-6.56599 -1.12891,-2.13151 -1.88266,-4.55682 -3.53553,-6.31346 -2.88024,-3.06106 -7.13788,-6.23504 -10.6066,-6.81853 -3.283,-0.55225 -6.47675,-2.48516 -9.84899,-3.78807 0,0 -7.49385,-2.65669 -11.11168,-4.29315 -1.98971,-0.90001 -4.06763,-1.71182 -5.80837,-3.03045 -1.56649,-1.18663 -2.50479,-3.06709 -4.04061,-4.29315 -1.29753,-1.03583 -2.87817,-1.65684 -4.29315,-2.52538 -2.12943,-1.30708 -6.31346,-4.04061 -6.31346,-4.04061 l -1.01015,-1.51523 c -8.94801,8.05623 -17.87588,14.61736 -29.16815,20.32932 z"
       id="path4168"
       inkscape:connector-curvature="0"
       sodipodi:nodetypes="cccsssssssccscccccsssscccccsssccsssccccssssssssssccc" />
    <path
       style="fill:#a2ceef;fill-rule:evenodd;stroke:#000000;stroke-width:1.0629921;stroke-linecap:butt;stroke-linejoin:miter;stroke-miterlimit:4;stroke-dasharray:none;stroke-opacity:1;fill-opacity:1"
       d="m 314.66252,388.81825 c -1.21119,0.93665 -0.83773,1.59899 -0.75762,2.39911 0.1,0.99882 1.22383,2.01546 1.89404,2.46225 0,0 1.46781,-0.38116 2.39911,-0.69448 2.69415,-0.90641 5.15552,-2.42418 7.57615,-3.91434 2.56921,-1.57855 6.26147,-3.00795 7.3236,-5.3033 0.43285,-0.20722 0.97907,-0.12923 1.38896,-0.37881 1.80645,-1.09995 2.80153,-3.17255 4.29315,-4.67196 1.70135,-1.71024 3.4631,-3.36463 5.3033,-4.92449 0.89266,-0.75667 2.77792,-2.14657 2.77792,-2.14657 -0.71552,-1.57897 -1.43105,-2.18644 -2.14657,-2.77792 -0.79971,-0.9735 -1.47314,-1.1478 -2.27285,-0.44194 0,0 -2.91888,2.91732 -4.16688,4.35628 -0.82732,0.95391 -1.36178,2.15619 -2.27284,3.03046 -1.17931,1.13168 -2.61651,2.03685 -4.10374,2.71479 -0.52962,0.24142 -1.41113,1.41449 -1.6415,2.33597 -1.4318,0.2864 -5.15969,2.26337 -7.82869,3.6618 -1.68802,0.88444 -3.44855,1.97774 -5.11389,2.90419 -0.87195,0.48508 -2.65165,1.38896 -2.65165,1.38896 z"
       id="path4174"
       inkscape:connector-curvature="0"
       sodipodi:nodetypes="cscsccssscccssscssc" />
    <path
       style="fill:none;fill-rule:evenodd;stroke:#000000;stroke-width:0.70866144;stroke-linecap:butt;stroke-linejoin:miter;stroke-miterlimit:4;stroke-dasharray:none;stroke-opacity:1"
       d="m 333.21429,383.88006 c 3.34727,4.19077 6.52058,7.78424 10.08928,13.30357 0.77381,0.47619 1.42857,0.47619 1.96429,0 0.5024,-0.88708 1.14481,-1.61081 0.26786,-4.10714 -2.18387,-4.23998 -4.73322,-8.37555 -8.57143,-12.14286 l -2.05357,2.41072 z"
       id="path4178"
       inkscape:connector-curvature="0"
       sodipodi:nodetypes="ccccccc" />
    <path
       style="fill:#b76e10;fill-rule:evenodd;stroke:#000000;stroke-width:0.70866144;stroke-linecap:butt;stroke-linejoin:miter;stroke-miterlimit:4;stroke-dasharray:none;stroke-opacity:1;fill-opacity:1"
       d="m 333.21429,379.32649 c -0.61917,0.34218 -0.94355,1.47553 -0.53572,2.05357 0.39612,0.56143 1.83928,0.46428 2.05357,0.17857 0.26786,-0.35714 0.4902,-1.22082 0.17858,-1.69643 -0.32499,-0.49602 -1.17741,-0.82254 -1.69643,-0.53571 z"
       id="path4180"
       inkscape:connector-curvature="0"
       sodipodi:nodetypes="sssss" />
    <path
       style="fill:#b0d5ff;fill-rule:evenodd;stroke:#000000;stroke-width:0.70866144;stroke-linecap:butt;stroke-linejoin:round;stroke-miterlimit:4;stroke-dasharray:none;stroke-opacity:1;fill-opacity:1"
       d="m 324.33036,384.37113 c -1.07498,-0.11694 -2.11972,0.0347 -2.72321,0.625 0,0 2.21476,2.40006 2.90178,3.92857 0.19862,0.4419 -0.40179,0.89286 -0.40179,0.89286 0.58015,0.15008 2.16936,0.85287 2.99107,0.0446 l -0.17853,-0.93749 c -0.21776,-0.41667 -0.70685,-0.96726 -1.16071,-1.38393 -1.3054,-1.43394 -0.75893,-2.05357 -1.42861,-3.16965 z"
       id="path4182"
       inkscape:connector-curvature="0"
       sodipodi:nodetypes="ccsccccc" />
    <path
       style="fill:#b0d5ff;fill-rule:evenodd;stroke:#000000;stroke-width:0.70866144;stroke-linecap:butt;stroke-linejoin:miter;stroke-miterlimit:4;stroke-dasharray:none;stroke-opacity:1;fill-opacity:1"
       d="m 320.35715,396.87113 5.08928,-3.16964 2.1875,3.57142 c -1.62612,2.28718 -2.73019,3.06174 -4.46877,3.99938 -1.32135,0.27029 -1.15777,-0.25242 -1.48405,-0.56822 -0.92592,-1.43392 -0.58025,-2.56045 -1.32396,-3.83294 z"
       id="path4186"
       inkscape:connector-curvature="0"
       sodipodi:nodetypes="cccccc" />
    <path
       style="fill:none;fill-rule:evenodd;stroke:#000000;stroke-width:1.0629921;stroke-linecap:butt;stroke-linejoin:miter;stroke-miterlimit:4;stroke-dasharray:none;stroke-opacity:1"
       d="m 327.45536,388.34435 c 0,0 1.37724,1.5998 1.60714,2.58928 0.44334,1.90816 0.36784,4.13401 -0.58036,5.84822 -1.3759,2.48743 -6.23599,5.09694 -6.23599,5.09694"
       id="path4188"
       inkscape:connector-curvature="0"
       sodipodi:nodetypes="cssc" />
    <path
       style="fill:none;fill-rule:evenodd;stroke:#000000;stroke-width:1.0629921;stroke-linecap:butt;stroke-linejoin:miter;stroke-miterlimit:4;stroke-dasharray:none;stroke-opacity:1"
       d="m 342.36607,375.97827 c 0,0 2.30213,2.89311 3.97322,3.34822 2.14093,0.58306 4.57503,-0.12939 6.5625,-1.11607 0.58465,-0.29025 1.42857,-1.33929 1.42857,-1.33929"
       id="path4190"
       inkscape:connector-curvature="0"
       sodipodi:nodetypes="cssc" />
    <path
       style="fill:none;fill-rule:evenodd;stroke:#000000;stroke-width:1px;stroke-linecap:round;stroke-linejoin:miter;stroke-opacity:1"
       d="m 343.56826,397.52995 c 0.20047,0.67859 4.04178,2.16543 4.1996,3.6269 0.0907,0.83977 -0.8297,1.42919 -0.26786,2.76785 0.52041,1.23993 1.2768,3.94642 0.89286,4.33036"
       id="path4192"
       inkscape:connector-curvature="0"
       sodipodi:nodetypes="cssc" />
    <path
       style="fill:none;fill-rule:evenodd;stroke:#000000;stroke-width:1.0629921;stroke-linecap:round;stroke-linejoin:miter;stroke-miterlimit:4;stroke-dasharray:none;stroke-opacity:1"
       d="m 356.69643,383.43363 c 0,0 1.81381,-0.20129 2.72321,-0.17857 1.03334,0.0258 3.08036,0.35714 3.08036,0.35714"
       id="path4194"
       inkscape:connector-curvature="0"
       sodipodi:nodetypes="csc" />
    <path
       style="fill:none;fill-rule:evenodd;stroke:#000000;stroke-width:1.0629921;stroke-linecap:round;stroke-linejoin:miter;stroke-miterlimit:4;stroke-dasharray:none;stroke-opacity:1"
       d="m 370.80358,453.07648 c 2.88207,0.0525 2.96412,-1.65218 6.16071,-0.62499"
       id="path4198"
       inkscape:connector-curvature="0"
       sodipodi:nodetypes="cc" />
    <path
       style="fill:none;fill-rule:evenodd;stroke:#000000;stroke-width:1.0629921;stroke-linecap:round;stroke-linejoin:miter;stroke-miterlimit:4;stroke-dasharray:none;stroke-opacity:1"
       d="m 373.58675,431.56946 c 0.27185,0.27185 1.71489,2.91118 2.12754,3.60524 0.61899,1.04111 2.67857,2.45536 2.67857,2.45536"
       id="path4200"
       inkscape:connector-curvature="0"
       sodipodi:nodetypes="csc" />
    <path
       style="fill:none;fill-rule:evenodd;stroke:#000000;stroke-width:1.0629921;stroke-linecap:round;stroke-linejoin:miter;stroke-miterlimit:4;stroke-dasharray:none;stroke-opacity:1"
       d="m 383.30357,413.70149 c 1.14583,0.22786 2.29167,0.32813 3.4375,-0.26786 1.44976,-0.7042 3.17828,-0.96237 5.22322,-0.71428"
       id="path4202"
       inkscape:connector-curvature="0"
       sodipodi:nodetypes="ccc" />
    <path
       style="fill:none;fill-rule:evenodd;stroke:#000000;stroke-width:1.0629921;stroke-linecap:butt;stroke-linejoin:miter;stroke-miterlimit:4;stroke-dasharray:none;stroke-opacity:1"
       d="m 330.25675,380.80017 c 0.58124,1.23187 0.85554,2.69395 2.71478,2.96732"
       id="path4204"
       inkscape:connector-curvature="0"
       sodipodi:nodetypes="cc" />
    <ellipse
       style="color:#000000;display:inline;overflow:visible;visibility:visible;opacity:1;fill:#b76e10;fill-opacity:1;fill-rule:evenodd;stroke:#000000;stroke-width:0.70866144;stroke-linecap:round;stroke-linejoin:round;stroke-miterlimit:4;stroke-dasharray:none;stroke-dashoffset:0;stroke-opacity:1;marker:none;enable-background:accumulate"
       id="path4206"
       cx="325.26465"
       cy="394.40564"
       rx="0.8162967"
       ry="0.91545075" />
    <ellipse
       style="color:#000000;display:inline;overflow:visible;visibility:visible;opacity:1;fill:#b76e10;fill-opacity:1;fill-rule:evenodd;stroke:#000000;stroke-width:0.70866144;stroke-linecap:round;stroke-linejoin:round;stroke-miterlimit:4;stroke-dasharray:none;stroke-dashoffset:0;stroke-opacity:1;marker:none;enable-background:accumulate"
       id="path4206-7"
       cx="325.14285"
       cy="402.83411"
       rx="0.8162967"
       ry="0.91545075" />
    <ellipse
       style="color:#000000;display:inline;overflow:visible;visibility:visible;opacity:1;fill:#b76e10;fill-opacity:1;fill-rule:evenodd;stroke:#000000;stroke-width:0.70866144;stroke-linecap:round;stroke-linejoin:round;stroke-miterlimit:4;stroke-dasharray:none;stroke-dashoffset:0;stroke-opacity:1;marker:none;enable-background:accumulate"
       id="path4206-6"
       cx="330.1936"
       cy="388.88138"
       rx="0.8162967"
       ry="0.91545075" />
    <ellipse
       style="color:#000000;display:inline;overflow:visible;visibility:visible;opacity:1;fill:#b76e10;fill-opacity:1;fill-rule:evenodd;stroke:#000000;stroke-width:0.70866144;stroke-linecap:round;stroke-linejoin:round;stroke-miterlimit:4;stroke-dasharray:none;stroke-dashoffset:0;stroke-opacity:1;marker:none;enable-background:accumulate"
       id="path4206-4"
       cx="341.8735"
       cy="378.40106"
       rx="0.8162967"
       ry="0.91545075" />
    <ellipse
       style="color:#000000;display:inline;overflow:visible;visibility:visible;opacity:1;fill:#b76e10;fill-opacity:1;fill-rule:evenodd;stroke:#000000;stroke-width:0.70866144;stroke-linecap:round;stroke-linejoin:round;stroke-miterlimit:4;stroke-dasharray:none;stroke-dashoffset:0;stroke-opacity:1;marker:none;enable-background:accumulate"
       id="path4206-41"
       cx="354.81607"
       cy="379.2218"
       rx="0.8162967"
       ry="0.91545075" />
    <path
       style="fill:#b0d5ff;fill-rule:evenodd;stroke:#000000;stroke-width:0.70866144;stroke-linecap:butt;stroke-linejoin:miter;stroke-miterlimit:4;stroke-dasharray:none;stroke-opacity:1;fill-opacity:1"
       d="m 338.4375,372.76399 c 0.42321,-0.46766 0.32758,-1.02179 1.38393,-1.38393 0.58223,-0.2232 1.11842,-0.52006 2.27679,0.17857 0.99702,0.55435 1.99405,1.68449 2.99107,2.94643 0.70094,1.25053 -0.60434,1.78647 -1.25,1.38393 l -2.99107,-2.99107 c -0.41968,-0.22889 -0.80735,-0.71384 -1.33929,-0.0446 l -0.71429,0.49108 c -0.15782,0.0198 -0.41799,0.6025 -0.35714,-0.58041 z"
       id="path4184"
       inkscape:connector-curvature="0"
       sodipodi:nodetypes="ccccccccc" />
  </g>
</svg>
