<?xml version="1.0" encoding="UTF-8"?>
<svg xmlns="http://www.w3.org/2000/svg" xmlns:xlink="http://www.w3.org/1999/xlink" width="1024pt" height="1051pt" viewBox="0 0 1024 1051" version="1.1">
<defs>
<clipPath id="clip1">
  <rect width="104" height="178"/>
</clipPath>
<g id="surface6" clip-path="url(#clip1)">
<path style=" stroke:none;fill-rule:nonzero;fill:rgb(0%,0%,0%);fill-opacity:1;" d="M 31.375 14.417969 C 31.375 18.839844 29.285156 22.425781 26.695312 22.425781 C 24.113281 22.425781 22.011719 18.839844 22.011719 14.417969 C 22.011719 9.992188 24.113281 6.410156 26.695312 6.410156 C 29.285156 6.410156 31.375 9.992188 31.375 14.417969 Z M 31.375 14.417969 "/>
<path style=" stroke:none;fill-rule:nonzero;fill:rgb(0%,0%,0%);fill-opacity:1;" d="M 36.375 41.476562 C 36.375 45.898438 34.285156 49.484375 31.695312 49.484375 C 29.113281 49.484375 27.015625 45.898438 27.015625 41.476562 C 27.015625 37.050781 29.113281 33.46875 31.695312 33.46875 C 34.285156 33.46875 36.375 37.050781 36.375 41.476562 Z M 36.375 41.476562 "/>
<path style=" stroke:none;fill-rule:nonzero;fill:rgb(0%,0%,0%);fill-opacity:1;" d="M 50.628906 42.984375 C 50.628906 47.40625 48.53125 51 45.949219 51 C 43.359375 51 41.269531 47.40625 41.269531 42.984375 C 41.269531 38.558594 43.359375 34.976562 45.949219 34.976562 C 48.53125 34.976562 50.628906 38.558594 50.628906 42.984375 Z M 50.628906 42.984375 "/>
<path style=" stroke:none;fill-rule:nonzero;fill:rgb(0%,0%,0%);fill-opacity:1;" d="M 23.859375 53.917969 C 23.859375 58.339844 21.761719 61.925781 19.179688 61.925781 C 16.597656 61.925781 14.496094 58.339844 14.496094 53.917969 C 14.496094 49.492188 16.597656 45.90625 19.179688 45.90625 C 21.761719 45.90625 23.859375 49.492188 23.859375 53.917969 Z M 23.859375 53.917969 "/>
<path style=" stroke:none;fill-rule:nonzero;fill:rgb(0%,0%,0%);fill-opacity:1;" d="M 67.910156 24.261719 C 67.910156 28.683594 65.8125 32.269531 63.230469 32.269531 C 60.648438 32.269531 58.550781 28.683594 58.550781 24.261719 C 58.550781 19.835938 60.648438 16.25 63.230469 16.25 C 65.8125 16.25 67.910156 19.835938 67.910156 24.261719 Z M 67.910156 24.261719 "/>
<path style=" stroke:none;fill-rule:nonzero;fill:rgb(0%,0%,0%);fill-opacity:1;" d="M 65.195312 78.554688 C 65.195312 82.976562 63.105469 86.5625 60.515625 86.5625 C 57.933594 86.5625 55.832031 82.976562 55.832031 78.554688 C 55.832031 74.128906 57.933594 70.542969 60.515625 70.542969 C 63.105469 70.542969 65.195312 74.128906 65.195312 78.554688 Z M 65.195312 78.554688 "/>
<path style=" stroke:none;fill-rule:nonzero;fill:rgb(0%,0%,0%);fill-opacity:1;" d="M 49.453125 72.054688 C 49.453125 76.476562 47.355469 80.0625 44.773438 80.0625 C 42.191406 80.0625 40.089844 76.476562 40.089844 72.054688 C 40.089844 67.628906 42.191406 64.042969 44.773438 64.042969 C 47.355469 64.042969 49.453125 67.628906 49.453125 72.054688 Z M 49.453125 72.054688 "/>
<path style=" stroke:none;fill-rule:nonzero;fill:rgb(0%,0%,0%);fill-opacity:1;" d="M 62.308594 54.199219 C 62.308594 58.625 60.210938 62.210938 57.628906 62.210938 C 55.039062 62.210938 52.949219 58.625 52.949219 54.199219 C 52.949219 49.777344 55.039062 46.191406 57.628906 46.191406 C 60.210938 46.191406 62.308594 49.777344 62.308594 54.199219 Z M 62.308594 54.199219 "/>
<path style=" stroke:none;fill-rule:nonzero;fill:rgb(0%,0%,0%);fill-opacity:1;" d="M 54.445312 98.382812 C 54.445312 102.804688 52.347656 106.390625 49.765625 106.390625 C 47.175781 106.390625 45.085938 102.804688 45.085938 98.382812 C 45.085938 93.960938 47.175781 90.375 49.765625 90.375 C 52.347656 90.375 54.445312 93.960938 54.445312 98.382812 Z M 54.445312 98.382812 "/>
<path style=" stroke:none;fill-rule:nonzero;fill:rgb(0%,0%,0%);fill-opacity:1;" d="M 32.414062 92.277344 C 32.414062 96.699219 30.324219 100.285156 27.734375 100.285156 C 25.152344 100.285156 23.054688 96.699219 23.054688 92.277344 C 23.054688 87.851562 25.152344 84.265625 27.734375 84.265625 C 30.324219 84.265625 32.414062 87.851562 32.414062 92.277344 Z M 32.414062 92.277344 "/>
<path style=" stroke:none;fill-rule:nonzero;fill:rgb(0%,0%,0%);fill-opacity:1;" d="M 87.511719 25.777344 C 87.511719 30.199219 85.421875 33.785156 82.832031 33.785156 C 80.25 33.785156 78.152344 30.199219 78.152344 25.777344 C 78.152344 21.355469 80.25 17.769531 82.832031 17.769531 C 85.421875 17.769531 87.511719 21.355469 87.511719 25.777344 Z M 87.511719 25.777344 "/>
<path style=" stroke:none;fill-rule:nonzero;fill:rgb(0%,0%,0%);fill-opacity:1;" d="M 77.964844 89.871094 C 77.964844 94.292969 75.875 97.878906 73.285156 97.878906 C 70.703125 97.878906 68.605469 94.292969 68.605469 89.871094 C 68.605469 85.449219 70.703125 81.863281 73.285156 81.863281 C 75.875 81.863281 77.964844 85.449219 77.964844 89.871094 Z M 77.964844 89.871094 "/>
<path style=" stroke:none;fill-rule:nonzero;fill:rgb(0%,0%,0%);fill-opacity:1;" d="M 49.816406 15.933594 C 49.816406 20.355469 47.71875 23.941406 45.136719 23.941406 C 42.554688 23.941406 40.457031 20.355469 40.457031 15.933594 C 40.457031 11.511719 42.554688 7.925781 45.136719 7.925781 C 47.71875 7.925781 49.816406 11.511719 49.816406 15.933594 Z M 49.816406 15.933594 "/>
<path style=" stroke:none;fill-rule:nonzero;fill:rgb(0%,0%,0%);fill-opacity:1;" d="M 78.777344 6.046875 C 78.777344 10.480469 76.6875 14.066406 74.097656 14.066406 C 71.515625 14.066406 69.417969 10.480469 69.417969 6.046875 C 69.417969 1.625 71.515625 -1.960938 74.097656 -1.960938 C 76.6875 -1.960938 78.777344 1.625 78.777344 6.046875 Z M 78.777344 6.046875 "/>
<path style=" stroke:none;fill-rule:nonzero;fill:rgb(0%,0%,0%);fill-opacity:1;" d="M 104.035156 18.671875 C 104.035156 23.097656 101.933594 26.679688 99.355469 26.679688 C 96.761719 26.679688 94.671875 23.097656 94.671875 18.671875 C 94.671875 14.25 96.761719 10.664062 99.355469 10.664062 C 101.933594 10.664062 104.035156 14.25 104.035156 18.671875 Z M 104.035156 18.671875 "/>
<path style=" stroke:none;fill-rule:nonzero;fill:rgb(0%,0%,0%);fill-opacity:1;" d="M 77.542969 47.867188 C 77.542969 52.289062 75.445312 55.875 72.863281 55.875 C 70.28125 55.875 68.183594 52.289062 68.183594 47.867188 C 68.183594 43.445312 70.28125 39.851562 72.863281 39.851562 C 75.445312 39.851562 77.542969 43.445312 77.542969 47.867188 Z M 77.542969 47.867188 "/>
<path style=" stroke:none;fill-rule:nonzero;fill:rgb(0%,0%,0%);fill-opacity:1;" d="M 97.332031 47.867188 C 97.332031 52.289062 95.238281 55.875 92.652344 55.875 C 90.070312 55.875 87.96875 52.289062 87.96875 47.867188 C 87.96875 43.445312 90.070312 39.851562 92.652344 39.851562 C 95.238281 39.851562 97.332031 43.445312 97.332031 47.867188 Z M 97.332031 47.867188 "/>
<path style=" stroke:none;fill-rule:nonzero;fill:rgb(0%,0%,0%);fill-opacity:1;" d="M 101.554688 78.445312 C 101.554688 82.867188 99.464844 86.453125 96.875 86.453125 C 94.292969 86.453125 92.191406 82.867188 92.191406 78.445312 C 92.191406 74.019531 94.292969 70.4375 96.875 70.4375 C 99.464844 70.4375 101.554688 74.019531 101.554688 78.445312 Z M 101.554688 78.445312 "/>
<path style=" stroke:none;fill-rule:nonzero;fill:rgb(0%,0%,0%);fill-opacity:1;" d="M 86.007812 68.886719 C 86.007812 73.308594 83.917969 76.894531 81.324219 76.894531 C 78.746094 76.894531 76.644531 73.308594 76.644531 68.886719 C 76.644531 64.464844 78.746094 60.878906 81.324219 60.878906 C 83.917969 60.878906 86.007812 64.464844 86.007812 68.886719 Z M 86.007812 68.886719 "/>
<path style=" stroke:none;fill-rule:nonzero;fill:rgb(0%,0%,0%);fill-opacity:1;" d="M 90.6875 105.871094 C 90.6875 110.296875 88.597656 113.878906 86.007812 113.878906 C 83.425781 113.878906 81.324219 110.296875 81.324219 105.871094 C 81.324219 101.449219 83.425781 97.863281 86.007812 97.863281 C 88.597656 97.863281 90.6875 101.449219 90.6875 105.871094 Z M 90.6875 105.871094 "/>
<path style=" stroke:none;fill-rule:nonzero;fill:rgb(0%,0%,0%);fill-opacity:1;" d="M 87.597656 132.21875 C 87.597656 136.640625 85.507812 140.226562 82.917969 140.226562 C 80.335938 140.226562 78.238281 136.640625 78.238281 132.21875 C 78.238281 127.796875 80.335938 124.210938 82.917969 124.210938 C 85.507812 124.210938 87.597656 127.796875 87.597656 132.21875 Z M 87.597656 132.21875 "/>
<path style=" stroke:none;fill-rule:nonzero;fill:rgb(0%,0%,0%);fill-opacity:1;" d="M 101.832031 143.679688 C 101.832031 148.101562 99.742188 151.695312 97.152344 151.695312 C 94.570312 151.695312 92.472656 148.101562 92.472656 143.679688 C 92.472656 139.253906 94.570312 135.667969 97.152344 135.667969 C 99.742188 135.667969 101.832031 139.253906 101.832031 143.679688 Z M 101.832031 143.679688 "/>
<path style=" stroke:none;fill-rule:nonzero;fill:rgb(0%,0%,0%);fill-opacity:1;" d="M 90.019531 165.8125 C 90.019531 170.234375 87.925781 173.820312 85.347656 173.820312 C 82.757812 173.820312 80.667969 170.234375 80.667969 165.8125 C 80.667969 161.378906 82.757812 157.792969 85.347656 157.792969 C 87.925781 157.792969 90.019531 161.378906 90.019531 165.8125 Z M 90.019531 165.8125 "/>
<path style=" stroke:none;fill-rule:nonzero;fill:rgb(0%,0%,0%);fill-opacity:1;" d="M 105.371094 168.652344 C 105.371094 173.082031 103.28125 176.667969 100.691406 176.667969 C 98.109375 176.667969 96.011719 173.082031 96.011719 168.652344 C 96.011719 164.226562 98.109375 160.640625 100.691406 160.640625 C 103.28125 160.640625 105.371094 164.226562 105.371094 168.652344 Z M 105.371094 168.652344 "/>
<path style=" stroke:none;fill-rule:nonzero;fill:rgb(0%,0%,0%);fill-opacity:1;" d="M 105.4375 110.109375 C 105.4375 114.535156 103.339844 118.121094 100.757812 118.121094 C 98.167969 118.121094 96.078125 114.535156 96.078125 110.109375 C 96.078125 105.6875 98.167969 102.101562 100.757812 102.101562 C 103.339844 102.101562 105.4375 105.6875 105.4375 110.109375 Z M 105.4375 110.109375 "/>
<path style=" stroke:none;fill-rule:nonzero;fill:rgb(0%,0%,0%);fill-opacity:1;" d="M 39.820312 112.070312 C 39.820312 116.496094 37.730469 120.078125 35.140625 120.078125 C 32.558594 120.078125 30.460938 116.496094 30.460938 112.070312 C 30.460938 107.648438 32.558594 104.0625 35.140625 104.0625 C 37.730469 104.0625 39.820312 107.648438 39.820312 112.070312 Z M 39.820312 112.070312 "/>
<path style=" stroke:none;fill-rule:nonzero;fill:rgb(0%,0%,0%);fill-opacity:1;" d="M 34.539062 146.03125 C 34.539062 150.457031 32.441406 154.042969 29.859375 154.042969 C 27.269531 154.042969 25.179688 150.457031 25.179688 146.03125 C 25.179688 141.609375 27.269531 138.023438 29.859375 138.023438 C 32.441406 138.023438 34.539062 141.609375 34.539062 146.03125 Z M 34.539062 146.03125 "/>
<path style=" stroke:none;fill-rule:nonzero;fill:rgb(0%,0%,0%);fill-opacity:1;" d="M 52.414062 155.195312 C 52.414062 159.621094 50.324219 163.207031 47.734375 163.207031 C 45.152344 163.207031 43.054688 159.621094 43.054688 155.195312 C 43.054688 150.773438 45.152344 147.1875 47.734375 147.1875 C 50.324219 147.1875 52.414062 150.773438 52.414062 155.195312 Z M 52.414062 155.195312 "/>
<path style=" stroke:none;fill-rule:nonzero;fill:rgb(0%,0%,0%);fill-opacity:1;" d="M 37.765625 172.144531 C 37.765625 176.566406 35.664062 180.152344 33.082031 180.152344 C 30.496094 180.152344 28.402344 176.566406 28.402344 172.144531 C 28.402344 167.722656 30.496094 164.136719 33.082031 164.136719 C 35.664062 164.136719 37.765625 167.722656 37.765625 172.144531 Z M 37.765625 172.144531 "/>
<path style=" stroke:none;fill-rule:nonzero;fill:rgb(0%,0%,0%);fill-opacity:1;" d="M 64.316406 130.207031 C 64.316406 134.632812 62.214844 138.214844 59.632812 138.214844 C 57.050781 138.214844 54.953125 134.632812 54.953125 130.207031 C 54.953125 125.785156 57.050781 122.199219 59.632812 122.199219 C 62.214844 122.199219 64.316406 125.785156 64.316406 130.207031 Z M 64.316406 130.207031 "/>
<path style=" stroke:none;fill-rule:nonzero;fill:rgb(0%,0%,0%);fill-opacity:1;" d="M 74.4375 115.933594 C 74.4375 120.355469 72.339844 123.941406 69.757812 123.941406 C 67.167969 123.941406 65.074219 120.355469 65.074219 115.933594 C 65.074219 111.507812 67.167969 107.925781 69.757812 107.925781 C 72.339844 107.925781 74.4375 111.507812 74.4375 115.933594 Z M 74.4375 115.933594 "/>
<path style=" stroke:none;fill-rule:nonzero;fill:rgb(0%,0%,0%);fill-opacity:1;" d="M 64.273438 172.128906 C 64.273438 176.550781 62.171875 180.136719 59.589844 180.136719 C 57.011719 180.136719 54.910156 176.550781 54.910156 172.128906 C 54.910156 167.703125 57.011719 164.117188 59.589844 164.117188 C 62.171875 164.117188 64.273438 167.703125 64.273438 172.128906 Z M 64.273438 172.128906 "/>
<path style=" stroke:none;fill-rule:nonzero;fill:rgb(0%,0%,0%);fill-opacity:1;" d="M 72.644531 149.039062 C 72.644531 153.464844 70.550781 157.046875 67.960938 157.046875 C 65.378906 157.046875 63.28125 153.464844 63.28125 149.039062 C 63.28125 144.617188 65.378906 141.03125 67.960938 141.03125 C 70.550781 141.03125 72.644531 144.617188 72.644531 149.039062 Z M 72.644531 149.039062 "/>
<path style=" stroke:none;fill-rule:nonzero;fill:rgb(0%,0%,0%);fill-opacity:1;" d="M 50.128906 127.34375 C 50.128906 131.765625 48.03125 135.351562 45.449219 135.351562 C 42.859375 135.351562 40.769531 131.765625 40.769531 127.34375 C 40.769531 122.917969 42.859375 119.335938 45.449219 119.335938 C 48.03125 119.335938 50.128906 122.917969 50.128906 127.34375 Z M 50.128906 127.34375 "/>
<path style=" stroke:none;fill-rule:nonzero;fill:rgb(0%,0%,0%);fill-opacity:1;" d="M 11.144531 129.050781 C 11.144531 133.476562 9.054688 137.058594 6.464844 137.058594 C 3.886719 137.058594 1.785156 133.476562 1.785156 129.050781 C 1.785156 124.628906 3.886719 121.042969 6.464844 121.042969 C 9.054688 121.042969 11.144531 124.628906 11.144531 129.050781 Z M 11.144531 129.050781 "/>
<path style=" stroke:none;fill-rule:nonzero;fill:rgb(0%,0%,0%);fill-opacity:1;" d="M 13.320312 101.089844 C 13.320312 105.511719 11.230469 109.097656 8.640625 109.097656 C 6.058594 109.097656 3.960938 105.511719 3.960938 101.089844 C 3.960938 96.664062 6.058594 93.078125 8.640625 93.078125 C 11.230469 93.078125 13.320312 96.664062 13.320312 101.089844 Z M 13.320312 101.089844 "/>
<path style=" stroke:none;fill-rule:nonzero;fill:rgb(0%,0%,0%);fill-opacity:1;" d="M 17.757812 151.636719 C 17.757812 156.058594 15.65625 159.644531 13.074219 159.644531 C 10.488281 159.644531 8.394531 156.058594 8.394531 151.636719 C 8.394531 147.214844 10.488281 143.628906 13.074219 143.628906 C 15.65625 143.628906 17.757812 147.214844 17.757812 151.636719 Z M 17.757812 151.636719 "/>
<path style=" stroke:none;fill-rule:nonzero;fill:rgb(0%,0%,0%);fill-opacity:1;" d="M 25.363281 122.410156 C 25.363281 126.832031 23.265625 130.417969 20.683594 130.417969 C 18.105469 130.417969 16.003906 126.832031 16.003906 122.410156 C 16.003906 117.984375 18.105469 114.398438 20.683594 114.398438 C 23.265625 114.398438 25.363281 117.984375 25.363281 122.410156 Z M 25.363281 122.410156 "/>
<path style=" stroke:none;fill-rule:nonzero;fill:rgb(0%,0%,0%);fill-opacity:1;" d="M 8.574219 56.621094 C 8.574219 61.046875 6.472656 64.628906 3.894531 64.628906 C 1.304688 64.628906 -0.785156 61.046875 -0.785156 56.621094 C -0.785156 52.199219 1.304688 48.613281 3.894531 48.613281 C 6.472656 48.613281 8.574219 52.199219 8.574219 56.621094 Z M 8.574219 56.621094 "/>
<path style=" stroke:none;fill-rule:nonzero;fill:rgb(0%,0%,0%);fill-opacity:1;" d="M 16.808594 29.621094 C 16.808594 34.046875 14.710938 37.628906 12.128906 37.628906 C 9.539062 37.628906 7.449219 34.046875 7.449219 29.621094 C 7.449219 25.199219 9.539062 21.613281 12.128906 21.613281 C 14.710938 21.613281 16.808594 25.199219 16.808594 29.621094 Z M 16.808594 29.621094 "/>
<path style=" stroke:none;fill-rule:nonzero;fill:rgb(0%,0%,0%);fill-opacity:1;" d="M 16.648438 1.660156 C 16.648438 6.082031 14.558594 9.667969 11.96875 9.667969 C 9.386719 9.667969 7.285156 6.082031 7.285156 1.660156 C 7.285156 -2.765625 9.386719 -6.359375 11.96875 -6.359375 C 14.558594 -6.359375 16.648438 -2.765625 16.648438 1.660156 Z M 16.648438 1.660156 "/>
<path style=" stroke:none;fill-rule:nonzero;fill:rgb(0%,0%,0%);fill-opacity:1;" d="M 16.648438 179.660156 C 16.648438 184.082031 14.558594 187.667969 11.96875 187.667969 C 9.386719 187.667969 7.285156 184.082031 7.285156 179.660156 C 7.285156 175.234375 9.386719 171.640625 11.96875 171.640625 C 14.558594 171.640625 16.648438 175.234375 16.648438 179.660156 Z M 16.648438 179.660156 "/>
<path style=" stroke:none;fill-rule:nonzero;fill:rgb(0%,0%,0%);fill-opacity:1;" d="M 18.222656 79.222656 C 18.222656 83.65625 16.121094 87.242188 13.542969 87.242188 C 10.960938 87.242188 8.863281 83.65625 8.863281 79.222656 C 8.863281 74.800781 10.960938 71.214844 13.542969 71.214844 C 16.121094 71.214844 18.222656 74.800781 18.222656 79.222656 Z M 18.222656 79.222656 "/>
<path style=" stroke:none;fill-rule:nonzero;fill:rgb(0%,0%,0%);fill-opacity:1;" d="M 36.367188 66.984375 C 36.367188 71.40625 34.277344 74.992188 31.6875 74.992188 C 29.105469 74.992188 27.007812 71.40625 27.007812 66.984375 C 27.007812 62.5625 29.105469 58.96875 31.6875 58.96875 C 34.277344 58.96875 36.367188 62.5625 36.367188 66.984375 Z M 36.367188 66.984375 "/>
</g>
<pattern id="pattern0" patternUnits="userSpaceOnUse" width="104" height="178" patternTransform="matrix(0.104851,0,0,0.104959,351.78563,352.59628)">
<use xlink:href="#surface6"/>
</pattern>
<clipPath id="clip2">
  <rect width="126" height="107"/>
</clipPath>
<g id="surface9" clip-path="url(#clip2)">
<path style=" stroke:none;fill-rule:nonzero;fill:rgb(0%,0%,0%);fill-opacity:1;" d="M 38.015625 8.667969 C 38.015625 11.328125 35.480469 13.484375 32.34375 13.484375 C 29.214844 13.484375 26.679688 11.328125 26.679688 8.667969 C 26.679688 6.011719 29.214844 3.855469 32.34375 3.855469 C 35.480469 3.855469 38.015625 6.011719 38.015625 8.667969 Z M 38.015625 8.667969 "/>
<path style=" stroke:none;fill-rule:nonzero;fill:rgb(0%,0%,0%);fill-opacity:1;" d="M 44.070312 24.925781 C 44.070312 27.59375 41.535156 29.742188 38.40625 29.742188 C 35.269531 29.742188 32.734375 27.59375 32.734375 24.925781 C 32.734375 22.269531 35.269531 20.113281 38.40625 20.113281 C 41.535156 20.113281 44.070312 22.269531 44.070312 24.925781 Z M 44.070312 24.925781 "/>
<path style=" stroke:none;fill-rule:nonzero;fill:rgb(0%,0%,0%);fill-opacity:1;" d="M 61.339844 25.839844 C 61.339844 28.496094 58.796875 30.652344 55.667969 30.652344 C 52.539062 30.652344 49.996094 28.496094 49.996094 25.839844 C 49.996094 23.179688 52.539062 21.023438 55.667969 21.023438 C 58.796875 21.023438 61.339844 23.179688 61.339844 25.839844 Z M 61.339844 25.839844 "/>
<path style=" stroke:none;fill-rule:nonzero;fill:rgb(0%,0%,0%);fill-opacity:1;" d="M 28.90625 32.410156 C 28.90625 35.066406 26.371094 37.222656 23.234375 37.222656 C 20.105469 37.222656 17.558594 35.066406 17.558594 32.410156 C 17.558594 29.75 20.105469 27.59375 23.234375 27.59375 C 26.371094 27.59375 28.90625 29.75 28.90625 32.410156 Z M 28.90625 32.410156 "/>
<path style=" stroke:none;fill-rule:nonzero;fill:rgb(0%,0%,0%);fill-opacity:1;" d="M 82.277344 14.585938 C 82.277344 17.246094 79.742188 19.402344 76.605469 19.402344 C 73.476562 19.402344 70.941406 17.246094 70.941406 14.585938 C 70.941406 11.929688 73.476562 9.773438 76.605469 9.773438 C 79.742188 9.773438 82.277344 11.929688 82.277344 14.585938 Z M 82.277344 14.585938 "/>
<path style=" stroke:none;fill-rule:nonzero;fill:rgb(0%,0%,0%);fill-opacity:1;" d="M 78.992188 47.222656 C 78.992188 49.878906 76.449219 52.035156 73.320312 52.035156 C 70.191406 52.035156 67.648438 49.878906 67.648438 47.222656 C 67.648438 44.5625 70.191406 42.40625 73.320312 42.40625 C 76.449219 42.40625 78.992188 44.5625 78.992188 47.222656 Z M 78.992188 47.222656 "/>
<path style=" stroke:none;fill-rule:nonzero;fill:rgb(0%,0%,0%);fill-opacity:1;" d="M 59.914062 43.308594 C 59.914062 45.976562 57.378906 48.125 54.242188 48.125 C 51.113281 48.125 48.578125 45.976562 48.578125 43.308594 C 48.578125 40.652344 51.113281 38.496094 54.242188 38.496094 C 57.378906 38.496094 59.914062 40.652344 59.914062 43.308594 Z M 59.914062 43.308594 "/>
<path style=" stroke:none;fill-rule:nonzero;fill:rgb(0%,0%,0%);fill-opacity:1;" d="M 75.488281 32.585938 C 75.488281 35.242188 72.953125 37.398438 69.816406 37.398438 C 66.6875 37.398438 64.144531 35.242188 64.144531 32.585938 C 64.144531 29.917969 66.6875 27.769531 69.816406 27.769531 C 72.953125 27.769531 75.488281 29.917969 75.488281 32.585938 Z M 75.488281 32.585938 "/>
<path style=" stroke:none;fill-rule:nonzero;fill:rgb(0%,0%,0%);fill-opacity:1;" d="M 65.960938 59.144531 C 65.960938 61.800781 63.425781 63.957031 60.289062 63.957031 C 57.160156 63.957031 54.625 61.800781 54.625 59.144531 C 54.625 56.476562 57.160156 54.328125 60.289062 54.328125 C 63.425781 54.328125 65.960938 56.476562 65.960938 59.144531 Z M 65.960938 59.144531 "/>
<path style=" stroke:none;fill-rule:nonzero;fill:rgb(0%,0%,0%);fill-opacity:1;" d="M 39.273438 55.472656 C 39.273438 58.132812 36.738281 60.289062 33.601562 60.289062 C 30.472656 60.289062 27.9375 58.132812 27.9375 55.472656 C 27.9375 52.804688 30.472656 50.65625 33.601562 50.65625 C 36.738281 50.65625 39.273438 52.804688 39.273438 55.472656 Z M 39.273438 55.472656 "/>
<path style=" stroke:none;fill-rule:nonzero;fill:rgb(0%,0%,0%);fill-opacity:1;" d="M 106.027344 15.488281 C 106.027344 18.15625 103.492188 20.304688 100.355469 20.304688 C 97.226562 20.304688 94.691406 18.15625 94.691406 15.488281 C 94.691406 12.832031 97.226562 10.675781 100.355469 10.675781 C 103.492188 10.675781 106.027344 12.832031 106.027344 15.488281 Z M 106.027344 15.488281 "/>
<path style=" stroke:none;fill-rule:nonzero;fill:rgb(0%,0%,0%);fill-opacity:1;" d="M 94.457031 54.027344 C 94.457031 56.683594 91.921875 58.839844 88.792969 58.839844 C 85.65625 58.839844 83.121094 56.683594 83.121094 54.027344 C 83.121094 51.367188 85.65625 49.210938 88.792969 49.210938 C 91.921875 49.210938 94.457031 51.367188 94.457031 54.027344 Z M 94.457031 54.027344 "/>
<path style=" stroke:none;fill-rule:nonzero;fill:rgb(0%,0%,0%);fill-opacity:1;" d="M 60.355469 9.578125 C 60.355469 12.238281 57.820312 14.394531 54.683594 14.394531 C 51.554688 14.394531 49.011719 12.238281 49.011719 9.578125 C 49.011719 6.914062 51.554688 4.765625 54.683594 4.765625 C 57.820312 4.765625 60.355469 6.914062 60.355469 9.578125 Z M 60.355469 9.578125 "/>
<path style=" stroke:none;fill-rule:nonzero;fill:rgb(0%,0%,0%);fill-opacity:1;" d="M 95.441406 3.636719 C 95.441406 6.292969 92.90625 8.453125 89.777344 8.453125 C 86.640625 8.453125 84.105469 6.292969 84.105469 3.636719 C 84.105469 0.976562 86.640625 -1.179688 89.777344 -1.179688 C 92.90625 -1.179688 95.441406 0.976562 95.441406 3.636719 Z M 95.441406 3.636719 "/>
<path style=" stroke:none;fill-rule:nonzero;fill:rgb(0%,0%,0%);fill-opacity:1;" d="M 126.042969 11.226562 C 126.042969 13.886719 123.496094 16.042969 120.367188 16.042969 C 117.230469 16.042969 114.695312 13.886719 114.695312 11.226562 C 114.695312 8.566406 117.230469 6.410156 120.367188 6.410156 C 123.496094 6.410156 126.042969 8.566406 126.042969 11.226562 Z M 126.042969 11.226562 "/>
<path style=" stroke:none;fill-rule:nonzero;fill:rgb(0%,0%,0%);fill-opacity:1;" d="M 93.949219 28.773438 C 93.949219 31.429688 91.40625 33.589844 88.277344 33.589844 C 85.140625 33.589844 82.605469 31.429688 82.605469 28.773438 C 82.605469 26.113281 85.140625 23.957031 88.277344 23.957031 C 91.40625 23.957031 93.949219 26.113281 93.949219 28.773438 Z M 93.949219 28.773438 "/>
<path style=" stroke:none;fill-rule:nonzero;fill:rgb(0%,0%,0%);fill-opacity:1;" d="M 117.925781 28.773438 C 117.925781 31.429688 115.390625 33.589844 112.253906 33.589844 C 109.125 33.589844 106.578125 31.429688 106.578125 28.773438 C 106.578125 26.113281 109.125 23.957031 112.253906 23.957031 C 115.390625 23.957031 117.925781 26.113281 117.925781 28.773438 Z M 117.925781 28.773438 "/>
<path style=" stroke:none;fill-rule:nonzero;fill:rgb(0%,0%,0%);fill-opacity:1;" d="M 123.039062 47.15625 C 123.039062 49.8125 120.503906 51.96875 117.367188 51.96875 C 114.238281 51.96875 111.703125 49.8125 111.703125 47.15625 C 111.703125 44.496094 114.238281 42.339844 117.367188 42.339844 C 120.503906 42.339844 123.039062 44.496094 123.039062 47.15625 Z M 123.039062 47.15625 "/>
<path style=" stroke:none;fill-rule:nonzero;fill:rgb(0%,0%,0%);fill-opacity:1;" d="M 104.203125 41.414062 C 104.203125 44.070312 101.664062 46.226562 98.527344 46.226562 C 95.402344 46.226562 92.863281 44.070312 92.863281 41.414062 C 92.863281 38.746094 95.402344 36.597656 98.527344 36.597656 C 101.664062 36.597656 104.203125 38.746094 104.203125 41.414062 Z M 104.203125 41.414062 "/>
<path style=" stroke:none;fill-rule:nonzero;fill:rgb(0%,0%,0%);fill-opacity:1;" d="M 109.875 63.640625 C 109.875 66.304688 107.332031 68.453125 104.203125 68.453125 C 101.074219 68.453125 98.527344 66.304688 98.527344 63.640625 C 98.527344 60.980469 101.074219 58.824219 104.203125 58.824219 C 107.332031 58.824219 109.875 60.980469 109.875 63.640625 Z M 109.875 63.640625 "/>
<path style=" stroke:none;fill-rule:nonzero;fill:rgb(0%,0%,0%);fill-opacity:1;" d="M 106.128906 79.480469 C 106.128906 82.140625 103.59375 84.296875 100.457031 84.296875 C 97.328125 84.296875 94.792969 82.140625 94.792969 79.480469 C 94.792969 76.824219 97.328125 74.664062 100.457031 74.664062 C 103.59375 74.664062 106.128906 76.824219 106.128906 79.480469 Z M 106.128906 79.480469 "/>
<path style=" stroke:none;fill-rule:nonzero;fill:rgb(0%,0%,0%);fill-opacity:1;" d="M 123.378906 86.367188 C 123.378906 89.027344 120.84375 91.183594 117.707031 91.183594 C 114.578125 91.183594 112.035156 89.027344 112.035156 86.367188 C 112.035156 83.710938 114.578125 81.554688 117.707031 81.554688 C 120.84375 81.554688 123.378906 83.710938 123.378906 86.367188 Z M 123.378906 86.367188 "/>
<path style=" stroke:none;fill-rule:nonzero;fill:rgb(0%,0%,0%);fill-opacity:1;" d="M 109.066406 99.667969 C 109.066406 102.328125 106.53125 104.484375 103.394531 104.484375 C 100.265625 104.484375 97.726562 102.328125 97.726562 99.667969 C 97.726562 97.011719 100.265625 94.855469 103.394531 94.855469 C 106.53125 94.855469 109.066406 97.011719 109.066406 99.667969 Z M 109.066406 99.667969 "/>
<path style=" stroke:none;fill-rule:nonzero;fill:rgb(0%,0%,0%);fill-opacity:1;" d="M 127.660156 101.382812 C 127.660156 104.039062 125.125 106.199219 121.996094 106.199219 C 118.859375 106.199219 116.324219 104.039062 116.324219 101.382812 C 116.324219 98.722656 118.859375 96.566406 121.996094 96.566406 C 125.125 96.566406 127.660156 98.722656 127.660156 101.382812 Z M 127.660156 101.382812 "/>
<path style=" stroke:none;fill-rule:nonzero;fill:rgb(0%,0%,0%);fill-opacity:1;" d="M 127.734375 66.191406 C 127.734375 68.847656 125.199219 71.003906 122.070312 71.003906 C 118.933594 71.003906 116.398438 68.847656 116.398438 66.191406 C 116.398438 63.53125 118.933594 61.375 122.070312 61.375 C 125.199219 61.375 127.734375 63.53125 127.734375 66.191406 Z M 127.734375 66.191406 "/>
<path style=" stroke:none;fill-rule:nonzero;fill:rgb(0%,0%,0%);fill-opacity:1;" d="M 48.242188 67.367188 C 48.242188 70.027344 45.707031 72.183594 42.578125 72.183594 C 39.441406 72.183594 36.90625 70.027344 36.90625 67.367188 C 36.90625 64.710938 39.441406 62.554688 42.578125 62.554688 C 45.707031 62.554688 48.242188 64.710938 48.242188 67.367188 Z M 48.242188 67.367188 "/>
<path style=" stroke:none;fill-rule:nonzero;fill:rgb(0%,0%,0%);fill-opacity:1;" d="M 41.84375 87.78125 C 41.84375 90.441406 39.308594 92.597656 36.171875 92.597656 C 33.042969 92.597656 30.507812 90.441406 30.507812 87.78125 C 30.507812 85.125 33.042969 82.964844 36.171875 82.964844 C 39.308594 82.964844 41.84375 85.125 41.84375 87.78125 Z M 41.84375 87.78125 "/>
<path style=" stroke:none;fill-rule:nonzero;fill:rgb(0%,0%,0%);fill-opacity:1;" d="M 63.5 93.289062 C 63.5 95.949219 60.964844 98.105469 57.835938 98.105469 C 54.699219 98.105469 52.164062 95.949219 52.164062 93.289062 C 52.164062 90.632812 54.699219 88.476562 57.835938 88.476562 C 60.964844 88.476562 63.5 90.632812 63.5 93.289062 Z M 63.5 93.289062 "/>
<path style=" stroke:none;fill-rule:nonzero;fill:rgb(0%,0%,0%);fill-opacity:1;" d="M 45.75 103.480469 C 45.75 106.140625 43.210938 108.296875 40.085938 108.296875 C 36.949219 108.296875 34.410156 106.140625 34.410156 103.480469 C 34.410156 100.824219 36.949219 98.664062 40.085938 98.664062 C 43.210938 98.664062 45.75 100.824219 45.75 103.480469 Z M 45.75 103.480469 "/>
<path style=" stroke:none;fill-rule:nonzero;fill:rgb(0%,0%,0%);fill-opacity:1;" d="M 77.914062 78.269531 C 77.914062 80.925781 75.378906 83.082031 72.25 83.082031 C 69.113281 83.082031 66.578125 80.925781 66.578125 78.269531 C 66.578125 75.609375 69.113281 73.453125 72.25 73.453125 C 75.378906 73.453125 77.914062 75.609375 77.914062 78.269531 Z M 77.914062 78.269531 "/>
<path style=" stroke:none;fill-rule:nonzero;fill:rgb(0%,0%,0%);fill-opacity:1;" d="M 90.179688 69.691406 C 90.179688 72.351562 87.644531 74.507812 84.507812 74.507812 C 81.378906 74.507812 78.839844 72.351562 78.839844 69.691406 C 78.839844 67.035156 81.378906 64.878906 84.507812 64.878906 C 87.644531 64.878906 90.179688 67.035156 90.179688 69.691406 Z M 90.179688 69.691406 "/>
<path style=" stroke:none;fill-rule:nonzero;fill:rgb(0%,0%,0%);fill-opacity:1;" d="M 77.867188 103.472656 C 77.867188 106.128906 75.328125 108.289062 72.203125 108.289062 C 69.066406 108.289062 66.527344 106.128906 66.527344 103.472656 C 66.527344 100.804688 69.066406 98.65625 72.203125 98.65625 C 75.328125 98.65625 77.867188 100.804688 77.867188 103.472656 Z M 77.867188 103.472656 "/>
<path style=" stroke:none;fill-rule:nonzero;fill:rgb(0%,0%,0%);fill-opacity:1;" d="M 88.011719 89.585938 C 88.011719 92.253906 85.472656 94.402344 82.335938 94.402344 C 79.207031 94.402344 76.671875 92.253906 76.671875 89.585938 C 76.671875 86.929688 79.207031 84.773438 82.335938 84.773438 C 85.472656 84.773438 88.011719 86.929688 88.011719 89.585938 Z M 88.011719 89.585938 "/>
<path style=" stroke:none;fill-rule:nonzero;fill:rgb(0%,0%,0%);fill-opacity:1;" d="M 60.730469 76.546875 C 60.730469 79.207031 58.195312 81.363281 55.058594 81.363281 C 51.929688 81.363281 49.394531 79.207031 49.394531 76.546875 C 49.394531 73.886719 51.929688 71.730469 55.058594 71.730469 C 58.195312 71.730469 60.730469 73.886719 60.730469 76.546875 Z M 60.730469 76.546875 "/>
<path style=" stroke:none;fill-rule:nonzero;fill:rgb(0%,0%,0%);fill-opacity:1;" d="M 13.507812 77.574219 C 13.507812 80.234375 10.96875 82.390625 7.832031 82.390625 C 4.703125 82.390625 2.167969 80.234375 2.167969 77.574219 C 2.167969 74.917969 4.703125 72.761719 7.832031 72.761719 C 10.96875 72.761719 13.507812 74.917969 13.507812 77.574219 Z M 13.507812 77.574219 "/>
<path style=" stroke:none;fill-rule:nonzero;fill:rgb(0%,0%,0%);fill-opacity:1;" d="M 16.140625 60.765625 C 16.140625 63.421875 13.605469 65.578125 10.46875 65.578125 C 7.339844 65.578125 4.796875 63.421875 4.796875 60.765625 C 4.796875 58.105469 7.339844 55.949219 10.46875 55.949219 C 13.605469 55.949219 16.140625 58.105469 16.140625 60.765625 Z M 16.140625 60.765625 "/>
<path style=" stroke:none;fill-rule:nonzero;fill:rgb(0%,0%,0%);fill-opacity:1;" d="M 21.507812 91.152344 C 21.507812 93.808594 18.96875 95.964844 15.839844 95.964844 C 12.707031 95.964844 10.167969 93.808594 10.167969 91.152344 C 10.167969 88.492188 12.707031 86.335938 15.839844 86.335938 C 18.96875 86.335938 21.507812 88.492188 21.507812 91.152344 Z M 21.507812 91.152344 "/>
<path style=" stroke:none;fill-rule:nonzero;fill:rgb(0%,0%,0%);fill-opacity:1;" d="M 30.734375 73.585938 C 30.734375 76.246094 28.195312 78.402344 25.058594 78.402344 C 21.929688 78.402344 19.394531 76.246094 19.394531 73.585938 C 19.394531 70.921875 21.929688 68.773438 25.058594 68.773438 C 28.195312 68.773438 30.734375 70.921875 30.734375 73.585938 Z M 30.734375 73.585938 "/>
<path style=" stroke:none;fill-rule:nonzero;fill:rgb(0%,0%,0%);fill-opacity:1;" d="M 10.386719 34.039062 C 10.386719 36.699219 7.839844 38.855469 4.714844 38.855469 C 1.585938 38.855469 -0.960938 36.699219 -0.960938 34.039062 C -0.960938 31.382812 1.585938 29.222656 4.714844 29.222656 C 7.839844 29.222656 10.386719 31.382812 10.386719 34.039062 Z M 10.386719 34.039062 "/>
<path style=" stroke:none;fill-rule:nonzero;fill:rgb(0%,0%,0%);fill-opacity:1;" d="M 20.363281 17.804688 C 20.363281 20.464844 17.828125 22.621094 14.691406 22.621094 C 11.5625 22.621094 9.019531 20.464844 9.019531 17.804688 C 9.019531 15.148438 11.5625 12.992188 14.691406 12.992188 C 17.828125 12.992188 20.363281 15.148438 20.363281 17.804688 Z M 20.363281 17.804688 "/>
<path style=" stroke:none;fill-rule:nonzero;fill:rgb(0%,0%,0%);fill-opacity:1;" d="M 20.171875 0.996094 C 20.171875 3.652344 17.636719 5.808594 14.5 5.808594 C 11.371094 5.808594 8.835938 3.652344 8.835938 0.996094 C 8.835938 -1.664062 11.371094 -3.820312 14.5 -3.820312 C 17.636719 -3.820312 20.171875 -1.664062 20.171875 0.996094 Z M 20.171875 0.996094 "/>
<path style=" stroke:none;fill-rule:nonzero;fill:rgb(0%,0%,0%);fill-opacity:1;" d="M 20.171875 107.996094 C 20.171875 110.652344 17.636719 112.808594 14.5 112.808594 C 11.371094 112.808594 8.835938 110.652344 8.835938 107.996094 C 8.835938 105.335938 11.371094 103.179688 14.5 103.179688 C 17.636719 103.179688 20.171875 105.335938 20.171875 107.996094 Z M 20.171875 107.996094 "/>
<path style=" stroke:none;fill-rule:nonzero;fill:rgb(0%,0%,0%);fill-opacity:1;" d="M 22.074219 47.625 C 22.074219 50.28125 19.539062 52.4375 16.410156 52.4375 C 13.273438 52.4375 10.738281 50.28125 10.738281 47.625 C 10.738281 44.964844 13.273438 42.808594 16.410156 42.808594 C 19.539062 42.808594 22.074219 44.964844 22.074219 47.625 Z M 22.074219 47.625 "/>
<path style=" stroke:none;fill-rule:nonzero;fill:rgb(0%,0%,0%);fill-opacity:1;" d="M 44.0625 40.265625 C 44.0625 42.925781 41.527344 45.082031 38.390625 45.082031 C 35.261719 45.082031 32.726562 42.925781 32.726562 40.265625 C 32.726562 37.609375 35.261719 35.453125 38.390625 35.453125 C 41.527344 35.453125 44.0625 37.609375 44.0625 40.265625 Z M 44.0625 40.265625 "/>
</g>
<pattern id="pattern1" patternUnits="userSpaceOnUse" width="126" height="107" patternTransform="matrix(0.10486,-0.00791401,0.00791262,0.104842,362,488.25)">
<use xlink:href="#surface9"/>
</pattern>
<clipPath id="clip3">
  <rect width="100" height="136"/>
</clipPath>
<g id="surface12" clip-path="url(#clip3)">
<path style=" stroke:none;fill-rule:nonzero;fill:rgb(0%,0%,0%);fill-opacity:1;" d="M 30.167969 11.011719 C 30.167969 14.394531 28.160156 17.136719 25.671875 17.136719 C 23.1875 17.136719 21.167969 14.394531 21.167969 11.011719 C 21.167969 7.640625 23.1875 4.898438 25.671875 4.898438 C 28.160156 4.898438 30.167969 7.640625 30.167969 11.011719 Z M 30.167969 11.011719 "/>
<path style=" stroke:none;fill-rule:nonzero;fill:rgb(0%,0%,0%);fill-opacity:1;" d="M 34.980469 31.691406 C 34.980469 35.070312 32.960938 37.8125 30.476562 37.8125 C 27.992188 37.8125 25.980469 35.070312 25.980469 31.691406 C 25.980469 28.308594 27.992188 25.566406 30.476562 25.566406 C 32.960938 25.566406 34.980469 28.308594 34.980469 31.691406 Z M 34.980469 31.691406 "/>
<path style=" stroke:none;fill-rule:nonzero;fill:rgb(0%,0%,0%);fill-opacity:1;" d="M 48.679688 32.84375 C 48.679688 36.226562 46.667969 38.964844 44.183594 38.964844 C 41.695312 38.964844 39.675781 36.226562 39.675781 32.84375 C 39.675781 29.464844 41.695312 26.722656 44.183594 26.722656 C 46.667969 26.722656 48.679688 29.464844 48.679688 32.84375 Z M 48.679688 32.84375 "/>
<path style=" stroke:none;fill-rule:nonzero;fill:rgb(0%,0%,0%);fill-opacity:1;" d="M 22.9375 41.191406 C 22.9375 44.574219 20.925781 47.316406 18.441406 47.316406 C 15.957031 47.316406 13.9375 44.574219 13.9375 41.191406 C 13.9375 37.8125 15.957031 35.070312 18.441406 35.070312 C 20.925781 35.070312 22.9375 37.8125 22.9375 41.191406 Z M 22.9375 41.191406 "/>
<path style=" stroke:none;fill-rule:nonzero;fill:rgb(0%,0%,0%);fill-opacity:1;" d="M 65.300781 18.535156 C 65.300781 21.917969 63.28125 24.65625 60.796875 24.65625 C 58.3125 24.65625 56.300781 21.917969 56.300781 18.535156 C 56.300781 15.152344 58.3125 12.414062 60.796875 12.414062 C 63.28125 12.414062 65.300781 15.152344 65.300781 18.535156 Z M 65.300781 18.535156 "/>
<path style=" stroke:none;fill-rule:nonzero;fill:rgb(0%,0%,0%);fill-opacity:1;" d="M 62.691406 60.015625 C 62.691406 63.394531 60.671875 66.136719 58.1875 66.136719 C 55.703125 66.136719 53.691406 63.394531 53.691406 60.015625 C 53.691406 56.632812 55.703125 53.902344 58.1875 53.902344 C 60.671875 53.902344 62.691406 56.632812 62.691406 60.015625 Z M 62.691406 60.015625 "/>
<path style=" stroke:none;fill-rule:nonzero;fill:rgb(0%,0%,0%);fill-opacity:1;" d="M 47.546875 55.054688 C 47.546875 58.429688 45.535156 61.167969 43.050781 61.167969 C 40.566406 61.167969 38.546875 58.429688 38.546875 55.054688 C 38.546875 51.675781 40.566406 48.933594 43.050781 48.933594 C 45.535156 48.933594 47.546875 51.675781 47.546875 55.054688 Z M 47.546875 55.054688 "/>
<path style=" stroke:none;fill-rule:nonzero;fill:rgb(0%,0%,0%);fill-opacity:1;" d="M 59.90625 41.414062 C 59.90625 44.792969 57.894531 47.535156 55.410156 47.535156 C 52.925781 47.535156 50.90625 44.792969 50.90625 41.414062 C 50.90625 38.03125 52.925781 35.289062 55.410156 35.289062 C 57.894531 35.289062 59.90625 38.03125 59.90625 41.414062 Z M 59.90625 41.414062 "/>
<path style=" stroke:none;fill-rule:nonzero;fill:rgb(0%,0%,0%);fill-opacity:1;" d="M 52.351562 75.167969 C 52.351562 78.550781 50.332031 81.289062 47.847656 81.289062 C 45.363281 81.289062 43.351562 78.550781 43.351562 75.167969 C 43.351562 71.785156 45.363281 69.046875 47.847656 69.046875 C 50.332031 69.046875 52.351562 71.785156 52.351562 75.167969 Z M 52.351562 75.167969 "/>
<path style=" stroke:none;fill-rule:nonzero;fill:rgb(0%,0%,0%);fill-opacity:1;" d="M 31.167969 70.503906 C 31.167969 73.886719 29.15625 76.625 26.671875 76.625 C 24.183594 76.625 22.164062 73.886719 22.164062 70.503906 C 22.164062 67.121094 24.183594 64.382812 26.671875 64.382812 C 29.15625 64.382812 31.167969 67.121094 31.167969 70.503906 Z M 31.167969 70.503906 "/>
<path style=" stroke:none;fill-rule:nonzero;fill:rgb(0%,0%,0%);fill-opacity:1;" d="M 84.152344 19.691406 C 84.152344 23.070312 82.140625 25.8125 79.644531 25.8125 C 77.160156 25.8125 75.148438 23.070312 75.148438 19.691406 C 75.148438 16.316406 77.160156 13.578125 79.644531 13.578125 C 82.140625 13.578125 84.152344 16.316406 84.152344 19.691406 Z M 84.152344 19.691406 "/>
<path style=" stroke:none;fill-rule:nonzero;fill:rgb(0%,0%,0%);fill-opacity:1;" d="M 74.964844 68.667969 C 74.964844 72.046875 72.957031 74.789062 70.46875 74.789062 C 67.984375 74.789062 65.972656 72.046875 65.972656 68.667969 C 65.972656 65.285156 67.984375 62.542969 70.46875 62.542969 C 72.957031 62.542969 74.964844 65.285156 74.964844 68.667969 Z M 74.964844 68.667969 "/>
<path style=" stroke:none;fill-rule:nonzero;fill:rgb(0%,0%,0%);fill-opacity:1;" d="M 47.898438 12.167969 C 47.898438 15.550781 45.886719 18.289062 43.402344 18.289062 C 40.914062 18.289062 38.894531 15.550781 38.894531 12.167969 C 38.894531 8.796875 40.914062 6.054688 43.402344 6.054688 C 45.886719 6.054688 47.898438 8.796875 47.898438 12.167969 Z M 47.898438 12.167969 "/>
<path style=" stroke:none;fill-rule:nonzero;fill:rgb(0%,0%,0%);fill-opacity:1;" d="M 75.746094 4.621094 C 75.746094 8.003906 73.738281 10.742188 71.25 10.742188 C 68.765625 10.742188 66.746094 8.003906 66.746094 4.621094 C 66.746094 1.246094 68.765625 -1.492188 71.25 -1.492188 C 73.738281 -1.492188 75.746094 1.246094 75.746094 4.621094 Z M 75.746094 4.621094 "/>
<path style=" stroke:none;fill-rule:nonzero;fill:rgb(0%,0%,0%);fill-opacity:1;" d="M 100.035156 14.269531 C 100.035156 17.648438 98.011719 20.390625 95.527344 20.390625 C 93.042969 20.390625 91.03125 17.648438 91.03125 14.269531 C 91.03125 10.886719 93.042969 8.144531 95.527344 8.144531 C 98.011719 8.144531 100.035156 10.886719 100.035156 14.269531 Z M 100.035156 14.269531 "/>
<path style=" stroke:none;fill-rule:nonzero;fill:rgb(0%,0%,0%);fill-opacity:1;" d="M 74.558594 36.570312 C 74.558594 39.953125 72.546875 42.695312 70.0625 42.695312 C 67.578125 42.695312 65.558594 39.953125 65.558594 36.570312 C 65.558594 33.191406 67.578125 30.449219 70.0625 30.449219 C 72.546875 30.449219 74.558594 33.191406 74.558594 36.570312 Z M 74.558594 36.570312 "/>
<path style=" stroke:none;fill-rule:nonzero;fill:rgb(0%,0%,0%);fill-opacity:1;" d="M 93.59375 36.570312 C 93.59375 39.953125 91.574219 42.695312 89.085938 42.695312 C 86.601562 42.695312 84.589844 39.953125 84.589844 36.570312 C 84.589844 33.191406 86.601562 30.449219 89.085938 30.449219 C 91.574219 30.449219 93.59375 33.191406 93.59375 36.570312 Z M 93.59375 36.570312 "/>
<path style=" stroke:none;fill-rule:nonzero;fill:rgb(0%,0%,0%);fill-opacity:1;" d="M 97.648438 59.9375 C 97.648438 63.3125 95.636719 66.050781 93.152344 66.050781 C 90.667969 66.050781 88.648438 63.3125 88.648438 59.9375 C 88.648438 56.558594 90.667969 53.816406 93.152344 53.816406 C 95.636719 53.816406 97.648438 56.558594 97.648438 59.9375 Z M 97.648438 59.9375 "/>
<path style=" stroke:none;fill-rule:nonzero;fill:rgb(0%,0%,0%);fill-opacity:1;" d="M 82.695312 52.636719 C 82.695312 56.007812 80.683594 58.75 78.199219 58.75 C 75.714844 58.75 73.703125 56.007812 73.703125 52.636719 C 73.703125 49.253906 75.714844 46.515625 78.199219 46.515625 C 80.683594 46.515625 82.695312 49.253906 82.695312 52.636719 Z M 82.695312 52.636719 "/>
<path style=" stroke:none;fill-rule:nonzero;fill:rgb(0%,0%,0%);fill-opacity:1;" d="M 87.199219 80.894531 C 87.199219 84.273438 85.179688 87.015625 82.695312 87.015625 C 80.210938 87.015625 78.199219 84.273438 78.199219 80.894531 C 78.199219 77.511719 80.210938 74.769531 82.695312 74.769531 C 85.179688 74.769531 87.199219 77.511719 87.199219 80.894531 Z M 87.199219 80.894531 "/>
<path style=" stroke:none;fill-rule:nonzero;fill:rgb(0%,0%,0%);fill-opacity:1;" d="M 84.234375 101.023438 C 84.234375 104.402344 82.214844 107.144531 79.730469 107.144531 C 77.242188 107.144531 75.234375 104.402344 75.234375 101.023438 C 75.234375 97.640625 77.242188 94.898438 79.730469 94.898438 C 82.214844 94.898438 84.234375 97.640625 84.234375 101.023438 Z M 84.234375 101.023438 "/>
<path style=" stroke:none;fill-rule:nonzero;fill:rgb(0%,0%,0%);fill-opacity:1;" d="M 97.921875 109.785156 C 97.921875 113.15625 95.902344 115.898438 93.417969 115.898438 C 90.933594 115.898438 88.921875 113.15625 88.921875 109.785156 C 88.921875 106.402344 90.933594 103.660156 93.417969 103.660156 C 95.902344 103.660156 97.921875 106.402344 97.921875 109.785156 Z M 97.921875 109.785156 "/>
<path style=" stroke:none;fill-rule:nonzero;fill:rgb(0%,0%,0%);fill-opacity:1;" d="M 86.5625 126.683594 C 86.5625 130.0625 84.542969 132.804688 82.054688 132.804688 C 79.570312 132.804688 77.558594 130.0625 77.558594 126.683594 C 77.558594 123.300781 79.570312 120.558594 82.054688 120.558594 C 84.542969 120.558594 86.5625 123.300781 86.5625 126.683594 Z M 86.5625 126.683594 "/>
<path style=" stroke:none;fill-rule:nonzero;fill:rgb(0%,0%,0%);fill-opacity:1;" d="M 101.320312 128.859375 C 101.320312 132.238281 99.300781 134.980469 96.816406 134.980469 C 94.332031 134.980469 92.320312 132.238281 92.320312 128.859375 C 92.320312 125.476562 94.332031 122.742188 96.816406 122.742188 C 99.300781 122.742188 101.320312 125.476562 101.320312 128.859375 Z M 101.320312 128.859375 "/>
<path style=" stroke:none;fill-rule:nonzero;fill:rgb(0%,0%,0%);fill-opacity:1;" d="M 101.378906 84.132812 C 101.378906 87.511719 99.367188 90.253906 96.882812 90.253906 C 94.398438 90.253906 92.378906 87.511719 92.378906 84.132812 C 92.378906 80.75 94.398438 78.007812 96.882812 78.007812 C 99.367188 78.007812 101.378906 80.75 101.378906 84.132812 Z M 101.378906 84.132812 "/>
<path style=" stroke:none;fill-rule:nonzero;fill:rgb(0%,0%,0%);fill-opacity:1;" d="M 38.289062 85.625 C 38.289062 89.003906 36.277344 91.746094 33.792969 91.746094 C 31.308594 91.746094 29.289062 89.003906 29.289062 85.625 C 29.289062 82.242188 31.308594 79.503906 33.792969 79.503906 C 36.277344 79.503906 38.289062 82.242188 38.289062 85.625 Z M 38.289062 85.625 "/>
<path style=" stroke:none;fill-rule:nonzero;fill:rgb(0%,0%,0%);fill-opacity:1;" d="M 33.210938 111.570312 C 33.210938 114.953125 31.191406 117.691406 28.707031 117.691406 C 26.222656 117.691406 24.210938 114.953125 24.210938 111.570312 C 24.210938 108.199219 26.222656 105.457031 28.707031 105.457031 C 31.191406 105.457031 33.210938 108.199219 33.210938 111.570312 Z M 33.210938 111.570312 "/>
<path style=" stroke:none;fill-rule:nonzero;fill:rgb(0%,0%,0%);fill-opacity:1;" d="M 50.398438 118.578125 C 50.398438 121.960938 48.386719 124.699219 45.902344 124.699219 C 43.417969 124.699219 41.398438 121.960938 41.398438 118.578125 C 41.398438 115.195312 43.417969 112.457031 45.902344 112.457031 C 48.386719 112.457031 50.398438 115.195312 50.398438 118.578125 Z M 50.398438 118.578125 "/>
<path style=" stroke:none;fill-rule:nonzero;fill:rgb(0%,0%,0%);fill-opacity:1;" d="M 36.3125 131.523438 C 36.3125 134.902344 34.292969 137.644531 31.808594 137.644531 C 29.320312 137.644531 27.308594 134.902344 27.308594 131.523438 C 27.308594 128.148438 29.320312 125.410156 31.808594 125.410156 C 34.292969 125.410156 36.3125 128.148438 36.3125 131.523438 Z M 36.3125 131.523438 "/>
<path style=" stroke:none;fill-rule:nonzero;fill:rgb(0%,0%,0%);fill-opacity:1;" d="M 61.84375 99.488281 C 61.84375 102.859375 59.824219 105.601562 57.339844 105.601562 C 54.855469 105.601562 52.84375 102.859375 52.84375 99.488281 C 52.84375 96.105469 54.855469 93.363281 57.339844 93.363281 C 59.824219 93.363281 61.84375 96.105469 61.84375 99.488281 Z M 61.84375 99.488281 "/>
<path style=" stroke:none;fill-rule:nonzero;fill:rgb(0%,0%,0%);fill-opacity:1;" d="M 71.566406 88.574219 C 71.566406 91.957031 69.554688 94.699219 67.070312 94.699219 C 64.585938 94.699219 62.566406 91.957031 62.566406 88.574219 C 62.566406 85.195312 64.585938 82.453125 67.070312 82.453125 C 69.554688 82.453125 71.566406 85.195312 71.566406 88.574219 Z M 71.566406 88.574219 "/>
<path style=" stroke:none;fill-rule:nonzero;fill:rgb(0%,0%,0%);fill-opacity:1;" d="M 61.800781 131.515625 C 61.800781 134.894531 59.78125 137.636719 57.296875 137.636719 C 54.8125 137.636719 52.800781 134.894531 52.800781 131.515625 C 52.800781 128.132812 54.8125 125.390625 57.296875 125.390625 C 59.78125 125.390625 61.800781 128.132812 61.800781 131.515625 Z M 61.800781 131.515625 "/>
<path style=" stroke:none;fill-rule:nonzero;fill:rgb(0%,0%,0%);fill-opacity:1;" d="M 69.847656 113.871094 C 69.847656 117.253906 67.835938 119.996094 65.351562 119.996094 C 62.867188 119.996094 60.847656 117.253906 60.847656 113.871094 C 60.847656 110.492188 62.867188 107.75 65.351562 107.75 C 67.835938 107.75 69.847656 110.492188 69.847656 113.871094 Z M 69.847656 113.871094 "/>
<path style=" stroke:none;fill-rule:nonzero;fill:rgb(0%,0%,0%);fill-opacity:1;" d="M 48.195312 97.292969 C 48.195312 100.675781 46.183594 103.417969 43.699219 103.417969 C 41.214844 103.417969 39.203125 100.675781 39.203125 97.292969 C 39.203125 93.914062 41.214844 91.171875 43.699219 91.171875 C 46.183594 91.171875 48.195312 93.914062 48.195312 97.292969 Z M 48.195312 97.292969 "/>
<path style=" stroke:none;fill-rule:nonzero;fill:rgb(0%,0%,0%);fill-opacity:1;" d="M 10.722656 98.601562 C 10.722656 101.984375 8.703125 104.722656 6.214844 104.722656 C 3.730469 104.722656 1.71875 101.984375 1.71875 98.601562 C 1.71875 95.21875 3.730469 92.480469 6.214844 92.480469 C 8.703125 92.480469 10.722656 95.21875 10.722656 98.601562 Z M 10.722656 98.601562 "/>
<path style=" stroke:none;fill-rule:nonzero;fill:rgb(0%,0%,0%);fill-opacity:1;" d="M 12.808594 77.234375 C 12.808594 80.613281 10.796875 83.355469 8.3125 83.355469 C 5.824219 83.355469 3.804688 80.613281 3.804688 77.234375 C 3.804688 73.851562 5.824219 71.113281 8.3125 71.113281 C 10.796875 71.113281 12.808594 73.851562 12.808594 77.234375 Z M 12.808594 77.234375 "/>
<path style=" stroke:none;fill-rule:nonzero;fill:rgb(0%,0%,0%);fill-opacity:1;" d="M 17.070312 115.855469 C 17.070312 119.234375 15.050781 121.976562 12.566406 121.976562 C 10.082031 121.976562 8.070312 119.234375 8.070312 115.855469 C 8.070312 112.480469 10.082031 109.742188 12.566406 109.742188 C 15.050781 109.742188 17.070312 112.480469 17.070312 115.855469 Z M 17.070312 115.855469 "/>
<path style=" stroke:none;fill-rule:nonzero;fill:rgb(0%,0%,0%);fill-opacity:1;" d="M 24.394531 93.523438 C 24.394531 96.90625 22.375 99.648438 19.886719 99.648438 C 17.402344 99.648438 15.390625 96.90625 15.390625 93.523438 C 15.390625 90.144531 17.402344 87.402344 19.886719 87.402344 C 22.375 87.402344 24.394531 90.144531 24.394531 93.523438 Z M 24.394531 93.523438 "/>
<path style=" stroke:none;fill-rule:nonzero;fill:rgb(0%,0%,0%);fill-opacity:1;" d="M 8.238281 43.257812 C 8.238281 46.640625 6.226562 49.382812 3.738281 49.382812 C 1.253906 49.382812 -0.757812 46.640625 -0.757812 43.257812 C -0.757812 39.878906 1.253906 37.144531 3.738281 37.144531 C 6.226562 37.144531 8.238281 39.878906 8.238281 43.257812 Z M 8.238281 43.257812 "/>
<path style=" stroke:none;fill-rule:nonzero;fill:rgb(0%,0%,0%);fill-opacity:1;" d="M 16.15625 22.632812 C 16.15625 26.015625 14.144531 28.746094 11.660156 28.746094 C 9.175781 28.746094 7.15625 26.015625 7.15625 22.632812 C 7.15625 19.25 9.175781 16.511719 11.660156 16.511719 C 14.144531 16.511719 16.15625 19.25 16.15625 22.632812 Z M 16.15625 22.632812 "/>
<path style=" stroke:none;fill-rule:nonzero;fill:rgb(0%,0%,0%);fill-opacity:1;" d="M 16.007812 1.265625 C 16.007812 4.644531 13.996094 7.386719 11.511719 7.386719 C 9.027344 7.386719 7.007812 4.644531 7.007812 1.265625 C 7.007812 -2.117188 9.027344 -4.855469 11.511719 -4.855469 C 13.996094 -4.855469 16.007812 -2.117188 16.007812 1.265625 Z M 16.007812 1.265625 "/>
<path style=" stroke:none;fill-rule:nonzero;fill:rgb(0%,0%,0%);fill-opacity:1;" d="M 16.007812 137.265625 C 16.007812 140.644531 13.996094 143.386719 11.511719 143.386719 C 9.027344 143.386719 7.007812 140.644531 7.007812 137.265625 C 7.007812 133.882812 9.027344 131.144531 11.511719 131.144531 C 13.996094 131.144531 16.007812 133.882812 16.007812 137.265625 Z M 16.007812 137.265625 "/>
<path style=" stroke:none;fill-rule:nonzero;fill:rgb(0%,0%,0%);fill-opacity:1;" d="M 17.519531 60.539062 C 17.519531 63.910156 15.507812 66.652344 13.023438 66.652344 C 10.539062 66.652344 8.519531 63.910156 8.519531 60.539062 C 8.519531 57.15625 10.539062 54.414062 13.023438 54.414062 C 15.507812 54.414062 17.519531 57.15625 17.519531 60.539062 Z M 17.519531 60.539062 "/>
<path style=" stroke:none;fill-rule:nonzero;fill:rgb(0%,0%,0%);fill-opacity:1;" d="M 34.972656 51.175781 C 34.972656 54.558594 32.953125 57.300781 30.46875 57.300781 C 27.984375 57.300781 25.972656 54.558594 25.972656 51.175781 C 25.972656 47.796875 27.984375 45.054688 30.46875 45.054688 C 32.953125 45.054688 34.972656 47.796875 34.972656 51.175781 Z M 34.972656 51.175781 "/>
</g>
<pattern id="pattern2" patternUnits="userSpaceOnUse" width="100" height="136" patternTransform="matrix(0.105,0,0,0.104779,429.5,440)">
<use xlink:href="#surface12"/>
</pattern>
</defs>
<g id="surface1">
<path style="fill-rule:evenodd;fill:rgb(44.705882%,75.686275%,100%);fill-opacity:1;stroke-width:0.354331;stroke-linecap:butt;stroke-linejoin:miter;stroke:rgb(100%,0%,0%);stroke-opacity:1;stroke-miterlimit:4;" d="M 347.063296 399.999609 C 347.063296 399.999609 349.889891 401.908103 351.356455 402.777346 C 354.40224 404.582446 357.689254 405.965388 360.700751 407.828111 C 364.913501 410.43584 369.751163 412.023936 374.59005 411.99492 C 376.435398 411.983477 378.857903 411.651637 380.019562 413.88911 C 380.772641 415.340301 384.186189 414.394636 384.186189 414.394636 C 385.32948 413.219707 386.910741 416.97948 387.343404 418.561445 C 388.267507 421.944015 388.191587 425.95839 390.247552 428.283728 C 392.790876 431.161181 393.248846 434.429322 395.171747 437.754269 C 396.036256 439.250005 397.949362 443.057184 397.949362 443.057184 C 399.94002 443.42131 400.828203 443.234139 401.485769 442.930905 L 390.752462 412.626725 L 349.209875 397.474431 Z M 347.063296 399.999609 " transform="matrix(9.570093,0,0,9.558423,-2963.963102,-3477.240357)"/>
<path style="fill-rule:evenodd;fill:rgb(40%,67.058824%,100%);fill-opacity:1;stroke-width:0.354331;stroke-linecap:butt;stroke-linejoin:miter;stroke:rgb(100%,0%,0%);stroke-opacity:1;stroke-miterlimit:4;" d="M 315.415222 390.855596 C 315.415222 390.855596 317.458126 401.206824 319.960633 405.755332 C 322.180275 409.788914 325.38239 413.287546 327.789792 417.120063 C 329.533914 419.895756 332.101728 422.06253 334.355657 424.443856 C 336.44346 426.647818 338.811269 429.146024 341.300714 430.882876 C 343.807711 432.633213 345.200804 434.976941 347.487387 437.070154 C 350.386229 439.72529 354.054068 443.054732 357.589251 444.773194 C 363.909397 447.844765 366.537212 452.61232 367.248657 452.759442 C 367.571113 453.014861 371.921417 452.759442 371.921417 452.759442 L 376.781937 460.809443 L 383.726994 465.228402 L 389.029973 468.511665 C 389.424676 471.734444 392.282293 469.317564 393.955392 468.384977 L 395.343996 467.122184 L 318.445496 389.59362 Z M 315.415222 390.855596 " transform="matrix(9.570093,0,0,9.558423,-2963.963102,-3477.240357)"/>
<path style="fill-rule:evenodd;fill:rgb(15.686275%,47.843137%,74.509804%);fill-opacity:1;stroke-width:0.354331;stroke-linecap:butt;stroke-linejoin:round;stroke:rgb(100%,0%,0%);stroke-opacity:1;stroke-miterlimit:4;" d="M 328.676343 377.059681 C 325.091363 379.385019 320.13329 383.430045 318.19651 384.446001 C 313.719265 386.794224 315.04256 387.554352 313.902942 388.991648 C 319.88757 387.106449 325.618313 384.729618 331.770291 381.163147 C 335.974061 377.34902 340.22722 373.583935 343.449743 368.788181 C 344.43099 367.303888 342.694624 367.759147 341.555822 367.904634 C 336.886735 370.501738 336.332845 371.967641 333.980138 373.902698 C 331.492326 375.948505 330.402097 375.939514 328.676343 377.059681 Z M 328.676343 377.059681 " transform="matrix(9.570093,0,0,9.558423,-2963.963102,-3477.240357)"/>
<path style="fill-rule:evenodd;fill:url(#pattern0);stroke-width:1.062992;stroke-linecap:butt;stroke-linejoin:round;stroke:rgb(0%,0%,0%);stroke-opacity:1;stroke-miterlimit:4;" d="M 328.867776 376.951383 C 325.281979 379.277947 320.324723 383.321747 318.387127 384.338111 C 313.910698 386.686335 315.233585 387.446054 314.094375 388.884167 C 320.078186 386.998151 325.80893 384.62132 331.961724 381.054849 C 336.165902 377.24154 340.417837 373.475637 343.641176 368.681109 C 344.622015 367.195998 342.886465 367.650849 341.747255 367.797153 C 337.077352 370.393849 336.524686 371.859752 334.170755 373.794809 C 331.682942 375.840207 330.593938 375.831625 328.867776 376.951383 Z M 328.867776 376.951383 " transform="matrix(9.570093,0,0,9.558423,-2963.963102,-3477.240357)"/>
<path style="fill-rule:evenodd;fill:url(#pattern1);stroke-width:1.062992;stroke-linecap:butt;stroke-linejoin:miter;stroke:rgb(0%,0%,0%);stroke-opacity:1;stroke-miterlimit:4;" d="M 315.419712 390.962259 C 315.419712 390.962259 317.462616 401.313078 319.965939 405.861586 C 322.184765 409.894351 325.386471 413.392984 327.794282 417.226317 C 329.538403 420.002011 332.106217 422.168784 334.360555 424.55011 C 336.44795 426.754481 338.815351 429.252278 341.305204 430.98913 C 343.8122 432.739468 345.20611 435.083196 347.492693 437.176409 C 350.391535 439.831544 354.059374 443.160987 357.593741 444.878631 C 363.914703 447.951019 366.542518 452.718575 367.253963 452.865696 C 367.576011 453.121116 371.925499 452.865696 371.925499 452.865696 L 376.787243 460.915697 L 383.731484 465.334657 L 389.035279 468.617919 C 389.428758 471.841107 392.286783 469.424227 393.959474 468.49164 L 395.348486 467.228438 L 318.450802 389.699057 Z M 315.419712 390.962259 " transform="matrix(9.570093,0,0,9.558423,-2963.963102,-3477.240357)"/>
<path style="fill-rule:evenodd;fill:url(#pattern2);stroke-width:1.062992;stroke-linecap:butt;stroke-linejoin:miter;stroke:rgb(0%,0%,0%);stroke-opacity:1;stroke-miterlimit:4;" d="M 346.613081 399.929727 C 346.613081 399.929727 349.440493 401.838629 350.907057 402.707463 C 353.952841 404.512563 357.240264 405.895914 360.250537 407.758228 C 364.464103 410.365958 369.300949 411.95487 374.139835 411.925446 C 375.985184 411.914821 378.408505 411.581754 379.570164 413.819227 C 380.323243 415.271235 383.73679 414.324753 383.73679 414.324753 C 384.880082 413.149824 386.461343 416.910006 386.893189 418.491563 C 387.818109 421.874132 387.741372 425.888916 389.797338 428.214254 C 392.340661 431.091298 392.799856 434.359848 394.722349 437.684795 C 395.586858 439.180531 397.499964 442.987301 397.499964 442.987301 C 399.489805 443.351836 400.378805 443.164256 401.035555 442.861022 L 390.303064 412.557251 L 348.760477 397.404957 Z M 346.613081 399.929727 " transform="matrix(9.570093,0,0,9.558423,-2963.963102,-3477.240357)"/>
<path style="fill-rule:evenodd;fill:rgb(69.019608%,83.529412%,100%);fill-opacity:1;stroke-width:1.062992;stroke-linecap:butt;stroke-linejoin:miter;stroke:rgb(0%,0%,0%);stroke-opacity:1;stroke-miterlimit:4;" d="M 316.30463 390.585465 C 316.30463 390.585465 318.22345 393.940245 320.471256 396.015476 C 320.172474 399.293426 321.88435 400.248081 322.611306 402.224823 C 327.82367 411.337777 329.004514 412.181683 332.118463 416.797213 C 335.343026 421.579072 338.428812 423.866812 341.699499 427.330299 C 342.967283 428.672783 345.166925 430.132556 346.549814 431.355299 C 348.580473 433.151817 350.991549 435.107308 353.078536 436.83762 C 355.921866 439.193609 357.672927 440.845865 360.581157 443.119711 C 363.266525 445.22028 365.722091 446.510454 368.200515 448.543592 C 369.584221 449.678471 370.30587 451.991549 371.735699 452.584531 C 372.708374 452.987072 375.071694 452.316034 375.071694 452.316034 L 378.169724 456.69903 C 378.169724 456.69903 380.387734 459.227478 381.720009 460.234034 C 383.603318 461.657435 388.077706 462.802531 388.077706 462.802531 L 391.360231 466.606441 C 393.631303 468.708644 393.494565 468.313868 394.212133 468.241533 L 400.77759 461.170299 C 402.292727 459.907506 402.293543 458.813494 400.77759 457.887037 C 400.77759 457.887037 394.564794 452.316034 391.686769 449.301268 C 388.389142 445.847181 385.943372 441.579021 382.342473 438.442063 C 380.001195 436.401977 376.728058 435.184955 374.640663 432.885772 C 372.66674 430.712051 372.318161 427.847268 370.473221 425.562797 C 366.979671 421.23538 357.593741 414.955741 357.593741 414.955741 L 349.00783 405.359738 C 348.427 404.693604 347.869028 403.939198 347.618818 401.950196 L 347.418814 399.572548 C 349.117628 399.117289 350.939303 399.400907 352.974043 400.961621 C 352.974043 400.961621 361.479137 405.470488 366.180469 407.08106 C 368.538482 407.889003 370.880577 408.287457 373.325123 408.77541 C 375.510479 409.211053 379.45261 408.940922 381.140813 410.394973 C 382.830239 411.848616 384.665791 415.208709 384.867837 414.198474 L 386.903802 412.942219 C 390.073262 414.214821 390.460618 416.439217 390.707155 418.327686 C 390.966752 420.320365 390.771646 422.164698 391.301046 424.121414 C 392.372907 428.082662 394.879903 431.596824 396.783621 435.233178 C 397.727316 437.037052 399.010202 440.715091 399.010202 440.715091 C 400.020021 442.665677 401.030249 442.768662 402.040476 442.73556 C 405.51729 442.377156 408.580626 440.987266 411.384364 438.946771 C 412.885623 437.936537 412.469287 436.926302 411.637023 435.916476 C 411.637023 435.916476 408.189597 428.309883 407.091612 424.300003 C 406.123427 420.762139 406.451598 416.930848 405.323817 413.440798 C 404.571554 411.112191 403.186217 409.03696 402.040476 406.874681 C 400.911879 404.743462 400.157576 402.318 398.504885 400.561532 C 395.625227 397.499769 391.36717 394.326439 387.898927 393.742448 C 384.615178 393.190742 381.422043 391.257729 378.049721 389.954477 C 378.049721 389.954477 370.55608 387.298115 366.938037 385.660979 C 364.948196 384.761903 362.870597 383.949465 361.129741 382.630684 C 359.563174 381.444312 358.624785 379.563608 357.088424 378.338004 C 355.791251 377.302023 354.210807 376.681252 352.795672 375.812417 C 350.666644 374.505896 346.482466 371.771887 346.482466 371.771887 L 345.472647 370.256944 C 336.524686 378.313075 327.596726 384.874288 316.30463 390.585465 Z M 316.30463 390.585465 " transform="matrix(9.570093,0,0,9.558423,-2963.963102,-3477.240357)"/>
<path style="fill-rule:evenodd;fill:rgb(63.529412%,80.784314%,93.72549%);fill-opacity:1;stroke-width:1.062992;stroke-linecap:butt;stroke-linejoin:miter;stroke:rgb(0%,0%,0%);stroke-opacity:1;stroke-miterlimit:4;" d="M 314.662144 388.817963 C 313.451095 389.755045 313.824573 390.417501 313.904575 391.217679 C 314.004577 392.216471 315.129093 393.232427 315.798496 393.679513 C 315.798496 393.679513 317.266693 393.298631 318.198551 392.985181 C 320.892491 392.078749 323.353363 390.561353 325.774235 389.07093 C 328.343682 387.492234 332.035604 386.063112 333.098077 383.767198 C 333.53074 383.560819 334.076875 383.638058 334.487088 383.389177 C 336.292844 382.289035 337.288377 380.216256 338.77984 378.716433 C 340.481512 377.006554 342.242777 375.352254 344.082819 373.791948 C 344.976309 373.035498 346.86125 371.645199 346.86125 371.645199 C 346.145723 370.066912 345.429789 369.459627 344.714262 368.867463 C 343.914652 367.894008 343.241575 367.719915 342.441557 368.425689 C 342.441557 368.425689 339.522714 371.342783 338.274931 372.781713 C 337.447565 373.736369 336.912858 374.93827 336.002225 375.812417 C 334.823015 376.944436 333.385431 377.849234 331.898049 378.527219 C 331.36865 378.768743 330.487405 379.942038 330.256787 380.863182 C 328.825326 381.150069 325.097485 383.126811 322.427628 384.525691 C 320.740242 385.409238 318.979386 386.50325 317.314449 387.429707 C 316.442184 387.914391 314.662144 388.817963 314.662144 388.817963 Z M 314.662144 388.817963 " transform="matrix(9.570093,0,0,9.558423,-2963.963102,-3477.240357)"/>
<path style="fill:none;stroke-width:0.708661;stroke-linecap:butt;stroke-linejoin:miter;stroke:rgb(0%,0%,0%);stroke-opacity:1;stroke-miterlimit:4;" d="M 333.213998 383.879583 C 336.561014 388.070912 339.734964 391.664765 343.303617 397.183458 C 344.077513 397.660377 344.732222 397.660377 345.267744 397.183458 C 345.770205 396.296233 346.413077 395.572885 345.536322 393.076723 C 343.35219 388.836353 340.802744 384.700603 336.964288 380.933882 L 334.91118 383.344632 Z M 333.213998 383.879583 " transform="matrix(9.570093,0,0,9.558423,-2963.963102,-3477.240357)"/>
<path style="fill-rule:evenodd;fill:rgb(71.764706%,43.137255%,6.27451%);fill-opacity:1;stroke-width:0.708661;stroke-linecap:butt;stroke-linejoin:miter;stroke:rgb(0%,0%,0%);stroke-opacity:1;stroke-miterlimit:4;" d="M 333.213998 379.326579 C 332.5948 379.669045 332.270711 380.80229 332.678476 381.380151 C 333.074403 381.941256 334.517293 381.844401 334.7324 381.55874 C 334.999753 381.201153 335.222616 380.337631 334.91118 379.862756 C 334.585458 379.365812 333.733602 379.039692 333.213998 379.326579 Z M 333.213998 379.326579 " transform="matrix(9.570093,0,0,9.558423,-2963.963102,-3477.240357)"/>
<path style="fill-rule:evenodd;fill:rgb(69.019608%,83.529412%,100%);fill-opacity:1;stroke-width:0.708661;stroke-linecap:butt;stroke-linejoin:round;stroke:rgb(0%,0%,0%);stroke-opacity:1;stroke-miterlimit:4;" d="M 324.330121 384.371214 C 323.25581 384.254334 322.210888 384.405951 321.607609 384.996072 C 321.607609 384.996072 323.821946 387.396605 324.5089 388.924217 C 324.707272 389.366399 324.107258 389.817572 324.107258 389.817572 C 324.687272 389.967554 326.276288 390.67006 327.098347 389.862117 L 326.919976 388.924217 C 326.70242 388.507781 326.213021 387.95771 325.759133 387.541275 C 324.453797 386.106431 324.999932 385.486886 324.330121 384.371214 Z M 324.330121 384.371214 " transform="matrix(9.570093,0,0,9.558423,-2963.963102,-3477.240357)"/>
<path style="fill-rule:evenodd;fill:rgb(69.019608%,83.529412%,100%);fill-opacity:1;stroke-width:0.708661;stroke-linecap:butt;stroke-linejoin:miter;stroke:rgb(0%,0%,0%);stroke-opacity:1;stroke-miterlimit:4;" d="M 320.356968 396.871233 L 325.446473 393.701581 L 327.63387 397.273365 C 326.007302 399.560288 324.904011 400.335128 323.165196 401.271802 C 321.843533 401.542342 322.00721 401.020061 321.681488 400.70375 C 320.754936 399.270132 321.100659 398.143835 320.356968 396.871233 Z M 320.356968 396.871233 " transform="matrix(9.570093,0,0,9.558423,-2963.963102,-3477.240357)"/>
<path style="fill:none;stroke-width:1.062992;stroke-linecap:butt;stroke-linejoin:miter;stroke:rgb(0%,0%,0%);stroke-opacity:1;stroke-miterlimit:4;" d="M 327.455498 388.344722 C 327.455498 388.344722 328.832265 389.94426 329.062066 390.933244 C 329.506158 392.842146 329.430238 395.067359 328.482053 396.781734 C 327.106511 399.268906 322.246399 401.878679 322.246399 401.878679 " transform="matrix(9.570093,0,0,9.558423,-2963.963102,-3477.240357)"/>
<path style="fill:none;stroke-width:1.062992;stroke-linecap:butt;stroke-linejoin:miter;stroke:rgb(0%,0%,0%);stroke-opacity:1;stroke-miterlimit:4;" d="M 342.365637 375.977929 C 342.365637 375.977929 344.668138 378.871728 346.338789 379.326579 C 348.480063 379.909753 350.913996 379.196622 352.901797 378.21009 C 353.4863 377.919934 354.329993 376.871284 354.329993 376.871284 " transform="matrix(9.570093,0,0,9.558423,-2963.963102,-3477.240357)"/>
<path style="fill:none;stroke-width:1;stroke-linecap:round;stroke-linejoin:miter;stroke:rgb(0%,0%,0%);stroke-opacity:1;stroke-miterlimit:4;" d="M 343.568113 397.530419 C 343.768526 398.208405 347.610247 399.69515 347.767801 401.156966 C 347.858416 401.996376 346.937987 402.586497 347.499632 403.924894 C 348.02046 405.164393 348.777212 407.870613 348.393122 408.255172 " transform="matrix(9.570093,0,0,9.558423,-2963.963102,-3477.240357)"/>
<path style="fill:none;stroke-width:1.062992;stroke-linecap:round;stroke-linejoin:miter;stroke:rgb(0%,0%,0%);stroke-opacity:1;stroke-miterlimit:4;" d="M 356.696578 383.433314 C 356.696578 383.433314 358.510497 383.232248 359.419498 383.254725 C 360.453399 383.28088 362.499568 383.611903 362.499568 383.611903 " transform="matrix(9.570093,0,0,9.558423,-2963.963102,-3477.240357)"/>
<path style="fill:none;stroke-width:1.062992;stroke-linecap:round;stroke-linejoin:miter;stroke:rgb(0%,0%,0%);stroke-opacity:1;stroke-miterlimit:4;" d="M 370.803024 453.076979 C 373.685539 453.129289 373.767174 451.424314 376.963982 452.451713 " transform="matrix(9.570093,0,0,9.558423,-2963.963102,-3477.240357)"/>
<path style="fill:none;stroke-width:1.062992;stroke-linecap:round;stroke-linejoin:miter;stroke:rgb(0%,0%,0%);stroke-opacity:1;stroke-miterlimit:4;" d="M 373.58717 431.569852 C 373.858605 431.841618 375.301495 434.480815 375.714157 435.174738 C 376.333355 436.216032 378.392994 437.630034 378.392994 437.630034 " transform="matrix(9.570093,0,0,9.558423,-2963.963102,-3477.240357)"/>
<path style="fill:none;stroke-width:1.062992;stroke-linecap:round;stroke-linejoin:miter;stroke:rgb(0%,0%,0%);stroke-opacity:1;stroke-miterlimit:4;" d="M 383.304127 413.70153 C 384.449052 413.92916 385.594792 414.029284 386.740941 413.433851 C 388.19077 412.729711 389.919381 412.471022 391.964734 412.719085 " transform="matrix(9.570093,0,0,9.558423,-2963.963102,-3477.240357)"/>
<path style="fill:none;stroke-width:1.062992;stroke-linecap:butt;stroke-linejoin:miter;stroke:rgb(0%,0%,0%);stroke-opacity:1;stroke-miterlimit:4;" d="M 330.256787 380.800247 C 330.837617 382.031981 331.111909 383.494615 332.971952 383.767198 " transform="matrix(9.570093,0,0,9.558423,-2963.963102,-3477.240357)"/>
<path style="fill-rule:evenodd;fill:rgb(71.764706%,43.137255%,6.27451%);fill-opacity:1;stroke-width:0.708661;stroke-linecap:round;stroke-linejoin:round;stroke:rgb(0%,0%,0%);stroke-opacity:1;stroke-miterlimit:4;" d="M 326.080365 394.405721 C 326.080365 393.900195 325.715867 393.490707 325.264836 393.490707 C 324.813397 393.490707 324.448899 393.900195 324.448899 394.405721 C 324.448899 394.911247 324.813397 395.320735 325.264836 395.320735 C 325.715867 395.320735 326.080365 394.911247 326.080365 394.405721 Z M 326.080365 394.405721 " transform="matrix(9.570093,0,0,9.558423,-2963.963102,-3477.240357)"/>
<path style="fill-rule:evenodd;fill:rgb(71.764706%,43.137255%,6.27451%);fill-opacity:1;stroke-width:0.708661;stroke-linecap:round;stroke-linejoin:round;stroke:rgb(0%,0%,0%);stroke-opacity:1;stroke-miterlimit:4;" d="M 325.959546 402.833743 C 325.959546 402.328217 325.593823 401.918728 325.142792 401.918728 C 324.691762 401.918728 324.326855 402.328217 324.326855 402.833743 C 324.326855 403.339269 324.691762 403.749983 325.142792 403.749983 C 325.593823 403.749983 325.959546 403.339269 325.959546 402.833743 Z M 325.959546 402.833743 " transform="matrix(9.570093,0,0,9.558423,-2963.963102,-3477.240357)"/>
<path style="fill-rule:evenodd;fill:rgb(71.764706%,43.137255%,6.27451%);fill-opacity:1;stroke-width:0.708661;stroke-linecap:round;stroke-linejoin:round;stroke:rgb(0%,0%,0%);stroke-opacity:1;stroke-miterlimit:4;" d="M 331.009866 388.881715 C 331.009866 388.376189 330.644143 387.965475 330.193112 387.965475 C 329.742898 387.965475 329.377175 388.376189 329.377175 388.881715 C 329.377175 389.387241 329.742898 389.79673 330.193112 389.79673 C 330.644143 389.79673 331.009866 389.387241 331.009866 388.881715 Z M 331.009866 388.881715 " transform="matrix(9.570093,0,0,9.558423,-2963.963102,-3477.240357)"/>
<path style="fill-rule:evenodd;fill:rgb(71.764706%,43.137255%,6.27451%);fill-opacity:1;stroke-width:0.708661;stroke-linecap:round;stroke-linejoin:round;stroke:rgb(0%,0%,0%);stroke-opacity:1;stroke-miterlimit:4;" d="M 342.689726 378.400939 C 342.689726 377.895413 342.324819 377.485925 341.873789 377.485925 C 341.422758 377.485925 341.057035 377.895413 341.057035 378.400939 C 341.057035 378.906465 341.422758 379.315954 341.873789 379.315954 C 342.324819 379.315954 342.689726 378.906465 342.689726 378.400939 Z M 342.689726 378.400939 " transform="matrix(9.570093,0,0,9.558423,-2963.963102,-3477.240357)"/>
<path style="fill-rule:evenodd;fill:rgb(71.764706%,43.137255%,6.27451%);fill-opacity:1;stroke-width:0.708661;stroke-linecap:round;stroke-linejoin:round;stroke:rgb(0%,0%,0%);stroke-opacity:1;stroke-miterlimit:4;" d="M 355.63288 379.221959 C 355.63288 378.716433 355.267157 378.306128 354.815718 378.306128 C 354.364688 378.306128 354.000189 378.716433 354.000189 379.221959 C 354.000189 379.727485 354.364688 380.136974 354.815718 380.136974 C 355.267157 380.136974 355.63288 379.727485 355.63288 379.221959 Z M 355.63288 379.221959 " transform="matrix(9.570093,0,0,9.558423,-2963.963102,-3477.240357)"/>
<path style="fill-rule:evenodd;fill:rgb(69.019608%,83.529412%,100%);fill-opacity:1;stroke-width:0.708661;stroke-linecap:butt;stroke-linejoin:miter;stroke:rgb(0%,0%,0%);stroke-opacity:1;stroke-miterlimit:4;" d="M 338.437791 372.763732 C 338.860658 372.296212 338.765146 371.742054 339.821088 371.380381 C 340.403959 371.157246 340.940298 370.860142 342.098284 371.55897 C 343.095449 372.113536 344.092207 373.243103 345.089373 374.505079 C 345.790205 375.755612 344.485277 376.291788 343.83914 375.889248 L 340.848051 372.897776 C 340.428041 372.669329 340.040685 372.183828 339.508836 372.853231 L 338.794534 373.344045 C 338.63698 373.36407 338.376565 373.947243 338.437791 372.763732 Z M 338.437791 372.763732 " transform="matrix(9.570093,0,0,9.558423,-2963.963102,-3477.240357)"/>
</g>
</svg>
