<?xml version="1.0" encoding="UTF-8"?>
<svg xmlns="http://www.w3.org/2000/svg" xmlns:xlink="http://www.w3.org/1999/xlink" width="480pt" height="493pt" viewBox="0 0 480 493" version="1.1">
<defs>
<clipPath id="clip1">
  <rect width="48" height="83"/>
</clipPath>
<g id="surface6" clip-path="url(#clip1)">
<path style=" stroke:none;fill-rule:nonzero;fill:rgb(0%,0%,0%);fill-opacity:1;" d="M 14.480469 6.722656 C 14.480469 8.785156 13.515625 10.457031 12.320312 10.457031 C 11.128906 10.457031 10.160156 8.785156 10.160156 6.722656 C 10.160156 4.660156 11.128906 2.988281 12.320312 2.988281 C 13.515625 2.988281 14.480469 4.660156 14.480469 6.722656 Z M 14.480469 6.722656 "/>
<path style=" stroke:none;fill-rule:nonzero;fill:rgb(0%,0%,0%);fill-opacity:1;" d="M 16.789062 19.339844 C 16.789062 21.402344 15.824219 23.074219 14.628906 23.074219 C 13.4375 23.074219 12.46875 21.402344 12.46875 19.339844 C 12.46875 17.277344 13.4375 15.605469 14.628906 15.605469 C 15.824219 15.605469 16.789062 17.277344 16.789062 19.339844 Z M 16.789062 19.339844 "/>
<path style=" stroke:none;fill-rule:nonzero;fill:rgb(0%,0%,0%);fill-opacity:1;" d="M 23.367188 20.042969 C 23.367188 22.105469 22.398438 23.78125 21.207031 23.78125 C 20.011719 23.78125 19.046875 22.105469 19.046875 20.042969 C 19.046875 17.980469 20.011719 16.308594 21.207031 16.308594 C 22.398438 16.308594 23.367188 17.980469 23.367188 20.042969 Z M 23.367188 20.042969 "/>
<path style=" stroke:none;fill-rule:nonzero;fill:rgb(0%,0%,0%);fill-opacity:1;" d="M 11.011719 25.140625 C 11.011719 27.203125 10.042969 28.875 8.851562 28.875 C 7.660156 28.875 6.691406 27.203125 6.691406 25.140625 C 6.691406 23.078125 7.660156 21.40625 8.851562 21.40625 C 10.042969 21.40625 11.011719 23.078125 11.011719 25.140625 Z M 11.011719 25.140625 "/>
<path style=" stroke:none;fill-rule:nonzero;fill:rgb(0%,0%,0%);fill-opacity:1;" d="M 31.34375 11.3125 C 31.34375 13.375 30.375 15.046875 29.183594 15.046875 C 27.992188 15.046875 27.023438 13.375 27.023438 11.3125 C 27.023438 9.25 27.992188 7.578125 29.183594 7.578125 C 30.375 7.578125 31.34375 9.25 31.34375 11.3125 Z M 31.34375 11.3125 "/>
<path style=" stroke:none;fill-rule:nonzero;fill:rgb(0%,0%,0%);fill-opacity:1;" d="M 30.089844 36.628906 C 30.089844 38.691406 29.125 40.363281 27.929688 40.363281 C 26.738281 40.363281 25.769531 38.691406 25.769531 36.628906 C 25.769531 34.566406 26.738281 32.894531 27.929688 32.894531 C 29.125 32.894531 30.089844 34.566406 30.089844 36.628906 Z M 30.089844 36.628906 "/>
<path style=" stroke:none;fill-rule:nonzero;fill:rgb(0%,0%,0%);fill-opacity:1;" d="M 22.824219 33.597656 C 22.824219 35.660156 21.855469 37.332031 20.664062 37.332031 C 19.472656 37.332031 18.503906 35.660156 18.503906 33.597656 C 18.503906 31.535156 19.472656 29.863281 20.664062 29.863281 C 21.855469 29.863281 22.824219 31.535156 22.824219 33.597656 Z M 22.824219 33.597656 "/>
<path style=" stroke:none;fill-rule:nonzero;fill:rgb(0%,0%,0%);fill-opacity:1;" d="M 28.757812 25.273438 C 28.757812 27.335938 27.789062 29.007812 26.597656 29.007812 C 25.402344 29.007812 24.4375 27.335938 24.4375 25.273438 C 24.4375 23.210938 25.402344 21.539062 26.597656 21.539062 C 27.789062 21.539062 28.757812 23.210938 28.757812 25.273438 Z M 28.757812 25.273438 "/>
<path style=" stroke:none;fill-rule:nonzero;fill:rgb(0%,0%,0%);fill-opacity:1;" d="M 25.128906 45.875 C 25.128906 47.9375 24.160156 49.609375 22.96875 49.609375 C 21.773438 49.609375 20.808594 47.9375 20.808594 45.875 C 20.808594 43.8125 21.773438 42.140625 22.96875 42.140625 C 24.160156 42.140625 25.128906 43.8125 25.128906 45.875 Z M 25.128906 45.875 "/>
<path style=" stroke:none;fill-rule:nonzero;fill:rgb(0%,0%,0%);fill-opacity:1;" d="M 14.960938 43.027344 C 14.960938 45.089844 13.996094 46.761719 12.800781 46.761719 C 11.609375 46.761719 10.640625 45.089844 10.640625 43.027344 C 10.640625 40.964844 11.609375 39.292969 12.800781 39.292969 C 13.996094 39.292969 14.960938 40.964844 14.960938 43.027344 Z M 14.960938 43.027344 "/>
<path style=" stroke:none;fill-rule:nonzero;fill:rgb(0%,0%,0%);fill-opacity:1;" d="M 40.390625 12.019531 C 40.390625 14.082031 39.425781 15.753906 38.230469 15.753906 C 37.039062 15.753906 36.070312 14.082031 36.070312 12.019531 C 36.070312 9.957031 37.039062 8.285156 38.230469 8.285156 C 39.425781 8.285156 40.390625 9.957031 40.390625 12.019531 Z M 40.390625 12.019531 "/>
<path style=" stroke:none;fill-rule:nonzero;fill:rgb(0%,0%,0%);fill-opacity:1;" d="M 35.984375 41.90625 C 35.984375 43.96875 35.019531 45.640625 33.824219 45.640625 C 32.632812 45.640625 31.664062 43.96875 31.664062 41.90625 C 31.664062 39.84375 32.632812 38.171875 33.824219 38.171875 C 35.019531 38.171875 35.984375 39.84375 35.984375 41.90625 Z M 35.984375 41.90625 "/>
<path style=" stroke:none;fill-rule:nonzero;fill:rgb(0%,0%,0%);fill-opacity:1;" d="M 22.992188 7.429688 C 22.992188 9.492188 22.023438 11.164062 20.832031 11.164062 C 19.640625 11.164062 18.671875 9.492188 18.671875 7.429688 C 18.671875 5.367188 19.640625 3.695312 20.832031 3.695312 C 22.023438 3.695312 22.992188 5.367188 22.992188 7.429688 Z M 22.992188 7.429688 "/>
<path style=" stroke:none;fill-rule:nonzero;fill:rgb(0%,0%,0%);fill-opacity:1;" d="M 36.359375 2.820312 C 36.359375 4.886719 35.394531 6.558594 34.199219 6.558594 C 33.007812 6.558594 32.039062 4.886719 32.039062 2.820312 C 32.039062 0.757812 33.007812 -0.914062 34.199219 -0.914062 C 35.394531 -0.914062 36.359375 0.757812 36.359375 2.820312 Z M 36.359375 2.820312 "/>
<path style=" stroke:none;fill-rule:nonzero;fill:rgb(0%,0%,0%);fill-opacity:1;" d="M 48.015625 8.707031 C 48.015625 10.769531 47.046875 12.441406 45.855469 12.441406 C 44.660156 12.441406 43.695312 10.769531 43.695312 8.707031 C 43.695312 6.644531 44.660156 4.972656 45.855469 4.972656 C 47.046875 4.972656 48.015625 6.644531 48.015625 8.707031 Z M 48.015625 8.707031 "/>
<path style=" stroke:none;fill-rule:nonzero;fill:rgb(0%,0%,0%);fill-opacity:1;" d="M 35.789062 22.320312 C 35.789062 24.382812 34.820312 26.054688 33.628906 26.054688 C 32.4375 26.054688 31.46875 24.382812 31.46875 22.320312 C 31.46875 20.257812 32.4375 18.582031 33.628906 18.582031 C 34.820312 18.582031 35.789062 20.257812 35.789062 22.320312 Z M 35.789062 22.320312 "/>
<path style=" stroke:none;fill-rule:nonzero;fill:rgb(0%,0%,0%);fill-opacity:1;" d="M 44.921875 22.320312 C 44.921875 24.382812 43.957031 26.054688 42.761719 26.054688 C 41.570312 26.054688 40.601562 24.382812 40.601562 22.320312 C 40.601562 20.257812 41.570312 18.582031 42.761719 18.582031 C 43.957031 18.582031 44.921875 20.257812 44.921875 22.320312 Z M 44.921875 22.320312 "/>
<path style=" stroke:none;fill-rule:nonzero;fill:rgb(0%,0%,0%);fill-opacity:1;" d="M 46.871094 36.578125 C 46.871094 38.640625 45.90625 40.3125 44.710938 40.3125 C 43.519531 40.3125 42.550781 38.640625 42.550781 36.578125 C 42.550781 34.515625 43.519531 32.84375 44.710938 32.84375 C 45.90625 32.84375 46.871094 34.515625 46.871094 36.578125 Z M 46.871094 36.578125 "/>
<path style=" stroke:none;fill-rule:nonzero;fill:rgb(0%,0%,0%);fill-opacity:1;" d="M 39.695312 32.121094 C 39.695312 34.183594 38.730469 35.855469 37.535156 35.855469 C 36.34375 35.855469 35.375 34.183594 35.375 32.121094 C 35.375 30.058594 36.34375 28.386719 37.535156 28.386719 C 38.730469 28.386719 39.695312 30.058594 39.695312 32.121094 Z M 39.695312 32.121094 "/>
<path style=" stroke:none;fill-rule:nonzero;fill:rgb(0%,0%,0%);fill-opacity:1;" d="M 41.855469 49.367188 C 41.855469 51.429688 40.890625 53.101562 39.695312 53.101562 C 38.503906 53.101562 37.535156 51.429688 37.535156 49.367188 C 37.535156 47.304688 38.503906 45.632812 39.695312 45.632812 C 40.890625 45.632812 41.855469 47.304688 41.855469 49.367188 Z M 41.855469 49.367188 "/>
<path style=" stroke:none;fill-rule:nonzero;fill:rgb(0%,0%,0%);fill-opacity:1;" d="M 40.429688 61.652344 C 40.429688 63.714844 39.464844 65.386719 38.269531 65.386719 C 37.078125 65.386719 36.109375 63.714844 36.109375 61.652344 C 36.109375 59.589844 37.078125 57.917969 38.269531 57.917969 C 39.464844 57.917969 40.429688 59.589844 40.429688 61.652344 Z M 40.429688 61.652344 "/>
<path style=" stroke:none;fill-rule:nonzero;fill:rgb(0%,0%,0%);fill-opacity:1;" d="M 47 66.996094 C 47 69.058594 46.035156 70.734375 44.839844 70.734375 C 43.648438 70.734375 42.679688 69.058594 42.679688 66.996094 C 42.679688 64.933594 43.648438 63.261719 44.839844 63.261719 C 46.035156 63.261719 47 64.933594 47 66.996094 Z M 47 66.996094 "/>
<path style=" stroke:none;fill-rule:nonzero;fill:rgb(0%,0%,0%);fill-opacity:1;" d="M 41.546875 77.316406 C 41.546875 79.378906 40.582031 81.050781 39.390625 81.050781 C 38.195312 81.050781 37.230469 79.378906 37.230469 77.316406 C 37.230469 75.25 38.195312 73.578125 39.390625 73.578125 C 40.582031 73.578125 41.546875 75.25 41.546875 77.316406 Z M 41.546875 77.316406 "/>
<path style=" stroke:none;fill-rule:nonzero;fill:rgb(0%,0%,0%);fill-opacity:1;" d="M 48.632812 78.640625 C 48.632812 80.707031 47.667969 82.378906 46.472656 82.378906 C 45.28125 82.378906 44.3125 80.707031 44.3125 78.640625 C 44.3125 76.578125 45.28125 74.90625 46.472656 74.90625 C 47.667969 74.90625 48.632812 76.578125 48.632812 78.640625 Z M 48.632812 78.640625 "/>
<path style=" stroke:none;fill-rule:nonzero;fill:rgb(0%,0%,0%);fill-opacity:1;" d="M 48.664062 51.34375 C 48.664062 53.40625 47.695312 55.078125 46.503906 55.078125 C 45.308594 55.078125 44.34375 53.40625 44.34375 51.34375 C 44.34375 49.28125 45.308594 47.609375 46.503906 47.609375 C 47.695312 47.609375 48.664062 49.28125 48.664062 51.34375 Z M 48.664062 51.34375 "/>
<path style=" stroke:none;fill-rule:nonzero;fill:rgb(0%,0%,0%);fill-opacity:1;" d="M 18.378906 52.257812 C 18.378906 54.320312 17.414062 55.992188 16.21875 55.992188 C 15.027344 55.992188 14.058594 54.320312 14.058594 52.257812 C 14.058594 50.195312 15.027344 48.523438 16.21875 48.523438 C 17.414062 48.523438 18.378906 50.195312 18.378906 52.257812 Z M 18.378906 52.257812 "/>
<path style=" stroke:none;fill-rule:nonzero;fill:rgb(0%,0%,0%);fill-opacity:1;" d="M 15.941406 68.09375 C 15.941406 70.15625 14.972656 71.828125 13.78125 71.828125 C 12.585938 71.828125 11.621094 70.15625 11.621094 68.09375 C 11.621094 66.03125 12.585938 64.359375 13.78125 64.359375 C 14.972656 64.359375 15.941406 66.03125 15.941406 68.09375 Z M 15.941406 68.09375 "/>
<path style=" stroke:none;fill-rule:nonzero;fill:rgb(0%,0%,0%);fill-opacity:1;" d="M 24.191406 72.367188 C 24.191406 74.429688 23.226562 76.101562 22.03125 76.101562 C 20.839844 76.101562 19.871094 74.429688 19.871094 72.367188 C 19.871094 70.304688 20.839844 68.632812 22.03125 68.632812 C 23.226562 68.632812 24.191406 70.304688 24.191406 72.367188 Z M 24.191406 72.367188 "/>
<path style=" stroke:none;fill-rule:nonzero;fill:rgb(0%,0%,0%);fill-opacity:1;" d="M 17.429688 80.269531 C 17.429688 82.332031 16.460938 84.003906 15.269531 84.003906 C 14.074219 84.003906 13.109375 82.332031 13.109375 80.269531 C 13.109375 78.207031 14.074219 76.535156 15.269531 76.535156 C 16.460938 76.535156 17.429688 78.207031 17.429688 80.269531 Z M 17.429688 80.269531 "/>
<path style=" stroke:none;fill-rule:nonzero;fill:rgb(0%,0%,0%);fill-opacity:1;" d="M 29.683594 60.714844 C 29.683594 62.777344 28.714844 64.449219 27.523438 64.449219 C 26.332031 64.449219 25.363281 62.777344 25.363281 60.714844 C 25.363281 58.652344 26.332031 56.980469 27.523438 56.980469 C 28.714844 56.980469 29.683594 58.652344 29.683594 60.714844 Z M 29.683594 60.714844 "/>
<path style=" stroke:none;fill-rule:nonzero;fill:rgb(0%,0%,0%);fill-opacity:1;" d="M 34.355469 54.058594 C 34.355469 56.121094 33.386719 57.792969 32.195312 57.792969 C 31 57.792969 30.035156 56.121094 30.035156 54.058594 C 30.035156 51.996094 31 50.324219 32.195312 50.324219 C 33.386719 50.324219 34.355469 51.996094 34.355469 54.058594 Z M 34.355469 54.058594 "/>
<path style=" stroke:none;fill-rule:nonzero;fill:rgb(0%,0%,0%);fill-opacity:1;" d="M 29.664062 80.261719 C 29.664062 82.324219 28.695312 83.996094 27.503906 83.996094 C 26.3125 83.996094 25.34375 82.324219 25.34375 80.261719 C 25.34375 78.199219 26.3125 76.527344 27.503906 76.527344 C 28.695312 76.527344 29.664062 78.199219 29.664062 80.261719 Z M 29.664062 80.261719 "/>
<path style=" stroke:none;fill-rule:nonzero;fill:rgb(0%,0%,0%);fill-opacity:1;" d="M 33.527344 69.496094 C 33.527344 71.558594 32.5625 73.230469 31.367188 73.230469 C 30.175781 73.230469 29.207031 71.558594 29.207031 69.496094 C 29.207031 67.433594 30.175781 65.761719 31.367188 65.761719 C 32.5625 65.761719 33.527344 67.433594 33.527344 69.496094 Z M 33.527344 69.496094 "/>
<path style=" stroke:none;fill-rule:nonzero;fill:rgb(0%,0%,0%);fill-opacity:1;" d="M 23.136719 59.378906 C 23.136719 61.441406 22.167969 63.113281 20.976562 63.113281 C 19.78125 63.113281 18.816406 61.441406 18.816406 59.378906 C 18.816406 57.316406 19.78125 55.644531 20.976562 55.644531 C 22.167969 55.644531 23.136719 57.316406 23.136719 59.378906 Z M 23.136719 59.378906 "/>
<path style=" stroke:none;fill-rule:nonzero;fill:rgb(0%,0%,0%);fill-opacity:1;" d="M 5.144531 60.175781 C 5.144531 62.238281 4.179688 63.910156 2.984375 63.910156 C 1.792969 63.910156 0.824219 62.238281 0.824219 60.175781 C 0.824219 58.113281 1.792969 56.441406 2.984375 56.441406 C 4.179688 56.441406 5.144531 58.113281 5.144531 60.175781 Z M 5.144531 60.175781 "/>
<path style=" stroke:none;fill-rule:nonzero;fill:rgb(0%,0%,0%);fill-opacity:1;" d="M 6.148438 47.136719 C 6.148438 49.199219 5.183594 50.871094 3.988281 50.871094 C 2.796875 50.871094 1.828125 49.199219 1.828125 47.136719 C 1.828125 45.074219 2.796875 43.402344 3.988281 43.402344 C 5.183594 43.402344 6.148438 45.074219 6.148438 47.136719 Z M 6.148438 47.136719 "/>
<path style=" stroke:none;fill-rule:nonzero;fill:rgb(0%,0%,0%);fill-opacity:1;" d="M 8.195312 70.707031 C 8.195312 72.769531 7.226562 74.441406 6.035156 74.441406 C 4.839844 74.441406 3.875 72.769531 3.875 70.707031 C 3.875 68.644531 4.839844 66.972656 6.035156 66.972656 C 7.226562 66.972656 8.195312 68.644531 8.195312 70.707031 Z M 8.195312 70.707031 "/>
<path style=" stroke:none;fill-rule:nonzero;fill:rgb(0%,0%,0%);fill-opacity:1;" d="M 11.707031 57.078125 C 11.707031 59.140625 10.738281 60.8125 9.546875 60.8125 C 8.355469 60.8125 7.386719 59.140625 7.386719 57.078125 C 7.386719 55.015625 8.355469 53.34375 9.546875 53.34375 C 10.738281 53.34375 11.707031 55.015625 11.707031 57.078125 Z M 11.707031 57.078125 "/>
<path style=" stroke:none;fill-rule:nonzero;fill:rgb(0%,0%,0%);fill-opacity:1;" d="M 3.957031 26.402344 C 3.957031 28.464844 2.988281 30.136719 1.796875 30.136719 C 0.601562 30.136719 -0.363281 28.464844 -0.363281 26.402344 C -0.363281 24.339844 0.601562 22.667969 1.796875 22.667969 C 2.988281 22.667969 3.957031 24.339844 3.957031 26.402344 Z M 3.957031 26.402344 "/>
<path style=" stroke:none;fill-rule:nonzero;fill:rgb(0%,0%,0%);fill-opacity:1;" d="M 7.757812 13.8125 C 7.757812 15.875 6.789062 17.546875 5.597656 17.546875 C 4.402344 17.546875 3.4375 15.875 3.4375 13.8125 C 3.4375 11.75 4.402344 10.078125 5.597656 10.078125 C 6.789062 10.078125 7.757812 11.75 7.757812 13.8125 Z M 7.757812 13.8125 "/>
<path style=" stroke:none;fill-rule:nonzero;fill:rgb(0%,0%,0%);fill-opacity:1;" d="M 7.683594 0.773438 C 7.683594 2.835938 6.71875 4.507812 5.523438 4.507812 C 4.332031 4.507812 3.363281 2.835938 3.363281 0.773438 C 3.363281 -1.289062 4.332031 -2.964844 5.523438 -2.964844 C 6.71875 -2.964844 7.683594 -1.289062 7.683594 0.773438 Z M 7.683594 0.773438 "/>
<path style=" stroke:none;fill-rule:nonzero;fill:rgb(0%,0%,0%);fill-opacity:1;" d="M 7.683594 83.773438 C 7.683594 85.835938 6.71875 87.507812 5.523438 87.507812 C 4.332031 87.507812 3.363281 85.835938 3.363281 83.773438 C 3.363281 81.710938 4.332031 80.035156 5.523438 80.035156 C 6.71875 80.035156 7.683594 81.710938 7.683594 83.773438 Z M 7.683594 83.773438 "/>
<path style=" stroke:none;fill-rule:nonzero;fill:rgb(0%,0%,0%);fill-opacity:1;" d="M 8.410156 36.941406 C 8.410156 39.007812 7.441406 40.679688 6.25 40.679688 C 5.058594 40.679688 4.089844 39.007812 4.089844 36.941406 C 4.089844 34.878906 5.058594 33.207031 6.25 33.207031 C 7.441406 33.207031 8.410156 34.878906 8.410156 36.941406 Z M 8.410156 36.941406 "/>
<path style=" stroke:none;fill-rule:nonzero;fill:rgb(0%,0%,0%);fill-opacity:1;" d="M 16.785156 31.234375 C 16.785156 33.296875 15.820312 34.96875 14.625 34.96875 C 13.433594 34.96875 12.464844 33.296875 12.464844 31.234375 C 12.464844 29.171875 13.433594 27.496094 14.625 27.496094 C 15.820312 27.496094 16.785156 29.171875 16.785156 31.234375 Z M 16.785156 31.234375 "/>
</g>
<pattern id="pattern0" patternUnits="userSpaceOnUse" width="48" height="83" patternTransform="matrix(0.227178,0,0,0.225093,351.78563,352.59628)">
<use xlink:href="#surface6"/>
</pattern>
<clipPath id="clip2">
  <rect width="59" height="50"/>
</clipPath>
<g id="surface9" clip-path="url(#clip2)">
<path style=" stroke:none;fill-rule:nonzero;fill:rgb(0%,0%,0%);fill-opacity:1;" d="M 17.800781 4.050781 C 17.800781 5.292969 16.613281 6.300781 15.144531 6.300781 C 13.679688 6.300781 12.492188 5.292969 12.492188 4.050781 C 12.492188 2.808594 13.679688 1.800781 15.144531 1.800781 C 16.613281 1.800781 17.800781 2.808594 17.800781 4.050781 Z M 17.800781 4.050781 "/>
<path style=" stroke:none;fill-rule:nonzero;fill:rgb(0%,0%,0%);fill-opacity:1;" d="M 20.636719 11.648438 C 20.636719 12.894531 19.449219 13.898438 17.984375 13.898438 C 16.515625 13.898438 15.328125 12.894531 15.328125 11.648438 C 15.328125 10.40625 16.515625 9.398438 17.984375 9.398438 C 19.449219 9.398438 20.636719 10.40625 20.636719 11.648438 Z M 20.636719 11.648438 "/>
<path style=" stroke:none;fill-rule:nonzero;fill:rgb(0%,0%,0%);fill-opacity:1;" d="M 28.722656 12.074219 C 28.722656 13.316406 27.53125 14.324219 26.066406 14.324219 C 24.601562 14.324219 23.410156 13.316406 23.410156 12.074219 C 23.410156 10.832031 24.601562 9.824219 26.066406 9.824219 C 27.53125 9.824219 28.722656 10.832031 28.722656 12.074219 Z M 28.722656 12.074219 "/>
<path style=" stroke:none;fill-rule:nonzero;fill:rgb(0%,0%,0%);fill-opacity:1;" d="M 13.535156 15.144531 C 13.535156 16.386719 12.347656 17.394531 10.878906 17.394531 C 9.414062 17.394531 8.222656 16.386719 8.222656 15.144531 C 8.222656 13.902344 9.414062 12.894531 10.878906 12.894531 C 12.347656 12.894531 13.535156 13.902344 13.535156 15.144531 Z M 13.535156 15.144531 "/>
<path style=" stroke:none;fill-rule:nonzero;fill:rgb(0%,0%,0%);fill-opacity:1;" d="M 38.527344 6.816406 C 38.527344 8.058594 37.339844 9.066406 35.871094 9.066406 C 34.40625 9.066406 33.21875 8.058594 33.21875 6.816406 C 33.21875 5.574219 34.40625 4.566406 35.871094 4.566406 C 37.339844 4.566406 38.527344 5.574219 38.527344 6.816406 Z M 38.527344 6.816406 "/>
<path style=" stroke:none;fill-rule:nonzero;fill:rgb(0%,0%,0%);fill-opacity:1;" d="M 36.988281 22.066406 C 36.988281 23.308594 35.796875 24.316406 34.332031 24.316406 C 32.867188 24.316406 31.675781 23.308594 31.675781 22.066406 C 31.675781 20.824219 32.867188 19.816406 34.332031 19.816406 C 35.796875 19.816406 36.988281 20.824219 36.988281 22.066406 Z M 36.988281 22.066406 "/>
<path style=" stroke:none;fill-rule:nonzero;fill:rgb(0%,0%,0%);fill-opacity:1;" d="M 28.054688 20.238281 C 28.054688 21.484375 26.867188 22.488281 25.398438 22.488281 C 23.933594 22.488281 22.746094 21.484375 22.746094 20.238281 C 22.746094 18.996094 23.933594 17.988281 25.398438 17.988281 C 26.867188 17.988281 28.054688 18.996094 28.054688 20.238281 Z M 28.054688 20.238281 "/>
<path style=" stroke:none;fill-rule:nonzero;fill:rgb(0%,0%,0%);fill-opacity:1;" d="M 35.347656 15.226562 C 35.347656 16.46875 34.160156 17.476562 32.691406 17.476562 C 31.226562 17.476562 30.035156 16.46875 30.035156 15.226562 C 30.035156 13.980469 31.226562 12.976562 32.691406 12.976562 C 34.160156 12.976562 35.347656 13.980469 35.347656 15.226562 Z M 35.347656 15.226562 "/>
<path style=" stroke:none;fill-rule:nonzero;fill:rgb(0%,0%,0%);fill-opacity:1;" d="M 30.886719 27.636719 C 30.886719 28.878906 29.699219 29.886719 28.230469 29.886719 C 26.765625 29.886719 25.578125 28.878906 25.578125 27.636719 C 25.578125 26.390625 26.765625 25.386719 28.230469 25.386719 C 29.699219 25.386719 30.886719 26.390625 30.886719 27.636719 Z M 30.886719 27.636719 "/>
<path style=" stroke:none;fill-rule:nonzero;fill:rgb(0%,0%,0%);fill-opacity:1;" d="M 18.390625 25.921875 C 18.390625 27.164062 17.203125 28.171875 15.734375 28.171875 C 14.269531 28.171875 13.082031 27.164062 13.082031 25.921875 C 13.082031 24.675781 14.269531 23.671875 15.734375 23.671875 C 17.203125 23.671875 18.390625 24.675781 18.390625 25.921875 Z M 18.390625 25.921875 "/>
<path style=" stroke:none;fill-rule:nonzero;fill:rgb(0%,0%,0%);fill-opacity:1;" d="M 49.648438 7.238281 C 49.648438 8.484375 48.460938 9.488281 46.992188 9.488281 C 45.527344 9.488281 44.339844 8.484375 44.339844 7.238281 C 44.339844 5.996094 45.527344 4.988281 46.992188 4.988281 C 48.460938 4.988281 49.648438 5.996094 49.648438 7.238281 Z M 49.648438 7.238281 "/>
<path style=" stroke:none;fill-rule:nonzero;fill:rgb(0%,0%,0%);fill-opacity:1;" d="M 44.230469 25.246094 C 44.230469 26.488281 43.042969 27.496094 41.578125 27.496094 C 40.109375 27.496094 38.921875 26.488281 38.921875 25.246094 C 38.921875 24.003906 40.109375 22.996094 41.578125 22.996094 C 43.042969 22.996094 44.230469 24.003906 44.230469 25.246094 Z M 44.230469 25.246094 "/>
<path style=" stroke:none;fill-rule:nonzero;fill:rgb(0%,0%,0%);fill-opacity:1;" d="M 28.261719 4.476562 C 28.261719 5.71875 27.074219 6.726562 25.605469 6.726562 C 24.140625 6.726562 22.949219 5.71875 22.949219 4.476562 C 22.949219 3.230469 24.140625 2.226562 25.605469 2.226562 C 27.074219 2.226562 28.261719 3.230469 28.261719 4.476562 Z M 28.261719 4.476562 "/>
<path style=" stroke:none;fill-rule:nonzero;fill:rgb(0%,0%,0%);fill-opacity:1;" d="M 44.691406 1.699219 C 44.691406 2.941406 43.503906 3.949219 42.039062 3.949219 C 40.570312 3.949219 39.382812 2.941406 39.382812 1.699219 C 39.382812 0.457031 40.570312 -0.550781 42.039062 -0.550781 C 43.503906 -0.550781 44.691406 0.457031 44.691406 1.699219 Z M 44.691406 1.699219 "/>
<path style=" stroke:none;fill-rule:nonzero;fill:rgb(0%,0%,0%);fill-opacity:1;" d="M 59.019531 5.246094 C 59.019531 6.488281 57.828125 7.496094 56.363281 7.496094 C 54.894531 7.496094 53.707031 6.488281 53.707031 5.246094 C 53.707031 4.003906 54.894531 2.996094 56.363281 2.996094 C 57.828125 2.996094 59.019531 4.003906 59.019531 5.246094 Z M 59.019531 5.246094 "/>
<path style=" stroke:none;fill-rule:nonzero;fill:rgb(0%,0%,0%);fill-opacity:1;" d="M 43.992188 13.445312 C 43.992188 14.6875 42.800781 15.695312 41.335938 15.695312 C 39.867188 15.695312 38.679688 14.6875 38.679688 13.445312 C 38.679688 12.203125 39.867188 11.195312 41.335938 11.195312 C 42.800781 11.195312 43.992188 12.203125 43.992188 13.445312 Z M 43.992188 13.445312 "/>
<path style=" stroke:none;fill-rule:nonzero;fill:rgb(0%,0%,0%);fill-opacity:1;" d="M 55.21875 13.445312 C 55.21875 14.6875 54.03125 15.695312 52.5625 15.695312 C 51.097656 15.695312 49.90625 14.6875 49.90625 13.445312 C 49.90625 12.203125 51.097656 11.195312 52.5625 11.195312 C 54.03125 11.195312 55.21875 12.203125 55.21875 13.445312 Z M 55.21875 13.445312 "/>
<path style=" stroke:none;fill-rule:nonzero;fill:rgb(0%,0%,0%);fill-opacity:1;" d="M 57.613281 22.035156 C 57.613281 23.277344 56.425781 24.285156 54.957031 24.285156 C 53.492188 24.285156 52.304688 23.277344 52.304688 22.035156 C 52.304688 20.792969 53.492188 19.785156 54.957031 19.785156 C 56.425781 19.785156 57.613281 20.792969 57.613281 22.035156 Z M 57.613281 22.035156 "/>
<path style=" stroke:none;fill-rule:nonzero;fill:rgb(0%,0%,0%);fill-opacity:1;" d="M 48.792969 19.351562 C 48.792969 20.59375 47.605469 21.601562 46.136719 21.601562 C 44.671875 21.601562 43.484375 20.59375 43.484375 19.351562 C 43.484375 18.105469 44.671875 17.101562 46.136719 17.101562 C 47.605469 17.101562 48.792969 18.105469 48.792969 19.351562 Z M 48.792969 19.351562 "/>
<path style=" stroke:none;fill-rule:nonzero;fill:rgb(0%,0%,0%);fill-opacity:1;" d="M 51.449219 29.738281 C 51.449219 30.984375 50.257812 31.988281 48.792969 31.988281 C 47.328125 31.988281 46.136719 30.984375 46.136719 29.738281 C 46.136719 28.496094 47.328125 27.488281 48.792969 27.488281 C 50.257812 27.488281 51.449219 28.496094 51.449219 29.738281 Z M 51.449219 29.738281 "/>
<path style=" stroke:none;fill-rule:nonzero;fill:rgb(0%,0%,0%);fill-opacity:1;" d="M 49.695312 37.140625 C 49.695312 38.382812 48.507812 39.390625 47.039062 39.390625 C 45.574219 39.390625 44.386719 38.382812 44.386719 37.140625 C 44.386719 35.898438 45.574219 34.890625 47.039062 34.890625 C 48.507812 34.890625 49.695312 35.898438 49.695312 37.140625 Z M 49.695312 37.140625 "/>
<path style=" stroke:none;fill-rule:nonzero;fill:rgb(0%,0%,0%);fill-opacity:1;" d="M 57.773438 40.359375 C 57.773438 41.601562 56.585938 42.609375 55.117188 42.609375 C 53.652344 42.609375 52.460938 41.601562 52.460938 40.359375 C 52.460938 39.117188 53.652344 38.109375 55.117188 38.109375 C 56.585938 38.109375 57.773438 39.117188 57.773438 40.359375 Z M 57.773438 40.359375 "/>
<path style=" stroke:none;fill-rule:nonzero;fill:rgb(0%,0%,0%);fill-opacity:1;" d="M 51.070312 46.574219 C 51.070312 47.816406 49.882812 48.824219 48.414062 48.824219 C 46.949219 48.824219 45.761719 47.816406 45.761719 46.574219 C 45.761719 45.332031 46.949219 44.324219 48.414062 44.324219 C 49.882812 44.324219 51.070312 45.332031 51.070312 46.574219 Z M 51.070312 46.574219 "/>
<path style=" stroke:none;fill-rule:nonzero;fill:rgb(0%,0%,0%);fill-opacity:1;" d="M 59.777344 47.375 C 59.777344 48.617188 58.589844 49.625 57.125 49.625 C 55.65625 49.625 54.46875 48.617188 54.46875 47.375 C 54.46875 46.132812 55.65625 45.125 57.125 45.125 C 58.589844 45.125 59.777344 46.132812 59.777344 47.375 Z M 59.777344 47.375 "/>
<path style=" stroke:none;fill-rule:nonzero;fill:rgb(0%,0%,0%);fill-opacity:1;" d="M 59.8125 30.929688 C 59.8125 32.171875 58.625 33.179688 57.160156 33.179688 C 55.691406 33.179688 54.503906 32.171875 54.503906 30.929688 C 54.503906 29.6875 55.691406 28.679688 57.160156 28.679688 C 58.625 28.679688 59.8125 29.6875 59.8125 30.929688 Z M 59.8125 30.929688 "/>
<path style=" stroke:none;fill-rule:nonzero;fill:rgb(0%,0%,0%);fill-opacity:1;" d="M 22.589844 31.480469 C 22.589844 32.722656 21.402344 33.730469 19.9375 33.730469 C 18.46875 33.730469 17.28125 32.722656 17.28125 31.480469 C 17.28125 30.238281 18.46875 29.230469 19.9375 29.230469 C 21.402344 29.230469 22.589844 30.238281 22.589844 31.480469 Z M 22.589844 31.480469 "/>
<path style=" stroke:none;fill-rule:nonzero;fill:rgb(0%,0%,0%);fill-opacity:1;" d="M 19.59375 41.019531 C 19.59375 42.261719 18.40625 43.269531 16.9375 43.269531 C 15.472656 43.269531 14.285156 42.261719 14.285156 41.019531 C 14.285156 39.777344 15.472656 38.769531 16.9375 38.769531 C 18.40625 38.769531 19.59375 39.777344 19.59375 41.019531 Z M 19.59375 41.019531 "/>
<path style=" stroke:none;fill-rule:nonzero;fill:rgb(0%,0%,0%);fill-opacity:1;" d="M 29.734375 43.59375 C 29.734375 44.835938 28.546875 45.84375 27.082031 45.84375 C 25.613281 45.84375 24.425781 44.835938 24.425781 43.59375 C 24.425781 42.351562 25.613281 41.34375 27.082031 41.34375 C 28.546875 41.34375 29.734375 42.351562 29.734375 43.59375 Z M 29.734375 43.59375 "/>
<path style=" stroke:none;fill-rule:nonzero;fill:rgb(0%,0%,0%);fill-opacity:1;" d="M 21.421875 48.355469 C 21.421875 49.597656 20.234375 50.605469 18.769531 50.605469 C 17.300781 50.605469 16.113281 49.597656 16.113281 48.355469 C 16.113281 47.113281 17.300781 46.105469 18.769531 46.105469 C 20.234375 46.105469 21.421875 47.113281 21.421875 48.355469 Z M 21.421875 48.355469 "/>
<path style=" stroke:none;fill-rule:nonzero;fill:rgb(0%,0%,0%);fill-opacity:1;" d="M 36.484375 36.574219 C 36.484375 37.816406 35.296875 38.824219 33.832031 38.824219 C 32.363281 38.824219 31.175781 37.816406 31.175781 36.574219 C 31.175781 35.332031 32.363281 34.324219 33.832031 34.324219 C 35.296875 34.324219 36.484375 35.332031 36.484375 36.574219 Z M 36.484375 36.574219 "/>
<path style=" stroke:none;fill-rule:nonzero;fill:rgb(0%,0%,0%);fill-opacity:1;" d="M 42.226562 32.566406 C 42.226562 33.808594 41.039062 34.816406 39.570312 34.816406 C 38.105469 34.816406 36.917969 33.808594 36.917969 32.566406 C 36.917969 31.324219 38.105469 30.316406 39.570312 30.316406 C 41.039062 30.316406 42.226562 31.324219 42.226562 32.566406 Z M 42.226562 32.566406 "/>
<path style=" stroke:none;fill-rule:nonzero;fill:rgb(0%,0%,0%);fill-opacity:1;" d="M 36.460938 48.351562 C 36.460938 49.59375 35.273438 50.601562 33.808594 50.601562 C 32.339844 50.601562 31.152344 49.59375 31.152344 48.351562 C 31.152344 47.105469 32.339844 46.101562 33.808594 46.101562 C 35.273438 46.101562 36.460938 47.105469 36.460938 48.351562 Z M 36.460938 48.351562 "/>
<path style=" stroke:none;fill-rule:nonzero;fill:rgb(0%,0%,0%);fill-opacity:1;" d="M 41.210938 41.863281 C 41.210938 43.109375 40.023438 44.113281 38.554688 44.113281 C 37.089844 44.113281 35.902344 43.109375 35.902344 41.863281 C 35.902344 40.621094 37.089844 39.613281 38.554688 39.613281 C 40.023438 39.613281 41.210938 40.621094 41.210938 41.863281 Z M 41.210938 41.863281 "/>
<path style=" stroke:none;fill-rule:nonzero;fill:rgb(0%,0%,0%);fill-opacity:1;" d="M 28.4375 35.769531 C 28.4375 37.011719 27.25 38.019531 25.78125 38.019531 C 24.316406 38.019531 23.128906 37.011719 23.128906 35.769531 C 23.128906 34.527344 24.316406 33.519531 25.78125 33.519531 C 27.25 33.519531 28.4375 34.527344 28.4375 35.769531 Z M 28.4375 35.769531 "/>
<path style=" stroke:none;fill-rule:nonzero;fill:rgb(0%,0%,0%);fill-opacity:1;" d="M 6.324219 36.25 C 6.324219 37.492188 5.136719 38.5 3.667969 38.5 C 2.203125 38.5 1.015625 37.492188 1.015625 36.25 C 1.015625 35.007812 2.203125 34 3.667969 34 C 5.136719 34 6.324219 35.007812 6.324219 36.25 Z M 6.324219 36.25 "/>
<path style=" stroke:none;fill-rule:nonzero;fill:rgb(0%,0%,0%);fill-opacity:1;" d="M 7.558594 28.394531 C 7.558594 29.636719 6.371094 30.644531 4.902344 30.644531 C 3.4375 30.644531 2.246094 29.636719 2.246094 28.394531 C 2.246094 27.152344 3.4375 26.144531 4.902344 26.144531 C 6.371094 26.144531 7.558594 27.152344 7.558594 28.394531 Z M 7.558594 28.394531 "/>
<path style=" stroke:none;fill-rule:nonzero;fill:rgb(0%,0%,0%);fill-opacity:1;" d="M 10.070312 42.59375 C 10.070312 43.835938 8.882812 44.84375 7.417969 44.84375 C 5.949219 44.84375 4.761719 43.835938 4.761719 42.59375 C 4.761719 41.351562 5.949219 40.34375 7.417969 40.34375 C 8.882812 40.34375 10.070312 41.351562 10.070312 42.59375 Z M 10.070312 42.59375 "/>
<path style=" stroke:none;fill-rule:nonzero;fill:rgb(0%,0%,0%);fill-opacity:1;" d="M 14.390625 34.386719 C 14.390625 35.628906 13.203125 36.636719 11.734375 36.636719 C 10.269531 36.636719 9.082031 35.628906 9.082031 34.386719 C 9.082031 33.140625 10.269531 32.136719 11.734375 32.136719 C 13.203125 32.136719 14.390625 33.140625 14.390625 34.386719 Z M 14.390625 34.386719 "/>
<path style=" stroke:none;fill-rule:nonzero;fill:rgb(0%,0%,0%);fill-opacity:1;" d="M 4.863281 15.90625 C 4.863281 17.148438 3.671875 18.15625 2.207031 18.15625 C 0.742188 18.15625 -0.449219 17.148438 -0.449219 15.90625 C -0.449219 14.664062 0.742188 13.65625 2.207031 13.65625 C 3.671875 13.65625 4.863281 14.664062 4.863281 15.90625 Z M 4.863281 15.90625 "/>
<path style=" stroke:none;fill-rule:nonzero;fill:rgb(0%,0%,0%);fill-opacity:1;" d="M 9.535156 8.320312 C 9.535156 9.5625 8.347656 10.570312 6.878906 10.570312 C 5.414062 10.570312 4.222656 9.5625 4.222656 8.320312 C 4.222656 7.078125 5.414062 6.070312 6.878906 6.070312 C 8.347656 6.070312 9.535156 7.078125 9.535156 8.320312 Z M 9.535156 8.320312 "/>
<path style=" stroke:none;fill-rule:nonzero;fill:rgb(0%,0%,0%);fill-opacity:1;" d="M 9.445312 0.464844 C 9.445312 1.707031 8.257812 2.714844 6.789062 2.714844 C 5.324219 2.714844 4.136719 1.707031 4.136719 0.464844 C 4.136719 -0.777344 5.324219 -1.785156 6.789062 -1.785156 C 8.257812 -1.785156 9.445312 -0.777344 9.445312 0.464844 Z M 9.445312 0.464844 "/>
<path style=" stroke:none;fill-rule:nonzero;fill:rgb(0%,0%,0%);fill-opacity:1;" d="M 9.445312 50.464844 C 9.445312 51.707031 8.257812 52.714844 6.789062 52.714844 C 5.324219 52.714844 4.136719 51.707031 4.136719 50.464844 C 4.136719 49.222656 5.324219 48.214844 6.789062 48.214844 C 8.257812 48.214844 9.445312 49.222656 9.445312 50.464844 Z M 9.445312 50.464844 "/>
<path style=" stroke:none;fill-rule:nonzero;fill:rgb(0%,0%,0%);fill-opacity:1;" d="M 10.335938 22.253906 C 10.335938 23.496094 9.148438 24.503906 7.683594 24.503906 C 6.214844 24.503906 5.027344 23.496094 5.027344 22.253906 C 5.027344 21.011719 6.214844 20.003906 7.683594 20.003906 C 9.148438 20.003906 10.335938 21.011719 10.335938 22.253906 Z M 10.335938 22.253906 "/>
<path style=" stroke:none;fill-rule:nonzero;fill:rgb(0%,0%,0%);fill-opacity:1;" d="M 20.632812 18.816406 C 20.632812 20.058594 19.445312 21.066406 17.976562 21.066406 C 16.511719 21.066406 15.324219 20.058594 15.324219 18.816406 C 15.324219 17.574219 16.511719 16.566406 17.976562 16.566406 C 19.445312 16.566406 20.632812 17.574219 20.632812 18.816406 Z M 20.632812 18.816406 "/>
</g>
<pattern id="pattern1" patternUnits="userSpaceOnUse" width="59" height="50" patternTransform="matrix(0.223939,-0.0169011,0.016933,0.224362,362,488.25)">
<use xlink:href="#surface9"/>
</pattern>
<clipPath id="clip3">
  <rect width="47" height="63"/>
</clipPath>
<g id="surface12" clip-path="url(#clip3)">
<path style=" stroke:none;fill-rule:nonzero;fill:rgb(0%,0%,0%);fill-opacity:1;" d="M 14.179688 5.101562 C 14.179688 6.667969 13.234375 7.9375 12.066406 7.9375 C 10.898438 7.9375 9.949219 6.667969 9.949219 5.101562 C 9.949219 3.539062 10.898438 2.269531 12.066406 2.269531 C 13.234375 2.269531 14.179688 3.539062 14.179688 5.101562 Z M 14.179688 5.101562 "/>
<path style=" stroke:none;fill-rule:nonzero;fill:rgb(0%,0%,0%);fill-opacity:1;" d="M 16.441406 14.679688 C 16.441406 16.246094 15.492188 17.515625 14.324219 17.515625 C 13.15625 17.515625 12.210938 16.246094 12.210938 14.679688 C 12.210938 13.113281 13.15625 11.84375 14.324219 11.84375 C 15.492188 11.84375 16.441406 13.113281 16.441406 14.679688 Z M 16.441406 14.679688 "/>
<path style=" stroke:none;fill-rule:nonzero;fill:rgb(0%,0%,0%);fill-opacity:1;" d="M 22.878906 15.214844 C 22.878906 16.78125 21.933594 18.050781 20.765625 18.050781 C 19.597656 18.050781 18.648438 16.78125 18.648438 15.214844 C 18.648438 13.648438 19.597656 12.378906 20.765625 12.378906 C 21.933594 12.378906 22.878906 13.648438 22.878906 15.214844 Z M 22.878906 15.214844 "/>
<path style=" stroke:none;fill-rule:nonzero;fill:rgb(0%,0%,0%);fill-opacity:1;" d="M 10.78125 19.082031 C 10.78125 20.648438 9.835938 21.917969 8.667969 21.917969 C 7.5 21.917969 6.550781 20.648438 6.550781 19.082031 C 6.550781 17.515625 7.5 16.246094 8.667969 16.246094 C 9.835938 16.246094 10.78125 17.515625 10.78125 19.082031 Z M 10.78125 19.082031 "/>
<path style=" stroke:none;fill-rule:nonzero;fill:rgb(0%,0%,0%);fill-opacity:1;" d="M 30.691406 8.585938 C 30.691406 10.152344 29.742188 11.421875 28.574219 11.421875 C 27.40625 11.421875 26.460938 10.152344 26.460938 8.585938 C 26.460938 7.019531 27.40625 5.75 28.574219 5.75 C 29.742188 5.75 30.691406 7.019531 30.691406 8.585938 Z M 30.691406 8.585938 "/>
<path style=" stroke:none;fill-rule:nonzero;fill:rgb(0%,0%,0%);fill-opacity:1;" d="M 29.464844 27.800781 C 29.464844 29.367188 28.515625 30.636719 27.347656 30.636719 C 26.179688 30.636719 25.234375 29.367188 25.234375 27.800781 C 25.234375 26.234375 26.179688 24.96875 27.347656 24.96875 C 28.515625 24.96875 29.464844 26.234375 29.464844 27.800781 Z M 29.464844 27.800781 "/>
<path style=" stroke:none;fill-rule:nonzero;fill:rgb(0%,0%,0%);fill-opacity:1;" d="M 22.347656 25.503906 C 22.347656 27.066406 21.402344 28.335938 20.234375 28.335938 C 19.066406 28.335938 18.117188 27.066406 18.117188 25.503906 C 18.117188 23.9375 19.066406 22.667969 20.234375 22.667969 C 21.402344 22.667969 22.347656 23.9375 22.347656 25.503906 Z M 22.347656 25.503906 "/>
<path style=" stroke:none;fill-rule:nonzero;fill:rgb(0%,0%,0%);fill-opacity:1;" d="M 28.15625 19.183594 C 28.15625 20.75 27.210938 22.019531 26.042969 22.019531 C 24.875 22.019531 23.925781 20.75 23.925781 19.183594 C 23.925781 17.617188 24.875 16.347656 26.042969 16.347656 C 27.210938 16.347656 28.15625 17.617188 28.15625 19.183594 Z M 28.15625 19.183594 "/>
<path style=" stroke:none;fill-rule:nonzero;fill:rgb(0%,0%,0%);fill-opacity:1;" d="M 24.605469 34.820312 C 24.605469 36.386719 23.65625 37.65625 22.488281 37.65625 C 21.320312 37.65625 20.375 36.386719 20.375 34.820312 C 20.375 33.253906 21.320312 31.984375 22.488281 31.984375 C 23.65625 31.984375 24.605469 33.253906 24.605469 34.820312 Z M 24.605469 34.820312 "/>
<path style=" stroke:none;fill-rule:nonzero;fill:rgb(0%,0%,0%);fill-opacity:1;" d="M 14.648438 32.660156 C 14.648438 34.226562 13.703125 35.496094 12.535156 35.496094 C 11.367188 35.496094 10.417969 34.226562 10.417969 32.660156 C 10.417969 31.09375 11.367188 29.824219 12.535156 29.824219 C 13.703125 29.824219 14.648438 31.09375 14.648438 32.660156 Z M 14.648438 32.660156 "/>
<path style=" stroke:none;fill-rule:nonzero;fill:rgb(0%,0%,0%);fill-opacity:1;" d="M 39.550781 9.121094 C 39.550781 10.6875 38.605469 11.957031 37.433594 11.957031 C 36.265625 11.957031 35.320312 10.6875 35.320312 9.121094 C 35.320312 7.558594 36.265625 6.289062 37.433594 6.289062 C 38.605469 6.289062 39.550781 7.558594 39.550781 9.121094 Z M 39.550781 9.121094 "/>
<path style=" stroke:none;fill-rule:nonzero;fill:rgb(0%,0%,0%);fill-opacity:1;" d="M 35.234375 31.808594 C 35.234375 33.375 34.289062 34.644531 33.121094 34.644531 C 31.953125 34.644531 31.007812 33.375 31.007812 31.808594 C 31.007812 30.242188 31.953125 28.972656 33.121094 28.972656 C 34.289062 28.972656 35.234375 30.242188 35.234375 31.808594 Z M 35.234375 31.808594 "/>
<path style=" stroke:none;fill-rule:nonzero;fill:rgb(0%,0%,0%);fill-opacity:1;" d="M 22.511719 5.636719 C 22.511719 7.203125 21.566406 8.472656 20.398438 8.472656 C 19.230469 8.472656 18.28125 7.203125 18.28125 5.636719 C 18.28125 4.074219 19.230469 2.804688 20.398438 2.804688 C 21.566406 2.804688 22.511719 4.074219 22.511719 5.636719 Z M 22.511719 5.636719 "/>
<path style=" stroke:none;fill-rule:nonzero;fill:rgb(0%,0%,0%);fill-opacity:1;" d="M 35.601562 2.140625 C 35.601562 3.707031 34.65625 4.976562 33.488281 4.976562 C 32.320312 4.976562 31.371094 3.707031 31.371094 2.140625 C 31.371094 0.578125 32.320312 -0.691406 33.488281 -0.691406 C 34.65625 -0.691406 35.601562 0.578125 35.601562 2.140625 Z M 35.601562 2.140625 "/>
<path style=" stroke:none;fill-rule:nonzero;fill:rgb(0%,0%,0%);fill-opacity:1;" d="M 47.015625 6.609375 C 47.015625 8.175781 46.066406 9.445312 44.898438 9.445312 C 43.730469 9.445312 42.785156 8.175781 42.785156 6.609375 C 42.785156 5.042969 43.730469 3.773438 44.898438 3.773438 C 46.066406 3.773438 47.015625 5.042969 47.015625 6.609375 Z M 47.015625 6.609375 "/>
<path style=" stroke:none;fill-rule:nonzero;fill:rgb(0%,0%,0%);fill-opacity:1;" d="M 35.042969 16.941406 C 35.042969 18.507812 34.097656 19.777344 32.929688 19.777344 C 31.761719 19.777344 30.8125 18.507812 30.8125 16.941406 C 30.8125 15.375 31.761719 14.105469 32.929688 14.105469 C 34.097656 14.105469 35.042969 15.375 35.042969 16.941406 Z M 35.042969 16.941406 "/>
<path style=" stroke:none;fill-rule:nonzero;fill:rgb(0%,0%,0%);fill-opacity:1;" d="M 43.988281 16.941406 C 43.988281 18.507812 43.039062 19.777344 41.871094 19.777344 C 40.703125 19.777344 39.757812 18.507812 39.757812 16.941406 C 39.757812 15.375 40.703125 14.105469 41.871094 14.105469 C 43.039062 14.105469 43.988281 15.375 43.988281 16.941406 Z M 43.988281 16.941406 "/>
<path style=" stroke:none;fill-rule:nonzero;fill:rgb(0%,0%,0%);fill-opacity:1;" d="M 45.894531 27.765625 C 45.894531 29.328125 44.949219 30.597656 43.78125 30.597656 C 42.613281 30.597656 41.664062 29.328125 41.664062 27.765625 C 41.664062 26.199219 42.613281 24.929688 43.78125 24.929688 C 44.949219 24.929688 45.894531 26.199219 45.894531 27.765625 Z M 45.894531 27.765625 "/>
<path style=" stroke:none;fill-rule:nonzero;fill:rgb(0%,0%,0%);fill-opacity:1;" d="M 38.867188 24.382812 C 38.867188 25.945312 37.921875 27.214844 36.753906 27.214844 C 35.585938 27.214844 34.640625 25.945312 34.640625 24.382812 C 34.640625 22.816406 35.585938 21.546875 36.753906 21.546875 C 37.921875 21.546875 38.867188 22.816406 38.867188 24.382812 Z M 38.867188 24.382812 "/>
<path style=" stroke:none;fill-rule:nonzero;fill:rgb(0%,0%,0%);fill-opacity:1;" d="M 40.984375 37.472656 C 40.984375 39.039062 40.035156 40.308594 38.867188 40.308594 C 37.699219 40.308594 36.753906 39.039062 36.753906 37.472656 C 36.753906 35.90625 37.699219 34.636719 38.867188 34.636719 C 40.035156 34.636719 40.984375 35.90625 40.984375 37.472656 Z M 40.984375 37.472656 "/>
<path style=" stroke:none;fill-rule:nonzero;fill:rgb(0%,0%,0%);fill-opacity:1;" d="M 39.589844 46.796875 C 39.589844 48.363281 38.640625 49.632812 37.472656 49.632812 C 36.304688 49.632812 35.359375 48.363281 35.359375 46.796875 C 35.359375 45.230469 36.304688 43.960938 37.472656 43.960938 C 38.640625 43.960938 39.589844 45.230469 39.589844 46.796875 Z M 39.589844 46.796875 "/>
<path style=" stroke:none;fill-rule:nonzero;fill:rgb(0%,0%,0%);fill-opacity:1;" d="M 46.023438 50.855469 C 46.023438 52.417969 45.074219 53.6875 43.90625 53.6875 C 42.738281 53.6875 41.792969 52.417969 41.792969 50.855469 C 41.792969 49.289062 42.738281 48.019531 43.90625 48.019531 C 45.074219 48.019531 46.023438 49.289062 46.023438 50.855469 Z M 46.023438 50.855469 "/>
<path style=" stroke:none;fill-rule:nonzero;fill:rgb(0%,0%,0%);fill-opacity:1;" d="M 40.683594 58.683594 C 40.683594 60.25 39.734375 61.519531 38.566406 61.519531 C 37.398438 61.519531 36.453125 60.25 36.453125 58.683594 C 36.453125 57.117188 37.398438 55.847656 38.566406 55.847656 C 39.734375 55.847656 40.683594 57.117188 40.683594 58.683594 Z M 40.683594 58.683594 "/>
<path style=" stroke:none;fill-rule:nonzero;fill:rgb(0%,0%,0%);fill-opacity:1;" d="M 47.621094 59.691406 C 47.621094 61.257812 46.671875 62.527344 45.503906 62.527344 C 44.335938 62.527344 43.390625 61.257812 43.390625 59.691406 C 43.390625 58.125 44.335938 56.859375 45.503906 56.859375 C 46.671875 56.859375 47.621094 58.125 47.621094 59.691406 Z M 47.621094 59.691406 "/>
<path style=" stroke:none;fill-rule:nonzero;fill:rgb(0%,0%,0%);fill-opacity:1;" d="M 47.648438 38.972656 C 47.648438 40.539062 46.703125 41.808594 45.535156 41.808594 C 44.367188 41.808594 43.417969 40.539062 43.417969 38.972656 C 43.417969 37.40625 44.367188 36.136719 45.535156 36.136719 C 46.703125 36.136719 47.648438 37.40625 47.648438 38.972656 Z M 47.648438 38.972656 "/>
<path style=" stroke:none;fill-rule:nonzero;fill:rgb(0%,0%,0%);fill-opacity:1;" d="M 17.996094 39.664062 C 17.996094 41.230469 17.050781 42.5 15.882812 42.5 C 14.714844 42.5 13.765625 41.230469 13.765625 39.664062 C 13.765625 38.097656 14.714844 36.828125 15.882812 36.828125 C 17.050781 36.828125 17.996094 38.097656 17.996094 39.664062 Z M 17.996094 39.664062 "/>
<path style=" stroke:none;fill-rule:nonzero;fill:rgb(0%,0%,0%);fill-opacity:1;" d="M 15.609375 51.683594 C 15.609375 53.25 14.660156 54.519531 13.492188 54.519531 C 12.324219 54.519531 11.378906 53.25 11.378906 51.683594 C 11.378906 50.121094 12.324219 48.851562 13.492188 48.851562 C 14.660156 48.851562 15.609375 50.121094 15.609375 51.683594 Z M 15.609375 51.683594 "/>
<path style=" stroke:none;fill-rule:nonzero;fill:rgb(0%,0%,0%);fill-opacity:1;" d="M 23.6875 54.929688 C 23.6875 56.496094 22.742188 57.765625 21.574219 57.765625 C 20.40625 57.765625 19.457031 56.496094 19.457031 54.929688 C 19.457031 53.363281 20.40625 52.09375 21.574219 52.09375 C 22.742188 52.09375 23.6875 53.363281 23.6875 54.929688 Z M 23.6875 54.929688 "/>
<path style=" stroke:none;fill-rule:nonzero;fill:rgb(0%,0%,0%);fill-opacity:1;" d="M 17.066406 60.925781 C 17.066406 62.492188 16.117188 63.761719 14.949219 63.761719 C 13.78125 63.761719 12.835938 62.492188 12.835938 60.925781 C 12.835938 59.363281 13.78125 58.09375 14.949219 58.09375 C 16.117188 58.09375 17.066406 59.363281 17.066406 60.925781 Z M 17.066406 60.925781 "/>
<path style=" stroke:none;fill-rule:nonzero;fill:rgb(0%,0%,0%);fill-opacity:1;" d="M 29.066406 46.085938 C 29.066406 47.648438 28.117188 48.917969 26.949219 48.917969 C 25.78125 48.917969 24.835938 47.648438 24.835938 46.085938 C 24.835938 44.519531 25.78125 43.25 26.949219 43.25 C 28.117188 43.25 29.066406 44.519531 29.066406 46.085938 Z M 29.066406 46.085938 "/>
<path style=" stroke:none;fill-rule:nonzero;fill:rgb(0%,0%,0%);fill-opacity:1;" d="M 33.636719 41.03125 C 33.636719 42.597656 32.691406 43.867188 31.523438 43.867188 C 30.355469 43.867188 29.40625 42.597656 29.40625 41.03125 C 29.40625 39.464844 30.355469 38.195312 31.523438 38.195312 C 32.691406 38.195312 33.636719 39.464844 33.636719 41.03125 Z M 33.636719 41.03125 "/>
<path style=" stroke:none;fill-rule:nonzero;fill:rgb(0%,0%,0%);fill-opacity:1;" d="M 29.046875 60.921875 C 29.046875 62.488281 28.097656 63.757812 26.929688 63.757812 C 25.761719 63.757812 24.816406 62.488281 24.816406 60.921875 C 24.816406 59.355469 25.761719 58.085938 26.929688 58.085938 C 28.097656 58.085938 29.046875 59.355469 29.046875 60.921875 Z M 29.046875 60.921875 "/>
<path style=" stroke:none;fill-rule:nonzero;fill:rgb(0%,0%,0%);fill-opacity:1;" d="M 32.828125 52.75 C 32.828125 54.316406 31.882812 55.585938 30.714844 55.585938 C 29.546875 55.585938 28.597656 54.316406 28.597656 52.75 C 28.597656 51.183594 29.546875 49.914062 30.714844 49.914062 C 31.882812 49.914062 32.828125 51.183594 32.828125 52.75 Z M 32.828125 52.75 "/>
<path style=" stroke:none;fill-rule:nonzero;fill:rgb(0%,0%,0%);fill-opacity:1;" d="M 22.652344 45.070312 C 22.652344 46.636719 21.707031 47.90625 20.539062 47.90625 C 19.371094 47.90625 18.425781 46.636719 18.425781 45.070312 C 18.425781 43.503906 19.371094 42.234375 20.539062 42.234375 C 21.707031 42.234375 22.652344 43.503906 22.652344 45.070312 Z M 22.652344 45.070312 "/>
<path style=" stroke:none;fill-rule:nonzero;fill:rgb(0%,0%,0%);fill-opacity:1;" d="M 5.039062 45.675781 C 5.039062 47.242188 4.089844 48.511719 2.921875 48.511719 C 1.753906 48.511719 0.808594 47.242188 0.808594 45.675781 C 0.808594 44.109375 1.753906 42.839844 2.921875 42.839844 C 4.089844 42.839844 5.039062 44.109375 5.039062 45.675781 Z M 5.039062 45.675781 "/>
<path style=" stroke:none;fill-rule:nonzero;fill:rgb(0%,0%,0%);fill-opacity:1;" d="M 6.019531 35.777344 C 6.019531 37.34375 5.074219 38.613281 3.90625 38.613281 C 2.738281 38.613281 1.789062 37.34375 1.789062 35.777344 C 1.789062 34.210938 2.738281 32.941406 3.90625 32.941406 C 5.074219 32.941406 6.019531 34.210938 6.019531 35.777344 Z M 6.019531 35.777344 "/>
<path style=" stroke:none;fill-rule:nonzero;fill:rgb(0%,0%,0%);fill-opacity:1;" d="M 8.023438 53.667969 C 8.023438 55.234375 7.074219 56.503906 5.90625 56.503906 C 4.738281 56.503906 3.792969 55.234375 3.792969 53.667969 C 3.792969 52.105469 4.738281 50.835938 5.90625 50.835938 C 7.074219 50.835938 8.023438 52.105469 8.023438 53.667969 Z M 8.023438 53.667969 "/>
<path style=" stroke:none;fill-rule:nonzero;fill:rgb(0%,0%,0%);fill-opacity:1;" d="M 11.464844 43.324219 C 11.464844 44.890625 10.515625 46.160156 9.347656 46.160156 C 8.179688 46.160156 7.234375 44.890625 7.234375 43.324219 C 7.234375 41.757812 8.179688 40.488281 9.347656 40.488281 C 10.515625 40.488281 11.464844 41.757812 11.464844 43.324219 Z M 11.464844 43.324219 "/>
<path style=" stroke:none;fill-rule:nonzero;fill:rgb(0%,0%,0%);fill-opacity:1;" d="M 3.871094 20.039062 C 3.871094 21.605469 2.925781 22.875 1.757812 22.875 C 0.589844 22.875 -0.355469 21.605469 -0.355469 20.039062 C -0.355469 18.472656 0.589844 17.207031 1.757812 17.207031 C 2.925781 17.207031 3.871094 18.472656 3.871094 20.039062 Z M 3.871094 20.039062 "/>
<path style=" stroke:none;fill-rule:nonzero;fill:rgb(0%,0%,0%);fill-opacity:1;" d="M 7.59375 10.484375 C 7.59375 12.050781 6.648438 13.316406 5.480469 13.316406 C 4.3125 13.316406 3.363281 12.050781 3.363281 10.484375 C 3.363281 8.917969 4.3125 7.648438 5.480469 7.648438 C 6.648438 7.648438 7.59375 8.917969 7.59375 10.484375 Z M 7.59375 10.484375 "/>
<path style=" stroke:none;fill-rule:nonzero;fill:rgb(0%,0%,0%);fill-opacity:1;" d="M 7.523438 0.585938 C 7.523438 2.152344 6.578125 3.421875 5.410156 3.421875 C 4.242188 3.421875 3.292969 2.152344 3.292969 0.585938 C 3.292969 -0.980469 4.242188 -2.25 5.410156 -2.25 C 6.578125 -2.25 7.523438 -0.980469 7.523438 0.585938 Z M 7.523438 0.585938 "/>
<path style=" stroke:none;fill-rule:nonzero;fill:rgb(0%,0%,0%);fill-opacity:1;" d="M 7.523438 63.585938 C 7.523438 65.152344 6.578125 66.421875 5.410156 66.421875 C 4.242188 66.421875 3.292969 65.152344 3.292969 63.585938 C 3.292969 62.019531 4.242188 60.75 5.410156 60.75 C 6.578125 60.75 7.523438 62.019531 7.523438 63.585938 Z M 7.523438 63.585938 "/>
<path style=" stroke:none;fill-rule:nonzero;fill:rgb(0%,0%,0%);fill-opacity:1;" d="M 8.234375 28.042969 C 8.234375 29.605469 7.289062 30.875 6.121094 30.875 C 4.953125 30.875 4.003906 29.605469 4.003906 28.042969 C 4.003906 26.476562 4.953125 25.207031 6.121094 25.207031 C 7.289062 25.207031 8.234375 26.476562 8.234375 28.042969 Z M 8.234375 28.042969 "/>
<path style=" stroke:none;fill-rule:nonzero;fill:rgb(0%,0%,0%);fill-opacity:1;" d="M 16.4375 23.707031 C 16.4375 25.273438 15.488281 26.542969 14.320312 26.542969 C 13.152344 26.542969 12.207031 25.273438 12.207031 23.707031 C 12.207031 22.140625 13.152344 20.871094 14.320312 20.871094 C 15.488281 20.871094 16.4375 22.140625 16.4375 23.707031 Z M 16.4375 23.707031 "/>
</g>
<pattern id="pattern2" patternUnits="userSpaceOnUse" width="47" height="63" patternTransform="matrix(0.223404,0,0,0.22619,429.5,440)">
<use xlink:href="#surface12"/>
</pattern>
</defs>
<g id="surface1">
<path style="fill-rule:evenodd;fill:rgb(44.705882%,75.686275%,100%);fill-opacity:1;stroke-width:0.354331;stroke-linecap:butt;stroke-linejoin:miter;stroke:rgb(100%,0%,0%);stroke-opacity:1;stroke-miterlimit:4;" d="M 347.063464 399.999492 C 347.063464 399.999492 349.889978 401.908245 351.356352 402.777208 C 354.402299 404.582244 357.689449 405.965437 360.700565 407.827997 C 364.913342 410.435756 369.751331 412.023769 374.59019 411.995007 C 376.435347 411.983676 378.857825 411.651606 380.01943 413.888944 C 380.772644 415.34012 384.186056 414.394459 384.186056 414.394459 C 385.329374 413.219573 386.910689 416.979556 387.343461 418.561469 C 388.267346 421.944059 388.191589 425.958543 390.247473 428.283911 C 392.790987 431.160987 393.249011 434.429401 395.171668 437.754468 C 396.03634 439.250094 397.949418 443.057143 397.949418 443.057143 C 399.939994 443.421462 400.828178 443.234073 401.485608 442.930764 L 390.752519 412.6269 L 349.209908 397.474533 Z M 347.063464 399.999492 " transform="matrix(4.485981,0,0,4.481818,-1389.357704,-1630.432015)"/>
<path style="fill-rule:evenodd;fill:rgb(40%,67.058824%,100%);fill-opacity:1;stroke-width:0.354331;stroke-linecap:butt;stroke-linejoin:miter;stroke:rgb(100%,0%,0%);stroke-opacity:1;stroke-miterlimit:4;" d="M 315.415393 390.855776 C 315.415393 390.855776 317.458215 401.206626 319.960803 405.755387 C 322.180391 409.789045 325.382206 413.287556 327.78988 417.11988 C 329.534029 419.895853 332.101924 422.062594 334.355473 424.443742 C 336.443575 426.647961 338.811194 429.145901 341.30072 430.882954 C 343.807662 432.633081 345.200891 434.976752 347.487528 437.07028 C 350.386316 439.725103 354.053992 443.054528 357.589311 444.773278 C 363.909346 447.844716 366.537325 452.612242 367.248743 452.759539 C 367.570927 453.014911 371.921285 452.759539 371.921285 452.759539 L 376.781913 460.809425 L 383.727161 465.228321 L 389.030139 468.511551 C 389.424597 471.734643 392.282459 469.31776 393.955204 468.385173 L 395.34408 467.122258 L 318.445666 389.593733 Z M 315.415393 390.855776 " transform="matrix(4.485981,0,0,4.481818,-1389.357704,-1630.432015)"/>
<path style="fill-rule:evenodd;fill:rgb(15.686275%,47.843137%,74.509804%);fill-opacity:1;stroke-width:0.354331;stroke-linecap:butt;stroke-linejoin:round;stroke:rgb(100%,0%,0%);stroke-opacity:1;stroke-miterlimit:4;" d="M 328.676322 377.059583 C 325.091369 379.38495 320.133215 383.42994 318.196626 384.446198 C 313.719136 386.794227 315.042704 387.554242 313.902868 388.991473 C 319.887658 387.106252 325.618184 384.729461 331.770162 381.162968 C 335.974231 377.348946 340.227063 373.583733 343.449776 368.788316 C 344.431132 367.30402 342.69482 367.758984 341.555855 367.904537 C 336.886796 370.501837 336.332987 371.967829 333.980171 373.90273 C 331.492387 375.948322 330.402185 375.939606 328.676322 377.059583 Z M 328.676322 377.059583 " transform="matrix(4.485981,0,0,4.481818,-1389.357704,-1630.432015)"/>
<path style="fill-rule:evenodd;fill:url(#pattern0);stroke-width:1.062992;stroke-linecap:butt;stroke-linejoin:round;stroke:rgb(0%,0%,0%);stroke-opacity:1;stroke-miterlimit:4;" d="M 328.867891 376.951507 C 325.282068 379.277746 320.324784 383.321864 318.387325 384.338123 C 313.910705 386.686152 315.233402 387.446167 314.094437 388.884269 C 320.078357 386.998176 325.808882 384.621385 331.961731 381.054892 C 336.1658 377.241742 340.417761 373.475658 343.641345 368.681112 C 344.62183 367.195945 342.886389 367.650908 341.747424 367.797333 C 337.077494 370.393761 336.524556 371.859754 334.17087 373.794655 C 331.683085 375.840246 330.593754 375.831531 328.867891 376.951507 Z M 328.867891 376.951507 " transform="matrix(4.485981,0,0,4.481818,-1389.357704,-1630.432015)"/>
<path style="fill-rule:evenodd;fill:url(#pattern1);stroke-width:1.062992;stroke-linecap:butt;stroke-linejoin:miter;stroke:rgb(0%,0%,0%);stroke-opacity:1;stroke-miterlimit:4;" d="M 315.419747 390.962109 C 315.419747 390.962109 317.462569 401.312958 319.966027 405.861719 C 322.184745 409.894506 325.38656 413.393017 327.794234 417.226213 C 329.538383 420.002186 332.106278 422.168926 334.360697 424.550075 C 336.447929 426.754293 338.815547 429.252233 341.305074 430.989286 C 343.812016 432.739413 345.206116 435.083084 347.492753 437.176612 C 350.39154 439.831436 354.059216 443.16086 357.593664 444.878739 C 363.914571 447.951048 366.54255 452.718575 367.253967 452.865871 C 367.576151 453.121243 371.925639 452.865871 371.925639 452.865871 L 376.787138 460.915757 L 383.731515 465.334653 L 389.035364 468.617884 C 389.428951 471.840976 392.286812 469.424093 393.959558 468.491505 L 395.348434 467.22859 L 318.450891 389.699194 Z M 315.419747 390.962109 " transform="matrix(4.485981,0,0,4.481818,-1389.357704,-1630.432015)"/>
<path style="fill-rule:evenodd;fill:url(#pattern2);stroke-width:1.062992;stroke-linecap:butt;stroke-linejoin:miter;stroke:rgb(0%,0%,0%);stroke-opacity:1;stroke-miterlimit:4;" d="M 346.613277 399.929765 C 346.613277 399.929765 349.440661 401.838519 350.907035 402.707482 C 353.952982 404.512518 357.240133 405.895711 360.250378 407.758271 C 364.464026 410.366029 369.301143 411.954914 374.140002 411.925281 C 375.98516 411.914822 378.408508 411.581879 379.570113 413.819218 C 380.323328 415.271265 383.736739 414.324732 383.736739 414.324732 C 384.880058 413.149847 386.461373 416.90983 386.893274 418.491743 C 387.81803 421.874333 387.741402 425.888817 389.797286 428.214185 C 392.3408 431.091261 392.799695 434.359675 394.722351 437.684742 C 395.587024 439.180368 397.500102 442.987416 397.500102 442.987416 C 399.489807 443.351736 400.378862 443.164347 401.035421 442.861038 L 390.303202 412.557174 L 348.760591 397.404807 Z M 346.613277 399.929765 " transform="matrix(4.485981,0,0,4.481818,-1389.357704,-1630.432015)"/>
<path style="fill-rule:evenodd;fill:rgb(69.019608%,83.529412%,100%);fill-opacity:1;stroke-width:1.062992;stroke-linecap:butt;stroke-linejoin:miter;stroke:rgb(0%,0%,0%);stroke-opacity:1;stroke-miterlimit:4;" d="M 316.304447 390.585587 C 316.304447 390.585587 318.22362 393.940288 320.471073 396.015513 C 320.1724 399.293514 321.88433 400.247891 322.611421 402.224628 C 327.82384 411.337838 329.004602 412.181524 332.118469 416.797397 C 335.342924 421.578869 338.428926 423.866758 341.699532 427.330406 C 342.96737 428.672634 345.166931 430.132526 346.549711 431.355349 C 348.580342 433.151669 350.9915 435.107488 353.078731 436.837569 C 355.921789 439.193441 357.672904 440.845952 360.58127 443.119896 C 363.266719 445.220397 365.722286 446.510331 368.200492 448.54372 C 369.584143 449.678514 370.30601 451.991679 371.735811 452.584352 C 372.708459 452.98702 375.071724 452.315906 375.071724 452.315906 L 378.169918 456.699067 C 378.169918 456.699067 380.387765 459.227512 381.72004 460.234184 C 383.603512 461.657469 388.077519 462.802721 388.077519 462.802721 L 391.360315 466.606284 C 393.631279 468.708528 393.494568 468.313703 394.212081 468.241362 L 400.777673 461.170258 C 402.29281 459.907342 402.293681 458.813513 400.777673 457.887027 C 400.777673 457.887027 394.564742 452.315906 391.686853 449.301121 C 388.389254 445.847061 385.943266 441.578948 382.342639 438.442142 C 380.001143 436.40178 376.727926 435.185058 374.640694 432.885838 C 372.666663 430.712125 372.318355 427.847251 370.473197 425.562847 C 366.979675 421.235467 357.593664 414.955754 357.593664 414.955754 L 349.00789 405.359691 C 348.427087 404.693806 347.868925 403.93902 347.619014 401.950081 L 347.418738 399.572419 C 349.117606 399.117456 350.939254 399.400718 352.974239 400.961713 C 352.974239 400.961713 361.479032 405.470381 366.18031 407.081055 C 368.53835 407.889007 370.880717 408.287318 373.324963 408.775401 C 375.510592 409.21119 379.452559 408.941001 381.140979 410.394791 C 382.830269 411.848582 384.665849 415.208512 384.867867 414.198354 L 386.903723 412.942411 C 390.07332 414.214914 390.460811 416.439178 390.707239 418.327886 C 390.966728 420.320311 390.771676 422.164568 391.301103 424.121259 C 392.373018 428.082577 394.87996 431.596776 396.78346 435.232995 C 397.727372 437.03716 399.010014 440.715215 399.010014 440.715215 C 400.020105 442.665805 401.030196 442.768651 402.040287 442.735531 C 405.517265 442.377313 408.580628 440.987147 411.384501 438.946785 C 412.885706 437.936627 412.469479 436.926469 411.637024 435.916312 C 411.637024 435.916312 408.189653 428.310058 407.091614 424.299932 C 406.12332 420.762201 406.451599 416.930748 405.323954 413.440953 C 404.571611 411.112099 403.186218 409.036874 402.040287 406.874492 C 400.911772 404.743486 400.157686 402.317887 398.504968 400.561659 C 395.625338 397.499808 391.367281 394.326396 387.899011 393.74244 C 384.615344 393.190731 381.422237 391.257573 378.049752 389.954566 C 378.049752 389.954566 370.55592 387.297999 366.937878 385.661177 C 364.948173 384.761709 362.87052 383.9494 361.129854 382.630703 C 359.563342 381.444487 358.624654 379.563624 357.088619 378.338186 C 355.791174 377.301881 354.21073 376.681318 352.795731 375.812356 C 350.666703 374.505862 346.482662 371.771725 346.482662 371.771725 L 345.472571 370.256924 C 336.524556 378.312911 327.59657 384.874143 316.304447 390.585587 Z M 316.304447 390.585587 " transform="matrix(4.485981,0,0,4.481818,-1389.357704,-1630.432015)"/>
<path style="fill-rule:evenodd;fill:rgb(63.529412%,80.784314%,93.72549%);fill-opacity:1;stroke-width:1.062992;stroke-linecap:butt;stroke-linejoin:miter;stroke:rgb(0%,0%,0%);stroke-opacity:1;stroke-miterlimit:4;" d="M 314.662178 388.818029 C 313.45094 389.754974 313.824499 390.417373 313.90461 391.217481 C 314.004748 392.216308 315.12891 393.232567 315.798531 393.679686 C 315.798531 393.679686 317.266646 393.298807 318.198368 392.985039 C 320.892525 392.078599 323.353316 390.561183 325.774052 389.070786 C 328.343689 387.49236 332.035746 386.062974 333.098083 383.76724 C 333.530855 383.560676 334.076827 383.638247 334.486959 383.388975 C 336.292932 382.289045 337.28822 380.216435 338.779846 378.716451 C 340.481327 377.006416 342.242891 375.352163 344.082825 373.79204 C 344.976233 373.035511 346.861446 371.645346 346.861446 371.645346 C 346.145674 370.06692 345.429903 369.459431 344.714131 368.86763 C 343.914766 367.894078 343.241662 367.719763 342.441426 368.42574 C 342.441426 368.42574 339.522611 371.342909 338.2748 372.781882 C 337.447571 373.736259 336.912919 374.938164 336.002095 375.812356 C 334.823075 376.944535 333.385437 377.849232 331.898165 378.527318 C 331.368738 378.768745 330.48752 379.941888 330.256766 380.863145 C 328.825224 381.149894 325.097465 383.126631 322.427689 384.525512 C 320.74014 385.409291 318.979447 386.50312 317.314538 387.429607 C 316.442028 387.914204 314.662178 388.818029 314.662178 388.818029 Z M 314.662178 388.818029 " transform="matrix(4.485981,0,0,4.481818,-1389.357704,-1630.432015)"/>
<path style="fill:none;stroke-width:0.708661;stroke-linecap:butt;stroke-linejoin:miter;stroke:rgb(0%,0%,0%);stroke-opacity:1;stroke-miterlimit:4;" d="M 333.213895 383.879673 C 336.561129 388.071088 339.735079 391.6646 343.303487 397.183426 C 344.0776 397.660179 344.732418 397.660179 345.26794 397.183426 C 345.770373 396.296161 346.413 395.572752 345.536137 393.076555 C 343.35225 388.836332 340.802641 384.700699 336.964294 380.933743 L 334.911023 383.344525 Z M 333.213895 383.879673 " transform="matrix(4.485981,0,0,4.481818,-1389.357704,-1630.432015)"/>
<path style="fill-rule:evenodd;fill:rgb(71.764706%,43.137255%,6.27451%);fill-opacity:1;stroke-width:0.708661;stroke-linecap:butt;stroke-linejoin:miter;stroke:rgb(0%,0%,0%);stroke-opacity:1;stroke-miterlimit:4;" d="M 333.213895 379.326555 C 332.594779 379.669084 332.270853 380.802135 332.678373 381.37999 C 333.074572 381.941286 334.517435 381.844541 334.732515 381.558664 C 334.999841 381.201317 335.222758 380.337584 334.911023 379.862575 C 334.585355 379.365776 333.733744 379.039806 333.213895 379.326555 Z M 333.213895 379.326555 " transform="matrix(4.485981,0,0,4.481818,-1389.357704,-1630.432015)"/>
<path style="fill-rule:evenodd;fill:rgb(69.019608%,83.529412%,100%);fill-opacity:1;stroke-width:0.708661;stroke-linecap:butt;stroke-linejoin:round;stroke:rgb(0%,0%,0%);stroke-opacity:1;stroke-miterlimit:4;" d="M 324.330318 384.371243 C 323.25579 384.254452 322.210868 384.406106 321.607426 384.996164 C 321.607426 384.996164 323.821789 387.396487 324.508825 388.924362 C 324.707361 389.366251 324.107401 389.817728 324.107401 389.817728 C 324.687333 389.967639 326.276485 390.67013 327.09849 389.862178 L 326.919983 388.924362 C 326.702291 388.507748 326.212919 387.957783 325.759249 387.541169 C 324.453967 386.106553 324.999939 385.486862 324.330318 384.371243 Z M 324.330318 384.371243 " transform="matrix(4.485981,0,0,4.481818,-1389.357704,-1630.432015)"/>
<path style="fill-rule:evenodd;fill:rgb(69.019608%,83.529412%,100%);fill-opacity:1;stroke-width:0.708661;stroke-linecap:butt;stroke-linejoin:miter;stroke:rgb(0%,0%,0%);stroke-opacity:1;stroke-miterlimit:4;" d="M 320.357002 396.871401 L 325.446643 393.701476 L 327.634013 397.273198 C 326.007418 399.560217 324.904154 400.335049 323.16523 401.271994 C 321.843404 401.542183 322.007108 401.020108 321.681441 400.703726 C 320.754944 399.269982 321.100639 398.143904 320.357002 396.871401 Z M 320.357002 396.871401 " transform="matrix(4.485981,0,0,4.481818,-1389.357704,-1630.432015)"/>
<path style="fill:none;stroke-width:1.062992;stroke-linecap:butt;stroke-linejoin:miter;stroke:rgb(0%,0%,0%);stroke-opacity:1;stroke-miterlimit:4;" d="M 327.455505 388.344763 C 327.455505 388.344763 328.83219 389.944107 329.062072 390.933347 C 329.506164 392.842101 329.430407 395.067237 328.482141 396.781629 C 327.106327 399.26911 322.24657 401.878612 322.24657 401.878612 " transform="matrix(4.485981,0,0,4.481818,-1389.357704,-1630.432015)"/>
<path style="fill:none;stroke-width:1.062992;stroke-linecap:butt;stroke-linejoin:miter;stroke:rgb(0%,0%,0%);stroke-opacity:1;stroke-miterlimit:4;" d="M 342.36567 375.977956 C 342.36567 375.977956 344.667981 378.871591 346.338985 379.326555 C 348.480204 379.90964 350.914001 379.19669 352.901965 378.210064 C 353.486251 377.919829 354.330025 376.871322 354.330025 376.871322 " transform="matrix(4.485981,0,0,4.481818,-1389.357704,-1630.432015)"/>
<path style="fill:none;stroke-width:1;stroke-linecap:round;stroke-linejoin:miter;stroke:rgb(0%,0%,0%);stroke-opacity:1;stroke-miterlimit:4;" d="M 343.5682 397.530314 C 343.768477 398.208401 347.610307 399.695311 347.767916 401.156946 C 347.858476 401.996275 346.938074 402.586332 347.499719 403.925075 C 348.020438 405.164457 348.777136 407.870704 348.393127 408.25507 " transform="matrix(4.485981,0,0,4.481818,-1389.357704,-1630.432015)"/>
<path style="fill:none;stroke-width:1.062992;stroke-linecap:round;stroke-linejoin:miter;stroke:rgb(0%,0%,0%);stroke-opacity:1;stroke-miterlimit:4;" d="M 356.696773 383.433426 C 356.696773 383.433426 358.510583 383.232092 359.419665 383.254753 C 360.453267 383.2809 362.499573 383.612099 362.499573 383.612099 " transform="matrix(4.485981,0,0,4.481818,-1389.357704,-1630.432015)"/>
<path style="fill:none;stroke-width:1.062992;stroke-linecap:round;stroke-linejoin:miter;stroke:rgb(0%,0%,0%);stroke-opacity:1;stroke-miterlimit:4;" d="M 370.803219 453.076793 C 373.685461 453.129087 373.767314 451.424283 376.963904 452.451872 " transform="matrix(4.485981,0,0,4.481818,-1389.357704,-1630.432015)"/>
<path style="fill:none;stroke-width:1.062992;stroke-linecap:round;stroke-linejoin:miter;stroke:rgb(0%,0%,0%);stroke-opacity:1;stroke-miterlimit:4;" d="M 373.587065 431.569757 C 373.858744 431.841689 375.301607 434.480824 375.714351 435.1746 C 376.333468 436.216134 378.392834 437.629832 378.392834 437.629832 " transform="matrix(4.485981,0,0,4.481818,-1389.357704,-1630.432015)"/>
<path style="fill:none;stroke-width:1.062992;stroke-linecap:round;stroke-linejoin:miter;stroke:rgb(0%,0%,0%);stroke-opacity:1;stroke-miterlimit:4;" d="M 383.303967 413.701555 C 384.449028 413.929036 385.594959 414.029268 386.74089 413.433981 C 388.190719 412.729746 389.919194 412.470888 391.964628 412.719288 " transform="matrix(4.485981,0,0,4.481818,-1389.357704,-1630.432015)"/>
<path style="fill:none;stroke-width:1.062992;stroke-linecap:butt;stroke-linejoin:miter;stroke:rgb(0%,0%,0%);stroke-opacity:1;stroke-miterlimit:4;" d="M 330.256766 380.800392 C 330.837569 382.03193 331.111861 383.494436 332.971822 383.76724 " transform="matrix(4.485981,0,0,4.481818,-1389.357704,-1630.432015)"/>
<path style="fill-rule:evenodd;fill:rgb(71.764706%,43.137255%,6.27451%);fill-opacity:1;stroke-width:0.708661;stroke-linecap:round;stroke-linejoin:round;stroke:rgb(0%,0%,0%);stroke-opacity:1;stroke-miterlimit:4;" d="M 326.080562 394.40571 C 326.080562 393.900195 325.71571 393.490554 325.264652 393.490554 C 324.813594 393.490554 324.448742 393.900195 324.448742 394.40571 C 324.448742 394.911225 324.813594 395.320866 325.264652 395.320866 C 325.71571 395.320866 326.080562 394.911225 326.080562 394.40571 Z M 326.080562 394.40571 " transform="matrix(4.485981,0,0,4.481818,-1389.357704,-1630.432015)"/>
<path style="fill-rule:evenodd;fill:rgb(71.764706%,43.137255%,6.27451%);fill-opacity:1;stroke-width:0.708661;stroke-linecap:round;stroke-linejoin:round;stroke:rgb(0%,0%,0%);stroke-opacity:1;stroke-miterlimit:4;" d="M 325.959525 402.83386 C 325.959525 402.328346 325.593803 401.918704 325.142745 401.918704 C 324.691687 401.918704 324.326835 402.328346 324.326835 402.83386 C 324.326835 403.339375 324.691687 403.749888 325.142745 403.749888 C 325.593803 403.749888 325.959525 403.339375 325.959525 402.83386 Z M 325.959525 402.83386 " transform="matrix(4.485981,0,0,4.481818,-1389.357704,-1630.432015)"/>
<path style="fill-rule:evenodd;fill:rgb(71.764706%,43.137255%,6.27451%);fill-opacity:1;stroke-width:0.708661;stroke-linecap:round;stroke-linejoin:round;stroke:rgb(0%,0%,0%);stroke-opacity:1;stroke-miterlimit:4;" d="M 331.009981 388.881654 C 331.009981 388.37614 330.644258 387.965627 330.1932 387.965627 C 329.743013 387.965627 329.377291 388.37614 329.377291 388.881654 C 329.377291 389.387169 329.743013 389.79681 330.1932 389.79681 C 330.644258 389.79681 331.009981 389.387169 331.009981 388.881654 Z M 331.009981 388.881654 " transform="matrix(4.485981,0,0,4.481818,-1389.357704,-1630.432015)"/>
<path style="fill-rule:evenodd;fill:rgb(71.764706%,43.137255%,6.27451%);fill-opacity:1;stroke-width:0.708661;stroke-linecap:round;stroke-linejoin:round;stroke:rgb(0%,0%,0%);stroke-opacity:1;stroke-miterlimit:4;" d="M 342.689595 378.40094 C 342.689595 377.895425 342.324743 377.485784 341.873686 377.485784 C 341.422628 377.485784 341.056905 377.895425 341.056905 378.40094 C 341.056905 378.906455 341.422628 379.316096 341.873686 379.316096 C 342.324743 379.316096 342.689595 378.906455 342.689595 378.40094 Z M 342.689595 378.40094 " transform="matrix(4.485981,0,0,4.481818,-1389.357704,-1630.432015)"/>
<path style="fill-rule:evenodd;fill:rgb(71.764706%,43.137255%,6.27451%);fill-opacity:1;stroke-width:0.708661;stroke-linecap:round;stroke-linejoin:round;stroke:rgb(0%,0%,0%);stroke-opacity:1;stroke-miterlimit:4;" d="M 355.632694 379.221965 C 355.632694 378.716451 355.266972 378.305938 354.815914 378.305938 C 354.364856 378.305938 354.000004 378.716451 354.000004 379.221965 C 354.000004 379.72748 354.364856 380.137121 354.815914 380.137121 C 355.266972 380.137121 355.632694 379.72748 355.632694 379.221965 Z M 355.632694 379.221965 " transform="matrix(4.485981,0,0,4.481818,-1389.357704,-1630.432015)"/>
<path style="fill-rule:evenodd;fill:rgb(69.019608%,83.529412%,100%);fill-opacity:1;stroke-width:0.708661;stroke-linecap:butt;stroke-linejoin:miter;stroke:rgb(0%,0%,0%);stroke-opacity:1;stroke-miterlimit:4;" d="M 338.437634 372.763579 C 338.860827 372.296414 338.765043 371.742091 339.821285 371.380386 C 340.403829 371.157263 340.940222 370.860055 342.098344 371.55906 C 343.095373 372.113383 344.092403 373.242947 345.089433 374.50499 C 345.790401 375.755703 344.485119 376.291723 343.839009 375.889055 L 340.847921 372.897802 C 340.42821 372.669449 340.040718 372.18398 339.508679 372.853352 L 338.794649 373.34405 C 338.63704 373.364096 338.37668 373.947181 338.437634 372.763579 Z M 338.437634 372.763579 " transform="matrix(4.485981,0,0,4.481818,-1389.357704,-1630.432015)"/>
</g>
</svg>
