<?xml version="1.0" encoding="UTF-8"?>
<svg xmlns="http://www.w3.org/2000/svg" xmlns:xlink="http://www.w3.org/1999/xlink" width="1023pt" height="888pt" viewBox="0 0 1023 888" version="1.1">
<g id="surface1">
<path style=" stroke:none;fill-rule:nonzero;fill:rgb(0%,0%,100%);fill-opacity:1;" d="M 368.691406 9.835938 C 226.90625 36.441406 152.089844 60.53125 103.394531 78.671875 C 17.234375 212.425781 39.023438 224.632812 14.960938 288.472656 C 63.820312 348.289062 144.460938 355.09375 218.019531 373.703125 C 235.246094 359.609375 245.480469 317.546875 254.046875 268.804688 C 185.640625 481.125 241.140625 686.753906 198.371094 849.019531 C 280.742188 879.125 407.777344 894.019531 512.796875 885.074219 L 512.796875 121.300781 C 419.078125 100.253906 423.382812 46.519531 368.691406 9.839844 Z M 368.691406 9.835938 "/>
<path style=" stroke:none;fill-rule:nonzero;fill:rgb(0%,0%,100%);fill-opacity:1;" d="M 653.640625 10.1875 C 795.425781 36.796875 870.242188 60.886719 918.9375 79.027344 C 1005.097656 212.777344 983.308594 224.988281 1007.371094 288.828125 C 958.511719 348.644531 877.867188 355.449219 804.3125 374.054688 C 787.085938 359.964844 776.851562 317.902344 768.285156 269.160156 C 836.691406 481.476562 781.191406 687.109375 823.960938 849.371094 C 741.589844 879.476562 614.554688 894.371094 509.535156 885.429688 L 509.535156 121.652344 C 603.257812 100.605469 598.96875 46.878906 653.648438 10.199219 Z M 653.640625 10.1875 "/>
<path style=" stroke:none;fill-rule:nonzero;fill:rgb(0%,0%,50.196078%);fill-opacity:1;" d="M 15.292969 285.1875 C 78.972656 317.921875 146.105469 349.273438 222.621094 371.730469 L 209.847656 397.296875 C 131.316406 378.867188 63.421875 349.78125 0.554688 315.675781 Z M 15.292969 285.1875 "/>
<path style=" stroke:none;fill-rule:nonzero;fill:rgb(0%,0%,50.196078%);fill-opacity:1;" d="M 1007.707031 287.15625 C 944.027344 319.890625 876.894531 351.238281 800.378906 373.695312 L 813.152344 399.265625 C 891.691406 380.839844 959.582031 351.757812 1022.445312 317.640625 Z M 1007.707031 287.15625 "/>
<path style=" stroke:none;fill-rule:nonzero;fill:rgb(0%,0%,50.196078%);fill-opacity:1;" d="M 366.078125 9.835938 L 392.605469 0 C 504.085938 156.605469 568.496094 89.433594 628.429688 0.984375 L 653.976562 11.800781 C 574.160156 133.425781 484.84375 192.289062 366.078125 9.835938 Z M 366.078125 9.835938 "/>
<path style=" stroke:none;fill-rule:nonzero;fill:rgb(0%,0%,83.137255%);fill-opacity:1;" d="M 235.414062 352.0625 L 318.914062 274.078125 L 255.570312 307.070312 L 267.085938 241.082031 L 232.535156 319.066406 L 195.101562 232.09375 L 235.410156 352.070312 Z M 235.414062 352.0625 "/>
<path style=" stroke:none;fill-rule:nonzero;fill:rgb(0%,0%,83.137255%);fill-opacity:1;" d="M 788.570312 353.042969 L 705.070312 275.058594 L 768.414062 308.054688 L 756.894531 242.066406 L 791.445312 320.050781 L 828.882812 233.078125 L 788.574219 353.054688 Z M 788.570312 353.042969 "/>
<path style=" stroke:none;fill-rule:nonzero;fill:rgb(0%,0%,83.137255%);fill-opacity:1;" d="M 239.324219 356.976562 C 213.066406 512.332031 243.71875 714.960938 212.792969 839.832031 C 249.695312 859.726562 324.953125 872.59375 367.058594 874.25 C 243.496094 895.632812 262.960938 542.605469 239.324219 356.976562 Z M 239.324219 356.976562 "/>
</g>
</svg>
