<?xml version="1.0" encoding="UTF-8"?>
<svg xmlns="http://www.w3.org/2000/svg" xmlns:xlink="http://www.w3.org/1999/xlink" width="1024pt" height="1097pt" viewBox="0 0 1024 1097" version="1.1">
<defs>
<linearGradient id="linear0" gradientUnits="userSpaceOnUse" x1="550.4" y1="617.83" x2="214.68" y2="127.58" gradientTransform="matrix(-2.409484,0,0,2.408088,1198.941466,-246.934783)">
<stop offset="0" style="stop-color:rgb(0%,0%,0%);stop-opacity:1;"/>
<stop offset="1" style="stop-color:rgb(66.666667%,0%,0%);stop-opacity:1;"/>
</linearGradient>
<linearGradient id="linear1" gradientUnits="userSpaceOnUse" x1="0.78582" y1="0.85997" x2="0.24726" y2="0.78943" gradientTransform="matrix(-24.242283,25.98166,25.996722,24.228237,498.70853,536.292411)">
<stop offset="0" style="stop-color:rgb(87.058824%,85.490196%,82.745098%);stop-opacity:1;"/>
<stop offset="0.26404" style="stop-color:rgb(49.019608%,45.490196%,46.666667%);stop-opacity:1;"/>
<stop offset="0.52248" style="stop-color:rgb(96.078431%,96.078431%,96.078431%);stop-opacity:1;"/>
<stop offset="0.8764" style="stop-color:rgb(43.529412%,40.392157%,40.784314%);stop-opacity:1;"/>
<stop offset="1" style="stop-color:rgb(80%,80%,80%);stop-opacity:1;"/>
</linearGradient>
<linearGradient id="linear2" gradientUnits="userSpaceOnUse" x1="0" y1="0" x2="1" y2="0" gradientTransform="matrix(-8.471908,9.07987,9.085133,8.467,181.234622,259.05159)">
<stop offset="0" style="stop-color:rgb(40.784314%,14.509804%,3.921569%);stop-opacity:1;"/>
<stop offset="0.60135" style="stop-color:rgb(58.431373%,20.392157%,9.411765%);stop-opacity:1;"/>
<stop offset="0.97752" style="stop-color:rgb(30.196078%,10.980392%,3.137255%);stop-opacity:1;"/>
<stop offset="1" style="stop-color:rgb(30.196078%,10.980392%,3.137255%);stop-opacity:1;"/>
</linearGradient>
<linearGradient id="linear3" gradientUnits="userSpaceOnUse" x1="158.26" y1="616.36" x2="444.71" y2="616.36" >
<stop offset="0" style="stop-color:rgb(100%,0%,0%);stop-opacity:1;"/>
<stop offset="1" style="stop-color:rgb(66.666667%,0%,0%);stop-opacity:1;"/>
</linearGradient>
<linearGradient id="linear4" gradientUnits="userSpaceOnUse" x1="288.67" y1="721.25" x2="37.12" y2="652.38" gradientTransform="matrix(2.302862,0,0,2.301527,-64.316295,-1303.219613)">
<stop offset="0" style="stop-color:rgb(83.137255%,0%,0%);stop-opacity:1;"/>
<stop offset="1" style="stop-color:rgb(100%,0%,0%);stop-opacity:1;"/>
</linearGradient>
<linearGradient id="linear5" gradientUnits="userSpaceOnUse" x1="120.67" y1="831.86" x2="88.121" y2="662.93" >
<stop offset="0" style="stop-color:rgb(66.666667%,0%,0%);stop-opacity:1;"/>
<stop offset="1" style="stop-color:rgb(93.333333%,0%,0%);stop-opacity:1;"/>
</linearGradient>
<linearGradient id="linear6" gradientUnits="userSpaceOnUse" x1="0" y1="0" x2="1" y2="0" gradientTransform="matrix(-19.412009,21.55576,21.568256,19.400762,942.687679,934.034496)">
<stop offset="0" style="stop-color:rgb(40.784314%,14.509804%,3.921569%);stop-opacity:1;"/>
<stop offset="0.60135" style="stop-color:rgb(58.431373%,20.392157%,9.411765%);stop-opacity:1;"/>
<stop offset="0.97752" style="stop-color:rgb(30.196078%,10.980392%,3.137255%);stop-opacity:1;"/>
<stop offset="1" style="stop-color:rgb(30.196078%,10.980392%,3.137255%);stop-opacity:1;"/>
</linearGradient>
<linearGradient id="linear7" gradientUnits="userSpaceOnUse" x1="6.2182" y1="-1.0312" x2="55.559" y2="-68.085" gradientTransform="matrix(-3.011855,0,0,3.01011,1020.162231,1093.883382)">
<stop offset="0" style="stop-color:rgb(30.196078%,10.980392%,3.137255%);stop-opacity:1;"/>
<stop offset="1" style="stop-color:rgb(30.196078%,10.980392%,3.137255%);stop-opacity:0;"/>
</linearGradient>
<linearGradient id="linear8" gradientUnits="userSpaceOnUse" x1="84.52" y1="526.34" x2="84.719" y2="532.03" gradientTransform="matrix(-2.409484,0,0,2.408088,1166.839575,-201.571679)">
<stop offset="0" style="stop-color:rgb(100%,100%,100%);stop-opacity:0.501961;"/>
<stop offset="1" style="stop-color:rgb(100%,100%,100%);stop-opacity:0;"/>
</linearGradient>
<linearGradient id="linear9" gradientUnits="userSpaceOnUse" x1="125.21" y1="440.95" x2="86.952" y2="508.53" gradientTransform="matrix(-2.409484,0,0,2.408088,1166.839575,-201.571679)">
<stop offset="0" style="stop-color:rgb(100%,100%,100%);stop-opacity:0.6;"/>
<stop offset="1" style="stop-color:rgb(100%,100%,100%);stop-opacity:0;"/>
</linearGradient>
<linearGradient id="linear10" gradientUnits="userSpaceOnUse" x1="224.53" y1="-281.03" x2="229.93" y2="-274.57" gradientTransform="matrix(-3.011913,0,0,3.010168,859.637837,1100.724562)">
<stop offset="0" style="stop-color:rgb(97.647059%,97.647059%,97.647059%);stop-opacity:1;"/>
<stop offset="1" style="stop-color:rgb(97.647059%,97.647059%,97.647059%);stop-opacity:0;"/>
</linearGradient>
</defs>
<g id="surface1">
<path style=" stroke:none;fill-rule:nonzero;fill:rgb(0%,0%,0%);fill-opacity:1;" d="M 959.789062 13 L 956.964844 17.703125 C 956.964844 17.703125 910.773438 31.75 867.570312 76.953125 C 807.347656 139.964844 811.113281 183.222656 811.113281 183.222656 C 811.113281 183.222656 729.53125 244.742188 672.78125 312.066406 C 541.984375 467.242188 541.984375 527.429688 541.984375 527.429688 C 541.984375 527.429688 462.171875 578.386719 414.949219 626.175781 C 265.328125 777.589844 236.15625 864.105469 236.15625 864.105469 C 236.15625 864.105469 225.402344 855.402344 183.460938 881.972656 C 78.070312 948.746094 36.664062 1063.484375 36.664062 1063.484375 C 36.664062 1063.484375 160.875 433.371094 256.859375 341.21875 C 352.84375 249.054688 959.785156 12.996094 959.785156 12.996094 Z M 959.789062 13 "/>
<path style=" stroke:none;fill-rule:nonzero;fill:url(#linear0);" d="M 959.789062 13 L 956.964844 17.703125 C 956.964844 17.703125 910.773438 31.75 867.570312 76.953125 C 807.347656 139.964844 811.113281 183.222656 811.113281 183.222656 C 811.113281 183.222656 729.53125 244.742188 672.78125 312.066406 C 541.984375 467.242188 541.984375 527.429688 541.984375 527.429688 C 541.984375 527.429688 462.171875 578.386719 414.949219 626.175781 C 265.328125 777.589844 236.15625 864.105469 236.15625 864.105469 C 236.15625 864.105469 225.402344 855.402344 183.460938 881.972656 C 78.070312 948.746094 36.664062 1063.484375 36.664062 1063.484375 C 36.664062 1063.484375 51.648438 470.769531 205.984375 300.828125 C 301.96875 208.660156 959.78125 12.976562 959.78125 12.976562 Z M 959.789062 13 "/>
<path style=" stroke:none;fill-rule:nonzero;fill:url(#linear1);" d="M 842.46875 856.671875 L 143.402344 238.292969 L 135.875 247.074219 L 833.675781 864.21875 Z M 842.46875 856.671875 "/>
<path style=" stroke:none;fill-rule:nonzero;fill:url(#linear2);" d="M 214.035156 290.597656 L 145.421875 238.078125 L 140.175781 238.078125 L 131.191406 247.804688 L 131.941406 252.296875 L 192.398438 309.628906 Z M 214.035156 290.597656 "/>
<path style=" stroke:none;fill-rule:nonzero;fill:rgb(50.196078%,50.196078%,50.196078%);fill-opacity:1;" d="M 192.867188 305.5 C 192.867188 305.5 124.171875 385.441406 51.714844 573.535156 C -25.410156 773.746094 36.660156 1063.507812 36.660156 1063.507812 C 36.660156 1063.507812 45.128906 997.675781 62.066406 977.925781 C 79.003906 958.175781 80.886719 982.628906 80.886719 982.628906 C 80.886719 982.628906 38.539062 818.992188 47.949219 644.074219 C 56.035156 493.804688 192.867188 305.519531 192.867188 305.519531 Z M 192.867188 305.5 "/>
<path style="fill-rule:nonzero;fill:rgb(83.137255%,0%,0%);fill-opacity:1;stroke-width:1.3079;stroke-linecap:butt;stroke-linejoin:miter;stroke:rgb(66.666667%,0%,0%);stroke-opacity:1;stroke-miterlimit:4;" d="M 111.679956 697.67964 C 111.679956 697.67964 81.849543 732.413707 50.385633 814.139327 C 16.894693 901.129793 43.84825 1027.029543 43.84825 1027.029543 C 43.84825 1027.029543 44.277404 1007.521438 51.632383 998.941877 C 58.987363 990.360619 63.053296 991.888137 63.053296 991.888137 C 63.053296 991.888137 44.664151 920.788953 48.750439 844.788132 C 52.261696 779.498608 111.679956 697.688126 111.679956 697.688126 Z M 111.679956 697.67964 " transform="matrix(2.302862,0,0,2.301527,-64.316296,-1300.228778)"/>
<path style="fill-rule:nonzero;fill:url(#linear3);stroke-width:1.3079;stroke-linecap:butt;stroke-linejoin:miter;stroke:rgb(50.196078%,0%,0%);stroke-opacity:1;stroke-miterlimit:4;" d="M 444.709902 570.590123 C 444.709902 570.590123 331.689853 573.193693 280.849575 588.161674 C 200.350206 611.860271 158.259232 662.120713 158.259232 662.120713 C 158.259232 662.120713 185.764073 630.619892 224.866239 622.485009 C 285.751764 609.818488 386.675789 624.119454 386.675789 624.119454 C 386.675789 624.119454 380.547205 613.903751 399.343452 595.924861 C 418.141395 577.944275 444.701421 570.588426 444.701421 570.588426 Z M 444.709902 570.590123 " transform="matrix(2.302862,0,0,2.301527,-64.316296,-1300.228778)"/>
<path style=" stroke:none;fill-rule:nonzero;fill:url(#linear4);" d="M 199.453125 293.09375 C 199.453125 293.09375 330.253906 155.789062 433.769531 125.695312 C 537.28125 95.597656 826.175781 133.214844 826.175781 133.214844 C 826.175781 133.214844 741.136719 176.765625 615.390625 317.546875 C 466.714844 484.007812 431.898438 569.589844 431.898438 569.589844 C 431.898438 569.589844 258.75 394.664062 223.933594 342 C 205.777344 314.535156 199.46875 293.097656 199.46875 293.097656 Z M 199.453125 293.09375 "/>
<path style="fill:none;stroke-width:1.3079;stroke-linecap:butt;stroke-linejoin:miter;stroke:rgb(50.196078%,0%,0%);stroke-opacity:1;stroke-miterlimit:4;" d="M 114.539849 693.589285 C 114.539849 693.589285 171.339086 633.931212 216.289953 620.855656 C 261.239123 607.778403 386.689359 624.122848 386.689359 624.122848 C 386.689359 624.122848 349.761798 643.043707 295.15752 704.214023 C 230.596202 776.540314 215.477444 813.7252 215.477444 813.7252 C 215.477444 813.7252 140.289063 737.720984 125.170305 714.838761 C 117.286093 702.905449 114.546634 693.590983 114.546634 693.590983 Z M 114.539849 693.589285 " transform="matrix(2.302862,0,0,2.301527,-64.316296,-1300.228778)"/>
<path style="fill-rule:nonzero;fill:url(#linear5);stroke-width:1.3079;stroke-linecap:butt;stroke-linejoin:miter;stroke:rgb(50.196078%,0%,0%);stroke-opacity:1;stroke-miterlimit:4;" d="M 114.539849 693.589285 C 114.539849 693.589285 71.225873 749.162096 57.742309 787.163355 C 32.644459 857.890844 63.462095 993.514096 63.462095 993.514096 C 63.462095 993.514096 93.701306 934.672396 131.702599 888.493823 C 174.892749 836.013388 215.470659 813.715016 215.470659 813.715016 C 215.470659 813.715016 138.239982 735.669018 125.16352 714.828578 C 112.088755 693.989835 114.539849 693.580799 114.539849 693.580799 Z M 114.539849 693.589285 " transform="matrix(2.302862,0,0,2.301527,-64.316296,-1300.228778)"/>
<path style=" stroke:none;fill-rule:nonzero;fill:url(#linear6);" d="M 839.800781 841.828125 C 839.800781 841.828125 996.945312 982.894531 1005.726562 992.925781 C 1014.507812 1002.953125 1032.078125 1043.078125 1004.472656 1073.171875 C 976.871094 1103.265625 940.859375 1092.417969 920.726562 1076.9375 C 900.339844 1061.261719 886.851562 1020.507812 886.851562 1020.507812 L 901.59375 1007.96875 C 901.59375 1007.96875 907.867188 1009.222656 907.867188 1009.222656 C 907.867188 1009.222656 923.253906 1049.96875 940.488281 1059.378906 C 964.011719 1072.234375 987.535156 1068.46875 993.183594 1056.246094 C 1003.074219 1034.828125 983.144531 1006.714844 969.34375 995.429688 C 955.542969 984.144531 819.101562 863.457031 819.101562 863.457031 C 819.101562 863.457031 839.804688 841.824219 839.804688 841.824219 Z M 839.800781 841.828125 "/>
<path style=" stroke:none;fill-rule:nonzero;fill:url(#linear7);" d="M 839.078125 841.972656 C 839.078125 841.972656 996.222656 983.039062 1005.003906 993.070312 C 1013.785156 1003.097656 1031.355469 1043.222656 1003.75 1073.316406 C 976.148438 1103.410156 940.136719 1092.5625 920.003906 1077.082031 C 899.617188 1061.402344 886.128906 1020.652344 886.128906 1020.652344 L 900.871094 1008.113281 C 900.871094 1008.113281 907.144531 1009.367188 907.144531 1009.367188 C 907.144531 1009.367188 922.53125 1050.113281 939.765625 1059.523438 C 963.289062 1072.378906 986.8125 1068.613281 992.460938 1056.390625 C 1002.351562 1034.972656 982.421875 1006.859375 968.621094 995.574219 C 954.820312 984.289062 818.378906 863.601562 818.378906 863.601562 C 818.378906 863.601562 839.082031 841.96875 839.082031 841.96875 Z M 839.078125 841.972656 "/>
<path style=" stroke:none;fill-rule:nonzero;fill:url(#linear8);" d="M 946.9375 1064.769531 C 946.9375 1064.769531 958.679688 1069.839844 962.875 1070.234375 C 967.066406 1070.625 978.136719 1068.269531 978.136719 1068.269531 C 978.136719 1068.269531 964.675781 1074.480469 960.074219 1073.898438 C 953.632812 1073.089844 946.9375 1064.769531 946.9375 1064.769531 Z M 946.9375 1064.769531 "/>
<path style=" stroke:none;fill-rule:nonzero;fill:url(#linear9);" d="M 1001.34375 1006.109375 C 1001.34375 1006.109375 993.742188 992.878906 989.035156 988.925781 C 984.324219 984.976562 940.878906 948.828125 940.878906 948.828125 L 873.550781 887.515625 L 835.996094 852.667969 C 835.996094 852.667969 839.375 849.015625 839.375 849.015625 L 931.785156 932.304688 L 970.359375 968.808594 L 987.058594 984 L 992.847656 987.992188 Z M 1001.34375 1006.109375 "/>
<path style=" stroke:none;fill-rule:nonzero;fill:url(#linear10);" d="M 205.8125 287.226562 L 147.121094 240.511719 L 142.636719 240.511719 L 141.683594 246.175781 L 142.324219 250.167969 L 199.277344 294.429688 Z M 205.8125 287.226562 "/>
</g>
</svg>
