<?xml version="1.0" encoding="UTF-8"?>
<svg xmlns="http://www.w3.org/2000/svg" xmlns:xlink="http://www.w3.org/1999/xlink" width="1023pt" height="992pt" viewBox="0 0 1023 992" version="1.1">
<defs>
<linearGradient id="linear0" gradientUnits="userSpaceOnUse" x1="91.982" y1="973.89" x2="673.57" y2="973.89" spreadMethod="reflect" gradientTransform="matrix(0.388826,0,0,0.389172,0,0)">
<stop offset="0" style="stop-color:rgb(0%,0%,0%);stop-opacity:0.627451;"/>
<stop offset="0.15" style="stop-color:rgb(0%,0%,0%);stop-opacity:0.392157;"/>
<stop offset="1" style="stop-color:rgb(8.627451%,15.686275%,25.882353%);stop-opacity:0.0941176;"/>
</linearGradient>
<radialGradient id="radial0" gradientUnits="userSpaceOnUse" cx="761.39" cy="1211.5" fx="761.39" fy="1211.5" r="28.097" gradientTransform="matrix(0.388826,0,0,2.43182,0,-2474.629423)">
<stop offset="0" style="stop-color:rgb(100%,100%,100%);stop-opacity:0.588235;"/>
<stop offset="1" style="stop-color:rgb(100%,100%,100%);stop-opacity:0;"/>
</radialGradient>
<radialGradient id="radial1" gradientUnits="userSpaceOnUse" cx="708.12" cy="1387.3" fx="708.12" fy="1387.3" r="114.36" gradientTransform="matrix(0.810001,0,0,0.284975,-298.244743,155.283609)">
<stop offset="0" style="stop-color:rgb(100%,100%,100%);stop-opacity:0.177624;"/>
<stop offset="1" style="stop-color:rgb(100%,100%,100%);stop-opacity:0;"/>
</radialGradient>
<radialGradient id="radial2" gradientUnits="userSpaceOnUse" cx="682.93" cy="1508.5" fx="682.93" fy="1508.5" r="47.026" gradientTransform="matrix(0.505473,0,0,7.261954,-79.662577,-10343.41938)">
<stop offset="0" style="stop-color:rgb(100%,100%,100%);stop-opacity:0.588235;"/>
<stop offset="1" style="stop-color:rgb(100%,100%,100%);stop-opacity:0;"/>
</radialGradient>
<radialGradient id="radial3" gradientUnits="userSpaceOnUse" cx="1335.4" cy="3136.7" fx="1335.4" fy="3136.7" r="512.21" spreadMethod="reflect" gradientTransform="matrix(0.388826,0,0,0.0883071,0,652.563986)">
<stop offset="0" style="stop-color:rgb(100%,100%,100%);stop-opacity:0.588235;"/>
<stop offset="1" style="stop-color:rgb(100%,100%,100%);stop-opacity:0;"/>
</radialGradient>
<radialGradient id="radial4" gradientUnits="userSpaceOnUse" cx="678.55" cy="1576.9" fx="678.55" fy="1576.9" r="560.69" spreadMethod="reflect" gradientTransform="matrix(0.43253,0,0,0.0727752,-29.648725,448.287485)">
<stop offset="0" style="stop-color:rgb(0%,0%,0%);stop-opacity:0.627451;"/>
<stop offset="0.15" style="stop-color:rgb(0%,0%,0%);stop-opacity:0.392157;"/>
<stop offset="1" style="stop-color:rgb(8.627451%,15.686275%,25.882353%);stop-opacity:0.0941176;"/>
</radialGradient>
<linearGradient id="linear1" gradientUnits="userSpaceOnUse" x1="134.66" y1="1978.5" x2="637.85" y2="1975.8" spreadMethod="reflect" gradientTransform="matrix(0.40364,0,0,0.404,-10.088079,-29.353704)">
<stop offset="0" style="stop-color:rgb(0%,0%,0%);stop-opacity:0.627451;"/>
<stop offset="0.15" style="stop-color:rgb(0%,0%,0%);stop-opacity:0.392157;"/>
<stop offset="1" style="stop-color:rgb(8.627451%,15.686275%,25.882353%);stop-opacity:0.0941176;"/>
</linearGradient>
<linearGradient id="linear2" gradientUnits="userSpaceOnUse" x1="126.35" y1="1717.7" x2="722.34" y2="1717.7" spreadMethod="reflect" gradientTransform="matrix(0.388826,0,0,0.389172,0,0)">
<stop offset="0" style="stop-color:rgb(0%,0%,0%);stop-opacity:0.627451;"/>
<stop offset="0.15" style="stop-color:rgb(0%,0%,0%);stop-opacity:0.392157;"/>
<stop offset="1" style="stop-color:rgb(8.627451%,15.686275%,25.882353%);stop-opacity:0.0941176;"/>
</linearGradient>
<radialGradient id="radial5" gradientUnits="userSpaceOnUse" cx="695.88" cy="2211.6" fx="695.88" fy="2211.6" r="341.85" gradientTransform="matrix(0.38867,-0.0109424,0.000755449,0.0268805,-1.647104,810.723578)">
<stop offset="0" style="stop-color:rgb(0%,0%,0%);stop-opacity:0.627451;"/>
<stop offset="0.15" style="stop-color:rgb(0%,0%,0%);stop-opacity:0.392157;"/>
<stop offset="1" style="stop-color:rgb(8.627451%,15.686275%,25.882353%);stop-opacity:0.0941176;"/>
</radialGradient>
<radialGradient id="radial6" gradientUnits="userSpaceOnUse" cx="680.45" cy="2345.9" fx="680.45" fy="2345.9" r="529.76" spreadMethod="reflect" gradientTransform="matrix(1.028366,0,0,0.319359,-435.173546,163.779239)">
<stop offset="0" style="stop-color:rgb(0%,0%,0%);stop-opacity:0.627451;"/>
<stop offset="0.15" style="stop-color:rgb(0%,0%,0%);stop-opacity:0.392157;"/>
<stop offset="1" style="stop-color:rgb(8.627451%,15.686275%,25.882353%);stop-opacity:0.0941176;"/>
</radialGradient>
<radialGradient id="radial7" gradientUnits="userSpaceOnUse" cx="681.23" cy="2202.5" fx="681.23" fy="2202.5" r="538.25" spreadMethod="reflect" gradientTransform="matrix(0.136979,0,0,0.036295,171.561494,777.215849)">
<stop offset="0" style="stop-color:rgb(0%,0%,0%);stop-opacity:0.627451;"/>
<stop offset="0.15" style="stop-color:rgb(0%,0%,0%);stop-opacity:0.392157;"/>
<stop offset="1" style="stop-color:rgb(8.627451%,15.686275%,25.882353%);stop-opacity:0.0941176;"/>
</radialGradient>
<radialGradient id="radial8" gradientUnits="userSpaceOnUse" cx="677.08" cy="1999.5" fx="677.08" fy="1999.5" r="16.201" gradientTransform="matrix(0.584444,-0.0856646,0.0143384,0.0979936,-4.576673,762.425063)">
<stop offset="0" style="stop-color:rgb(100%,100%,100%);stop-opacity:0.588235;"/>
<stop offset="1" style="stop-color:rgb(100%,100%,100%);stop-opacity:0;"/>
</radialGradient>
<radialGradient id="radial9" gradientUnits="userSpaceOnUse" cx="677.08" cy="1999.5" fx="677.08" fy="1999.5" r="16.201" gradientTransform="matrix(0.315509,-0.0554804,0.00774054,0.0634643,189.669603,799.868848)">
<stop offset="0" style="stop-color:rgb(100%,100%,100%);stop-opacity:0.588235;"/>
<stop offset="1" style="stop-color:rgb(100%,100%,100%);stop-opacity:0;"/>
</radialGradient>
<radialGradient id="radial10" gradientUnits="userSpaceOnUse" cx="677.08" cy="1999.5" fx="677.08" fy="1999.5" r="16.201" gradientTransform="matrix(0.294578,-0.125975,0.0219847,0.0600298,183.50488,830.823311)">
<stop offset="0" style="stop-color:rgb(100%,100%,100%);stop-opacity:0.588235;"/>
<stop offset="1" style="stop-color:rgb(100%,100%,100%);stop-opacity:0;"/>
</radialGradient>
<radialGradient id="radial11" gradientUnits="userSpaceOnUse" cx="677.08" cy="1999.5" fx="677.08" fy="1999.5" r="16.201" gradientTransform="matrix(0.335864,0.236138,-0.0395236,0.0563132,-76.426469,569.906514)">
<stop offset="0" style="stop-color:rgb(100%,100%,100%);stop-opacity:0.588235;"/>
<stop offset="1" style="stop-color:rgb(100%,100%,100%);stop-opacity:0;"/>
</radialGradient>
<radialGradient id="radial12" gradientUnits="userSpaceOnUse" cx="677.08" cy="1999.5" fx="677.08" fy="1999.5" r="16.201" gradientTransform="matrix(0.395241,0.110762,-0.0185387,0.0662712,-151.303655,676.902848)">
<stop offset="0" style="stop-color:rgb(100%,100%,100%);stop-opacity:0.588235;"/>
<stop offset="1" style="stop-color:rgb(100%,100%,100%);stop-opacity:0;"/>
</radialGradient>
<radialGradient id="radial13" gradientUnits="userSpaceOnUse" cx="677.08" cy="1999.5" fx="677.08" fy="1999.5" r="16.201" gradientTransform="matrix(0.403523,0.0751297,-0.0125746,0.0676625,-154.865524,709.234716)">
<stop offset="0" style="stop-color:rgb(100%,100%,100%);stop-opacity:0.588235;"/>
<stop offset="1" style="stop-color:rgb(100%,100%,100%);stop-opacity:0;"/>
</radialGradient>
<radialGradient id="radial14" gradientUnits="userSpaceOnUse" cx="677.08" cy="1999.5" fx="677.08" fy="1999.5" r="16.201" gradientTransform="matrix(0.230426,0.152443,-0.0221874,0.0444313,-45.785141,636.042131)">
<stop offset="0" style="stop-color:rgb(100%,100%,100%);stop-opacity:0.588235;"/>
<stop offset="1" style="stop-color:rgb(100%,100%,100%);stop-opacity:0;"/>
</radialGradient>
<radialGradient id="radial15" gradientUnits="userSpaceOnUse" cx="762.42" cy="2421.3" fx="762.42" fy="2421.3" r="423.61" gradientTransform="matrix(0.388826,0,0,0.0573173,0,803.523892)">
<stop offset="0" style="stop-color:rgb(100%,100%,100%);stop-opacity:0.588235;"/>
<stop offset="1" style="stop-color:rgb(100%,100%,100%);stop-opacity:0;"/>
</radialGradient>
<linearGradient id="linear3" gradientUnits="userSpaceOnUse" x1="256.35" y1="2296.9" x2="1210" y2="2296.9" gradientTransform="matrix(0.388826,0,0,0.389172,0,0)">
<stop offset="0" style="stop-color:rgb(0%,0%,0%);stop-opacity:0.627451;"/>
<stop offset="0.15" style="stop-color:rgb(0%,0%,0%);stop-opacity:0.392157;"/>
<stop offset="1" style="stop-color:rgb(8.627451%,15.686275%,25.882353%);stop-opacity:0.0941176;"/>
</linearGradient>
<linearGradient id="linear4" gradientUnits="userSpaceOnUse" x1="150.69" y1="2260.7" x2="892.94" y2="2260.7" gradientTransform="matrix(0.388826,0,0,0.389172,0,0)">
<stop offset="0" style="stop-color:rgb(0%,0%,0%);stop-opacity:0.627451;"/>
<stop offset="0.15" style="stop-color:rgb(0%,0%,0%);stop-opacity:0.392157;"/>
<stop offset="1" style="stop-color:rgb(8.627451%,15.686275%,25.882353%);stop-opacity:0.0941176;"/>
</linearGradient>
<linearGradient id="linear5" gradientUnits="userSpaceOnUse" x1="-175.79" y1="2319.1" x2="276.1" y2="2346.9" gradientTransform="matrix(0.388826,0,0,0.389172,0,0)">
<stop offset="0" style="stop-color:rgb(0%,0%,0%);stop-opacity:0.627451;"/>
<stop offset="0.15" style="stop-color:rgb(0%,0%,0%);stop-opacity:0.392157;"/>
<stop offset="1" style="stop-color:rgb(8.627451%,15.686275%,25.882353%);stop-opacity:0.0941176;"/>
</linearGradient>
<linearGradient id="linear6" gradientUnits="userSpaceOnUse" x1="2078.4" y1="1677.8" x2="1197" y2="2451.4" gradientTransform="matrix(0.388826,0,0,0.389172,0,0)">
<stop offset="0" style="stop-color:rgb(0%,0%,0%);stop-opacity:0.627451;"/>
<stop offset="0.15" style="stop-color:rgb(0%,0%,0%);stop-opacity:0.392157;"/>
<stop offset="1" style="stop-color:rgb(8.627451%,15.686275%,25.882353%);stop-opacity:0.0941176;"/>
</linearGradient>
<radialGradient id="radial16" gradientUnits="userSpaceOnUse" cx="676.19" cy="1511.8" fx="676.19" fy="1511.8" r="431.27" spreadMethod="reflect" gradientTransform="matrix(0.421526,0,0,0.0201467,-22.118341,557.878384)">
<stop offset="0" style="stop-color:rgb(0%,0%,0%);stop-opacity:0.627451;"/>
<stop offset="0.15" style="stop-color:rgb(0%,0%,0%);stop-opacity:0.392157;"/>
<stop offset="1" style="stop-color:rgb(8.627451%,15.686275%,25.882353%);stop-opacity:0.0941176;"/>
</radialGradient>
<linearGradient id="linear7" gradientUnits="userSpaceOnUse" x1="-175.79" y1="2319.1" x2="276.1" y2="2346.9" gradientTransform="matrix(0.388826,0,0,0.389172,-3.712001,-43.840251)">
<stop offset="0" style="stop-color:rgb(0%,0%,0%);stop-opacity:0.627451;"/>
<stop offset="0.15" style="stop-color:rgb(0%,0%,0%);stop-opacity:0.392157;"/>
<stop offset="1" style="stop-color:rgb(8.627451%,15.686275%,25.882353%);stop-opacity:0.0941176;"/>
</linearGradient>
<radialGradient id="radial17" gradientUnits="userSpaceOnUse" cx="678.55" cy="1498.3" fx="678.55" fy="1498.3" r="560.7" gradientTransform="matrix(0.476156,-0.363,0.0112351,0.0147632,-76.085382,807.298862)">
<stop offset="0" style="stop-color:rgb(100%,100%,100%);stop-opacity:0.588235;"/>
<stop offset="1" style="stop-color:rgb(100%,100%,100%);stop-opacity:0;"/>
</radialGradient>
<radialGradient id="radial18" gradientUnits="userSpaceOnUse" cx="680.47" cy="2167.9" fx="680.47" fy="2167.9" r="514.88" gradientTransform="matrix(0.388826,0,0,0.0304473,0,777.682856)">
<stop offset="0" style="stop-color:rgb(0%,0%,0%);stop-opacity:0.627451;"/>
<stop offset="0.15" style="stop-color:rgb(0%,0%,0%);stop-opacity:0.392157;"/>
<stop offset="1" style="stop-color:rgb(8.627451%,15.686275%,25.882353%);stop-opacity:0.0941176;"/>
</radialGradient>
<radialGradient id="radial19" gradientUnits="userSpaceOnUse" cx="677.31" cy="2255.1" fx="677.31" fy="2255.1" r="495.06" gradientTransform="matrix(0.629003,0,0,0.0611779,-162.665165,739.66073)">
<stop offset="0" style="stop-color:rgb(100%,100%,100%);stop-opacity:0.588235;"/>
<stop offset="1" style="stop-color:rgb(100%,100%,100%);stop-opacity:0;"/>
</radialGradient>
<radialGradient id="radial20" gradientUnits="userSpaceOnUse" cx="690.17" cy="2161.7" fx="690.17" fy="2161.7" r="413.47" gradientTransform="matrix(0.388826,0,0,0.00524215,0,829.948686)">
<stop offset="0" style="stop-color:rgb(100%,100%,100%);stop-opacity:0.588235;"/>
<stop offset="1" style="stop-color:rgb(100%,100%,100%);stop-opacity:0;"/>
</radialGradient>
<radialGradient id="radial21" gradientUnits="userSpaceOnUse" cx="678.55" cy="1378.6" fx="678.55" fy="1378.6" r="560.7" gradientTransform="matrix(0.388826,0,0,0.0363526,0,486.387446)">
<stop offset="0" style="stop-color:rgb(0%,0%,0%);stop-opacity:0.627451;"/>
<stop offset="0.15" style="stop-color:rgb(0%,0%,0%);stop-opacity:0.392157;"/>
<stop offset="1" style="stop-color:rgb(8.627451%,15.686275%,25.882353%);stop-opacity:0.0941176;"/>
</radialGradient>
<radialGradient id="radial22" gradientUnits="userSpaceOnUse" cx="677.08" cy="1999.5" fx="677.08" fy="1999.5" r="16.201" gradientTransform="matrix(0.783445,0,0,0.111337,-264.906842,372.63611)">
<stop offset="0" style="stop-color:rgb(100%,100%,100%);stop-opacity:0.588235;"/>
<stop offset="1" style="stop-color:rgb(100%,100%,100%);stop-opacity:0;"/>
</radialGradient>
<radialGradient id="radial23" gradientUnits="userSpaceOnUse" cx="677.08" cy="1999.5" fx="677.08" fy="1999.5" r="16.201" gradientTransform="matrix(0.606101,0,0,0.070231,-146.591117,649.165547)">
<stop offset="0" style="stop-color:rgb(100%,100%,100%);stop-opacity:0.588235;"/>
<stop offset="1" style="stop-color:rgb(100%,100%,100%);stop-opacity:0;"/>
</radialGradient>
<radialGradient id="radial24" gradientUnits="userSpaceOnUse" cx="677.08" cy="1999.5" fx="677.08" fy="1999.5" r="16.201" gradientTransform="matrix(0.960866,0,0,0.111337,-387.538529,599.990523)">
<stop offset="0" style="stop-color:rgb(100%,100%,100%);stop-opacity:0.588235;"/>
<stop offset="1" style="stop-color:rgb(100%,100%,100%);stop-opacity:0;"/>
</radialGradient>
<radialGradient id="radial25" gradientUnits="userSpaceOnUse" cx="677.08" cy="1999.5" fx="677.08" fy="1999.5" r="16.201" gradientTransform="matrix(0.752844,0,0,0.111337,-246.958655,610.537091)">
<stop offset="0" style="stop-color:rgb(100%,100%,100%);stop-opacity:0.588235;"/>
<stop offset="1" style="stop-color:rgb(100%,100%,100%);stop-opacity:0;"/>
</radialGradient>
<radialGradient id="radial26" gradientUnits="userSpaceOnUse" cx="677.08" cy="1999.5" fx="677.08" fy="1999.5" r="16.201" gradientTransform="matrix(0.960866,0,0,0.111337,-387.538529,625.598056)">
<stop offset="0" style="stop-color:rgb(100%,100%,100%);stop-opacity:0.588235;"/>
<stop offset="1" style="stop-color:rgb(100%,100%,100%);stop-opacity:0;"/>
</radialGradient>
<radialGradient id="radial27" gradientUnits="userSpaceOnUse" cx="677.08" cy="1999.5" fx="677.08" fy="1999.5" r="16.201" gradientTransform="matrix(0.752844,0,0,0.087233,-246.698141,689.684291)">
<stop offset="0" style="stop-color:rgb(100%,100%,100%);stop-opacity:0.588235;"/>
<stop offset="1" style="stop-color:rgb(100%,100%,100%);stop-opacity:0;"/>
</radialGradient>
<radialGradient id="radial28" gradientUnits="userSpaceOnUse" cx="677.08" cy="1999.5" fx="677.08" fy="1999.5" r="16.201" gradientTransform="matrix(0.606101,0,0,0.070231,-147.329886,717.815528)">
<stop offset="0" style="stop-color:rgb(100%,100%,100%);stop-opacity:0.588235;"/>
<stop offset="1" style="stop-color:rgb(100%,100%,100%);stop-opacity:0;"/>
</radialGradient>
<radialGradient id="radial29" gradientUnits="userSpaceOnUse" cx="677.08" cy="1999.5" fx="677.08" fy="1999.5" r="16.201" gradientTransform="matrix(0.960866,0,0,0.111337,-380.131403,648.675969)">
<stop offset="0" style="stop-color:rgb(100%,100%,100%);stop-opacity:0.588235;"/>
<stop offset="1" style="stop-color:rgb(100%,100%,100%);stop-opacity:0;"/>
</radialGradient>
<radialGradient id="radial30" gradientUnits="userSpaceOnUse" cx="677.08" cy="1999.5" fx="677.08" fy="1999.5" r="16.201" gradientTransform="matrix(0.752844,0,0,0.111337,-247.43691,594.114023)">
<stop offset="0" style="stop-color:rgb(100%,100%,100%);stop-opacity:0.588235;"/>
<stop offset="1" style="stop-color:rgb(100%,100%,100%);stop-opacity:0;"/>
</radialGradient>
<radialGradient id="radial31" gradientUnits="userSpaceOnUse" cx="677.08" cy="1999.5" fx="677.08" fy="1999.5" r="16.201" gradientTransform="matrix(0.812295,0,0,0.0941213,-287.676465,612.411562)">
<stop offset="0" style="stop-color:rgb(100%,100%,100%);stop-opacity:0.588235;"/>
<stop offset="1" style="stop-color:rgb(100%,100%,100%);stop-opacity:0;"/>
</radialGradient>
<radialGradient id="radial32" gradientUnits="userSpaceOnUse" cx="677.08" cy="1999.5" fx="677.08" fy="1999.5" r="16.201" gradientTransform="matrix(0.842002,0,0,0.0975655,-305.947377,644.429415)">
<stop offset="0" style="stop-color:rgb(100%,100%,100%);stop-opacity:0.588235;"/>
<stop offset="1" style="stop-color:rgb(100%,100%,100%);stop-opacity:0;"/>
</radialGradient>
<radialGradient id="radial33" gradientUnits="userSpaceOnUse" cx="677.08" cy="1999.5" fx="677.08" fy="1999.5" r="16.201" gradientTransform="matrix(0.842002,0,0,0.0975655,-305.577993,600.102698)">
<stop offset="0" style="stop-color:rgb(100%,100%,100%);stop-opacity:0.588235;"/>
<stop offset="1" style="stop-color:rgb(100%,100%,100%);stop-opacity:0;"/>
</radialGradient>
<radialGradient id="radial34" gradientUnits="userSpaceOnUse" cx="677.08" cy="1999.5" fx="677.08" fy="1999.5" r="16.201" gradientTransform="matrix(1.465172,0,0,0.169772,-721.58244,593.031937)">
<stop offset="0" style="stop-color:rgb(100%,100%,100%);stop-opacity:0.588235;"/>
<stop offset="1" style="stop-color:rgb(100%,100%,100%);stop-opacity:0;"/>
</radialGradient>
<radialGradient id="radial35" gradientUnits="userSpaceOnUse" cx="677.08" cy="1999.5" fx="677.08" fy="1999.5" r="16.201" gradientTransform="matrix(0.963432,0,0,0.111639,-381.881117,737.581398)">
<stop offset="0" style="stop-color:rgb(100%,100%,100%);stop-opacity:0.588235;"/>
<stop offset="1" style="stop-color:rgb(100%,100%,100%);stop-opacity:0;"/>
</radialGradient>
<radialGradient id="radial36" gradientUnits="userSpaceOnUse" cx="677.08" cy="1999.5" fx="677.08" fy="1999.5" r="16.201" gradientTransform="matrix(1.089528,0,0,0.126247,-467.251653,715.633984)">
<stop offset="0" style="stop-color:rgb(100%,100%,100%);stop-opacity:0.588235;"/>
<stop offset="1" style="stop-color:rgb(100%,100%,100%);stop-opacity:0;"/>
</radialGradient>
<radialGradient id="radial37" gradientUnits="userSpaceOnUse" cx="677.08" cy="1999.5" fx="677.08" fy="1999.5" r="16.201" gradientTransform="matrix(1.089528,0,0,0.126247,-467.251653,656.946812)">
<stop offset="0" style="stop-color:rgb(100%,100%,100%);stop-opacity:0.588235;"/>
<stop offset="1" style="stop-color:rgb(100%,100%,100%);stop-opacity:0;"/>
</radialGradient>
<radialGradient id="radial38" gradientUnits="userSpaceOnUse" cx="677.08" cy="1999.5" fx="677.08" fy="1999.5" r="16.201" gradientTransform="matrix(1.089528,0,0,0.126247,-467.251653,644.259798)">
<stop offset="0" style="stop-color:rgb(100%,100%,100%);stop-opacity:0.588235;"/>
<stop offset="1" style="stop-color:rgb(100%,100%,100%);stop-opacity:0;"/>
</radialGradient>
<radialGradient id="radial39" gradientUnits="userSpaceOnUse" cx="677.08" cy="1999.5" fx="677.08" fy="1999.5" r="16.201" gradientTransform="matrix(0.321932,0,0,0.111332,40.500068,645.883673)">
<stop offset="0" style="stop-color:rgb(100%,100%,100%);stop-opacity:0.588235;"/>
<stop offset="1" style="stop-color:rgb(100%,100%,100%);stop-opacity:0;"/>
</radialGradient>
<radialGradient id="radial40" gradientUnits="userSpaceOnUse" cx="677.08" cy="1999.5" fx="677.08" fy="1999.5" r="16.201" gradientTransform="matrix(0.752844,0,0,0.111337,-246.698141,605.127597)">
<stop offset="0" style="stop-color:rgb(100%,100%,100%);stop-opacity:0.588235;"/>
<stop offset="1" style="stop-color:rgb(100%,100%,100%);stop-opacity:0;"/>
</radialGradient>
<radialGradient id="radial41" gradientUnits="userSpaceOnUse" cx="677.08" cy="1999.5" fx="677.08" fy="1999.5" r="16.201" gradientTransform="matrix(0.398352,0.0990015,-0.0165703,0.0667917,-125.128386,670.462328)">
<stop offset="0" style="stop-color:rgb(100%,100%,100%);stop-opacity:0.588235;"/>
<stop offset="1" style="stop-color:rgb(100%,100%,100%);stop-opacity:0;"/>
</radialGradient>
<radialGradient id="radial42" gradientUnits="userSpaceOnUse" cx="677.08" cy="1999.5" fx="677.08" fy="1999.5" r="16.201" gradientTransform="matrix(0.573323,0,0,0.111337,-121.585747,366.136934)">
<stop offset="0" style="stop-color:rgb(100%,100%,100%);stop-opacity:0.588235;"/>
<stop offset="1" style="stop-color:rgb(100%,100%,100%);stop-opacity:0;"/>
</radialGradient>
<radialGradient id="radial43" gradientUnits="userSpaceOnUse" cx="677.08" cy="1999.5" fx="677.08" fy="1999.5" r="16.201" gradientTransform="matrix(0.909502,0,0,0.111337,-356.553022,332.434619)">
<stop offset="0" style="stop-color:rgb(100%,100%,100%);stop-opacity:0.588235;"/>
<stop offset="1" style="stop-color:rgb(100%,100%,100%);stop-opacity:0;"/>
</radialGradient>
<radialGradient id="radial44" gradientUnits="userSpaceOnUse" cx="677.08" cy="1999.5" fx="677.08" fy="1999.5" r="16.201" gradientTransform="matrix(0.657348,0,0,0.111337,-183.210707,343.681696)">
<stop offset="0" style="stop-color:rgb(100%,100%,100%);stop-opacity:0.588235;"/>
<stop offset="1" style="stop-color:rgb(100%,100%,100%);stop-opacity:0;"/>
</radialGradient>
<radialGradient id="radial45" gradientUnits="userSpaceOnUse" cx="677.08" cy="1999.5" fx="677.08" fy="1999.5" r="16.201" gradientTransform="matrix(0.689232,0,0,0.116732,-207.076819,296.915119)">
<stop offset="0" style="stop-color:rgb(100%,100%,100%);stop-opacity:0.588235;"/>
<stop offset="1" style="stop-color:rgb(100%,100%,100%);stop-opacity:0;"/>
</radialGradient>
<radialGradient id="radial46" gradientUnits="userSpaceOnUse" cx="677.08" cy="1999.5" fx="677.08" fy="1999.5" r="16.201" gradientTransform="matrix(0.909502,0,0,0.111337,-352.505348,189.880833)">
<stop offset="0" style="stop-color:rgb(100%,100%,100%);stop-opacity:0.588235;"/>
<stop offset="1" style="stop-color:rgb(100%,100%,100%);stop-opacity:0;"/>
</radialGradient>
<radialGradient id="radial47" gradientUnits="userSpaceOnUse" cx="677.08" cy="1999.5" fx="677.08" fy="1999.5" r="16.201" gradientTransform="matrix(0.523204,0,0,0.111337,-90.938518,184.121084)">
<stop offset="0" style="stop-color:rgb(100%,100%,100%);stop-opacity:0.588235;"/>
<stop offset="1" style="stop-color:rgb(100%,100%,100%);stop-opacity:0;"/>
</radialGradient>
<radialGradient id="radial48" gradientUnits="userSpaceOnUse" cx="677.08" cy="1999.5" fx="677.08" fy="1999.5" r="16.201" gradientTransform="matrix(0.523204,0,0,0.111337,-87.606283,166.063493)">
<stop offset="0" style="stop-color:rgb(100%,100%,100%);stop-opacity:0.588235;"/>
<stop offset="1" style="stop-color:rgb(100%,100%,100%);stop-opacity:0;"/>
</radialGradient>
<radialGradient id="radial49" gradientUnits="userSpaceOnUse" cx="677.08" cy="1999.5" fx="677.08" fy="1999.5" r="16.201" gradientTransform="matrix(0.523204,0,0,0.111337,-87.606283,163.30037)">
<stop offset="0" style="stop-color:rgb(100%,100%,100%);stop-opacity:0.588235;"/>
<stop offset="1" style="stop-color:rgb(100%,100%,100%);stop-opacity:0;"/>
</radialGradient>
<radialGradient id="radial50" gradientUnits="userSpaceOnUse" cx="677.08" cy="1999.5" fx="677.08" fy="1999.5" r="16.201" gradientTransform="matrix(0.523204,0,0,0.111337,-91.199031,161.315592)">
<stop offset="0" style="stop-color:rgb(100%,100%,100%);stop-opacity:0.588235;"/>
<stop offset="1" style="stop-color:rgb(100%,100%,100%);stop-opacity:0;"/>
</radialGradient>
<radialGradient id="radial51" gradientUnits="userSpaceOnUse" cx="677.08" cy="1999.5" fx="677.08" fy="1999.5" r="16.201" gradientTransform="matrix(0.220919,0,0,0.0878362,-26.287717,254.938069)">
<stop offset="0" style="stop-color:rgb(100%,100%,100%);stop-opacity:0.588235;"/>
<stop offset="1" style="stop-color:rgb(100%,100%,100%);stop-opacity:0;"/>
</radialGradient>
<radialGradient id="radial52" gradientUnits="userSpaceOnUse" cx="677.08" cy="1999.5" fx="677.08" fy="1999.5" r="16.201" gradientTransform="matrix(0.220919,0,0,0.0878362,-19.734063,213.491227)">
<stop offset="0" style="stop-color:rgb(100%,100%,100%);stop-opacity:0.588235;"/>
<stop offset="1" style="stop-color:rgb(100%,100%,100%);stop-opacity:0;"/>
</radialGradient>
<linearGradient id="linear8" gradientUnits="userSpaceOnUse" x1="-771.72" y1="1219.1" x2="558.82" y2="2215.5" gradientTransform="matrix(0.388826,0,0,0.389172,0,0)">
<stop offset="0" style="stop-color:rgb(0%,0%,0%);stop-opacity:0.627451;"/>
<stop offset="0.15" style="stop-color:rgb(0%,0%,0%);stop-opacity:0.392157;"/>
<stop offset="1" style="stop-color:rgb(8.627451%,15.686275%,25.882353%);stop-opacity:0.0941176;"/>
</linearGradient>
<linearGradient id="linear9" gradientUnits="userSpaceOnUse" x1="256.35" y1="2296.9" x2="1210" y2="2296.9" gradientTransform="matrix(0.233984,0,0,0.134264,92.536591,643.301687)">
<stop offset="0" style="stop-color:rgb(0%,0%,0%);stop-opacity:0.627451;"/>
<stop offset="0.15" style="stop-color:rgb(0%,0%,0%);stop-opacity:0.392157;"/>
<stop offset="1" style="stop-color:rgb(8.627451%,15.686275%,25.882353%);stop-opacity:0.0941176;"/>
</linearGradient>
<radialGradient id="radial53" gradientUnits="userSpaceOnUse" cx="424.74" cy="2324.5" fx="424.74" fy="2324.5" r="104.16" gradientTransform="matrix(1.558491,0,0,0.721681,-435.679019,-789.007768)">
<stop offset="0" style="stop-color:rgb(0%,0%,0%);stop-opacity:0.627451;"/>
<stop offset="0.15" style="stop-color:rgb(0%,0%,0%);stop-opacity:0.392157;"/>
<stop offset="1" style="stop-color:rgb(8.627451%,15.686275%,25.882353%);stop-opacity:0.0941176;"/>
</radialGradient>
<radialGradient id="radial54" gradientUnits="userSpaceOnUse" cx="334.31" cy="1508.8" fx="334.31" fy="1508.8" r="115.32" gradientTransform="matrix(0.595642,0,0,0.278752,-66.224766,154.318462)">
<stop offset="0" style="stop-color:rgb(100%,100%,100%);stop-opacity:0.117647;"/>
<stop offset="1" style="stop-color:rgb(100%,100%,100%);stop-opacity:0;"/>
</radialGradient>
<radialGradient id="radial55" gradientUnits="userSpaceOnUse" cx="649.08" cy="1478.1" fx="649.08" fy="1478.1" r="141.39" gradientTransform="matrix(0.388826,0,0,0.100122,0,427.233268)">
<stop offset="0" style="stop-color:rgb(100%,100%,100%);stop-opacity:0.106113;"/>
<stop offset="1" style="stop-color:rgb(100%,100%,100%);stop-opacity:0;"/>
</radialGradient>
<radialGradient id="radial56" gradientUnits="userSpaceOnUse" cx="671.64" cy="1457.8" fx="671.64" fy="1457.8" r="85.141" gradientTransform="matrix(0.388826,0,0,0.112774,0,411.355041)">
<stop offset="0" style="stop-color:rgb(47.843137%,47.843137%,81.568627%);stop-opacity:1;"/>
<stop offset="1" style="stop-color:rgb(47.843137%,47.843137%,81.568627%);stop-opacity:0;"/>
</radialGradient>
<radialGradient id="radial57" gradientUnits="userSpaceOnUse" cx="174.66" cy="1471.9" fx="174.66" fy="1471.9" r="595.57" spreadMethod="reflect" gradientTransform="matrix(0.180337,0,0,0.0644975,-60.590684,319.872326)">
<stop offset="0" style="stop-color:rgb(0%,0%,0%);stop-opacity:0.627451;"/>
<stop offset="0.15" style="stop-color:rgb(0%,0%,0%);stop-opacity:0.392157;"/>
<stop offset="1" style="stop-color:rgb(8.627451%,15.686275%,25.882353%);stop-opacity:0.0941176;"/>
</radialGradient>
</defs>
<g id="surface1">
<path style=" stroke:none;fill-rule:nonzero;fill:url(#linear0);" d="M 263.996094 361.425781 C 149.296875 361.425781 54.582031 369.617188 35.765625 380.4375 C 67.960938 389.859375 157.730469 396.601562 263.996094 396.601562 C 370.257812 396.601562 460.019531 389.859375 492.214844 380.4375 C 473.398438 369.617188 378.695312 361.425781 263.996094 361.425781 Z M 263.996094 361.425781 "/>
<path style=" stroke:none;fill-rule:nonzero;fill:rgb(80%,80%,80%);fill-opacity:0.862745;" d="M 994.886719 27.546875 C 994.511719 27.554688 994.132812 27.589844 993.734375 27.65625 L 748.128906 58.046875 C 748.085938 57.925781 748.050781 57.796875 748.007812 57.683594 C 747.96875 57.582031 747.9375 57.484375 747.898438 57.390625 C 747.394531 56.148438 746.835938 55.53125 746.28125 55.53125 C 745.726562 55.53125 745.179688 56.152344 744.675781 57.390625 C 744.640625 57.484375 744.59375 57.582031 744.554688 57.683594 C 744.527344 57.761719 744.5 57.855469 744.46875 57.9375 C 744.464844 57.921875 744.453125 57.90625 744.445312 57.890625 C 743.445312 55.375 742.285156 55.382812 741.347656 57.914062 C 741.3125 58.007812 741.273438 58.101562 741.238281 58.207031 C 741.191406 58.34375 741.136719 58.492188 741.09375 58.644531 C 741.058594 58.550781 741.03125 58.460938 740.996094 58.375 C 740 55.824219 738.875 55.84375 738.007812 58.425781 C 737.972656 58.519531 737.941406 58.625 737.910156 58.730469 C 737.84375 58.9375 737.789062 59.152344 737.726562 59.386719 C 737.703125 59.3125 737.679688 59.238281 737.65625 59.167969 C 737.617188 59.066406 737.582031 58.96875 737.546875 58.875 C 736.558594 56.289062 735.476562 56.316406 734.675781 58.949219 C 734.648438 59.042969 734.621094 59.136719 734.59375 59.238281 C 734.511719 59.523438 734.433594 59.835938 734.363281 60.164062 C 734.308594 59.988281 734.257812 59.8125 734.203125 59.652344 C 734.167969 59.550781 734.128906 59.457031 734.09375 59.359375 C 733.113281 56.742188 732.078125 56.78125 731.347656 59.457031 C 731.320312 59.554688 731.300781 59.660156 731.273438 59.761719 C 731.183594 60.128906 731.085938 60.519531 731.007812 60.953125 C 730.925781 60.671875 730.839844 60.402344 730.753906 60.152344 C 730.71875 60.050781 730.679688 59.953125 730.644531 59.859375 C 729.667969 57.203125 728.675781 57.253906 728.019531 59.980469 C 727.996094 60.078125 727.96875 60.167969 727.945312 60.273438 C 727.839844 60.75 727.75 61.304688 727.667969 61.890625 C 727.546875 61.4375 727.429688 61.015625 727.300781 60.636719 C 727.269531 60.539062 727.226562 60.441406 727.191406 60.347656 C 726.222656 57.65625 725.277344 57.714844 724.6875 60.492188 C 724.667969 60.589844 724.648438 60.691406 724.628906 60.796875 C 724.511719 61.398438 724.417969 62.113281 724.335938 62.886719 C 724.175781 62.246094 724.007812 61.644531 723.839844 61.136719 C 723.804688 61.035156 723.773438 60.9375 723.742188 60.84375 C 722.78125 58.121094 721.878906 58.1875 721.359375 61.015625 C 721.339844 61.113281 721.316406 61.203125 721.300781 61.308594 C 721.171875 62.054688 721.085938 62.953125 721.019531 63.957031 C 720.816406 63.078125 720.601562 62.285156 720.386719 61.621094 C 720.355469 61.523438 720.324219 61.425781 720.289062 61.332031 C 719.335938 58.570312 718.480469 58.648438 718.03125 61.527344 C 718.015625 61.625 717.996094 61.726562 717.980469 61.828125 C 717.851562 62.753906 717.78125 63.90625 717.738281 65.199219 C 717.480469 64.015625 717.207031 62.964844 716.9375 62.121094 C 716.90625 62.023438 716.871094 61.925781 716.839844 61.828125 C 715.890625 59.035156 715.078125 59.121094 714.703125 62.046875 C 714.6875 62.148438 714.675781 62.25 714.664062 62.351562 C 714.371094 64.996094 713.195312 66.730469 713.195312 66.730469 C 713.195312 66.730469 711.558594 66.421875 710.070312 64.433594 C 710.007812 64.347656 709.941406 64.269531 709.878906 64.1875 C 708.175781 62.066406 707.136719 62.382812 707.09375 65.027344 C 707.09375 65.125 707.09375 65.226562 707.09375 65.332031 C 707.089844 66.773438 706.886719 67.742188 706.886719 67.742188 C 706.886719 67.742188 705.839844 67.941406 704.992188 66.972656 C 704.921875 66.894531 704.855469 66.816406 704.785156 66.742188 C 702.886719 64.710938 701.964844 65.085938 702.355469 67.738281 C 702.367188 67.835938 702.390625 67.941406 702.40625 68.042969 C 702.671875 69.804688 702.039062 69.917969 702.039062 69.917969 C 702.039062 69.917969 701.1875 70.761719 699.914062 69.515625 C 699.839844 69.441406 699.753906 69.378906 699.683594 69.308594 C 697.585938 67.367188 696.808594 67.800781 697.628906 70.464844 C 697.65625 70.558594 697.683594 70.660156 697.714844 70.757812 C 698.367188 72.828125 697.992188 73.992188 697.992188 73.992188 C 697.992188 73.992188 693.214844 70.203125 692.417969 70.828125 C 692.003906 71.152344 692.492188 72.550781 693.632812 74.613281 C 694.015625 75.308594 691.382812 73.914062 691.90625 74.746094 L 280.296875 568.253906 C 283.828125 571.972656 291.453125 573.984375 300.199219 573.035156 C 307.347656 572.257812 313.574219 569.679688 317.34375 566.332031 L 320.082031 563.023438 L 712.792969 92.203125 L 712.78125 92.191406 C 714.203125 91.96875 715.472656 91.765625 716.414062 91.972656 C 718.507812 93.71875 719.449219 90.816406 719.625 89.527344 C 719.636719 89.429688 719.648438 89.328125 719.660156 89.226562 C 719.738281 88.539062 719.789062 87.730469 719.816406 86.839844 C 720.011719 87.652344 720.210938 88.398438 720.414062 89.019531 C 720.445312 89.117188 720.476562 89.214844 720.511719 89.308594 C 721.464844 92.070312 722.324219 91.992188 722.769531 89.117188 C 722.785156 89.015625 722.804688 88.914062 722.820312 88.8125 C 722.894531 88.28125 722.945312 87.671875 722.988281 87.011719 C 723.136719 87.582031 723.273438 88.121094 723.425781 88.582031 C 723.460938 88.679688 723.503906 88.777344 723.535156 88.871094 C 724.496094 91.597656 725.398438 91.542969 725.917969 88.714844 C 725.9375 88.617188 725.949219 88.515625 725.964844 88.410156 C 726.03125 88.019531 726.097656 87.574219 726.148438 87.109375 C 726.25 87.472656 726.347656 87.828125 726.453125 88.140625 C 726.488281 88.242188 726.527344 88.339844 726.5625 88.433594 C 727.53125 91.125 728.476562 91.078125 729.066406 88.300781 C 729.085938 88.203125 729.105469 88.101562 729.125 87.996094 C 729.179688 87.714844 729.222656 87.394531 729.273438 87.070312 C 729.339844 87.292969 729.410156 87.503906 729.476562 87.703125 C 729.511719 87.804688 729.539062 87.914062 729.574219 88.007812 C 730.550781 90.664062 731.542969 90.617188 732.199219 87.886719 C 732.222656 87.789062 732.25 87.6875 732.273438 87.582031 C 732.316406 87.390625 732.367188 87.1875 732.40625 86.976562 C 732.4375 87.074219 732.46875 87.183594 732.503906 87.277344 C 732.539062 87.378906 732.566406 87.476562 732.601562 87.570312 C 733.582031 90.191406 734.617188 90.152344 735.347656 87.472656 C 735.375 87.375 735.40625 87.273438 735.433594 87.167969 C 735.457031 87.0625 735.492188 86.953125 735.515625 86.839844 C 735.554688 86.941406 735.589844 87.039062 735.625 87.132812 C 736.613281 89.71875 737.695312 89.6875 738.492188 87.058594 C 738.523438 86.964844 738.550781 86.859375 738.578125 86.757812 C 738.59375 86.710938 738.601562 86.65625 738.617188 86.609375 C 738.625 86.640625 738.640625 86.667969 738.652344 86.695312 C 739.648438 89.246094 740.773438 89.226562 741.640625 86.648438 C 741.671875 86.558594 741.695312 86.472656 741.726562 86.378906 C 742.714844 88.769531 743.851562 88.71875 744.777344 86.234375 C 744.789062 86.191406 744.808594 86.152344 744.824219 86.113281 C 745.804688 88.292969 746.957031 88.195312 747.921875 85.820312 C 747.949219 85.757812 747.972656 85.691406 747.996094 85.625 L 747.996094 86.660156 C 790.070312 82.328125 918.214844 66.191406 1000.792969 55.878906 C 1007.363281 54.128906 1006.554688 27.25 994.914062 27.515625 Z M 994.886719 27.546875 "/>
<path style=" stroke:none;fill-rule:nonzero;fill:rgb(0%,0%,100%);fill-opacity:0.862745;" d="M 1004.84375 45.761719 L 754.472656 74.960938 L 754.460938 74.960938 L 754.363281 74.976562 C 731.800781 74.074219 720.582031 73.4375 705.335938 86.210938 L 705.179688 86.347656 L 705.046875 86.503906 L 296.621094 573.28125 C 297.78125 573.257812 298.964844 573.191406 300.171875 573.0625 C 301.234375 572.945312 302.277344 572.78125 303.292969 572.585938 L 708.449219 89.703125 C 720.359375 77.144531 738.570312 80.714844 754.78125 79.621094 L 754.84375 79.621094 L 754.890625 79.609375 L 1004.25 50.53125 C 1004.582031 49.097656 1004.78125 47.472656 1004.832031 45.761719 Z M 1004.84375 45.761719 "/>
<path style=" stroke:none;fill-rule:nonzero;fill:rgb(13.72549%,13.72549%,98.039216%);fill-opacity:1;" d="M 994.886719 27.546875 C 994.511719 27.554688 994.132812 27.589844 993.734375 27.65625 L 748.128906 58.046875 C 748.085938 57.925781 748.050781 57.796875 748.007812 57.683594 C 747.96875 57.582031 747.9375 57.484375 747.898438 57.390625 C 747.828125 57.222656 747.761719 57.0625 747.691406 56.917969 L 744.726562 57.28125 C 744.710938 57.320312 744.691406 57.351562 744.675781 57.390625 C 744.640625 57.484375 744.59375 57.582031 744.554688 57.683594 C 744.527344 57.761719 744.5 57.855469 744.46875 57.9375 C 744.464844 57.921875 744.453125 57.90625 744.445312 57.890625 C 744.367188 57.6875 744.285156 57.511719 744.203125 57.34375 L 741.445312 57.671875 C 741.414062 57.75 741.378906 57.828125 741.347656 57.914062 C 741.3125 58.007812 741.273438 58.101562 741.238281 58.207031 C 741.191406 58.34375 741.136719 58.492188 741.09375 58.644531 C 741.058594 58.550781 741.03125 58.460938 740.996094 58.375 C 740.90625 58.148438 740.820312 57.941406 740.726562 57.753906 L 738.140625 58.070312 C 738.097656 58.1875 738.050781 58.296875 738.007812 58.425781 C 737.972656 58.519531 737.941406 58.625 737.910156 58.726562 C 737.84375 58.9375 737.789062 59.152344 737.726562 59.386719 C 737.703125 59.3125 737.679688 59.238281 737.65625 59.167969 C 737.617188 59.066406 737.582031 58.96875 737.546875 58.875 C 737.445312 58.613281 737.34375 58.386719 737.242188 58.179688 L 734.847656 58.460938 C 734.792969 58.613281 734.730469 58.773438 734.675781 58.949219 C 734.648438 59.042969 734.621094 59.136719 734.59375 59.238281 C 734.511719 59.523438 734.433594 59.835938 734.363281 60.164062 C 734.308594 59.988281 734.257812 59.8125 734.203125 59.652344 C 734.167969 59.550781 734.128906 59.457031 734.09375 59.359375 C 733.988281 59.074219 733.886719 58.816406 733.777344 58.59375 L 731.542969 58.863281 C 731.480469 59.046875 731.40625 59.238281 731.347656 59.457031 C 731.320312 59.554688 731.300781 59.660156 731.273438 59.761719 C 731.183594 60.128906 731.085938 60.519531 731.007812 60.953125 C 730.925781 60.671875 730.839844 60.402344 730.753906 60.152344 C 730.71875 60.050781 730.679688 59.953125 730.644531 59.859375 C 730.523438 59.535156 730.410156 59.253906 730.289062 59.007812 L 728.226562 59.261719 C 728.15625 59.480469 728.082031 59.714844 728.019531 59.980469 C 727.996094 60.078125 727.96875 60.167969 727.945312 60.273438 C 727.851562 60.691406 727.777344 61.175781 727.703125 61.683594 L 999.332031 29.03125 C 998.078125 28.058594 996.597656 27.507812 994.886719 27.546875 Z M 726.804688 59.433594 L 724.898438 59.664062 C 724.820312 59.910156 724.757812 60.179688 724.691406 60.492188 C 724.667969 60.589844 724.648438 60.691406 724.628906 60.796875 C 724.554688 61.175781 724.492188 61.617188 724.433594 62.074219 L 727.605469 61.695312 C 727.503906 61.320312 727.410156 60.957031 727.300781 60.636719 C 727.269531 60.539062 727.226562 60.441406 727.191406 60.347656 C 727.066406 59.992188 726.929688 59.691406 726.804688 59.433594 Z M 723.328125 59.847656 L 721.566406 60.066406 C 721.488281 60.335938 721.425781 60.65625 721.359375 61.015625 C 721.34375 61.113281 721.316406 61.203125 721.300781 61.308594 C 721.242188 61.664062 721.199219 62.054688 721.152344 62.472656 L 724.132812 62.109375 C 724.035156 61.761719 723.9375 61.429688 723.839844 61.136719 C 723.804688 61.035156 723.777344 60.9375 723.742188 60.84375 C 723.601562 60.449219 723.464844 60.125 723.328125 59.847656 Z M 719.855469 60.273438 L 718.25 60.457031 C 718.167969 60.753906 718.097656 61.109375 718.03125 61.527344 C 718.015625 61.625 717.996094 61.726562 717.984375 61.828125 C 717.9375 62.144531 717.90625 62.496094 717.875 62.863281 L 720.65625 62.523438 C 720.566406 62.203125 720.476562 61.898438 720.390625 61.625 C 720.355469 61.523438 720.324219 61.425781 720.292969 61.332031 C 720.144531 60.90625 719.996094 60.5625 719.855469 60.273438 Z M 716.378906 60.6875 L 714.921875 60.855469 C 714.839844 61.183594 714.761719 61.574219 714.703125 62.046875 C 714.6875 62.148438 714.675781 62.25 714.664062 62.351562 C 714.628906 62.667969 714.589844 62.976562 714.53125 63.265625 L 717.179688 62.949219 C 717.097656 62.65625 717.019531 62.375 716.9375 62.121094 C 716.90625 62.023438 716.871094 61.925781 716.839844 61.828125 C 716.683594 61.367188 716.527344 60.992188 716.378906 60.6875 Z M 708.054688 62.789062 C 707.589844 62.785156 707.28125 63.242188 707.15625 64.152344 L 709.585938 63.859375 C 708.96875 63.15625 708.457031 62.792969 708.054688 62.789062 Z M 708.054688 62.789062 "/>
<path style=" stroke:none;fill-rule:nonzero;fill:rgb(13.72549%,13.72549%,98.039216%);fill-opacity:1;" d="M 702.878906 65.441406 C 702.34375 65.46875 702.152344 66.214844 702.34375 67.632812 L 704.070312 66.0625 C 703.578125 65.644531 703.175781 65.429688 702.878906 65.441406 Z M 698.519531 68.398438 L 697.375 69.433594 C 697.429688 69.726562 697.507812 70.070312 697.628906 70.464844 C 697.65625 70.558594 697.683594 70.660156 697.714844 70.757812 C 697.816406 71.074219 697.878906 71.359375 697.933594 71.632812 L 700.097656 69.675781 C 700.039062 69.625 699.976562 69.578125 699.914062 69.515625 C 699.839844 69.445312 699.757812 69.378906 699.683594 69.3125 C 699.234375 68.894531 698.84375 68.597656 698.519531 68.398438 Z M 694.835938 71.753906 L 693 73.410156 C 693.183594 73.78125 693.390625 74.175781 693.632812 74.613281 C 694.019531 75.308594 691.382812 73.917969 691.90625 74.746094 L 427.152344 392.179688 C 427.472656 392.179688 427.773438 392.03125 427.964844 391.777344 L 692.054688 76.984375 L 692.066406 76.972656 L 696.546875 72.898438 C 696.027344 72.519531 695.425781 72.125 694.835938 71.753906 Z M 694.835938 71.753906 "/>
<path style=" stroke:none;fill-rule:nonzero;fill:url(#radial0);" d="M 285.410156 403.144531 C 285.164062 404.699219 285.066406 406.375 285.15625 408.125 C 289.550781 427.816406 317.28125 694.828125 302.847656 407.269531 C 302.773438 405.828125 302.59375 404.464844 302.300781 403.144531 Z M 285.410156 403.144531 "/>
<path style=" stroke:none;fill-rule:nonzero;fill:url(#radial1);" d="M 268.492188 531.492188 C 240.609375 533.070312 217.527344 540.328125 217.527344 551.230469 C 217.527344 562.132812 240.347656 570.972656 268.492188 570.972656 C 296.636719 570.972656 317.265625 562.375 321.679688 551.625 C 326.324219 540.3125 364.769531 526.046875 268.492188 531.492188 Z M 268.492188 531.492188 "/>
<path style=" stroke:none;fill-rule:nonzero;fill:url(#radial2);" d="M 265.476562 397.695312 C 275.253906 397.695312 283.125 409.992188 283.125 425.261719 C 285.714844 960.375 247.832031 958.117188 247.832031 425.261719 C 247.832031 409.992188 255.703125 397.695312 265.480469 397.695312 Z M 265.476562 397.695312 "/>
<path style=" stroke:none;fill-rule:nonzero;fill:rgb(80%,80%,80%);fill-opacity:0.392157;" d="M 324.28125 594.65625 C 308.347656 595.566406 291.59375 596.125 274.269531 596.296875 L 70.699219 787.78125 L 64.1875 793.90625 C 55.808594 809.304688 69.523438 834.273438 85.269531 819.460938 Z M 324.28125 594.65625 "/>
<path style=" stroke:none;fill-rule:nonzero;fill:rgb(0%,0%,100%);fill-opacity:0.392157;" d="M 310.257812 595.355469 C 307.320312 595.480469 304.363281 595.582031 301.378906 595.683594 L 65.492188 817.746094 C 66.628906 819.457031 67.980469 820.90625 69.5 821.976562 L 310.257812 595.371094 Z M 310.257812 595.355469 "/>
<path style=" stroke:none;fill-rule:nonzero;fill:url(#radial3);" d="M 264.578125 802.746094 C 374.910156 802.746094 463.738281 788.226562 463.738281 815.445312 L 463.738281 840.210938 C 463.738281 867.429688 374.914062 889.34375 264.578125 889.34375 C 154.242188 889.34375 65.414062 867.429688 65.414062 840.210938 L 65.414062 815.445312 C 65.414062 788.226562 154.238281 802.746094 264.578125 802.746094 Z M 264.578125 802.746094 "/>
<path style=" stroke:none;fill-rule:nonzero;fill:url(#radial4);" d="M 263.839844 516.121094 C 154.273438 516.121094 63.796875 533.207031 45.824219 555.773438 C 76.578125 575.429688 162.332031 589.484375 263.839844 589.484375 C 365.347656 589.484375 451.09375 575.429688 481.847656 555.773438 C 463.875 533.207031 373.414062 516.121094 263.839844 516.121094 Z M 263.839844 516.121094 "/>
<path style=" stroke:none;fill-rule:nonzero;fill:url(#linear1);" d="M 484.980469 563.09375 C 434.273438 582.265625 353.296875 594.617188 261.714844 594.617188 C 173.558594 594.617188 95.234375 583.175781 44.269531 565.222656 L 58.667969 871.164062 C 58.578125 872.003906 58.59375 907.441406 58.59375 907.441406 C 58.59375 945.933594 150.46875 976.921875 264.582031 976.921875 C 378.695312 976.921875 470.636719 945.9375 470.558594 907.441406 L 470.484375 871.164062 C 470.484375 870.625 478.304688 704.714844 484.980469 563.09375 Z M 484.980469 563.09375 "/>
<path style=" stroke:none;fill-rule:nonzero;fill:url(#linear2);" d="M 493.457031 379.550781 C 437.816406 386.195312 355.800781 390.378906 264 390.378906 C 172.828125 390.378906 91.3125 386.25 35.710938 379.683594 L 35.808594 385.605469 L 58.664062 871.175781 C 58.578125 871.996094 58.59375 907.449219 58.59375 907.449219 C 58.59375 945.9375 150.46875 976.914062 264.585938 976.914062 C 378.695312 976.914062 470.632812 945.9375 470.558594 907.449219 L 470.480469 871.175781 C 470.480469 870.320312 492.796875 397.359375 493.109375 390.277344 C 493.265625 390.082031 493.417969 380.269531 493.457031 379.566406 Z M 493.457031 379.550781 "/>
<path style=" stroke:none;fill-rule:nonzero;fill:url(#radial5);" d="M 403.40625 860.886719 C 403.484375 863.644531 372.683594 870.226562 336.886719 869.558594 C 202.976562 867.058594 222.070312 874.429688 165.167969 871.273438 C 155.757812 870.363281 192.722656 865.765625 186.734375 863.074219 C 176.074219 858.285156 133.042969 857.671875 137.714844 857.265625 C 161.382812 855.199219 292.640625 858.253906 336.609375 859.582031 C 380.578125 860.90625 403.335938 858.132812 403.410156 860.886719 Z M 403.40625 860.886719 "/>
<path style=" stroke:none;fill-rule:nonzero;fill:url(#radial6);" d="M 264.578125 854.464844 C 378.691406 854.464844 470.5625 833.933594 470.5625 872.425781 L 470.5625 907.449219 C 470.5625 945.941406 378.691406 976.929688 264.578125 976.929688 C 150.460938 976.929688 58.59375 945.941406 58.59375 907.449219 L 58.59375 872.425781 C 58.59375 833.933594 150.460938 854.464844 264.578125 854.464844 Z M 264.578125 854.464844 "/>
<path style=" stroke:none;fill-rule:nonzero;fill:url(#radial7);" d="M 264.59375 910.625 C 154.609375 910.625 66.0625 877.035156 66.109375 873.210938 L 63.105469 807.703125 C 84.867188 819.71875 147.871094 849.976562 262.105469 853.050781 C 476.824219 858.832031 430.757812 817.746094 466.242188 803.703125 C 468.140625 826.851562 462.757812 866.167969 462.9375 871.605469 C 463.113281 877.039062 374.578125 910.625 264.59375 910.625 Z M 264.59375 910.625 "/>
<path style=" stroke:none;fill-rule:nonzero;fill:url(#radial8);" d="M 429.273438 898.945312 C 429.398438 899.820312 425.265625 901.152344 420.035156 901.917969 C 414.804688 902.6875 410.460938 902.597656 410.335938 901.71875 C 410.207031 900.84375 414.339844 899.511719 419.570312 898.746094 C 424.800781 897.976562 429.144531 898.066406 429.273438 898.945312 Z M 429.273438 898.945312 "/>
<path style=" stroke:none;fill-rule:nonzero;fill:url(#radial9);" d="M 423.878906 888.28125 C 423.949219 888.851562 421.71875 889.714844 418.894531 890.210938 C 416.070312 890.707031 413.726562 890.648438 413.65625 890.082031 C 413.585938 889.511719 415.820312 888.648438 418.644531 888.152344 C 421.464844 887.65625 423.8125 887.714844 423.878906 888.28125 Z M 423.878906 888.28125 "/>
<path style=" stroke:none;fill-rule:nonzero;fill:url(#radial10);" d="M 431.683594 863.5 C 431.878906 864.035156 429.902344 865.386719 427.265625 866.511719 C 424.628906 867.640625 422.332031 868.117188 422.136719 867.582031 C 421.941406 867.042969 423.917969 865.695312 426.554688 864.566406 C 429.1875 863.441406 431.484375 862.960938 431.683594 863.5 Z M 431.683594 863.5 "/>
<path style=" stroke:none;fill-rule:nonzero;fill:url(#radial11);" d="M 77.40625 846.199219 C 77.050781 846.703125 74.328125 845.398438 71.324219 843.285156 C 68.316406 841.171875 66.167969 839.050781 66.523438 838.546875 C 66.875 838.042969 69.597656 839.347656 72.605469 841.460938 C 75.609375 843.574219 77.757812 845.695312 77.40625 846.199219 Z M 77.40625 846.199219 "/>
<path style=" stroke:none;fill-rule:nonzero;fill:url(#radial12);" d="M 85.648438 886.179688 C 85.480469 886.773438 82.480469 886.453125 78.941406 885.460938 C 75.40625 884.46875 72.671875 883.183594 72.839844 882.59375 C 73.003906 882 76.007812 882.320312 79.542969 883.3125 C 83.078125 884.304688 85.8125 885.589844 85.648438 886.179688 Z M 85.648438 886.179688 "/>
<path style=" stroke:none;fill-rule:nonzero;fill:url(#radial13);" d="M 99.75 896.589844 C 99.636719 897.195312 96.617188 897.144531 93.007812 896.46875 C 89.398438 895.796875 86.5625 894.761719 86.675781 894.15625 C 86.785156 893.550781 89.804688 893.605469 93.414062 894.277344 C 97.027344 894.949219 99.863281 895.984375 99.75 896.589844 Z M 99.75 896.589844 "/>
<path style=" stroke:none;fill-rule:nonzero;fill:url(#radial14);" d="M 69.609375 830.554688 C 69.410156 830.953125 67.578125 830.167969 65.515625 828.804688 C 63.453125 827.441406 61.941406 826.011719 62.140625 825.613281 C 62.339844 825.21875 64.171875 826 66.234375 827.363281 C 68.296875 828.730469 69.804688 830.15625 69.609375 830.554688 Z M 69.609375 830.554688 "/>
<path style=" stroke:none;fill-rule:nonzero;fill:url(#radial15);" d="M 461.148438 918.019531 C 424.789062 942.339844 342.789062 959.222656 247.050781 959.222656 C 205.066406 959.222656 165.734375 955.96875 131.730469 950.273438 C 167.546875 960.453125 213.863281 966.582031 264.578125 966.582031 C 357.054688 966.582031 434.972656 946.222656 461.152344 918.019531 Z M 461.148438 918.019531 "/>
<path style=" stroke:none;fill-rule:nonzero;fill:url(#linear3);" d="M 470.480469 874.46875 C 428.316406 896.816406 335.480469 909.304688 228.269531 904.199219 C 181.25 901.960938 137.398438 896.613281 99.660156 889.113281 C 139.160156 901.1875 190.660156 909.777344 247.449219 912.480469 C 351.007812 917.414062 439.476562 901.238281 470.480469 874.46875 Z M 470.480469 874.46875 "/>
<path style=" stroke:none;fill-rule:nonzero;fill:url(#linear4);" d="M 58.652344 855.324219 C 58.617188 855.832031 58.589844 856.34375 58.589844 856.855469 L 58.589844 863.082031 C 58.59375 889.816406 141.789062 897.953125 193.050781 901.890625 C 250.65625 906.316406 304.488281 904.402344 347.195312 897.632812 C 307.4375 900.203125 262.105469 899.933594 214.410156 896.269531 C 154.953125 891.703125 68.878906 888.308594 58.652344 855.320312 Z M 58.652344 855.324219 "/>
<path style=" stroke:none;fill-rule:nonzero;fill:url(#linear5);" d="M 62.734375 886.652344 C 109.464844 918.058594 48.953125 901.855469 91.605469 935.25 C 55.921875 916.601562 63.074219 910.269531 62.734375 886.652344 Z M 62.734375 886.652344 "/>
<path style=" stroke:none;fill-rule:nonzero;fill:url(#linear6);" d="M 397.378906 808.15625 C 374.308594 808.15625 355.605469 817.300781 355.605469 828.585938 C 355.605469 838.613281 370.375 846.945312 389.859375 848.675781 C 412.894531 845.410156 427.191406 840.746094 436.675781 835.53125 C 438.277344 833.363281 439.15625 831.027344 439.15625 828.585938 C 439.15625 817.300781 420.449219 808.15625 397.378906 808.15625 Z M 397.378906 808.15625 "/>
<path style=" stroke:none;fill-rule:nonzero;fill:url(#radial16);" d="M 95.230469 580.332031 C 99.242188 581.570312 107.78125 583.476562 117.265625 585.222656 C 154.636719 592.097656 206.183594 596.363281 263.125 596.363281 C 320.066406 596.363281 371.609375 592.097656 408.984375 585.222656 C 418.148438 583.539062 426.441406 581.691406 430.613281 580.394531 C 430.421875 580.425781 430.234375 580.460938 430.042969 580.492188 C 387.277344 587.363281 328.289062 591.632812 263.125 591.632812 C 197.964844 591.632812 138.972656 587.363281 96.203125 580.492188 C 95.875 580.4375 95.558594 580.386719 95.230469 580.332031 Z M 95.230469 580.332031 "/>
<path style=" stroke:none;fill-rule:nonzero;fill:url(#linear7);" d="M 59.019531 842.832031 C 74.023438 852.914062 95.417969 864.386719 91.9375 864.546875 C 83.097656 864.957031 45.878906 848.164062 92.347656 885.117188 C 57.40625 876.871094 59.363281 866.449219 59.019531 842.828125 Z M 59.019531 842.832031 "/>
<path style=" stroke:none;fill-rule:nonzero;fill:url(#radial17);" d="M 45.90625 563.054688 C 45.878906 563.09375 45.847656 563.136719 45.820312 563.175781 C 76.578125 586.492188 162.332031 603.164062 263.84375 603.164062 C 365.347656 603.164062 451.097656 586.492188 481.851562 563.175781 C 481.824219 563.136719 481.792969 563.09375 481.765625 563.054688 C 446.484375 584.488281 362.425781 599.480469 263.84375 599.480469 C 165.257812 599.480469 81.191406 584.492188 45.90625 563.054688 Z M 45.90625 563.054688 "/>
<path style=" stroke:none;fill-rule:nonzero;fill:url(#radial18);" d="M 464.761719 828.003906 C 459.964844 830.507812 453.445312 833 445.554688 835.203125 C 432.566406 838.824219 415.890625 841.886719 396.839844 844.324219 C 340.753906 852.507812 111.472656 863.585938 64.371094 828.101562 L 64.761719 836.394531 C 69.480469 838.667969 75.167969 840.652344 81.722656 842.535156 C 94.808594 846.292969 111.382812 849.371094 130.359375 851.851562 C 168.316406 856.808594 215.867188 859.3125 263.609375 859.355469 C 311.347656 859.394531 359.234375 856.984375 397.828125 852.046875 C 417.121094 849.578125 434.082031 846.472656 447.632812 842.695312 C 453.984375 840.921875 459.574219 839.042969 464.351562 836.941406 C 464.449219 834.835938 464.640625 830.640625 464.765625 828.003906 Z M 464.761719 828.003906 "/>
<path style=" stroke:none;fill-rule:nonzero;fill:url(#radial19);" d="M 433.617188 858.902344 C 426.476562 858.875 433.542969 868.398438 415.664062 872.453125 C 374.976562 881.679688 304.191406 894.246094 258.132812 892.238281 C 150.355469 886.558594 111.292969 876.902344 98.6875 868.914062 C 98.523438 868.433594 98.390625 867.972656 98.296875 867.511719 C 88.15625 867.4375 78.753906 866.738281 70.863281 865.566406 C 70.863281 865.578125 70.855469 865.582031 70.851562 865.59375 C 70.851562 882.578125 158.605469 896.347656 266.859375 896.347656 C 375.113281 896.347656 455.835938 883.257812 455.835938 866.273438 C 443.042969 860.90625 436.863281 858.917969 433.617188 858.902344 Z M 433.617188 858.902344 "/>
<path style=" stroke:none;fill-rule:nonzero;fill:url(#radial20);" d="M 429.109375 841.273438 C 429.109375 842.472656 357.128906 843.441406 268.339844 843.441406 C 179.546875 843.441406 107.570312 842.472656 107.570312 841.273438 C 107.570312 840.078125 179.546875 839.105469 268.339844 839.105469 C 357.128906 839.105469 429.109375 840.078125 429.109375 841.273438 Z M 429.109375 841.273438 "/>
<path style=" stroke:none;fill-rule:nonzero;fill:url(#radial21);" d="M 263.839844 516.121094 C 154.273438 516.121094 63.792969 533.214844 45.820312 555.78125 C 46.402344 556.152344 47.007812 556.519531 47.628906 556.886719 C 69.222656 535.324219 157.546875 519.234375 263.839844 519.234375 C 370.140625 519.234375 458.453125 535.324219 480.039062 556.886719 C 480.660156 556.519531 481.265625 556.152344 481.847656 555.78125 C 463.875 533.214844 373.40625 516.121094 263.839844 516.121094 Z M 263.839844 516.121094 "/>
<path style=" stroke:none;fill-rule:nonzero;fill:url(#radial22);" d="M 278.238281 595.222656 C 278.238281 596.21875 272.558594 597.027344 265.546875 597.027344 C 258.535156 597.027344 252.855469 596.21875 252.855469 595.222656 C 252.855469 594.226562 258.535156 593.417969 265.546875 593.417969 C 272.558594 593.417969 278.238281 594.226562 278.238281 595.222656 Z M 278.238281 595.222656 "/>
<path style=" stroke:none;fill-rule:nonzero;fill:url(#radial23);" d="M 273.605469 789.570312 C 273.605469 790.199219 269.210938 790.710938 263.785156 790.710938 C 258.363281 790.710938 253.96875 790.199219 253.96875 789.570312 C 253.96875 788.941406 258.363281 788.433594 263.785156 788.433594 C 269.210938 788.433594 273.605469 788.941406 273.605469 789.570312 Z M 273.605469 789.570312 "/>
<path style=" stroke:none;fill-rule:nonzero;fill:url(#radial24);" d="M 278.609375 822.574219 C 278.609375 823.574219 271.640625 824.378906 263.042969 824.378906 C 254.445312 824.378906 247.476562 823.574219 247.476562 822.574219 C 247.476562 821.578125 254.445312 820.773438 263.042969 820.773438 C 271.640625 820.773438 278.609375 821.578125 278.609375 822.574219 Z M 278.609375 822.574219 "/>
<path style=" stroke:none;fill-rule:nonzero;fill:url(#radial25);" d="M 274.972656 833.121094 C 274.972656 834.117188 269.511719 834.925781 262.777344 834.925781 C 256.039062 834.925781 250.578125 834.117188 250.578125 833.121094 C 250.578125 832.125 256.039062 831.320312 262.777344 831.320312 C 269.511719 831.320312 274.972656 832.125 274.972656 833.121094 Z M 274.972656 833.121094 "/>
<path style=" stroke:none;fill-rule:nonzero;fill:url(#radial26);" d="M 278.609375 848.183594 C 278.609375 849.179688 271.640625 849.988281 263.042969 849.988281 C 254.445312 849.988281 247.476562 849.179688 247.476562 848.183594 C 247.476562 847.1875 254.445312 846.378906 263.042969 846.378906 C 271.640625 846.378906 278.609375 847.1875 278.609375 848.183594 Z M 278.609375 848.183594 "/>
<path style=" stroke:none;fill-rule:nonzero;fill:url(#radial27);" d="M 275.234375 864.082031 C 275.234375 864.859375 269.773438 865.492188 263.035156 865.492188 C 256.300781 865.492188 250.839844 864.859375 250.839844 864.082031 C 250.839844 863.300781 256.300781 862.667969 263.035156 862.667969 C 269.773438 862.667969 275.234375 863.300781 275.234375 864.082031 Z M 275.234375 864.082031 "/>
<path style=" stroke:none;fill-rule:nonzero;fill:url(#radial28);" d="M 272.867188 858.222656 C 272.867188 858.851562 268.472656 859.359375 263.046875 859.359375 C 257.625 859.359375 253.226562 858.851562 253.226562 858.222656 C 253.226562 857.59375 257.625 857.082031 263.046875 857.082031 C 268.472656 857.082031 272.867188 857.59375 272.867188 858.222656 Z M 272.867188 858.222656 "/>
<path style=" stroke:none;fill-rule:nonzero;fill:url(#radial29);" d="M 286.015625 871.261719 C 286.015625 872.257812 279.046875 873.066406 270.449219 873.066406 C 261.851562 873.066406 254.882812 872.257812 254.882812 871.261719 C 254.882812 870.265625 261.851562 869.457031 270.449219 869.457031 C 279.046875 869.457031 286.015625 870.265625 286.015625 871.261719 Z M 286.015625 871.261719 "/>
<path style=" stroke:none;fill-rule:nonzero;fill:url(#radial30);" d="M 274.496094 816.699219 C 274.496094 817.695312 269.035156 818.503906 262.296875 818.503906 C 255.5625 818.503906 250.101562 817.695312 250.101562 816.699219 C 250.101562 815.703125 255.5625 814.894531 262.296875 814.894531 C 269.035156 814.894531 274.496094 815.703125 274.496094 816.699219 Z M 274.496094 816.699219 "/>
<path style=" stroke:none;fill-rule:nonzero;fill:url(#radial31);" d="M 275.472656 800.578125 C 275.472656 801.421875 269.578125 802.105469 262.3125 802.105469 C 255.042969 802.105469 249.152344 801.421875 249.152344 800.578125 C 249.152344 799.738281 255.042969 799.054688 262.3125 799.054688 C 269.578125 799.054688 275.472656 799.738281 275.472656 800.578125 Z M 275.472656 800.578125 "/>
<path style=" stroke:none;fill-rule:nonzero;fill:url(#radial32);" d="M 277.796875 839.480469 C 277.796875 840.355469 271.6875 841.0625 264.152344 841.0625 C 256.621094 841.0625 250.511719 840.355469 250.511719 839.480469 C 250.511719 838.609375 256.621094 837.902344 264.152344 837.902344 C 271.6875 837.902344 277.796875 838.609375 277.796875 839.480469 Z M 277.796875 839.480469 "/>
<path style=" stroke:none;fill-rule:nonzero;fill:url(#radial33);" d="M 278.164062 795.15625 C 278.164062 796.027344 272.058594 796.738281 264.523438 796.738281 C 256.988281 796.738281 250.882812 796.027344 250.882812 795.15625 C 250.882812 794.28125 256.988281 793.574219 264.523438 793.574219 C 272.058594 793.574219 278.164062 794.28125 278.164062 795.15625 Z M 278.164062 795.15625 "/>
<path style=" stroke:none;fill-rule:nonzero;fill:url(#radial34);" d="M 294.191406 932.4375 C 294.191406 933.957031 283.5625 935.191406 270.453125 935.191406 C 257.34375 935.191406 246.714844 933.957031 246.714844 932.4375 C 246.714844 930.921875 257.34375 929.6875 270.453125 929.6875 C 283.5625 929.6875 294.191406 930.921875 294.191406 932.4375 Z M 294.191406 932.4375 "/>
<path style=" stroke:none;fill-rule:nonzero;fill:url(#radial35);" d="M 286.046875 960.769531 C 286.046875 961.769531 279.058594 962.578125 270.4375 962.578125 C 261.816406 962.578125 254.828125 961.769531 254.828125 960.769531 C 254.828125 959.769531 261.816406 958.960938 270.4375 958.960938 C 279.058594 958.960938 286.046875 959.769531 286.046875 960.769531 Z M 286.046875 960.769531 "/>
<path style=" stroke:none;fill-rule:nonzero;fill:url(#radial36);" d="M 288.097656 968.027344 C 288.097656 969.15625 280.191406 970.074219 270.445312 970.074219 C 260.695312 970.074219 252.792969 969.15625 252.792969 968.027344 C 252.792969 966.898438 260.695312 965.984375 270.445312 965.984375 C 280.191406 965.984375 288.097656 966.898438 288.097656 968.027344 Z M 288.097656 968.027344 "/>
<path style=" stroke:none;fill-rule:nonzero;fill:url(#radial37);" d="M 288.097656 909.339844 C 288.097656 910.46875 280.191406 911.386719 270.445312 911.386719 C 260.695312 911.386719 252.792969 910.46875 252.792969 909.339844 C 252.792969 908.210938 260.695312 907.296875 270.445312 907.296875 C 280.191406 907.296875 288.097656 908.210938 288.097656 909.339844 Z M 288.097656 909.339844 "/>
<path style=" stroke:none;fill-rule:nonzero;fill:url(#radial38);" d="M 288.097656 896.652344 C 288.097656 897.785156 280.191406 898.699219 270.445312 898.699219 C 260.695312 898.699219 252.792969 897.785156 252.792969 896.652344 C 252.792969 895.523438 260.695312 894.609375 270.445312 894.609375 C 280.191406 894.609375 288.097656 895.523438 288.097656 896.652344 Z M 288.097656 896.652344 "/>
<path style=" stroke:none;fill-rule:nonzero;fill:url(#radial39);" d="M 263.6875 868.460938 C 263.6875 869.457031 261.355469 870.261719 258.472656 870.261719 C 255.59375 870.261719 253.257812 869.457031 253.257812 868.460938 C 253.257812 867.464844 255.59375 866.65625 258.472656 866.65625 C 261.355469 866.65625 263.6875 867.464844 263.6875 868.460938 Z M 263.6875 868.460938 "/>
<path style=" stroke:none;fill-rule:nonzero;fill:url(#radial40);" d="M 275.234375 827.714844 C 275.234375 828.710938 269.773438 829.515625 263.035156 829.515625 C 256.300781 829.515625 250.839844 828.710938 250.839844 827.714844 C 250.839844 826.71875 256.300781 825.910156 263.035156 825.910156 C 269.773438 825.910156 275.234375 826.71875 275.234375 827.714844 Z M 275.234375 827.714844 "/>
<path style=" stroke:none;fill-rule:nonzero;fill:url(#radial41);" d="M 117.914062 872.628906 C 117.765625 873.226562 114.753906 872.992188 111.191406 872.105469 C 107.625 871.21875 104.859375 870.019531 105.003906 869.421875 C 105.152344 868.824219 108.164062 869.054688 111.726562 869.941406 C 115.292969 870.828125 118.0625 872.03125 117.914062 872.628906 Z M 117.914062 872.628906 "/>
<path style=" stroke:none;fill-rule:nonzero;fill:url(#radial42);" d="M 275.886719 588.722656 C 275.886719 589.71875 271.730469 590.527344 266.597656 590.527344 C 261.46875 590.527344 257.308594 589.71875 257.308594 588.722656 C 257.308594 587.726562 261.46875 586.917969 266.597656 586.917969 C 271.730469 586.917969 275.886719 587.726562 275.886719 588.722656 Z M 275.886719 588.722656 "/>
<path style=" stroke:none;fill-rule:nonzero;fill:url(#radial43);" d="M 273.988281 555.019531 C 273.988281 556.015625 267.390625 556.824219 259.25 556.824219 C 251.113281 556.824219 244.515625 556.015625 244.515625 555.019531 C 244.515625 554.023438 251.113281 553.214844 259.25 553.214844 C 267.390625 553.214844 273.988281 554.023438 273.988281 555.019531 Z M 273.988281 555.019531 "/>
<path style=" stroke:none;fill-rule:nonzero;fill:url(#radial44);" d="M 272.515625 566.265625 C 272.515625 567.261719 267.746094 568.070312 261.867188 568.070312 C 255.984375 568.070312 251.214844 567.261719 251.214844 566.265625 C 251.214844 565.269531 255.984375 564.464844 261.867188 564.464844 C 267.746094 564.464844 272.515625 565.269531 272.515625 566.265625 Z M 272.515625 566.265625 "/>
<path style=" stroke:none;fill-rule:nonzero;fill:url(#radial45);" d="M 270.753906 530.285156 C 270.753906 531.332031 265.753906 532.175781 259.585938 532.175781 C 253.421875 532.175781 248.421875 531.332031 248.421875 530.285156 C 248.421875 529.242188 253.421875 528.394531 259.585938 528.394531 C 265.753906 528.394531 270.753906 529.242188 270.753906 530.285156 Z M 270.753906 530.285156 "/>
<path style=" stroke:none;fill-rule:nonzero;fill:url(#radial46);" d="M 278.035156 412.464844 C 278.035156 413.460938 271.4375 414.269531 263.296875 414.269531 C 255.160156 414.269531 248.5625 413.460938 248.5625 412.464844 C 248.5625 411.46875 255.160156 410.664062 263.296875 410.664062 C 271.4375 410.664062 278.035156 411.46875 278.035156 412.464844 Z M 278.035156 412.464844 "/>
<path style=" stroke:none;fill-rule:nonzero;fill:url(#radial47);" d="M 271.789062 406.707031 C 271.789062 407.703125 267.992188 408.511719 263.3125 408.511719 C 258.628906 408.511719 254.835938 407.703125 254.835938 406.707031 C 254.835938 405.710938 258.628906 404.902344 263.3125 404.902344 C 267.992188 404.902344 271.789062 405.710938 271.789062 406.707031 Z M 271.789062 406.707031 "/>
<path style=" stroke:none;fill-rule:nonzero;fill:url(#radial48);" d="M 275.121094 388.648438 C 275.121094 389.644531 271.324219 390.453125 266.644531 390.453125 C 261.960938 390.453125 258.167969 389.644531 258.167969 388.648438 C 258.167969 387.652344 261.960938 386.84375 266.644531 386.84375 C 271.324219 386.84375 275.121094 387.652344 275.121094 388.648438 Z M 275.121094 388.648438 "/>
<path style=" stroke:none;fill-rule:nonzero;fill:url(#radial49);" d="M 275.121094 385.886719 C 275.121094 386.882812 271.324219 387.691406 266.644531 387.691406 C 261.960938 387.691406 258.167969 386.882812 258.167969 385.886719 C 258.167969 384.890625 261.960938 384.082031 266.644531 384.082031 C 271.324219 384.082031 275.121094 384.890625 275.121094 385.886719 Z M 275.121094 385.886719 "/>
<path style=" stroke:none;fill-rule:nonzero;fill:url(#radial50);" d="M 271.527344 383.902344 C 271.527344 384.898438 267.734375 385.703125 263.050781 385.703125 C 258.371094 385.703125 254.574219 384.898438 254.574219 383.902344 C 254.574219 382.90625 258.371094 382.097656 263.050781 382.097656 C 267.734375 382.097656 271.527344 382.90625 271.527344 383.902344 Z M 271.527344 383.902344 "/>
<path style=" stroke:none;fill-rule:nonzero;fill:url(#radial51);" d="M 126.871094 430.539062 C 126.871094 431.324219 125.269531 431.964844 123.292969 431.964844 C 121.316406 431.964844 119.710938 431.324219 119.710938 430.539062 C 119.710938 429.753906 121.316406 429.117188 123.292969 429.117188 C 125.269531 429.117188 126.871094 429.753906 126.871094 430.539062 Z M 126.871094 430.539062 "/>
<path style=" stroke:none;fill-rule:nonzero;fill:url(#radial52);" d="M 133.425781 389.09375 C 133.425781 389.878906 131.820312 390.515625 129.84375 390.515625 C 127.867188 390.515625 126.265625 389.878906 126.265625 389.09375 C 126.265625 388.308594 127.867188 387.671875 129.84375 387.671875 C 131.820312 387.671875 133.425781 388.308594 133.425781 389.09375 Z M 133.425781 389.09375 "/>
<path style=" stroke:none;fill-rule:nonzero;fill:url(#linear8);" d="M 193.71875 803.796875 C 184.613281 803.808594 174.394531 804.488281 163.148438 805.898438 C 135.367188 809.390625 110.871094 815.328125 97.851562 824.773438 C 115.410156 831.144531 137.691406 837.683594 165.03125 842.882812 C 175.070312 830.691406 199.226562 823 215.921875 817.050781 C 237.464844 809.375 220.351562 803.761719 193.722656 803.796875 Z M 193.71875 803.796875 "/>
<path style=" stroke:none;fill-rule:nonzero;fill:url(#linear9);" d="M 375.667969 944.988281 C 350.292969 952.699219 294.425781 957.007812 229.914062 955.246094 C 201.621094 954.472656 175.226562 952.628906 152.519531 950.039062 C 176.292969 954.207031 207.28125 957.167969 241.457031 958.101562 C 303.777344 959.804688 357.015625 954.222656 375.671875 944.988281 Z M 375.667969 944.988281 "/>
<path style=" stroke:none;fill-rule:nonzero;fill:url(#radial53);" d="M 98.167969 916.34375 C 98.167969 916.34375 137.886719 921.039062 139.078125 926.5625 C 143.695312 936.101562 150.074219 941.171875 158.332031 945.804688 C 164.605469 948.558594 158.441406 947.476562 155.117188 947.003906 C 133.050781 943.863281 99.75 934.027344 99.75 933.953125 C 125.875 942.675781 150.742188 949.617188 177.839844 952.496094 C 163.300781 944.039062 145.394531 935.71875 140.988281 921.074219 C 139.894531 918.996094 137.324219 919.511719 135.191406 919.339844 Z M 98.167969 916.34375 "/>
<path style=" stroke:none;fill-rule:nonzero;fill:url(#radial54);" d="M 137.851562 541.570312 C 130.863281 541.535156 122.113281 542.410156 111.214844 543.917969 C 94.488281 546.234375 79.914062 554.757812 73.574219 567.828125 C 94.15625 574.351562 121.742188 579.75 154.023438 583.53125 C 184.308594 570.484375 184.25 541.808594 137.851562 541.574219 Z M 137.851562 541.570312 "/>
<path style=" stroke:none;fill-rule:nonzero;fill:url(#radial55);" d="M 286.273438 561.070312 L 197.402344 587.410156 C 213.667969 588.460938 230.695312 589.128906 248.277344 589.382812 L 307.355469 571.589844 C 305.121094 572.273438 302.707031 572.773438 300.171875 573.050781 C 291.425781 574 283.804688 571.988281 280.269531 568.269531 Z M 286.273438 561.070312 "/>
<path style=" stroke:none;fill-rule:nonzero;fill:url(#radial56);" d="M 281.800781 569.59375 L 218.433594 588.515625 C 220.824219 588.617188 223.234375 588.710938 225.652344 588.796875 L 284.644531 571.171875 C 283.589844 570.710938 282.628906 570.1875 281.800781 569.59375 Z M 281.800781 569.59375 "/>
<path style=" stroke:none;fill-rule:nonzero;fill:url(#radial57);" d="M 264.765625 361.425781 C 202.246094 361.425781 145.652344 364.6875 104.621094 367.488281 C 84.105469 368.886719 67.5 369.042969 55.890625 370.890625 C 50.890625 371.6875 35.875 370.996094 35.695312 378.242188 C 35.695312 380.253906 37.015625 381.496094 38.152344 382.261719 C 39.292969 383.027344 40.625 383.578125 42.265625 384.125 C 45.550781 385.222656 50.085938 386.195312 55.890625 387.132812 C 67.496094 389.003906 84.105469 390.664062 104.621094 392.066406 C 145.652344 394.863281 202.246094 396.601562 264.765625 396.601562 C 327.285156 396.601562 383.878906 394.863281 424.914062 392.066406 C 445.429688 390.664062 462.050781 389.003906 473.65625 387.132812 C 479.457031 386.195312 483.980469 385.21875 487.265625 384.125 C 490.316406 383.117188 493.371094 382.539062 493.445312 379.550781 C 491.332031 374.28125 477.796875 371.527344 473.65625 370.890625 C 462.050781 369.019531 445.429688 368.886719 424.914062 367.488281 C 383.878906 364.6875 327.285156 361.425781 264.765625 361.425781 Z M 264.765625 365.71875 C 327.179688 365.71875 383.691406 367.457031 424.535156 370.242188 C 444.957031 371.636719 461.472656 373.292969 472.761719 375.113281 C 478.40625 376.023438 482.761719 376.992188 485.503906 377.90625 C 485.851562 378.019531 486.089844 378.128906 486.382812 378.242188 C 486.089844 378.355469 485.847656 378.464844 485.503906 378.578125 C 482.761719 379.492188 478.40625 380.449219 472.761719 381.359375 C 461.472656 383.179688 444.957031 384.847656 424.535156 386.242188 C 383.691406 389.027344 327.179688 390.753906 264.765625 390.753906 C 202.351562 390.753906 145.839844 389.027344 105 386.242188 C 84.578125 384.847656 68.0625 383.179688 56.773438 381.359375 C 51.128906 380.449219 46.773438 379.492188 44.03125 378.578125 C 43.6875 378.464844 43.453125 378.355469 43.160156 378.242188 C 43.453125 378.128906 43.6875 378.019531 44.03125 377.90625 C 46.773438 376.992188 51.128906 376.023438 56.773438 375.113281 C 68.0625 373.292969 84.578125 371.636719 105 370.242188 C 145.839844 367.457031 202.351562 365.71875 264.765625 365.71875 Z M 264.765625 365.71875 "/>
</g>
</svg>
