<?xml version="1.0" encoding="UTF-8"?>
<svg xmlns="http://www.w3.org/2000/svg" xmlns:xlink="http://www.w3.org/1999/xlink" width="1024pt" height="1214pt" viewBox="0 0 1024 1214" version="1.1">
<defs>
<linearGradient id="linear0" gradientUnits="userSpaceOnUse" x1="311.75" y1="34.582" x2="311.75" y2="25.5" gradientTransform="matrix(15.55289,0,0,15.541173,-4163.75757,651.456919)">
<stop offset="0" style="stop-color:rgb(62.745098%,35.294118%,17.254902%);stop-opacity:1;"/>
<stop offset="1" style="stop-color:rgb(100%,87.843137%,72.941176%);stop-opacity:1;"/>
</linearGradient>
<linearGradient id="linear1" gradientUnits="userSpaceOnUse" x1="309.25" y1="-43.343" x2="309.25" y2="45.969" gradientTransform="matrix(15.552719,0,0,15.541003,-4163.759388,651.376891)">
<stop offset="0" style="stop-color:rgb(86.666667%,38.431373%,37.647059%);stop-opacity:1;"/>
<stop offset="1" style="stop-color:rgb(66.666667%,0%,0%);stop-opacity:1;"/>
</linearGradient>
<linearGradient id="linear2" gradientUnits="userSpaceOnUse" x1="304.5" y1="6.9905" x2="304.5" y2="24.786" gradientTransform="matrix(19.234581,0,0,19.220091,-5376.594076,662.878028)">
<stop offset="0" style="stop-color:rgb(82.745098%,37.254902%,37.254902%);stop-opacity:1;"/>
<stop offset="1" style="stop-color:rgb(66.666667%,0%,0%);stop-opacity:1;"/>
</linearGradient>
<linearGradient id="linear3" gradientUnits="userSpaceOnUse" x1="282.59" y1="28.783" x2="282.59" y2="-37.399" gradientTransform="matrix(17.526166,0,0,17.512962,-4529.810881,679.215105)">
<stop offset="0" style="stop-color:rgb(62.745098%,35.294118%,17.254902%);stop-opacity:1;"/>
<stop offset="1" style="stop-color:rgb(100%,87.843137%,72.941176%);stop-opacity:1;"/>
</linearGradient>
<linearGradient id="linear4" gradientUnits="userSpaceOnUse" x1="299.22" y1="-2.2108" x2="300.31" y2="-84.598" gradientTransform="matrix(19.234581,0,0,19.220091,-5211.779627,701.426741)">
<stop offset="0" style="stop-color:rgb(33.333333%,0%,0%);stop-opacity:0.627451;"/>
<stop offset="1" style="stop-color:rgb(78.431373%,21.568627%,21.568627%);stop-opacity:0.627451;"/>
</linearGradient>
<linearGradient id="linear5" gradientUnits="userSpaceOnUse" x1="311.75" y1="34.582" x2="311.75" y2="25.5" gradientTransform="matrix(15.55289,0,0,15.541173,-4449.715888,689.597931)">
<stop offset="0" style="stop-color:rgb(62.745098%,35.294118%,17.254902%);stop-opacity:1;"/>
<stop offset="1" style="stop-color:rgb(100%,87.843137%,72.941176%);stop-opacity:1;"/>
</linearGradient>
<linearGradient id="linear6" gradientUnits="userSpaceOnUse" x1="309.25" y1="-43.343" x2="309.25" y2="45.969" gradientTransform="matrix(15.552719,0,0,15.541003,-4449.717706,689.517902)">
<stop offset="0" style="stop-color:rgb(86.666667%,38.431373%,37.647059%);stop-opacity:1;"/>
<stop offset="1" style="stop-color:rgb(66.666667%,0%,0%);stop-opacity:1;"/>
</linearGradient>
<linearGradient id="linear7" gradientUnits="userSpaceOnUse" x1="304.5" y1="6.9905" x2="304.5" y2="24.786" gradientTransform="matrix(19.234581,0,0,19.220091,-5662.552394,701.019039)">
<stop offset="0" style="stop-color:rgb(82.745098%,37.254902%,37.254902%);stop-opacity:1;"/>
<stop offset="1" style="stop-color:rgb(66.666667%,0%,0%);stop-opacity:1;"/>
</linearGradient>
<linearGradient id="linear8" gradientUnits="userSpaceOnUse" x1="282.59" y1="28.783" x2="282.59" y2="-37.399" gradientTransform="matrix(17.526166,0,0,17.512962,-4815.769199,717.356116)">
<stop offset="0" style="stop-color:rgb(62.745098%,35.294118%,17.254902%);stop-opacity:1;"/>
<stop offset="1" style="stop-color:rgb(100%,87.843137%,72.941176%);stop-opacity:1;"/>
</linearGradient>
</defs>
<g id="surface1">
<path style=" stroke:none;fill-rule:evenodd;fill:url(#linear0);" d="M 996.378906 1032.214844 L 343.640625 1044.84375 L 343.15625 1157.269531 L 380.09375 1157.269531 L 380.09375 1148.527344 C 380.09375 1143.769531 384.082031 1139.785156 388.84375 1139.785156 C 393.601562 1139.785156 397.589844 1143.769531 397.589844 1148.527344 L 397.589844 1157.269531 L 416.546875 1157.269531 L 416.546875 1148.527344 C 416.546875 1143.769531 420.050781 1139.785156 424.808594 1139.785156 C 429.570312 1139.785156 433.558594 1143.769531 433.558594 1148.527344 L 433.558594 1157.269531 L 452.511719 1157.269531 L 452.511719 1148.527344 C 452.511719 1143.769531 456.015625 1139.785156 460.777344 1139.785156 C 465.535156 1139.785156 469.523438 1143.769531 469.523438 1148.527344 L 469.523438 1157.269531 L 488.480469 1157.269531 L 488.480469 1148.527344 C 488.480469 1143.769531 492.46875 1139.785156 497.230469 1139.785156 C 501.988281 1139.785156 505.492188 1143.769531 505.492188 1148.527344 L 505.492188 1157.269531 L 550.691406 1157.269531 L 550.691406 1127.160156 C 550.691406 1114.78125 559.796875 1104.816406 571.105469 1104.816406 C 582.414062 1104.816406 591.515625 1114.78125 591.515625 1127.160156 L 591.515625 1157.269531 L 626.027344 1157.269531 L 626.027344 1148.527344 C 626.027344 1143.769531 630.015625 1139.785156 634.773438 1139.785156 C 639.535156 1139.785156 643.523438 1143.769531 643.523438 1148.527344 L 643.523438 1157.269531 L 662.476562 1157.269531 L 662.476562 1148.527344 C 662.476562 1143.769531 665.980469 1139.785156 670.742188 1139.785156 C 675.5 1139.785156 679.488281 1143.769531 679.488281 1148.527344 L 679.488281 1157.269531 L 698.445312 1157.269531 L 698.445312 1148.527344 C 698.445312 1143.769531 701.949219 1139.785156 706.707031 1139.785156 C 711.46875 1139.785156 715.457031 1143.769531 715.457031 1148.527344 L 715.457031 1157.269531 L 734.410156 1157.269531 L 734.410156 1148.527344 C 734.410156 1143.769531 738.402344 1139.785156 743.160156 1139.785156 C 747.921875 1139.785156 751.421875 1143.769531 751.421875 1148.527344 L 751.421875 1157.269531 L 770.378906 1157.269531 L 770.378906 1148.527344 C 770.378906 1143.769531 774.367188 1139.785156 779.128906 1139.785156 C 783.886719 1139.785156 787.390625 1143.769531 787.390625 1148.527344 L 787.390625 1157.269531 L 806.34375 1157.269531 L 806.34375 1148.527344 C 806.34375 1143.769531 810.335938 1139.785156 815.09375 1139.785156 C 819.855469 1139.785156 823.84375 1143.769531 823.84375 1148.527344 L 823.84375 1157.269531 L 842.796875 1157.269531 L 842.796875 1148.527344 C 842.796875 1143.769531 846.300781 1139.785156 851.0625 1139.785156 C 855.820312 1139.785156 859.808594 1143.769531 859.808594 1148.527344 L 859.808594 1157.269531 L 878.765625 1157.269531 L 878.765625 1148.527344 C 878.765625 1143.769531 882.269531 1139.785156 887.027344 1139.785156 C 891.789062 1139.785156 895.777344 1143.769531 895.777344 1148.527344 L 895.777344 1157.269531 L 914.730469 1157.269531 L 914.730469 1148.527344 C 914.730469 1143.769531 918.722656 1139.785156 923.480469 1139.785156 C 928.242188 1139.785156 931.742188 1143.769531 931.742188 1148.527344 L 931.742188 1157.269531 L 950.699219 1157.269531 L 950.699219 1148.527344 C 950.699219 1143.769531 954.6875 1139.785156 959.449219 1139.785156 C 964.207031 1139.785156 968.195312 1143.769531 968.195312 1148.527344 L 968.195312 1157.269531 L 1000.273438 1157.269531 L 1000.273438 1044.84375 C 999.101562 1040.574219 997.785156 1036.417969 996.386719 1032.214844 Z M 996.378906 1032.214844 "/>
<path style=" stroke:none;fill-rule:evenodd;fill:rgb(67.058824%,41.568627%,23.921569%);fill-opacity:1;" d="M 996.476562 1032.34375 L 343.703125 1044.957031 L 343.703125 1065.460938 L 1000.074219 1065.460938 L 1000.074219 1044.957031 C 998.898438 1040.683594 997.867188 1036.542969 996.464844 1032.34375 Z M 996.476562 1032.34375 "/>
<path style=" stroke:none;fill-rule:evenodd;fill:url(#linear1);" d="M 309.515625 18.082031 C 309.515625 18.082031 323.46875 434.765625 364.433594 754.816406 C 364.496094 854.007812 343.292969 1044.75 343.292969 1044.75 L 649.835938 1045.730469 L 1000.253906 1045.730469 C 1000.253906 951.953125 952.511719 843.136719 817.992188 837.867188 C 669.769531 850.722656 646.785156 800.464844 653.226562 649.917969 C 673.960938 440.59375 703.773438 18.082031 703.773438 18.082031 Z M 309.515625 18.082031 "/>
<path style=" stroke:none;fill-rule:evenodd;fill:rgb(81.960784%,62.352941%,45.882353%);fill-opacity:1;" d="M 665.863281 18.453125 L 687.503906 38.875 L 703.132812 23.859375 C 703.128906 23.925781 703.140625 26.757812 703.132812 26.863281 L 688.707031 40.675781 L 700.726562 52.691406 C 700.710938 53.023438 700.746094 54.734375 700.726562 55.09375 L 687.503906 42.480469 L 671.875 57.496094 L 668.871094 57.496094 L 686.300781 40.675781 L 664.0625 19.054688 L 641.222656 41.277344 L 658.652344 57.496094 L 655.648438 57.496094 L 640.019531 42.476562 L 624.390625 57.496094 L 620.785156 57.496094 L 638.816406 40.675781 L 615.976562 18.453125 L 618.378906 18.453125 L 639.417969 39.476562 L 661.65625 18.453125 L 665.867188 18.453125 Z M 615.972656 18.453125 L 593.734375 40.675781 L 611.164062 57.496094 L 608.160156 57.496094 L 592.53125 42.476562 L 576.902344 57.496094 L 573.296875 57.496094 L 590.726562 40.675781 L 569.089844 18.453125 L 570.890625 18.453125 L 592.53125 38.875 L 613.570312 18.453125 Z M 569.085938 18.453125 L 546.246094 40.675781 L 563.679688 57.496094 L 560.671875 57.496094 L 545.042969 42.476562 L 528.816406 57.496094 L 525.808594 57.496094 L 543.242188 40.675781 L 521 18.453125 L 522.804688 18.453125 L 545.042969 39.476562 L 566.082031 18.453125 Z M 521 18.453125 L 498.160156 41.277344 L 515.589844 57.496094 L 512.585938 57.496094 L 497.558594 42.480469 L 481.328125 57.496094 L 478.324219 57.496094 L 495.753906 40.675781 L 472.914062 19.054688 L 451.273438 41.277344 L 468.105469 57.496094 L 465.699219 57.496094 L 449.46875 42.476562 L 433.84375 57.496094 L 430.234375 57.496094 L 448.269531 40.675781 L 426.027344 18.453125 L 427.832031 18.453125 L 449.46875 39.476562 L 471.109375 18.453125 L 475.316406 18.453125 L 496.957031 39.476562 L 517.996094 18.453125 Z M 426.027344 18.453125 L 403.1875 41.277344 L 420.617188 57.496094 L 417.011719 57.496094 L 401.984375 42.480469 L 386.355469 57.496094 L 383.351562 57.496094 L 400.179688 40.675781 L 378.542969 19.054688 L 355.699219 40.675781 L 373.734375 57.496094 L 370.125 57.496094 L 354.496094 42.480469 L 338.917969 57.492188 L 335.910156 57.492188 L 352.742188 40.671875 L 331.101562 18.449219 L 333.507812 18.449219 L 354.546875 38.871094 L 376.1875 18.449219 L 380.394531 18.449219 L 401.433594 39.472656 L 423.671875 18.449219 L 426.078125 18.449219 Z M 331.054688 18.453125 L 310.015625 38.875 C 310 38.183594 310.035156 36.457031 310.015625 35.871094 L 328.046875 18.453125 Z M 310.617188 43.078125 L 325.644531 57.496094 L 322.640625 57.496094 L 310.617188 46.082031 C 310.578125 45.171875 310.65625 43.890625 310.617188 43.078125 Z M 680.292969 218.464844 L 687.507812 225.671875 L 688.710938 224.472656 C 688.519531 227.019531 688.90625 226.699219 688.710938 229.277344 L 687.507812 228.074219 L 665.269531 250.296875 L 685.273438 270.097656 C 685.195312 270.972656 685.351562 271.621094 685.273438 272.5 L 664.234375 252.078125 L 641.390625 273.699219 L 664.234375 295.324219 L 684.671875 275.503906 C 684.613281 276.207031 684.726562 276.601562 684.671875 277.304688 L 664.835938 296.523438 L 682.265625 313.34375 C 682.191406 314.257812 681.738281 314.828125 681.667969 315.746094 L 664.234375 298.328125 L 641.394531 319.949219 L 664.234375 342.171875 L 681.066406 325.957031 C 681.007812 326.679688 681.125 327.03125 681.066406 327.757812 L 665.4375 343.375 L 678.0625 355.988281 C 677.984375 356.902344 678.136719 357.472656 678.0625 358.390625 L 664.234375 345.175781 L 641.394531 366.800781 L 664.234375 388.421875 L 676.859375 375.808594 C 676.78125 376.742188 676.328125 377.878906 676.257812 378.8125 L 665.4375 389.625 L 675.054688 399.234375 C 674.980469 400.152344 675.132812 400.714844 675.054688 401.636719 L 664.238281 391.425781 L 641.394531 413.046875 L 664.238281 435.269531 L 672.652344 426.261719 C 672.554688 427.363281 672.746094 428.765625 672.652344 429.863281 L 665.4375 437.074219 L 671.449219 443.078125 C 671.390625 443.808594 671.507812 444.152344 671.449219 444.882812 L 664.238281 437.671875 L 641.996094 459.894531 L 664.238281 481.519531 L 669.046875 477.316406 C 668.96875 478.324219 668.53125 479.308594 668.445312 480.316406 L 665.441406 482.71875 L 667.84375 485.121094 C 667.746094 486.308594 667.941406 486.945312 667.84375 488.125 L 664.238281 484.523438 L 641.394531 506.144531 L 663.902344 528.378906 C 663.804688 529.328125 663.996094 529.832031 663.902344 530.78125 L 641.058594 553.003906 L 659.691406 571.023438 C 659.597656 571.917969 659.789062 572.53125 659.691406 573.425781 L 639.859375 554.203125 L 617.546875 576.429688 L 639.785156 597.453125 L 659.019531 578.832031 C 658.90625 580.089844 658.523438 581.1875 658.417969 582.4375 L 640.988281 599.253906 L 656.015625 613.667969 C 655.9375 614.332031 656.09375 615.410156 656.015625 616.070312 L 639.785156 600.457031 L 617.546875 622.078125 L 639.785156 644.902344 L 654.210938 630.488281 C 654.136719 631.285156 654.289062 632.699219 654.210938 633.492188 L 640.988281 646.105469 L 652.410156 656.914062 C 652.371094 657.699219 652.449219 658.539062 652.410156 659.316406 L 639.785156 646.703125 L 617.546875 668.925781 L 639.785156 690.550781 L 651.808594 678.539062 C 651.796875 679.449219 651.816406 680.640625 651.808594 681.539062 L 640.988281 692.351562 L 651.808594 703.164062 C 651.824219 704.09375 651.789062 705.25 651.808594 706.167969 L 639.183594 693.554688 L 617.546875 715.175781 L 639.785156 737.398438 L 653.007812 724.785156 C 653.066406 725.554688 652.953125 726.429688 653.007812 727.1875 L 640.988281 739.203125 L 656.617188 753.617188 C 656.847656 754.898438 656.964844 756.570312 657.214844 757.820312 L 638.941406 739.800781 L 616.824219 762.023438 L 639.710938 784.246094 L 658.175781 765.628906 C 658.3125 766.195312 658.640625 766.871094 658.777344 767.429688 L 640.746094 785.449219 L 663.585938 807.074219 L 672.601562 798.664062 C 672.957031 799.214844 673.4375 799.925781 673.804688 800.464844 L 664.957031 808.871094 L 687.078125 831.09375 L 696.117188 822.085938 C 696.5625 822.367188 696.867188 823.011719 697.320312 823.285156 L 688.472656 831.695312 L 711.359375 853.917969 L 729.828125 835.902344 C 730.652344 836.082031 731.386719 835.730469 732.230469 835.902344 L 712.996094 855.71875 L 734.636719 877.34375 L 756.875 855.71875 L 737.640625 837.101562 C 739.105469 837.34375 740.9375 837.492188 742.449219 837.703125 L 758.679688 853.917969 L 773.707031 839.503906 C 774.59375 839.511719 775.210938 839.5 776.109375 839.503906 L 759.878906 855.71875 L 782.121094 877.34375 L 804.960938 855.71875 L 788.128906 839.503906 C 789.253906 839.46875 790.597656 839.546875 791.738281 839.503906 L 806.164062 853.917969 L 822.394531 838.300781 C 823.324219 838.359375 823.875 838.234375 824.796875 838.300781 L 807.367188 855.71875 L 830.207031 877.34375 L 852.90625 855.125 L 837.277344 839.507812 C 838.179688 839.621094 839.386719 839.988281 840.28125 840.109375 L 854.707031 853.921875 L 864.324219 844.3125 C 864.902344 844.460938 865.558594 844.761719 866.128906 844.914062 L 855.308594 855.726562 L 878.148438 877.347656 L 898.585938 857.527344 C 899.234375 857.84375 899.75 857.804688 900.390625 858.128906 L 879.953125 878.550781 L 902.191406 900.171875 L 924.429688 878.550781 L 909.402344 862.933594 C 911.585938 864.214844 913.320312 866.378906 915.414062 867.738281 L 925.632812 877.347656 L 927.433594 875.546875 C 927.957031 875.957031 928.722656 876.332031 929.238281 876.75 L 927.433594 878.550781 L 949.675781 900.171875 L 951.476562 898.972656 C 951.976562 899.566406 952.789062 899.574219 953.28125 900.171875 L 951.476562 901.976562 L 962.296875 912.789062 C 963.789062 914.972656 965.109375 917.148438 966.503906 919.394531 L 949.769531 903.210938 L 927.53125 924.832031 L 949.769531 947.054688 L 970.808594 926.632812 C 971.210938 927.34375 971.621094 928.324219 972.011719 929.039062 L 951.574219 948.855469 L 973.214844 970.480469 L 985.234375 959.066406 C 985.425781 959.605469 985.648438 960.332031 985.835938 960.871094 L 975.015625 971.683594 L 994.25 990.902344 C 994.476562 991.996094 994.636719 992.808594 994.851562 993.90625 L 973.886719 973.492188 L 951.644531 995.117188 L 973.285156 1016.738281 L 995.523438 996.316406 C 995.621094 996.875 996.019531 997.5625 996.125 998.121094 L 975.15625 1018.53125 L 997.472656 1040.75 L 1000.546875 1037.753906 C 1000.566406 1038.488281 1000.53125 1039.417969 1000.546875 1040.15625 L 998.746094 1041.355469 L 1000.546875 1043.15625 C 1000.558594 1044.074219 1000.546875 1045.246094 1000.546875 1046.160156 L 997.542969 1042.558594 L 993.9375 1046.160156 L 991.53125 1046.160156 L 996.339844 1041.355469 L 973.5 1019.734375 L 951.257812 1041.355469 L 955.46875 1046.160156 L 953.0625 1046.160156 L 950.058594 1043.15625 L 947.652344 1046.160156 L 944.046875 1046.160156 L 948.253906 1041.355469 L 926.015625 1019.734375 L 904.375 1041.355469 L 908.582031 1046.160156 L 904.976562 1046.160156 L 902.570312 1043.15625 L 899.566406 1046.160156 L 896.5625 1046.160156 L 900.769531 1041.355469 L 878.53125 1019.734375 L 856.289062 1041.355469 L 861.097656 1046.160156 L 857.492188 1046.160156 L 855.085938 1043.15625 L 852.082031 1046.160156 L 849.078125 1046.160156 L 853.285156 1041.355469 L 831.046875 1019.734375 L 808.804688 1041.355469 L 813.011719 1046.160156 L 810.007812 1046.160156 L 807.003906 1043.15625 L 804.597656 1046.160156 L 800.992188 1046.160156 L 805.800781 1041.355469 L 783.5625 1019.734375 L 761.320312 1041.355469 L 765.527344 1046.160156 L 762.523438 1046.160156 L 759.519531 1043.15625 L 757.113281 1046.160156 L 753.507812 1046.160156 L 757.714844 1041.355469 L 736.074219 1019.734375 L 713.835938 1041.355469 L 718.042969 1046.160156 L 714.4375 1046.160156 L 712.03125 1043.15625 L 709.027344 1046.160156 L 706.023438 1046.160156 L 710.230469 1041.355469 L 687.988281 1019.734375 L 665.75 1041.355469 L 670.558594 1046.160156 L 666.953125 1046.160156 L 664.546875 1043.15625 L 661.542969 1046.160156 L 658.539062 1046.160156 L 662.746094 1041.355469 L 639.902344 1019.734375 L 618.265625 1041.355469 L 622.472656 1046.160156 L 619.464844 1046.160156 L 616.460938 1043.15625 L 614.054688 1046.160156 L 610.449219 1046.160156 L 615.257812 1041.355469 L 606.84375 1033.546875 C 606.882812 1032.753906 606.804688 1031.941406 606.84375 1031.144531 L 616.460938 1040.753906 L 639.300781 1018.53125 L 616.460938 996.308594 L 606.84375 1005.921875 C 606.785156 1005.117188 606.304688 1004.316406 606.242188 1003.515625 L 615.257812 995.109375 L 603.839844 984.296875 C 603.640625 983.109375 603.453125 981.875 603.238281 980.691406 L 616.460938 993.304688 L 639.304688 971.683594 L 616.460938 949.460938 L 600.234375 965.679688 C 600.078125 965.058594 599.796875 964.496094 599.632812 963.875 L 615.261719 948.859375 L 593.023438 926.636719 L 588.214844 931.441406 C 587.847656 930.617188 587.386719 929.859375 587.011719 929.039062 L 591.21875 924.835938 L 579.195312 913.421875 C 577.980469 911.234375 576.878906 908.957031 575.589844 906.816406 L 593.023438 924.234375 L 615.261719 902.011719 L 593.023438 880.390625 L 571.984375 900.8125 C 571.5 900.0625 571.269531 899.148438 570.78125 898.410156 L 591.21875 878.589844 L 568.976562 856.367188 L 551.546875 873.785156 C 551.175781 873.367188 550.714844 872.996094 550.34375 872.582031 L 567.777344 855.765625 L 544.933594 832.941406 L 527.503906 850.359375 C 527.074219 850.003906 526.730469 849.511719 526.300781 849.15625 L 543.730469 831.738281 L 521.492188 810.117188 L 499.851562 830.539062 C 499.472656 830.308594 499.035156 830.164062 498.652344 829.9375 L 520.289062 808.914062 L 498.050781 786.691406 L 475.210938 808.3125 L 496.25 828.734375 C 493.851562 827.347656 491.488281 825.832031 489.035156 824.53125 L 473.40625 810.117188 L 468.597656 814.921875 C 468.011719 814.683594 467.386719 814.554688 466.796875 814.320312 L 472.808594 808.914062 L 449.964844 786.691406 L 431.933594 804.109375 C 431.300781 803.976562 430.761719 803.640625 430.128906 803.511719 L 448.757812 785.492188 L 426.519531 763.867188 L 404.28125 785.492188 L 420.511719 801.707031 C 419.316406 801.519531 418.101562 801.277344 416.902344 801.109375 L 402.476562 787.292969 L 390.457031 798.703125 C 389.453125 798.679688 388.453125 798.714844 387.449219 798.703125 L 400.675781 785.492188 L 379.035156 763.867188 L 364.007812 777.683594 C 364.027344 776.757812 364.589844 776.195312 364.609375 775.28125 L 376.917969 762.628906 L 363.644531 749.414062 C 363.53125 748.511719 363.148438 747.3125 363.046875 746.410156 L 378.675781 760.824219 L 400.914062 739.203125 L 378.675781 716.980469 L 361.84375 733.195312 C 361.726562 732.289062 361.941406 731.703125 361.84375 730.792969 L 376.871094 715.777344 L 357.636719 697.160156 C 357.480469 695.871094 357.171875 694.84375 357.035156 693.554688 L 378.675781 714.578125 L 400.914062 692.355469 L 378.070312 670.730469 L 357.03125 691.152344 C 356.957031 690.410156 356.519531 690.097656 356.433594 689.351562 L 376.871094 669.53125 L 354.628906 647.308594 L 352.226562 649.710938 C 352.148438 648.957031 351.710938 648.066406 351.625 647.308594 L 353.429688 646.109375 L 351.625 644.304688 C 351.53125 643.367188 351.128906 642.242188 351.027344 641.304688 L 354.632812 644.90625 L 376.871094 622.683594 L 354.632812 600.460938 L 348.019531 607.066406 C 347.945312 606.347656 348.097656 605.386719 348.019531 604.664062 L 353.40625 599.253906 L 346.792969 592.644531 C 346.699219 591.726562 346.28125 591.164062 346.195312 590.242188 L 354.609375 597.453125 L 376.847656 576.429688 L 354.609375 554.207031 L 343.789062 565.015625 C 343.710938 564.097656 343.277344 562.933594 343.191406 562.011719 L 352.808594 553.003906 L 341.988281 542.191406 C 341.890625 541.109375 342.082031 540.273438 341.988281 539.1875 L 354.609375 551.800781 L 376.851562 529.578125 L 354.609375 507.957031 L 340.183594 521.773438 C 340.125 521.035156 339.652344 520.105469 339.582031 519.367188 L 352.808594 506.15625 L 337.179688 491.738281 C 337.082031 490.449219 337.277344 488.824219 337.179688 487.535156 L 354.609375 504.953125 L 376.851562 483.332031 L 354.609375 461.707031 L 336.578125 478.527344 C 336.519531 477.789062 336.636719 476.859375 336.578125 476.121094 L 352.808594 459.90625 L 333.574219 441.285156 C 333.476562 440.195312 333.667969 438.769531 333.574219 437.683594 L 354.613281 458.105469 L 376.851562 436.480469 L 354.613281 414.257812 L 332.972656 435.28125 C 332.914062 434.558594 333.03125 433.601562 332.972656 432.878906 L 353.167969 413.042969 L 330.328125 391.421875 L 329.726562 392.019531 C 329.632812 390.601562 329.824219 389.230469 329.726562 387.816406 L 330.929688 388.417969 L 353.167969 366.195312 L 330.929688 344.570312 L 326.722656 348.175781 C 326.644531 347.242188 326.800781 346.101562 326.722656 345.171875 L 329.125 343.371094 L 326.121094 340.367188 C 326.0625 339.441406 326.179688 338.886719 326.121094 337.964844 L 330.328125 341.566406 L 352.570312 319.945312 L 330.328125 297.722656 L 324.316406 303.730469 C 324.28125 303 323.769531 302.652344 323.71875 301.925781 L 329.105469 296.546875 L 323.09375 290.539062 C 323.035156 289.65625 323.152344 289.015625 323.09375 288.136719 L 330.304688 295.34375 L 352.546875 273.121094 L 330.304688 252.097656 L 320.6875 261.105469 C 320.613281 259.796875 320.765625 259.410156 320.6875 258.105469 L 329.105469 250.296875 L 320.085938 241.285156 C 320.011719 240.007812 319.554688 239.554688 319.488281 238.28125 L 330.308594 248.492188 L 352.546875 226.871094 L 344.132812 218.460938 L 347.136719 218.460938 L 354.351562 225.667969 L 361.5625 218.460938 L 363.96875 218.460938 L 355.550781 226.871094 L 377.792969 248.492188 L 400.03125 226.871094 L 391.617188 218.460938 L 394.621094 218.460938 L 401.835938 225.667969 L 409.046875 218.460938 L 411.453125 218.460938 L 403.636719 226.871094 L 425.277344 248.492188 L 448.117188 226.871094 L 439.101562 218.460938 L 442.105469 218.460938 L 449.320312 225.667969 L 456.535156 218.460938 L 459.539062 218.460938 L 451.125 226.871094 L 472.761719 248.492188 L 495.605469 227.46875 L 486.589844 218.460938 L 490.195312 218.460938 L 497.40625 225.667969 L 504.019531 218.460938 L 506.425781 218.460938 L 498.007812 226.871094 L 520.851562 249.09375 L 543.089844 227.46875 L 534.074219 218.460938 L 537.679688 218.460938 L 544.894531 225.667969 L 552.105469 218.460938 L 554.511719 218.460938 L 546.695312 226.867188 L 568.335938 248.492188 L 590.574219 227.46875 L 582.160156 218.460938 L 584.5625 218.460938 L 591.777344 225.667969 L 598.992188 218.460938 L 601.996094 218.460938 L 593.582031 227.46875 L 615.820312 249.089844 L 638.660156 227.46875 L 629.644531 218.460938 L 632.652344 218.460938 L 639.863281 225.667969 L 647.078125 218.460938 L 650.082031 218.460938 L 641.066406 227.46875 L 663.90625 249.089844 L 686.148438 227.46875 L 677.128906 218.460938 L 680.136719 218.460938 Z M 640.019531 228.074219 L 617.179688 250.296875 L 640.019531 271.921875 L 662.863281 250.296875 Z M 591.933594 228.074219 L 570.292969 250.296875 L 592.535156 271.921875 L 614.773438 250.296875 L 591.929688 228.074219 Z M 545.046875 228.074219 L 522.207031 250.296875 L 545.046875 271.921875 L 567.289062 250.296875 Z M 496.960938 228.074219 L 474.722656 250.296875 L 497.5625 271.921875 L 519.203125 250.296875 Z M 449.472656 228.074219 L 427.234375 250.296875 L 449.472656 271.921875 L 472.316406 250.296875 Z M 401.984375 228.074219 L 379.746094 250.296875 L 401.984375 271.921875 L 423.625 250.296875 Z M 354.5 228.074219 L 331.65625 250.296875 L 354.5 271.921875 L 376.738281 250.296875 Z M 568.488281 251.5 L 546.25 273.125 L 568.488281 295.347656 L 590.726562 273.726562 Z M 377.941406 251.5 L 355.703125 273.125 L 377.941406 295.347656 L 400.183594 273.125 Z M 615.976562 252.101562 L 593.734375 273.125 L 615.976562 295.347656 L 638.816406 273.726562 Z M 521.003906 252.101562 L 498.761719 273.125 L 521.003906 295.347656 L 543.242188 273.726562 Z M 472.914062 252.101562 L 450.675781 273.125 L 472.914062 295.347656 L 495.757812 273.726562 Z M 425.425781 252.101562 L 403.789062 273.125 L 426.027344 295.347656 L 448.265625 273.726562 Z M 640.011719 274.925781 L 617.773438 296.550781 L 640.011719 318.773438 L 662.253906 296.550781 Z M 592.527344 274.925781 L 570.285156 296.550781 L 592.527344 318.773438 L 614.765625 296.550781 Z M 544.4375 274.925781 L 522.199219 296.550781 L 545.039062 318.773438 L 566.679688 296.550781 L 544.441406 274.925781 Z M 497.554688 274.925781 L 474.710938 296.550781 L 497.554688 318.773438 L 519.191406 296.550781 Z M 449.464844 274.925781 L 427.226562 296.550781 L 449.464844 318.773438 L 472.308594 296.550781 Z M 401.976562 274.925781 L 379.738281 296.550781 L 401.976562 318.773438 L 424.21875 296.550781 Z M 354.492188 274.925781 L 331.648438 296.550781 L 354.492188 318.773438 L 376.730469 296.550781 Z M 425.660156 297.761719 L 403.421875 319.984375 L 426.261719 342.207031 L 448.5 319.984375 L 425.613281 297.765625 Z M 616.207031 298.363281 L 593.964844 319.984375 L 616.207031 342.207031 L 639.046875 319.984375 Z M 568.71875 298.363281 L 546.480469 319.984375 L 569.320312 342.207031 L 590.960938 319.984375 Z M 521.230469 298.363281 L 498.390625 319.984375 L 521.230469 342.207031 L 543.46875 319.984375 Z M 473.144531 298.363281 L 451.503906 319.984375 L 473.144531 341.609375 L 495.984375 319.984375 Z M 378.171875 298.363281 L 355.933594 319.984375 L 378.171875 342.207031 L 400.410156 319.984375 Z M 640.246094 321.1875 L 618.007812 343.410156 L 640.246094 365.03125 L 663.089844 343.410156 Z M 545.273438 321.1875 L 522.433594 343.410156 L 545.273438 365.03125 L 567.515625 343.410156 Z M 497.1875 321.1875 L 474.949219 343.410156 L 497.789062 365.03125 L 520.027344 343.410156 Z M 449.699219 321.1875 L 427.460938 343.410156 L 449.699219 365.03125 L 472.542969 343.410156 Z M 402.214844 321.1875 L 379.972656 343.410156 L 402.214844 365.03125 L 424.453125 343.410156 Z M 354.726562 321.1875 L 331.882812 343.410156 L 354.726562 365.03125 L 376.964844 343.410156 Z M 592.160156 321.785156 L 570.523438 343.410156 L 592.761719 365.03125 L 615 343.410156 Z M 473.144531 344.609375 L 450.90625 366.832031 L 473.144531 388.457031 L 495.988281 366.832031 Z M 378.171875 344.609375 L 355.933594 366.832031 L 378.773438 388.457031 L 400.414062 366.832031 L 378.175781 344.609375 Z M 616.207031 345.210938 L 593.964844 366.835938 L 616.207031 388.457031 L 639.046875 366.835938 Z M 568.71875 345.210938 L 546.480469 366.835938 L 568.71875 388.457031 L 590.957031 366.835938 Z M 521.230469 345.210938 L 498.992188 366.234375 L 521.832031 388.457031 L 543.472656 366.835938 L 521.234375 345.210938 Z M 425.65625 345.210938 L 404.015625 366.835938 L 425.65625 388.457031 L 448.496094 366.835938 Z M 592.160156 368.035156 L 570.519531 389.660156 L 592.757812 411.882812 L 614.996094 390.257812 L 592.15625 368.035156 Z M 497.789062 368.035156 L 474.945312 389.660156 L 497.789062 411.882812 L 520.027344 389.660156 Z M 449.699219 368.035156 L 427.460938 389.660156 L 449.699219 411.882812 L 472.542969 389.660156 Z M 402.214844 368.035156 L 379.972656 389.660156 L 402.214844 411.882812 L 424.453125 389.660156 Z M 354.726562 368.035156 L 331.882812 389.660156 L 354.726562 411.882812 L 376.964844 389.660156 Z M 639.632812 368.636719 L 617.996094 389.660156 L 640.234375 411.882812 L 662.472656 389.660156 Z M 545.261719 368.636719 L 522.421875 389.660156 L 545.261719 411.882812 L 566.902344 389.660156 Z M 378.761719 390.859375 L 355.921875 413.082031 L 378.160156 435.304688 L 401 412.480469 L 378.761719 390.855469 Z M 616.699219 391.511719 L 594.386719 413.136719 L 616.625 435.359375 L 639.464844 413.136719 L 616.625 391.511719 Z M 569.210938 391.511719 L 546.972656 413.136719 L 569.8125 435.359375 L 591.453125 413.136719 Z M 521.722656 391.511719 L 499.484375 413.136719 L 521.722656 435.359375 L 543.84375 413.140625 L 521.605469 391.515625 Z M 473.636719 391.511719 L 451.398438 413.136719 L 473.636719 435.359375 L 496.476562 413.136719 Z M 426.148438 391.511719 L 403.835938 413.136719 L 426.148438 435.355469 L 449.039062 413.136719 Z M 640.136719 414.335938 L 618.5 436.558594 L 640.738281 458.183594 L 662.976562 437.160156 Z M 545.765625 414.335938 L 522.925781 436.558594 L 545.765625 458.183594 L 568.007812 436.558594 Z M 498.28125 414.335938 L 475.4375 436.558594 L 498.28125 458.183594 L 520.519531 436.558594 Z M 450.191406 414.335938 L 427.953125 436.558594 L 450.191406 458.183594 L 473.035156 436.558594 Z M 402.707031 414.335938 L 380.464844 436.558594 L 402.707031 458.183594 L 424.945312 436.558594 Z M 593.25 414.9375 L 571.011719 436.558594 L 593.25 458.183594 L 615.492188 436.558594 Z M 426.75 437.160156 L 404.507812 459.984375 L 426.75 481.609375 L 448.988281 459.984375 Z M 616.695312 437.761719 L 594.453125 459.984375 L 616.695312 481.605469 L 639.535156 459.984375 Z M 569.207031 437.761719 L 546.96875 459.984375 L 569.207031 481.605469 L 591.445312 459.984375 Z M 521.71875 437.761719 L 498.878906 459.984375 L 521.71875 481.605469 L 543.960938 459.984375 Z M 474.234375 437.761719 L 451.992188 459.984375 L 473.632812 481.605469 L 496.472656 459.984375 L 474.355469 437.785156 Z M 378.65625 437.761719 L 356.417969 459.984375 L 379.261719 481.605469 L 400.898438 459.984375 L 378.660156 437.761719 Z M 593.511719 461.210938 L 571.273438 482.832031 L 593.511719 505.054688 L 615.75 482.832031 Z M 546.023438 461.210938 L 523.183594 482.832031 L 546.023438 505.054688 L 568.265625 482.832031 Z M 498.539062 461.210938 L 475.695312 482.832031 L 498.585938 505.054688 L 520.898438 482.832031 L 498.585938 461.210938 Z M 450.449219 461.210938 L 428.210938 482.832031 L 450.523438 505.054688 L 473.414062 482.832031 L 450.523438 461.210938 Z M 402.964844 461.210938 L 380.722656 482.832031 L 402.964844 505.054688 L 425.203125 482.832031 Z M 640.996094 461.808594 L 618.757812 482.832031 L 640.996094 505.054688 L 663.234375 482.832031 Z M 617.550781 484.636719 L 595.3125 506.257812 L 616.953125 528.480469 L 639.792969 506.257812 L 617.554688 484.636719 Z M 569.464844 484.636719 L 547.226562 506.257812 L 569.539062 528.484375 L 591.777344 506.261719 L 569.539062 484.640625 Z M 521.976562 484.636719 L 499.136719 506.257812 L 521.976562 528.480469 L 544.21875 506.257812 Z M 474.492188 484.636719 L 451.648438 506.257812 L 473.960938 528.484375 L 497.429688 506.261719 L 474.539062 484.640625 Z M 427.003906 484.636719 L 404.761719 506.257812 L 426.5 528.484375 L 449.339844 506.261719 L 427.101562 484.640625 Z M 378.914062 484.636719 L 356.675781 506.257812 L 379.519531 528.480469 L 401.15625 506.257812 L 378.917969 484.636719 Z M 640.992188 507.460938 L 618.753906 529.683594 L 640.992188 551.304688 L 663.832031 529.683594 Z M 546.019531 507.460938 L 523.179688 529.683594 L 546.019531 551.90625 L 568.257812 529.683594 Z M 498.53125 507.460938 L 475.691406 529.683594 L 498.53125 551.304688 L 520.773438 529.683594 Z M 450.445312 507.460938 L 428.207031 529.683594 L 450.445312 551.90625 L 473.285156 529.683594 Z M 593.503906 508.058594 L 571.265625 529.683594 L 593.503906 551.304688 L 615.746094 529.683594 Z M 402.960938 508.058594 L 380.71875 529.683594 L 402.960938 551.304688 L 425.199219 529.683594 Z M 616.949219 530.882812 L 594.707031 553.105469 L 616.949219 574.730469 L 639.789062 553.105469 Z M 570.0625 530.882812 L 547.824219 553.105469 L 569.464844 574.730469 L 591.703125 553.105469 Z M 522.574219 530.882812 L 499.132812 553.105469 L 521.972656 574.730469 L 544.816406 553.105469 L 522.695312 530.890625 Z M 473.886719 530.882812 L 452.25 553.105469 L 473.886719 574.730469 L 496.730469 553.105469 Z M 426.402344 530.882812 L 404.160156 553.105469 L 427.003906 574.730469 L 449.242188 553.105469 L 426.546875 530.890625 Z M 378.914062 530.882812 L 356.675781 553.105469 L 378.914062 574.730469 L 401.152344 553.105469 Z M 593.5 554.308594 L 571.257812 576.53125 L 593.5 597.554688 L 615.738281 575.933594 Z M 546.011719 554.308594 L 523.171875 576.53125 L 546.011719 597.554688 L 568.25 575.933594 Z M 498.523438 554.308594 L 475.683594 575.933594 L 498.765625 598.160156 L 521.078125 576.539062 L 498.765625 554.316406 Z M 450.4375 554.308594 L 428.316406 576.539062 L 450.628906 598.160156 L 473.519531 576.539062 L 450.628906 554.316406 Z M 402.949219 554.308594 L 380.710938 575.933594 L 402.949219 598.15625 L 425.1875 576.53125 Z M 616.9375 577.734375 L 594.699219 599.359375 L 616.9375 621.582031 L 639.78125 599.359375 Z M 570.054688 577.734375 L 547.8125 599.359375 L 569.453125 621.582031 L 591.691406 599.359375 Z M 522.566406 577.734375 L 499.722656 599.359375 L 521.964844 621.582031 L 544.203125 599.359375 L 522.5625 577.734375 Z M 473.878906 577.734375 L 451.640625 599.359375 L 474.480469 621.582031 L 496.71875 599.359375 Z M 426.390625 577.734375 L 404.753906 599.359375 L 426.992188 621.582031 L 449.230469 599.359375 Z M 378.902344 577.734375 L 356.664062 599.359375 L 379.507812 621.582031 L 401.144531 599.359375 L 378.90625 577.734375 Z M 593.488281 600.558594 L 571.25 622.78125 L 593.488281 644.40625 L 615.730469 622.183594 Z M 546.003906 601.160156 L 523.160156 622.785156 L 546.003906 644.40625 L 568.242188 622.183594 Z M 498.515625 601.160156 L 475.671875 622.785156 L 498.515625 645.007812 L 520.753906 622.785156 Z M 450.425781 601.160156 L 428.1875 622.183594 L 450.425781 645.007812 L 473.269531 622.785156 L 450.425781 601.164062 Z M 402.941406 601.160156 L 380.699219 622.785156 L 402.941406 645.007812 L 425.179688 622.785156 Z M 616.929688 623.382812 L 594.691406 646.207031 L 616.929688 667.832031 L 639.769531 646.207031 Z M 569.441406 623.984375 L 547.203125 646.207031 L 569.441406 667.828125 L 591.679688 646.207031 Z M 521.953125 623.984375 L 499.714844 646.207031 L 521.953125 667.828125 L 544.195312 646.207031 Z M 426.378906 623.984375 L 404.140625 646.207031 L 426.980469 667.828125 L 449.222656 646.207031 Z M 379.496094 623.984375 L 356.652344 646.207031 L 379.496094 667.828125 L 401.734375 646.207031 Z M 474.128906 624.589844 L 452.492188 646.214844 L 474.128906 667.835938 L 496.972656 646.214844 Z M 593.75 646.8125 L 571.507812 669.035156 L 593.75 691.257812 L 615.988281 669.636719 Z M 403.203125 646.8125 L 380.964844 669.636719 L 403.203125 691.261719 L 425.441406 669.636719 Z M 546.261719 647.414062 L 523.421875 669.636719 L 546.261719 690.660156 L 567.902344 669.636719 Z M 498.777344 647.414062 L 475.933594 669.636719 L 498.777344 691.261719 L 521.015625 669.636719 Z M 450.6875 647.414062 L 428.449219 669.636719 L 450.6875 691.261719 L 473.53125 669.636719 Z M 617.191406 670.839844 L 594.949219 692.464844 L 617.191406 714.6875 L 640.03125 692.464844 Z M 569.703125 670.839844 L 547.464844 692.464844 L 569.703125 714.6875 L 591.941406 692.464844 Z M 522.214844 670.839844 L 499.976562 692.464844 L 522.214844 714.6875 L 544.457031 692.464844 Z M 427.242188 670.839844 L 405.003906 692.464844 L 427.242188 714.6875 L 449.484375 692.464844 Z M 474.128906 671.441406 L 452.488281 692.464844 L 474.128906 714.6875 L 496.96875 692.464844 Z M 593.144531 694.265625 L 571.503906 715.289062 L 593.746094 737.511719 L 615.984375 715.890625 Z M 545.65625 694.265625 L 523.417969 715.289062 L 546.257812 738.113281 L 568.574219 715.890625 L 545.683594 694.265625 Z M 498.773438 694.265625 L 475.929688 715.890625 L 498.820312 738.113281 L 520.554688 715.890625 L 498.820312 694.265625 Z M 450.683594 694.265625 L 428.445312 715.890625 L 450.757812 738.113281 L 473.648438 715.890625 L 450.757812 694.265625 Z M 403.199219 694.265625 L 381.558594 715.890625 L 403.199219 738.113281 L 425.511719 715.890625 Z M 617.1875 717.089844 L 594.949219 739.3125 L 617.1875 760.9375 L 640.027344 739.3125 Z M 569.699219 717.089844 L 547.460938 739.3125 L 569.699219 760.9375 L 591.9375 739.3125 Z M 522.210938 717.089844 L 499.371094 739.3125 L 522.210938 760.9375 L 544.453125 739.3125 Z M 474.726562 717.089844 L 452.484375 739.3125 L 474.125 760.9375 L 496.964844 739.3125 L 474.847656 717.089844 Z M 427.238281 717.089844 L 405 739.3125 L 427.238281 760.9375 L 449.476562 739.3125 Z M 498.984375 739.914062 L 476.09375 762.136719 L 498.984375 784.363281 L 521.296875 762.738281 Z M 593.355469 740.515625 L 571.714844 762.136719 L 593.953125 784.359375 L 616.195312 762.738281 L 593.351562 740.515625 Z M 545.867188 740.515625 L 523.628906 762.738281 L 546.46875 784.359375 L 568.109375 762.738281 L 545.871094 740.515625 Z M 450.894531 740.515625 L 428.65625 762.738281 L 450.96875 783.761719 L 473.855469 762.738281 L 450.96875 740.515625 Z M 403.40625 740.515625 L 381.167969 762.738281 L 403.40625 784.359375 L 425.648438 762.738281 Z M 617.492188 763.941406 L 595.179688 785.5625 L 617.492188 807.1875 L 640.335938 785.5625 Z M 570.003906 763.941406 L 547.765625 785.5625 L 570.078125 807.1875 L 592.199219 785.5625 L 570.078125 763.941406 Z M 522.519531 763.941406 L 499.675781 785.5625 L 522.519531 807.1875 L 544.757812 785.5625 Z M 474.429688 763.941406 L 452.191406 785.5625 L 475.082031 807.1875 L 497.394531 785.5625 L 474.503906 763.941406 Z M 546.5625 786.765625 L 523.71875 808.988281 L 546.609375 831.210938 L 568.921875 808.988281 L 546.609375 786.765625 Z M 640.933594 787.367188 L 619.292969 808.988281 L 641.53125 831.210938 L 663.773438 808.988281 L 640.929688 787.367188 Z M 593.445312 787.367188 L 571.132812 808.386719 L 594.023438 831.210938 L 616.261719 808.988281 L 593.421875 787.367188 Z M 365.03125 793.371094 L 371.640625 799.378906 C 370.640625 799.441406 369.632812 799.902344 368.636719 799.980469 L 365.03125 796.375 L 365.03125 795.773438 C 365.066406 794.792969 364.992188 794.34375 365.03125 793.371094 Z M 665.578125 810.191406 L 642.734375 831.8125 L 665.578125 854.035156 L 687.816406 831.8125 Z M 617.488281 810.191406 L 595.25 831.8125 L 617.488281 854.035156 L 640.332031 831.8125 Z M 570 810.191406 L 547.761719 831.8125 L 570 854.035156 L 592.242188 831.8125 Z M 689.019531 833.617188 L 666.777344 855.839844 L 689.019531 877.460938 L 711.257812 855.839844 L 688.945312 833.621094 Z M 641.53125 833.617188 L 619.292969 855.839844 L 641.53125 877.460938 L 663.769531 855.839844 Z M 594.042969 833.617188 L 571.804688 855.839844 L 594.042969 877.460938 L 616.28125 855.839844 Z M 856.121094 856.441406 L 833.277344 878.664062 L 856.121094 900.285156 L 878.359375 878.664062 Z M 808.03125 856.441406 L 785.792969 878.664062 L 808.03125 900.285156 L 830.875 878.664062 Z M 760.546875 856.441406 L 738.304688 878.664062 L 760.546875 900.285156 L 782.785156 878.664062 Z M 713.058594 856.441406 L 690.214844 878.664062 L 713.058594 900.285156 L 735.296875 878.664062 Z M 665.570312 856.441406 L 642.730469 878.664062 L 665.570312 900.285156 L 687.808594 878.664062 Z M 617.484375 856.441406 L 595.242188 878.664062 L 617.484375 900.285156 L 640.324219 878.664062 Z M 927.648438 880.464844 L 905.40625 902.089844 L 927.046875 924.3125 L 949.285156 902.089844 Z M 880.160156 880.464844 L 857.316406 902.089844 L 879.558594 924.3125 L 901.796875 902.089844 L 880.15625 880.464844 Z M 832.070312 880.464844 L 809.230469 902.089844 L 832.070312 924.3125 L 854.3125 902.089844 Z M 783.984375 880.464844 L 761.746094 902.089844 L 783.984375 924.3125 L 806.828125 902.089844 Z M 736.496094 880.464844 L 714.257812 902.089844 L 736.496094 924.3125 L 758.738281 902.089844 Z M 689.011719 880.464844 L 666.769531 902.089844 L 689.011719 924.3125 L 711.25 902.089844 Z M 641.523438 880.464844 L 619.285156 902.089844 L 641.523438 924.3125 L 664.363281 902.089844 Z M 903.597656 903.289062 L 881.359375 924.914062 L 903.597656 947.136719 L 925.839844 924.914062 Z M 856.113281 903.289062 L 833.269531 924.914062 L 856.113281 947.136719 L 878.351562 924.914062 Z M 808.023438 903.289062 L 785.785156 924.914062 L 808.023438 947.136719 L 831.300781 924.917969 L 808.410156 903.292969 Z M 760.539062 903.289062 L 738.296875 924.914062 L 760.539062 947.136719 L 783.234375 924.917969 L 760.921875 903.292969 Z M 713.050781 903.289062 L 690.207031 924.914062 L 713.050781 947.136719 L 735.746094 924.917969 L 713.628906 903.292969 Z M 665.5625 903.289062 L 642.722656 924.914062 L 665.5625 947.136719 L 687.800781 924.914062 Z M 617.476562 903.289062 L 595.234375 924.914062 L 617.476562 947.136719 L 640.316406 924.914062 Z M 927.640625 926.714844 L 905.398438 948.9375 L 927.640625 970.5625 L 949.878906 948.9375 Z M 880.152344 926.714844 L 857.308594 948.9375 L 879.550781 970.5625 L 901.789062 948.9375 L 880.148438 926.714844 Z M 832.0625 926.714844 L 809.824219 948.9375 L 832.0625 970.5625 L 854.304688 948.9375 Z M 783.976562 926.714844 L 761.738281 948.9375 L 783.976562 970.5625 L 806.820312 948.9375 Z M 736.488281 926.714844 L 714.25 948.9375 L 736.488281 970.5625 L 758.730469 948.9375 Z M 689.003906 926.714844 L 666.761719 948.9375 L 689.652344 970.5625 L 711.964844 948.9375 L 689.652344 926.71875 Z M 641.515625 926.714844 L 619.972656 948.933594 L 642.285156 970.558594 L 665.125 948.933594 L 642.285156 926.710938 Z M 951.082031 949.539062 L 928.84375 971.761719 L 951.082031 993.984375 L 973.925781 971.761719 Z M 903.59375 949.539062 L 881.355469 971.761719 L 903.59375 993.984375 L 925.835938 971.761719 Z M 856.109375 949.539062 L 833.265625 971.761719 L 856.109375 993.386719 L 878.347656 971.761719 Z M 808.019531 949.539062 L 785.78125 971.761719 L 808.019531 993.386719 L 830.863281 971.761719 Z M 760.535156 949.539062 L 738.292969 971.761719 L 760.535156 993.386719 L 782.773438 971.761719 Z M 713.046875 949.539062 L 690.203125 971.761719 L 713.046875 993.386719 L 735.285156 971.761719 Z M 665.558594 949.539062 L 642.71875 971.761719 L 665.558594 993.386719 L 687.796875 971.761719 Z M 927.636719 973.566406 L 905.394531 995.1875 L 927.035156 1016.8125 L 949.273438 995.1875 Z M 879.546875 973.566406 L 857.308594 995.1875 L 880.148438 1016.8125 L 901.789062 995.1875 L 879.550781 973.566406 Z M 832.0625 973.566406 L 809.820312 995.1875 L 832.0625 1016.8125 L 854.300781 995.1875 Z M 783.972656 973.566406 L 762.332031 995.1875 L 783.972656 1016.8125 L 806.816406 995.1875 Z M 736.484375 973.566406 L 714.246094 995.1875 L 736.484375 1016.8125 L 758.726562 995.1875 Z M 689 973.566406 L 666.757812 995.1875 L 689 1016.8125 L 711.238281 995.1875 Z M 641.511719 973.566406 L 619.273438 995.1875 L 641.511719 1016.8125 L 664.351562 995.1875 Z M 952.15625 996.398438 L 929.84375 1018.617188 L 952.15625 1040.835938 L 975.046875 1018.617188 Z M 761.609375 996.398438 L 739.371094 1018.621094 L 761.609375 1040.84375 L 783.851562 1018.019531 Z M 714.125 996.398438 L 691.28125 1018.023438 L 714.125 1040.847656 L 736.363281 1018.023438 Z M 666.636719 996.398438 L 643.792969 1018.023438 L 666.636719 1040.847656 L 688.875 1018.023438 Z M 904.667969 997 L 882.429688 1018.625 L 904.667969 1040.847656 L 926.910156 1018.625 Z M 857.179688 997 L 834.339844 1018.625 L 857.179688 1040.847656 L 879.421875 1018.625 Z M 809.09375 997 L 786.855469 1018.625 L 809.09375 1040.847656 L 831.984375 1018.628906 L 809.140625 997.003906 Z M 809.09375 997 "/>
<path style=" stroke:none;fill-rule:evenodd;fill:url(#linear2);" d="M 374.546875 804.625 C 370.703125 804.625 366.917969 805.039062 363.125 805.226562 C 358.507812 907.453125 343.3125 1044.882812 343.3125 1044.882812 L 602.382812 1045.484375 C 602.613281 1041.296875 602.984375 1037.109375 602.984375 1032.871094 C 602.984375 906.816406 500.722656 804.632812 374.574219 804.632812 Z M 374.546875 804.625 "/>
<path style=" stroke:none;fill-rule:evenodd;fill:url(#linear3);" d="M 461.292969 18.234375 L 461.292969 50.527344 L 310.675781 50.527344 C 310.960938 58.019531 311.261719 61.824219 311.773438 74.058594 L 699.539062 74.058594 C 699.863281 69.566406 701.539062 53.226562 701.730469 50.527344 L 484.84375 50.527344 L 484.84375 18.234375 Z M 318.347656 205.40625 C 318.800781 213.882812 318.945312 220.039062 319.441406 228.941406 L 461.292969 228.941406 L 461.292969 800.851562 C 438.375 793.203125 413.945312 788.8125 388.449219 788.8125 C 380.140625 788.8125 371.882812 789.050781 363.804688 789.910156 C 363.527344 797.871094 363.128906 806.082031 362.707031 814.539062 C 371.199219 813.472656 379.667969 812.894531 388.449219 812.894531 C 502.183594 812.894531 594.375 905.027344 594.375 1018.667969 C 594.375 1028.015625 593.394531 1037.011719 592.183594 1046.03125 L 616.832031 1046.03125 C 617.894531 1037.0625 618.472656 1027.917969 618.472656 1018.667969 C 618.472656 926.214844 563.589844 846.640625 484.835938 810.148438 L 484.835938 228.933594 L 688.566406 228.933594 C 689.5 216.5625 689.34375 217 690.210938 205.398438 L 318.328125 205.398438 Z M 318.347656 205.40625 "/>
<path style=" stroke:none;fill-rule:evenodd;fill:url(#linear4);" d="M 309.609375 37.210938 L 309.609375 1113.722656 L 699.011719 1113.722656 C 704.828125 1113.722656 708.855469 1118.402344 708.855469 1124.214844 L 708.855469 1156.992188 L 734.441406 1156.992188 L 734.441406 1061.929688 C 734.273438 1061.328125 733.957031 1060.5625 733.789062 1059.964844 C 732.808594 967.980469 685.492188 862.539062 554.015625 857.382812 C 407.613281 870.078125 384.941406 819.933594 391.300781 671.1875 C 411.78125 464.367188 441.164062 37.203125 441.164062 37.203125 Z M 309.609375 37.210938 "/>
<path style=" stroke:none;fill-rule:evenodd;fill:url(#linear5);" d="M 710.421875 1070.355469 L 57.683594 1082.984375 L 57.199219 1195.410156 L 94.136719 1195.410156 L 94.136719 1186.667969 C 94.136719 1181.914062 98.125 1177.925781 102.882812 1177.925781 C 107.644531 1177.925781 111.632812 1181.914062 111.632812 1186.667969 L 111.632812 1195.410156 L 130.589844 1195.410156 L 130.589844 1186.667969 C 130.589844 1181.914062 134.089844 1177.925781 138.851562 1177.925781 C 143.609375 1177.925781 147.597656 1181.914062 147.597656 1186.667969 L 147.597656 1195.410156 L 166.554688 1195.410156 L 166.554688 1186.667969 C 166.554688 1181.914062 170.058594 1177.925781 174.816406 1177.925781 C 179.578125 1177.925781 183.566406 1181.914062 183.566406 1186.667969 L 183.566406 1195.410156 L 202.523438 1195.410156 L 202.523438 1186.667969 C 202.523438 1181.914062 206.511719 1177.925781 211.269531 1177.925781 C 216.03125 1177.925781 219.53125 1181.914062 219.53125 1186.667969 L 219.53125 1195.410156 L 264.734375 1195.410156 L 264.734375 1165.300781 C 264.734375 1152.921875 273.835938 1142.957031 285.144531 1142.957031 C 296.453125 1142.957031 305.558594 1152.921875 305.558594 1165.300781 L 305.558594 1195.410156 L 340.066406 1195.410156 L 340.066406 1186.667969 C 340.066406 1181.914062 344.054688 1177.925781 348.816406 1177.925781 C 353.578125 1177.925781 357.566406 1181.914062 357.566406 1186.667969 L 357.566406 1195.410156 L 376.519531 1195.410156 L 376.519531 1186.667969 C 376.519531 1181.914062 380.023438 1177.925781 384.78125 1177.925781 C 389.542969 1177.925781 393.53125 1181.914062 393.53125 1186.667969 L 393.53125 1195.410156 L 412.488281 1195.410156 L 412.488281 1186.667969 C 412.488281 1181.914062 415.988281 1177.925781 420.75 1177.925781 C 425.507812 1177.925781 429.496094 1181.914062 429.496094 1186.667969 L 429.496094 1195.410156 L 448.453125 1195.410156 L 448.453125 1186.667969 C 448.453125 1181.914062 452.441406 1177.925781 457.203125 1177.925781 C 461.960938 1177.925781 465.464844 1181.914062 465.464844 1186.667969 L 465.464844 1195.410156 L 484.421875 1195.410156 L 484.421875 1186.667969 C 484.421875 1181.914062 488.410156 1177.925781 493.167969 1177.925781 C 497.929688 1177.925781 501.429688 1181.914062 501.429688 1186.667969 L 501.429688 1195.410156 L 520.386719 1195.410156 L 520.386719 1186.667969 C 520.386719 1181.914062 524.375 1177.925781 529.136719 1177.925781 C 533.894531 1177.925781 537.882812 1181.914062 537.882812 1186.667969 L 537.882812 1195.410156 L 556.839844 1195.410156 L 556.839844 1186.667969 C 556.839844 1181.914062 560.34375 1177.925781 565.101562 1177.925781 C 569.863281 1177.925781 573.851562 1181.914062 573.851562 1186.667969 L 573.851562 1195.410156 L 592.808594 1195.410156 L 592.808594 1186.667969 C 592.808594 1181.914062 596.308594 1177.925781 601.070312 1177.925781 C 605.828125 1177.925781 609.816406 1181.914062 609.816406 1186.667969 L 609.816406 1195.410156 L 628.773438 1195.410156 L 628.773438 1186.667969 C 628.773438 1181.914062 632.761719 1177.925781 637.523438 1177.925781 C 642.28125 1177.925781 645.785156 1181.914062 645.785156 1186.667969 L 645.785156 1195.410156 L 664.742188 1195.410156 L 664.742188 1186.667969 C 664.742188 1181.914062 668.730469 1177.925781 673.488281 1177.925781 C 678.25 1177.925781 682.238281 1181.914062 682.238281 1186.667969 L 682.238281 1195.410156 L 714.316406 1195.410156 L 714.316406 1082.984375 C 713.140625 1078.714844 711.828125 1074.558594 710.425781 1070.355469 Z M 710.421875 1070.355469 "/>
<path style=" stroke:none;fill-rule:evenodd;fill:rgb(67.058824%,41.568627%,23.921569%);fill-opacity:1;" d="M 710.519531 1070.484375 L 57.746094 1083.097656 L 57.746094 1103.601562 L 714.113281 1103.601562 L 714.113281 1083.097656 C 712.941406 1078.824219 711.910156 1074.683594 710.507812 1070.484375 Z M 710.519531 1070.484375 "/>
<path style=" stroke:none;fill-rule:evenodd;fill:url(#linear6);" d="M 23.554688 56.222656 C 23.554688 56.222656 37.511719 472.90625 78.476562 792.957031 C 78.539062 892.148438 57.332031 1082.890625 57.332031 1082.890625 L 363.875 1083.871094 L 714.296875 1083.871094 C 714.296875 990.09375 666.550781 881.277344 532.03125 876.011719 C 383.8125 888.863281 360.828125 838.605469 367.265625 688.058594 C 388.003906 478.734375 417.8125 56.222656 417.8125 56.222656 Z M 23.554688 56.222656 "/>
<path style=" stroke:none;fill-rule:evenodd;fill:rgb(81.960784%,62.352941%,45.882353%);fill-opacity:1;" d="M 379.90625 56.59375 L 401.546875 77.015625 L 417.175781 62 C 417.167969 62.066406 417.179688 64.898438 417.175781 65.003906 L 402.746094 78.816406 L 414.769531 90.832031 C 414.753906 91.164062 414.789062 92.875 414.769531 93.234375 L 401.546875 80.621094 L 385.917969 95.636719 L 382.910156 95.636719 L 400.34375 78.816406 L 378.105469 57.195312 L 355.261719 79.417969 L 372.695312 95.636719 L 369.6875 95.636719 L 354.058594 80.621094 L 338.433594 95.636719 L 334.824219 95.636719 L 352.859375 78.816406 L 330.015625 56.59375 L 332.421875 56.59375 L 353.460938 77.617188 L 375.699219 56.59375 Z M 330.015625 56.59375 L 307.773438 78.816406 L 325.207031 95.636719 L 322.203125 95.636719 L 306.574219 80.621094 L 290.945312 95.636719 L 287.339844 95.636719 L 304.769531 78.816406 L 283.128906 56.59375 L 284.933594 56.59375 L 306.570312 77.015625 L 327.609375 56.59375 Z M 283.128906 56.59375 L 260.289062 78.816406 L 277.71875 95.636719 L 274.714844 95.636719 L 259.085938 80.621094 L 242.855469 95.636719 L 239.851562 95.636719 L 257.28125 78.816406 L 235.042969 56.59375 L 236.84375 56.59375 L 259.085938 77.617188 L 280.125 56.59375 Z M 235.042969 56.59375 L 212.199219 79.417969 L 229.632812 95.636719 L 226.625 95.636719 L 211.597656 80.621094 L 195.371094 95.636719 L 192.363281 95.636719 L 209.796875 78.816406 L 186.953125 57.195312 L 165.316406 79.417969 L 182.144531 95.636719 L 179.742188 95.636719 L 163.511719 80.621094 L 147.882812 95.636719 L 144.277344 95.636719 L 162.308594 78.816406 L 140.070312 56.59375 L 141.871094 56.59375 L 163.511719 77.617188 L 185.152344 56.59375 L 189.359375 56.59375 L 211 77.617188 L 232.039062 56.59375 Z M 140.070312 56.59375 L 117.226562 79.417969 L 134.660156 95.636719 L 131.054688 95.636719 L 116.027344 80.621094 L 100.398438 95.636719 L 97.390625 95.636719 L 114.222656 78.816406 L 92.582031 57.195312 L 69.742188 78.816406 L 87.773438 95.636719 L 84.167969 95.636719 L 68.539062 80.621094 L 52.960938 95.632812 L 49.953125 95.632812 L 66.785156 78.8125 L 45.144531 56.589844 L 47.550781 56.589844 L 68.589844 77.011719 L 90.226562 56.589844 L 94.433594 56.589844 L 115.476562 77.613281 L 137.714844 56.589844 L 140.117188 56.589844 Z M 45.097656 56.59375 L 24.058594 77.015625 C 24.039062 76.324219 24.074219 74.597656 24.058594 74.011719 L 42.089844 56.59375 Z M 24.660156 81.21875 L 39.6875 95.636719 L 36.679688 95.636719 L 24.660156 84.222656 C 24.621094 83.3125 24.699219 82.03125 24.660156 81.21875 Z M 394.335938 256.605469 L 401.550781 263.816406 L 402.75 262.613281 C 402.558594 265.160156 402.945312 264.839844 402.75 267.417969 L 401.550781 266.21875 L 379.308594 288.441406 L 399.316406 308.238281 C 399.238281 309.113281 399.390625 309.761719 399.316406 310.640625 L 378.273438 290.21875 L 355.433594 311.839844 L 378.273438 333.464844 L 398.710938 313.644531 C 398.65625 314.347656 398.769531 314.742188 398.710938 315.445312 L 378.878906 334.664062 L 396.308594 351.484375 C 396.230469 352.398438 395.777344 352.96875 395.707031 353.886719 L 378.277344 336.46875 L 355.4375 358.089844 L 378.277344 380.3125 L 395.109375 364.097656 C 395.050781 364.820312 395.164062 365.171875 395.109375 365.898438 L 379.480469 381.515625 L 392.101562 394.128906 C 392.023438 395.042969 392.179688 395.613281 392.101562 396.53125 L 378.277344 383.316406 L 355.4375 404.941406 L 378.277344 426.5625 L 390.898438 413.949219 C 390.824219 414.882812 390.371094 416.019531 390.300781 416.953125 L 379.480469 427.765625 L 389.097656 437.375 C 389.019531 438.292969 389.175781 438.855469 389.097656 439.777344 L 378.277344 429.566406 L 355.4375 451.1875 L 378.277344 473.410156 L 386.695312 464.402344 C 386.597656 465.503906 386.789062 466.90625 386.695312 468.007812 L 379.480469 475.214844 L 385.492188 481.21875 C 385.433594 481.949219 385.550781 482.292969 385.492188 483.023438 L 378.277344 475.8125 L 356.039062 498.039062 L 378.277344 519.660156 L 383.085938 515.457031 C 383.011719 516.464844 382.574219 517.449219 382.488281 518.457031 L 379.480469 520.863281 L 381.886719 523.265625 C 381.789062 524.449219 381.980469 525.085938 381.886719 526.265625 L 378.277344 522.664062 L 355.4375 544.285156 L 377.941406 566.519531 C 377.847656 567.46875 378.039062 567.972656 377.941406 568.921875 L 355.101562 591.144531 L 373.734375 609.164062 C 373.640625 610.058594 373.832031 610.671875 373.734375 611.566406 L 353.898438 592.34375 L 331.585938 614.570312 L 353.828125 635.59375 L 373.0625 616.972656 C 372.945312 618.230469 372.566406 619.328125 372.460938 620.578125 L 355.03125 637.394531 L 370.058594 651.808594 C 369.980469 652.472656 370.132812 653.554688 370.058594 654.214844 L 353.828125 638.597656 L 331.589844 660.21875 L 353.828125 683.042969 L 368.253906 668.628906 C 368.175781 669.425781 368.332031 670.839844 368.253906 671.632812 L 355.03125 684.246094 L 366.449219 695.054688 C 366.410156 695.839844 366.488281 696.679688 366.449219 697.460938 L 353.828125 684.847656 L 331.589844 707.070312 L 353.828125 728.691406 L 365.847656 716.679688 C 365.835938 717.589844 365.859375 718.78125 365.847656 719.683594 L 355.03125 730.492188 L 365.847656 741.304688 C 365.867188 742.234375 365.832031 743.390625 365.847656 744.308594 L 353.226562 731.695312 L 331.585938 753.316406 L 353.828125 775.539062 L 367.050781 762.925781 C 367.109375 763.695312 366.992188 764.570312 367.050781 765.328125 L 355.027344 777.34375 L 370.65625 791.757812 C 370.886719 793.039062 371.007812 794.710938 371.257812 795.960938 L 352.984375 777.941406 L 330.863281 800.164062 L 353.753906 822.386719 L 372.21875 803.769531 C 372.355469 804.335938 372.679688 805.011719 372.820312 805.570312 L 354.785156 823.589844 L 377.628906 845.214844 L 386.644531 836.804688 C 387 837.355469 387.480469 838.066406 387.847656 838.605469 L 379 847.015625 L 401.117188 869.238281 L 410.160156 860.226562 C 410.601562 860.507812 410.910156 861.152344 411.363281 861.425781 L 402.511719 869.835938 L 425.402344 892.0625 L 443.867188 874.042969 C 444.695312 874.222656 445.429688 873.871094 446.273438 874.042969 L 427.039062 893.863281 L 448.675781 915.484375 L 470.917969 893.863281 L 451.683594 875.242188 C 453.148438 875.484375 454.976562 875.632812 456.492188 875.84375 L 472.71875 892.058594 L 487.746094 877.644531 C 488.632812 877.652344 489.253906 877.640625 490.152344 877.644531 L 473.921875 893.863281 L 496.160156 915.484375 L 519.003906 893.863281 L 502.171875 877.644531 C 503.296875 877.613281 504.636719 877.6875 505.777344 877.644531 L 520.207031 892.058594 L 536.433594 876.441406 C 537.367188 876.5 537.914062 876.378906 538.839844 876.441406 L 521.40625 893.863281 L 544.25 915.484375 L 566.945312 893.265625 L 551.316406 877.648438 C 552.21875 877.761719 553.429688 878.128906 554.324219 878.25 L 568.75 892.066406 L 578.367188 882.453125 C 578.941406 882.601562 579.601562 882.902344 580.167969 883.054688 L 569.351562 893.867188 L 592.191406 915.488281 L 612.628906 895.667969 C 613.273438 895.988281 613.792969 895.945312 614.429688 896.269531 L 593.992188 916.691406 L 616.234375 938.316406 L 638.472656 916.691406 L 623.445312 901.074219 C 625.625 902.355469 627.363281 904.519531 629.457031 905.878906 L 639.675781 915.492188 L 641.476562 913.6875 C 642 914.101562 642.765625 914.472656 643.277344 914.890625 L 641.476562 916.691406 L 663.714844 938.316406 L 665.519531 937.113281 C 666.019531 937.707031 666.832031 937.714844 667.320312 938.316406 L 665.519531 940.117188 L 676.339844 950.929688 C 677.832031 953.113281 679.148438 955.289062 680.546875 957.535156 L 663.8125 941.351562 L 641.570312 962.976562 L 663.8125 985.199219 L 684.851562 964.777344 C 685.25 965.484375 685.664062 966.464844 686.054688 967.179688 L 665.617188 987 L 687.253906 1008.621094 L 699.277344 997.210938 C 699.46875 997.746094 699.691406 998.472656 699.878906 999.011719 L 689.058594 1009.824219 L 708.292969 1029.042969 C 708.519531 1030.136719 708.679688 1030.949219 708.894531 1032.046875 L 687.925781 1011.632812 L 665.6875 1033.257812 L 687.328125 1054.878906 L 709.566406 1034.457031 C 709.660156 1035.015625 710.0625 1035.703125 710.164062 1036.261719 L 689.199219 1056.671875 L 711.511719 1078.890625 L 714.589844 1075.894531 C 714.609375 1076.632812 714.574219 1077.558594 714.589844 1078.296875 L 712.789062 1079.496094 L 714.589844 1081.296875 C 714.597656 1082.214844 714.589844 1083.386719 714.589844 1084.300781 L 711.585938 1080.699219 L 707.976562 1084.300781 L 705.574219 1084.300781 L 710.382812 1079.496094 L 687.539062 1057.875 L 665.300781 1079.496094 L 669.507812 1084.300781 L 667.105469 1084.300781 L 664.097656 1081.296875 L 661.695312 1084.300781 L 658.089844 1084.300781 L 662.296875 1079.496094 L 640.054688 1057.875 L 618.417969 1079.496094 L 622.625 1084.300781 L 619.019531 1084.300781 L 616.613281 1081.296875 L 613.609375 1084.300781 L 610.601562 1084.300781 L 614.808594 1079.496094 L 592.570312 1057.875 L 570.332031 1079.496094 L 575.140625 1084.300781 L 571.535156 1084.300781 L 569.128906 1081.296875 L 566.125 1084.300781 L 563.117188 1084.300781 L 567.324219 1079.496094 L 545.085938 1057.875 L 522.847656 1079.496094 L 527.054688 1084.300781 L 524.050781 1084.300781 L 521.042969 1081.296875 L 518.640625 1084.300781 L 515.03125 1084.300781 L 519.839844 1079.496094 L 497.601562 1057.875 L 475.363281 1079.496094 L 479.570312 1084.300781 L 476.566406 1084.300781 L 473.558594 1081.296875 L 471.15625 1084.300781 L 467.546875 1084.300781 L 471.757812 1079.496094 L 450.117188 1057.875 L 427.878906 1079.496094 L 432.085938 1084.300781 L 428.480469 1084.300781 L 426.074219 1081.296875 L 423.070312 1084.300781 L 420.0625 1084.300781 L 424.269531 1079.496094 L 402.03125 1057.875 L 379.792969 1079.496094 L 384.601562 1084.300781 L 380.992188 1084.300781 L 378.589844 1081.296875 L 375.585938 1084.300781 L 372.578125 1084.300781 L 376.785156 1079.496094 L 353.945312 1057.875 L 332.304688 1079.496094 L 336.511719 1084.300781 L 333.507812 1084.300781 L 330.503906 1081.296875 L 328.097656 1084.300781 L 324.492188 1084.300781 L 329.300781 1079.496094 L 320.886719 1071.6875 C 320.921875 1070.894531 320.847656 1070.082031 320.886719 1069.285156 L 330.503906 1078.894531 L 353.34375 1056.671875 L 330.503906 1034.449219 L 320.886719 1044.0625 C 320.828125 1043.257812 320.347656 1042.457031 320.285156 1041.660156 L 329.300781 1033.25 L 317.878906 1022.4375 C 317.683594 1021.25 317.496094 1020.015625 317.28125 1018.835938 L 330.503906 1031.449219 L 353.347656 1009.824219 L 330.503906 987.601562 L 314.273438 1003.820312 C 314.121094 1003.199219 313.839844 1002.636719 313.675781 1002.015625 L 329.304688 987 L 307.0625 964.777344 L 302.253906 969.582031 C 301.890625 968.757812 301.425781 968 301.050781 967.179688 L 305.261719 962.976562 L 293.238281 951.5625 C 292.019531 949.375 290.917969 947.097656 289.632812 944.957031 L 307.0625 962.375 L 329.304688 940.152344 L 307.0625 918.53125 L 286.023438 938.953125 C 285.542969 938.203125 285.3125 937.289062 284.820312 936.550781 L 305.257812 916.730469 L 283.019531 894.507812 L 265.589844 911.925781 C 265.21875 911.507812 264.757812 911.136719 264.386719 910.722656 L 281.816406 893.90625 L 258.976562 871.082031 L 241.542969 888.5 C 241.117188 888.144531 240.769531 887.652344 240.34375 887.300781 L 257.773438 869.878906 L 235.535156 848.257812 L 213.894531 868.679688 C 213.515625 868.449219 213.074219 868.304688 212.691406 868.078125 L 234.332031 847.054688 L 212.09375 824.832031 L 189.25 846.457031 L 210.289062 866.878906 C 207.890625 865.488281 205.53125 863.972656 203.078125 862.671875 L 187.449219 848.257812 L 182.640625 853.0625 C 182.050781 852.824219 181.425781 852.695312 180.839844 852.460938 L 186.847656 847.054688 L 164.007812 824.832031 L 145.972656 842.25 C 145.34375 842.117188 144.804688 841.78125 144.171875 841.652344 L 162.800781 823.632812 L 140.5625 802.007812 L 118.324219 823.632812 L 134.550781 839.847656 C 133.359375 839.660156 132.144531 839.417969 130.945312 839.25 L 116.519531 825.433594 L 104.496094 836.847656 C 103.496094 836.820312 102.496094 836.855469 101.492188 836.847656 L 114.714844 823.632812 L 93.078125 802.007812 L 78.050781 815.824219 C 78.070312 814.898438 78.632812 814.335938 78.648438 813.421875 L 90.960938 800.769531 L 77.6875 787.554688 C 77.570312 786.652344 77.191406 785.453125 77.085938 784.550781 L 92.714844 798.964844 L 114.957031 777.34375 L 92.714844 755.121094 L 75.886719 771.335938 C 75.769531 770.429688 75.980469 769.84375 75.886719 768.933594 L 90.910156 753.917969 L 71.675781 735.300781 C 71.523438 734.015625 71.214844 732.984375 71.078125 731.695312 L 92.714844 752.71875 L 114.957031 730.496094 L 92.113281 708.875 L 71.074219 729.296875 C 70.996094 728.550781 70.5625 728.238281 70.472656 727.492188 L 90.910156 707.671875 L 68.671875 685.449219 L 66.269531 687.851562 C 66.191406 687.097656 65.753906 686.207031 65.667969 685.449219 L 67.46875 684.25 L 65.667969 682.445312 C 65.570312 681.507812 65.171875 680.382812 65.066406 679.445312 L 68.675781 683.046875 L 90.914062 660.824219 L 68.675781 638.601562 L 62.0625 645.210938 C 61.984375 644.488281 62.140625 643.527344 62.0625 642.808594 L 67.449219 637.394531 L 60.835938 630.789062 C 60.738281 629.867188 60.320312 629.304688 60.234375 628.382812 L 68.652344 635.59375 L 90.890625 614.570312 L 68.652344 592.347656 L 57.832031 603.15625 C 57.753906 602.238281 57.316406 601.074219 57.230469 600.15625 L 66.847656 591.144531 L 56.027344 580.332031 C 55.933594 579.25 56.125 578.414062 56.027344 577.332031 L 68.652344 589.945312 L 90.890625 567.722656 L 68.652344 546.097656 L 54.226562 559.914062 C 54.167969 559.175781 53.695312 558.246094 53.625 557.511719 L 66.851562 544.296875 L 51.222656 529.878906 C 51.125 528.589844 51.316406 526.964844 51.222656 525.675781 L 68.652344 543.09375 L 90.890625 521.472656 L 68.652344 499.847656 L 50.621094 516.667969 C 50.5625 515.929688 50.679688 515 50.621094 514.265625 L 66.851562 498.046875 L 47.613281 479.425781 C 47.519531 478.335938 47.710938 476.910156 47.613281 475.824219 L 68.652344 496.246094 L 90.894531 474.621094 L 68.652344 452.398438 L 47.015625 473.421875 C 46.957031 472.699219 47.070312 471.742188 47.015625 471.019531 L 67.210938 451.183594 L 44.371094 429.5625 L 43.769531 430.160156 C 43.671875 428.742188 43.867188 427.371094 43.769531 425.957031 L 44.972656 426.558594 L 67.210938 404.335938 L 44.972656 382.710938 L 40.765625 386.316406 C 40.6875 385.386719 40.839844 384.242188 40.765625 383.3125 L 43.167969 381.511719 L 40.164062 378.507812 C 40.105469 377.582031 40.222656 377.027344 40.164062 376.105469 L 44.371094 379.710938 L 66.609375 358.085938 L 44.371094 335.863281 L 38.359375 341.871094 C 38.320312 341.140625 37.8125 340.792969 37.757812 340.066406 L 43.144531 334.6875 L 37.132812 328.679688 C 37.078125 327.796875 37.191406 327.15625 37.132812 326.277344 L 44.347656 333.484375 L 66.585938 311.261719 L 44.347656 290.238281 L 34.730469 299.25 C 34.652344 297.9375 34.808594 297.550781 34.730469 296.246094 L 43.144531 288.4375 L 34.128906 279.425781 C 34.050781 278.148438 33.597656 277.695312 33.527344 276.425781 L 44.347656 286.636719 L 66.589844 265.011719 L 58.171875 256.601562 L 61.179688 256.601562 L 68.390625 263.8125 L 75.605469 256.601562 L 78.007812 256.601562 L 69.59375 265.011719 L 91.832031 286.636719 L 114.074219 265.011719 L 105.65625 256.601562 L 108.664062 256.601562 L 115.875 263.8125 L 123.089844 256.601562 L 125.492188 256.601562 L 117.679688 265.011719 L 139.316406 286.636719 L 162.160156 265.011719 L 153.144531 256.601562 L 156.148438 256.601562 L 163.363281 263.8125 L 170.574219 256.601562 L 173.582031 256.601562 L 165.164062 265.011719 L 186.804688 286.636719 L 209.644531 265.613281 L 200.628906 256.601562 L 204.234375 256.601562 L 211.449219 263.808594 L 218.0625 256.601562 L 220.464844 256.601562 L 212.050781 265.011719 L 234.890625 287.234375 L 257.132812 265.609375 L 248.113281 256.601562 L 251.722656 256.601562 L 258.933594 263.808594 L 266.148438 256.601562 L 268.550781 256.601562 L 260.738281 265.011719 L 282.378906 286.632812 L 304.617188 265.609375 L 296.203125 256.601562 L 298.605469 256.601562 L 305.820312 263.808594 L 313.03125 256.601562 L 316.039062 256.601562 L 307.621094 265.609375 L 329.863281 287.234375 L 352.703125 265.609375 L 343.6875 256.601562 L 346.691406 256.601562 L 353.90625 263.808594 L 361.117188 256.601562 L 364.125 256.601562 L 355.109375 265.609375 L 377.949219 287.234375 L 400.1875 265.609375 L 391.171875 256.601562 L 394.179688 256.601562 Z M 354.0625 266.21875 L 331.222656 288.441406 L 354.0625 310.0625 L 376.902344 288.441406 Z M 305.976562 266.21875 L 284.335938 288.441406 L 306.574219 310.0625 L 328.816406 288.441406 L 305.972656 266.21875 Z M 259.089844 266.21875 L 236.25 288.441406 L 259.089844 310.0625 L 281.328125 288.441406 Z M 211.003906 266.21875 L 188.761719 288.441406 L 211.605469 310.0625 L 233.242188 288.441406 Z M 163.515625 266.21875 L 141.277344 288.441406 L 163.515625 310.0625 L 186.355469 288.441406 Z M 116.027344 266.21875 L 93.789062 288.441406 L 116.027344 310.0625 L 137.667969 288.441406 Z M 68.539062 266.21875 L 45.699219 288.441406 L 68.539062 310.0625 L 90.78125 288.441406 Z M 282.53125 289.644531 L 260.289062 311.265625 L 282.53125 333.488281 L 304.769531 311.867188 Z M 91.984375 289.644531 L 69.746094 311.265625 L 91.984375 333.488281 L 114.222656 311.265625 Z M 330.015625 290.242188 L 307.777344 311.265625 L 330.015625 333.488281 L 352.859375 311.867188 Z M 235.042969 290.242188 L 212.804688 311.265625 L 235.042969 333.488281 L 257.285156 311.867188 Z M 186.957031 290.242188 L 164.71875 311.265625 L 186.957031 333.488281 L 209.796875 311.867188 Z M 139.46875 290.242188 L 117.828125 311.265625 L 140.070312 333.488281 L 162.308594 311.867188 Z M 354.054688 313.066406 L 331.816406 334.691406 L 354.054688 356.914062 L 376.292969 334.691406 Z M 306.566406 313.066406 L 284.328125 334.691406 L 306.566406 356.914062 L 328.808594 334.691406 Z M 258.480469 313.066406 L 236.242188 334.691406 L 259.082031 356.914062 L 280.722656 334.691406 Z M 211.59375 313.066406 L 188.753906 334.691406 L 211.59375 356.914062 L 233.234375 334.691406 Z M 163.507812 313.066406 L 141.269531 334.691406 L 163.507812 356.914062 L 186.347656 334.691406 Z M 116.019531 313.066406 L 93.78125 334.691406 L 116.019531 356.914062 L 138.257812 334.691406 Z M 68.53125 313.066406 L 45.691406 334.691406 L 68.53125 356.914062 L 90.773438 334.691406 Z M 139.703125 335.902344 L 117.460938 358.125 L 140.304688 380.347656 L 162.542969 358.125 L 139.652344 335.90625 Z M 330.246094 336.503906 L 308.007812 358.125 L 330.246094 380.347656 L 353.089844 358.125 Z M 282.761719 336.503906 L 260.519531 358.125 L 283.363281 380.347656 L 305 358.125 Z M 235.273438 336.503906 L 212.429688 358.125 L 235.273438 380.347656 L 257.511719 358.125 Z M 187.183594 336.503906 L 165.546875 358.125 L 187.183594 379.75 L 210.027344 358.125 Z M 92.210938 336.503906 L 69.972656 358.125 L 92.210938 380.347656 L 114.453125 358.125 Z M 354.289062 359.328125 L 332.050781 381.550781 L 354.289062 403.171875 L 377.128906 381.550781 Z M 259.316406 359.328125 L 236.476562 381.550781 L 259.316406 403.171875 L 281.554688 381.550781 Z M 211.230469 359.328125 L 188.988281 381.550781 L 211.832031 403.171875 L 234.070312 381.550781 Z M 163.742188 359.328125 L 141.503906 381.550781 L 163.742188 403.171875 L 186.582031 381.550781 Z M 116.253906 359.328125 L 94.015625 381.550781 L 116.253906 403.171875 L 138.492188 381.550781 Z M 68.765625 359.328125 L 45.925781 381.550781 L 68.765625 403.171875 L 91.007812 381.550781 Z M 306.203125 359.925781 L 284.5625 381.550781 L 306.804688 403.171875 L 329.042969 381.550781 Z M 187.1875 382.75 L 164.949219 404.972656 L 187.1875 426.597656 L 210.027344 404.972656 Z M 92.214844 382.75 L 69.976562 404.972656 L 92.816406 426.597656 L 114.457031 404.972656 Z M 330.246094 383.351562 L 308.007812 404.976562 L 330.246094 426.597656 L 353.089844 404.976562 Z M 282.761719 383.351562 L 260.519531 404.976562 L 282.761719 426.597656 L 305 404.976562 Z M 235.273438 383.351562 L 213.035156 404.375 L 235.875 426.597656 L 257.515625 404.976562 Z M 139.699219 383.351562 L 118.058594 404.976562 L 139.699219 426.597656 L 162.539062 404.976562 Z M 306.199219 406.175781 L 284.5625 427.800781 L 306.800781 450.023438 L 329.039062 428.398438 Z M 211.828125 406.175781 L 188.988281 427.800781 L 211.828125 450.023438 L 234.070312 427.800781 Z M 163.742188 406.175781 L 141.503906 427.800781 L 163.742188 450.023438 L 186.582031 427.800781 Z M 116.253906 406.175781 L 94.015625 427.800781 L 116.253906 450.023438 L 138.492188 427.800781 Z M 68.765625 406.175781 L 45.925781 427.800781 L 68.765625 450.023438 L 91.007812 427.800781 Z M 353.675781 406.777344 L 332.035156 427.800781 L 354.277344 450.023438 L 376.515625 427.800781 L 353.671875 406.777344 Z M 259.304688 406.777344 L 236.464844 427.800781 L 259.304688 450.023438 L 280.945312 427.800781 Z M 92.804688 429 L 69.960938 451.222656 L 92.203125 473.445312 L 115.042969 450.621094 Z M 330.738281 429.652344 L 308.425781 451.277344 L 330.667969 473.5 L 353.507812 451.277344 L 330.667969 429.652344 Z M 283.253906 429.652344 L 261.011719 451.277344 L 283.855469 473.5 L 305.492188 451.277344 Z M 235.765625 429.652344 L 213.527344 451.277344 L 235.765625 473.5 L 257.886719 451.28125 L 235.644531 429.65625 Z M 187.679688 429.652344 L 165.4375 451.277344 L 187.679688 473.5 L 210.519531 451.277344 Z M 140.191406 429.652344 L 117.878906 451.277344 L 140.191406 473.496094 L 163.082031 451.277344 Z M 354.179688 452.476562 L 332.539062 474.699219 L 354.78125 496.324219 L 377.019531 475.300781 L 354.175781 452.476562 Z M 259.808594 452.476562 L 236.96875 474.699219 L 259.808594 496.324219 L 282.046875 474.699219 Z M 212.320312 452.476562 L 189.480469 474.699219 L 212.320312 496.324219 L 234.5625 474.699219 Z M 164.234375 452.476562 L 141.996094 474.699219 L 164.234375 496.324219 L 187.074219 474.699219 Z M 116.746094 452.476562 L 94.507812 474.699219 L 116.746094 496.324219 L 138.988281 474.699219 Z M 307.292969 453.078125 L 285.054688 474.703125 L 307.292969 496.324219 L 329.53125 474.703125 Z M 140.789062 475.300781 L 118.550781 498.125 L 140.789062 519.75 L 163.03125 498.125 Z M 330.734375 475.902344 L 308.496094 498.125 L 330.734375 519.746094 L 353.578125 498.125 Z M 283.25 475.902344 L 261.007812 498.125 L 283.25 519.746094 L 305.488281 498.125 Z M 235.761719 475.902344 L 212.921875 498.125 L 235.761719 519.746094 L 258 498.125 Z M 188.273438 475.902344 L 166.035156 498.125 L 187.675781 519.746094 L 210.515625 498.125 L 188.394531 475.925781 Z M 92.699219 475.902344 L 70.460938 498.125 L 93.300781 519.746094 L 114.941406 498.125 L 92.703125 475.902344 Z M 307.554688 499.351562 L 285.316406 520.972656 L 307.554688 543.195312 L 329.792969 520.972656 Z M 260.066406 499.351562 L 237.226562 520.972656 L 260.066406 543.195312 L 282.304688 520.972656 Z M 212.578125 499.351562 L 189.738281 520.972656 L 212.628906 543.195312 L 234.941406 520.972656 L 212.628906 499.351562 Z M 164.492188 499.351562 L 142.253906 520.972656 L 164.566406 543.195312 L 187.453125 520.972656 L 164.566406 499.351562 Z M 117.003906 499.351562 L 94.765625 520.972656 L 117.003906 543.195312 L 139.246094 520.972656 Z M 355.039062 499.953125 L 332.796875 520.976562 L 355.039062 543.199219 L 377.277344 520.976562 Z M 331.59375 522.777344 L 309.355469 544.398438 L 330.992188 566.621094 L 353.835938 544.398438 L 331.597656 522.777344 Z M 283.507812 522.777344 L 261.265625 544.398438 L 283.578125 566.628906 L 305.820312 544.40625 L 283.578125 522.78125 Z M 236.019531 522.777344 L 213.175781 544.398438 L 236.019531 566.621094 L 258.257812 544.398438 Z M 188.53125 522.777344 L 165.691406 544.398438 L 188.003906 566.628906 L 211.46875 544.40625 L 188.578125 522.78125 Z M 141.042969 522.777344 L 118.804688 544.398438 L 140.539062 566.628906 L 163.382812 544.40625 L 141.144531 522.78125 Z M 92.957031 522.777344 L 70.71875 544.398438 L 93.558594 566.621094 L 115.199219 544.398438 L 92.960938 522.777344 Z M 355.035156 545.601562 L 332.792969 567.824219 L 355.035156 589.445312 L 377.875 567.824219 Z M 260.0625 545.601562 L 237.21875 567.824219 L 260.0625 590.046875 L 282.300781 567.824219 Z M 212.574219 545.601562 L 189.730469 567.824219 L 212.574219 589.445312 L 234.8125 567.824219 Z M 164.484375 545.601562 L 142.246094 567.824219 L 164.484375 590.046875 L 187.328125 567.824219 Z M 307.546875 546.199219 L 285.308594 567.824219 L 307.546875 589.445312 L 329.785156 567.824219 Z M 117 546.199219 L 94.761719 567.824219 L 117 589.445312 L 139.242188 567.824219 Z M 330.988281 569.023438 L 308.75 591.246094 L 330.988281 612.871094 L 353.832031 591.246094 Z M 284.105469 569.023438 L 261.867188 591.246094 L 283.503906 612.871094 L 305.742188 591.246094 Z M 236.617188 569.023438 L 213.175781 591.246094 L 236.015625 612.871094 L 258.855469 591.246094 L 236.738281 569.03125 Z M 187.929688 569.023438 L 166.289062 591.246094 L 187.929688 612.871094 L 210.769531 591.246094 Z M 140.441406 569.023438 L 118.203125 591.246094 L 141.042969 612.871094 L 163.285156 591.246094 L 140.585938 569.03125 Z M 92.957031 569.023438 L 70.714844 591.246094 L 92.957031 612.871094 L 115.195312 591.246094 Z M 307.539062 592.449219 L 285.300781 614.671875 L 307.539062 635.695312 L 329.78125 614.074219 Z M 260.054688 592.449219 L 237.210938 614.671875 L 260.054688 635.695312 L 282.292969 614.074219 Z M 212.566406 592.449219 L 189.722656 614.074219 L 212.804688 636.300781 L 235.117188 614.679688 L 212.804688 592.457031 Z M 164.480469 592.449219 L 142.359375 614.679688 L 164.671875 636.300781 L 187.5625 614.679688 L 164.671875 592.457031 Z M 116.992188 592.449219 L 94.75 614.074219 L 116.992188 636.296875 L 139.230469 614.671875 Z M 330.980469 615.875 L 308.742188 637.5 L 330.980469 659.722656 L 353.820312 637.5 Z M 284.09375 615.875 L 261.855469 637.5 L 283.496094 659.722656 L 305.734375 637.5 Z M 236.609375 615.875 L 213.765625 637.5 L 236.003906 659.722656 L 258.246094 637.5 L 236.605469 615.875 Z M 187.921875 615.875 L 165.679688 637.5 L 188.523438 659.722656 L 210.761719 637.5 Z M 140.433594 615.875 L 118.792969 637.5 L 141.03125 659.722656 L 163.273438 637.5 L 140.429688 615.875 Z M 92.945312 615.875 L 70.707031 637.5 L 93.546875 659.722656 L 115.1875 637.5 L 92.949219 615.875 Z M 307.53125 638.703125 L 285.292969 660.925781 L 307.53125 682.546875 L 329.769531 660.324219 Z M 260.042969 639.300781 L 237.203125 660.925781 L 260.042969 682.546875 L 282.28125 660.324219 Z M 212.554688 639.300781 L 189.714844 660.925781 L 212.554688 683.148438 L 234.796875 660.925781 Z M 164.46875 639.300781 L 142.230469 660.324219 L 164.46875 683.148438 L 187.308594 660.925781 L 164.46875 639.304688 Z M 116.980469 639.300781 L 94.742188 660.925781 L 116.980469 683.148438 L 139.222656 660.925781 Z M 330.972656 661.523438 L 308.730469 684.347656 L 330.972656 705.972656 L 353.8125 684.347656 Z M 283.484375 662.125 L 261.242188 684.347656 L 283.484375 705.972656 L 305.722656 684.347656 Z M 235.996094 662.125 L 213.757812 684.347656 L 235.996094 705.972656 L 258.234375 684.347656 Z M 140.421875 662.125 L 118.183594 684.347656 L 141.023438 705.972656 L 163.261719 684.347656 Z M 93.535156 662.125 L 70.695312 684.347656 L 93.535156 705.972656 L 115.777344 684.347656 Z M 188.171875 662.734375 L 166.53125 684.355469 L 188.171875 705.980469 L 211.015625 684.355469 Z M 307.789062 684.957031 L 285.550781 707.179688 L 307.789062 729.402344 L 330.03125 707.777344 L 307.789062 684.953125 Z M 117.246094 684.957031 L 95.003906 707.78125 L 117.246094 729.402344 L 139.484375 707.78125 Z M 260.304688 685.554688 L 237.464844 707.777344 L 260.304688 728.800781 L 281.945312 707.777344 Z M 212.816406 685.554688 L 189.976562 707.777344 L 212.816406 729.402344 L 235.058594 707.777344 Z M 164.730469 685.554688 L 142.492188 707.777344 L 164.730469 729.402344 L 187.570312 707.777344 Z M 331.230469 708.980469 L 308.992188 730.605469 L 331.230469 752.828125 L 354.074219 730.605469 Z M 283.746094 708.980469 L 261.503906 730.605469 L 283.746094 752.828125 L 305.984375 730.605469 Z M 236.257812 708.980469 L 214.019531 730.605469 L 236.257812 752.828125 L 258.496094 730.605469 Z M 141.285156 708.980469 L 119.046875 730.605469 L 141.285156 752.828125 L 163.523438 730.605469 Z M 188.171875 709.582031 L 166.53125 730.605469 L 188.171875 752.828125 L 211.011719 730.605469 Z M 307.1875 732.40625 L 285.546875 753.429688 L 307.785156 775.652344 L 330.027344 754.03125 L 307.183594 732.40625 Z M 259.699219 732.40625 L 237.460938 753.429688 L 260.300781 776.253906 L 282.613281 754.03125 L 259.722656 732.40625 Z M 212.8125 732.40625 L 189.972656 754.03125 L 212.863281 776.253906 L 234.597656 754.03125 L 212.863281 732.40625 Z M 164.726562 732.40625 L 142.488281 754.03125 L 164.800781 776.253906 L 187.6875 754.03125 L 164.800781 732.40625 Z M 117.238281 732.40625 L 95.601562 754.03125 L 117.238281 776.253906 L 139.550781 754.03125 Z M 331.226562 755.230469 L 308.988281 777.453125 L 331.226562 799.078125 L 354.070312 777.453125 Z M 283.742188 755.230469 L 261.5 777.453125 L 283.742188 799.078125 L 305.980469 777.453125 Z M 236.253906 755.230469 L 213.414062 777.453125 L 236.253906 799.078125 L 258.492188 777.453125 Z M 188.765625 755.230469 L 166.527344 777.453125 L 188.167969 799.078125 L 211.007812 777.453125 L 188.886719 755.230469 Z M 141.28125 755.230469 L 119.039062 777.453125 L 141.28125 799.078125 L 163.519531 777.453125 Z M 213.027344 778.054688 L 190.136719 800.277344 L 213.027344 822.503906 L 235.339844 800.878906 Z M 307.394531 778.65625 L 285.757812 800.277344 L 307.996094 822.5 L 330.234375 800.878906 Z M 259.910156 778.65625 L 237.667969 800.878906 L 260.511719 822.5 L 282.152344 800.878906 Z M 164.9375 778.65625 L 142.695312 800.878906 L 165.007812 821.902344 L 187.898438 800.878906 L 165.007812 778.65625 Z M 117.449219 778.65625 L 95.210938 800.878906 L 117.449219 822.5 L 139.6875 800.878906 Z M 331.535156 802.082031 L 309.222656 823.703125 L 331.535156 845.328125 L 354.375 823.703125 Z M 284.046875 802.082031 L 261.808594 823.703125 L 284.121094 845.328125 L 306.242188 823.703125 L 284.121094 802.082031 Z M 236.558594 802.082031 L 213.71875 823.703125 L 236.558594 845.328125 L 258.800781 823.703125 Z M 188.472656 802.082031 L 166.234375 823.703125 L 189.121094 845.328125 L 211.433594 823.703125 L 188.546875 802.082031 Z M 260.601562 824.90625 L 237.761719 847.128906 L 260.652344 869.355469 L 282.964844 847.132812 L 260.652344 824.90625 Z M 354.972656 825.507812 L 333.335938 847.128906 L 355.574219 869.351562 L 377.8125 847.128906 Z M 307.488281 825.507812 L 285.175781 846.527344 L 308.0625 869.351562 L 330.304688 847.128906 L 307.460938 825.507812 Z M 79.070312 831.511719 L 85.683594 837.519531 C 84.679688 837.582031 83.675781 838.042969 82.679688 838.121094 L 79.070312 834.515625 L 79.070312 833.914062 C 79.109375 832.933594 79.03125 832.484375 79.070312 831.511719 Z M 379.617188 848.332031 L 356.777344 869.953125 L 379.617188 892.175781 L 401.855469 869.953125 Z M 331.53125 848.332031 L 309.289062 869.953125 L 331.53125 892.175781 L 354.371094 869.953125 Z M 284.042969 848.332031 L 261.804688 869.953125 L 284.042969 892.175781 L 306.28125 869.953125 Z M 403.058594 871.757812 L 380.820312 893.980469 L 403.058594 915.601562 L 425.300781 893.980469 L 402.988281 871.761719 Z M 355.570312 871.757812 L 333.332031 893.980469 L 355.570312 915.601562 L 377.8125 893.980469 Z M 308.085938 871.757812 L 285.84375 893.980469 L 308.085938 915.601562 L 330.324219 893.980469 Z M 570.160156 894.582031 L 547.320312 916.804688 L 570.160156 938.425781 L 592.402344 916.804688 Z M 522.074219 894.582031 L 499.835938 916.804688 L 522.074219 938.425781 L 544.914062 916.804688 Z M 474.585938 894.582031 L 452.347656 916.804688 L 474.585938 938.425781 L 496.824219 916.804688 Z M 427.097656 894.582031 L 404.257812 916.804688 L 427.097656 938.425781 L 449.339844 916.804688 Z M 379.613281 894.582031 L 356.769531 916.804688 L 379.613281 938.425781 L 401.851562 916.804688 Z M 331.523438 894.582031 L 309.285156 916.804688 L 331.523438 938.425781 L 354.367188 916.804688 Z M 641.6875 918.605469 L 619.449219 940.230469 L 641.089844 962.453125 L 663.328125 940.230469 Z M 594.203125 918.605469 L 571.359375 940.230469 L 593.597656 962.453125 L 615.839844 940.230469 L 594.199219 918.605469 Z M 546.113281 918.605469 L 523.273438 940.230469 L 546.113281 962.453125 L 568.351562 940.230469 Z M 498.027344 918.605469 L 475.785156 940.230469 L 498.027344 962.453125 L 520.867188 940.230469 Z M 450.539062 918.605469 L 428.300781 940.230469 L 450.539062 962.453125 L 472.777344 940.230469 Z M 403.050781 918.605469 L 380.8125 940.230469 L 403.050781 962.453125 L 425.292969 940.230469 Z M 355.566406 918.605469 L 333.324219 940.230469 L 355.566406 962.453125 L 378.40625 940.230469 Z M 617.640625 941.429688 L 595.402344 963.054688 L 617.640625 985.277344 L 639.878906 963.054688 Z M 570.152344 941.429688 L 547.3125 963.054688 L 570.152344 985.277344 L 592.394531 963.054688 Z M 522.066406 941.429688 L 499.828125 963.054688 L 522.066406 985.277344 L 545.339844 963.058594 L 522.449219 941.433594 Z M 474.578125 941.429688 L 452.339844 963.054688 L 474.578125 985.277344 L 497.277344 963.058594 L 474.964844 941.433594 Z M 427.089844 941.429688 L 404.25 963.054688 L 427.089844 985.277344 L 449.789062 963.058594 L 427.667969 941.433594 Z M 379.605469 941.429688 L 356.761719 963.054688 L 379.605469 985.277344 L 401.84375 963.054688 Z M 331.515625 941.429688 L 309.277344 963.054688 L 331.515625 985.277344 L 354.359375 963.054688 Z M 641.679688 964.855469 L 619.441406 987.078125 L 641.679688 1008.703125 L 663.921875 987.078125 Z M 594.195312 964.855469 L 571.351562 987.078125 L 593.589844 1008.703125 L 615.832031 987.078125 L 594.191406 964.855469 Z M 546.105469 964.855469 L 523.867188 987.078125 L 546.105469 1008.703125 L 568.34375 987.078125 Z M 498.019531 964.855469 L 475.777344 987.078125 L 498.019531 1008.703125 L 520.859375 987.078125 Z M 450.53125 964.855469 L 428.292969 987.078125 L 450.53125 1008.703125 L 472.769531 987.078125 Z M 403.042969 964.855469 L 380.804688 987.078125 L 403.695312 1008.703125 L 426.007812 987.078125 L 403.695312 964.859375 Z M 355.558594 964.855469 L 334.015625 987.078125 L 356.328125 1008.699219 L 379.167969 987.078125 L 356.328125 964.851562 Z M 665.125 987.679688 L 642.886719 1009.90625 L 665.125 1032.128906 L 687.964844 1009.90625 Z M 617.636719 987.679688 L 595.398438 1009.90625 L 617.636719 1032.128906 L 639.875 1009.90625 Z M 570.148438 987.679688 L 547.308594 1009.90625 L 570.148438 1031.527344 L 592.390625 1009.90625 Z M 522.0625 987.679688 L 499.824219 1009.90625 L 522.0625 1031.527344 L 544.902344 1009.90625 Z M 474.574219 987.679688 L 452.335938 1009.90625 L 474.574219 1031.527344 L 496.816406 1009.90625 Z M 427.085938 987.679688 L 404.246094 1009.90625 L 427.085938 1031.527344 L 449.328125 1009.90625 Z M 379.601562 987.679688 L 356.757812 1009.90625 L 379.601562 1031.527344 L 401.839844 1009.90625 Z M 641.675781 1011.707031 L 619.4375 1033.332031 L 641.078125 1054.953125 L 663.316406 1033.332031 Z M 593.589844 1011.707031 L 571.351562 1033.332031 L 594.191406 1054.953125 L 615.832031 1033.332031 Z M 546.101562 1011.707031 L 523.863281 1033.332031 L 546.101562 1054.953125 L 568.339844 1033.332031 Z M 498.015625 1011.707031 L 476.375 1033.332031 L 498.015625 1054.953125 L 520.855469 1033.332031 Z M 450.527344 1011.707031 L 428.289062 1033.332031 L 450.527344 1054.953125 L 472.765625 1033.332031 Z M 403.039062 1011.707031 L 380.800781 1033.332031 L 403.039062 1054.953125 L 425.28125 1033.332031 Z M 355.554688 1011.707031 L 333.3125 1033.332031 L 355.554688 1054.953125 L 378.394531 1033.332031 Z M 666.199219 1034.542969 L 643.886719 1056.761719 L 666.199219 1078.980469 L 689.085938 1056.761719 Z M 475.652344 1034.542969 L 453.414062 1056.765625 L 475.652344 1078.988281 L 497.890625 1056.164062 L 475.652344 1034.539062 Z M 428.164062 1034.542969 L 405.324219 1056.164062 L 428.164062 1078.988281 L 450.40625 1056.164062 Z M 380.675781 1034.542969 L 357.835938 1056.164062 L 380.675781 1078.988281 L 402.917969 1056.164062 Z M 618.710938 1035.140625 L 596.472656 1056.765625 L 618.710938 1078.988281 L 640.949219 1056.765625 Z M 571.222656 1035.140625 L 548.382812 1056.765625 L 571.222656 1078.988281 L 593.460938 1056.765625 Z M 523.136719 1035.140625 L 500.894531 1056.765625 L 523.136719 1078.988281 L 546.023438 1056.769531 L 523.183594 1035.144531 Z M 523.136719 1035.140625 "/>
<path style=" stroke:none;fill-rule:evenodd;fill:url(#linear7);" d="M 88.585938 842.765625 C 84.746094 842.765625 80.960938 843.179688 77.167969 843.367188 C 72.550781 945.59375 57.355469 1083.023438 57.355469 1083.023438 L 316.425781 1083.625 C 316.65625 1079.4375 317.027344 1075.25 317.027344 1071.011719 C 317.027344 944.957031 214.761719 842.773438 88.613281 842.773438 Z M 88.585938 842.765625 "/>
<path style=" stroke:none;fill-rule:evenodd;fill:url(#linear8);" d="M 175.335938 56.378906 L 175.335938 88.667969 L 24.71875 88.667969 C 25.003906 96.160156 25.304688 99.964844 25.8125 112.199219 L 413.582031 112.199219 C 413.902344 107.707031 415.582031 91.371094 415.773438 88.667969 L 198.882812 88.667969 L 198.882812 56.378906 L 175.332031 56.378906 Z M 32.386719 243.546875 C 32.84375 252.023438 32.984375 258.179688 33.480469 267.082031 L 175.335938 267.082031 L 175.335938 838.996094 C 152.414062 831.34375 127.988281 826.953125 102.492188 826.953125 C 94.183594 826.953125 85.925781 827.191406 77.84375 828.050781 C 77.570312 836.011719 77.167969 844.222656 76.75 852.679688 C 85.238281 851.613281 93.710938 851.035156 102.488281 851.035156 C 216.222656 851.035156 308.414062 943.167969 308.414062 1056.808594 C 308.414062 1066.15625 307.433594 1075.152344 306.226562 1084.171875 L 330.871094 1084.171875 C 331.9375 1075.207031 332.515625 1066.058594 332.515625 1056.808594 C 332.515625 964.355469 277.628906 884.785156 198.875 848.289062 L 198.875 267.074219 L 402.609375 267.074219 C 403.539062 254.703125 403.386719 255.140625 404.25 243.539062 L 32.371094 243.539062 Z M 32.386719 243.546875 "/>
</g>
</svg>
