<?xml version="1.0" encoding="UTF-8" standalone="no"?>
<!-- Created with Inkscape (http://www.inkscape.org/) -->

<svg
   xmlns:dc="http://purl.org/dc/elements/1.1/"
   xmlns:cc="http://creativecommons.org/ns#"
   xmlns:rdf="http://www.w3.org/1999/02/22-rdf-syntax-ns#"
   xmlns:svg="http://www.w3.org/2000/svg"
   xmlns="http://www.w3.org/2000/svg"
   xmlns:sodipodi="http://sodipodi.sourceforge.net/DTD/sodipodi-0.dtd"
   xmlns:inkscape="http://www.inkscape.org/namespaces/inkscape"
   width="153.18193mm"
   height="159.32155mm"
   viewBox="0 0 542.77062 564.52517"
   id="svg2"
   version="1.1"
   inkscape:version="0.91 r13725"
   sodipodi:docname="categorynumbers.svg">
  <defs
     id="defs4">
    <linearGradient
       inkscape:collect="always"
       x1="135.44"
       y1="675.76001"
       gradientTransform="matrix(1.0217,0,0,1.0217,-6.5536,-23.756)"
       x2="313.19"
       gradientUnits="userSpaceOnUse"
       y2="675.76001"
       id="linearGradient4049">
      <stop
         offset="0"
         style="stop-color:#ffffff"
         id="stop4045" />
      <stop
         offset="1"
         style="stop-color:#ffffff;stop-opacity:0"
         id="stop4047" />
    </linearGradient>
    <linearGradient
       inkscape:collect="always"
       x1="167"
       y1="977.35999"
       gradientTransform="translate(-1,-1)"
       x2="167"
       gradientUnits="userSpaceOnUse"
       y2="939.15002"
       id="linearGradient4057">
      <stop
         offset="0"
         style="stop-color:#ffdd55"
         id="stop4053" />
      <stop
         offset="1"
         style="stop-color:#ffdd55;stop-opacity:0"
         id="stop4055" />
    </linearGradient>
    <filter
       inkscape:collect="always"
       id="filter4063">
      <feGaussianBlur
         inkscape:collect="always"
         stdDeviation="1.4992716"
         id="feGaussianBlur4065" />
    </filter>
    <linearGradient
       inkscape:collect="always"
       x1="280"
       y1="203"
       gradientTransform="matrix(1.0217,0,0,1.0217,-8.5971,591.7)"
       x2="253.82001"
       gradientUnits="userSpaceOnUse"
       y2="229.17999"
       id="linearGradient4085">
      <stop
         offset="0"
         style="stop-color:#eaff35"
         id="stop4081" />
      <stop
         offset="1"
         style="stop-color:#ccff00;stop-opacity:0"
         id="stop4083" />
    </linearGradient>
    <linearGradient
       inkscape:collect="always"
       x1="240"
       y1="671.35999"
       gradientTransform="matrix(1.0217,0,0,1.0217,-7.5754,-23.756)"
       x2="241"
       gradientUnits="userSpaceOnUse"
       y2="979.35999"
       id="linearGradient4093">
      <stop
         offset="0"
         style="stop-color:#ffd42a"
         id="stop4089" />
      <stop
         offset="1"
         style="stop-color:#f1ab00"
         id="stop4091" />
    </linearGradient>
    <filter
       inkscape:collect="always"
       x="-0.16289"
       y="-0.69599998"
       width="1.3257999"
       height="2.392"
       id="filter4097">
      <feGaussianBlur
         inkscape:collect="always"
         stdDeviation="6.38"
         id="feGaussianBlur4099" />
    </filter>
    <filter
       inkscape:collect="always"
       x="-0.18088999"
       y="-0.48840001"
       width="1.3618"
       height="1.9768"
       id="filter3858">
      <feGaussianBlur
         inkscape:collect="always"
         stdDeviation="5.9777395"
         id="feGaussianBlur3860" />
    </filter>
    <filter
       inkscape:collect="always"
       id="filter3984">
      <feGaussianBlur
         inkscape:collect="always"
         stdDeviation="1.2936066"
         id="feGaussianBlur3986" />
    </filter>
    <linearGradient
       inkscape:collect="always"
       x1="256"
       y1="59"
       gradientTransform="translate(20,602.36)"
       x2="264"
       gradientUnits="userSpaceOnUse"
       y2="334"
       id="linearGradient3996">
      <stop
         offset="0"
         style="stop-color:#d45500"
         id="stop3898" />
      <stop
         offset="1"
         style="stop-color:#552200"
         id="stop3900" />
    </linearGradient>
    <linearGradient
       inkscape:collect="always"
       x1="190"
       y1="651.35999"
       x2="192"
       gradientUnits="userSpaceOnUse"
       y2="730.35999"
       id="linearGradient3998">
      <stop
         offset="0"
         style="stop-color:#ffffff"
         id="stop3940" />
      <stop
         offset="1"
         style="stop-color:#ffffff;stop-opacity:0"
         id="stop3942" />
    </linearGradient>
    <linearGradient
       inkscape:collect="always"
       x1="193"
       y1="986.35999"
       gradientTransform="translate(-1,-2)"
       x2="199"
       gradientUnits="userSpaceOnUse"
       y2="918.35999"
       id="linearGradient4000">
      <stop
         offset="0"
         style="stop-color:#d45500"
         id="stop3978" />
      <stop
         offset="1"
         style="stop-color:#d45500;stop-opacity:0"
         id="stop3980" />
    </linearGradient>
    <linearGradient
       inkscape:collect="always"
       x1="393.62"
       y1="291.56"
       gradientTransform="matrix(1.0504,0,0,1.0504,-181.29,304.64)"
       x2="416.14001"
       gradientUnits="userSpaceOnUse"
       y2="354.22"
       id="linearGradient3809">
      <stop
         offset="0"
         style="stop-color:#ffffff"
         id="stop3805" />
      <stop
         offset="1"
         style="stop-color:#ffffff;stop-opacity:0"
         id="stop3807" />
    </linearGradient>
    <linearGradient
       inkscape:collect="always"
       x1="424.95001"
       y1="628.39001"
       gradientTransform="translate(-163.41,321.87)"
       x2="424.95001"
       gradientUnits="userSpaceOnUse"
       y2="568.53003"
       id="linearGradient3817">
      <stop
         offset="0"
         style="stop-color:#ff0000"
         id="stop3813" />
      <stop
         offset="1"
         style="stop-color:#ff0000;stop-opacity:0"
         id="stop3815" />
    </linearGradient>
    <filter
       inkscape:collect="always"
       id="filter3823"
       style="color-interpolation-filters:sRGB">
      <feGaussianBlur
         inkscape:collect="always"
         stdDeviation="1.548125"
         id="feGaussianBlur3825" />
    </filter>
    <linearGradient
       inkscape:collect="always"
       x1="431.81"
       y1="437.45001"
       gradientTransform="matrix(1.0504,0,0,1.0504,-181.29,306.64)"
       x2="427.89001"
       gradientUnits="userSpaceOnUse"
       y2="528.51001"
       id="linearGradient3850">
      <stop
         offset="0"
         style="stop-color:#ff0000"
         id="stop3846" />
      <stop
         offset="1"
         style="stop-color:#ff0000;stop-opacity:0"
         id="stop3848" />
    </linearGradient>
    <linearGradient
       inkscape:collect="always"
       x1="414.17999"
       y1="365"
       gradientTransform="matrix(1.0504,0,0,1.0504,-181.29,306.64)"
       x2="414.17999"
       gradientUnits="userSpaceOnUse"
       y2="634.26001"
       id="linearGradient3854">
      <stop
         offset="0"
         style="stop-color:#ff0000"
         id="stop3797" />
      <stop
         offset="1"
         style="stop-color:#800000"
         id="stop3799" />
    </linearGradient>
    <filter
       inkscape:collect="always"
       x="-0.18088999"
       y="-0.48840001"
       width="1.3618"
       height="1.9768"
       id="filter3858-9">
      <feGaussianBlur
         inkscape:collect="always"
         stdDeviation="5.9777395"
         id="feGaussianBlur3860-5" />
    </filter>
  </defs>
  <sodipodi:namedview
     id="base"
     pagecolor="#ffffff"
     bordercolor="#666666"
     borderopacity="1.0"
     inkscape:pageopacity="0.0"
     inkscape:pageshadow="2"
     inkscape:zoom="0.35"
     inkscape:cx="-492.31257"
     inkscape:cy="-226.74101"
     inkscape:document-units="px"
     inkscape:current-layer="layer1"
     showgrid="false"
     fit-margin-top="0"
     fit-margin-left="0"
     fit-margin-right="0"
     fit-margin-bottom="0"
     inkscape:window-width="1855"
     inkscape:window-height="1056"
     inkscape:window-x="65"
     inkscape:window-y="24"
     inkscape:window-maximized="1" />
  <metadata
     id="metadata7">
    <rdf:RDF>
      <cc:Work
         rdf:about="">
        <dc:format>image/svg+xml</dc:format>
        <dc:type
           rdf:resource="http://purl.org/dc/dcmitype/StillImage" />
        <dc:title></dc:title>
      </cc:Work>
    </rdf:RDF>
  </metadata>
  <g
     inkscape:label="Layer 1"
     inkscape:groupmode="layer"
     id="layer1"
     transform="translate(35.544572,258.90399)">
    <g
       transform="translate(10.761644,-881.61502)"
       inkscape:label="Layer 1"
       id="layer1-3">
      <path
         d="m 238.44,629.09 c -2.2196,0.0172 -4.4601,0.048 -6.7352,0.12915 -17.389,0.62105 -34.111,3.0521 -50.178,7.329 -16.152,4.3001 -31.642,10.789 -46.38,19.469 a 6.3334,6.4061 0 0 0 -3.1282,5.3596 l -1.3726,45.815 a 6.3334,6.4061 0 0 0 9.6399,5.6502 c 6.8761,-4.2985 14.173,-8.1776 21.897,-11.591 7.8209,-3.4555 15.565,-6.456 23.238,-9.0402 7.6537,-2.5772 14.933,-4.5803 21.801,-6.0053 6.8808,-1.4271 12.934,-2.2034 18.131,-2.3892 8.1237,-0.28969 15.473,0.32309 22.025,1.7758 6.415,1.4228 11.681,3.7845 16.024,7.0385 4.2758,3.2041 7.5311,7.2939 9.9591,12.624 2.3135,5.08 3.5031,11.662 3.2559,19.889 -0.22004,7.3101 -1.9738,14.068 -5.3626,20.567 -3.3332,6.3918 -8.2637,12.042 -15.066,17.08 -6.7551,5.0027 -15.439,9.2536 -26.111,12.559 -10.526,3.261 -23.093,5.1947 -37.666,5.7147 l -17.811,0.64573 a 6.3334,6.4061 0 0 0 -6.1287,6.199 l -1.2768,43.199 a 6.3334,6.4061 0 0 0 6.5436,6.5865 l 28.058,-1.0009 c 13.061,-0.46603 24.844,0.29948 35.336,2.2601 10.48,1.9587 19.291,5.0514 26.494,9.1694 7.1618,4.0949 12.305,9.0265 15.864,14.884 3.4836,5.7332 5.159,12.376 4.9157,20.47 -0.50746,16.866 -6.035,29.46 -16.886,39.357 -10.55,9.6228 -27.589,15.407 -51.838,16.272 -6.0023,0.21429 -12.575,-0.15671 -19.727,-1.1623 -7.1867,-1.0104 -14.541,-2.5248 -22.025,-4.5524 -7.4621,-2.0216 -14.918,-4.5689 -22.376,-7.6196 -7.4224,-3.0359 -14.309,-6.4656 -20.716,-10.267 a 6.3334,6.4061 0 0 0 -9.5441,5.3273 l -1.4683,48.204 a 6.3334,6.4061 0 0 0 3.4793,5.9084 c 12.713,6.5639 27.041,11.192 42.965,13.98 15.863,2.7779 32.675,3.8291 50.402,3.1964 19.995,-0.71374 38.462,-3.846 55.318,-9.46 16.804,-5.597 31.494,-13.245 43.986,-23.02 12.512,-9.7918 22.422,-21.569 29.558,-35.16 7.1756,-13.668 11.032,-28.806 11.523,-45.137 0.31689,-10.546 -1.5887,-20.65 -5.7137,-29.994 -4.1116,-9.3121 -10.232,-17.574 -18.131,-24.699 -7.8774,-7.1044 -17.289,-12.961 -28.122,-17.564 -5.0889,-2.1622 -10.47,-3.9704 -16.088,-5.4887 3.7257,-1.9338 7.4626,-3.88 10.981,-6.1022 9.2722,-5.857 17.367,-12.59 24.227,-20.211 6.8724,-7.6346 12.4,-16.121 16.535,-25.377 4.2054,-9.4168 6.4793,-19.535 6.799,-30.156 0.43552,-14.489 -1.8659,-27.672 -7.0544,-39.293 -5.1569,-11.548 -12.903,-21.389 -22.983,-29.284 -10.112,-7.919 -22.45,-13.683 -36.836,-17.402 -10.824,-2.7976 -22.712,-4.3317 -35.655,-4.6493 -2.1572,-0.0529 -4.3559,-0.0494 -6.5756,-0.0323 z"
         inkscape:connector-curvature="0"
         style="fill:#000000;stroke:#000000;stroke-width:12.73799992;stroke-linejoin:round"
         id="path4007" />
      <path
         d="m 236.4,627.02 c -2.2203,0.0171 -4.4614,0.0476 -6.7371,0.12809 -17.394,0.61594 -34.121,3.0269 -50.193,7.2686 -16.157,4.2646 -31.651,10.7 -46.393,19.308 a 6.3352,6.3532 0 0 0 -3.1291,5.3154 l -1.373,45.437 a 6.3352,6.3532 0 0 0 9.6427,5.6035 c 6.8781,-4.2631 14.177,-8.1102 21.904,-11.495 7.8232,-3.427 15.569,-6.4028 23.245,-8.9657 7.656,-2.5559 14.938,-4.5425 21.808,-5.9558 6.8828,-1.4153 12.937,-2.1852 18.136,-2.3695 8.126,-0.28729 15.477,0.32044 22.031,1.7611 6.4169,1.4111 11.684,3.7533 16.029,6.9804 4.2771,3.1777 7.5333,7.2338 9.962,12.52 2.3142,5.0381 3.5041,11.566 3.2568,19.724 -0.2201,7.2498 -1.9744,13.952 -5.3642,20.397 -3.3341,6.3391 -8.2661,11.943 -15.071,16.939 -6.7571,4.9615 -15.443,9.1773 -26.118,12.456 -10.529,3.2341 -23.099,5.1519 -37.677,5.6676 l -17.817,0.6404 a 6.3352,6.3532 0 0 0 -6.1304,6.1479 l -1.2772,42.843 a 6.3352,6.3532 0 0 0 6.5455,6.5321 l 28.066,-0.99263 c 13.064,-0.46219 24.851,0.29702 35.346,2.2414 10.483,1.9426 19.296,5.0097 26.501,9.0937 7.1639,4.0611 12.308,8.952 15.869,14.761 3.4846,5.6859 5.1605,12.274 4.9171,20.301 -0.5076,16.727 -6.0367,29.217 -16.891,39.033 -10.553,9.5434 -27.597,15.28 -51.853,16.138 -6.004,0.21252 -12.578,-0.15541 -19.732,-1.1527 -7.1888,-1.0021 -14.545,-2.504 -22.031,-4.5148 -7.4642,-2.0049 -14.922,-4.5312 -22.383,-7.5568 -7.4246,-3.0109 -14.313,-6.4123 -20.722,-10.182 a 6.3352,6.3532 0 0 0 -9.5469,5.2833 l -1.4688,47.806 a 6.3352,6.3532 0 0 0 3.4803,5.8597 c 12.717,6.5098 27.049,11.099 42.977,13.865 15.868,2.755 32.684,3.7976 50.417,3.17 20.001,-0.70786 38.474,-3.8142 55.334,-9.3819 16.809,-5.5508 31.503,-13.136 43.999,-22.83 12.516,-9.711 22.429,-21.391 29.567,-34.87 7.1777,-13.555 11.035,-28.568 11.527,-44.764 0.31698,-10.459 -1.5892,-20.48 -5.7154,-29.747 -4.1127,-9.2352 -10.235,-17.429 -18.136,-24.495 -7.8796,-7.0458 -17.294,-12.854 -28.13,-17.419 -5.0903,-2.1444 -10.473,-3.9377 -16.092,-5.4434 3.7268,-1.9179 7.4648,-3.848 10.984,-6.0518 9.2749,-5.8087 17.372,-12.486 24.234,-20.045 6.8744,-7.5716 12.404,-15.988 16.539,-25.168 4.2067,-9.3391 6.4812,-19.374 6.801,-29.907 0.43564,-14.37 -1.8664,-27.444 -7.0564,-38.969 -5.1584,-11.452 -12.907,-21.213 -22.989,-29.042 -10.115,-7.8536 -22.457,-13.57 -36.847,-17.259 -10.827,-2.7745 -22.718,-4.296 -35.665,-4.6109 -2.1578,-0.0524 -4.3572,-0.0489 -6.5775,-0.032 z"
         inkscape:connector-curvature="0"
         style="fill:#ffffff"
         id="path4024" />
      <path
         d="m 239.46,632.12 c -2.2203,0.017 -4.4614,0.0474 -6.7371,0.12735 -17.394,0.61244 -34.121,3.0097 -50.193,7.2274 -16.157,4.2405 -31.651,10.639 -46.393,19.199 a 6.3352,6.3172 0 0 0 -3.1291,5.2852 l -1.373,45.179 a 6.3352,6.3172 0 0 0 9.6427,5.5718 c 6.8781,-4.2389 14.177,-8.0642 21.904,-11.43 7.8232,-3.4076 15.569,-6.3664 23.245,-8.9148 7.656,-2.5414 14.938,-4.5167 21.808,-5.922 6.8828,-1.4073 12.937,-2.1728 18.136,-2.356 8.126,-0.28567 15.477,0.31862 22.031,1.7511 6.4169,1.4031 11.684,3.732 16.029,6.9408 4.2771,3.1596 7.5333,7.1928 9.962,12.449 2.3142,5.0096 3.5041,11.501 3.2568,19.613 -0.22009,7.2086 -1.9744,13.873 -5.3641,20.281 -3.3341,6.3031 -8.2661,11.875 -15.071,16.843 -6.7571,4.9333 -15.443,9.1252 -26.118,12.385 -10.529,3.2158 -23.099,5.1226 -37.677,5.6354 l -17.817,0.63678 a 6.3352,6.3172 0 0 0 -6.1304,6.113 l -1.2772,42.6 a 6.3352,6.3172 0 0 0 6.5455,6.4951 l 28.066,-0.98699 c 13.064,-0.45958 24.851,0.29533 35.346,2.2287 10.483,1.9316 19.296,4.9813 26.501,9.0422 7.1639,4.038 12.308,8.9012 15.869,14.678 3.4846,5.6537 5.1605,12.204 4.9171,20.186 -0.5076,16.632 -6.0367,29.051 -16.891,38.811 -10.553,9.4892 -27.597,15.193 -51.853,16.047 -6.004,0.21132 -12.578,-0.15452 -19.732,-1.1462 -7.1888,-0.99637 -14.545,-2.4898 -22.031,-4.4892 -7.4642,-1.9936 -14.922,-4.5055 -22.383,-7.5139 -7.4246,-2.9938 -14.313,-6.3759 -20.722,-10.125 a 6.3352,6.3172 0 0 0 -9.5469,5.2534 l -1.4688,47.535 a 6.3352,6.3172 0 0 0 3.4803,5.8265 c 12.717,6.4728 27.049,11.036 42.977,13.786 15.868,2.7394 32.684,3.776 50.417,3.152 20.001,-0.70382 38.474,-3.7926 55.334,-9.3287 16.809,-5.5193 31.503,-13.061 43.999,-22.701 12.516,-9.6559 22.429,-21.27 29.567,-34.672 7.1777,-13.478 11.035,-28.406 11.527,-44.51 0.31699,-10.4 -1.5891,-20.364 -5.7154,-29.578 -4.1128,-9.1829 -10.235,-17.33 -18.136,-24.357 -7.8796,-7.0059 -17.294,-12.781 -28.13,-17.32 -5.0904,-2.1322 -10.473,-3.9154 -16.092,-5.4126 3.7268,-1.907 7.4648,-3.8261 10.984,-6.0175 9.2749,-5.7757 17.372,-12.415 24.234,-19.931 6.8744,-7.5287 12.404,-15.897 16.539,-25.025 4.2067,-9.2861 6.4812,-19.264 6.801,-29.737 0.43564,-14.288 -1.8664,-27.288 -7.0564,-38.748 -5.1584,-11.388 -12.907,-21.093 -22.989,-28.878 -10.115,-7.8091 -22.457,-13.493 -36.847,-17.161 -10.827,-2.7588 -22.718,-4.2716 -35.665,-4.5848 -2.1578,-0.0522 -4.3572,-0.0487 -6.5775,-0.0318 z"
         inkscape:connector-curvature="0"
         style="fill:url(#linearGradient4093)"
         id="path4022" />
      <path
         d="m 239.46,631.1 c -2.2203,0.017 -4.4614,0.0478 -6.7371,0.12772 -17.394,0.61244 -34.121,2.9984 -50.193,7.216 -16.157,4.2405 -31.651,10.662 -46.393,19.222 a 6.3352,6.3172 0 0 0 -3.1291,5.2684 l -1.1814,39.369 c 41.865,-32.837 101.46,-53.386 167.63,-53.386 4.6944,0 9.3606,0.11557 13.985,0.31929 -9.0761,-5.968 -19.681,-10.433 -31.738,-13.506 -10.827,-2.7588 -22.718,-4.2847 -35.665,-4.5978 -2.1578,-0.0522 -4.3572,-0.0488 -6.5775,-0.0319 z"
         inkscape:connector-curvature="0"
         style="fill:url(#linearGradient4049)"
         id="path4041" />
      <path
         transform="matrix(1.0217,0,0,1.0217,-6.5536,-23.756)"
         d="m 126.92,927.67 -1.2628,41.209 a 6.1109,6.0935 0 0 0 3.3571,5.6362 c 12.267,6.2436 26.091,10.622 41.455,13.274 15.306,2.6424 31.527,3.651 48.632,3.0491 15.313,-0.53886 29.704,-2.5383 43.119,-6.0058 -54.247,-6.4593 -101.89,-27.365 -135.3,-57.163 z"
         inkscape:connector-curvature="0"
         style="fill:url(#linearGradient4057);filter:url(#filter4063)"
         id="path4034" />
      <path
         d="m 344.1,742.47 c -22.798,30 -69,50.512 -122.29,50.512 -18.631,0 -36.386,-2.5113 -52.588,-7.0564 a 6.3352,6.3172 0 0 0 -0.76631,2.8098 l -0.95788,32.185 c 13.255,-2.8797 27.382,-4.4382 42.051,-4.4382 75.897,0 137.42,41.628 137.42,92.978 0,4.9141 -0.57474,9.724 -1.6603,14.432 0.0859,-0.15935 0.1703,-0.31907 0.25544,-0.47894 7.1777,-13.478 11.035,-28.405 11.527,-44.51 0.31699,-10.4 -1.5891,-20.352 -5.7154,-29.567 -4.1127,-9.1829 -10.235,-17.336 -18.136,-24.362 -7.8796,-7.0059 -17.294,-12.798 -28.13,-17.338 -5.0904,-2.1322 -10.473,-3.8989 -16.092,-5.3961 3.7268,-1.907 7.4648,-3.8433 10.984,-6.0347 9.2749,-5.7757 17.372,-12.408 24.234,-19.924 6.8744,-7.5287 12.404,-15.904 16.539,-25.033 1.2965,-2.862 2.3919,-5.793 3.3207,-8.7806 z"
         inkscape:connector-curvature="0"
         style="opacity:0.66000001;fill:url(#linearGradient4085)"
         id="path4072" />
      <ellipse
         transform="translate(6,602.36)"
         style="color:#000000;opacity:0.43999999;fill:#fed026;filter:url(#filter4097)"
         id="path4095"
         cx="228"
         cy="428"
         rx="47"
         ry="11" />
    </g>
    <g
       transform="translate(139.40952,-744.96552)"
       inkscape:label="Layer 1"
       id="layer1-2">
      <ellipse
         transform="matrix(1.4948,0,0,0.77157,-394.07,489.7)"
         style="color:#000000;opacity:0.43999999;fill:#d45500;filter:url(#filter3858)"
         id="path3852"
         cx="424.46356"
         cy="697.9082"
         rx="39.655766"
         ry="14.687321" />
      <g
         transform="translate(-36,0)"
         id="g3988">
        <path
           d="m 279.5,631.1 c -12.051,0.10723 -25.025,1.6911 -38.901,4.6507 -16.807,3.5854 -33.749,8.826 -50.836,15.712 -17.061,6.8761 -34.157,15.232 -51.274,25.045 a 6.9997,7.0397 0 0 0 -3.4995,6.819 l 6.874,67.97 a 6.9997,7.0397 0 0 0 11.686,4.4936 c 15.062,-13.758 29.313,-24.659 42.65,-32.744 13.086,-7.9323 31.038,-15.234 42.119,-17.597 14.792,-3.1549 25.867,-1.4771 34.651,4.3051 8.8042,5.7962 13.655,14.237 14.998,27.496 0.85092,8.403 -0.39607,16.956 -3.9369,25.956 -3.5548,9.0352 -9.6786,19.177 -18.435,30.23 l -109.45,119.78 a 6.9997,7.0397 0 0 0 -1.8122,5.4678 l 6.1554,60.648 a 6.9997,7.0397 0 0 0 8.3425,6.1905 l 222.37,-45.69 a 6.9997,7.0397 0 0 0 5.5617,-7.6046 l -5.9366,-58.637 a 6.9997,7.0397 0 0 0 -8.405,-6.1905 l -112.89,24.102 45.775,-56.249 c 24.842,-30.474 40.947,-53.949 48.493,-71.646 7.4094,-17.377 10.264,-35.277 8.4363,-53.326 -3.1176,-30.778 -16.828,-54.095 -40.4,-67.247 -14.745,-8.2263 -32.251,-12.12 -52.336,-11.941 z"
           inkscape:connector-curvature="0"
           style="fill:#000000;stroke:#000000;stroke-width:14.03800011;stroke-linejoin:round"
           id="path3867" />
        <path
           d="m 276.5,629.08 c -12.053,0.10663 -25.029,1.6818 -38.906,4.625 -16.81,3.5656 -33.754,8.7771 -50.844,15.625 -17.064,6.838 -34.162,15.147 -51.281,24.906 a 7.0007,7.0007 0 0 0 -3.5,6.7812 l 6.875,67.594 a 7.0007,7.0007 0 0 0 11.688,4.4688 c 15.064,-13.682 29.317,-24.522 42.656,-32.562 13.088,-7.8884 31.043,-15.149 42.125,-17.5 14.794,-3.1374 25.871,-1.469 34.656,4.2812 8.8055,5.7641 13.657,14.158 15,27.344 0.85101,8.3565 -0.39613,16.862 -3.9375,25.812 -3.5554,8.9852 -9.68,19.071 -18.438,30.062 l -109.47,119.12 a 7.0007,7.0007 0 0 0 -1.8125,5.4375 l 6.1562,60.312 a 7.0007,7.0007 0 0 0 8.3438,6.1562 l 222.41,-45.438 a 7.0007,7.0007 0 0 0 5.5625,-7.5625 l -5.9375,-58.312 a 7.0007,7.0007 0 0 0 -8.4062,-6.1562 l -112.91,23.969 45.781,-55.938 c 24.846,-30.305 40.953,-53.651 48.5,-71.25 7.4105,-17.281 10.266,-35.082 8.4375,-53.031 -3.118,-30.608 -16.83,-53.795 -40.406,-66.875 -14.747,-8.1808 -32.256,-12.053 -52.344,-11.875 z"
           inkscape:connector-curvature="0"
           style="fill:#ffffff"
           id="path3908" />
        <path
           d="m 279.5,632.08 c -12.053,0.10663 -25.029,1.6818 -38.906,4.625 -16.81,3.5656 -33.754,8.7771 -50.844,15.625 -17.064,6.838 -34.162,15.147 -51.281,24.906 a 7.0007,7.0007 0 0 0 -3.5,6.7812 l 6.875,67.594 a 7.0007,7.0007 0 0 0 11.688,4.4688 c 15.064,-13.682 29.317,-24.522 42.656,-32.562 13.088,-7.8884 31.043,-15.149 42.125,-17.5 14.794,-3.1374 25.871,-1.469 34.656,4.2812 8.8055,5.7641 13.657,14.158 15,27.344 0.85101,8.3565 -0.39613,16.862 -3.9375,25.812 -3.5554,8.9852 -9.68,19.071 -18.438,30.062 l -109.47,119.12 a 7.0007,7.0007 0 0 0 -1.8125,5.4375 l 6.1562,60.312 a 7.0007,7.0007 0 0 0 8.3438,6.1562 l 222.41,-45.438 a 7.0007,7.0007 0 0 0 5.5625,-7.5625 l -5.9375,-58.312 a 7.0007,7.0007 0 0 0 -8.4062,-6.1562 l -112.91,23.969 45.781,-55.938 c 24.846,-30.305 40.953,-53.651 48.5,-71.25 7.4105,-17.281 10.266,-35.082 8.4375,-53.031 -3.118,-30.608 -16.83,-53.795 -40.406,-66.875 -14.747,-8.1808 -32.256,-12.053 -52.344,-11.875 z"
           inkscape:connector-curvature="0"
           style="fill:url(#linearGradient3996)"
           id="path3894" />
        <path
           inkscape:connector-curvature="0"
           style="fill:url(#linearGradient3998)"
           d="m 278.5,631.11 c -12.051,0.10723 -25.031,1.6654 -38.906,4.625 -16.807,3.5854 -33.756,8.8328 -50.844,15.719 -17.061,6.8761 -34.133,15.249 -51.25,25.062 a 6.9997,7.0397 0 0 0 -3.5,6.8125 l 5.9375,58.781 c 7.6639,-39.443 49.353,-80.059 105.91,-98.875 19.965,-6.6424 39.612,-9.8271 57.781,-9.9375 -7.8589,-1.5368 -16.241,-2.2665 -25.125,-2.1875 z"
           id="path3936" />
        <path
           inkscape:connector-curvature="0"
           style="color:#000000;fill:#aa4400"
           d="m 362.22,767.56 c -18.77,17.979 -43.939,33.315 -72.979,42.977 -16.996,5.6547 -33.777,8.8688 -49.623,9.8107 l -36.648,40.129 c 14.674,-1.6295 30.549,-4.8106 47.123,-9.6525 31.156,-9.1017 59.832,-22.613 82.695,-37.914 13.532,-17.874 23.313,-32.896 29.432,-45.351 z"
           id="path3917" />
        <path
           inkscape:connector-curvature="0"
           style="fill:url(#linearGradient4000);filter:url(#filter3984)"
           d="m 154.31,925.86 5.1562,50.531 a 7.0007,7.0007 0 0 0 8.3438,6.1562 l 102.16,-20.875 c -45.29,-3.03 -85.78,-16.19 -115.66,-35.82 z"
           id="path3968" />
      </g>
    </g>
    <g
       transform="translate(-138.03635,-792.44041)"
       inkscape:label="Layer 1"
       id="layer1-23">
      <path
         d="m 219.24,612.78 a 6.2754,6.3767 0 0 0 -4.4773,1.8929 l -104.15,107.53 a 6.2754,6.3767 0 0 0 -0.0327,8.933 l 44.806,46.857 a 6.2754,6.3767 0 0 0 8.8893,0.0995 l 48.695,-48.451 0,236.01 a 6.2754,6.3767 0 0 0 6.2748,6.376 l 71.67,0 a 6.2754,6.3767 0 0 0 6.2748,-6.376 l 0,-346.5 a 6.2754,6.3767 0 0 0 -6.2748,-6.376 l -71.67,0 z"
         inkscape:connector-curvature="0"
         style="color:#000000;fill:#000000;stroke:#000000;stroke-width:12.64999962;stroke-linecap:round;stroke-linejoin:round"
         id="rect2992" />
      <path
         d="m 218.55,612.75 a 6.4057,6.3029 0 0 0 -4.5702,1.871 l -106.32,106.29 a 6.4057,6.3029 0 0 0 -0.0333,8.8297 l 45.736,46.315 a 6.4057,6.3029 0 0 0 9.0738,0.0984 l 49.706,-47.891 0,233.28 a 6.4057,6.3029 0 0 0 6.405,6.3023 l 73.157,0 a 6.4057,6.3029 0 0 0 6.405,-6.3023 l 0,-342.49 a 6.4057,6.3029 0 0 0 -6.405,-6.3023 l -73.157,0 z"
         inkscape:connector-curvature="0"
         style="color:#000000;fill:#ffffff"
         id="path3781" />
      <path
         d="m 219.87,615.88 a 6.3029,6.3029 0 0 0 -4.4969,1.871 l -104.61,106.29 a 6.3029,6.3029 0 0 0 -0.0328,8.8297 l 45.002,46.315 a 6.3029,6.3029 0 0 0 8.9282,0.0984 l 48.908,-47.891 0,233.28 a 6.3029,6.3029 0 0 0 6.3023,6.3023 l 71.984,0 a 6.3029,6.3029 0 0 0 6.3023,-6.3023 l 0,-342.49 a 6.3029,6.3029 0 0 0 -6.3023,-6.3023 l -71.984,0 z"
         inkscape:connector-curvature="0"
         style="color:#000000;fill:url(#linearGradient3854)"
         id="path3779" />
      <path
         d="m 219.86,613.87 a 6.3029,6.3029 0 0 0 -4.4969,1.871 l -38.437,39.061 c 9.5869,-4.4185 20.072,-7.8937 31.249,-10.208 32.305,-6.6902 64.353,-2.4501 89.971,9.8145 l 0,-34.236 a 6.3029,6.3029 0 0 0 -6.3023,-6.3023 l -71.984,0 z"
         inkscape:connector-curvature="0"
         style="color:#000000;fill:url(#linearGradient3809)"
         id="path3793" />
      <path
         transform="matrix(1.0504,0,0,1.0504,-9.644,-31.45)"
         d="m 293.03,880.06 c -20.953,19.435 -48.733,34.361 -80.531,42.562 l 0,25.719 a 6.0006,6.0006 0 0 0 6,6 l 68.531,0 a 6.0006,6.0006 0 0 0 6,-6 l 0,-68.281 z"
         inkscape:connector-curvature="0"
         style="color:#000000;fill:url(#linearGradient3817);filter:url(#filter3823)"
         id="path3783" />
      <path
         d="m 298.14,705.88 c -9.9004,29.017 -31.653,60.899 -62.662,88.396 -7.1664,6.3548 -14.507,12.166 -21.927,17.463 l 0,19.662 c 4.6548,-2.1697 9.3097,-4.4923 13.95,-6.9916 29.525,-15.901 53.814,-35.976 70.638,-56.819 l 0,-61.71 z m 0,83.078 c -15.562,21.388 -38.306,42.389 -66.338,59.675 -6.0502,3.7308 -12.146,7.1492 -18.25,10.274 l 0,11.259 c 5.3799,-2.8159 10.75,-5.8362 16.084,-9.1252 29.377,-18.115 52.931,-40.315 68.504,-62.76 l 0,-9.3221 z"
         inkscape:connector-curvature="0"
         style="color:#000000;fill:url(#linearGradient3850)"
         id="path3827" />
      <ellipse
         transform="matrix(1.0504,0,0,0.94378,-190.43,368.51)"
         style="color:#000000;opacity:0.43999999;fill:#ff0000;filter:url(#filter3858-9)"
         id="path3852-9"
         cx="424.46356"
         cy="697.9082"
         rx="39.655766"
         ry="14.687321" />
    </g>
  </g>
</svg>
