<?xml version="1.0" encoding="UTF-8" standalone="no"?>
<!-- Created with Inkscape (http://www.inkscape.org/) -->

<svg
   xmlns:dc="http://purl.org/dc/elements/1.1/"
   xmlns:cc="http://creativecommons.org/ns#"
   xmlns:rdf="http://www.w3.org/1999/02/22-rdf-syntax-ns#"
   xmlns:svg="http://www.w3.org/2000/svg"
   xmlns="http://www.w3.org/2000/svg"
   xmlns:xlink="http://www.w3.org/1999/xlink"
   xmlns:sodipodi="http://sodipodi.sourceforge.net/DTD/sodipodi-0.dtd"
   xmlns:inkscape="http://www.inkscape.org/namespaces/inkscape"
   width="446.53329mm"
   height="345.7962mm"
   viewBox="0 0 1582.2045 1225.2621"
   id="svg2"
   version="1.1"
   inkscape:version="0.91 r13725"
   sodipodi:docname="categorynature.svg">
  <defs
     id="defs4">
    <pattern
       inkscape:collect="always"
       patternUnits="userSpaceOnUse"
       width="10"
       height="10"
       patternTransform="translate(0,0) scale(10,10)"
       id="Polkadots-large-1"
       inkscape:stockid="Polka dots, large">
      <circle
         style="fill:black;stroke:none"
         cx="2.567"
         cy="0.810"
         r="0.45"
         id="circle5525-4" />
      <circle
         style="fill:black;stroke:none"
         cx="3.048"
         cy="2.33"
         r="0.45"
         id="circle5527-8" />
      <circle
         style="fill:black;stroke:none"
         cx="4.418"
         cy="2.415"
         r="0.45"
         id="circle5529-9" />
      <circle
         style="fill:black;stroke:none"
         cx="1.844"
         cy="3.029"
         r="0.45"
         id="circle5531-6" />
      <circle
         style="fill:black;stroke:none"
         cx="6.08"
         cy="1.363"
         r="0.45"
         id="circle5533-3" />
      <circle
         style="fill:black;stroke:none"
         cx="5.819"
         cy="4.413"
         r="0.45"
         id="circle5535-6" />
      <circle
         style="fill:black;stroke:none"
         cx="4.305"
         cy="4.048"
         r="0.45"
         id="circle5537-3" />
      <circle
         style="fill:black;stroke:none"
         cx="5.541"
         cy="3.045"
         r="0.45"
         id="circle5539-1" />
      <circle
         style="fill:black;stroke:none"
         cx="4.785"
         cy="5.527"
         r="0.45"
         id="circle5541-5" />
      <circle
         style="fill:black;stroke:none"
         cx="2.667"
         cy="5.184"
         r="0.45"
         id="circle5543-8" />
      <circle
         style="fill:black;stroke:none"
         cx="7.965"
         cy="1.448"
         r="0.45"
         id="circle5545-0" />
      <circle
         style="fill:black;stroke:none"
         cx="7.047"
         cy="5.049"
         r="0.45"
         id="circle5547-7" />
      <circle
         style="fill:black;stroke:none"
         cx="4.340"
         cy="0.895"
         r="0.45"
         id="circle5549-0" />
      <circle
         style="fill:black;stroke:none"
         cx="7.125"
         cy="0.340"
         r="0.45"
         id="circle5551-8" />
      <circle
         style="fill:black;stroke:none"
         cx="9.553"
         cy="1.049"
         r="0.45"
         id="circle5553-9" />
      <circle
         style="fill:black;stroke:none"
         cx="7.006"
         cy="2.689"
         r="0.45"
         id="circle5555-3" />
      <circle
         style="fill:black;stroke:none"
         cx="8.909"
         cy="2.689"
         r="0.45"
         id="circle5557-9" />
      <circle
         style="fill:black;stroke:none"
         cx="9.315"
         cy="4.407"
         r="0.45"
         id="circle5559-8" />
      <circle
         style="fill:black;stroke:none"
         cx="7.820"
         cy="3.870"
         r="0.45"
         id="circle5561-0" />
      <circle
         style="fill:black;stroke:none"
         cx="8.270"
         cy="5.948"
         r="0.45"
         id="circle5563-3" />
      <circle
         style="fill:black;stroke:none"
         cx="7.973"
         cy="7.428"
         r="0.45"
         id="circle5565-1" />
      <circle
         style="fill:black;stroke:none"
         cx="9.342"
         cy="8.072"
         r="0.45"
         id="circle5567-0" />
      <circle
         style="fill:black;stroke:none"
         cx="8.206"
         cy="9.315"
         r="0.45"
         id="circle5569-5" />
      <circle
         style="fill:black;stroke:none"
         cx="9.682"
         cy="9.475"
         r="0.45"
         id="circle5571-7" />
      <circle
         style="fill:black;stroke:none"
         cx="9.688"
         cy="6.186"
         r="0.45"
         id="circle5573-4" />
      <circle
         style="fill:black;stroke:none"
         cx="3.379"
         cy="6.296"
         r="0.45"
         id="circle5575-6" />
      <circle
         style="fill:black;stroke:none"
         cx="2.871"
         cy="8.204"
         r="0.45"
         id="circle5577-1" />
      <circle
         style="fill:black;stroke:none"
         cx="4.59"
         cy="8.719"
         r="0.45"
         id="circle5579-4" />
      <circle
         style="fill:black;stroke:none"
         cx="3.181"
         cy="9.671"
         r="0.45"
         id="circle5581-3" />
      <circle
         style="fill:black;stroke:none"
         cx="5.734"
         cy="7.315"
         r="0.45"
         id="circle5583-5" />
      <circle
         style="fill:black;stroke:none"
         cx="6.707"
         cy="6.513"
         r="0.45"
         id="circle5585-5" />
      <circle
         style="fill:black;stroke:none"
         cx="5.730"
         cy="9.670"
         r="0.45"
         id="circle5587-9" />
      <circle
         style="fill:black;stroke:none"
         cx="6.535"
         cy="8.373"
         r="0.45"
         id="circle5589-3" />
      <circle
         style="fill:black;stroke:none"
         cx="4.37"
         cy="7.154"
         r="0.45"
         id="circle5591-7" />
      <circle
         style="fill:black;stroke:none"
         cx="0.622"
         cy="7.25"
         r="0.45"
         id="circle5593-7" />
      <circle
         style="fill:black;stroke:none"
         cx="0.831"
         cy="5.679"
         r="0.45"
         id="circle5595-6" />
      <circle
         style="fill:black;stroke:none"
         cx="1.257"
         cy="8.519"
         r="0.45"
         id="circle5597-3" />
      <circle
         style="fill:black;stroke:none"
         cx="1.989"
         cy="6.877"
         r="0.45"
         id="circle5599-1" />
      <circle
         style="fill:black;stroke:none"
         cx="0.374"
         cy="3.181"
         r="0.45"
         id="circle5601-0" />
      <circle
         style="fill:black;stroke:none"
         cx="1.166"
         cy="1.664"
         r="0.45"
         id="circle5603-8" />
      <circle
         style="fill:black;stroke:none"
         cx="1.151"
         cy="0.093"
         r="0.45"
         id="circle5605-9" />
      <circle
         style="fill:black;stroke:none"
         cx="1.151"
         cy="10.093"
         r="0.45"
         id="circle5607-2" />
      <circle
         style="fill:black;stroke:none"
         cx="1.302"
         cy="4.451"
         r="0.45"
         id="circle5609-5" />
      <circle
         style="fill:black;stroke:none"
         cx="3.047"
         cy="3.763"
         r="0.45"
         id="circle5611-1" />
    </pattern>
    <pattern
       patternTransform="matrix(1.025,0,0,1.45,0,946)"
       id="pattern6807"
       xlink:href="#Polkadots-large-1"
       inkscape:collect="always" />
    <pattern
       patternTransform="matrix(1.025,0,0,1.45,0,946)"
       id="pattern6899"
       xlink:href="#Polkadots-large-1"
       inkscape:collect="always" />
    <pattern
       patternTransform="matrix(1.025,0,0,1.45,0,946)"
       id="pattern6991"
       xlink:href="#Polkadots-large-1"
       inkscape:collect="always" />
    <pattern
       patternTransform="matrix(1.025,0,0,1.45,0,946)"
       id="pattern7083"
       xlink:href="#Polkadots-large-1"
       inkscape:collect="always" />
    <pattern
       patternTransform="matrix(1.025,0,0,1.45,0,946)"
       id="pattern7175"
       xlink:href="#Polkadots-large-1"
       inkscape:collect="always" />
    <pattern
       patternTransform="matrix(1.025,0,0,1.45,0,946)"
       id="pattern7267"
       xlink:href="#Polkadots-large-1"
       inkscape:collect="always" />
    <radialGradient
       r="14.267"
       gradientTransform="matrix(0.2456,-0.59096,0.59096,0.2456,3.9528,14.52)"
       cx="9.6738005"
       cy="-3.3438001"
       gradientUnits="userSpaceOnUse"
       id="radialGradient32">
      <stop
         offset="0"
         style="stop-color:#ed0101"
         id="stop34" />
      <stop
         offset="1"
         style="stop-color:#7e0806"
         id="stop36" />
    </radialGradient>
    <radialGradient
       r="8.5518999"
       gradientTransform="matrix(0.24512,-0.5912,0.5912,0.24512,2.7408,14.013)"
       cx="9.2959003"
       cy="-2.3169"
       gradientUnits="userSpaceOnUse"
       id="radialGradient50">
      <stop
         offset="0"
         style="stop-color:#ff7d7d"
         id="stop52" />
      <stop
         offset="1"
         style="stop-color:#f51919"
         id="stop54" />
    </radialGradient>
    <radialGradient
       r="0.42019999"
       gradientTransform="matrix(0.24752,-0.59016,0.59016,0.24752,-4.8066,10.861)"
       cx="13.202"
       cy="4.0728002"
       gradientUnits="userSpaceOnUse"
       id="radialGradient68">
      <stop
         offset="0"
         style="stop-color:#ff7d7d"
         id="stop70" />
      <stop
         offset="1"
         style="stop-color:#f51919"
         id="stop72" />
    </radialGradient>
    <radialGradient
       r="1.2606"
       gradientTransform="matrix(0.24752,-0.59016,0.59016,0.24752,3.7368,14.444)"
       cx="15.208"
       cy="-3.165"
       gradientUnits="userSpaceOnUse"
       id="radialGradient86">
      <stop
         offset="0"
         style="stop-color:#ff7d7d"
         id="stop88" />
      <stop
         offset="1"
         style="stop-color:#f51919"
         id="stop90" />
    </radialGradient>
    <radialGradient
       r="1.451"
       gradientTransform="matrix(0.24808,-0.58992,0.58992,0.24808,9.5704,16.903)"
       cx="12.958"
       cy="-8.1107998"
       gradientUnits="userSpaceOnUse"
       id="radialGradient104">
      <stop
         offset="0"
         style="stop-color:#ff7d7d"
         id="stop106" />
      <stop
         offset="1"
         style="stop-color:#f51919"
         id="stop108" />
    </radialGradient>
    <radialGradient
       r="1.3952"
       gradientTransform="matrix(0.24656,-0.59056,0.59056,0.24656,6.5888,15.628)"
       cx="16.361"
       cy="-5.5770998"
       gradientUnits="userSpaceOnUse"
       id="radialGradient122">
      <stop
         offset="0"
         style="stop-color:#ff7d7d"
         id="stop124" />
      <stop
         offset="1"
         style="stop-color:#f51919"
         id="stop126" />
    </radialGradient>
    <radialGradient
       r="0.8635"
       gradientTransform="matrix(0.24088,-0.59296,0.59296,0.24088,1.6736,13.557)"
       cx="17.518999"
       cy="-1.4102"
       gradientUnits="userSpaceOnUse"
       id="radialGradient140">
      <stop
         offset="0"
         style="stop-color:#ff7d7d"
         id="stop142" />
      <stop
         offset="1"
         style="stop-color:#f51919"
         id="stop144" />
    </radialGradient>
    <radialGradient
       r="1.0702"
       gradientTransform="matrix(0.24672,-0.59056,0.59056,0.24672,-0.948,12.482)"
       cx="16.841999"
       cy="0.80369997"
       gradientUnits="userSpaceOnUse"
       id="radialGradient158">
      <stop
         offset="0"
         style="stop-color:#ff7d7d"
         id="stop160" />
      <stop
         offset="1"
         style="stop-color:#f51919"
         id="stop162" />
    </radialGradient>
    <radialGradient
       r="0.82410002"
       gradientTransform="matrix(0.24272,-0.59216,0.59216,0.24272,-3.303,11.524)"
       cx="16.959"
       cy="2.7895999"
       gradientUnits="userSpaceOnUse"
       id="radialGradient176">
      <stop
         offset="0"
         style="stop-color:#ff7d7d"
         id="stop178" />
      <stop
         offset="1"
         style="stop-color:#f51919"
         id="stop180" />
    </radialGradient>
    <radialGradient
       r="0.63849998"
       gradientTransform="matrix(0.25056,-0.58888,0.58888,0.25056,-6.7385,10.01)"
       cx="16.638"
       cy="5.7217002"
       gradientUnits="userSpaceOnUse"
       id="radialGradient194">
      <stop
         offset="0"
         style="stop-color:#ff7d7d"
         id="stop196" />
      <stop
         offset="1"
         style="stop-color:#f51919"
         id="stop198" />
    </radialGradient>
    <radialGradient
       r="0.801"
       gradientTransform="matrix(0.24968,-0.58928,0.58928,0.24968,-4.495,10.973)"
       cx="15.923"
       cy="3.8148999"
       gradientUnits="userSpaceOnUse"
       id="radialGradient212">
      <stop
         offset="0"
         style="stop-color:#ff7d7d"
         id="stop214" />
      <stop
         offset="1"
         style="stop-color:#f51919"
         id="stop216" />
    </radialGradient>
    <radialGradient
       r="10.928"
       gradientTransform="matrix(0.16688,-0.61784,0.61784,0.16688,5.388,14.333)"
       cx="9.3607998"
       cy="-4.3593998"
       gradientUnits="userSpaceOnUse"
       id="radialGradient230">
      <stop
         offset="0"
         style="stop-color:#f58758"
         id="stop232" />
      <stop
         offset="1"
         style="stop-color:#bd5206"
         id="stop234" />
    </radialGradient>
    <radialGradient
       r="10.944"
       gradientTransform="matrix(0.16744,-0.61768,0.61768,0.16744,5.3768,14.335)"
       cx="9.3642998"
       cy="-4.3520999"
       gradientUnits="userSpaceOnUse"
       id="radialGradient248">
      <stop
         offset="0"
         style="stop-color:#f58758"
         id="stop250" />
      <stop
         offset="1"
         style="stop-color:#bd5206"
         id="stop252" />
    </radialGradient>
    <radialGradient
       r="10.956"
       gradientTransform="matrix(0.1672,-0.61776,0.61776,0.1672,5.3816,14.335)"
       cx="9.3633003"
       cy="-4.355"
       gradientUnits="userSpaceOnUse"
       id="radialGradient698">
      <stop
         offset="0"
         style="stop-color:#f58758"
         id="stop700" />
      <stop
         offset="1"
         style="stop-color:#bd5206"
         id="stop702" />
    </radialGradient>
    <linearGradient
       id="linearGradient8379-8">
      <stop
         offset="0"
         style="stop-color:#a05a2c"
         id="stop8381-8" />
      <stop
         offset="1"
         style="stop-color:#ffe0ba"
         id="stop8383-2" />
    </linearGradient>
    <linearGradient
       id="linearGradient7933">
      <stop
         offset="0"
         style="stop-color:#d35f5f"
         id="stop7935" />
      <stop
         offset="1"
         style="stop-color:#aa0000"
         id="stop7937" />
    </linearGradient>
    <linearGradient
       x1="-748"
       x2="-722"
       y1="501.10999"
       gradientUnits="userSpaceOnUse"
       y2="501.10999"
       id="linearGradient7559-9">
      <stop
         offset="0"
         id="stop6950-8" />
      <stop
         offset="1"
         stop-opacity="0"
         id="stop6952-1" />
    </linearGradient>
    <linearGradient
       x1="-748"
       x2="-722"
       y1="501.10999"
       gradientUnits="userSpaceOnUse"
       y2="501.10999"
       id="linearGradient7561-1">
      <stop
         offset="0"
         stop-color="#a4d019"
         id="stop6874-46" />
      <stop
         offset="1"
         stop-opacity="0"
         stop-color="#a4d019"
         id="stop6876-7" />
    </linearGradient>
    <filter
       id="filter7650-3-0"
       style="color-interpolation-filters:sRGB">
      <feGaussianBlur
         stdDeviation="1.1574572"
         id="feGaussianBlur7652-1-9" />
    </filter>
    <pattern
       inkscape:collect="always"
       patternUnits="userSpaceOnUse"
       width="10"
       height="10"
       patternTransform="translate(0,0) scale(10,10)"
       id="Polkadots-large-1-0"
       inkscape:stockid="Polka dots, large">
      <circle
         style="fill:black;stroke:none"
         cx="2.567"
         cy="0.810"
         r="0.45"
         id="circle5525-4-7" />
      <circle
         style="fill:black;stroke:none"
         cx="3.048"
         cy="2.33"
         r="0.45"
         id="circle5527-8-5" />
      <circle
         style="fill:black;stroke:none"
         cx="4.418"
         cy="2.415"
         r="0.45"
         id="circle5529-9-6" />
      <circle
         style="fill:black;stroke:none"
         cx="1.844"
         cy="3.029"
         r="0.45"
         id="circle5531-6-5" />
      <circle
         style="fill:black;stroke:none"
         cx="6.08"
         cy="1.363"
         r="0.45"
         id="circle5533-3-4" />
      <circle
         style="fill:black;stroke:none"
         cx="5.819"
         cy="4.413"
         r="0.45"
         id="circle5535-6-5" />
      <circle
         style="fill:black;stroke:none"
         cx="4.305"
         cy="4.048"
         r="0.45"
         id="circle5537-3-9" />
      <circle
         style="fill:black;stroke:none"
         cx="5.541"
         cy="3.045"
         r="0.45"
         id="circle5539-1-7" />
      <circle
         style="fill:black;stroke:none"
         cx="4.785"
         cy="5.527"
         r="0.45"
         id="circle5541-5-3" />
      <circle
         style="fill:black;stroke:none"
         cx="2.667"
         cy="5.184"
         r="0.45"
         id="circle5543-8-9" />
      <circle
         style="fill:black;stroke:none"
         cx="7.965"
         cy="1.448"
         r="0.45"
         id="circle5545-0-3" />
      <circle
         style="fill:black;stroke:none"
         cx="7.047"
         cy="5.049"
         r="0.45"
         id="circle5547-7-5" />
      <circle
         style="fill:black;stroke:none"
         cx="4.340"
         cy="0.895"
         r="0.45"
         id="circle5549-0-5" />
      <circle
         style="fill:black;stroke:none"
         cx="7.125"
         cy="0.340"
         r="0.45"
         id="circle5551-8-1" />
      <circle
         style="fill:black;stroke:none"
         cx="9.553"
         cy="1.049"
         r="0.45"
         id="circle5553-9-9" />
      <circle
         style="fill:black;stroke:none"
         cx="7.006"
         cy="2.689"
         r="0.45"
         id="circle5555-3-2" />
      <circle
         style="fill:black;stroke:none"
         cx="8.909"
         cy="2.689"
         r="0.45"
         id="circle5557-9-1" />
      <circle
         style="fill:black;stroke:none"
         cx="9.315"
         cy="4.407"
         r="0.45"
         id="circle5559-8-5" />
      <circle
         style="fill:black;stroke:none"
         cx="7.820"
         cy="3.870"
         r="0.45"
         id="circle5561-0-6" />
      <circle
         style="fill:black;stroke:none"
         cx="8.270"
         cy="5.948"
         r="0.45"
         id="circle5563-3-2" />
      <circle
         style="fill:black;stroke:none"
         cx="7.973"
         cy="7.428"
         r="0.45"
         id="circle5565-1-6" />
      <circle
         style="fill:black;stroke:none"
         cx="9.342"
         cy="8.072"
         r="0.45"
         id="circle5567-0-1" />
      <circle
         style="fill:black;stroke:none"
         cx="8.206"
         cy="9.315"
         r="0.45"
         id="circle5569-5-7" />
      <circle
         style="fill:black;stroke:none"
         cx="9.682"
         cy="9.475"
         r="0.45"
         id="circle5571-7-2" />
      <circle
         style="fill:black;stroke:none"
         cx="9.688"
         cy="6.186"
         r="0.45"
         id="circle5573-4-3" />
      <circle
         style="fill:black;stroke:none"
         cx="3.379"
         cy="6.296"
         r="0.45"
         id="circle5575-6-1" />
      <circle
         style="fill:black;stroke:none"
         cx="2.871"
         cy="8.204"
         r="0.45"
         id="circle5577-1-1" />
      <circle
         style="fill:black;stroke:none"
         cx="4.59"
         cy="8.719"
         r="0.45"
         id="circle5579-4-3" />
      <circle
         style="fill:black;stroke:none"
         cx="3.181"
         cy="9.671"
         r="0.45"
         id="circle5581-3-5" />
      <circle
         style="fill:black;stroke:none"
         cx="5.734"
         cy="7.315"
         r="0.45"
         id="circle5583-5-0" />
      <circle
         style="fill:black;stroke:none"
         cx="6.707"
         cy="6.513"
         r="0.45"
         id="circle5585-5-3" />
      <circle
         style="fill:black;stroke:none"
         cx="5.730"
         cy="9.670"
         r="0.45"
         id="circle5587-9-2" />
      <circle
         style="fill:black;stroke:none"
         cx="6.535"
         cy="8.373"
         r="0.45"
         id="circle5589-3-5" />
      <circle
         style="fill:black;stroke:none"
         cx="4.37"
         cy="7.154"
         r="0.45"
         id="circle5591-7-0" />
      <circle
         style="fill:black;stroke:none"
         cx="0.622"
         cy="7.25"
         r="0.45"
         id="circle5593-7-0" />
      <circle
         style="fill:black;stroke:none"
         cx="0.831"
         cy="5.679"
         r="0.45"
         id="circle5595-6-1" />
      <circle
         style="fill:black;stroke:none"
         cx="1.257"
         cy="8.519"
         r="0.45"
         id="circle5597-3-7" />
      <circle
         style="fill:black;stroke:none"
         cx="1.989"
         cy="6.877"
         r="0.45"
         id="circle5599-1-1" />
      <circle
         style="fill:black;stroke:none"
         cx="0.374"
         cy="3.181"
         r="0.45"
         id="circle5601-0-9" />
      <circle
         style="fill:black;stroke:none"
         cx="1.166"
         cy="1.664"
         r="0.45"
         id="circle5603-8-0" />
      <circle
         style="fill:black;stroke:none"
         cx="1.151"
         cy="0.093"
         r="0.45"
         id="circle5605-9-0" />
      <circle
         style="fill:black;stroke:none"
         cx="1.151"
         cy="10.093"
         r="0.45"
         id="circle5607-2-4" />
      <circle
         style="fill:black;stroke:none"
         cx="1.302"
         cy="4.451"
         r="0.45"
         id="circle5609-5-8" />
      <circle
         style="fill:black;stroke:none"
         cx="3.047"
         cy="3.763"
         r="0.45"
         id="circle5611-1-5" />
    </pattern>
    <pattern
       patternTransform="matrix(1.025,0,0,1.45,0,946)"
       id="pattern6807-8"
       xlink:href="#Polkadots-large-1-0"
       inkscape:collect="always" />
    <pattern
       patternTransform="matrix(1.025,0,0,1.45,0,946)"
       id="pattern6899-7"
       xlink:href="#Polkadots-large-1-0"
       inkscape:collect="always" />
    <pattern
       patternTransform="matrix(1.025,0,0,1.45,0,946)"
       id="pattern6991-9"
       xlink:href="#Polkadots-large-1-0"
       inkscape:collect="always" />
    <pattern
       patternTransform="matrix(1.025,0,0,1.45,0,946)"
       id="pattern7083-1"
       xlink:href="#Polkadots-large-1-0"
       inkscape:collect="always" />
    <pattern
       patternTransform="matrix(1.025,0,0,1.45,0,946)"
       id="pattern7175-4"
       xlink:href="#Polkadots-large-1-0"
       inkscape:collect="always" />
    <pattern
       patternTransform="matrix(1.025,0,0,1.45,0,946)"
       id="pattern7267-8"
       xlink:href="#Polkadots-large-1-0"
       inkscape:collect="always" />
    <style
       type="text/css"
       id="style6">
    .str0 {stroke:#006633;stroke-width:282.22}
    .str1 {stroke:#AB754F;stroke-width:282.22}
    .fil2 {fill:none}
    .fil3 {fill:#606062}
    .fil5 {fill:#CE8F64}
    .fil4 {fill:#006633}
    .fil8 {fill:#009933}
    .fil9 {fill:#00B33C}
    .fil10 {fill:#00C943}
    .fil0 {fill:#00D447}
    .fil1 {fill:#00DB49}
    .fil6 {fill:#B88059}
    .fil11 {fill:#BA8058}
    .fil12 {fill:#D49264}
    .fil7 {fill:#E49C6D}
  </style>
    <radialGradient
       inkscape:collect="always"
       r="252.99001"
       gradientTransform="matrix(1,0,0,1.1472,-190.90256,-376.89433)"
       cx="416.79999"
       cy="455.98999"
       gradientUnits="userSpaceOnUse"
       id="radialGradient5041">
      <stop
         offset="0"
         style="stop-color:#00eaff;stop-opacity:.060150"
         id="stop5037" />
      <stop
         offset="1"
         style="stop-color:#00dcff"
         id="stop5039" />
    </radialGradient>
    <radialGradient
       inkscape:collect="always"
       gradientTransform="translate(-1071.4,230.51)"
       r="505.72"
       cy="513.28003"
       cx="1451.4"
       gradientUnits="userSpaceOnUse"
       id="radialGradient3954">
      <stop
         offset="0"
         style="stop-color:#b3826f"
         id="stop3999" />
      <stop
         offset=".36090"
         style="stop-color:#7222d9"
         id="stop4001" />
      <stop
         offset=".48319"
         style="stop-color:#3d3fbf"
         id="stop4003" />
      <stop
         offset=".59292"
         style="stop-color:#497e7f"
         id="stop4005" />
      <stop
         offset=".70493"
         style="stop-color:#92c800"
         id="stop4007" />
      <stop
         offset=".79322"
         style="stop-color:#fcea01"
         id="stop4009" />
      <stop
         offset=".90246"
         style="stop-color:#fc8801"
         id="stop4011" />
      <stop
         offset="1"
         style="stop-color:#fd2601"
         id="stop4013" />
    </radialGradient>
    <style
       type="text/css"
       id="style6-9">
    .str0 {stroke:#006633;stroke-width:282.22}
    .str1 {stroke:#AB754F;stroke-width:282.22}
    .fil2 {fill:none}
    .fil3 {fill:#606062}
    .fil5 {fill:#CE8F64}
    .fil4 {fill:#006633}
    .fil8 {fill:#009933}
    .fil9 {fill:#00B33C}
    .fil10 {fill:#00C943}
    .fil0 {fill:#00D447}
    .fil1 {fill:#00DB49}
    .fil6 {fill:#B88059}
    .fil11 {fill:#BA8058}
    .fil12 {fill:#D49264}
    .fil7 {fill:#E49C6D}
  </style>
  </defs>
  <sodipodi:namedview
     id="base"
     pagecolor="#ffffff"
     bordercolor="#666666"
     borderopacity="1.0"
     inkscape:pageopacity="0.0"
     inkscape:pageshadow="2"
     inkscape:zoom="0.22627417"
     inkscape:cx="81.793311"
     inkscape:cy="255.75119"
     inkscape:document-units="px"
     inkscape:current-layer="layer1"
     showgrid="false"
     fit-margin-top="0"
     fit-margin-left="0"
     fit-margin-right="0"
     fit-margin-bottom="0"
     inkscape:window-width="1855"
     inkscape:window-height="1056"
     inkscape:window-x="65"
     inkscape:window-y="24"
     inkscape:window-maximized="1" />
  <metadata
     id="metadata7">
    <rdf:RDF>
      <cc:Work
         rdf:about="">
        <dc:format>image/svg+xml</dc:format>
        <dc:type
           rdf:resource="http://purl.org/dc/dcmitype/StillImage" />
        <dc:title></dc:title>
      </cc:Work>
    </rdf:RDF>
  </metadata>
  <g
     inkscape:label="Layer 1"
     inkscape:groupmode="layer"
     id="layer1"
     transform="translate(875.14795,740.70898)">
    <g
       transform="translate(-178.66336,-938.97136)"
       inkscape:label="Layer 1"
       id="layer1-4">
      <path
         d="m 380,238.07 c -278.35,0 -504.19,224.89 -505.72,502.87 l 325.81,0 C 204.1266,646.718 288.437,587 377.98,587 c 84.51,0 156.26,50.082 161.93,153.94 l 345.81,0 C 884.19,462.95 658.35,238.07 380,238.07 Z"
         style="fill:url(#radialGradient3954)"
         sodipodi:nodetypes="cccsccc"
         id="path3872"
         inkscape:connector-curvature="0" />
    </g>
    <polygon
       id="polygon65"
       style="fill:none;fill-rule:evenodd"
       points="29700,21000 0,21000 0,0 29700,0 "
       transform="matrix(0.11366767,0,0,0.11366767,-1060.4145,-720.32263)"
       class="fil2" />
    <g
       style="fill-rule:evenodd"
       id="_372086848"
       transform="matrix(0.11016102,0,0,0.11016102,-1976.714,-1243.4602)">
      <path
         id="path70"
         d="m 10917,8105 139,294 c 351,-373 979,-476 1280,-932 268,-406 1161,-231 1383,-386 242,-168 318,14 775,-306 246,-172 1226,-314 1532,-227 729,209 1419,439 1280,1355 -52,343 -932,1189 -1363,1376 -828,359 -3113,596 -3883,-11 -435,-342 -839,-678 -1142,-1165 z"
         style="fill:#006633"
         class="fil4"
         inkscape:connector-curvature="0" />
      <path
         id="path72"
         d="m 15379,9457 c -960,225 -2466,302 -3178,-93 -112,66 -238,83 -421,4 -33,-14 -74,-11 -91,16 -450,694 -795,496 -931,624 -403,377 -803,-373 -518,-746 735,-961 -345,-345 294,-1536 418,-778 -328,-803 613,-1288 995,-513 520,-204 562,-506 96,-687 1100,-546 1126,-583 353,-518 815,-310 1094,-474 763,-448 1123,141 1546,-78 606,-314 1880,418 1968,1016 165,1124 -266,339 350,672 480,260 612,409 604,921 -2,107 765,-120 764,937 0,120 1020,1248 -214,1573 -675,178 -308,403 -1107,54 -1158,-504 -622,206 -1127,176 -221,-13 -1050,-443 -1333,-690 z"
         style="fill:none;stroke:#006633;stroke-width:282.22000122"
         class="fil2 str0"
         inkscape:connector-curvature="0" />
      <path
         id="path74"
         d="m 12938,9648 c -87,883 841,200 689,1768 -10,107 77,508 27,912 -170,1372 13,1020 -727,2267 -329,554 -327,544 550,511 1338,-51 645,220 1582,427 323,71 763,-185 -45,-607 -864,-452 110,-611 655,-454 497,144 491,-336 -190,-586 -256,-94 -158,-413 -533,-632 -255,-149 -435,-1697 -388,-2076 185,-1495 1257,-1628 1276,-2050 -472,0 -1340,1300 -1280,560 8,-95 -1396,-1990 -848,-963 169,317 533,881 -81,1217 -415,227 -612,-1175 -1001,-1060 -68,20 122,61 -312,176 -648,172 573,-30 596,469 0,1 34,78 30,120 z"
         style="fill:none;stroke:#ab754f;stroke-width:282.22000122"
         class="fil2 str1"
         inkscape:connector-curvature="0" />
      <path
         id="path76"
         d="m 12938,9648 c -87,883 841,200 689,1768 -10,107 77,508 27,912 -170,1372 13,1020 -727,2267 -329,554 -327,544 550,511 1338,-51 645,220 1582,427 323,71 763,-185 -45,-607 -864,-452 110,-611 655,-454 497,144 491,-336 -190,-586 -256,-94 -158,-413 -533,-632 -255,-149 -435,-1697 -388,-2076 185,-1495 1257,-1628 1276,-2050 -472,0 -1340,1300 -1280,560 8,-95 -1396,-1990 -848,-963 169,317 533,881 -81,1217 -415,227 -612,-1175 -1001,-1060 -68,20 122,61 -312,176 -648,172 573,-30 596,469 0,1 34,78 30,120 z"
         style="fill:#ce8f64"
         class="fil5"
         inkscape:connector-curvature="0" />
      <path
         id="path78"
         d="m 14698,15294 c -202,-194 -230,-366 -545,-468 -405,-131 -620,-27 -999,142 -171,76 136,87 298,34 164,-54 577,85 873,76 115,-4 275,275 373,217 z"
         style="fill:#b88059"
         class="fil6"
         inkscape:connector-curvature="0" />
      <path
         id="path80"
         d="m 15119,15394 c -146,100 -803,-740 -11,-264 402,242 142,237 68,182 -131,-98 -120,22 -57,82 z"
         style="fill:#e49c6d"
         class="fil7"
         inkscape:connector-curvature="0" />
      <path
         id="path82"
         d="m 15868,14316 c -201,-118 -134,-120 -412,-223 -208,-77 -66,-421 -604,-690 -468,-234 -244,-472 -343,-905 -49,-213 35,-930 -220,-868 -70,17 -63,231 9,134 91,-122 60,487 82,581 51,212 3,580 76,781 78,213 8,293 334,452 293,143 237,50 396,340 159,291 410,174 642,389 4,3 35,7 40,10 z"
         style="fill:#e49c6d"
         class="fil7"
         inkscape:connector-curvature="0" />
      <path
         id="path84"
         d="m 15064,14091 c -96,-344 -410,-398 -708,-505 10,-9 225,242 332,264 89,18 370,219 376,242 z"
         style="fill:#e49c6d"
         class="fil7"
         inkscape:connector-curvature="0" />
      <path
         id="path86"
         d="m 14480,14684 c -233,-298 -256,-146 -358,-649 -134,-660 106,-1280 49,-1889 -21,-221 -300,-766 -213,-469 8,29 60,528 50,593 -18,126 17,562 -14,813 -27,216 -58,698 -11,894 70,288 47,585 412,679 45,11 69,7 85,28 z"
         style="fill:#e49c6d"
         class="fil7"
         inkscape:connector-curvature="0" />
      <path
         id="path88"
         d="m 14913,14299 c -213,-11 -449,415 -527,-303 -28,-254 321,133 542,219 127,49 113,91 -15,84 z"
         style="fill:#b88059"
         class="fil6"
         inkscape:connector-curvature="0" />
      <path
         id="path90"
         d="m 13047,14822 c 471,-43 378,-205 735,-186 213,11 47,-151 74,-373 13,-105 -33,-646 -107,-48 -47,379 -37,149 -469,440 -43,29 -179,162 -234,167 z"
         style="fill:#b88059"
         class="fil6"
         inkscape:connector-curvature="0" />
      <path
         id="path92"
         d="m 12961,14706 11,52 c 348,-229 317,-179 569,-491 277,-343 383,-1171 278,-1558 -78,-286 -37,-785 2,-1103 -23,118 -127,124 -77,466 39,266 -39,527 39,876 61,272 -161,682 -266,938 -56,136 -414,773 -556,820 z"
         style="fill:#e49c6d"
         class="fil7"
         inkscape:connector-curvature="0" />
      <path
         id="path94"
         d="m 14617,10081 24,-52 c 174,-22 343,-265 540,-390 98,-62 310,-414 511,-398 -1,3 -538,432 -602,543 -40,69 -383,268 -472,297 z"
         style="fill:#e49c6d"
         class="fil7"
         inkscape:connector-curvature="0" />
      <path
         id="path96"
         d="m 14767,10055 97,-104 c 38,163 -189,567 -282,725 -32,54 -10,253 -95,467 -87,218 87,282 -163,314 -59,7 -50,190 -12,-110 6,-49 65,-219 81,-365 12,-113 262,-826 366,-906 7,-6 8,-13 8,-20 z"
         style="fill:#e49c6d"
         class="fil7"
         inkscape:connector-curvature="0" />
      <path
         id="path98"
         d="m 14512,9947 c 8,-55 -255,-724 -380,-781 -117,-54 -330,-449 -288,-183 7,47 299,320 359,543 48,180 195,296 309,421 z"
         style="fill:#e49c6d"
         class="fil7"
         inkscape:connector-curvature="0" />
      <path
         id="path100"
         d="m 14058,9492 25,-61 c -60,350 383,489 381,762 -1,127 71,112 -33,369 -120,296 -184,450 -211,774 -20,241 -75,43 -42,-217 31,-247 173,-854 38,-1033 -57,-75 -172,-472 -157,-595 z"
         style="fill:#b88059"
         class="fil6"
         inkscape:connector-curvature="0" />
      <path
         id="path102"
         d="m 13998,9691 c 192,327 176,751 110,1135 -11,66 -96,699 -97,701 -215,-396 82,-1160 -37,-1765 -4,-20 16,-86 25,-72 z"
         style="fill:#b88059"
         class="fil6"
         inkscape:connector-curvature="0" />
      <path
         id="path104"
         d="m 13894,9903 c -122,26 -659,288 -685,12 -3,-35 -130,51 243,256 192,105 383,-64 475,-116 8,-65 35,-78 -33,-152 z"
         style="fill:#b88059"
         class="fil6"
         inkscape:connector-curvature="0" />
      <path
         id="path106"
         d="m 13849,10302 c -147,154 -71,818 -89,1036 -11,131 117,-645 105,-735 -13,-91 -1,-317 -16,-301 z"
         style="fill:#e49c6d"
         class="fil7"
         inkscape:connector-curvature="0" />
      <path
         id="path108"
         d="m 11780,9368 c 624,271 591,-591 1591,-639 415,-20 211,-211 906,180 354,199 696,-122 1018,455 117,209 1165,769 1417,784 505,30 -30,-680 1127,-176 799,348 432,124 1107,-54 1234,-326 214,-1453 214,-1573 2,-1057 -765,-831 -764,-937 9,-512 -124,-661 -604,-921 -615,-333 -184,452 -350,-672 -88,-598 -1362,-1330 -1968,-1016 -423,219 -782,-370 -1546,78 -279,164 -741,-45 -1094,474 -26,37 -1030,-104 -1126,583 -42,302 434,-7 -562,506 -941,485 -195,510 -613,1288 -640,1190 440,575 -294,1536 -285,373 115,1123 518,746 136,-127 481,71 931,-624 17,-27 58,-30 91,-16 z"
         style="fill:#009933"
         class="fil8"
         inkscape:connector-curvature="0" />
      <path
         id="path110"
         d="m 17472,6408 c -18,72 -43,25 0,0 z m -3285,1688 c 134,-77 902,-156 902,41 0,312 567,382 537,-432 -17,-461 704,-930 345,-406 -7,10 -111,569 -126,623 -220,816 1060,409 1172,141 157,-375 232,-580 272,-654 74,-139 21,186 141,716 177,779 -55,662 587,791 47,9 56,300 279,423 432,238 350,256 954,49 263,-90 -215,-551 -94,-872 28,-73 -53,-216 -31,-526 -151,-650 -730,-491 -728,-584 9,-512 -124,-661 -604,-921 -194,-105 -284,-99 -321,-77 16,-66 25,-229 -29,-595 -88,-598 -1362,-1330 -1968,-1016 -423,219 -782,-370 -1546,78 -279,164 -741,-45 -1094,474 -26,37 -1030,-104 -1126,583 -42,302 434,-7 -562,506 -941,485 -195,510 -613,1288 -621,1155 378,610 -234,1455 298,147 800,74 1034,-316 7,-12 70,-37 156,-72 174,-69 445,-171 555,-263 880,-736 1335,29 2141,-433 z"
         style="fill:#00b33c"
         class="fil9"
         inkscape:connector-curvature="0" />
      <path
         id="path112"
         d="m 17472,6408 c -8,33 -18,41 -22,38 -3,-3 -3,-13 5,-23 4,-5 9,-10 17,-15 z m 0,0 c -8,33 -18,41 -22,38 -3,-3 -3,-13 5,-23 l 6,-6 c 3,-3 7,-6 11,-8 z m 733,355 c -94,-94 -227,-178 -412,-278 -64,-35 -117,-58 -161,-71 -49,-16 -86,-20 -113,-18 -21,1 -37,6 -48,13 16,-66 25,-229 -29,-595 -88,-598 -1362,-1330 -1968,-1016 -423,219 -782,-370 -1546,78 -279,164 -741,-45 -1094,474 -26,37 -1030,-104 -1126,583 -42,302 434,-7 -562,506 -148,76 -255,142 -331,200 172,137 106,583 62,746 -72,266 -116,615 58,766 l 15,12 c 72,54 178,77 328,53 l 33,-6 c 59,-12 184,-89 292,-184 102,-89 189,-193 192,-270 4,-99 -21,-453 188,-182 18,23 20,119 48,200 35,99 109,175 299,64 281,-165 -91,-448 202,-390 319,64 -10,526 433,503 190,-10 -122,-126 281,-131 225,-3 294,-530 523,-56 51,106 174,74 228,-93 141,-436 477,154 755,-79 156,-130 220,-75 470,-369 76,-89 545,-398 666,-398 326,0 620,43 533,474 -11,53 -426,566 -111,550 150,-8 338,-97 396,-232 130,-303 446,-208 494,-399 1,-2 1,-4 2,-6 41,-79 454,-155 539,57 118,294 165,551 416,229 116,-149 -137,-498 43,-731 z"
         style="fill:#00c943"
         class="fil10"
         inkscape:connector-curvature="0" />
      <path
         id="path114"
         d="m 12291,5644 c -124,561 380,177 567,172 506,-14 -145,308 511,189 191,-35 -19,519 -407,179 -36,-31 -702,209 -722,-367 -1,-21 -107,-99 50,-173 z"
         style="fill:#00b33c"
         class="fil9"
         inkscape:connector-curvature="0" />
      <path
         id="path116"
         d="m 13833,6744 c 234,320 253,35 581,43 190,5 637,-310 -113,-279 -115,5 21,226 -398,209 -39,-2 -62,35 -69,26 z"
         style="fill:#00b33c"
         class="fil9"
         inkscape:connector-curvature="0" />
      <path
         id="path118"
         d="m 15461,5159 c 63,451 -90,323 429,593 54,28 -45,283 565,323 110,7 233,379 -556,6 -195,-92 -1,-103 -380,-288 -127,-62 -324,-422 -58,-635 z"
         style="fill:#00b33c"
         class="fil9"
         inkscape:connector-curvature="0" />
      <path
         id="path120"
         d="m 17920,8355 c 616,108 485,-564 833,-325 85,59 -636,971 -811,474 -17,-49 -13,-147 -22,-149 z"
         style="fill:#00c943"
         class="fil10"
         inkscape:connector-curvature="0" />
      <path
         id="path122"
         d="m 15803,8736 c 35,-1 287,132 499,-33 51,-40 412,-65 550,131 249,356 56,243 668,407 173,46 155,285 -285,233 -499,-59 -411,542 -983,25 -143,-129 -237,46 -361,-224 -191,-416 117,-241 -75,-519 l -13,-21 z"
         style="fill:#00b33c"
         class="fil9"
         inkscape:connector-curvature="0" />
      <path
         id="path124"
         d="m 11330,7082 -104,17 c 0,167 -324,559 -9,446 191,-69 -247,-464 523,-392 223,21 223,-93 666,-71 42,2 209,-369 -868,-4 -33,11 -161,4 -208,4 z"
         style="fill:#00b33c"
         class="fil9"
         inkscape:connector-curvature="0" />
      <path
         id="path126"
         d="m 16302,8703 c -213,165 -465,32 -499,33 l 13,21 c 48,69 65,111 66,140 162,60 240,189 313,238 32,21 62,28 98,7 324,-185 124,391 564,348 18,-2 54,14 96,35 70,-39 158,-65 281,-51 440,52 458,-187 285,-233 -612,-164 -418,-52 -668,-407 -38,-54 -93,-92 -154,-116 -160,-65 -359,-44 -396,-15 z"
         style="fill:#00c943"
         class="fil10"
         inkscape:connector-curvature="0" />
      <path
         id="path128"
         d="m 12421,9181 c 187,33 403,97 468,258 63,-21 126,-39 192,-55 -101,-209 -203,-410 -321,-481 -140,84 -244,186 -339,277 z"
         style="fill:#ba8058"
         class="fil11"
         inkscape:connector-curvature="0" />
      <path
         id="path130"
         d="m 13845,8983 c -43,-267 171,129 288,183 13,6 28,19 43,36 24,3 49,7 74,13 -127,-176 -273,-369 -396,-521 -84,-32 -131,-34 -177,-25 9,18 19,37 30,57 70,131 174,305 227,487 25,-5 52,-10 80,-13 -85,-107 -165,-193 -169,-217 z"
         style="fill:#ba8058"
         class="fil11"
         inkscape:connector-curvature="0" />
      <path
         id="path132"
         d="m 15215,9493 c -52,45 -102,90 -152,133 24,15 48,30 70,45 15,-11 31,-22 46,-32 40,-25 98,-98 167,-175 6,-7 12,-13 18,-20 -16,-15 -31,-29 -43,-43 -36,30 -72,60 -108,91 z"
         style="fill:#ba8058"
         class="fil11"
         inkscape:connector-curvature="0" />
      <path
         id="path134"
         d="m 15405,9479 c -87,74 -175,153 -238,214 30,20 58,41 87,62 84,-79 167,-146 242,-207 -34,-24 -64,-47 -91,-69 z"
         style="fill:#ba8058"
         class="fil11"
         inkscape:connector-curvature="0" />
      <path
         id="path136"
         d="m 15167,9693 c 62,-62 151,-140 238,-214 -9,-7 -18,-15 -26,-22 -5,-4 -9,-8 -14,-12 l -18,20 c -69,77 -128,150 -167,175 -16,10 -31,20 -46,32 11,7 22,15 33,22 z m -1322,-710 c 4,24 84,109 169,217 50,-5 103,-5 162,2 -16,-18 -30,-30 -43,-36 -117,-54 -330,-449 -288,-183 z"
         style="fill:#d49264"
         class="fil12"
         inkscape:connector-curvature="0" />
    </g>
    <path
       d="m 202.83744,420.49168 c 0,-0.69518 -1.35,-1.8615 -3,-2.5919 -1.7798,-0.78778 -3,-2.0833 -3,-3.1851 0,-1.0214 -0.48687,-2.1581 -1.0819,-2.5258 -0.76258,-0.4713 -0.89228,-11.03501 -0.43941,-35.78601 0.35339,-19.315 0.82443,-35.3 1.0468,-35.522 0.62462,-0.62462 -1.4833,-4.1413 -2.4823,-4.1413 -0.48761,0 -3.9064,2.025 -7.5972,4.5 -3.6909,2.475 -6.8943,4.5 -7.1188,4.5 -0.41843,0 -6.428,4.101 -7.3271,5 -0.275,0.275 -5.9,4.1 -12.5,8.5 -6.6,4.4 -12.36,8.5625 -12.8,9.25 -0.43983,0.6875 -1.3972,1.25 -2.1276,1.25 -0.73032,0 -1.8881,0.675 -2.5728,1.5 -0.68469,0.825 -2.0898,1.5 -3.1224,1.5 -1.0327,0 -1.8776,0.41009 -1.8776,0.91131 0,1.3074 -12.216,-1.7144 -13.964,-3.4542 -1.1453,-1.1396 -1.1756,-1.4571 -0.13921,-1.4571 0.73926,0 0.28138,-0.84598 -1.0357,-1.9136 -2.0204,-1.6377 -2.3558,-2.7883 -2.326,-7.9803 0.0317,-5.5373 0.33711,-6.3823 3.5,-9.6837 3.3646,-3.512 15.087,-12.422 16.342,-12.422 0.34266,0 1.4105,-0.69166 2.373,-1.537 0.9625,-0.84537 8.95,-6.2897 17.75,-12.098 8.8,-5.8088 17.125,-11.551 18.5,-12.761 1.375,-1.2096 3.85,-2.8521 5.5,-3.6499 1.65,-0.79787 3.225,-1.7168 3.5,-2.0421 0.275,-0.3253 2.525,-2.0417 5,-3.8142 2.475,-1.7725 4.7926,-4.2071 5.1503,-5.4101 1.0742,-3.6133 0.93863,-19.514 -0.17228,-20.201 -0.56209,-0.34738 -3.9652,0.86356 -7.5624,2.691 -3.5972,1.82744 -8.1617,4.1486 -10.143,5.1583 -4.435,2.2597 -14.917,2.8532 -14.491,0.82057 0.15469,-0.73906 -0.25504,-1.165 -0.9105,-0.9465 -1.4256,0.47521 -6.4628,-3.951 -5.543,-4.8708 0.35266,-0.35266 -0.12891,-1.2043 -1.0702,-1.8926 -1.5286,-1.1177 -1.5819,-1.8683 -0.49961,-7.0283 1.7394,-8.2929 3.5564,-9.9758 21.242,-19.675 3.025,-1.659 6.4,-3.8106 7.5,-4.7814 1.1,-0.97077 4.1146,-2.748 6.6991,-3.9494 2.5845,-1.2014 5.2411,-2.8375 5.9036,-3.6358 0.8235,-0.99221 1.2667,-7.1477 1.4009,-19.458 0.1665,-15.273 -0.024,-17.962 -1.2544,-17.712 -0.79781,0.16193 -2.6428,2.4189 -4.0999,5.0156 -1.4571,2.5966 -3.3243,5.5218 -4.1493,6.5004 -0.825,0.97858 -2.3461,3.1291 -3.3803,4.7788 -2.6584,4.2409 -6.5354,7.4692 -8.202,6.8297 -0.77975,-0.29922 -1.4177,0.0153 -1.4177,0.69888 0,0.89242 -1.233,1.0739 -4.3726,0.64357 -6.0807,-0.83346 -9.6274,-2.6356 -9.6274,-4.892 0,-1.0442 -0.41891,-1.6396 -0.9309,-1.3232 -1.4104,0.87171 -2.2674,-1.15 -2.7737,-6.5439 -0.50087,-5.3356 1.3593,-10.062 8.3423,-21.198 1.995,-3.1813 3.3592,-6.0523 3.0315,-6.38 -1.0705,-1.0705 -31.104,14.508 -32.83,17.03 -0.95778,1.3986 -1.8974,8.4206 -2.3928,17.883 -1.0422,19.903 -1.3245,22.512 -2.7904,25.789 -1.9122,4.2741 -3.4346,6.1524 -6.6555,8.2112 -2.4641,1.5751 -7.5624,1.7582 -9.8355,0.35337 -0.64046,-0.39583 -1.1645,-0.24314 -1.1645,0.33932 0,0.58246 -0.45,1.059 -1,1.059 -0.55,0 -1,-0.7125 -1,-1.5833 0,-0.87084 -0.55279,-1.3991 -1.2284,-1.1739 -1.2841,0.42804 -5.4031,-2.8476 -5.0928,-4.05 0.0983,-0.38102 -0.43709,-1.3732 -1.1898,-2.2049 -1.2906,-1.4261 -1.4005,-12.92 -0.22692,-23.738 0.19391,-1.7875 0.13372,-3.25 -0.13375,-3.25 -1.0096,0 -7.649603,2.5144 -8.128303,3.078 -0.275,0.32378 -3.3373,2.0896 -6.8051,3.924 -3.4678,1.8344 -6.6756,4.0469 -7.1284,4.9166 -0.45285,0.86972 -1.1316,4.9329 -1.5082,9.0293 -0.37669,4.0964 -0.91442,7.8194 -1.195,8.2733 -0.28053,0.45392 -0.71292,2.9523 -0.96086,5.552 -0.24794,2.5997 -1.086,9.2267 -1.8622,14.727 -0.77629,5.5 -1.7248,12.25 -2.1078,15 -1.1056,7.9378 -1.1756,8.4219 -2.8931,20 -2.0154,13.586 -1.9583,13.398 -5.5807,18.399 -2.5171,3.4748 -3.5139,4.1015 -6.5238,4.1015 -2.0776,0 -3.3,0.40895 -2.944,0.98494 0.38061,0.61583 -0.62785,0.74748 -2.691,0.35128 -4.9489,-0.95036 -7.8451,-2.1822 -7.557,-3.2142 0.14152,-0.50708 -0.0394,-0.85447 -0.40211,-0.77197 -0.36269,0.0825 -1.5494,-0.98135 -2.637,-2.3641 -1.5396,-1.9572 -2.0026,-4.174 -2.0902,-10.008 -0.062,-4.1215 0.34704,-9.0651 0.90887,-10.986 0.56183,-1.9208 1.2686,-6.4173 1.5706,-9.9923 0.30198,-3.575 1.227,-10.775 2.0556,-16 0.82859,-5.225 1.7069,-12.912 1.9519,-17.083 l 0.44534,-7.5833 -2.9797,0 c -1.6388,0 -3.21,0.6 -3.4914,1.3333 -0.28141,0.73333 -1.145701,1.3333 -1.920601,1.3333 -0.77492,0 -1.9691,0.675 -2.6538,1.5 -0.68469,0.825 -2.0898,1.5 -3.1224,1.5 -1.0327,0 -1.8776,0.45 -1.8776,1 0,0.55 -0.87344,1 -1.941,1 -1.0675,0 -2.2015,0.4215 -2.5199,0.93668 -0.76682,1.2407 -6.4797,4.0633 -8.2242,4.0633 -0.75776,0 -1.6368,0.675 -1.9534,1.5 -0.31659,0.825 -1.3724,1.5 -2.3462,1.5 -0.97382,0 -2.3308,0.675 -3.0155,1.5 -0.68469,0.825 -1.8648,1.5 -2.6224,1.5 -0.7576595,0 -1.3775995,0.45 -1.3775995,1 0,0.55 -0.8449,1 -1.8776,1 -1.0326,0 -2.4378,0.675 -3.1224,1.5 -0.68469,0.825 -1.8648,1.5 -2.6224,1.5 -0.75766,0 -1.3776,0.45 -1.3776,1 0,0.55 -0.87344,1 -1.941,1 -1.0675,0 -2.2149,0.44321 -2.5497,0.98492 -0.33479,0.5417 -2.934,2.0978 -5.7760005,3.4579 -3.8427,1.839 -5.3641,2.1633 -5.935,1.2651 -0.7041,-1.1078 -1.2027,-0.26909 -0.91673,1.5421 0.17521,1.1097 -1.4632,0.9275 -7.5358,-0.83787 -3.9658,-1.1529 -5.7032,-2.222 -6.3422,-3.9029 -0.48409,-1.2732 -1.3383,-2.5981 -1.8982,-2.9442 -0.55991,-0.34604 -0.78199,-1.2442 -0.49351,-1.996 0.28847,-0.75176 -0.004,-1.6936 -0.65044,-2.093 -0.87265,-0.53933 -0.82587,-0.94733 0.18183,-1.5858 1.0258,-0.64996 1.0472,-0.86342 0.0877,-0.875 -0.88107,-0.0106 -1.0615,-0.85605 -0.59002,-2.7653 1.2761,-5.1682 5.1316,-9.9563 10.045,-12.475 8.6188,-4.4179 13.804,-7.2635 14.314,-7.8552 0.2750005,-0.31906 1.9625005,-1.2164 3.7500005,-1.9941 1.7875,-0.7777 3.25,-1.7054 3.25,-2.0615 0,-0.55505 4.5275,-2.0692 6,-2.0066 0.275,0.0117 1.4,-0.7962 2.5,-1.7953 1.1,-0.99911 4.6999995,-3.1402 7.9999995,-4.758 3.3,-1.6178 8.475,-4.4277 11.5,-6.2443 3.025,-1.8166 5.725,-3.2483 6,-3.1815 0.61906,0.15038 0.50335,-0.71964 -0.49012,-3.6851 -0.43794,-1.3072 -1.334,-2.0912 -2.0682,-1.8094 -0.7125,0.27342 -1.8425,-0.16201 -2.5111,-0.96761 -0.66859,-0.8056 -1.4476,-1.2328 -1.7311,-0.94923 -0.28352,0.28352 -1.0069,0.14688 -1.6075,-0.30364 -0.60061,-0.45052 -3.2295,-1.6088 -5.842,-2.574 -2.8216,-1.0425 -4.75,-2.3737 -4.75,-3.2792 0,-0.94407 -0.57096,-1.3052 -1.5,-0.94867 -0.8249995,0.31658 -1.4999995,0.24957 -1.4999995,-0.1489 0,-0.79473 -2.3182,-1.8229 -11.75,-5.2113 -3.853,-1.3842 -6.25,-2.8149 -6.25,-3.7304 0,-0.90922 -0.58164,-1.2619 -1.5000005,-0.90946 -0.825,0.31658 -1.5,0.13972 -1.5,-0.39301 10e-6,-0.53274 -0.82499,-0.96862 -1.8333,-0.96862 -1.00831,0 -2.1708,-0.3375 -2.5833,-0.75 -0.4125,-0.4125 -1.05,-0.77734 -1.4167,-0.81076 -2.4017,-0.21888 -8.1667,-3.5872 -8.1667,-4.7716 0,-0.78892 -0.94528,-1.6816 -2.1006,-1.9837 -1.2129,-0.31717 -1.8104,-1.0189 -1.4139,-1.6604 0.37769,-0.61111 0.14626,-1.7623 -0.51429,-2.5582 -2.8382,-3.4198 1.6872,-14.828 7.2915,-18.381 2.2434,-1.4223 12.737,-2.2612 12.737,-1.0182 0,0.51344 0.8734405,0.93352 1.9410005,0.93352 1.0675,0 2.1977,0.41538 2.5115,0.92306 0.31377,0.50769 1.9457,1.2251 3.6266,1.5943 1.6808,0.36918 3.2832,1.2632 3.5609,1.9867 0.42283,1.1019 3.8018,2.599 6.5776,2.9144 0.39467,0.0448 1.6373,0.86903 2.7613995,1.8315 1.1241,0.9625 2.5134,1.75 3.0873,1.75 1.9077,0 9.9337,4.0346 9.9337,4.9936 0,0.51899 0.6979,0.67581 1.5509,0.34849 0.88794,-0.34073 2.5662,0.35867 3.926,1.6362 1.3063,1.2272 2.8719,1.9243 3.479,1.549 0.60717,-0.37525 3.228,0.56251 5.824,2.0839 2.5961,1.5214 4.945101,2.7256 5.220101,2.6761 0.275,-0.0495 1.4,0.41117 2.5,1.0238 1.1,0.61262 2.2943,1.0326 2.6541,0.93336 0.35975,-0.0993 1.2024,0.48013 1.8724,1.2876 0.6701,0.80742 1.823,1.468 2.562,1.468 1.9983,0 8.4115,3.2359 8.4115,4.2442 0,0.48059 0.40316,0.62463 0.89592,0.32009 0.49276,-0.30454 2.1803,0.11613 3.75,0.93483 3.1789,1.6579 5.0201,1.896 5.5208,0.71378 0.45171,-1.0666 10.053,-6.7091 11.448,-6.728 1.4076,-0.019 4.3855,-2.4516 4.3855,-3.5824 0,-0.46891 -2.0093,-1.7679 -4.4651,-2.8867 -2.4558,-1.1188 -4.3296,-2.5925 -4.1639,-3.275 0.16568,-0.6825 0.11248,-0.9034 -0.11821,-0.4909 -0.70603,1.2625 -2.2528,0.83335 -2.2528,-0.625 0,-0.75625 -1.433,-1.6616 -3.1844,-2.0119 -3.5054,-0.70107 -6.8156,-3.2192 -6.8156,-5.1848 0,-0.69393 -0.5625,-1.4492 -1.25,-1.6784 -0.8426,-0.28091 -1.2024,-2.4329 -1.104,-6.6026 0.17234,-7.3006 2.9144,-11.752 9.0475,-14.688 4.3705,-2.0921 11.26,-2.0356 12.917,0.10585 0.61064,0.78912 1.8,1.4348 2.643,1.4348 0.84303,0 1.8027,0.70352 2.1327,1.5634 0.32996,0.85986 1.0613,1.2782 1.6252,0.92971 1.2214,-0.75484 7.988803,3.2228 7.988803,4.6955 0,0.56398 0.73204,0.74452 1.6268,0.40119 0.89471,-0.34334 2.1322,-0.21354 2.75,0.28842 0.61779,0.50197 3.1482,2.0219 5.6232,3.3777 2.475,1.3558 6.6375,3.6439 9.25,5.0848 2.6125,1.4409 4.75,2.1787 4.75,1.6396 0,-0.5391 0.675,-0.98019 1.5,-0.98019 0.825,0 1.5028,-0.3375 1.5063,-0.75 0.008,-0.93403 5.7332,-4.25 7.3381,-4.25 0.65027,0 3.521,-1.575 6.3795,-3.5 2.8585,-1.925 5.6168,-3.5 6.1297,-3.5 0.51285,0 1.1684,-0.61479 1.4567,-1.3662 0.39123,-1.0195 -1.0406,-1.5597 -5.643,-2.1287 -3.392,-0.41941 -7.1768,-0.75241 -8.4106,-0.74001 -1.2339,0.0124 -1.9948,-0.37967 -1.691,-0.87126 0.30382,-0.49159 -0.17571,-0.8938 -1.0656,-0.8938 -0.94792,0 -1.3289,0.46789 -0.91982,1.1297 0.42762,0.69191 0.15983,0.93412 -0.69098,0.625 -0.76406,-0.2776 -1.2583,-1.0662 -1.0983,-1.7524 0.16549,-0.70977 -0.31003,-1.0171 -1.1029,-0.71282 -2.9108,1.117 -7.8287,-6.851 -7.5263,-12.194 0.3093,-5.4645 2.762,-9.7773 7.2663,-12.777 3.7432,-2.4928 4.9427,-2.7253 14.854,-2.8803 5.93,-0.0927 11.036,-0.42302 11.347,-0.73406 0.31105,-0.31104 -0.37828,-1.155 -1.5318,-1.8754 -1.1536,-0.72041 -2.0974,-1.9032 -2.0974,-2.6283 0,-0.72516 -0.41891,-1.0596 -0.9309,-0.74315 -0.512,0.31644 -1.2178,0.11118 -1.5684,-0.45613 -0.35062,-0.5673 -2.1423,-1.6602 -3.9814,-2.4287 -1.8392,-0.76846 -4.1845,-2.2377 -5.2118,-3.265 -1.0273,-1.0273 -4.0494,-2.701 -6.7157,-3.7192 -2.822,-1.0777 -5.0481,-2.6172 -5.3271,-3.684 -0.42076,-1.609 -0.65783,-1.654 -1.9434,-0.3684 -0.80529,0.80529 -2.0523,1.4642 -2.7712,1.4642 -0.71887,0 -4.6904,1.8036 -8.8257,4.0081 -4.4778,2.3871 -8.1834,3.753 -9.1624,3.3773 -1.0758,-0.41284 -1.5433,-0.1647 -1.3529,0.71816 0.16776,0.77797 -0.75071,1.5059 -2.1699,1.7199 -1.353403,0.204 -2.972703,1.0709 -3.598303,1.9265 -0.62562,0.85558 -1.6048,1.2668 -2.1759,0.91384 -0.57112,-0.35297 -1.5945,0.0283 -2.2742,0.84722 -0.67966,0.81894 -2.0806,1.489 -3.1133,1.489 -1.0327,0 -1.8776,0.48441 -1.8776,1.0765 0,0.6268 -1.5781,0.96252 -3.7779,0.8037 -2.0778,-0.15003 -4.3278,0.0671 -5,0.48255 -0.77712,0.48028 -1.2221,0.14516 -1.2221,-0.92033 0,-1.1837 -0.58757,-1.522 -2.0014,-1.1523 -1.1008,0.28785 -1.7691,0.14751 -1.4852,-0.31187 0.28392,-0.45939 -0.50296,-0.98138 -1.7486,-1.16 -1.6743,-0.24006 -2.2029,-0.90944 -2.0274,-2.5673 0.142,-1.341 -0.26005,-2.1438 -1,-1.9968 -0.68061,0.1352 -1.2542,-0.65472 -1.2747,-1.7554 -0.0205,-1.10068 -0.40258,-2.5924 -0.84912,-3.3149 -1.1144,-1.8032 0.11344,-7.7126 1.9128,-9.2059 0.81045,-0.67261 1.4735,-1.6807 1.4735,-2.240197 0,-0.55952 0.7875,-1.6316 1.75,-2.3824 2.1832,-1.703 15.848,-8.3554 17.163,-8.3554 1.9922,0 2.2214,-2.1945 0.43543,-4.168 -1.0164,-1.1231 -1.8347,-2.3322 -1.8184,-2.687 0.0163,-0.35475 -0.54624,-0.51278 -1.25,-0.35117 -0.70375,0.16161 -1.2796,-0.17589 -1.2796,-0.75 0,-0.57411 -0.69083,-1.0438 -1.5352,-1.0438 -1.9637,0 -6.5021,-2.8102 -8.552,-5.2955 -1.5061,-1.826 -1.7503,-1.84 -4.7794,-0.27355 -1.7557,0.90791 -3.6322,1.3788 -4.1699,1.0465 -0.53773,-0.33233 -1.2477,0.0993 -1.5776,0.95914 -0.32996,0.85986 -1.6768,1.5634 -2.9929,1.5634 -1.3162,0 -2.393,0.45 -2.393,1 0,0.55 -0.69293,1 -1.5398,1 -0.84691,0 -3.3219,0.90915 -5.5,2.0203 -2.1781,1.11115 -3.9602,1.6962 -3.9602,1.3 0,-0.39617 -0.54,-0.18032 -1.2,0.47968 -0.66,0.66 -2.0421,1.2 -3.0714,1.2 -1.0293,0 -2.5506,0.67914 -3.380601,1.5092 -0.83005,0.83006 -1.9513,1.236 -2.4916,0.90204 -0.54032,-0.33393 -1.7415,0.0421 -2.6694,0.83568 -2.181,1.8654 -9.7912,4.8156 -10.526,4.0806 -0.3111,-0.3111 -1.2751,0.14382 -2.1422,1.0109 -0.86711,0.86711 -2.1664,1.3502 -2.8874,1.0735 -0.72096,-0.27666 -1.888,0.19246 -2.5935,1.0425 -0.70546,0.85003 -1.8183,1.5455 -2.4731,1.5455 -0.65472,0 -3.5478,1.1372 -6.4289995,2.5272 -2.8812,1.389997 -5.6183,2.292597 -6.0824,2.005697 -0.46405,-0.2868 -1.1018,0.15096 -1.4171,0.9728 -0.31537,0.82184 -1.3975,1.4943 -2.4048,1.4943 -1.0073,0 -2.2921,0.46072 -2.8552,1.0238 -0.5631,0.5631 -2.66,1.0853 -4.6598,1.1605 -2.0855005,0.0784 -3.3783005,0.55368 -3.0316005,1.1146 0.76772,1.2422 -6.2341,-5.4e-4 -8.7081,-1.5456 -0.97741,-0.61041 -1.5702,-1.6491 -1.3172,-2.3082 0.25616,-0.66752 -0.7131,-1.4928 -2.188,-1.863 -2.1839,-0.54812 -2.4357,-0.92023 -1.4372,-2.123397 0.97978,-1.1806 0.88826,-1.4588 -0.47981,-1.4588 -1.43,0 -1.607,-0.74993 -1.1487,-4.8658 0.298,-2.6762 0.97568,-6.007 1.506,-7.4017 0.92956,-2.4449 6.8236,-7.709 8.6828,-7.7547 0.49809,-0.0122 2.0306,-0.90222 3.4056,-1.9778 1.375,-1.0755 3.1786005,-1.9655 4.0080005,-1.9778 0.82937,-0.0122 3.5858,-1.1284 6.1253,-2.4802 2.5396,-1.3519 4.8687,-2.2067 5.1759,-1.8994 0.30721,0.30721 1.5732,-0.38669 2.8132,-1.542 1.2401,-1.1553 2.964,-2.1006 3.831,-2.1006 0.86698,0 4.4198995,-1.3873 7.8952995,-3.0828 3.4754,-1.6956 6.5428,-2.859 6.8164,-2.5853 0.27362,0.27362 2.0987,-0.58911 4.0557,-1.9172 1.957,-1.32809 4.2829,-2.429 5.1687,-2.4465 3.7977,-0.075 7.3432,-5.9682 3.5906,-5.9682 -1.9987,0 -9.4801,-4.7449 -9.4801,-6.0125 0,-0.54311 -0.51321,-0.98746 -1.1405,-0.98746 -0.62726,0 -3.0647,-0.96102 -5.4166,-2.1356 -3.0245,-1.5105 -4.1034,-2.5858 -3.6859,-3.6736 0.43214,-1.1262 0.14201,-1.366 -1.0834,-0.89579 -0.92049,0.35322 -1.6736,0.20634 -1.6736,-0.32639 0,-0.53274 -0.9,-0.96862 -2,-0.96862 -1.1,0 -1.9999995,-0.35134 -1.9999995,-0.78076 0,-0.42942 -1.35,-1.2903 -3,-1.9131 -1.7069,-0.64429 -3,-1.8625 -3,-2.8262 0,-1.0813 -0.53289,-1.4894 -1.4736,-1.1284 -0.81046,0.311 -1.823,-0.005 -2.25,-0.70174 -0.42705,-0.69695 -2.2624,-1.8676 -4.0786,-2.6014 -2.1659,-0.87513 -3.1143,-1.8236 -2.7563,-2.7567 0.39279,-1.0236 0.02,-1.2556 -1.3294,-0.82728 -1.1838,0.37571 -2.0931005,0.0276 -2.4659005,-0.94388 -0.32483,-0.8465 -0.94062,-1.4424 -1.3684,-1.3242 -1.4715,0.40651 -7.22,-3.2197 -8.2984,-5.2347 -0.5939,-1.1097 -1.5072,-1.7535 -2.0296,-1.4306 -0.90563,0.55971 -1.3396,-0.73502 -1.0551,-3.1476005 0.0724,-0.61413 -0.46843,-1.6146 -1.2019,-2.2234 -1.7002,-1.411 -1.2192,-8.2963 0.87485,-12.524 2.763,-5.5781995 7.0267,-8.1066995 13.6700005,-8.1066995 3.6256,0 6.1494,0.47906 6.6312,1.2587 0.42786,0.6923 1.8699,1.4679 3.2044,1.7236 1.3346,0.25569 2.9261,1.1450995 3.5368,1.9765995 0.61064,0.83142 1.6231,1.5117 2.25,1.5117 0.62687,0 1.1398,0.45 1.1398,1 0,0.55 0.60526,1 1.345,1 0.73976,0 2.1738995,0.91587 3.1868995,2.0353 1.013,1.11943 2.4209,1.8131 3.1285,1.5415 0.70765,-0.27155 1.636,0.0501 2.0631,0.71473003 0.96751,1.5058 3.9323,3.40479997 7.5264,4.82069997 1.5125,0.59586 2.75,1.4894 2.75,1.9856 0,0.49619 0.68912,0.90217 1.5314,0.90217 0.84227,0 1.7904,0.675 2.107,1.5 0.31659,0.825 1.2025,1.5 1.9686,1.5 0.76615,0 2.3094,0.9164105 3.4295,2.0365005 1.1201,1.12009 2.4732,1.7665 3.0071,1.4366 0.53382,-0.32992 1.2406,0.10367 1.5705,0.96353 0.32996,0.85986 1.240901,1.5634 2.024301,1.5634 0.78342,0 1.6729,0.6475 1.9766,1.4389 0.30369,0.79139 1.8646,1.7272 3.4686,2.0795 1.604,0.35231 2.9165,1.0548 2.9165,1.5611 0,0.50629 0.8625,0.92054 1.9167,0.92054 1.0542,0 2.1176,0.5625 2.3631,1.25 0.67138,1.8798 1.7203,0.41825 1.6725,-2.3305 -0.067,-3.8545 -0.74023,-14.5600005 -1.6299,-25.9190005 -0.4523,-5.7749995 -0.79324,-13.3119995 -0.75763,-16.7499995 0.0356,-3.4375 -0.25774,-6.25 -0.65187,-6.25 -0.39413,0 -0.70721,-4.0576 -0.69574,-9.0169 0.0168,-7.2825 0.33458,-9.1925 1.6519,-9.9297 0.89706,-0.50202 1.5818,-1.2819 1.5218,-1.7331 -0.21605,-1.6224 2.7469,-5.1253 4.9058,-5.8 6.5431,-2.0447 14.335,-2.3518 13.203,-0.52035 -0.33992,0.55 0.30852,1 1.441,1 1.13248,0 2.059,0.44658 2.059,0.99239 0,0.54582 0.98712,2.1277 2.1936,3.5153 2.5935,2.9827 2.6492,3.2435 3.3093,15.492 0.2816,5.225 0.7007,10.85 0.93133,12.5 0.23062,1.65 0.71538,8.1672 1.0772,14.4829995 0.36186,6.31540003 0.84508,11.785 1.0738,12.156 0.22876,0.37013 0.62474,4.653 0.87997,9.5174005 0.64412,12.277 1.6152,22.666 2.2082,23.625 0.2743,0.44383 -0.0451,1.4623 -0.7098,2.2632 -0.85115,1.0256 -0.87661,1.4562 -0.0861,1.4562 0.61734,0 1.1224,0.60769 1.1224,1.3504 0,1.6588 4.5917,5.2885 11.067003,8.7487 2.6753,1.4295 5.5737,3.188 6.4408,3.9076 2.756,2.2872 3.6888,-0.29716 3.6655,-10.155 -0.0304,-12.828 0.92487,-15.889 6.4877,-20.785 3.9138,-3.4451 5.2958,-4.0669 9.0385,-4.0669 3.0917,0 4.2034,0.34754 3.7028,1.1575 -0.48894,0.79112 -0.041,0.98116 1.4153,0.60035 2.8049,-0.7335 9.1303,6.0632 9.3021,9.995 0.16115,3.6897 0.75974,27.986 0.90893,36.893 0.13586,8.1112 0.82236,9.1135 9.4711,13.828 2.75,1.499 5.675,3.2856 6.5,3.9701 2.3039,1.9117 12.289,6.6008 12.854,6.0363 0.27525,-0.27526 -0.32294,-1.1026 -1.3293,-1.8384 -1.0091,-0.73787 -1.5086,-1.8577 -1.1136,-2.4967 0.39975,-0.64681 0.0254,-1.4238 -0.84723,-1.7587 -0.85985,-0.32996 -1.5634,-1.3967 -1.5634,-2.3705 0,-0.97382 -0.64825,-2.3086 -1.4406,-2.9661 -0.79231,-0.65756 -1.2116,-1.7921 -0.93183,-2.5213 0.27981,-0.72916 0.0592,-1.6036 -0.49021,-1.9431 -3.001,-1.8547 2.3314,-15.716 6.6595,-17.311 0.93673,-0.34524 2.0086,-1.0853 2.382,-1.6445 0.37335,-0.55924 2.6234,-1.0892 5,-1.1776 8.212,-0.30553 13.729,4.6749 19.702,17.786 2.0966,4.6022 4.7117,7.5032 5.791,6.4239 0.6791,-0.67914 1.3433,-11.584 1.6398,-26.923 0.1441,-7.458 -0.1063,-9.6482 -1.0613,-9.2814 -0.6875,0.26406 -1.2552,0.15673 -1.2615,-0.2385 -0.01,-0.39524 -1.8658,-1.6074 -4.1322,-2.6938 -2.2664,-1.0863 -4.6237,-2.797 -5.2385,-3.8016 -0.61482,-1.0045 -3.0357,-2.6803 -5.3797,-3.7238 -2.344,-1.0436 -4.5296,-2.5954 -4.857,-3.4484 -0.32735,-0.85306 -0.99836,-1.551 -1.4911,-1.551 -1.6531,0 -9.9403,-5.6164 -9.2725,-6.2842 0.3629,-0.36291 -0.50784,-1.1038 -1.935,-1.6464 -1.665,-0.63302 -3.3538,-2.6525 -4.7126,-5.6355 -2.9466,-6.4682005 -1.4789,-12.8380005 4.1247,-17.9000005 2.1512,-1.9434 4.4724,-3.5838 5.1583,-3.6453 0.68592,-0.0615 2.7176,-0.28167 4.5149,-0.48931 3.2313,-0.37331 11.232,2.3598 11.232,3.837 0,0.42026 0.46775,0.7641 1.0394,0.7641 0.5717,0 3.3782,1.57500003 6.2366,3.5 2.8584,1.925 5.7382,3.5 6.3992,3.5 1.4253,0 2.4616,-6.11179997 2.6723,-15.7609995 0.1482,-6.7814 0.073,-7.0079 -2.7283,-8.2474 -1.5844,-0.70099 -3.0715,-1.9983 -3.3047,-2.8829 -0.2332,-0.88459 -2.2376,-2.4868 -4.4542,-3.5605 -2.2166,-1.0737 -4.5545,-2.6671 -5.1953,-3.5409 -0.6408,-0.87381 -2.6193,-2.6076 -4.3968,-3.8528 -1.7774,-1.2453 -3.1274,-2.8018 -3,-3.4591 0.12741,-0.65723 -0.55584,-1.0627 -1.5183,-0.90113 -0.9625,0.16161 -1.75,-0.066 -1.75,-0.50589 0,-0.43985 -1.35,-1.3973 -3,-2.1277 -1.65,-0.73036 -3,-1.9282 -3,-2.6618 0,-0.7336 -1.6875,-2.1666 -3.75,-3.1846 -2.0625,-1.0179 -3.6191,-2.4602 -3.4591,-3.205 0.17788,-0.82813 -0.27562,-1.1369 -1.1672,-0.79477 -0.80197,0.30774 -1.7062,-0.0871 -2.0095,-0.87732 -0.30325,-0.79027 -1.2078,-1.4369 -2.0102,-1.4369 -0.80234,0 -2.3866,-1.1795 -3.5206,-2.6212 -1.134,-1.4416 -3.5292,-3.3691 -5.3226,-4.2832 -1.7934,-0.91413 -3.1483,-2.2096 -3.0108,-2.8788 0.1375,-0.66922 -0.20894,-1.2168 -0.76987,-1.2168 -1.7654,0 -8.9849,-4.9738 -8.7267,-6.0121 0.1356,-0.54525 -0.84226,-1.5531 -2.173,-2.2396 -5.1056,-2.634 -7.6853,-11.397 -5.2448,-17.816 1.6328,-4.2946 5.9572,-8.6356 9.3948,-9.4308 4.855,-1.1232 9.7696,-1.2944 9.7696,-0.34044 0,0.46146 0.92656,0.83902 2.059,0.83902 1.1325,0 1.7809,0.45 1.441,1 -0.33992,0.55 0.24281,1 1.295,1 1.05219,0 3.1269,1.125 4.6105,2.5 1.4836,1.375 2.8789,2.5 3.1006,2.5 0.22166,0 1.4579,1.0125 2.7471,2.25 4.2078,4.0389 8.213,7.2251 10.754,8.5547 3.3046,1.7294 8.9931,6.9043 8.9931,8.1812 0,0.55776 0.49097,1.0141 1.091,1.0141 0.60007,0 2.9311,1.575 5.18,3.5 2.2489,1.925 4.683,3.5 5.409,3.5 0.726,0 1.32,0.35298 1.32,0.78439 0,1.1748 5.7914,4.3672 6.3158,3.4815 1.4358,-2.425 1.8995,-9.9543 3.2126,-52.160003 0.6495,-20.874 1.5306,-25.057 6.1181,-29.046 1.3941,-1.2122 3.169,-1.9606 3.9441,-1.6632 0.8147,0.31264 1.4094,-0.0734 1.4094,-0.91497 0,-2.1272 8.3485,-1.0815 11.974,1.4997 3.3226,2.3659 7.4061,10.16 6.6759,12.742 -0.2765,0.97747 -0.798,17.329 -1.1589,36.336003 -0.5851,30.819 -0.4849,34.701 0.9267,35.872 1.0165,0.84361 1.5828,0.92119 1.5828,0.21683 0,-0.60322 1.4201,-1.8312 3.1559,-2.7288 1.7357,-0.8976 4.0966,-2.5084 5.2463,-3.5795 1.1498,-1.0711 4.3421,-3.3764 7.0941,-5.1227 2.752,-1.7464 5.5688,-3.7177 6.2596,-4.3806 0.6907,-0.663 2.1532,-1.4903 3.25,-1.8384 1.0967,-0.34809 1.9941,-1.0282 1.9941,-1.5114 0,-0.74089 11.25,-8.7188 23.326,-16.543 1.7454,-1.1307 5.1977,-2.1857 7.6717,-2.3444 2.474,-0.1587 4.8042,-0.47768 5.1783,-0.70885 0.8907,-0.55052 7.3282,5.5384 8.5731,8.1091 3.2968,6.8071 1.5486,14.626 -4.4855,20.062 -2.0703,1.8651 -4.1338,3.4016 -4.5856,3.4143 -0.4518,0.0128 -1.4091,0.5857 -2.1274,1.2732 -0.7184,0.6875 -2.3028,1.925 -3.521,2.75 -1.2182,0.825 -4.7829,3.3 -7.9216,5.5 -7.0617,4.9496 -9.194,6.3281 -11.108,7.181 -0.825,0.36753 -1.8599,1.2647 -2.2997,1.9936 -0.4399,0.72897 -1.43,1.3254 -2.2003,1.3254 -0.7704,0 -1.7605,0.60849 -2.2004,1.3522 -0.4398,0.7437 -4.1746,3.5562 -8.2996,6.25 -4.125,2.6938 -8.0074,5.3478 -8.6275,5.8978 -0.6201,0.55 -2.1527,1.675 -3.4057,2.5 -1.253,0.825 -2.9831,2.2875 -3.8447,3.25 -0.8617,0.9625 -1.9534,1.75 -2.4261,1.75 -0.4727,0 -2.8852,1.66 -5.3612,3.6888 l -4.5018,3.6889 0.3335,10.7299995 c 0.1834,5.9017 0.6383,11.034 1.011,11.405 0.6145,0.61219 11.464,-4.8148 16.295,-8.15129997 1.0848,-0.74918003 2.7723,-1.36220003 3.75,-1.36220003 0.9776,0 1.7775,-0.50751 1.7775,-1.1278 0,-1.5422 7.5432,-0.33774 11.756,1.8771 1.7907,0.94148003 3.5085,2.50800003 3.8174,3.4813 0.3089,0.97322 0.9312,1.7695 1.383,1.7695 1.499,0 2.1457,6.9081005 1.0333,11.0390005 -0.6026,2.2378 -2.5342,5.5927 -4.2925,7.4553 -2.8213,2.9886 -12.532,9.8642 -16.697,11.822 -0.825,0.38786 -2.85,1.5695 -4.5,2.6259 -3.1893,2.0419 -9.2154,5.4554 -13.75,7.7887 -2.0712,1.0658 -2.7789,2.1992 -2.8669,4.5918 -0.5609,15.24 -0.6529,27.489 -0.2182,29.012 0.4895,1.7144 0.6828,1.6864 2.9296,-0.42431 1.323,-1.2429 2.4055,-2.8564 2.4055,-3.5855 0,-0.72913 0.45,-1.3257 1,-1.3257 0.55,0 1,-0.67649 1,-1.5033 0,-0.82682 2.1884,-3.7738 4.8632,-6.5488 l 4.8632,-5.0455 6.8234,0.29881 6.8234,0.29881 3.3967,4.7357 c 5.5783,7.7773 4.9292,11.887 -4.336,27.45 -1.043,1.752 -1.5857,3.4962 -1.2059,3.8759 0.3798,0.37976 6.7356,-2.3067 14.124,-5.9698 15.448,-7.659 15.205,-7.3407 16.102,-21.092 0.7563,-11.594 0.9062,-12.762 1.8187,-14.181 0.4178,-0.6495 0.3171,-1.4544 -0.2239,-1.7888 -0.5409,-0.33432 -0.7828,-1.8279 -0.5374,-3.3191 0.2453,-1.4912 0.6598,-4.2862 0.9211,-6.2112 0.5845,-4.3059 0.9615,-5.7756 2.3389,-9.1187 1.2663,-3.0734 5.7837,-6.8813 8.1632,-6.8813 0.9158,0 2.0927,-0.40173 2.6152,-0.89274 1.1553,-1.0857 7.45,-0.23554 7.45,1.0062 0,0.48757 0.5429,0.8865 1.2066,0.8865 0.6636,0 2.68,1.6875 4.4808,3.75 3.0423,3.4844 3.9805,6.7731 3.4945,12.25 -0.8746,9.8585 -0.773,19 0.2112,19 0.6284,0 2.7982,-1.125 4.8217,-2.5 2.0235,-1.375 4.2654,-2.51 4.9821,-2.5222 0.7167,-0.0122 2.4281,-0.90222 3.8031,-1.9778 1.375,-1.0755 2.8972,-1.9655 3.3827,-1.9778 1.5167,-0.0382 4.6112,-4.2286 4.7449,-6.4252 0.2361,-3.8795 0.582,-6.3039 1.3137,-9.2084 0.4003,-1.5887 0.9023,-4.9136 1.1155,-7.3886 0.8706,-10.102 1.6001,-15.686 2.4952,-19.1 0.5192,-1.9798 1.1946,-7.1988005 1.5008,-11.5980005 0.3063,-4.399 1.165,-10.615 1.9084,-13.8129995 0.7434,-3.1979 1.1205,-6.4164 0.8382,-7.1522 -0.2824,-0.73583 -0.1278,-1.3391 0.3436,-1.3405 0.4713,-0.001 0.8935,-3.039 0.9381,-6.75 0.093,-7.751 1.8566,-11.908 7.1814,-16.93 3.3351,-3.1454 3.8464,-3.302 9.408,-2.8808 5.1955,0.39342 6.3012,0.87769 9.4822,4.1532 4.8865,5.0318 4.8857,5.6524 -0.059,45.4099995 -0.855,6.875 -2.0135,15.5460005 -2.5743,19.2690005 -1.2775,8.4794 -1.2906,11.731 -0.047,11.731 1.0949,0 12.253,-5.0978 13.027,-5.9516 0.275,-0.30335 1.8446,-1.2258 3.4879,-2.0499 1.6433,-0.82413 5.7977,-3.1859 9.2319,-5.2484 3.4342,-2.0625 6.9272,-3.75 7.7621,-3.75 0.835,0 1.5181,-0.45 1.5181,-1 0,-0.55 0.675,-1 1.5,-1 0.825,0 1.5,-0.34384 1.5,-0.7641 0,-0.42025 1.6875,-1.5476 3.75,-2.5051 4.0771,-1.8929005 8.6141,-4.4289005 12.625,-7.0568005 1.4051,-0.92068 3.0636,-1.674 3.6856,-1.674 0.6219,0 2.3653,-0.87904997 3.8741,-1.95339997 2.8043,-1.99680003 11.066,-2.53960003 11.066,-0.72708 0,0.49197 0.6455,0.64676 1.4346,0.34397 0.8597,-0.32989 2.8636,1.0311 5,3.39589997 3.9635,4.3872 4.6032,8.7445005 2.3755,16.1800005 -1.0888,3.634 -7.4586,10.261 -9.863,10.261 -0.4659,0 -1.4096,0.5625 -2.0971,1.25 -0.6875,0.6875 -2.0119,1.25 -2.9431,1.25 -0.9311,0 -1.952,0.675 -2.2686,1.5 -0.3166,0.825 -1.4416,1.5 -2.5,1.5 -1.0584,0 -2.1834,0.675 -2.5,1.5 -0.3166,0.825 -1.2968,1.5 -2.1784,1.5 -0.8815,0 -2.2819,0.67914 -3.112,1.5092 -0.83,0.83006 -1.8719,1.285 -2.3153,1.011 -0.4433,-0.274 -1.3621,0.17187 -2.0418,0.99081 -0.6796,0.81894 -1.8005,1.489 -2.4908,1.489 -0.6904,0 -1.8324,0.69548 -2.5378,1.5455 -0.7055,0.85003 -1.9026,1.3076 -2.6603,1.0169 -0.7577,-0.29076 -1.6338,0.13876 -1.9468,0.95449 -0.313,0.81573 -1.3659,1.4831 -2.3397,1.4831 -0.9738,0 -2.3308,0.675 -3.0154,1.5 -0.6847,0.825 -1.8648,1.5 -2.6225,1.5 -0.7576,0 -1.3775,0.45 -1.3775,1 0,0.55 -0.9142,1 -2.0314,1 -1.1173,0 -2.2904,0.675 -2.607,1.5 -0.3166,0.825 -1.4009,1.5 -2.4096,1.5 -1.0087,0 -2.1293,0.47776 -2.4902,1.0617 -0.3609,0.58393 -1.7374,1.4728 -3.059,1.9752 -2.8771,1.0939 -3.1558,3.5893 -0.4952,4.4338 1.0492,0.333 2.1571,1.2557 2.4621,2.0505 0.3336,0.86937 1.2165,1.191 2.2162,0.80744 1.0242,-0.39301 2.0214,0.005 2.5993,1.0379 0.5157,0.92154 1.36,1.4145 1.8762,1.0955 0.5162,-0.31903 0.9386,-0.1035 0.9386,0.47896 0,0.58246 0.9265,1.059 2.059,1.059 1.1324,0 1.7841,0.44485 1.448,0.98855 -0.336,0.5437 0,0.75333 0.7512,0.46586 0.7491,-0.28748 2.9247,0.53777 4.8346,1.8339 1.91,1.2961 4.0204,2.174 4.6899,1.9508 0.6695,-0.22317 1.2173,0.33707 1.2173,1.245 0,1.197 0.551,1.4758 2.0049,1.0144 1.3233,-0.42002 2.206,-0.11223 2.5965,0.90541 0.3254,0.84796 2.0843,1.8218 3.9086,2.164 1.8243,0.34224 4.181,1.4273 5.2371,2.4112 1.0561,0.98392 3.3399,2.1008 5.0751,2.4819 1.7351,0.38111 3.4115,1.1083 3.7253,1.616 0.3138,0.50768 1.4705,0.92306 2.5705,0.92306 1.1,0 1.7186,0.45529 1.3747,1.0117 -0.3484,0.56364 0.759,1.2886 2.5002,1.6368 6.3424,1.2685 9.8467,15.511997 5.0071,20.350997 -1.1,1.1 -2,2.353 -2,2.7844 0,1.3898 -5.9724,4.363 -9.6903,4.8241 -4.2662,0.52914 -10.359,-1.2486 -10.036,-2.9284 0.1247,-0.64907 -0.5607,-1.0479 -1.5232,-0.88629 -0.9625,0.16161 -1.75,-0.11964 -1.75,-0.625 0,-0.50536 -1.35,-1.1888 -3,-1.5188 -1.65,-0.33 -4.9125,-1.4449 -7.25,-2.4776 -2.3375,-1.0327 -5.0375,-2.1548 -6,-2.4936 -0.9625,-0.33879 -1.75,-1.1282 -1.75,-1.7544 0,-0.62611 -0.675,-0.87936 -1.5,-0.56277 -0.825,0.31658 -1.5,0.18622 -1.5,-0.28969 0,-0.47592 -4.2647,-2.5177 -9.4771,-4.5374 -5.2124,-2.019597 -9.3749,-4.183197 -9.25,-4.807897 0.1249,-0.62469 -0.2229,-1.1951 -0.7729,-1.2676 -0.55,-0.0725 -1.675,-0.40526 -2.5,-0.73946 -0.825,-0.3342 -4.875,-1.7512 -9,-3.1489 -4.125,-1.3977 -8.0326,-3.268 -8.6835,-4.1561 -0.6509,-0.88816 -1.6163,-1.3474 -2.1452,-1.0204 -0.529,0.32692 -1.2214,-0.0822 -1.5387,-0.90914 -0.3174,-0.82694 -0.927,-1.4279 -1.3548,-1.3355 -0.4278,0.0924 -1.4528,-0.0927 -2.2778,-0.41149 -0.825,-0.31875 -2.175,-0.77599 -3,-1.0161 -1.3574,-0.39505 -17.316,7.2183 -19.343,9.228 -1.0705,1.0614 1.1301,5.2995 2.3578,4.5408 1.0782,-0.66638 8.9849,4.3507 8.9849,5.701297 0,0.50938 0.5003,0.61692 1.1118,0.239 0.6115,-0.37792 1.399,-0.29198 1.75,0.19098 0.351,0.48297 1.5382,1.3696 2.6382,1.9704 4.5641,2.4926 6.8804,12.979 4.1417,18.75 -2.3199,4.8887 -8.0684,9.022 -11.573,8.3211 -1.5274,-0.30549 -3.2928,-0.0398 -3.923,0.5904 -0.6868,0.6868 -1.1458,0.73987 -1.1458,0.13248 0,-0.55735 -1.6589,-1.6598 -3.6865,-2.45 -12.064,-4.7016 -13.816,-5.5806 -13.838,-6.9455 -0.013,-0.82014 -0.8007,-1.4287 -1.75,-1.3523 -0.9492,0.0764 -1.7258,-0.26111 -1.7258,-0.75 0,-0.48889 -0.693,-0.88889 -1.5399,-0.88889 -2.5858,0 -9.5722,-4.0097 -8.8951,-5.1052 0.3496,-0.5657 0.028,-0.90702 -0.7147,-0.75849 -0.7427,0.14853 -2.7355,-0.46792 -4.4284,-1.3699 -3.2921,-1.754 -5.4057,-1.7969 -7.5711,-0.15363 -0.7429,0.56382 -4.0508,2.3441 -7.3508,3.9562 -3.3,1.6121 -6.225,3.1804 -6.5,3.4851 -0.7631,0.8455 -8.7538,4.8428 -9.151,4.5778 -0.192,-0.12809 -1.3093,0.76668 -2.483,1.9884 l -2.134,2.2213 2.43,0.60988 c 1.3365,0.33543 2.8592,0.34455 3.3839,0.0203 0.5247,-0.32429 1.5166,-0.23485 2.2041,0.19875 0.6875,0.43361 4.4,0.83236 8.25,0.88612 8.109,0.11323 11.066,1.1463 14.416,5.0356 2.8765,3.3399 4.6241,11.052 2.9592,13.058 -0.6162,0.74243 -0.824,1.3499 -0.4618,1.3499 1.4927,0 -4.4414,7.3018 -7.0224,8.6408 -3.3055,1.7149 -8.9802,2.5849 -15.891,2.4361 l -5,-0.1076 4.5,3.9997 c 2.475,2.1998 4.8847,4.0068 5.3549,4.0153 0.4703,0.009 2.8553,1.3656 5.3002,3.0156 2.4448,1.65 4.8726,3 5.395,3 0.5224,0 0.9499,0.45 0.9499,1 0,0.55 0.8734,1 1.9409,1 1.0676,0 2.2322,0.47109 2.588,1.0469 0.4174,0.67536 1.8781,0.32049 4.1162,-1 1.908,-1.1258 3.9365,-2.0469 4.5076,-2.0469 0.5712,0 2.2604,-0.87008 3.7539,-1.9335 1.4934,-1.0634 4.0379,-2.2598 5.6543,-2.6586 1.6165,-0.39877 4.2891,-1.7308 5.9391,-2.96 4.7692,-3.553 15.67,-7.448 20.845,-7.448 4.2784,0 5.0809,0.40958 9.1761,4.6836 4.3526,4.5426 4.4748,4.8427 4.0581,9.9688 -0.4446,5.4711 -3.1314,11.348 -5.1881,11.348 -0.6475,0 -1.4364,0.675 -1.753,1.5 -0.3166,0.825 -1.4897,1.5 -2.607,1.5 -1.1172,0 -2.0313,0.45 -2.0313,1 0,0.55 -0.8449,1 -1.8776,1 -1.0327,0 -2.4378,0.675 -3.1224,1.5 -0.6847,0.825 -2.0898,1.5 -3.1225,1.5 -1.0326,0 -1.8775,0.41968 -1.8775,0.93261 0,0.51294 -0.8771,1.211 -1.949,1.5512 -2.7538,0.87403 -1.5919,2.9189 2.4992,4.3982 1.9145,0.69228 3.2223,1.677 2.9063,2.1883 -0.316,0.51131 0.2671,0.92965 1.2959,0.92965 1.0287,0 2.8889,0.94887 4.1337,2.1086 3.2349,3.0138 11.106,3.4188 15.544,0.8 1.8488,-1.0908 4.4209,-2.1846 5.7156,-2.4306 1.2947,-0.24602 3.7041,-1.0875 5.3541,-1.87 1.65,-0.78248 6.375,-2.6822 10.5,-4.2216 4.125,-1.5394 8.4661,-3.4025 9.647,-4.1402 1.1809,-0.73768 3.3457,-1.5586 4.8106,-1.8242 1.465,-0.26565 4.3172,-1.3692 6.3382,-2.4524 2.021,-1.0832 4.3562,-1.9724 5.1893,-1.976 0.8332,-0.004 2.8649,-0.90066 4.5149,-1.9934 1.65,-1.0928 3.8033,-1.9898 4.7851,-1.9934 0.9819,-0.004 2.797,-0.66956 4.0337,-1.4798 1.2367,-0.81029 3.1333,-1.6415 4.2148,-1.8472 1.0815,-0.20564 3.276,-0.90896 4.8766,-1.5629 4.6233,-1.8889 12.733,-1.7242 15.856,0.32198 1.4942,0.97907 2.4261,2.2504 2.0709,2.8252 -0.3765,0.6091 -0.1635,0.74696 0.5104,0.33044 2.6589,-1.6433 4.3761,11.251 2.0717,15.557 -1.767,3.3018 -5.1849,6.8488 -6.5994,6.8488 -0.7258,0 -1.3196,0.45 -1.3196,1 0,0.55 -1.125,1 -2.5,1 -1.375,0 -2.5,0.45 -2.5,1 0,0.55 -1.125,1 -2.5,1 -1.375,0 -2.5,0.45 -2.5,1 0,0.55 -0.8743,1 -1.9429,1 -1.0685,0 -3.5287,0.93571 -5.4671,2.0794 -1.9383,1.1436 -4.0586,1.7491 -4.7116,1.3455 -0.7052,-0.4358 -0.924,-0.30751 -0.5387,0.31586 0.7782,1.2591 -1.7808,2.411 -3.7107,1.6704 -0.754,-0.28934 -1.6399,0.17478 -1.9686,1.0314 -0.3287,0.85661 -1.2929,1.5575 -2.1426,1.5575 -0.8498,0 -2.3264,0.413 -3.2814,0.91778 -6.3218,3.3414 -10.786,4.7912 -11.471,3.7253 -0.4697,-0.73069 -0.7402,-0.51173 -0.75,0.60688 -0.01,1.0985 -0.7865,1.75 -2.0868,1.75 -1.1393,0 -2.7723,0.70088 -3.6289,1.5575 -0.8566,0.85663 -2.1745,1.3208 -2.9286,1.0314 -0.9601,-0.36843 -1.371,0.31255 -1.371,2.2719 0,2.2585 0.4338,2.7827 2.25,2.7186 1.2969,-0.0458 2.1441,0.45005 2,1.1706 -0.1375,0.6875 0.6178,1.25 1.6785,1.25 1.0607,0 2.5232,0.58768 3.25,1.306 0.7268,0.71828 2.109,1.6042 3.0715,1.9686 0.9625,0.36446 1.75,1.1465 1.75,1.7379 0,0.59137 0.5625,0.95681 1.25,0.81208 1.404,-0.29558 6.6686,2.8982 8.3483,5.0645 0.61,0.78677 1.6402,1.0816 2.3173,0.66314 0.7734,-0.47802 1.4187,0.0103 1.7654,1.336 0.3005,1.1492 0.9482,1.841 1.4395,1.5374 0.4912,-0.3036 2.197,0.37647 3.7906,1.5112 1.5937,1.1348 3.3906,2.0632 3.9932,2.0632 0.6026,0 1.0957,0.45 1.0957,1 0,0.55 0.9,1 2,1 1.1111,0 2,0.66667 2,1.5 0,0.825 0.7999,1.5 1.7777,1.5 0.9778,0 2.5404,0.89064 3.4724,1.9792 0.9884,1.1544 2.3483,1.7284 3.2632,1.3773 1.0084,-0.38696 1.4646,-0.11173 1.2775,0.7708 -0.1599,0.75497 0.3842,1.3919 1.2092,1.4155 1.6585,0.0473 9.4695,7.3718 9.5521,8.9572 0.029,0.55 0.4226,2.7219 0.8756,4.8265 0.5386,2.5025 0.4155,4.7221 -0.3557,6.4148 -1.469,3.2241 -5.186,7.2184 -6.7387,7.2414 -0.6417,0.01 -1.3293,0.50519 -1.5281,1.1015 -0.4768,1.4304 -6.6204,1.8281 -7.2866,0.47177 -0.3371,-0.6864 -0.7228,-0.6185 -1.102,0.19398 -0.8232,1.7641 -2.4166,1.5548 -2.4166,-0.31739 0,-1.1431 -0.5753,-1.3848 -2.1253,-0.89286 -1.4301,0.4539 -1.9014,0.31241 -1.441,-0.43262 0.3764,-0.60892 0.067,-1.1071 -0.6869,-1.1071 -2.4567,0 -9.7399,-4.0087 -9.4901,-5.2234 0.1338,-0.65075 -0.4317,-1.2124 -1.2567,-1.2481 -3.1589,-0.13664 -13,-5.528 -13,-7.122 0,-1.0296 -0.547,-1.4107 -1.5,-1.0449 -0.825,0.31658 -1.5,0.23012 -1.5,-0.19213 0,-0.42225 -1.648,-1.3636 -3.6621,-2.0919 -2.0141,-0.72832 -4.6016,-2.3064 -5.75,-3.5068 -1.1484,-1.2004 -4.2254,-2.9822 -6.8379,-3.9594 -2.7671,-1.0351 -4.75,-2.4032 -4.75,-3.2774 0,-0.82535 -0.5625,-1.3111 -1.25,-1.0795 -0.6875,0.2316 -1.7,-0.17483 -2.25,-0.9032 -0.55,-0.72836 -2.4625,-1.6116 -4.25,-1.9628 l -3.25,-0.63847 0,7.9885 c 0,4.3937 0.4047,10.187 0.8994,12.875 0.7724,4.1964 1.8538,20.05 2.5842,37.886 0.2694,6.5781 -0.9315,10.659 -3.8945,13.236 -5.294,4.603 -8.7646,5.2285 -16.377,2.9515 -6.8441,-2.0472 -8.5544,-5.7648 -9.747,-21.187 -0.2551,-3.3 -0.7056,-8.925 -1.0009,-12.5 -0.2954,-3.575 -0.699,-9.2 -0.897,-12.5 -0.1979,-3.3 -0.6543,-8.925 -1.0141,-12.5 -1.2784,-12.702 -1.6198,-16.584 -2.0662,-23.5 -0.7672,-11.886 -1.3653,-14.124 -4.1092,-15.374 -1.5042,-0.68538 -2.2052,-1.5964 -1.7701,-2.3004 0.4864,-0.78704 0.1676,-0.95355 -0.9815,-0.51261 -1.0541,0.40453 -1.9185,0.0886 -2.271,-0.83006 -0.313,-0.81573 -1.0539,-1.4831 -1.6464,-1.4831 -2.1429,0 -9.7009,-4.2037 -9.1527,-5.0906 0.3091,-0.50014 0.1158,-0.90935 -0.4296,-0.90935 -1.5499,0 -2.0564,2.7182 -2.5465,13.668 -0.4775,10.666 -3.0078,18.332 -6.0506,18.332 -0.7865,0 -1.7898,0.63098 -2.2297,1.4022 -0.9275,1.6264 -5.2257,2.3934 -7.0496,1.258 -0.703,-0.43762 -1.25,-0.31471 -1.25,0.28085 0,0.58246 -0.7016,1.059 -1.5591,1.059 -0.8574,0 -1.3001,-0.41891 -0.9837,-0.9309 0.3165,-0.512 0.118,-1.2136 -0.4409,-1.559 -0.559,-0.34546 -1.0163,-0.15156 -1.0163,0.4309 0,0.58246 -0.4359,1.059 -0.9687,1.059 -0.5327,0 -0.7096,-0.675 -0.393,-1.5 0.3905,-1.0176 -0.052,-1.5 -1.3764,-1.5 -5.1962,0 -6.3362,-4.958 -6.7829,-29.5 -0.1701,-9.35 -0.3476,-17.764 -0.3942,-18.698 -0.1248,-2.4981 -3.9103,-6.0005 -9.5848,-8.8679 -2.7922,-1.4109 -4.8716,-3.1122 -4.7092,-3.8528 0.1848,-0.84229 -0.2851,-1.1051 -1.2878,-0.72037 -0.9197,0.35293 -1.8163,-0.0133 -2.1479,-0.87732 -0.313,-0.81573 -1.2789,-1.4831 -2.1464,-1.4831 -0.8675,0 -3.5429,-0.95151 -5.9452,-2.1145 -2.4024,-1.163 -4.6819,-1.7764 -5.0657,-1.3631 -0.3838,0.41326 -0.1353,0.95227 0.5522,1.1978 0.6875,0.24553 1.25,1.2229 1.25,2.172 0,0.94905 0.6606,2.599 1.4682,3.6667 0.8075,1.0676 1.4825,2.7286 1.5,3.6911 0.018,0.9625 0.5299,1.75 1.1387,1.75 0.6089,0 0.8415,0.69203 0.5169,1.5378 -0.3246,0.84582 -0.01,1.762 0.708,2.036 1.6035,0.61532 2.1001,8.1599 0.7677,11.664 -1.1085,2.9155 -6.4995,8.7618 -8.0794,8.7618 -0.576,0 -1.898,0.53127 -2.9377,1.1806 -1.458,0.91053 -3.1558,0.89745 -7.4214,-0.0572 -5.8136,-1.301 -6.1821,-1.6739 -11.98,-12.123 -2.733,-4.9254 -5.4361,-8.206 -6.0012,-7.2835 -0.8511,1.3894 -1.7042,28.749 -0.9289,29.789 0.4121,0.55313 2.5494,2.3283 4.7494,3.9449 2.2,1.6166 4.3494,3.5078 4.7764,4.2028 0.427,0.69498 1.4395,1.0092 2.25,0.69815 0.9449,-0.36254 1.4736,0.0495 1.4736,1.1486 0,1.034 0.5393,1.507 1.3595,1.1922 0.7478,-0.28695 3.1103,1.0063 5.25,2.8738 2.1398,1.8676 4.453,3.4042 5.1405,3.4147 0.6875,0.0105 1.25,0.39314 1.25,0.8502 0,0.45706 1.2034,1.4696 2.6743,2.25 5.6921,3.0202 9.159,7.0556 10.359,12.058 1.4797,6.1677 0.7527,9.0626 -3.3085,13.175 -5.2576,5.3242 -7.6674,6.1348 -13.886,4.671 -5.7139,-1.3451 -12.839,-4.5472 -12.839,-5.7698 0,-0.91329 -7.4473,-4.2156 -9.5069,-4.2156 -1.1258,0 -1.5101,1.2915 -1.562,5.25 -0.038,2.8875 -0.2678,6.6 -0.5108,8.25 -0.5556,3.7719 0.4164,9.7189 1.4809,9.061 1.0256,-0.63381 5.2012,2.4315 13.88,10.189 1.9997,1.7875 4.2171,3.25 4.9275,3.25 0.7104,0 1.1792,0.5625 1.0417,1.25 -0.1397,0.69847 0.5221,1.1204 1.5,0.95616 1.0378,-0.17426 1.75,0.33441 1.75,1.25 0,0.84911 0.3761,1.5438 0.8358,1.5438 1.1053,0 9.9853,6.8354 12.974,9.9868 1.2971,1.3677 2.883,2.4927 3.5243,2.5 1.4378,0.0163 16.666,11.65 16.666,12.732 0,0.42982 0.675,0.78149 1.5,0.78149 0.825,0 1.5,0.45 1.5,1 0,0.55 0.675,1 1.5,1 0.825,0 1.5,0.675 1.5,1.5 0,0.825 0.704,1.5 1.5645,1.5 1.6888,0 6.578,5.2822 7.31,7.8975 0.2467,0.88137 0.4453,3.6854 0.4414,6.2312 -0.01,5.4057 -2.5677,9.6277 -7.7952,12.858 -2.9272,1.8091 -3.9974,1.9752 -7.1383,1.108 -2.0321,-0.5611 -3.962,-0.87554 -4.2886,-0.69875 -0.9838,0.5325 -8.5985,-3.8383 -8.0772,-4.6362 0.2659,-0.40688 -1.9916,-2.0398 -5.0166,-3.6288 -3.025,-1.589 -5.3865,-3.3968 -5.2477,-4.0174 0.1388,-0.62058 -1.5741,-1.8592 -3.8066,-2.7524 -2.2324,-0.89325 -3.8647,-2.1304 -3.6272,-2.7493 0.2375,-0.61889 -1.762,-2.1826 -4.4434,-3.4749 -2.6813,-1.2923 -4.8803,-2.8644 -4.8866,-3.4935 -0.01,-0.62915 -1.8445,-2.0224 -4.0849,-3.0961 -2.2404,-1.0737 -4.5978,-2.6942 -5.2386,-3.6011 -0.6408,-0.9069 -2.74,-2.4537 -4.665,-3.4374 -1.925,-0.98364 -3.8188,-2.2844 -4.2084,-2.8906 -2.3548,-3.6637 -2.9622,2.4373 -4.3691,43.881 -0.9104,26.818 -0.9963,27.77501 -2.8065,31.27601 -2.3945,4.6303 -8.0972,7.969 -13.866,8.1179 -3.226,0.0833 -4.75,-0.28295 -4.75,-1.1414 z m 39.188,-139.44001 c -0.7219,-0.28887 -1.5844,-0.25335 -1.9167,0.0789 -0.3323,0.33229 0.2583,0.56864 1.3125,0.52522 1.1649,-0.048 1.4019,-0.28494 0.6042,-0.60416 z M 30.835436,44.741673 c 0,-0.55 -0.47656,-1 -1.059,-1 -0.58246,0 -0.7809,0.45 -0.44098,1 0.33992,0.55 0.81648,1 1.059,1 0.24254,0 0.44098,-0.45 0.44098,-1 z"
       inkscape:connector-curvature="0"
       style="color:#000000;fill:url(#radialGradient5041);stroke:#000000"
       id="path5199" />
  </g>
</svg>
