<?xml version="1.0" encoding="UTF-8" standalone="no"?>
<!-- Created with Inkscape (http://www.inkscape.org/) -->

<svg
   xmlns:dc="http://purl.org/dc/elements/1.1/"
   xmlns:cc="http://creativecommons.org/ns#"
   xmlns:rdf="http://www.w3.org/1999/02/22-rdf-syntax-ns#"
   xmlns:svg="http://www.w3.org/2000/svg"
   xmlns="http://www.w3.org/2000/svg"
   xmlns:sodipodi="http://sodipodi.sourceforge.net/DTD/sodipodi-0.dtd"
   xmlns:inkscape="http://www.inkscape.org/namespaces/inkscape"
   width="106.58116mm"
   height="118.92728mm"
   viewBox="0 0 377.64978 421.39589"
   id="svg4155"
   version="1.1"
   inkscape:version="0.91 r13725"
   sodipodi:docname="icon.svg">
  <defs
     id="defs4157" />
  <sodipodi:namedview
     id="base"
     pagecolor="#ffffff"
     bordercolor="#666666"
     borderopacity="1.0"
     inkscape:pageopacity="0.0"
     inkscape:pageshadow="2"
     inkscape:zoom="0.35"
     inkscape:cx="-589.03224"
     inkscape:cy="-86.782434"
     inkscape:document-units="px"
     inkscape:current-layer="layer1"
     showgrid="false"
     fit-margin-top="0"
     fit-margin-left="0"
     fit-margin-right="0"
     fit-margin-bottom="0"
     inkscape:window-width="1855"
     inkscape:window-height="1056"
     inkscape:window-x="65"
     inkscape:window-y="24"
     inkscape:window-maximized="1" />
  <metadata
     id="metadata4160">
    <rdf:RDF>
      <cc:Work
         rdf:about="">
        <dc:format>image/svg+xml</dc:format>
        <dc:type
           rdf:resource="http://purl.org/dc/dcmitype/StillImage" />
        <dc:title></dc:title>
      </cc:Work>
    </rdf:RDF>
  </metadata>
  <g
     inkscape:label="Layer 1"
     inkscape:groupmode="layer"
     id="layer1"
     transform="translate(-61.175098,-24.183885)">
    <g
       style="fill-rule:evenodd;stroke:#000000;stroke-linecap:square;stroke-linejoin:round"
       id="imagebot_1"
       transform="matrix(3.75745,0,0,3.75745,19.973311,16.014299)">
      <path
         style="fill:#016d01;stroke-width:7.03100014"
         inkscape:connector-curvature="0"
         id="imagebot_11"
         d="m 509.32,458.79 c -112.67,4.96 -160.3,-69.76 -108.26,-169.81 52.05,-100.06 140.57,-103.95 201.2,-8.85 60.62,95.1 19.73,173.71 -92.94,178.66 z"
         transform="matrix(-0.11499,-0.04151,-0.052743,0.15688,172.34997,30.083998)" />
      <path
         style="fill:#026602;stroke-width:6.82740021"
         inkscape:connector-curvature="0"
         id="imagebot_10"
         d="m 509.32,458.79 c -112.67,4.96 -160.3,-69.76 -108.26,-169.81 52.05,-100.06 140.57,-103.95 201.2,-8.85 60.62,95.1 19.73,173.71 -92.94,178.66 z"
         transform="matrix(-0.10415,0.033874,0.074286,0.18182,53.358971,-11.946002)" />
      <path
         style="fill:#e5b302;stroke-width:7.75710011"
         inkscape:connector-curvature="0"
         id="imagebot_9"
         d="m 556.55,466.45 c -17.62,-0.2 -4.8,-87.42 -13.44,-102.78 -8.63,-15.36 -89.81,-49.75 -80.82,-64.9 8.98,-15.16 78.11,39.55 95.73,39.75 17.62,0.2 87.99,-52.91 96.62,-37.54 8.64,15.36 -73.31,47.87 -82.29,63.02 -8.99,15.16 1.82,102.66 -15.8,102.45 z"
         transform="matrix(0.1719,-0.0047636,-0.0031456,-0.096593,-32.361029,144.78)" />
      <path
         style="fill:#e5b302;stroke-width:7.75710011"
         inkscape:connector-curvature="0"
         id="imagebot_8"
         d="m 556.55,466.45 c -17.62,-0.2 -4.8,-87.42 -13.44,-102.78 -8.63,-15.36 -89.81,-49.75 -80.82,-64.9 8.98,-15.16 78.11,39.55 95.73,39.75 17.62,0.2 87.99,-52.91 96.62,-37.54 8.64,15.36 -73.31,47.87 -82.29,63.02 -8.99,15.16 1.82,102.66 -15.8,102.45 z"
         transform="matrix(0.1719,-0.0047636,-0.0031456,-0.096593,-22.451029,144.05)" />
      <path
         style="fill:#00bf00;stroke-width:3.81660008"
         inkscape:connector-curvature="0"
         id="imagebot_7"
         d="M 412.31,599.21 C 295.57,606.28 198.82,459.94 251.07,355.31 303.31,250.67 478.41,240.06 542.91,337.62 c 64.5,97.56 -13.87,254.51 -130.6,261.59 z"
         transform="matrix(0.26034,-0.0072146,-0.0085796,-0.26345,-38.761029,172.39)" />
      <path
         style="fill:#ffffff;stroke-width:4.17180014"
         inkscape:connector-curvature="0"
         id="imagebot_6"
         d="m -272.67,524.66 c -29.73,-39.33 -22.63,-95.85 15.86,-126.23 38.5,-30.38 93.82,-23.13 123.55,16.21 29.74,39.33 22.64,95.85 -15.86,126.23 -38.23,30.17 -93.1,23.25 -123.01,-15.5"
         transform="matrix(0.2558,-0.0072865,0.0070938,0.22441,84.028971,-79.666002)" />
      <path
         style="stroke-width:4.15689993"
         inkscape:connector-curvature="0"
         id="imagebot_5"
         d="m 157.28,527.59 c -10.77,-14.51 -8.2,-35.35 5.75,-46.55 13.95,-11.2 33.99,-8.53 44.76,5.97 10.77,14.5 8.2,35.35 -5.75,46.56 -13.85,11.12 -33.73,8.57 -44.56,-5.72"
         transform="matrix(0.25035,-0.0069378,0.0075209,0.23094,-7.7208293,-87.306002)" />
      <path
         style="fill:#ffffff;stroke-width:4.0007"
         inkscape:connector-curvature="0"
         id="imagebot_4"
         d="m -272.67,524.66 c -29.73,-39.33 -22.63,-95.85 15.86,-126.23 38.5,-30.38 93.82,-23.13 123.55,16.21 29.74,39.33 22.64,95.85 -15.86,126.23 -38.23,30.17 -93.1,23.25 -123.01,-15.5"
         transform="matrix(-0.26375,0.0074224,0.0075846,0.23668,29.118971,-85.696002)" />
      <path
         style="stroke-width:4.15689993"
         inkscape:connector-curvature="0"
         id="imagebot_3"
         d="m 157.28,527.59 c -10.77,-14.51 -8.2,-35.35 5.75,-46.55 13.95,-11.2 33.99,-8.53 44.76,5.97 10.77,14.5 8.2,35.35 -5.75,46.56 -13.85,11.12 -33.73,8.57 -44.56,-5.72"
         transform="matrix(-0.25035,0.0069378,0.0075209,0.23094,122.25997,-92.486002)" />
      <path
         style="fill:#ffc600;stroke-width:11.34500027"
         inkscape:connector-curvature="0"
         id="imagebot_2"
         d="m -49.783,512.41 c -30.644,119.17 -66.047,129.04 -153.93,42.92 -87.89,-86.13 -78.73,-121.72 39.79,-154.77 118.53,-33.05 144.78,-7.32 114.13,111.85 l 0.007,0 z"
         transform="matrix(0.09605,0.015916,-0.020275,0.077536,85.988971,14.953998)" />
      <title
         id="title15" />
    </g>
  </g>
</svg>
