<?xml version="1.0" encoding="UTF-8" standalone="no"?>
<svg
   xmlns:dc="http://purl.org/dc/elements/1.1/"
   xmlns:cc="http://creativecommons.org/ns#"
   xmlns:rdf="http://www.w3.org/1999/02/22-rdf-syntax-ns#"
   xmlns:svg="http://www.w3.org/2000/svg"
   xmlns="http://www.w3.org/2000/svg"
   xmlns:sodipodi="http://sodipodi.sourceforge.net/DTD/sodipodi-0.dtd"
   xmlns:inkscape="http://www.inkscape.org/namespaces/inkscape"
   viewBox="0 0 129.5 173.09143"
   id="svg2"
   version="1.1"
   inkscape:version="0.91 r13725"
   sodipodi:docname="logo.svg"
   inkscape:export-filename="/home/derwin/Documents/Android/Appy Talk/Graphics/icons/svg/logo.png"
   inkscape:export-xdpi="998.31635"
   inkscape:export-ydpi="998.31635"
   width="129.5"
   height="173.09143">
  <defs
     id="defs21" />
  <sodipodi:namedview
     pagecolor="#ffffff"
     bordercolor="#666666"
     borderopacity="1"
     objecttolerance="10"
     gridtolerance="10"
     guidetolerance="10"
     inkscape:pageopacity="0"
     inkscape:pageshadow="2"
     inkscape:window-width="1855"
     inkscape:window-height="1056"
     id="namedview19"
     showgrid="false"
     inkscape:zoom="2.8284271"
     inkscape:cx="-69.134165"
     inkscape:cy="41.305236"
     inkscape:window-x="65"
     inkscape:window-y="24"
     inkscape:window-maximized="1"
     inkscape:current-layer="svg2"
     fit-margin-top="0"
     fit-margin-left="0"
     fit-margin-right="0"
     fit-margin-bottom="0" />
  <metadata
     id="metadata17">
    <rdf:RDF>
      <cc:Work>
        <dc:format>image/svg+xml</dc:format>
        <dc:type
           rdf:resource="http://purl.org/dc/dcmitype/StillImage" />
        <cc:license
           rdf:resource="http://creativecommons.org/publicdomain/zero/1.0/" />
        <dc:publisher>
          <cc:Agent
             rdf:about="http://openclipart.org/">
            <dc:title>Openclipart</dc:title>
          </cc:Agent>
        </dc:publisher>
        <dc:title></dc:title>
      </cc:Work>
      <cc:License
         rdf:about="http://creativecommons.org/publicdomain/zero/1.0/">
        <cc:permits
           rdf:resource="http://creativecommons.org/ns#Reproduction" />
        <cc:permits
           rdf:resource="http://creativecommons.org/ns#Distribution" />
        <cc:permits
           rdf:resource="http://creativecommons.org/ns#DerivativeWorks" />
      </cc:License>
    </rdf:RDF>
  </metadata>
  <flowRoot
     xml:space="preserve"
     id="flowRoot4153"
     style="font-style:normal;font-variant:normal;font-weight:normal;font-stretch:normal;font-size:80px;line-height:125%;font-family:Ubuntu;-inkscape-font-specification:Ubuntu;letter-spacing:0px;word-spacing:0px;fill:#000000;fill-opacity:1;stroke:none;stroke-width:1px;stroke-linecap:butt;stroke-linejoin:miter;stroke-opacity:1"
     transform="translate(9.3535534,58.767767)"><flowRegion
       id="flowRegion4155"><rect
         id="rect4157"
         width="180"
         height="81.5"
         x="-63"
         y="-77" /></flowRegion><flowPara
       id="flowPara4159" /></flowRoot>  <g
     id="g4224"
     transform="translate(9.3535534,58.767767)">
    <g
       id="imagebot_1"
       style="fill-rule:evenodd;stroke:#000000;stroke-linecap:square;stroke-linejoin:round">
      <path
         transform="matrix(-0.11499,-0.04151,-0.052743,0.15688,172.34997,30.083998)"
         d="m 509.32,458.79 c -112.67,4.96 -160.3,-69.76 -108.26,-169.81 52.05,-100.06 140.57,-103.95 201.2,-8.85 60.62,95.1 19.73,173.71 -92.94,178.66 z"
         id="imagebot_11"
         inkscape:connector-curvature="0"
         style="fill:#016d01;stroke-width:7.03100014" />
      <path
         transform="matrix(-0.10415,0.033874,0.074286,0.18182,53.358971,-11.946002)"
         d="m 509.32,458.79 c -112.67,4.96 -160.3,-69.76 -108.26,-169.81 52.05,-100.06 140.57,-103.95 201.2,-8.85 60.62,95.1 19.73,173.71 -92.94,178.66 z"
         id="imagebot_10"
         inkscape:connector-curvature="0"
         style="fill:#026602;stroke-width:6.82740021" />
      <path
         transform="matrix(0.1719,-0.0047636,-0.0031456,-0.096593,-32.361029,144.78)"
         d="m 556.55,466.45 c -17.62,-0.2 -4.8,-87.42 -13.44,-102.78 -8.63,-15.36 -89.81,-49.75 -80.82,-64.9 8.98,-15.16 78.11,39.55 95.73,39.75 17.62,0.2 87.99,-52.91 96.62,-37.54 8.64,15.36 -73.31,47.87 -82.29,63.02 -8.99,15.16 1.82,102.66 -15.8,102.45 z"
         id="imagebot_9"
         inkscape:connector-curvature="0"
         style="fill:#e5b302;stroke-width:7.75710011" />
      <path
         transform="matrix(0.1719,-0.0047636,-0.0031456,-0.096593,-22.451029,144.05)"
         d="m 556.55,466.45 c -17.62,-0.2 -4.8,-87.42 -13.44,-102.78 -8.63,-15.36 -89.81,-49.75 -80.82,-64.9 8.98,-15.16 78.11,39.55 95.73,39.75 17.62,0.2 87.99,-52.91 96.62,-37.54 8.64,15.36 -73.31,47.87 -82.29,63.02 -8.99,15.16 1.82,102.66 -15.8,102.45 z"
         id="imagebot_8"
         inkscape:connector-curvature="0"
         style="fill:#e5b302;stroke-width:7.75710011" />
      <path
         transform="matrix(0.26034,-0.0072146,-0.0085796,-0.26345,-38.761029,172.39)"
         d="M 412.31,599.21 C 295.57,606.28 198.82,459.94 251.07,355.31 303.31,250.67 478.41,240.06 542.91,337.62 c 64.5,97.56 -13.87,254.51 -130.6,261.59 z"
         id="imagebot_7"
         inkscape:connector-curvature="0"
         style="fill:#00bf00;stroke-width:3.81660008" />
      <path
         transform="matrix(0.2558,-0.0072865,0.0070938,0.22441,84.028971,-79.666002)"
         d="m -272.67,524.66 c -29.73,-39.33 -22.63,-95.85 15.86,-126.23 38.5,-30.38 93.82,-23.13 123.55,16.21 29.74,39.33 22.64,95.85 -15.86,126.23 -38.23,30.17 -93.1,23.25 -123.01,-15.5"
         id="imagebot_6"
         inkscape:connector-curvature="0"
         style="fill:#ffffff;stroke-width:4.17180014" />
      <path
         transform="matrix(0.25035,-0.0069378,0.0075209,0.23094,-7.7208293,-87.306002)"
         d="m 157.28,527.59 c -10.77,-14.51 -8.2,-35.35 5.75,-46.55 13.95,-11.2 33.99,-8.53 44.76,5.97 10.77,14.5 8.2,35.35 -5.75,46.56 -13.85,11.12 -33.73,8.57 -44.56,-5.72"
         id="imagebot_5"
         inkscape:connector-curvature="0"
         style="stroke-width:4.15689993" />
      <path
         transform="matrix(-0.26375,0.0074224,0.0075846,0.23668,29.118971,-85.696002)"
         d="m -272.67,524.66 c -29.73,-39.33 -22.63,-95.85 15.86,-126.23 38.5,-30.38 93.82,-23.13 123.55,16.21 29.74,39.33 22.64,95.85 -15.86,126.23 -38.23,30.17 -93.1,23.25 -123.01,-15.5"
         id="imagebot_4"
         inkscape:connector-curvature="0"
         style="fill:#ffffff;stroke-width:4.0007" />
      <path
         transform="matrix(-0.25035,0.0069378,0.0075209,0.23094,122.25997,-92.486002)"
         d="m 157.28,527.59 c -10.77,-14.51 -8.2,-35.35 5.75,-46.55 13.95,-11.2 33.99,-8.53 44.76,5.97 10.77,14.5 8.2,35.35 -5.75,46.56 -13.85,11.12 -33.73,8.57 -44.56,-5.72"
         id="imagebot_3"
         inkscape:connector-curvature="0"
         style="stroke-width:4.15689993" />
      <path
         transform="matrix(0.09605,0.015916,-0.020275,0.077536,85.988971,14.953998)"
         d="m -49.783,512.41 c -30.644,119.17 -66.047,129.04 -153.93,42.92 -87.89,-86.13 -78.73,-121.72 39.79,-154.77 118.53,-33.05 144.78,-7.32 114.13,111.85 l 0.007,0 z"
         id="imagebot_2"
         inkscape:connector-curvature="0"
         style="fill:#ffc600;stroke-width:11.34500027" />
      <title
         id="title15" />
    </g>
    <g
       transform="translate(-0.35355339,-1.767767)"
       id="g4217">
      <g
         id="g4213">
        <rect
           ry="21.5"
           y="-56"
           x="-8"
           height="56"
           width="127.5"
           id="rect4163"
           style="fill:#ffffff;fill-opacity:1;stroke:#000000;stroke-width:2;stroke-miterlimit:4;stroke-dasharray:none;stroke-opacity:1" />
        <path
           sodipodi:nodetypes="cscsc"
           inkscape:connector-curvature="0"
           id="path4193"
           d="m -6.288966,-12.61338 c 9.630312,13.47393999 1.8763796,25.838731 5.256195,37.08511 4.2905328,14.276803 15.492265,18.57958 15.492265,18.57958 0,0 -5.9036698,-10.320463 -6.854534,-18.68778 -1.3834261,-12.17373 3.313216,-25.376 3.313216,-25.376"
           style="fill:#ffffff;fill-opacity:1;fill-rule:evenodd;stroke:#000000;stroke-width:2;stroke-linecap:butt;stroke-linejoin:round;stroke-miterlimit:4;stroke-dasharray:none;stroke-opacity:1" />
      </g>
      <text
         xml:space="preserve"
         style="font-style:normal;font-variant:normal;font-weight:normal;font-stretch:normal;font-size:45.31393433px;line-height:125%;font-family:Journal;-inkscape-font-specification:Journal;letter-spacing:0px;word-spacing:-8.72292042px;fill:#000000;fill-opacity:1;stroke:none;stroke-width:1px;stroke-linecap:butt;stroke-linejoin:miter;stroke-opacity:1"
         x="0.69103462"
         y="-24.926481"
         id="text4149"
         sodipodi:linespacing="125%"
         transform="scale(1.1418856,0.87574447)"><tspan
           sodipodi:role="line"
           id="tspan4151"
           x="0.69103462"
           y="-24.926481"
           dx="0 0 0 0 0 0">Appy Talk</tspan></text>
    </g>
  </g>
</svg>
