<?xml version="1.0" encoding="UTF-8" standalone="no"?>
<svg
   xmlns:dc="http://purl.org/dc/elements/1.1/"
   xmlns:cc="http://creativecommons.org/ns#"
   xmlns:rdf="http://www.w3.org/1999/02/22-rdf-syntax-ns#"
   xmlns:svg="http://www.w3.org/2000/svg"
   xmlns="http://www.w3.org/2000/svg"
   xmlns:sodipodi="http://sodipodi.sourceforge.net/DTD/sodipodi-0.dtd"
   xmlns:inkscape="http://www.inkscape.org/namespaces/inkscape"
   viewBox="0 0 490.82614 516.77844"
   id="svg2"
   version="1.1"
   inkscape:version="0.91 r13725"
   sodipodi:docname="logo.svg"
   inkscape:export-filename="/home/derwin/Documents/Android/Appy Talk/Graphics/icons/svg/logo.png"
   inkscape:export-xdpi="998.31635"
   inkscape:export-ydpi="998.31635"
   width="490.82614"
   height="516.77844">
  <defs
     id="defs21" />
  <sodipodi:namedview
     pagecolor="#ffffff"
     bordercolor="#666666"
     borderopacity="1"
     objecttolerance="10"
     gridtolerance="10"
     guidetolerance="10"
     inkscape:pageopacity="0"
     inkscape:pageshadow="2"
     inkscape:window-width="1855"
     inkscape:window-height="1056"
     id="namedview19"
     showgrid="false"
     inkscape:zoom="0.99999999"
     inkscape:cx="-69.559799"
     inkscape:cy="271.55269"
     inkscape:window-x="65"
     inkscape:window-y="24"
     inkscape:window-maximized="1"
     inkscape:current-layer="svg2"
     fit-margin-top="0"
     fit-margin-left="0"
     fit-margin-right="0"
     fit-margin-bottom="0" />
  <metadata
     id="metadata17">
    <rdf:RDF>
      <cc:Work>
        <dc:format>image/svg+xml</dc:format>
        <dc:type
           rdf:resource="http://purl.org/dc/dcmitype/StillImage" />
        <cc:license
           rdf:resource="http://creativecommons.org/publicdomain/zero/1.0/" />
        <dc:publisher>
          <cc:Agent
             rdf:about="http://openclipart.org/">
            <dc:title>Openclipart</dc:title>
          </cc:Agent>
        </dc:publisher>
        <dc:title />
      </cc:Work>
      <cc:License
         rdf:about="http://creativecommons.org/publicdomain/zero/1.0/">
        <cc:permits
           rdf:resource="http://creativecommons.org/ns#Reproduction" />
        <cc:permits
           rdf:resource="http://creativecommons.org/ns#Distribution" />
        <cc:permits
           rdf:resource="http://creativecommons.org/ns#DerivativeWorks" />
      </cc:License>
    </rdf:RDF>
  </metadata>
  <flowRoot
     xml:space="preserve"
     id="flowRoot4153"
     style="font-style:normal;font-variant:normal;font-weight:normal;font-stretch:normal;font-size:80px;line-height:125%;font-family:Ubuntu;-inkscape-font-specification:Ubuntu;letter-spacing:0px;word-spacing:0px;fill:#000000;fill-opacity:1;stroke:none;stroke-width:1px;stroke-linecap:butt;stroke-linejoin:miter;stroke-opacity:1"
     transform="translate(151.83286,84.612354)"><flowRegion
       id="flowRegion4155"><rect
         id="rect4157"
         width="180"
         height="81.5"
         x="-63"
         y="-77" /></flowRegion><flowPara
       id="flowPara4159" /></flowRoot>  <g
     id="g4213"
     transform="matrix(3.7901633,0,0,3.1209417,34.11147,177.89368)">
    <rect
       ry="21.5"
       y="-56"
       x="-8"
       height="56"
       width="127.5"
       id="rect4163"
       style="fill:#ffffff;fill-opacity:1;stroke:#000000;stroke-width:2;stroke-miterlimit:4;stroke-dasharray:none;stroke-opacity:1" />
    <path
       sodipodi:nodetypes="cscsc"
       inkscape:connector-curvature="0"
       id="path4193"
       d="m -6.288966,-12.61338 c 9.630312,13.47393999 1.8763796,25.838731 5.256195,37.08511 4.2905328,14.276803 15.492265,18.57958 15.492265,18.57958 0,0 -5.9036698,-10.320463 -6.854534,-18.68778 -1.3834261,-12.17373 3.313216,-25.376 3.313216,-25.376"
       style="fill:#ffffff;fill-opacity:1;fill-rule:evenodd;stroke:#000000;stroke-width:2;stroke-linecap:butt;stroke-linejoin:round;stroke-miterlimit:4;stroke-dasharray:none;stroke-opacity:1" />
  </g>
  <flowRoot
     xml:space="preserve"
     id="flowRoot3391"
     style="font-style:normal;font-variant:normal;font-weight:normal;font-stretch:normal;font-size:125.08531189px;line-height:125%;font-family:'Steel City Comic';-inkscape-font-specification:'Steel City Comic';letter-spacing:0px;word-spacing:-30.22896385px;fill:#000000;fill-opacity:1;stroke:none;stroke-width:1px;stroke-linecap:butt;stroke-linejoin:miter;stroke-opacity:1"><flowRegion
       id="flowRegion3393"><rect
         id="rect3395"
         width="522.57861"
         height="234.88242"
         x="41.170918"
         y="1.7007153"
         style="font-style:normal;font-variant:normal;font-weight:normal;font-stretch:normal;font-size:125.08531189px;font-family:'Steel City Comic';-inkscape-font-specification:'Steel City Comic';word-spacing:-30.22896385px" /></flowRegion><flowPara
       id="flowPara3397">Appy <flowSpan
   id="flowSpan4631"
   style="letter-spacing:-20.55568314px;word-spacing:-30.22896385px">T</flowSpan><flowSpan
   style="letter-spacing:-3.78035569px;word-spacing:-30.22896385px"
   id="flowSpan3399">a</flowSpan><flowSpan
   style="letter-spacing:-8.67258167px;word-spacing:-30.22896385px"
   id="flowSpan4723">l</flowSpan>k</flowPara></flowRoot>  <g
     id="g4279"
     transform="matrix(2.9470452,0,0,2.9470452,49.248161,171.13038)">
    <path
       id="imagebot_12"
       d="m 94.933332,83.748402 c 12.694318,5.455056 22.112248,-4.289896 21.405108,-22.14592 -0.70777,-17.858008 -10.68151,-22.142737 -22.669214,-9.7402 -11.986553,12.402952 -11.430739,26.432632 1.264106,31.88612 z"
       inkscape:connector-curvature="0"
       style="fill:#bb2baf;fill-opacity:1;fill-rule:evenodd;stroke:#000000;stroke-width:1.00000978;stroke-linecap:square;stroke-linejoin:round" />
    <path
       id="imagebot_11"
       d="M 39.743996,91.555203 C 51.847035,88.640447 51.25705,73.441438 38.404769,57.01315 25.550705,40.583383 16.042374,42.874629 16.792358,62.219492 17.543384,81.564016 27.6417,94.471778 39.743996,91.555203 Z"
       inkscape:connector-curvature="0"
       style="fill:#bb2baf;fill-opacity:1;fill-rule:evenodd;stroke:#000000;stroke-width:0.9999966;stroke-linecap:square;stroke-linejoin:round" />
    <path
       id="imagebot_10"
       d="m 67.19168,99.908314 c -3.028249,0.103256 -0.550132,8.467026 -1.987031,9.991846 -1.435181,1.52478 -15.281846,5.23333 -13.688777,6.65485 1.593036,1.42056 13.302669,-4.1933 16.330917,-4.29656 3.028249,-0.10325 15.291915,4.69159 16.727064,3.16585 1.4369,-1.52483 -12.752569,-4.27469 -14.343886,-5.6953 -1.593069,-1.42152 -0.01007,-9.924906 -3.038319,-9.821652 l 3.2e-5,9.66e-4 z"
       inkscape:connector-curvature="0"
       style="fill:#e5b302;fill-rule:evenodd;stroke:#000000;stroke-width:1.00001395;stroke-linecap:square;stroke-linejoin:round" />
    <path
       id="imagebot_9"
       d="m 77.10168,99.178314 c -3.028249,0.103253 -0.550132,8.467026 -1.987031,9.991846 -1.435181,1.52478 -15.281846,5.23333 -13.688777,6.65485 1.593036,1.42056 13.302669,-4.1933 16.330917,-4.29656 3.028249,-0.10325 15.291915,4.69159 16.727064,3.16585 1.4369,-1.52483 -12.752569,-4.27469 -14.343886,-5.6953 -1.593069,-1.42152 -0.01007,-9.924906 -3.038319,-9.821652 l 3.2e-5,9.66e-4 z"
       inkscape:connector-curvature="0"
       style="fill:#e5b302;fill-rule:evenodd;stroke:#000000;stroke-width:1.00001395;stroke-linecap:square;stroke-linejoin:round" />
    <path
       id="imagebot_8"
       d="M 68.787803,14.388774 C 38.335054,13.368415 14.402698,52.6197 28.903146,79.807511 43.401077,106.99803 89.077641,108.52996 105.03254,82.362433 120.98745,56.194909 99.238035,15.41184 68.787803,14.388774 Z"
       inkscape:connector-curvature="0"
       style="fill:#fb00ff;fill-opacity:1;fill-rule:evenodd;stroke:#000000;stroke-width:0.99998176;stroke-linecap:square;stroke-linejoin:round" />
    <path
       id="imagebot_7"
       d="m 23.350847,42.891061 c -7.883933,-8.609418 -6.468695,-21.344805 3.164096,-28.442912 9.630232,-7.0980327 23.832518,-5.8741494 31.716522,2.737512 7.886491,8.609345 6.471253,21.344733 -3.161537,28.442839 -9.565214,7.049012 -23.65005,5.895905 -31.575912,-2.582043"
       inkscape:connector-curvature="0"
       style="fill:#ffffff;fill-rule:evenodd;stroke:#000000;stroke-width:0.99997771;stroke-linecap:square;stroke-linejoin:round" />
    <path
       id="imagebot_6"
       d="m 40.971,36.275757 c -2.805398,-3.276219 -2.318734,-8.106839 1.089414,-10.790149 3.408149,-2.68331 8.445243,-2.205734 11.250566,1.068176 2.805323,3.27391 2.318734,8.106839 -1.089339,10.792459 -3.383715,2.664141 -8.379852,2.213167 -11.198616,-1.011829"
       inkscape:connector-curvature="0"
       style="fill-rule:evenodd;stroke:#000000;stroke-width:0.99997431;stroke-linecap:square;stroke-linejoin:round" />
    <path
       id="imagebot_5"
       d="M 110.36405,39.287963 C 117.90703,29.758671 115.60573,16.434216 105.22093,9.5296401 94.838775,2.6249899 80.303113,4.751527 72.760204,14.283186 c -7.545623,9.529367 -5.244317,22.853821 5.140479,29.758397 10.311989,6.856878 24.731467,4.811785 32.326327,-4.581569"
       inkscape:connector-curvature="0"
       style="fill:#ffffff;fill-rule:evenodd;stroke:#000000;stroke-width:1.00002015;stroke-linecap:square;stroke-linejoin:round" />
    <path
       id="imagebot_4"
       d="m 92.200904,33.278112 c 2.587141,-3.42566 1.787006,-8.220619 -1.789611,-10.710365 -3.576616,-2.489746 -8.57355,-1.734102 -11.160766,1.689248 -2.587216,3.42335 -1.787006,8.220619 1.789686,10.712674 3.55098,2.471964 8.508759,1.745144 11.112576,-1.630125"
       inkscape:connector-curvature="0"
       style="fill-rule:evenodd;stroke:#000000;stroke-width:0.99997431;stroke-linecap:square;stroke-linejoin:round" />
    <path
       id="imagebot_3"
       d="m 76.16723,56.723176 c -5.359528,8.752235 -8.9601,8.954041 -15.655179,0.877895 -6.695549,-8.077033 -5.094144,-10.690749 6.959791,-11.366949 12.054895,-0.676042 14.054532,1.736755 8.694428,10.488894 l 6.72e-4,1.12e-4 z"
       inkscape:connector-curvature="0"
       style="fill:#ffc600;fill-rule:evenodd;stroke:#000000;stroke-width:1.00003648;stroke-linecap:square;stroke-linejoin:round" />
  </g>
</svg>
