<?xml version="1.0" encoding="UTF-8" standalone="no"?>
<!-- Created with Inkscape (http://www.inkscape.org/) -->

<svg
   xmlns:dc="http://purl.org/dc/elements/1.1/"
   xmlns:cc="http://creativecommons.org/ns#"
   xmlns:rdf="http://www.w3.org/1999/02/22-rdf-syntax-ns#"
   xmlns:svg="http://www.w3.org/2000/svg"
   xmlns="http://www.w3.org/2000/svg"
   xmlns:sodipodi="http://sodipodi.sourceforge.net/DTD/sodipodi-0.dtd"
   xmlns:inkscape="http://www.inkscape.org/namespaces/inkscape"
   width="591.84375"
   height="533.95959"
   viewBox="0 0 591.84375 533.95963"
   id="svg4155"
   version="1.1"
   inkscape:version="0.91 r13725"
   sodipodi:docname="ic_launcher.svg"
   inkscape:export-filename="/home/derwin/Documents/Android/Appy Talk/Graphics/launcher/res/xhdpi/ic_launcher.png"
   inkscape:export-xdpi="15"
   inkscape:export-ydpi="15">
  <defs
     id="defs4157" />
  <sodipodi:namedview
     id="base"
     pagecolor="#ffffff"
     bordercolor="#666666"
     borderopacity="1.0"
     inkscape:pageopacity="0"
     inkscape:pageshadow="2"
     inkscape:zoom="0.39893368"
     inkscape:cx="-380.91955"
     inkscape:cy="144.47528"
     inkscape:document-units="px"
     inkscape:current-layer="layer1"
     showgrid="false"
     fit-margin-top="0"
     fit-margin-left="0"
     fit-margin-right="0"
     fit-margin-bottom="0"
     inkscape:window-width="1362"
     inkscape:window-height="668"
     inkscape:window-x="75"
     inkscape:window-y="34"
     inkscape:window-maximized="0"
     units="px"
     width="144px" />
  <metadata
     id="metadata4160">
    <rdf:RDF>
      <cc:Work
         rdf:about="">
        <dc:format>image/svg+xml</dc:format>
        <dc:type
           rdf:resource="http://purl.org/dc/dcmitype/StillImage" />
        <dc:title />
      </cc:Work>
    </rdf:RDF>
  </metadata>
  <g
     inkscape:label="Layer 1"
     inkscape:groupmode="layer"
     id="layer1"
     transform="translate(162.09867,869.7905)">
    <g
       id="g3099"
       transform="matrix(0.63666671,0,0,0.63666671,-152.67681,-860.39044)">
      <rect
         id="rect3079"
         height="600"
         width="900"
         x="0"
         y="0"
         style="fill:#00247d" />
      <path
         id="path3081"
         d="M 791.5,0 0,527.656 V 600 H 108.5 L 900,72.344 V 0 z M 0,0 V 72.344 L 791.5,600 H 900 V 527.656 L 108.5,0 z"
         inkscape:connector-curvature="0"
         style="fill:#ffffff" />
      <path
         id="path3083"
         d="M 0,0 V 47.969 L 378.063,300 H 450 L 0,600 H 71.937 L 450,347.969 V 300 L 900,600 V 552.031 L 521.938,300 H 450 L 900,0 H 828.063 L 450,252.031 V 300 z"
         inkscape:connector-curvature="0"
         style="fill:#cf142b" />
      <path
         id="path3085"
         d="M 0,200 V 400 H 900 V 200 z M 350,0 V 600 H 550 V 0 z"
         inkscape:connector-curvature="0"
         style="fill:#ffffff" />
      <g
         id="g3087"
         style="fill:#cf142b">
        <rect
           id="rect3089"
           height="120"
           width="900"
           y="240"
           x="0" />
        <rect
           id="rect3091"
           height="600"
           width="120"
           x="390"
           y="0" />
      </g>
    </g>
    <rect
       style="fill:none;stroke:#000000;stroke-width:10.15201569;stroke-linejoin:round;stroke-miterlimit:4;stroke-opacity:1;stroke-dasharray:none"
       id="rect3981"
       width="581.71045"
       height="387.80698"
       x="-157.03508"
       y="-864.70984" />
    <g
       id="g4245"
       transform="matrix(4.2736612,0,0,4.2736612,2787.0045,1973.5184)">
      <g
         id="g4232">
        <g
           id="g4220"
           transform="translate(-687.38487,-657.6542)">
          <path
             id="imagebot_12-2"
             d="m 94.933332,83.748402 c 12.694318,5.455056 22.112248,-4.289896 21.405108,-22.14592 -0.70777,-17.858008 -10.68151,-22.142737 -22.669214,-9.7402 -11.986553,12.402952 -11.430739,26.432632 1.264106,31.88612 z"
             inkscape:connector-curvature="0"
             style="fill:#bb2baf;fill-opacity:1;fill-rule:evenodd;stroke:#000000;stroke-width:1.00000978;stroke-linecap:square;stroke-linejoin:round" />
          <path
             id="imagebot_11-7"
             d="M 39.743996,91.555203 C 51.847035,88.640447 51.25705,73.441438 38.404769,57.01315 25.550705,40.583383 16.042374,42.874629 16.792358,62.219492 17.543384,81.564016 27.6417,94.471778 39.743996,91.555203 Z"
             inkscape:connector-curvature="0"
             style="fill:#bb2baf;fill-opacity:1;fill-rule:evenodd;stroke:#000000;stroke-width:0.9999966;stroke-linecap:square;stroke-linejoin:round" />
          <path
             id="imagebot_10-9"
             d="m 67.19168,99.908314 c -3.028249,0.103256 -0.550132,8.467026 -1.987031,9.991846 -1.435181,1.52478 -15.281846,5.23333 -13.688777,6.65485 1.593036,1.42056 13.302669,-4.1933 16.330917,-4.29656 3.028249,-0.10325 15.291915,4.69159 16.727064,3.16585 1.4369,-1.52483 -12.752569,-4.27469 -14.343886,-5.6953 -1.593069,-1.42152 -0.01007,-9.924906 -3.038319,-9.821652 l 3.2e-5,9.66e-4 z"
             inkscape:connector-curvature="0"
             style="fill:#e5b302;fill-rule:evenodd;stroke:#000000;stroke-width:1.00001395;stroke-linecap:square;stroke-linejoin:round" />
          <path
             id="imagebot_9-2"
             d="m 77.10168,99.178314 c -3.028249,0.103253 -0.550132,8.467026 -1.987031,9.991846 -1.435181,1.52478 -15.281846,5.23333 -13.688777,6.65485 1.593036,1.42056 13.302669,-4.1933 16.330917,-4.29656 3.028249,-0.10325 15.291915,4.69159 16.727064,3.16585 1.4369,-1.52483 -12.752569,-4.27469 -14.343886,-5.6953 -1.593069,-1.42152 -0.01007,-9.924906 -3.038319,-9.821652 l 3.2e-5,9.66e-4 z"
             inkscape:connector-curvature="0"
             style="fill:#e5b302;fill-rule:evenodd;stroke:#000000;stroke-width:1.00001395;stroke-linecap:square;stroke-linejoin:round" />
          <path
             id="imagebot_8-7"
             d="M 68.787803,14.388774 C 38.335054,13.368415 14.402698,52.6197 28.903146,79.807511 43.401077,106.99803 89.077641,108.52996 105.03254,82.362433 120.98745,56.194909 99.238035,15.41184 68.787803,14.388774 Z"
             inkscape:connector-curvature="0"
             style="fill:#fb00ff;fill-opacity:1;fill-rule:evenodd;stroke:#000000;stroke-width:0.99998176;stroke-linecap:square;stroke-linejoin:round" />
          <path
             id="imagebot_7-8"
             d="m 23.350847,42.891061 c -7.883933,-8.609418 -6.468695,-21.344805 3.164096,-28.442912 9.630232,-7.0980327 23.832518,-5.8741494 31.716522,2.737512 7.886491,8.609345 6.471253,21.344733 -3.161537,28.442839 -9.565214,7.049012 -23.65005,5.895905 -31.575912,-2.582043"
             inkscape:connector-curvature="0"
             style="fill:#ffffff;fill-rule:evenodd;stroke:#000000;stroke-width:0.99997771;stroke-linecap:square;stroke-linejoin:round" />
          <path
             id="imagebot_6-2"
             d="m 40.971,36.275757 c -2.805398,-3.276219 -2.318734,-8.106839 1.089414,-10.790149 3.408149,-2.68331 8.445243,-2.205734 11.250566,1.068176 2.805323,3.27391 2.318734,8.106839 -1.089339,10.792459 -3.383715,2.664141 -8.379852,2.213167 -11.198616,-1.011829"
             inkscape:connector-curvature="0"
             style="fill-rule:evenodd;stroke:#000000;stroke-width:0.99997431;stroke-linecap:square;stroke-linejoin:round" />
          <path
             id="imagebot_5-2"
             d="M 110.36405,39.287963 C 117.90703,29.758671 115.60573,16.434216 105.22093,9.5296401 94.838775,2.6249899 80.303113,4.751527 72.760204,14.283186 c -7.545623,9.529367 -5.244317,22.853821 5.140479,29.758397 10.311989,6.856878 24.731467,4.811785 32.326327,-4.581569"
             inkscape:connector-curvature="0"
             style="fill:#ffffff;fill-rule:evenodd;stroke:#000000;stroke-width:1.00002015;stroke-linecap:square;stroke-linejoin:round" />
          <path
             id="imagebot_4-9"
             d="m 92.200904,33.278112 c 2.587141,-3.42566 1.787006,-8.220619 -1.789611,-10.710365 -3.576616,-2.489746 -8.57355,-1.734102 -11.160766,1.689248 -2.587216,3.42335 -1.787006,8.220619 1.789686,10.712674 3.55098,2.471964 8.508759,1.745144 11.112576,-1.630125"
             inkscape:connector-curvature="0"
             style="fill-rule:evenodd;stroke:#000000;stroke-width:0.99997431;stroke-linecap:square;stroke-linejoin:round" />
          <path
             id="imagebot_3-7"
             d="m 76.16723,56.723176 c -5.359528,8.752235 -8.9601,8.954041 -15.655179,0.877895 -6.695549,-8.077033 -5.094144,-10.690749 6.959791,-11.366949 12.054895,-0.676042 14.054532,1.736755 8.694428,10.488894 l 6.72e-4,1.12e-4 z"
             inkscape:connector-curvature="0"
             style="fill:#ffc600;fill-rule:evenodd;stroke:#000000;stroke-width:1.00003648;stroke-linecap:square;stroke-linejoin:round" />
        </g>
      </g>
    </g>
  </g>
</svg>
